<svg width="72" height="72" viewBox="0 0 72 72" fill="none" xmlns="http://www.w3.org/2000/svg">
<path d="M63 62C63 63.6569 51.3594 65 37 65C22.6406 65 11 63.6569 11 62C11 60.3431 22.6406 59 37 59C51.3594 59 63 60.3431 63 62Z" fill="#F1F1F1"/>
<path d="M40.2264 15L39.2075 15.6792L38.1887 15L37.1698 15.6792L36.1509 15L35.1321 15.6792L34.1132 15L33.0943 15.6792L32.0755 15L31.0566 15.6792L30.0377 15L29.0189 15.6792L28 15V31.6415C28 32.3918 28.6082 33 29.3585 33H40.9056C41.6559 33 42.2641 32.3918 42.2641 31.6415V15L41.2453 15.6792L40.2264 15Z" fill="#A0A09F"/>
<path d="M28 29.9434H42.2641V31.6415C42.2641 32.3917 41.6559 33 40.9056 33H29.3585C28.6082 33 28 32.3917 28 31.6415V29.9434Z" fill="#6F6F6F"/>
<path d="M42.2663 20.3866C40.9615 20.3866 39.9032 25.6002 39.9032 32.0303H38.0132C38.0132 25.6002 36.9564 20.3866 35.65 20.3866C34.3467 20.3866 33.2884 26.0334 33.2884 33.0009H31.3984C31.3984 25.4975 33.302 19.416 35.65 19.416C36.9866 19.416 38.1795 21.2439 38.9582 24.1028C39.7384 21.2439 40.9298 19.416 42.2663 19.416V20.3866Z" fill="#D8D8D8"/>
<path d="M49.2304 19.7051C50.2997 19.7051 50.9823 20.4842 51.5519 22.3581L51.5653 22.4024L51.5733 22.4181L52.8076 25.0293C52.8331 25.0833 52.8441 25.1431 52.8394 25.2026C52.7372 26.4963 52.5877 27.7984 52.3909 29.1089C52.1942 30.4192 51.9528 31.7211 51.6666 33.0144C51.6329 33.1668 51.5006 33.2767 51.3454 33.2837L51.3298 33.284H42.6669C42.5049 33.284 42.3647 33.1717 42.33 33.0141C42.0414 31.704 41.7999 30.4022 41.6058 29.1089C41.4116 27.8154 41.2621 26.5134 41.1573 25.2029C41.1531 25.1499 41.1613 25.0967 41.1811 25.0476L41.1891 25.0293L42.4269 22.411L42.4314 22.4023L42.4463 22.3529C43.0041 20.5204 43.7561 19.7515 44.796 19.7065L44.8276 19.7054L44.8602 19.7051C45.7143 19.7051 46.4603 20.0294 47.0168 21.2101L47.0453 21.2715L47.0566 21.247C47.6024 20.071 48.3336 19.7374 49.1721 19.7062L49.1989 19.7054L49.2304 19.7051Z" fill="white"/>
<path fill-rule="evenodd" clip-rule="evenodd" d="M42.7582 22.8126H49.8608L49.8466 22.7467C49.6481 21.8438 49.39 21.2971 49.1076 21.2971C48.8128 21.2971 48.5446 21.8472 48.343 22.747L48.3285 22.8126H45.6797L45.6655 22.7467C45.4671 21.8438 45.2089 21.2971 44.9266 21.2971C44.6282 21.2971 44.357 21.8605 44.1547 22.7796L44.1475 22.8126H42.7654C43.258 21.1234 44.0329 20.0332 44.9048 20.0332C45.7515 20.0332 46.5069 20.9867 47.0007 22.4777C47.4948 20.9867 48.25 20.0332 49.0967 20.0332C49.9599 20.0332 50.728 21.1017 51.2211 22.7621L51.236 22.8126H51.2432L52.4272 25.3273C52.3297 26.5655 52.1872 27.8118 51.9996 29.0663C51.812 30.3208 51.5818 31.5671 51.309 32.8053H42.6924C42.4171 31.5508 42.1869 30.3044 42.0018 29.0663C41.8166 27.8281 41.6741 26.5818 41.5742 25.3273L42.7582 22.8126Z" fill="white"/>
<path fill-rule="evenodd" clip-rule="evenodd" d="M42.7582 22.8125H51.2432L52.4272 25.3272C52.4272 25.3272 52.281 27.1844 51.9996 29.0662C51.7182 30.9479 51.309 32.8051 51.309 32.8051H42.6924C42.6924 32.8051 42.2795 30.9234 42.0018 29.0662C41.724 27.2089 41.5742 25.3272 41.5742 25.3272L42.7582 22.8125Z" fill="#6F6F6F"/>
<path fill-rule="evenodd" clip-rule="evenodd" d="M47.0016 29.8941C45.4074 29.8941 44.0531 28.7409 43.5649 27.1373L43.1601 27.3224L42.9648 26.896L44.0782 26.3867L44.2734 26.8132L43.9312 26.9697C44.2671 28.1729 45.5143 29.0663 47.0016 29.0663C48.4889 29.0663 49.736 28.1729 50.072 26.9697L49.7297 26.8132L49.925 26.3867L51.0384 26.896L50.8431 27.3224L50.4383 27.1373C49.95 28.7409 48.5958 29.8941 47.0016 29.8941Z" fill="#D8D8D8"/>
<path fill-rule="evenodd" clip-rule="evenodd" d="M44.1478 22.8126C44.3508 21.874 44.6249 21.2971 44.9268 21.2971C45.2159 21.2971 45.4797 21.8705 45.68 22.8126H48.3288C48.5319 21.874 48.806 21.2971 49.1078 21.2971C49.3971 21.2971 49.6608 21.8705 49.861 22.8126H51.2362C50.7437 21.1234 49.9689 20.0332 49.0969 20.0332C48.2502 20.0332 47.495 20.9867 47.0009 22.4777C46.5071 20.9867 45.7518 20.0332 44.905 20.0332C44.0331 20.0332 43.2582 21.1234 42.7656 22.8126H44.1478Z" fill="#D8D8D8"/>
<path fill-rule="evenodd" clip-rule="evenodd" d="M44.1478 22.8126C44.3508 21.874 44.6249 21.2971 44.9268 21.2971C45.2159 21.2971 45.4797 21.8705 45.68 22.8126H48.3288C48.5319 21.874 48.806 21.2971 49.1078 21.2971C49.3971 21.2971 49.6608 21.8705 49.861 22.8126H51.2362C50.7437 21.1234 49.9689 20.0332 49.0969 20.0332C48.2502 20.0332 47.495 20.9867 47.0009 22.4777C46.5071 20.9867 45.7518 20.0332 44.905 20.0332C44.0331 20.0332 43.2582 21.1234 42.7656 22.8126H44.1478Z" fill="#D8D8D8"/>
<path fill-rule="evenodd" clip-rule="evenodd" d="M48.1799 22.5385C48.3918 21.5929 48.6901 21.0918 49.106 21.0918C49.5113 21.0918 49.7979 21.5896 50.0067 22.5395L50.0642 22.8058H48.1211L48.1799 22.5385ZM49.6368 22.4119C49.4718 21.7551 49.2759 21.4328 49.1137 21.4228L49.106 21.4226C48.9267 21.4226 48.7155 21.7557 48.5427 22.4427L48.5347 22.4748H49.6523L49.6368 22.4119Z" fill="white"/>
<path fill-rule="evenodd" clip-rule="evenodd" d="M43.9925 22.5718C44.2052 21.6054 44.5059 21.0918 44.9258 21.0918C45.3213 21.0918 45.6039 21.566 45.8113 22.4716L45.8265 22.5395L45.884 22.8058H43.9414L43.9925 22.5718ZM45.4566 22.4119C45.2916 21.7551 45.0956 21.4328 44.9335 21.4228L44.9258 21.4226C44.7468 21.4226 44.5354 21.7577 44.3625 22.4436L44.3546 22.4748H45.4721L45.4566 22.4119Z" fill="white"/>
<path d="M11 34C11 33.4477 11.4477 33 12 33H62C62.5523 33 63 33.4477 63 34V38C63 38.5523 62.5523 39 62 39H12C11.4477 39 11 38.5523 11 38V34Z" fill="#A0A09F"/>
<path d="M15 39H59V61C59 61.5523 58.5523 62 58 62H16C15.4477 62 15 61.5523 15 61V39Z" fill="#6F6F6F"/>
<path d="M25.4324 20.8481L25.3247 20.8521C24.9123 20.8687 24.5 20.8992 24.0877 20.9436L24.068 20.9461C23.8196 20.9806 23.6145 21.1571 23.5422 21.3966L23.5386 21.4089L22.6803 21.409C22.4015 21.409 22.1636 21.6111 22.1177 21.8868L22.0049 22.5652L22.0028 22.58C21.9832 22.737 22.0689 22.8832 22.2044 22.9473L22.2111 22.9503L22.2147 23.005C22.2544 23.69 22.2983 24.3773 22.3463 25.064L22.3755 25.4754C22.4351 26.2994 22.5005 27.122 22.5717 27.9436C22.7143 29.5867 22.881 31.2339 23.0718 32.8851C23.091 33.0509 23.1891 33.1294 23.3546 33.1473C24.2012 33.1987 26.0637 33.1992 26.0637 33.1992L26.22 33.1987C27.0608 33.1934 27.7569 33.1473 28.7729 33.1473C28.9384 33.1294 29.0364 33.0509 29.0556 32.8851C29.2458 31.242 29.4125 29.5948 29.5557 27.9436L29.591 27.5309C29.7186 26.0178 29.8259 24.5082 29.9129 23.002L29.9166 22.9502L29.9225 22.9476C30.0625 22.8817 30.1496 22.7281 30.1225 22.5652L30.0097 21.8868L30.0064 21.8685C29.9533 21.6022 29.7198 21.409 29.4472 21.409L28.5888 21.4089L28.5853 21.3966C28.511 21.1508 28.297 20.9713 28.0397 20.9436L27.8971 20.9288C27.5644 20.8956 27.2316 20.8714 26.8989 20.8563L26.8713 20.8551L27.5932 15.7058C27.6206 15.5104 27.4848 15.3297 27.2898 15.3022L26.5839 15.2027C26.3889 15.1753 26.2087 15.3114 26.1813 15.5069L25.4324 20.8481Z" fill="white"/>
<path fill-rule="evenodd" clip-rule="evenodd" d="M22.5195 22.9199C22.5195 22.9199 24.2868 23.0642 26.054 23.0642C27.8212 23.0642 29.5884 22.9199 29.5884 22.9199C29.5884 22.9199 29.4447 25.4023 29.2278 27.897C29.0108 30.3917 28.7228 32.8741 28.7228 32.8741C28.7228 32.8741 27.3884 33.0184 26.054 33.0184C24.7195 33.0184 23.3851 32.8741 23.3851 32.8741C23.3851 32.8741 23.0961 30.3794 22.8802 27.897C22.6643 25.4146 22.5195 22.9199 22.5195 22.9199Z" fill="white"/>
<mask id="mask0_3899_40373" style="mask-type:luminance" maskUnits="userSpaceOnUse" x="22" y="22" width="8" height="12">
<path fill-rule="evenodd" clip-rule="evenodd" d="M22.5195 22.9199C22.5195 22.9199 24.2868 23.0642 26.054 23.0642C27.8212 23.0642 29.5884 22.9199 29.5884 22.9199C29.5884 22.9199 29.4447 25.4023 29.2278 27.897C29.0108 30.3917 28.7228 32.8741 28.7228 32.8741C28.7228 32.8741 27.3884 33.0184 26.054 33.0184C24.7195 33.0184 23.3851 32.8741 23.3851 32.8741C23.3851 32.8741 23.0961 30.3794 22.8802 27.897C22.6643 25.4146 22.5195 22.9199 22.5195 22.9199Z" fill="white"/>
</mask>
<g mask="url(#mask0_3899_40373)">
</g>
<path fill-rule="evenodd" clip-rule="evenodd" d="M24.0443 27.423C23.7065 26.2335 23.2194 25.4016 22.6641 25.1578C22.6639 25.1561 22.6639 25.1561 22.7164 25.8705C23.2028 26.6445 23.553 28.819 23.553 31.3802H24.5358C24.5358 28.1706 25.0858 25.5684 25.7642 25.5684C26.4427 25.5684 26.9928 28.3873 26.9928 31.8644H27.9754C27.9754 28.1198 26.9855 25.084 25.7642 25.084C25.0696 25.084 24.4499 25.9963 24.0443 27.423Z" fill="#D8D8D8"/>
<path fill-rule="evenodd" clip-rule="evenodd" d="M29.5852 22.9199C29.5852 22.9199 29.4415 25.4023 29.2246 27.897C29.0076 30.3917 28.7197 32.8741 28.7197 32.8741C28.7197 32.8741 27.3852 33.0184 26.0508 33.0184C27.1027 33.0184 27.6316 29.6907 27.6376 23.0353C28.7197 22.9921 29.5852 22.9199 29.5852 22.9199Z" fill="#A0A09F" fill-opacity="0.15"/>
<path d="M26.5312 15.4258L27.2455 15.5262L26.4193 21.4051L25.691 21.4041L26.5312 15.4258Z" fill="#F1F1F1"/>
<path d="M26.8867 15.4766L27.101 15.5067L26.272 21.4055L26.0535 21.4052L26.8867 15.4766Z" fill="#EAEAEA"/>
<path fill-rule="evenodd" clip-rule="evenodd" d="M22.6284 21.6914H29.4749C29.5807 21.6914 29.671 21.7679 29.6883 21.8722L29.8025 22.557C28.5522 22.6532 27.3019 22.7013 26.0516 22.7013C24.8013 22.7013 23.5511 22.6532 22.3008 22.557L22.4149 21.8722C22.4323 21.7679 22.5226 21.6914 22.6284 21.6914Z" fill="#F1F1F1"/>
<path fill-rule="evenodd" clip-rule="evenodd" d="M24.0917 21.2205C24.7453 21.1503 25.3989 21.1152 26.0525 21.1152C26.7061 21.1152 27.3597 21.1503 28.0132 21.2205C28.1348 21.2336 28.235 21.3219 28.2632 21.4409L28.2886 21.548H23.8164L23.8418 21.4409C23.87 21.3219 23.9701 21.2336 24.0917 21.2205Z" fill="#F1F1F1"/>
<path d="M15 39H59V43H15V39Z" fill="#A0A09F" fill-opacity="0.15"/>
</svg>
