<svg width="136" height="136" viewBox="0 0 136 136" fill="none" xmlns="http://www.w3.org/2000/svg">
<rect width="136" height="136" fill="#A0A09F" fill-opacity="0.15"/>
<path fill-rule="evenodd" clip-rule="evenodd" d="M76.7188 52.1836H109.806L104.153 98.5983H82.3717L76.7188 52.1836ZM80.3321 55.3836L85.2056 95.3983H101.319L106.193 55.3836H80.3321Z" fill="#A0A09F"/>
<path d="M106.448 66.5423L105.893 71.0994C105.268 67.7908 104.467 65.8037 103.594 65.8037C101.596 65.8037 99.9765 75.4067 99.9765 87.2483H97.0817C97.0817 75.4067 95.4608 65.8037 93.4629 65.8037C91.4649 65.8037 89.844 76.2051 89.844 89.0366H86.9492C86.9492 75.2196 89.8651 64.0176 93.4629 64.0176C95.5084 64.0176 97.3337 67.3832 98.5282 72.648C99.721 67.3832 101.548 64.0176 103.594 64.0176C104.617 64.0176 105.586 64.9252 106.448 66.5423Z" fill="#A0A09F"/>
<path fill-rule="evenodd" clip-rule="evenodd" d="M43.2422 36.3164L49.1304 39.4971L54.3159 37.2562L59.5791 39.5307L64.8423 37.2562L70.1055 39.5307L75.4464 37.2226L79.6569 39.4971L86.4425 36.5648V50.3715H83.2425V41.4336L79.5016 43.0502L75.2911 40.7758L70.1055 43.0167L64.8423 40.7422L59.5791 43.0167L54.3159 40.7422L48.9751 43.0502L46.4422 41.682V68.5671H43.2422V36.3164Z" fill="#A0A09F"/>
<path fill-rule="evenodd" clip-rule="evenodd" d="M98.0038 39.2246L95.8985 54.0085L92.7305 53.5574L94.8357 38.7734L98.0038 39.2246Z" fill="#A0A09F"/>
<path fill-rule="evenodd" clip-rule="evenodd" d="M80.6311 96.323H61.6836V93.123H80.6311V96.323Z" fill="#A0A09F"/>
<path fill-rule="evenodd" clip-rule="evenodd" d="M28.6914 89.7872L31.5201 88.291L35.2801 95.3997H56.5106L60.2706 88.291L63.0993 89.7872L58.4381 98.5997H33.3526L28.6914 89.7872Z" fill="#A0A09F"/>
<path fill-rule="evenodd" clip-rule="evenodd" d="M32.1653 70.3789H59.6242L66.1216 87.2256H25.668L32.1653 70.3789ZM34.3609 73.5789L30.3319 84.0256H61.4577L57.4286 73.5789H34.3609Z" fill="#A0A09F"/>
</svg>
