<svg width="27" height="18" viewBox="0 0 27 18" fill="none" xmlns="http://www.w3.org/2000/svg">
<g clip-path="url(#clip0_109_43751)">
<path d="M0 0H27V18H0V0Z" fill="#E52D42"/>
<path d="M20.6998 3.59068H18.2893L16.5104 7.81174L14.6998 6.60647C14.6998 6.60647 13.3998 3.49594 12.8893 3.017C12.3788 2.50647 11.9051 2.98542 10.3156 3.42752C8.75774 3.86963 8.69458 4.41173 8.09458 4.41173C7.84195 4.41173 7.04722 3.49068 6.63669 3.23805C5.99985 2.82752 5.74722 3.017 5.90511 3.617C5.96827 3.86963 6.4788 4.19068 6.79458 4.66436C7.20511 5.26963 7.46301 6.02752 7.46301 6.02752C7.46301 6.02752 8.03669 5.48542 8.35248 5.39068C8.82616 5.26437 9.36827 5.48542 10.0051 5.39068C10.7998 5.26437 11.6577 4.817 11.6577 4.817L11.8788 7.10121C11.8788 7.10121 9.0209 9.76963 9.27353 10.817C9.52616 11.8644 12.2262 13.1644 12.863 14.117C13.4998 15.0381 12.4841 15.3854 12.4841 15.8328C12.4841 16.2802 12.3893 16.8802 12.863 16.6907C13.3367 16.5012 13.4051 15.7381 13.8472 15.0381C14.163 14.5644 14.3893 14.3065 14.4525 14.117C14.5472 13.6433 13.2156 12.4328 12.4841 11.5433C12.1367 11.1328 11.4367 10.5591 11.4367 10.5591L13.4998 9.00121C13.4998 9.00121 17.0577 10.4591 17.8472 9.98542C18.642 9.51174 18.863 4.81173 18.863 4.81173L21.3367 4.20647L20.6998 3.59068Z" fill="white"/>
<path d="M14.6986 13.812C14.3828 13.812 14.0933 13.5594 14.0933 13.2068C14.0933 12.8541 14.346 12.6015 14.6986 12.6015C15.0144 12.6015 15.3039 12.8541 15.3039 13.2068C15.3039 13.5594 15.0144 13.812 14.6986 13.812ZM17.1091 4.19099C16.7933 4.19099 16.5039 3.93836 16.5039 3.58573C16.5039 3.2331 16.7565 2.98047 17.1091 2.98047C17.4249 2.98047 17.7144 3.2331 17.7144 3.58573C17.7144 3.93836 17.4249 4.19099 17.1091 4.19099ZM17.1091 8.98573C16.7933 8.98573 16.5039 8.73309 16.5039 8.38046C16.5039 8.06467 16.7565 7.7752 17.1091 7.7752C17.4249 7.7752 17.7144 8.02783 17.7144 8.38046C17.6828 8.73309 17.4249 8.98573 17.1091 8.98573ZM9.90386 11.3962C9.58808 11.3962 9.2986 11.1436 9.2986 10.791C9.2986 10.4752 9.55123 10.1857 9.90386 10.1857C10.2512 10.1857 10.5091 10.4384 10.5091 10.791C10.5091 11.1436 10.2197 11.3962 9.90386 11.3962ZM12.2828 4.19099C11.967 4.19099 11.6775 3.93836 11.6775 3.58573C11.6775 3.2331 11.9302 2.98047 12.2828 2.98047C12.5986 2.98047 12.8881 3.2331 12.8881 3.58573C12.8881 3.93836 12.6354 4.19099 12.2828 4.19099ZM13.4881 8.98573C13.1723 8.98573 12.8828 8.44362 12.8828 7.78046C12.8828 7.11731 13.1354 6.5752 13.4881 6.5752C13.8039 6.5752 14.0933 7.11731 14.0933 7.78046C14.0933 8.44362 13.8407 8.98573 13.4881 8.98573ZM7.48808 6.60678C7.17229 6.60678 6.88281 6.35415 6.88281 6.00152C6.88281 5.65415 7.13544 5.39626 7.48808 5.39626C7.83544 5.39626 8.09334 5.64889 8.09334 6.00152C8.09334 6.34889 7.84071 6.60678 7.48808 6.60678Z" fill="#F8DD4E"/>
</g>
<rect x="0.5" y="0.5" width="26" height="17" rx="0.5" stroke="black" stroke-opacity="0.2"/>
<defs>
<clipPath id="clip0_109_43751">
<rect width="27" height="18" rx="1" fill="white"/>
</clipPath>
</defs>
</svg>
