<svg width="44" height="44" viewBox="0 0 44 44" fill="none" xmlns="http://www.w3.org/2000/svg">
<g clip-path="url(#clip0_17_28600)">
<path fill-rule="evenodd" clip-rule="evenodd" d="M22.0468 42.3815C27.0756 42.3815 31.1523 41.5511 31.1523 40.5267C31.1523 39.5023 27.0756 38.6719 22.0468 38.6719C17.018 38.6719 12.9414 39.5023 12.9414 40.5267C12.9414 41.5511 17.018 42.3815 22.0468 42.3815Z" fill="#A0A09F" fill-opacity="0.15"/>
<path fill-rule="evenodd" clip-rule="evenodd" d="M23.7337 29.7356V40.7247L23.6389 40.8569C23.2904 41.3426 22.745 41.5389 22.1318 41.5389C21.5186 41.5389 20.9732 41.3426 20.6247 40.8569L20.5299 40.7247V29.7356H15.64C15.1743 29.7356 14.7969 29.3581 14.7969 28.8925V3.43099C14.7969 2.96536 15.1743 2.58789 15.64 2.58789H28.6236C29.0893 2.58789 29.4667 2.96536 29.4667 3.43099V28.8925C29.4667 29.3581 29.0893 29.7356 28.6236 29.7356H23.7337Z" fill="white"/>
<path fill-rule="evenodd" clip-rule="evenodd" d="M21.0352 29.7363H23.2272V40.5628C23.002 40.8768 22.6366 41.0338 22.1312 41.0338C21.6257 41.0338 21.2604 40.8768 21.0352 40.5628V29.7363Z" fill="#ADADAD"/>
<path d="M15.3008 3.43099C15.3008 3.24474 15.4518 3.09375 15.638 3.09375H28.6217C28.8079 3.09375 28.9589 3.24474 28.9589 3.43099V28.8925C28.9589 29.0787 28.8079 29.2297 28.6217 29.2297H15.638C15.4518 29.2297 15.3008 29.0787 15.3008 28.8925V3.43099Z" fill="#292929"/>
<path fill-rule="evenodd" clip-rule="evenodd" d="M22.1286 14.3919C24.5964 14.3919 26.597 12.3913 26.597 9.92349C26.597 7.45565 24.5964 5.45508 22.1286 5.45508C19.6607 5.45508 17.6602 7.45565 17.6602 9.92349C17.6602 12.3913 19.6607 14.3919 22.1286 14.3919Z" fill="#FFBC0D"/>
<path d="M24.4082 18.1129V18.774V19.4641V25.8467C24.4082 26.1323 24.1697 26.3639 23.8754 26.3639H20.3882C20.094 26.3639 19.8555 26.1323 19.8555 25.8467V19.838V19.2484V19.0054V18.6127V18.1129C19.8555 17.8272 20.094 17.5957 20.3882 17.5957H23.8754C24.1696 17.5957 24.4082 17.8272 24.4082 18.1129Z" fill="white"/>
<path d="M23.735 24.9515C23.735 25.0793 23.6282 25.1829 23.4964 25.1829H20.7698C20.6381 25.1829 20.5312 25.0793 20.5312 24.9515V19.0069C20.5312 18.879 20.6381 18.7754 20.7698 18.7754H23.4964C23.6282 18.7754 23.735 18.879 23.735 19.0069L23.735 24.9515Z" fill="#292929"/>
</g>
<defs>
<clipPath id="clip0_17_28600">
<rect width="44" height="44" fill="white"/>
</clipPath>
</defs>
</svg>
