<svg width="72" height="72" viewBox="0 0 72 72" fill="none" xmlns="http://www.w3.org/2000/svg">
<path d="M51.6667 68.125C51.6667 69.7128 44.8017 71 36.3333 71C27.865 71 21 69.7128 21 68.125C21 66.5372 27.865 65.25 36.3333 65.25C44.8017 65.25 51.6667 66.5372 51.6667 68.125Z" fill="#F0F0F0"/>
<path d="M21 3.91667C21 2.85812 21.8581 2 22.9167 2H49.75C50.8085 2 51.6667 2.85812 51.6667 3.91667V42.25C51.6667 43.3085 50.8085 44.1667 49.75 44.1667H22.9167C21.8581 44.1667 21 43.3085 21 42.25V3.91667Z" fill="#FFBC0D"/>
<path d="M34.418 44.166H38.2513V67.166C38.2513 67.166 37.7721 68.1243 36.3346 68.1243C34.8971 68.1243 34.418 67.166 34.418 67.166V44.166Z" fill="#C5C5C5"/>
<path d="M35.8555 44.166H34.418V67.166C34.418 67.166 34.7885 67.9071 35.8555 68.0859V44.166Z" fill="#A0A09F"/>
<path d="M31.543 19.25L34.5826 7.75H38.0867L41.1263 19.25H38.0655L37.6012 16.9328H34.9626L34.4982 19.25H31.543ZM35.3214 15.0791H37.2212L36.2713 10.3418L35.3214 15.0791Z" fill="white"/>
<path d="M39.4894 25H32.214C31.8412 25 31.5391 25.2445 31.5391 25.5462V38.8288C31.5391 39.1305 31.8413 39.375 32.214 39.375H39.4894C39.8622 39.375 40.1643 39.1305 40.1643 38.8288V25.5462C40.1643 25.2445 39.862 25 39.4894 25Z" fill="#1D1D1B"/>
<path fill-rule="evenodd" clip-rule="evenodd" d="M32.8099 37.459H38.8987C39.0698 37.459 39.2085 37.3372 39.2085 37.187V26.231C39.2085 26.0807 39.0698 25.959 38.8987 25.959H32.8099C32.6387 25.959 32.5 26.0808 32.5 26.231V37.187C32.5 37.3372 32.6388 37.459 32.8099 37.459ZM35.0896 38.992H36.9479C37.1165 38.992 37.2531 38.8631 37.2531 38.7039C37.2531 38.5448 37.1165 38.4158 36.9479 38.4158H35.0896C34.921 38.4158 34.7845 38.5448 34.7845 38.7039C34.7845 38.8631 34.921 38.992 35.0896 38.992Z" fill="#E9E5E3"/>
<path fill-rule="evenodd" clip-rule="evenodd" d="M31.2984 31.3027C31.2615 31.1737 31.282 31.0541 31.3613 30.9373C31.421 30.849 31.4961 30.7875 31.588 30.75V31.7167C31.4589 31.5977 31.3421 31.4553 31.2984 31.3027ZM31.588 33.7778C31.4747 33.7258 31.353 33.6882 31.2324 33.6845C31.084 33.6785 30.9606 33.7261 30.8482 33.8252C30.7392 33.9215 30.6863 34.033 30.6864 34.1662C30.6869 34.564 31.1568 35.0016 31.2107 35.0506L31.5881 35.3064V33.7778H31.588ZM31.4833 33.356L31.475 33.3513C31.4685 33.3479 30.8327 33.0101 30.7163 32.603C30.6794 32.4738 30.6998 32.3543 30.7791 32.2374C30.8606 32.1171 30.9698 32.0454 31.1126 32.0183C31.1579 32.0098 31.2046 32.0059 31.252 32.0059C31.3639 32.0059 31.4792 32.0282 31.5881 32.059V33.4215L31.4833 33.356ZM31.173 36.0325C30.8015 36.0325 30.6668 36.2321 30.6185 36.3595C30.5148 36.6339 30.6404 36.9749 30.8929 37.1039C31.1861 37.254 31.3667 37.2579 31.5833 37.1194C31.7235 37.0298 31.9921 36.6556 31.9094 36.3749C31.8548 36.1891 31.6485 36.0763 31.2966 36.0392C31.253 36.0347 31.2117 36.0325 31.173 36.0325ZM36.3102 44.1669H41.8181L41.6081 42.1422C41.6081 42.1422 41.5218 40.3682 41.884 39.1916C42.263 37.9644 42.0164 36.6718 41.8181 35.6333C41.7127 35.0814 41.6218 34.6048 41.6422 34.235C41.6665 33.8017 41.1803 31.8329 40.9617 30.9968C40.838 30.9862 40.6075 30.992 40.3959 31.1302C39.6223 31.6182 39.76 33.3643 39.8257 33.5525C39.879 33.683 40.1825 35.5913 39.2824 36.8122C38.6731 37.6395 38.3377 38.7788 38.1576 39.3907L37.3842 39.3752L33.0883 39.3907C33.3619 39.8959 33.9409 40.7163 34.323 41.0489C34.9539 41.598 35.2891 42.2326 35.5849 42.7925L35.585 42.7926C35.7671 43.1375 35.9335 43.4512 36.1406 43.6787L36.3102 44.1669Z" fill="#BB814C"/>
<path d="M35.0589 37.459C34.9934 36.9669 34.7734 35.3027 34.7734 35.3027C34.7734 35.3027 35.3056 35.3027 35.9647 35.3027C36.7325 35.3027 36.9297 35.3047 36.9297 35.3047C36.9297 35.3047 36.728 36.9827 36.6689 37.459H35.0589Z" fill="#FCBC00"/>
<path d="M36.9672 35.3027H34.7393C34.5906 35.3027 34.4939 35.1463 34.5604 35.0133L34.7198 34.6945C34.7537 34.6268 34.8229 34.584 34.8987 34.584H36.8078C36.8835 34.584 36.9528 34.6268 36.9867 34.6945L37.1461 35.0133C37.2125 35.1463 37.1158 35.3027 36.9672 35.3027Z" fill="#502C1E"/>
<path d="M36.5537 35.2552H35.1493C35.0192 35.2552 34.9237 35.1329 34.9553 35.0067L35.0949 34.4484C35.1171 34.3593 35.1971 34.2969 35.2889 34.2969H36.4141C36.5059 34.2969 36.5859 34.3593 36.6082 34.4484L36.7477 35.0067C36.7793 35.1329 36.6838 35.2552 36.5537 35.2552Z" fill="#502C1E"/>
<path d="M34.7031 30.391C34.7031 30.0596 34.9718 29.791 35.3031 29.791H36.4032C36.7346 29.791 37.0032 30.0596 37.0032 30.391V31.1077C37.0032 31.4391 36.7346 31.7077 36.4032 31.7077H35.3031C34.9718 31.7077 34.7031 31.4391 34.7031 31.1077V30.391Z" fill="#FCBC00"/>
<path d="M35.0749 33.0501C35.3161 32.968 35.4964 32.9185 35.8516 32.9185C36.2068 32.9185 36.3871 32.968 36.6283 33.0501L36.7978 32.9188C37.0584 32.0889 37.2505 30.9025 37.2891 30.6543H36.9426C36.8803 30.8085 36.5882 31.4152 35.8516 31.4152C35.1151 31.4152 34.8229 30.8085 34.7606 30.6543H34.4141C34.4528 30.9025 34.6448 32.0891 34.9054 32.9188L35.0749 33.0501Z" fill="#E3051B"/>
<path d="M34.418 25.959H37.293V26.9173H34.418V25.959Z" fill="#E6A65D"/>
<path d="M34.418 27.9555C34.418 28.1764 34.5971 28.3555 34.818 28.3555H36.893C37.114 28.3555 37.293 28.1764 37.293 27.9555V27.3971H34.418V27.9555Z" fill="#E6A65D"/>
<path d="M33.9375 26.9167C33.9375 26.652 34.152 26.4375 34.4167 26.4375H37.2918C37.5564 26.4375 37.7709 26.652 37.7709 26.9167C37.7709 27.1813 37.5564 27.3958 37.2918 27.3958H34.4167C34.152 27.3958 33.9375 27.1813 33.9375 26.9167Z" fill="#843A21"/>
</svg>
