<svg width="153" height="98" viewBox="0 0 153 98" fill="none" xmlns="http://www.w3.org/2000/svg">
<rect x="1.5" y="9" width="150" height="80" rx="40" fill="white"/>
<g clip-path="url(#clip0_1590_46326)">
<path d="M117.265 20.9375C111.651 20.9375 106.645 28.3545 103.37 39.9523C100.095 28.3545 95.0826 20.9375 89.4695 20.9375C79.6018 20.9375 71.6016 45.6144 71.6016 76.0499H79.5423C79.5423 47.788 83.9862 24.8714 89.4695 24.8714C94.9527 24.8714 99.3967 46.0223 99.3967 72.1106H107.337C107.337 46.0223 111.781 24.8714 117.265 24.8714C122.748 24.8714 127.192 47.7826 127.192 76.0499H135.133C135.133 45.6144 127.132 20.9375 117.265 20.9375Z" fill="#FFBC0D"/>
<path d="M17.4336 61.2205L20.3999 34.9336H27.3229L32.8603 51.4528L38.441 34.9336H45.3641L48.3303 61.2205H41.2557L39.713 45.1736L35.0038 59.2992H30.614L25.8669 45.0179L24.2863 61.2205H17.4336ZM49.8784 68.9864L51.2641 64.9076C52.0814 65.2457 52.888 65.4174 53.6782 65.4174C54.2845 65.4174 54.8312 65.2349 55.3183 64.87C55.8055 64.5051 56.2981 63.7591 56.8015 62.632L57.5539 60.9039L49.8405 41.4436H56.8069L60.6067 53.9216L64.2875 41.4436H70.8154L62.3443 62.9057C61.397 65.3101 60.2874 67.0919 59.0208 68.2404C57.7541 69.3889 56.2223 69.9685 54.4306 69.9685C53.505 69.9685 52.6606 69.8827 51.8974 69.7109C51.1342 69.5445 50.4576 69.303 49.8784 68.9864Z" fill="url(#paint0_linear_1590_46326)"/>
</g>
<defs>
<linearGradient id="paint0_linear_1590_46326" x1="17.4336" y1="52.451" x2="70.8122" y2="52.451" gradientUnits="userSpaceOnUse">
<stop offset="0.000616698" stop-color="#910063"/>
<stop offset="0.0362" stop-color="#990059"/>
<stop offset="0.1727" stop-color="#B60035"/>
<stop offset="0.3012" stop-color="#CA001C"/>
<stop offset="0.4172" stop-color="#D7000C"/>
<stop offset="0.5101" stop-color="#DB0007"/>
<stop offset="1" stop-color="#E8720A"/>
</linearGradient>
<clipPath id="clip0_1590_46326">
<rect width="117.698" height="55.1124" fill="white" transform="translate(17.4336 20.9336)"/>
</clipPath>
</defs>
</svg>
