<svg width="375" height="225" viewBox="0 0 375 225" fill="none" xmlns="http://www.w3.org/2000/svg">
<g clip-path="url(#clip0_17_28655)">
<g clip-path="url(#clip1_17_28655)">
<path fill-rule="evenodd" clip-rule="evenodd" d="M124 177C122.895 177 122 176.105 122 175L122 38C122 36.8954 122.895 36 124 36H130C131.105 36 132 36.8954 132 38V175C132 176.105 131.105 177 130 177H124Z" fill="#EAEAEA"/>
<path fill-rule="evenodd" clip-rule="evenodd" d="M160.205 29.6678C160.462 28.5935 161.541 27.9309 162.616 28.1878L169.402 29.8108C170.477 30.0677 171.139 31.1468 170.883 32.2211L153.247 105.967C153.174 106.273 153.174 106.592 153.247 106.898L170.883 180.644C171.139 181.718 170.477 182.798 169.403 183.054L162.616 184.677C161.541 184.934 160.462 184.272 160.205 183.197L141.96 106.898C141.887 106.592 141.887 106.273 141.96 105.967L160.205 29.6678Z" fill="#EAEAEA"/>
<path opacity="0.2" d="M155.303 97.5967L153.247 106.195C153.174 106.501 153.174 106.82 153.247 107.126L165.495 158.348L146.226 124.972L141.959 107.126C141.886 106.82 141.886 106.501 141.959 106.195L146.886 85.5908L155.303 97.5967ZM132 66.2471V100.331L122 83.0107V64.5664L132 66.2471Z" fill="#6F6F6F"/>
<path fill-rule="evenodd" clip-rule="evenodd" d="M94 167C92.8954 167 92 166.105 92 165L92 48C92 46.8954 92.8954 46 94 46H99C100.105 46 101 46.8954 101 48L101 165C101 166.105 100.105 167 99 167H94Z" fill="#EAEAEA"/>
<ellipse cx="191.004" cy="201.006" rx="59" ry="9" fill="#A0A09F" fill-opacity="0.15"/>
<path d="M184.98 44.7853C184.93 44.8144 184.884 44.8506 184.841 44.8848L179.869 36.272C177.721 32.552 172.975 31.27 169.27 33.409L125.346 58.7684C121.641 60.9075 120.375 65.6605 122.523 69.3805L126.281 75.8897C125.909 76.1576 125.79 76.6737 126.023 77.0778L128.079 80.6391C128.315 81.0468 128.819 81.1983 129.237 81.0097L131.066 84.1777C130.69 84.4384 130.571 84.9545 130.806 85.3622L134.341 91.4853C134.577 91.8931 135.081 92.0445 135.499 91.856L180.692 170.132C182.84 173.852 187.586 175.134 191.291 172.995L235.214 147.636C238.919 145.497 240.182 140.746 238.034 137.026L190.029 53.8785C190.082 53.8624 190.134 53.8369 190.185 53.8079C190.616 53.5589 190.764 53.002 190.514 52.569L186.214 45.1217C185.968 44.6866 185.411 44.5363 184.98 44.7853Z" fill="#6F6F6F"/>
<path d="M231.928 136.091C233.097 138.115 232.408 140.697 230.395 141.859L188.703 165.93C186.687 167.094 184.108 166.394 182.941 164.374L128.626 70.2971C127.457 68.2729 128.147 65.6908 130.159 64.5289L171.851 40.4579C173.867 39.294 176.447 39.9938 177.613 42.0144L231.928 136.091Z" fill="white"/>
<path d="M152.825 48.6L146.723 52.1228C146.292 52.3718 145.735 52.2215 145.485 51.7885C145.235 51.3556 145.383 50.7986 145.815 50.5497L151.916 47.0268C152.348 46.7778 152.904 46.9281 153.154 47.3611C153.404 47.7941 153.256 48.351 152.825 48.6Z" fill="white"/>
<g style="mix-blend-mode:multiply">
<path d="M224.251 122.366L215.897 149.996L202.004 158.019L214.512 116.647C214.619 116.293 214.625 115.915 214.53 115.557L209.607 97.0059L224.251 122.366Z" fill="#A0A09F" fill-opacity="0.15"/>
</g>
<ellipse cx="177.465" cy="99.8846" rx="13.4588" ry="13.8775" transform="rotate(-30 177.465 99.8846)" fill="#DB0007"/>
<path d="M174.402 107.695L178.233 93.3995C178.511 92.3634 179.576 91.7484 180.612 92.0261L176.781 106.322C176.504 107.358 175.439 107.973 174.402 107.695Z" fill="white"/>
<path d="M169.672 96.7559L183.968 100.586C185.004 100.864 185.619 101.929 185.341 102.965L171.045 99.1348C170.009 98.8571 169.394 97.792 169.672 96.7559Z" fill="white"/>
<path fill-rule="evenodd" clip-rule="evenodd" d="M233.851 111.032C233.946 111.391 233.939 111.769 233.832 112.124L212.241 183.54C211.921 184.597 210.805 185.195 209.748 184.876L203.068 182.856C202.011 182.537 201.413 181.42 201.732 180.363L222.422 111.928C222.529 111.573 222.536 111.195 222.441 110.837L201.615 32.3401C201.332 31.2725 201.968 30.1774 203.035 29.8941L209.78 28.1047C210.848 27.8214 211.943 28.4573 212.226 29.5249L233.851 111.032Z" fill="#EAEAEA"/>
<path fill-rule="evenodd" clip-rule="evenodd" d="M246 177C244.895 177 244 176.105 244 175V38C244 36.8954 244.895 36 246 36H252C253.105 36 254 36.8954 254 38V175C254 176.105 253.105 177 252 177H246Z" fill="#EAEAEA"/>
<path fill-rule="evenodd" clip-rule="evenodd" d="M277 167C275.895 167 275 166.105 275 165V48C275 46.8954 275.895 46 277 46H282C283.105 46 284 46.8954 284 48V165C284 166.105 283.105 167 282 167H277Z" fill="#EAEAEA"/>
</g>
<mask id="path-16-outside-1_17_28655" maskUnits="userSpaceOnUse" x="89" y="24.0371" width="198" height="164" fill="black">
<rect fill="white" x="89" y="24.0371" width="198" height="164"/>
<path fill-rule="evenodd" clip-rule="evenodd" d="M233.832 112.123C233.94 111.768 233.946 111.39 233.851 111.032L212.227 29.5247C211.944 28.4571 210.848 27.8212 209.781 28.1045L203.036 29.8939C201.968 30.1772 201.332 31.2723 201.616 32.3399L222.043 109.336L190.025 53.8788C190.078 53.8627 190.13 53.8372 190.181 53.8082C190.612 53.5592 190.76 53.0023 190.51 52.5693L186.21 45.122C185.964 44.6869 185.408 44.5366 184.976 44.7856C184.926 44.8146 184.88 44.8509 184.837 44.8851L179.865 36.2723C177.996 33.0359 174.161 31.6448 170.756 32.7464L170.882 32.221C171.139 31.1467 170.476 30.0676 169.402 29.8107L162.615 28.1877C161.541 27.9308 160.461 28.5934 160.205 29.6677L157.715 40.0785L132 54.9251L132 37.9994C132 36.8948 131.105 35.9994 130 35.9994H124C122.895 35.9994 122 36.8948 122 37.9994V62.6714C121.315 64.4401 121.28 66.4477 122 68.299V174.999C122 176.104 122.895 176.999 124 176.999H130C131.105 176.999 132 176.104 132 174.999L132 100.33V87.4369L134.338 91.4856C134.573 91.8934 135.077 92.0448 135.495 91.8563L142.452 103.905L141.959 105.967C141.914 106.157 141.896 106.353 141.907 106.546C141.896 106.74 141.914 106.935 141.959 107.125L146.226 124.971L146.32 125.134L160.205 183.197C160.461 184.272 161.541 184.934 162.615 184.677L169.402 183.054C170.476 182.797 171.139 181.718 170.882 180.644L159.657 133.706L180.688 170.133C182.836 173.853 187.582 175.135 191.287 172.996L206.64 164.131L201.733 180.363C201.413 181.42 202.011 182.537 203.069 182.856L209.748 184.876C210.806 185.195 211.922 184.597 212.241 183.54L220.534 156.109L235.21 147.636C238.915 145.497 240.178 140.746 238.03 137.026L230.334 123.696L233.832 112.123ZM92 164.999C92 166.104 92.8954 166.999 94 166.999H99C100.105 166.999 101 166.104 101 164.999V47.9994C101 46.8948 100.105 45.9994 99 45.9994H94C92.8954 45.9994 92 46.8948 92 47.9994V164.999ZM246 176.999C244.895 176.999 244 176.104 244 174.999V37.9992C244 36.8946 244.895 35.9992 246 35.9992H252C253.105 35.9992 254 36.8946 254 37.9992V174.999C254 176.104 253.105 176.999 252 176.999H246ZM275 164.999C275 166.104 275.895 166.999 277 166.999H282C283.105 166.999 284 166.104 284 164.999V47.9994C284 46.8948 283.105 45.9994 282 45.9994H277C275.895 45.9994 275 46.8948 275 47.9994V164.999Z"/>
</mask>
<path d="M233.851 111.032L236.751 110.263L236.751 110.262L233.851 111.032ZM233.832 112.123L230.961 111.255V111.255L233.832 112.123ZM212.227 29.5247L215.127 28.7554V28.7554L212.227 29.5247ZM209.781 28.1045L209.012 25.2048V25.2048L209.781 28.1045ZM203.036 29.8939L203.805 32.7936V32.7936L203.036 29.8939ZM201.616 32.3399L198.716 33.1092L198.716 33.1092L201.616 32.3399ZM222.043 109.336L219.445 110.836L224.943 108.566L222.043 109.336ZM190.025 53.8788L189.15 51.0091L185.54 52.1097L187.427 55.3788L190.025 53.8788ZM190.181 53.8082L188.681 51.2101L188.681 51.2101L190.181 53.8082ZM190.51 52.5693L193.108 51.0693L193.108 51.0693L190.51 52.5693ZM186.21 45.122L183.6 46.6003L183.606 46.6112L183.612 46.622L186.21 45.122ZM184.976 44.7856L186.476 47.3837L186.476 47.3837L184.976 44.7856ZM184.837 44.8851L182.239 46.3851L183.989 49.4153L186.716 47.2237L184.837 44.8851ZM179.865 36.2723L182.463 34.7723V34.7723L179.865 36.2723ZM170.756 32.7464L167.838 32.0487L166.596 37.2453L171.679 35.6007L170.756 32.7464ZM170.882 32.221L167.964 31.5232L167.964 31.5232L170.882 32.221ZM169.402 29.8107L170.099 26.8929V26.8929L169.402 29.8107ZM162.615 28.1877L161.917 31.1054L162.615 28.1877ZM160.205 29.6677L163.122 30.3654V30.3654L160.205 29.6677ZM157.715 40.0785L159.215 42.6766L160.333 42.0313L160.633 40.7762L157.715 40.0785ZM132 54.9251L129 54.9251L129 60.1212L133.5 57.5232L132 54.9251ZM132 37.9994H129V37.9994L132 37.9994ZM122 62.6714L124.798 63.7543L125 63.2318V62.6714H122ZM122 68.299H125V67.7363L124.796 67.2119L122 68.299ZM132 174.999H129H132ZM132 100.33H135H132ZM132 87.4369L134.598 85.9369L129 76.2407V87.4369H132ZM134.338 91.4856L131.739 92.9856L134.338 91.4856ZM135.495 91.8563L138.094 90.3563L136.737 88.006L134.263 89.1213L135.495 91.8563ZM142.452 103.905L145.37 104.603L145.648 103.441L145.05 102.405L142.452 103.905ZM141.959 105.967L144.877 106.665V106.665L141.959 105.967ZM141.907 106.546L144.903 106.717L144.912 106.546L144.903 106.376L141.907 106.546ZM141.959 107.125L144.877 106.428L144.877 106.428L141.959 107.125ZM146.226 124.971L143.308 125.669L143.409 126.093L143.628 126.471L146.226 124.971ZM146.32 125.134L149.238 124.437L149.136 124.012L148.918 123.634L146.32 125.134ZM160.205 183.197L163.122 182.5V182.5L160.205 183.197ZM162.615 184.677L161.917 181.76H161.917L162.615 184.677ZM169.402 183.054L170.099 185.972H170.099L169.402 183.054ZM170.882 180.644L167.964 181.342H167.964L170.882 180.644ZM159.657 133.706L162.256 132.206L156.74 134.404L159.657 133.706ZM180.688 170.133L178.09 171.633L180.688 170.133ZM191.287 172.996L189.787 170.397L189.787 170.397L191.287 172.996ZM206.64 164.131L209.512 164.999L211.706 157.742L205.14 161.533L206.64 164.131ZM201.733 180.363L198.861 179.495L201.733 180.363ZM203.069 182.856L202.2 185.728L202.2 185.728L203.069 182.856ZM209.748 184.876L210.616 182.004L210.616 182.004L209.748 184.876ZM212.241 183.54L209.37 182.672L212.241 183.54ZM220.534 156.109L219.034 153.511L218.006 154.105L217.663 155.241L220.534 156.109ZM235.21 147.636L236.71 150.234L235.21 147.636ZM238.03 137.026L240.628 135.526V135.526L238.03 137.026ZM230.334 123.696L227.462 122.827L227.086 124.071L227.736 125.196L230.334 123.696ZM233.851 111.032L230.951 111.801C230.904 111.622 230.907 111.433 230.961 111.255L233.832 112.123L236.704 112.992C236.973 112.104 236.989 111.159 236.751 110.263L233.851 111.032ZM212.227 29.5247L209.327 30.294L230.951 111.801L233.851 111.032L236.751 110.262L215.127 28.7554L212.227 29.5247ZM209.781 28.1045L210.55 31.0042C210.016 31.1458 209.469 30.8279 209.327 30.2941L212.227 29.5247L215.127 28.7554C214.418 26.0863 211.681 24.4967 209.012 25.2048L209.781 28.1045ZM203.036 29.8939L203.805 32.7936L210.55 31.0042L209.781 28.1045L209.012 25.2048L202.267 26.9943L203.036 29.8939ZM201.616 32.3399L204.515 31.5706C204.657 32.1044 204.339 32.652 203.805 32.7936L203.036 29.8939L202.267 26.9943C199.598 27.7024 198.008 30.4402 198.716 33.1092L201.616 32.3399ZM222.043 109.336L224.943 108.566L204.515 31.5706L201.616 32.3399L198.716 33.1092L219.143 110.105L222.043 109.336ZM190.025 53.8788L187.427 55.3788L219.445 110.836L222.043 109.336L224.641 107.836L192.623 52.3788L190.025 53.8788ZM190.181 53.8082L188.681 51.2101C188.74 51.1757 188.906 51.0836 189.15 51.0091L190.025 53.8788L190.9 56.7485C191.25 56.6417 191.521 56.4987 191.681 56.4062L190.181 53.8082ZM190.51 52.5693L187.912 54.0693C187.339 53.0774 187.667 51.7953 188.681 51.2101L190.181 53.8082L191.681 56.4063C193.557 55.3231 194.181 52.9272 193.108 51.0693L190.51 52.5693ZM186.21 45.122L183.612 46.622L187.912 54.0693L190.51 52.5693L193.108 51.0693L188.808 43.622L186.21 45.122ZM184.976 44.7856L186.476 47.3837C185.467 47.9665 184.176 47.6181 183.6 46.6003L186.21 45.122L188.821 43.6436C187.752 41.7557 185.348 41.1068 183.476 42.1875L184.976 44.7856ZM184.837 44.8851L186.716 47.2237C186.733 47.2106 186.712 47.2281 186.678 47.2527C186.642 47.2789 186.573 47.3282 186.476 47.3837L184.976 44.7856L183.477 42.1875C183.204 42.3446 182.997 42.5151 182.958 42.5465L184.837 44.8851ZM179.865 36.2723L177.267 37.7723L182.239 46.3851L184.837 44.8851L187.435 43.3851L182.463 34.7723L179.865 36.2723ZM170.756 32.7464L171.679 35.6007C173.759 34.9282 176.116 35.7797 177.267 37.7723L179.865 36.2723L182.463 34.7723C179.876 30.2921 174.564 28.3615 169.833 29.892L170.756 32.7464ZM170.882 32.221L167.964 31.5232L167.838 32.0487L170.756 32.7464L173.674 33.4441L173.799 32.9187L170.882 32.221ZM169.402 29.8107L168.704 32.7284C168.167 32.6 167.836 32.0604 167.964 31.5232L170.882 32.221L173.799 32.9187C174.442 30.233 172.785 27.5352 170.099 26.8929L169.402 29.8107ZM162.615 28.1877L161.917 31.1054L168.704 32.7284L169.402 29.8107L170.099 26.8929L163.313 25.27L162.615 28.1877ZM160.205 29.6677L163.122 30.3654C162.994 30.9026 162.454 31.2339 161.917 31.1054L162.615 28.1877L163.313 25.27C160.627 24.6277 157.929 26.2843 157.287 28.97L160.205 29.6677ZM157.715 40.0785L160.633 40.7762L163.122 30.3654L160.205 29.6677L157.287 28.97L154.797 39.3808L157.715 40.0785ZM132 54.9251L133.5 57.5232L159.215 42.6766L157.715 40.0785L156.215 37.4804L130.5 52.327L132 54.9251ZM132 37.9994L129 37.9994L129 54.9251L132 54.9251L135 54.9251L135 37.9994L132 37.9994ZM130 35.9994V38.9994C129.448 38.9994 129 38.5517 129 37.9994H132H135C135 35.238 132.761 32.9994 130 32.9994V35.9994ZM124 35.9994V38.9994H130V35.9994V32.9994H124V35.9994ZM122 37.9994H125C125 38.5517 124.552 38.9994 124 38.9994V35.9994V32.9994C121.239 32.9994 119 35.238 119 37.9994H122ZM122 62.6714H125V37.9994H122H119V62.6714H122ZM122 68.299L124.796 67.2119C124.356 66.0797 124.375 64.8464 124.798 63.7543L122 62.6714L119.202 61.5885C118.256 64.0337 118.204 66.8157 119.204 69.3862L122 68.299ZM122 174.999H125V68.299H122H119V174.999H122ZM124 176.999V173.999C124.552 173.999 125 174.447 125 174.999H122H119C119 177.761 121.239 179.999 124 179.999V176.999ZM130 176.999V173.999H124V176.999V179.999H130V176.999ZM132 174.999H129C129 174.447 129.448 173.999 130 173.999V176.999V179.999C132.761 179.999 135 177.761 135 174.999H132ZM132 100.33H129L129 174.999H132H135L135 100.33H132ZM132 87.4369H129V100.33H132H135V87.4369H132ZM134.338 91.4856L136.936 89.9856L134.598 85.9369L132 87.4369L129.402 88.9369L131.739 92.9856L134.338 91.4856ZM135.495 91.8563L134.263 89.1213C135.212 88.6933 136.381 89.0242 136.936 89.9856L134.338 91.4856L131.739 92.9856C132.765 94.7625 134.942 95.3963 136.728 94.5912L135.495 91.8563ZM142.452 103.905L145.05 102.405L138.094 90.3563L135.495 91.8563L132.897 93.3563L139.854 105.405L142.452 103.905ZM141.959 105.967L144.877 106.665L145.37 104.603L142.452 103.905L139.534 103.208L139.041 105.27L141.959 105.967ZM141.907 106.546L144.903 106.376C144.908 106.472 144.899 106.57 144.877 106.665L141.959 105.967L139.041 105.27C138.928 105.745 138.885 106.233 138.912 106.717L141.907 106.546ZM141.959 107.125L144.877 106.428C144.9 106.523 144.908 106.62 144.903 106.717L141.907 106.546L138.912 106.376C138.885 106.86 138.928 107.348 139.041 107.823L141.959 107.125ZM146.226 124.971L149.143 124.273L144.877 106.428L141.959 107.125L139.041 107.823L143.308 125.669L146.226 124.971ZM146.32 125.134L148.918 123.634L148.824 123.471L146.226 124.971L143.628 126.471L143.722 126.634L146.32 125.134ZM160.205 183.197L163.122 182.5L149.238 124.437L146.32 125.134L143.402 125.832L157.287 183.895L160.205 183.197ZM162.615 184.677L161.917 181.76C162.454 181.631 162.994 181.962 163.122 182.5L160.205 183.197L157.287 183.895C157.929 186.581 160.627 188.237 163.313 187.595L162.615 184.677ZM169.402 183.054L168.704 180.137L161.917 181.76L162.615 184.677L163.313 187.595L170.099 185.972L169.402 183.054ZM170.882 180.644L167.964 181.342C167.836 180.805 168.167 180.265 168.704 180.137L169.402 183.054L170.099 185.972C172.785 185.33 174.442 182.632 173.799 179.946L170.882 180.644ZM159.657 133.706L156.74 134.404L167.964 181.342L170.882 180.644L173.799 179.946L162.575 133.008L159.657 133.706ZM180.688 170.133L183.286 168.633L162.256 132.206L159.657 133.706L157.059 135.206L178.09 171.633L180.688 170.133ZM191.287 172.996L189.787 170.397C187.527 171.702 184.611 170.928 183.286 168.633L180.688 170.133L178.09 171.633C181.061 176.777 187.637 178.567 192.787 175.594L191.287 172.996ZM206.64 164.131L205.14 161.533L189.787 170.397L191.287 172.996L192.787 175.594L208.14 166.729L206.64 164.131ZM201.733 180.363L204.605 181.231L209.512 164.999L206.64 164.131L203.769 163.263L198.861 179.495L201.733 180.363ZM203.069 182.856L203.937 179.985C204.465 180.144 204.764 180.702 204.605 181.231L201.733 180.363L198.861 179.495C198.062 182.138 199.557 184.929 202.2 185.728L203.069 182.856ZM209.748 184.876L210.616 182.004L203.937 179.985L203.069 182.856L202.2 185.728L208.88 187.747L209.748 184.876ZM212.241 183.54L209.37 182.672C209.53 182.143 210.088 181.844 210.616 182.004L209.748 184.876L208.88 187.747C211.523 188.546 214.314 187.051 215.113 184.408L212.241 183.54ZM220.534 156.109L217.663 155.241L209.37 182.672L212.241 183.54L215.113 184.408L223.406 156.978L220.534 156.109ZM235.21 147.636L233.71 145.038L219.034 153.511L220.534 156.109L222.034 158.707L236.71 150.234L235.21 147.636ZM238.03 137.026L235.432 138.526C236.757 140.821 235.971 143.733 233.71 145.038L235.21 147.636L236.71 150.234C241.86 147.261 243.599 140.671 240.628 135.526L238.03 137.026ZM230.334 123.696L227.736 125.196L235.432 138.526L238.03 137.026L240.628 135.526L232.932 122.196L230.334 123.696ZM233.832 112.123L230.961 111.255L227.462 122.827L230.334 123.696L233.206 124.564L236.704 112.992L233.832 112.123ZM94 166.999V163.999C94.5523 163.999 95 164.447 95 164.999H92H89C89 167.761 91.2386 169.999 94 169.999V166.999ZM99 166.999V163.999H94V166.999V169.999H99V166.999ZM101 164.999H98C98 164.447 98.4477 163.999 99 163.999V166.999V169.999C101.761 169.999 104 167.761 104 164.999H101ZM101 47.9994H98V164.999H101H104V47.9994H101ZM99 45.9994V48.9994C98.4477 48.9994 98 48.5517 98 47.9994H101H104C104 45.238 101.761 42.9994 99 42.9994V45.9994ZM94 45.9994V48.9994H99V45.9994V42.9994H94V45.9994ZM92 47.9994H95C95 48.5517 94.5523 48.9994 94 48.9994V45.9994V42.9994C91.2386 42.9994 89 45.238 89 47.9994H92ZM92 164.999H95V47.9994H92H89V164.999H92ZM244 174.999H241C241 177.761 243.239 179.999 246 179.999V176.999V173.999C246.552 173.999 247 174.447 247 174.999H244ZM244 37.9992H241V174.999H244H247V37.9992H244ZM246 35.9992V32.9992C243.239 32.9992 241 35.2378 241 37.9992H244H247C247 38.5515 246.552 38.9992 246 38.9992V35.9992ZM252 35.9992V32.9992H246V35.9992V38.9992H252V35.9992ZM254 37.9992H257C257 35.2378 254.761 32.9992 252 32.9992V35.9992V38.9992C251.448 38.9992 251 38.5515 251 37.9992H254ZM254 174.999H257V37.9992H254H251V174.999H254ZM252 176.999V179.999C254.761 179.999 257 177.761 257 174.999H254H251C251 174.447 251.448 173.999 252 173.999V176.999ZM246 176.999V179.999H252V176.999V173.999H246V176.999ZM277 166.999V163.999C277.552 163.999 278 164.447 278 164.999H275H272C272 167.761 274.239 169.999 277 169.999V166.999ZM282 166.999V163.999H277V166.999V169.999H282V166.999ZM284 164.999H281C281 164.447 281.448 163.999 282 163.999V166.999V169.999C284.761 169.999 287 167.761 287 164.999H284ZM284 47.9994H281V164.999H284H287V47.9994H284ZM282 45.9994V48.9994C281.448 48.9994 281 48.5517 281 47.9994H284H287C287 45.238 284.761 42.9994 282 42.9994V45.9994ZM277 45.9994V48.9994H282V45.9994V42.9994H277V45.9994ZM275 47.9994H278C278 48.5517 277.552 48.9994 277 48.9994V45.9994V42.9994C274.239 42.9994 272 45.238 272 47.9994H275ZM275 164.999H278V47.9994H275H272V164.999H275Z" fill="white" mask="url(#path-16-outside-1_17_28655)"/>
</g>
<defs>
<clipPath id="clip0_17_28655">
<rect width="375" height="225" fill="white"/>
</clipPath>
<clipPath id="clip1_17_28655">
<rect width="375" height="225" fill="white"/>
</clipPath>
</defs>
</svg>
