<svg width="327" height="252" viewBox="0 0 327 252" fill="none" xmlns="http://www.w3.org/2000/svg">
<ellipse cx="164.5" cy="239.5" rx="73.5" ry="8.5" fill="#A0A09F" fill-opacity="0.15"/>
<path d="M179.478 107L176.605 108.925L173.732 107L170.859 108.925L167.986 107L165.112 108.925L162.239 107L159.366 108.925L156.493 107L153.62 108.925L150.746 107L147.873 108.925L145 107V154.151C145 156.277 146.715 158 148.831 158H181.394C183.51 158 185.225 156.277 185.225 154.151V107L182.352 108.925L179.478 107Z" fill="#C2945C"/>
<path d="M145 149.34H185.225V154.151C185.225 156.277 183.51 158 181.394 158H148.831C146.715 158 145 156.277 145 154.151V149.34Z" fill="#DB0007"/>
<path d="M185.226 122.258C181.546 122.258 178.561 137.03 178.561 155.248H173.232C173.232 137.03 170.252 122.258 166.568 122.258C162.892 122.258 159.908 138.257 159.908 157.998H154.578C154.578 136.739 159.946 119.508 166.568 119.508C170.337 119.508 173.701 124.687 175.897 132.787C178.097 124.687 181.457 119.508 185.226 119.508V122.258Z" fill="#FFBC0D"/>
<path d="M103 175H226V239C226 239.552 225.552 240 225 240H104C103.448 240 103 239.552 103 239V175Z" fill="#292929"/>
<rect x="103" y="175" width="123" height="11" fill="#A0A09F" fill-opacity="0.15"/>
<rect x="91" y="158" width="147" height="17" rx="1" fill="#FFBC0D"/>
<path fill-rule="evenodd" clip-rule="evenodd" d="M185.566 126.041H212.435L216.184 134.004C216.184 134.004 215.721 139.886 214.83 145.844C213.939 151.803 212.643 157.684 212.643 157.684H185.357C185.357 157.684 184.05 151.726 183.17 145.844C182.291 139.963 181.816 134.004 181.816 134.004L185.566 126.041Z" fill="#DB0007"/>
<path fill-rule="evenodd" clip-rule="evenodd" d="M185.113 125.828C185.196 125.653 185.372 125.541 185.566 125.541H212.435C212.628 125.541 212.805 125.653 212.887 125.828L216.636 133.791C216.673 133.87 216.689 133.957 216.682 134.043L216.184 134.004C216.682 134.043 216.682 134.043 216.682 134.043L216.682 134.045L216.677 134.112L216.661 134.31C216.646 134.483 216.625 134.737 216.596 135.061C216.538 135.707 216.452 136.631 216.339 137.741C216.111 139.96 215.772 142.929 215.325 145.918C214.878 148.908 214.329 151.876 213.893 154.095C213.675 155.205 213.485 156.129 213.349 156.775C213.281 157.098 213.227 157.352 213.189 157.525L213.146 157.723L213.132 157.791L213.131 157.792C213.131 157.792 213.131 157.792 212.643 157.684L213.131 157.792C213.081 158.021 212.878 158.184 212.643 158.184H185.357C185.122 158.184 184.919 158.021 184.869 157.792L185.357 157.684C184.869 157.792 184.869 157.792 184.869 157.792L184.854 157.722L184.811 157.522C184.773 157.347 184.718 157.09 184.65 156.764C184.513 156.112 184.322 155.181 184.103 154.066C183.665 151.837 183.117 148.869 182.676 145.918C182.235 142.967 181.895 139.999 181.666 137.77C181.552 136.655 181.465 135.724 181.406 135.072C181.377 134.746 181.355 134.489 181.34 134.314L181.324 134.113L181.318 134.044C181.318 134.044 181.318 134.044 181.816 134.004L181.318 134.044C181.311 133.957 181.327 133.87 181.364 133.791L185.113 125.828ZM182.326 134.096L182.337 134.23C182.351 134.403 182.373 134.658 182.402 134.983C182.46 135.631 182.547 136.558 182.661 137.668C182.889 139.888 183.227 142.84 183.665 145.77C184.103 148.701 184.648 151.653 185.084 153.873C185.302 154.984 185.493 155.91 185.629 156.559C185.682 156.811 185.726 157.022 185.761 157.184H212.24C212.274 157.024 212.318 156.817 212.37 156.57C212.505 155.927 212.695 155.008 212.912 153.902C213.346 151.692 213.892 148.74 214.336 145.77C214.78 142.801 215.117 139.849 215.344 137.639C215.457 136.534 215.543 135.615 215.6 134.972C215.628 134.651 215.65 134.399 215.664 134.227L215.675 134.097L212.118 126.541H185.883L182.326 134.096Z" fill="white"/>
<path fill-rule="evenodd" clip-rule="evenodd" d="M199.002 148.464C193.954 148.464 189.665 144.812 188.119 139.734L186.837 140.32L186.219 138.97L189.744 137.357L190.363 138.708L189.279 139.204C190.343 143.014 194.292 145.843 199.002 145.843C203.711 145.843 207.661 143.014 208.725 139.204L207.641 138.708L208.259 137.357L211.785 138.97L211.167 140.32L209.885 139.734C208.338 144.812 204.05 148.464 199.002 148.464Z" fill="#FFBC0D"/>
<path fill-rule="evenodd" clip-rule="evenodd" d="M189.967 126.042C190.61 123.069 191.478 121.243 192.434 121.243C193.349 121.243 194.184 123.058 194.819 126.042H203.206C203.85 123.069 204.718 121.243 205.674 121.243C206.589 121.243 207.425 123.058 208.059 126.042H212.413C210.854 120.692 208.4 117.24 205.639 117.24C202.958 117.24 200.566 120.26 199.002 124.981C197.438 120.26 195.046 117.24 192.365 117.24C189.604 117.24 187.15 120.692 185.59 126.042H189.967Z" fill="#FFBC0D"/>
<path fill-rule="evenodd" clip-rule="evenodd" d="M189.967 126.042C190.61 123.069 191.478 121.243 192.434 121.243C193.349 121.243 194.184 123.058 194.819 126.042H203.206C203.85 123.069 204.718 121.243 205.674 121.243C206.589 121.243 207.425 123.058 208.059 126.042H212.413C210.854 120.692 208.4 117.24 205.639 117.24C202.958 117.24 200.566 120.26 199.002 124.981C197.438 120.26 195.046 117.24 192.365 117.24C189.604 117.24 187.15 120.692 185.59 126.042H189.967Z" fill="#FFBC0D"/>
<path fill-rule="evenodd" clip-rule="evenodd" d="M202.741 125.173C203.412 122.179 204.357 120.592 205.674 120.592C206.957 120.592 207.865 122.168 208.526 125.176L208.708 126.019H202.555L202.741 125.173ZM207.355 124.772C206.832 122.692 206.212 121.671 205.698 121.64L205.674 121.639C205.106 121.639 204.437 122.694 203.89 124.87L203.864 124.971H207.403L207.355 124.772Z" fill="white"/>
<path fill-rule="evenodd" clip-rule="evenodd" d="M189.474 125.279C190.148 122.218 191.1 120.592 192.43 120.592C193.682 120.592 194.577 122.093 195.234 124.961L195.282 125.176L195.464 126.019H189.312L189.474 125.279ZM194.111 124.772C193.588 122.692 192.968 121.671 192.454 121.64L192.43 121.639C191.863 121.639 191.194 122.701 190.646 124.873L190.621 124.971H194.16L194.111 124.772Z" fill="white"/>
<path d="M138.31 123.145L138.003 123.157C136.824 123.204 135.645 123.292 134.467 123.418L134.411 123.425C133.701 123.524 133.115 124.029 132.908 124.713L132.897 124.748L130.444 124.749C129.648 124.749 128.967 125.326 128.836 126.114L128.514 128.053L128.508 128.095C128.452 128.544 128.697 128.962 129.084 129.145L129.103 129.154L129.114 129.31C129.227 131.268 129.353 133.233 129.49 135.195L129.573 136.371C129.744 138.726 129.93 141.077 130.134 143.425C130.542 148.122 131.018 152.83 131.563 157.549C131.618 158.023 131.898 158.247 132.372 158.299C134.791 158.445 140.115 158.447 140.115 158.447L140.562 158.445C142.964 158.43 144.954 158.299 147.858 158.299C148.331 158.247 148.611 158.023 148.666 157.549C149.21 152.853 149.686 148.145 150.095 143.425L150.196 142.246C150.561 137.921 150.868 133.607 151.116 129.302L151.127 129.153L151.144 129.146C151.544 128.958 151.793 128.519 151.715 128.053L151.393 126.114L151.384 126.062C151.232 125.301 150.564 124.749 149.785 124.749L147.332 124.748L147.322 124.713C147.11 124.011 146.498 123.498 145.763 123.418L145.355 123.376C144.404 123.281 143.453 123.212 142.502 123.169L142.423 123.165L144.486 108.448C144.565 107.889 144.176 107.373 143.619 107.294L141.601 107.01C141.044 106.932 140.529 107.321 140.451 107.879L138.31 123.145Z" fill="white"/>
<path fill-rule="evenodd" clip-rule="evenodd" d="M129.984 129.064C129.984 129.064 135.035 129.477 140.086 129.477C145.137 129.477 150.188 129.064 150.188 129.064C150.188 129.064 149.778 136.16 149.158 143.29C148.538 150.42 147.714 157.515 147.714 157.515C147.714 157.515 143.9 157.927 140.086 157.927C136.272 157.927 132.458 157.515 132.458 157.515C132.458 157.515 131.632 150.385 131.015 143.29C130.398 136.195 129.984 129.064 129.984 129.064Z" fill="white"/>
<mask id="mask0_3899_40996" style="mask-type:luminance" maskUnits="userSpaceOnUse" x="129" y="129" width="22" height="29">
<path fill-rule="evenodd" clip-rule="evenodd" d="M129.984 129.064C129.984 129.064 135.035 129.477 140.086 129.477C145.137 129.477 150.188 129.064 150.188 129.064C150.188 129.064 149.778 136.16 149.158 143.29C148.538 150.42 147.714 157.515 147.714 157.515C147.714 157.515 143.9 157.927 140.086 157.927C136.272 157.927 132.458 157.515 132.458 157.515C132.458 157.515 131.632 150.385 131.015 143.29C130.398 136.195 129.984 129.064 129.984 129.064Z" fill="white"/>
</mask>
<g mask="url(#mask0_3899_40996)">
</g>
<path fill-rule="evenodd" clip-rule="evenodd" d="M134.343 141.935C133.378 138.536 131.986 136.158 130.399 135.461C130.398 135.456 130.398 135.456 130.548 137.498C131.938 139.71 132.939 145.925 132.939 153.246H135.748C135.748 144.072 137.32 136.634 139.259 136.634C141.198 136.634 142.771 144.691 142.771 154.629H145.579C145.579 143.927 142.75 135.25 139.259 135.25C137.274 135.25 135.503 137.858 134.343 141.935Z" fill="#FFBC0D"/>
<path fill-rule="evenodd" clip-rule="evenodd" d="M150.188 129.064C150.188 129.064 149.777 136.16 149.157 143.29C148.537 150.42 147.714 157.515 147.714 157.515C147.714 157.515 143.9 157.927 140.086 157.927C143.092 157.927 144.604 148.416 144.621 129.394C147.714 129.271 150.188 129.064 150.188 129.064Z" fill="#A0A09F" fill-opacity="0.15"/>
<path d="M141.445 107.646L143.487 107.933L141.125 124.736L139.044 124.734L141.445 107.646Z" fill="#F1F1F1"/>
<path d="M142.465 107.791L143.077 107.877L140.708 124.737L140.083 124.736L142.465 107.791Z" fill="#EAEAEA"/>
<path fill-rule="evenodd" clip-rule="evenodd" d="M130.303 125.559H149.872C150.174 125.559 150.432 125.777 150.482 126.075L150.808 128.033C147.235 128.307 143.661 128.445 140.088 128.445C136.514 128.445 132.941 128.307 129.367 128.033L129.693 126.075C129.743 125.777 130.001 125.559 130.303 125.559Z" fill="#F1F1F1"/>
<path fill-rule="evenodd" clip-rule="evenodd" d="M134.486 124.211C136.354 124.01 138.222 123.91 140.09 123.91C141.958 123.91 143.826 124.01 145.694 124.211C146.042 124.248 146.328 124.501 146.409 124.841L146.481 125.147H133.699L133.772 124.841C133.852 124.501 134.139 124.248 134.486 124.211Z" fill="#F1F1F1"/>
<path d="M216 8C234.778 8 250 23.2223 250 42C250 60.7777 234.778 76 216 76H176.992C176.955 76.041 176.917 76.0817 176.878 76.1211L166.121 86.8779C164.95 88.0491 163.05 88.0491 161.879 86.8779L151.122 76.1211C151.083 76.0817 151.045 76.041 151.008 76H112C93.2223 76 78 60.7777 78 42C78 23.2223 93.2223 8 112 8H216Z" fill="#FFBC0D"/>
<path d="M122.709 54.0005L123.573 49.0405H121.461V45.4245H124.181L124.917 41.1365H122.389V37.5205H125.557L126.325 33.0725H130.613L129.845 37.5205H133.397L134.165 33.0725H138.453L137.685 37.5205H139.797V41.1365H137.045L136.309 45.4245H138.869V49.0405H135.701L134.837 54.0005H130.549L131.413 49.0405H127.861L126.997 54.0005H122.709ZM128.469 45.4245H132.021L132.757 41.1365H129.205L128.469 45.4245Z" fill="#292929"/>
<path d="M140.72 40.4005V35.9845C141.893 35.7712 143.013 35.4405 144.08 34.9925C145.168 34.5445 146.149 33.9045 147.024 33.0725H151.216V54.0005H145.648V39.1525C144.837 39.4512 144.016 39.7072 143.184 39.9205C142.352 40.1339 141.531 40.2939 140.72 40.4005Z" fill="#292929"/>
<path d="M163.364 54.5125C160.612 54.5125 158.49 53.5739 156.996 51.6965C155.524 49.7979 154.788 46.9925 154.788 43.2805C154.788 41.1685 155.098 39.3125 155.716 37.7125C156.335 36.0912 157.295 34.8325 158.596 33.9365C159.898 33.0192 161.583 32.5605 163.652 32.5605C165.551 32.5605 167.162 33.0299 168.484 33.9685C169.828 34.9072 170.66 36.2832 170.98 38.0965H165.38C165.274 37.4779 165.039 36.9979 164.676 36.6565C164.314 36.3152 163.866 36.1445 163.332 36.1445C162.372 36.1445 161.636 36.6139 161.124 37.5525C160.634 38.4699 160.346 39.9312 160.26 41.9365C161.37 40.7419 162.863 40.1445 164.74 40.1445C166.042 40.1445 167.194 40.4325 168.196 41.0085C169.199 41.5632 169.988 42.3632 170.564 43.4085C171.14 44.4325 171.428 45.6485 171.428 47.0565C171.428 48.5712 171.087 49.8939 170.404 51.0245C169.722 52.1339 168.772 52.9979 167.556 53.6165C166.34 54.2139 164.943 54.5125 163.364 54.5125ZM163.14 50.8965C164.015 50.8965 164.698 50.5872 165.188 49.9685C165.679 49.3285 165.924 48.4432 165.924 47.3125C165.924 46.1819 165.679 45.3072 165.188 44.6885C164.698 44.0485 164.015 43.7285 163.14 43.7285C162.266 43.7285 161.583 44.0485 161.092 44.6885C160.602 45.3072 160.356 46.1819 160.356 47.3125C160.356 48.4432 160.602 49.3285 161.092 49.9685C161.583 50.5872 162.266 50.8965 163.14 50.8965Z" fill="#292929"/>
<path d="M172.98 54.0005V53.2965C172.98 51.5045 173.374 49.9579 174.164 48.6565C174.974 47.3339 176.254 46.0432 178.004 44.7845L180.596 42.9285C181.513 42.2672 182.164 41.6592 182.548 41.1045C182.932 40.5285 183.124 39.8672 183.124 39.1205C183.124 38.2459 182.932 37.5739 182.548 37.1045C182.164 36.6352 181.609 36.4005 180.884 36.4005C180.073 36.4005 179.454 36.7205 179.028 37.3605C178.601 37.9792 178.334 38.9499 178.228 40.2725H172.916C173.044 37.8405 173.854 35.9525 175.348 34.6085C176.841 33.2432 178.804 32.5605 181.236 32.5605C182.75 32.5605 184.073 32.8272 185.204 33.3605C186.334 33.8725 187.209 34.6085 187.828 35.5685C188.468 36.5072 188.788 37.6165 188.788 38.8965C188.788 40.2192 188.468 41.4032 187.828 42.4485C187.209 43.4939 186.206 44.5072 184.82 45.4885L181.876 47.5685C181.193 48.0592 180.66 48.4752 180.276 48.8165C179.913 49.1579 179.678 49.5099 179.572 49.8725H188.884V54.0005H172.98Z" fill="#292929"/>
<path d="M190.219 50.0005V46.3525L200.075 33.1045H204.779V46.0005H207.275V50.0005H204.779V54.0005H199.659V50.0005H190.219ZM194.955 46.0005H199.659V39.6005L194.955 46.0005Z" fill="#292929"/>
</svg>
