<svg width="375" height="225" viewBox="0 0 375 225" fill="none" xmlns="http://www.w3.org/2000/svg">
<ellipse cx="172.212" cy="187.061" rx="78.1452" ry="9.61787" fill="#A0A09F" fill-opacity="0.15"/>
<path d="M228.613 87.043C232.791 90.2425 236.727 94.6256 239.948 99.9203C245.177 107.818 247.866 116.313 247.971 123.5L244.65 125.021C245.086 118.245 242.711 109.673 237.544 101.567C234.908 97.3996 231.837 93.8691 228.633 91.106L228.613 87.043Z" fill="#A0A09F"/>
<path fill-rule="evenodd" clip-rule="evenodd" d="M280.847 110.913L296.64 146.385C296.751 146.646 298.147 150.146 294.573 151.738L259.101 167.531C258.839 167.641 255.339 169.038 253.747 165.463L237.946 129.972C237.791 129.593 236.517 126.198 240.022 124.638L275.513 108.837C275.892 108.681 279.287 107.408 280.847 110.913ZM241.81 129.92C241.81 132.011 243.506 133.707 245.597 133.707C247.689 133.707 249.384 132.011 249.384 129.92C249.384 127.828 247.689 126.133 245.597 126.133C243.506 126.133 241.81 127.828 241.81 129.92Z" fill="#DB0007"/>
<path fill-rule="evenodd" clip-rule="evenodd" d="M266.906 124.785C264.39 125.905 263.638 130.257 264.504 136.152C260.703 131.564 256.965 129.211 254.449 130.331C250.027 132.3 251.407 145.05 257.533 158.808L261.092 157.224C255.404 144.448 252.785 133.204 255.242 132.111C257.698 131.017 263.947 139.691 269.198 151.483L272.756 149.899C267.506 138.106 265.241 127.659 267.698 126.565C270.155 125.471 276.758 134.941 282.446 147.716L286.004 146.132C279.879 132.374 271.328 122.816 266.906 124.785Z" fill="#FFBC0D"/>
<path fill-rule="evenodd" clip-rule="evenodd" d="M194.178 49.6095C192.785 48.8013 191.065 48.7966 189.67 49.5972L156.427 68.6792C155.032 69.4798 154.176 70.9631 154.183 72.5667L154.282 93.6614L84.2786 133.845L81 158.786L109.971 165.216L118.88 148.999L137.46 149.437L146.369 133.22L164.949 133.658L170.72 123.152L190.083 134.386C191.476 135.194 193.196 135.199 194.59 134.398L227.834 115.316C229.229 114.516 230.084 113.032 230.077 111.429L229.896 72.8851C229.889 71.3 229.039 69.8359 227.662 69.0369L194.178 49.6095ZM200.345 87.2502C198.161 83.489 199.424 78.6985 203.166 76.5502C206.909 74.402 211.713 75.7096 213.897 79.4708C216.082 83.232 214.818 88.0226 211.076 90.1708C207.333 92.319 202.529 91.0114 200.345 87.2502ZM94.8924 137.428C94.0164 137.928 93.7378 139.08 94.2702 140.001C94.8026 140.922 95.9443 141.263 96.8204 140.762L158.436 105.565C159.312 105.065 159.591 103.913 159.058 102.992C158.526 102.071 157.384 101.73 156.508 102.231L94.8924 137.428Z" fill="#FFBC0D"/>
<path d="M213.285 81.2656C213.59 82.2804 213.68 83.327 213.571 84.3449C211.446 84.3449 209.511 84.8651 207.886 85.9567C199.966 90.8952 200.532 105.938 209.489 119.619C218.258 133.117 231.838 139.754 239.144 134.848C241.496 133.381 243.1 131.022 243.958 128.073C244.168 128.035 244.385 128.016 244.606 128.016C245.613 128.016 246.529 128.409 247.207 129.05C246.242 132.582 244.359 135.446 241.548 137.252C231.73 143.634 216.412 136.149 207.084 121.222C197.003 106.397 196.364 89.4111 205.481 83.5522C207.739 82.0843 210.288 81.35 212.989 81.2711L213.285 81.2656Z" fill="#A0A09F"/>
<mask id="path-7-outside-1_17_28658" maskUnits="userSpaceOnUse" x="77" y="46" width="223" height="125" fill="black">
<rect fill="white" x="77" y="46" width="223" height="125"/>
<path d="M189.67 49.5977C191.065 48.797 192.785 48.8012 194.178 49.6094L227.661 69.0371C229.038 69.836 229.889 71.2998 229.896 72.8848L229.968 88.1338C233.638 91.2115 237.077 95.2036 239.947 99.9209C244.618 106.975 247.259 114.506 247.845 121.155L275.513 108.838C275.892 108.682 279.287 107.408 280.848 110.913L296.64 146.386C296.75 146.648 298.147 150.148 294.572 151.739L259.101 167.531C258.839 167.642 255.339 169.039 253.747 165.464L241.266 137.428C232.439 142.871 219.35 137.39 210.081 125.506L194.591 134.398C193.196 135.199 191.475 135.194 190.082 134.386L170.72 123.151L164.949 133.658L146.369 133.221L137.46 149.437L118.88 148.999L109.971 165.216L81 158.786L84.2783 133.845L154.282 93.6611L154.184 72.5664C154.176 70.963 155.032 69.4793 156.427 68.6787L189.67 49.5977ZM159.059 102.992C158.526 102.072 157.385 101.73 156.509 102.23L94.8926 137.428C94.0166 137.928 93.7382 139.08 94.2705 140.001C94.8029 140.922 95.9443 141.263 96.8203 140.763L158.437 105.565C159.312 105.065 159.591 103.913 159.059 102.992ZM230.077 111.429C230.085 113.032 229.229 114.516 227.834 115.316L212.697 124.004C221.307 134.492 232.682 139.189 239.146 134.848C239.386 134.698 239.626 134.506 239.866 134.285L237.946 129.973C237.79 129.592 236.518 126.199 240.021 124.639L244.684 122.562C244.486 116.238 242.102 108.722 237.542 101.567C235.281 97.9926 232.698 94.8873 229.987 92.332L230.077 111.429ZM245.597 126.134C243.505 126.134 241.811 127.83 241.811 129.921C241.811 130.453 241.92 130.959 242.118 131.419C243.189 129.724 243.948 128.098 243.959 128.073C244.169 128.035 244.386 128.016 244.607 128.016C245.614 128.016 246.53 128.409 247.208 129.05C246.739 130.766 246.051 132.324 245.147 133.68C245.295 133.697 245.445 133.708 245.597 133.708C247.688 133.708 249.384 132.012 249.384 129.921C249.384 127.829 247.688 126.134 245.597 126.134ZM213.897 79.4707C211.713 75.7095 206.908 74.4016 203.166 76.5498C199.424 78.698 198.161 83.4888 200.345 87.25C200.58 87.6546 200.847 88.0294 201.138 88.376C202.187 86.3846 203.634 84.7394 205.482 83.5518C207.741 82.0839 210.29 81.3504 212.99 81.2715L213.287 81.2656C213.592 82.2803 213.682 83.327 213.573 84.3447C211.448 84.3447 209.512 84.8654 207.887 85.957C206.166 87.0302 204.845 88.5804 203.925 90.4902C206.153 91.5026 208.809 91.4723 211.076 90.1709C214.819 88.0226 216.082 83.2319 213.897 79.4707Z"/>
</mask>
<path d="M189.67 49.5977L191.163 52.1995L191.163 52.1995L189.67 49.5977ZM194.178 49.6094L195.683 47.0145L195.683 47.0145L194.178 49.6094ZM227.661 69.0371L226.156 71.632L226.156 71.632L227.661 69.0371ZM229.896 72.8848L232.896 72.8707V72.8705L229.896 72.8848ZM229.968 88.1338L226.968 88.1478L226.974 89.5387L228.04 90.4324L229.968 88.1338ZM239.947 99.9209L237.384 101.48L237.414 101.529L237.446 101.577L239.947 99.9209ZM247.845 121.155L244.856 121.419L245.225 125.605L249.065 123.896L247.845 121.155ZM275.513 108.838L274.375 106.062L274.334 106.079L274.293 106.097L275.513 108.838ZM280.848 110.913L283.588 109.693L283.588 109.693L280.848 110.913ZM296.64 146.386L299.404 145.22L299.392 145.192L299.38 145.166L296.64 146.386ZM294.572 151.739L295.792 154.48L295.792 154.48L294.572 151.739ZM259.101 167.531L260.267 170.295L260.294 170.284L260.321 170.272L259.101 167.531ZM253.747 165.464L251.006 166.684L251.006 166.684L253.747 165.464ZM241.266 137.428L244.006 136.208L242.611 133.073L239.691 134.874L241.266 137.428ZM210.081 125.506L212.447 123.661L210.845 121.608L208.587 122.904L210.081 125.506ZM194.591 134.398L196.084 137L196.084 137L194.591 134.398ZM190.082 134.386L188.576 136.981L188.576 136.981L190.082 134.386ZM170.72 123.151L172.225 120.557L169.569 119.015L168.09 121.707L170.72 123.151ZM164.949 133.658L164.879 136.657L166.701 136.7L167.579 135.102L164.949 133.658ZM146.369 133.221L146.44 130.222L144.618 130.179L143.74 131.776L146.369 133.221ZM137.46 149.437L137.389 152.436L139.212 152.479L140.089 150.881L137.46 149.437ZM118.88 148.999L118.951 146L117.128 145.957L116.251 147.555L118.88 148.999ZM109.971 165.216L109.321 168.145L111.517 168.632L112.6 166.66L109.971 165.216ZM81 158.786L78.0256 158.395L77.6675 161.12L80.35 161.715L81 158.786ZM84.2783 133.845L82.7848 131.243L81.4974 131.982L81.3039 133.454L84.2783 133.845ZM154.282 93.6611L155.776 96.263L157.29 95.3935L157.282 93.6471L154.282 93.6611ZM154.184 72.5664L151.184 72.5803V72.5804L154.184 72.5664ZM156.427 68.6787L154.933 66.0769L154.933 66.0769L156.427 68.6787ZM159.059 102.992L161.656 101.491L161.656 101.491L159.059 102.992ZM156.509 102.23L155.021 99.6251L155.021 99.6255L156.509 102.23ZM94.8926 137.428L93.4045 134.823L93.4045 134.823L94.8926 137.428ZM94.2705 140.001L91.6733 141.503L91.6734 141.503L94.2705 140.001ZM96.8203 140.763L98.3081 143.368L98.3083 143.368L96.8203 140.763ZM158.437 105.565L159.925 108.17L159.925 108.17L158.437 105.565ZM230.077 111.429L233.077 111.415V111.415L230.077 111.429ZM227.834 115.316L229.327 117.918L229.328 117.918L227.834 115.316ZM212.697 124.004L211.204 121.402L208.129 123.167L210.378 125.907L212.697 124.004ZM239.146 134.848L237.558 132.302L237.515 132.329L237.473 132.357L239.146 134.848ZM239.866 134.285L241.896 136.494L243.484 135.035L242.607 133.065L239.866 134.285ZM237.946 129.973L235.17 131.11L235.187 131.152L235.206 131.193L237.946 129.973ZM240.021 124.639L241.242 127.379L241.242 127.379L240.021 124.639ZM244.684 122.562L245.904 125.303L247.745 124.483L247.682 122.469L244.684 122.562ZM237.542 101.567L235.007 103.171L235.012 103.18L237.542 101.567ZM229.987 92.332L232.045 90.1489L226.954 85.351L226.987 92.3461L229.987 92.332ZM245.597 126.134V123.134H245.596L245.597 126.134ZM241.811 129.921H238.811V129.921L241.811 129.921ZM242.118 131.419L239.363 132.607L241.616 137.831L244.654 133.021L242.118 131.419ZM243.959 128.073L243.424 125.121L241.893 125.399L241.238 126.81L243.959 128.073ZM244.607 128.016V125.016H244.607L244.607 128.016ZM247.208 129.05L250.102 129.84L250.576 128.105L249.269 126.87L247.208 129.05ZM245.147 133.68L242.651 132.016L239.94 136.084L244.795 136.659L245.147 133.68ZM245.597 133.708L245.596 136.708H245.597V133.708ZM249.384 129.921L252.384 129.921V129.921H249.384ZM213.897 79.4707L216.492 77.9642L216.492 77.9641L213.897 79.4707ZM203.166 76.5498L201.673 73.948V73.948L203.166 76.5498ZM200.345 87.25L197.75 88.7565L197.75 88.7565L200.345 87.25ZM201.138 88.376L198.84 90.3051L201.711 93.7243L203.792 89.7741L201.138 88.376ZM205.482 83.5518L207.104 86.0756L207.111 86.0713L207.117 86.067L205.482 83.5518ZM212.99 81.2715L212.931 78.2721L212.917 78.2723L212.903 78.2728L212.99 81.2715ZM213.287 81.2656L216.161 80.4034L215.506 78.2213L213.228 78.2662L213.287 81.2656ZM213.573 84.3447V87.3447H216.271L216.556 84.6624L213.573 84.3447ZM207.887 85.957L209.474 88.5026L209.517 88.4757L209.559 88.4474L207.887 85.957ZM203.925 90.4902L201.222 89.1876L199.89 91.952L202.684 93.2215L203.925 90.4902ZM211.076 90.1709L212.57 92.7727L212.57 92.7727L211.076 90.1709ZM189.67 49.5977L191.163 52.1995C191.628 51.9328 192.205 51.9332 192.672 52.2043L194.178 49.6094L195.683 47.0145C193.364 45.6692 190.501 45.6613 188.176 46.9958L189.67 49.5977ZM194.178 49.6094L192.672 52.2042L226.156 71.632L227.661 69.0371L229.167 66.4423L195.683 47.0145L194.178 49.6094ZM227.661 69.0371L226.156 71.632C226.618 71.9001 226.894 72.3852 226.897 72.8991L229.896 72.8848L232.896 72.8705C232.884 70.2144 231.458 67.7719 229.167 66.4422L227.661 69.0371ZM229.896 72.8848L226.897 72.8988L226.968 88.1478L229.968 88.1338L232.968 88.1198L232.896 72.8707L229.896 72.8848ZM229.968 88.1338L228.04 90.4324C231.444 93.2871 234.673 97.0246 237.384 101.48L239.947 99.9209L242.51 98.3615C239.481 93.3825 235.831 89.136 231.896 85.8351L229.968 88.1338ZM239.947 99.9209L237.446 101.577C241.875 108.267 244.319 115.326 244.856 121.419L247.845 121.155L250.833 120.892C250.198 113.686 247.36 105.683 242.449 98.2647L239.947 99.9209ZM247.845 121.155L249.065 123.896L276.733 111.579L275.513 108.838L274.293 106.097L246.625 118.415L247.845 121.155ZM275.513 108.838L276.65 111.614C276.63 111.622 276.744 111.575 276.927 111.535C277.117 111.493 277.307 111.476 277.463 111.49C277.604 111.503 277.674 111.536 277.718 111.567C277.751 111.589 277.917 111.706 278.107 112.133L280.848 110.913L283.588 109.693C282.324 106.853 280.076 105.705 278.011 105.516C276.204 105.35 274.724 105.919 274.375 106.062L275.513 108.838ZM280.848 110.913L278.107 112.133L293.899 147.606L296.64 146.386L299.38 145.166L283.588 109.693L280.848 110.913ZM296.64 146.386L293.876 147.552C293.856 147.505 293.902 147.607 293.944 147.788C293.988 147.977 294.009 148.172 293.996 148.337C293.985 148.488 293.951 148.562 293.921 148.606C293.901 148.637 293.787 148.805 293.352 148.999L294.572 151.739L295.792 154.48C297.145 153.878 298.197 153.012 298.916 151.93C299.627 150.863 299.907 149.747 299.979 148.791C300.117 146.973 299.523 145.503 299.404 145.22L296.64 146.386ZM294.572 151.739L293.352 148.999L257.88 164.791L259.101 167.531L260.321 170.272L295.792 154.48L294.572 151.739ZM259.101 167.531L257.934 164.767C257.981 164.748 257.879 164.793 257.698 164.835C257.51 164.879 257.314 164.901 257.149 164.888C256.998 164.877 256.925 164.842 256.88 164.813C256.85 164.793 256.681 164.678 256.488 164.244L253.747 165.464L251.006 166.684C251.609 168.037 252.475 169.088 253.556 169.808C254.624 170.519 255.74 170.799 256.696 170.871C258.514 171.009 259.983 170.415 260.267 170.295L259.101 167.531ZM253.747 165.464L256.488 164.244L244.006 136.208L241.266 137.428L238.525 138.648L251.006 166.684L253.747 165.464ZM241.266 137.428L239.691 134.874C236.309 136.96 231.875 137.113 226.937 135.172C221.996 133.23 216.818 129.266 212.447 123.661L210.081 125.506L207.715 127.351C212.613 133.63 218.615 138.348 224.742 140.757C230.872 143.166 237.396 143.338 242.84 139.981L241.266 137.428ZM210.081 125.506L208.587 122.904L193.097 131.797L194.591 134.398L196.084 137L211.575 128.108L210.081 125.506ZM194.591 134.398L193.097 131.797C192.634 132.063 192.056 132.063 191.588 131.791L190.082 134.386L188.576 136.981C190.894 138.325 193.758 138.335 196.084 137L194.591 134.398ZM190.082 134.386L191.588 131.791L172.225 120.557L170.72 123.151L169.214 125.746L188.576 136.981L190.082 134.386ZM170.72 123.151L168.09 121.707L162.32 132.214L164.949 133.658L167.579 135.102L173.349 124.596L170.72 123.151ZM164.949 133.658L165.02 130.659L146.44 130.222L146.369 133.221L146.299 136.22L164.879 136.657L164.949 133.658ZM146.369 133.221L143.74 131.776L134.831 147.992L137.46 149.437L140.089 150.881L148.998 134.665L146.369 133.221ZM137.46 149.437L137.531 146.437L118.951 146L118.88 148.999L118.809 151.998L137.389 152.436L137.46 149.437ZM118.88 148.999L116.251 147.555L107.341 163.771L109.971 165.216L112.6 166.66L121.509 150.444L118.88 148.999ZM109.971 165.216L110.621 162.287L81.65 155.857L81 158.786L80.35 161.715L109.321 168.145L109.971 165.216ZM81 158.786L83.9744 159.177L87.2527 134.236L84.2783 133.845L81.3039 133.454L78.0256 158.395L81 158.786ZM84.2783 133.845L85.7718 136.447L155.776 96.263L154.282 93.6611L152.789 91.0593L82.7848 131.243L84.2783 133.845ZM154.282 93.6611L157.282 93.6471L157.184 72.5524L154.184 72.5664L151.184 72.5804L151.282 93.6752L154.282 93.6611ZM154.184 72.5664L157.184 72.5525C157.181 72.0321 157.459 71.5455 157.92 71.2805L156.427 68.6787L154.933 66.0769C152.605 67.4131 151.171 69.8939 151.184 72.5803L154.184 72.5664ZM156.427 68.6787L157.92 71.2806L191.163 52.1995L189.67 49.5977L188.176 46.9958L154.933 66.0769L156.427 68.6787ZM159.059 102.992L161.656 101.491C160.373 99.2719 157.458 98.2339 155.021 99.6251L156.509 102.23L157.996 104.836C157.311 105.227 156.68 104.871 156.461 104.494L159.059 102.992ZM156.509 102.23L155.021 99.6255L93.4045 134.823L94.8926 137.428L96.3806 140.033L157.997 104.835L156.509 102.23ZM94.8926 137.428L93.4045 134.823C90.9552 136.222 90.3853 139.275 91.6733 141.503L94.2705 140.001L96.8677 138.499C97.0911 138.886 97.078 139.634 96.3807 140.033L94.8926 137.428ZM94.2705 140.001L91.6734 141.503C92.956 143.721 95.8705 144.76 98.3081 143.368L96.8203 140.763L95.3325 138.158C96.0182 137.766 96.6497 138.122 96.8676 138.499L94.2705 140.001ZM96.8203 140.763L98.3083 143.368L159.925 108.17L158.437 105.565L156.948 102.96L95.3323 138.158L96.8203 140.763ZM158.437 105.565L159.925 108.17C162.374 106.771 162.943 103.718 161.656 101.491L159.059 102.992L156.461 104.493C156.238 104.107 156.251 103.359 156.948 102.96L158.437 105.565ZM230.077 111.429L227.077 111.443C227.08 111.963 226.802 112.449 226.34 112.715L227.834 115.316L229.328 117.918C231.655 116.582 233.09 114.101 233.077 111.415L230.077 111.429ZM227.834 115.316L226.341 112.714L211.204 121.402L212.697 124.004L214.191 126.606L229.327 117.918L227.834 115.316ZM212.697 124.004L210.378 125.907C214.933 131.455 220.313 135.595 225.586 137.762C230.793 139.901 236.421 140.292 240.818 137.338L239.146 134.848L237.473 132.357C235.406 133.745 232.115 133.958 227.866 132.212C223.684 130.494 219.071 127.041 215.016 122.1L212.697 124.004ZM239.146 134.848L240.733 137.393C241.179 137.115 241.568 136.795 241.896 136.494L239.866 134.285L237.837 132.076C237.684 132.216 237.593 132.28 237.558 132.302L239.146 134.848ZM239.866 134.285L242.607 133.065L240.687 128.753L237.946 129.973L235.206 131.193L237.126 135.505L239.866 134.285ZM237.946 129.973L240.722 128.836C240.731 128.855 240.683 128.742 240.643 128.558C240.601 128.368 240.585 128.179 240.599 128.023C240.612 127.882 240.645 127.812 240.675 127.768C240.697 127.735 240.815 127.569 241.242 127.379L240.021 124.639L238.801 121.898C235.963 123.162 234.814 125.408 234.624 127.473C234.458 129.28 235.027 130.76 235.17 131.11L237.946 129.973ZM240.021 124.639L241.242 127.379L245.904 125.303L244.684 122.562L243.463 119.822L238.801 121.898L240.021 124.639ZM244.684 122.562L247.682 122.469C247.465 115.513 244.868 107.48 240.072 99.9548L237.542 101.567L235.012 103.18C239.336 109.963 241.507 116.962 241.685 122.656L244.684 122.562ZM237.542 101.567L240.077 99.9636C237.686 96.1827 234.944 92.8816 232.045 90.1489L229.987 92.332L227.93 94.5152C230.453 96.8931 232.876 99.8024 235.007 103.171L237.542 101.567ZM229.987 92.332L226.987 92.3461L227.077 111.443L230.077 111.429L233.077 111.415L232.987 92.3179L229.987 92.332ZM245.597 126.134L245.596 123.134C241.848 123.134 238.811 126.173 238.811 129.921H241.811H244.811C244.811 129.486 245.163 129.134 245.597 129.134L245.597 126.134ZM241.811 129.921L238.811 129.921C238.811 130.868 239.006 131.778 239.363 132.607L242.118 131.419L244.873 130.231C244.834 130.141 244.811 130.038 244.811 129.921L241.811 129.921ZM242.118 131.419L244.654 133.021C245.826 131.166 246.648 129.407 246.68 129.337L243.959 128.073L241.238 126.81C241.248 126.789 240.552 128.281 239.582 129.817L242.118 131.419ZM243.959 128.073L244.494 131.025C244.524 131.02 244.562 131.016 244.608 131.016L244.607 128.016L244.607 125.016C244.21 125.016 243.814 125.051 243.424 125.121L243.959 128.073ZM244.607 128.016V131.016C244.818 131.016 245.004 131.095 245.147 131.23L247.208 129.05L249.269 126.87C248.056 125.723 246.411 125.016 244.607 125.016V128.016ZM247.208 129.05L244.314 128.259C243.92 129.702 243.356 130.958 242.651 132.016L245.147 133.68L247.644 135.343C248.746 133.689 249.558 131.83 250.102 129.84L247.208 129.05ZM245.147 133.68L244.795 136.659C245.033 136.687 245.302 136.708 245.596 136.708L245.597 133.708L245.597 130.708C245.587 130.708 245.557 130.707 245.5 130.7L245.147 133.68ZM245.597 133.708V136.708C249.345 136.708 252.384 133.669 252.384 129.921L249.384 129.921L246.384 129.921C246.384 130.356 246.031 130.708 245.597 130.708V133.708ZM249.384 129.921H252.384C252.384 126.173 249.345 123.134 245.597 123.134V126.134V129.134C246.031 129.134 246.384 129.486 246.384 129.921H249.384ZM213.897 79.4707L216.492 77.9641C213.49 72.7947 206.866 70.9668 201.673 73.948L203.166 76.5498L204.659 79.1516C206.951 77.8364 209.937 78.6244 211.303 80.9773L213.897 79.4707ZM203.166 76.5498L201.673 73.948C196.468 76.9352 194.743 83.5772 197.75 88.7565L200.345 87.25L202.939 85.7435C201.578 83.4004 202.379 80.4608 204.659 79.1516L203.166 76.5498ZM200.345 87.25L197.75 88.7565C198.077 89.3192 198.445 89.8347 198.84 90.3051L201.138 88.376L203.435 86.4468C203.248 86.2241 203.082 85.9899 202.939 85.7435L200.345 87.25ZM201.138 88.376L203.792 89.7741C204.623 88.1958 205.732 86.9572 207.104 86.0756L205.482 83.5518L203.861 81.0279C201.536 82.5217 199.75 84.5733 198.483 86.9778L201.138 88.376ZM205.482 83.5518L207.117 86.067C208.874 84.9251 210.879 84.3345 213.078 84.2702L212.99 81.2715L212.903 78.2728C209.701 78.3663 206.607 79.2426 203.847 81.0365L205.482 83.5518ZM212.99 81.2715L213.049 84.2709L213.346 84.265L213.287 81.2656L213.228 78.2662L212.931 78.2721L212.99 81.2715ZM213.287 81.2656L210.414 82.1278C210.601 82.7534 210.657 83.3987 210.59 84.0271L213.573 84.3447L216.556 84.6624C216.706 83.2552 216.582 81.8071 216.161 80.4034L213.287 81.2656ZM213.573 84.3447V81.3447C210.952 81.3447 208.41 81.9915 206.214 83.4666L207.887 85.957L209.559 88.4474C210.614 87.7394 211.945 87.3447 213.573 87.3447V84.3447ZM207.887 85.957L206.299 83.4114C204.041 84.8197 202.359 86.8286 201.222 89.1876L203.925 90.4902L206.627 91.7928C207.331 90.3323 208.29 89.2408 209.474 88.5026L207.887 85.957ZM203.925 90.4902L202.684 93.2215C205.743 94.6114 209.42 94.5807 212.57 92.7727L211.076 90.1709L209.583 87.5691C208.198 88.3639 206.563 88.3938 205.166 87.759L203.925 90.4902ZM211.076 90.1709L212.57 92.7727C217.774 89.7854 219.499 83.1436 216.492 77.9642L213.897 79.4707L211.303 80.9772C212.664 83.3201 211.863 86.2598 209.583 87.5691L211.076 90.1709Z" fill="white" mask="url(#path-7-outside-1_17_28658)"/>
</svg>
