<svg width="27" height="18" viewBox="0 0 27 18" fill="none" xmlns="http://www.w3.org/2000/svg">
<g clip-path="url(#clip0_109_43839)">
<path d="M0 0H27V18H0V0Z" fill="#FF7415"/>
<path d="M27 0H0V18" fill="#FFDA44"/>
<path fill-rule="evenodd" clip-rule="evenodd" d="M17.9749 3.4681C17.8375 3.43283 17.7231 3.43871 17.5663 3.54275C17.3536 3.68463 17.311 3.78346 17.2998 3.81394C17.2858 3.8524 17.2664 3.94086 17.3098 4.13141C17.4127 4.58206 17.7378 5.13284 18.2121 5.91988C18.2203 5.9336 18.2287 5.94742 18.2371 5.96133C18.6435 6.63553 19.181 7.527 19.3501 8.42095C19.4431 8.91312 19.4395 9.46518 19.2143 10.0161C18.9886 10.5686 18.5829 11.0151 18.0523 11.3687C18.0521 11.3688 18.052 11.3689 18.0519 11.369C18.0518 11.3691 18.0517 11.3691 18.0516 11.3692C17.5133 11.7283 16.9417 11.9372 16.3432 11.9446C15.7439 11.952 15.2245 11.756 14.794 11.4866C14.0175 11.0007 13.3885 10.1725 12.9139 9.54775C12.9016 9.5316 12.8895 9.51558 12.8774 9.49971C12.3215 8.76825 11.9318 8.26905 11.5477 8.01286C11.3871 7.90573 11.2885 7.88625 11.2276 7.88528C11.1703 7.88437 11.035 7.89765 10.7951 8.05729C10.7951 8.05733 10.795 8.05737 10.7949 8.05741C10.4849 8.26424 10.362 8.43608 10.3092 8.546C10.2589 8.6506 10.2351 8.77554 10.2574 8.95973C10.3112 9.40426 10.5897 9.95435 11.0367 10.7299C11.0712 10.7899 11.1072 10.8518 11.1443 10.9156C11.5166 11.5563 11.9938 12.3776 12.1679 13.175C12.2719 13.6517 12.2904 14.199 12.0815 14.7516C11.8706 15.3097 11.4721 15.756 10.9493 16.1045C10.2313 16.5844 9.46568 16.645 8.78543 16.469C8.14803 16.304 7.60979 15.941 7.2091 15.6025C6.79903 15.2562 6.46537 14.8775 6.23896 14.5949C6.12402 14.4514 6.03254 14.3274 5.96842 14.2373C5.93628 14.1921 5.91079 14.1551 5.89244 14.128C5.88325 14.1144 5.87584 14.1033 5.87025 14.0948C5.86746 14.0906 5.86512 14.0871 5.86324 14.0842L5.86077 14.0804L5.8598 14.0789L5.85938 14.0783C5.85919 14.078 5.859 14.0777 6.78649 13.4765C7.71397 12.8753 7.7138 12.875 7.71364 12.8748L7.71342 12.8744C7.71492 12.8767 7.71808 12.8814 7.72283 12.8884C7.73234 12.9025 7.74817 12.9256 7.76983 12.956C7.8133 13.0171 7.87932 13.1068 7.96403 13.2125C8.13691 13.4283 8.37114 13.6904 8.63541 13.9136C8.90906 14.1447 9.15161 14.2802 9.33934 14.3287C9.48402 14.3662 9.58758 14.3557 9.72111 14.2664L9.72195 14.2658L9.72279 14.2653C9.94964 14.1142 9.99981 14.0069 10.0138 13.9699C10.0301 13.9269 10.0498 13.8369 10.0082 13.6466C9.9117 13.2045 9.60858 12.6787 9.16663 11.9122C9.15174 11.8863 9.13669 11.8602 9.12149 11.8338C8.72008 11.1373 8.18027 10.1952 8.06286 9.22547C7.99955 8.70255 8.05186 8.13985 8.31671 7.58857C8.57897 7.04269 9.0099 6.59057 9.56949 6.21748L9.57022 6.21699C10.0988 5.86517 10.6662 5.66536 11.2626 5.67481C11.8555 5.68421 12.3619 5.89855 12.7743 6.1737C13.4942 6.65387 14.0953 7.447 14.5573 8.0565C14.5844 8.0923 14.6111 8.12746 14.6372 8.1619C15.1862 8.88423 15.5814 9.37145 15.9666 9.61248C16.127 9.71285 16.2348 9.735 16.3159 9.734C16.3977 9.73298 16.5597 9.70705 16.8254 9.52975L16.8257 9.52952L16.8261 9.52928C17.073 9.36481 17.1438 9.23929 17.1681 9.17972C17.1932 9.11834 17.2133 9.01803 17.178 8.83176C17.094 8.38726 16.7858 7.83585 16.3188 7.06109C16.2946 7.02093 16.2699 6.97995 16.2446 6.93819C15.8507 6.2867 15.3426 5.44646 15.1547 4.62331C15.0468 4.15058 15.0223 3.60563 15.2238 3.05454C15.4283 2.49549 15.8219 2.04876 16.3406 1.70297L16.3419 1.70213C17.0652 1.22126 17.8334 1.14943 18.5243 1.32671C19.1704 1.4925 19.7093 1.86288 20.1075 2.20814C20.5146 2.56118 20.8422 2.94743 21.0633 3.2352C21.1757 3.38139 21.2647 3.50774 21.3271 3.59972C21.3584 3.64583 21.3832 3.68364 21.401 3.71136C21.4099 3.72523 21.4172 3.73662 21.4226 3.74528C21.4253 3.74962 21.4276 3.75328 21.4295 3.75623L21.4319 3.76014L21.4333 3.76237C21.4334 3.76267 21.4336 3.76297 20.4921 4.34201C19.5507 4.92104 19.5508 4.92132 19.551 4.92158L19.5513 4.92206L19.5514 4.92222C19.55 4.92002 19.547 4.91532 19.5425 4.90831C19.5335 4.89427 19.5183 4.87113 19.4976 4.84049C19.4559 4.77899 19.3924 4.68871 19.3105 4.58223C19.1434 4.3647 18.9167 4.10159 18.6593 3.87845C18.393 3.64753 18.1574 3.51491 17.9749 3.4681Z" fill="white"/>
</g>
<rect x="0.5" y="0.5" width="26" height="17" rx="0.5" stroke="black" stroke-opacity="0.2"/>
<defs>
<clipPath id="clip0_109_43839">
<rect width="27" height="18" rx="1" fill="white"/>
</clipPath>
</defs>
</svg>
