<svg width="375" height="225" viewBox="0 0 375 225" fill="none" xmlns="http://www.w3.org/2000/svg">
<path fill-rule="evenodd" clip-rule="evenodd" d="M171.027 54.3507C165.919 55.2974 162.523 60.0754 163.441 65.0248L172.976 116.474C173.894 121.424 178.776 124.668 183.884 123.721L213.505 118.231C218.613 117.284 222.009 112.506 221.092 107.557C220.57 104.741 222.503 102.022 225.409 101.483C228.315 100.945 231.093 102.791 231.615 105.606C233.576 116.187 226.315 126.404 215.395 128.427L185.774 133.917C174.854 135.941 167.414 129.006 165.453 118.425L160.233 106.443L152.918 66.9751C150.957 56.3943 158.218 46.178 169.138 44.1541L198.759 38.6642C209.678 36.6403 220.118 43.5759 222.079 54.1567L224.394 66.6454C224.916 69.4611 222.983 72.1802 220.077 72.7188C217.172 73.2574 214.393 71.4114 213.871 68.5957L211.556 56.1071C210.639 51.1577 205.756 47.914 200.648 48.8607L171.027 54.3507Z" fill="#A0A09F"/>
<ellipse cx="194.773" cy="205" rx="75" ry="10" fill="#A0A09F" fill-opacity="0.15"/>
<path fill-rule="evenodd" clip-rule="evenodd" d="M259.07 69.3954C258.359 69.3705 258.043 68.5495 258.543 68.0278C261.231 65.2205 267.794 59.1314 269.751 64.3319C271.63 69.3213 262.873 69.5314 259.07 69.3954Z" fill="#FFBC0D"/>
<path fill-rule="evenodd" clip-rule="evenodd" d="M244.883 59.7076C244.329 60.1548 243.553 59.7411 243.589 59.0196C243.782 55.1376 244.754 46.2374 249.639 48.8859C254.327 51.4258 247.846 57.3199 244.883 59.7076Z" fill="#FFBC0D"/>
<path fill-rule="evenodd" clip-rule="evenodd" d="M255.4 86.2947C254.883 85.8057 255.189 84.9809 255.908 84.92C259.781 84.5913 268.732 84.3631 266.761 89.5585C264.872 94.5441 258.163 88.9113 255.4 86.2947Z" fill="#FFBC0D"/>
<path fill-rule="evenodd" clip-rule="evenodd" d="M155.491 99.9871C153.318 100.39 151.884 102.477 152.286 104.649L153.101 109.047L160.695 113.405C162.518 114.452 163.643 116.396 163.633 118.503L163.579 130.223L204.828 153.9L243.842 146.67C246.014 146.267 247.448 144.18 247.046 142.008L237.205 88.9104C236.802 86.7383 234.715 85.3038 232.543 85.7064L155.491 99.9871ZM163.966 160.425L163.87 160.25L163.71 160.254C163.793 160.314 163.879 160.372 163.966 160.425Z" fill="#A0A09F"/>
<path fill-rule="evenodd" clip-rule="evenodd" d="M137.796 104.139C136.906 103.628 135.808 103.631 134.919 104.147L113.543 116.549C112.664 117.059 112.122 117.993 112.117 119.005L112.002 143.611C111.997 144.634 112.543 145.581 113.434 146.092L134.655 158.274C135.546 158.785 136.644 158.782 137.533 158.266L149.893 151.094L153.577 157.801L165.438 157.522L171.126 167.874L182.987 167.595L188.674 177.947L207.168 173.842L205.075 157.92L160.387 132.268L160.45 118.802C160.455 117.778 159.908 116.832 159.018 116.32L137.796 104.139ZM129.181 121.345C131.57 122.717 132.376 125.775 130.982 128.176C129.588 130.577 126.521 131.412 124.132 130.04C121.742 128.669 120.936 125.611 122.33 123.21C123.725 120.809 126.792 119.974 129.181 121.345ZM199.679 160.046C200.239 160.365 200.416 161.101 200.077 161.688C199.737 162.276 199.008 162.494 198.449 162.174L159.115 139.705C158.556 139.386 158.378 138.651 158.718 138.063C159.057 137.475 159.786 137.257 160.346 137.577L199.679 160.046Z" fill="#FFBC0D"/>
<mask id="path-8-outside-1_17_28582" maskUnits="userSpaceOnUse" x="109" y="35.3125" width="165" height="147" fill="black">
<rect fill="white" x="109" y="35.3125" width="165" height="147"/>
<path fill-rule="evenodd" clip-rule="evenodd" d="M163.438 65.024C162.52 60.0746 165.916 55.2966 171.024 54.3499L200.646 48.86C205.753 47.9133 210.636 51.1569 211.553 56.1063L213.868 68.595C214.39 71.4107 217.169 73.2566 220.074 72.7181C222.98 72.1795 224.913 69.4603 224.391 66.6446L222.076 54.156C220.115 43.5752 209.675 36.6396 198.756 38.6634L169.135 44.1534C158.215 46.1772 150.954 56.3936 152.915 66.9744L158.915 99.3507L155.49 99.9854C153.318 100.388 151.884 102.475 152.286 104.647L153.101 109.045L160.695 113.403C162.518 114.45 163.643 116.394 163.633 118.501L163.578 130.221L204.827 153.899L205.315 153.808L243.842 146.668C246.014 146.265 247.448 144.178 247.046 142.006L237.205 88.9087C236.802 86.7366 234.715 85.3021 232.543 85.7046L169.438 97.4003L163.438 65.024ZM258.541 68.0281C258.041 68.5497 258.357 69.3708 259.069 69.3956C262.872 69.5317 271.629 69.3216 269.75 64.3322C267.793 59.1317 261.229 65.2208 258.541 68.0281ZM244.883 59.707C244.329 60.1542 243.553 59.7406 243.589 59.019C243.782 55.1371 244.754 46.2369 249.639 48.8853C254.327 51.4252 247.846 57.3193 244.883 59.707ZM255.91 84.9195C255.19 84.9804 254.884 85.8052 255.401 86.2942C258.164 88.9108 264.873 94.5436 266.762 89.558C268.733 84.3626 259.783 84.5907 255.91 84.9195ZM134.917 104.145C135.806 103.629 136.904 103.626 137.795 104.137L159.016 116.319C159.907 116.83 160.453 117.777 160.448 118.8L160.385 132.267L205.074 157.919L207.166 173.84L188.672 177.945L182.985 167.593L171.124 167.872L165.437 157.52L153.576 157.799L149.892 151.092L137.531 158.264C136.642 158.78 135.544 158.783 134.654 158.272L113.432 146.091C112.542 145.579 111.995 144.633 112 143.609L112.115 119.004C112.12 117.992 112.663 117.057 113.542 116.547L134.917 104.145ZM130.981 128.174C132.375 125.773 131.568 122.715 129.179 121.344C126.79 119.972 123.723 120.807 122.329 123.208C120.935 125.609 121.741 128.667 124.13 130.039C126.519 131.41 129.586 130.575 130.981 128.174ZM200.075 161.687C200.415 161.099 200.237 160.364 199.678 160.044L160.344 137.575C159.785 137.256 159.056 137.473 158.716 138.061C158.376 138.649 158.554 139.384 159.113 139.704L198.447 162.173C199.006 162.492 199.735 162.275 200.075 161.687Z"/>
</mask>
<path d="M171.024 54.3499L170.478 51.4002L171.024 54.3499ZM163.438 65.024L166.388 64.4773L163.438 65.024ZM200.646 48.86L200.099 45.9102L200.646 48.86ZM211.553 56.1063L208.604 56.653V56.653L211.553 56.1063ZM213.868 68.595L216.818 68.0483V68.0483L213.868 68.595ZM220.074 72.7181L219.528 69.7683L219.528 69.7683L220.074 72.7181ZM224.391 66.6446L227.341 66.0979V66.0979L224.391 66.6446ZM222.076 54.156L219.127 54.7027V54.7027L222.076 54.156ZM198.756 38.6634L198.209 35.7137L198.756 38.6634ZM169.135 44.1534L168.588 41.2036L169.135 44.1534ZM152.915 66.9744L155.864 66.4277L152.915 66.9744ZM158.915 99.3507L159.462 102.3L162.412 101.754L161.865 98.804L158.915 99.3507ZM155.49 99.9854L154.944 97.0357L155.49 99.9854ZM152.286 104.647L149.337 105.194V105.194L152.286 104.647ZM153.101 109.045L150.152 109.592L150.404 110.956L151.608 111.647L153.101 109.045ZM160.695 113.403L159.201 116.005L159.201 116.005L160.695 113.403ZM163.633 118.501L160.633 118.487V118.487L163.633 118.501ZM163.578 130.221L160.578 130.207L160.57 131.953L162.085 132.823L163.578 130.221ZM204.827 153.899L203.334 156.5L204.29 157.049L205.374 156.848L204.827 153.899ZM205.315 153.808L205.862 156.758H205.862L205.315 153.808ZM243.842 146.668L243.295 143.718L243.842 146.668ZM247.046 142.006L249.995 141.459V141.459L247.046 142.006ZM237.205 88.9087L234.255 89.4554V89.4554L237.205 88.9087ZM232.543 85.7046L231.996 82.7549L232.543 85.7046ZM169.438 97.4003L166.489 97.947L167.035 100.897L169.985 100.35L169.438 97.4003ZM259.069 69.3956L259.176 66.3975L259.173 66.3974L259.069 69.3956ZM258.541 68.0281L260.707 70.1035L260.708 70.1028L258.541 68.0281ZM269.75 64.3322L266.942 65.3887L266.942 65.3895L269.75 64.3322ZM243.589 59.019L246.585 59.1687L246.585 59.1679L243.589 59.019ZM244.883 59.707L243.001 57.3711L242.999 57.3727L244.883 59.707ZM249.639 48.8853L248.209 51.5226L248.21 51.523L249.639 48.8853ZM255.401 86.2942L257.464 84.1159L257.462 84.1142L255.401 86.2942ZM255.91 84.9195L256.163 87.9088L256.164 87.9087L255.91 84.9195ZM266.762 89.558L263.957 88.4941L263.957 88.4949L266.762 89.558ZM137.795 104.137L139.288 101.536L139.288 101.536L137.795 104.137ZM134.917 104.145L133.411 101.55L134.917 104.145ZM159.016 116.319L157.523 118.921L157.523 118.921L159.016 116.319ZM160.448 118.8L157.448 118.786V118.786L160.448 118.8ZM160.385 132.267L157.386 132.253L157.377 133.999L158.892 134.869L160.385 132.267ZM205.074 157.919L208.048 157.528L207.854 156.056L206.567 155.317L205.074 157.919ZM207.166 173.84L207.816 176.769L210.499 176.174L210.141 173.449L207.166 173.84ZM188.672 177.945L186.043 179.39L187.126 181.361L189.322 180.874L188.672 177.945ZM182.985 167.593L185.614 166.148L184.737 164.551L182.914 164.594L182.985 167.593ZM171.124 167.872L168.495 169.317L169.372 170.914L171.195 170.871L171.124 167.872ZM165.437 157.52L168.066 156.076L167.188 154.478L165.366 154.521L165.437 157.52ZM153.576 157.799L150.946 159.244L151.824 160.841L153.646 160.798L153.576 157.799ZM149.892 151.092L152.521 149.648L151.043 146.956L148.386 148.498L149.892 151.092ZM137.531 158.264L139.037 160.859L139.037 160.859L137.531 158.264ZM134.654 158.272L133.16 160.874L133.16 160.874L134.654 158.272ZM113.432 146.091L114.926 143.489L114.926 143.489L113.432 146.091ZM112 143.609L109 143.595L112 143.609ZM112.115 119.004L115.115 119.018L112.115 119.004ZM113.542 116.547L115.047 119.142L115.047 119.142L113.542 116.547ZM129.179 121.344L127.686 123.946L129.179 121.344ZM130.981 128.174L133.575 129.681L130.981 128.174ZM124.13 130.039L122.637 132.641H122.637L124.13 130.039ZM199.678 160.044L201.166 157.439L201.166 157.439L199.678 160.044ZM200.075 161.687L202.672 163.189L202.672 163.188L200.075 161.687ZM160.344 137.575L161.832 134.97L161.832 134.97L160.344 137.575ZM159.113 139.704L160.601 137.099L160.601 137.099L159.113 139.704ZM198.447 162.173L199.935 159.568L199.935 159.568L198.447 162.173ZM170.478 51.4002C163.829 52.6324 159.253 58.9053 160.488 65.5707L166.388 64.4773C165.788 61.244 168.004 57.9608 171.571 57.2997L170.478 51.4002ZM200.099 45.9102L170.478 51.4002L171.571 57.2997L201.192 51.8097L200.099 45.9102ZM214.503 55.5596C213.268 48.8941 206.747 44.678 200.099 45.9102L201.192 51.8097C204.759 51.1486 208.004 53.4197 208.604 56.653L214.503 55.5596ZM216.818 68.0483L214.503 55.5596L208.604 56.653L210.918 69.1417L216.818 68.0483ZM219.528 69.7683C218.163 70.0213 217.022 69.1479 216.818 68.0483L210.918 69.1417C211.758 73.6734 216.175 76.492 220.621 75.6678L219.528 69.7683ZM221.441 67.1913C221.645 68.2909 220.893 69.5153 219.528 69.7683L220.621 75.6678C225.068 74.8437 228.181 70.6297 227.341 66.0979L221.441 67.1913ZM219.127 54.7027L221.441 67.1913L227.341 66.0979L225.026 53.6093L219.127 54.7027ZM199.302 41.6132C208.681 39.8749 217.484 45.838 219.127 54.7027L225.026 53.6093C222.747 41.3124 210.669 33.4043 198.209 35.7137L199.302 41.6132ZM169.681 47.1032L199.302 41.6132L198.209 35.7137L168.588 41.2036L169.681 47.1032ZM155.864 66.4277C154.221 57.5629 160.302 48.8414 169.681 47.1032L168.588 41.2036C156.127 43.513 147.686 55.2242 149.965 67.5211L155.864 66.4277ZM161.865 98.804L155.864 66.4277L149.965 67.5211L155.966 99.8974L161.865 98.804ZM156.037 102.935L159.462 102.3L158.369 96.4009L154.944 97.0357L156.037 102.935ZM155.236 104.101C155.135 103.558 155.494 103.036 156.037 102.935L154.944 97.0357C151.142 97.7402 148.632 101.393 149.337 105.194L155.236 104.101ZM156.051 108.498L155.236 104.101L149.337 105.194L150.152 109.592L156.051 108.498ZM162.188 110.802L154.595 106.443L151.608 111.647L159.201 116.005L162.188 110.802ZM166.633 118.515C166.648 115.324 164.944 112.383 162.188 110.802L159.201 116.005C160.092 116.516 160.638 117.464 160.633 118.487L166.633 118.515ZM166.578 130.235L166.633 118.515L160.633 118.487L160.578 130.207L166.578 130.235ZM206.321 151.297L165.072 127.619L162.085 132.823L203.334 156.5L206.321 151.297ZM204.769 150.858L204.281 150.949L205.374 156.848L205.862 156.758L204.769 150.858ZM243.295 143.718L204.769 150.858L205.862 156.758L244.388 149.618L243.295 143.718ZM244.096 142.553C244.196 143.096 243.838 143.617 243.295 143.718L244.388 149.618C248.189 148.913 250.7 145.26 249.995 141.459L244.096 142.553ZM234.255 89.4554L244.096 142.553L249.995 141.459L240.154 88.362L234.255 89.4554ZM233.089 88.6544C233.632 88.5538 234.154 88.9124 234.255 89.4554L240.154 88.362C239.45 84.5608 235.797 82.0504 231.996 82.7549L233.089 88.6544ZM169.985 100.35L233.089 88.6544L231.996 82.7549L168.892 94.4506L169.985 100.35ZM160.488 65.5707L166.489 97.947L172.388 96.8536L166.388 64.4773L160.488 65.5707ZM259.173 66.3974C260.066 66.4286 260.84 67.0154 261.15 67.8195C261.455 68.6115 261.276 69.5095 260.707 70.1035L256.375 65.9526C254.205 68.217 255.485 72.2723 258.964 72.3938L259.173 66.3974ZM266.942 65.3895C267.087 65.7744 266.928 65.5314 267.13 65.2955C267.139 65.2852 267.068 65.3697 266.816 65.5003C266.569 65.6289 266.218 65.7647 265.755 65.8906C263.792 66.4229 261.041 66.4643 259.176 66.3975L258.961 72.3937C260.899 72.463 264.428 72.4673 267.325 71.6813C268.733 71.2995 270.48 70.6074 271.687 69.1992C273.121 67.5249 273.352 65.3846 272.557 63.2748L266.942 65.3895ZM260.708 70.1028C262.031 68.7207 264.076 66.7908 265.867 65.8052C266.807 65.2874 267.202 65.3006 267.179 65.2977C266.777 65.2475 266.757 64.8965 266.942 65.3887L272.558 63.2756C271.764 61.1676 270.19 59.6275 267.923 59.3441C266.035 59.108 264.254 59.8439 262.973 60.5492C260.32 62.0098 257.739 64.5281 256.374 65.9533L260.708 70.1028ZM240.592 58.8693C240.436 62.0013 244.059 64.2279 246.767 62.0414L242.999 57.3727C243.694 56.8116 244.663 56.748 245.424 57.1528C246.173 57.5515 246.626 58.3471 246.585 59.1687L240.592 58.8693ZM251.069 46.248C249.089 45.1745 246.89 45.0419 244.992 46.3121C243.41 47.3702 242.546 49.0928 242.04 50.4648C240.992 53.3061 240.69 56.8994 240.592 58.8701L246.585 59.1679C246.68 57.2567 246.962 54.4589 247.669 52.5417C248.041 51.5345 248.347 51.286 248.328 51.2989C247.992 51.5239 247.747 51.2719 248.209 51.5226L251.069 46.248ZM246.765 62.043C248.275 60.8265 250.945 58.5184 252.62 56.0269C253.433 54.8168 254.301 53.1493 254.29 51.295C254.278 49.0903 253.05 47.3216 251.068 46.2476L248.21 51.523C248.571 51.719 248.292 51.6395 248.29 51.3289C248.29 51.3153 248.291 51.426 248.187 51.6894C248.084 51.9488 247.908 52.2807 247.64 52.6796C246.506 54.3671 244.454 56.1998 243.001 57.3711L246.765 62.043ZM257.462 84.1142C258.111 84.7279 258.304 85.6799 258.005 86.488C257.71 87.2839 256.982 87.8395 256.163 87.9088L255.657 81.9302C252.532 82.1945 250.811 86.0828 253.34 88.4742L257.462 84.1142ZM263.957 88.4949C263.811 88.8795 263.853 88.5919 264.16 88.5486C264.174 88.5467 264.064 88.5629 263.789 88.4946C263.518 88.4273 263.166 88.2977 262.735 88.0854C260.911 87.1873 258.82 85.3995 257.464 84.1159L253.339 88.4725C254.746 89.8055 257.391 92.1423 260.084 93.4684C261.393 94.1124 263.161 94.7486 264.997 94.4899C267.181 94.1823 268.769 92.7292 269.568 90.621L263.957 88.4949ZM256.164 87.9087C258.07 87.7469 260.881 87.6512 262.875 88.0954C263.923 88.3288 264.21 88.5996 264.195 88.5823C263.927 88.2792 264.144 88.0023 263.957 88.4941L269.568 90.6218C270.366 88.5159 270.203 86.3192 268.69 84.608C267.43 83.1825 265.607 82.5568 264.18 82.2389C261.223 81.5806 257.622 81.7633 255.656 81.9302L256.164 87.9087ZM139.288 101.536C137.467 100.49 135.226 100.498 133.411 101.55L136.423 106.74C136.387 106.761 136.342 106.762 136.301 106.739L139.288 101.536ZM160.51 113.717L139.288 101.536L136.301 106.739L157.523 118.921L160.51 113.717ZM163.448 118.815C163.458 116.707 162.333 114.764 160.51 113.717L157.523 118.921C157.48 118.896 157.448 118.846 157.448 118.786L163.448 118.815ZM163.385 132.281L163.448 118.814L157.448 118.786L157.386 132.253L163.385 132.281ZM206.567 155.317L161.879 129.665L158.892 134.869L203.58 160.52L206.567 155.317ZM210.141 173.449L208.048 157.528L202.099 158.31L204.192 174.231L210.141 173.449ZM189.322 180.874L207.816 176.769L206.516 170.912L188.022 175.016L189.322 180.874ZM180.356 169.037L186.043 179.39L191.302 176.501L185.614 166.148L180.356 169.037ZM171.195 170.871L183.056 170.592L182.914 164.594L171.053 164.873L171.195 170.871ZM162.807 158.965L168.495 169.317L173.753 166.428L168.066 156.076L162.807 158.965ZM153.646 160.798L165.507 160.519L165.366 154.521L153.505 154.8L153.646 160.798ZM147.262 152.537L150.946 159.244L156.205 156.355L152.521 149.648L147.262 152.537ZM139.037 160.859L151.397 153.687L148.386 148.498L136.026 155.669L139.037 160.859ZM133.16 160.874C134.981 161.919 137.223 161.912 139.037 160.859L136.026 155.669C136.062 155.648 136.107 155.647 136.147 155.67L133.16 160.874ZM111.939 148.692L133.16 160.874L136.147 155.67L114.926 143.489L111.939 148.692ZM109 143.595C108.99 145.702 110.115 147.646 111.939 148.692L114.926 143.489C114.968 143.513 115 143.563 115 143.623L109 143.595ZM109.115 118.99L109 143.595L115 143.623L115.115 119.018L109.115 118.99ZM112.036 113.952C110.242 114.994 109.125 116.908 109.115 118.99L115.115 119.018C115.115 119.076 115.084 119.121 115.047 119.142L112.036 113.952ZM133.411 101.55L112.036 113.952L115.047 119.142L136.423 106.74L133.411 101.55ZM127.686 123.946C128.613 124.478 128.957 125.685 128.386 126.668L133.575 129.681C135.793 125.861 134.523 120.952 130.673 118.742L127.686 123.946ZM124.923 124.715C125.5 123.722 126.748 123.407 127.686 123.946L130.673 118.742C126.833 116.538 121.947 117.892 119.735 121.702L124.923 124.715ZM125.624 127.437C124.696 126.904 124.352 125.697 124.923 124.715L119.735 121.702C117.517 125.521 118.786 130.43 122.637 132.641L125.624 127.437ZM128.386 126.668C127.81 127.66 126.562 127.975 125.624 127.437L122.637 132.641C126.477 134.845 131.363 133.49 133.575 129.681L128.386 126.668ZM198.19 162.649C197.176 162.07 197.062 160.905 197.478 160.185L202.672 163.188C203.768 161.293 203.298 158.657 201.166 157.439L198.19 162.649ZM158.856 140.18L198.19 162.649L201.166 157.439L161.832 134.97L158.856 140.18ZM161.313 139.563C160.902 140.274 159.857 140.752 158.856 140.18L161.832 134.97C159.712 133.759 157.21 134.673 156.119 136.559L161.313 139.563ZM160.601 137.099C161.615 137.678 161.729 138.843 161.313 139.563L156.119 136.559C155.023 138.455 155.493 141.091 157.625 142.309L160.601 137.099ZM199.935 159.568L160.601 137.099L157.625 142.309L196.959 164.778L199.935 159.568ZM197.478 160.185C197.889 159.474 198.934 158.996 199.935 159.568L196.959 164.778C199.079 165.988 201.581 165.075 202.672 163.189L197.478 160.185Z" fill="white" mask="url(#path-8-outside-1_17_28582)"/>
</svg>
