<svg width="27" height="18" viewBox="0 0 27 18" fill="none" xmlns="http://www.w3.org/2000/svg">
<g clip-path="url(#clip0_109_43882)">
<path d="M0 0H27V18H0V0Z" fill="#01237A"/>
<path d="M20.2105 3.75652L20.4886 4.612H21.388L20.6603 5.14068L20.9383 5.99615L20.2105 5.46736L19.4829 5.99615L19.7608 5.14068L19.0332 4.612H19.9326L20.2105 3.75652ZM16.5153 5.2871L17.3168 5.69542L17.9528 5.05947L17.8121 5.94784L18.6135 6.3562L17.7252 6.49689L17.5844 7.38531L17.176 6.58389L16.2877 6.72457L16.9238 6.08857L16.5153 5.2871ZM14.9847 8.98231L15.8402 8.70436L15.8403 7.80494L16.3689 8.53257L17.2244 8.25457L16.6956 8.98231L17.2244 9.70999L16.3689 9.43209L15.8403 10.1597V9.26025L14.9847 8.98231ZM16.5153 12.6775L16.9237 11.876L16.2877 11.24L17.1762 11.3807L17.5844 10.5793L17.7252 11.4677L18.6135 11.6083L17.8121 12.0167L17.9528 12.9052L17.3168 12.269L16.5153 12.6775ZM20.2105 14.208L19.9326 13.3526H19.0331L19.7608 12.8239L19.4829 11.9685L20.2105 12.4971L20.9383 11.9685L20.6603 12.8239L21.388 13.3526H20.4886L20.2105 14.208ZM23.9057 12.6775L23.1042 12.2692L22.4683 12.9052L22.6089 12.0167L21.8075 11.6085L22.6959 11.4677L22.8367 10.5793L23.2449 11.3807L24.1334 11.24L23.4973 11.876L23.9057 12.6775ZM25.4363 8.98231L24.5808 9.26025V10.1597L24.0522 9.43204L23.1967 9.70999L23.7254 8.98231L23.1967 8.25457L24.0522 8.53257L24.5808 7.80494V8.70436L25.4363 8.98231ZM23.9057 5.2872L23.4975 6.08857L24.1334 6.72457L23.2449 6.58389L22.8367 7.38531L22.6959 6.49689L21.8075 6.3561L22.6089 5.94784L22.4683 5.05952L23.1043 5.69542L23.9057 5.2872ZM0 5.33336V6.17547H2.42468L0 7.79189V8.18867L3.01984 6.17541H4.21053L0 8.98246H5.89474V5.33331H0V5.33336ZM5.05263 8.98236H1.19095L5.05263 6.40799V8.98236ZM9.26316 2.80705L13.4737 0H7.57895V3.64915H13.4737V2.80705H11.049L13.4737 1.19052V0.793736L10.4538 2.80694H9.26316V2.80705ZM8.42105 0.000105205H12.2827L8.42105 2.57447V0.000105205ZM7.57895 8.98246H13.4737L9.26316 6.17541H10.4538L13.4737 8.18873V7.79194L11.049 6.17547H13.4737V5.33336H7.57895V8.98246ZM8.42105 6.40799L12.2827 8.98236H8.42105V6.40799ZM5.89474 0H0L4.21053 2.80705H3.01984L0 0.793789V1.19058L2.42468 2.807H0V3.6491H5.89474V0ZM5.05263 2.57447L1.19095 0.000105205H5.05263V2.57447Z" fill="white"/>
<path d="M7.57895 0H5.89474V3.64916H0V5.33337H5.89474V8.98247H7.57895V5.33337H13.4737V3.64916H7.57895V0Z" fill="#D80027"/>
<path d="M4.21053 2.80705L0 0V0.79379L3.01984 2.80705H4.21053ZM9.26316 2.80705H10.4538L13.4737 0.79379V0L9.26316 2.80705ZM3.01984 6.17547L0 8.18874V8.98247L4.21053 6.17547H3.01984ZM9.26316 6.17547L13.4737 8.98247V8.18874L10.4538 6.17547H9.26316Z" fill="#D80027"/>
</g>
<rect x="0.5" y="0.5" width="26" height="17" rx="0.5" stroke="black" stroke-opacity="0.2"/>
<defs>
<clipPath id="clip0_109_43882">
<rect width="27" height="18" rx="1" fill="white"/>
</clipPath>
</defs>
</svg>
