<svg width="153" height="98" viewBox="0 0 153 98" fill="none" xmlns="http://www.w3.org/2000/svg">
<rect x="1.5" y="9" width="150" height="80" rx="40" fill="white"/>
<g clip-path="url(#clip0_465_42149)">
<path d="M111.063 24.0938C106.274 24.0938 102.002 30.4216 99.2085 40.3162C96.4146 30.4216 92.1383 24.0938 87.3495 24.0938C78.9309 24.0938 72.1055 45.1468 72.1055 71.1128H78.8801C78.8801 47.0012 82.6714 27.45 87.3495 27.45C92.0275 27.45 95.8189 45.4948 95.8189 67.752H102.593C102.593 45.4948 106.385 27.45 111.063 27.45C115.741 27.45 119.532 46.9966 119.532 71.1128H126.307C126.307 45.1468 119.481 24.0938 111.063 24.0938Z" fill="#FFBC0D"/>
<path d="M25.8945 58.4618L28.4252 36.0352H34.3316L39.0558 50.1285L43.817 36.0352H49.7234L52.254 58.4618H46.2183L44.9022 44.7714L40.8845 56.8226H37.1393L33.0894 44.6386L31.7409 58.4618H25.8945ZM53.5748 65.0873L54.757 61.6074C55.4543 61.8959 56.1424 62.0424 56.8166 62.0424C57.3338 62.0424 57.8002 61.8867 58.2159 61.5754C58.6315 61.264 59.0517 60.6276 59.4812 59.666L60.1231 58.1917L53.5425 41.5892H59.4858L62.7276 52.2347L65.8679 41.5892H71.4372L64.21 59.8995C63.4019 61.9508 62.4552 63.471 61.3746 64.4508C60.294 65.4307 58.9871 65.9252 57.4585 65.9252C56.6688 65.9252 55.9484 65.8519 55.2973 65.7054C54.6462 65.5634 54.0689 65.3574 53.5748 65.0873Z" fill="url(#paint0_linear_465_42149)"/>
</g>
<defs>
<linearGradient id="paint0_linear_465_42149" x1="25.8945" y1="50.9801" x2="71.4344" y2="50.9801" gradientUnits="userSpaceOnUse">
<stop offset="0.000616698" stop-color="#910063"/>
<stop offset="0.0362" stop-color="#990059"/>
<stop offset="0.1727" stop-color="#B60035"/>
<stop offset="0.3012" stop-color="#CA001C"/>
<stop offset="0.4172" stop-color="#D7000C"/>
<stop offset="0.5101" stop-color="#DB0007"/>
<stop offset="1" stop-color="#E8720A"/>
</linearGradient>
<clipPath id="clip0_465_42149">
<rect width="100.414" height="47.0191" fill="white" transform="translate(25.8945 24.0938)"/>
</clipPath>
</defs>
</svg>
