<svg width="153" height="98" viewBox="0 0 153 98" fill="none" xmlns="http://www.w3.org/2000/svg">
<g clip-path="url(#clip0_465_41646)">
<path d="M131.165 24.8359C126.116 24.8359 121.612 31.5651 118.661 42.0825C115.715 31.5651 111.211 24.8359 106.162 24.8359C97.2855 24.8359 90.0938 47.2341 90.0938 74.8374H97.2319C97.2319 49.1964 101.23 28.405 106.162 28.405C111.094 28.405 115.092 47.5944 115.092 71.2537H122.235C122.235 47.5798 126.233 28.405 131.165 28.405C136.098 28.405 140.095 49.1964 140.095 74.8374H147.238C147.238 47.2243 140.042 24.8359 131.165 24.8359Z" fill="#FFBC0D"/>
<path d="M6.44922 61.2258L9.09804 37.5909H15.2673L20.1997 52.4418L25.1711 37.5909H31.355L33.9989 61.2258H27.669L26.2959 46.7985L22.0987 59.4972H18.2034L13.9672 46.6573L12.5551 61.2258H6.44922ZM40.3483 41.4375C39.9092 41.4479 39.4724 41.3706 39.0636 41.2101C38.6547 41.0495 38.282 40.809 37.9673 40.5026C37.6611 40.2078 37.4176 39.8543 37.2512 39.4631C37.0849 39.072 36.9991 38.6514 36.9991 38.2263C36.9991 37.8013 37.0849 37.3806 37.2512 36.9895C37.4176 36.5984 37.6611 36.2448 37.9673 35.95C38.6147 35.3494 39.4652 35.0156 40.3483 35.0156C41.2314 35.0156 42.0819 35.3494 42.7293 35.95C43.0355 36.2448 43.2791 36.5984 43.4454 36.9895C43.6118 37.3806 43.6975 37.8013 43.6975 38.2263C43.6975 38.6514 43.6118 39.072 43.4454 39.4631C43.2791 39.8543 43.0355 40.2078 42.7293 40.5026C42.4146 40.809 42.0419 41.0495 41.6331 41.2101C41.2242 41.3706 40.7874 41.4479 40.3483 41.4375ZM37.3489 61.2258V43.4485H43.3477V61.2258H37.3489ZM47.5742 61.2258V43.4485H52.9302L53.1055 46.1606C53.5545 45.1961 54.2865 44.391 55.2041 43.8526C56.2386 43.2549 57.4182 42.9549 58.6125 42.9859C60.5148 42.9859 62.0145 43.5686 63.1116 44.7339C64.2088 45.8993 64.7558 47.4688 64.7526 49.4424V61.2258H58.7586V50.3578C58.8 49.5668 58.5904 48.7829 58.1597 48.118C57.9525 47.8417 57.6798 47.6213 57.3661 47.4768C57.0524 47.3322 56.7077 47.2681 56.363 47.2903C55.9898 47.2948 55.6222 47.3808 55.2858 47.5423C54.9493 47.7038 54.6523 47.9368 54.4153 48.2251C53.8505 48.8484 53.5681 49.8303 53.5681 51.171V61.2258H47.5742ZM85.3881 43.4485V61.2258H80.032L79.8226 58.3287C79.4016 59.3232 78.6949 60.1704 77.7922 60.7632C76.7769 61.4129 75.5884 61.7389 74.3838 61.6981C73.602 61.7296 72.8228 61.5894 72.1011 61.2874C71.3793 60.9854 70.7324 60.5289 70.206 59.9501C69.1608 58.788 68.6381 57.2185 68.6381 55.2416V43.4485H74.6321V54.3116C74.5914 55.0954 74.781 55.874 75.1774 56.5514C75.3544 56.8211 75.5992 57.0395 75.8872 57.1848C76.1752 57.33 76.4963 57.3971 76.8183 57.3792C77.1701 57.3713 77.5154 57.2829 77.8277 57.1209C78.14 56.9588 78.411 56.7274 78.6199 56.4443C79.1361 55.821 79.3941 54.8391 79.3941 53.4984V43.4485H85.3881Z" fill="url(#paint0_linear_465_41646)"/>
</g>
<defs>
<linearGradient id="paint0_linear_465_41646" x1="6.44922" y1="48.359" x2="85.3833" y2="48.359" gradientUnits="userSpaceOnUse">
<stop offset="0.000616698" stop-color="#910063"/>
<stop offset="0.0362" stop-color="#990059"/>
<stop offset="0.1727" stop-color="#B60035"/>
<stop offset="0.3012" stop-color="#CA001C"/>
<stop offset="0.4172" stop-color="#D7000C"/>
<stop offset="0.5101" stop-color="#DB0007"/>
<stop offset="1" stop-color="#E8720A"/>
</linearGradient>
<clipPath id="clip0_465_41646">
<rect width="142.605" height="66.7752" fill="white" transform="translate(4.63281 15.0469)"/>
</clipPath>
</defs>
</svg>
