<svg width="44" height="44" viewBox="0 0 44 44" fill="none" xmlns="http://www.w3.org/2000/svg">
<path d="M2 5C2 3.34315 3.34315 2 5 2H39C40.6569 2 42 3.34315 42 5V39C42 40.6569 40.6569 42 39 42H5C3.34315 42 2 40.6569 2 39V5Z" fill="#FFBC0D"/>
<path fill-rule="evenodd" clip-rule="evenodd" d="M18.5 10H9.75C9.42693 10 9.3125 10.2287 9.3125 10.3333V18.6667C9.3125 18.7713 9.42694 19 9.75 19H18.5C18.8231 19 18.9375 18.7713 18.9375 18.6667V10.3333C18.9375 10.2287 18.8231 10 18.5 10ZM18.5 8.25H9.75C8.54188 8.25 7.5625 9.18274 7.5625 10.3333V18.6667C7.5625 19.8173 8.54188 20.75 9.75 20.75H18.5C19.7081 20.75 20.6875 19.8173 20.6875 18.6667V10.3333C20.6875 9.18274 19.7081 8.25 18.5 8.25Z" fill="#292929"/>
<path fill-rule="evenodd" clip-rule="evenodd" d="M18.5 25H9.75C9.42693 25 9.3125 25.2287 9.3125 25.3333V33.6667C9.3125 33.7713 9.42694 34 9.75 34H18.5C18.8231 34 18.9375 33.7713 18.9375 33.6667V25.3333C18.9375 25.2287 18.8231 25 18.5 25ZM18.5 23.25H9.75C8.54188 23.25 7.5625 24.1827 7.5625 25.3333V33.6667C7.5625 34.8173 8.54188 35.75 9.75 35.75H18.5C19.7081 35.75 20.6875 34.8173 20.6875 33.6667V25.3333C20.6875 24.1827 19.7081 23.25 18.5 23.25Z" fill="#292929"/>
<path fill-rule="evenodd" clip-rule="evenodd" d="M34.25 10H25.5C25.1769 10 25.0625 10.2287 25.0625 10.3333V18.6667C25.0625 18.7713 25.1769 19 25.5 19H34.25C34.5731 19 34.6875 18.7713 34.6875 18.6667V10.3333C34.6875 10.2287 34.5731 10 34.25 10ZM34.25 8.25H25.5C24.2919 8.25 23.3125 9.18274 23.3125 10.3333V18.6667C23.3125 19.8173 24.2919 20.75 25.5 20.75H34.25C35.4581 20.75 36.4375 19.8173 36.4375 18.6667V10.3333C36.4375 9.18274 35.4581 8.25 34.25 8.25Z" fill="#292929"/>
<path fill-rule="evenodd" clip-rule="evenodd" d="M27.25 12.25C27.25 12.1119 27.3619 12 27.5 12H32.25C32.3881 12 32.5 12.1119 32.5 12.25V16.75C32.5 16.8881 32.3881 17 32.25 17H27.5C27.3619 17 27.25 16.8881 27.25 16.75V12.25Z" fill="#292929"/>
<path fill-rule="evenodd" clip-rule="evenodd" d="M11.5 27.25C11.5 27.1119 11.6119 27 11.75 27H16.5C16.6381 27 16.75 27.1119 16.75 27.25V31.75C16.75 31.8881 16.6381 32 16.5 32H11.75C11.6119 32 11.5 31.8881 11.5 31.75V27.25Z" fill="#292929"/>
<path fill-rule="evenodd" clip-rule="evenodd" d="M11.5 12.25C11.5 12.1119 11.6119 12 11.75 12H16.5C16.6381 12 16.75 12.1119 16.75 12.25V16.75C16.75 16.8881 16.6381 17 16.5 17H11.75C11.6119 17 11.5 16.8881 11.5 16.75V12.25Z" fill="#292929"/>
<path d="M27.25 27.25C27.25 27.1119 27.3619 27 27.5 27H32.25C32.3881 27 32.5 27.1119 32.5 27.25V31.75C32.5 31.8881 32.3881 32 32.25 32H27.5C27.3619 32 27.25 31.8881 27.25 31.75V27.25Z" fill="#292929"/>
<path d="M23.3125 23.5C23.3125 23.3619 23.4244 23.25 23.5625 23.25H27C27.1381 23.25 27.25 23.3619 27.25 23.5V26.75C27.25 26.8881 27.1381 27 27 27H23.5625C23.4244 27 23.3125 26.8881 23.3125 26.75V23.5Z" fill="#292929"/>
<path d="M23.3125 32.25C23.3125 32.1119 23.4244 32 23.5625 32H27C27.1381 32 27.25 32.1119 27.25 32.25V35.5C27.25 35.6381 27.1381 35.75 27 35.75H23.5625C23.4244 35.75 23.3125 35.6381 23.3125 35.5V32.25Z" fill="#292929"/>
<path d="M32.5 23.5C32.5 23.3619 32.6119 23.25 32.75 23.25H36.1875C36.3256 23.25 36.4375 23.3619 36.4375 23.5V26.75C36.4375 26.8881 36.3256 27 36.1875 27H32.75C32.6119 27 32.5 26.8881 32.5 26.75V23.5Z" fill="#292929"/>
<path d="M32.5 32.25C32.5 32.1119 32.6119 32 32.75 32H36.1875C36.3256 32 36.4375 32.1119 36.4375 32.25V35.5C36.4375 35.6381 36.3256 35.75 36.1875 35.75H32.75C32.6119 35.75 32.5 35.6381 32.5 35.5V32.25Z" fill="#292929"/>
<path fill-rule="evenodd" clip-rule="evenodd" d="M5 1H39C41.2091 1 43 2.79086 43 5V39C43 41.2091 41.2091 43 39 43H5C2.79086 43 1 41.2091 1 39V5C1 2.79086 2.79086 1 5 1ZM5 2C3.34315 2 2 3.34315 2 5V39C2 40.6569 3.34315 42 5 42H39C40.6569 42 42 40.6569 42 39V5C42 3.34315 40.6569 2 39 2H5Z" fill="white"/>
</svg>
