<svg width="53" height="53" viewBox="0 0 53 53" fill="none" xmlns="http://www.w3.org/2000/svg">
<path fill-rule="evenodd" clip-rule="evenodd" d="M26.2183 52.4322C35.8 52.4322 43.5675 51.3965 43.5675 50.1189C43.5675 48.8414 35.8 47.8057 26.2183 47.8057C16.6366 47.8057 8.86909 48.8414 8.86909 50.1189C8.86909 51.3965 16.6366 52.4322 26.2183 52.4322Z" fill="#A0A09F" fill-opacity="0.15"/>
<path fill-rule="evenodd" clip-rule="evenodd" d="M11.1799 10.0245L13.0594 11.9522L14.9388 10.0245L16.8183 11.9522L18.6978 10.0245L20.5773 11.9522L22.4568 10.0245L24.3363 11.9522L26.2158 10.0245L28.0953 11.9522L29.9748 10.0245L31.8543 11.9522L33.7338 10.0245L35.6133 11.9522L37.4928 10.0245L39.3723 11.9522L41.2518 10.0245V48.5782C41.2518 49.43 40.5614 50.1204 39.7097 50.1204H12.722C11.8703 50.1204 11.1799 49.43 11.1799 48.5782V10.0245Z" fill="white"/>
<path fill-rule="evenodd" clip-rule="evenodd" d="M11.1799 10.0245L13.0594 11.9522L14.9388 10.0245L16.8183 11.9522L18.6978 10.0245L20.5773 11.9522L22.4568 10.0245L24.3363 11.9522L26.2158 10.0245L28.0953 11.9522L29.9748 10.0245L31.8543 11.9522L33.7338 10.0245L35.6133 11.9522L37.4928 10.0245L39.3723 11.9522L41.2518 10.0245V48.5782C41.2518 49.43 40.5614 50.1204 39.7097 50.1204H12.722C11.8703 50.1204 11.1799 49.43 11.1799 48.5782V10.0245Z" fill="#C2945C"/>
<path fill-rule="evenodd" clip-rule="evenodd" d="M11.1799 42.7944H41.2518V48.5775C41.2518 49.4292 40.5614 50.1197 39.7097 50.1197H12.722C11.8703 50.1197 11.1799 49.4292 11.1799 48.5775V42.7944Z" fill="#DB0007"/>
<path fill-rule="evenodd" clip-rule="evenodd" d="M41.2539 19.5517C41.0067 19.4977 40.7582 19.4703 40.5065 19.4703C37.3059 19.4703 34.4481 23.5951 32.5798 30.0434C30.7105 23.5951 27.8538 19.4703 24.651 19.4703C19.0242 19.4703 14.459 33.1921 14.459 50.1205H18.9898C18.9898 34.4044 21.5259 21.6587 24.651 21.6587C27.7795 21.6587 30.3145 33.4225 30.3145 47.9321H34.8441C34.8441 33.4225 37.3813 21.6587 40.5065 21.6587C40.7601 21.6587 41.0099 21.7426 41.2548 21.9052C41.2539 20.4341 41.2539 21.2052 41.2539 19.5517Z" fill="#FFBC0D"/>
<path fill-rule="evenodd" clip-rule="evenodd" d="M38.1823 9.35097L39.3717 10.5707L40.5611 9.35097C41.1646 8.73192 42.215 9.15924 42.215 10.0238V48.5776C42.215 49.9616 41.0931 51.0836 39.709 51.0836H12.7214C11.3374 51.0836 10.2154 49.9616 10.2154 48.5776V10.0238C10.2154 9.15924 11.2658 8.73192 11.8694 9.35097L13.0587 10.5707L14.2481 9.35097C14.6153 8.9744 15.2136 8.96332 15.5943 9.31774L15.6283 9.35097L16.8177 10.5707L18.0071 9.35097C18.3743 8.9744 18.9726 8.96332 19.3533 9.31774L19.3873 9.35097L20.5767 10.5707L21.7661 9.35097C22.1333 8.9744 22.7316 8.96332 23.1123 9.31774L23.1463 9.35097L24.3357 10.5707L25.5251 9.35097C25.8923 8.9744 26.4906 8.96332 26.8713 9.31774L26.9053 9.35097L28.0947 10.5707L29.2841 9.35097C29.6512 8.9744 30.2496 8.96332 30.6303 9.31774L30.6643 9.35097L31.8537 10.5707L33.0431 9.35097C33.4102 8.9744 34.0086 8.96332 34.3893 9.31774L34.4233 9.35097L35.6127 10.5707L36.8021 9.35097C37.1692 8.9744 37.7676 8.96332 38.1483 9.31774L38.1823 9.35097ZM41.2508 48.5776V10.0238L39.3713 11.9515L37.4918 10.0238L35.6123 11.9515L33.7328 10.0238L31.8533 11.9515L29.9738 10.0238L28.0943 11.9515L26.2148 10.0238L24.3353 11.9515L22.4558 10.0238L20.5763 11.9515L18.6968 10.0238L16.8173 11.9515L14.9378 10.0238L13.0584 11.9515L11.1789 10.0238V48.5776C11.1789 49.4293 11.8693 50.1198 12.721 50.1198H39.7086C40.5604 50.1198 41.2508 49.4293 41.2508 48.5776Z" fill="white"/>
</svg>
