<svg width="27" height="18" viewBox="0 0 27 18" fill="none" xmlns="http://www.w3.org/2000/svg">
<g clip-path="url(#clip0_109_43777)">
<path d="M0 0H27V18.0002H0V0Z" fill="#0052B4"/>
<path d="M13.5 0V6.18711H11.0706L13.5 7.80711V8.9998H12.3067L8.4375 6.42009V8.9998H5.0625V6.42009L1.19327 8.9998H0V7.80711L2.42942 6.18711H0V2.81211H2.42942L0 1.19269V0H1.19327L5.0625 2.57908V0H8.4375V2.57908L12.3067 0H13.5Z" fill="white"/>
<path d="M7.59375 0H5.90625V3.65623H0V5.34373H5.90625V9.00001H7.59375V5.34373H13.5V3.65623H7.59375V0Z" fill="#D80027"/>
<path d="M0 0V0.795393L3.02574 2.81253H4.21875L0 0ZM13.5 0V0.795393L10.4743 2.81253H9.28125L13.5 0Z" fill="#D80027"/>
<path d="M13.4997 1.19141V2.81098H11.0703L13.4997 1.19141Z" fill="#2E52B2"/>
<path d="M0 0V0.795393L3.02574 2.81253H4.21875L0 0ZM13.5 0V0.795393L10.4743 2.81253H9.28125L13.5 0Z" fill="#D80027"/>
<path d="M13.4997 1.19141V2.81098H11.0703L13.4997 1.19141Z" fill="#2E52B2"/>
<path d="M0 9.00003V8.20469L3.02574 6.1875H4.21875L0 9.00003ZM13.5 9.00003V8.20469L10.4743 6.1875H9.28125L13.5 9.00003Z" fill="#D80027"/>
<path d="M20.249 9.19531L17.8164 11.6279C18.2723 12.5073 19.1902 13.1084 20.249 13.1084C21.3078 13.1084 22.2257 12.5072 22.6816 11.6279L20.249 9.19531Z" fill="#FFDA44"/>
<path d="M17.5117 4.89062V9.19502C17.5118 11.2917 20.2509 11.9341 20.2509 11.9341C20.2509 11.9341 22.9899 11.2917 22.99 9.19497V4.89062H17.5117Z" fill="#6DA544"/>
<path d="M19.6641 6.84766H20.838V9.97792H19.6641V6.84766Z" fill="white"/>
<path d="M20.251 7.43559C20.5752 7.43559 20.8379 7.17281 20.8379 6.84866C20.8379 6.5245 20.5752 6.26172 20.251 6.26172C19.9268 6.26172 19.6641 6.5245 19.6641 6.84866C19.6641 7.17281 19.9268 7.43559 20.251 7.43559Z" fill="#A2001D"/>
<path d="M18.293 5.67188H19.0756V6.45445H18.293V5.67188ZM18.293 7.43278H19.0756V8.21535H18.293V7.43278ZM18.293 9.19363H19.0756V9.9762H18.293V9.19363ZM21.4232 5.67188H22.2058V6.45445H21.4232V5.67188ZM21.4232 7.43278H22.2058V8.21535H21.4232V7.43278ZM21.4232 9.19363H22.2058V9.9762H21.4232V9.19363Z" fill="#FFDA44"/>
</g>
<rect x="0.5" y="0.5" width="26" height="17" rx="0.5" stroke="black" stroke-opacity="0.2"/>
<defs>
<clipPath id="clip0_109_43777">
<rect width="27" height="18" rx="1" fill="white"/>
</clipPath>
</defs>
</svg>
