<svg width="375" height="225" viewBox="0 0 375 225" fill="none" xmlns="http://www.w3.org/2000/svg">
<ellipse cx="187.866" cy="194.889" rx="87.4169" ry="18.5254" fill="#A0A09F" fill-opacity="0.15"/>
<path fill-rule="evenodd" clip-rule="evenodd" d="M135.574 80.2559C135.574 80.2559 135.574 121.031 135.574 141.418C135.574 159.261 137.18 194.945 137.18 194.945C137.18 198.114 140.149 200.68 143.806 200.68H233.35C237.007 200.68 239.975 198.114 239.975 194.945C239.975 194.945 241.581 161.023 241.581 144.062C241.581 122.793 241.581 80.2559 241.581 80.2559H220.38H199.178H177.977H156.776H135.574Z" fill="#C2945C"/>
<mask id="mask0_17_28620" style="mask-type:luminance" maskUnits="userSpaceOnUse" x="135" y="80" width="107" height="121">
<path fill-rule="evenodd" clip-rule="evenodd" d="M135.57 80.2559C135.57 80.2559 135.57 121.031 135.57 141.418C135.57 159.261 137.176 194.945 137.176 194.945C137.176 198.114 140.145 200.68 143.802 200.68H233.346C237.003 200.68 239.971 198.114 239.971 194.945C239.971 194.945 241.577 161.023 241.577 144.062C241.577 122.793 241.577 80.2559 241.577 80.2559H220.376H199.175H177.973H156.772H135.57Z" fill="white"/>
</mask>
<g mask="url(#mask0_17_28620)">
<rect x="131.559" y="179.781" width="113.972" height="24.8813" fill="#DB0007"/>
<path fill-rule="evenodd" clip-rule="evenodd" d="M227.904 117.195C237.205 117.195 244.749 154.697 244.749 200.939H258.228C258.228 151.13 244.65 110.756 227.904 110.756C218.383 110.756 209.881 122.892 204.323 141.866C198.762 122.892 190.263 110.756 180.735 110.756C163.995 110.756 150.414 151.13 150.414 200.939H163.893C163.893 154.697 171.438 117.195 180.735 117.195C190.042 117.195 197.583 151.808 197.583 194.5H211.059C211.059 151.808 218.607 117.195 227.904 117.195Z" fill="#FFBC0D"/>
</g>
<path opacity="0.1" d="M135.539 88.0703L241.546 88.0703V99.095L135.539 101.639V88.0703Z" fill="#6F6F6F"/>
<path fill-rule="evenodd" clip-rule="evenodd" d="M135.305 62.5598L186.736 61.7949L241.868 62.5618C243.075 62.5786 244.067 63.5223 244.142 64.7278L245.459 85.6278C245.54 86.9019 244.572 87.9998 243.298 88.0801L243.225 88.0835L134.022 88.0847C132.746 88.0847 131.711 87.0498 131.711 85.7731L131.716 85.6278L133.033 64.7257C133.109 63.5211 134.098 62.5777 135.305 62.5598Z" fill="#C2945C"/>
<mask id="mask1_17_28620" style="mask-type:luminance" maskUnits="userSpaceOnUse" x="161" y="61" width="49" height="49">
<path fill-rule="evenodd" clip-rule="evenodd" d="M161.183 63.8716C160.935 63.0118 161.562 62.1511 162.456 62.1332C166.961 62.0429 179.061 61.8092 186.539 61.7484C194.094 61.6868 204.091 62.0009 207.62 62.1225C208.349 62.1476 208.924 62.7433 208.929 63.4723L209.228 108.58C209.233 109.336 208.621 109.952 207.865 109.952H175.472C174.865 109.952 174.331 109.55 174.163 108.966L161.183 63.8716Z" fill="white"/>
</mask>
<g mask="url(#mask1_17_28620)">
</g>
<path d="M106.695 15.4025C106.713 14.8239 107.372 14.5025 107.84 14.8442L120.535 24.1303C120.715 24.2621 120.946 24.3029 121.161 24.2407L136.267 19.8567C136.823 19.6953 137.332 20.2228 137.151 20.7728L132.243 35.7164C132.173 35.9285 132.206 36.1609 132.331 36.3456L141.169 49.3574C141.494 49.8363 141.15 50.4837 140.571 50.4818L124.842 50.4314C124.618 50.4307 124.407 50.5336 124.271 50.71L114.627 63.1357C114.272 63.5929 113.549 63.4656 113.372 62.9145L108.56 47.9397C108.491 47.7272 108.328 47.5584 108.118 47.4827L93.3207 42.1504C92.7761 41.9541 92.674 41.228 93.1434 40.8893L105.898 31.6847C106.079 31.5541 106.189 31.3469 106.196 31.1238L106.695 15.4025Z" fill="#FFBC0D"/>
<mask id="path-10-outside-1_17_28620" maskUnits="userSpaceOnUse" x="88.8438" y="10.7051" width="160" height="193" fill="black">
<rect fill="white" x="88.8438" y="10.7051" width="160" height="193"/>
<path d="M241.869 62.5615C243.077 62.5786 244.068 63.5223 244.144 64.7275L245.46 85.6279C245.54 86.9019 244.573 87.9998 243.299 88.0801L243.227 88.083H241.58V144.062C241.58 161.023 239.974 194.945 239.974 194.945C239.973 198.113 237.006 200.679 233.349 200.68H143.805C140.148 200.68 137.179 198.113 137.179 194.945C137.179 194.945 135.573 159.26 135.573 141.418V88.084L134.023 88.085C132.747 88.0849 131.712 87.0491 131.712 85.7725L131.717 85.6279L133.033 64.7256C133.109 63.521 134.1 62.5775 135.307 62.5596L186.737 61.7949L241.869 62.5615ZM106.694 15.4033C106.713 14.8247 107.372 14.503 107.839 14.8447L120.534 24.1309C120.714 24.2626 120.946 24.3034 121.16 24.2412L136.266 19.8574C136.822 19.6961 137.331 20.2235 137.15 20.7734L132.242 35.7168C132.173 35.9287 132.205 36.1611 132.33 36.3457L141.168 49.3584C141.493 49.8372 141.148 50.4843 140.569 50.4824L124.841 50.4316C124.618 50.4309 124.406 50.5346 124.27 50.7109L114.626 63.1357C114.271 63.593 113.548 63.4662 113.371 62.915L108.559 47.9404C108.49 47.7279 108.327 47.5591 108.117 47.4834L93.3193 42.1514C92.7749 41.955 92.6732 41.2284 93.1426 40.8896L105.897 31.6855C106.078 31.5549 106.188 31.3471 106.195 31.124L106.694 15.4033Z"/>
</mask>
<path d="M241.869 62.5615L241.911 59.5618L241.911 59.5618L241.869 62.5615ZM244.144 64.7275L247.138 64.539V64.5388L244.144 64.7275ZM245.46 85.6279L248.454 85.4397L248.454 85.4393L245.46 85.6279ZM243.299 88.0801L243.42 91.0776L243.454 91.0763L243.487 91.0741L243.299 88.0801ZM243.227 88.083V91.083H243.287L243.348 91.0805L243.227 88.083ZM241.58 88.083V85.083H238.58V88.083H241.58ZM241.58 144.062H244.58H241.58ZM239.974 194.945L236.977 194.803L236.974 194.874V194.945L239.974 194.945ZM233.349 200.68V203.68H233.349L233.349 200.68ZM137.179 194.945L140.179 194.945L140.179 194.878L140.176 194.81L137.179 194.945ZM135.573 141.418H132.573H135.573ZM135.573 88.084H138.573V85.0821L135.571 85.084L135.573 88.084ZM134.023 88.085L134.023 91.085H134.025L134.023 88.085ZM131.712 85.7725L128.714 85.6712L128.712 85.7218V85.7725H131.712ZM131.717 85.6279L128.723 85.4394L128.72 85.483L128.719 85.5266L131.717 85.6279ZM133.033 64.7256L130.039 64.5369L130.039 64.537L133.033 64.7256ZM135.307 62.5596L135.262 59.5599H135.262L135.307 62.5596ZM186.737 61.7949L186.779 58.7952L186.736 58.7946L186.693 58.7953L186.737 61.7949ZM106.694 15.4033L109.693 15.4985L109.693 15.4984L106.694 15.4033ZM107.839 14.8447L109.61 12.4234L109.61 12.4233L107.839 14.8447ZM120.534 24.1309L118.763 26.5522L118.763 26.5524L120.534 24.1309ZM121.16 24.2412L120.324 21.3601L120.324 21.3601L121.16 24.2412ZM136.266 19.8574L137.102 22.7385L137.102 22.7385L136.266 19.8574ZM137.15 20.7734L134.3 19.8372L134.3 19.8373L137.15 20.7734ZM132.242 35.7168L135.092 36.653L135.092 36.653L132.242 35.7168ZM132.33 36.3457L129.847 38.0297L129.848 38.0312L132.33 36.3457ZM141.168 49.3584L143.651 47.6747L143.65 47.6729L141.168 49.3584ZM140.569 50.4824L140.56 53.4824H140.56L140.569 50.4824ZM124.841 50.4316L124.851 47.4317H124.85L124.841 50.4316ZM124.27 50.7109L126.639 52.5504L126.639 52.5503L124.27 50.7109ZM114.626 63.1357L112.256 61.2963L112.256 61.2963L114.626 63.1357ZM113.371 62.915L110.515 63.8329L110.515 63.8329L113.371 62.915ZM108.559 47.9404L111.415 47.0225L111.415 47.0225L108.559 47.9404ZM108.117 47.4834L109.134 44.661L109.134 44.661L108.117 47.4834ZM93.3193 42.1514L92.3015 44.9734L92.3024 44.9737L93.3193 42.1514ZM93.1426 40.8896L91.3871 38.4569L91.387 38.457L93.1426 40.8896ZM105.897 31.6855L107.653 34.1183L107.653 34.1181L105.897 31.6855ZM106.195 31.124L103.197 31.0288L103.197 31.0289L106.195 31.124ZM241.869 62.5615L241.827 65.5612C241.467 65.5561 241.172 65.2752 241.149 64.9162L244.144 64.7275L247.138 64.5388C246.963 61.7694 244.686 59.601 241.911 59.5618L241.869 62.5615ZM244.144 64.7275L241.149 64.9161L242.466 85.8165L245.46 85.6279L248.454 85.4393L247.138 64.539L244.144 64.7275ZM245.46 85.6279L242.466 85.8162C242.442 85.4378 242.73 85.11 243.11 85.086L243.299 88.0801L243.487 91.0741C246.416 90.8896 248.638 88.366 248.454 85.4397L245.46 85.6279ZM243.299 88.0801L243.177 85.0825L243.105 85.0855L243.227 88.083L243.348 91.0805L243.42 91.0776L243.299 88.0801ZM243.227 88.083V85.083H241.58V88.083V91.083H243.227V88.083ZM241.58 88.083H238.58V144.062H241.58H244.58V88.083H241.58ZM241.58 144.062H238.58C238.58 152.479 238.181 165.148 237.779 175.75C237.578 181.043 237.378 185.808 237.228 189.249C237.152 190.969 237.09 192.359 237.046 193.318C237.024 193.797 237.007 194.169 236.995 194.421C236.989 194.547 236.985 194.642 236.982 194.707C236.98 194.739 236.979 194.763 236.978 194.779C236.978 194.787 236.977 194.793 236.977 194.798C236.977 194.799 236.977 194.801 236.977 194.802C236.977 194.802 236.977 194.803 236.977 194.803C236.977 194.803 236.977 194.803 239.974 194.945C242.97 195.087 242.97 195.087 242.97 195.087C242.97 195.087 242.97 195.086 242.97 195.086C242.97 195.084 242.97 195.083 242.971 195.081C242.971 195.077 242.971 195.07 242.971 195.062C242.972 195.045 242.973 195.021 242.975 194.988C242.978 194.923 242.983 194.826 242.988 194.7C243 194.446 243.018 194.073 243.04 193.592C243.084 192.629 243.146 191.236 243.222 189.511C243.373 186.061 243.574 181.285 243.775 175.977C244.176 165.378 244.58 152.605 244.58 144.062H241.58ZM239.974 194.945L236.974 194.945C236.974 196.064 235.771 197.68 233.348 197.68L233.349 200.68L233.349 203.68C238.24 203.679 242.973 200.163 242.974 194.946L239.974 194.945ZM233.349 200.68V197.68H143.805V200.68V203.68H233.349V200.68ZM143.805 200.68V197.68C141.382 197.68 140.179 196.063 140.179 194.945L137.179 194.945L134.179 194.946C134.179 200.163 138.913 203.68 143.805 203.68V200.68ZM137.179 194.945C140.176 194.81 140.176 194.81 140.176 194.81C140.176 194.81 140.176 194.81 140.176 194.809C140.176 194.808 140.175 194.806 140.175 194.804C140.175 194.8 140.175 194.794 140.175 194.785C140.174 194.768 140.173 194.742 140.171 194.709C140.168 194.641 140.164 194.54 140.158 194.408C140.146 194.143 140.129 193.751 140.107 193.247C140.063 192.238 140 190.776 139.925 188.966C139.775 185.346 139.574 180.334 139.374 174.765C138.973 163.612 138.573 150.279 138.573 141.418H135.573H132.573C132.573 150.399 132.977 163.83 133.378 174.98C133.579 180.563 133.78 185.587 133.93 189.215C134.006 191.029 134.069 192.495 134.113 193.507C134.135 194.013 134.152 194.406 134.164 194.673C134.17 194.806 134.174 194.908 134.177 194.976C134.179 195.01 134.18 195.036 134.181 195.054C134.181 195.062 134.181 195.069 134.181 195.073C134.182 195.076 134.182 195.077 134.182 195.078C134.182 195.079 134.182 195.079 134.182 195.08C134.182 195.08 134.182 195.08 137.179 194.945ZM135.573 141.418H138.573V88.084H135.573H132.573V141.418H135.573ZM135.573 88.084L135.571 85.084L134.022 85.085L134.023 88.085L134.025 91.085L135.575 91.084L135.573 88.084ZM134.023 88.085L134.023 85.085C134.405 85.085 134.712 85.3938 134.712 85.7725H131.712H128.712C128.712 88.7043 131.088 91.0849 134.023 91.085L134.023 88.085ZM131.712 85.7725L134.71 85.8738L134.715 85.7292L131.717 85.6279L128.719 85.5266L128.714 85.6712L131.712 85.7725ZM131.717 85.6279L134.711 85.8165L136.027 64.9142L133.033 64.7256L130.039 64.537L128.723 85.4394L131.717 85.6279ZM133.033 64.7256L136.027 64.9142C136.005 65.2742 135.709 65.5539 135.351 65.5592L135.307 62.5596L135.262 59.5599C132.49 59.6011 130.214 61.7678 130.039 64.5369L133.033 64.7256ZM135.307 62.5596L135.351 65.5592L186.782 64.7946L186.737 61.7949L186.693 58.7953L135.262 59.5599L135.307 62.5596ZM186.737 61.7949L186.696 64.7946L241.827 65.5612L241.869 62.5615L241.911 59.5618L186.779 58.7952L186.737 61.7949ZM106.694 15.4033L109.693 15.4984C109.635 17.328 107.55 18.3501 106.068 17.2661L107.839 14.8447L109.61 12.4233C107.194 10.6558 103.791 12.3215 103.696 15.3082L106.694 15.4033ZM107.839 14.8447L106.068 17.2661L118.763 26.5522L120.534 24.1309L122.305 21.7095L109.61 12.4234L107.839 14.8447ZM120.534 24.1309L118.763 26.5524C119.694 27.2333 120.889 27.4438 121.996 27.1223L121.16 24.2412L120.324 21.3601C121.003 21.1631 121.734 21.292 122.305 21.7094L120.534 24.1309ZM121.16 24.2412L121.996 27.1223L137.102 22.7385L136.266 19.8574L135.429 16.9763L120.324 21.3601L121.16 24.2412ZM136.266 19.8574L137.102 22.7385C135.342 23.2492 133.728 21.58 134.3 19.8372L137.15 20.7734L140.001 21.7096C140.934 18.8669 138.301 16.143 135.429 16.9763L136.266 19.8574ZM137.15 20.7734L134.3 19.8373L129.392 34.7806L132.242 35.7168L135.092 36.653L140.001 21.7096L137.15 20.7734ZM132.242 35.7168L129.392 34.7806C129.033 35.8729 129.199 37.0733 129.847 38.0297L132.33 36.3457L134.813 34.6618C135.211 35.2489 135.312 35.9846 135.092 36.653L132.242 35.7168ZM132.33 36.3457L129.848 38.0312L138.686 51.0439L141.168 49.3584L143.65 47.6729L134.812 34.6602L132.33 36.3457ZM141.168 49.3584L138.685 51.0421C137.655 49.523 138.749 47.4766 140.579 47.4824L140.569 50.4824L140.56 53.4824C143.547 53.492 145.33 50.1514 143.651 47.6747L141.168 49.3584ZM140.569 50.4824L140.579 47.4824L124.851 47.4317L124.841 50.4316L124.831 53.4316L140.56 53.4824L140.569 50.4824ZM124.841 50.4316L124.85 47.4317C123.691 47.4279 122.603 47.9651 121.9 48.8715L124.27 50.7109L126.639 52.5503C126.21 53.104 125.544 53.4339 124.831 53.4316L124.841 50.4316ZM124.27 50.7109L121.9 48.8715L112.256 61.2963L114.626 63.1357L116.996 64.9752L126.639 52.5504L124.27 50.7109ZM114.626 63.1357L112.256 61.2963C113.377 59.8518 115.665 60.2472 116.227 61.9971L113.371 62.915L110.515 63.8329C111.432 66.6851 115.165 67.3342 116.996 64.9751L114.626 63.1357ZM113.371 62.915L116.227 61.9971L111.415 47.0225L108.559 47.9404L105.702 48.8583L110.515 63.8329L113.371 62.915ZM108.559 47.9404L111.415 47.0225C111.062 45.924 110.219 45.0519 109.134 44.661L108.117 47.4834L107.1 50.3057C106.435 50.0662 105.919 49.5318 105.702 48.8583L108.559 47.9404ZM108.117 47.4834L109.134 44.661L94.3363 39.329L93.3193 42.1514L92.3024 44.9737L107.1 50.3058L108.117 47.4834ZM93.3193 42.1514L94.3371 39.3293C96.0643 39.9522 96.382 42.2515 94.8981 43.3223L93.1426 40.8896L91.387 38.457C88.9644 40.2052 89.4855 43.9578 92.3015 44.9734L93.3193 42.1514ZM93.1426 40.8896L94.8981 43.3224L107.653 34.1183L105.897 31.6855L104.142 29.2528L91.3871 38.4569L93.1426 40.8896ZM105.897 31.6855L107.653 34.1181C108.593 33.4395 109.157 32.3657 109.194 31.2191L106.195 31.124L103.197 31.0289C103.219 30.3286 103.563 29.6704 104.142 29.253L105.897 31.6855ZM106.195 31.124L109.194 31.2192L109.693 15.4985L106.694 15.4033L103.696 15.3081L103.197 31.0288L106.195 31.124Z" fill="white" mask="url(#path-10-outside-1_17_28620)"/>
</svg>
