<svg width="27" height="18" viewBox="0 0 27 18" fill="none" xmlns="http://www.w3.org/2000/svg">
<g clip-path="url(#clip0_109_43708)">
<path d="M0 0H27V17.9996H0V0Z" fill="#D80027"/>
<path d="M10.3697 0V17.9996H0V0H10.3697Z" fill="#6DA544"/>
<path d="M10.3711 12.375C12.2351 12.375 13.7461 10.864 13.7461 9C13.7461 7.13604 12.2351 5.625 10.3711 5.625C8.50713 5.625 6.99609 7.13604 6.99609 9C6.99609 10.864 8.50713 12.375 10.3711 12.375Z" fill="#FFDA44"/>
<path d="M8.47266 7.3125V9.42193C8.47266 10.4704 9.32263 11.3204 10.3711 11.3204C11.4196 11.3204 12.2695 10.4704 12.2695 9.42193V7.3125H8.47266Z" fill="#D80027"/>
<path d="M10.3711 10.0547C10.0222 10.0547 9.73828 9.77082 9.73828 9.42188V8.57812H11.004V9.42188C11.0039 9.77077 10.72 10.0547 10.3711 10.0547Z" fill="white"/>
</g>
<rect x="0.5" y="0.5" width="26" height="17" rx="0.5" stroke="black" stroke-opacity="0.2"/>
<defs>
<clipPath id="clip0_109_43708">
<rect width="27" height="18" rx="1" fill="white"/>
</clipPath>
</defs>
</svg>
