<svg width="27" height="18" viewBox="0 0 27 18" fill="none" xmlns="http://www.w3.org/2000/svg">
<g clip-path="url(#clip0_109_43918)">
<path d="M0 0H27V18.0005H0V0Z" fill="#0052B4"/>
<path d="M11.6404 2.24926L12.0596 3.09881L12.9967 3.23486L12.3185 3.89615L12.4788 4.82955L11.6404 4.38869L10.8019 4.82955L10.9617 3.89615L10.2835 3.23486L11.2211 3.09881L11.6404 2.24926ZM15.3613 2.24609L15.7806 3.09512L16.7182 3.2317L16.04 3.89246L16.1998 4.82639L15.3613 4.38553L14.5228 4.82639L14.6831 3.89246L14.005 3.2317L14.9421 3.09512L15.3613 2.24609ZM18.6351 2.84516L19.0543 3.69471L19.9914 3.83076L19.3132 4.49205L19.4735 5.42545L18.6351 4.98512L17.7966 5.42545L17.9569 4.49205L17.2782 3.83076L18.2158 3.69471L18.6351 2.84516ZM21.9579 3.8102L22.3771 4.65975L23.3142 4.79633L22.636 5.45709L22.7963 6.39102L21.9579 5.95016L21.1194 6.39102L21.2792 5.45709L20.601 4.79633L21.5386 4.65975L21.9579 3.8102ZM8.36662 2.84516L8.78586 3.69471L9.72348 3.83076L9.04479 4.49205L9.2051 5.42545L8.36662 4.98512L7.52815 5.42545L7.68846 4.49205L7.01029 3.83076L7.94738 3.69471L8.36662 2.84516ZM5.04383 3.8102L5.46307 4.65975L6.40068 4.79633L5.72252 5.45709L5.8823 6.39102L5.04383 5.95016L4.20535 6.39102L4.36566 5.45709L3.6875 4.79633L4.62459 4.65975L5.04383 3.8102Z" fill="white"/>
<path d="M11.4724 13.6767L10.037 12.959L8.60156 10.0886H10.037L11.4724 8.65317L12.1901 7.21772L13.6256 6.5L14.3433 7.21772L15.7787 7.93544V8.65317L16.4964 9.37089L18.6496 10.8063L17.9308 12.9595L15.7777 15.1127L15.0599 13.6772L12.9068 15.1127V16.5481L12.1891 15.8304L11.4724 13.6767Z" fill="#FFDA44"/>
</g>
<rect x="0.5" y="0.5" width="26" height="17" rx="0.5" stroke="black" stroke-opacity="0.2"/>
<defs>
<clipPath id="clip0_109_43918">
<rect width="27" height="18" rx="1" fill="white"/>
</clipPath>
</defs>
</svg>
