<svg width="375" height="225" viewBox="0 0 375 225" fill="none" xmlns="http://www.w3.org/2000/svg">
<path d="M284.737 195.729C284.737 201.033 241.202 205.332 187.499 205.332C133.797 205.332 90.2617 201.033 90.2617 195.729C90.2617 190.425 133.797 186.125 187.499 186.125C241.202 186.125 284.737 190.425 284.737 195.729Z" fill="#A0A09F" fill-opacity="0.15"/>
<path fill-rule="evenodd" clip-rule="evenodd" d="M139.879 44.4688V95.5362C139.879 96.9469 140.999 98.0896 142.38 98.0896H177.393C178.774 98.0896 179.894 96.9469 179.894 95.5362V44.4688L175.893 47.0004L171.891 44.4688L167.89 47.0004L163.888 44.4688L159.887 47.0004L155.885 44.4688L151.884 47.0004L147.882 44.4688L143.88 47.0004L139.879 44.4688Z" fill="#A0A09F"/>
<path fill-rule="evenodd" clip-rule="evenodd" d="M179.894 87.6855L179.895 95.5362C179.895 96.947 178.775 98.0896 177.394 98.0896H142.38C141 98.0896 139.879 96.947 139.879 95.5362L139.879 87.6855H179.894Z" fill="#606060"/>
<path fill-rule="evenodd" clip-rule="evenodd" d="M174.848 59.0625C176.66 59.0625 178.373 60.3399 179.895 62.6137L179.895 74.186C178.735 66.4957 176.906 61.5327 174.848 61.5327C171.346 61.5327 168.503 74.8112 168.503 91.1889H163.427C163.427 74.8112 160.587 61.5327 157.081 61.5327C153.579 61.5327 150.737 75.9194 150.737 93.6591H145.66C145.66 74.5511 150.776 59.0625 157.081 59.0625C160.67 59.0625 163.871 63.7184 165.966 70.997C168.059 63.7184 171.262 59.0625 174.848 59.0625Z" fill="#D8D8D8"/>
<path d="M213.296 150.358L163.492 150.359V143.136L217.683 143.135C215.97 145.362 214.495 147.783 213.296 150.358Z" fill="#606060"/>
<path d="M166.577 108.225V134.709C166.577 141.059 167.396 146.286 169.033 150.389C169.184 150.369 169.338 150.359 169.493 150.359L213.296 150.358C211.725 153.732 210.627 157.372 210.089 161.193L165.062 161.193C162.96 141.913 146.667 126.909 126.877 126.909C113.716 126.909 102.102 133.544 95.1797 143.66C96.6995 123.836 113.266 108.225 133.479 108.225H166.577Z" fill="#D8D8D8"/>
<path d="M229.015 68.4011C238.767 80.3779 247.013 91.531 253.754 101.861C259.404 110.518 264.375 119.175 268.665 127.833C269.388 129.292 269.031 131.004 267.9 132.062L267.9 133.604C262.123 130.119 255.356 128.114 248.122 128.114C237.248 128.114 227.43 132.644 220.441 139.924L225.391 121.453L217.585 72.6049C217.293 70.7828 218.426 69.0354 220.209 68.5579C220.209 68.5579 223.102 67.7827 224.548 67.3951C224.795 67.3289 225.513 67.6784 225.513 67.6784C226.399 67.4411 227.098 67.0721 227.882 67.4787C228.311 67.7013 228.698 68.0119 229.015 68.4011Z" fill="#D8D8D8"/>
<path d="M121.476 110.626V111.884C121.476 117.188 117.176 121.488 111.872 121.488L104.445 121.487C108.939 116.304 114.798 112.336 121.463 110.143C121.472 110.303 121.476 110.464 121.476 110.626Z" fill="#606060"/>
<path d="M201.916 67.2949H230.707C232.702 67.2949 234.319 68.9118 234.319 70.9064C234.319 72.901 232.702 74.5179 230.707 74.5179H201.916C199.922 74.5179 198.305 72.901 198.305 70.9064C198.305 68.9118 199.922 67.2949 201.916 67.2949Z" fill="#606060"/>
<path d="M133.797 96.1875H180.678C184.169 96.1875 186.998 99.0171 186.998 102.508C186.998 105.998 184.169 108.828 180.678 108.828H133.797C130.306 108.828 127.477 105.998 127.477 102.508C127.477 99.0171 130.306 96.1875 133.797 96.1875Z" fill="#606060"/>
<path d="M158.29 164.916C158.29 182.817 143.778 197.329 125.877 197.329C107.976 197.329 93.4648 182.817 93.4648 164.916C93.4648 147.016 107.976 132.504 125.877 132.504C143.778 132.504 158.29 147.016 158.29 164.916Z" fill="#606060"/>
<path d="M139.082 164.515C139.082 172.029 132.99 178.121 125.476 178.121C117.962 178.121 111.871 172.029 111.871 164.515C111.871 157.001 117.962 150.91 125.476 150.91C132.99 150.91 139.082 157.001 139.082 164.515Z" fill="#F1F1F1"/>
<path d="M134.7 154.111C137.394 156.64 139.082 160.261 139.082 164.283C139.082 171.925 132.99 178.121 125.474 178.121C121.52 178.121 117.959 176.405 115.473 173.666C117.404 174.652 119.585 175.207 121.893 175.207C129.804 175.207 136.217 168.686 136.217 160.641C136.217 158.317 135.682 156.121 134.73 154.171L134.7 154.111Z" fill="white"/>
<path opacity="0.1" d="M110.27 165.316H147.084V169.318H110.27V165.316Z" fill="#606060"/>
<path d="M126.876 130.512C146.102 130.512 161.69 146.276 161.69 165.725H92.0625C92.0625 146.276 107.65 130.512 126.876 130.512Z" fill="#D8D8D8"/>
<path d="M279.935 164.916C279.935 182.817 265.423 197.329 247.522 197.329C229.621 197.329 215.109 182.817 215.109 164.916C215.109 147.016 229.621 132.504 247.522 132.504C265.423 132.504 279.935 147.016 279.935 164.916Z" fill="#606060"/>
<path d="M260.726 164.515C260.726 172.029 254.635 178.121 247.121 178.121C239.607 178.121 233.516 172.029 233.516 164.515C233.516 157.001 239.607 150.91 247.121 150.91C254.635 150.91 260.726 157.001 260.726 164.515Z" fill="#F1F1F1"/>
<path d="M257.073 154.111C259.813 156.64 261.529 160.261 261.529 164.283C261.529 171.925 255.333 178.121 247.691 178.121C243.669 178.121 240.048 176.405 237.52 173.666C239.484 174.652 241.702 175.207 244.049 175.207C252.094 175.207 258.616 168.686 258.616 160.641C258.616 158.317 258.071 156.121 257.103 154.171L257.073 154.111Z" fill="white"/>
<path opacity="0.1" d="M231.117 165.316H267.931V169.318H231.117V165.316Z" fill="#606060"/>
<path d="M248.325 131.703C267.16 131.703 282.506 146.644 283.139 165.316H213.512C214.145 146.644 229.49 131.703 248.325 131.703Z" fill="#D8D8D8"/>
</svg>
