<svg width="27" height="18" viewBox="0 0 27 18" fill="none" xmlns="http://www.w3.org/2000/svg">
<g clip-path="url(#clip0_109_43795)">
<path d="M0 0H27V18.0002H0V0Z" fill="white"/>
<path d="M15.1875 0H11.8125V7.31246H0V10.6875H11.8125V17.9999H15.1875V10.6875H27V7.31246H15.1875V0Z" fill="#D80027"/>
<path d="M20.7648 12.1289L26.9988 15.5923V12.1289H20.7648ZM16.4336 12.1289L26.9988 17.9985V16.3387L19.4213 12.1289H16.4336ZM24.1846 17.9985L16.4336 13.692V17.9985H24.1846Z" fill="#0052B4"/>
<path d="M16.4336 12.1289L26.9988 17.9985V16.3387L19.4213 12.1289H16.4336Z" fill="white"/>
<path d="M16.4336 12.1289L26.9988 17.9985V16.3387L19.4213 12.1289H16.4336Z" fill="#D80027"/>
<path d="M4.76408 12.1289L0 14.7756V12.1289H4.76408ZM10.5652 12.8753V17.9985H1.34425L10.5652 12.8753Z" fill="#0052B4"/>
<path d="M7.57756 12.1289L0 16.3387V17.9985L10.5652 12.1289H7.57756Z" fill="#D80027"/>
<path d="M6.23399 5.86955L0 2.40616V5.86955H6.23399ZM10.5652 5.86955L0 0V1.65976L7.57756 5.86955H10.5652ZM2.81422 0L10.5652 4.3065V0H2.81422Z" fill="#0052B4"/>
<path d="M10.5652 5.86955L0 0V1.65976L7.57756 5.86955H10.5652Z" fill="white"/>
<path d="M10.5652 5.86955L0 0V1.65976L7.57756 5.86955H10.5652Z" fill="#D80027"/>
<path d="M22.2347 5.8696L26.9988 3.22286V5.8696H22.2347ZM16.4336 5.12319V0H25.6546L16.4336 5.12319Z" fill="#0052B4"/>
<path d="M19.4213 5.86954L26.9988 1.65976V0L16.4336 5.86954H19.4213Z" fill="#D80027"/>
</g>
<rect x="0.5" y="0.5" width="26" height="17" rx="0.5" stroke="black" stroke-opacity="0.2"/>
<defs>
<clipPath id="clip0_109_43795">
<rect width="27" height="18" rx="1" fill="white"/>
</clipPath>
</defs>
</svg>
