<svg width="136" height="136" viewBox="0 0 136 136" fill="none" xmlns="http://www.w3.org/2000/svg">
<path d="M55.3585 111.773C55.3585 114.501 44.0853 116.713 30.1792 116.713C16.2731 116.713 5 114.501 5 111.773C5 109.045 16.2731 106.834 30.1792 106.834C44.0853 106.834 55.3585 109.045 55.3585 111.773Z" fill="#A0A09F" fill-opacity="0.15"/>
<path d="M26.6954 41.8609L26.1012 41.8841C23.8257 41.9797 21.5502 42.1553 19.275 42.4109L19.1663 42.4249C17.7954 42.6237 16.6635 43.6405 16.2644 45.0198L16.2444 45.0909L11.5081 45.0913C9.96955 45.0913 8.65648 46.2551 8.40354 47.8429L7.78107 51.7505L7.76923 51.8355C7.66119 52.7401 8.13432 53.5819 8.8817 53.9509L8.91884 53.9683L8.93892 54.2836C9.15771 58.2288 9.40002 62.1874 9.66481 66.1419L9.82623 68.5119C10.1549 73.2576 10.5158 77.9953 10.9091 82.7271C11.6956 92.1907 12.6155 101.677 13.6688 111.187C13.7745 112.142 14.4979 112.893 15.4114 112.997C20.3337 113.554 25.2566 113.832 30.1796 113.832L31.0421 113.829C35.6817 113.798 40.3149 113.521 44.9477 112.997C45.8611 112.893 46.5844 112.143 46.6903 111.188C47.7397 101.724 48.6596 92.2373 49.45 82.7271L49.6448 80.35C50.349 71.6358 50.9412 62.9411 51.4212 54.266L51.4414 53.9675L51.4741 53.9526C52.2466 53.573 52.7275 52.6886 52.578 51.7505L51.9556 47.8429L51.9371 47.7377C51.6442 46.204 50.3554 45.0913 48.851 45.0913L44.1143 45.0909L44.0947 45.0198C43.6851 43.6042 42.5037 42.5704 41.0841 42.4109L40.2972 42.3257C38.461 42.1343 36.6247 41.995 34.7884 41.9078L34.6359 41.9009L38.6201 12.2438C38.7713 11.1182 38.0218 10.0775 36.9459 9.91932L33.0499 9.34646C31.9741 9.18827 30.9794 9.97249 30.8282 11.0981L26.6954 41.8609Z" fill="white"/>
<path d="M32.7774 11.3848L36.6734 11.9576L32.385 43.8822C35.2151 43.9478 38.0452 44.1395 40.8753 44.4575C41.5385 44.532 42.0848 45.036 42.2386 45.7151L42.377 46.3264L42.508 47.1496L48.8522 47.1497C49.4292 47.1497 49.9216 47.5861 50.0164 48.1815L50.6389 52.0891L49.5936 52.1706L49.4586 54.1472C48.936 63.5912 48.2803 73.0585 47.4915 82.549C46.7027 92.0396 45.7847 101.507 44.7375 110.951C40.1707 111.467 35.6039 111.741 31.0371 111.771L30.1808 111.774C25.3285 111.774 20.4763 111.5 15.624 110.951C14.573 101.46 13.655 91.993 12.8701 82.549C12.4776 77.8271 12.1174 73.0992 11.7896 68.3656L11.6284 65.9983C11.3641 62.052 11.1223 58.1016 10.9029 54.1472L10.7773 52.1718L9.72266 52.0891L10.3451 48.1815C10.44 47.5861 10.9324 47.1497 11.5094 47.1497L17.8272 47.1496L17.9846 46.3264L18.123 45.7151C18.2767 45.036 18.823 44.532 19.4863 44.4575C22.4618 44.1232 25.4374 43.9284 28.4129 43.8731L32.7774 11.3848Z" fill="white"/>
<path fill-rule="evenodd" clip-rule="evenodd" d="M10.9023 54.1465C17.3283 54.6953 23.7542 54.9697 30.1802 54.9697C36.6061 54.9697 43.0321 54.6953 49.458 54.1465C48.9354 63.5905 48.2797 73.0577 47.4909 82.5483C46.7021 92.0389 45.7841 101.506 44.7369 110.95C39.8847 111.499 35.0324 111.773 30.1802 111.773C25.3279 111.773 20.4757 111.499 15.6234 110.95C14.5724 101.46 13.6544 91.9923 12.8695 82.5483C12.0846 73.1043 11.4288 63.6371 10.9023 54.1465Z" fill="white"/>
<path fill-rule="evenodd" clip-rule="evenodd" d="M19.2158 79.8435C17.3734 73.056 14.7165 68.3084 11.6877 66.9174C11.6864 66.9077 11.6864 66.9077 11.9731 70.9843C14.6257 75.4011 16.5359 87.8098 16.5359 102.426H21.8964C21.8964 84.11 24.8961 69.2603 28.5967 69.2603C32.2973 69.2603 35.2978 85.3463 35.2978 105.188H40.6567C40.6567 83.8198 35.2578 66.4961 28.5967 66.4961C24.8078 66.4961 21.4278 71.7025 19.2158 79.8435Z" fill="#FFBC0D"/>
<path fill-rule="evenodd" clip-rule="evenodd" d="M49.4575 54.1465C49.4575 54.1465 48.6736 68.3124 47.4904 82.5483C46.3072 96.7841 44.7364 110.95 44.7364 110.95C44.7364 110.95 37.4581 111.773 30.1797 111.773C35.9169 111.773 38.8019 92.7838 38.8348 54.8047C44.7364 54.5581 49.4575 54.1465 49.4575 54.1465Z" fill="#EAEAEA"/>
<path d="M32.7773 11.3848L36.6733 11.9576L32.1668 45.506L28.1946 45.5004L32.7773 11.3848Z" fill="#F1F1F1"/>
<path d="M34.7266 11.6719L35.8954 11.8437L31.3736 45.5055L30.182 45.5039L34.7266 11.6719Z" fill="#EAEAEA"/>
<path fill-rule="evenodd" clip-rule="evenodd" d="M11.5094 47.1504H48.8522C49.4292 47.1504 49.9216 47.5868 50.0164 48.1822L50.6389 52.0898C43.8195 52.6387 37.0002 52.9131 30.1808 52.9131C23.3614 52.9131 16.542 52.6387 9.72266 52.0898L10.3451 48.1822C10.44 47.5868 10.9324 47.1504 11.5094 47.1504Z" fill="#EAEAEA"/>
<path fill-rule="evenodd" clip-rule="evenodd" d="M19.4861 44.4582C23.0509 44.0577 26.6157 43.8574 30.1806 43.8574C33.7454 43.8574 37.3102 44.0577 40.8751 44.4582C41.5383 44.5327 42.0846 45.0367 42.2384 45.7158L42.3768 46.3271H17.9844L18.1228 45.7158C18.2765 45.0367 18.8228 44.5327 19.4861 44.4582Z" fill="#EAEAEA"/>
<path d="M130.228 109.327C130.228 112.206 120.746 114.54 109.049 114.54C97.353 114.54 87.8711 112.206 87.8711 109.327C87.8711 106.447 97.353 104.113 109.049 104.113C120.746 104.113 130.228 106.447 130.228 109.327Z" fill="#A0A09F" fill-opacity="0.15"/>
<path d="M100.355 42.1387C98.3194 42.1387 96.1049 44.1084 95.4338 44.8871C94.9864 45.391 94.3824 46.2156 94.4719 47.2462C94.5614 48.254 94.6509 49.1473 94.718 49.9489C93.7785 50.1779 92.7942 50.6589 91.9666 51.2086C91.9666 51.1857 91.9442 51.1399 91.9442 51.117C91.6534 49.7886 90.4007 49.3534 89.2599 49.0327C88.6783 48.8724 87.5151 48.5976 86.2848 48.5976C85.7032 48.5976 85.1663 48.6663 84.6742 48.7808C83.6228 49.0785 82.9741 50.1779 83.2425 51.2544C83.3768 51.827 83.511 52.4225 83.6676 52.9951C81.3635 54.1632 79.6187 57.3697 79.5963 57.3926C79.4174 57.7133 79.0147 58.492 79.3055 59.4082C79.9542 61.4695 80.6477 63.1186 81.3635 64.8822C81.4083 64.9967 81.453 65.1112 81.4977 65.2258L80.8043 66.0274C80.4016 66.4855 80.245 67.0809 80.3122 67.6994C80.8938 71.822 84.0255 93.0768 88.2756 107.896C88.3875 108.285 88.6112 108.629 88.9243 108.903L91.6534 111.217C92.0113 111.537 92.4811 111.698 92.9284 111.698C93.1521 111.698 93.3982 111.652 93.6219 111.583C97.1786 110.255 99.93 109.384 105.433 109.384C110.936 109.384 113.687 110.255 117.244 111.583C117.468 111.675 117.691 111.698 117.937 111.698C118.407 111.698 118.854 111.537 119.212 111.217L121.941 108.903C122.255 108.651 122.478 108.285 122.59 107.896C126.84 93.0768 129.972 71.7991 130.554 67.6994C130.643 67.1268 130.486 66.5542 130.129 66.0961L129.413 65.1799C129.48 64.9967 129.525 64.7906 129.592 64.6073C130.777 60.8969 131.896 57.3926 132.835 53.3616C133.081 52.308 132.477 51.2315 131.471 50.9109C130.8 50.7047 130.039 50.5902 129.189 50.5902C127.914 50.5902 124.872 50.8192 124.357 52.9493C124.335 53.018 124.313 53.0867 124.313 53.1554C123.977 53.0409 123.619 52.9493 123.216 52.8806C123.284 52.4912 123.351 52.0789 123.418 51.6667C123.597 50.5673 122.903 49.5366 121.83 49.3076C121.248 49.1931 120.644 49.1243 120.04 49.1243C119.101 49.1243 118.228 49.2618 117.49 49.5366C117.445 48.8724 117.378 48.1624 117.333 47.4066C117.244 46.3301 116.371 45.5055 115.32 45.5055C115.275 45.5055 115.208 45.5055 115.164 45.5055C112.502 45.7117 109.526 47.063 108.833 49.5824C108.766 49.8115 108.744 50.0405 108.766 50.2924L108.788 50.636C108.788 50.6589 108.788 50.6589 108.788 50.6818C108.632 50.7276 108.475 50.7734 108.341 50.8192C108.408 50.2008 108.475 49.5366 108.565 48.8495C108.699 47.6356 107.961 46.5133 106.283 45.4139C105.724 45.0475 104.27 44.1771 102.749 43.971C102.704 43.971 102.637 43.9481 102.592 43.9481C102.48 43.0319 101.809 42.3219 100.937 42.1616C100.713 42.1616 100.534 42.1387 100.355 42.1387Z" fill="white"/>
<path d="M92.9514 109.682C96.8213 108.239 99.7293 107.369 105.433 107.369C111.138 107.369 114.046 108.239 117.916 109.682L120.645 107.369C124.828 92.7331 127.937 71.8219 128.541 67.4473H122.971C121.964 70.1728 117.267 80.8689 105.411 80.8689C93.5554 80.8689 88.8578 70.1728 87.8512 67.4473H82.2812C82.9076 71.8219 85.9946 92.7331 90.1776 107.369L92.9514 109.682Z" fill="#DB0007"/>
<path d="M83.8465 65.6605H88.3204C88.6335 65.6605 88.902 65.8666 88.9914 66.1415C89.4165 67.4699 93.5548 79.0592 105.388 79.0592C117.199 79.0592 121.337 67.4699 121.785 66.1415C121.874 65.8437 122.143 65.6605 122.456 65.6605H127.176C128.54 61.3088 129.838 57.4609 130.912 52.9259C129.256 52.4221 126.482 52.8801 126.326 53.5214C126.057 54.6208 125.878 55.1934 125.588 56.2928C124.827 55.4454 123.463 55.0102 121.964 54.8499C121.539 58.7206 121.136 60.1636 120.152 64.103C120.353 59.2016 120.622 56.476 121.472 51.3914C119.772 51.0478 117.535 51.3227 116.864 52.5824C116.416 55.4912 116.17 57.0944 115.991 59.6139C115.812 55.0331 115.745 52.3991 115.342 47.6352C113.173 47.8184 111.159 48.8262 110.802 50.2004C110.846 50.8188 110.913 51.8953 110.958 52.5137C109.459 52.4908 107.849 53.1321 107.267 53.6131C106.596 57.0028 106.596 59.0184 105.679 62.4997C105.679 62.4997 105.299 59.82 106.574 48.6429C106.641 47.9787 104.225 46.2838 102.48 46.0319C102.1 49.2842 101.742 52.5366 101.451 55.7889C101.272 51.964 100.981 48.0932 100.579 44.2225C99.2589 43.9934 96.4404 46.3754 96.5075 47.0397C97.2457 54.7124 97.2681 55.9263 97.2905 61.0568C96.6194 56.4073 96.3509 54.6895 95.7246 51.8724C94.0022 52.0098 91.5415 53.8879 91.6758 54.5292C92.2797 57.667 92.4139 59.0413 92.5929 63.164C91.7205 58.1938 91.1165 56.6135 89.9981 51.5746C89.931 51.2769 86.8887 50.3378 85.211 50.7959C86.1505 54.7354 87.1795 58.6748 87.6045 62.5685C86.6427 60.0261 85.7479 57.4151 84.9426 54.7353C83.2649 55.2163 81.1398 58.5145 81.2293 58.8122C82.0346 61.3546 82.8846 63.2327 83.8465 65.6605Z" fill="#FFBC0D"/>
<path d="M109.391 85.2207C107.78 85.2207 106.349 87.4195 105.409 90.8321C104.469 87.3966 103.038 85.2207 101.427 85.2207C98.6087 85.2207 96.3047 92.5042 96.3047 101.505H98.5864C98.5864 93.1455 99.8614 86.3888 101.427 86.3888C102.993 86.3888 104.268 92.6416 104.268 100.36H106.55C106.55 92.6416 107.825 86.3888 109.391 86.3888C110.957 86.3888 112.232 93.1684 112.232 101.505H114.513C114.491 92.5271 112.209 85.2207 109.391 85.2207Z" fill="#FFBC0D"/>
<path d="M95.3753 122.184C95.3753 124.835 80.0908 126.983 61.2365 126.983C42.3821 126.983 27.0977 124.835 27.0977 122.184C27.0977 119.533 42.3821 117.385 61.2365 117.385C80.0908 117.385 95.3753 119.533 95.3753 122.184Z" fill="#A0A09F" fill-opacity="0.15"/>
<path fill-rule="evenodd" clip-rule="evenodd" d="M29.5611 97.2095C29.5123 97.4123 29.5396 97.6206 29.6286 97.7972L29.6286 97.7977L29.3562 100.726C29.0246 101.365 28.8364 102.099 28.8364 102.877V104.525C28.8364 104.565 28.8369 104.604 28.8379 104.643C28.8284 104.807 28.8655 104.972 28.9479 105.117H28.948L29.3562 100.726C29.4264 100.591 29.5031 100.46 29.5857 100.334L29.4276 109.687H28.5856C28.1435 109.687 27.7852 110.059 27.7852 110.519V113.36L27.7852 113.368L27.7863 113.491L27.7864 113.499C27.8529 117.243 30.6025 120.357 34.202 120.736C42.4453 121.602 50.3976 122.102 58.0579 122.237C58.2517 122.28 58.4539 122.286 58.6585 122.246C59.8545 122.264 61.0434 122.273 62.225 122.273C70.8896 122.273 79.3243 121.791 87.5292 120.826C91.136 120.401 93.8614 117.231 93.8614 113.459L93.8618 111.045C93.913 110.986 93.9606 110.92 94.0037 110.846C94.1646 110.57 94.2119 110.265 94.2119 109.983C94.2119 109.555 94.0847 109.152 93.798 108.837C93.709 108.739 93.612 108.658 93.5114 108.591V107.448C94.372 106.827 94.9127 105.842 94.9127 104.525V102.877C94.9127 101.908 94.6208 101.008 94.1236 100.274C94.2045 100.172 94.276 100.062 94.3363 99.945H94.3566C95.0248 99.945 95.4982 99.3653 95.4982 98.7405V97.4753C95.4982 97.0381 95.2704 96.6143 94.8741 96.4016L94.8717 96.4002L94.0377 95.9491C93.9298 95.8544 93.7998 95.7907 93.6607 95.7652C93.6603 95.7648 93.66 95.7648 93.6593 95.7645L93.2524 95.3417C93.4497 95.0141 93.6053 94.6602 93.7227 94.3125C93.9266 93.7099 94.0367 93.0658 94.0367 92.496C94.0367 85.9715 90.4698 80.8597 84.7189 77.4208C78.9883 73.994 71.0406 72.1855 62.0498 72.1855C53.0527 72.1855 44.7192 74.0876 38.6045 77.5956C32.4873 81.1054 28.486 86.2988 28.486 92.8601C28.486 93.5322 28.652 94.2513 28.9533 94.8826C29.1628 95.3221 29.4535 95.7503 29.8304 96.0903L29.5611 97.2095ZM29.6002 99.4766C29.6512 99.6624 29.7316 99.835 29.8359 99.989C29.7474 100.1 29.6638 100.215 29.5857 100.334L29.6002 99.4766ZM29.6002 99.4766C29.5694 99.3646 29.5494 99.2479 29.5413 99.1276C29.5406 99.1178 29.5401 99.1083 29.5398 99.0985L29.5377 99.0366C29.5374 99.0267 29.5372 99.0169 29.5372 99.0074C29.5372 98.8226 29.5652 98.6448 29.6171 98.4781L29.6002 99.4766ZM29.6171 98.4781L29.6286 97.7977L29.6286 97.7972C29.6663 97.9108 29.7151 98.0193 29.7735 98.1213C29.709 98.2326 29.6562 98.3522 29.6171 98.4781Z" fill="white"/>
<path d="M29.6286 97.7972L30.7468 97.8161C30.7499 97.635 30.7089 97.4558 30.6273 97.294L29.6286 97.7972ZM29.5611 97.2095L28.4738 96.9479L28.4737 96.948L29.5611 97.2095ZM28.8379 104.643L29.9544 104.708C29.9561 104.677 29.9567 104.646 29.9559 104.616L28.8379 104.643ZM28.9479 105.117L27.9754 105.669C28.1741 106.019 28.5455 106.235 28.9479 106.235V105.117ZM28.948 105.117V106.235C29.5256 106.235 30.0081 105.795 30.0616 105.22L28.948 105.117ZM29.4276 109.687V110.805C30.0379 110.805 30.5355 110.316 30.5459 109.706L29.4276 109.687ZM27.7852 113.36H26.6668L26.6668 113.365L27.7852 113.36ZM27.7852 113.368L26.6668 113.373L26.6669 113.377L27.7852 113.368ZM27.7863 113.491L26.6679 113.501L26.668 113.506L27.7863 113.491ZM27.7864 113.499L26.6681 113.514L26.6682 113.518L27.7864 113.499ZM34.202 120.736L34.3189 119.623H34.3189L34.202 120.736ZM58.0579 122.237L58.3 121.145C58.2269 121.129 58.1524 121.12 58.0776 121.119L58.0579 122.237ZM58.6585 122.246L58.6755 121.128C58.5978 121.126 58.5201 121.133 58.4437 121.148L58.6585 122.246ZM87.5292 120.826L87.3986 119.715L87.3985 119.715L87.5292 120.826ZM93.8614 113.459L92.7431 113.459V113.459H93.8614ZM93.8618 111.045L93.017 110.312C92.8406 110.516 92.7435 110.776 92.7434 111.045L93.8618 111.045ZM94.0037 110.846L94.9698 111.409L94.9703 111.408L94.0037 110.846ZM93.798 108.837L94.6251 108.084L94.6243 108.083L93.798 108.837ZM93.5114 108.591H92.393C92.393 108.965 92.58 109.314 92.8914 109.522L93.5114 108.591ZM93.5114 107.448L92.8574 106.541C92.5658 106.751 92.393 107.088 92.393 107.448H93.5114ZM94.1236 100.274L93.2477 99.5786C92.9438 99.9613 92.9236 100.497 93.1978 100.902L94.1236 100.274ZM94.3363 99.945V98.8266C93.9177 98.8266 93.5341 99.0603 93.3423 99.4324L94.3363 99.945ZM94.8741 96.4016L94.3041 97.3638C94.3177 97.3719 94.3315 97.3797 94.3454 97.3871L94.8741 96.4016ZM94.8717 96.4002L95.4417 95.4379C95.4292 95.4305 95.4165 95.4234 95.4038 95.4165L94.8717 96.4002ZM94.0377 95.9491L93.3002 96.7898C93.3631 96.845 93.432 96.8929 93.5056 96.9327L94.0377 95.9491ZM93.6607 95.7652L92.8552 96.5411C93.0176 96.7097 93.2289 96.8231 93.4591 96.8653L93.6607 95.7652ZM93.6593 95.7645L92.8534 96.54C92.9384 96.6283 93.0373 96.702 93.1462 96.7582L93.6593 95.7645ZM93.2524 95.3417L92.2943 94.7649C92.0334 95.1983 92.0958 95.7528 92.4466 96.1173L93.2524 95.3417ZM93.7227 94.3125L92.6633 93.9539L92.6631 93.9547L93.7227 94.3125ZM84.7189 77.4208L84.1449 78.3807L84.1449 78.3807L84.7189 77.4208ZM38.6045 77.5956L38.048 76.6255L38.048 76.6255L38.6045 77.5956ZM28.9533 94.8826L29.9628 94.4013L29.9626 94.401L28.9533 94.8826ZM29.8304 96.0903L30.9178 96.352C31.0137 95.9535 30.8839 95.5345 30.5796 95.2599L29.8304 96.0903ZM29.8359 99.989L30.7088 100.688C31.0153 100.306 31.0368 99.7678 30.7618 99.3618L29.8359 99.989ZM29.5413 99.1276L28.4252 99.1992L28.4254 99.2029L29.5413 99.1276ZM29.5398 99.0985L28.422 99.1358L28.4221 99.1383L29.5398 99.0985ZM29.5377 99.0366L28.4199 99.0724L28.42 99.0739L29.5377 99.0366ZM29.6286 97.7972L30.6899 97.4446C30.5231 96.9424 30.0271 96.6259 29.5014 96.6861C28.9757 96.7463 28.5641 97.1667 28.515 97.6936L29.6286 97.7972ZM29.7735 98.1213L30.7411 98.6821C30.9412 98.3369 30.9422 97.9112 30.7438 97.565L29.7735 98.1213ZM29.6286 97.7972L30.6273 97.294C30.6552 97.3493 30.6628 97.4117 30.6485 97.4711L29.5611 97.2095L28.4737 96.948C28.3619 97.413 28.4239 97.8918 28.6298 98.3004L29.6286 97.7972ZM29.6286 97.7977L30.7468 97.8166L30.7468 97.8161L29.6286 97.7972L28.5103 97.7782L28.5103 97.7787L29.6286 97.7977ZM29.3562 100.726L30.4698 100.83L30.7421 97.9012L29.6286 97.7977L28.515 97.6941L28.2426 100.623L29.3562 100.726ZM29.3562 100.726L28.3637 100.211C27.9502 101.007 27.718 101.917 27.718 102.877H28.8364H29.9548C29.9548 102.28 30.0989 101.723 30.3488 101.242L29.3562 100.726ZM28.8364 102.877H27.718V104.525H28.8364H29.9548V102.877H28.8364ZM28.8364 104.525H27.718C27.718 104.574 27.7186 104.622 27.7198 104.67L28.8379 104.643L29.9559 104.616C29.9552 104.586 29.9548 104.555 29.9548 104.525H28.8364ZM28.8379 104.643L27.7213 104.578C27.6996 104.953 27.7844 105.333 27.9754 105.669L28.9479 105.117L29.9203 104.564C29.9467 104.611 29.9571 104.661 29.9544 104.708L28.8379 104.643ZM28.9479 105.117V106.235H28.948V105.117V103.998H28.9479V105.117ZM28.948 105.117L30.0616 105.22L30.4698 100.83L29.3562 100.726L28.2426 100.623L27.8344 105.013L28.948 105.117ZM29.5857 100.334L28.65 99.7215C28.5468 99.8792 28.4512 100.043 28.3637 100.211L29.3562 100.726L30.3488 101.242C30.4017 101.14 30.4594 101.041 30.5214 100.947L29.5857 100.334ZM29.4276 109.687L30.5459 109.706L30.7039 100.353L29.5857 100.334L28.4675 100.315L28.3094 109.668L29.4276 109.687ZM28.5856 109.687V110.805H29.4276V109.687V108.569H28.5856V109.687ZM27.7852 110.519H28.9035C28.9035 110.636 28.8009 110.805 28.5856 110.805V109.687V108.569C27.4862 108.569 26.6668 109.482 26.6668 110.519H27.7852ZM27.7852 113.36H28.9035V110.519H27.7852H26.6668V113.36H27.7852ZM27.7852 113.368L28.9036 113.362L28.9035 113.355L27.7852 113.36L26.6668 113.365L26.6668 113.373L27.7852 113.368ZM27.7863 113.491L28.9046 113.481L28.9035 113.358L27.7852 113.368L26.6669 113.377L26.6679 113.501L27.7863 113.491ZM27.7864 113.499L28.9047 113.483L28.9046 113.476L27.7863 113.491L26.668 113.506L26.6681 113.514L27.7864 113.499ZM34.202 120.736L34.3189 119.623C31.315 119.308 28.9617 116.693 28.9046 113.479L27.7864 113.499L26.6682 113.518C26.7441 117.792 29.8901 121.407 34.0851 121.848L34.202 120.736ZM58.0579 122.237L58.0776 121.119C50.4522 120.985 42.5325 120.487 34.3189 119.623L34.202 120.736L34.0851 121.848C42.3582 122.718 50.343 123.22 58.0382 123.355L58.0579 122.237ZM58.6585 122.246L58.4437 121.148C58.3985 121.157 58.3521 121.157 58.3 121.145L58.0579 122.237L57.8158 123.329C58.1513 123.403 58.5092 123.415 58.8733 123.343L58.6585 122.246ZM62.225 122.273V121.154C61.0489 121.154 59.8657 121.146 58.6755 121.128L58.6585 122.246L58.6415 123.364C59.8433 123.382 61.0379 123.391 62.225 123.391V122.273ZM87.5292 120.826L87.3985 119.715C79.2391 120.675 70.8481 121.154 62.225 121.154V122.273V123.391C70.9311 123.391 79.4095 122.907 87.6598 121.936L87.5292 120.826ZM93.8614 113.459H92.7431C92.7431 116.698 90.4091 119.361 87.3986 119.715L87.5292 120.826L87.6598 121.936C91.8628 121.442 94.9798 117.764 94.9798 113.459H93.8614ZM93.8618 111.045L92.7434 111.045L92.7431 113.459L93.8614 113.459L94.9798 113.459L94.9802 111.045L93.8618 111.045ZM94.0037 110.846L93.0376 110.282C93.0288 110.298 93.0215 110.307 93.017 110.312L93.8618 111.045L94.7066 111.778C94.8044 111.665 94.8924 111.542 94.9698 111.409L94.0037 110.846ZM94.2119 109.983H93.0935C93.0935 110.148 93.0646 110.236 93.0371 110.283L94.0037 110.846L94.9703 111.408C95.2645 110.903 95.3302 110.382 95.3302 109.983H94.2119ZM93.798 108.837L92.9709 109.59C93.0358 109.661 93.0935 109.778 93.0935 109.983H94.2119H95.3302C95.3302 109.332 95.1335 108.643 94.6251 108.084L93.798 108.837ZM93.5114 108.591L92.8914 109.522C92.921 109.542 92.9478 109.564 92.9717 109.59L93.798 108.837L94.6243 108.083C94.4703 107.914 94.3029 107.774 94.1314 107.66L93.5114 108.591ZM93.5114 107.448H92.393V108.591H93.5114H94.6298V107.448H93.5114ZM94.9127 104.525H93.7943C93.7943 105.503 93.4103 106.142 92.8574 106.541L93.5114 107.448L94.1654 108.355C95.3337 107.513 96.0311 106.181 96.0311 104.525H94.9127ZM94.9127 102.877H93.7943V104.525H94.9127H96.0311V102.877H94.9127ZM94.1236 100.274L93.1978 100.902C93.5708 101.452 93.7943 102.134 93.7943 102.877H94.9127H96.0311C96.0311 101.682 95.6707 100.564 95.0493 99.6466L94.1236 100.274ZM94.3363 99.945L93.3423 99.4324C93.3156 99.484 93.2838 99.5332 93.2477 99.5786L94.1236 100.274L94.9994 100.97C95.1252 100.811 95.2364 100.64 95.3302 100.458L94.3363 99.945ZM94.3566 99.945V98.8266H94.3363V99.945V101.063H94.3566V99.945ZM95.4982 98.7405H94.3798C94.3798 98.7558 94.3768 98.773 94.3703 98.79C94.3636 98.8072 94.3552 98.8195 94.3489 98.8265C94.3429 98.833 94.3414 98.8323 94.3467 98.8299C94.3536 98.8267 94.359 98.8266 94.3566 98.8266V99.945V101.063C95.7446 101.063 96.6166 99.8757 96.6166 98.7405H95.4982ZM95.4982 97.4753H94.3798V98.7405H95.4982H96.6166V97.4753H95.4982ZM94.8741 96.4016L94.3454 97.3871C94.3467 97.3878 94.3538 97.3916 94.3627 97.4072C94.3726 97.4246 94.3798 97.4491 94.3798 97.4753H95.4982H96.6166C96.6166 96.6649 96.1953 95.8413 95.4029 95.4161L94.8741 96.4016ZM94.8717 96.4002L94.3017 97.3624L94.3041 97.3638L94.8741 96.4016L95.4441 95.4394L95.4417 95.4379L94.8717 96.4002ZM94.0377 95.9491L93.5056 96.9327L94.3396 97.3839L94.8717 96.4002L95.4038 95.4165L94.5698 94.9654L94.0377 95.9491ZM93.6607 95.7652L93.4591 96.8653C93.394 96.8533 93.34 96.8247 93.3002 96.7898L94.0377 95.9491L94.7752 95.1083C94.5195 94.884 94.2056 94.728 93.8622 94.6651L93.6607 95.7652ZM93.6593 95.7645L93.1462 96.7582C93.2022 96.7871 93.2919 96.8228 93.2322 96.7981C93.2108 96.7893 93.1499 96.7636 93.0778 96.7196C92.9992 96.6716 92.9238 96.6123 92.8552 96.5411L93.6607 95.7652L94.4661 94.9893C94.3974 94.9179 94.3218 94.8584 94.243 94.8103C94.1707 94.7662 94.1096 94.7405 94.088 94.7315C94.0278 94.7066 94.117 94.7422 94.1723 94.7707L93.6593 95.7645ZM93.2524 95.3417L92.4466 96.1173L92.8534 96.54L93.6593 95.7645L94.4651 94.9889L94.0583 94.5662L93.2524 95.3417ZM93.7227 94.3125L92.6631 93.9547C92.5671 94.2391 92.4434 94.5173 92.2943 94.7649L93.2524 95.3417L94.2106 95.9186C94.4561 95.5108 94.6435 95.0813 94.7823 94.6702L93.7227 94.3125ZM94.0367 92.496H92.9183C92.9183 92.9328 92.8319 93.4559 92.6633 93.9539L93.7227 94.3125L94.782 94.671C95.0214 93.9639 95.155 93.1988 95.155 92.496H94.0367ZM84.7189 77.4208L84.1449 78.3807C89.6384 81.6656 92.9183 86.4502 92.9183 92.496H94.0367H95.155C95.155 85.4928 91.3013 80.0537 85.2929 76.4609L84.7189 77.4208ZM62.0498 72.1855V73.3039C70.9108 73.3039 78.6408 75.0893 84.1449 78.3807L84.7189 77.4208L85.2929 76.461C79.3358 72.8987 71.1705 71.0672 62.0498 71.0672V72.1855ZM38.6045 77.5956L39.1611 78.5657C45.0634 75.1794 53.1916 73.3039 62.0498 73.3039V72.1855V71.0672C52.9137 71.0672 44.375 72.9957 38.048 76.6255L38.6045 77.5956ZM28.486 92.8601H29.6044C29.6044 86.8264 33.2651 81.9485 39.1611 78.5656L38.6045 77.5956L38.048 76.6255C31.7095 80.2623 27.3676 85.7712 27.3676 92.8601H28.486ZM28.9533 94.8826L29.9626 94.401C29.7302 93.9139 29.6044 93.3589 29.6044 92.8601H28.486H27.3676C27.3676 93.7056 27.5738 94.5887 27.9439 95.3643L28.9533 94.8826ZM29.8304 96.0903L30.5796 95.2599C30.3338 95.0381 30.1236 94.7386 29.9628 94.4013L28.9533 94.8826L27.9438 95.3639C28.202 95.9056 28.5732 96.4624 29.0813 96.9207L29.8304 96.0903ZM29.5611 97.2095L30.6484 97.4712L30.9178 96.352L29.8304 96.0903L28.7431 95.8287L28.4738 96.9479L29.5611 97.2095ZM29.6002 99.4766L28.5217 99.7727C28.6053 100.077 28.7376 100.362 28.91 100.616L29.8359 99.989L30.7618 99.3618C30.7256 99.3083 30.697 99.2473 30.6787 99.1806L29.6002 99.4766ZM29.8359 99.989L28.963 99.2898C28.8521 99.4283 28.7476 99.5724 28.65 99.7215L29.5857 100.334L30.5214 100.947C30.5801 100.857 30.6426 100.771 30.7088 100.688L29.8359 99.989ZM29.5857 100.334L30.7039 100.353L30.7184 99.4955L29.6002 99.4766L28.482 99.4577L28.4675 100.315L29.5857 100.334ZM29.5413 99.1276L28.4254 99.2029C28.4386 99.3982 28.4712 99.5889 28.5217 99.7727L29.6002 99.4766L30.6787 99.1806C30.6676 99.1403 30.6602 99.0975 30.6571 99.0523L29.5413 99.1276ZM29.5398 99.0985L28.4221 99.1383C28.4229 99.1601 28.424 99.1803 28.4252 99.1992L29.5413 99.1276L30.6574 99.056C30.6573 99.0553 30.6574 99.0565 30.6575 99.0586L29.5398 99.0985ZM29.5377 99.0366L28.42 99.0739L28.422 99.1358L29.5398 99.0985L30.6576 99.0611L30.6555 98.9992L29.5377 99.0366ZM29.5372 99.0074H28.4189C28.4189 99.0304 28.4193 99.0523 28.4199 99.0724L29.5377 99.0366L30.6555 99.0007C30.6556 99.0012 30.6556 99.0034 30.6556 99.0074H29.5372ZM29.6171 98.4781L28.5491 98.1461C28.4641 98.4195 28.4189 98.7092 28.4189 99.0074H29.5372H30.6556C30.6556 98.9361 30.6664 98.8701 30.685 98.8102L29.6171 98.4781ZM29.6002 99.4766L30.7184 99.4955L30.7353 98.497L29.6171 98.4781L28.4988 98.4592L28.482 99.4577L29.6002 99.4766ZM29.6171 98.4781L30.7353 98.497L30.7468 97.8165L29.6286 97.7977L28.5103 97.7788L28.4988 98.4592L29.6171 98.4781ZM29.6286 97.7977L30.7421 97.9013L30.7422 97.9009L29.6286 97.7972L28.515 97.6936L28.515 97.694L29.6286 97.7977ZM29.6286 97.7972L28.5672 98.1498C28.6286 98.3346 28.708 98.5113 28.8033 98.6775L29.7735 98.1213L30.7438 97.565C30.7222 97.5273 30.704 97.487 30.6899 97.4446L29.6286 97.7972ZM29.7735 98.1213L28.8059 97.5604C28.6998 97.7435 28.6132 97.9398 28.5491 98.1461L29.6171 98.4781L30.685 98.8102C30.6992 98.7646 30.7181 98.7218 30.7411 98.6821L29.7735 98.1213Z" fill="white"/>
<path fill-rule="evenodd" clip-rule="evenodd" d="M28.5859 113.412C28.5859 116.746 30.9838 119.548 34.1785 119.866C40.6706 120.512 51.821 121.442 62.2253 121.442C72.2432 121.442 81.8462 120.58 87.6007 119.939C90.7389 119.589 93.0615 116.819 93.0615 113.54V110.52H28.5859V113.412Z" fill="#EC9D47"/>
<path fill-rule="evenodd" clip-rule="evenodd" d="M90.7189 99.251C92.5929 99.251 94.1122 100.874 94.1122 102.876V104.524C94.1122 105.887 93.4086 106.73 92.3682 107.13C92.1958 107.08 91.9975 107.06 91.7866 107.06C91.7796 107.06 76.0307 107.205 73.8992 107.474C72.6675 107.547 71.8366 107.618 71.4067 107.688C59.5937 109.601 54.6066 106.71 48.9464 106.111C45.2427 105.719 41.7586 105.966 39.0443 106.661C39.0151 106.669 37.8975 106.837 37.2762 106.875C36.165 106.944 35.151 107.078 33.8416 107.037C33.0902 107.014 32.0977 107.373 31.5289 107.183C30.4078 106.808 29.6367 105.951 29.6367 104.524V102.876C29.6367 100.874 31.156 99.251 33.0302 99.251C46.1016 98.5173 55.9392 98.1463 62.5431 98.1387H62.7505C68.9657 98.1387 78.2884 98.5093 90.7189 99.251Z" fill="#73371F"/>
<path fill-rule="evenodd" clip-rule="evenodd" d="M71.6811 109.712C72.1138 109.643 72.9502 109.572 74.1903 109.5C76.3366 109.235 92.192 109.092 92.199 109.092C92.869 109.092 93.4121 109.289 93.4121 109.984C93.4121 110.756 92.8753 110.683 92.1419 110.811C91.1639 110.981 90.1172 111.072 89.0022 111.083C87.5151 111.096 83.0508 110.994 75.6095 110.775C75.2083 110.763 74.4342 110.8 73.2877 110.887C72.7397 111.064 72.1068 111.224 71.385 111.351C64.3224 112.593 62.0935 116.062 59.4121 120.591C56.8251 124.96 55.0264 111.11 46.4373 110.73C40.7113 110.477 36.0326 110.637 32.4012 111.211C32.3141 111.213 32.2269 111.208 32.141 111.193C31.4227 111.069 30.9375 110.73 31.0572 109.984C31.2122 109.019 31.9873 109.025 32.9279 108.963L33.736 108.909C35.0061 108.977 36.2005 108.977 37.3191 108.909C37.9447 108.871 39.0698 108.705 39.0993 108.698C41.832 108.011 45.3397 107.768 49.0687 108.155C54.7671 108.746 59.7881 111.6 71.6811 109.712Z" fill="#FFBC0D"/>
<path d="M64.2617 99.1074C66.9 99.1132 69.8276 99.1788 73.0441 99.3044C71.5849 102.487 69.2263 101.825 66.9942 101.198C65.9447 100.903 65.0253 100.177 64.3031 99.1657L64.2617 99.1074Z" fill="#E6E454"/>
<path d="M63.543 99.155C64.173 99.1507 64.8202 99.1492 65.4846 99.1514C66.0162 99.6706 66.635 100.042 67.3165 100.216C67.6021 100.29 67.7293 100.322 67.8874 100.36C69.5984 100.779 70.5873 100.799 71.4258 100.296C71.7962 100.074 72.1301 99.7383 72.4262 99.2723C72.9683 99.2876 73.5192 99.305 74.0784 99.3243C73.5556 100.55 72.8807 101.392 72.0488 101.891C70.863 102.602 69.6342 102.578 67.647 102.091C67.5163 102.059 67.4073 102.032 67.2205 101.984L67.0646 101.944C65.6528 101.583 64.4547 100.594 63.591 99.2315L63.543 99.155Z" fill="#66881E"/>
<path fill-rule="evenodd" clip-rule="evenodd" d="M75.3789 98.7324C78.8399 98.9381 82.6948 99.2239 86.9424 99.5899C86.3348 99.9357 85.756 100.353 85.2086 100.857C82.775 103.096 81.1757 106.089 80.4224 105.087C79.669 104.085 79.669 101.796 78.8935 100.714C78.2877 99.8688 77.3174 99.2341 75.5093 98.7656L75.3789 98.7324Z" fill="#FFBC0D"/>
<path d="M75.1191 96.3184C79.7294 96.6187 84.9842 97.0491 90.8809 97.6091L90.9695 97.6178H91.0585C92.0404 97.6178 92.8688 97.2198 93.5205 96.5831C93.6807 96.7476 93.7798 96.9759 93.7798 97.2286C93.7798 97.7314 93.3874 98.1388 92.9035 98.1388H31.2139C30.7905 98.1388 30.4373 97.8268 30.3555 97.4121C30.7313 97.545 31.1355 97.6178 31.5644 97.6178H31.6475L31.7304 97.6102C38.0569 97.0495 43.6007 96.6187 48.3591 96.3184H75.1191Z" fill="#FFD90D"/>
<path d="M30.3359 99.0017C30.3359 98.5186 30.6979 98.1257 31.1628 98.1199C35.281 98.07 53.5783 97.8516 58.544 97.8516C63.5534 97.8516 87.7248 98.074 92.8173 98.1214C93.3488 98.1261 93.7602 98.575 93.7602 99.1273C93.7602 99.5766 93.4743 99.9713 93.0563 100.086C92.1126 100.345 90.4688 100.764 89.7116 100.764C88.8527 100.764 87.9883 100.618 87.1119 100.435C86.246 100.254 85.3689 100.036 84.4743 99.8861C83.6285 99.7445 37.8792 99.8654 31.157 99.8839C30.6873 99.8854 30.3359 99.49 30.3359 99.0017Z" fill="#DB0007"/>
<path d="M94.5054 97.1401C94.6228 97.2023 94.6971 97.3323 94.6971 97.475V98.7403C94.6971 98.9463 94.5443 99.1131 94.3562 99.1131C94.3117 99.1131 94.2679 99.1036 94.2269 99.0854C93.2093 98.6296 91.5098 97.8854 90.4922 97.5985L90.8535 97.6349L90.9397 97.6433H91.0262C91.9912 97.6433 92.8035 97.2278 93.4402 96.5645C93.5667 96.6307 94.3765 97.0713 94.5054 97.1401Z" fill="#FFEBB8"/>
<path d="M61.725 95.9551C64.0002 95.9551 66.9699 96.163 69.9323 96.3192C65.9204 98.1047 62.5418 98.8678 60.4964 98.8678C58.5022 98.8678 55.5739 98.0195 51.7109 96.3224C55.7032 96.0774 59.0419 95.9551 61.725 95.9551Z" fill="#FFEBB8"/>
<path d="M51.7878 97.9279C51.7275 98.9046 51.422 99.8582 50.8512 100.692C49.0862 103.269 47.1896 106.04 42.2717 102.393C40.0984 100.782 39.2559 99.3414 39.1447 98.0135C43.7906 97.9321 47.9253 97.9034 51.5474 97.9265L51.7878 97.9279Z" fill="#E6E454"/>
<path d="M52.4888 97.9356C52.4272 99.0503 52.0799 100.143 51.4212 101.1C51.2482 101.352 51.1703 101.464 51.0721 101.604C49.8724 103.317 48.9752 104.21 47.6981 104.633C46.0607 105.175 44.1682 104.657 41.8648 102.958C39.6584 101.331 38.5642 99.7186 38.4415 98.0219C38.9214 98.0137 39.3958 98.0055 39.8648 97.9981C39.9856 99.1755 40.8386 100.398 42.6879 101.762C44.6596 103.217 46.1149 103.615 47.2648 103.234C48.1682 102.935 48.8902 102.216 49.9231 100.742C50.0186 100.606 50.0947 100.496 50.2653 100.248C50.7461 99.5496 51.0082 98.7494 51.066 97.9252C51.5209 97.9277 51.9674 97.9307 52.4061 97.9349L52.4888 97.9356Z" fill="#66881E"/>
<path fill-rule="evenodd" clip-rule="evenodd" d="M93.2351 92.4965C93.2351 93.864 92.4459 95.9553 91.0404 95.9553C91.0404 95.9553 71.8877 94.1349 61.6981 94.1349C52.0927 94.1349 31.5628 95.9553 31.5628 95.9553C30.1572 95.9553 29.2852 94.2281 29.2852 92.8606C29.2852 80.5543 44.2441 73.0176 62.0485 73.0176C79.8529 73.0176 93.2351 80.1902 93.2351 92.4965Z" fill="#EC9D47"/>
<path fill-rule="evenodd" clip-rule="evenodd" d="M59.229 85.6305C58.7367 85.3541 58.5759 84.729 58.8691 84.2342C59.1628 83.7394 60.8216 82.3453 61.089 82.4957C61.3564 82.6457 60.945 84.741 60.6517 85.2354C60.358 85.7302 59.7213 85.9072 59.229 85.6305Z" fill="white"/>
<path fill-rule="evenodd" clip-rule="evenodd" d="M58.9347 76.2578C59.2641 75.861 59.8601 75.818 60.2655 76.1621C60.6713 76.5062 61.684 78.2228 61.5049 78.4384C61.3259 78.6539 59.4778 77.944 59.0724 77.5999C58.6666 77.2558 58.6049 76.6551 58.9347 76.2578Z" fill="white"/>
<path fill-rule="evenodd" clip-rule="evenodd" d="M48.3454 85.7967C48.0158 86.1936 47.4199 86.2365 47.0143 85.8925C46.6087 85.5484 45.5959 83.8317 45.7749 83.6162C45.9539 83.4006 47.8019 84.1106 48.2075 84.4547C48.6133 84.7987 48.6749 85.3995 48.3454 85.7967Z" fill="white"/>
<path fill-rule="evenodd" clip-rule="evenodd" d="M44.5147 88.6891C45.0855 88.5911 45.6325 88.976 45.7364 89.5476C45.8404 90.1196 45.4835 92.2604 45.1735 92.3136C44.8635 92.3667 43.7735 90.4731 43.6695 89.9015C43.5656 89.3295 43.944 88.7866 44.5147 88.6891Z" fill="white"/>
<path fill-rule="evenodd" clip-rule="evenodd" d="M31.9501 92.2774C32.2796 91.8805 32.8755 91.8376 33.2811 92.1816C33.6868 92.5257 34.6995 94.2424 34.5206 94.4579C34.3416 94.6735 32.4935 93.9635 32.0879 93.6194C31.6823 93.2753 31.6206 92.6746 31.9501 92.2774Z" fill="white"/>
<path fill-rule="evenodd" clip-rule="evenodd" d="M76.9057 86.6319C76.5237 86.2897 76.4824 85.6703 76.8135 85.2491C77.1446 84.8275 78.7968 83.7752 79.0043 83.9613C79.2117 84.1473 78.5284 86.0676 78.1973 86.4888C77.8661 86.9104 77.288 86.9745 76.9057 86.6319Z" fill="white"/>
<path fill-rule="evenodd" clip-rule="evenodd" d="M73.9483 77.7652C74.5192 77.6673 75.0662 78.0521 75.1702 78.6238C75.274 79.1957 74.9172 81.3366 74.6071 81.3898C74.297 81.4429 73.2072 79.5493 73.1032 78.9776C72.9991 78.4057 73.3775 77.8628 73.9483 77.7652Z" fill="white"/>
<path fill-rule="evenodd" clip-rule="evenodd" d="M56.8443 88.8347C57.1106 89.3463 56.9403 90.0078 56.4641 90.3129C55.9882 90.6177 53.9716 91.0451 53.8273 90.7673C53.6825 90.4895 55.0243 88.7659 55.5005 88.4608C55.9767 88.1561 56.5783 88.3232 56.8443 88.8347Z" fill="white"/>
<path fill-rule="evenodd" clip-rule="evenodd" d="M63.1378 89.3653C63.4672 88.9684 64.0632 88.9254 64.4687 89.2695C64.8744 89.6136 65.8871 91.3303 65.7081 91.5458C65.529 91.7614 63.6809 91.0514 63.2755 90.7073C62.8697 90.3632 62.8081 89.7625 63.1378 89.3653Z" fill="white"/>
<path fill-rule="evenodd" clip-rule="evenodd" d="M68.8833 82.8477C69.4639 82.8477 69.9345 83.3133 69.9345 83.8879C69.9345 84.4624 69.1986 86.4886 68.8833 86.4886C68.5679 86.4886 67.832 84.4624 67.832 83.8879C67.832 83.3133 68.3026 82.8477 68.8833 82.8477Z" fill="white"/>
<path fill-rule="evenodd" clip-rule="evenodd" d="M88.5394 87.0719C88.9214 87.4141 88.9627 88.0334 88.6316 88.4547C88.3005 88.8763 86.6483 89.9285 86.4408 89.7425C86.2334 89.5564 86.9167 87.6362 87.2478 87.2149C87.579 86.7933 88.1571 86.7292 88.5394 87.0719Z" fill="white"/>
<path fill-rule="evenodd" clip-rule="evenodd" d="M76.7863 92.5465C76.294 92.8232 75.6573 92.6463 75.3636 92.1515C75.0703 91.657 74.659 89.5617 74.9263 89.4117C75.1937 89.2613 76.8525 90.6554 77.1462 91.1502C77.4395 91.645 77.2786 92.2702 76.7863 92.5465Z" fill="white"/>
<path fill-rule="evenodd" clip-rule="evenodd" d="M51.0122 77.3867C51.5928 77.3867 52.0634 77.8524 52.0634 78.4269C52.0634 79.0015 51.3275 81.0276 51.0122 81.0276C50.6968 81.0276 49.9609 79.0015 49.9609 78.4269C49.9609 77.8524 50.4315 77.3867 51.0122 77.3867Z" fill="white"/>
<path fill-rule="evenodd" clip-rule="evenodd" d="M36.1571 85.3594C36.4867 84.9625 37.0826 84.9196 37.4882 85.2637C37.8938 85.6077 38.9066 87.3244 38.7276 87.54C38.5486 87.7555 36.7006 87.0455 36.295 86.7014C35.8893 86.3574 35.8276 85.7566 36.1571 85.3594Z" fill="white"/>
<path d="M52.6053 97.7784C52.7255 97.8588 52.7864 98.0074 52.7591 98.1534L52.5289 99.3833C52.4921 99.5806 52.3081 99.7095 52.1182 99.6713C52.0804 99.6636 52.0443 99.6494 52.0106 99.6298C49.7789 98.2994 47.4916 97.2672 45.1484 96.5321C46.9191 96.4083 48.2104 96.3184 50.3129 96.3184C51.0824 96.795 51.7555 97.2075 52.6053 97.7784Z" fill="#FFEBB8"/>
</svg>
