<svg width="27" height="18" viewBox="0 0 27 18" fill="none" xmlns="http://www.w3.org/2000/svg">
<g clip-path="url(#clip0_109_43920)">
<path d="M0 0H27V18H0V0Z" fill="#0052B4"/>
<path d="M26.9474 7.81053V10.1526H14.6474V17.9632H12.3V10.1526H0V7.81053H12.3V0H14.6474V7.81053H26.9474Z" fill="white"/>
<path d="M5.31614 1.90119C5.53719 1.89067 5.75298 1.89593 5.97403 1.91172C6.2635 1.93277 6.46877 1.99593 6.45298 1.93803C6.42666 1.8433 6.44772 1.82224 6.41087 1.8433C6.34245 1.89593 6.44772 1.83277 6.0214 2.07488C5.40035 2.42751 5.13193 2.69593 5.26877 3.18014C5.38982 3.60645 5.70035 3.72224 6.44245 3.83803L6.54245 3.85382C6.83719 3.90119 6.96877 3.92751 7.05824 3.96961C7.07929 3.98014 7.04245 3.91698 7.05298 3.88014C7.04245 3.91172 6.84772 3.99066 6.35298 4.0854L6.10561 4.13277C5.15298 4.32751 4.67929 4.58014 4.60561 5.23803C4.52666 5.95908 5.27403 6.46435 6.21614 6.5854C7.17403 6.71171 8.01087 6.39593 8.09508 5.61698C8.14772 5.12224 7.80561 4.82751 7.25824 4.71698C6.88982 4.6433 6.40035 4.6433 5.81614 4.70119C5.1635 4.76961 4.51614 4.88014 3.87403 5.03277C3.68456 5.06961 3.5635 5.25382 3.60035 5.44329C3.63719 5.63277 3.8214 5.75382 4.01087 5.71698C4.0214 5.71698 4.02666 5.71172 4.03719 5.71172C4.64772 5.56961 5.26351 5.46435 5.88456 5.40119C6.40561 5.34856 6.83193 5.34856 7.11614 5.40645C7.34772 5.45382 7.39508 5.49593 7.38982 5.54329C7.3635 5.81172 6.9214 5.97487 6.30035 5.89593C5.68982 5.81698 5.27403 5.53803 5.29508 5.31698C5.3214 5.09066 5.57403 4.95908 6.23719 4.82224L6.47929 4.77487C7.29508 4.61698 7.58982 4.49593 7.71614 4.08014C7.81614 3.73803 7.64772 3.46961 7.33719 3.33277C7.16877 3.25909 7.00561 3.22224 6.64245 3.16961L6.54772 3.15382C6.12666 3.0854 5.94772 3.01698 5.94245 2.99593C5.93719 2.97488 6.03719 2.87488 6.36877 2.6854L6.60035 2.55382C6.67929 2.51172 6.75298 2.45909 6.82666 2.41172C7.06877 2.23277 7.20561 2.03803 7.13193 1.76435C7.03193 1.38014 6.65824 1.26435 6.03193 1.21698C5.78456 1.20119 5.54245 1.19593 5.29508 1.20119L5.18982 1.20646C4.99508 1.21698 4.84772 1.3854 4.85824 1.57488C4.86877 1.76961 5.03719 1.91698 5.22666 1.90646L5.31614 1.90119ZM20.2635 1.90119C20.4846 1.89067 20.7003 1.89593 20.9214 1.91172C21.2109 1.93277 21.4161 1.99593 21.4003 1.93803C21.374 1.8433 21.3951 1.82224 21.3582 1.8433C21.2898 1.89593 21.3951 1.83277 20.9688 2.07488C20.3477 2.42751 20.0793 2.69593 20.2161 3.18014C20.3372 3.60645 20.6477 3.72224 21.3898 3.83803L21.4898 3.85382C21.7846 3.90119 21.9161 3.92751 22.0056 3.96961C22.0267 3.98014 21.9898 3.91698 22.0003 3.88014C21.9898 3.91172 21.7951 3.99066 21.3003 4.0854L21.053 4.13277C20.1003 4.32751 19.6267 4.58014 19.553 5.23803C19.474 5.95908 20.2214 6.46435 21.1635 6.5854C22.1214 6.71171 22.9582 6.39593 23.0425 5.61698C23.0951 5.12224 22.753 4.82751 22.2056 4.71698C21.8372 4.6433 21.3477 4.6433 20.7635 4.70119C20.1109 4.76961 19.4635 4.88014 18.8214 5.03277C18.6319 5.06961 18.5109 5.25382 18.5477 5.44329C18.5846 5.63277 18.7688 5.75382 18.9582 5.71698C18.9688 5.71698 18.974 5.71172 18.9846 5.71172C19.5951 5.56961 20.2109 5.46435 20.8319 5.40119C21.353 5.34856 21.7793 5.34856 22.0635 5.40645C22.2951 5.45382 22.3425 5.49593 22.3372 5.54329C22.3109 5.81172 21.8688 5.97487 21.2477 5.89593C20.6372 5.81698 20.2214 5.53803 20.2425 5.31698C20.2688 5.09066 20.5214 4.95908 21.1846 4.82224L21.4267 4.77487C22.2425 4.61698 22.5372 4.49593 22.6635 4.08014C22.7635 3.73803 22.5951 3.46961 22.2846 3.33277C22.1161 3.25909 21.953 3.22224 21.5898 3.16961L21.4951 3.15382C21.074 3.0854 20.8951 3.01698 20.8898 2.99593C20.8846 2.97488 20.9846 2.87488 21.3161 2.6854L21.5477 2.55382C21.6267 2.51172 21.7003 2.45909 21.774 2.41172C22.0161 2.23277 22.153 2.03803 22.0793 1.76435C21.9793 1.38014 21.6056 1.26435 20.9793 1.21698C20.7319 1.20119 20.4898 1.19593 20.2425 1.20119L20.1372 1.20646C19.9425 1.21698 19.7951 1.3854 19.8056 1.57488C19.8161 1.76961 19.9846 1.91698 20.174 1.90646L20.2635 1.90119ZM19.9793 12.3749C20.2003 12.3643 20.4161 12.3696 20.6372 12.3854C20.9267 12.4064 21.1319 12.4696 21.1161 12.4117C21.0898 12.317 21.1109 12.2959 21.074 12.317C21.0056 12.3696 21.1109 12.3064 20.6846 12.5486C20.0635 12.9012 19.7951 13.1696 19.9319 13.6538C20.053 14.0801 20.3635 14.1959 21.1056 14.3117L21.2056 14.3275C21.5003 14.3749 21.6319 14.4012 21.7214 14.4433C21.7425 14.4538 21.7056 14.3907 21.7161 14.3538C21.7056 14.3854 21.5109 14.4643 21.0161 14.5591L20.7688 14.6064C19.8161 14.8012 19.3425 15.0538 19.2688 15.7117C19.1898 16.4328 19.9372 16.938 20.8793 17.0591C21.8372 17.1854 22.674 16.8696 22.7582 16.0907C22.8109 15.5959 22.4688 15.3012 21.9214 15.1907C21.553 15.117 21.0635 15.117 20.4793 15.1749C19.8267 15.2433 19.1793 15.3538 18.5372 15.5064C18.3477 15.5433 18.2267 15.7275 18.2635 15.917C18.3003 16.1064 18.4846 16.2275 18.674 16.1907C18.6846 16.1907 18.6898 16.1854 18.7003 16.1854C19.3109 16.0433 19.9267 15.938 20.5477 15.8749C21.0688 15.8222 21.4951 15.8222 21.7793 15.8801C22.0109 15.9275 22.0582 15.9696 22.053 16.017C22.0267 16.2854 21.5846 16.4485 20.9635 16.3696C20.353 16.2907 19.9372 16.0117 19.9582 15.7907C19.9846 15.5643 20.2372 15.4328 20.9003 15.2959L21.1425 15.2486C21.9582 15.0907 22.253 14.9696 22.3793 14.5538C22.4793 14.2117 22.3109 13.9433 22.0003 13.8064C21.8319 13.7328 21.6688 13.6959 21.3056 13.6433L21.2109 13.6275C20.7898 13.5591 20.6109 13.4907 20.6056 13.4696C20.6003 13.4486 20.7003 13.3486 21.0319 13.1591L21.2635 13.0275C21.3425 12.9854 21.4161 12.9328 21.4898 12.8854C21.7319 12.7064 21.8688 12.5117 21.7951 12.238C21.6951 11.8538 21.3214 11.738 20.6951 11.6907C20.4477 11.6749 20.2056 11.6696 19.9582 11.6749L19.853 11.6801C19.6582 11.6907 19.5109 11.8591 19.5214 12.0486C19.5319 12.238 19.7003 12.3907 19.8898 12.3801L19.9793 12.3749ZM5.31614 12.3749C5.53719 12.3643 5.75298 12.3696 5.97403 12.3854C6.2635 12.4064 6.46877 12.4696 6.45298 12.4117C6.42666 12.317 6.44772 12.2959 6.41087 12.317C6.34245 12.3696 6.44772 12.3064 6.0214 12.5486C5.40035 12.9012 5.13193 13.1696 5.26877 13.6538C5.38982 14.0801 5.70035 14.1959 6.44245 14.3117L6.54245 14.3275C6.83719 14.3749 6.96877 14.4012 7.05824 14.4433C7.07929 14.4538 7.04245 14.3907 7.05298 14.3538C7.04245 14.3854 6.84772 14.4643 6.35298 14.5591L6.10561 14.6064C5.15298 14.8012 4.67929 15.0538 4.60561 15.7117C4.52666 16.4328 5.27403 16.938 6.21614 17.0591C7.17403 17.1854 8.01087 16.8696 8.09508 16.0907C8.14772 15.5959 7.80561 15.3012 7.25824 15.1907C6.88982 15.117 6.40035 15.117 5.81614 15.1749C5.1635 15.2433 4.51614 15.3538 3.87403 15.5064C3.68456 15.5433 3.5635 15.7275 3.60035 15.917C3.63719 16.1064 3.8214 16.2275 4.01087 16.1907C4.0214 16.1907 4.02666 16.1854 4.03719 16.1854C4.64772 16.0433 5.26351 15.938 5.88456 15.8749C6.40561 15.8222 6.83193 15.8222 7.11614 15.8801C7.34772 15.9275 7.39508 15.9696 7.38982 16.017C7.3635 16.2854 6.9214 16.4485 6.30035 16.3696C5.68982 16.2907 5.27403 16.0117 5.29508 15.7907C5.3214 15.5643 5.57403 15.4328 6.23719 15.2959L6.47929 15.2486C7.29508 15.0907 7.58982 14.9696 7.71614 14.5538C7.81614 14.2117 7.64772 13.9433 7.33719 13.8064C7.16877 13.7328 7.00561 13.6959 6.64245 13.6433L6.54772 13.6275C6.12666 13.5591 5.94772 13.4907 5.94245 13.4696C5.93719 13.4486 6.03719 13.3486 6.36877 13.1591L6.60035 13.0275C6.67929 12.9854 6.75298 12.9328 6.82666 12.8854C7.06877 12.7064 7.20561 12.5117 7.13193 12.238C7.03193 11.8538 6.65824 11.738 6.03193 11.6907C5.78456 11.6749 5.54245 11.6696 5.29508 11.6749L5.18982 11.6801C4.99508 11.6907 4.84772 11.8591 4.85824 12.0486C4.86877 12.2433 5.03719 12.3907 5.22666 12.3801L5.31614 12.3749Z" fill="white"/>
</g>
<rect x="0.5" y="0.5" width="26" height="17" rx="0.5" stroke="black" stroke-opacity="0.2"/>
<defs>
<clipPath id="clip0_109_43920">
<rect width="27" height="18" rx="1" fill="white"/>
</clipPath>
</defs>
</svg>
