<svg width="55" height="55" viewBox="0 0 55 55" fill="none" xmlns="http://www.w3.org/2000/svg">
<path fill-rule="evenodd" clip-rule="evenodd" d="M27.5014 54.9992C37.5522 54.9992 45.6999 53.9128 45.6999 52.5727C45.6999 51.2326 37.5522 50.1462 27.5014 50.1462C17.4506 50.1462 9.30286 51.2326 9.30286 52.5727C9.30286 53.9128 17.4506 54.9992 27.5014 54.9992Z" fill="#A0A09F" fill-opacity="0.15"/>
<path fill-rule="evenodd" clip-rule="evenodd" d="M11.7268 10.5148L13.6983 12.5369L15.6698 10.5148L17.6413 12.5369L19.6128 10.5148L21.5843 12.5369L23.5558 10.5148L25.5273 12.5369L27.4988 10.5148L29.4704 12.5369L31.4419 10.5148L33.4134 12.5369L35.3849 10.5148L37.3564 12.5369L39.3279 10.5148L41.2994 12.5369L43.2709 10.5148V50.956C43.2709 51.8494 42.5467 52.5736 41.6533 52.5736H13.3444C12.451 52.5736 11.7268 51.8494 11.7268 50.956V10.5148Z" fill="white"/>
<path fill-rule="evenodd" clip-rule="evenodd" d="M11.7268 10.5148L13.6983 12.5369L15.6698 10.5148L17.6413 12.5369L19.6128 10.5148L21.5843 12.5369L23.5558 10.5148L25.5273 12.5369L27.4988 10.5148L29.4704 12.5369L31.4419 10.5148L33.4134 12.5369L35.3849 10.5148L37.3564 12.5369L39.3279 10.5148L41.2994 12.5369L43.2709 10.5148V50.956C43.2709 51.8494 42.5467 52.5736 41.6533 52.5736H13.3444C12.451 52.5736 11.7268 51.8494 11.7268 50.956V10.5148Z" fill="#D8D8D8"/>
<path fill-rule="evenodd" clip-rule="evenodd" d="M11.7268 44.8898H43.2709V50.956C43.2709 51.8494 42.5467 52.5736 41.6533 52.5736H13.3444C12.451 52.5736 11.7268 51.8494 11.7268 50.956V44.8898Z" fill="#A0A09F"/>
<path fill-rule="evenodd" clip-rule="evenodd" d="M43.2709 20.5081C43.0116 20.4515 42.751 20.4227 42.4869 20.4227C39.1296 20.4227 36.1319 24.7494 34.1722 31.5135C32.2114 24.7494 29.2148 20.4227 25.8552 20.4227C19.9529 20.4227 15.1643 34.8163 15.1643 52.5734H19.9169C19.9169 36.0879 22.5771 22.7182 25.8552 22.7182C29.1369 22.7182 31.7959 35.058 31.7959 50.2779H36.5473C36.5473 35.058 39.2087 22.7182 42.4869 22.7182C42.753 22.7182 43.015 22.8063 43.2719 22.9768C43.2709 21.4337 43.2709 22.2425 43.2709 20.5081Z" fill="#F9F9F9"/>
<path fill-rule="evenodd" clip-rule="evenodd" d="M40.0532 9.80851L41.3008 11.088L42.5484 9.80851C43.1815 9.15916 44.2833 9.6074 44.2833 10.5143V50.9555C44.2833 52.4073 43.1064 53.5842 41.6546 53.5842H13.3458C11.894 53.5842 10.7171 52.4073 10.7171 50.9555V10.5143C10.7171 9.6074 11.819 9.15916 12.4521 9.80851L13.6997 11.088L14.9473 9.80851C15.3324 9.41351 15.96 9.40189 16.3594 9.77366L16.3951 9.80851L17.6427 11.088L18.8903 9.80851C19.2754 9.41351 19.903 9.40189 20.3024 9.77366L20.3381 9.80851L21.5857 11.088L22.8333 9.80851C23.2184 9.41351 23.8461 9.40189 24.2454 9.77366L24.2811 9.80851L25.5287 11.088L26.7763 9.80851C27.1615 9.41351 27.7891 9.40189 28.1885 9.77366L28.2241 9.80851L29.4717 11.088L30.7193 9.80851C31.1045 9.41351 31.7321 9.40189 32.1315 9.77366L32.1671 9.80851L33.4148 11.088L34.6624 9.80851C35.0475 9.41351 35.6751 9.40189 36.0745 9.77366L36.1102 9.80851L37.3578 11.088L38.6054 9.80851C38.9905 9.41351 39.6181 9.40189 40.0175 9.77366L40.0532 9.80851ZM43.2723 50.9554V10.5143L41.3008 12.5363L39.3293 10.5143L37.3578 12.5363L35.3863 10.5143L33.4148 12.5363L31.4432 10.5143L29.4717 12.5363L27.5002 10.5143L25.5287 12.5363L23.5572 10.5143L21.5857 12.5363L19.6142 10.5143L17.6427 12.5363L15.6712 10.5143L13.6997 12.5363L11.7282 10.5143V50.9554C11.7282 51.8488 12.4524 52.5731 13.3458 52.5731H41.6546C42.548 52.5731 43.2723 51.8488 43.2723 50.9554Z" fill="white"/>
</svg>
