<svg width="27" height="18" viewBox="0 0 27 18" fill="none" xmlns="http://www.w3.org/2000/svg">
<g clip-path="url(#clip0_109_43913)">
<path d="M0 0H27V18H0V0Z" fill="#FFDA44"/>
<path d="M0 0H9V18H0V0Z" fill="#0052B4"/>
<path d="M18.0003 0H27.0003V18H18.0003V0ZM10.4688 5.97895H13.474V9.38947H10.4688V5.97895Z" fill="#D80027"/>
<path d="M14.082 5.98047V9.38574V5.98047ZM14.9557 5.98047V9.38574V5.98047ZM15.8294 5.98047V9.38574V5.98047Z" fill="black"/>
<path fill-rule="evenodd" clip-rule="evenodd" d="M14.2669 5.98047V9.38574H13.8984V5.98047H14.2669ZM15.1405 5.98047V9.38574H14.7721V5.98047H15.1405ZM15.6458 9.38574V5.98047H16.0142V9.38574H15.6458Z" fill="#D80027"/>
<path d="M13.0234 9.39062V12.7959V9.39062ZM12.3234 9.39062V12.7959V9.39062ZM11.6234 9.39589V12.2327V9.39589ZM10.9023 9.39589V11.8748V9.39589Z" fill="black"/>
<path fill-rule="evenodd" clip-rule="evenodd" d="M12.4537 9.39062V12.7959H12.1906V9.39062H12.4537ZM13.1537 9.39062V12.7959H12.8906V9.39062H13.1537ZM10.7695 11.8748V9.39589H11.0327V11.8748H10.7695ZM11.7537 9.39589V12.2327H11.4906V9.39589H11.7537Z" fill="#D80027"/>
<path d="M10.5195 7.68574L11.9722 5.98047L13.4722 7.68047L11.9932 9.38574L10.5195 7.68574Z" fill="#FFDA44"/>
<path d="M9.58984 5.04688V9.89951C9.58984 11.7048 11.0267 12.7521 12.1477 13.2943C12.1056 13.3679 13.4688 13.7311 13.4688 13.7311C13.4688 13.7311 14.832 13.3679 14.7898 13.2943C15.9162 12.7521 17.3477 11.71 17.3477 9.89951V5.04688H9.58984ZM16.4267 9.89951C16.4267 10.789 15.9004 11.4469 14.7004 12.21C14.2477 12.4995 13.7793 12.6837 13.4741 12.789C13.1688 12.6837 12.7004 12.4995 12.2477 12.21C11.0477 11.4469 10.5214 10.7364 10.5214 9.89951V5.97845H16.4267V9.89951Z" fill="#BC8B00"/>
<path d="M13.9141 9.94141H15.4667V10.394H13.9141V9.94141ZM13.9141 10.8677H15.4667V11.3203H13.9141V10.8677Z" fill="#D80027"/>
</g>
<rect x="0.5" y="0.5" width="26" height="17" rx="0.5" stroke="black" stroke-opacity="0.2"/>
<defs>
<clipPath id="clip0_109_43913">
<rect width="27" height="18" rx="1" fill="white"/>
</clipPath>
</defs>
</svg>
