<svg width="27" height="18" viewBox="0 0 27 18" fill="none" xmlns="http://www.w3.org/2000/svg">
<g clip-path="url(#clip0_109_43910)">
<path d="M0 0H27V18H0V0Z" fill="#00318B"/>
<path d="M23.9357 13.969C24.3536 13.3938 24.6325 12.6917 24.6325 11.8417V5.5222C24.0861 5.93341 23.4206 6.15532 22.7367 6.15431C21.7031 6.15431 20.7857 5.65799 20.2088 4.89062C19.6325 5.65799 18.7146 6.15431 17.6809 6.15431C16.9694 6.15431 16.3131 5.91905 15.7852 5.52273V11.8417C15.7852 12.6922 16.0641 13.3943 16.482 13.969H23.9357Z" fill="white"/>
<path d="M16.3281 13.7344C17.5081 15.6281 20.2108 16.2617 20.2108 16.2617C20.2108 16.2617 22.9134 15.6281 24.0934 13.7344H16.3281Z" fill="#8DCCFF"/>
<path d="M20.8752 9.0627C20.892 9.13744 21.3341 9.59796 21.7994 10.1232C21.8725 10.2059 21.3394 10.788 21.4357 10.7859C21.6857 10.7795 22.4499 9.87743 22.4536 11.1358C22.4562 11.9748 20.8747 12.5837 20.8747 12.5837H21.7941L21.8283 13.3711C21.8283 13.3711 22.0899 12.669 22.2278 12.499C22.6541 11.9743 23.2899 10.9164 24.0483 11.0727C24.8067 11.229 23.3294 10.3401 23.3294 10.3401C23.3294 10.3401 23.0557 9.54059 22.4541 9.44691C21.9246 9.36428 21.702 9.3148 21.052 9.0627C20.9636 9.02849 20.8478 8.94059 20.8752 9.0627Z" fill="#D87B00"/>
<path d="M18.9326 10.4557C18.989 10.4036 19.1674 9.79095 19.39 9.12516C19.4253 9.02042 20.1958 9.192 20.1453 9.10937C20.0153 8.89568 18.8516 8.68411 19.94 8.05253C20.6658 7.63148 21.9832 8.69832 21.9832 8.69832L21.5242 7.90148L22.1895 7.47885C22.1895 7.47885 21.45 7.60253 21.2347 7.56779C20.5674 7.46042 19.3332 7.43727 19.09 6.702C18.8469 5.96674 18.8137 7.69095 18.8137 7.69095C18.8137 7.69095 18.2579 8.32674 18.4769 8.89516C18.6695 9.39516 18.7379 9.61305 18.8437 10.302C18.859 10.3962 18.8405 10.5404 18.9326 10.4557Z" fill="#D87B00"/>
<path d="M20.8233 11.5722C20.7501 11.5496 20.1307 11.7033 19.4433 11.8448C19.3349 11.8669 19.0964 11.1143 19.0501 11.1996C18.9307 11.419 19.3322 12.5317 18.2391 11.9075C17.5107 11.4911 17.7712 9.81641 17.7712 9.81641L17.3128 10.6132L16.6133 10.2501C16.6133 10.2501 17.0917 10.8269 17.1696 11.0311C17.4117 11.6622 18.0117 12.7411 17.498 13.3201C16.9843 13.8996 18.4917 13.0622 18.4917 13.0622C18.4917 13.0622 19.3212 13.2238 19.7022 12.7485C20.038 12.3306 20.1917 12.1622 20.7343 11.7248C20.8096 11.6659 20.9433 11.6096 20.8233 11.5722Z" fill="#D87B00"/>
<path d="M13.5 0H12.2842L8.42105 2.57368V0H5.05263V2.57368L1.18947 0H0V1.19474L2.42632 2.81053H0V6.17895H2.42632L0 7.79474V9H1.18947L5.05263 6.41053V9H8.42105V6.41053L12.2842 9H13.5V7.79474L11.0474 6.17895H13.5V2.81053H11.0474L13.5 1.19474V0Z" fill="white"/>
<path d="M7.57895 0H5.89474V3.65263H0V5.33684H5.89474V9H7.57895V5.33684H13.5V3.65263H7.57895V0Z" fill="#D80027"/>
<path d="M0 8.99865V8.40391L3.28947 6.1776H4.47895L0.384211 8.99865H0ZM0.384211 0.00390625L4.47895 2.80391H3.28947L0 0.582854V0.00390625H0.384211ZM13.5 0.00390625V0.582854L10.1842 2.80917H8.99474L13.0895 0.00390625H13.5ZM13.0895 8.99865L8.99474 6.1776H10.1842L13.5 8.40391V8.99865H13.0895Z" fill="#D80027"/>
</g>
<rect x="0.5" y="0.5" width="26" height="17" rx="0.5" stroke="black" stroke-opacity="0.2"/>
<defs>
<clipPath id="clip0_109_43910">
<rect width="27" height="18" rx="1" fill="white"/>
</clipPath>
</defs>
</svg>
