<svg width="153" height="98" viewBox="0 0 153 98" fill="none" xmlns="http://www.w3.org/2000/svg">
<rect x="1.5" y="9" width="150" height="80" rx="40" fill="white"/>
<g clip-path="url(#clip0_465_42153)">
<path d="M87.4176 47.3832C86.895 46.2713 86.0542 45.3393 85.0017 44.7055C83.8294 44.0865 82.5238 43.763 81.1982 43.763C79.8726 43.763 78.567 44.0865 77.3948 44.7055C76.3183 45.3217 75.4429 46.2361 74.8741 47.3384C74.2474 48.5853 73.9366 49.9672 73.9691 51.3624C73.9148 52.8394 74.2502 54.3046 74.9415 55.6109C75.5518 56.6909 76.4714 57.5636 77.5818 58.1166C78.7286 58.6688 79.9893 58.943 81.2618 58.9169C82.8188 58.9509 84.3505 58.5185 85.6599 57.6753C86.2827 57.2555 86.8166 56.7171 87.2312 56.0907C87.6457 55.4644 87.9327 54.7625 88.0758 54.0252H83.4459C83.3626 54.5523 83.1228 55.0422 82.7577 55.4314C82.3623 55.772 81.8503 55.9462 81.3291 55.9176C81.0058 55.9208 80.6861 55.8488 80.3953 55.7073C80.1046 55.5658 79.8507 55.3587 79.6537 55.1023C79.1159 54.281 78.8228 53.3238 78.8085 52.3423H88.2478V51.3849C88.2788 50.0052 87.9948 48.6367 87.4176 47.3832ZM78.7785 50.0161C78.7873 49.1551 79.0472 48.3154 79.5265 47.6001C79.7058 47.3375 79.9469 47.123 80.2287 46.9756C80.5104 46.8282 80.8241 46.7524 81.1421 46.7549C81.4627 46.7418 81.7811 46.8138 82.0648 46.9636C82.3486 47.1133 82.5877 47.3355 82.7577 47.6076C83.1876 48.3391 83.4244 49.1679 83.4459 50.0161H78.7785Z" fill="url(#paint0_linear_465_42153)"/>
<path d="M52.4425 57.9146C53.6548 58.6068 55.0337 58.9535 56.4292 58.9169C57.8272 58.9541 59.2086 58.6075 60.4234 57.9146C61.5157 57.2684 62.4067 56.3309 62.9964 55.207C63.592 54.0009 63.9018 52.6739 63.9018 51.3288C63.9018 49.9837 63.592 48.6566 62.9964 47.4506C62.4065 46.3287 61.5155 45.3936 60.4234 44.7504C59.2086 44.0576 57.8272 43.7109 56.4292 43.7481C55.0337 43.7115 53.6548 44.0582 52.4425 44.7504C51.3429 45.3913 50.444 46.3264 49.8471 47.4506C49.2564 48.6581 48.9493 49.9845 48.9493 51.3288C48.9493 52.673 49.2564 53.9995 49.8471 55.207C50.4435 56.3334 51.3424 57.2711 52.4425 57.9146ZM54.6415 48.0863C54.7903 47.7342 55.0396 47.4337 55.3582 47.2224C55.6768 47.0112 56.0506 46.8985 56.4329 46.8985C56.8152 46.8985 57.189 47.0112 57.5077 47.2224C57.8263 47.4337 58.0755 47.7342 58.2243 48.0863C58.6973 49.1005 58.9156 50.2148 58.8601 51.3325C58.9141 52.4501 58.6959 53.5641 58.2243 54.5787C58.0755 54.9309 57.8263 55.2313 57.5077 55.4426C57.189 55.6539 56.8152 55.7665 56.4329 55.7665C56.0506 55.7665 55.6768 55.6539 55.3582 55.4426C55.0396 55.2313 54.7903 54.9309 54.6415 54.5787C54.1671 53.5648 53.9464 52.4507 53.9983 51.3325C53.9449 50.2142 54.1657 49.0998 54.6415 48.0863Z" fill="url(#paint1_linear_465_42153)"/>
<path d="M70.0423 63.2776C70.9896 61.9939 71.4604 60.4203 71.3736 58.8272V44.1221H66.5118V59.4854C66.5118 60.899 65.9583 61.6021 64.8513 61.6021C64.44 61.6058 64.0307 61.5427 63.6396 61.4151L63.0413 64.407C63.4871 64.6004 63.954 64.7409 64.4325 64.8259C64.8893 64.907 65.3522 64.9495 65.8162 64.9531C67.746 64.9331 69.1547 64.3746 70.0423 63.2776Z" fill="url(#paint2_linear_465_42153)"/>
<path d="M30.9085 46.725L34.3416 57.1368H37.5205L40.9238 46.8372L42.0383 58.5429H47.1618L45.0152 39.3725H40.0038L35.9722 51.4148L31.9631 39.3725H26.9592L24.8125 58.5429H29.7641L30.9085 46.725Z" fill="url(#paint3_linear_465_42153)"/>
<path d="M66.2201 39.8886C66.2101 40.2304 66.2714 40.5706 66.4002 40.8874C66.529 41.2042 66.7224 41.4907 66.9681 41.7286C67.4909 42.2192 68.1809 42.4923 68.8979 42.4923C69.6148 42.4923 70.3049 42.2192 70.8276 41.7286C71.0777 41.491 71.2768 41.205 71.4129 40.8881C71.549 40.5711 71.6192 40.2298 71.6192 39.8848C71.6192 39.5399 71.549 39.1986 71.4129 38.8816C71.2768 38.5646 71.0777 38.2787 70.8276 38.0411C70.3049 37.5504 69.6148 37.2773 68.8979 37.2773C68.1809 37.2773 67.4909 37.5504 66.9681 38.0411C66.7218 38.2801 66.5281 38.5679 66.3993 38.886C66.2706 39.2041 66.2095 39.5456 66.2201 39.8886Z" fill="url(#paint4_linear_465_42153)"/>
<path d="M117.772 33.5547C114.563 33.5547 111.698 37.8331 109.821 44.5199C107.951 37.8331 105.086 33.5547 101.877 33.5547C96.2377 33.5547 91.6602 47.7661 91.6602 65.3434H96.2228C96.2228 49.0451 98.7659 35.8285 101.9 35.8285C105.034 35.8285 107.577 48.0279 107.577 63.0771H112.117C112.117 48.0279 114.66 35.8285 117.794 35.8285C120.928 35.8285 123.471 49.0451 123.471 65.3434H128.012C127.989 47.7886 123.411 33.5547 117.772 33.5547Z" fill="#FFBC0D"/>
</g>
<defs>
<linearGradient id="paint0_linear_465_42153" x1="24.8125" y1="51.1152" x2="88.2463" y2="51.1152" gradientUnits="userSpaceOnUse">
<stop offset="0.000616698" stop-color="#910063"/>
<stop offset="0.0362" stop-color="#990059"/>
<stop offset="0.1727" stop-color="#B60035"/>
<stop offset="0.3012" stop-color="#CA001C"/>
<stop offset="0.4172" stop-color="#D7000C"/>
<stop offset="0.5101" stop-color="#DB0007"/>
<stop offset="1" stop-color="#E8720A"/>
</linearGradient>
<linearGradient id="paint1_linear_465_42153" x1="24.8125" y1="51.1152" x2="88.2463" y2="51.1152" gradientUnits="userSpaceOnUse">
<stop offset="0.000616698" stop-color="#910063"/>
<stop offset="0.0362" stop-color="#990059"/>
<stop offset="0.1727" stop-color="#B60035"/>
<stop offset="0.3012" stop-color="#CA001C"/>
<stop offset="0.4172" stop-color="#D7000C"/>
<stop offset="0.5101" stop-color="#DB0007"/>
<stop offset="1" stop-color="#E8720A"/>
</linearGradient>
<linearGradient id="paint2_linear_465_42153" x1="24.8125" y1="51.1152" x2="88.2463" y2="51.1152" gradientUnits="userSpaceOnUse">
<stop offset="0.000616698" stop-color="#910063"/>
<stop offset="0.0362" stop-color="#990059"/>
<stop offset="0.1727" stop-color="#B60035"/>
<stop offset="0.3012" stop-color="#CA001C"/>
<stop offset="0.4172" stop-color="#D7000C"/>
<stop offset="0.5101" stop-color="#DB0007"/>
<stop offset="1" stop-color="#E8720A"/>
</linearGradient>
<linearGradient id="paint3_linear_465_42153" x1="24.8125" y1="51.1152" x2="88.2463" y2="51.1152" gradientUnits="userSpaceOnUse">
<stop offset="0.000616698" stop-color="#910063"/>
<stop offset="0.0362" stop-color="#990059"/>
<stop offset="0.1727" stop-color="#B60035"/>
<stop offset="0.3012" stop-color="#CA001C"/>
<stop offset="0.4172" stop-color="#D7000C"/>
<stop offset="0.5101" stop-color="#DB0007"/>
<stop offset="1" stop-color="#E8720A"/>
</linearGradient>
<linearGradient id="paint4_linear_465_42153" x1="24.8125" y1="51.1152" x2="88.2463" y2="51.1152" gradientUnits="userSpaceOnUse">
<stop offset="0.000616698" stop-color="#910063"/>
<stop offset="0.0362" stop-color="#990059"/>
<stop offset="0.1727" stop-color="#B60035"/>
<stop offset="0.3012" stop-color="#CA001C"/>
<stop offset="0.4172" stop-color="#D7000C"/>
<stop offset="0.5101" stop-color="#DB0007"/>
<stop offset="1" stop-color="#E8720A"/>
</linearGradient>
<clipPath id="clip0_465_42153">
<rect width="103.175" height="31.7887" fill="white" transform="translate(24.8125 33.5547)"/>
</clipPath>
</defs>
</svg>
