<svg width="27" height="18" viewBox="0 0 27 18" fill="none" xmlns="http://www.w3.org/2000/svg">
<g clip-path="url(#clip0_109_43756)">
<path d="M0 0H27V18H0V0Z" fill="white"/>
<path d="M0 0H27V6H0V0Z" fill="#D80027"/>
<path d="M0 12H27V18H0V12Z" fill="#0052B4"/>
<path d="M16.2777 5.9565V3.64071L17.1988 2.88281L18.1303 3.64071V5.9565H16.2777ZM10.7198 5.9565V3.64071L9.80929 2.88281L8.86719 3.64071V5.9565H10.7198ZM12.5725 5.9565V3.64071L13.4988 2.88281L14.4251 3.64071V5.9565H12.5725Z" fill="#338AF3"/>
<path d="M16.2806 5.9565H14.4279V3.64071L15.349 2.88281L16.2806 3.64071V5.9565ZM12.5753 5.9565H10.7227V3.64071L11.6437 2.88281L12.5753 3.64071V5.9565Z" fill="#0052B4"/>
<path d="M8.86719 5.95703V11.3202C8.86719 12.5991 9.62508 13.7518 10.7303 14.4465C11.8514 15.1518 12.9461 15.2202 13.4988 15.2202C14.0514 15.2202 15.1514 15.1307 16.2672 14.4412C17.3725 13.757 18.1303 12.5939 18.1303 11.3202V5.95703H8.86719Z" fill="white"/>
<path fill-rule="evenodd" clip-rule="evenodd" d="M8.84375 5.92969H18.1595V11.3192C18.1595 12.6035 17.3955 13.7745 16.2839 14.4626C15.1624 15.1556 14.0569 15.2455 13.5016 15.2455C12.9467 15.2455 11.8463 15.1768 10.7192 14.4678C9.60787 13.7692 8.84375 12.6089 8.84375 11.3192V5.92969ZM8.89638 5.98232V11.3192C8.89638 12.5873 9.64805 13.7323 10.7472 14.4232C11.8623 15.1247 12.9513 15.1928 13.5016 15.1928C14.0516 15.1928 15.1462 15.1038 16.2562 14.4178C17.3552 13.7375 18.1069 12.5822 18.1069 11.3192V5.98232H8.89638Z" fill="#D80027"/>
<path d="M8.86719 5.95703H10.7198V7.80966H8.86719V5.95703ZM12.5725 5.95703H14.4251V7.80966H12.5725V5.95703ZM16.2777 5.95703H18.1303V7.80966H16.2777V5.95703ZM10.7198 7.80966H12.5725V9.66229H10.7198V7.80966ZM14.4251 7.80966H16.2777V9.66229H14.4251V7.80966ZM8.86719 9.66229H10.7198V11.5149H8.86719V9.66229ZM10.7198 11.5149H12.5725V13.3676H10.7198V11.5149ZM12.5725 9.66229H14.4251V11.5149H12.5725V9.66229ZM16.2777 9.66229H18.1303V11.5149H16.2777V9.66229ZM14.4251 11.5149H16.2777V13.3676H14.4251V11.5149ZM16.2777 14.436C16.7303 14.1518 17.1303 13.7886 17.4356 13.3676H16.2777V14.436ZM9.56192 13.3676C9.86719 13.7886 10.2619 14.1518 10.7198 14.4412V13.3676H9.56192ZM12.5725 13.3676V15.1412C12.9514 15.2044 13.2725 15.2202 13.4988 15.2202C13.7251 15.2202 14.0461 15.2044 14.4251 15.136V13.3676H12.5725Z" fill="#D80027"/>
</g>
<rect x="0.5" y="0.5" width="26" height="17" rx="0.5" stroke="black" stroke-opacity="0.2"/>
<defs>
<clipPath id="clip0_109_43756">
<rect width="27" height="18" rx="1" fill="white"/>
</clipPath>
</defs>
</svg>
