<svg width="27" height="18" viewBox="0 0 27 18" fill="none" xmlns="http://www.w3.org/2000/svg">
<g clip-path="url(#clip0_109_43698)">
<path d="M0 0H27V17.9996H0V0Z" fill="#FFDA44"/>
<path d="M0 0H27V5.99985H0V0ZM0 11.9998H27V17.9996H0V11.9998Z" fill="#6DA544"/>
<path d="M13.5 9.00043L0 18.0002V0L13.5 9.00043Z" fill="#D80027"/>
<path d="M15.927 7.43359L16.3156 8.62929H17.5729L16.5557 9.36842L16.9442 10.5641L15.927 9.82505L14.9099 10.5641L15.2984 9.36842L14.2812 8.62929H15.5385L15.927 7.43359ZM19.8401 7.43359L20.2286 8.62929H21.4859L20.4687 9.36842L20.8572 10.5641L19.8401 9.82505L18.8229 10.5641L19.2114 9.36842L18.1943 8.62929H19.4516L19.8401 7.43359Z" fill="black"/>
</g>
<rect x="0.5" y="0.5" width="26" height="17" rx="0.5" stroke="black" stroke-opacity="0.2"/>
<defs>
<clipPath id="clip0_109_43698">
<rect width="27" height="18" rx="1" fill="white"/>
</clipPath>
</defs>
</svg>
