<svg width="27" height="18" viewBox="0 0 27 18" fill="none" xmlns="http://www.w3.org/2000/svg">
<g clip-path="url(#clip0_109_43843)">
<path d="M0 0H27V18H0V0Z" fill="white"/>
<path d="M0 18H27V0L0 18Z" fill="#012A87"/>
<path d="M13.2047 0H0V8.80223L13.2047 0Z" fill="#F9D90F"/>
<path d="M7.4041 6.23828L8.04746 7.35636H9.33945L8.69082 8.46916L9.33945 9.58724H8.04746L7.4041 10.7053L6.76074 9.58724H5.46875L6.11738 8.46916L5.46875 7.35636H6.76074L7.4041 6.23828Z" fill="#DC171D"/>
<path fill-rule="evenodd" clip-rule="evenodd" d="M7.40462 5.66514C5.85494 5.66514 4.59868 6.92152 4.59868 8.47134C4.59868 10.0212 5.85494 11.2775 7.40462 11.2775C8.95429 11.2775 10.2105 10.0212 10.2105 8.47134C10.2105 6.92152 8.95429 5.66514 7.40462 5.66514ZM4.125 8.47134C4.125 6.65988 5.59333 5.19141 7.40462 5.19141C9.2159 5.19141 10.6842 6.65988 10.6842 8.47134C10.6842 10.2828 9.2159 11.7513 7.40462 11.7513C5.59333 11.7513 4.125 10.2828 4.125 8.47134Z" fill="black"/>
</g>
<rect x="0.5" y="0.5" width="26" height="17" rx="0.5" stroke="black" stroke-opacity="0.2"/>
<defs>
<clipPath id="clip0_109_43843">
<rect width="27" height="18" rx="1" fill="white"/>
</clipPath>
</defs>
</svg>
