<svg width="44" height="44" viewBox="0 0 44 44" fill="none" xmlns="http://www.w3.org/2000/svg">
<path d="M34 42C34 43.1046 28.6274 44 22 44C15.3726 44 10 43.1046 10 42C10 40.8954 15.3726 40 22 40C28.6274 40 34 40.8954 34 42Z" fill="#A0A09F" fill-opacity="0.15"/>
<path fill-rule="evenodd" clip-rule="evenodd" d="M22 42.0526C23.0724 42.0526 37 30.6492 37 16.1599C37 7.78735 30.2844 1 22 1C13.7158 1 7 7.78735 7 16.1599C7 30.6492 20.9278 42.0526 22 42.0526Z" fill="#DB0007"/>
<path fill-rule="evenodd" clip-rule="evenodd" d="M25.3607 10.6944C26.6864 10.6944 27.7608 16.4439 27.7608 23.5367H29.6827C29.6827 15.8991 27.7467 9.70703 25.3607 9.70703C24.0034 9.70703 22.791 11.5674 21.9996 14.4777C21.2069 11.5674 19.9958 9.70703 18.6385 9.70703C16.2512 9.70703 14.3164 15.8991 14.3164 23.5367H16.2372C16.2372 16.4439 17.3127 10.6944 18.6385 10.6944C19.9642 10.6944 21.0398 16.0025 21.0398 22.5482H22.9605C22.9605 16.0025 24.0349 10.6944 25.3607 10.6944Z" fill="#FFBC0D"/>
<path fill-rule="evenodd" clip-rule="evenodd" d="M22.4934 42.954C22.4018 42.9889 22.2185 43.0526 22 43.0526C21.7815 43.0526 21.5982 42.9888 21.5066 42.954C21.3937 42.9109 21.2822 42.8564 21.179 42.8005C20.9712 42.6881 20.7316 42.5347 20.4722 42.3522C19.9501 41.9849 19.2879 41.4575 18.5393 40.7917C17.0402 39.4583 15.156 37.5356 13.3077 35.1526C9.62507 30.4046 6 23.7179 6 16.1599C6 7.24509 13.1536 0 22 0C30.8467 0 38 7.2451 38 16.1599C38 23.7179 34.375 30.4046 30.6923 35.1526C28.8441 37.5356 26.9599 39.4583 25.4608 40.7917C24.7121 41.4575 24.05 41.9849 23.5278 42.3522C23.2685 42.5347 23.0289 42.6881 22.821 42.8006C22.7178 42.8564 22.6063 42.911 22.4934 42.954ZM37 16.1599C37 30.6492 23.0724 42.0526 22 42.0526C20.9278 42.0526 7 30.6492 7 16.1599C7 7.78735 13.7158 1 22 1C30.2844 1 37 7.78735 37 16.1599Z" fill="white"/>
</svg>
