<svg width="136" height="136" viewBox="0 0 136 136" fill="none" xmlns="http://www.w3.org/2000/svg">
<path fill-rule="evenodd" clip-rule="evenodd" d="M83.8985 116.928C56.8771 125.708 27.8545 110.92 19.0747 83.8985C10.2949 56.8771 25.0827 27.8545 52.1041 19.0747C79.1255 10.2949 108.148 25.0827 116.928 52.1041C125.708 79.1255 110.92 108.148 83.8985 116.928Z" fill="white"/>
<path fill-rule="evenodd" clip-rule="evenodd" d="M85.3002 121.245C55.894 130.799 24.3099 114.707 14.7552 85.3003C5.20053 55.894 21.2934 24.3099 50.6997 14.7552C80.106 5.20053 111.69 21.2934 121.245 50.6997C130.799 80.106 114.707 111.69 85.3002 121.245ZM19.0734 83.8972C27.8532 110.919 56.8758 125.706 83.8972 116.927C110.919 108.147 125.706 79.1242 116.927 52.1028C108.147 25.0814 79.1242 10.2936 52.1028 19.0734C25.0814 27.8532 10.2936 56.8758 19.0734 83.8972Z" fill="#FFBC0D"/>
<path fill-rule="evenodd" clip-rule="evenodd" d="M80.8434 45.115C85.9821 45.2495 89.5786 67.0228 88.8789 93.7455L96.326 93.9405C97.0796 65.1599 90.1905 41.6346 80.9409 41.3923C75.678 41.2545 70.7994 48.1445 67.4429 59.0273C64.6605 47.9838 60.1492 40.8479 54.8864 40.7101C45.639 40.4679 37.5258 63.6004 36.7722 92.3811L44.2193 92.5761C44.919 65.8533 49.6525 44.2982 54.7889 44.4327C59.9276 44.5673 63.5701 64.6736 62.9242 89.3407L70.369 89.5357C71.0149 64.8685 75.7047 44.9804 80.8434 45.115Z" fill="#FFBC0D"/>
</svg>
