<svg width="27" height="18" viewBox="0 0 27 18" fill="none" xmlns="http://www.w3.org/2000/svg">
<g clip-path="url(#clip0_109_43748)">
<path d="M0 0H27V18H0V0Z" fill="white"/>
<path d="M0 0H27V6H0V0Z" fill="#CE1126"/>
<path d="M0 12H27V18H0V12Z" fill="black"/>
<path d="M11.5371 8.45905H9.99498C10.0739 8.15905 10.3424 7.938 10.6687 7.938V6.89062C9.70551 6.89062 8.92656 7.67484 8.92656 8.63274V9.50116H11.5371C11.6318 9.50116 11.7108 9.58011 11.7108 9.67485V10.0222H8.22656V11.0696H12.7581V9.67485C12.7581 9.00642 12.2108 8.45905 11.5371 8.45905ZM14.1476 10.0275V6.89062H13.1055V11.0749H14.8476V10.0275H14.1476ZM17.6318 10.0275V6.89062H16.5897V10.0275H16.2424V8.98537H15.195V11.0749H18.3318V10.0275H17.6318Z" fill="#547C31"/>
</g>
<rect x="0.5" y="0.5" width="26" height="17" rx="0.5" stroke="black" stroke-opacity="0.2"/>
<defs>
<clipPath id="clip0_109_43748">
<rect width="27" height="18" rx="1" fill="white"/>
</clipPath>
</defs>
</svg>
