<svg width="27" height="18" viewBox="0 0 27 18" fill="none" xmlns="http://www.w3.org/2000/svg">
<g clip-path="url(#clip0_109_43855)">
<path d="M0 0H27V18H0V0Z" fill="#C8102E"/>
<path d="M0 0.00390625H13.5V9.0039H0V0.00390625Z" fill="#012169"/>
<path d="M13.4737 0H12.2842L8.42105 2.57368V0H5.05263V2.57368L1.18947 0H0V1.19474L2.42632 2.81053H0V6.17895H2.42632L0 7.79474V8.98421H1.18947L5.05263 6.41053V8.98421H8.42105V6.41053L12.2842 8.98421H13.4737V7.79474L11.0474 6.17895H13.4737V2.81053H11.0474L13.4737 1.19474V0Z" fill="white"/>
<path d="M7.57895 0H5.89474V3.65263H0V5.33684H5.89474V8.98421H7.57895V5.33684H13.4737V3.65263H7.57895V0Z" fill="#C8102E"/>
<path d="M0 8.98286V8.40391L3.28947 6.1776H4.47895L0.384211 8.98286H0ZM0.384211 0.00390625L4.47895 2.80391H3.28947L0 0.582854V0.00390625H0.384211ZM13.4737 0.00390625V0.582854L10.1842 2.80917H8.99474L13.0895 0.00390625H13.4737ZM13.0895 8.98286L8.99474 6.1776H10.1842L13.4737 8.40391V8.98286H13.0895Z" fill="#C8102E"/>
<path d="M16.6797 5.26172V10.5086C16.6797 13.6565 20.8771 15.7554 20.8771 15.7554C20.8771 15.7554 25.0744 13.6565 25.0744 10.5086V5.26172H16.6797Z" fill="white"/>
<path d="M23.651 13.6562H18.1016C19.3189 14.9762 20.8763 15.7552 20.8763 15.7552C20.8763 15.7552 22.4337 14.9762 23.651 13.6562Z" fill="#2F8F22"/>
<path d="M20.8763 13.6549C22.0355 13.6549 22.9752 12.7152 22.9752 11.556C22.9752 10.3968 22.0355 9.45703 20.8763 9.45703C19.7171 9.45703 18.7773 10.3968 18.7773 11.556C18.7773 12.7152 19.7171 13.6549 20.8763 13.6549Z" fill="#65B5D2"/>
<path d="M18.7799 11.5599C19.3596 11.5599 19.8294 11.09 19.8294 10.5104C19.8294 9.9308 19.3596 9.46094 18.7799 9.46094C18.2003 9.46094 17.7305 9.9308 17.7305 10.5104C17.7305 11.09 18.2003 11.5599 18.7799 11.5599Z" fill="#C8102E"/>
<path d="M22.9753 11.5599C23.5549 11.5599 24.0247 11.09 24.0247 10.5104C24.0247 9.9308 23.5549 9.46094 22.9753 9.46094C22.3956 9.46094 21.9258 9.9308 21.9258 10.5104C21.9258 11.09 22.3956 11.5599 22.9753 11.5599Z" fill="#C8102E"/>
<path d="M20.8776 9.45834C21.4572 9.45834 21.9271 8.98847 21.9271 8.40886C21.9271 7.82924 21.4572 7.35938 20.8776 7.35938C20.298 7.35938 19.8281 7.82924 19.8281 8.40886C19.8281 8.98847 20.298 9.45834 20.8776 9.45834Z" fill="#C8102E"/>
</g>
<rect x="0.5" y="0.5" width="26" height="17" rx="0.5" stroke="black" stroke-opacity="0.2"/>
<defs>
<clipPath id="clip0_109_43855">
<rect width="27" height="18" rx="1" fill="white"/>
</clipPath>
</defs>
</svg>
