<svg width="27" height="18" viewBox="0 0 27 18" fill="none" xmlns="http://www.w3.org/2000/svg">
<g clip-path="url(#clip0_109_43835)">
<path d="M0 0H27V18H0V0Z" fill="#003E87"/>
<path d="M13.7584 15.2836C17.2213 15.2836 20.0285 12.4761 20.0285 9.01292C20.0285 5.54969 17.2213 2.74219 13.7584 2.74219C10.2955 2.74219 7.48828 5.54969 7.48828 9.01292C7.48828 12.4761 10.2955 15.2836 13.7584 15.2836Z" fill="white"/>
<path fill-rule="evenodd" clip-rule="evenodd" d="M13.8126 4.61934C11.3219 4.61934 9.30284 6.6386 9.30284 9.12949C9.30284 11.6204 11.3219 13.6396 13.8126 13.6396C16.3032 13.6396 18.3223 11.6204 18.3223 9.12949C18.3223 6.6386 16.3032 4.61934 13.8126 4.61934ZM8.35547 9.12949C8.35547 6.11533 10.7987 3.67188 13.8126 3.67188C16.8264 3.67188 19.2696 6.11533 19.2696 9.12949C19.2696 12.1436 16.8264 14.5871 13.8126 14.5871C10.7987 14.5871 8.35547 12.1436 8.35547 9.12949Z" fill="#6DA544"/>
<path d="M13.8129 7.99219L11.1445 9.22629V10.2811C11.1445 10.9034 11.4662 11.4835 11.9988 11.8053L13.8182 12.6069L15.6375 11.8053C16.1648 11.4783 16.4918 10.9034 16.4918 10.2811V9.22629L13.8129 7.99219Z" fill="#003E87"/>
<path fill-rule="evenodd" clip-rule="evenodd" d="M13.8118 7.96094L16.5171 9.20718V10.2788C16.5171 10.9105 16.1853 11.4937 15.6503 11.8254L15.6488 11.8263L13.8171 12.6334L11.9856 11.8264L11.9842 11.8255C11.4435 11.499 11.1172 10.9102 11.1172 10.2788V9.20721L13.8118 7.96094ZM13.8119 8.01891L11.1698 9.24086V10.2788C11.1698 10.8915 11.4862 11.4626 12.01 11.7796L13.8171 12.5759L15.6242 11.7797C16.143 11.4572 16.4645 10.8912 16.4645 10.2788V9.24089L13.8119 8.01891Z" fill="black"/>
<path d="M11.1445 6.75781H16.4865V9.22075H11.1445V6.75781Z" fill="#FFDA44"/>
<path fill-rule="evenodd" clip-rule="evenodd" d="M11.1172 6.73047H16.5118V9.24604H11.1172V6.73047ZM11.1698 6.78311V9.1934H16.4592V6.78311H11.1698Z" fill="black"/>
<path d="M0 0H27V1.84588H0V0ZM0 16.1383H27V17.9842H0V16.1383Z" fill="#CE1127"/>
</g>
<rect x="0.5" y="0.5" width="26" height="17" rx="0.5" stroke="black" stroke-opacity="0.2"/>
<defs>
<clipPath id="clip0_109_43835">
<rect width="27" height="18" rx="1" fill="white"/>
</clipPath>
</defs>
</svg>
