<svg width="376" height="226" viewBox="0 0 376 226" fill="none" xmlns="http://www.w3.org/2000/svg">
<g clip-path="url(#clip0_17_28623)">
<path d="M167.25 34.7079C169.197 34.186 171.223 35.3543 171.745 37.3014L171.746 37.3023L200.533 144.496L200.577 144.679C200.982 146.57 199.826 148.488 197.942 148.993L197.941 148.994L131.201 166.917C129.255 167.439 127.229 166.271 126.707 164.324L126.707 164.323L97.9191 57.1294L97.8752 56.9468C97.4707 55.0554 98.6259 53.1376 100.51 52.6324L100.511 52.6322L167.25 34.7079Z" fill="white" stroke="#D8D8D8" stroke-width="2"/>
<path d="M131.619 143.458C130.365 143.794 129.046 142.934 128.672 141.539C128.298 140.143 129.011 138.739 130.264 138.403L182.788 124.329C184.042 123.993 185.361 124.852 185.735 126.248C186.109 127.644 185.396 129.048 184.143 129.384L131.619 143.458Z" fill="#F1F1F1"/>
<path d="M133.337 152.481C132.446 152.72 131.42 151.782 131.046 150.386C130.672 148.99 131.091 147.665 131.982 147.426L169.333 137.418C170.224 137.179 171.25 138.117 171.624 139.513C171.998 140.909 171.579 142.234 170.688 142.473L133.337 152.481Z" fill="#F1F1F1"/>
<g style="mix-blend-mode:multiply">
<ellipse cx="24.2221" cy="2.46313" rx="24.2221" ry="2.46313" transform="matrix(0.96721 -0.259171 0.259216 0.967198 126.684 114.21)" fill="#F1F1F1"/>
</g>
<path fill-rule="evenodd" clip-rule="evenodd" d="M130.31 110.261C131.038 112.979 133.681 114.718 136.453 114.232C140.294 113.558 145.841 112.483 150.966 111.11C155.775 109.821 160.325 108.24 163.529 107.043C166.179 106.053 167.573 103.205 166.841 100.472L130.31 110.261Z" fill="#E89700"/>
<path d="M132.01 109.142L132.069 109.152C134.581 109.624 134.834 108.163 136.53 107.77C137.225 107.609 137.833 107.611 138.316 107.672L138.36 107.621C138.409 107.567 138.464 107.513 138.524 107.459L138.953 107.343L139.281 107.252C139.728 107.127 140.208 106.989 140.725 106.836L140.987 106.757L141.315 106.657C141.637 106.56 142.075 106.437 142.493 106.357L142.523 106.357C142.633 106.384 142.738 106.418 142.838 106.46C143.04 106.544 143.226 106.631 143.402 106.709C143.815 106.534 144.177 106.403 144.562 106.177C145.109 106.135 145.608 106.125 146.068 106.144C146.928 106.179 151.285 104.476 153.602 103.848L154.161 103.614C155.385 103.107 156.407 102.715 156.622 102.573L156.635 102.564C156.731 102.495 156.831 102.428 156.934 102.365L157.08 102.373L157.231 102.38C158.381 102.419 159.793 102.279 161.649 101.513C162.07 101.339 162.556 101.241 163.07 101.201C163.486 100.727 163.928 100.904 164.332 100.718C164.88 100.465 165.027 100.175 165.869 99.8836C167.019 99.4854 167.934 101.032 168.273 101.52C168.611 102.008 168.479 101.685 168.141 101.737C167.803 101.789 167.607 101.611 167.211 101.684C165.533 101.995 166.247 104.048 164.336 104.946C163.306 105.431 161.824 104.604 161.346 104.64C160.869 104.676 160.532 105.139 160.079 105.268C157.939 105.88 156.453 105.067 154.586 105.321L154.63 105.221C154.656 105.163 154.683 105.105 154.71 105.046C154.759 104.941 154.429 105.025 153.907 105.198L153.612 105.471C152.337 106.64 150.758 108 151.188 108.386C150.385 108.746 149.492 108.961 148.468 109.186C147.477 109.403 146.297 108.899 145.501 109.019C144.11 109.228 140.799 111.15 140.799 111.15C140.799 111.15 140.807 110.21 140.17 110.059C139.295 109.85 137.307 110.34 137.094 110.699C136.88 111.058 136.614 111.341 136.195 111.456C135.162 111.739 134.74 111.322 134.2 111.346C133.631 111.372 133.416 111.628 132.68 111.907C131.859 112.218 131.604 111.717 131.558 111.255L131.556 111.227C131.441 109.825 129.501 111.332 129.619 110.79C129.737 110.248 130.853 108.958 132.01 109.142Z" fill="#9CC93A"/>
<path fill-rule="evenodd" clip-rule="evenodd" d="M143.704 105.988C150.685 105.22 153.099 102.906 156.226 101.723C158.272 100.949 160.285 100.551 161.926 100.512C161.944 100.512 162.602 100.432 162.96 100.359C163.601 100.227 164.274 100.046 164.981 99.8172C164.981 99.8172 165.914 99.4467 166.435 99.245C166.956 99.0433 167.411 99.0167 167.639 99.519C167.815 99.907 167.591 100.165 167.204 100.341C166.817 100.517 164.338 100.724 158.085 102.729C151.833 104.733 154.307 112.052 152.21 110.062C150.037 107.999 146.562 106.95 144.11 106.836C141.659 106.722 135.977 108.811 134.211 109.225C132.444 109.639 131.904 109.597 131.12 109.626C130.336 109.654 130.396 109.788 130.283 109.368C130.182 108.989 130.455 108.735 130.837 108.698C131.05 108.677 131.772 108.73 134.54 108.068C136.734 107.544 140.617 106.327 143.704 105.988Z" fill="#FFBC0D"/>
<path fill-rule="evenodd" clip-rule="evenodd" d="M164.021 95.2639C165.083 94.9794 166.175 95.611 166.46 96.6747L166.751 97.8672C166.751 97.8672 165.903 98.5292 162.893 99.2462C159.884 99.9632 157.97 99.724 155.928 100.495C152.806 101.672 151.91 103.204 145.728 104.277C139.546 105.35 130.396 107.856 130.396 107.856L129.929 106.464C129.643 105.4 130.273 104.307 131.335 104.023C138.637 101.648 144.158 99.9575 147.898 98.9509C151.639 97.9442 156.872 96.7572 164.021 95.2639Z" fill="#73371F"/>
<path fill-rule="evenodd" clip-rule="evenodd" d="M128.757 100.497C128.664 100.15 128.87 99.7938 129.217 99.701L164.673 90.2C164.92 90.1338 165.174 90.2805 165.24 90.5278C165.884 92.929 164.414 95.387 161.996 95.9637C157.706 96.9868 151.37 98.5163 148.043 99.4077C144.668 100.312 138.283 102.196 134.056 103.456C131.771 104.137 129.374 102.8 128.757 100.497Z" fill="#E89700"/>
<path d="M139.284 95.8318L139.473 95.7615C141.885 94.8434 141.541 94.2274 142.82 93.8637C143.399 93.699 143.884 93.7812 144.335 93.9616C145.21 92.9978 146.175 92.1446 147.515 91.8154C148.575 91.5551 149.917 92.2288 150.774 92.0906C152.272 91.8486 154.71 90.2516 155.5 89.0488C155.557 88.9616 155.68 89.05 155.683 89.1816L155.69 89.4598C155.708 90.0108 155.788 90.6512 156.489 90.8571C157.466 91.1436 158.697 90.769 159.783 90.0928C159.98 89.6342 160.241 89.2741 160.687 89.1344C161.786 88.7902 162.289 89.3367 162.877 89.3164L162.943 89.3132C163.637 89.2713 164.519 88.9161 165.229 89.9814C165.94 91.0466 167.775 89.9607 167.775 89.9607C167.775 89.9607 166.775 92.4701 165.489 92.2031L165.432 92.1905C162.638 91.5303 162.513 93.411 160.702 93.8832C159.959 94.0768 159.295 94.0628 158.762 93.9742C158.228 93.8855 155.476 96.2004 153.948 95.4465L153.768 95.3558C152.906 94.9123 152.292 94.4913 151.54 94.936C151.09 95.2017 150.612 95.8559 149.139 96.1533C148.19 96.3452 147.172 95.9334 146.295 95.5707C145.716 96.0134 145.295 95.9891 144.8 97.1787L144.769 97.253C144.386 98.2055 143.991 98.6154 143.128 98.4641L143.072 98.4537C141.728 98.1873 141.46 99.3902 139.83 99.7224C138.751 99.9421 137.185 98.0962 134.779 99.5739C134.354 99.8341 133.761 99.8055 133.138 99.6217C132.942 100.103 132.839 100.566 132.757 100.895C132.334 102.611 131.494 101.772 130.933 102.046L130.91 102.058C130.355 102.363 130.02 102.186 129.191 102.501L129.109 102.533C127.894 103.024 126.787 102.837 126.299 101.903C126.217 101.747 125.425 100.425 125.883 100.844C126.34 101.263 126.888 100.277 127.313 100.19C129.114 99.8234 127.437 98.4043 129.43 97.2836C130.409 96.733 132.367 96.9853 133.526 97.3345L133.812 96.7702C134.146 96.1232 134.541 95.4589 135.095 95.2691C136.596 94.7546 137.892 96.3407 139.284 95.8318Z" fill="#9CC93A"/>
<path fill-rule="evenodd" clip-rule="evenodd" d="M129.279 93.939C131.069 93.4593 139.308 90.6132 144.732 89.1597C150.222 87.6885 159.383 85.6591 160.965 85.4481C162.546 85.2371 163.018 85.404 163.305 86.476C163.592 87.5481 163.36 86.6834 163.648 87.7554C163.935 88.8274 163.199 89.5305 162.136 89.8156L129.392 98.5898C128.328 98.8748 126.944 97.5554 127.107 96.1759C127.27 94.7964 127.489 94.4186 129.279 93.939Z" fill="#73371F"/>
<path d="M127.717 98.1905C128.018 97.9936 128.518 97.9759 131.829 97.5133C133.127 97.332 135.161 96.9089 138.292 95.994C140.485 95.3532 143.949 94.3869 150.257 92.5757C156.565 90.7644 159.45 90.1423 161.474 89.5701C163.497 88.998 163.358 87.7912 164.625 88.5133C165.892 89.2354 163.872 89.6288 161.886 90.3088C159.9 90.9889 159.876 90.4176 153.22 92.4186C146.565 94.4196 143.943 95.9318 140.867 96.7903C135.07 98.4078 132.884 97.4431 129.638 98.9497C126.392 100.456 127.417 98.3875 127.717 98.1905Z" fill="#EDC8A3"/>
<path fill-rule="evenodd" clip-rule="evenodd" d="M162.348 82.0971C162.568 82.9213 162.874 84.0594 161.689 84.4015C160.492 84.6977 150.483 86.3185 144.745 87.8785C139.239 89.3319 129.474 92.7984 127.938 93.447C126.404 94.0458 126.298 92.8545 126.122 92.2314C124.303 85.414 132.995 78.7925 141.857 76.3115C150.728 73.832 160.574 75.4807 162.348 82.0971Z" fill="white"/>
<path d="M141.853 76.3115C150.724 73.832 160.57 75.4811 162.344 82.0976C162.565 82.9217 162.87 84.06 161.685 84.4022C160.489 84.6984 150.479 86.3193 144.742 87.8792C139.235 89.3327 129.471 92.7991 127.935 93.4477C126.401 94.0465 126.295 92.8546 126.119 92.2314C124.3 85.414 132.991 78.7925 141.853 76.3115ZM128.095 90.56C127.815 90.4344 127.484 90.5478 127.355 90.814C127.226 91.0804 127.35 91.3989 127.63 91.5249C127.91 91.6509 129.06 91.7575 129.13 91.6128C129.199 91.4673 128.375 90.6859 128.095 90.56ZM151.446 83.3238C151.316 83.4468 151.855 84.5266 152.094 84.7517C152.332 84.9768 152.72 84.9763 152.958 84.7509C153.196 84.5254 153.195 84.1594 152.957 83.9342C152.717 83.7089 151.575 83.2014 151.446 83.3238ZM134.109 87.545C133.8 87.6849 133.665 88.0384 133.807 88.3345C133.95 88.6306 134.844 89.4978 135.012 89.4219C135.18 89.3458 135.069 88.1244 134.927 87.8279C134.784 87.5321 134.418 87.4052 134.109 87.545ZM145.499 84.8334C145.22 84.7075 144.888 84.8212 144.76 85.0874C144.631 85.3537 144.754 85.6726 145.033 85.7986C145.313 85.9245 146.462 86.0305 146.534 85.8864C146.604 85.7417 145.78 84.9597 145.499 84.8334ZM158.977 80.5764C158.711 80.4478 158.392 80.5701 158.266 80.85C158.14 81.13 158.034 82.2813 158.178 82.3515C158.324 82.4204 159.105 81.5961 159.231 81.3162C159.357 81.0363 159.243 80.7052 158.977 80.5764ZM141.116 85.7542C140.89 85.5159 140.525 85.516 140.3 85.7542C140.074 85.9931 139.566 87.137 139.689 87.2665C139.813 87.3945 140.891 86.856 141.116 86.6176C141.341 86.3791 141.341 85.9926 141.116 85.7542ZM152.961 79.7308C152.815 79.6619 152.034 80.4862 151.908 80.7662C151.782 81.0461 151.896 81.3771 152.162 81.506C152.428 81.6345 152.747 81.5122 152.873 81.2323C152.999 80.9523 153.105 79.8013 152.961 79.7308ZM129.467 86.1489C129.187 86.0232 128.856 86.1376 128.727 86.4038C128.599 86.6702 128.721 86.988 129 87.1141C129.281 87.2402 130.431 87.3467 130.501 87.202C130.57 87.0565 129.747 86.2749 129.467 86.1489ZM146.903 80.0655C146.574 80.1537 146.375 80.4788 146.459 80.792C146.543 81.1052 147.255 82.0972 147.434 82.0512C147.613 82.0028 147.734 80.7863 147.65 80.4728C147.566 80.1599 147.232 79.9778 146.903 80.0655ZM135.424 84.0796C135.143 83.9538 133.994 83.8476 133.923 83.9918C133.854 84.1372 134.678 84.9185 134.958 85.0446C135.238 85.1703 135.569 85.0561 135.698 84.7897C135.826 84.5233 135.703 84.2055 135.424 84.0796ZM142.434 81.0568C142.26 81.0164 141.525 82.0278 141.431 82.342C141.337 82.6562 141.52 82.9726 141.839 83.0486C142.158 83.1242 142.493 82.9313 142.587 82.6174C142.681 82.3033 142.607 81.0997 142.434 81.0568ZM149.032 76.5248C148.723 76.6647 148.587 77.0182 148.73 77.3143C148.873 77.6105 149.767 78.4774 149.935 78.4017C150.102 78.3248 149.992 77.1045 149.85 76.8077C149.707 76.5117 149.341 76.3851 149.032 76.5248ZM135.979 79.8002C135.651 79.8884 135.453 80.2134 135.536 80.5264C135.62 80.8397 136.333 81.8334 136.511 81.7856C136.69 81.7367 136.811 80.5204 136.727 80.2072C136.643 79.8945 136.308 79.7124 135.979 79.8002ZM141.043 77.7285C140.762 77.6025 140.432 77.7169 140.303 77.9834C140.175 78.2498 140.297 78.5676 140.576 78.6937C140.857 78.8196 142.007 78.9259 142.077 78.7815C142.147 78.6368 141.323 77.8552 141.043 77.7285Z" fill="#E89700"/>
<ellipse cx="188.505" cy="201.906" rx="65.8423" ry="10.0195" fill="#A0A09F" fill-opacity="0.15"/>
<path d="M226.441 32.5433C228.457 32.5433 230.112 34.1971 230.112 36.2132L230.168 147.208L230.163 147.396C230.065 149.328 228.452 150.881 226.501 150.881L226.5 150.881L157.393 150.917L157.205 150.912C155.275 150.813 153.722 149.2 153.722 147.248L152.721 147.248L153.722 147.247L153.665 36.2513L153.67 36.0636C153.769 34.132 155.381 32.5787 157.332 32.5785L157.333 32.5785L226.441 32.5433Z" fill="white" stroke="#D8D8D8" stroke-width="2"/>
<ellipse cx="189.906" cy="106.767" rx="19.672" ry="2.87882" fill="#A0A09F" fill-opacity="0.15"/>
<mask id="path-18-outside-1_17_28623" maskUnits="userSpaceOnUse" x="171.11" y="61.5819" width="37.0493" height="47.0626" fill="black">
<rect fill="white" x="171.11" y="61.5819" width="37.0493" height="47.0626"/>
<path d="M186.184 63.5953C186.465 66.1618 186.661 68.704 186.776 71.2324C186.978 69.0897 187.209 66.9449 187.471 64.7981C188.639 64.9536 190.284 66.0737 190.232 66.5162C189.374 73.891 189.624 75.6602 189.624 75.6602C190.243 73.3685 190.255 72.0379 190.704 69.7979C191.099 69.482 192.189 69.0479 193.196 69.0704C193.171 68.6613 193.119 67.9558 193.09 67.5449C193.341 66.6423 194.701 65.967 196.164 65.8503C196.424 68.9857 196.482 70.7319 196.596 73.7504C196.711 72.0863 196.873 71.0255 197.178 69.1124C197.642 68.2785 199.146 68.0882 200.302 68.3213C199.739 71.6726 199.548 73.469 199.416 76.7075C200.087 74.1024 200.366 73.1622 200.647 70.6017C201.669 70.699 202.72 70.9875 203.227 71.5512C203.425 70.8286 203.539 70.4525 203.724 69.7246C203.832 69.2989 205.463 68.9972 206.7 69.3422C206.22 72.4606 205.741 74.6198 204.781 77.7381L204.525 78.6984H205.74C205.732 78.762 204.895 85.3505 203.565 92.012C202.235 98.6706 200.442 105.257 200.423 105.327L198.489 106.766C198.477 106.762 194.613 105.327 189.786 105.327C184.951 105.327 181.325 106.766 181.325 106.766L179.392 105.327C179.377 105.272 177.566 98.6055 176.249 92.012C174.933 85.423 174.081 78.7615 174.073 78.6984H175.469L175.033 77.7381L174.784 77.1553C174.2 75.8247 173.593 74.6868 173.115 73.2273C173.05 73.0304 174.493 70.8527 175.626 70.5303C176.173 72.2993 176.775 74.0177 177.423 75.7003C177.147 73.1399 176.443 70.5362 175.812 67.938C176.951 67.6353 179.001 68.2523 179.047 68.4543C179.795 71.7743 180.212 72.8166 180.795 76.0973C180.661 73.3859 180.581 72.4789 180.168 70.4071C180.083 69.9759 181.747 68.7343 182.913 68.6469C183.328 70.4991 183.517 71.6334 183.97 74.7077C183.943 71.3204 183.933 70.5184 183.435 65.4581C183.392 65.021 185.295 63.4391 186.184 63.5953Z"/>
</mask>
<path d="M186.184 63.5953C186.465 66.1618 186.661 68.704 186.776 71.2324C186.978 69.0897 187.209 66.9449 187.471 64.7981C188.639 64.9536 190.284 66.0737 190.232 66.5162C189.374 73.891 189.624 75.6602 189.624 75.6602C190.243 73.3685 190.255 72.0379 190.704 69.7979C191.099 69.482 192.189 69.0479 193.196 69.0704C193.171 68.6613 193.119 67.9558 193.09 67.5449C193.341 66.6423 194.701 65.967 196.164 65.8503C196.424 68.9857 196.482 70.7319 196.596 73.7504C196.711 72.0863 196.873 71.0255 197.178 69.1124C197.642 68.2785 199.146 68.0882 200.302 68.3213C199.739 71.6726 199.548 73.469 199.416 76.7075C200.087 74.1024 200.366 73.1622 200.647 70.6017C201.669 70.699 202.72 70.9875 203.227 71.5512C203.425 70.8286 203.539 70.4525 203.724 69.7246C203.832 69.2989 205.463 68.9972 206.7 69.3422C206.22 72.4606 205.741 74.6198 204.781 77.7381L204.525 78.6984H205.74C205.732 78.762 204.895 85.3505 203.565 92.012C202.235 98.6706 200.442 105.257 200.423 105.327L198.489 106.766C198.477 106.762 194.613 105.327 189.786 105.327C184.951 105.327 181.325 106.766 181.325 106.766L179.392 105.327C179.377 105.272 177.566 98.6055 176.249 92.012C174.933 85.423 174.081 78.7615 174.073 78.6984H175.469L175.033 77.7381L174.784 77.1553C174.2 75.8247 173.593 74.6868 173.115 73.2273C173.05 73.0304 174.493 70.8527 175.626 70.5303C176.173 72.2993 176.775 74.0177 177.423 75.7003C177.147 73.1399 176.443 70.5362 175.812 67.938C176.951 67.6353 179.001 68.2523 179.047 68.4543C179.795 71.7743 180.212 72.8166 180.795 76.0973C180.661 73.3859 180.581 72.4789 180.168 70.4071C180.083 69.9759 181.747 68.7343 182.913 68.6469C183.328 70.4991 183.517 71.6334 183.97 74.7077C183.943 71.3204 183.933 70.5184 183.435 65.4581C183.392 65.021 185.295 63.4391 186.184 63.5953Z" fill="white"/>
<path d="M186.184 63.5953L187.376 63.4648C187.318 62.9345 186.917 62.5063 186.392 62.4139L186.184 63.5953ZM186.776 71.2324L185.577 71.287C185.606 71.9164 186.117 72.4163 186.747 72.4316C187.377 72.4468 187.911 71.9722 187.97 71.3449L186.776 71.2324ZM187.471 64.7981L187.629 63.6091C187.312 63.5668 186.99 63.6533 186.737 63.8493C186.484 64.0454 186.319 64.3346 186.28 64.6526L187.471 64.7981ZM190.232 66.5162L191.424 66.6549L191.424 66.6548L190.232 66.5162ZM189.624 75.6602L188.437 75.8281C188.516 76.3921 188.982 76.8223 189.55 76.8574C190.119 76.8925 190.634 76.5229 190.782 75.973L189.624 75.6602ZM190.704 69.7979L189.955 68.861C189.734 69.0373 189.583 69.2856 189.528 69.5624L190.704 69.7979ZM193.196 69.0704L193.17 70.2696C193.505 70.2771 193.828 70.1438 194.061 69.9021C194.293 69.6604 194.414 69.3323 194.394 68.9975L193.196 69.0704ZM193.09 67.5449L191.934 67.2232C191.897 67.3559 191.883 67.4939 191.893 67.6312L193.09 67.5449ZM196.164 65.8503L197.36 65.751C197.305 65.0924 196.728 64.602 196.069 64.6545L196.164 65.8503ZM196.596 73.7504L195.398 73.7959C195.422 74.4331 195.94 74.94 196.578 74.9498C197.216 74.9596 197.749 74.4688 197.793 73.8326L196.596 73.7504ZM197.178 69.1124L196.13 68.5292C196.062 68.6517 196.016 68.7851 195.994 68.9235L197.178 69.1124ZM200.302 68.3213L201.484 68.52C201.592 67.8818 201.173 67.2736 200.539 67.1455L200.302 68.3213ZM199.416 76.7075L198.217 76.6585C198.192 77.2715 198.634 77.8046 199.24 77.8941C199.847 77.9837 200.424 77.6008 200.577 77.0068L199.416 76.7075ZM200.647 70.6017L200.76 69.4076C200.107 69.3455 199.526 69.8191 199.454 70.471L200.647 70.6017ZM203.227 71.5512L202.336 72.3537C202.629 72.6796 203.077 72.8195 203.504 72.7184C203.931 72.6173 204.268 72.2914 204.384 71.8684L203.227 71.5512ZM203.724 69.7246L204.887 70.0196L204.887 70.0195L203.724 69.7246ZM206.7 69.3422L207.885 69.5246C207.978 68.9244 207.607 68.35 207.022 68.1868L206.7 69.3422ZM204.781 77.7381L203.635 77.3854C203.63 77.3998 203.626 77.4143 203.622 77.4289L204.781 77.7381ZM204.525 78.6984L203.366 78.3892C203.27 78.7493 203.347 79.1336 203.574 79.4291C203.801 79.7247 204.152 79.8979 204.525 79.8979V78.6984ZM205.74 78.6984L206.93 78.8494C206.974 78.5077 206.868 78.1638 206.64 77.9054C206.413 77.647 206.085 77.4989 205.74 77.4989V78.6984ZM203.565 92.012L204.741 92.2469L204.741 92.2469L203.565 92.012ZM200.423 105.327L201.139 106.289C201.354 106.129 201.51 105.901 201.58 105.642L200.423 105.327ZM198.489 106.766L198.071 107.89C198.452 108.032 198.879 107.971 199.205 107.728L198.489 106.766ZM189.786 105.327V104.127H189.786L189.786 105.327ZM181.325 106.766L180.609 107.728C180.942 107.977 181.381 108.034 181.768 107.881L181.325 106.766ZM179.392 105.327L178.234 105.641C178.305 105.9 178.46 106.128 178.676 106.289L179.392 105.327ZM176.249 92.012L175.073 92.2469L175.073 92.2469L176.249 92.012ZM174.073 78.6984V77.4989C173.729 77.4989 173.401 77.6471 173.173 77.9057C172.945 78.1644 172.84 78.5085 172.883 78.8503L174.073 78.6984ZM175.469 78.6984V79.8979C175.876 79.8979 176.256 79.6908 176.477 79.348C176.698 79.0051 176.729 78.5736 176.561 78.2024L175.469 78.6984ZM175.033 77.7381L173.929 78.2084C173.933 78.217 173.937 78.2256 173.94 78.2342L175.033 77.7381ZM174.784 77.1553L175.888 76.685L175.883 76.6734L174.784 77.1553ZM173.115 73.2273L171.975 73.6007L171.975 73.6009L173.115 73.2273ZM175.626 70.5303L176.772 70.1758C176.579 69.5532 175.925 69.1982 175.298 69.3766L175.626 70.5303ZM177.423 75.7003L176.304 76.1314C176.521 76.6935 177.12 77.0078 177.706 76.8661C178.291 76.7244 178.681 76.1705 178.616 75.5717L177.423 75.7003ZM175.812 67.938L175.504 66.7787C174.873 66.9463 174.492 67.5872 174.646 68.2213L175.812 67.938ZM179.047 68.4543L177.876 68.7175L177.877 68.718L179.047 68.4543ZM180.795 76.0973L179.614 76.3073C179.725 76.9306 180.301 77.3604 180.93 77.2892C181.559 77.218 182.024 76.6702 181.993 76.0379L180.795 76.0973ZM180.168 70.4071L178.991 70.6386L178.992 70.6414L180.168 70.4071ZM182.913 68.6469L184.084 68.3851C183.954 67.8041 183.417 67.4063 182.824 67.4508L182.913 68.6469ZM183.97 74.7077L182.784 74.8827C182.876 75.5063 183.434 75.9523 184.063 75.9037C184.691 75.855 185.175 75.3282 185.17 74.6979L183.97 74.7077ZM183.435 65.4581L184.629 65.3407L184.629 65.3406L183.435 65.4581ZM186.184 63.5953L184.992 63.7258C185.27 66.2669 185.463 68.7838 185.577 71.287L186.776 71.2324L187.974 71.1779C187.858 68.6242 187.66 66.0566 187.376 63.4648L186.184 63.5953ZM186.776 71.2324L187.97 71.3449C188.171 69.2129 188.401 67.0791 188.662 64.9435L187.471 64.7981L186.28 64.6526C186.017 66.8108 185.784 68.9664 185.581 71.1199L186.776 71.2324ZM187.471 64.7981L187.313 65.9871C187.654 66.0326 188.187 66.2535 188.66 66.558C188.887 66.7042 189.045 66.8351 189.128 66.9197C189.17 66.9638 189.163 66.9648 189.138 66.9216C189.127 66.9024 189.004 66.6961 189.041 66.3775L190.232 66.5162L191.424 66.6548C191.474 66.2256 191.311 65.8876 191.215 65.7217C191.106 65.5321 190.969 65.3717 190.846 65.2461C190.598 64.9914 190.282 64.7496 189.959 64.5411C189.33 64.1361 188.456 63.7191 187.629 63.6091L187.471 64.7981ZM190.232 66.5162L189.041 66.3775C188.609 70.087 188.454 72.4077 188.408 73.8144C188.384 74.5183 188.389 74.9978 188.4 75.3113C188.405 75.4683 188.413 75.5849 188.42 75.6681C188.423 75.7098 188.426 75.7433 188.429 75.7696C188.431 75.7828 188.432 75.7941 188.433 75.8038C188.434 75.8087 188.434 75.8131 188.435 75.8172C188.435 75.8192 188.436 75.8211 188.436 75.8229C188.436 75.8238 188.436 75.8247 188.436 75.8256C188.436 75.826 188.436 75.8267 188.436 75.8269C188.436 75.8275 188.437 75.8281 189.624 75.6602C190.812 75.4923 190.812 75.4929 190.812 75.4934C190.812 75.4936 190.812 75.4942 190.812 75.4946C190.812 75.4954 190.812 75.4961 190.813 75.4968C190.813 75.4982 190.813 75.4994 190.813 75.5006C190.813 75.5029 190.814 75.5046 190.814 75.5059C190.814 75.5085 190.814 75.509 190.814 75.5074C190.814 75.5042 190.812 75.4925 190.811 75.4714C190.807 75.4291 190.802 75.3498 190.797 75.2257C190.788 74.977 190.784 74.5533 190.805 73.8931C190.849 72.5715 190.997 70.3201 191.424 66.6549L190.232 66.5162ZM189.624 75.6602L190.782 75.973C191.108 74.7666 191.274 73.812 191.414 72.8896C191.554 71.964 191.663 71.1169 191.88 70.0334L190.704 69.7979L189.528 69.5624C189.296 70.7188 189.174 71.6571 189.042 72.5297C188.909 73.4056 188.759 74.2622 188.466 75.3473L189.624 75.6602ZM190.704 69.7979L191.453 70.7348C191.452 70.7354 191.467 70.7236 191.504 70.7016C191.539 70.6804 191.586 70.6545 191.645 70.6255C191.764 70.5672 191.916 70.5047 192.09 70.4483C192.447 70.3325 192.835 70.2621 193.17 70.2696L193.196 69.0704L193.223 67.8712C192.551 67.8562 191.889 67.9916 191.35 68.1662C190.833 68.3341 190.31 68.577 189.955 68.861L190.704 69.7979ZM193.196 69.0704L194.394 68.9975C194.368 68.5796 194.315 67.8636 194.286 67.4586L193.09 67.5449L191.893 67.6312C191.923 68.0479 191.975 68.743 191.999 69.1432L193.196 69.0704ZM193.09 67.5449L194.245 67.8666C194.245 67.8693 194.315 67.6867 194.738 67.4607C195.127 67.2526 195.669 67.0931 196.26 67.046L196.164 65.8503L196.069 64.6545C195.196 64.7242 194.326 64.9606 193.607 65.345C192.921 65.7116 192.186 66.3179 191.934 67.2232L193.09 67.5449ZM196.164 65.8503L194.969 65.9495C195.227 69.0549 195.283 70.7766 195.398 73.7959L196.596 73.7504L197.795 73.705C197.681 70.6872 197.622 68.9164 197.36 65.751L196.164 65.8503ZM196.596 73.7504L197.793 73.8326C197.903 72.2258 198.058 71.2099 198.363 69.3013L197.178 69.1124L195.994 68.9235C195.688 70.841 195.518 71.9469 195.4 73.6683L196.596 73.7504ZM197.178 69.1124L198.226 69.6956C198.21 69.7251 198.287 69.5839 198.73 69.4901C199.131 69.4051 199.629 69.4093 200.064 69.4971L200.302 68.3213L200.539 67.1455C199.819 67.0002 198.988 66.983 198.232 67.1433C197.517 67.2949 196.61 67.6658 196.13 68.5292L197.178 69.1124ZM200.302 68.3213L199.119 68.1227C198.548 71.5206 198.351 73.367 198.217 76.6585L199.416 76.7075L200.614 76.7564C200.744 73.5709 200.929 71.8246 201.484 68.52L200.302 68.3213ZM199.416 76.7075L200.577 77.0068C201.248 74.4037 201.548 73.388 201.839 70.7324L200.647 70.6017L199.454 70.471C199.184 72.9364 198.926 73.8011 198.254 76.4082L199.416 76.7075ZM200.647 70.6017L200.533 71.7958C200.979 71.8382 201.401 71.9202 201.743 72.0369C202.103 72.1595 202.275 72.2867 202.336 72.3537L203.227 71.5512L204.119 70.7487C203.672 70.2519 203.065 69.953 202.517 69.7662C201.952 69.5734 201.337 69.4624 200.76 69.4076L200.647 70.6017ZM203.227 71.5512L204.384 71.8684C204.576 71.1697 204.698 70.7618 204.887 70.0196L203.724 69.7246L202.561 69.4295C202.38 70.1433 202.275 70.4874 202.07 71.234L203.227 71.5512ZM203.724 69.7246L204.887 70.0195C204.816 70.2974 204.656 70.4463 204.605 70.4891C204.547 70.5379 204.515 70.5472 204.545 70.534C204.603 70.5085 204.743 70.4638 204.965 70.4309C205.41 70.3648 205.953 70.3791 206.377 70.4976L206.7 69.3422L207.022 68.1868C206.21 67.9603 205.319 67.953 204.612 68.0579C204.258 68.1104 203.893 68.1994 203.576 68.3394C203.418 68.409 203.232 68.5089 203.059 68.6544C202.894 68.7939 202.659 69.0453 202.561 69.4296L203.724 69.7246ZM206.7 69.3422L205.514 69.1598C205.043 72.2241 204.576 74.3261 203.635 77.3854L204.781 77.7381L205.928 78.0909C206.905 74.9135 207.397 72.6971 207.885 69.5246L206.7 69.3422ZM204.781 77.7381L203.622 77.4289L203.366 78.3892L204.525 78.6984L205.684 79.0076L205.94 78.0474L204.781 77.7381ZM204.525 78.6984V79.8979H205.74V78.6984V77.4989H204.525V78.6984ZM205.74 78.6984L204.55 78.5474C204.543 78.604 203.71 85.1585 202.388 91.7771L203.565 92.012L204.741 92.2469C206.08 85.5426 206.921 78.9201 206.93 78.8494L205.74 78.6984ZM203.565 92.012L202.388 91.7771C201.067 98.3936 199.283 104.948 199.265 105.011L200.423 105.327L201.58 105.642C201.601 105.566 203.403 98.9475 204.741 92.2469L203.565 92.012ZM200.423 105.327L199.707 104.364L197.772 105.804L198.489 106.766L199.205 107.728L201.139 106.289L200.423 105.327ZM198.489 106.766L198.907 105.642C198.842 105.618 194.822 104.127 189.786 104.127V105.327V106.526C194.404 106.526 198.112 107.906 198.071 107.89L198.489 106.766ZM189.786 105.327L189.786 104.127C187.253 104.127 185.042 104.504 183.465 104.879C182.674 105.068 182.039 105.257 181.597 105.4C181.375 105.472 181.202 105.533 181.082 105.576C181.021 105.598 180.974 105.616 180.941 105.629C180.924 105.635 180.911 105.64 180.901 105.644C180.896 105.646 180.892 105.647 180.889 105.648C180.888 105.649 180.886 105.65 180.885 105.65C180.885 105.65 180.884 105.65 180.884 105.651C180.884 105.651 180.883 105.651 180.883 105.651C180.883 105.651 180.883 105.651 181.325 106.766C181.768 107.881 181.767 107.881 181.767 107.881C181.767 107.881 181.767 107.881 181.767 107.881C181.767 107.881 181.766 107.881 181.766 107.881C181.766 107.882 181.766 107.882 181.766 107.881C181.767 107.881 181.768 107.881 181.77 107.88C181.774 107.878 181.782 107.875 181.793 107.871C181.815 107.863 181.851 107.849 181.899 107.832C181.996 107.797 182.144 107.745 182.338 107.682C182.726 107.556 183.3 107.385 184.02 107.213C185.464 106.869 187.484 106.526 189.786 106.526L189.786 105.327ZM181.325 106.766L182.041 105.804L180.108 104.364L179.392 105.327L178.676 106.289L180.609 107.728L181.325 106.766ZM179.392 105.327L180.549 105.012C180.536 104.963 178.734 98.3285 177.425 91.7771L176.249 92.012L175.073 92.2469C176.398 98.8824 178.218 105.582 178.234 105.641L179.392 105.327ZM176.249 92.012L177.425 91.7771C176.118 85.2308 175.27 78.6033 175.263 78.5465L174.073 78.6984L172.883 78.8503C172.892 78.9197 173.748 85.6152 175.073 92.2469L176.249 92.012ZM174.073 78.6984V79.8979H175.469V78.6984V77.4989H174.073V78.6984ZM175.469 78.6984L176.561 78.2024L176.125 77.2421L175.033 77.7381L173.94 78.2342L174.377 79.1944L175.469 78.6984ZM175.033 77.7381L176.136 77.2679L175.888 76.6851L174.784 77.1553L173.681 77.6256L173.929 78.2084L175.033 77.7381ZM174.784 77.1553L175.883 76.6734C175.256 75.2449 174.71 74.2409 174.255 72.8536L173.115 73.2273L171.975 73.6009C172.477 75.1327 173.145 76.4046 173.686 77.6372L174.784 77.1553ZM173.115 73.2273L174.255 72.8539C174.324 73.0643 174.314 73.2383 174.308 73.3083C174.301 73.3918 174.285 73.4537 174.278 73.4828C174.262 73.5406 174.247 73.5705 174.252 73.5594C174.26 73.5428 174.288 73.487 174.346 73.3908C174.459 73.2044 174.637 72.9478 174.853 72.6814C175.07 72.4138 175.305 72.1619 175.529 71.9694C175.771 71.7614 175.916 71.6948 175.954 71.6841L175.626 70.5303L175.298 69.3766C174.769 69.527 174.31 69.8536 173.964 70.1507C173.601 70.4633 173.267 70.8286 172.99 71.1703C172.712 71.5132 172.47 71.8582 172.295 72.1455C172.21 72.2862 172.127 72.4353 172.064 72.5768C172.033 72.6446 171.993 72.7418 171.963 72.8534C171.947 72.9093 171.927 72.9946 171.918 73.0979C171.91 73.1877 171.902 73.3779 171.975 73.6007L173.115 73.2273ZM175.626 70.5303L174.48 70.8848C175.036 72.6817 175.647 74.4257 176.304 76.1314L177.423 75.7003L178.543 75.2692C177.904 73.6097 177.311 71.9169 176.772 70.1758L175.626 70.5303ZM177.423 75.7003L178.616 75.5717C178.329 72.9112 177.597 70.2048 176.978 67.6547L175.812 67.938L174.646 68.2213C175.289 70.8676 175.965 73.3686 176.231 75.8289L177.423 75.7003ZM175.812 67.938L176.12 69.0973C176.238 69.066 176.442 69.0454 176.729 69.0604C177.005 69.0749 177.306 69.1192 177.588 69.1797C177.872 69.2407 178.109 69.3118 178.259 69.3683C178.339 69.3984 178.363 69.4125 178.348 69.4045C178.344 69.4019 178.293 69.3734 178.226 69.3152C178.199 69.2915 177.961 69.0927 177.876 68.7175L179.047 68.4543L180.217 68.1911C180.127 67.7906 179.867 67.5634 179.805 67.5085C179.702 67.4193 179.601 67.3571 179.534 67.319C179.395 67.2397 179.242 67.1748 179.105 67.1233C178.822 67.0168 178.467 66.9148 178.091 66.834C177.388 66.6832 176.358 66.5517 175.504 66.7787L175.812 67.938ZM179.047 68.4543L177.877 68.718C178.653 72.1622 179.034 73.0447 179.614 76.3073L180.795 76.0973L181.976 75.8873C181.39 72.5885 180.937 71.3865 180.217 68.1907L179.047 68.4543ZM180.795 76.0973L181.993 76.0379C181.857 73.2969 181.773 72.3252 181.345 70.1728L180.168 70.4071L178.992 70.6414C179.388 72.6327 179.464 73.475 179.597 76.1567L180.795 76.0973ZM180.168 70.4071L181.345 70.1756C181.413 70.5193 181.285 70.7524 181.276 70.7696C181.251 70.8163 181.242 70.8162 181.285 70.7695C181.366 70.6805 181.523 70.5418 181.747 70.3895C182.225 70.0641 182.724 69.864 183.003 69.8431L182.913 68.6469L182.824 67.4508C181.936 67.5173 181.021 67.9816 180.396 68.4066C180.069 68.6295 179.754 68.8875 179.51 69.1554C179.39 69.2871 179.256 69.4554 179.152 69.6529C179.064 69.8209 178.903 70.1871 178.991 70.6386L180.168 70.4071ZM182.913 68.6469L181.743 68.9088C182.147 70.7168 182.331 71.816 182.784 74.8827L183.97 74.7077L185.157 74.5328C184.702 71.4508 184.508 70.2813 184.084 68.3851L182.913 68.6469ZM183.97 74.7077L185.17 74.6979C185.142 71.2731 185.13 70.4352 184.629 65.3407L183.435 65.4581L182.242 65.5756C182.736 70.6017 182.743 71.3677 182.771 74.7176L183.97 74.7077ZM183.435 65.4581L184.629 65.3406C184.648 65.536 184.608 65.6805 184.588 65.741C184.566 65.8079 184.543 65.8466 184.54 65.8523C184.534 65.8624 184.551 65.8321 184.614 65.7623C184.735 65.6272 184.933 65.4464 185.174 65.2682C185.415 65.0899 185.657 64.9447 185.857 64.857C185.955 64.8135 186.023 64.7935 186.059 64.7858C186.1 64.7771 186.064 64.792 185.976 64.7767L186.184 63.5953L186.392 62.4139C185.811 62.3118 185.253 62.5014 184.891 62.661C184.485 62.8396 184.087 63.088 183.746 63.3402C183.406 63.5926 183.08 63.8795 182.829 64.1591C182.706 64.2966 182.575 64.4604 182.47 64.64C182.395 64.7678 182.197 65.1229 182.242 65.5757L183.435 65.4581Z" fill="white" mask="url(#path-18-outside-1_17_28623)"/>
<path fill-rule="evenodd" clip-rule="evenodd" d="M174.071 78.6984H177.91C177.91 78.6984 181.082 87.8147 189.784 87.8147C198.486 87.8147 201.9 78.6984 201.9 78.6984H205.738C205.738 78.6984 204.9 85.3189 203.563 92.013C202.226 98.707 200.42 105.328 200.42 105.328L198.486 106.767C198.486 106.767 194.619 105.328 189.784 105.328C184.949 105.328 181.323 106.767 181.323 106.767L179.389 105.328C179.389 105.328 177.569 98.6335 176.247 92.013C174.925 85.3924 174.071 78.6984 174.071 78.6984Z" fill="#D90007"/>
<path fill-rule="evenodd" clip-rule="evenodd" d="M192.226 90.6929C191.145 90.6929 190.18 92.0809 189.549 94.2514C188.919 92.0809 187.954 90.6929 186.873 90.6929C184.973 90.6929 183.431 95.3116 183.431 101.009H184.961C184.961 95.7185 185.817 91.4298 186.873 91.4298C187.929 91.4298 188.785 95.3889 188.785 100.272H190.314C190.314 95.3889 191.17 91.4298 192.226 91.4298C193.281 91.4298 194.137 95.7185 194.137 101.009H195.666C195.666 95.3116 194.126 90.6929 192.226 90.6929Z" fill="#FFBC0D"/>
<path fill-rule="evenodd" clip-rule="evenodd" d="M178.871 77.7388C178.871 77.7388 181.989 86.855 189.906 86.855C197.823 86.855 200.942 77.7388 200.942 77.7388C200.942 77.7388 203.101 77.7388 204.78 77.7388C205.74 74.62 206.219 72.4609 206.699 69.3422C205.463 68.9972 203.832 69.2989 203.724 69.7246C203.539 70.4528 203.425 70.8288 203.227 71.5516C202.72 70.9879 201.669 70.699 200.646 70.6017C200.366 73.1624 200.087 74.1024 199.415 76.7076C199.548 73.469 199.739 71.6729 200.301 68.3215C199.146 68.0884 197.642 68.2787 197.179 69.1126C196.873 71.0259 196.71 72.0867 196.596 73.751C196.481 70.7322 196.424 68.986 196.164 65.8503C194.7 65.967 193.34 66.6425 193.089 67.5451C193.119 67.9561 193.171 68.6621 193.196 69.0711C192.188 69.0487 191.099 69.4824 190.704 69.7983C190.255 72.0383 190.244 73.3688 189.625 75.6604C189.625 75.6604 189.374 73.8913 190.233 66.5163C190.284 66.0737 188.639 64.9542 187.47 64.7988C187.208 66.9457 186.978 69.0895 186.776 71.2323C186.661 68.7038 186.465 66.1619 186.184 63.5954C185.295 63.4389 183.392 65.0209 183.435 65.4581C183.933 70.5187 183.942 71.3204 183.97 74.7079C183.516 71.6335 183.328 70.4995 182.913 68.6474C181.747 68.7345 180.082 69.977 180.168 70.4079C180.581 72.4798 180.661 73.3863 180.795 76.0978C180.212 72.8169 179.795 71.7747 179.047 68.4544C179.001 68.2524 176.951 67.6356 175.812 67.9384C176.443 70.5367 177.148 73.1404 177.424 75.7008C176.776 74.0181 176.173 72.2998 175.626 70.5306C174.492 70.853 173.051 73.0304 173.115 73.2272C173.662 74.8952 174.376 76.1434 175.032 77.7388H178.871Z" fill="#FFBC0D"/>
<path d="M163.873 128.366C162.575 128.366 161.523 127.194 161.523 125.749C161.523 124.304 162.575 123.132 163.873 123.132L218.25 123.132C219.548 123.132 220.6 124.304 220.6 125.749C220.6 127.194 219.548 128.366 218.25 128.366L163.873 128.366Z" fill="#F1F1F1"/>
<path d="M163.194 137.527C162.271 137.527 161.523 136.355 161.523 134.91C161.523 133.465 162.271 132.293 163.194 132.293L201.863 132.293C202.785 132.293 203.533 133.465 203.533 134.91C203.533 136.355 202.785 137.527 201.863 137.527L163.194 137.527Z" fill="#F1F1F1"/>
<path d="M291.464 53.2002C293.411 53.7221 294.581 55.7473 294.06 57.6945L294.059 57.6954L265.381 164.919L265.328 165.099C264.732 166.939 262.773 168.022 260.888 167.517L260.887 167.517L194.13 149.659C192.183 149.137 191.013 147.113 191.535 145.166L191.535 145.165L220.213 37.942L220.266 37.7619C220.862 35.9217 222.821 34.8387 224.706 35.3437L224.707 35.3439L291.464 53.2002Z" fill="white" stroke="#D8D8D8" stroke-width="2"/>
<path d="M206.231 129.56C204.977 129.224 204.265 127.82 204.639 126.425C205.013 125.029 206.332 124.169 207.585 124.505L260.11 138.58C261.363 138.915 262.076 140.319 261.702 141.715C261.328 143.111 260.008 143.97 258.755 143.635L206.231 129.56Z" fill="#F1F1F1"/>
<path d="M203.205 138.23C202.313 137.991 201.894 136.666 202.268 135.27C202.642 133.875 203.668 132.937 204.559 133.175L241.91 143.184C242.801 143.423 243.221 144.748 242.847 146.144C242.472 147.54 241.447 148.478 240.555 148.239L203.205 138.23Z" fill="#F1F1F1"/>
<ellipse cx="240.86" cy="113.209" rx="14.849" ry="2.78419" transform="rotate(15.1533 240.86 113.209)" fill="#A0A09F" fill-opacity="0.15"/>
<path d="M258.069 54.8137L260.32 55.7758C260.941 56.0416 261.229 56.7612 260.964 57.3827L253.961 73.7563L254.051 73.7858C255.141 74.1345 256.222 74.513 257.295 74.9215L257.754 75.0987C258.582 75.4211 259.131 76.2061 259.156 77.0851L259.158 77.129L262.001 77.9002C262.905 78.1448 263.506 78.9929 263.444 79.9209L263.439 79.9843L263.205 82.3282C263.149 82.8909 262.722 83.3201 262.199 83.4123L262.177 83.4154L262.119 83.5841C260.483 88.4853 258.775 93.3795 256.997 98.2666L256.511 99.5988C254.558 104.929 252.532 110.225 250.431 115.486C250.219 116.016 249.667 116.33 249.103 116.24C246.239 115.788 243.414 115.193 240.623 114.457L240.104 114.318C237.148 113.517 234.235 112.557 231.366 111.437C230.833 111.229 230.515 110.68 230.6 110.115C231.446 104.485 232.369 98.8908 233.367 93.3311C233.867 90.5513 234.386 87.7735 234.927 84.9962L235.198 83.6098C235.653 81.297 236.123 78.9846 236.605 76.6845L236.642 76.5009L236.623 76.4847C236.231 76.1514 236.078 75.5915 236.283 75.0899L236.303 75.0426L237.284 72.9012C237.683 72.031 238.653 71.577 239.577 71.8272L242.421 72.5965L242.444 72.5592C242.899 71.8325 243.736 71.4328 244.59 71.5416L244.657 71.5517C246.063 71.775 247.457 72.0437 248.839 72.3589L249.199 72.4423L256.463 55.4577C256.729 54.8364 257.448 54.5481 258.069 54.8137Z" fill="white"/>
<path fill-rule="evenodd" clip-rule="evenodd" d="M237.805 76.9246C241.578 78.2846 245.394 79.4872 249.253 80.5322C253.112 81.5773 257.014 82.4648 260.958 83.1949C259.176 88.5304 257.311 93.8577 255.362 99.1767C253.413 104.496 251.39 109.78 249.293 115.031C246.294 114.556 243.337 113.925 240.423 113.136C237.51 112.347 234.638 111.4 231.81 110.296C232.654 104.678 233.574 99.0944 234.571 93.5462C235.568 87.998 236.645 82.4575 237.805 76.9246Z" fill="white"/>
<path fill-rule="evenodd" clip-rule="evenodd" d="M260.955 83.1948C260.955 83.1948 258.282 91.1981 255.359 99.1766C252.436 107.155 249.29 115.03 249.29 115.03C249.29 115.03 244.792 114.319 240.421 113.136C243.866 114.069 248.55 103.638 254.474 81.845C258.056 82.6632 260.955 83.1948 260.955 83.1948Z" fill="#EAEAEA"/>
<path fill-rule="evenodd" clip-rule="evenodd" d="M238.803 93.0265C238.752 88.831 237.895 85.674 236.292 84.383C236.293 84.3773 236.293 84.3773 235.831 86.7637C236.738 89.7302 235.956 97.1631 233.684 105.552L236.903 106.424C239.75 95.9113 243.86 87.8759 246.082 88.4777C248.304 89.0796 247.605 98.8004 244.521 110.189L247.739 111.061C251.061 98.7958 250.512 87.9744 246.511 86.8911C244.236 86.275 241.397 88.7136 238.803 93.0265Z" fill="#FFBC0D"/>
<g style="mix-blend-mode:multiply" opacity="0.24">
<path d="M249.903 97.1466C249.826 101.143 249.117 105.978 247.74 111.061L244.522 110.19C244.57 110.012 244.616 109.834 244.663 109.657C246.245 106.993 247.993 102.824 249.903 97.1466Z" fill="#ADADAD"/>
</g>
<path d="M257.585 55.9396L259.835 56.902L251.914 75.4248L249.53 74.7756L257.585 55.9396Z" fill="#A0A09F" fill-opacity="0.15"/>
<path d="M258.684 56.5224L259.359 56.8112L251.411 75.3966L250.696 75.2019L258.684 56.5224Z" fill="#EAEAEA"/>
<path fill-rule="evenodd" clip-rule="evenodd" d="M239.253 73.0084L261.678 79.0814C262.024 79.1753 262.252 79.5059 262.217 79.863L261.983 82.2071C257.803 81.4131 253.665 80.4615 249.57 79.3525C245.474 78.2435 241.422 76.9769 237.412 75.5529L238.393 73.4113C238.543 73.0849 238.906 72.9145 239.253 73.0084Z" fill="#EAEAEA"/>
<path fill-rule="evenodd" clip-rule="evenodd" d="M244.464 72.7592C246.667 73.1091 248.839 73.5739 250.98 74.1537C253.121 74.7334 255.23 75.4281 257.309 76.2378C257.696 76.3884 257.945 76.7665 257.932 77.1813L257.92 77.5547L243.272 73.5877L243.45 73.2594C243.648 72.8946 244.055 72.6942 244.464 72.7592Z" fill="#EAEAEA"/>
<mask id="path-38-outside-2_17_28623" maskUnits="userSpaceOnUse" x="153.704" y="113.651" width="69.0919" height="92.1225" fill="black">
<rect fill="white" x="153.704" y="113.651" width="69.0919" height="92.1225"/>
<path d="M188.25 116.655C205.671 116.655 219.792 130.735 219.792 148.104C219.792 178.162 190.505 201.818 188.25 201.818C185.996 201.818 156.708 178.162 156.708 148.104C156.708 130.735 170.83 116.655 188.25 116.655Z"/>
</mask>
<path d="M188.25 116.655C205.671 116.655 219.792 130.735 219.792 148.104C219.792 178.162 190.505 201.818 188.25 201.818C185.996 201.818 156.708 178.162 156.708 148.104C156.708 130.735 170.83 116.655 188.25 116.655Z" fill="#FFBC0D"/>
<path d="M188.25 116.655V113.651V116.655ZM219.792 148.104H222.796V148.104L219.792 148.104ZM188.25 201.818V204.822H188.25L188.25 201.818ZM156.708 148.104L153.704 148.104V148.104H156.708ZM188.25 116.655V119.659C204.02 119.659 216.788 132.403 216.788 148.104L219.792 148.104L222.796 148.104C222.796 129.068 207.321 113.651 188.25 113.651V116.655ZM219.792 148.104H216.788C216.788 162.179 209.908 174.961 202.505 184.376C198.826 189.056 195.083 192.82 192.149 195.394C190.679 196.684 189.441 197.65 188.54 198.275C188.085 198.591 187.76 198.789 187.562 198.895C187.461 198.949 187.44 198.953 187.483 198.937C187.506 198.929 187.575 198.904 187.68 198.879C187.774 198.856 187.977 198.814 188.25 198.814L188.25 201.818L188.25 204.822C188.869 204.822 189.373 204.645 189.596 204.561C189.882 204.454 190.153 204.322 190.391 204.195C190.869 203.94 191.405 203.6 191.966 203.211C193.099 202.425 194.519 201.308 196.111 199.91C199.303 197.11 203.304 193.081 207.229 188.09C215.033 178.163 222.796 164.087 222.796 148.104H219.792ZM188.25 201.818V198.814C188.524 198.814 188.727 198.856 188.821 198.879C188.926 198.904 188.995 198.929 189.018 198.937C189.061 198.953 189.04 198.949 188.939 198.895C188.741 198.789 188.416 198.591 187.96 198.275C187.06 197.65 185.822 196.684 184.352 195.394C181.418 192.82 177.675 189.056 173.995 184.376C166.593 174.961 159.712 162.179 159.712 148.104H156.708H153.704C153.704 164.087 161.468 178.163 169.272 188.09C173.197 193.081 177.198 197.11 180.389 199.91C181.982 201.308 183.402 202.425 184.535 203.211C185.096 203.6 185.631 203.94 186.11 204.195C186.347 204.322 186.619 204.454 186.905 204.561C187.127 204.645 187.632 204.822 188.25 204.822V201.818ZM156.708 148.104L159.712 148.104C159.712 132.403 172.481 119.659 188.25 119.659V116.655V113.651C169.18 113.651 153.704 129.068 153.704 148.104L156.708 148.104Z" fill="white" mask="url(#path-38-outside-2_17_28623)"/>
<circle cx="188.25" cy="148.197" r="9.51265" fill="white"/>
<path fill-rule="evenodd" clip-rule="evenodd" d="M226.442 31.5419C228.945 31.5419 231.007 33.5382 231.11 36.0187L291.725 52.2318C294.205 52.8967 295.693 55.4708 295.028 57.9528L266.35 165.177C265.685 167.659 263.112 169.148 260.631 168.483L218.892 157.319C218.701 158.307 218.482 159.285 218.237 160.253C212.152 184.297 190.19 201.819 188.249 201.819C186.339 201.819 165.033 184.845 158.561 161.384C158.494 161.143 158.43 160.902 158.366 160.659L131.462 167.885C128.981 168.55 126.405 167.065 125.74 164.583L96.9524 57.3891C96.2872 54.9071 97.7709 52.3305 100.252 51.6656L152.666 37.5883L152.665 36.2518C152.665 33.6821 154.765 31.5774 157.334 31.5774L226.442 31.5419ZM157.332 28.5734C157.333 28.5734 157.333 28.5734 157.334 28.5734L226.442 28.5379C229.749 28.5379 232.579 30.6464 233.655 33.5898L292.501 49.3298L292.502 49.3302C296.584 50.4241 299.024 54.6434 297.93 58.729C297.93 58.7295 297.93 58.73 297.93 58.7305L269.252 165.954C268.158 170.035 263.941 172.48 259.853 171.384L221.139 161.029C218.06 173.162 211.184 183.593 204.758 191.1C201.255 195.191 197.835 198.473 195.131 200.754C193.782 201.891 192.581 202.804 191.612 203.452C191.133 203.772 190.664 204.059 190.233 204.278C190.018 204.386 189.767 204.502 189.498 204.597C189.278 204.675 188.816 204.823 188.249 204.823C187.703 204.823 187.258 204.685 187.039 204.61C186.775 204.52 186.532 204.41 186.326 204.308C185.912 204.102 185.466 203.834 185.016 203.537C184.105 202.938 182.982 202.096 181.723 201.051C179.197 198.954 175.994 195.935 172.667 192.165C166.557 185.24 159.873 175.607 156.3 164.325L132.24 170.787C128.158 171.881 123.935 169.448 122.839 165.363C122.839 165.362 122.839 165.362 122.839 165.361L94.0508 58.1668C92.9573 54.0865 95.3865 49.8596 99.474 48.764L149.724 35.268C150.208 31.5044 153.435 28.5741 157.332 28.5734Z" fill="white"/>
</g>
<defs>
<clipPath id="clip0_17_28623">
<rect width="375" height="225" fill="white" transform="translate(0.500666 0.500666) scale(1.00133)"/>
</clipPath>
</defs>
</svg>
