<svg width="27" height="18" viewBox="0 0 27 18" fill="none" xmlns="http://www.w3.org/2000/svg">
<g clip-path="url(#clip0_109_43865)">
<path d="M0 0H27V18H0V0Z" fill="#D80027"/>
<path d="M11.3632 8.98385L0 16.5575V1.41016L11.3632 8.98385ZM27 1.41016V16.5575L15.6368 8.98385L27 1.41016Z" fill="#47A644"/>
<path d="M26.9474 1.41053L15.5842 8.98421L26.9474 16.5579V17.9632H24.8368L13.4737 10.3895L2.11053 17.9632H0V16.5579L11.3632 8.98421L0 1.41053V0H2.11053L13.4737 7.57368L24.8368 0H26.9474V1.41053Z" fill="#0052B4"/>
<path d="M27 1.41053L15.6368 8.98421L27 16.5579V18H24.8947L13.4737 10.3895L2.05263 18H0V16.5579L11.3632 8.98421L0 1.41053V0H2.11053L13.4737 7.57368L24.8368 0H27V1.41053Z" fill="white"/>
<path d="M13.2424 14.2583C16.155 14.2583 18.5161 11.8972 18.5161 8.98462C18.5161 6.07205 16.155 3.71094 13.2424 3.71094C10.3299 3.71094 7.96875 6.07205 7.96875 8.98462C7.96875 11.8972 10.3299 14.2583 13.2424 14.2583Z" fill="white"/>
<path d="M13.2324 5.45312L13.6219 6.13207H14.4009L14.0114 6.80576L14.4009 7.47944H13.6219L13.2324 8.15839L12.843 7.47944H12.064L12.4535 6.80576L12.064 6.13207H12.843L13.2324 5.45312ZM15.2745 8.96366L15.664 9.6426H16.443L16.0535 10.3163L16.443 10.99H15.664L15.2745 11.6689L14.8851 10.99H14.1009L14.4903 10.3163L14.1009 9.6426H14.8851L15.2745 8.96366ZM11.2114 8.96366L11.6009 9.6426H12.3851L11.9956 10.3163L12.3851 10.99H11.6009L11.2114 11.6689L10.8219 10.99H10.043L10.4324 10.3163L10.043 9.6426H10.8219L11.2114 8.96366Z" fill="#D80027"/>
<path fill-rule="evenodd" clip-rule="evenodd" d="M13.2325 5.29297L13.6677 6.05163H14.5378L14.1027 6.80426L14.5378 7.55689H13.6677L13.2325 8.31555L12.7973 7.55689H11.9273L12.3624 6.80426L11.9273 6.05163H12.7973L13.2325 5.29297ZM13.2325 5.61029L12.8888 6.20952H12.201L12.5448 6.80426L12.201 7.39899H12.8888L13.2325 7.99823L13.5763 7.39899H14.2641L13.9203 6.80426L14.2641 6.20952H13.5763L13.2325 5.61029ZM11.2115 8.80349L11.6467 9.56215H12.522L12.0869 10.3148L12.522 11.0674H11.6467L11.2115 11.8261L10.7763 11.0674H9.90625L10.3414 10.3148L9.90625 9.56215H10.7763L11.2115 8.80349ZM15.2747 8.80349L15.7098 9.56215H16.5799L16.1448 10.3148L16.5799 11.0674H15.7098L15.2747 11.8261L14.8394 11.0674H13.9641L14.3992 10.3148L13.9641 9.56215H14.8394L15.2747 8.80349ZM15.2746 9.12081L14.9309 9.72004H14.2378L14.5816 10.3148L14.2378 10.9095H14.9309L15.2746 11.5087L15.6184 10.9095H16.3062L15.9624 10.3148L16.3062 9.72004H15.6184L15.2746 9.12081ZM11.2115 9.12081L10.8678 9.72004H10.1799L10.5237 10.3148L10.1799 10.9095H10.8678L11.2115 11.5087L11.5552 10.9095H12.2483L11.9045 10.3148L12.2483 9.72004H11.5552L11.2115 9.12081Z" fill="#47A644"/>
</g>
<rect x="0.5" y="0.5" width="26" height="17" rx="0.5" stroke="black" stroke-opacity="0.2"/>
<defs>
<clipPath id="clip0_109_43865">
<rect width="27" height="18" rx="1" fill="white"/>
</clipPath>
</defs>
</svg>
