<svg width="375" height="225" viewBox="0 0 375 225" fill="none" xmlns="http://www.w3.org/2000/svg">
<path fill-rule="evenodd" clip-rule="evenodd" d="M84.1071 69H259.893C262.161 69 264 70.8388 264 73.1071V179.893C264 182.161 262.161 184 259.893 184H84.1071C81.8388 184 80 182.161 80 179.893V73.1071C80 70.8388 81.8388 69 84.1071 69Z" fill="#FFBC0D"/>
<path fill-rule="evenodd" clip-rule="evenodd" d="M96.4275 114.178H121.07C123.339 114.178 125.177 116.017 125.177 118.285V130.606C125.177 132.875 123.339 134.713 121.07 134.713H96.4275C94.1591 134.713 92.3203 132.875 92.3203 130.606V118.285C92.3203 116.017 94.1591 114.178 96.4275 114.178Z" fill="white"/>
<path fill-rule="evenodd" clip-rule="evenodd" d="M93.9632 151.143H147.356C148.263 151.143 148.999 151.878 148.999 152.785V156.071C148.999 156.978 148.263 157.714 147.356 157.714H93.9632C93.0558 157.714 92.3203 156.978 92.3203 156.071V152.785C92.3203 151.878 93.0558 151.143 93.9632 151.143Z" fill="white"/>
<path fill-rule="evenodd" clip-rule="evenodd" d="M93.9632 163.465H185.142C186.049 163.465 186.785 164.2 186.785 165.108V168.393C186.785 169.301 186.049 170.036 185.142 170.036H93.9632C93.0558 170.036 92.3203 169.301 92.3203 168.393V165.108C92.3203 164.2 93.0558 163.465 93.9632 163.465Z" fill="white"/>
<path d="M257.261 39.207C259.387 35.5975 264.613 35.5975 266.739 39.207L299.734 95.2207C301.893 98.8857 299.245 103.5 294.995 103.5H229.005C224.755 103.5 222.107 98.8857 224.266 95.2207L257.261 39.207Z" fill="#DB0007" stroke="white" stroke-width="3"/>
<rect x="259" y="89" width="6" height="6" rx="3" fill="white"/>
<path d="M260 57C260 55.8954 260.895 55 262 55H264V83C264 84.1046 263.105 85 262 85H260V57Z" fill="white"/>
<mask id="path-8-outside-1_17_28603" maskUnits="userSpaceOnUse" x="77" y="35" width="226" height="152" fill="black">
<rect fill="white" x="77" y="35" width="226" height="152"/>
<path d="M258.554 39.9688C260.1 37.3441 263.9 37.3441 265.446 39.9688L298.441 95.9824C300.009 98.6443 298.088 102 294.995 102H264V179.893C264 182.161 262.161 184 259.893 184H84.1074C81.8391 184 80 182.161 80 179.893V73.1074C80 70.8391 81.8391 69 84.1074 69H241.453L258.554 39.9688Z"/>
</mask>
<path d="M258.554 39.9688L255.969 38.4461L255.969 38.4461L258.554 39.9688ZM265.446 39.9688L268.031 38.4461V38.4461L265.446 39.9688ZM298.441 95.9824L295.857 97.5051V97.5051L298.441 95.9824ZM264 102V99H261V102H264ZM241.453 69V72H243.168L244.038 70.5226L241.453 69ZM258.554 39.9688L261.139 41.4914C261.524 40.8365 262.476 40.8365 262.861 41.4914L265.446 39.9688L268.031 38.4461C265.325 33.8516 258.675 33.8516 255.969 38.4461L258.554 39.9688ZM265.446 39.9688L262.861 41.4914L295.857 97.5051L298.441 95.9824L301.026 94.4598L268.031 38.4461L265.446 39.9688ZM298.441 95.9824L295.857 97.5051C296.243 98.1611 295.774 99 294.995 99V102V105C300.402 105 303.776 99.1276 301.026 94.4598L298.441 95.9824ZM294.995 102V99H264V102V105H294.995V102ZM264 102H261V179.893H264H267V102H264ZM264 179.893H261C261 180.504 260.504 181 259.893 181V184V187C263.818 187 267 183.818 267 179.893H264ZM259.893 184V181H84.1074V184V187H259.893V184ZM84.1074 184V181C83.496 181 83 180.504 83 179.893H80H77C77 183.818 80.1823 187 84.1074 187V184ZM80 179.893H83V73.1074H80H77V179.893H80ZM80 73.1074H83C83 72.496 83.496 72 84.1074 72V69V66C80.1823 66 77 69.1823 77 73.1074H80ZM84.1074 69V72H241.453V69V66H84.1074V69ZM241.453 69L244.038 70.5226L261.139 41.4914L258.554 39.9688L255.969 38.4461L238.868 67.4774L241.453 69Z" fill="white" mask="url(#path-8-outside-1_17_28603)"/>
</svg>
