<svg width="27" height="18" viewBox="0 0 27 18" fill="none" xmlns="http://www.w3.org/2000/svg">
<g clip-path="url(#clip0_109_43690)">
<path d="M0 0H27V17.9996H0V0Z" fill="#FFDA44"/>
<path d="M0 0H27V3.59981H0V0ZM0 14.3998H27V17.9996H0V14.3998ZM0 7.19961H27V10.7994H0V7.19961Z" fill="#496E2D"/>
<path d="M0 0H10.7607V10.7607H0V0Z" fill="#D80027"/>
<path d="M5.38027 2.5625L6.07953 4.71469H8.34267L6.51184 6.04497L7.2111 8.19727L5.38027 6.8671L3.54938 8.19727L4.2488 6.04497L2.41797 4.71469H4.68096L5.38027 2.5625Z" fill="white"/>
</g>
<rect x="0.5" y="0.5" width="26" height="17" rx="0.5" stroke="black" stroke-opacity="0.2"/>
<defs>
<clipPath id="clip0_109_43690">
<rect width="27" height="18" rx="1" fill="white"/>
</clipPath>
</defs>
</svg>
