<svg width="27" height="18" viewBox="0 0 27 18" fill="none" xmlns="http://www.w3.org/2000/svg">
<g clip-path="url(#clip0_109_43898)">
<path d="M0 0H26.9474V18H0V0Z" fill="white"/>
<path d="M0 0H26.9474V6H0V0ZM0 12H26.9474V18H0V12Z" fill="#338AF3"/>
<path d="M13.4998 11.1051C14.6625 11.1051 15.6051 10.1625 15.6051 8.9998C15.6051 7.83709 14.6625 6.89453 13.4998 6.89453C12.3371 6.89453 11.3945 7.83709 11.3945 8.9998C11.3945 10.1625 12.3371 11.1051 13.4998 11.1051Z" fill="#FFDA44"/>
<path fill-rule="evenodd" clip-rule="evenodd" d="M13.4986 7.02488C12.4085 7.02488 11.5249 7.90853 11.5249 8.99856C11.5249 10.0886 12.4085 10.9722 13.4986 10.9722C14.5886 10.9722 15.4722 10.0886 15.4722 8.99856C15.4722 7.90853 14.5886 7.02488 13.4986 7.02488ZM11.2617 8.99856C11.2617 7.76319 12.2632 6.76172 13.4986 6.76172C14.7339 6.76172 15.7354 7.76319 15.7354 8.99856C15.7354 10.2339 14.7339 11.2354 13.4986 11.2354C12.2632 11.2354 11.2617 10.2339 11.2617 8.99856Z" fill="#D6AB00"/>
</g>
<rect x="0.5" y="0.5" width="26" height="17" rx="0.5" stroke="black" stroke-opacity="0.2"/>
<defs>
<clipPath id="clip0_109_43898">
<rect width="27" height="18" rx="1" fill="white"/>
</clipPath>
</defs>
</svg>
