<svg width="44" height="44" viewBox="0 0 44 44" fill="none" xmlns="http://www.w3.org/2000/svg">
<g opacity="0.7">
<ellipse cx="22.1445" cy="42" rx="9.625" ry="2" fill="#292929" fill-opacity="0.2"/>
<path fill-rule="evenodd" clip-rule="evenodd" d="M22 41.25C23.0814 41.25 37.125 29.7918 37.125 15.2328C37.125 6.81998 30.3534 0 22 0C13.6468 0 6.875 6.81998 6.875 15.2328C6.875 29.7918 20.9189 41.25 22 41.25Z" fill="#DB0007"/>
<path fill-rule="evenodd" clip-rule="evenodd" d="M25.6093 8.59389C27.0331 8.59389 28.1867 14.5962 28.1867 22H30.25C30.25 14.026 28.1721 7.5625 25.6093 7.5625C24.1512 7.5625 22.8504 9.50551 22 12.543C21.1496 9.50551 19.8488 7.5625 18.3907 7.5625C15.8286 7.5625 13.75 14.026 13.75 22H15.8133C15.8133 14.5962 16.9676 8.59389 18.3907 8.59389C19.8144 8.59389 20.9687 14.1343 20.9687 20.9686H23.0313C23.0313 14.1343 24.1856 8.59389 25.6093 8.59389Z" fill="#FFBC0D"/>
</g>
</svg>
