<svg width="27" height="18" viewBox="0 0 27 18" fill="none" xmlns="http://www.w3.org/2000/svg">
<g clip-path="url(#clip0_109_43880)">
<path d="M20.7497 4.49219L21.6732 5.48755L22.9052 4.91691L22.2439 6.10275L23.1674 7.09816L21.8352 6.83565L21.174 8.02154L21.0119 6.67344L19.6797 6.41093L20.9117 5.84034L20.7497 4.49219Z" fill="white"/>
<path d="M0 0H27V17.9996H0V0Z" fill="white"/>
<path d="M6.75 0H27V18.0002H6.75V0Z" fill="#01411C"/>
<path d="M19.0861 11.2567C17.4494 12.4393 15.1638 12.0713 13.9812 10.4345C12.7985 8.79771 13.1667 6.51214 14.8035 5.32957C15.3138 4.96085 15.8872 4.7429 16.4706 4.66707C15.3483 4.49921 14.162 4.75213 13.1695 5.46921C11.1551 6.92479 10.702 9.73775 12.1575 11.7523C13.613 13.7667 16.426 14.2198 18.4405 12.7642C19.433 12.0471 20.0456 11.0003 20.2386 9.88198C19.9834 10.412 19.5965 10.8879 19.0861 11.2567ZM19.016 4.61724L19.938 5.61086L21.1679 5.04122L20.5077 6.22495L21.4297 7.21868L20.0998 6.95669L19.4396 8.14058L19.2779 6.79475L17.9479 6.53271L19.1778 5.96307L19.016 4.61724Z" fill="white"/>
</g>
<rect x="0.5" y="0.5" width="26" height="17" rx="0.5" stroke="black" stroke-opacity="0.2"/>
<defs>
<clipPath id="clip0_109_43880">
<rect width="27" height="18" rx="1" fill="white"/>
</clipPath>
</defs>
</svg>
