<svg width="72" height="72" viewBox="0 0 72 72" fill="none" xmlns="http://www.w3.org/2000/svg">
<g clip-path="url(#clip0_3767_40019)">
<path d="M35.9151 6.79233L35.8049 6.79678C35.3829 6.81519 34.9609 6.849 34.539 6.89821L34.5188 6.9009C34.2646 6.93916 34.0547 7.1349 33.9807 7.40043L33.9769 7.41411L33.0986 7.41419C32.8132 7.41419 32.5697 7.63822 32.5228 7.94388L32.4074 8.6961L32.4052 8.71246C32.3851 8.8866 32.4729 9.04865 32.6115 9.11968L32.6184 9.12304L32.6221 9.18373C32.6627 9.9432 32.7076 10.7052 32.7567 11.4665L32.7867 11.9227C32.8476 12.8363 32.9146 13.7483 32.9875 14.6592C33.1334 16.4809 33.304 18.3072 33.4993 20.1379C33.5189 20.3217 33.6531 20.4663 33.8225 20.4862C34.7353 20.5934 35.6483 20.6469 36.5613 20.6469L36.7212 20.6464C37.5817 20.6405 38.4409 20.587 39.3001 20.4862C39.4695 20.4663 39.6036 20.3217 39.6233 20.1379C39.8179 18.3162 39.9885 16.4899 40.1351 14.6592L40.1712 14.2016C40.3018 12.5241 40.4116 10.8503 40.5006 9.18033L40.5044 9.12288L40.5104 9.12C40.6537 9.04693 40.7429 8.87668 40.7152 8.6961L40.5997 7.94388L40.5963 7.92363C40.542 7.62838 40.303 7.41419 40.024 7.41419L39.1455 7.41411L39.1419 7.40042C39.0659 7.12791 38.8468 6.92891 38.5836 6.89821L38.4376 6.8818C38.0971 6.84495 37.7566 6.81814 37.416 6.80135L37.3877 6.80002L38.1266 1.09095C38.1547 0.874273 38.0156 0.673932 37.8161 0.64348L37.0936 0.533202C36.8941 0.50275 36.7096 0.653715 36.6816 0.870393L35.9151 6.79233Z" fill="white"/>
<path fill-rule="evenodd" clip-rule="evenodd" d="M32.9336 9.19922C32.9336 9.19922 34.7422 9.35917 36.5509 9.35917C38.3595 9.35917 40.1681 9.19922 40.1681 9.19922C40.1681 9.19922 40.021 11.9515 39.799 14.7174C39.577 17.4833 39.2823 20.2356 39.2823 20.2356C39.2823 20.2356 37.9166 20.3955 36.5509 20.3955C35.1852 20.3955 33.8195 20.2356 33.8195 20.2356C33.8195 20.2356 33.5236 17.4697 33.3027 14.7174C33.0818 11.9651 32.9336 9.19922 32.9336 9.19922Z" fill="white"/>
<mask id="mask0_3767_40019" style="mask-type:luminance" maskUnits="userSpaceOnUse" x="32" y="9" width="9" height="12">
<path fill-rule="evenodd" clip-rule="evenodd" d="M32.9336 9.19922C32.9336 9.19922 34.7422 9.35917 36.5509 9.35917C38.3595 9.35917 40.1681 9.19922 40.1681 9.19922C40.1681 9.19922 40.021 11.9515 39.799 14.7174C39.577 17.4833 39.2823 20.2356 39.2823 20.2356C39.2823 20.2356 37.9166 20.3955 36.5509 20.3955C35.1852 20.3955 33.8195 20.2356 33.8195 20.2356C33.8195 20.2356 33.5236 17.4697 33.3027 14.7174C33.0818 11.9651 32.9336 9.19922 32.9336 9.19922Z" fill="white"/>
</mask>
<g mask="url(#mask0_3767_40019)">
</g>
<path fill-rule="evenodd" clip-rule="evenodd" d="M34.4946 14.1909C34.1489 12.8722 33.6504 11.9498 33.0821 11.6795C33.0818 11.6776 33.0818 11.6776 33.1356 12.4697C33.6334 13.3278 33.9918 15.7387 33.9918 18.5784H34.9976C34.9976 15.0199 35.5605 12.1347 36.2548 12.1347C36.9492 12.1347 37.5122 15.2601 37.5122 19.1152H38.5178C38.5178 14.9635 37.5047 11.5977 36.2548 11.5977C35.5439 11.5977 34.9097 12.6092 34.4946 14.1909Z" fill="#A0A09F"/>
<path fill-rule="evenodd" clip-rule="evenodd" d="M40.168 9.19922C40.168 9.19922 40.0209 11.9515 39.7989 14.7174C39.5769 17.4833 39.2822 20.2356 39.2822 20.2356C39.2822 20.2356 37.9165 20.3955 36.5508 20.3955C37.6273 20.3955 38.1686 16.706 38.1748 9.32711C39.2822 9.27919 40.168 9.19922 40.168 9.19922Z" fill="#A0A09F" fill-opacity="0.15"/>
<path d="M37.0352 0.890625L37.7662 1.00193L36.9206 7.52001L36.1753 7.51893L37.0352 0.890625Z" fill="#F1F1F1"/>
<path d="M37.4023 0.945313L37.6217 0.978703L36.7732 7.51883L36.5496 7.51851L37.4023 0.945313Z" fill="#D8D8D8"/>
<path fill-rule="evenodd" clip-rule="evenodd" d="M33.0462 7.83789H40.0531C40.1614 7.83789 40.2538 7.92268 40.2716 8.03837L40.3884 8.79757C39.1088 8.9042 37.8292 8.95752 36.5497 8.95752C35.2701 8.95752 33.9905 8.9042 32.7109 8.79757L32.8277 8.03837C32.8455 7.92268 32.9379 7.83789 33.0462 7.83789Z" fill="#F1F1F1"/>
<path fill-rule="evenodd" clip-rule="evenodd" d="M34.5435 7.31595C35.2124 7.23813 35.8813 7.19922 36.5502 7.19922C37.2191 7.19922 37.888 7.23813 38.5569 7.31595C38.6813 7.33042 38.7838 7.42833 38.8127 7.56028L38.8387 7.67905H34.2617L34.2877 7.56028C34.3165 7.42833 34.419 7.33042 34.5435 7.31595Z" fill="#F1F1F1"/>
<path d="M111.33 59.6688C111.33 62.3854 87.7119 64.5876 58.5772 64.5876C29.4426 64.5876 5.82422 62.3854 5.82422 59.6688C5.82422 56.9522 29.4426 54.75 58.5772 54.75C87.7119 54.75 111.33 56.9522 111.33 59.6688Z" fill="#A0A09F" fill-opacity="0.15"/>
<path d="M15.8068 42.6567H34.4365C36.8934 42.6567 39.2633 40.6056 37.8457 38.599C37.2682 37.7817 36.3348 37.0726 34.8401 36.7452C30.1018 35.7072 18.3689 36.7452 18.3689 36.7452L15.458 10.969C15.3497 10.0102 14.433 9.35762 13.4915 9.56926C11.1814 10.0886 9.63109 12.2618 9.89184 14.6151L12.6896 39.8658C12.8656 41.4546 14.2084 42.6567 15.8068 42.6567Z" fill="#D8D8D8"/>
<path d="M12.9119 58.1345C13.0473 57.0063 15.078 42.7012 15.078 42.7012H20.0419C20.0419 42.7012 16.3415 56.9161 15.9354 58.1345C15.5292 59.3529 14.9876 59.6688 14.2205 59.6688C13.4534 59.6688 12.7765 59.2626 12.9119 58.1345Z" fill="#D8D8D8"/>
<path d="M37.3533 58.1345C37.2179 57.0063 35.1872 42.7012 35.1872 42.7012H30.2233C30.2233 42.7012 33.9237 56.9161 34.3298 58.1345C34.736 59.3529 35.2776 59.6688 36.0447 59.6688C36.8118 59.6688 37.4887 59.2626 37.3533 58.1345Z" fill="#D8D8D8"/>
<path d="M14.6602 45.6344C14.9055 43.9016 15.0759 42.7012 15.0759 42.7012H20.0399C20.0399 42.7012 19.7274 43.9015 19.2741 45.6344H14.6602Z" fill="#A0A09F"/>
<path d="M35.6008 45.6344C35.3554 43.9016 35.185 42.7012 35.185 42.7012H30.2211C30.2211 42.7012 30.5335 43.9015 30.9868 45.6344H35.6008Z" fill="#A0A09F"/>
<path d="M25.7695 21.7517C25.7695 20.8857 26.4716 20.1836 27.3377 20.1836H90.1765C91.0426 20.1836 91.7447 20.8857 91.7447 21.7517V26.8285C91.7447 27.6946 91.0426 28.3966 90.1765 28.3966H27.3377C26.4716 28.3966 25.7695 27.6946 25.7695 26.8285V21.7517Z" fill="#D8D8D8"/>
<path fill-rule="evenodd" clip-rule="evenodd" d="M27.5625 22.3942C27.5625 22.1948 27.7241 22.0332 27.9235 22.0332H32.5264C32.7258 22.0332 32.8874 22.1948 32.8874 22.3942C32.8874 22.5936 32.7258 22.7552 32.5264 22.7552H28.2845V25.4628C28.2845 25.6622 28.1229 25.8238 27.9235 25.8238C27.7241 25.8238 27.5625 25.6622 27.5625 25.4628V22.3942Z" fill="white"/>
<path d="M60.6095 29.75H56.2773V59.2628C56.2775 59.6615 57.2472 59.9848 58.4434 59.9848C59.6397 59.9848 60.6095 59.6615 60.6095 59.2627L60.6095 59.2604V29.75Z" fill="#A0A09F"/>
</g>
<defs>
<clipPath id="clip0_3767_40019">
<rect width="72" height="72" fill="white"/>
</clipPath>
</defs>
</svg>
