<svg width="27" height="18" viewBox="0 0 27 18" fill="none" xmlns="http://www.w3.org/2000/svg">
<g clip-path="url(#clip0_109_43823)">
<path d="M0 0H27V18H0V0Z" fill="#007C30"/>
<path d="M0 12.1053H27V0H0" fill="#CE1720"/>
<path d="M5.26316 12.1053V0H0V18H27H5.26316V12.1053Z" fill="white"/>
<path d="M1.47418 8.39868L0.453125 6.74605L1.47418 5.125L2.48997 6.74605L1.47418 8.39868ZM3.82155 8.39868L2.80576 6.74605L3.82155 5.125L4.8426 6.74605L3.82155 8.39868ZM1.47418 12.6934L0.453125 11.0408L1.47418 9.41973L2.48997 11.0408L1.47418 12.6934ZM3.82155 12.6934L2.80576 11.0408L3.82155 9.41973L4.8426 11.0408L3.82155 12.6934Z" fill="#CE1720"/>
<path fill-rule="evenodd" clip-rule="evenodd" d="M1.47515 0.820312L2.53352 2.51372L1.47515 4.23358L0.410156 2.51371L1.47515 0.820312ZM3.82154 0.820312L4.88653 2.51371L3.82154 4.23358L2.76316 2.51372L3.82154 0.820312ZM0.844429 2.51523L1.47417 3.5322L2.10001 2.51522L1.47417 1.51389L0.844429 2.51523ZM3.82251 1.51389L3.19668 2.51522L3.82252 3.5322L4.45226 2.51523L3.82251 1.51389ZM1.47515 13.6677L2.53341 15.3609L1.47515 17.0872L0.410273 15.3609L1.47515 13.6677ZM3.82154 13.6677L4.88642 15.3609L3.82154 17.0872L2.76328 15.3609L3.82154 13.6677ZM0.844312 15.3628L1.47417 16.3839L2.10012 15.3628L1.47417 14.3613L0.844312 15.3628ZM3.82251 14.3613L3.19657 15.3628L3.82252 16.3839L4.45238 15.3628L3.82251 14.3613Z" fill="#CE1720"/>
</g>
<rect x="0.5" y="0.5" width="26" height="17" rx="0.5" stroke="black" stroke-opacity="0.2"/>
<defs>
<clipPath id="clip0_109_43823">
<rect width="27" height="18" rx="1" fill="white"/>
</clipPath>
</defs>
</svg>
