<svg width="27" height="18" viewBox="0 0 27 18" fill="none" xmlns="http://www.w3.org/2000/svg">
<g clip-path="url(#clip0_109_43788)">
<path d="M0 0H27V17.9996H0V0Z" fill="#D80027"/>
<path d="M0 12.5234H27V18.0015H0V12.5234Z" fill="#6DA544"/>
<path d="M0 0H27V5.51153H0V0Z" fill="#338AF3"/>
<path d="M0 6.62109H27V11.349H0V6.62109Z" fill="white"/>
<path d="M0 0H27V5.51153H0V0Z" fill="#338AF3"/>
<path d="M9.94994 2.75695C9.94994 1.91404 10.5424 1.20977 11.3335 1.03707C11.2095 1.00991 11.083 0.996176 10.9562 0.996094C9.98364 0.996094 9.19531 1.78442 9.19531 2.75695C9.19531 3.72948 9.98364 4.5178 10.9562 4.5178C11.0858 4.5178 11.2119 4.50341 11.3335 4.47683C10.5424 4.30412 9.94994 3.59986 9.94994 2.75695ZM12.3741 3.5573L12.4934 3.92417H12.8791L12.567 4.15098L12.6863 4.5178L12.3741 4.29105L12.0621 4.5178L12.1813 4.15098L11.8692 3.92417H12.255L12.3741 3.5573ZM13.6054 3.5573L13.7246 3.92417H14.1103L13.7982 4.15098L13.9175 4.5178L13.6054 4.29105L13.2933 4.5178L13.4125 4.15098L13.1004 3.92417H13.4861L13.6054 3.5573ZM14.8366 3.5573L14.9557 3.92417H15.3415L15.0295 4.15098L15.1486 4.5178L14.8366 4.29105L14.5245 4.5178L14.6437 4.15098L14.3316 3.92417H14.7173L14.8366 3.5573ZM16.0678 3.5573L16.187 3.92417H16.5728L16.2607 4.15098L16.3799 4.5178L16.0678 4.29105L15.7557 4.5178L15.875 4.15098L15.5628 3.92417H15.9485L16.0678 3.5573ZM17.299 3.5573L17.4182 3.92417H17.8039L17.4918 4.15098L17.6111 4.5178L17.299 4.29105L16.9869 4.5178L17.1061 4.15098L16.7941 3.92417H17.1798L17.299 3.5573ZM13.6054 2.2767L13.7246 2.64352H14.1103L13.7982 2.87028L13.9175 3.23715L13.6054 3.01044L13.2933 3.23715L13.4125 2.87028L13.1004 2.64352H13.4861L13.6054 2.2767ZM14.8366 2.2767L14.9557 2.64352H15.3415L15.0295 2.87028L15.1486 3.23715L14.8366 3.01044L14.5245 3.23715L14.6437 2.87028L14.3316 2.64352H14.7173L14.8366 2.2767ZM16.0678 2.2767L16.187 2.64352H16.5728L16.2607 2.87028L16.3799 3.23715L16.0678 3.01044L15.7557 3.23715L15.875 2.87028L15.5628 2.64352H15.9485L16.0678 2.2767ZM17.299 2.2767L17.4182 2.64352H17.8039L17.4918 2.87028L17.6111 3.23715L17.299 3.01044L16.9869 3.23715L17.1061 2.87028L16.7941 2.64352H17.1798L17.299 2.2767ZM14.8366 0.996094L14.9557 1.36291H15.3415L15.0295 1.58967L15.1486 1.95655L14.8366 1.72979L14.5245 1.95655L14.6437 1.58967L14.3316 1.36291H14.7173L14.8366 0.996094ZM16.0678 0.996094L16.187 1.36291H16.5728L16.2607 1.58967L16.3799 1.95655L16.0678 1.72979L15.7557 1.95655L15.875 1.58967L15.5628 1.36291H15.9485L16.0678 0.996094ZM17.299 0.996094L17.4182 1.36291H17.8039L17.4918 1.58967L17.6111 1.95655L17.299 1.72979L16.9869 1.95655L17.1061 1.58967L16.7941 1.36291H17.1798L17.299 0.996094Z" fill="white"/>
</g>
<rect x="0.5" y="0.5" width="26" height="17" rx="0.5" stroke="black" stroke-opacity="0.2"/>
<defs>
<clipPath id="clip0_109_43788">
<rect width="27" height="18" rx="1" fill="white"/>
</clipPath>
</defs>
</svg>
