<svg width="375" height="225" viewBox="0 0 375 225" fill="none" xmlns="http://www.w3.org/2000/svg">
<ellipse cx="195.594" cy="192.174" rx="80.6248" ry="9.25835" fill="#A0A09F" fill-opacity="0.15"/>
<path fill-rule="evenodd" clip-rule="evenodd" d="M99.0271 101.522L231.324 25.1405C233.169 24.0753 235.528 24.7074 236.593 26.5525L277.484 97.3778C278.549 99.2229 277.917 101.582 276.072 102.647L143.776 179.029C141.931 180.094 139.571 179.462 138.506 177.617L97.6151 106.791C96.5499 104.946 97.182 102.587 99.0271 101.522Z" fill="#D8D8D8"/>
<path d="M230.573 23.8418C233.136 22.3623 236.413 23.2402 237.893 25.8027L278.783 96.6279C280.263 99.1904 279.385 102.467 276.822 103.946L144.525 180.328C141.963 181.807 138.686 180.929 137.207 178.367L96.3164 107.541C94.8371 104.979 95.7149 101.702 98.2773 100.223L230.573 23.8418Z" fill="#D8D8D8" stroke="white" stroke-width="3"/>
<path fill-rule="evenodd" clip-rule="evenodd" d="M236.593 26.5525L239.753 32.0274L199.696 116.687C199.016 118.124 197.524 118.997 195.939 118.885L100.733 112.193L97.6151 106.791C96.5499 104.946 97.182 102.587 99.0271 101.522L231.323 25.1405C233.169 24.0753 235.528 24.7074 236.593 26.5525Z" fill="#A0A09F" fill-opacity="0.15"/>
<path fill-rule="evenodd" clip-rule="evenodd" d="M98.929 101.575L231.412 25.0858C233.257 24.0206 235.616 24.6527 236.681 26.4978C237.314 27.5928 237.369 28.9282 236.83 30.0718L197.615 113.243C196.935 114.684 195.439 115.559 193.85 115.446L100.582 108.763C98.4571 108.611 96.8578 106.765 97.01 104.64C97.1015 103.363 97.8204 102.215 98.929 101.575Z" fill="#F1F1F1"/>
<ellipse cx="195.594" cy="108.512" rx="20.0597" ry="20.0597" transform="rotate(-30 195.594 108.512)" fill="#A0A09F" fill-opacity="0.15"/>
<path fill-rule="evenodd" clip-rule="evenodd" d="M198.319 127.924C187.786 131.346 176.472 125.582 173.049 115.048C169.627 104.514 175.391 93.2005 185.925 89.778C196.459 86.3554 207.772 92.12 211.195 102.654C214.618 113.187 208.853 124.501 198.319 127.924Z" fill="#DB0007"/>
<path fill-rule="evenodd" clip-rule="evenodd" d="M193.866 98.7694C195.772 98.1502 199.927 105.683 203.147 115.594L205.909 114.696C202.441 104.022 196.848 96.2742 193.418 97.3888C191.466 98.023 190.57 101.19 190.753 105.625C188.293 101.929 185.707 99.8943 183.755 100.528C180.325 101.643 180.354 111.199 183.822 121.873L186.584 120.975C183.364 111.065 182.299 102.528 184.204 101.909C186.109 101.29 190.064 108.204 193.037 117.353L195.798 116.455C192.825 107.307 191.961 99.3887 193.866 98.7694Z" fill="#FFBC0D"/>
</svg>
