<svg width="375" height="225" viewBox="0 0 375 225" fill="none" xmlns="http://www.w3.org/2000/svg">
<g clip-path="url(#clip0_102_69775)">
<path d="M184.5 4C262.096 4 325 66.904 325 144.5C325 163.443 321.249 181.51 314.453 198H54.5469C47.7506 181.51 44 163.443 44 144.5C44 66.904 106.904 4 184.5 4Z" fill="#DCEDF4"/>
<ellipse cx="184" cy="203" rx="153" ry="14" fill="#A0A09F" fill-opacity="0.15"/>
<path d="M316 97V124H264L264.005 97H316Z" fill="#FFBC0D"/>
<path d="M190.926 120H77V97H191L190.926 120Z" fill="#FFBC0D"/>
<path d="M191 99L190.97 108H77V99H191Z" fill="black" fill-opacity="0.1"/>
<path d="M316 99V108H264L264.002 99H316Z" fill="black" fill-opacity="0.1"/>
<path d="M264 124H287V203H264V124Z" fill="#F9F9F9"/>
<path d="M288 124H316V203H288V124Z" fill="#F9F9F9"/>
<path d="M191 89L190.967 98.999L73.8004 99C72.8061 99 72 98.1942 72 97.2002V90.8008C72 89.8068 72.8061 89.001 73.8004 89.001L191 89Z" fill="#FFBC0D"/>
<path d="M318.212 89.001C319.2 89.001 320 89.8068 320 90.8008V97.2002C320 98.1942 319.2 99 318.212 99L264 98.999L264.002 89L318.212 89.001Z" fill="#FFBC0D"/>
<path d="M260.5 74.5234L260.473 202.998H194.569L194.5 74.5234L260.5 74.5234Z" fill="#F1F1F1"/>
<path d="M59.8 124H244.443C245.437 124 246.243 124.806 246.243 125.8V140H58V125.8C58 124.806 58.8059 124 59.8 124Z" fill="#606060"/>
<path d="M195 140H246V203H195V140Z" fill="#D8D8D8"/>
<path d="M109 140H137V203H109V140Z" fill="#F9F9F9"/>
<path d="M138 140H166V203H138V140Z" fill="#F9F9F9"/>
<path d="M167 140H195V203H167V140Z" fill="#F9F9F9"/>
<path d="M218 154H246V203H218V154Z" fill="#F9F9F9"/>
<path d="M58 198H109V204H58V198Z" fill="#A5835B"/>
<path d="M58 192H109V198H58V192Z" fill="#C2945C"/>
<path d="M58 187H109V193H58V187Z" fill="#A5835B"/>
<path d="M58 182H109V188H58V182Z" fill="#C2945C"/>
<path d="M58 177H109V183H58V177Z" fill="#A5835B"/>
<path d="M58 171H109V177H58V171Z" fill="#C2945C"/>
<path d="M58 166H109V172H58V166Z" fill="#A5835B"/>
<path d="M58 161H109V167H58V161Z" fill="#C2945C"/>
<path d="M58 156H109V162H58V156Z" fill="#A5835B"/>
<path d="M58 150H109V156H58V150Z" fill="#C2945C"/>
<path d="M58 145H109V151H58V145Z" fill="#A5835B"/>
<path d="M58 140H109V146H58V140Z" fill="#C2945C"/>
<path d="M136 140H140V203H136V140Z" fill="#D8D8D8"/>
<path d="M286 124H290V203H286V124Z" fill="#D8D8D8"/>
<path d="M312 124H316V203H312V124Z" fill="#D8D8D8"/>
<path d="M165 140H169V203H165V140Z" fill="#D8D8D8"/>
<path d="M218 154H246V160H218V154Z" fill="#A0A09F" fill-opacity="0.15"/>
<path d="M195 140H246V143H195V140Z" fill="#292929" fill-opacity="0.1"/>
<path d="M165 140H169V146H165V140Z" fill="#292929" fill-opacity="0.1"/>
<path d="M136 140H140V146H136V140Z" fill="#292929" fill-opacity="0.1"/>
<path d="M109 140H136V145H109V140Z" fill="#A0A09F" fill-opacity="0.15"/>
<path d="M140 140H165V145H140V140Z" fill="#A0A09F" fill-opacity="0.15"/>
<path d="M169 140H195V145H169V140Z" fill="#A0A09F" fill-opacity="0.15"/>
<path fill-rule="evenodd" clip-rule="evenodd" d="M236.023 86.7959C239.143 86.7959 241.672 99.9528 241.672 116.182H246.195C246.195 98.703 241.64 84.5352 236.023 84.5352C232.826 84.5352 229.975 88.7942 228.111 95.4522C226.247 88.7942 223.396 84.5352 220.2 84.5352C214.584 84.5352 210.027 98.703 210.027 116.182H214.55C214.55 99.9528 217.08 86.7959 220.2 86.7959C223.32 86.7959 225.85 98.9404 225.85 113.921H230.372C230.372 98.9404 232.902 86.7959 236.023 86.7959Z" fill="#FFBC0D"/>
<rect x="63" y="33" width="6" height="170" fill="#F9F9F9"/>
<rect x="66" y="33" width="3" height="170" fill="#F1F1F1"/>
<path d="M66 26C68.2091 26 70 27.7909 70 30C70 31.195 69.4754 32.267 68.6445 33H63.3555C62.5246 32.267 62 31.195 62 30C62 27.7909 63.7909 26 66 26Z" fill="#FFBC0D"/>
<path opacity="0.5" d="M66 26C67.3598 26 68.5605 26.6789 69.2832 27.7158C68.6357 27.2648 67.8489 27 67 27C64.7909 27 63 28.7909 63 31C63 31.8496 63.2659 32.6366 63.7178 33.2842C62.6799 32.5616 62 31.3605 62 30C62 27.7909 63.7909 26 66 26Z" fill="#F9F9F9"/>
<g clip-path="url(#clip1_102_69775)">
<path d="M69 33H124.323V69.882H69V33Z" fill="white"/>
<path d="M85.999 54.5852C85.999 54.5852 85.0222 59.332 83.9125 58.9495C82.765 58.567 82.0183 56.9224 82.0183 56.9224L80.4494 59.2174C80.4494 59.2174 84.5749 60.1337 84.8807 59.8085C85.0125 59.6853 85.7678 58.1769 85.9979 56.9937V54.5852H85.999ZM79.934 61.13C79.934 61.13 79.666 63.3105 79.8195 63.5785C79.9535 63.827 84.0854 64.8027 84.0854 64.8027C84.0854 64.8027 81.3884 66.5813 80.8719 67.0222L78.9205 63.7892L78.8438 61.13H79.934ZM81.1582 43.2266C81.1582 43.2266 85.4425 47.7216 85.5193 48.143C85.596 48.545 85.06 48.4877 85.06 48.4877C85.06 48.4877 80.2203 44.4324 79.666 44.0499C79.0923 43.6663 81.1582 43.2266 81.1582 43.2266Z" fill="#E6BC00"/>
<path d="M79.7418 44.3169C79.7418 44.3169 81.5776 44.2402 81.5398 43.0732C81.502 41.9257 80.335 41.4665 79.4738 41.7345C78.6127 41.983 76.9875 43.1878 78.0011 45.5217C79.0146 47.8363 80.5263 48.6974 80.8321 50.6867C80.8321 50.6867 80.2421 51.7521 78.7661 50.7245C76.94 49.4527 78.0962 46.5926 77.638 45.8664C77.1788 45.1014 73.2133 41.661 73.2133 41.661C73.2133 41.661 69.9457 45.9151 71.2683 49.7564C73.0998 55.0737 76.859 53.2119 78.2496 53.7284C78.2496 53.7284 73.6973 60.4234 72.8934 60.9777C72.8934 60.9777 75.4953 61.8768 78.0584 58.9507C78.0584 58.9507 78.6894 60.0031 78.8234 61.1312H79.9331C80.4496 58.3002 85.4989 54.1877 85.3271 52.2362C85.1358 49.9401 80.0098 46.8994 79.7418 44.3169Z" fill="#ADADAD"/>
<path d="M107.808 54.7483C107.808 54.7483 108.776 59.3331 109.886 58.9505C111.034 58.568 111.78 56.9235 111.78 56.9235L113.349 59.2185C113.349 59.2185 109.351 60.1348 109.046 59.8096C108.915 59.6864 108.038 58.3195 107.801 57.145L107.808 54.7483ZM113.865 61.13C113.865 61.13 114.133 63.3105 113.979 63.5785C113.845 63.827 109.713 64.8027 109.713 64.8027C109.713 64.8027 112.41 66.5813 112.927 67.0222L114.878 63.7892L114.955 61.13H113.865ZM112.64 43.2266C112.64 43.2266 108.356 47.7216 108.279 48.143C108.203 48.545 108.739 48.4877 108.739 48.4877C108.739 48.4877 113.578 44.4324 114.133 44.0499C114.688 43.6663 112.64 43.2266 112.64 43.2266Z" fill="#E6BC00"/>
<path d="M85.9961 42.4062H107.8V58.1238C107.8 59.8591 106.753 60.435 105.433 61.5653L100.471 65.8237C98.4989 67.5115 95.294 67.5061 93.3318 65.8237L88.3603 61.5631C87.055 60.4448 85.9961 59.8656 85.9961 58.1248V42.4062Z" fill="#125ECC"/>
<path d="M90.6703 48.9617C89.8102 48.9617 89.1133 48.2648 89.1133 47.4047C89.1133 46.5445 89.8102 45.8476 90.6703 45.8476C91.5304 45.8476 92.2274 46.5445 92.2274 47.4047C92.2274 48.2648 91.5304 48.9617 90.6703 48.9617ZM96.8996 48.6375C96.0395 48.6375 95.3425 47.9406 95.3425 47.0805C95.3425 46.2204 96.0395 45.5234 96.8996 45.5234C97.7597 45.5234 98.4566 46.2204 98.4566 47.0805C98.4566 47.9406 97.7597 48.6375 96.8996 48.6375ZM103.129 48.9617C102.269 48.9617 101.572 48.2648 101.572 47.4047C101.572 46.5445 102.269 45.8476 103.129 45.8476C103.989 45.8476 104.686 46.5445 104.686 47.4047C104.686 48.2648 103.989 48.9617 103.129 48.9617ZM92.2274 62.6543C91.3673 62.6543 90.6703 61.9573 90.6703 61.0972C90.6703 60.2371 91.3673 59.5402 92.2274 59.5402C93.0875 59.5402 93.7844 60.2371 93.7844 61.0972C93.7855 61.9573 93.0875 62.6543 92.2274 62.6543ZM96.8996 64.2124C96.0395 64.2124 95.3425 63.5155 95.3425 62.6554C95.3425 61.7953 96.0395 61.0983 96.8996 61.0983C97.7597 61.0983 98.4566 61.7953 98.4566 62.6554C98.4566 63.5144 97.7597 64.2124 96.8996 64.2124ZM101.572 62.6543C100.712 62.6543 100.015 61.9573 100.015 61.0972C100.015 60.2371 100.712 59.5402 101.572 59.5402C102.432 59.5402 103.129 60.2371 103.129 61.0972C103.129 61.9573 102.432 62.6543 101.572 62.6543Z" fill="#FFE600"/>
<path d="M85.9961 51.9492H107.8V58.1784H85.9961V51.9492Z" fill="#D60537"/>
<path d="M84.4414 37.7367C84.4414 37.7367 90.6707 36.1797 96.901 36.1797C103.131 36.1797 109.361 37.7367 109.361 37.7367L107.804 43.966C107.804 43.966 102.352 42.4089 96.9021 42.4089C91.4519 42.4089 86.0006 43.966 86.0006 43.966L84.4414 37.7367Z" fill="#EACE00"/>
<path d="M96.8996 40.8485C96.0395 40.8485 95.3425 40.1515 95.3425 39.2914C95.3425 38.4313 96.0395 37.7344 96.8996 37.7344C97.7597 37.7344 98.4566 38.4313 98.4566 39.2914C98.4566 40.1515 97.7597 40.8485 96.8996 40.8485ZM103.129 41.3887C102.269 41.3887 101.572 40.6918 101.572 39.8317C101.572 38.9716 102.269 38.2746 103.129 38.2746C103.989 38.2746 104.686 38.9716 104.686 39.8317C104.686 40.6918 103.989 41.3887 103.129 41.3887ZM90.6703 41.3887C89.8102 41.3887 89.1133 40.6918 89.1133 39.8317C89.1133 38.9716 89.8102 38.2746 90.6703 38.2746C91.5304 38.2746 92.2274 38.9716 92.2274 39.8317C92.2274 40.6918 91.5304 41.3887 90.6703 41.3887Z" fill="#7A6920"/>
<path d="M108.45 52.2362C108.278 54.1877 113.327 58.3002 113.844 61.1312H114.953C115.087 60.0031 115.718 58.9507 115.718 58.9507C118.281 61.8778 120.883 60.9777 120.883 60.9777C120.079 60.4234 115.527 53.7284 115.527 53.7284C116.919 53.2119 120.678 55.0737 122.508 49.7564C123.831 45.9151 120.563 41.661 120.563 41.661C120.563 41.661 116.598 45.1014 116.139 45.8664C115.679 46.5936 116.837 49.4538 115.011 50.7245C113.535 51.7521 112.945 50.6867 112.945 50.6867C113.25 48.6974 114.762 47.8363 115.776 45.5217C116.789 43.1878 115.164 41.983 114.303 41.7345C113.442 41.4665 112.276 41.9257 112.237 43.0732C112.199 44.2402 114.035 44.3169 114.035 44.3169C113.767 46.8994 108.641 49.9401 108.45 52.2362Z" fill="#ADADAD"/>
<path d="M96.8996 56.8931C97.91 56.8931 98.729 56.074 98.729 55.0637C98.729 54.0534 97.91 53.2344 96.8996 53.2344C95.8893 53.2344 95.0703 54.0534 95.0703 55.0637C95.0703 56.074 95.8893 56.8931 96.8996 56.8931Z" fill="white"/>
</g>
<path d="M67.8158 205.5L68.7364 205.494C75.9374 205.404 81.6316 204.137 81.6316 196.816C81.6316 189.186 75.446 183 67.8158 183C60.1855 183 54 189.186 54 196.816C54 204.446 60.1855 205.5 67.8158 205.5Z" fill="#9CC93A"/>
<path d="M98.8158 205.5L99.7364 205.494C106.937 205.404 112.632 204.137 112.632 196.816C112.632 189.186 106.446 183 98.8158 183C91.1855 183 85 189.186 85 196.816C85 204.446 91.1855 205.5 98.8158 205.5Z" fill="#9CC93A"/>
<path d="M128.816 205.5L129.736 205.494C136.937 205.404 142.632 204.137 142.632 196.816C142.632 189.186 136.446 183 128.816 183C121.186 183 115 189.186 115 196.816C115 204.446 121.186 205.5 128.816 205.5Z" fill="#9CC93A"/>
<path d="M253.561 29.8555C255.088 29.8555 256.327 31.0943 256.327 32.6221C256.327 34.0685 255.217 35.2538 253.802 35.376C254.09 36.0127 254.252 36.7186 254.252 37.4629C254.252 40.2639 251.982 42.5342 249.181 42.5342H257.94C260.741 42.5342 263.013 44.8055 263.013 47.6064H269.929C272.729 47.6066 275 49.8769 275 52.6777C275 55.4786 272.73 57.7498 269.929 57.75H262.332C261.455 59.2653 259.817 60.2852 257.94 60.2852H215.523C213.647 60.2852 212.009 59.2653 211.132 57.75H206.071C203.27 57.7498 201 55.4786 201 52.6777C201 49.8769 203.271 47.6066 206.071 47.6064H210.452C210.452 44.8055 212.722 42.5342 215.523 42.5342H221.748C221.748 39.7334 224.018 37.4629 226.819 37.4629H235.349C235.349 34.6619 237.62 32.3916 240.421 32.3916H249.181C249.746 32.3916 250.288 32.4849 250.796 32.6553C250.796 32.6442 250.795 32.6332 250.795 32.6221C250.795 31.0943 252.033 29.8556 253.561 29.8555Z" fill="white"/>
<path d="M140.047 2C143.684 2 146.634 4.94858 146.634 8.58594C146.634 8.65081 146.631 8.71586 146.629 8.78027H148.184C150.537 8.78048 152.445 10.6884 152.445 13.042H155.738C158.092 13.042 160 14.95 160 17.3037C160 19.6574 158.092 21.5654 155.738 21.5654H153.229C152.493 22.8389 151.116 23.6963 149.539 23.6963H133.461C131.884 23.6963 130.507 22.8389 129.771 21.5654H127.262C124.908 21.5654 123 19.6574 123 17.3037C123 14.95 124.908 13.042 127.262 13.042H127.843C127.843 10.6883 129.751 8.78037 132.104 8.78027H133.466C133.464 8.71585 133.461 8.65081 133.461 8.58594C133.461 4.94867 136.41 2.00015 140.047 2Z" fill="white"/>
</g>
<defs>
<clipPath id="clip0_102_69775">
<rect width="375" height="225" fill="white"/>
</clipPath>
<clipPath id="clip1_102_69775">
<rect width="55.3231" height="36.882" fill="white" transform="translate(69 33)"/>
</clipPath>
</defs>
</svg>
