<svg width="136" height="136" viewBox="0 0 136 136" fill="none" xmlns="http://www.w3.org/2000/svg">
<path d="M72.8135 74.3746C87.1325 73.819 99.2646 84.8202 100.188 99.0194L100.223 99.6979L100.223 99.6986C100.788 114.23 89.4231 126.508 74.8766 127.073C60.3328 127.63 48.0412 116.275 47.4688 101.743C46.9023 87.2178 58.2673 74.9392 72.8135 74.3746ZM98.9982 99.7463C98.4511 85.8976 86.7321 75.0609 72.8613 75.5991L72.2131 75.6328C58.6543 76.5042 48.1617 88.0633 48.6934 101.694C49.239 115.55 60.9596 126.379 74.8289 125.848C88.6997 125.31 99.5368 113.601 98.9982 99.7463Z" fill="white"/>
<path d="M74.83 125.848C60.9606 126.379 49.2399 115.55 48.6942 101.694C48.154 87.8465 58.9911 76.1371 72.862 75.5988C86.7329 75.0606 98.4521 85.8968 98.9993 99.7457C99.538 113.6 88.7009 125.309 74.83 125.848Z" fill="url(#paint0_linear_3993_41119)"/>
<path d="M72.9517 78.0883C60.4571 78.569 50.6913 89.1142 51.1856 101.597C51.6799 114.079 62.2347 123.838 74.7309 123.35C87.2271 122.863 96.9913 112.324 96.497 99.8418C96.0027 87.3593 85.4464 77.6076 72.9517 78.0883Z" fill="white"/>
<path d="M79.4729 87.268C76.9865 87.3668 74.903 90.7566 73.6563 95.9778C72.0066 90.8631 69.6619 87.6481 67.177 87.7399C62.8162 87.9071 59.7017 99.0409 60.2368 112.603L63.7521 112.468C63.259 99.876 64.8231 89.5861 67.2492 89.4964C69.6767 89.3997 72.0094 98.7536 72.4675 110.376L75.9828 110.241C75.5178 98.6168 77.1189 89.1142 79.5395 89.016C81.9671 88.9193 84.3299 99.0592 84.823 111.651L88.3313 111.514C87.8102 97.9547 83.8353 87.0939 79.4729 87.268Z" fill="#FFBC0D"/>
<path d="M101.365 72.7998C101.646 72.9617 101.879 73.1947 102.041 73.4754L112.677 91.9103C113.186 92.7923 112.883 93.9198 112.001 94.4286C111.721 94.5903 111.403 94.6754 111.08 94.6754H89.8086C88.7903 94.6754 87.9648 93.8499 87.9648 92.8317C87.9648 92.5082 88.0499 92.1905 88.2116 91.9103L98.8471 73.4754C99.356 72.5934 100.483 72.2909 101.365 72.7998Z" fill="#EF8849"/>
<path d="M97.6089 72.7934C98.5073 71.2544 100.511 70.7157 102.082 71.6116C102.58 71.8956 102.991 72.3043 103.277 72.7934L114.039 91.2274C114.933 92.759 114.406 94.7238 112.843 95.6152C112.345 95.8987 111.78 96.0485 111.204 96.0485H89.683C87.8656 96.0485 86.4141 94.5951 86.4141 92.8304C86.4141 92.2686 86.5635 91.7155 86.8484 91.2274L97.6089 72.7934ZM87.817 92.8304C87.817 93.7849 88.5508 94.5709 89.4912 94.6655L89.683 94.6749H111.204L111.448 94.6588C111.609 94.6378 111.767 94.5956 111.918 94.534L112.137 94.4281C112.973 93.951 113.294 92.9302 112.907 92.0779L112.821 91.9102L102.059 73.4749C101.895 73.1942 101.659 72.9607 101.375 72.7988C100.483 72.2903 99.343 72.5931 98.8282 73.4749L88.0664 91.9102L87.9581 92.1262C87.865 92.3487 87.8171 92.588 87.817 92.8304Z" fill="white"/>
<path d="M98.9926 79.0586L99.2239 87.6697H101.599L101.839 79.0586H98.9926ZM100.416 92.1621C101.421 92.1621 102.035 91.5839 102.035 90.6498C102.035 89.7069 101.421 89.1287 100.416 89.1287C99.4196 89.1287 98.7969 89.7069 98.7969 90.6498C98.7969 91.5839 99.4196 92.1621 100.416 92.1621Z" fill="#292929"/>
<path d="M37.883 22.4166C43.7975 22.4095 48.8099 24.4829 51.9767 28.4144C52.166 28.6198 52.3606 28.8449 52.544 29.0834L52.8168 29.4496C53.0794 29.8138 53.312 30.1715 53.5266 30.5082C53.7471 30.8542 53.9427 31.1683 54.1453 31.4704L54.3518 31.7696L54.3536 31.7726C57.4999 36.2389 57.6992 41.9926 55.6958 47.5639C53.691 53.139 49.4538 58.6456 43.5039 62.8279C37.5537 67.0104 30.9328 69.1329 25.0017 69.1339C19.0751 69.1348 13.7196 67.0041 10.5736 62.5383L10.5724 62.5359C9.737 61.345 9.49189 61.0036 8.69578 59.7892L8.65628 59.7294L8.62457 59.666C8.61972 59.6563 8.61557 59.6467 8.6114 59.6378C5.59069 55.1443 5.41488 49.4242 7.38707 43.8957C9.37755 38.3158 13.5807 32.8235 19.491 28.6747C25.2007 24.6624 31.7201 22.417 37.8812 22.4166H37.8818L37.883 22.416V22.4166ZM37.883 23.6415C32.0108 23.6415 25.7316 25.7866 20.1947 29.6776C8.7429 37.7163 4.06969 50.8578 9.69931 59.0604C9.70639 59.0747 9.71317 59.103 9.72025 59.1172C10.5051 60.3145 10.7411 60.6421 11.5759 61.8322C17.284 69.935 31.2614 69.935 42.7989 61.825C54.3364 53.7151 59.0599 40.581 53.3518 32.4782C52.7454 31.623 52.2601 30.718 51.5752 29.8344C51.4111 29.6207 51.2329 29.414 51.0545 29.2216C48.262 25.7283 43.8221 23.76 38.4096 23.6469L37.883 23.6415Z" fill="white"/>
<path d="M53.3536 32.4794C52.7472 31.6243 52.262 30.7192 51.577 29.8355C51.4129 29.6217 51.2345 29.4151 51.0561 29.2226C48.1735 25.6166 43.5357 23.6355 37.8847 23.6426C32.0124 23.6426 25.7335 25.7877 20.1967 29.6787C8.74475 37.7174 4.07124 50.8586 9.70086 59.0612C9.708 59.0755 9.71513 59.104 9.72227 59.1182C10.5071 60.3155 10.7426 60.6433 11.5774 61.8334C17.2855 69.9363 31.2633 69.9363 42.8008 61.8263C54.3383 53.7164 59.0618 40.5823 53.3536 32.4794Z" fill="url(#paint1_linear_3993_41119)"/>
<path d="M21.1305 30.9966C26.3891 27.2979 32.3398 25.2598 37.8838 25.2598C41.4228 25.2598 44.5052 26.0936 46.924 27.6543C48.2226 28.4952 49.3285 29.5428 50.2062 30.7899C52.7177 34.3603 53.0959 39.135 51.2622 44.2447C49.3928 49.4542 45.4613 54.3572 40.2027 58.0559C29.4286 65.6313 16.3856 65.724 11.127 58.2625C5.86841 50.8011 10.3564 38.572 21.1305 30.9966Z" fill="white"/>
<path d="M38.4455 33.9756C39.5514 35.4864 31.874 42.0784 21.4995 48.8272L22.9979 50.9437C33.4152 44.2234 42.9121 40.0972 43.9966 41.5938C45.074 43.0903 36.519 50.0173 25.1242 57.2293L26.5797 59.3245C38.9235 51.5994 47.5785 43.3113 45.6306 40.6174C44.5103 39.0781 40.4647 39.5627 35.0991 41.6009C39.159 37.7668 41.1854 34.5243 40.0509 32.9779C38.0388 30.2484 26.5441 34.3818 14.6641 42.4062L16.191 44.5441C27.2647 37.1255 37.3395 32.4647 38.4455 33.9756Z" fill="#FFBC0D"/>
<path d="M97.3702 5.52437C101.351 4.18696 105.974 5.45938 110.479 8.75335C115.256 12.2382 119.603 17.7411 122.78 24.2113L123.073 24.8187C126.062 31.1006 127.645 37.6708 127.486 43.3931C127.323 49.5195 125.145 54.3142 120.935 56.3754L120.934 56.3748C120.824 56.4304 120.73 56.4637 120.692 56.4765C120.687 56.4783 120.681 56.4796 120.676 56.4813C120.082 56.7737 119.248 57.1321 118.477 57.4597C117.648 57.8122 116.899 58.1281 116.461 58.3418C112.351 60.3562 107.348 58.8961 102.776 55.5532C98.1502 52.1718 93.654 46.667 90.3132 39.8661L90.3126 39.8655C86.9754 33.0647 85.3706 26.1446 85.5259 20.4216C85.6795 14.7631 87.5879 9.91641 91.7015 7.90182C92.4663 7.52721 95.3743 6.21907 96.2098 5.87144V5.87085C96.6132 5.70075 97.0195 5.5993 97.3702 5.52437ZM109.758 9.74371C105.391 6.55106 101.16 5.51079 97.6921 6.70801C97.3497 6.77926 97.0072 6.86468 96.6862 7.00003L96.2936 7.16699C95.1888 7.64597 92.8899 8.68426 92.2406 9.00229C85.241 12.4301 84.8772 26.0063 91.413 39.3257C97.956 52.6451 108.93 60.6697 115.923 57.2419C116.872 56.7787 119.083 55.9092 120.196 55.3533C120.261 55.3249 120.332 55.3106 120.396 55.275C124.021 53.5005 126.104 49.2672 126.261 43.3596C126.413 37.871 124.891 31.4926 121.968 25.3459L121.68 24.7522C118.667 18.6147 114.601 13.42 110.186 10.0627L109.758 9.74371Z" fill="white"/>
<path d="M121.681 24.7529C118.57 18.4175 114.339 13.0868 109.758 9.74452C105.392 6.55186 101.161 5.51139 97.6929 6.70864C97.3504 6.7799 97.0079 6.86542 96.6868 7.00083C95.8805 7.33577 92.9837 8.63992 92.2416 9.00337C85.242 12.4312 84.8782 26.0072 91.4139 39.3266C97.9569 52.646 108.931 60.6704 115.923 57.2426C116.872 56.7793 119.084 55.9099 120.197 55.354C120.261 55.3255 120.333 55.3113 120.397 55.2757C124.022 53.5012 126.105 49.268 126.262 43.3602C126.419 37.6946 124.792 31.0812 121.681 24.7529Z" fill="url(#paint2_linear_3993_41119)"/>
<path d="M119.756 53.9563C116.809 55.4029 112.864 54.4979 108.647 51.4192C104.223 48.1909 100.113 42.9957 97.0735 36.8028C94.0339 30.6099 92.4356 24.1889 92.5926 18.7158C92.7353 13.4992 94.4406 9.82907 97.3874 8.38952C100.334 6.94284 104.28 7.84791 108.497 10.9265C112.921 14.1548 117.03 19.35 120.07 25.543C123.003 31.5221 124.587 37.7079 124.565 43.0527C124.565 43.2452 124.558 43.4376 124.558 43.63C124.401 48.8466 122.703 52.5096 119.756 53.9563Z" fill="white"/>
<path d="M105.718 16.2504C104.426 16.8846 104.883 20.7258 106.645 26.2275C103.37 21.467 100.609 18.7518 99.3176 19.386C97.0415 20.4978 100.559 32.3135 107.173 45.7754L109 44.8775C102.864 32.3776 98.9109 21.7449 100.174 21.1249C101.437 20.5049 107.052 29.3631 112.717 40.9009L114.544 40.003C108.879 28.4652 105.311 18.6092 106.574 17.9892C107.837 17.3692 113.838 27.0042 119.974 39.5041L121.8 38.6062C115.193 25.1442 107.994 15.1386 105.718 16.2504Z" fill="#FFBC0D"/>
<defs>
<linearGradient id="paint0_linear_3993_41119" x1="103.692" y1="81.3507" x2="54.4406" y2="70.8971" gradientUnits="userSpaceOnUse">
<stop offset="0.000616698" stop-color="#910063"/>
<stop offset="0.0362" stop-color="#990059"/>
<stop offset="0.1727" stop-color="#B60035"/>
<stop offset="0.3012" stop-color="#CA001C"/>
<stop offset="0.4172" stop-color="#D7000C"/>
<stop offset="0.5101" stop-color="#DB0007"/>
<stop offset="1" stop-color="#E8720A"/>
</linearGradient>
<linearGradient id="paint1_linear_3993_41119" x1="7.31641" y1="45.7761" x2="55.7732" y2="45.7761" gradientUnits="userSpaceOnUse">
<stop offset="0.000616698" stop-color="#910063"/>
<stop offset="0.0362" stop-color="#990059"/>
<stop offset="0.1727" stop-color="#B60035"/>
<stop offset="0.3012" stop-color="#CA001C"/>
<stop offset="0.4172" stop-color="#D7000C"/>
<stop offset="0.5101" stop-color="#DB0007"/>
<stop offset="1" stop-color="#E8720A"/>
</linearGradient>
<linearGradient id="paint2_linear_3993_41119" x1="126.272" y1="32.1303" x2="86.7422" y2="32.1303" gradientUnits="userSpaceOnUse">
<stop offset="0.000616698" stop-color="#910063"/>
<stop offset="0.0362" stop-color="#990059"/>
<stop offset="0.1727" stop-color="#B60035"/>
<stop offset="0.3012" stop-color="#CA001C"/>
<stop offset="0.4172" stop-color="#D7000C"/>
<stop offset="0.5101" stop-color="#DB0007"/>
<stop offset="1" stop-color="#E8720A"/>
</linearGradient>
</defs>
</svg>
