<svg width="136" height="136" viewBox="0 0 136 136" fill="none" xmlns="http://www.w3.org/2000/svg">
<g clip-path="url(#clip0_17_28563)">
<path d="M106.833 125.378C106.833 129.768 91.4123 133.327 72.3894 133.327C53.3664 133.327 37.9453 129.768 37.9453 125.378C37.9453 120.988 53.3664 117.43 72.3894 117.43C91.4123 117.43 106.833 120.988 106.833 125.378Z" fill="#A0A09F" fill-opacity="0.15"/>
<path fill-rule="evenodd" clip-rule="evenodd" d="M95.717 62.4062L90.9324 65.3994L86.1478 62.4062L81.3632 65.3994L76.5786 62.4062L71.7941 65.3994L67.0095 62.4062L62.2249 65.3994L57.4403 62.4062L52.6557 65.3994L47.8711 62.4062V122.783C47.8711 124.451 49.2108 125.802 50.8615 125.802H92.7266C94.3788 125.802 95.717 124.451 95.717 122.783V62.4062Z" fill="#C2945C"/>
<path fill-rule="evenodd" clip-rule="evenodd" d="M95.7131 114.439L95.7137 122.784C95.7137 124.452 94.3755 125.803 92.7233 125.803H50.8582C49.2075 125.803 47.8678 124.452 47.8678 122.784L47.8672 114.439H95.7131Z" fill="#DB0007"/>
<path fill-rule="evenodd" clip-rule="evenodd" d="M90.4631 79.1523C92.3247 79.1523 94.0992 80.2668 95.7157 82.2845L95.7159 92.6346C94.3545 86.085 92.5028 82.0561 90.4631 82.0561C86.2855 82.0561 82.894 97.6652 82.894 116.918H76.8391C76.8391 97.6652 73.4505 82.0561 69.2685 82.0561C65.091 82.0561 61.701 98.968 61.701 119.821H55.6445C55.6445 97.3595 61.7469 79.1523 69.2685 79.1523C73.5498 79.1523 77.3685 84.6255 79.8673 93.1816C82.3646 84.6255 86.1847 79.1523 90.4631 79.1523Z" fill="#FFBC0D"/>
<path d="M88.5391 9.33994C89.195 7.646 89.7919 6.34833 90.3298 5.44693C90.8677 4.54554 91.7308 3.39656 92.9192 2L96.9121 4.23038C95.9159 5.30501 95.0528 6.45399 94.3228 7.67731C93.5927 8.90063 92.9958 10.1983 92.532 11.5703L88.5391 9.33994Z" fill="#DB0007"/>
<path d="M45.1353 44.4648C46.769 45.2526 48.011 45.9446 48.8611 46.5409C49.7112 47.1372 50.7766 48.0637 52.0575 49.3204L49.4105 52.8379C48.4332 51.7941 47.3678 50.8676 46.2141 50.0583C45.0604 49.2491 43.8184 48.5571 42.4883 47.9823L45.1353 44.4648Z" fill="#DB0007"/>
<path d="M27.379 126.255C25.6066 126.64 24.2019 126.859 23.1649 126.913C22.1279 126.966 20.7179 126.892 18.9348 126.69L18.8551 122.289C20.2678 122.51 21.6778 122.584 23.0852 122.511C24.4925 122.439 25.8972 122.219 27.2993 121.853L27.379 126.255Z" fill="#DB0007"/>
<path d="M106.143 125.85C107.9 126.213 107.734 126.799 110.323 127.044C112.911 127.289 116.285 126.99 118.059 126.766L118.194 122.363C116.787 122.601 111.855 122.695 110.457 122.64C109.059 122.585 107.666 121.795 106.277 121.447L106.143 125.85Z" fill="#DB0007"/>
<path d="M95.7148 45.2247C96.3708 43.5308 96.9677 42.2331 97.5056 41.3317C98.0435 40.4303 98.9066 39.2813 100.095 37.8848L104.088 40.1151C103.092 41.1898 102.229 42.3388 101.499 43.5621C100.769 44.7854 100.172 46.0831 99.7078 47.4551L95.7148 45.2247Z" fill="#DB0007"/>
<path d="M72.3906 13.5274C71.7347 11.8335 71.1378 10.5358 70.5999 9.63443C70.062 8.73304 69.1988 7.58406 68.0105 6.1875L64.0176 8.41788C65.0138 9.49251 65.8769 10.6415 66.6069 11.8648C67.337 13.0881 67.9339 14.3858 68.3977 15.7578L72.3906 13.5274Z" fill="#DB0007"/>
<path d="M61.7486 33.6675C62.1171 31.8517 62.4906 30.4458 62.8694 29.4501C63.2481 28.4543 63.9025 27.1572 64.8325 25.559L69.0444 27.1909C68.2496 28.4335 67.5953 29.7305 67.0813 31.082C66.5673 32.4334 66.1937 33.8392 65.9605 35.2994L61.7486 33.6675Z" fill="#DB0007"/>
<path d="M72.9757 37.2871C74.8201 37.4637 76.2573 37.6883 77.2872 37.9609C78.3171 38.2334 79.6754 38.7486 81.3622 39.5065L80.1794 43.8659C78.8605 43.2054 77.5022 42.6902 76.1045 42.3203C74.7067 41.9504 73.2696 41.7258 71.793 41.6465L72.9757 37.2871Z" fill="#DB0007"/>
<path d="M32.6156 16.6367C33.7185 18.1256 34.5133 19.3439 34.9999 20.2916C35.4865 21.2394 36.0125 22.5936 36.5779 24.3542L32.5469 26.3923C32.1552 24.9701 31.6292 23.616 30.9688 22.3297C30.3084 21.0435 29.5137 19.8252 28.5845 18.6748L32.6156 16.6367Z" fill="#DB0007"/>
<path d="M110.336 12.5841C111.134 14.256 111.682 15.6036 111.979 16.6268C112.276 17.65 112.534 19.0796 112.753 20.9158L108.407 22.1473C108.294 20.6766 108.036 19.2469 107.633 17.8583C107.23 16.4697 106.682 15.1221 105.99 13.8156L110.336 12.5841Z" fill="#DB0007"/>
<path d="M41.6914 118.99L41.3065 123.39C41.3065 123.39 39.9711 123.643 39.0153 123.559C38.0596 123.475 37.1359 123.025 37.1359 123.025L37.5208 118.625C37.5208 118.625 38.792 119.106 39.7478 119.19C40.7036 119.273 41.6914 118.99 41.6914 118.99Z" fill="#DB0007"/>
<path d="M53.3281 25.8457L49.393 23.8406C49.393 23.8406 49.659 22.5079 50.0945 21.653C50.5301 20.7982 51.2936 20.1104 51.2936 20.1104L55.2288 22.1155C55.2288 22.1155 54.3069 23.1141 53.8713 23.9689C53.4358 24.8238 53.3281 25.8457 53.3281 25.8457Z" fill="#DB0007"/>
<path d="M83.1289 60.4922L78.7366 60.0305C78.7366 60.0305 78.5073 58.6909 78.6076 57.7368C78.7078 56.7826 79.1742 55.8669 79.1742 55.8669L83.5665 56.3286C83.5665 56.3286 83.0637 57.5913 82.9634 58.5454C82.8632 59.4996 83.1289 60.4922 83.1289 60.4922Z" fill="#DB0007"/>
<path fill-rule="evenodd" clip-rule="evenodd" d="M86.0459 10.2387L86.6734 8.61798C87.3452 6.8831 87.9894 5.46522 88.6118 4.42227C89.2337 3.38006 90.1797 2.13286 91.3954 0.704137L92.4599 -0.546875L100.107 3.72494L98.3782 5.59029C97.4743 6.56533 96.696 7.60254 96.0396 8.70242C95.3833 9.80223 94.8453 10.9708 94.4261 12.2111L93.6558 14.4895L86.0459 10.2387ZM97.7152 58.7965V81.5808L97.7158 92.6352L97.7152 122.784C97.7152 122.784 97.7152 122.784 97.7152 122.784C97.7153 125.538 95.4995 127.803 92.725 127.803H50.5133L50.4711 127.788C49.1306 127.684 47.9401 127.046 47.1101 126.096C46.3377 125.212 45.8693 124.049 45.8693 122.784L45.8687 112.439L45.8693 58.7965L52.6539 63.0409L57.4385 60.0477L62.2231 63.0409L67.0077 60.0477L71.7922 63.0409L76.5768 60.0477L76.731 60.1442C76.7284 60.126 76.7256 60.1068 76.7228 60.0867C76.6997 59.9245 76.6705 59.6984 76.6447 59.4372C76.5963 58.9458 76.5474 58.2103 76.6192 57.5272C76.6936 56.8194 76.8947 56.1775 77.0539 55.7482C77.1366 55.525 77.2158 55.3388 77.2762 55.2045C77.3065 55.137 77.3325 55.0817 77.3524 55.0403C77.3624 55.0196 77.3708 55.0024 77.3776 54.9887L77.3864 54.971L77.3899 54.9642L77.3913 54.9613L77.392 54.9601C77.3921 54.9598 77.3926 54.9588 79.1748 55.8664C79.1748 55.8664 78.7085 56.7821 78.6082 57.7363C78.5079 58.6904 78.7372 60.03 78.7372 60.03C77.7599 60.1973 77.2671 60.2816 77.0186 60.3241L78.7372 60.03L83.1295 60.4917C83.1295 60.4917 82.8638 59.4991 82.9641 58.5449C82.9669 58.5182 82.97 58.4914 82.9734 58.4643C82.981 58.4036 82.9902 58.3419 83.0005 58.2796C83.1512 57.3726 83.5672 56.3281 83.5672 56.3281L79.1748 55.8664L77.3926 54.9588L78.0165 53.7337L86.402 54.615L85.4261 57.066L85.4255 57.0673L85.4242 57.0708L85.4129 57.0998C85.4024 57.1275 85.386 57.1707 85.3655 57.2267C85.3244 57.3394 85.268 57.4996 85.2093 57.6845C85.0824 58.0838 84.9816 58.4829 84.9531 58.754C84.9272 59.0002 84.9467 59.304 84.988 59.5858C85.0074 59.7178 85.0288 59.8269 85.0444 59.899C85.0521 59.9346 85.0582 59.9601 85.0614 59.9735L85.0621 59.9768L85.0627 59.9788L85.0635 59.9819L85.064 59.984L85.2339 60.6183L86.146 60.0477L90.9306 63.0409L97.7152 58.7965ZM90.9306 65.4L86.146 62.4068L81.3614 65.4L76.5768 62.4068L71.7923 65.4L67.0077 62.4068L62.2231 65.4L57.4385 62.4068L52.6539 65.4L47.8693 62.4068V114.439V122.784C47.8693 123.549 48.1514 124.248 48.6162 124.78C49.1643 125.407 49.9664 125.803 50.8598 125.803H92.725C94.3771 125.803 95.7153 124.452 95.7152 122.784V92.6324V92.6354L95.7156 82.285L95.7152 62.4068L90.9306 65.4ZM81.3614 63.0409L82.3523 62.421L79.9703 62.1707L81.3614 63.0409ZM44.5231 41.95L46.0023 42.6632C47.6731 43.4688 49.0274 44.2155 50.008 44.9034C50.9895 45.5918 52.1451 46.6059 53.4566 47.8927L54.7087 49.1213L49.5758 55.9422L47.9489 54.2047C47.0645 53.2601 46.1032 52.4245 45.064 51.6955C44.0247 50.9666 42.9023 50.3404 41.6934 49.8181L39.3606 48.8101L44.5231 41.95ZM88.5385 9.34017C89.1944 7.64622 89.7913 6.34855 90.3292 5.44716C90.8671 4.54576 91.7303 3.39678 92.9186 2.00022L96.9115 4.2306C96.4451 4.7337 96.0079 5.2531 95.5999 5.7888C95.1363 6.39735 94.7104 7.02693 94.3222 7.67753C93.9339 8.32814 93.5833 8.99978 93.2704 9.69245C92.9949 10.3022 92.7486 10.9282 92.5314 11.5705L88.5385 9.34017ZM29.4085 127.861L27.8038 128.21C25.9912 128.604 24.4643 128.849 23.268 128.911C22.0708 128.972 20.5358 128.885 18.7101 128.678L16.9671 128.481L16.8125 119.946L19.1642 120.313C20.4427 120.513 21.7146 120.58 22.9823 120.514C24.2501 120.449 25.5201 120.251 26.7943 119.919L29.2531 119.277L29.4085 127.861ZM104.091 127.468L104.352 118.901L106.762 119.506C107.388 119.663 107.994 119.887 108.488 120.07L108.528 120.085C109.466 120.431 110.033 120.622 110.534 120.641C111.161 120.666 112.686 120.658 114.262 120.612C115.882 120.564 117.318 120.482 117.858 120.39L120.266 119.982L120.005 128.535L118.308 128.75C116.5 128.978 112.948 129.301 110.133 129.034C108.328 128.863 107.538 128.522 106.803 128.179C106.602 128.085 106.474 128.026 106.324 127.971C106.182 127.919 106 127.862 105.736 127.808L104.091 127.468ZM106.275 121.446C106.795 121.576 107.315 121.768 107.835 121.961C107.975 122.012 108.116 122.064 108.256 122.115C108.988 122.379 109.721 122.611 110.455 122.64C111.437 122.678 114.163 122.643 116.186 122.536C117.043 122.491 117.773 122.433 118.192 122.362L118.058 126.765C116.283 126.989 112.91 127.288 110.321 127.043C108.788 126.898 108.221 126.633 107.649 126.366C107.255 126.182 106.858 125.997 106.141 125.849L106.275 121.446ZM93.2226 46.1243L93.8502 44.5036C94.522 42.7687 95.1662 41.3508 95.7886 40.3079C96.4105 39.2657 97.3564 38.0185 98.5721 36.5898L99.6366 35.3387L107.284 39.6106L105.555 41.4759C104.651 42.4509 103.873 43.4882 103.216 44.588C102.56 45.6879 102.022 46.8565 101.603 48.0967L100.833 50.3751L93.2226 46.1243ZM74.8832 14.4263L67.2732 18.6771L66.5029 16.3987C66.0837 15.1585 65.5457 13.9899 64.8894 12.89C64.233 11.7902 63.4547 10.7529 62.5508 9.77791L60.8215 7.91256L68.4691 3.64075L69.5336 4.89176C70.7493 6.32048 71.6953 7.56768 72.3172 8.6099C72.9396 9.65285 73.5838 11.0707 74.2556 12.8056L74.8832 14.4263ZM59.4533 34.9222L59.7887 33.2691C60.1655 31.4122 60.5646 29.8837 61.0001 28.7383L62.8695 29.4493C62.4908 30.4451 62.1172 31.8509 61.7488 33.6668L65.9607 35.2987C66.0682 34.6254 66.2056 33.9637 66.3728 33.3135C66.5682 32.5536 66.8044 31.8095 67.0814 31.0812C67.3584 30.3529 67.6762 29.6404 68.0347 28.9437C68.3415 28.3476 68.6781 27.7631 69.0446 27.1901L64.8326 25.5582C63.9026 27.1565 63.2482 28.4535 62.8695 29.4493L61.0001 28.7383C61.4358 27.5929 62.1527 26.1871 63.104 24.5523L63.9629 23.0764L72.0466 26.2084L70.7294 28.2678C70.0071 29.3972 69.415 30.5715 68.9508 31.7922C68.4866 33.0128 68.1478 34.2859 67.9357 35.6141L67.5455 38.0576L59.4533 34.9222ZM71.4865 35.136L73.1657 35.2968C75.0518 35.4774 76.6137 35.7145 77.7983 36.028C78.983 36.3415 80.456 36.9076 82.1813 37.6828L83.7389 38.3827L81.469 46.7495L79.2833 45.6548C78.0845 45.0544 76.8547 44.5884 75.5922 44.2543L76.1039 42.3209C76.8571 42.5202 77.5989 42.7618 78.3293 43.0455C78.9542 43.2883 79.5707 43.562 80.1789 43.8665L81.3616 39.5071C79.6748 38.7492 78.3165 38.234 77.2866 37.9615C76.2567 37.6889 74.8195 37.4643 72.9751 37.2877L71.7924 41.6471C72.4732 41.6837 73.1457 41.7511 73.8098 41.8495C74.5859 41.9644 75.3506 42.1215 76.1039 42.3209L75.5922 44.2543C74.3297 43.9202 73.0282 43.7163 71.6852 43.6442L69.2143 43.5116L71.4865 35.136ZM33.2202 14.09L34.2243 15.4455C35.3521 16.968 36.221 18.2873 36.7807 19.3774C37.3404 20.4676 37.9054 21.9411 38.4837 23.7419L39.0059 25.3677L31.2693 29.2793L30.6203 26.9225C30.2643 25.63 29.7877 24.4042 29.1912 23.2425C28.5947 22.0807 27.8754 20.9771 27.0303 19.9307L25.4755 18.0057L33.2202 14.09ZM111.415 10.2002L112.142 11.7223C112.958 13.4321 113.559 14.893 113.901 16.0698C114.242 17.2468 114.516 18.801 114.74 20.679L114.942 22.3747L106.601 24.7382L106.414 22.3008C106.311 20.9641 106.077 19.6699 105.713 18.4157C105.349 17.1615 104.854 15.9409 104.224 14.7525L103.065 12.5662L111.415 10.2002ZM41.1502 117.065L43.9375 116.267L43.167 125.074L41.6784 125.356L41.3066 123.39L41.6916 118.991C41.6916 118.991 40.7037 119.274 39.748 119.19C39.7213 119.188 39.6943 119.185 39.6672 119.182C39.6064 119.176 39.5445 119.168 39.482 119.158C38.5726 119.023 37.521 118.626 37.521 118.626L37.136 123.026L36.2597 124.823L35.0238 124.221L35.7587 115.821L38.2263 116.754L38.2277 116.755L38.2312 116.756L38.2604 116.767C38.2882 116.777 38.3317 116.793 38.3881 116.812C38.5015 116.851 38.6627 116.905 38.8485 116.96C39.2499 117.08 39.6507 117.174 39.9223 117.198C40.169 117.219 40.4724 117.195 40.7534 117.148C40.885 117.127 40.9937 117.103 41.0655 117.086C41.101 117.078 41.1264 117.072 41.1397 117.068L41.143 117.067L41.145 117.067L41.1481 117.066L41.1502 117.065ZM37.136 123.026C37.136 123.026 38.0597 123.476 39.0155 123.559C39.9712 123.643 41.3066 123.39 41.3066 123.39C41.6784 125.356 41.6786 125.356 41.6784 125.356L41.6744 125.356L41.6685 125.357L41.6509 125.361L41.5935 125.371C41.5459 125.379 41.4797 125.391 41.3984 125.404C41.2367 125.429 41.0111 125.463 40.7504 125.493C40.26 125.55 39.5254 125.612 38.8412 125.552C38.1321 125.49 37.4869 125.3 37.0548 125.148C36.8303 125.069 36.6427 124.993 36.5074 124.935C36.4394 124.906 36.3836 124.881 36.3419 124.862C36.3301 124.857 36.3194 124.852 36.3098 124.847C36.3025 124.844 36.2958 124.841 36.2898 124.838L36.2719 124.829L36.2651 124.826L36.2622 124.825L36.2609 124.824C36.2606 124.824 36.2597 124.823 37.136 123.026ZM47.4323 23.4494L49.3936 23.8409L53.3288 25.8459C53.3288 25.8459 53.4364 24.824 53.872 23.9692C53.8841 23.9453 53.8967 23.9213 53.9096 23.8972C53.9384 23.8433 53.969 23.789 54.0011 23.7345C54.4668 22.9418 55.2294 22.1157 55.2294 22.1157L51.2942 20.1106L49.9556 18.6246L50.9772 17.7044L58.4899 21.5324L56.7005 23.4706L56.6998 23.4714L56.6989 23.4723L56.6969 23.4746L56.676 23.4977C56.6562 23.5197 56.6255 23.5542 56.5863 23.5991C56.5075 23.6896 56.3974 23.819 56.2764 23.9705C56.0148 24.2978 55.7777 24.6343 55.654 24.8771C55.5415 25.0978 55.4508 25.3884 55.3884 25.6662C55.3592 25.7964 55.3401 25.906 55.3288 25.9788C55.3233 26.0149 55.3198 26.0408 55.318 26.0545L55.3169 26.063L55.3167 26.0653L55.013 28.9488L47.1357 24.9351L47.4323 23.4494ZM51.2942 20.1106C51.2942 20.1106 50.5307 20.7984 50.0952 21.6532C49.6596 22.5081 49.3936 23.8409 49.3936 23.8409C47.4323 23.4494 47.4322 23.4496 47.4323 23.4494L47.4326 23.4477L47.4331 23.4455L47.4343 23.4396L47.4378 23.422L47.4498 23.3649C47.4599 23.3176 47.4742 23.252 47.4926 23.1718C47.5293 23.0122 47.583 22.7906 47.6526 22.5376C47.7834 22.0614 48.0013 21.3572 48.3132 20.7453C48.6363 20.1111 49.0541 19.584 49.3566 19.2402C49.5138 19.0615 49.6544 18.916 49.7589 18.8123C49.8114 18.7601 49.8555 18.7178 49.8889 18.6863C49.9056 18.6706 49.9197 18.6575 49.9309 18.6472L49.9456 18.6338L49.9512 18.6287L49.9546 18.6255L49.9556 18.6246C49.9559 18.6244 49.9556 18.6246 51.2942 20.1106ZM45.1337 44.4647C46.7675 45.2524 48.0094 45.9445 48.8595 46.5408C49.7096 47.1371 50.7751 48.0636 52.0559 49.3203L49.4089 52.8377C48.9464 52.3437 48.464 51.8759 47.9619 51.4344C47.4033 50.9431 46.8201 50.4844 46.2125 50.0582C45.6049 49.632 44.9728 49.2383 44.3163 48.8771C43.7262 48.5525 43.1163 48.2542 42.4867 47.9821L45.1337 44.4647ZM27.3791 126.255L27.2994 121.854C26.6358 122.027 25.9716 122.168 25.3067 122.275C24.567 122.395 23.8265 122.474 23.0853 122.512C22.3441 122.55 21.6022 122.548 20.8595 122.504C20.192 122.466 19.5239 122.394 18.8553 122.289L18.935 126.691C20.718 126.893 22.128 126.967 23.165 126.913C24.202 126.86 25.6067 126.64 27.3791 126.255ZM95.7152 45.2258C96.3712 43.5318 96.9681 42.2342 97.506 41.3328C98.0439 40.4314 98.907 39.2824 100.095 37.8858L104.088 40.1162C103.622 40.6193 103.185 41.1387 102.777 41.6744C102.313 42.283 101.887 42.9125 101.499 43.5632C101.111 44.2138 100.76 44.8854 100.447 45.5781C100.172 46.1878 99.9253 46.8138 99.7082 47.4562L95.7152 45.2258ZM68.0104 6.18785C69.1987 7.58441 70.0619 8.73338 70.5998 9.63478C71.1377 10.5362 71.7346 11.8338 72.3905 13.5278L68.3976 15.7582C68.1805 15.1158 67.9341 14.4898 67.6586 13.8801C67.3457 13.1874 66.9951 12.5158 66.6068 11.8652C66.2186 11.2145 65.7927 10.585 65.3291 9.97642C64.9211 9.44073 64.4839 8.92133 64.0175 8.41822L68.0104 6.18785ZM28.5862 18.6741C29.0146 19.2045 29.4144 19.7494 29.7857 20.3087C30.2196 20.9624 30.6145 21.6358 30.9704 22.329C31.3263 23.0221 31.6432 23.735 31.921 24.4677C32.1587 25.0945 32.3679 25.7358 32.5485 26.3915L36.5795 24.3534C36.0141 22.5928 35.4881 21.2386 35.0015 20.2909C34.5149 19.3431 33.7201 18.1248 32.6172 16.636L28.5862 18.6741ZM110.337 12.5843C111.135 14.2563 111.683 15.6038 111.98 16.627C112.277 17.6502 112.535 19.0799 112.754 20.916L108.408 22.1475C108.356 21.4693 108.273 20.7999 108.159 20.1393C108.026 19.3671 107.851 18.6068 107.634 17.8585C107.417 17.1102 107.158 16.3738 106.857 15.6493C106.599 15.0294 106.31 14.4182 105.991 13.8158L110.337 12.5843Z" fill="white"/>
</g>
<defs>
<clipPath id="clip0_17_28563">
<rect width="136" height="136" fill="white"/>
</clipPath>
</defs>
</svg>
