<svg width="27" height="18" viewBox="0 0 27 18" fill="none" xmlns="http://www.w3.org/2000/svg">
<g clip-path="url(#clip0_109_43915)">
<path d="M0 0H27V18H0V0Z" fill="#338AF3"/>
<path d="M0 0H27V9.00264H0V0Z" fill="#56AF35"/>
<path d="M0 18L27 8.99736L0 0V18Z" fill="#D80027"/>
<path d="M7.10234 12.2091C8.87422 12.2091 10.3086 10.7746 10.3086 9.00258C10.3086 7.23054 8.87422 5.79602 7.10234 5.79602C5.33047 5.79602 3.89609 7.23054 3.89609 9.00258C3.89609 10.7746 5.33047 12.2091 7.10234 12.2091ZM7.10234 13.4907C4.62383 13.4907 2.60938 11.4813 2.60938 8.99731C2.60938 6.51328 4.61855 4.50391 7.10234 4.50391C9.58613 4.50391 11.5953 6.51328 11.5953 8.99731C11.5953 11.4813 9.58086 13.4907 7.10234 13.4907Z" fill="#FFC945"/>
<path d="M6.30176 8.74432C6.81143 8.74432 7.22461 8.33111 7.22461 7.82138C7.22461 7.31165 6.81143 6.89844 6.30176 6.89844C5.79208 6.89844 5.37891 7.31165 5.37891 7.82138C5.37891 8.33111 5.79208 8.74432 6.30176 8.74432Z" fill="#FFC945"/>
<path d="M7.85254 9.28338C8.36222 9.28338 8.77539 8.87017 8.77539 8.36044C8.77539 7.85072 8.36222 7.4375 7.85254 7.4375C7.34286 7.4375 6.92969 7.85072 6.92969 8.36044C6.92969 8.87017 7.34286 9.28338 7.85254 9.28338Z" fill="#FFC945"/>
<path d="M7.10254 8.05291C7.61222 8.05291 8.02539 7.6397 8.02539 7.12997C8.02539 6.62025 7.61222 6.20703 7.10254 6.20703C6.59286 6.20703 6.17969 6.62025 6.17969 7.12997C6.17969 7.6397 6.59286 8.05291 7.10254 8.05291Z" fill="#FFC945"/>
<path d="M6.30176 10.0295C6.81143 10.0295 7.22461 9.61626 7.22461 9.10654C7.22461 8.59681 6.81143 8.18359 6.30176 8.18359C5.79208 8.18359 5.37891 8.59681 5.37891 9.10654C5.37891 9.61626 5.79208 10.0295 6.30176 10.0295Z" fill="#FFC945"/>
<path d="M7.90332 10.5646C8.413 10.5646 8.82617 10.1514 8.82617 9.64169C8.82617 9.13196 8.413 8.71875 7.90332 8.71875C7.39364 8.71875 6.98047 9.13196 6.98047 9.64169C6.98047 10.1514 7.39364 10.5646 7.90332 10.5646Z" fill="#FFC945"/>
<path d="M6.45801 11.3654C6.96768 11.3654 7.38086 10.9522 7.38086 10.4425C7.38086 9.93275 6.96768 9.51953 6.45801 9.51953C5.94833 9.51953 5.53516 9.93275 5.53516 10.4425C5.53516 10.9522 5.94833 11.3654 6.45801 11.3654Z" fill="#FFC945"/>
<path d="M7.69238 11.7443C8.20206 11.7443 8.61523 11.3311 8.61523 10.8214C8.61523 10.3117 8.20206 9.89844 7.69238 9.89844C7.18271 9.89844 6.76953 10.3117 6.76953 10.8214C6.76953 11.3311 7.18271 11.7443 7.69238 11.7443Z" fill="#FFC945"/>
</g>
<rect x="0.5" y="0.5" width="26" height="17" rx="0.5" stroke="black" stroke-opacity="0.2"/>
<defs>
<clipPath id="clip0_109_43915">
<rect width="27" height="18" rx="1" fill="white"/>
</clipPath>
</defs>
</svg>
