<svg width="27" height="18" viewBox="0 0 27 18" fill="none" xmlns="http://www.w3.org/2000/svg">
<g clip-path="url(#clip0_109_43785)">
<path d="M0 0H27V18H0V0Z" fill="white"/>
<path d="M0 12.1055H27V18.0002H0V12.1055Z" fill="#D80027"/>
<path d="M19.1118 6.9366V5.21554H19.6854V4.06818H18.5328V4.64186H17.3854V4.06818H16.2381V5.21554H16.8118V6.9366H15.6644V2.92081H16.2381V1.77344H15.0907V2.34712H14.517V1.77344H13.3697V2.34712H12.796V1.77344H11.6486V2.92081H12.2223V6.9366H11.0749V5.21554H11.6486V4.06818H10.5012V4.64186H9.35387V4.06818H8.2065V5.21554H8.78018V6.9366H7.63281V11.5261H20.2591V6.9366H19.1118Z" fill="#D80027" stroke="black" stroke-miterlimit="10"/>
<path d="M13.9426 12.3945L12.6689 13.3524L13.6742 14.1051V15.7524H12.4531V16.2261H13.6637V16.6419H12.4531V17.1314H14.211V14.1051L15.2163 13.3524L13.9426 12.3945ZM13.9426 13.7261L13.411 13.3524L13.9426 12.9787L14.4742 13.3524L13.9426 13.7261Z" fill="#FFDA44" stroke="black" stroke-miterlimit="10"/>
<path d="M12.6095 11.0366V9.56822C12.6095 9.56822 12.6148 8.39453 13.9253 8.39453C15.2306 8.39453 15.2779 9.55243 15.2779 9.55243V11.0366H12.6095ZM8.97266 11.0366V9.75769C8.97266 9.75769 8.97792 8.77348 10.0042 8.77348C11.0306 8.77348 11.0674 9.7419 11.0674 9.7419V11.0314H8.97266V11.0366Z" fill="black"/>
<path d="M8.89844 11.0383V9.75933C8.89844 9.75933 8.9037 8.77512 9.93002 8.77512C10.9563 8.77512 10.9932 9.74354 10.9932 9.74354V11.033H8.89844V11.0383ZM16.8879 11.0383V9.75933C16.8879 9.75933 16.8932 8.77512 17.9195 8.77512C18.9458 8.77512 18.9826 9.74354 18.9826 9.74354V11.033H16.8879V11.0383ZM17.33 6.94881V6.12249C17.33 6.12249 17.3353 5.48565 17.9248 5.48565C18.5195 5.48565 18.5405 6.11197 18.5405 6.11197V6.94881H17.33ZM13.1826 6.94881V5.70144C13.1826 5.70144 13.1879 4.73828 13.9353 4.73828C14.6826 4.73828 14.709 5.68565 14.709 5.68565V6.94881H13.1826ZM9.34054 6.94881V6.12249C9.34054 6.12249 9.34581 5.48565 9.93528 5.48565C10.5248 5.48565 10.5511 6.11197 10.5511 6.11197V6.94881H9.34054Z" fill="black"/>
</g>
<rect x="0.5" y="0.5" width="26" height="17" rx="0.5" stroke="black" stroke-opacity="0.2"/>
<defs>
<clipPath id="clip0_109_43785">
<rect width="27" height="18" rx="1" fill="white"/>
</clipPath>
</defs>
</svg>
