<svg width="136" height="136" viewBox="0 0 136 136" fill="none" xmlns="http://www.w3.org/2000/svg">
<path fill-rule="evenodd" clip-rule="evenodd" d="M53.1349 26.0779C49.8348 26.6895 47.6407 29.7765 48.2334 32.9742L54.3942 66.2151C54.9869 69.4128 58.1415 71.5085 61.4416 70.8968L80.5794 67.3499C83.8796 66.7382 86.0736 63.6512 85.4809 60.4535C85.1438 58.6343 86.3924 56.8775 88.2699 56.5295C90.1473 56.1816 91.9426 57.3742 92.2798 59.1934C93.5468 66.0295 88.8554 72.6301 81.8004 73.9377L62.6626 77.4847C55.6076 78.7922 50.8006 74.3113 49.5336 67.4752L46.1607 59.7342L41.4345 34.2343C40.1676 27.3982 44.8589 20.7976 51.9139 19.49L71.0517 15.9431C78.1068 14.6355 84.8519 19.1165 86.1189 25.9526L87.6144 34.0213C87.9516 35.8404 86.7029 37.5973 84.8255 37.9452C82.948 38.2932 81.1527 37.1005 80.8156 35.2814L79.3201 27.2126C78.7274 24.0149 75.5729 21.9192 72.2727 22.5309L53.1349 26.0779Z" fill="#A0A09F"/>
<path d="M110.319 122.71C110.319 126.11 90.1051 128.866 65.1695 128.866C40.2338 128.866 20.0195 126.11 20.0195 122.71C20.0195 119.309 40.2338 116.553 65.1695 116.553C90.1051 116.553 110.319 119.309 110.319 122.71Z" fill="#A0A09F" fill-opacity="0.15"/>
<path fill-rule="evenodd" clip-rule="evenodd" d="M110.016 35.8006C109.557 35.7846 109.353 35.2541 109.675 34.9171C111.412 33.1033 115.653 29.1693 116.917 32.5292C118.131 35.7528 112.473 35.8885 110.016 35.8006Z" fill="#FFBC0D"/>
<path fill-rule="evenodd" clip-rule="evenodd" d="M100.85 29.5396C100.492 29.8285 99.9903 29.5613 100.014 29.0951C100.138 26.587 100.767 20.8367 103.922 22.5479C106.951 24.1888 102.764 27.9969 100.85 29.5396Z" fill="#FFBC0D"/>
<path fill-rule="evenodd" clip-rule="evenodd" d="M107.645 46.7177C107.311 46.4018 107.509 45.8689 107.974 45.8295C110.476 45.6171 116.259 45.4697 114.986 48.8264C113.765 52.0475 109.43 48.4083 107.645 46.7177Z" fill="#FFBC0D"/>
<path fill-rule="evenodd" clip-rule="evenodd" d="M43.0982 55.5633C41.6948 55.8234 40.768 57.1719 41.0281 58.5753L41.5547 61.4164L46.4606 64.2325C47.6385 64.9086 48.3655 66.1646 48.3591 67.5259L48.3238 75.0979L74.9741 90.3958L100.181 85.7241C101.584 85.464 102.511 84.1155 102.251 82.7121L95.8925 48.4068C95.6324 47.0034 94.2839 46.0766 92.8805 46.3367L43.0982 55.5633ZM48.5742 94.6115L48.5121 94.4984L48.4089 94.5009C48.4625 94.5398 48.5177 94.5767 48.5742 94.6115Z" fill="#A0A09F"/>
<path fill-rule="evenodd" clip-rule="evenodd" d="M31.6643 58.2444C31.0891 57.9141 30.3797 57.9161 29.8051 58.2494L15.995 66.2621C15.4271 66.5916 15.0764 67.1955 15.0733 67.8493L14.9988 83.7463C14.9957 84.4077 15.3487 85.0195 15.924 85.3497L29.635 93.2199C30.2102 93.5501 30.9196 93.5482 31.4942 93.2148L39.4801 88.5813L41.8603 92.9145L49.5235 92.7341L53.1979 99.4224L60.8612 99.242L64.5356 105.93L76.4844 103.278L75.1322 92.9916L46.2599 76.4183L46.3005 67.7179C46.3036 67.0566 45.9506 66.4448 45.3753 66.1146L31.6643 58.2444ZM26.0982 69.3609C27.6417 70.247 28.1627 72.2228 27.2619 73.7741C26.3611 75.3253 24.3795 75.8646 22.8359 74.9786C21.2924 74.0926 20.7713 72.1168 21.6722 70.5655C22.573 69.0142 24.5546 68.4749 26.0982 69.3609ZM71.6461 94.3648C72.0074 94.5712 72.1223 95.0464 71.9027 95.4261C71.6832 95.8059 71.2123 95.9464 70.851 95.74L45.438 81.2232C45.0767 81.0168 44.9618 80.5416 45.1813 80.1619C45.4009 79.7821 45.8718 79.6416 46.2331 79.848L71.6461 94.3648Z" fill="#FFBC0D"/>
<path fill-rule="evenodd" clip-rule="evenodd" d="M41.555 61.4153L41.0284 58.5742C40.7683 57.1708 41.6951 55.8223 43.0985 55.5622L45.3112 55.1521L41.4344 34.2342C40.1674 27.3981 44.8587 20.7975 51.9137 19.49L71.0515 15.943C78.1066 14.6354 84.8518 19.1164 86.1188 25.9525L87.6142 34.0212C87.9514 35.8404 86.7027 37.5972 84.8253 37.9451C82.9478 38.2931 81.1525 37.1005 80.8154 35.2813L79.3199 27.2126C78.7273 24.0148 75.5727 21.9192 72.2725 22.5308L53.1347 26.0778C49.8346 26.6894 47.6405 29.7764 48.2332 32.9741L52.1101 53.892L92.8808 46.3356C94.2842 46.0755 95.6327 47.0023 95.8928 48.4057L102.251 82.7109C102.511 84.1143 101.584 85.4628 100.181 85.7229L74.9744 90.3947L48.3241 75.0968L48.3594 67.5248C48.3658 66.1634 47.6388 64.9075 46.4609 64.2313L41.555 61.4153ZM53.7121 51.561L50.1997 32.6097C49.8191 30.556 51.2262 28.4656 53.4992 28.0443L72.637 24.4973C74.91 24.076 76.9728 25.5233 77.3534 27.577L78.8489 35.6457C79.3981 38.609 82.2851 40.45 85.1897 39.9117C88.0944 39.3733 90.1299 36.62 89.5807 33.6567L88.0853 25.588C86.6062 17.6079 78.7693 12.4785 70.6871 13.9765L51.5493 17.5234C43.4671 19.0214 37.9888 26.6186 39.4678 34.5987L42.9803 53.55L42.734 53.5957C40.2446 54.0571 38.6005 56.4492 39.0619 58.9387L39.3202 60.3324L32.6612 56.5101C31.4654 55.8237 29.9939 55.8286 28.8026 56.5198L14.9925 64.5325C13.8141 65.2163 13.081 66.473 13.0746 67.8402L13 83.7372C12.9936 85.1209 13.7324 86.3973 14.9296 87.0845L28.6405 94.9547C29.8363 95.6411 31.3078 95.6362 32.4991 94.945L38.7141 91.339L40.6936 94.9428L48.3569 94.7624L52.0314 101.451L59.6946 101.27L63.5061 108.208L78.7073 104.834L77.0266 92.0484L100.545 87.6895C103.035 87.2281 104.679 84.8359 104.217 82.3465L97.8593 48.0412C97.3979 45.5517 95.0058 43.9077 92.5163 44.3691L53.7121 51.561ZM60.8624 99.2423L64.5368 105.931L76.4856 103.279L75.1334 92.9919L46.2611 76.4186L46.3017 67.7182C46.3048 67.0569 45.9518 66.4451 45.3765 66.1149L31.6656 58.2446C31.0903 57.9144 30.3809 57.9164 29.8063 58.2497L15.9962 66.2624C15.4283 66.5919 15.0776 67.1958 15.0746 67.8496L15 83.7466C14.9969 84.408 15.3499 85.0198 15.9252 85.35L29.6362 93.2202C30.2114 93.5504 30.9209 93.5485 31.4954 93.2151L39.4813 88.5816L41.8615 92.9148L49.5247 92.7344L53.1992 99.4227L60.8624 99.2423ZM45.4392 81.2235L70.8522 95.7403C70.8546 95.7417 70.857 95.7431 70.8594 95.7444C71.2197 95.9449 71.6858 95.8037 71.904 95.4264C72.1235 95.0467 72.0086 94.5715 71.6473 94.3651L46.2343 79.8483C46.2319 79.8469 46.2295 79.8455 46.2271 79.8442C45.8668 79.6438 45.4007 79.7849 45.1826 80.1622C44.963 80.5419 45.0779 81.0171 45.4392 81.2235ZM110.794 33.8149C112.812 31.945 115.877 29.7569 116.92 32.5272C117.914 35.168 114.297 35.7365 111.606 35.8074C111.546 35.809 111.486 35.8103 111.427 35.8114C111.142 35.8167 110.87 35.8167 110.616 35.8133C110.616 35.8133 110.616 35.8133 110.616 35.8133C110.402 35.8104 110.201 35.8051 110.019 35.7986C109.559 35.7825 109.355 35.2521 109.678 34.915C109.796 34.7922 109.925 34.6597 110.063 34.5204C110.064 34.5201 110.064 34.5197 110.065 34.5193C110.248 34.3357 110.448 34.1402 110.661 33.9397C110.705 33.8983 110.749 33.8567 110.794 33.8149ZM102.059 28.5065C104.046 26.6904 106.408 23.8916 103.926 22.5473C101.324 21.1365 100.441 24.7977 100.141 27.532C100.134 27.5931 100.128 27.6537 100.121 27.7138C100.092 28.0049 100.069 28.2836 100.051 28.5423C100.051 28.5428 100.05 28.5433 100.05 28.5438C100.037 28.74 100.026 28.9247 100.018 29.0945C99.9943 29.5607 100.496 29.8279 100.854 29.539C100.996 29.4243 101.151 29.2971 101.314 29.1593C101.314 29.1594 101.315 29.1591 101.314 29.1593C101.508 28.9958 101.715 28.8169 101.926 28.6264C101.97 28.5869 102.014 28.5469 102.059 28.5065ZM102.015 29.1943C102.015 29.1941 102.015 29.1945 102.015 29.1943V29.1943ZM98.02 28.9952C97.9169 31.0681 100.316 32.5435 102.11 31.0952L98.02 28.9952ZM102.11 31.0952C103.086 30.3085 104.816 28.813 105.904 27.1957C106.431 26.4105 107 25.3205 106.993 24.1037C106.985 22.6535 106.177 21.4917 104.879 20.7888M108.834 47.7723C110.9 49.4986 113.99 51.464 114.99 48.8252C116.039 46.0577 112.293 45.6721 109.543 45.7411C109.481 45.7426 109.421 45.7444 109.36 45.7464C109.068 45.7559 108.788 45.7703 108.53 45.7871C108.529 45.7871 108.529 45.7871 108.528 45.7872C108.332 45.7999 108.147 45.814 107.978 45.8283C107.513 45.8677 107.315 46.4006 107.649 46.7165C107.782 46.8422 107.929 46.9786 108.087 47.1221C108.087 47.122 108.088 47.1223 108.087 47.1221C108.275 47.2924 108.48 47.473 108.698 47.6573C108.743 47.6955 108.788 47.7338 108.834 47.7723ZM108.234 33.5314C109.116 32.6101 110.789 30.9774 112.511 30.0289C113.343 29.5713 114.508 29.0882 115.747 29.2432C117.239 29.4297 118.273 30.4439 118.791 31.8222C119.311 33.2031 119.162 34.6105 118.218 35.7119C117.426 36.6358 116.283 37.0872 115.37 37.3349C113.489 37.8451 111.202 37.8421 109.949 37.7974C107.644 37.7169 106.798 35.0303 108.234 33.5314ZM107.809 43.8354C109.08 43.7276 111.415 43.6087 113.334 44.0362C114.26 44.2424 115.454 44.6504 116.281 45.5862C117.277 46.7124 117.382 48.1568 116.86 49.5339C116.337 50.9137 115.294 51.8704 113.858 52.0728C112.653 52.2425 111.497 51.825 110.648 51.407C108.9 50.5463 107.186 49.0318 106.276 48.1699M107.809 43.8354C105.742 44.0108 104.601 46.5846 106.274 48.1687L107.809 43.8354ZM25.5336 72.77C25.8853 72.1643 25.6729 71.4225 25.1037 71.0958C24.5275 70.765 23.7585 70.9579 23.4029 71.5702C23.0512 72.1758 23.2636 72.9176 23.8328 73.2444C24.409 73.5751 25.178 73.3823 25.5336 72.77ZM26.0994 69.3612C27.6429 70.2473 28.164 72.2231 27.2631 73.7744C26.3623 75.3256 24.3807 75.8649 22.8371 74.9789C21.2936 74.0929 20.7726 72.1171 21.6734 70.5658C22.5742 69.0145 24.5558 68.4752 26.0994 69.3612Z" fill="white"/>
</svg>
