<svg width="27" height="18" viewBox="0 0 27 18" fill="none" xmlns="http://www.w3.org/2000/svg">
<g clip-path="url(#clip0_109_43894)">
<path d="M0 0H27V17.9996H0V0Z" fill="white"/>
<path d="M0 0H27V5.99985H0V0ZM0 11.9998H27V17.9996H0V11.9998Z" fill="#338AF3"/>
<path d="M13.4999 6.80859C12.2897 6.80859 11.3086 7.78961 11.3086 8.99987C11.3086 10.2101 12.2896 11.1911 13.4999 11.1911C14.7101 11.1911 15.6911 10.2101 15.6911 8.99987C15.6911 7.78961 14.7101 6.80859 13.4999 6.80859ZM13.4999 10.252C12.8083 10.252 12.2477 9.69142 12.2477 8.99987C12.2477 8.30831 12.8083 7.74769 13.4999 7.74769C14.1914 7.74769 14.752 8.30831 14.752 8.99987C14.752 9.69142 14.1914 10.252 13.4999 10.252Z" fill="#FFDA44"/>
<path d="M14.5849 9.31303L13.5006 9L12.4162 9.31303L12.0547 9.93915H14.9464L14.5849 9.31303Z" fill="#0052B4"/>
<path d="M13.5003 7.43359L12.7773 8.68572L13.5003 8.99875L14.2232 8.68572L13.5003 7.43359Z" fill="#338AF3"/>
<path d="M12.4141 9.31356H14.5828L14.2214 8.6875H12.7755L12.4141 9.31356Z" fill="#6DA544"/>
</g>
<rect x="0.5" y="0.5" width="26" height="17" rx="0.5" stroke="black" stroke-opacity="0.2"/>
<defs>
<clipPath id="clip0_109_43894">
<rect width="27" height="18" rx="1" fill="white"/>
</clipPath>
</defs>
</svg>
