<svg width="44" height="44" viewBox="0 0 44 44" fill="none" xmlns="http://www.w3.org/2000/svg">
<g clip-path="url(#clip0_17_28652)">
<path d="M42.5832 41.6002C42.5832 42.9252 33.2745 43.9992 21.7916 43.9992C10.3087 43.9992 1 42.9252 1 41.6002C1 40.2753 10.3087 39.2012 21.7916 39.2012C33.2745 39.2012 42.5832 40.2753 42.5832 41.6002Z" fill="#A0A09F" fill-opacity="0.15"/>
<path d="M15.9725 4.01562L15.1577 4.5588L14.343 4.01562L13.5282 4.5588L12.7134 4.01562L11.8987 4.5588L11.0839 4.01562L10.2691 4.5588L9.45437 4.01562L8.63961 4.5588L7.82484 4.01562L7.01008 4.5588L6.19531 4.01562V17.3235C6.19531 17.9234 6.68169 18.4098 7.28167 18.4098H16.5157C17.1156 18.4098 17.602 17.9234 17.602 17.3235V4.01562L16.7873 4.5588L15.9725 4.01562Z" fill="#BC9564"/>
<path d="M6.19531 15.9648H17.602V17.3228C17.602 17.9228 17.1156 18.4091 16.5157 18.4091H7.28167C6.68169 18.4091 6.19531 17.9228 6.19531 17.3228V15.9648Z" fill="#CA291F"/>
<path d="M17.601 8.32301C16.5576 8.32301 15.7112 12.4922 15.7112 17.6343H14.1999C14.1999 12.4922 13.3547 8.32301 12.3101 8.32301C11.2679 8.32301 10.4215 12.8386 10.4215 18.4104H8.91016C8.91016 12.4101 10.4324 7.54688 12.3101 7.54688C13.3789 7.54688 14.3329 9.00862 14.9555 11.2948C15.5794 9.00862 16.5322 7.54688 17.601 7.54688V8.32301Z" fill="#FFBC0D"/>
<path d="M30.3458 6C29.9275 6 29.4726 6.39313 29.3347 6.54855C29.2428 6.64912 29.1187 6.81369 29.1371 7.01939C29.1554 7.22053 29.1738 7.39881 29.1876 7.5588C28.9946 7.60452 28.7924 7.70051 28.6223 7.81022C28.6223 7.80565 28.6177 7.79651 28.6177 7.79194C28.558 7.5268 28.3006 7.43995 28.0662 7.37595C27.9467 7.34395 27.7077 7.2891 27.455 7.2891C27.3355 7.2891 27.2252 7.30281 27.1241 7.32567C26.908 7.38509 26.7748 7.60452 26.8299 7.81937C26.8575 7.93365 26.8851 8.0525 26.9172 8.16678C26.4439 8.39991 26.0854 9.03989 26.0808 9.04446C26.044 9.10846 25.9613 9.26388 26.021 9.44673C26.1543 9.85815 26.2968 10.1873 26.4439 10.5393C26.4531 10.5621 26.4622 10.585 26.4714 10.6078L26.329 10.7678C26.2462 10.8593 26.2141 10.9781 26.2279 11.1015C26.3473 11.9244 26.9908 16.1665 27.864 19.1241C27.887 19.2018 27.9329 19.2704 27.9973 19.3252L28.558 19.7869C28.6315 19.8509 28.728 19.8829 28.8199 19.8829C28.8659 19.8829 28.9165 19.8738 28.9624 19.8601C29.6932 19.5949 30.2585 19.4212 31.389 19.4212C32.5196 19.4212 33.0849 19.5949 33.8157 19.8601C33.8616 19.8784 33.9076 19.8829 33.9581 19.8829C34.0547 19.8829 34.1466 19.8509 34.2201 19.7869L34.7808 19.3252C34.8451 19.2749 34.8911 19.2018 34.9141 19.1241C35.7873 16.1665 36.4307 11.9198 36.5502 11.1015C36.5686 10.9872 36.5364 10.873 36.4629 10.7815L36.3158 10.5987C36.3296 10.5621 36.3388 10.521 36.3526 10.4844C36.5962 9.74386 36.826 9.04446 37.019 8.23992C37.0696 8.02964 36.9455 7.81479 36.7387 7.7508C36.6008 7.70965 36.4445 7.6868 36.2699 7.6868C36.0079 7.6868 35.3829 7.73251 35.2772 8.15764C35.2726 8.17135 35.268 8.18507 35.268 8.19878C35.199 8.17592 35.1255 8.15764 35.0428 8.14392C35.0566 8.06621 35.0703 7.98393 35.0841 7.90165C35.1209 7.68223 34.9784 7.47652 34.7578 7.43081C34.6383 7.40795 34.5142 7.39424 34.3902 7.39424C34.1971 7.39424 34.0179 7.42167 33.8662 7.47652C33.857 7.34395 33.8432 7.20224 33.8341 7.05139C33.8157 6.83654 33.6364 6.67198 33.4204 6.67198C33.4112 6.67198 33.3974 6.67198 33.3883 6.67198C32.8413 6.71312 32.2301 6.98282 32.0876 7.48566C32.0738 7.53137 32.0692 7.57709 32.0738 7.62737L32.0784 7.69594C32.0784 7.70051 32.0784 7.70051 32.0784 7.70508C32.0463 7.71423 32.0141 7.72337 31.9865 7.73251C32.0003 7.60909 32.0141 7.47652 32.0325 7.33938C32.06 7.09711 31.9084 6.87311 31.5637 6.65369C31.4488 6.58055 31.1501 6.40684 30.8375 6.3657C30.8283 6.3657 30.8146 6.36113 30.8054 6.36113C30.7824 6.17828 30.6445 6.03657 30.4653 6.00457C30.4193 6.00457 30.3825 6 30.3458 6Z" fill="white"/>
<path d="M28.8211 19.4802C29.6162 19.1922 30.2137 19.0185 31.3857 19.0185C32.5576 19.0185 33.1551 19.1922 33.9502 19.4802L34.5109 19.0185C35.3703 16.0975 36.0091 11.9239 36.1332 11.0508H34.9888C34.782 11.5948 33.8169 13.7295 31.3811 13.7295C28.9452 13.7295 27.9801 11.5948 27.7733 11.0508H26.6289C26.7576 11.9239 27.3918 16.0975 28.2513 19.0185L28.8211 19.4802Z" fill="#DB0007"/>
<path d="M26.9523 10.6939H27.8715C27.9359 10.6939 27.991 10.735 28.0094 10.7899C28.0967 11.055 28.947 13.3681 31.3782 13.3681C33.8048 13.3681 34.6551 11.055 34.747 10.7899C34.7654 10.7305 34.8205 10.6939 34.8848 10.6939H35.8546C36.1349 9.82536 36.4015 9.05738 36.6221 8.15227C36.282 8.05171 35.7121 8.14313 35.6799 8.27113C35.6248 8.49055 35.588 8.60483 35.5283 8.82425C35.372 8.65511 35.0917 8.56826 34.7837 8.53626C34.6964 9.3088 34.6137 9.59679 34.4115 10.383C34.4528 9.4048 34.508 8.86082 34.6826 7.846C34.3333 7.77743 33.8738 7.83229 33.7359 8.0837C33.644 8.66426 33.5934 8.98424 33.5566 9.48708C33.5199 8.57283 33.5061 8.04713 33.4234 7.09631C32.9776 7.13288 32.5639 7.33402 32.4904 7.60829C32.4996 7.73172 32.5134 7.94657 32.5226 8.06999C32.2146 8.06542 31.8837 8.19342 31.7642 8.28941C31.6264 8.96596 31.6264 9.36823 31.4379 10.0631C31.4379 10.0631 31.3598 9.52822 31.6218 7.29745C31.6356 7.16488 31.1392 6.82661 30.7807 6.77632C30.7026 7.42544 30.6291 8.07456 30.5693 8.72368C30.5325 7.96028 30.4728 7.18774 30.3901 6.41519C30.1189 6.36948 29.5398 6.84489 29.5536 6.97746C29.7053 8.50883 29.7099 8.75111 29.7145 9.77507C29.5766 8.8471 29.5214 8.50426 29.3928 7.94199C29.0389 7.96942 28.5333 8.34427 28.5609 8.47226C28.685 9.09853 28.7126 9.3728 28.7493 10.1956C28.5701 9.20366 28.446 8.88825 28.2162 7.88257C28.2024 7.82314 27.5774 7.63572 27.2327 7.72715C27.4257 8.5134 27.6371 9.29966 27.7245 10.0768C27.5268 9.56937 27.343 9.04824 27.1775 8.5134C26.8328 8.6094 26.3962 9.26766 26.4146 9.32709C26.5801 9.8345 26.7547 10.2093 26.9523 10.6939Z" fill="#FBB900"/>
<path d="M32.2003 14.5977C31.8694 14.5977 31.5753 15.0365 31.3822 15.7176C31.1892 15.0319 30.8951 14.5977 30.5642 14.5977C29.9851 14.5977 29.5117 16.0513 29.5117 17.8478H29.9805C29.9805 16.1793 30.2425 14.8308 30.5642 14.8308C30.8859 14.8308 31.1479 16.0788 31.1479 17.6193H31.6166C31.6166 16.0788 31.8786 14.8308 32.2003 14.8308C32.522 14.8308 32.784 16.1839 32.784 17.8478H33.2528C33.2482 16.0559 32.7794 14.5977 32.2003 14.5977Z" fill="#FBB900"/>
<path d="M21.5018 5.84306L21.392 5.84721C20.9713 5.86438 20.5506 5.89592 20.13 5.94183L20.1099 5.94435C19.8564 5.98004 19.6472 6.16265 19.5734 6.41038L19.5697 6.42314L18.6941 6.42322C18.4096 6.42322 18.1669 6.63223 18.1201 6.91739L18.005 7.61917L18.0028 7.63443C17.9829 7.79689 18.0703 7.94808 18.2085 8.01435L18.2154 8.01748L18.2191 8.0741C18.2595 8.78264 18.3043 9.49357 18.3533 10.2038L18.3831 10.6294C18.4439 11.4817 18.5106 12.3326 18.5833 13.1824C18.7287 14.882 18.8988 16.5858 19.0935 18.2937C19.1131 18.4652 19.2468 18.6001 19.4157 18.6186C20.3257 18.7186 21.2358 18.7686 22.146 18.7686L22.3054 18.7681C23.1632 18.7626 24.0198 18.7127 24.8763 18.6186C25.0451 18.6001 25.1789 18.4652 25.1984 18.2938C25.3924 16.5942 25.5625 14.8904 25.7086 13.1824L25.7446 12.7555C25.8748 11.1904 25.9843 9.62893 26.0731 8.07092L26.0768 8.01733L26.0828 8.01464C26.2257 7.94647 26.3146 7.78764 26.2869 7.61917L26.1718 6.91739L26.1684 6.89849C26.1143 6.62304 25.876 6.42322 25.5979 6.42322L24.7222 6.42314L24.7186 6.41037C24.6428 6.15613 24.4244 5.97048 24.162 5.94183L24.0165 5.92653C23.677 5.89215 23.3375 5.86713 22.998 5.85147L22.9698 5.85023L23.7064 0.523994C23.7344 0.321843 23.5958 0.134937 23.3969 0.106526L22.6766 0.00364317C22.4777 -0.024767 22.2938 0.116075 22.2659 0.318223L21.5018 5.84306Z" fill="white"/>
<path d="M22.6256 0.369141L23.3458 0.472024L22.553 6.2055C23.0762 6.21727 23.5995 6.25171 24.1227 6.30882C24.2453 6.3222 24.3463 6.41271 24.3747 6.53468L24.4003 6.64446L24.4245 6.7923L25.5974 6.79231C25.7041 6.79231 25.7951 6.87069 25.8127 6.97763L25.9277 7.67941L25.7345 7.69404L25.7095 8.04903C25.6129 9.74511 25.4917 11.4454 25.3459 13.1498C25.2 14.8543 25.0303 16.5546 24.8367 18.2506C23.9924 18.3434 23.1481 18.3925 22.3038 18.398L22.1455 18.3985C21.2484 18.3985 20.3514 18.3492 19.4543 18.2506C19.26 16.5462 19.0903 14.8459 18.9452 13.1498C18.8726 12.3018 18.806 11.4527 18.7454 10.6026L18.7156 10.1774C18.6667 9.46868 18.622 8.75922 18.5815 8.04903L18.5583 7.69426L18.3633 7.67941L18.4784 6.97763C18.4959 6.87069 18.5869 6.79231 18.6936 6.79231L19.8616 6.7923L19.8907 6.64446L19.9163 6.53468C19.9447 6.41271 20.0457 6.3222 20.1683 6.30882C20.7185 6.24877 21.2686 6.21379 21.8187 6.20386L22.6256 0.369141Z" fill="white"/>
<path fill-rule="evenodd" clip-rule="evenodd" d="M18.582 8.04883C19.77 8.14739 20.958 8.19668 22.1461 8.19668C23.3341 8.19668 24.5221 8.14739 25.7101 8.04883C25.6134 9.74491 25.4922 11.4452 25.3464 13.1496C25.2006 14.8541 25.0309 16.5543 24.8372 18.2504C23.9402 18.349 23.0431 18.3983 22.1461 18.3983C21.249 18.3983 20.3519 18.349 19.4549 18.2504C19.2605 16.546 19.0908 14.8457 18.9457 13.1496C18.8006 11.4535 18.6794 9.75328 18.582 8.04883Z" fill="white"/>
<path fill-rule="evenodd" clip-rule="evenodd" d="M20.1184 12.6647C19.7777 11.4457 19.2866 10.5931 18.7266 10.3432C18.7264 10.3415 18.7264 10.3415 18.7794 11.0736C19.2698 11.8669 19.6229 14.0954 19.6229 16.7203H20.6139C20.6139 13.4309 21.1685 10.764 21.8527 10.764C22.5368 10.764 23.0916 13.653 23.0916 17.2165H24.0823C24.0823 13.3788 23.0842 10.2676 21.8527 10.2676C21.1522 10.2676 20.5273 11.2026 20.1184 12.6647Z" fill="#FFBC0D"/>
<path fill-rule="evenodd" clip-rule="evenodd" d="M25.7086 8.04883C25.7086 8.04883 25.5636 10.593 25.3449 13.1496C25.1261 15.7063 24.8357 18.2504 24.8357 18.2504C24.8357 18.2504 23.4901 18.3983 22.1445 18.3983C23.2052 18.3983 23.7386 14.9879 23.7447 8.16705C24.8357 8.12275 25.7086 8.04883 25.7086 8.04883Z" fill="#EAEAEA" style="mix-blend-mode:multiply"/>
<path d="M22.625 0.369141L23.3453 0.472024L22.5121 6.49711L21.7778 6.49611L22.625 0.369141Z" fill="#F1F1F1"/>
<path d="M22.9844 0.419922L23.2005 0.450787L22.3645 6.49625L22.1442 6.49595L22.9844 0.419922Z" fill="#EAEAEA"/>
<path fill-rule="evenodd" clip-rule="evenodd" d="M18.6936 6.79297H25.5974C25.7041 6.79297 25.7951 6.87135 25.8127 6.97828L25.9277 7.68006C24.667 7.77863 23.4062 7.82791 22.1455 7.82791C20.8848 7.82791 19.624 7.77863 18.3633 7.68006L18.4784 6.97828C18.4959 6.87135 18.5869 6.79297 18.6936 6.79297Z" fill="#EAEAEA"/>
<path fill-rule="evenodd" clip-rule="evenodd" d="M20.1683 6.30907C20.8273 6.23714 21.4864 6.20117 22.1454 6.20117C22.8045 6.20117 23.4635 6.23714 24.1226 6.30907C24.2452 6.32246 24.3462 6.41296 24.3746 6.53493L24.4002 6.64472H19.8906L19.9162 6.53493C19.9446 6.41296 20.0456 6.32246 20.1683 6.30907Z" fill="#EAEAEA"/>
<path d="M1 19.4102C1 18.8579 1.44772 18.4102 2 18.4102H41.5832C42.1355 18.4102 42.5832 18.8579 42.5832 19.4102V22.2082C42.5832 22.7605 42.1355 23.2082 41.5832 23.2082H2C1.44772 23.2082 1 22.7605 1 22.2082V19.4102Z" fill="#DBDBDB"/>
<path d="M4.19922 23.209H39.385V40.6016C39.385 41.1539 38.9373 41.6016 38.385 41.6016H5.19922C4.64694 41.6016 4.19922 41.1539 4.19922 40.6016V23.209Z" fill="#FFBC0D"/>
<path d="M4.19922 23.209H39.385V26.4077H4.19922V23.209Z" fill="#DDA30D"/>
</g>
<defs>
<clipPath id="clip0_17_28652">
<rect width="44" height="44" fill="white"/>
</clipPath>
</defs>
</svg>
