<svg width="136" height="136" viewBox="0 0 136 136" fill="none" xmlns="http://www.w3.org/2000/svg">
<g clip-path="url(#clip0_1001_45084)">
<g clip-path="url(#clip1_1001_45084)">
<ellipse cx="68.7227" cy="122.472" rx="47.2344" ry="5.81347" fill="#A0A09F" fill-opacity="0.15"/>
<path d="M68.5654 92.3545C72.5711 92.3547 75.8183 95.6027 75.8184 99.6084C75.8183 103.614 72.5711 106.861 68.5654 106.861C64.5596 106.861 61.3116 103.614 61.3115 99.6084C61.3116 95.6026 64.5596 92.3545 68.5654 92.3545ZM39.665 41.0586C40.137 40.5866 40.9029 40.5868 41.375 41.0586L94.6699 94.3535C95.142 94.8256 95.142 95.5914 94.6699 96.0635L91.251 99.4824C90.7789 99.9545 90.0131 99.9545 89.541 99.4824L36.2461 46.1875C35.7743 45.7154 35.7743 44.9505 36.2461 44.4785L39.665 41.0586ZM70.0957 85.166C65.3347 84.765 60.4453 86.2386 56.626 89.5859C56.1239 90.0259 55.3608 90.0295 54.8887 89.5576L51.4688 86.1387C50.9968 85.6666 50.9957 84.8987 51.4893 84.4492C54.9348 81.3124 59.0352 79.2942 63.3232 78.3936L70.0957 85.166ZM57.4629 72.5332C53.4488 73.9817 49.6615 76.242 46.3564 79.3145C45.8675 79.7688 45.1029 79.7717 44.6309 79.2998L41.2109 75.8809C40.739 75.4087 40.7397 74.6394 41.2256 74.1816C44.4558 71.1386 48.0706 68.7382 51.9062 66.9766L57.4629 72.5332ZM68.7891 63.3438C78.5481 63.3983 88.2912 67.0098 95.9043 74.1816C96.3901 74.6394 96.3908 75.4088 95.9189 75.8809L92.5 79.2998C92.0279 79.7719 91.2624 79.769 90.7734 79.3145C86.798 75.6187 82.1248 73.099 77.1982 71.7529L68.7891 63.3438ZM46.4922 61.5625C42.7821 63.5283 39.2792 66.0241 36.0957 69.0508C35.6119 69.5108 34.8452 69.514 34.373 69.042L30.9531 65.623C30.4813 65.1509 30.4836 64.3815 30.9658 63.9199C34.117 60.9037 37.5421 58.34 41.1582 56.2285L46.4922 61.5625ZM84.9307 51.3438C92.6539 53.7724 99.9428 57.9641 106.165 63.9199C106.647 64.3815 106.649 65.151 106.177 65.623L102.758 69.042C102.286 69.514 101.519 69.5106 101.035 69.0508C94.8177 63.1395 87.3826 59.2515 79.5635 57.3838C81.7548 55.7805 83.5907 53.7208 84.9307 51.3438Z" fill="#EAEAEA"/>
<circle cx="68.3342" cy="42.6135" r="16.0178" fill="#DB0007"/>
<path d="M68.332 40.9043L73.9912 35.2461C74.4633 34.7741 75.2281 34.774 75.7002 35.2461L76.5557 36.1006L70.042 42.6143L75.7002 48.2725C76.1722 48.7445 76.1722 49.5094 75.7002 49.9814L74.8457 50.8369L68.332 44.3232L62.6738 49.9824C62.2017 50.4544 61.4359 50.4545 60.9639 49.9824L60.1094 49.127L66.6221 42.6133L60.9639 36.9551C60.4918 36.483 60.4918 35.7172 60.9639 35.2451L61.8184 34.3906L68.332 40.9043Z" fill="white"/>
<mask id="path-5-outside-1_1001_45084" maskUnits="userSpaceOnUse" x="28.6016" y="24.5957" width="80" height="85" fill="black">
<rect fill="white" x="28.6016" y="24.5957" width="80" height="85"/>
<path d="M68.5654 92.3555C72.5711 92.3557 75.8183 95.6037 75.8184 99.6094C75.8181 103.615 72.5709 106.862 68.5654 106.862C64.5597 106.862 61.3118 103.615 61.3115 99.6094C61.3116 95.6035 64.5596 92.3555 68.5654 92.3555ZM39.665 41.0596C40.137 40.5876 40.9029 40.5878 41.375 41.0596L94.6699 94.3545C95.1418 94.8266 95.1419 95.5924 94.6699 96.0645L91.251 99.4834C90.7789 99.9552 90.0131 99.9552 89.541 99.4834L36.2461 46.1885C35.7744 45.7165 35.7745 44.9515 36.2461 44.4795L39.665 41.0596ZM70.0957 85.167C65.3347 84.766 60.4453 86.2395 56.626 89.5869C56.124 90.0266 55.3607 90.0302 54.8887 89.5586L51.4688 86.1396C50.9968 85.6676 50.9959 84.8997 51.4893 84.4502C54.9348 81.3134 59.0353 79.2952 63.3232 78.3945L70.0957 85.167ZM57.4629 72.5342C53.4488 73.9827 49.6615 76.243 46.3564 79.3154C45.8675 79.7695 45.1029 79.7724 44.6309 79.3008L41.2109 75.8818C40.7391 75.4098 40.7399 74.6404 41.2256 74.1826C44.4558 71.1396 48.0707 68.7392 51.9062 66.9775L57.4629 72.5342ZM68.7891 63.3447C78.5481 63.3993 88.2912 67.0108 95.9043 74.1826C96.3899 74.6404 96.3907 75.4098 95.9189 75.8818L92.5 79.3008C92.028 79.7726 91.2624 79.7697 90.7734 79.3154C86.798 75.6197 82.1247 73.1 77.1982 71.7539L68.7891 63.3447ZM46.4922 61.5635C42.7822 63.5292 39.2791 66.0251 36.0957 69.0518C35.6119 69.5115 34.8451 69.5147 34.373 69.043L30.9531 65.624C30.4813 65.152 30.4838 64.3825 30.9658 63.9209C34.117 60.9047 37.5422 58.341 41.1582 56.2295L46.4922 61.5635ZM84.9307 51.3447C92.6539 53.7734 99.9428 57.9651 106.165 63.9209C106.647 64.3825 106.649 65.152 106.177 65.624L102.758 69.043C102.286 69.5147 101.519 69.5113 101.035 69.0518C94.8177 63.1405 87.3825 59.2525 79.5635 57.3848C81.7547 55.7816 83.5908 53.7217 84.9307 51.3447ZM68.334 26.5957C77.1801 26.5959 84.3515 33.7671 84.3516 42.6133C84.3516 51.4595 77.1802 58.6306 68.334 58.6309C59.4876 58.6309 52.3154 51.4597 52.3154 42.6133C52.3155 33.767 59.4877 26.5957 68.334 26.5957Z"/>
</mask>
<path d="M68.5654 92.3555L68.5655 90.5421H68.5654V92.3555ZM75.8184 99.6094L77.6317 99.6095V99.6093L75.8184 99.6094ZM68.5654 106.862V108.676H68.5655L68.5654 106.862ZM61.3115 99.6094L59.4982 99.6093V99.6095L61.3115 99.6094ZM39.665 41.0596L38.3828 39.7773L38.3826 39.7775L39.665 41.0596ZM41.375 41.0596L42.6572 39.7774L42.6568 39.7769L41.375 41.0596ZM94.6699 94.3545L95.9525 93.0726L95.9521 93.0723L94.6699 94.3545ZM94.6699 96.0645L95.9521 97.3467L95.9522 97.3466L94.6699 96.0645ZM91.251 99.4834L92.5329 100.766L92.5332 100.766L91.251 99.4834ZM89.541 99.4834L88.2588 100.766L88.2591 100.766L89.541 99.4834ZM36.2461 46.1885L34.9634 47.4703L34.9639 47.4707L36.2461 46.1885ZM36.2461 44.4795L34.9637 43.1975L34.9633 43.1978L36.2461 44.4795ZM70.0957 85.167L69.9435 86.9739L74.8831 87.3899L71.3779 83.8848L70.0957 85.167ZM56.626 89.5869L57.8208 90.951L57.8212 90.9506L56.626 89.5869ZM54.8887 89.5586L53.6066 90.841L53.607 90.8414L54.8887 89.5586ZM51.4688 86.1396L50.1864 87.4217L50.1867 87.4221L51.4688 86.1396ZM51.4893 84.4502L50.2685 83.1093L50.2681 83.1097L51.4893 84.4502ZM63.3232 78.3945L64.6055 77.1123L63.9113 76.4181L62.9505 76.6199L63.3232 78.3945ZM57.4629 72.5342L58.0784 74.2399L60.7639 73.2708L58.7451 71.252L57.4629 72.5342ZM46.3564 79.3154L47.5905 80.6441L47.5911 80.6435L46.3564 79.3154ZM44.6309 79.3008L43.3488 80.5832L43.3491 80.5835L44.6309 79.3008ZM41.2109 75.8818L39.9285 77.1638L39.9289 77.1642L41.2109 75.8818ZM41.2256 74.1826L39.9822 72.8627L39.9819 72.863L41.2256 74.1826ZM51.9062 66.9775L53.1885 65.6953L52.2962 64.803L51.1494 65.3297L51.9062 66.9775ZM68.7891 63.3447L68.7992 61.5314L64.3866 61.5067L67.5068 64.6269L68.7891 63.3447ZM95.9043 74.1826L97.1482 72.8632L97.1477 72.8627L95.9043 74.1826ZM95.9189 75.8818L97.2012 77.1641L97.2015 77.1638L95.9189 75.8818ZM92.5 79.3008L93.7819 80.5833L93.7822 80.583L92.5 79.3008ZM90.7734 79.3154L89.5388 80.6435L89.5392 80.6439L90.7734 79.3154ZM77.1982 71.7539L75.916 73.0361L76.2562 73.3763L76.7203 73.5031L77.1982 71.7539ZM46.4922 61.5635L47.3412 63.1658L49.5099 62.0167L47.7744 60.2813L46.4922 61.5635ZM36.0957 69.0518L37.3449 70.3662L37.3452 70.3659L36.0957 69.0518ZM34.373 69.043L33.091 70.3254L33.0913 70.3256L34.373 69.043ZM30.9531 65.624L29.6706 66.9059L29.6711 66.9064L30.9531 65.624ZM30.9658 63.9209L29.712 62.6109L29.7116 62.6112L30.9658 63.9209ZM41.1582 56.2295L42.4404 54.9473L41.4515 53.9584L40.2438 54.6636L41.1582 56.2295ZM84.9307 51.3447L85.4746 49.6149L84.0727 49.1741L83.351 50.4543L84.9307 51.3447ZM106.165 63.9209L107.419 62.6114L107.419 62.6109L106.165 63.9209ZM106.177 65.624L107.459 66.9062L107.459 66.906L106.177 65.624ZM102.758 69.043L104.04 70.3255L104.04 70.3252L102.758 69.043ZM101.035 69.0518L99.7857 70.3659L99.7863 70.3665L101.035 69.0518ZM79.5635 57.3848L78.4928 55.9213L75.3273 58.2372L79.1422 59.1485L79.5635 57.3848ZM68.334 26.5957L68.334 24.7824H68.334V26.5957ZM84.3516 42.6133H86.1649V42.6133L84.3516 42.6133ZM68.334 58.6309V60.4442H68.334L68.334 58.6309ZM52.3154 42.6133L50.5021 42.6133V42.6133H52.3154ZM68.5654 92.3555L68.5653 94.1688C71.5693 94.169 74.005 96.6049 74.005 99.6094L75.8184 99.6094L77.6317 99.6093C77.6316 94.6024 73.5728 90.5425 68.5655 90.5421L68.5654 92.3555ZM75.8184 99.6094L74.005 99.6092C74.0048 102.613 71.5694 105.049 68.5653 105.049L68.5654 106.862L68.5655 108.676C73.5724 108.675 77.6313 104.616 77.6317 99.6095L75.8184 99.6094ZM68.5654 106.862V105.049C65.561 105.049 63.1251 102.613 63.1249 99.6092L61.3115 99.6094L59.4982 99.6095C59.4986 104.617 63.5584 108.676 68.5654 108.676V106.862ZM61.3115 99.6094L63.1249 99.6094C63.1249 96.605 65.5611 94.1688 68.5654 94.1688V92.3555V90.5421C63.5581 90.5421 59.4983 94.6021 59.4982 99.6093L61.3115 99.6094ZM39.665 41.0596L40.9472 42.3418C40.7107 42.5783 40.3287 42.5776 40.0932 42.3422L41.375 41.0596L42.6568 39.7769C41.477 38.5979 39.5634 38.5968 38.3828 39.7773L39.665 41.0596ZM41.375 41.0596L40.0928 42.3418L93.3877 95.6367L94.6699 94.3545L95.9521 93.0723L42.6572 39.7774L41.375 41.0596ZM94.6699 94.3545L93.3874 95.6364C93.1518 95.4007 93.1513 95.0187 93.3877 94.7823L94.6699 96.0645L95.9522 97.3466C97.1326 96.1662 97.1318 94.2525 95.9525 93.0726L94.6699 94.3545ZM94.6699 96.0645L93.3877 94.7822L89.9688 98.2012L91.251 99.4834L92.5332 100.766L95.9521 97.3467L94.6699 96.0645ZM91.251 99.4834L89.9691 98.2009C90.2051 97.9649 90.5869 97.965 90.8229 98.2009L89.541 99.4834L88.2591 100.766C89.4392 101.945 91.3528 101.946 92.5329 100.766L91.251 99.4834ZM89.541 99.4834L90.8232 98.2012L37.5283 44.9063L36.2461 46.1885L34.9639 47.4707L88.2588 100.766L89.541 99.4834ZM36.2461 46.1885L37.5287 44.9067C37.7648 45.1429 37.7645 45.5253 37.5289 45.7612L36.2461 44.4795L34.9633 43.1978C33.7844 44.3778 33.7841 46.2901 34.9634 47.4703L36.2461 46.1885ZM36.2461 44.4795L37.5285 45.7615L40.9474 42.3416L39.665 41.0596L38.3826 39.7775L34.9637 43.1975L36.2461 44.4795ZM70.0957 85.167L70.2479 83.3601C65.0152 82.9194 59.6345 84.5389 55.4308 88.2232L56.626 89.5869L57.8212 90.9506C61.2561 87.9402 65.6542 86.6127 69.9435 86.9739L70.0957 85.167ZM56.626 89.5869L55.4312 88.2229C55.5896 88.0841 55.9139 88.0196 56.1703 88.2758L54.8887 89.5586L53.607 90.8414C54.8075 92.0408 56.6585 91.9691 57.8208 90.951L56.626 89.5869ZM54.8887 89.5586L56.1707 88.2762L52.7508 84.8572L51.4688 86.1396L50.1867 87.4221L53.6066 90.841L54.8887 89.5586ZM51.4688 86.1396L52.7511 84.8576C52.9722 85.0788 53.0214 85.5074 52.7104 85.7907L51.4893 84.4502L50.2681 83.1097C48.9704 84.2919 49.0215 86.2565 50.1864 87.4217L51.4688 86.1396ZM51.4893 84.4502L52.71 85.7911C55.9096 82.8782 59.7149 81.0054 63.696 80.1691L63.3232 78.3945L62.9505 76.6199C58.3556 77.5851 53.96 79.7486 50.2685 83.1093L51.4893 84.4502ZM63.3232 78.3945L62.041 79.6768L68.8135 86.4492L70.0957 85.167L71.3779 83.8848L64.6055 77.1123L63.3232 78.3945ZM57.4629 72.5342L56.8474 70.8285C52.6084 72.3582 48.6094 74.7452 45.1218 77.9873L46.3564 79.3154L47.5911 80.6435C50.7136 77.7407 54.2893 75.6072 58.0784 74.2399L57.4629 72.5342ZM46.3564 79.3154L45.1224 77.9868C45.3145 77.8084 45.6629 77.7685 45.9126 78.0181L44.6309 79.3008L43.3491 80.5835C44.5428 81.7763 46.4206 81.7307 47.5905 80.6441L46.3564 79.3154ZM44.6309 79.3008L45.9129 78.0184L42.493 74.5994L41.2109 75.8818L39.9289 77.1642L43.3488 80.5832L44.6309 79.3008ZM41.2109 75.8818L42.4934 74.5999C42.7231 74.8296 42.7493 75.2383 42.4693 75.5022L41.2256 74.1826L39.9819 72.863C38.7305 74.0425 38.7551 75.99 39.9285 77.1638L41.2109 75.8818ZM41.2256 74.1826L42.469 75.5025C45.5533 72.5969 49.0032 70.3063 52.6631 68.6254L51.9062 66.9775L51.1494 65.3297C47.1381 67.1721 43.3582 69.6823 39.9822 72.8627L41.2256 74.1826ZM51.9062 66.9775L50.624 68.2598L56.1807 73.8164L57.4629 72.5342L58.7451 71.252L53.1885 65.6953L51.9062 66.9775ZM68.7891 63.3447L68.7789 65.158C78.0975 65.2102 87.3948 68.6575 94.6609 75.5025L95.9043 74.1826L97.1477 72.8627C89.1877 65.3641 78.9987 61.5885 68.7992 61.5314L68.7891 63.3447ZM95.9043 74.1826L94.6604 75.5021C94.3806 75.2383 94.4067 74.8298 94.6364 74.5999L95.9189 75.8818L97.2015 77.1638C98.3748 75.9899 98.3992 74.0425 97.1482 72.8632L95.9043 74.1826ZM95.9189 75.8818L94.6367 74.5996L91.2178 78.0186L92.5 79.3008L93.7822 80.583L97.2012 77.1641L95.9189 75.8818ZM92.5 79.3008L91.2181 78.0183C91.4679 77.7686 91.8156 77.8085 92.0077 77.9869L90.7734 79.3154L89.5392 80.6439C90.7091 81.7308 92.5881 81.7766 93.7819 80.5833L92.5 79.3008ZM90.7734 79.3154L92.0081 77.9873C87.8125 74.087 82.8777 71.4259 77.6762 70.0047L77.1982 71.7539L76.7203 73.5031C81.3718 74.7741 85.7835 77.1525 89.5388 80.6435L90.7734 79.3154ZM77.1982 71.7539L78.4805 70.4717L70.0713 62.0625L68.7891 63.3447L67.5068 64.6269L75.916 73.0361L77.1982 71.7539ZM46.4922 61.5635L45.6432 59.9612C41.7889 62.0034 38.1508 64.5958 34.8463 67.7376L36.0957 69.0518L37.3452 70.3659C40.4074 67.4545 43.7755 65.0551 47.3412 63.1658L46.4922 61.5635ZM36.0957 69.0518L34.8465 67.7373C35.0501 67.5438 35.4069 67.5125 35.6548 67.7603L34.373 69.043L33.0913 70.3256C34.2833 71.5169 36.1737 71.4792 37.3449 70.3662L36.0957 69.0518ZM34.373 69.043L35.6551 67.7606L32.2352 64.3416L30.9531 65.624L29.6711 66.9064L33.091 70.3254L34.373 69.043ZM30.9531 65.624L32.2357 64.3421C32.4708 64.5774 32.4842 64.9775 32.22 65.2306L30.9658 63.9209L29.7116 62.6112C28.4834 63.7875 28.4919 65.7266 29.6706 66.9059L30.9531 65.624ZM30.9658 63.9209L32.2197 65.2309C35.2671 62.3139 38.5782 59.8359 42.0726 57.7954L41.1582 56.2295L40.2438 54.6636C36.5061 56.8461 32.9668 59.4955 29.712 62.6109L30.9658 63.9209ZM41.1582 56.2295L39.876 57.5117L45.21 62.8457L46.4922 61.5635L47.7744 60.2813L42.4404 54.9473L41.1582 56.2295ZM84.9307 51.3447L84.3867 53.0745C91.8505 55.4216 98.8949 59.4722 104.911 65.2309L106.165 63.9209L107.419 62.6109C100.991 56.458 93.4573 52.1251 85.4746 49.6149L84.9307 51.3447ZM106.165 63.9209L104.911 65.2304C104.645 64.9757 104.661 64.5756 104.894 64.3421L106.177 65.624L107.459 66.906C108.636 65.7284 108.649 63.7893 107.419 62.6114L106.165 63.9209ZM106.177 65.624L104.895 64.3418L101.476 67.7607L102.758 69.043L104.04 70.3252L107.459 66.9062L106.177 65.624ZM102.758 69.043L101.476 67.7604C101.724 67.5121 102.081 67.5442 102.284 67.737L101.035 69.0518L99.7863 70.3665C100.957 71.4785 102.847 71.5173 104.04 70.3255L102.758 69.043ZM101.035 69.0518L102.285 67.7376C95.829 61.5998 88.1057 57.5609 79.9848 55.621L79.5635 57.3848L79.1422 59.1485C86.6593 60.9441 93.8065 64.6811 99.7857 70.3659L101.035 69.0518ZM79.5635 57.3848L80.6342 58.8482C83.0327 57.0934 85.0427 54.8386 86.5103 52.2352L84.9307 51.3447L83.351 50.4543C82.1388 52.6048 80.4767 54.4698 78.4928 55.9213L79.5635 57.3848ZM68.334 26.5957L68.3339 28.409C76.1786 28.4092 82.5381 34.7686 82.5382 42.6133L84.3516 42.6133L86.1649 42.6133C86.1648 32.7656 78.1816 24.7826 68.334 24.7824L68.334 26.5957ZM84.3516 42.6133H82.5382C82.5382 50.458 76.1787 56.8173 68.3339 56.8175L68.334 58.6309L68.334 60.4442C78.1816 60.4439 86.1649 52.461 86.1649 42.6133H84.3516ZM68.334 58.6309V56.8175C60.4889 56.8175 54.1288 50.458 54.1288 42.6133H52.3154H50.5021C50.5021 52.4613 58.4863 60.4442 68.334 60.4442V58.6309ZM52.3154 42.6133L54.1288 42.6133C54.1289 34.7686 60.489 28.409 68.334 28.409V26.5957V24.7824C58.4863 24.7824 50.5022 32.7654 50.5021 42.6133L52.3154 42.6133Z" fill="white" mask="url(#path-5-outside-1_1001_45084)"/>
</g>
</g>
<defs>
<clipPath id="clip0_1001_45084">
<rect width="136" height="136" fill="white"/>
</clipPath>
<clipPath id="clip1_1001_45084">
<rect width="226.667" height="136" fill="white" transform="translate(-45)"/>
</clipPath>
</defs>
</svg>
