<svg width="27" height="18" viewBox="0 0 27 18" fill="none" xmlns="http://www.w3.org/2000/svg">
<g clip-path="url(#clip0_109_43900)">
<path d="M0 0H27V18H0V0Z" fill="#ED2024"/>
<path d="M9.75 3.66109V8.46109L11.88 9.21109L10.38 10.6811L11.1 11.5811L12.69 9.93109L13.05 10.6211L12.15 12.0911L13.23 13.7711L12.69 14.5511L13.53 15.6311L14.34 14.5211L13.89 13.7411L14.79 12.0011L13.98 10.6211L14.34 9.93109L15.9 11.5811L16.65 10.7111L15.09 9.18109L17.25 8.40109V3.66109L15.69 4.23109L15.66 5.37109L14.67 5.46109V4.68109L15.18 3.99109L16.86 3.33109L16.17 3.21109L16.59 2.85109L16.86 2.97109L16.62 2.55109L16.2 2.70109L15.9 2.37109L14.25 2.70109L14.67 3.03109L13.53 4.50109L12.39 3.06109L12.78 2.73109L11.28 2.37109L10.86 2.70109L10.41 2.58109L10.17 3.00109L10.44 2.82109L10.92 3.15109L10.23 3.30109L11.88 3.90109L12.36 4.59109V5.46109L11.37 5.37109V4.29109L9.75 3.66109Z" fill="#212121"/>
<path d="M7.85938 7.49859H9.77937V8.24859H7.85938V7.49859ZM7.85938 6.26859H9.77937V7.07859H7.85938V6.26859ZM7.85938 5.00859H9.77937V5.78859H7.85938V5.00859ZM7.85938 3.80859H9.77937V4.55859H7.85938V3.80859Z" fill="#212121"/>
<path d="M17.2188 7.49859H19.1388V8.24859H17.2188V7.49859ZM17.2188 6.26859H19.1388V7.07859H17.2188V6.26859ZM17.2188 5.00859H19.1388V5.78859H17.2188V5.00859ZM17.2188 3.80859H19.1388V4.55859H17.2188V3.80859Z" fill="#212121"/>
<path d="M16.0186 10.8281H17.9386V11.3981H16.0186V10.8281ZM9.05859 10.8281H10.9786V11.3981H9.05859V10.8281Z" fill="#212121"/>
</g>
<rect x="0.5" y="0.5" width="26" height="17" rx="0.5" stroke="black" stroke-opacity="0.2"/>
<defs>
<clipPath id="clip0_109_43900">
<rect width="27" height="18" rx="1" fill="white"/>
</clipPath>
</defs>
</svg>
