<svg width="44" height="44" viewBox="0 0 44 44" fill="none" xmlns="http://www.w3.org/2000/svg">
<g clip-path="url(#clip0_17_28552)">
<path d="M41.8974 39.461C41.8974 40.3627 33.0552 41.0938 22.1479 41.0938C11.2406 41.0938 2.39844 40.3627 2.39844 39.461C2.39844 38.5592 11.2406 37.8281 22.1479 37.8281C33.0552 37.8281 41.8974 38.5592 41.8974 39.461Z" fill="#A0A09F" fill-opacity="0.15"/>
<path fill-rule="evenodd" clip-rule="evenodd" d="M14.3699 9.52734L14.3699 23.8341H3.48438V9.52734H14.3699Z" fill="white"/>
<path fill-rule="evenodd" clip-rule="evenodd" d="M19.3455 35.0302C19.3455 37.8644 17.048 40.1619 14.2138 40.1619C11.3796 40.1619 9.08203 37.8644 9.08203 35.0302C9.08203 32.196 11.3796 29.8984 14.2138 29.8984C17.048 29.8984 19.3455 32.196 19.3455 35.0302Z" fill="white"/>
<path fill-rule="evenodd" clip-rule="evenodd" d="M37.6971 35.0302C37.6971 37.8644 35.3995 40.1619 32.5653 40.1619C29.7312 40.1619 27.4336 37.8644 27.4336 35.0302C27.4336 32.196 29.7312 29.8984 32.5653 29.8984C35.3995 29.8984 37.6971 32.196 37.6971 35.0302Z" fill="white"/>
<path fill-rule="evenodd" clip-rule="evenodd" d="M20.131 6.72984C20.0387 5.41225 21.0297 4.24023 22.3469 4.24023H25.0671L24.8124 7.87978C24.8037 9.17543 23.8005 10.2661 22.5118 10.2661C21.2234 10.2661 20.2203 9.1754 20.2115 7.8798L20.131 6.72984Z" fill="white"/>
<path fill-rule="evenodd" clip-rule="evenodd" d="M19.5818 29.085C19.527 30.08 19.7727 30.6326 20.1097 31.0124C20.4375 31.3817 20.8744 31.623 21.4032 31.915C21.4608 31.9468 21.5195 31.9792 21.5792 32.0124C22.4558 30.0581 22.8462 28.6272 22.836 27.5827C22.8296 26.9179 22.6607 26.4344 22.371 26.0664C22.127 25.7564 21.7737 25.4984 21.2895 25.2895C20.9715 25.7253 20.6029 26.304 20.2882 26.9219C19.8974 27.6892 19.616 28.4664 19.5818 29.085ZM20.2735 34.6569H7.4846L7.48192 34.1931C7.4603 30.4533 9.19042 27.7318 11.6251 25.9536H3.20226L3.08735 25.8802C2.68458 25.6227 2.38685 25.3209 2.19445 24.9525C2.0031 24.5862 1.93486 24.1901 1.93243 23.7747L1.92969 23.3054H13.9234C13.6865 17.152 15.5501 12.5703 18.6238 10.4095C19.5507 9.75775 20.5735 9.6727 21.5444 10.1066C22.4871 10.5278 23.3416 11.4181 24.0469 12.6406C25.8963 15.8465 28.7872 17.0898 30.512 17.0666L31.0134 17.0599L30.9614 17.9433C31.4289 17.8415 31.9425 17.7842 32.4801 17.7811L32.9466 17.7785L32.9704 21.9352L32.5038 21.9378C32.2026 21.9395 31.909 21.9241 31.6268 21.8935C32.3008 23.3591 33.0456 25.3489 33.2496 27.33C35.975 27.7609 37.5189 29.416 38.3702 30.9752C38.8128 31.7858 39.0708 32.5728 39.2185 33.1559C39.2925 33.4481 39.3393 33.6912 39.3678 33.8629C39.3821 33.9489 39.3918 34.0172 39.398 34.065C39.4011 34.089 39.4034 34.1078 39.4049 34.1213C39.4057 34.128 39.4063 34.1333 39.4067 34.1373L39.4072 34.1422L39.4074 34.1438L39.4075 34.1445L39.421 34.2811L39.4075 34.1449L39.4583 34.6575H22.236L22.2362 34.6572H20.2734L20.2735 34.6569ZM24.9229 31.6833C26.5523 30.6612 27.7557 29.2696 28.4668 27.5911C29.2547 25.7314 29.4504 23.4903 28.9137 20.9636C28.7373 20.9646 28.5508 20.9656 28.3741 20.9666C28.0263 20.9686 27.717 20.9704 27.5986 20.9711C27.1848 20.9734 26.9061 20.6627 26.7662 20.4406C26.6106 20.1937 26.506 19.8759 26.5042 19.5746L26.5015 19.108L28.57 19.096C27.0279 19.0272 25.8146 18.7671 24.8239 18.3345C23.7131 17.8495 22.9099 17.1599 22.2464 16.3338C21.5909 17.3124 21.0545 18.1681 20.5135 19.3197C22.5936 19.9252 24.1793 20.6336 25.3006 21.4856C26.5297 22.4194 27.2089 23.5338 27.3521 24.8544C27.4927 26.1508 27.1094 27.5826 26.3554 29.1548C25.9743 29.9492 25.4929 30.7911 24.9229 31.6833Z" fill="white"/>
<path d="M13.9056 11.7891H3.95312V20.9601H13.9056V11.7891Z" fill="#A0A09F"/>
<path d="M13.9056 20.9609H3.95312V23.3664H13.9056V20.9609Z" fill="#6F6F6F"/>
<path d="M13.9044 13.135C13.9014 13.135 13.8856 13.1348 13.8827 13.1348C12.8412 13.1348 11.9118 14.5008 11.3042 16.6372C10.6966 14.5008 9.767 13.1348 8.7255 13.1348C6.89465 13.1348 5.41016 17.7578 5.41016 23.365H6.88394C6.88394 18.1584 7.70863 13.8599 8.7255 13.8599C9.74264 13.8599 10.5676 17.7564 10.5676 22.5623H12.0406C12.0406 17.7564 12.8655 13.8599 13.8827 13.8599C13.8856 13.8599 13.9014 13.8604 13.9044 13.8604V13.135Z" fill="#F1F1F1"/>
<path d="M13.9056 9.99219H3.95312V11.7894H13.9056V9.99219Z" fill="#C2945C"/>
<path d="M13.9056 9.99219H3.95312V11.7894H13.9056V9.99219Z" fill="#D8D8D8"/>
<path d="M10.1355 12.5745H7.72114C7.60337 12.5745 7.50781 12.4805 7.50781 12.3646V9.99219H10.3489V12.3646C10.3489 12.4805 10.2533 12.5745 10.1355 12.5745Z" fill="#F1F1F1"/>
<path fill-rule="evenodd" clip-rule="evenodd" d="M14.216 39.6957C16.7925 39.6957 18.8812 37.607 18.8812 35.0305C18.8812 34.926 18.8778 34.8223 18.871 34.7196H9.56098C9.55422 34.8223 9.55078 34.926 9.55078 35.0305C9.55078 37.607 11.6395 39.6957 14.216 39.6957ZM9.61527 34.253C9.98539 32.0466 11.9044 30.3652 14.216 30.3652C16.5277 30.3652 18.4466 32.0466 18.8168 34.253H9.61527Z" fill="#292929"/>
<path fill-rule="evenodd" clip-rule="evenodd" d="M14.2154 37.3625C15.5037 37.3625 16.548 36.3181 16.548 35.0299C16.548 34.9245 16.5411 34.8208 16.5275 34.7191H11.9033C11.8898 34.8208 11.8828 34.9245 11.8828 35.0299C11.8828 36.3181 12.9272 37.3625 14.2154 37.3625ZM12.0155 34.2525C12.3356 33.3465 13.1997 32.6973 14.2154 32.6973C15.2311 32.6973 16.0952 33.3465 16.4154 34.2525H12.0155Z" fill="white"/>
<path d="M37.2289 35.0305C37.2289 37.607 35.1402 39.6957 32.5637 39.6957C29.9871 39.6957 27.8984 37.607 27.8984 35.0305C27.8984 32.4539 29.9871 30.3652 32.5637 30.3652C35.1402 30.3652 37.2289 32.4539 37.2289 35.0305Z" fill="#292929"/>
<path d="M34.8957 35.0299C34.8957 36.3181 33.8514 37.3625 32.5631 37.3625C31.2748 37.3625 30.2305 36.3181 30.2305 35.0299C30.2305 33.7416 31.2748 32.6973 32.5631 32.6973C33.8514 32.6973 34.8957 33.7416 34.8957 35.0299Z" fill="white"/>
<path fill-rule="evenodd" clip-rule="evenodd" d="M22.317 4.70508C21.2965 4.70508 20.4912 5.62095 20.5664 6.69558L20.6481 7.86097C20.6481 8.93078 21.4692 9.79793 22.482 9.79793C23.495 9.79793 24.3161 8.93078 24.3161 7.86097L24.5369 4.70508H22.317ZM32.5671 29.8975C29.9973 29.8975 27.8687 31.7864 27.4939 34.2515H23.1587C23.5956 33.6585 23.9478 33.1707 24.325 32.6187C28.5916 30.4352 30.5938 26.0633 29.286 20.5555L27.5953 20.5651C27.2666 20.567 26.9726 20.0406 26.9702 19.6324L29.0951 19.6201C29.2517 19.2514 29.6774 18.9267 30.273 18.6924C25.5545 18.8662 23.639 17.6202 22.2268 15.5887C21.2992 16.9573 20.5988 18.0076 19.8637 19.6822C29.1301 22.2052 28.4103 26.391 22.6177 34.2513H21.0395C24.02 28.4905 23.9493 25.9772 21.4546 24.9135L22.1321 23.5928C22.1852 23.4893 22.1101 23.3663 21.9938 23.3663H14.3898C14.1513 17.2862 15.9967 12.8869 18.8916 10.8517C20.4786 9.73581 22.2863 10.5837 23.6422 12.9343C25.5658 16.2687 28.6044 17.6194 30.5177 17.5937L30.4569 18.6268C31.0261 18.4314 31.7243 18.3125 32.4822 18.3082L32.5007 21.5318C31.8871 21.5353 31.3115 21.4636 30.8109 21.3364C31.5894 22.8812 32.6549 25.3902 32.8161 27.8029C38.365 28.4219 38.9427 34.2515 38.9427 34.2515H37.6403C37.2655 31.7864 35.1369 29.8975 32.5671 29.8975ZM14.2174 23.8325H2.39844C2.40272 24.5653 2.63831 25.1003 3.33812 25.5477H13.2383C10.2198 27.1813 7.92356 30.0357 7.94792 34.251H9.28142L11.3369 34.2515L16.5844 34.251H18.6397H20.5014L21.3704 32.491C21.3065 32.4554 21.2426 32.4202 21.1787 32.3851L21.1756 32.3833L21.1749 32.3829C20.0732 31.7766 19.0015 31.1867 19.1155 29.1198C19.1727 28.0851 19.8077 26.7784 20.4379 25.7764L21.3816 24.0634C21.4387 23.9597 21.3637 23.8328 21.2454 23.8328H14.2174V23.8325Z" fill="#6F6F6F"/>
</g>
<defs>
<clipPath id="clip0_17_28552">
<rect width="44" height="44" fill="white"/>
</clipPath>
</defs>
</svg>
