<svg width="27" height="18" viewBox="0 0 27 18" fill="none" xmlns="http://www.w3.org/2000/svg">
<g clip-path="url(#clip0_109_43926)">
<path d="M0 0H27V18H0V0Z" fill="#0052B4"/>
<path d="M23.1632 9.53125C23.1579 11.5944 22.8264 13.8155 20.1421 14.8734C17.4527 13.8155 17.1264 11.5944 17.1211 9.53125H23.1632Z" fill="white"/>
<path d="M23.1354 10.4062C22.988 12.2431 22.4827 13.9536 20.1354 14.8799C17.7985 13.9536 17.2669 12.1852 17.1406 10.4115" fill="#29DBFF"/>
<path d="M23.0422 11.2695C22.8738 12.5485 22.1632 14.0853 20.1422 14.8801C18.1211 14.0853 17.4843 12.6432 17.2422 11.2801" fill="white"/>
<path d="M22.8545 12.1199C22.5545 13.0515 21.8387 14.1936 20.1545 14.8988C18.4703 14.2357 17.7755 13.1199 17.4492 12.1094" fill="#29DBFF"/>
<path d="M22.4597 12.9949C22.1176 13.5896 21.5281 14.3317 20.1439 14.8844C18.6965 14.2791 18.1755 13.5528 17.8281 12.9844" fill="white"/>
<path d="M21.7041 13.9531C21.2778 14.3321 21.0725 14.5426 20.1462 14.8952C19.0883 14.4794 18.9567 14.2847 18.6094 13.9742" fill="#29DBFF"/>
<path d="M20.1723 12.1883C20.1618 12.1778 18.7039 14.0672 18.7039 14.0672C18.6092 13.9988 18.1776 13.5672 18.0039 13.2778L20.1776 10.6409L22.2934 13.2567C22.0881 13.5988 21.6934 13.9725 21.5986 14.0462L20.1723 12.1883ZM20.1355 4.48828L18.7407 6.8567H21.5302L20.1355 4.48828Z" fill="#5CC85C"/>
<path d="M16.1569 11.99C16.3466 10.5872 16.1338 9.40038 15.6815 9.33923C15.2293 9.27809 14.7089 10.3657 14.5192 11.7686C14.3295 13.1714 14.5424 14.3582 14.9946 14.4193C15.4469 14.4805 15.9673 13.3928 16.1569 11.99Z" fill="#F7A226"/>
<path d="M16.304 8.809C16.4309 8.49346 16.3763 8.17437 16.1821 8.09631C15.9879 8.01824 15.7276 8.21076 15.6008 8.52631C15.4739 8.84185 15.5285 9.16094 15.7227 9.23901C15.9169 9.31707 16.1771 9.12455 16.304 8.809Z" fill="#DDC7AB"/>
<path d="M15.5237 14.3233C15.5713 13.9954 15.533 13.7184 15.4381 13.7046C15.3431 13.6908 15.2276 13.9455 15.18 14.2734C15.1324 14.6013 15.1707 14.8784 15.2656 14.8921C15.3605 14.9059 15.4761 14.6513 15.5237 14.3233Z" fill="#DDC7AB"/>
<path d="M15.8018 14.7563C15.8976 14.7512 15.9614 14.4882 15.9443 14.1689C15.9272 13.8496 15.8356 13.5949 15.7398 13.6001C15.6441 13.6052 15.5803 13.8682 15.5974 14.1875C15.6145 14.5068 15.706 14.7615 15.8018 14.7563Z" fill="#DDC7AB"/>
<path d="M16.8196 11.2546C16.9304 11.2109 16.9019 10.8751 16.7558 10.5047C16.6098 10.1342 16.4015 9.86932 16.2906 9.91304C16.1797 9.95675 16.2083 10.2925 16.3543 10.663C16.5004 11.0334 16.7087 11.2983 16.8196 11.2546Z" fill="#DDC7AB"/>
<path d="M16.79 9.57452C17.1605 9.42845 17.4254 9.22017 17.3817 9.1093C17.338 8.99843 17.0022 9.02696 16.6317 9.17302C16.2613 9.31909 15.9964 9.52738 16.0401 9.63825C16.0838 9.74912 16.4196 9.72059 16.79 9.57452Z" fill="#DDC7AB"/>
<path d="M25.2714 14.4303C25.7236 14.3692 25.9365 13.1824 25.7468 11.7796C25.5571 10.3767 25.0367 9.28908 24.5845 9.35022C24.1322 9.41137 23.9194 10.5982 24.1091 12.001C24.2987 13.4038 24.8191 14.4915 25.2714 14.4303Z" fill="#F7A226"/>
<path d="M24.5453 9.25135C24.7395 9.17328 24.7941 8.8542 24.6673 8.53865C24.5404 8.2231 24.2802 8.03059 24.086 8.10865C23.8918 8.18672 23.8372 8.5058 23.9641 8.82135C24.0909 9.1369 24.3512 9.32941 24.5453 9.25135Z" fill="#DDC7AB"/>
<path d="M25.0007 14.9047C25.0957 14.8909 25.134 14.6139 25.0863 14.286C25.0386 13.9581 24.9231 13.7034 24.8281 13.7172C24.7332 13.731 24.6949 14.008 24.7426 14.3359C24.7902 14.6639 24.9058 14.9185 25.0007 14.9047Z" fill="#DDC7AB"/>
<path d="M24.6708 14.1983C24.688 13.879 24.6242 13.616 24.5284 13.6108C24.4326 13.6057 24.3411 13.8604 24.324 14.1797C24.3068 14.499 24.3706 14.762 24.4664 14.7671C24.5622 14.7722 24.6537 14.5176 24.6708 14.1983Z" fill="#DDC7AB"/>
<path d="M23.9121 10.6672C24.0581 10.2967 24.0867 9.96095 23.9758 9.91723C23.8649 9.87352 23.6566 10.1384 23.5106 10.5089C23.3645 10.8794 23.336 11.2151 23.4468 11.2588C23.5577 11.3026 23.766 11.0377 23.9121 10.6672Z" fill="#DDC7AB"/>
<path d="M24.2293 9.64461C24.2731 9.53374 24.0082 9.32545 23.6377 9.17938C23.2672 9.03332 22.9315 9.00479 22.8877 9.11566C22.844 9.22653 23.1089 9.43482 23.4794 9.58088C23.8499 9.72695 24.1856 9.75548 24.2293 9.64461Z" fill="#DDC7AB"/>
<path d="M19.6474 6.85938L18.7422 8.15938L19.679 9.53306H20.8422L21.0896 8.19622L20.8053 6.85938H19.6474Z" fill="#B0C6CC"/>
<path d="M13.4737 0V6.17895H11.0474L13.4737 7.79474V8.98421H12.2842L8.42105 6.41053V8.98421H5.05263V6.41053L1.18947 8.98421H0V7.79474L2.42632 6.17895H0V2.81053H2.42632L0 1.19474V0H1.18947L5.05263 2.57368V0H8.42105V2.57368L12.2842 0H13.4737Z" fill="white"/>
<path d="M7.57895 0H5.89474V3.65263H0V5.33684H5.89474V8.98421H7.57895V5.33684H13.4737V3.65263H7.57895V0Z" fill="#D80027"/>
<path d="M13.4732 1.19531V2.8111H11.0469L13.4732 1.19531Z" fill="#2E52B2"/>
<path d="M0 8.98495V8.406L3.28947 6.17969H4.47895L0.38421 8.98495H0Z" fill="#D80027"/>
<path d="M0.384211 0.00390625L4.47895 2.80391H3.28947L0 0.582854V0.00390625H0.384211ZM13.4737 0.00390625V0.582854L10.1842 2.80917H8.99474L13.0895 0.00390625H13.4737ZM13.0895 8.98286L8.99474 6.1776H10.1842L13.4737 8.40391V8.98286H13.0895Z" fill="#D80027"/>
</g>
<rect x="0.5" y="0.5" width="26" height="17" rx="0.5" stroke="black" stroke-opacity="0.2"/>
<defs>
<clipPath id="clip0_109_43926">
<rect width="27" height="18" rx="1" fill="white"/>
</clipPath>
</defs>
</svg>
