<svg width="44" height="44" viewBox="0 0 44 44" fill="none" xmlns="http://www.w3.org/2000/svg">
<path d="M17.8028 5.76208L18.2529 6.21904L18.703 5.76208C18.9314 5.53017 19.3289 5.69025 19.3289 6.01416V21.6805H7.21875V6.01416C7.21875 5.69025 7.61627 5.53017 7.84469 5.76208L8.2948 6.21904L8.74492 5.76208C8.88387 5.62101 9.1103 5.61686 9.2544 5.74963L9.26727 5.76208L9.71739 6.21904L10.1675 5.76208C10.3065 5.62101 10.5329 5.61686 10.677 5.74963L10.6898 5.76208L11.14 6.21904L11.5901 5.76208C11.729 5.62101 11.9555 5.61686 12.0996 5.74963L12.1124 5.76208L12.5625 6.21904L13.0127 5.76208C13.1516 5.62101 13.378 5.61686 13.5221 5.74963L13.535 5.76208L13.9851 6.21904L14.4352 5.76208C14.5742 5.62101 14.8006 5.61686 14.9447 5.74963L14.9576 5.76208L15.4077 6.21904L15.8578 5.76208C15.9968 5.62101 16.2232 5.61686 16.3673 5.74963L16.3802 5.76208L16.8303 6.21904L17.2804 5.76208C17.4194 5.62101 17.6458 5.61686 17.7899 5.74963L17.8028 5.76208Z" fill="white"/>
<path fill-rule="evenodd" clip-rule="evenodd" d="M7.57422 6.05469L8.28444 6.78312L8.99467 6.05469L9.70489 6.78312L10.4151 6.05469L11.1253 6.78312L11.8356 6.05469L12.5458 6.78312L13.256 6.05469L13.9662 6.78312L14.6765 6.05469L15.3867 6.78312L16.0969 6.05469L16.8071 6.78312L17.5174 6.05469L18.2276 6.78312L18.9378 6.05469V20.6234C18.9378 20.9453 18.6769 21.2062 18.3551 21.2062H8.15697C7.83512 21.2062 7.57422 20.9453 7.57422 20.6234V6.05469Z" fill="#C2945C"/>
<path d="M7.57422 18.4746H18.972V21.3241H7.57422V18.4746Z" fill="#D90007"/>
<path fill-rule="evenodd" clip-rule="evenodd" d="M18.9388 9.65856C18.8454 9.63817 18.7036 9.625 18.6085 9.625C17.399 9.625 16.3191 11.1837 15.6132 13.6204C14.9068 11.1837 13.8273 9.625 12.617 9.625C10.4907 9.625 8.76562 14.9266 8.76562 21.3235H10.4777C10.4777 15.3847 11.4361 10.452 12.617 10.452C13.7992 10.452 14.7571 14.8973 14.7571 20.3802H16.4688C16.4688 14.8973 17.4275 10.452 18.6085 10.452C18.7043 10.452 18.8462 10.4865 18.9388 10.5479C18.9384 9.99202 18.9388 10.2834 18.9388 9.65856Z" fill="#FFBC0D"/>
<path d="M29.2883 10.3877C29.3866 10.2403 29.551 10.1523 29.7281 10.1523C29.8564 10.1523 29.9801 10.199 30.0765 10.2836L30.3434 10.5179L34.7926 10.9944C34.9765 11.0142 35.1417 11.1132 35.2458 11.2661C35.3156 11.3687 35.3944 11.5071 35.4515 11.6726C35.5982 11.6771 35.7368 11.7413 35.8433 11.8548C36.1019 12.13 36.0944 12.5925 36.0859 12.7278C36.0739 12.9202 35.9312 13.0791 35.7412 13.1116L35.7403 13.1118C35.7338 13.1129 35.6963 13.1192 35.6295 13.1291C35.3968 15.2657 34.8666 20.2954 34.7662 20.9782C34.6659 21.661 33.1503 21.6778 32.0631 21.7128C30.848 21.7521 29.1021 21.6183 29.0149 21.0183C28.9277 20.4182 28.2592 14.7216 28.068 13.124C28.013 13.1118 27.9831 13.1033 27.9734 13.1005C27.7873 13.0453 27.6641 12.8687 27.6767 12.6749C27.678 12.6551 27.6907 12.4757 27.7403 12.2885C27.8823 11.7524 28.2002 11.6723 28.3769 11.6723H28.3935L28.5311 11.0188C28.6064 10.6607 28.9224 10.3992 29.2864 10.3905L29.2883 10.3877Z" fill="white"/>
<path fill-rule="evenodd" clip-rule="evenodd" d="M28.0898 12.7021C28.0898 12.7021 28.1297 12.0883 28.3752 12.0883H28.7292L28.9362 11.1047C28.9756 10.9175 29.1494 10.7897 29.3397 10.8081L29.4962 10.8231L29.6326 10.6185C29.6703 10.5619 29.7493 10.5514 29.8005 10.5964L30.1664 10.9176L34.7466 11.4081C34.809 11.4148 34.865 11.4484 34.9004 11.5003C34.977 11.613 35.0995 11.831 35.1124 12.0883H35.4333C35.5938 12.0883 35.6881 12.3999 35.6692 12.7021C35.6692 12.7021 34.2392 12.9476 31.8607 12.9476C28.9157 12.9476 28.0898 12.7021 28.0898 12.7021Z" fill="#461E00"/>
<path fill-rule="evenodd" clip-rule="evenodd" d="M28.4805 13.0547C28.4805 13.0547 29.4011 20.7501 29.4291 20.9649C29.4716 21.2907 30.5844 21.3667 31.8445 21.3667C33.1046 21.3667 34.3137 21.234 34.3562 20.9224C34.3987 20.6108 35.2198 13.0618 35.2198 13.0618C35.2198 13.0618 34.1934 13.26 31.7936 13.26C29.7335 13.26 28.4805 13.0547 28.4805 13.0547Z" fill="#FFBC0D"/>
<g style="mix-blend-mode:multiply" opacity="0.5">
<path fill-rule="evenodd" clip-rule="evenodd" d="M32.957 21.3265C33.1601 19.3587 33.4103 15.5257 33.5573 13.2176C34.7042 13.1595 35.2164 13.0605 35.2164 13.0605C35.2164 13.0605 34.3953 20.6096 34.3528 20.9212C34.3234 21.1369 33.7347 21.2669 32.957 21.3265Z" fill="#D6D6D6"/>
</g>
<path fill-rule="evenodd" clip-rule="evenodd" d="M32.2512 19.6412C32.3729 19.6321 32.4711 20.1308 32.4711 20.7628C32.5296 20.7552 32.588 20.7463 32.6462 20.7361C32.6462 20.0553 32.4704 19.5368 32.2512 19.5531C32.1266 19.5627 32.0151 19.7306 31.9423 19.9899C31.8694 19.7306 31.7579 19.5627 31.6333 19.5531C31.4142 19.5369 31.2382 20.0552 31.2383 20.7361C31.2965 20.7463 31.3549 20.7552 31.4134 20.7628C31.4134 20.1308 31.5117 19.6321 31.6333 19.6412C31.755 19.6504 31.854 20.1247 31.8539 20.7082C31.9128 20.7094 31.9717 20.7094 32.0306 20.7082C32.0305 20.1247 32.1295 19.6505 32.2512 19.6412Z" fill="#EC9D47"/>
<path d="M43.7276 39.3109C43.7276 40.4912 34.0001 41.448 22.0005 41.448C10.001 41.448 0.273438 40.4912 0.273438 39.3109C0.273438 38.1306 10.001 37.1738 22.0005 37.1738C34.0001 37.1738 43.7276 38.1306 43.7276 39.3109Z" fill="#A0A09F" fill-opacity="0.15"/>
<path fill-rule="evenodd" clip-rule="evenodd" d="M3.65625 25.7754H40.343V38.4165C40.343 39.1918 39.6282 39.6665 38.9539 39.6665H5.04536C4.37102 39.6665 3.65625 39.1918 3.65625 38.4165V25.7754Z" fill="white"/>
<path fill-rule="evenodd" clip-rule="evenodd" d="M3.15489 21.8594H40.8454C41.2567 21.8594 41.5901 22.1928 41.5901 22.6041V25.0327C41.5901 25.444 41.2567 25.7774 40.8454 25.7774L40.8333 25.7773C34.352 25.6717 28.0029 25.619 21.7861 25.619C15.5799 25.619 9.37369 25.6716 3.16751 25.7768C2.76873 25.7835 2.43785 25.4755 2.4118 25.0819L2.41016 25.0321V22.6041C2.41016 22.1928 2.74358 21.8594 3.15489 21.8594Z" fill="white"/>
<path d="M40.8259 26.3106L40.8237 26.3106C34.3451 26.2051 27.999 26.1524 21.7852 26.1524C15.582 26.1524 9.37884 26.2049 3.17568 26.3101C2.49065 26.3217 1.92257 25.7928 1.87781 25.1163L1.87723 25.1075L1.87529 25.0489L1.875 25.0312V22.6032C1.875 21.8968 2.44763 21.3242 3.15401 21.3242H40.8445C41.5509 21.3242 42.1235 21.8968 42.1235 22.6032V25.0318C42.1235 25.7382 41.5509 26.3108 40.8445 26.3108H40.8423L40.8259 26.3106Z" fill="white"/>
<path d="M4.19141 26.3105H39.8096V38.4174C39.8096 38.8127 39.4268 39.1331 38.9547 39.1331H5.04624C4.57413 39.1331 4.19141 38.8127 4.19141 38.4174V26.3105Z" fill="#292929"/>
<path fill-rule="evenodd" clip-rule="evenodd" d="M3.15489 21.8594H40.8454C41.2567 21.8594 41.5901 22.1928 41.5901 22.6041V25.0327C41.5901 25.444 41.2567 25.7774 40.8454 25.7774L40.8333 25.7773C34.352 25.6717 28.0029 25.619 21.7861 25.619C15.5799 25.619 9.37369 25.6716 3.16751 25.7768C2.76873 25.7835 2.43785 25.4755 2.4118 25.0819L2.41016 25.0321V22.6041C2.41016 22.1928 2.74358 21.8594 3.15489 21.8594Z" fill="#FFBC0D"/>
<path d="M21.4006 8.85742C22.4158 8.85742 23.064 9.60335 23.6048 11.3974L23.6175 11.4399L23.6251 11.4549L24.797 13.9549C24.8212 14.0066 24.8316 14.0638 24.8272 14.1208C24.7301 15.3594 24.5882 16.606 24.4014 17.8607C24.2146 19.1153 23.9854 20.3617 23.7137 21.5999C23.6817 21.7458 23.556 21.8511 23.4086 21.8577L23.3938 21.8581H15.1687C15.0149 21.8581 14.8818 21.7505 14.8488 21.5996C14.5748 20.3453 14.3455 19.099 14.1612 17.8607C13.9768 16.6223 13.8349 15.3758 13.7354 14.1211C13.7314 14.0704 13.7392 14.0195 13.758 13.9724L13.7656 13.9549L14.9408 11.4481L14.9451 11.4397L14.9593 11.3925C15.4889 9.638 16.2028 8.90189 17.1902 8.85875L17.2202 8.85776L17.2512 8.85742C18.0621 8.85742 18.7705 9.16793 19.2988 10.2983L19.3259 10.3571L19.3366 10.3337C19.8548 9.20774 20.5491 8.88833 21.3452 8.85846L21.3706 8.85772L21.4006 8.85742Z" fill="white"/>
<path fill-rule="evenodd" clip-rule="evenodd" d="M15.3824 12.0302H21.988L21.9748 11.969C21.7902 11.1292 21.5502 10.6208 21.2875 10.6208C21.0134 10.6208 20.7639 11.1324 20.5764 11.9692L20.563 12.0302H18.0995L18.0863 11.969C17.9017 11.1292 17.6616 10.6208 17.399 10.6208C17.1216 10.6208 16.8694 11.1448 16.6812 11.9996L16.6745 12.0302H15.3891C15.8472 10.4592 16.5679 9.44531 17.3788 9.44531C18.1663 9.44531 18.8688 10.3321 19.328 11.7187C19.7876 10.3321 20.4899 9.44531 21.2774 9.44531C22.0802 9.44531 22.7945 10.439 23.2532 11.9833L23.267 12.0302H23.2737L24.3748 14.369C24.2842 15.5205 24.1516 16.6796 23.9772 17.8464C23.8027 19.0131 23.5886 20.1722 23.3349 21.3237H15.3212C15.0652 20.157 14.8511 18.9979 14.6789 17.8464C14.5067 16.6948 14.3741 15.5357 14.2812 14.369L15.3824 12.0302Z" fill="white"/>
<path fill-rule="evenodd" clip-rule="evenodd" d="M15.3824 12.0312H23.2737L24.3748 14.37C24.3748 14.37 24.2389 16.0973 23.9772 17.8474C23.7155 19.5974 23.3349 21.3247 23.3349 21.3247H15.3212C15.3212 21.3247 14.9372 19.5746 14.6789 17.8474C14.4206 16.1201 14.2812 14.37 14.2812 14.37L15.3824 12.0312Z" fill="#DB0007"/>
<path fill-rule="evenodd" clip-rule="evenodd" d="M19.3285 18.6155C17.8459 18.6155 16.5864 17.543 16.1322 16.0516L15.7558 16.2237L15.5742 15.8272L16.6097 15.3535L16.7912 15.7501L16.4729 15.8957C16.7854 17.0147 17.9453 17.8456 19.3285 17.8456C20.7117 17.8456 21.8716 17.0147 22.1841 15.8957L21.8658 15.7501L22.0473 15.3535L23.0828 15.8272L22.9012 16.2237L22.5248 16.0516C22.0706 17.543 20.8112 18.6155 19.3285 18.6155Z" fill="#FFBC0D"/>
<path fill-rule="evenodd" clip-rule="evenodd" d="M16.6722 12.0302C16.861 11.1573 17.1159 10.6208 17.3967 10.6208C17.6656 10.6208 17.9109 11.154 18.0971 12.0302H20.5606C20.7495 11.1573 21.0044 10.6208 21.2852 10.6208C21.5542 10.6208 21.7994 11.154 21.9857 12.0302H23.2646C22.8066 10.4592 22.086 9.44531 21.275 9.44531C20.4876 9.44531 19.7852 10.3321 19.3257 11.7187C18.8664 10.3321 18.1639 9.44531 17.3764 9.44531C16.5655 9.44531 15.8448 10.4592 15.3867 12.0302H16.6722Z" fill="#FFBC0D"/>
<path fill-rule="evenodd" clip-rule="evenodd" d="M16.6722 12.0302C16.861 11.1573 17.1159 10.6208 17.3967 10.6208C17.6656 10.6208 17.9109 11.154 18.0971 12.0302H20.5606C20.7495 11.1573 21.0044 10.6208 21.2852 10.6208C21.5542 10.6208 21.7994 11.154 21.9857 12.0302H23.2646C22.8066 10.4592 22.086 9.44531 21.275 9.44531C20.4876 9.44531 19.7852 10.3321 19.3257 11.7187C18.8664 10.3321 18.1639 9.44531 17.3764 9.44531C16.5655 9.44531 15.8448 10.4592 15.3867 12.0302H16.6722Z" fill="#FFBC0D"/>
<path fill-rule="evenodd" clip-rule="evenodd" d="M20.4258 11.7772C20.6228 10.8977 20.9003 10.4316 21.2871 10.4316C21.664 10.4316 21.9306 10.8946 22.1247 11.7781L22.1782 12.0257H20.3711L20.4258 11.7772ZM21.7808 11.6595C21.6274 11.0486 21.4452 10.7488 21.2943 10.7396L21.2871 10.7394C21.1204 10.7394 20.9239 11.0492 20.7633 11.6881L20.7558 11.718H21.7952L21.7808 11.6595Z" fill="white"/>
<path fill-rule="evenodd" clip-rule="evenodd" d="M16.528 11.8081C16.7258 10.9093 17.0055 10.4316 17.396 10.4316C17.7638 10.4316 18.0266 10.8726 18.2195 11.7149L18.2337 11.7781L18.2872 12.0257H16.4805L16.528 11.8081ZM17.8896 11.6595C17.7361 11.0487 17.5539 10.7489 17.403 10.7396L17.3959 10.7394C17.2294 10.7394 17.0328 11.0511 16.872 11.689L16.8647 11.718H17.904L17.8896 11.6595Z" fill="white"/>
</svg>
