<svg width="136" height="136" viewBox="0 0 136 136" fill="none" xmlns="http://www.w3.org/2000/svg">
<g clip-path="url(#clip0_1001_45093)">
<g clip-path="url(#clip1_1001_45093)">
<ellipse cx="68.7227" cy="122.472" rx="47.2344" ry="5.81347" fill="#A0A09F" fill-opacity="0.15"/>
<path d="M68.5654 92.3555C72.5712 92.3556 75.8184 95.6035 75.8184 99.6094C75.8182 103.615 72.5711 106.862 68.5654 106.862C64.5597 106.862 61.3117 103.615 61.3115 99.6094C61.3115 95.6035 64.5595 92.3555 68.5654 92.3555ZM51.4893 84.4492C61.156 75.6487 75.9749 75.6485 85.6416 84.4492C86.1353 84.8987 86.1332 85.6675 85.6611 86.1396L82.2422 89.5586C81.7701 90.0307 81.006 90.027 80.5039 89.5869C73.6823 83.6081 63.4476 83.608 56.626 89.5869C56.124 90.0267 55.3607 90.0304 54.8887 89.5586L51.4688 86.1396C50.9966 85.6675 50.9956 84.8987 51.4893 84.4492ZM41.2256 74.1826C56.5683 59.7287 80.5614 59.7288 95.9043 74.1826C96.3903 74.6404 96.391 75.4097 95.9189 75.8818L92.5 79.3008C92.0279 79.7729 91.2624 79.77 90.7734 79.3154C78.2674 67.6893 58.8624 67.6893 46.3564 79.3154C45.8675 79.7697 45.1029 79.7726 44.6309 79.3008L41.2109 75.8818C40.7389 75.4097 40.7397 74.6404 41.2256 74.1826ZM51.3535 51.6182C52.3629 53.9986 53.8591 56.1222 55.7158 57.8662C48.5772 59.8809 41.8205 63.6088 36.0957 69.0518C35.6119 69.5118 34.8452 69.515 34.373 69.043L30.9531 65.624C30.4811 65.1519 30.4835 64.3825 30.9658 63.9209C36.9603 58.183 43.9444 54.0823 51.3535 51.6182ZM85.3691 51.4844C92.9297 53.9326 100.061 58.0778 106.165 63.9209C106.647 64.3826 106.649 65.152 106.177 65.624L102.758 69.043C102.286 69.515 101.519 69.5116 101.035 69.0518C95.2147 63.5178 88.3264 59.7587 81.0557 57.7686C82.899 56.0104 84.3779 53.8743 85.3691 51.4844Z" fill="#EAEAEA"/>
<path d="M65.6133 22.9687C65.6133 22.301 66.1545 21.7598 66.8222 21.7598H69.8444C70.512 21.7598 71.0533 22.301 71.0533 22.9687V25.3864H65.6133V22.9687Z" fill="#A0A09F"/>
<path d="M81.5827 27.3294C82.0548 26.8573 82.8202 26.8573 83.2923 27.3294L85.4293 29.4665C85.9014 29.9386 85.9014 30.704 85.4293 31.1761L83.7197 32.8857L79.8731 29.039L81.5827 27.3294Z" fill="#A0A09F"/>
<circle cx="68.3342" cy="44.426" r="14.8089" fill="white" stroke="#DB0007" stroke-width="2.41778"/>
<path d="M68.0322 45.332L57.6367 41.1602C59.0057 36.6692 63.1248 33.3802 68.0322 33.25V45.332Z" fill="#DB0007"/>
<mask id="path-7-outside-1_1001_45093" maskUnits="userSpaceOnUse" x="28.6016" y="19.7598" width="80" height="89" fill="black">
<rect fill="white" x="28.6016" y="19.7598" width="80" height="89"/>
<path fill-rule="evenodd" clip-rule="evenodd" d="M66.823 21.7598C66.1554 21.7598 65.6142 22.301 65.6142 22.9687V25.3864H71.0541V22.9687C71.0541 22.301 70.5129 21.7598 69.8453 21.7598H66.823ZM75.8183 99.6089C75.8183 95.6031 72.5712 92.3551 68.5654 92.355C64.5595 92.355 61.3115 95.603 61.3115 99.6089C61.3117 103.615 64.5596 106.862 68.5654 106.862C72.5711 106.862 75.8181 103.615 75.8183 99.6089ZM85.6416 84.4488C75.9749 75.6481 61.156 75.6482 51.4892 84.4488C50.9956 84.8983 50.9966 85.6671 51.4687 86.1392L54.8887 89.5582C55.3607 90.03 56.1239 90.0263 56.626 89.5865C63.4476 83.6076 73.6823 83.6076 80.5039 89.5865C81.006 90.0265 81.7701 90.0303 82.2422 89.5582L85.6611 86.1392C86.1332 85.6671 86.1353 84.8983 85.6416 84.4488ZM95.9043 74.1822C80.5614 59.7284 56.5683 59.7283 41.2256 74.1822C40.7397 74.64 40.7389 75.4093 41.2109 75.8814L44.6308 79.3003C45.1029 79.7722 45.8675 79.7692 46.3564 79.315C58.8624 67.6889 78.2674 67.6889 90.7734 79.315C91.2624 79.7695 92.0279 79.7724 92.5 79.3003L95.9189 75.8814C96.391 75.4093 96.3903 74.64 95.9043 74.1822ZM55.7158 57.8658C53.859 56.1217 52.3629 53.9981 51.3535 51.6177C43.9444 54.0818 36.9603 58.1826 30.9658 63.9205C30.4835 64.3821 30.4811 65.1515 30.9531 65.6236L34.373 69.0425C34.8451 69.5145 35.6119 69.5113 36.0957 69.0513C41.8205 63.6084 48.5772 59.8805 55.7158 57.8658ZM106.165 63.9205C100.061 58.0774 92.9297 53.9321 85.3691 51.4839C84.3779 53.8739 82.899 56.01 81.0557 57.7681C88.3264 59.7582 95.2146 63.5174 101.035 69.0513C101.519 69.5111 102.286 69.5146 102.758 69.0425L106.177 65.6236C106.649 65.1515 106.647 64.3821 106.165 63.9205ZM81.5839 27.3302C82.056 26.8581 82.8214 26.8581 83.2935 27.3302L85.4306 29.4672C85.9027 29.9393 85.9027 30.7047 85.4306 31.1768L83.7209 32.8864L79.8743 29.0398L81.5839 27.3302ZM68.3341 60.4442C77.1805 60.4442 84.3519 53.2728 84.3519 44.4264C84.3519 35.5801 77.1805 28.4087 68.3341 28.4087C59.4878 28.4087 52.3164 35.5801 52.3164 44.4264C52.3164 44.4771 52.3166 44.5277 52.3171 44.5783C52.3166 44.6283 52.3164 44.6785 52.3164 44.7287C52.3164 53.4081 59.3525 60.4442 68.0319 60.4442C68.0821 60.4442 68.1322 60.444 68.1823 60.4435C68.2329 60.444 68.2835 60.4442 68.3341 60.4442Z"/>
</mask>
<path d="M65.6142 25.3864H63.8008V27.1998H65.6142V25.3864ZM71.0541 25.3864V27.1998H72.8675V25.3864H71.0541ZM68.5654 92.355L68.5655 90.5417H68.5654V92.355ZM75.8183 99.6089L77.6317 99.609V99.6089H75.8183ZM61.3115 99.6089H59.4982V99.609L61.3115 99.6089ZM68.5654 106.862V108.675H68.5655L68.5654 106.862ZM51.4892 84.4488L50.2685 83.1079L50.2685 83.1079L51.4892 84.4488ZM85.6416 84.4488L86.8623 83.1079L86.8623 83.1079L85.6416 84.4488ZM51.4687 86.1392L50.1865 87.4214L50.1867 87.4216L51.4687 86.1392ZM54.8887 89.5582L53.6066 90.8406L53.6067 90.8407L54.8887 89.5582ZM56.626 89.5865L57.8209 90.9504L57.8212 90.9502L56.626 89.5865ZM80.5039 89.5865L81.6991 88.2228L81.6991 88.2228L80.5039 89.5865ZM82.2422 89.5582L80.96 88.2759L80.9599 88.2759L82.2422 89.5582ZM85.6611 86.1392L84.3789 84.857L84.3789 84.857L85.6611 86.1392ZM41.2256 74.1822L39.9822 72.8623L39.9821 72.8623L41.2256 74.1822ZM95.9043 74.1822L97.1477 72.8623L97.1477 72.8623L95.9043 74.1822ZM41.2109 75.8814L39.9287 77.1636L39.9289 77.1638L41.2109 75.8814ZM44.6308 79.3003L43.3488 80.5827L43.3488 80.5828L44.6308 79.3003ZM46.3564 79.315L47.5906 80.6435L47.5911 80.6431L46.3564 79.315ZM90.7734 79.315L89.5388 80.6431L89.5388 80.6431L90.7734 79.315ZM92.5 79.3003L91.2178 78.0181L91.2178 78.0181L92.5 79.3003ZM95.9189 75.8814L97.2012 77.1636L95.9189 75.8814ZM51.3535 51.6177L53.023 50.9098L52.3695 49.3688L50.7812 49.8971L51.3535 51.6177ZM55.7158 57.8658L56.2083 59.6109L59.295 58.7398L56.9573 56.5441L55.7158 57.8658ZM30.9658 63.9205L29.7119 62.6105L29.7119 62.6105L30.9658 63.9205ZM30.9531 65.6236L29.6708 66.9057L29.6711 66.906L30.9531 65.6236ZM34.373 69.0425L35.6551 67.7602L35.6551 67.7601L34.373 69.0425ZM36.0957 69.0513L37.3451 70.3655L37.3452 70.3655L36.0957 69.0513ZM85.3691 51.4839L85.9277 49.7588L84.3354 49.2432L83.6941 50.7892L85.3691 51.4839ZM106.165 63.9205L107.419 62.6107L107.419 62.6105L106.165 63.9205ZM81.0557 57.7681L79.8041 56.4559L77.4826 58.6702L80.5769 59.5171L81.0557 57.7681ZM101.035 69.0513L99.7857 70.3655L99.786 70.3658L101.035 69.0513ZM83.2935 27.3302L82.0113 28.6124L82.0113 28.6124L83.2935 27.3302ZM81.5839 27.3302L82.8661 28.6124L82.8661 28.6124L81.5839 27.3302ZM85.4306 29.4672L86.7128 28.185L86.7128 28.185L85.4306 29.4672ZM85.4306 31.1768L86.7128 32.459L86.7128 32.459L85.4306 31.1768ZM83.7209 32.8864L82.4387 34.1687L83.7209 35.4509L85.0031 34.1687L83.7209 32.8864ZM79.8743 29.0398L78.592 27.7576L77.3098 29.0398L78.592 30.322L79.8743 29.0398ZM52.3171 44.5783L54.1303 44.5953L54.1305 44.5783L54.1303 44.5614L52.3171 44.5783ZM68.1823 60.4435L68.1992 58.6302L68.1822 58.6301L68.1653 58.6302L68.1823 60.4435ZM65.6142 22.9687H67.4275C67.4275 23.3025 67.1569 23.5731 66.823 23.5731V21.7598V19.9464C65.1539 19.9464 63.8008 21.2995 63.8008 22.9687H65.6142ZM65.6142 25.3864H67.4275V22.9687H65.6142H63.8008V25.3864H65.6142ZM71.0541 25.3864V23.5731H65.6142V25.3864V27.1998H71.0541V25.3864ZM71.0541 22.9687H69.2408V25.3864H71.0541H72.8675V22.9687H71.0541ZM69.8453 21.7598V23.5731C69.5114 23.5731 69.2408 23.3025 69.2408 22.9687H71.0541H72.8675C72.8675 21.2995 71.5144 19.9464 69.8453 19.9464V21.7598ZM66.823 21.7598V23.5731H69.8453V21.7598V19.9464H66.823V21.7598ZM68.5654 92.355L68.5654 94.1684C71.5695 94.1684 74.005 96.6043 74.005 99.6089H75.8183H77.6317C77.6317 94.6019 73.573 90.5418 68.5655 90.5417L68.5654 92.355ZM61.3115 99.6089H63.1248C63.1248 96.6045 65.561 94.1684 68.5654 94.1684V92.355V90.5417C63.558 90.5417 59.4982 94.6016 59.4982 99.6089H61.3115ZM68.5654 106.862V105.049C65.5609 105.049 63.125 102.613 63.1248 99.6088L61.3115 99.6089L59.4982 99.609C59.4984 104.616 63.5584 108.675 68.5654 108.675V106.862ZM75.8183 99.6089L74.005 99.6088C74.0049 102.613 71.5696 105.048 68.5654 105.049L68.5654 106.862L68.5655 108.675C73.5726 108.675 77.6314 104.616 77.6317 99.609L75.8183 99.6089ZM51.4892 84.4488L52.71 85.7897C61.6848 77.619 75.4461 77.6189 84.4208 85.7896L85.6416 84.4488L86.8623 83.1079C76.5037 73.6773 60.6272 73.6774 50.2685 83.1079L51.4892 84.4488ZM51.4687 86.1392L52.751 84.857C52.9718 85.0779 53.0214 85.5061 52.71 85.7896L51.4892 84.4488L50.2685 83.1079C48.9697 84.2904 49.0214 86.2563 50.1865 87.4214L51.4687 86.1392ZM54.8887 89.5582L56.1707 88.2757L52.7508 84.8568L51.4687 86.1392L50.1867 87.4216L53.6066 90.8406L54.8887 89.5582ZM56.626 89.5865L55.431 88.2225C55.5892 88.0839 55.914 88.0192 56.1706 88.2756L54.8887 89.5582L53.6067 90.8407C54.8074 92.0408 56.6586 91.9686 57.8209 90.9504L56.626 89.5865ZM80.5039 89.5865L81.6991 88.2228C74.1934 81.6444 62.9364 81.6443 55.4307 88.2228L56.626 89.5865L57.8212 90.9502C63.9588 85.5708 73.1711 85.5708 79.3087 90.9502L80.5039 89.5865ZM82.2422 89.5582L80.9599 88.2759C81.2166 88.0193 81.5409 88.0842 81.6991 88.2228L80.5039 89.5865L79.3087 90.9501C80.471 91.9689 82.3236 92.0412 83.5244 90.8404L82.2422 89.5582ZM85.6611 86.1392L84.3789 84.857L80.96 88.2759L82.2422 89.5582L83.5244 90.8404L86.9433 87.4214L85.6611 86.1392ZM85.6416 84.4488L84.4208 85.7896C84.1074 85.5043 84.16 85.0759 84.3789 84.857L85.6611 86.1392L86.9433 87.4214C88.1064 86.2583 88.1632 84.2922 86.8623 83.1079L85.6416 84.4488ZM41.2256 74.1822L42.469 75.5021C57.1133 61.7061 80.0164 61.7062 94.6609 75.5021L95.9043 74.1822L97.1477 72.8623C81.1065 57.7506 56.0233 57.7504 39.9822 72.8623L41.2256 74.1822ZM41.2109 75.8814L42.4932 74.5992C42.7229 74.8289 42.7492 75.2381 42.469 75.502L41.2256 74.1822L39.9821 72.8623C38.7301 74.0419 38.7549 75.9897 39.9287 77.1636L41.2109 75.8814ZM44.6308 79.3003L45.9129 78.0179L42.493 74.599L41.2109 75.8814L39.9289 77.1638L43.3488 80.5827L44.6308 79.3003ZM46.3564 79.315L45.1222 77.9865C45.3142 77.8082 45.6629 77.7681 45.9129 78.0179L44.6308 79.3003L43.3488 80.5828C44.5428 81.7763 46.4208 81.7303 47.5906 80.6435L46.3564 79.315ZM90.7734 79.315L92.0081 77.9869C78.8061 65.7138 58.3237 65.7138 45.1218 77.9869L46.3564 79.315L47.5911 80.6431C59.4011 69.664 77.7288 69.664 89.5388 80.6431L90.7734 79.315ZM92.5 79.3003L91.2178 78.0181C91.4675 77.7684 91.8159 77.8082 92.008 77.9869L90.7734 79.315L89.5388 80.6431C90.709 81.7309 92.5883 81.7765 93.7822 80.5826L92.5 79.3003ZM95.9189 75.8814L94.6367 74.5992L91.2178 78.0181L92.5 79.3003L93.7822 80.5826L97.2012 77.1636L95.9189 75.8814ZM95.9043 74.1822L94.6609 75.5021C94.3807 75.2381 94.407 74.8289 94.6367 74.5992L95.9189 75.8814L97.2012 77.1636C98.375 75.9897 98.3998 74.0419 97.1477 72.8623L95.9043 74.1822ZM51.3535 51.6177L49.6841 52.3256C50.7935 54.9421 52.4369 57.2738 54.4743 59.1875L55.7158 57.8658L56.9573 56.5441C55.2812 54.9697 53.9322 53.0542 53.023 50.9098L51.3535 51.6177ZM30.9658 63.9205L32.2197 65.2304C38.0159 59.6823 44.7658 55.7197 51.9258 53.3384L51.3535 51.6177L50.7812 49.8971C43.123 52.444 35.9047 56.6829 29.7119 62.6105L30.9658 63.9205ZM30.9531 65.6236L32.2355 64.3415C32.4705 64.5766 32.4842 64.9773 32.2197 65.2304L30.9658 63.9205L29.7119 62.6105C28.4829 63.7869 28.4917 65.7264 29.6708 66.9057L30.9531 65.6236ZM34.373 69.0425L35.6551 67.7601L32.2352 64.3412L30.9531 65.6236L29.6711 66.906L33.091 70.3249L34.373 69.0425ZM36.0957 69.0513L34.8463 67.7371C35.0498 67.5436 35.4071 67.5122 35.6551 67.7602L34.373 69.0425L33.091 70.3249C34.2832 71.5168 36.1739 71.479 37.3451 70.3655L36.0957 69.0513ZM55.7158 57.8658L55.2233 56.1206C47.8084 58.2133 40.79 62.086 34.8462 67.7372L36.0957 69.0513L37.3452 70.3655C42.851 65.1308 49.346 61.5477 56.2083 59.6109L55.7158 57.8658ZM85.3691 51.4839L84.8105 53.2091C92.117 55.575 99.0087 59.5807 104.911 65.2304L106.165 63.9205L107.419 62.6105C101.112 56.5741 93.7424 52.2893 85.9277 49.7588L85.3691 51.4839ZM81.0557 57.7681L82.3072 59.0803C84.3304 57.1505 85.9548 54.8049 87.0441 52.1786L85.3691 51.4839L83.6941 50.7892C82.8009 52.9428 81.4675 54.8694 79.8041 56.4559L81.0557 57.7681ZM101.035 69.0513L102.285 67.7372C96.2411 61.9913 89.0861 58.0861 81.5344 56.0191L81.0557 57.7681L80.5769 59.5171C87.5667 61.4303 94.1881 65.0435 99.7857 70.3655L101.035 69.0513ZM102.758 69.0425L101.476 67.7603C101.724 67.5118 102.081 67.5439 102.284 67.7368L101.035 69.0513L99.786 70.3658C100.957 71.4783 102.847 71.5173 104.04 70.3247L102.758 69.0425ZM106.177 65.6236L104.895 64.3414L101.476 67.7603L102.758 69.0425L104.04 70.3247L107.459 66.9058L106.177 65.6236ZM106.165 63.9205L104.911 65.2303C104.645 64.9756 104.661 64.5749 104.895 64.3414L106.177 65.6236L107.459 66.9058C108.637 65.7281 108.649 63.7887 107.419 62.6107L106.165 63.9205ZM83.2935 27.3302L84.5757 26.0479C83.3955 24.8677 81.4819 24.8677 80.3017 26.0479L81.5839 27.3302L82.8661 28.6124C82.6301 28.8484 82.2473 28.8484 82.0113 28.6124L83.2935 27.3302ZM85.4306 29.4672L86.7128 28.185L84.5757 26.0479L83.2935 27.3302L82.0113 28.6124L84.1483 30.7494L85.4306 29.4672ZM85.4306 31.1768L86.7128 32.459C87.893 31.2788 87.893 29.3652 86.7128 28.185L85.4306 29.4672L84.1483 30.7494C83.9123 30.5134 83.9123 30.1307 84.1483 29.8946L85.4306 31.1768ZM83.7209 32.8864L85.0031 34.1687L86.7128 32.459L85.4306 31.1768L84.1483 29.8946L82.4387 31.6042L83.7209 32.8864ZM79.8743 29.0398L78.592 30.322L82.4387 34.1687L83.7209 32.8864L85.0031 31.6042L81.1565 27.7576L79.8743 29.0398ZM81.5839 27.3302L80.3017 26.0479L78.592 27.7576L79.8743 29.0398L81.1565 30.322L82.8661 28.6124L81.5839 27.3302ZM84.3519 44.4264H82.5386C82.5386 52.2713 76.179 58.6309 68.3341 58.6309V60.4442V62.2575C78.182 62.2575 86.1653 54.2743 86.1653 44.4264H84.3519ZM68.3341 28.4087V30.222C76.179 30.222 82.5386 36.5815 82.5386 44.4264H84.3519H86.1653C86.1653 34.5786 78.182 26.5953 68.3341 26.5953V28.4087ZM52.3164 44.4264H54.1297C54.1297 36.5815 60.4893 30.222 68.3341 30.222V28.4087V26.5953C58.4863 26.5953 50.503 34.5786 50.503 44.4264H52.3164ZM52.3171 44.5783L54.1303 44.5614C54.1299 44.5165 54.1297 44.4715 54.1297 44.4264H52.3164H50.503C50.503 44.4827 50.5033 44.5389 50.5038 44.5951L52.3171 44.5783ZM52.3164 44.7287H54.1297C54.1297 44.6841 54.1299 44.6397 54.1303 44.5953L52.3171 44.5783L50.5038 44.5613C50.5033 44.617 50.503 44.6728 50.503 44.7287H52.3164ZM68.0319 60.4442V58.6309C60.3539 58.6309 54.1297 52.4066 54.1297 44.7287H52.3164H50.503C50.503 54.4096 58.351 62.2575 68.0319 62.2575V60.4442ZM68.1823 60.4435L68.1653 58.6302C68.1209 58.6307 68.0764 58.6309 68.0319 58.6309V60.4442V62.2575C68.0878 62.2575 68.1436 62.2573 68.1993 62.2568L68.1823 60.4435ZM68.3341 60.4442V58.6309C68.2891 58.6309 68.2441 58.6307 68.1992 58.6302L68.1823 60.4435L68.1655 62.2568C68.2216 62.2573 68.2778 62.2575 68.3341 62.2575V60.4442Z" fill="white" mask="url(#path-7-outside-1_1001_45093)"/>
</g>
</g>
<defs>
<clipPath id="clip0_1001_45093">
<rect width="136" height="136" fill="white"/>
</clipPath>
<clipPath id="clip1_1001_45093">
<rect width="226.667" height="136" fill="white" transform="translate(-45)"/>
</clipPath>
</defs>
</svg>
