<svg width="64" height="64" viewBox="0 0 64 64" fill="none" xmlns="http://www.w3.org/2000/svg">
<path fill-rule="evenodd" clip-rule="evenodd" d="M47 6L44 8L41 6L38 8L35 6L32 8L29 6L26 8L23 6L20 8L17 6L14 8L11 6V55C11 57.2091 12.7909 59 15 59H49C51.2091 59 53 57.2091 53 55V6L50 8L47 6Z" fill="#BC9564"/>
<path d="M11 50H53V55C53 57.2091 51.2091 59 49 59H15C12.7909 59 11 57.2091 11 55V50Z" fill="#DB0007"/>
<path d="M53 21.8578C49.158 21.8578 46.0417 37.2089 46.0417 56.1422H40.4769C40.4769 37.2089 37.3651 21.8578 33.5186 21.8578C29.6811 21.8578 26.5648 38.4844 26.5648 59H21C21 36.9067 26.6049 19 33.5186 19C37.4541 19 40.9666 24.3822 43.2593 32.8C45.5565 24.3822 49.0646 19 53 19V21.8578Z" fill="#FFBC0D"/>
</svg>
