<svg width="27" height="18" viewBox="0 0 27 18" fill="none" xmlns="http://www.w3.org/2000/svg">
<g clip-path="url(#clip0_109_43849)">
<path d="M0 0H27V18H0V0Z" fill="#338AF3"/>
<path d="M13.4992 2L14.0318 3.64547H15.7668L14.3641 4.66334L14.902 6.30882L13.4992 5.29094L12.0965 6.30882L12.6344 4.66334L11.2316 3.64547H12.9666L13.4992 2ZM6.49609 9.0038L8.14141 8.46586V6.736L9.15918 8.13888L10.8045 7.60093L9.78672 9.0038L10.8045 10.4014L9.15918 9.86873L8.14141 11.2663V9.53647L6.49609 9.0038ZM13.4992 16.0076L12.9666 14.3621H11.2316L12.6344 13.3443L12.0965 11.6935L13.4992 12.7114L14.902 11.6935L14.3641 13.3443L15.7668 14.3621H14.0318L13.4992 16.0076ZM20.5023 9.0038L18.857 9.53647V11.2663L17.8393 9.86873L16.194 10.4014L17.2117 9.0038L16.194 7.60093L17.8393 8.13888L18.857 6.736V8.46586L20.5023 9.0038Z" fill="white"/>
</g>
<rect x="0.5" y="0.5" width="26" height="17" rx="0.5" stroke="black" stroke-opacity="0.2"/>
<defs>
<clipPath id="clip0_109_43849">
<rect width="27" height="18" rx="1" fill="white"/>
</clipPath>
</defs>
</svg>
