<svg width="375" height="225" viewBox="0 0 375 225" fill="none" xmlns="http://www.w3.org/2000/svg">
<path d="M237.5 181.5C237.5 183.985 215.114 186 187.5 186C159.886 186 137.5 183.985 137.5 181.5C137.5 179.015 159.886 177 187.5 177C215.114 177 237.5 179.015 237.5 181.5Z" fill="#A0A09F" fill-opacity="0.15"/>
<path d="M277.479 107L280.079 69.0996H322.179V81.9996H293.479L292.579 94.4996C294.179 93.2996 295.946 92.3663 297.879 91.6996C299.879 90.9663 302.079 90.5996 304.479 90.5996C308.879 90.5996 312.712 91.5329 315.979 93.3996C319.246 95.1996 321.779 97.7329 323.579 101C325.379 104.266 326.279 108.066 326.279 112.4C326.279 117.266 325.179 121.5 322.979 125.1C320.779 128.633 317.679 131.366 313.679 133.3C309.679 135.166 304.979 136.1 299.579 136.1C292.512 136.1 286.779 134.4 282.379 131C278.046 127.533 275.546 122.8 274.879 116.8H291.579C292.046 119.266 292.912 121.1 294.179 122.3C295.512 123.5 297.412 124.1 299.879 124.1C302.479 124.1 304.512 123.166 305.979 121.3C307.446 119.366 308.179 116.633 308.179 113.1C308.179 109.233 307.379 106.366 305.779 104.5C304.179 102.566 302.179 101.6 299.779 101.6C295.912 101.6 293.012 103.4 291.079 107H277.479Z" fill="#F1F1F1"/>
<path d="M213.949 121.999V110.599L244.749 69.1992H259.449V109.499H267.249V121.999H259.449V134.499H243.449V121.999H213.949ZM228.749 109.499H243.449V89.4992L228.749 109.499Z" fill="#F1F1F1"/>
<path d="M180.82 136.1C172.22 136.1 165.72 134.067 161.32 130C156.92 125.867 154.42 120.433 153.82 113.7H170.22C170.487 117.433 171.487 120.133 173.22 121.8C175.02 123.467 177.32 124.3 180.12 124.3C182.92 124.3 185.087 123.533 186.62 122C188.22 120.4 189.02 118.067 189.02 115C189.02 112.133 188.054 109.767 186.12 107.9C184.254 106.033 180.654 105.1 175.32 105.1H173.02V94.6H175.22C179.42 94.6 182.354 93.9 184.02 92.5C185.754 91.1 186.62 89.2333 186.62 86.9C186.62 84.6333 185.987 82.8 184.72 81.4C183.52 80 181.787 79.3 179.52 79.3C175.12 79.3 172.62 81.6333 172.02 86.3H155.72C156.454 80.5 158.854 75.9333 162.92 72.6C167.054 69.2 172.754 67.5 180.02 67.5C184.82 67.5 189.02 68.2333 192.62 69.7C196.22 71.1667 199.02 73.2667 201.02 76C203.087 78.6667 204.12 81.9333 204.12 85.8C204.12 88.6 203.454 91.2667 202.12 93.8C200.787 96.3333 198.387 98.4 194.92 100C197.987 101.2 200.354 102.667 202.02 104.4C203.754 106.133 204.92 108 205.52 110C206.187 112 206.52 113.967 206.52 115.9C206.52 120.167 205.454 123.8 203.32 126.8C201.187 129.8 198.187 132.1 194.32 133.7C190.52 135.3 186.02 136.1 180.82 136.1Z" fill="#F1F1F1"/>
<path d="M96.8523 134.5V132.3C96.8523 126.7 98.0857 121.867 100.552 117.8C103.086 113.667 107.086 109.633 112.552 105.7L120.652 99.9C123.519 97.8333 125.552 95.9333 126.752 94.2C127.952 92.4 128.552 90.3333 128.552 88C128.552 85.2667 127.952 83.1667 126.752 81.7C125.552 80.2333 123.819 79.5 121.552 79.5C119.019 79.5 117.086 80.5 115.752 82.5C114.419 84.4333 113.586 87.4667 113.252 91.6H96.6523C97.0523 84 99.5857 78.1 104.252 73.9C108.919 69.6333 115.052 67.5 122.652 67.5C127.386 67.5 131.519 68.3333 135.052 70C138.586 71.6 141.319 73.9 143.252 76.9C145.252 79.8333 146.252 83.3 146.252 87.3C146.252 91.4333 145.252 95.1333 143.252 98.4C141.319 101.667 138.186 104.833 133.852 107.9L124.652 114.4C122.519 115.933 120.852 117.233 119.652 118.3C118.519 119.367 117.786 120.467 117.452 121.6H146.552V134.5H96.8523Z" fill="#F1F1F1"/>
<path d="M49.3867 91.9996V78.1996C53.0534 77.5329 56.5534 76.4996 59.8867 75.0996C63.2867 73.6996 66.3534 71.6996 69.0867 69.0996H82.1867V134.5H64.7867V88.0996C62.2534 89.0329 59.6867 89.8329 57.0867 90.4996C54.4867 91.1663 51.9201 91.6663 49.3867 91.9996Z" fill="#F1F1F1"/>
<path d="M198.808 41C201.017 41.0001 202.808 42.7909 202.808 45V51.4951C202.808 53.7042 201.017 55.4951 198.808 55.4951H197.963V57.1465C197.963 59.3556 196.172 61.1465 193.963 61.1465H181.816C179.607 61.1465 177.816 59.3556 177.816 57.1465V55.4951H176.973C174.764 55.4951 172.973 53.7043 172.973 51.4951V45C172.973 42.7909 174.764 41 176.973 41H198.808Z" fill="#DB0007" stroke="white" stroke-width="4"/>
<path d="M221.432 52.3164C223.018 50.7795 225.551 50.8196 227.088 52.4062L242.279 68.0908C243.816 69.6777 243.775 72.2102 242.188 73.7471L237.523 78.2656C235.937 79.8025 233.404 79.7624 231.867 78.1758L231.278 77.5684L230.093 78.7178C228.506 80.2544 225.974 80.2136 224.438 78.627L215.986 69.9023C214.449 68.3156 214.489 65.7831 216.076 64.2461L217.262 63.0967L216.676 62.4912C215.139 60.9044 215.18 58.3719 216.767 56.835L221.432 52.3164Z" fill="#DB0007" stroke="white" stroke-width="4"/>
<path d="M239.89 109.054C239.89 138.847 215.738 162.999 185.945 162.999C156.152 162.999 132 138.847 132 109.054C132 79.2614 156.152 55.1094 185.945 55.1094C215.738 55.1094 239.89 79.2614 239.89 109.054Z" fill="white"/>
<path fill-rule="evenodd" clip-rule="evenodd" d="M244.89 109.054C244.89 141.609 218.499 167.999 185.945 167.999C153.391 167.999 127 141.609 127 109.054C127 76.4999 153.391 50.1094 185.945 50.1094C218.499 50.1094 244.89 76.4999 244.89 109.054ZM185.945 162.999C215.738 162.999 239.89 138.847 239.89 109.054C239.89 79.2614 215.738 55.1094 185.945 55.1094C156.152 55.1094 132 79.2614 132 109.054C132 138.847 156.152 162.999 185.945 162.999Z" fill="white"/>
<path d="M238.754 108.799C238.754 138.004 215.078 161.679 185.873 161.679C156.668 161.679 132.992 138.004 132.992 108.799C132.992 79.5935 156.668 55.918 185.873 55.918C215.078 55.918 238.754 79.5935 238.754 108.799Z" fill="white"/>
<path fill-rule="evenodd" clip-rule="evenodd" d="M185.873 151.679C209.555 151.679 228.754 132.481 228.754 108.799C228.754 85.1163 209.555 65.918 185.873 65.918C162.191 65.918 142.992 85.1163 142.992 108.799C142.992 132.481 162.191 151.679 185.873 151.679ZM185.873 161.679C215.078 161.679 238.754 138.004 238.754 108.799C238.754 79.5935 215.078 55.918 185.873 55.918C156.668 55.918 132.992 79.5935 132.992 108.799C132.992 138.004 156.668 161.679 185.873 161.679Z" fill="#DB0007"/>
<path d="M179.816 50.6513C179.816 49.5467 180.712 48.6513 181.816 48.6513H193.963C195.067 48.6513 195.963 49.5467 195.963 50.6513V57.1467C195.963 58.2513 195.067 59.1467 193.963 59.1467H181.816C180.712 59.1467 179.816 58.2513 179.816 57.1467V50.6513Z" fill="#DB0007"/>
<path d="M174.973 45C174.973 43.8954 175.868 43 176.973 43H198.808C199.912 43 200.808 43.8954 200.808 45V51.4954C200.808 52.6 199.912 53.4954 198.808 53.4954H176.973C175.868 53.4954 174.973 52.6 174.973 51.4954V45Z" fill="#DB0007"/>
<path d="M222.134 61.1636C222.927 60.3951 224.193 60.4153 224.962 61.2087L233.413 69.9338C234.181 70.7272 234.161 71.9934 233.367 72.7618L228.702 77.2809C227.908 78.0494 226.642 78.0292 225.874 77.2358L217.423 68.5108C216.654 67.7174 216.674 66.4512 217.468 65.6827L222.134 61.1636Z" fill="#DB0007"/>
<path d="M222.823 53.7529C223.617 52.9844 224.883 53.0046 225.651 53.798L240.843 69.4819C241.611 70.2753 241.591 71.5415 240.797 72.31L236.132 76.8291C235.338 77.5976 234.072 77.5774 233.304 76.784L218.113 61.1C217.344 60.3066 217.364 59.0404 218.158 58.2719L222.823 53.7529Z" fill="#DB0007"/>
<path d="M190.873 115.702C186.997 117.939 182.047 116.623 179.818 112.762C177.588 108.9 178.923 103.956 182.799 101.718C186.675 99.4802 221.525 85.6988 222.817 87.9361C224.109 90.1735 194.749 113.464 190.873 115.702Z" fill="#DB0007"/>
</svg>
