<svg width="27" height="18" viewBox="0 0 27 18" fill="none" xmlns="http://www.w3.org/2000/svg">
<g clip-path="url(#clip0_109_43784)">
<path d="M0 0H27V18H0V0Z" fill="white"/>
<path d="M22.6794 11.8806C22.3494 12.0906 22.6794 12.4206 22.4994 12.4506C22.3194 12.4806 22.0494 12.0306 22.4394 11.7006C22.9194 11.2506 24.1794 11.7006 24.2094 12.9906C24.2094 13.6506 23.9394 15.0306 22.0494 15.0306C19.7694 15.0306 18.6294 13.3206 18.6294 11.6106C18.6294 10.1706 19.7394 7.56062 20.5794 7.23062C21.5094 6.87062 22.5894 6.18062 22.6194 5.73062C22.6194 5.58062 22.1994 5.70062 21.6294 6.00062C20.6994 6.51062 19.6494 6.75062 19.6494 6.42062C19.6494 6.09062 20.5194 5.49062 20.8494 5.04062C21.2094 4.56062 21.1194 3.39062 21.7494 3.39062C24.0294 3.39062 24.7194 5.70062 23.8494 6.90062C23.2794 7.68062 25.1394 7.20062 25.1394 7.20062C25.1394 7.20062 25.1394 8.79062 24.1794 9.39062C23.2794 9.93062 22.7394 10.5606 22.7394 10.5606C22.7394 10.5606 22.7994 9.18062 22.5894 9.39062C22.4094 9.60062 19.2594 10.7406 19.4994 12.9906C19.5894 13.8906 20.8494 14.6106 22.0494 14.5506C23.2494 14.4906 23.7594 13.8306 23.7894 13.0806C23.8194 11.9106 22.8894 11.7606 22.6794 11.8806ZM3.20938 13.0806C3.23938 13.8306 3.74938 14.4906 4.94938 14.5506C6.14937 14.6106 7.40938 13.8906 7.49938 12.9906C7.73938 10.7406 4.58938 9.60062 4.40937 9.39062C4.19938 9.18062 4.25938 10.5606 4.25938 10.5606C4.25938 10.5606 3.71938 9.93062 2.81937 9.39062C1.85937 8.79062 1.85938 7.20062 1.85938 7.20062C1.85938 7.20062 3.71938 7.68062 3.14938 6.90062C2.27938 5.70062 2.96938 3.39062 5.24938 3.39062C5.87938 3.39062 5.78938 4.56062 6.14937 5.04062C6.47938 5.49062 7.34937 6.09062 7.34937 6.42062C7.34937 6.75062 6.29938 6.51062 5.36938 6.00062C4.79938 5.70062 4.37938 5.58062 4.37938 5.73062C4.40938 6.18062 5.48938 6.87062 6.41938 7.23062C7.25938 7.56062 8.36938 10.1706 8.36938 11.6106C8.36938 13.3206 7.22938 15.0306 4.94938 15.0306C3.05937 15.0306 2.78938 13.6506 2.78938 12.9906C2.81938 11.7006 4.07938 11.2506 4.55938 11.7006C4.91938 12.0306 4.67938 12.5106 4.49938 12.4506C4.31938 12.4206 4.67938 12.0906 4.31938 11.8806C4.13937 11.7606 3.20938 11.9106 3.20938 13.0806Z" fill="#ABABAB"/>
<path fill-rule="evenodd" clip-rule="evenodd" d="M3.02282 4.69724C2.67497 5.42287 2.72008 6.29775 3.15347 6.89553C3.22498 6.99339 3.25913 7.07244 3.26293 7.13583C3.26677 7.19988 3.2396 7.24723 3.19077 7.28075C3.14237 7.31398 3.07282 7.33361 2.99127 7.34362C2.90958 7.35364 2.81517 7.3541 2.71652 7.34846C2.5192 7.33718 2.30417 7.30149 2.13858 7.26866C2.05576 7.25223 1.98526 7.23651 1.93546 7.2249C1.91055 7.21909 1.89082 7.21431 1.87732 7.21098C1.87225 7.20973 1.86806 7.20868 1.8648 7.20786C1.86483 7.21043 1.86488 7.21357 1.86495 7.21726C1.86519 7.22901 1.86565 7.24633 1.86659 7.26861C1.86846 7.31315 1.8722 7.37749 1.87969 7.45658C1.89467 7.61478 1.92462 7.83193 1.98452 8.06777C2.10438 8.53971 2.34378 9.08513 2.82157 9.38378C3.27201 9.65404 3.63234 9.94681 3.88007 10.172C4.00394 10.2846 4.09967 10.3804 4.16445 10.448C4.19684 10.4818 4.2215 10.5085 4.23806 10.5269C4.24305 10.5324 4.24731 10.5371 4.25083 10.5411C4.25045 10.5312 4.24995 10.5176 4.2494 10.5007C4.24817 10.4634 4.24664 10.4103 4.24547 10.3472C4.24313 10.221 4.24219 10.0549 4.24782 9.89541C4.25344 9.73602 4.26564 9.58262 4.28971 9.48208C4.29574 9.4569 4.30255 9.43487 4.31027 9.4168C4.31795 9.39881 4.32671 9.38431 4.33686 9.37461C4.34717 9.36476 4.35919 9.35966 4.37269 9.3614C4.38583 9.36309 4.39918 9.37112 4.41279 9.38474L4.41315 9.3851C4.42366 9.39735 4.44566 9.41365 4.47861 9.43412C4.51134 9.45444 4.55415 9.47848 4.60557 9.5063C4.65105 9.53091 4.70319 9.55843 4.76093 9.58891C4.76846 9.59288 4.77607 9.5969 4.78378 9.60097C4.85067 9.63629 4.92452 9.67538 5.00377 9.71829C5.32077 9.88992 5.72423 10.1226 6.11462 10.4192C6.89512 11.012 7.62506 11.8615 7.50468 12.9901M1.85814 7.19939L1.85979 7.19302L1.85156 7.1909L1.85156 7.19939H1.85814ZM5.36502 6.00518C5.83046 6.26042 6.32603 6.44816 6.70549 6.53082C6.89512 6.57212 7.05634 6.58732 7.17047 6.57122C7.22752 6.56317 7.27347 6.54721 7.30528 6.52218C7.33738 6.49692 7.35472 6.46267 7.35472 6.41939C7.35472 6.37675 7.34069 6.33024 7.316 6.28086C7.29129 6.23145 7.25573 6.17879 7.21221 6.12375C7.12518 6.01367 7.00583 5.89341 6.87644 5.76964C6.82195 5.71752 6.76569 5.66478 6.70928 5.61191C6.49738 5.41328 6.2834 5.21271 6.15345 5.0355L6.15341 5.03544C6.06415 4.91644 6.00254 4.75427 5.95055 4.57722C5.92457 4.48876 5.90104 4.39677 5.87766 4.30476L5.87447 4.29219C5.85217 4.20442 5.82991 4.1168 5.80572 4.03257C5.75506 3.85623 5.69575 3.69401 5.60923 3.57582C5.52247 3.45729 5.40814 3.38281 5.24814 3.38281C4.10558 3.38281 3.36079 3.96179 3.01096 4.69155C2.66132 5.42091 2.70621 6.30103 3.14282 6.90325C3.21379 7.00038 3.24622 7.07697 3.2498 7.13662C3.25334 7.19562 3.22872 7.23874 3.18332 7.2699C3.1375 7.30136 3.07042 7.32064 2.98966 7.33056C2.90905 7.34045 2.81549 7.34093 2.71727 7.33532C2.52083 7.3241 2.30649 7.28854 2.14114 7.25575C2.05849 7.23936 1.98813 7.22367 1.93844 7.21209C1.9136 7.20629 1.89393 7.20152 1.88047 7.1982C1.87374 7.19654 1.86856 7.19525 1.86507 7.19437L1.86112 7.19336L1.86012 7.19311L1.85987 7.19304L1.85979 7.19302C1.85977 7.19302 1.85979 7.19302 1.85814 7.19939M6.14286 5.04331C6.05212 4.92232 5.98999 4.75824 5.93792 4.58093C5.91187 4.49221 5.88829 4.39998 5.86491 4.308L5.86173 4.29548C5.83942 4.20766 5.8172 4.12022 5.79307 4.03621C5.74247 3.86006 5.68366 3.69978 5.59861 3.58359C5.51381 3.46774 5.40314 3.39597 5.24814 3.39597C4.1107 3.39597 3.37049 3.97199 3.02282 4.69724M20.8534 5.04328C20.9442 4.92229 21.0063 4.75823 21.0584 4.58093L20.8534 5.04328ZM21.6313 6.00518C21.1658 6.26042 20.6703 6.44816 20.2908 6.53082C20.1012 6.57212 19.9399 6.58732 19.8258 6.57122C19.7688 6.56317 19.7228 6.54721 19.691 6.52218C19.6589 6.49692 19.6416 6.46267 19.6416 6.41939C19.6416 6.37675 19.6556 6.33024 19.6803 6.28086C19.705 6.23145 19.7406 6.17879 19.7841 6.12375C19.8711 6.01367 19.9904 5.89341 20.1198 5.76964C20.1743 5.71752 20.2306 5.66478 20.287 5.61191C20.4989 5.41328 20.7129 5.21271 20.8428 5.0355L20.8429 5.03544C20.9321 4.91644 20.9937 4.75427 21.0457 4.57722C21.0717 4.48876 21.0952 4.39677 21.1186 4.30476L21.1218 4.29222C21.1441 4.20444 21.1664 4.1168 21.1906 4.03257C21.2412 3.85623 21.3005 3.69401 21.3871 3.57582C21.4738 3.45729 21.5881 3.38281 21.7481 3.38281C22.8907 3.38281 23.6355 3.96179 23.9853 4.69155C24.335 5.42091 24.2901 6.30103 23.8535 6.90325C23.7825 7.00038 23.7501 7.07697 23.7465 7.13662C23.7429 7.19562 23.7676 7.23874 23.813 7.2699C23.8588 7.30136 23.9259 7.32064 24.0066 7.33056C24.0872 7.34045 24.1808 7.34093 24.279 7.33532C24.4755 7.3241 24.6898 7.28854 24.8551 7.25575C24.9378 7.23936 25.0082 7.22367 25.0578 7.21209C25.0827 7.20629 25.1024 7.20152 25.1158 7.1982C25.1225 7.19654 25.1277 7.19525 25.1312 7.19437L25.1352 7.19336L25.1365 7.19303C25.1365 7.19302 25.1365 7.19302 25.1381 7.19939C25.1447 7.19939 25.1447 7.1994 25.1447 7.19941V7.19947L25.1447 7.1997L25.1447 7.20058L25.1447 7.20403C25.1447 7.20708 25.1446 7.21161 25.1445 7.21752C25.1443 7.22936 25.1438 7.24678 25.1428 7.26916C25.141 7.31391 25.1372 7.37848 25.1297 7.45782C25.1147 7.6165 25.0846 7.83435 25.0245 8.07101C24.9044 8.54405 24.6638 9.09361 24.1816 9.39497L24.1815 9.39503C23.732 9.66476 23.3723 9.95697 23.1251 10.1818C23.0014 10.2941 22.9059 10.3897 22.8413 10.4571C22.809 10.4908 22.7845 10.5174 22.768 10.5357C22.7597 10.5448 22.7535 10.5518 22.7494 10.5565C22.7473 10.5589 22.7457 10.5607 22.7447 10.5619L22.7435 10.5632L22.7432 10.5636L22.7432 10.5636C22.7432 10.5637 22.7431 10.5637 22.7381 10.5594C22.7316 10.5591 22.7316 10.5591 22.7316 10.5591L22.7316 10.5581L22.7317 10.5552C22.7318 10.5526 22.732 10.5487 22.7322 10.5437C22.7326 10.5336 22.7331 10.5189 22.7337 10.5003C22.735 10.463 22.7365 10.4099 22.7377 10.3469C22.74 10.2209 22.7409 10.0551 22.7353 9.89587C22.7297 9.73651 22.7175 9.58428 22.6938 9.48514C22.6879 9.46039 22.6812 9.43913 22.6739 9.42197C22.6666 9.40473 22.6586 9.39207 22.6503 9.38413C22.6422 9.37634 22.634 9.37333 22.6253 9.37445C22.6163 9.37561 22.6055 9.38136 22.593 9.39387C22.5809 9.40782 22.5573 9.42499 22.5246 9.4453C22.4915 9.46584 22.4484 9.49003 22.397 9.51787C22.3514 9.54253 22.2992 9.5701 22.2414 9.60059L22.2186 9.61261C22.1518 9.64792 22.078 9.68699 21.9988 9.72986C21.682 9.90136 21.2792 10.1337 20.8896 10.4296C20.1101 11.0217 19.3851 11.8673 19.5047 12.9887C19.5494 13.4358 19.8849 13.8393 20.3603 14.1237C20.8354 14.4081 21.4492 14.5728 22.0478 14.5428C22.6467 14.5129 23.0725 14.3333 23.3524 14.0684C23.6322 13.8035 23.7666 13.4527 23.7816 13.0792C23.7965 12.4962 23.5724 12.1685 23.3195 12.0011C23.1929 11.9173 23.0589 11.8736 22.9435 11.8583C22.828 11.8429 22.7322 11.8561 22.6815 11.885M22.7381 10.5594L22.7316 10.5591L22.7307 10.5781L22.7432 10.5636L22.7381 10.5594ZM22.7455 10.5411C22.7457 10.5408 22.7459 10.5405 22.7462 10.5403C22.7496 10.5365 22.7536 10.532 22.7582 10.5269C22.7748 10.5085 22.7994 10.4818 22.8318 10.448C22.8966 10.3804 22.9923 10.2846 23.1162 10.172C23.364 9.94681 23.7243 9.65403 24.1747 9.38376C24.6525 9.08511 24.8919 8.5397 25.0118 8.06777C25.0717 7.83193 25.1016 7.61478 25.1166 7.45658C25.1241 7.37749 25.1278 7.31315 25.1297 7.26861C25.1306 7.24633 25.1311 7.22901 25.1313 7.21726C25.1314 7.21357 25.1315 7.21043 25.1315 7.20786L25.1298 7.20829C25.1268 7.20903 25.1232 7.20993 25.119 7.21098C25.1055 7.21431 25.0857 7.21909 25.0608 7.2249C25.011 7.23651 24.9405 7.25223 24.8577 7.26866C24.6921 7.30149 24.4771 7.33718 24.2798 7.34846C24.1811 7.3541 24.0867 7.35364 24.005 7.34362C23.9235 7.33361 23.8539 7.31398 23.8055 7.28075C23.7567 7.24723 23.7295 7.19988 23.7334 7.13583C23.7372 7.07244 23.7713 6.99338 23.8428 6.89551C24.2762 6.29773 24.3213 5.42286 23.9735 4.69724C23.6258 3.97199 22.8856 3.39597 21.7481 3.39597C21.5931 3.39597 21.4825 3.46774 21.3977 3.58359C21.3126 3.69978 21.2538 3.86006 21.2032 4.03621C21.1791 4.1202 21.1569 4.20762 21.1346 4.29542L21.1314 4.308C21.108 4.39998 21.0844 4.49221 21.0584 4.58093M22.7455 10.5411C22.7456 10.5362 22.7459 10.5304 22.7461 10.5238C22.7463 10.517 22.7466 10.5093 22.7469 10.5007C22.7481 10.4634 22.7496 10.4103 22.7508 10.3472C22.7532 10.221 22.7541 10.0549 22.7485 9.89541C22.7428 9.73602 22.7306 9.58262 22.7066 9.48208C22.7005 9.4569 22.6937 9.43487 22.686 9.4168C22.6783 9.39881 22.6696 9.38431 22.6594 9.37461C22.6491 9.36476 22.6371 9.35966 22.6236 9.3614C22.6105 9.36309 22.5971 9.37112 22.5835 9.38474L22.5831 9.38511C22.5726 9.39737 22.5506 9.41365 22.5177 9.43412C22.4849 9.45444 22.4421 9.47848 22.3907 9.5063C22.3452 9.53092 22.293 9.55846 22.2352 9.58896L22.2125 9.60097C22.1456 9.63629 22.0718 9.67538 21.9925 9.71829C21.6755 9.88992 21.2721 10.1226 20.8817 10.4192C20.1012 11.012 19.3712 11.8615 19.4916 12.9901C19.5369 13.443 19.8763 13.8495 20.3535 14.135C20.8309 14.4207 21.4471 14.586 22.0485 14.556C22.6496 14.5259 23.0788 14.3455 23.3614 14.0779C23.6441 13.8103 23.7797 13.4561 23.7947 13.0797L23.7947 13.0796C23.8098 12.4926 23.5839 12.1603 23.3268 11.9902C23.1984 11.9052 23.0624 11.8608 22.9453 11.8452C22.8284 11.8297 22.7292 11.8426 22.6749 11.8737M25.1381 7.19939L25.1447 7.19941V7.1909L25.1365 7.19303L25.1381 7.19939Z" fill="#7F7F7F"/>
<path d="M9.30078 8.63937V12.8394C9.30078 13.4094 9.93078 13.3194 9.93078 13.3194H12.7208C13.0808 13.3194 13.5008 14.0094 13.5008 14.0094C13.5008 14.0094 13.9208 13.3194 14.2508 13.3194H17.1308C17.1308 13.3194 17.7308 13.3794 17.7308 12.7794V8.60938H9.30078V8.63937Z" fill="#DE393A"/>
<path d="M9.30078 3.92969H17.7008V8.63969H9.30078V3.92969Z" fill="#3951A3"/>
<path d="M15.0305 4.94922C14.9105 5.66922 14.2805 6.20922 13.5005 6.20922C12.7505 6.20922 12.1205 5.66922 11.9705 4.94922C11.8205 5.21922 11.7305 5.51922 11.7305 5.84922C11.7305 6.83922 12.5105 7.61922 13.5005 7.61922C14.4905 7.61922 15.2705 6.83922 15.2705 5.84922C15.2705 5.51922 15.1805 5.21922 15.0305 4.94922Z" fill="white"/>
<path d="M11.7281 11.8508C12.2252 11.8508 12.6281 11.4478 12.6281 10.9508C12.6281 10.4537 12.2252 10.0508 11.7281 10.0508C11.2311 10.0508 10.8281 10.4537 10.8281 10.9508C10.8281 11.4478 11.2311 11.8508 11.7281 11.8508Z" fill="#FEE05F"/>
<path d="M15.2711 11.8508C15.7681 11.8508 16.1711 11.4478 16.1711 10.9508C16.1711 10.4537 15.7681 10.0508 15.2711 10.0508C14.774 10.0508 14.3711 10.4537 14.3711 10.9508C14.3711 11.4478 14.774 11.8508 15.2711 11.8508Z" fill="#FEE05F"/>
</g>
<rect x="0.5" y="0.5" width="26" height="17" rx="0.5" stroke="black" stroke-opacity="0.2"/>
<defs>
<clipPath id="clip0_109_43784">
<rect width="27" height="18" rx="1" fill="white"/>
</clipPath>
</defs>
</svg>
