<svg width="72" height="72" viewBox="0 0 72 72" fill="none" xmlns="http://www.w3.org/2000/svg">
<path d="M68.4023 14.25C68.4023 20.049 63.7013 24.75 57.9023 24.75C52.1034 24.75 47.4023 20.049 47.4023 14.25C47.4023 8.45101 52.1034 3.75 57.9023 3.75C63.7013 3.75 68.4023 8.45101 68.4023 14.25Z" fill="#DB0007"/>
<path fill-rule="evenodd" clip-rule="evenodd" d="M69.0008 14.2504C69.0008 20.3808 64.0311 25.3504 57.9008 25.3504C51.7704 25.3504 46.8008 20.3808 46.8008 14.2504C46.8008 8.12003 51.7704 3.15039 57.9008 3.15039C64.0311 3.15039 69.0008 8.12003 69.0008 14.2504ZM57.9008 24.7504C63.6998 24.7504 68.4008 20.0494 68.4008 14.2504C68.4008 8.4514 63.6998 3.75039 57.9008 3.75039C52.1018 3.75039 47.4008 8.4514 47.4008 14.2504C47.4008 20.0494 52.1018 24.7504 57.9008 24.7504Z" fill="white"/>
<path fill-rule="evenodd" clip-rule="evenodd" d="M61.418 18.6075L54.3829 11.5724C53.919 11.1085 53.919 10.3564 54.3829 9.89258L61.418 16.9277C61.8818 17.3915 61.8818 18.1436 61.418 18.6075Z" fill="white"/>
<path fill-rule="evenodd" clip-rule="evenodd" d="M62.2579 10.7324L55.2228 17.7675C54.7589 18.2314 54.0068 18.2314 53.543 17.7675L60.5781 10.7324C61.0419 10.2686 61.794 10.2686 62.2579 10.7324Z" fill="white"/>
<ellipse cx="36.4476" cy="63.0911" rx="32.1194" ry="2.65554" fill="#A0A09F" fill-opacity="0.15"/>
<path fill-rule="evenodd" clip-rule="evenodd" d="M23.8013 14.4082L23.8012 37.6758H6.09766V14.4082H23.8013Z" fill="white"/>
<path fill-rule="evenodd" clip-rule="evenodd" d="M31.8951 55.8851C31.8951 60.4944 28.1585 64.2311 23.5491 64.2311C18.9398 64.2311 15.2031 60.4944 15.2031 55.8851C15.2031 51.2757 18.9398 47.5391 23.5491 47.5391C28.1585 47.5391 31.8951 51.2757 31.8951 55.8851Z" fill="white"/>
<path fill-rule="evenodd" clip-rule="evenodd" d="M61.7389 55.8851C61.7389 60.4944 58.0022 64.2311 53.3929 64.2311C48.7835 64.2311 45.0469 60.4944 45.0469 55.8851C45.0469 51.2757 48.7835 47.5391 53.3929 47.5391C58.0022 47.5391 61.7389 51.2757 61.7389 55.8851Z" fill="white"/>
<path fill-rule="evenodd" clip-rule="evenodd" d="M33.1698 9.85755C33.0198 7.7147 34.6315 5.80859 36.7738 5.80859H41.1978L40.7835 11.7277C40.7693 13.8349 39.1378 15.6088 37.042 15.6088C34.9465 15.6088 33.3152 13.8349 33.3009 11.7278L33.1698 9.85755Z" fill="white"/>
<path fill-rule="evenodd" clip-rule="evenodd" d="M32.2788 46.2164C32.1895 47.8347 32.5891 48.7334 33.1373 49.3511C33.6704 49.9518 34.3809 50.3441 35.241 50.8191C35.3346 50.8708 35.43 50.9235 35.5272 50.9775C36.9529 47.7991 37.5877 45.4719 37.5712 43.7732C37.5608 42.692 37.2861 41.9056 36.815 41.3072C36.4181 40.803 35.8435 40.3835 35.056 40.0437C34.5388 40.7524 33.9393 41.6936 33.4276 42.6985C32.792 43.9464 32.3344 45.2103 32.2788 46.2164ZM33.4037 55.2784H12.6045L12.6001 54.524C12.565 48.4418 15.3788 44.0157 19.3384 41.1238H5.63995L5.45308 41.0043C4.79803 40.5856 4.31382 40.0948 4.00091 39.4957C3.6897 38.8998 3.57872 38.2557 3.57477 37.5801L3.57031 36.8169H23.0762C22.6909 26.8093 25.7218 19.358 30.7207 15.8437C32.2281 14.7837 33.8915 14.6454 35.4706 15.351C37.0038 16.0361 38.3935 17.484 39.5404 19.4722C42.5482 24.6862 47.2499 26.7082 50.0549 26.6705L50.8704 26.6595L50.7859 28.0962C51.5462 27.9308 52.3814 27.8375 53.2558 27.8325L54.0144 27.8282L54.0532 34.5884L53.2944 34.5927C52.8045 34.5954 52.327 34.5705 51.868 34.5206C52.9641 36.9043 54.1754 40.1403 54.5073 43.3623C58.9397 44.0631 61.4505 46.7548 62.8352 49.2906C63.555 50.6088 63.9746 51.8888 64.2148 52.8371C64.3352 53.3124 64.4113 53.7077 64.4576 53.987C64.4808 54.1268 64.4966 54.2379 64.5067 54.3157C64.5118 54.3546 64.5155 54.3853 64.5179 54.4072C64.5192 54.4181 64.5202 54.4268 64.5208 54.4332L64.5217 54.4412L64.5219 54.4439L64.522 54.4449L64.5441 54.6671L64.5221 54.4457L64.6047 55.2792H36.5954L36.5957 55.2788H33.4035L33.4037 55.2784ZM40.9652 50.4422C43.6152 48.78 45.5723 46.5167 46.7288 43.7869C48.0102 40.7624 48.3284 37.1175 47.4557 33.0082C47.1687 33.0099 46.8653 33.0116 46.5781 33.0132C46.0125 33.0164 45.5093 33.0193 45.3168 33.0204C44.6438 33.0243 44.1905 32.5189 43.963 32.1578C43.71 31.7561 43.5398 31.2393 43.5369 30.7492L43.5325 29.9904L46.8967 29.9709C44.3887 29.859 42.4155 29.436 40.8042 28.7325C38.9977 27.9437 37.6914 26.8221 36.6123 25.4787C35.5462 27.0701 34.6738 28.4618 33.794 30.3348C37.1769 31.3195 39.7558 32.4716 41.5795 33.8572C43.5784 35.376 44.683 37.1883 44.916 39.336C45.1446 41.4444 44.5212 43.7731 43.2949 46.3299C42.6752 47.622 41.8922 48.9911 40.9652 50.4422Z" fill="white"/>
<path d="M23.0455 18.0898H6.85938V33.0051H23.0455V18.0898Z" fill="#A0A09F"/>
<path d="M23.0455 33.0039H6.85938V36.916H23.0455V33.0039Z" fill="#6F6F6F"/>
<path d="M23.045 20.2778C23.0402 20.2778 23.0145 20.2773 23.0097 20.2773C21.3159 20.2773 19.8044 22.4989 18.8163 25.9735C17.8281 22.4989 16.3162 20.2773 14.6224 20.2773C11.6448 20.2773 9.23047 27.796 9.23047 36.9153H11.6273C11.6273 28.4476 12.9686 21.4567 14.6224 21.4567C16.2766 21.4567 17.6182 27.7936 17.6182 35.6098H20.0138C20.0138 27.7936 21.3555 21.4567 23.0097 21.4567C23.0145 21.4567 23.0402 21.4575 23.045 21.4575V20.2778Z" fill="#F1F1F1"/>
<path d="M23.0455 15.166H6.85938V18.0888H23.0455V15.166Z" fill="#C2945C"/>
<path d="M23.0455 15.166H6.85938V18.0888H23.0455V15.166Z" fill="#CCCCCC"/>
<path d="M16.9142 19.3658H12.9876C12.796 19.3658 12.6406 19.2129 12.6406 19.0244V15.166H17.2611V19.0244C17.2611 19.2129 17.1057 19.3658 16.9142 19.3658Z" fill="#F1F1F1"/>
<path fill-rule="evenodd" clip-rule="evenodd" d="M23.5482 63.4714C27.7385 63.4714 31.1355 60.0745 31.1355 55.8841C31.1355 55.7142 31.1299 55.5455 31.1189 55.3783H15.9775C15.9665 55.5455 15.9609 55.7142 15.9609 55.8841C15.9609 60.0745 19.3579 63.4714 23.5482 63.4714ZM16.0659 54.6196C16.6679 51.0312 19.7887 48.2969 23.5482 48.2969C27.3077 48.2969 30.4285 51.0312 31.0306 54.6196H16.0659Z" fill="#292929"/>
<path fill-rule="evenodd" clip-rule="evenodd" d="M23.5475 59.6771C25.6427 59.6771 27.3412 57.9786 27.3412 55.8835C27.3412 55.712 27.3298 55.5431 27.3077 55.3776H19.7873C19.7653 55.5431 19.7539 55.712 19.7539 55.8835C19.7539 57.9786 21.4524 59.6771 23.5475 59.6771ZM19.9698 54.6189C20.4906 53.1455 21.8958 52.0898 23.5475 52.0898C25.1993 52.0898 26.6045 53.1455 27.1253 54.6189H19.9698Z" fill="white"/>
<circle cx="53.392" cy="55.8841" r="7.58727" fill="#292929"/>
<circle cx="53.3913" cy="55.8835" r="3.79363" fill="white"/>
<path fill-rule="evenodd" clip-rule="evenodd" d="M36.7226 6.56641C35.0629 6.56641 33.7532 8.05593 33.8756 9.80365L34.0084 11.699C34.0084 13.4388 35.3437 14.8491 36.9908 14.8491C38.6384 14.8491 39.9737 13.4388 39.9737 11.699L40.3329 6.56641H36.7226ZM53.3924 47.5376C49.2129 47.5376 45.751 50.6098 45.1416 54.6191H38.0915C38.802 53.6547 39.3748 52.8614 39.9883 51.9636C46.9272 48.4124 50.1834 41.3022 48.0565 32.3446L45.3069 32.3603C44.7723 32.3633 44.2942 31.5073 44.2903 30.8433L47.746 30.8233C48.0007 30.2237 48.693 29.6956 49.6618 29.3146C41.9879 29.5972 38.8726 27.5708 36.5759 24.267C35.0672 26.4927 33.9282 28.2008 32.7326 30.9243C47.8031 35.0276 46.6323 41.8351 37.2116 54.6186H34.6449C39.4924 45.2491 39.3772 41.1618 35.3193 39.4319L35.9803 38.1433C36.2682 37.5823 35.8608 36.9155 35.2303 36.9155H23.8301C23.4424 27.0275 26.4436 19.8728 31.1517 16.5629C33.7327 14.7481 36.6726 16.127 38.8778 19.9499C42.0062 25.3729 46.948 27.5695 50.0597 27.5277L49.9609 29.2079C50.8866 28.8901 52.0221 28.6968 53.2547 28.6898L53.2847 33.9325C52.2868 33.9382 51.3507 33.8215 50.5365 33.6147C51.8026 36.127 53.5355 40.2076 53.7976 44.1315C62.8221 45.1381 63.7617 54.6191 63.7617 54.6191H61.6433C61.0339 50.6098 57.5719 47.5376 53.3924 47.5376ZM23.5492 37.6742H4.32812C4.33509 38.8659 4.71824 39.736 5.85637 40.4636H21.9574C17.0483 43.1205 13.3139 47.7627 13.3535 54.6182H15.5222L18.8652 54.6191L27.3994 54.6182H30.742H33.7697L35.183 51.7559C35.0771 51.6969 34.971 51.6385 34.8651 51.5802C33.0734 50.594 31.3304 49.6347 31.5158 46.2731C31.6089 44.5899 32.6421 42.4641 33.6672 40.8343L33.6656 40.8356L34.7186 38.924C35.0281 38.3622 34.6217 37.6742 33.9802 37.6742H23.5492V37.6742Z" fill="#6F6F6F"/>
</svg>
