<svg width="375" height="225" viewBox="0 0 375 225" fill="none" xmlns="http://www.w3.org/2000/svg">
<path d="M104 39C104 32.9249 108.925 28 115 28L260 28C266.075 28 271 32.9249 271 39V127C271 133.075 266.075 138 260 138H115C108.925 138 104 133.075 104 127V39Z" fill="#FFBC0D"/>
<path d="M104 50L271 50V70H104V50Z" fill="#606060"/>
<path d="M122 91H213V103H122V91Z" fill="#FBE4A7"/>
<path d="M122 115H213V119H122V115Z" fill="#FBE4A7"/>
<path d="M228 99C228 94.5817 231.582 91 236 91H253C257.418 91 261 94.5817 261 99C261 103.418 257.418 107 253 107H236C231.582 107 228 103.418 228 99Z" fill="#FBE4A7"/>
<path fill-rule="evenodd" clip-rule="evenodd" d="M222.234 195.49C205.996 181.016 178.266 156.181 158.32 138H189.909L208.244 154.172L211.671 166.926L219.77 174.588C222.092 170.212 226.154 166.774 231.315 165.388C241.182 162.737 251.33 168.587 253.982 178.454C256.633 188.321 250.783 198.47 240.915 201.121C233.898 203.006 226.738 200.592 222.234 195.49ZM228.356 185.339C229.507 189.624 233.914 192.165 238.2 191.014C242.485 189.862 245.026 185.455 243.875 181.169C242.723 176.884 238.316 174.343 234.03 175.495C229.745 176.646 227.204 181.053 228.356 185.339ZM186.998 153C189.207 153 190.998 151.209 190.998 149C190.998 146.791 189.207 145 186.998 145C184.788 145 182.998 146.791 182.998 149C182.998 151.209 184.788 153 186.998 153Z" fill="#A0A09F"/>
<path fill-rule="evenodd" clip-rule="evenodd" d="M236.629 118.646C224.147 130.805 175.662 174.276 151.862 195.489C147.358 200.591 140.199 203.005 133.181 201.12C123.314 198.469 117.464 188.321 120.115 178.453C122.766 168.586 132.914 162.736 142.781 165.387C147.943 166.774 152.005 170.211 154.326 174.587L162.426 166.925L165.852 154.171L246.102 83.3867C248.23 89.9911 249.314 106.289 236.629 118.646ZM135.896 191.013C140.182 192.164 144.589 189.623 145.741 185.338C146.892 181.053 144.351 176.645 140.066 175.494C135.78 174.342 131.373 176.883 130.222 181.169C129.07 185.454 131.611 189.861 135.896 191.013ZM187.002 153C189.211 153 191.002 151.209 191.002 149C191.002 146.79 189.211 145 187.002 145C184.793 145 183.002 146.79 183.002 149C183.002 151.209 184.793 153 187.002 153Z" fill="#D8D8D8"/>
</svg>
