<svg width="27" height="18" viewBox="0 0 27 18" fill="none" xmlns="http://www.w3.org/2000/svg">
<g clip-path="url(#clip0_109_43803)">
<path d="M0 0H27V18H0V0Z" fill="white"/>
<path d="M0 0H27V3.60211H0V0ZM0 7.19895H27V10.8011H0V7.19895ZM0 14.4032H27V18.0053H0V14.4032Z" fill="#0052B4"/>
<path d="M13.5 9.00264L0 18V0L13.5 9.00264Z" fill="#D80027"/>
<path d="M4.5625 5.875L5.23223 7.94239H7.41016L5.64883 9.21869L6.32383 11.2913L4.5625 10.0151L2.80117 11.2913L3.47617 9.21869L1.71484 7.94239H3.8875L4.5625 5.875Z" fill="white"/>
</g>
<rect x="0.5" y="0.5" width="26" height="17" rx="0.5" stroke="black" stroke-opacity="0.2"/>
<defs>
<clipPath id="clip0_109_43803">
<rect width="27" height="18" rx="1" fill="white"/>
</clipPath>
</defs>
</svg>
