<svg width="329" height="52" viewBox="0 0 329 52" fill="none" xmlns="http://www.w3.org/2000/svg">
<g clip-path="url(#clip0_26_12549)">
<path d="M6.43115 12.3181C5.58898 12.3371 4.75144 12.1884 3.9673 11.8806C3.18317 11.5728 2.46811 11.112 1.86377 10.5252C1.26422 9.96871 0.7885 9.2923 0.467528 8.53991C0.146555 7.78753 -0.012479 6.97601 0.000764093 6.15813C-0.0112276 5.34042 0.148375 4.52929 0.46927 3.77708C0.790164 3.02488 1.26522 2.34832 1.86377 1.79108C2.46811 1.20423 3.18317 0.743482 3.9673 0.435675C4.75144 0.127868 5.58898 -0.0208511 6.43115 -0.00181981C7.27666 -0.0235314 8.11799 0.12388 8.90575 0.431761C9.69352 0.739642 10.4118 1.20179 11.0186 1.79108C11.6171 2.34832 12.0922 3.02488 12.4131 3.77708C12.734 4.52929 12.8936 5.34042 12.8816 6.15813C12.8948 6.97601 12.7358 7.78753 12.4148 8.53991C12.0938 9.2923 11.6181 9.96871 11.0186 10.5252C10.4118 11.1145 9.69352 11.5766 8.90575 11.8845C8.11799 12.1924 7.27666 12.3398 6.43115 12.3181ZM0.681864 50.2894V16.1743H12.1804V50.2894H0.681864Z" fill="white"/>
<path d="M18.6714 21.5235V16.9161C19.7167 16.7918 20.7109 16.3951 21.5546 15.7658C22.3984 15.1365 23.062 14.2967 23.4792 13.3303C22.8039 13.3097 22.1394 13.1553 21.5242 12.8762C20.9089 12.597 20.3552 12.1985 19.895 11.7039C19.4348 11.2092 19.0773 10.6282 18.8432 9.99442C18.6091 9.36066 18.5031 8.68675 18.5312 8.01172C18.4861 7.2315 18.6085 6.45066 18.8901 5.72162C19.1717 4.99259 19.606 4.33224 20.1639 3.7849C21.3088 2.74632 22.8161 2.19951 24.3606 2.26244C25.1822 2.23221 26.0001 2.38658 26.7541 2.71419C27.5081 3.0418 28.1791 3.53432 28.7177 4.1555C29.9389 5.76294 30.5302 7.76142 30.3804 9.77457C30.4193 12.702 29.3163 15.5295 27.3054 17.6573C25.0173 19.9878 21.9338 21.3686 18.6714 21.5235Z" fill="white"/>
<path d="M33.875 16.1771H44.1616L44.5022 21.3955C45.2983 19.5628 46.6327 18.0154 48.3284 16.9584C50.2326 15.8021 52.4319 15.2244 54.6586 15.2957C56.834 15.2388 58.9808 15.8016 60.8486 16.9183C62.5925 17.9876 63.9853 19.544 64.855 21.3955C65.662 19.5481 67.0237 17.9974 68.7513 16.9584C70.7505 15.7922 73.0389 15.2158 75.352 15.2957C76.8996 15.2188 78.4454 15.479 79.8826 16.0583C81.3197 16.6377 82.6139 17.5223 83.6754 18.6511C85.6787 20.888 86.6803 23.8929 86.6803 27.6657V50.2922H75.1216V29.4485C75.2163 27.949 74.8679 26.4547 74.12 25.1516C73.7808 24.632 73.3104 24.2111 72.7564 23.9314C72.2024 23.6518 71.5844 23.5233 70.9649 23.559C70.2913 23.5725 69.63 23.7414 69.0324 24.0524C68.4347 24.3633 67.9169 24.8081 67.5193 25.3519C66.5311 26.5472 66.0336 28.4469 66.0269 31.0511V50.2922H54.5183V29.4485C54.613 27.949 54.2647 26.4547 53.5167 25.1516C53.1806 24.6313 52.7123 24.2096 52.1596 23.9298C51.607 23.65 50.99 23.522 50.3717 23.559C49.6981 23.5725 49.0367 23.7414 48.4391 24.0524C47.8415 24.3633 47.3237 24.8081 46.9261 25.3519C45.9245 26.5438 45.4337 28.4269 45.4337 31.001V50.2922H33.875V16.1771Z" fill="white"/>
<path d="M107.924 50.2914V2.91486H119.433V50.2914H107.924Z" fill="white"/>
<path d="M142.841 51.172C139.535 51.2622 136.267 50.4409 133.396 48.7982C130.811 47.2768 128.701 45.0636 127.306 42.4079C125.859 39.5699 125.137 36.418 125.203 33.2331C125.133 30.0414 125.856 26.8822 127.306 24.0382C128.704 21.3844 130.813 19.1718 133.396 17.6479C136.301 16.09 139.545 15.2747 142.841 15.2747C146.137 15.2747 149.382 16.09 152.287 17.6479C154.87 19.1718 156.979 21.3844 158.376 24.0382C159.834 26.8735 160.567 30.0255 160.51 33.213C160.567 36.4005 159.834 39.5526 158.376 42.3878C156.973 45.0562 154.85 47.2772 152.247 48.7982C149.387 50.4338 146.134 51.2548 142.841 51.172ZM142.841 43.73C143.742 43.719 144.621 43.4473 145.371 42.9479C146.121 42.4484 146.71 41.7426 147.068 40.9155C148.198 38.5182 148.72 35.8799 148.591 33.2331C148.72 30.5862 148.198 27.948 147.068 25.5507C146.718 24.7193 146.13 24.0098 145.378 23.511C144.626 23.0121 143.744 22.746 142.841 22.746C141.939 22.746 141.057 23.0121 140.305 23.511C139.553 24.0098 138.965 24.7193 138.615 25.5507C137.485 27.948 136.962 30.5862 137.092 33.2331C136.962 35.8799 137.485 38.5182 138.615 40.9155C138.972 41.7426 139.562 42.4484 140.312 42.9479C141.062 43.4473 141.94 43.719 142.841 43.73Z" fill="white"/>
<path d="M173.421 50.2896L161.401 16.1746H173.28L179.841 39.4622L186.301 16.1746H197.469L185.45 50.2896H173.421Z" fill="white"/>
<path d="M207.686 12.3211C206.844 12.3418 206.006 12.1939 205.221 11.886C204.437 11.5781 203.722 11.1164 203.119 10.5282C202.518 9.97291 202.041 9.29672 201.72 8.54405C201.399 7.79139 201.241 6.97929 201.256 6.16114C201.241 5.34308 201.4 4.53118 201.721 3.7786C202.042 3.02603 202.518 2.34977 203.119 1.79409C204.36 0.640917 205.992 0 207.686 0C209.38 0 211.012 0.640917 212.253 1.79409C212.852 2.35133 213.327 3.02789 213.648 3.7801C213.969 4.5323 214.128 5.34344 214.116 6.16114C214.13 6.97902 213.971 7.79054 213.65 8.54293C213.329 9.29531 212.853 9.97173 212.253 10.5282C211.649 11.115 210.934 11.5758 210.15 11.8836C209.366 12.1914 208.528 12.3401 207.686 12.3211ZM201.927 50.2924V16.1773H213.435V50.2924H201.927Z" fill="white"/>
<path d="M221.357 50.2906V16.1755H231.654L231.985 21.3939C232.837 19.5415 234.235 17.9935 235.991 16.9568C237.975 15.806 240.239 15.2303 242.532 15.2941C244.125 15.2104 245.718 15.4663 247.204 16.0448C248.691 16.6232 250.038 17.5111 251.156 18.6495C253.259 20.8864 254.307 23.8913 254.301 27.664V50.2906H242.802V29.4469C242.882 27.9289 242.479 26.4246 241.65 25.15C241.251 24.6189 240.727 24.1953 240.124 23.9173C239.52 23.6393 238.857 23.5156 238.195 23.5574C237.48 23.5665 236.777 23.7317 236.133 24.0414C235.489 24.3511 234.921 24.7978 234.469 25.3503C233.387 26.5456 232.846 28.4286 232.846 30.9994V50.2906H221.357Z" fill="white"/>
<path d="M256.984 21.5232V16.9158C258.029 16.7915 259.023 16.3948 259.867 15.7655C260.71 15.1362 261.374 14.2964 261.791 13.33C261.116 13.3108 260.451 13.1572 259.836 12.8784C259.221 12.5995 258.667 12.2009 258.207 11.7059C257.748 11.2108 257.391 10.6291 257.159 9.99482C256.926 9.36052 256.822 8.68627 256.853 8.01141C256.809 7.23213 256.931 6.4523 257.21 5.7236C257.49 4.9949 257.921 4.33396 258.476 3.78459C259.622 2.74788 261.129 2.20135 262.673 2.26213C263.496 2.23325 264.315 2.38819 265.07 2.71566C265.825 3.04313 266.498 3.5349 267.04 4.15518C268.253 5.76612 268.841 7.76286 268.692 9.77426C268.731 12.7017 267.628 15.5292 265.618 17.657C263.329 19.9875 260.246 21.3683 256.984 21.5232Z" fill="white"/>
<path d="M292.924 12.3184C292.082 12.3375 291.244 12.1888 290.46 11.8809C289.676 11.5731 288.961 11.1124 288.356 10.5255C287.751 9.97217 287.269 9.29703 286.943 8.54441C286.617 7.7918 286.453 6.97872 286.463 6.1585C286.45 5.34145 286.607 4.53058 286.926 3.77832C287.246 3.02607 287.719 2.34919 288.316 1.79145C289.561 0.639768 291.193 0 292.889 0C294.584 0 296.217 0.639768 297.461 1.79145C298.056 2.35073 298.529 3.0279 298.848 3.77979C299.167 4.53168 299.326 5.3418 299.314 6.1585C299.329 6.97389 299.174 7.78348 298.859 8.53547C298.543 9.28745 298.074 9.96527 297.481 10.5255C296.878 11.1107 296.164 11.5705 295.382 11.8782C294.6 12.186 293.764 12.3356 292.924 12.3184ZM287.175 50.2898V16.1747H298.683V50.2898H287.175Z" fill="white"/>
<path d="M320.336 51.1712C316.19 51.1712 313.111 50.0093 311.102 47.6856C309.043 45.2132 307.973 42.0662 308.097 38.8513V23.6167H303.69V16.1747H308.087V6.5692H319.595V16.1747H327.608V23.6167H319.595V38.7111C319.497 39.9063 319.855 41.0943 320.597 42.0365C320.947 42.3988 321.37 42.6826 321.838 42.8691C322.306 43.0555 322.808 43.1405 323.311 43.1182C323.985 43.1178 324.656 43.0473 325.315 42.9079C326.002 42.7792 326.673 42.5777 327.318 42.3069L329.071 49.3182C327.817 49.9846 326.464 50.4446 325.064 50.6804C323.508 50.9953 321.924 51.1596 320.336 51.1712Z" fill="white"/>
</g>
<defs>
<clipPath id="clip0_26_12549">
<rect width="328.47" height="51.09" fill="white" transform="scale(1.00162)"/>
</clipPath>
</defs>
</svg>
