<svg width="27" height="18" viewBox="0 0 27 18" fill="none" xmlns="http://www.w3.org/2000/svg">
<g clip-path="url(#clip0_109_43679)">
<path d="M0 0H27V18H0V0Z" fill="#232323"/>
<path d="M0 3H27V6.00088H0V3Z" fill="#FFDA44"/>
<path d="M0 6H27V9.00088H0V6Z" fill="#D32300"/>
<path d="M0 12.0039H27V15.0048H0V12.0039Z" fill="#FFDA44"/>
<path d="M0 15H27V18.0009H0V15Z" fill="#D32300"/>
<path d="M13.5018 13.2583C15.8521 13.2583 17.7574 11.3528 17.7574 9.00218C17.7574 6.65161 15.8521 4.74609 13.5018 4.74609C11.1514 4.74609 9.24609 6.65161 9.24609 9.00218C9.24609 11.3528 11.1514 13.2583 13.5018 13.2583Z" fill="white"/>
<path d="M12.3671 6.72382C12.4146 6.64998 11.3335 6.61834 11.3335 6.61834C11.4232 6.48649 12.3038 6.06457 12.3038 6.06457C12.3038 6.06457 12.2564 5.74813 12.4462 5.54772L12.2089 5.03088C12.2089 5.03088 12.5781 4.85156 13.1792 4.85156C13.7804 4.85156 14.2287 5.22074 14.2867 5.54245L13.9492 5.72176C13.9439 5.96964 14.0388 6.33354 13.7224 6.63416C13.4113 6.93477 13.2847 6.99806 13.2742 7.62566C13.2742 7.83135 13.3955 8.05813 13.7382 8.24271C14.6558 8.73319 15.7738 9.72997 16.0902 10.0306C16.4119 10.3312 16.3591 11.0432 16.2273 11.3596C16.0955 11.6761 15.5892 12.1138 15.4732 12.0769C15.3572 12.0452 15.5365 11.5917 15.2886 11.4651C15.2886 11.4651 14.8193 11.0643 14.4027 11.4967C13.9861 11.9292 14.3921 12.8258 14.6083 12.9735C14.8246 13.1211 14.698 13.2371 14.5081 13.2371H13.0263C12.8259 13.2371 12.7415 13.1158 12.9261 12.9735C13.3269 12.773 13.58 12.1665 13.3163 11.9028C13.058 11.6444 12.3513 11.9819 12.1826 12.2351C12.0349 12.3828 11.7185 12.425 11.5023 12.1613C11.2861 11.8976 11.2861 11.6128 11.4443 11.502C11.8134 11.2489 11.4443 11.502 11.4496 11.4967C11.4496 11.4967 12.0771 11.0432 13.0263 11.0221C13.232 11.0221 13.2794 10.9061 13.1423 10.7689C13.1423 10.7689 11.5128 9.32387 11.6605 8.43785C11.8187 7.47272 12.7152 7.0508 12.3671 6.72382C12.3671 6.72382 12.2986 6.62888 12.3671 6.72382Z" fill="black"/>
</g>
<rect x="0.5" y="0.5" width="26" height="17" rx="0.5" stroke="black" stroke-opacity="0.2"/>
<defs>
<clipPath id="clip0_109_43679">
<rect width="27" height="18" rx="1" fill="white"/>
</clipPath>
</defs>
</svg>
