<svg width="27" height="18" viewBox="0 0 27 18" fill="none" xmlns="http://www.w3.org/2000/svg">
<g clip-path="url(#clip0_109_43770)">
<path d="M0 0H27V18H0V0Z" fill="white"/>
<path d="M0 0H9V18H0V0ZM18 0H27V18H18V0Z" fill="#338AF3"/>
<path d="M13.4749 9.54359C14.2161 9.54359 14.817 8.9427 14.817 8.20148C14.817 7.46026 14.2161 6.85938 13.4749 6.85938C12.7337 6.85938 12.1328 7.46026 12.1328 8.20148C12.1328 8.9427 12.7337 9.54359 13.4749 9.54359Z" fill="#DCC26D"/>
<path d="M10.2227 8.20732C10.2227 9.37047 10.8437 10.4442 11.8437 11.0231C12.1542 11.202 12.5542 11.0968 12.7332 10.7863C12.9121 10.4757 12.8069 10.0757 12.4963 9.89679C11.8911 9.54942 11.5227 8.90205 11.5227 8.20732C11.5227 7.84942 11.2332 7.55469 10.87 7.55469C10.5069 7.55469 10.2227 7.84416 10.2227 8.20732ZM15.2279 10.9494C16.1647 10.3494 16.7332 9.31784 16.7279 8.20732C16.7279 7.84942 16.4384 7.55469 16.0753 7.55469C15.7174 7.55469 15.4226 7.84416 15.4226 8.20732C15.4226 8.87574 15.0805 9.49679 14.5226 9.85468C14.2174 10.0442 14.1174 10.4442 14.3069 10.7494C14.4963 11.0547 14.8963 11.1547 15.2016 10.9652C15.2121 10.9599 15.2174 10.9547 15.2279 10.9494Z" fill="#628A40"/>
</g>
<rect x="0.5" y="0.5" width="26" height="17" rx="0.5" stroke="black" stroke-opacity="0.2"/>
<defs>
<clipPath id="clip0_109_43770">
<rect width="27" height="18" rx="1" fill="white"/>
</clipPath>
</defs>
</svg>
