<svg width="27" height="18" viewBox="0 0 27 18" fill="none" xmlns="http://www.w3.org/2000/svg">
<g clip-path="url(#clip0_109_43711)">
<path d="M0 0H27V18H0V0Z" fill="#EF3340"/>
<path d="M0 0H27V6H0V0Z" fill="#00B5E2"/>
<path d="M0 12H27V18H0V12Z" fill="#509E2F"/>
<path d="M13.9782 11.1889C12.7677 11.1889 11.7888 10.21 11.7888 8.99942C11.7888 7.7889 12.7677 6.80995 13.9782 6.80995C14.3572 6.80995 14.7098 6.90469 15.0204 7.07311C14.5361 6.59942 13.8677 6.30469 13.1361 6.30469C11.6467 6.30469 10.4414 7.50995 10.4414 8.99942C10.4414 10.4889 11.6467 11.6942 13.1361 11.6942C13.8677 11.6942 14.5361 11.3994 15.0204 10.9257C14.7098 11.0942 14.3572 11.1889 13.9782 11.1889Z" fill="white"/>
<path d="M15.6642 7.48438L15.9537 8.30016L16.7379 7.92648L16.3642 8.71069L17.18 9.00016L16.3642 9.28964L16.7379 10.0738L15.9537 9.70016L15.6642 10.516L15.3748 9.70016L14.5905 10.0738L14.9642 9.28964L14.1484 9.00016L14.9642 8.71069L14.5905 7.92648L15.3748 8.30016L15.6642 7.48438Z" fill="white"/>
</g>
<rect x="0.5" y="0.5" width="26" height="17" rx="0.5" stroke="black" stroke-opacity="0.2"/>
<defs>
<clipPath id="clip0_109_43711">
<rect width="27" height="18" rx="1" fill="white"/>
</clipPath>
</defs>
</svg>
