<svg width="27" height="18" viewBox="0 0 27 18" fill="none" xmlns="http://www.w3.org/2000/svg">
<g clip-path="url(#clip0_109_43761)">
<path d="M0 0V17.9996H27V0H0Z" fill="#D80027"/>
<path d="M18.5625 7.44364H14.6951L13.5 3.76562L12.3049 7.44374H8.4375L11.5663 9.71696L10.3712 13.3951L13.5 11.1218L16.6288 13.395L15.4337 9.7168L18.5625 7.44364ZM12.442 9.4323L12.8461 8.18856H14.1539L14.558 9.4323V9.43236L13.5 10.201L12.442 9.4323ZM13.9119 7.44364H13.0882L13.5 6.17606L13.9119 7.44364ZM15.1917 8.97198L14.9371 8.18856H16.2699L15.1917 8.97198ZM12.0629 8.18856L11.8083 8.97198L10.7301 8.18856H12.0629ZM11.7881 11.4448L12.1999 10.1773L12.8663 10.6614L11.7881 11.4448ZM14.1337 10.6614L14.8 10.1772L15.2119 11.4448L14.1337 10.6614Z" fill="#20661B"/>
</g>
<rect x="0.5" y="0.5" width="26" height="17" rx="0.5" stroke="black" stroke-opacity="0.2"/>
<defs>
<clipPath id="clip0_109_43761">
<rect width="27" height="18" rx="1" fill="white"/>
</clipPath>
</defs>
</svg>
