<svg width="27" height="18" viewBox="0 0 27 18" fill="none" xmlns="http://www.w3.org/2000/svg">
<g clip-path="url(#clip0_109_43688)">
<path d="M0 0H27V17.9996H0V0Z" fill="white"/>
<path d="M0 0H27V5.99985H0V0Z" fill="#D80027"/>
<path d="M0 12H27V17.9999H0V12Z" fill="#6DA544"/>
<path d="M11.9356 11.3484H15.0661V10.0179L14.44 10.331L13.5008 9.39191L12.5617 10.331L11.9356 10.0179V11.3484ZM10.1445 9.78314L10.2903 10.2316H10.7617L10.3803 10.5087L10.526 10.9571L10.1445 10.6799L9.76307 10.9571L9.90877 10.5087L9.52734 10.2316H9.99879L10.1445 9.78314ZM10.5963 8.21799L10.742 8.66633H11.2134L10.832 8.94345L10.9777 9.39191L10.5963 9.11473L10.2148 9.39191L10.3605 8.94345L9.97907 8.66633H10.4505L10.5963 8.21799ZM11.8876 7.04407L12.0333 7.49242H12.5048L12.1234 7.76954L12.2691 8.21799L11.8876 7.94082L11.5061 8.21799L11.6519 7.76954L11.2704 7.49242H11.7419L11.8876 7.04407ZM16.8571 9.78314L16.7114 10.2316H16.24L16.6214 10.5087L16.4757 10.9571L16.8571 10.6799L17.2386 10.9571L17.0929 10.5087L17.4743 10.2316H17.0029L16.8571 9.78314ZM16.4054 8.21799L16.2597 8.66633H15.7882L16.1697 8.94345L16.024 9.39191L16.4054 9.11473L16.7869 9.39191L16.6412 8.94345L17.0226 8.66633H16.5511L16.4054 8.21799ZM15.114 7.04407L14.9683 7.49242H14.4969L14.8783 7.76954L14.7326 8.21799L15.114 7.94082L15.4955 8.21799L15.3498 7.76954L15.7312 7.49242H15.2598L15.114 7.04407ZM13.5008 6.45703L13.6465 6.90543H14.118L13.7365 7.1826L13.8823 7.63095L13.5008 7.35388L13.1194 7.63095L13.2651 7.1826L12.8836 6.90543H13.3551L13.5008 6.45703Z" fill="#FFDA44"/>
</g>
<rect x="0.5" y="0.5" width="26" height="17" rx="0.5" stroke="black" stroke-opacity="0.2"/>
<defs>
<clipPath id="clip0_109_43688">
<rect width="27" height="18" rx="1" fill="white"/>
</clipPath>
</defs>
</svg>
