<svg width="375" height="225" viewBox="0 0 375 225" fill="none" xmlns="http://www.w3.org/2000/svg">
<path fill-rule="evenodd" clip-rule="evenodd" d="M311.293 54.0239C311.293 76.8034 287.658 97.8551 283.704 101.218C283.372 101.5 282.921 101.5 282.589 101.218C278.634 97.8551 255 76.8034 255 54.0239C255 36.8624 267.602 24 283.146 24C298.691 24 311.293 36.8624 311.293 54.0239ZM283.053 60.6843C287.82 60.6843 291.684 56.8198 291.684 52.0527C291.684 47.2856 287.82 43.4211 283.053 43.4211C278.286 43.4211 274.421 47.2856 274.421 52.0527C274.421 56.8198 278.286 60.6843 283.053 60.6843Z" fill="#606060"/>
<path fill-rule="evenodd" clip-rule="evenodd" d="M301.381 86.703C294.791 95.4829 287.709 101.75 285.648 103.503C284.195 104.738 282.098 104.738 280.645 103.503C278.584 101.75 271.502 95.4829 264.912 86.703C258.374 77.9918 252 66.3873 252 54.0239C252 35.352 265.802 21 283.146 21C300.491 21 314.293 35.352 314.293 54.0239C314.293 66.3873 307.919 77.9918 301.381 86.703ZM283.053 57.6843C286.163 57.6843 288.684 55.163 288.684 52.0527C288.684 48.9425 286.163 46.4211 283.053 46.4211C279.942 46.4211 277.421 48.9425 277.421 52.0527C277.421 55.163 279.942 57.6843 283.053 57.6843ZM283.704 101.218C287.658 97.8551 311.293 76.8034 311.293 54.0239C311.293 36.8624 298.691 24 283.146 24C267.602 24 255 36.8624 255 54.0239C255 76.8034 278.634 97.8551 282.589 101.218C282.921 101.5 283.372 101.5 283.704 101.218ZM291.684 52.0527C291.684 56.8198 287.82 60.6843 283.053 60.6843C278.286 60.6843 274.421 56.8198 274.421 52.0527C274.421 47.2856 278.286 43.4211 283.053 43.4211C287.82 43.4211 291.684 47.2856 291.684 52.0527Z" fill="white"/>
<path d="M318.575 29.9885C318.575 37.3667 312.593 43.348 305.215 43.348C297.837 43.348 291.855 37.3667 291.855 29.9885C291.855 22.6102 297.837 16.6289 305.215 16.6289C312.593 16.6289 318.575 22.6102 318.575 29.9885Z" fill="#DB0007"/>
<path fill-rule="evenodd" clip-rule="evenodd" d="M320.588 29.9894C320.588 38.4813 313.704 45.3655 305.212 45.3655C296.72 45.3655 289.836 38.4813 289.836 29.9894C289.836 21.4974 296.72 14.6133 305.212 14.6133C313.704 14.6133 320.588 21.4974 320.588 29.9894ZM305.212 43.3489C312.59 43.3489 318.572 37.3676 318.572 29.9894C318.572 22.6111 312.59 16.6298 305.212 16.6298C297.834 16.6298 291.852 22.6111 291.852 29.9894C291.852 37.3676 297.834 43.3489 305.212 43.3489Z" fill="white"/>
<path fill-rule="evenodd" clip-rule="evenodd" d="M305.214 28.5636L299.781 23.1309L299.068 23.8438C298.674 24.2376 298.674 24.876 299.068 25.2697L303.788 29.9895L298.355 35.422L299.068 36.135C299.462 36.5287 300.101 36.5287 300.494 36.135L305.214 31.4154L310.646 36.8475L311.359 36.1346C311.753 35.7408 311.753 35.1024 311.359 34.7087L306.64 29.9895L312.072 24.5572L311.359 23.8442C310.965 23.4505 310.327 23.4505 309.933 23.8442L305.214 28.5636Z" fill="white"/>
<path d="M265.551 182.379C265.551 186.95 228.036 190.655 181.758 190.655C135.48 190.655 97.9648 186.95 97.9648 182.379C97.9648 177.809 135.48 174.104 181.758 174.104C228.036 174.104 265.551 177.809 265.551 182.379Z" fill="#A0A09F" fill-opacity="0.15"/>
<path fill-rule="evenodd" clip-rule="evenodd" d="M140.723 52.0332V96.0398C140.723 97.2555 141.688 98.2401 142.878 98.2401H173.05C174.24 98.2401 175.205 97.2555 175.205 96.0398V52.0332L171.757 54.2148L168.309 52.0332L164.861 54.2148L161.412 52.0332L157.964 54.2148L154.516 52.0332L151.067 54.2148L147.619 52.0332L144.171 54.2148L140.723 52.0332Z" fill="#C2945C"/>
<path fill-rule="evenodd" clip-rule="evenodd" d="M175.205 89.2754L175.206 96.0406C175.206 97.2563 174.24 98.2409 173.051 98.2409H142.878C141.689 98.2409 140.723 97.2563 140.723 96.0406L140.723 89.2754H175.205Z" fill="#DB0007"/>
<path fill-rule="evenodd" clip-rule="evenodd" d="M170.859 64.6094C172.42 64.6094 173.897 65.7102 175.208 67.6695L175.208 77.6419C174.209 71.0148 172.632 66.738 170.859 66.738C167.842 66.738 165.392 78.1805 165.392 92.2938H161.018C161.018 78.1805 158.57 66.738 155.549 66.738C152.531 66.738 150.082 79.1356 150.082 94.4225H145.707C145.707 77.9564 150.115 64.6094 155.549 64.6094C158.642 64.6094 161.4 68.6215 163.205 74.8937C165.009 68.6215 167.769 64.6094 170.859 64.6094Z" fill="#FFBC0D"/>
<path d="M203.984 143.283L161.066 143.284V137.059L207.764 137.059C206.289 138.978 205.018 141.064 203.984 143.283Z" fill="#606060"/>
<path d="M163.729 106.975V129.797C163.729 135.269 164.434 139.773 165.845 143.309C165.975 143.291 166.108 143.283 166.242 143.283L203.988 143.282C202.634 146.19 201.688 149.327 201.224 152.619L162.423 152.619C160.612 136.005 146.571 123.076 129.518 123.076C118.177 123.076 108.169 128.794 102.203 137.51C103.513 120.427 117.789 106.975 135.207 106.975H163.729Z" fill="#FFBC0D"/>
<path d="M217.534 72.6566C225.937 82.9774 233.043 92.5884 238.852 101.49C243.721 108.95 248.004 116.411 251.702 123.871C252.325 125.128 252.017 126.604 251.042 127.515L251.043 128.845C246.064 125.841 240.233 124.113 233.999 124.113C224.628 124.113 216.168 128.017 210.145 134.29L214.411 118.373L207.684 76.2792C207.433 74.709 208.409 73.2033 209.945 72.7917C209.945 72.7917 212.438 72.1237 213.684 71.7897C213.898 71.7326 214.516 72.0339 214.516 72.0339C215.279 71.8294 215.882 71.5114 216.557 71.8618C216.927 72.0536 217.261 72.3212 217.534 72.6566Z" fill="#FFBC0D"/>
<path d="M124.863 109.044V110.128C124.863 114.698 121.158 118.403 116.588 118.403L110.188 118.403C114.06 113.936 119.109 110.517 124.852 108.627C124.86 108.765 124.863 108.904 124.863 109.044Z" fill="#DB0007"/>
<path d="M194.179 71.7051H218.989C220.708 71.7051 222.101 73.0984 222.101 74.8172C222.101 76.536 220.708 77.9294 218.989 77.9294H194.179C192.46 77.9294 191.066 76.536 191.066 74.8172C191.066 73.0984 192.46 71.7051 194.179 71.7051Z" fill="#606060"/>
<path d="M135.481 96.6016H175.881C178.889 96.6016 181.327 99.0399 181.327 102.048C181.327 105.056 178.889 107.494 175.881 107.494H135.481C132.474 107.494 130.035 105.056 130.035 102.048C130.035 99.0399 132.474 96.6016 135.481 96.6016Z" fill="#606060"/>
<path d="M156.589 155.828C156.589 171.253 144.083 183.759 128.658 183.759C113.232 183.759 100.727 171.253 100.727 155.828C100.727 140.402 113.232 127.896 128.658 127.896C144.083 127.896 156.589 140.402 156.589 155.828Z" fill="#606060"/>
<path d="M140.038 155.482C140.038 161.957 134.789 167.206 128.314 167.206C121.839 167.206 116.59 161.957 116.59 155.482C116.59 149.007 121.839 143.758 128.314 143.758C134.789 143.758 140.038 149.007 140.038 155.482Z" fill="#F1F1F1"/>
<path d="M136.261 146.516C138.582 148.694 140.036 151.815 140.036 155.281C140.036 161.867 134.786 167.205 128.31 167.205C124.902 167.205 121.834 165.727 119.691 163.366C121.356 164.216 123.235 164.695 125.224 164.695C132.041 164.695 137.568 159.075 137.568 152.143C137.568 150.14 137.106 148.247 136.286 146.567L136.261 146.516Z" fill="white"/>
<path opacity="0.1" d="M115.207 156.172H146.931V159.62H115.207V156.172Z" fill="#606060"/>
<path d="M129.516 126.18C146.083 126.18 159.516 139.765 159.516 156.525H99.5156C99.5156 139.765 112.948 126.18 129.516 126.18Z" fill="#FFBC0D"/>
<path d="M261.413 155.828C261.413 171.253 248.908 183.759 233.482 183.759C218.056 183.759 205.551 171.253 205.551 155.828C205.551 140.402 218.056 127.896 233.482 127.896C248.908 127.896 261.413 140.402 261.413 155.828Z" fill="#606060"/>
<path d="M244.862 155.482C244.862 161.957 239.613 167.206 233.138 167.206C226.663 167.206 221.414 161.957 221.414 155.482C221.414 149.007 226.663 143.758 233.138 143.758C239.613 143.758 244.862 149.007 244.862 155.482Z" fill="#F1F1F1"/>
<path d="M241.709 146.516C244.07 148.694 245.549 151.815 245.549 155.281C245.549 161.867 240.21 167.205 233.624 167.205C230.159 167.205 227.038 165.727 224.859 163.366C226.552 164.216 228.463 164.695 230.486 164.695C237.419 164.695 243.039 159.075 243.039 152.143C243.039 150.14 242.57 148.247 241.735 146.567L241.709 146.516Z" fill="white"/>
<path opacity="0.1" d="M219.344 156.172H251.068V159.62H219.344V156.172Z" fill="#606060"/>
<path d="M234.172 127.207C250.403 127.207 263.626 140.082 264.172 156.173H204.172C204.717 140.082 217.941 127.207 234.172 127.207Z" fill="#FFBC0D"/>
</svg>
