<svg width="153" height="98" viewBox="0 0 153 98" fill="none" xmlns="http://www.w3.org/2000/svg">
<g clip-path="url(#clip0_465_41647)">
<g clip-path="url(#clip1_465_41647)">
<path d="M90.7242 46.8961C90.0433 45.4475 88.948 44.2334 87.5767 43.4077C86.0496 42.6013 84.3487 42.1798 82.6217 42.1798C80.8948 42.1798 79.1939 42.6013 77.6667 43.4077C76.2643 44.2105 75.1239 45.4016 74.3829 46.8377C73.5664 48.4622 73.1615 50.2624 73.2038 52.0801C73.1331 54.0042 73.57 55.9131 74.4706 57.6149C75.2657 59.0219 76.4637 60.1588 77.9103 60.8792C79.4043 61.5986 81.0468 61.9558 82.7046 61.9219C84.733 61.9661 86.7284 61.4028 88.4342 60.3043C89.2456 59.7574 89.9412 59.056 90.4813 58.24C91.0213 57.4241 91.3953 56.5097 91.5816 55.5491H85.5499C85.4414 56.2358 85.1291 56.874 84.6534 57.381C84.1382 57.8247 83.4712 58.0517 82.7923 58.0144C82.371 58.0186 81.9546 57.9248 81.5758 57.7405C81.197 57.5562 80.8662 57.2863 80.6095 56.9523C79.909 55.8824 79.5271 54.6353 79.5084 53.3566H91.8058V52.1093C91.846 50.312 91.4761 48.5291 90.7242 46.8961ZM79.4694 50.3261C79.4808 49.2045 79.8195 48.1106 80.4439 47.1787C80.6774 46.8365 80.9915 46.5571 81.3586 46.3651C81.7257 46.173 82.1344 46.0743 82.5486 46.0776C82.9663 46.0605 83.3811 46.1543 83.7507 46.3494C84.1204 46.5445 84.4319 46.834 84.6534 47.1885C85.2134 48.1414 85.5219 49.2211 85.5499 50.3261H79.4694Z" fill="url(#paint0_linear_465_41647)"/>
<path d="M45.1596 60.6161C46.739 61.5179 48.5353 61.9695 50.3534 61.9219C52.1746 61.9703 53.9743 61.5187 55.5568 60.6161C56.98 59.7743 58.1406 58.5529 58.9089 57.0887C59.6848 55.5175 60.0884 53.7886 60.0884 52.0363C60.0884 50.2839 59.6848 48.5551 58.9089 46.9838C58.1404 45.5223 56.9796 44.3041 55.5568 43.4661C53.9743 42.5635 52.1746 42.1119 50.3534 42.1604C48.5353 42.1127 46.739 42.5643 45.1596 43.4661C43.7271 44.3011 42.556 45.5194 41.7784 46.9838C41.0089 48.5569 40.6088 50.285 40.6088 52.0363C40.6088 53.7875 41.0089 55.5156 41.7784 57.0887C42.5554 58.5561 43.7264 59.7777 45.1596 60.6161ZM48.0245 47.8121C48.2183 47.3533 48.5431 46.9619 48.9581 46.6866C49.3732 46.4114 49.8602 46.2646 50.3582 46.2646C50.8563 46.2646 51.3433 46.4114 51.7583 46.6866C52.1734 46.9619 52.4982 47.3533 52.692 47.8121C53.3082 49.1333 53.5925 50.585 53.5203 52.0411C53.5906 53.4971 53.3064 54.9483 52.692 56.2702C52.4982 56.7289 52.1734 57.1204 51.7583 57.3956C51.3433 57.6709 50.8563 57.8177 50.3582 57.8177C49.8602 57.8177 49.3732 57.6709 48.9581 57.3956C48.5431 57.1204 48.2183 56.7289 48.0245 56.2702C47.4064 54.9493 47.1188 53.4979 47.1865 52.0411C47.1168 50.5842 47.4045 49.1324 48.0245 47.8121Z" fill="url(#paint1_linear_465_41647)"/>
<path d="M68.0881 67.6028C69.3223 65.9304 69.9355 63.8804 69.8225 61.805V42.6476H63.4887V62.6625C63.4887 64.5041 62.7677 65.4201 61.3255 65.4201C60.7896 65.4249 60.2564 65.3426 59.7469 65.1765L58.9674 69.0742C59.5482 69.3261 60.1565 69.5092 60.7798 69.6199C61.375 69.7255 61.978 69.781 62.5825 69.7856C65.0965 69.7596 66.9317 69.032 68.0881 67.6028Z" fill="url(#paint2_linear_465_41647)"/>
<path d="M17.1057 46.0386L21.5783 59.6027H25.7197L30.1534 46.1848L31.6053 61.4347H38.2801L35.4835 36.4599H28.9548L23.7026 52.1483L18.4796 36.4599H11.9607L9.16406 61.4347H15.6148L17.1057 46.0386Z" fill="url(#paint3_linear_465_41647)"/>
<path d="M63.1087 37.1323C63.0956 37.5776 63.1756 38.0208 63.3433 38.4335C63.5111 38.8463 63.7631 39.2195 64.0831 39.5294C64.7642 40.1686 65.6631 40.5244 66.5972 40.5244C67.5312 40.5244 68.4302 40.1686 69.1112 39.5294C69.437 39.2199 69.6964 38.8473 69.8737 38.4344C70.051 38.0215 70.1424 37.5768 70.1424 37.1274C70.1424 36.6781 70.051 36.2334 69.8737 35.8204C69.6964 35.4075 69.437 35.035 69.1112 34.7255C68.4302 34.0863 67.5312 33.7305 66.5972 33.7305C65.6631 33.7305 64.7642 34.0863 64.0831 34.7255C63.7623 35.0369 63.51 35.4117 63.3422 35.8261C63.1744 36.2406 63.0949 36.6854 63.1087 37.1323Z" fill="url(#paint4_linear_465_41647)"/>
<path d="M130.267 28.8789C126.087 28.8789 122.355 34.4527 119.909 43.1641C117.473 34.4527 113.741 28.8789 109.561 28.8789C102.214 28.8789 96.25 47.3931 96.25 70.2923H102.194C102.194 49.0594 105.507 31.8412 109.59 31.8412C113.673 31.8412 116.986 47.7342 116.986 67.3398H122.901C122.901 47.7342 126.214 31.8412 130.297 31.8412C134.38 31.8412 137.693 49.0594 137.693 70.2923H143.607C143.578 47.4224 137.615 28.8789 130.267 28.8789Z" fill="#FFBC0D"/>
</g>
</g>
<defs>
<linearGradient id="paint0_linear_465_41647" x1="9.16406" y1="51.758" x2="91.8037" y2="51.758" gradientUnits="userSpaceOnUse">
<stop offset="0.000616698" stop-color="#910063"/>
<stop offset="0.0362" stop-color="#990059"/>
<stop offset="0.1727" stop-color="#B60035"/>
<stop offset="0.3012" stop-color="#CA001C"/>
<stop offset="0.4172" stop-color="#D7000C"/>
<stop offset="0.5101" stop-color="#DB0007"/>
<stop offset="1" stop-color="#E8720A"/>
</linearGradient>
<linearGradient id="paint1_linear_465_41647" x1="9.16406" y1="51.758" x2="91.8037" y2="51.758" gradientUnits="userSpaceOnUse">
<stop offset="0.000616698" stop-color="#910063"/>
<stop offset="0.0362" stop-color="#990059"/>
<stop offset="0.1727" stop-color="#B60035"/>
<stop offset="0.3012" stop-color="#CA001C"/>
<stop offset="0.4172" stop-color="#D7000C"/>
<stop offset="0.5101" stop-color="#DB0007"/>
<stop offset="1" stop-color="#E8720A"/>
</linearGradient>
<linearGradient id="paint2_linear_465_41647" x1="9.16406" y1="51.758" x2="91.8037" y2="51.758" gradientUnits="userSpaceOnUse">
<stop offset="0.000616698" stop-color="#910063"/>
<stop offset="0.0362" stop-color="#990059"/>
<stop offset="0.1727" stop-color="#B60035"/>
<stop offset="0.3012" stop-color="#CA001C"/>
<stop offset="0.4172" stop-color="#D7000C"/>
<stop offset="0.5101" stop-color="#DB0007"/>
<stop offset="1" stop-color="#E8720A"/>
</linearGradient>
<linearGradient id="paint3_linear_465_41647" x1="9.16406" y1="51.758" x2="91.8037" y2="51.758" gradientUnits="userSpaceOnUse">
<stop offset="0.000616698" stop-color="#910063"/>
<stop offset="0.0362" stop-color="#990059"/>
<stop offset="0.1727" stop-color="#B60035"/>
<stop offset="0.3012" stop-color="#CA001C"/>
<stop offset="0.4172" stop-color="#D7000C"/>
<stop offset="0.5101" stop-color="#DB0007"/>
<stop offset="1" stop-color="#E8720A"/>
</linearGradient>
<linearGradient id="paint4_linear_465_41647" x1="9.16406" y1="51.758" x2="91.8037" y2="51.758" gradientUnits="userSpaceOnUse">
<stop offset="0.000616698" stop-color="#910063"/>
<stop offset="0.0362" stop-color="#990059"/>
<stop offset="0.1727" stop-color="#B60035"/>
<stop offset="0.3012" stop-color="#CA001C"/>
<stop offset="0.4172" stop-color="#D7000C"/>
<stop offset="0.5101" stop-color="#DB0007"/>
<stop offset="1" stop-color="#E8720A"/>
</linearGradient>
<clipPath id="clip0_465_41647">
<rect width="153" height="98" fill="white"/>
</clipPath>
<clipPath id="clip1_465_41647">
<rect width="134.413" height="41.4134" fill="white" transform="translate(9.16406 28.8789)"/>
</clipPath>
</defs>
</svg>
