<svg width="170" height="170" viewBox="0 0 170 170" fill="none" xmlns="http://www.w3.org/2000/svg">
<path fill-rule="evenodd" clip-rule="evenodd" d="M85 150C128.63 150 164 145.686 164 140.364C164 135.043 128.63 130.729 85 130.729C41.3695 130.729 6 135.043 6 140.364C6 145.686 41.3695 150 85 150Z" fill="#A0A09F" fill-opacity="0.15"/>
<path fill-rule="evenodd" clip-rule="evenodd" d="M145.113 59.8868L145.109 60.6826C145.085 62.748 144.878 65.1166 143.096 66.1119L143.095 70.7542C144.091 71.5216 144.431 72.6612 144.431 74.4859V78.8061C144.431 79.5055 144.322 80.1294 144.122 80.6807C144.95 80.6008 145.758 80.9139 146.868 82.0164C148.445 83.5826 147.821 84.3131 146.013 84.6951C146.58 85.2024 147.076 85.9151 147.452 86.9322L147.53 87.1549C148.419 89.7921 151.088 90.487 155.537 89.2395C152.32 93.5666 149.508 95.3623 147.102 94.6267L147.102 95.5372C147.102 99.1367 144.71 102.175 141.435 103.139C143.957 104.025 145.766 106.439 145.766 109.279L145.716 111.505L145.766 111.505L145.766 117.512C146.441 117.772 146.913 118.298 147.067 119.229C147.249 120.328 146.695 120.946 145.767 121.266L145.766 122.103C146.59 123.604 147.081 125.24 147.379 126.075L147.502 126.408C148.007 127.748 147.813 126.759 146.783 126.646C145.678 126.526 145.214 125.798 143.91 125.695L143.763 125.686L143.763 126.975C143.763 133.064 139.265 138.195 133.275 138.989L133.05 139.017C117.474 140.787 101.458 141.672 85.0015 141.672C68.0335 141.672 50.2844 140.731 31.7543 138.849C25.6647 138.231 21.0128 133.139 20.9003 127.019L20.8982 126.792L20.898 123.068L20.5037 123.084C19.1169 123.155 17.9336 123.346 18.292 122.648C18.7158 121.823 20.1311 120.599 21.8785 119.813C21.5453 119.685 21.5659 119.459 21.5659 118.719C21.5659 117.666 22.292 117.094 23.2351 117.04L23.2352 114.058L23.1964 114.058L22.9014 109.279C22.9014 105.828 25.5728 103.005 28.9488 102.788C26.3586 101.643 24.4864 99.1353 24.2599 96.1436C24.1496 96.1519 24.0348 96.1621 23.9167 96.1742L23.6331 96.2062C19.4822 96.7161 16.2102 95.2549 15.3863 92.0236L15.2725 91.56C14.9684 90.3835 13.9543 86.6225 14.9293 88.1594C16.0126 89.8669 18.5606 87.2209 19.9665 87.306C22.0986 87.4367 22.947 86.7672 23.4871 85.7686C18.5627 85.4469 22.0129 81.6462 22.9153 81.3476L22.9853 81.3256C23.1448 81.2782 23.3175 81.2455 23.5276 81.2281C22.3048 79.3226 21.7898 76.7435 22.6869 74.4859L22.8978 73.9644C23.5222 72.4514 24.0837 71.3971 24.9045 70.677L24.9047 66.4165C22.5162 65.6053 22.9223 62.8837 22.9014 61.2275C22.9278 38.4427 55.1201 24.962 84.7716 24.3711L85.6835 24.3572C115.605 24.0354 145.113 37.5435 145.113 59.8868Z" fill="white"/>
<path d="M85.6475 21.0059C119.635 20.6404 148.451 36.5287 148.451 59.8867L148.448 60.7217C148.43 62.3173 148.314 63.5199 147.972 64.7207C147.653 65.8392 147.151 66.8334 146.434 67.6543V69.4287L146.573 69.6289C147.391 70.8626 147.739 72.3768 147.768 74.2305L147.77 74.4863V78.4229L147.935 78.5381C148.304 78.8025 148.669 79.1089 149.033 79.4561L149.216 79.6338C151.326 81.7287 151.581 83.9567 150.522 85.6123L150.599 85.8135L150.692 86.0811C150.76 86.2807 150.784 86.3307 150.915 86.375L151.036 86.4092C151.709 86.5845 152.931 86.4904 154.639 86.0117C157.706 85.1516 160.117 88.6814 158.212 91.2441C155.564 94.8058 152.928 97.1129 150.23 97.8779L150.194 97.8877L150.146 98.1045C149.674 100.135 148.653 101.971 147.231 103.428L147.208 103.451L147.284 103.559C148.397 105.127 149.057 107.027 149.103 109.053L149.104 109.278L149.066 111.001L149.077 111.075C149.089 111.169 149.097 111.264 149.102 111.36L149.104 111.505V115.886C149.708 116.597 150.126 117.474 150.324 118.478L150.36 118.68C150.593 120.088 150.315 121.338 149.658 122.338L149.604 122.418L149.729 122.729L149.874 123.104L150.017 123.491C150.162 123.893 150.504 124.894 150.512 124.916L150.624 125.221C150.669 125.339 150.708 125.439 150.749 125.541L150.842 125.768L150.887 125.884C150.919 125.97 150.951 126.068 150.982 126.181C151.016 126.304 151.03 126.356 151.048 126.47L151.1 126.858C151.111 127.086 151.115 127.156 151.094 127.354L151.05 127.721C150.914 128.293 150.891 128.389 150.536 128.927L150.279 129.311C149.436 130.054 149.355 130.124 148.558 130.341L148.28 130.415C147.563 130.453 147.436 130.46 147.125 130.393L146.893 130.339L146.745 130.285L146.725 130.385C145.349 136.51 140.341 141.327 133.929 142.281L133.682 142.316L133.425 142.348C117.723 144.132 101.582 145.023 85.001 145.023C67.9181 145.023 50.0571 144.077 31.418 142.185C23.6538 141.396 17.706 134.905 17.5615 127.051L17.5596 126.793V126.333L17.4736 126.308C15.467 125.672 14.1669 123.555 15.2549 121.253L15.3242 121.112C15.8542 120.081 16.8499 119.044 18.0723 118.162L18.2705 118.022C18.428 116.774 19.005 115.728 19.8506 114.976L19.8955 114.937V114.565L19.876 114.413L19.8643 114.266L19.5693 109.486C19.5651 109.417 19.5625 109.347 19.5625 109.278C19.5626 106.387 20.8051 103.775 22.792 101.968L22.8604 101.905L22.6611 101.604C22.3063 101.046 21.9995 100.456 21.7461 99.8398L21.6699 99.6504L21.5625 99.6475C17.0036 99.4897 13.3683 97.2099 12.2031 93.0469L12.1445 92.8262L12.041 92.4023L11.7871 91.4199L11.6406 90.8301L11.5342 90.377C11.3308 89.496 11.2121 88.8409 11.1836 88.2754C11.1645 87.8972 11.1791 87.547 11.2725 87.1357C11.3757 86.6812 11.5572 86.2365 11.8965 85.7891C12.4767 85.0238 13.373 84.5062 14.4111 84.4492C15.2094 84.4054 15.8712 84.6262 16.4297 84.9795L16.4902 85.0195L16.8643 84.8301C16.9776 84.7731 17.0757 84.7254 17.1641 84.6826L17.4082 84.5674L17.5459 84.5059L17.5391 84.2568C17.539 83.731 17.6266 83.1768 17.8105 82.6025L17.8662 82.4385C18.157 81.6079 18.6768 80.7635 19.3105 80.0371L19.3389 80.0039L19.292 79.8379C18.7195 77.7468 18.7485 75.5145 19.5029 73.4609L19.5938 73.2256L19.8135 72.6816C20.3855 71.2954 20.9155 70.2531 21.5586 69.3945L21.5654 69.3857V68.2764L21.54 68.2529C20.3319 67.1184 19.7384 65.5321 19.5898 63.6895L19.5752 63.4912C19.5531 63.1394 19.5464 62.8438 19.5488 62.4482L19.5586 61.752L19.5654 60.8594C19.737 48.8461 27.6953 38.7221 41.1562 31.5186C53.1601 25.0948 69.044 21.3319 84.7207 21.0195L85.6475 21.0059ZM85.6826 24.3574L84.7715 24.3721C55.12 24.9629 22.9278 38.4437 22.9014 61.2285C22.9222 62.8847 22.516 65.6059 24.9043 66.417V70.6777C24.0835 71.3978 23.5218 72.4519 22.8975 73.9648L22.6865 74.4863C21.7894 76.7439 22.3045 79.323 23.5273 81.2285C23.3174 81.2459 23.1448 81.2789 22.9854 81.3262L22.915 81.3477C22.0127 81.6463 18.5625 85.4477 23.4863 85.7695C22.9462 86.7679 22.0976 87.4374 19.9658 87.3066C18.56 87.2218 16.0119 89.8675 14.9287 88.1602L14.834 88.0176C14.0542 86.9253 14.9114 90.1742 15.2373 91.4277L15.3857 92.0244C16.2097 95.2556 19.4819 96.717 23.6328 96.207L23.916 96.1748C24.0342 96.1627 24.1495 96.1529 24.2598 96.1445C24.4864 99.136 26.3581 101.644 28.9482 102.789C25.5723 103.006 22.9014 105.829 22.9014 109.279L23.1963 114.059H23.2344V117.04C22.2915 117.095 21.5654 117.667 21.5654 118.72C21.5654 119.46 21.545 119.686 21.8779 119.813C20.1307 120.599 18.7158 121.824 18.292 122.649C18.0347 123.151 18.5729 123.192 19.4111 123.15L20.5029 123.085L20.8975 123.069V126.793L20.8994 127.02C21.012 133.139 25.6644 138.231 31.7539 138.85C50.2839 140.731 68.033 141.673 85.001 141.673C101.458 141.673 117.475 140.788 133.05 139.018L133.274 138.989C139.264 138.195 143.763 133.065 143.763 126.976V125.687L143.909 125.696C145.213 125.799 145.677 126.526 146.782 126.646L146.866 126.658C147.576 126.773 147.853 127.298 147.747 127.026L147.501 126.408L147.379 126.075C147.08 125.241 146.589 123.604 145.766 122.104L145.767 121.267C146.694 120.946 147.248 120.328 147.066 119.229C146.912 118.298 146.44 117.772 145.766 117.512V111.506H145.716L145.766 109.279C145.766 106.44 143.957 104.026 141.435 103.14C144.71 102.176 147.101 99.1374 147.102 95.5381V94.627C149.508 95.3623 152.32 93.567 155.536 89.2402C151.087 90.4876 148.418 89.7924 147.529 87.1553L147.451 86.9326C147.076 85.9155 146.58 85.2026 146.013 84.6953C147.821 84.3134 148.445 83.5827 146.867 82.0166C145.757 80.9144 144.949 80.6018 144.121 80.6816C144.322 80.1303 144.431 79.5061 144.431 78.8066V74.4863C144.431 72.6617 144.09 71.5223 143.095 70.7549L143.096 66.1123C144.72 65.2048 145.036 63.1553 145.098 61.2354L145.109 60.6836L145.112 59.8877C145.112 37.5444 115.604 24.0357 85.6826 24.3574Z" fill="white"/>
<path fill-rule="evenodd" clip-rule="evenodd" d="M31.7507 138.849C50.2808 140.731 68.0298 141.672 84.9979 141.672C101.455 141.672 117.471 140.787 133.046 139.016C139.148 138.323 143.759 133.14 143.759 126.975V121.561H20.8945V126.792C20.8945 133.013 25.5859 138.223 31.7507 138.849Z" fill="#EC9D47"/>
<path d="M27.1788 119.474L27.3549 119.556C34.8424 123.165 36.8655 118.774 42.5155 118.968C44.8329 119.048 46.7401 119.566 48.2031 120.166L48.3841 120.044C48.5847 119.914 48.8023 119.79 49.0352 119.672L50.4778 119.667L51.5862 119.657C53.0929 119.642 54.7159 119.612 56.4641 119.566L57.3522 119.539L58.4677 119.499C59.5581 119.467 61.0369 119.448 62.4179 119.549L62.5108 119.577C62.8333 119.753 63.1336 119.949 63.4108 120.164C63.9749 120.602 64.4849 121.032 64.9721 121.426C66.4151 121.225 67.6629 121.118 69.0606 120.729C70.8115 121.059 72.3862 121.448 73.8131 121.895C76.4818 122.731 91.5862 121.045 99.387 121.022L101.336 120.758C105.604 120.195 109.139 119.821 109.935 119.557L109.982 119.54C110.343 119.402 110.711 119.277 111.088 119.166L111.538 119.313L112.009 119.461C115.583 120.554 120.131 121.306 126.599 120.46C128.068 120.268 129.675 120.371 131.322 120.678C133.026 119.537 134.264 120.467 135.686 120.221C137.62 119.888 138.325 119.097 141.211 118.889C145.156 118.606 146.727 124.251 147.379 126.074C148.031 127.897 147.887 126.767 146.782 126.646C145.677 126.525 145.213 125.798 143.909 125.695C138.382 125.256 138.895 132.328 132.145 133.546C128.503 134.204 124.549 130.346 123.02 130.056C121.491 129.767 120.045 130.94 118.514 130.966C111.285 131.088 107.307 127.271 101.234 126.494L101.455 126.217C101.586 126.055 101.719 125.894 101.853 125.734C102.097 125.445 100.99 125.43 99.2084 125.533L98.0526 126.144C93.0674 128.753 86.9687 131.704 87.9927 133.281C85.1718 133.739 82.1872 133.662 78.787 133.505C75.4939 133.353 72.2144 130.77 69.615 130.475C65.0744 129.96 53.0687 133.221 53.0687 133.221C53.0687 133.221 53.8837 130.266 52.0133 129.25C49.4448 127.856 42.7942 127.722 41.8213 128.671C40.8483 129.621 39.7758 130.289 38.3644 130.297C34.885 130.317 33.9134 128.647 32.197 128.267C30.3908 127.868 29.5003 128.493 26.9573 128.751C24.119 129.038 23.7403 127.244 23.9848 125.751L24.0006 125.66C24.8205 121.146 17.4658 124.255 18.2913 122.648C19.1168 121.041 23.7036 117.918 27.1788 119.474Z" fill="#9CC93A"/>
<path fill-rule="evenodd" clip-rule="evenodd" d="M66.5173 119.4C89.0699 122.875 98.5909 117.624 109.397 116.536C116.468 115.824 123.12 116.272 128.302 117.535C128.357 117.548 130.491 117.854 131.677 117.924C133.799 118.049 136.064 118.049 138.472 117.924C138.472 117.924 141.712 117.544 143.516 117.349C145.321 117.153 146.77 117.453 147.064 119.228C147.291 120.6 146.371 121.223 145.009 121.452C143.647 121.68 135.691 120.239 114.387 121.275C93.0822 122.311 94.6889 147.458 89.7831 139.418C84.6982 131.085 74.6763 124.845 67.0792 122.416C59.4822 119.987 39.8973 121.774 34.0062 121.586C28.115 121.398 26.4562 120.811 23.9715 120.239C21.4868 119.666 21.563 120.138 21.563 118.718C21.563 117.439 22.6335 116.871 23.8634 117.076C24.5495 117.19 26.7699 117.965 36.0131 118.218C43.3385 118.418 56.5462 117.863 66.5173 119.4Z" fill="#FFBC0D"/>
<path fill-rule="evenodd" clip-rule="evenodd" d="M139.301 102.775C142.872 102.775 145.767 105.687 145.767 109.279L145.677 113.281C145.677 113.281 142.459 114.651 132.412 114.369C122.365 114.087 116.563 111.718 109.505 112.421C98.7193 113.496 94.6193 117.565 74.3186 115.728C54.0179 113.891 23.1973 114.058 23.1973 114.058L22.9023 109.279C22.9023 105.687 25.7975 102.775 29.3689 102.775C54.2779 101.458 73.0245 100.793 85.6087 100.78C98.193 100.766 115.613 101.444 139.301 102.775Z" fill="#73371F"/>
<path fill-rule="evenodd" clip-rule="evenodd" d="M24.2344 88.2755C24.2344 87.776 24.6393 87.3711 25.1388 87.3711H146.195C146.694 87.3711 147.099 87.776 147.099 88.2755V94.8369C147.099 99.6874 143.089 103.578 138.241 103.437C124.558 103.042 98.5233 102.341 85.6668 102.341C71.8626 102.341 42.8657 103.149 30.2788 103.519C26.9616 103.617 24.2344 100.955 24.2344 97.6363V88.2755Z" fill="#EC9D47"/>
<path d="M61.1955 83.6834L61.8463 83.6211C70.187 82.7648 69.6267 80.5338 73.9453 80.4679C75.8999 80.4374 77.3546 81.1065 78.6171 82.0554C82.1737 79.7577 85.9179 77.884 90.401 77.9786C93.9467 78.0536 97.5885 81.3085 100.395 81.5967C105.298 82.099 114.294 79.1263 117.784 76.0036C118.036 75.7769 118.348 76.1592 118.247 76.5765L118.033 77.4586C117.625 79.2095 117.34 81.2953 119.366 82.5358C122.19 84.2631 126.368 84.1225 130.345 82.9089C131.348 81.6298 132.47 80.7158 133.986 80.6522C137.724 80.4955 138.845 82.6424 140.706 83.0749L140.916 83.1204C143.129 83.5744 146.195 83.2 147.528 87.1558C148.861 91.1116 155.535 89.2404 155.535 89.2404C155.535 89.2404 150.285 96.302 146.474 94.3748L146.306 94.287C138.096 89.8486 136.121 95.6684 130.041 95.6268C127.547 95.6097 125.475 95.0049 123.875 94.2751C122.276 93.5454 111.694 98.5155 107.532 94.8497L107.044 94.412C104.712 92.2871 103.141 90.4426 100.406 91.2084C98.7697 91.6654 96.7191 93.323 91.8491 93.0167C88.7086 92.8198 85.8605 90.6628 83.4138 88.7799C81.2236 89.6856 79.9234 89.2537 77.3685 92.5832L77.2104 92.7918C75.2072 95.4691 73.6242 96.4274 71.0419 95.2218L70.8757 95.1419C66.8825 93.1679 65.0303 96.7317 59.6337 96.4016C56.0633 96.1827 52.7042 89.0454 43.9093 91.6689C42.3597 92.1308 40.5219 91.5397 38.72 90.4343C37.7009 91.7862 36.9878 93.1578 36.4564 94.1244C33.6835 99.1729 31.7556 95.8207 29.7631 96.2104L29.6823 96.2283C27.6839 96.7213 26.7801 95.882 23.9147 96.1751L23.6312 96.2071C19.4047 96.7263 16.0895 95.202 15.3418 91.8465C15.2164 91.2856 13.844 86.4527 14.9273 88.1603C16.0106 89.8679 18.5586 87.2218 19.9645 87.3069C25.9238 87.6724 21.8549 81.7855 29.0538 79.9378C32.5891 79.0298 38.5199 81.4776 41.8632 83.5562L43.2355 82.0199C44.8258 80.2631 46.624 78.5033 48.5217 78.3732C53.6659 78.0198 56.3984 84.1113 61.1955 83.6834Z" fill="#9CC93A"/>
<path fill-rule="evenodd" clip-rule="evenodd" d="M31.3797 69.2728C37.4 69.2728 65.6473 67.2617 83.8901 67.2617C102.356 67.2617 132.809 68.6025 137.95 69.2728C143.09 69.9432 144.427 70.8667 144.427 74.4868C144.427 78.1069 144.427 75.1869 144.427 78.807C144.427 82.427 141.527 84.0209 137.95 84.0209H27.8238C24.2461 84.0209 21.0114 78.6952 22.6837 74.4868C24.356 70.2784 25.3594 69.2728 31.3797 69.2728Z" fill="#73371F"/>
<path d="M22.9116 81.3473C24.0203 80.9804 25.6063 81.3473 36.3847 82.685C40.6108 83.2095 47.3473 83.5933 57.9417 83.3539C65.3611 83.1862 77.044 83.0664 98.3611 82.685C119.678 82.3037 129.254 82.7792 136.086 82.685C142.917 82.5908 143.496 78.6719 146.864 82.0162C150.233 85.3605 143.563 84.8946 136.759 85.3605C129.956 85.8263 130.359 84.0057 107.792 84.6916C85.2257 85.3775 75.7275 87.9285 65.3519 88.0359C45.8016 88.2382 39.753 83.3539 28.3009 85.3605C16.8487 87.367 21.803 81.7142 22.9116 81.3473Z" fill="#EDC8A3"/>
<path fill-rule="evenodd" clip-rule="evenodd" d="M145.111 59.887C145.111 62.6702 145.111 66.5135 141.105 66.5907C137.1 66.5135 104.329 63.1683 85.0142 63.2388C66.5122 63.1683 32.9547 65.8445 27.5883 66.5907C22.2732 67.1826 22.9408 63.3393 22.9141 61.2277C22.9408 38.2127 55.7864 24.6908 85.6819 24.3574C115.603 24.0357 145.111 37.5437 145.111 59.887Z" fill="white"/>
<path fill-rule="evenodd" clip-rule="evenodd" d="M145.098 59.8868L145.094 60.7202C145.06 63.3786 144.71 66.5208 141.091 66.5904L140.817 66.5819C135.781 66.3809 103.929 63.1695 85.001 63.2386L83.8732 63.2376C65.168 63.2743 32.8342 65.8592 27.5751 66.5904C22.26 67.1824 22.9276 63.339 22.9009 61.2275C22.9276 38.2125 55.7732 24.6906 85.6688 24.3572C115.59 24.0354 145.098 37.5435 145.098 59.8868ZM30.5154 57.6332C29.7424 56.9997 28.6068 57.0787 27.9789 57.8096C27.351 58.5406 27.4686 59.6466 28.2415 60.2801C29.0144 60.9136 32.5361 62.2212 32.8772 61.8242C33.2183 61.4272 31.2883 58.2667 30.5154 57.6332ZM114.103 57.7459C113.543 56.8351 110.382 54.2683 109.872 54.5448C109.363 54.8213 110.147 58.6787 110.706 59.5896C111.265 60.5004 112.479 60.826 113.417 60.3169C114.355 59.8078 114.662 58.6567 114.103 57.7459ZM54.2499 54.7922C54.0519 53.7391 53.0096 53.0312 51.9219 53.2109C50.8343 53.3907 50.1132 54.3902 50.3113 55.4432C50.5094 56.4963 52.5865 59.9824 53.1773 59.8847C53.768 59.7871 54.448 55.8453 54.2499 54.7922ZM89.9445 54.2815C89.1716 53.648 88.036 53.727 87.408 54.4579C86.7801 55.1888 86.8977 56.2949 87.6706 56.9284C88.4436 57.5618 91.9653 58.8695 92.3063 58.4725C92.6474 58.0755 90.7174 54.915 89.9445 54.2815ZM75.4131 53.4816C74.906 52.54 73.7594 52.2319 72.8522 52.7934C71.9449 53.3549 69.3882 56.5287 69.6636 57.0401C69.9391 57.5515 73.7814 56.7647 74.6886 56.2032C75.5959 55.6417 75.9202 54.4232 75.4131 53.4816ZM135.815 52.2477C135.087 51.6173 133.986 51.7353 133.355 52.5113C132.724 53.2873 131.421 56.8228 131.817 57.1652C132.212 57.5076 135.36 55.5701 135.991 54.7941C136.622 54.0181 136.544 52.8781 135.815 52.2477ZM117.647 44.5086C117.252 44.1662 114.104 46.1037 113.473 46.8797C112.842 47.6557 112.92 48.7957 113.648 49.4261C114.376 50.0565 115.478 49.9385 116.109 49.1625C116.74 48.3865 118.043 44.851 117.647 44.5086ZM38.5282 44.8963C37.7553 44.2628 36.6197 44.3418 35.9917 45.0727C35.3638 45.8037 35.4814 46.9097 36.2543 47.5432C37.0272 48.1767 40.549 49.4843 40.89 49.0873C41.2311 48.6903 39.3011 45.5298 38.5282 44.8963ZM98.356 40.4461C97.2496 40.4461 96.3528 41.3037 96.3528 42.3615C96.3528 43.4193 97.7551 47.1498 98.356 47.1498C98.9569 47.1498 100.359 43.4193 100.359 42.3615C100.359 41.3037 99.4623 40.4461 98.356 40.4461ZM58.9605 43.4045C58.1876 42.7711 54.6659 41.4634 54.3248 41.8604C53.9838 42.2574 55.9138 45.4179 56.6867 46.0514C57.4596 46.6849 58.5952 46.6059 59.2231 45.875C59.851 45.1441 59.7335 44.038 58.9605 43.4045ZM83.5008 39.7964C82.9914 39.5198 79.83 42.0867 79.2707 42.9975C78.7114 43.9083 79.0183 45.0594 79.9562 45.5685C80.8941 46.0776 82.1079 45.7519 82.6672 44.8411C83.2265 43.9303 84.0102 40.0729 83.5008 39.7964ZM110.34 32.6702C110.142 31.6171 109.1 30.9091 108.012 31.0889C106.925 31.2687 106.203 32.2681 106.402 33.3212C106.6 34.3743 108.677 37.8603 109.268 37.7627C109.858 37.665 110.538 33.7233 110.34 32.6702ZM64.3011 30.3905C63.1947 30.3905 62.2979 31.248 62.2979 32.3058C62.2979 33.3636 63.7002 37.0942 64.3011 37.0942C64.902 37.0942 66.3043 33.3636 66.3043 32.3058C66.3043 31.248 65.4074 30.3905 64.3011 30.3905ZM81.9315 28.1372C81.1585 27.5037 80.0229 27.5827 79.395 28.3136C78.7671 29.0445 78.8847 30.1506 79.6576 30.7841C80.4305 31.4175 83.9523 32.7252 84.2933 32.3282C84.6344 31.9312 82.7044 28.7707 81.9315 28.1372Z" fill="#EC9D47"/>
</svg>
