<svg width="27" height="18" viewBox="0 0 27 18" fill="none" xmlns="http://www.w3.org/2000/svg">
<g clip-path="url(#clip0_109_43773)">
<path d="M0 0H27V18.0002H0V0Z" fill="#0052B4"/>
<path d="M11.7792 9.00107C11.7936 8.98503 11.8078 8.96895 11.822 8.95276C11.8078 8.969 11.7932 8.98493 11.7788 9.00107H11.7792ZM9.97669 11.2121L10.5546 12.4204L11.8596 12.1188L11.2751 13.324L12.3245 14.1562L11.018 14.4507L11.0216 15.79L9.97669 14.9521L8.93181 15.79L8.93545 14.4507L7.62891 14.1562L8.67832 13.324L8.09387 12.1188L9.39883 12.4204L9.97669 11.2121ZM20.4107 12.7131L20.6863 13.2894L21.3087 13.1456L21.03 13.7204L21.5305 14.1174L20.9073 14.2578L20.909 14.8966L20.4107 14.497L19.9123 14.8966L19.914 14.2578L19.2908 14.1174L19.7914 13.7204L19.5126 13.1456L20.1351 13.2894L20.4107 12.7131ZM17.8466 6.59912L18.1222 7.17551L18.7446 7.0316L18.4659 7.60645L18.9664 8.00344L18.3432 8.14387L18.3449 8.78275L17.8466 8.38302L17.3482 8.78275L17.3499 8.14387L16.7267 8.00344L17.2272 7.60645L16.9485 7.0316L17.5709 7.17551L17.8466 6.59912ZM20.4107 3.10547L20.6863 3.68186L21.3087 3.53789L21.03 4.1128L21.5305 4.50973L20.9073 4.65022L20.909 5.28904L20.4107 4.88931L19.9123 5.28904L19.914 4.65022L19.2908 4.50973L19.7914 4.1128L19.5126 3.53789L20.1351 3.68186L20.4107 3.10547ZM22.6503 5.72573L22.926 6.30207L23.5484 6.15821L23.2697 6.73301L23.7702 7.12995L23.147 7.27043L23.1487 7.90925L22.6503 7.50963L22.152 7.90925L22.1537 7.27043L21.5305 7.12995L22.031 6.73301L21.7523 6.15821L22.3747 6.30207L22.6503 5.72573ZM21.0489 8.78275L21.2656 9.44994H21.9672L21.3996 9.86232L21.6165 10.5295L21.0489 10.1172L20.4812 10.5295L20.6981 9.86232L20.1305 9.44994H20.8321L21.0489 8.78275Z" fill="white"/>
<path d="M13.5 0V1.61119L11.1181 2.93477H13.5V6.06503H10.3832L13.5 7.79657V8.99981H12.093L8.21739 6.84687V8.99981H5.28261V6.43834L0.672047 8.99981H0V7.38861L2.38185 6.06503H0V2.93477H3.11676L0 1.20266V0H1.40695L5.28261 2.15299V0H8.21739V2.56147L12.828 0H13.5Z" fill="white"/>
<path d="M7.59375 0H5.90625V3.65618H0V5.34368H5.90625V8.99997H7.59375V5.34368H13.5V3.65618H7.59375V0Z" fill="#D80027"/>
<path d="M8.21875 6.06641L13.5014 9.00118V8.1713L9.71256 6.06641H8.21875Z" fill="#0052B4"/>
<path d="M8.21875 6.06641L13.5014 9.00118V8.1713L9.71256 6.06641H8.21875Z" fill="white"/>
<path d="M8.21739 6.06641L13.5 9.00118V8.1713L9.71119 6.06641H8.21739ZM3.78875 6.06641L0 8.1713V9.00118L5.28261 6.06641H3.78875Z" fill="#D80027"/>
<path d="M5.28261 2.93477L0 0V0.829881L3.78881 2.93477H5.28261Z" fill="#0052B4"/>
<path d="M5.28261 2.93477L0 0V0.829881L3.78881 2.93477H5.28261Z" fill="white"/>
<path d="M5.28261 2.93477L0 0V0.82988L3.78881 2.93477H5.28261ZM9.71125 2.93477L13.5 0.82988V0L8.21739 2.93477H9.71125Z" fill="#D80027"/>
</g>
<rect x="0.5" y="0.5" width="26" height="17" rx="0.5" stroke="black" stroke-opacity="0.2"/>
<defs>
<clipPath id="clip0_109_43773">
<rect width="27" height="18" rx="1" fill="white"/>
</clipPath>
</defs>
</svg>
