<svg width="27" height="18" viewBox="0 0 27 18" fill="none" xmlns="http://www.w3.org/2000/svg">
<g clip-path="url(#clip0_109_43917)">
<path d="M0 0H27V18H0V0Z" fill="black"/>
<path d="M4.67504 7.18359C4.55925 7.86254 4.49609 8.56254 4.49609 9.27833C4.49609 9.99412 4.55925 10.6994 4.67504 11.3731L13.475 12.0152L22.2751 11.3783C22.3908 10.6994 22.454 9.99938 22.454 9.28359C22.454 8.5678 22.3908 7.86254 22.2751 7.18886" fill="#0072C6"/>
<path d="M22.2719 11.5273H4.67188C5.50345 15.201 9.12977 17.9642 13.4719 17.9642C17.814 17.9642 21.4403 15.201 22.2719 11.5273Z" fill="white"/>
<path d="M19.2559 7.18359H7.6875L10.0507 6.07307L8.79276 3.78359L11.3612 4.27833L11.6822 1.68359L13.4717 3.58886L15.2612 1.68359L15.5822 4.27833L18.1507 3.78359L16.8928 6.07307L19.2559 7.18359Z" fill="#FFDA44"/>
<path d="M13.5 18L0 0V18H13.5Z" fill="#CE1126"/>
<path d="M26.999 18V0L13.4727 18H26.999Z" fill="#CE1126"/>
</g>
<rect x="0.5" y="0.5" width="26" height="17" rx="0.5" stroke="black" stroke-opacity="0.2"/>
<defs>
<clipPath id="clip0_109_43917">
<rect width="27" height="18" rx="1" fill="white"/>
</clipPath>
</defs>
</svg>
