<svg width="153" height="98" viewBox="0 0 153 98" fill="none" xmlns="http://www.w3.org/2000/svg">
<g clip-path="url(#clip0_3743_44511)">
<path d="M61.3818 14.1211C54.3283 14.1211 48.0356 23.5403 43.9187 38.2643C39.8043 23.5403 33.5091 14.1211 26.4529 14.1211C14.0552 14.1211 4 45.4566 4 84.1097H13.9797C13.9797 48.2187 19.5662 19.1231 26.4529 19.1231C33.3423 19.1231 38.9288 45.984 38.9288 79.113H48.9059C48.9059 45.984 54.4924 19.1231 61.3818 19.1231C68.2711 19.1231 73.8577 48.2187 73.8577 84.1097H83.8347C83.8347 45.4566 73.7821 14.1211 61.3818 14.1211Z" fill="#FFBC0D"/>
<path d="M146.508 43.4882C145.945 41.9192 145.182 40.5199 144.21 39.2929C143.238 38.0659 142.141 37.0921 140.916 36.3768C139.692 35.6615 138.415 35.3012 137.086 35.3012C134.908 35.3012 133.052 36.0687 131.52 37.6038C129.988 39.1389 128.407 41.491 126.77 44.663C126.124 45.9239 125.527 46.8977 124.983 47.5791C124.438 48.2604 123.782 48.7382 123.018 49.0123C122.252 49.2864 121.189 49.4222 119.826 49.4222C118.531 49.4222 117.317 49.4143 116.176 49.3961C115.034 49.3804 113.987 49.3543 113.036 49.3204C114.193 48.1612 115.113 46.9499 115.793 45.689C116.473 44.428 116.814 43.1645 116.814 41.9035C116.814 40.3006 116.345 38.9117 115.41 37.7343C114.474 36.5569 113.221 35.6537 111.657 35.0219C110.091 34.3901 108.356 34.0742 106.449 34.0742C104.406 34.0742 102.397 34.3823 100.424 34.9958C98.4493 35.6093 96.4586 36.463 94.4496 37.5542V44.5638C95.5049 45.6837 96.5342 46.7463 97.54 47.7488C98.5431 48.7512 99.5567 49.6754 100.578 50.5239C97.48 51.5498 95.1818 53.0718 93.6836 55.0873C92.1853 57.1053 91.4375 59.293 91.4375 61.6504C91.4375 65.4358 92.7403 68.3258 95.3434 70.323C97.9464 72.3175 101.6 73.3148 106.295 73.3148C109.8 73.3148 112.78 72.9388 115.23 72.1896L115.688 64.3629C113.883 64.6004 112.319 64.7623 110.99 64.8484C109.664 64.932 108.2 64.9764 106.6 64.9764C100.982 64.9764 98.1731 63.4074 98.1731 60.2694C98.1731 59.0084 98.8193 57.8833 100.114 56.8938C101.407 55.9044 103.262 55.1551 105.68 54.6435C106.905 55.3953 108.132 56.0245 109.357 56.5362C110.581 57.0479 112.012 57.4316 113.646 57.6875C115.279 57.9433 117.338 58.0712 119.824 58.0712C121.627 58.0712 123.245 57.7997 124.673 57.2515C126.103 56.7059 127.26 55.9044 128.146 54.8471C129.1 55.9723 130.35 56.8599 131.898 57.5073C133.446 58.1548 135.192 58.4785 137.133 58.4785C140.536 58.4785 143.09 57.5674 144.791 55.7425C146.492 53.9177 147.345 51.4715 147.345 48.4014C147.35 46.6967 147.068 45.0572 146.508 43.4882ZM106.808 47.9393C105.651 47.2919 104.552 46.5061 103.515 45.5871C102.475 44.6656 101.446 43.6083 100.424 42.4152C102.295 41.5276 104.236 41.0838 106.245 41.0838C107.642 41.0838 108.713 41.2979 109.463 41.7234C110.211 42.1515 110.586 42.7389 110.586 43.4882C110.586 45.3652 109.325 46.8481 106.808 47.9393ZM140.098 49.7563C139.246 50.1479 138.225 50.3437 137.034 50.3437C135.979 50.3437 134.973 50.2419 134.022 50.0357C133.068 49.832 132.234 49.4404 131.52 48.8583C132.406 46.8794 133.308 45.4305 134.228 44.5089C135.147 43.5874 136.135 43.1279 137.19 43.1279C137.938 43.1279 138.629 43.3681 139.259 43.8432C139.89 44.321 140.4 44.9266 140.791 45.6602C141.182 46.3938 141.378 47.1535 141.378 47.9367C141.375 48.7591 140.95 49.3647 140.098 49.7563Z" fill="url(#paint0_linear_3743_44511)"/>
</g>
<defs>
<linearGradient id="paint0_linear_3743_44511" x1="158.172" y1="53.6957" x2="95.7491" y2="53.6957" gradientUnits="userSpaceOnUse">
<stop stop-color="#7A0157"/>
<stop offset="0.000616698" stop-color="#7A0157"/>
<stop offset="0.0237" stop-color="#810252"/>
<stop offset="0.1177" stop-color="#9E033C"/>
<stop offset="0.2092" stop-color="#B90429"/>
<stop offset="0.2963" stop-color="#CF0519"/>
<stop offset="0.3777" stop-color="#E0050D"/>
<stop offset="0.4512" stop-color="#EA0608"/>
<stop offset="0.5101" stop-color="#EE0605"/>
<stop offset="1" stop-color="#F45B04"/>
</linearGradient>
<clipPath id="clip0_3743_44511">
<rect width="144.614" height="70.5717" fill="white" transform="translate(4 14)"/>
</clipPath>
</defs>
</svg>
