<svg width="44" height="44" viewBox="0 0 44 44" fill="none" xmlns="http://www.w3.org/2000/svg">
<g clip-path="url(#clip0_17_28676)">
<path d="M9.67371 16.2051L9.53519 16.2103C9.00468 16.2316 8.47421 16.2708 7.94377 16.3279L7.91842 16.3311C7.59882 16.3755 7.33494 16.6026 7.2419 16.9107L7.23724 16.9266L6.13304 16.9267C5.77435 16.9267 5.46823 17.1867 5.40927 17.5413L5.26414 18.4142L5.26138 18.4332C5.2362 18.6353 5.3465 18.8233 5.52074 18.9057L5.5294 18.9096L5.53408 18.9801C5.58509 19.8613 5.64158 20.7456 5.70331 21.6289L5.74094 22.1583C5.81757 23.2184 5.90171 24.2767 5.99339 25.3337C6.17676 27.4477 6.39122 29.5669 6.63676 31.6912C6.66142 31.9045 6.83007 32.0723 7.04303 32.0954C8.1906 32.2197 9.33827 32.2819 10.486 32.2819L10.6871 32.2813C11.7687 32.2744 12.8489 32.2124 13.9289 32.0954C14.1419 32.0723 14.3105 31.9045 14.3352 31.6913C14.5798 29.5773 14.7943 27.4581 14.9786 25.3337L15.024 24.8027C15.1882 22.8562 15.3262 20.914 15.4381 18.9761L15.4429 18.9094L15.4505 18.9061C15.6306 18.8213 15.7427 18.6238 15.7078 18.4142L15.5627 17.5413L15.5584 17.5178C15.4901 17.1752 15.1897 16.9267 14.8389 16.9267L13.7346 16.9266L13.7301 16.9107C13.6346 16.5945 13.3592 16.3636 13.0282 16.3279L12.8447 16.3089C12.4167 16.2662 11.9886 16.235 11.5605 16.2156L11.5249 16.214L12.4538 9.58924C12.489 9.33781 12.3143 9.10533 12.0635 9.07L11.1552 8.94203C10.9044 8.90669 10.6725 9.08187 10.6372 9.33331L9.67371 16.2051Z" fill="white"/>
<path fill-rule="evenodd" clip-rule="evenodd" d="M5.92578 18.998C5.92578 18.998 8.1994 19.1836 10.473 19.1836C12.7466 19.1836 15.0203 18.998 15.0203 18.998C15.0203 18.998 14.8353 22.1918 14.5562 25.4013C14.2772 28.6108 13.9066 31.8046 13.9066 31.8046C13.9066 31.8046 12.1898 31.9902 10.473 31.9902C8.7562 31.9902 7.03939 31.8046 7.03939 31.8046C7.03939 31.8046 6.6675 28.5951 6.38978 25.4013C6.11207 22.2076 5.92578 18.998 5.92578 18.998Z" fill="white"/>
<mask id="mask0_17_28676" style="mask-type:luminance" maskUnits="userSpaceOnUse" x="5" y="18" width="11" height="14">
<path fill-rule="evenodd" clip-rule="evenodd" d="M5.92578 18.998C5.92578 18.998 8.1994 19.1836 10.473 19.1836C12.7466 19.1836 15.0203 18.998 15.0203 18.998C15.0203 18.998 14.8353 22.1918 14.5562 25.4013C14.2772 28.6108 13.9066 31.8046 13.9066 31.8046C13.9066 31.8046 12.1898 31.9902 10.473 31.9902C8.7562 31.9902 7.03939 31.8046 7.03939 31.8046C7.03939 31.8046 6.6675 28.5951 6.38978 25.4013C6.11207 22.2076 5.92578 18.998 5.92578 18.998Z" fill="white"/>
</mask>
<g mask="url(#mask0_17_28676)">
</g>
<path fill-rule="evenodd" clip-rule="evenodd" d="M7.88904 24.7924C7.45446 23.2621 6.82776 22.1918 6.11332 21.8782C6.11301 21.876 6.11301 21.876 6.18064 22.7951C6.80634 23.7909 7.25693 26.5884 7.25693 29.8836H8.52134C8.52134 25.7543 9.22891 22.4064 10.1018 22.4064C10.9747 22.4064 11.6825 26.033 11.6825 30.5065H12.9465C12.9465 25.6889 11.673 21.7832 10.1018 21.7832C9.20809 21.7832 8.41082 22.957 7.88904 24.7924Z" fill="#A0A09F"/>
<path fill-rule="evenodd" clip-rule="evenodd" d="M15.0238 18.998C15.0238 18.998 14.8389 22.1918 14.5598 25.4013C14.2807 28.6108 13.9102 31.8046 13.9102 31.8046C13.9102 31.8046 12.1934 31.9902 10.4766 31.9902C11.8298 31.9902 12.5104 27.7089 12.5181 19.1465C13.9102 19.0908 15.0238 18.998 15.0238 18.998Z" fill="#A0A09F" fill-opacity="0.15"/>
<path d="M11.0859 9.35742L12.0049 9.48658L10.9419 17.0501L10.005 17.0489L11.0859 9.35742Z" fill="#F1F1F1"/>
<path d="M11.5469 9.42188L11.8226 9.46062L10.756 17.0498L10.4749 17.0494L11.5469 9.42188Z" fill="#EAEAEA"/>
<path fill-rule="evenodd" clip-rule="evenodd" d="M6.06988 17.4199H14.8783C15.0144 17.4199 15.1305 17.5183 15.1529 17.6526L15.2997 18.5335C13.6912 18.6573 12.0826 18.7191 10.4741 18.7191C8.86553 18.7191 7.25698 18.6573 5.64844 18.5335L5.79527 17.6526C5.81764 17.5183 5.93379 17.4199 6.06988 17.4199Z" fill="#F1F1F1"/>
<path fill-rule="evenodd" clip-rule="evenodd" d="M7.95187 16.8132C8.79274 16.7229 9.63361 16.6777 10.4745 16.6777C11.3153 16.6777 12.1562 16.7229 12.9971 16.8132C13.1535 16.83 13.2824 16.9436 13.3187 17.0967L13.3513 17.2345H7.59766L7.6303 17.0967C7.66656 16.9436 7.79542 16.83 7.95187 16.8132Z" fill="#F1F1F1"/>
<path fill-rule="evenodd" clip-rule="evenodd" d="M25.0284 21.0202H24.4538C24.4538 21.0202 24.8049 23.7747 25.349 26.4989C25.893 29.2232 26.6421 31.9776 26.6421 31.9776L27.4378 32.5699C27.4378 32.5699 28.9299 31.9776 30.9193 31.9776C32.9087 31.9776 34.5002 32.5699 34.5002 32.5699L35.2959 31.9776C35.2959 31.9776 36.039 29.2534 36.5891 26.4989C37.1392 23.7445 37.4843 21.0202 37.4843 21.0202H36.9842L37.0895 20.6253L37.0867 20.625H37.0891C37.484 19.3417 37.6814 18.4533 37.8789 17.17C37.37 17.028 36.699 17.1521 36.6546 17.3273C36.6026 17.5321 36.5642 17.6692 36.5191 17.8304C36.4982 17.905 36.4759 17.9849 36.45 18.0791C36.2412 17.8471 35.8089 17.7282 35.3882 17.6882C35.2826 18.6518 35.1775 19.0577 34.949 19.9399L34.8816 20.2007C34.936 18.8681 35.0147 18.129 35.2463 16.75C34.771 16.654 34.1521 16.7324 33.9612 17.0755C33.8357 17.8628 33.7684 18.2993 33.7214 18.9841L33.7136 18.7767C33.6714 17.6582 33.6446 16.9499 33.5436 15.7331C32.9413 15.7811 32.3819 16.0591 32.2785 16.4305L32.2851 16.5209L32.2851 16.5209C32.2973 16.6903 32.3138 16.9173 32.3224 17.0584C31.9078 17.0492 31.4596 17.2276 31.297 17.3576C31.2243 17.7209 31.1794 18.026 31.1362 18.3202L31.1362 18.3202L31.1362 18.3202C31.0698 18.7723 31.0072 19.1985 30.8529 19.7698C30.8529 19.7698 30.7498 19.0418 31.1031 16.0071C31.1243 15.825 30.4472 15.3644 29.9665 15.3004C29.8585 16.1838 29.7638 17.066 29.6807 17.9477C29.6334 16.9073 29.5528 15.8613 29.4372 14.8052C29.0715 14.7409 28.2882 15.3918 28.3059 15.5717C28.5108 17.6541 28.5145 17.984 28.5259 19.3778C28.3394 18.1128 28.2618 17.6462 28.0913 16.884C27.6113 16.9199 26.9262 17.4312 26.9616 17.6085C27.1314 18.461 27.1645 18.834 27.2198 19.9497C27.0711 19.1137 26.9487 18.6309 26.8039 18.06C26.7149 17.7091 26.6174 17.3248 26.5003 16.8046C26.4816 16.7215 25.6377 16.4677 25.1691 16.5923C25.2071 16.7488 25.2458 16.9053 25.2844 17.0618C25.51 17.9747 25.7354 18.887 25.8324 19.7864C25.5657 19.094 25.3177 18.3869 25.0925 17.659C24.6261 17.7916 24.0329 18.6876 24.0595 18.7686C24.1996 19.1962 24.3666 19.5568 24.5378 19.9266C24.6414 20.1504 24.7466 20.3775 24.8483 20.625H24.8487L25.0284 21.0202Z" fill="white"/>
<path fill-rule="evenodd" clip-rule="evenodd" d="M24.4531 21.0195H26.0326C26.0326 21.0195 27.3377 24.7707 30.9187 24.7707C34.4996 24.7707 35.9042 21.0195 35.9042 21.0195H37.4837C37.4837 21.0195 37.1385 23.7438 36.5884 26.4983C36.0383 29.2528 35.2953 31.977 35.2953 31.977L34.4996 32.5693C34.4996 32.5693 32.9081 31.977 30.9187 31.977C28.9293 31.977 27.4372 32.5693 27.4372 32.5693L26.6415 31.977C26.6415 31.977 25.8924 29.2225 25.3484 26.4983C24.8043 23.774 24.4531 21.0195 24.4531 21.0195Z" fill="#6F6F6F"/>
<path fill-rule="evenodd" clip-rule="evenodd" d="M31.9234 25.9551C31.4785 25.9551 31.0817 26.5263 30.822 27.4194C30.5626 26.5263 30.1656 25.9551 29.7207 25.9551C28.9389 25.9551 28.3047 27.8556 28.3047 30.1999H28.9341C28.9341 28.0231 29.2864 26.2583 29.7207 26.2583C30.1553 26.2583 30.5074 27.8874 30.5074 29.8968H31.1367C31.1367 27.8874 31.4889 26.2583 31.9234 26.2583C32.3578 26.2583 32.7101 28.0231 32.7101 30.1999H33.3392C33.3392 27.8556 32.7054 25.9551 31.9234 25.9551Z" fill="#F1F1F1"/>
<path fill-rule="evenodd" clip-rule="evenodd" d="M26.4278 20.625C26.4278 20.625 27.7111 24.3762 30.9687 24.3762C34.2264 24.3762 35.5097 20.625 35.5097 20.625C35.5097 20.625 36.3981 20.625 37.0891 20.625C37.484 19.3417 37.6814 18.4533 37.8789 17.17C37.37 17.028 36.699 17.1522 36.6546 17.3273C36.5785 17.627 36.5316 17.7817 36.45 18.0791C36.2412 17.8471 35.8089 17.7283 35.3882 17.6882C35.2727 18.7419 35.1578 19.1287 34.8816 20.2007C34.936 18.8681 35.0147 18.129 35.2463 16.75C34.771 16.654 34.1521 16.7324 33.9612 17.0755C33.8357 17.8628 33.7684 18.2993 33.7214 18.9841C33.6743 17.7419 33.6507 17.0234 33.5436 15.7331C32.9413 15.7811 32.3819 16.0591 32.2785 16.4305C32.2907 16.5996 32.3122 16.8901 32.3224 17.0584C31.9078 17.0492 31.4596 17.2276 31.297 17.3576C31.1124 18.2794 31.1076 18.8268 30.8529 19.7698C30.8529 19.7698 30.7498 19.0418 31.1031 16.0071C31.1243 15.825 30.4472 15.3644 29.9665 15.3004C29.8585 16.1838 29.7638 17.066 29.6807 17.9477C29.6334 16.9073 29.5528 15.8613 29.4372 14.8052C29.0715 14.7409 28.2882 15.3918 28.3059 15.5717C28.5108 17.6541 28.5145 17.984 28.5259 19.3779C28.3394 18.1128 28.2618 17.6462 28.0913 16.8841C27.6113 16.9199 26.9262 17.4312 26.9616 17.6085C27.1314 18.461 27.1645 18.834 27.2198 19.9498C26.9797 18.5997 26.8081 18.1709 26.5003 16.8047C26.4816 16.7215 25.6377 16.4677 25.1691 16.5923C25.4289 17.6615 25.7187 18.7329 25.8324 19.7864C25.5657 19.094 25.3177 18.387 25.0925 17.659C24.6261 17.7917 24.0329 18.6876 24.0595 18.7686C24.2845 19.455 24.5783 19.9685 24.8483 20.625H26.4278Z" fill="#A0A09F"/>
<path fill-rule="evenodd" clip-rule="evenodd" d="M27.8143 15.62C27.7805 15.2777 28.033 14.9968 28.4336 14.7001C28.8089 14.4223 29.1805 14.2589 29.5223 14.3191C29.7385 14.3571 29.9035 14.5333 29.9274 14.7515L29.9333 14.8078L29.9461 14.8071C29.967 14.8063 29.9882 14.8068 30.0096 14.8087L30.0311 14.8111C30.7222 14.903 31.6579 15.5053 31.5929 16.0641C31.5783 16.1892 31.5644 16.3113 31.5512 16.4304L31.5218 16.6994L31.5494 16.6902C31.6284 16.6644 31.7104 16.6418 31.7936 16.6232L31.797 16.6224L31.7862 16.4722L31.7845 16.4377C31.7838 16.3906 31.7899 16.3436 31.8025 16.2981C31.9711 15.6926 32.6953 15.3055 33.5039 15.241C33.775 15.2194 34.0125 15.4212 34.035 15.6922C34.0485 15.8541 34.0607 16.0085 34.072 16.1578L34.0866 16.3572L34.0911 16.3553C34.4422 16.207 34.8828 16.1796 35.3071 16.259L35.3435 16.2661C35.6045 16.3188 35.7767 16.569 35.7326 16.8317C35.7195 16.9095 35.7069 16.9853 35.6948 17.0591L35.6679 17.2258L35.7415 17.238C35.8734 17.2614 35.9989 17.2916 36.1165 17.3293L36.1417 17.3375L36.1577 17.2763L36.1757 17.2059C36.3195 16.6388 37.2932 16.4942 38.011 16.6945C38.2517 16.7616 38.4042 16.998 38.3662 17.245C38.1781 18.4681 37.9895 19.3305 37.6596 20.4422L37.628 20.5478L37.6378 20.5507C37.8494 20.6202 37.9955 20.8286 37.9753 21.0618L37.9732 21.0819C37.7416 22.9097 37.4413 24.7475 37.0723 26.5952C36.7034 28.4427 36.2697 30.2801 35.7714 32.1072C35.7423 32.2137 35.6785 32.3074 35.5899 32.3733L34.7942 32.9656C34.6599 33.0655 34.4841 33.0906 34.3273 33.0322C33.3238 32.6587 32.1882 32.4709 30.9185 32.4709C29.6516 32.4709 28.5525 32.6579 27.6192 33.0284C27.4601 33.0915 27.2797 33.0678 27.1424 32.9656L26.3466 32.3733C26.258 32.3073 26.194 32.2135 26.1651 32.1068C25.6628 30.2597 25.2291 28.4225 24.8642 26.5952C24.4992 24.7677 24.199 22.9301 23.9634 21.0823C23.9335 20.8476 24.0728 20.6345 24.2807 20.5571L24.282 20.5566L24.2326 20.4459L24.1871 20.3458L24.0008 19.9418C23.8301 19.569 23.7197 19.3043 23.6197 19.0111L23.5899 18.9222C23.4928 18.6255 23.6588 18.352 24.0073 17.9222L24.0399 17.8824C24.2797 17.5935 24.5278 17.3698 24.7865 17.2485L24.8182 17.2342L24.689 16.7088C24.6256 16.4479 24.7824 16.1842 25.0418 16.1152C25.343 16.0352 25.7183 16.0547 26.1064 16.1379C26.2596 16.1707 26.4061 16.2126 26.5238 16.2569C26.5904 16.282 26.649 16.3082 26.7004 16.3374C26.7398 16.3598 26.7762 16.3844 26.8116 16.4154C26.8906 16.4844 26.9525 16.5679 26.9813 16.6961L27.0089 16.8173L27.0549 16.7852C27.3196 16.605 27.614 16.4686 27.8909 16.4141L27.8807 16.3054L27.8143 15.62ZM29.68 17.9476C29.6327 16.9071 29.5521 15.8612 29.4365 14.8051C29.0708 14.7407 28.2875 15.3917 28.3052 15.5716C28.471 17.2562 28.5051 17.7939 28.5181 18.6758L28.5253 19.3777C28.3551 18.2237 28.2756 17.7341 28.1335 17.0784L28.0906 16.8839C27.6106 16.9198 26.9255 17.431 26.9609 17.6083C27.1137 18.3756 27.1558 18.7545 27.203 19.636L27.2191 19.9497C27.0704 19.1136 26.948 18.6308 26.8032 18.0599C26.724 17.7474 26.638 17.4084 26.5374 16.9706L26.4996 16.8045C26.4809 16.7214 25.637 16.4676 25.1684 16.5922C25.2064 16.7487 25.2451 16.9052 25.2838 17.0617C25.5093 17.9746 25.7347 18.8869 25.8317 19.7863C25.565 19.0939 25.317 18.3868 25.0918 17.6588C24.6254 17.7915 24.0322 18.6875 24.0588 18.7685C24.199 19.1961 24.3659 19.5567 24.5371 19.9265C24.6262 20.119 24.7165 20.3141 24.8048 20.5224L24.8476 20.6249L25.0271 21.0198H24.4528C24.6869 22.8561 24.9853 24.6823 25.348 26.4985C25.7107 28.3147 26.1417 30.1409 26.6411 31.9773L27.4369 32.5695C28.4316 32.1747 29.592 31.9773 30.9183 31.9773C32.2446 31.9773 33.4382 32.1747 34.4992 32.5695L35.295 31.9773C35.7903 30.1611 36.2213 28.3348 36.5881 26.4985C36.9548 24.6622 37.2532 22.8359 37.4833 21.0198H36.9831L37.0884 20.6249L37.1238 20.5093C37.4953 19.2874 37.6867 18.4143 37.8782 17.1698C37.3693 17.0279 36.6983 17.152 36.6539 17.3272C36.6285 17.4271 36.6064 17.5108 36.5852 17.5892L36.4494 18.079C36.2406 17.847 35.8082 17.7281 35.3875 17.6881C35.294 18.5411 35.2009 18.957 35.0223 19.6532L34.8809 20.2006C34.9327 18.933 35.0064 18.2024 35.2128 16.9472L35.2456 16.7498C34.7703 16.6539 34.1514 16.7322 33.9605 17.0754C33.8433 17.8102 33.777 18.2394 33.7304 18.8502L33.7207 18.984C33.7181 18.9133 33.7154 18.8442 33.7129 18.7767C33.6732 17.7259 33.6472 17.0371 33.5605 15.9488L33.5429 15.733C32.9406 15.781 32.3812 16.0589 32.2778 16.4304C32.2798 16.4577 32.282 16.4882 32.2844 16.5209C32.2933 16.6436 32.3044 16.7966 32.3131 16.9252L32.3217 17.0583C31.9071 17.049 31.4589 17.2275 31.2963 17.3575C31.2236 17.7208 31.1787 18.0259 31.1355 18.3201C31.0691 18.7722 31.0065 19.1984 30.8522 19.7697C30.8522 19.7697 30.7572 19.0988 31.0622 16.3602L31.1024 16.007C31.1236 15.8249 30.4465 15.3642 29.9658 15.3003C29.8579 16.1837 29.7631 17.0659 29.68 17.9476Z" fill="white"/>
<path d="M25.0622 31.8748H15.0631L13.0508 27.2617H27.0746L25.0622 31.8748Z" fill="#A0A09F"/>
<path d="M26.9955 27.4473L26.2711 29.108H13.8573L13.1328 27.4473H26.9955Z" fill="#6F6F6F"/>
<path d="M14.7355 21.9168C14.7743 21.8019 14.882 21.7246 15.0032 21.7246H25.1229C25.2441 21.7246 25.3518 21.8019 25.3906 21.9168L27.3181 27.6254C27.3799 27.8086 27.2437 27.9984 27.0503 27.9984H13.0758C12.8824 27.9984 12.7462 27.8086 12.808 27.6254L14.7355 21.9168Z" fill="#A0A09F"/>
<path fill-rule="evenodd" clip-rule="evenodd" d="M15.0656 31.8734L13.3753 27.9985H13.0782C12.8848 27.9985 12.7485 27.8087 12.8104 27.6255L14.7378 21.9169C14.7766 21.802 14.8843 21.7247 15.0056 21.7247H25.1252C25.2465 21.7247 25.3542 21.802 25.393 21.9169L27.3204 27.6255C27.3823 27.8087 27.246 27.9985 27.0527 27.9985H26.755L25.0647 31.8734H15.0656ZM27.0326 28.4224H27.0527C27.5361 28.4224 27.8767 27.9479 27.7221 27.4899L25.7946 21.7813C25.6977 21.4941 25.4283 21.3008 25.1252 21.3008H15.0056C14.7025 21.3008 14.4332 21.4941 14.3362 21.7813L12.4088 27.4899C12.2541 27.9479 12.5948 28.4224 13.0782 28.4224H13.0977L14.788 32.2973H25.3422L27.0326 28.4224Z" fill="white"/>
<path fill-rule="evenodd" clip-rule="evenodd" d="M23.9838 23.8338C24.3658 23.8338 24.6757 25.3685 24.6757 27.2608H25.2294C25.2294 25.2225 24.6716 23.5703 23.9838 23.5703C23.5927 23.5703 23.2434 24.067 23.0151 24.8434C22.7867 24.067 22.4376 23.5703 22.0462 23.5703C21.3586 23.5703 20.8008 25.2225 20.8008 27.2608H21.3544C21.3544 25.3685 21.6643 23.8338 22.0462 23.8338C22.4285 23.8338 22.7383 25.2502 22.7383 26.9973H23.2918C23.2918 25.2502 23.6019 23.8338 23.9838 23.8338Z" fill="#F1F1F1"/>
<path d="M42.3899 31.732V32.6546C42.3899 33.1641 41.9768 33.5772 41.4673 33.5772H2.53274C2.02319 33.5772 1.61012 33.1641 1.61012 32.6546V31.732C1.10057 31.732 0.6875 31.3189 0.6875 30.8093C0.6875 30.2998 1.10057 29.8867 1.61012 29.8867C2.62922 29.8867 3.45536 30.7129 3.45536 31.732H40.5446C40.5446 30.7129 41.3708 29.8867 42.3899 29.8867C42.8994 29.8867 43.3125 30.2998 43.3125 30.8093C43.3125 31.3189 42.8994 31.732 42.3899 31.732Z" fill="#A0A09F"/>
<path fill-rule="evenodd" clip-rule="evenodd" d="M1.61113 30.0997C1.21864 30.0997 0.900468 30.4179 0.900468 30.8104C0.900468 31.2028 1.21864 31.521 1.61113 31.521H1.82309V32.6556C1.82309 33.0481 2.14126 33.3663 2.53375 33.3663H41.4683C41.8608 33.3663 42.1789 33.0481 42.1789 32.6556V31.521H42.3909C42.7834 31.521 43.1016 31.2028 43.1016 30.8104C43.1016 30.4179 42.7834 30.0997 42.3909 30.0997C41.4889 30.0997 40.7576 30.8309 40.7576 31.733V31.9449H3.24442V31.733C3.24442 30.8309 2.51317 30.0997 1.61113 30.0997ZM0.476562 30.8104C0.476562 30.1837 0.984528 29.6758 1.61113 29.6758C2.67573 29.6758 3.55145 30.4844 3.65754 31.521H40.3445C40.4506 30.4844 41.3263 29.6758 42.3909 29.6758C43.0175 29.6758 43.5255 30.1837 43.5255 30.8104C43.5255 31.3645 43.1282 31.8259 42.6028 31.9252V32.6556C42.6028 33.2822 42.0949 33.7902 41.4683 33.7902H2.53375C1.90715 33.7902 1.39918 33.2822 1.39918 32.6556V31.9252C0.873872 31.8259 0.476562 31.3645 0.476562 30.8104Z" fill="white"/>
</g>
<defs>
<clipPath id="clip0_17_28676">
<rect width="44" height="44" fill="white"/>
</clipPath>
</defs>
</svg>
