<svg width="27" height="18" viewBox="0 0 27 18" fill="none" xmlns="http://www.w3.org/2000/svg">
<g clip-path="url(#clip0_109_43916)">
<path d="M0 0H27V18H0V0Z" fill="white"/>
<path d="M0 0H27V1.38421H0V0ZM0 2.76842H27V4.15263H0V2.76842ZM0 5.53684H27V6.92105H0V5.53684ZM0 8.30526H27V9.68947H0V8.30526ZM0 11.0789H27V12.4632H0V11.0789ZM0 13.8474H27V15.2316H0V13.8474ZM0 16.6158H27V18H0V16.6158Z" fill="#D80027"/>
<path d="M0 0H13.5V9.68947H0V0Z" fill="#2E52B2"/>
<path d="M2.51575 7.31131L2.30522 6.63763L2.07364 7.31131H1.37891L1.94206 7.71657L1.73154 8.39026L2.30522 7.97447L2.86312 8.39026L2.64733 7.71657L3.22101 7.31131H2.51575ZM5.47891 7.31131L5.26312 6.63763L5.04207 7.31131H4.34733L4.91049 7.71657L4.69996 8.39026L5.26312 7.97447L5.83154 8.39026L5.62101 7.71657L6.18417 7.31131H5.47891ZM8.45259 7.31131L8.22628 6.63763L8.01575 7.31131H7.30522L7.88417 7.71657L7.66312 8.39026L8.22628 7.97447L8.80522 8.39026L8.58417 7.71657L9.14733 7.31131H8.45259ZM11.4105 7.31131L11.2 6.63763L10.9789 7.31131H10.2789L10.8473 7.71657L10.6368 8.39026L11.2 7.97447L11.7684 8.39026L11.5421 7.71657L12.121 7.31131H11.4105ZM5.26312 3.96394L5.04207 4.63762H4.34733L4.91049 5.05341L4.69996 5.71657L5.26312 5.30605L5.83154 5.71657L5.62101 5.05341L6.18417 4.63762H5.47891L5.26312 3.96394ZM2.30522 3.96394L2.07364 4.63762H1.37891L1.94206 5.05341L1.73154 5.71657L2.30522 5.30605L2.86312 5.71657L2.64733 5.05341L3.22101 4.63762H2.51575L2.30522 3.96394ZM8.22628 3.96394L8.01575 4.63762H7.30522L7.88417 5.05341L7.66312 5.71657L8.22628 5.30605L8.80522 5.71657L8.58417 5.05341L9.14733 4.63762H8.45259L8.22628 3.96394ZM11.2 3.96394L10.9789 4.63762H10.2789L10.8473 5.05341L10.6368 5.71657L11.2 5.30605L11.7684 5.71657L11.5421 5.05341L12.121 4.63762H11.4105L11.2 3.96394ZM2.30522 1.30078L2.07364 1.96394H1.37891L1.94206 2.37973L1.73154 3.04815L2.30522 2.63236L2.86312 3.04815L2.64733 2.37973L3.22101 1.96394H2.51575L2.30522 1.30078ZM5.26312 1.30078L5.04207 1.96394H4.34733L4.91049 2.37973L4.69996 3.04815L5.26312 2.63236L5.83154 3.04815L5.62101 2.37973L6.18417 1.96394H5.47891L5.26312 1.30078ZM8.22628 1.30078L8.01575 1.96394H7.30522L7.88417 2.37973L7.66312 3.04815L8.22628 2.63236L8.80522 3.04815L8.58417 2.37973L9.14733 1.96394H8.45259L8.22628 1.30078ZM11.2 1.30078L10.9789 1.96394H10.2789L10.8473 2.37973L10.6368 3.04815L11.2 2.63236L11.7684 3.04815L11.5421 2.37973L12.121 1.96394H11.4105L11.2 1.30078Z" fill="white"/>
</g>
<rect x="0.5" y="0.5" width="26" height="17" rx="0.5" stroke="black" stroke-opacity="0.2"/>
<defs>
<clipPath id="clip0_109_43916">
<rect width="27" height="18" rx="1" fill="white"/>
</clipPath>
</defs>
</svg>
