<svg width="375" height="225" viewBox="0 0 375 225" fill="none" xmlns="http://www.w3.org/2000/svg">
<path d="M217.491 201.32C217.491 204.088 202.159 206.332 183.246 206.332C164.332 206.332 149 204.088 149 201.32C149 198.552 164.332 196.309 183.246 196.309C202.159 196.309 217.491 198.552 217.491 201.32Z" fill="#A0A09F" fill-opacity="0.15"/>
<path fill-rule="evenodd" clip-rule="evenodd" d="M231 193C265.242 193 293 189.418 293 185C293 180.582 265.242 177 231 177C196.758 177 169 180.582 169 185C169 189.418 196.758 193 231 193Z" fill="#A0A09F" fill-opacity="0.15"/>
<path fill-rule="evenodd" clip-rule="evenodd" d="M183.969 58.3535L189.847 64.3829L195.726 58.3535L201.605 64.3829L207.483 58.3535L213.362 64.3829L219.241 58.3535L225.119 64.3829L230.998 58.3535L236.877 64.3829L242.756 58.3535L248.634 64.3829L254.513 58.3535L260.392 64.3829L266.27 58.3535L272.149 64.3829L278.028 58.3535V178.942C278.028 181.606 275.868 183.765 273.204 183.765H188.792C186.128 183.765 183.969 181.606 183.969 178.942V58.3535Z" fill="white"/>
<path fill-rule="evenodd" clip-rule="evenodd" d="M183.969 58.3535L189.847 64.3829L195.726 58.3535L201.605 64.3829L207.483 58.3535L213.362 64.3829L219.241 58.3535L225.119 64.3829L230.998 58.3535L236.877 64.3829L242.756 58.3535L248.634 64.3829L254.513 58.3535L260.392 64.3829L266.27 58.3535L272.149 64.3829L278.028 58.3535V178.942C278.028 181.606 275.868 183.765 273.204 183.765H188.792C186.128 183.765 183.969 181.606 183.969 178.942V58.3535Z" fill="#C2945C"/>
<path fill-rule="evenodd" clip-rule="evenodd" d="M183.969 160.854H278.028V178.942C278.028 181.606 275.868 183.765 273.204 183.765H188.792C186.128 183.765 183.969 181.606 183.969 178.942V160.854Z" fill="#DB0007"/>
<path fill-rule="evenodd" clip-rule="evenodd" d="M278.028 88.1511C277.254 87.9823 276.477 87.8965 275.69 87.8965C265.679 87.8965 256.74 100.798 250.897 120.967C245.05 100.798 236.115 87.8965 226.097 87.8965C208.498 87.8965 194.219 130.816 194.219 183.764H208.39C208.39 134.607 216.322 94.7414 226.097 94.7414C235.882 94.7414 243.811 131.536 243.811 176.919H257.979C257.979 131.536 265.915 94.7414 275.69 94.7414C276.483 94.7414 277.265 95.0039 278.03 95.5125C278.028 90.9112 278.028 93.323 278.028 88.1511Z" fill="#FFBC0D"/>
<path fill-rule="evenodd" clip-rule="evenodd" d="M268.432 56.2482L272.152 60.0633L275.872 56.2482C277.76 54.312 281.045 55.6485 281.045 58.3528V178.941C281.045 183.27 277.536 186.779 273.207 186.779H188.795C184.466 186.779 180.957 183.27 180.957 178.941V58.3528C180.957 55.6485 184.242 54.312 186.13 56.2482L189.85 60.0633L193.571 56.2482C194.719 55.0704 196.59 55.0358 197.781 56.1443L197.888 56.2482L201.608 60.0633L205.328 56.2482C206.476 55.0704 208.348 55.0358 209.539 56.1443L209.645 56.2482L213.365 60.0633L217.085 56.2482C218.234 55.0704 220.105 55.0358 221.296 56.1443L221.402 56.2482L225.122 60.0633L228.843 56.2482C229.991 55.0704 231.862 55.0358 233.053 56.1443L233.16 56.2482L236.88 60.0633L240.6 56.2482C241.748 55.0704 243.62 55.0358 244.811 56.1443L244.917 56.2482L248.637 60.0633L252.357 56.2482C253.506 55.0704 255.377 55.0358 256.568 56.1443L256.674 56.2482L260.395 60.0633L264.115 56.2482C265.263 55.0704 267.134 55.0358 268.325 56.1443L268.432 56.2482ZM278.031 178.941V58.3527L272.152 64.3821L266.273 58.3527L260.394 64.3821L254.516 58.3527L248.637 64.3821L242.758 58.3527L236.88 64.3821L231.001 58.3527L225.122 64.3821L219.244 58.3527L213.365 64.3821L207.486 58.3527L201.608 64.3821L195.729 58.3527L189.85 64.3821L183.972 58.3527V178.941C183.972 181.605 186.131 183.764 188.795 183.764H273.207C275.871 183.764 278.031 181.605 278.031 178.941Z" fill="white"/>
<path fill-rule="evenodd" clip-rule="evenodd" d="M114.5 196C144.047 196 168 193.09 168 189.5C168 185.91 144.047 183 114.5 183C84.9528 183 61 185.91 61 189.5C61 193.09 84.9528 196 114.5 196Z" fill="#A0A09F" fill-opacity="0.15"/>
<path fill-rule="evenodd" clip-rule="evenodd" d="M155.208 135.213L155.206 135.75C155.189 137.143 155.049 138.741 153.842 139.412L153.842 142.544C154.516 143.061 154.746 143.83 154.746 145.061V147.975C154.746 148.447 154.673 148.868 154.537 149.24C155.098 149.186 155.645 149.397 156.397 150.141C157.465 151.197 157.042 151.69 155.818 151.948C156.202 152.29 156.538 152.771 156.792 153.457L156.845 153.607C157.447 155.386 159.254 155.855 162.267 155.013C160.089 157.932 158.185 159.143 156.555 158.647L156.555 159.261C156.555 161.689 154.935 163.739 152.717 164.389C154.425 164.987 155.65 166.615 155.65 168.531L155.616 170.033L155.65 170.033L155.651 174.084C156.107 174.26 156.427 174.615 156.532 175.243C156.655 175.984 156.279 176.401 155.651 176.617L155.651 177.182C156.208 178.194 156.541 179.298 156.743 179.861L156.826 180.085C157.168 180.99 157.036 180.322 156.339 180.246C155.591 180.165 155.276 179.674 154.393 179.605L154.294 179.599L154.294 180.468C154.294 184.576 151.248 188.037 147.191 188.572L147.039 188.591C136.491 189.785 125.645 190.382 114.5 190.382C103.009 190.382 90.9888 189.747 78.4399 188.478C74.316 188.061 71.1656 184.626 71.0894 180.498L71.088 180.345L71.0879 177.833L70.8208 177.844C69.8816 177.891 69.0803 178.02 69.323 177.55C69.6101 176.993 70.5685 176.167 71.7519 175.637C71.5262 175.551 71.5402 175.398 71.5402 174.899C71.5402 174.188 72.0319 173.803 72.6706 173.766L72.6707 171.755L72.6444 171.755L72.4446 168.531C72.4446 166.203 74.2537 164.299 76.54 164.153C74.7858 163.38 73.518 161.688 73.3646 159.67C73.2899 159.676 73.2122 159.683 73.1322 159.691L72.9401 159.713C70.129 160.057 67.9132 159.071 67.3553 156.891L67.2782 156.578C67.0723 155.785 66.3855 153.248 67.0458 154.285C67.7794 155.436 69.505 153.651 70.457 153.709C71.9009 153.797 72.4755 153.345 72.8413 152.672C69.5064 152.455 71.8429 149.891 72.454 149.69L72.5014 149.675C72.6095 149.643 72.7264 149.621 72.8687 149.609C72.0406 148.324 71.6918 146.584 72.2993 145.061L72.4422 144.709C72.865 143.689 73.2452 142.977 73.8011 142.492L73.8013 139.618C72.1837 139.07 72.4588 137.235 72.4446 136.117C72.4625 120.748 94.2636 111.654 114.344 111.255L114.962 111.246C135.225 111.029 155.208 120.141 155.208 135.213Z" fill="white"/>
<path fill-rule="evenodd" clip-rule="evenodd" d="M114.309 108.994L114.937 108.985C137.954 108.738 157.469 119.456 157.469 135.212L157.466 135.776C157.454 136.852 157.376 137.663 157.144 138.473C156.928 139.227 156.588 139.898 156.102 140.452V141.649L156.197 141.784C156.75 142.616 156.986 143.637 157.006 144.888L157.007 145.06V147.716L157.119 147.794C157.369 147.972 157.617 148.179 157.863 148.413L157.986 148.533C159.415 149.946 159.589 151.449 158.872 152.566L158.923 152.702L158.987 152.882C159.032 153.017 159.049 153.05 159.138 153.08L159.219 153.104C159.675 153.222 160.503 153.158 161.659 152.835C163.737 152.255 165.369 154.636 164.079 156.365C162.286 158.768 160.501 160.324 158.674 160.84L158.649 160.847L158.617 160.992C158.297 162.362 157.606 163.601 156.643 164.583L156.627 164.599L156.679 164.671C157.432 165.73 157.879 167.011 157.91 168.378L157.911 168.53L157.886 169.692L157.893 169.742C157.901 169.806 157.906 169.87 157.909 169.935L157.911 170.032V172.987C158.32 173.467 158.603 174.058 158.737 174.735L158.762 174.872C158.92 175.822 158.731 176.665 158.286 177.34L158.249 177.393L158.334 177.603L158.432 177.856L158.529 178.117C158.614 178.35 158.796 178.881 158.85 179.035C158.858 179.061 158.864 179.076 158.864 179.078L158.94 179.284C158.97 179.364 158.997 179.431 159.025 179.5L159.088 179.653L159.118 179.732C159.14 179.79 159.162 179.855 159.183 179.931C159.206 180.015 159.216 180.05 159.227 180.126L159.262 180.389C159.27 180.542 159.273 180.589 159.258 180.723L159.229 180.971C159.137 181.357 159.121 181.422 158.881 181.784L158.707 182.043C158.135 182.544 158.081 182.592 157.541 182.738L157.353 182.788H157.353C156.867 182.814 156.781 182.819 156.571 182.773L156.413 182.737L156.314 182.7L156.3 182.768C155.368 186.899 151.976 190.149 147.634 190.793L147.466 190.816L147.293 190.837C136.66 192.041 125.728 192.643 114.5 192.643C102.931 192.643 90.835 192.004 78.2122 190.727C72.954 190.195 68.926 185.817 68.8283 180.518L68.8268 180.344V180.034L68.7687 180.017C67.4098 179.589 66.5295 178.16 67.2662 176.608L67.3134 176.513C67.6723 175.817 68.3463 175.118 69.1741 174.523L69.3084 174.428C69.415 173.586 69.8058 172.881 70.3784 172.373L70.409 172.347V172.097L70.3958 171.993L70.3875 171.894L70.1877 168.67C70.1848 168.624 70.1834 168.577 70.1834 168.53C70.1834 166.58 71.0247 164.818 72.3703 163.599L72.4168 163.557L72.2817 163.353C72.0414 162.976 71.8337 162.578 71.6621 162.163L71.6105 162.035L71.5375 162.033C68.4501 161.927 65.9889 160.389 65.1998 157.581L65.1598 157.432L65.0894 157.146L64.9178 156.483L64.8188 156.086L64.7462 155.78C64.6084 155.185 64.5281 154.744 64.5088 154.362C64.4959 154.107 64.5061 153.871 64.5693 153.594C64.6392 153.287 64.762 152.987 64.9918 152.685C65.3847 152.169 65.9918 151.82 66.6949 151.781C67.2355 151.752 67.6836 151.9 68.0619 152.139L68.1028 152.166L68.356 152.038C68.4328 152 68.4989 151.967 68.5588 151.938L68.7244 151.861L68.8177 151.819L68.8132 151.652C68.8132 151.297 68.8726 150.923 68.9972 150.536L69.0346 150.425C69.2315 149.864 69.5833 149.295 70.0125 148.805L70.0319 148.783L69.9999 148.671C69.6122 147.26 69.6321 145.754 70.1431 144.369L70.2042 144.21L70.3531 143.843C70.7405 142.908 71.0996 142.205 71.5351 141.626L71.5396 141.62L71.54 140.872L71.5225 140.856C70.7042 140.091 70.3022 139.02 70.2016 137.777L70.192 137.643C70.177 137.406 70.1722 137.207 70.1739 136.94L70.1808 136.47L70.1853 135.868C70.3015 127.765 75.6912 120.936 84.8071 116.076C92.9363 111.743 103.693 109.205 114.309 108.994ZM155.205 135.75L155.208 135.213C155.208 120.141 135.225 111.029 114.961 111.246L114.344 111.255C94.2632 111.654 72.4622 120.747 72.4443 136.117C72.4461 136.261 72.4431 136.416 72.44 136.579C72.419 137.685 72.3913 139.141 73.801 139.617L73.8008 142.491C73.2449 142.977 72.8647 143.688 72.4418 144.709L72.299 145.061C71.6915 146.584 72.0402 148.323 72.8684 149.609C72.726 149.62 72.6091 149.643 72.5011 149.675L72.4537 149.689C71.8425 149.891 69.506 152.455 72.8409 152.672C72.4752 153.345 71.9006 153.797 70.4567 153.709C70.1012 153.687 69.638 153.923 69.1588 154.166C68.3544 154.575 67.5052 155.006 67.0454 154.284L66.9808 154.188C66.4656 153.469 67.0061 155.538 67.2377 156.424L67.2545 156.488L67.3549 156.891C67.9129 159.071 70.1287 160.056 72.9398 159.712L73.1318 159.691C73.2118 159.683 73.2896 159.676 73.3643 159.67C73.5176 161.688 74.7855 163.38 76.5397 164.152C74.2534 164.299 72.4443 166.203 72.4443 168.531L72.644 171.755L72.6703 171.755L72.6702 173.766C72.0316 173.803 71.5399 174.188 71.5399 174.899C71.5399 174.927 71.5398 174.955 71.5398 174.981C71.539 175.415 71.5388 175.555 71.7515 175.637C70.5682 176.167 69.6097 176.993 69.3227 177.549C69.1482 177.888 69.5131 177.916 70.0809 177.888L70.8205 177.843L71.0875 177.833L71.0876 180.345L71.0891 180.498C71.1653 184.626 74.3156 188.061 78.4396 188.478C90.9884 189.747 103.008 190.382 114.499 190.382C125.644 190.382 136.491 189.785 147.038 188.591L147.191 188.572C151.248 188.036 154.294 184.576 154.294 180.468L154.293 179.598L154.393 179.605C154.861 179.641 155.169 179.796 155.467 179.946C155.731 180.079 155.987 180.208 156.339 180.246L156.396 180.254C156.692 180.302 156.877 180.455 156.959 180.522C157.009 180.564 157.019 180.573 156.992 180.502L156.825 180.085L156.743 179.861C156.707 179.762 156.668 179.646 156.624 179.518C156.417 178.913 156.11 178.016 155.65 177.181L155.651 176.617C156.279 176.401 156.654 175.984 156.531 175.243C156.427 174.615 156.107 174.26 155.65 174.084L155.65 170.033L155.616 170.032L155.65 168.531C155.65 166.615 154.425 164.986 152.717 164.389C154.935 163.739 156.555 161.689 156.555 159.261L156.555 158.647C158.184 159.143 160.088 157.932 162.267 155.013C159.254 155.854 157.446 155.386 156.845 153.607L156.792 153.457C156.537 152.77 156.201 152.29 155.817 151.947C157.042 151.69 157.465 151.197 156.396 150.141C155.644 149.397 155.098 149.186 154.537 149.239C154.672 148.868 154.746 148.447 154.746 147.975V145.061C154.746 143.83 154.516 143.061 153.841 142.543L153.842 139.412C154.942 138.8 155.156 137.418 155.198 136.122L155.205 135.75Z" fill="white"/>
<path fill-rule="evenodd" clip-rule="evenodd" d="M78.4418 188.478C90.9906 189.748 103.011 190.383 114.502 190.383C125.646 190.383 136.493 189.786 147.041 188.591C151.173 188.124 154.296 184.628 154.296 180.469V176.816H71.0898V180.345C71.0898 184.541 74.2669 188.056 78.4418 188.478Z" fill="#EC9D47"/>
<path d="M75.3439 175.409L75.4631 175.465C80.5338 177.899 81.9038 174.937 85.7301 175.068C87.2995 175.122 88.591 175.471 89.5818 175.876L89.7044 175.794C89.8402 175.706 89.9876 175.622 90.1453 175.543L91.1223 175.539L91.8729 175.533C92.8932 175.522 93.9924 175.503 95.1763 175.471L95.7778 175.453L96.5332 175.426C97.2716 175.404 98.2731 175.392 99.2083 175.46L99.2712 175.479C99.4896 175.598 99.6929 175.73 99.8807 175.875C100.263 176.17 100.608 176.46 100.938 176.726C101.915 176.59 102.76 176.518 103.707 176.256C104.893 176.478 105.959 176.741 106.925 177.042C108.733 177.607 118.961 176.469 124.244 176.454L125.564 176.275C128.454 175.896 130.849 175.643 131.388 175.465L131.42 175.454C131.664 175.361 131.913 175.276 132.168 175.201L132.473 175.301L132.792 175.401C135.212 176.138 138.292 176.645 142.673 176.074C143.667 175.945 144.756 176.014 145.871 176.222C147.025 175.452 147.863 176.079 148.827 175.913C150.136 175.688 150.614 175.155 152.568 175.015C155.24 174.824 156.304 178.632 156.745 179.862C157.187 181.091 157.089 180.329 156.341 180.247C155.593 180.166 155.278 179.675 154.395 179.606C150.653 179.31 151 184.08 146.428 184.902C143.962 185.345 141.285 182.743 140.249 182.548C139.214 182.352 138.234 183.144 137.197 183.161C132.302 183.244 129.608 180.669 125.495 180.144L125.645 179.958C125.734 179.849 125.824 179.74 125.915 179.632C126.079 179.437 125.33 179.427 124.123 179.496L123.341 179.908C119.965 181.668 115.834 183.659 116.528 184.723C114.618 185.032 112.596 184.98 110.294 184.874C108.064 184.772 105.843 183.029 104.082 182.83C101.007 182.483 92.8769 184.683 92.8769 184.683C92.8769 184.683 93.4288 182.689 92.1621 182.004C90.4227 181.063 85.9188 180.973 85.2599 181.614C84.6011 182.254 83.8747 182.705 82.9189 182.71C80.5626 182.723 79.9046 181.597 78.7422 181.341C77.519 181.071 76.916 181.493 75.1938 181.667C73.2717 181.861 73.0153 180.651 73.1808 179.644L73.1915 179.582C73.7468 176.537 68.7661 178.634 69.3251 177.55C69.8842 176.466 72.9904 174.36 75.3439 175.409Z" fill="#9CC93A"/>
<path fill-rule="evenodd" clip-rule="evenodd" d="M101.983 175.36C117.256 177.704 123.704 174.162 131.022 173.428C135.81 172.947 140.315 173.249 143.824 174.101C143.862 174.111 145.307 174.317 146.11 174.364C147.547 174.448 149.081 174.448 150.712 174.364C150.712 174.364 152.906 174.108 154.128 173.976C155.35 173.844 156.331 174.046 156.53 175.244C156.684 176.169 156.061 176.59 155.139 176.744C154.216 176.898 148.829 175.926 134.401 176.624C119.973 177.323 121.061 194.286 117.739 188.863C114.295 183.242 107.508 179.033 102.364 177.394C97.2187 175.756 83.9556 176.961 79.966 176.834C75.9764 176.708 74.853 176.312 73.1703 175.926C71.4876 175.539 71.5392 175.858 71.5392 174.9C71.5392 174.037 72.2642 173.654 73.0971 173.792C73.5617 173.869 75.0654 174.392 81.3251 174.562C86.286 174.697 95.2304 174.323 101.983 175.36Z" fill="#FFBC0D"/>
<path fill-rule="evenodd" clip-rule="evenodd" d="M151.272 164.143C153.691 164.143 155.651 166.107 155.651 168.53L155.59 171.23C155.59 171.23 153.411 172.154 146.607 171.964C139.803 171.774 135.874 170.176 131.094 170.65C123.79 171.375 121.013 174.12 107.265 172.881C93.5172 171.641 72.6451 171.754 72.6451 171.754L72.4453 168.53C72.4453 166.107 74.406 164.143 76.8246 164.143C93.6933 163.255 106.389 162.806 114.911 162.797C123.433 162.788 135.231 163.246 151.272 164.143Z" fill="#73371F"/>
<path fill-rule="evenodd" clip-rule="evenodd" d="M73.3477 154.658C73.3477 154.159 73.7526 153.754 74.2521 153.754H155.649C156.149 153.754 156.554 154.159 156.554 154.658V155.906C156.554 160.756 152.548 164.646 147.7 164.51C138.017 164.239 122.83 163.852 114.951 163.852C106.262 163.852 88.6876 164.323 79.4059 164.59C76.0889 164.685 73.3477 162.024 73.3477 158.705V154.658Z" fill="#EC9D47"/>
<path d="M98.3798 151.265L98.8205 151.223C104.469 150.646 104.09 149.141 107.014 149.096C108.338 149.076 109.323 149.527 110.178 150.167C112.587 148.617 115.122 147.353 118.158 147.417C120.559 147.468 123.026 149.663 124.926 149.858C128.247 150.197 134.339 148.191 136.702 146.085C136.873 145.932 137.084 146.19 137.016 146.471L136.871 147.066C136.595 148.247 136.402 149.655 137.774 150.491C139.686 151.656 142.516 151.562 145.209 150.743C145.888 149.88 146.648 149.264 147.675 149.221C150.206 149.115 150.965 150.563 152.226 150.855L152.367 150.886C153.867 151.192 155.943 150.939 156.846 153.608C157.748 156.276 162.268 155.014 162.268 155.014C162.268 155.014 158.713 159.777 156.132 158.477L156.018 158.418C150.458 155.424 149.121 159.35 145.003 159.322C143.314 159.31 141.911 158.902 140.828 158.41C139.744 157.918 132.578 161.271 129.759 158.798L129.429 158.502C127.85 157.069 126.786 155.825 124.933 156.341C123.826 156.65 122.437 157.768 119.139 157.561C117.012 157.428 115.083 155.973 113.426 154.703C111.943 155.314 111.063 155.023 109.332 157.269L109.225 157.41C107.869 159.216 106.797 159.862 105.048 159.049L104.935 158.995C102.231 157.663 100.977 160.067 97.3221 159.845C94.9042 159.697 92.6294 154.882 86.6733 156.652C85.6239 156.964 84.3793 156.565 83.159 155.819C82.4689 156.731 81.9859 157.656 81.6261 158.308C79.7482 161.714 78.4427 159.453 77.0933 159.716L77.0385 159.728C75.6852 160.06 75.0731 159.494 73.1326 159.692L72.9406 159.713C70.0784 160.064 67.8333 159.035 67.327 156.772C67.242 156.394 66.3126 153.133 67.0462 154.285C67.7799 155.437 69.5055 153.652 70.4575 153.71C74.4933 153.956 71.7377 149.985 76.6129 148.739C79.0071 148.126 83.0235 149.777 85.2877 151.18L86.217 150.143C87.294 148.958 88.5117 147.771 89.7969 147.683C93.2806 147.445 95.1311 151.554 98.3798 151.265Z" fill="#9CC93A"/>
<path fill-rule="evenodd" clip-rule="evenodd" d="M78.1882 141.544C82.2652 141.544 101.395 140.188 113.749 140.188C126.254 140.188 146.878 141.092 150.359 141.544C153.84 141.996 154.746 142.619 154.746 145.061C154.746 147.503 154.746 145.534 154.746 147.975C154.746 150.417 152.782 151.493 150.359 151.493H75.7801C73.3572 151.493 71.1666 147.9 72.2991 145.061C73.4316 142.222 74.1111 141.544 78.1882 141.544Z" fill="#73371F"/>
<path d="M72.4559 149.691C73.2067 149.443 74.2807 149.691 81.5801 150.593C84.442 150.947 89.0041 151.206 96.1788 151.044C101.203 150.931 109.115 150.85 123.551 150.593C137.988 150.336 144.473 150.657 149.099 150.593C153.725 150.53 154.117 147.886 156.398 150.142C158.68 152.398 154.163 152.084 149.555 152.398C144.948 152.712 145.221 151.484 129.938 151.947C114.656 152.409 108.224 154.13 101.197 154.203C87.9573 154.339 83.8611 151.044 76.1055 152.398C68.35 153.751 71.7051 149.938 72.4559 149.691Z" fill="#EDC8A3"/>
<path fill-rule="evenodd" clip-rule="evenodd" d="M155.209 135.213C155.209 137.09 155.209 139.683 152.495 139.735C149.783 139.683 127.59 137.426 114.51 137.474C101.98 137.426 79.2546 139.232 75.6204 139.735C72.0209 140.134 72.473 137.542 72.4549 136.117C72.473 120.592 94.7165 111.471 114.962 111.246C135.226 111.029 155.209 120.141 155.209 135.213Z" fill="white"/>
<path fill-rule="evenodd" clip-rule="evenodd" d="M155.197 135.213L155.194 135.775C155.171 137.568 154.934 139.688 152.484 139.735L152.298 139.729C148.888 139.594 127.317 137.427 114.498 137.474L113.735 137.473C101.067 137.498 79.1702 139.242 75.6086 139.735C72.0092 140.134 72.4613 137.542 72.4432 136.117C72.4613 120.592 94.7048 111.471 114.951 111.246C135.214 111.029 155.197 120.141 155.197 135.213ZM77.5998 133.693C77.0764 133.265 76.3073 133.319 75.8821 133.812C75.4569 134.305 75.5365 135.051 76.0599 135.478C76.5834 135.906 78.9683 136.788 79.1993 136.52C79.4303 136.252 78.1233 134.12 77.5998 133.693ZM134.206 133.769C133.828 133.154 131.687 131.423 131.342 131.609C130.997 131.796 131.527 134.398 131.906 135.012C132.285 135.627 133.107 135.846 133.742 135.503C134.377 135.16 134.585 134.383 134.206 133.769ZM93.6732 131.776C93.5391 131.066 92.8332 130.588 92.0967 130.71C91.3601 130.831 90.8718 131.505 91.0059 132.215C91.1401 132.926 92.5468 135.277 92.9468 135.212C93.3469 135.146 93.8074 132.487 93.6732 131.776ZM117.846 131.432C117.323 131.004 116.554 131.058 116.128 131.551C115.703 132.044 115.783 132.79 116.306 133.217C116.83 133.645 119.215 134.527 119.446 134.259C119.677 133.991 118.37 131.859 117.846 131.432ZM108.005 130.892C107.662 130.257 106.885 130.049 106.271 130.428C105.657 130.807 103.925 132.948 104.112 133.293C104.298 133.638 106.9 133.107 107.515 132.728C108.129 132.349 108.349 131.527 108.005 130.892ZM148.911 130.06C148.418 129.635 147.671 129.714 147.244 130.238C146.817 130.761 145.935 133.146 146.203 133.377C146.47 133.608 148.602 132.301 149.03 131.778C149.457 131.254 149.404 130.485 148.911 130.06ZM136.607 124.839C136.339 124.608 134.207 125.915 133.78 126.439C133.352 126.962 133.406 127.731 133.899 128.157C134.392 128.582 135.138 128.502 135.565 127.979C135.992 127.455 136.875 125.07 136.607 124.839ZM83.0262 125.101C82.5028 124.674 81.7337 124.727 81.3085 125.22C80.8833 125.713 80.9629 126.459 81.4863 126.886C82.0098 127.314 84.3947 128.196 84.6257 127.928C84.8567 127.66 83.5497 125.528 83.0262 125.101ZM123.543 122.099C122.793 122.099 122.186 122.677 122.186 123.391C122.186 124.105 123.136 126.621 123.543 126.621C123.949 126.621 124.899 124.105 124.899 123.391C124.899 122.677 124.292 122.099 123.543 122.099ZM96.8633 124.095C96.3399 123.667 93.9549 122.785 93.724 123.053C93.493 123.321 94.8 125.453 95.3234 125.88C95.8469 126.307 96.6159 126.254 97.0412 125.761C97.4664 125.268 97.3868 124.522 96.8633 124.095ZM113.482 121.661C113.137 121.474 110.996 123.206 110.618 123.82C110.239 124.434 110.447 125.211 111.082 125.554C111.717 125.898 112.539 125.678 112.918 125.064C113.297 124.449 113.827 121.847 113.482 121.661ZM131.658 116.854C131.524 116.143 130.818 115.666 130.082 115.787C129.345 115.908 128.857 116.582 128.991 117.293C129.125 118.003 130.532 120.355 130.932 120.289C131.332 120.223 131.793 117.564 131.658 116.854ZM100.48 115.316C99.7308 115.316 99.1234 115.894 99.1234 116.608C99.1234 117.321 100.073 119.838 100.48 119.838C100.887 119.838 101.837 117.321 101.837 116.608C101.837 115.894 101.229 115.316 100.48 115.316ZM112.42 113.796C111.896 113.368 111.127 113.422 110.702 113.915C110.277 114.408 110.356 115.154 110.88 115.581C111.403 116.009 113.788 116.891 114.019 116.623C114.25 116.355 112.943 114.223 112.42 113.796Z" fill="#EC9D47"/>
<path fill-rule="evenodd" clip-rule="evenodd" d="M154.084 145.44H151.305C151.305 145.44 153.004 158.767 155.636 171.947C158.269 185.128 161.893 198.455 161.893 198.455L165.743 201.321C165.743 201.321 172.962 198.455 182.587 198.455C192.212 198.455 199.913 201.321 199.913 201.321L203.763 198.455C203.763 198.455 207.358 185.274 210.019 171.947C212.681 158.62 214.35 145.44 214.35 145.44H211.93L212.44 143.529H212.44C214.35 137.32 215.306 133.021 216.261 126.812C213.799 126.126 210.552 126.726 210.337 127.574C210.086 128.564 209.9 129.227 209.682 130.007L209.682 130.008L209.682 130.008L209.682 130.009C209.581 130.37 209.473 130.756 209.348 131.211C208.338 130.089 206.246 129.514 204.21 129.32C203.699 133.982 203.191 135.946 202.085 140.215L202.085 140.215C201.982 140.614 201.874 141.033 201.759 141.476C202.023 135.028 202.403 131.452 203.524 124.78C201.224 124.316 198.23 124.695 197.306 126.355C196.699 130.164 196.373 132.276 196.146 135.59L196.108 134.587C195.904 129.175 195.774 125.748 195.286 119.86C192.372 120.093 189.665 121.438 189.165 123.235L189.196 123.672C189.256 124.491 189.336 125.59 189.377 126.273C187.371 126.228 185.203 127.091 184.416 127.72C184.064 129.478 183.847 130.954 183.638 132.378V132.378C183.317 134.565 183.014 136.627 182.267 139.391C182.267 139.391 181.769 135.869 183.478 121.186C183.58 120.305 180.304 118.076 177.978 117.767C177.456 122.041 176.998 126.309 176.596 130.575C176.367 125.541 175.977 120.481 175.418 115.371C173.648 115.06 169.859 118.209 169.944 119.08C170.936 129.155 170.954 130.751 171.009 137.495C170.106 131.374 169.731 129.116 168.906 125.429C166.584 125.602 163.269 128.076 163.44 128.934C164.262 133.059 164.422 134.864 164.689 140.262C163.97 136.217 163.378 133.881 162.677 131.119L162.677 131.119L162.677 131.119C162.246 129.421 161.775 127.562 161.208 125.045C161.118 124.643 157.035 123.415 154.767 124.018C154.951 124.775 155.138 125.532 155.325 126.289L155.326 126.289L155.326 126.289C156.417 130.706 157.507 135.12 157.976 139.472C156.686 136.122 155.486 132.701 154.397 129.178C152.14 129.82 149.27 134.155 149.399 134.547C150.077 136.616 150.885 138.361 151.713 140.15C152.214 141.233 152.723 142.332 153.215 143.529L153.215 143.529L154.084 145.44Z" fill="white"/>
<path fill-rule="evenodd" clip-rule="evenodd" d="M151.305 145.439H158.947C158.947 145.439 165.261 163.589 182.587 163.589C199.912 163.589 206.708 145.439 206.708 145.439H214.35C214.35 145.439 212.68 158.62 210.019 171.947C207.357 185.274 203.762 198.455 203.762 198.455L199.912 201.321C199.912 201.321 192.212 198.455 182.587 198.455C172.961 198.455 165.743 201.321 165.743 201.321L161.892 198.455C161.892 198.455 158.268 185.128 155.636 171.947C153.004 158.766 151.305 145.439 151.305 145.439Z" fill="#DB0007"/>
<path fill-rule="evenodd" clip-rule="evenodd" d="M187.442 169.32C185.29 169.32 183.37 172.084 182.113 176.405C180.858 172.084 178.937 169.32 176.785 169.32C173.002 169.32 169.934 178.516 169.934 189.858H172.979C172.979 179.326 174.684 170.788 176.785 170.788C178.887 170.788 180.591 178.67 180.591 188.391H183.636C183.636 178.67 185.34 170.788 187.442 170.788C189.544 170.788 191.248 179.326 191.248 189.858H194.292C194.292 178.516 191.225 169.32 187.442 169.32Z" fill="#FFBC0D"/>
<path fill-rule="evenodd" clip-rule="evenodd" d="M160.857 143.529C160.857 143.529 167.066 161.678 182.828 161.678C198.589 161.678 204.798 143.529 204.798 143.529C204.798 143.529 209.097 143.529 212.44 143.529C214.35 137.32 215.306 133.021 216.261 126.812C213.799 126.126 210.552 126.726 210.337 127.574C209.969 129.024 209.742 129.772 209.348 131.211C208.338 130.089 206.246 129.514 204.21 129.32C203.652 134.418 203.096 136.289 201.759 141.476C202.023 135.028 202.403 131.452 203.524 124.78C201.224 124.316 198.23 124.695 197.306 126.355C196.699 130.164 196.373 132.276 196.146 135.59C195.918 129.58 195.804 126.103 195.286 119.86C192.372 120.093 189.665 121.438 189.165 123.235C189.224 124.053 189.328 125.458 189.377 126.273C187.371 126.228 185.203 127.091 184.416 127.72C183.523 132.18 183.5 134.829 182.267 139.391C182.267 139.391 181.769 135.869 183.478 121.186C183.58 120.305 180.304 118.076 177.978 117.767C177.456 122.041 176.998 126.309 176.596 130.575C176.367 125.541 175.977 120.481 175.418 115.371C173.648 115.06 169.859 118.209 169.944 119.08C170.936 129.155 170.954 130.751 171.009 137.495C170.106 131.374 169.731 129.116 168.906 125.429C166.584 125.602 163.269 128.076 163.44 128.934C164.262 133.059 164.422 134.864 164.689 140.262C163.528 133.73 162.697 131.655 161.208 125.045C161.118 124.643 157.035 123.415 154.767 124.018C156.025 129.19 157.427 134.374 157.976 139.472C156.686 136.122 155.486 132.701 154.397 129.178C152.14 129.82 149.27 134.155 149.399 134.547C150.487 137.868 151.909 140.353 153.215 143.529H160.857Z" fill="#FFBC0D"/>
<path fill-rule="evenodd" clip-rule="evenodd" d="M167.567 119.314C167.404 117.657 168.625 116.298 170.564 114.863C172.38 113.519 174.177 112.728 175.831 113.019C176.877 113.203 177.676 114.056 177.791 115.111L177.82 115.384L177.882 115.38C177.983 115.376 178.086 115.379 178.189 115.388L178.293 115.4C181.637 115.844 186.164 118.758 185.849 121.462C185.779 122.067 185.712 122.658 185.648 123.235L185.505 124.536L185.639 124.492C186.021 124.367 186.418 124.257 186.82 124.167L186.837 124.163L186.785 123.437L186.777 123.269C186.773 123.042 186.802 122.814 186.864 122.594C187.679 119.665 191.183 117.792 195.095 117.48C196.407 117.375 197.556 118.351 197.665 119.663C197.73 120.446 197.79 121.193 197.844 121.915L197.915 122.88L197.937 122.871C199.635 122.153 201.767 122.021 203.82 122.405L203.996 122.439C205.259 122.694 206.092 123.905 205.878 125.176C205.815 125.552 205.754 125.919 205.696 126.276L205.565 127.083L205.922 127.142C206.56 127.255 207.167 127.401 207.736 127.583L207.858 127.623L207.935 127.327L208.022 126.986C208.718 124.243 213.429 123.543 216.902 124.512C218.066 124.837 218.805 125.981 218.621 127.175C217.71 133.093 216.798 137.266 215.202 142.645L215.049 143.155L215.096 143.17C216.12 143.506 216.827 144.514 216.729 145.642L216.719 145.739C215.599 154.583 214.146 163.475 212.36 172.415C210.575 181.353 208.477 190.243 206.066 199.083C205.926 199.598 205.616 200.051 205.188 200.37L201.338 203.236C200.688 203.72 199.838 203.841 199.079 203.558C194.224 201.751 188.73 200.843 182.587 200.843C176.457 200.843 171.139 201.747 166.624 203.54C165.854 203.845 164.981 203.73 164.317 203.236L160.466 200.37C160.038 200.051 159.728 199.597 159.588 199.081C157.158 190.144 155.06 181.256 153.294 172.415C151.528 163.573 150.075 154.681 148.936 145.741C148.791 144.606 149.465 143.575 150.471 143.2L150.477 143.198L150.238 142.662L150.018 142.178L149.117 140.223C148.291 138.42 147.757 137.139 147.273 135.721L147.129 135.29C146.659 133.855 147.462 132.532 149.148 130.452L149.306 130.26C150.466 128.862 151.666 127.779 152.918 127.192L153.071 127.123L152.446 124.581C152.14 123.319 152.898 122.043 154.153 121.709C155.611 121.322 157.426 121.417 159.304 121.819C160.045 121.978 160.754 122.18 161.323 122.395C161.646 122.516 161.93 122.643 162.178 122.784C162.369 122.893 162.545 123.012 162.716 123.162C163.099 123.496 163.398 123.899 163.537 124.52L163.671 125.106L163.894 124.951C165.174 124.079 166.598 123.419 167.938 123.156L167.889 122.629L167.567 119.314ZM176.596 130.575C176.367 125.541 175.977 120.48 175.418 115.371C173.648 115.059 169.858 118.209 169.944 119.079C170.746 127.23 170.911 129.831 170.974 134.098L171.009 137.494C170.185 131.911 169.801 129.542 169.113 126.37L168.906 125.429C166.583 125.602 163.269 128.076 163.44 128.934C164.179 132.646 164.383 134.479 164.611 138.744L164.689 140.262C163.97 136.216 163.377 133.881 162.677 131.119C162.293 129.606 161.878 127.966 161.391 125.848L161.208 125.045C161.117 124.642 157.035 123.414 154.767 124.017C154.951 124.774 155.138 125.532 155.325 126.289C156.417 130.706 157.507 135.12 157.976 139.471C156.686 136.121 155.486 132.7 154.397 129.178C152.14 129.82 149.27 134.155 149.399 134.547C150.077 136.616 150.884 138.36 151.713 140.15C152.144 141.081 152.581 142.025 153.008 143.033L153.215 143.529L154.084 145.439H151.305C152.438 154.324 153.881 163.16 155.636 171.947C157.391 180.734 159.477 189.57 161.893 198.454L165.743 201.32C170.555 199.41 176.17 198.454 182.587 198.454C189.004 198.454 194.779 199.41 199.912 201.32L203.762 198.454C206.159 189.667 208.244 180.831 210.019 171.947C211.793 163.062 213.237 154.226 214.35 145.439H211.93L212.44 143.529L212.611 142.969C214.408 137.057 215.334 132.833 216.261 126.812C213.798 126.125 210.552 126.726 210.337 127.573C210.215 128.057 210.108 128.462 210.005 128.841L209.348 131.211C208.337 130.088 206.246 129.513 204.21 129.32C203.758 133.447 203.307 135.459 202.443 138.827L201.759 141.476C202.01 135.343 202.366 131.808 203.365 125.735L203.523 124.78C201.224 124.316 198.23 124.695 197.306 126.355C196.739 129.91 196.418 131.987 196.193 134.942L196.146 135.589C196.133 135.247 196.12 134.913 196.108 134.586C195.916 129.502 195.79 126.17 195.37 120.904L195.285 119.86C192.372 120.092 189.665 121.437 189.165 123.234C189.174 123.366 189.185 123.514 189.196 123.672C189.239 124.266 189.293 125.006 189.335 125.629L189.377 126.272C187.371 126.228 185.202 127.091 184.416 127.72C184.064 129.478 183.847 130.954 183.638 132.377C183.317 134.565 183.014 136.627 182.267 139.391C182.267 139.391 181.808 136.145 183.283 122.895L183.478 121.186C183.58 120.305 180.304 118.076 177.978 117.767C177.456 122.041 176.998 126.309 176.596 130.575Z" fill="white"/>
</svg>
