<svg width="27" height="18" viewBox="0 0 27 18" fill="none" xmlns="http://www.w3.org/2000/svg">
<g clip-path="url(#clip0_109_43829)">
<path d="M0 0H27V18H0V0Z" fill="white"/>
<path d="M0 0H27V6.00176H0V0Z" fill="#D80027"/>
<path d="M0 12.0039H27V18.0057H0V12.0039Z" fill="black"/>
<path d="M11.6172 10.7811C11.6172 10.7811 11.6172 7.70108 11.8545 7.36882C12.018 7.14204 12.7404 7.64307 13.0516 7.60615C13.0516 7.60615 13.273 7.2106 13.2889 6.97328C13.3047 6.73067 13.2309 6.57245 13.0305 6.64629C13.0305 6.64629 12.9672 6.53554 13.0568 6.47225C13.1412 6.40896 13.3521 6.47752 13.3521 6.47752C13.3521 6.47752 13.3258 6.42478 13.4365 6.43006C13.5895 6.44061 13.8162 6.50389 13.8268 6.7254C13.8373 6.88889 13.8426 7.13149 13.8479 7.18423C13.8848 7.54286 13.9902 7.64307 13.9902 7.64307C13.9902 7.64307 14.9605 7.15786 15.1504 7.36882C15.3244 7.56923 15.3877 10.7811 15.3877 10.7811L14.4332 9.89504L15.0713 11.4509C15.0713 11.4509 14.3119 11.5774 13.5473 11.5774C12.7826 11.5774 11.9072 11.3559 11.9072 11.3559L12.635 9.86867L11.6172 10.7811Z" fill="#C09300"/>
</g>
<rect x="0.5" y="0.5" width="26" height="17" rx="0.5" stroke="black" stroke-opacity="0.2"/>
<defs>
<clipPath id="clip0_109_43829">
<rect width="27" height="18" rx="1" fill="white"/>
</clipPath>
</defs>
</svg>
