<svg width="27" height="18" viewBox="0 0 27 18" fill="none" xmlns="http://www.w3.org/2000/svg">
<g clip-path="url(#clip0_109_43800)">
<path d="M0 0H27V17.9996H0V0Z" fill="black"/>
<path d="M27 9V17.9998H0L11.3476 9H27Z" fill="#6DA544"/>
<path d="M27 0V8.99981H11.3476L0 0H27Z" fill="#D80027"/>
<path d="M11.6544 8.11936L1.41687 0H0.472289L11.4499 8.70634H27V8.11936H11.6544ZM0.472289 17.9996H1.41687L11.6544 9.88026H27V9.29327H11.4499L0.472289 17.9996ZM0 0.374573V1.12372L9.93078 8.99981L0 16.8759V17.625L10.8754 8.99981L0 0.374573Z" fill="black"/>
<path d="M0.472289 0H0V0.374573L10.8754 8.99981L0 17.625V17.9996H0.472289L11.4499 9.29327H27V8.70634H11.4499L0.472289 0Z" fill="#FFDA44"/>
<path d="M3.36 10.9191V10.1653C4.11226 10.1653 4.72424 9.55327 4.72424 8.80112C4.72424 8.26892 4.29124 7.83592 3.75899 7.83592C3.39644 7.83592 3.10144 8.13086 3.10144 8.49347C3.10144 8.72534 3.29007 8.91397 3.52195 8.91397C3.58497 8.91389 3.64539 8.88881 3.68995 8.84425C3.73452 8.79969 3.75959 8.73927 3.75967 8.67624H4.51351C4.51351 9.22299 4.0687 9.66786 3.522 9.66786C2.87447 9.66775 2.34766 9.14089 2.34766 8.49341C2.34766 7.71516 2.98079 7.08203 3.75904 7.08203C4.70694 7.08203 5.47813 7.85317 5.47813 8.80112C5.47813 9.96892 4.52796 10.9191 3.36 10.9191Z" fill="#FFDA44"/>
</g>
<rect x="0.5" y="0.5" width="26" height="17" rx="0.5" stroke="black" stroke-opacity="0.2"/>
<defs>
<clipPath id="clip0_109_43800">
<rect width="27" height="18" rx="1" fill="white"/>
</clipPath>
</defs>
</svg>
