<svg width="44" height="44" viewBox="0 0 44 44" fill="none" xmlns="http://www.w3.org/2000/svg">
<g clip-path="url(#clip0_17_28595)">
<path d="M41.8974 39.461C41.8974 40.3627 33.0552 41.0938 22.1479 41.0938C11.2406 41.0938 2.39844 40.3627 2.39844 39.461C2.39844 38.5592 11.2406 37.8281 22.1479 37.8281C33.0552 37.8281 41.8974 38.5592 41.8974 39.461Z" fill="#A0A09F" fill-opacity="0.15"/>
<path fill-rule="evenodd" clip-rule="evenodd" d="M14.3699 9.52734L14.3699 23.8341H3.48438V9.52734H14.3699Z" fill="white"/>
<path fill-rule="evenodd" clip-rule="evenodd" d="M19.3455 35.0302C19.3455 37.8644 17.048 40.1619 14.2138 40.1619C11.3796 40.1619 9.08203 37.8644 9.08203 35.0302C9.08203 32.196 11.3796 29.8984 14.2138 29.8984C17.048 29.8984 19.3455 32.196 19.3455 35.0302Z" fill="white"/>
<path fill-rule="evenodd" clip-rule="evenodd" d="M37.6971 35.0302C37.6971 37.8644 35.3995 40.1619 32.5653 40.1619C29.7312 40.1619 27.4336 37.8644 27.4336 35.0302C27.4336 32.196 29.7312 29.8984 32.5653 29.8984C35.3995 29.8984 37.6971 32.196 37.6971 35.0302Z" fill="white"/>
<path fill-rule="evenodd" clip-rule="evenodd" d="M20.131 6.72984C20.0387 5.41225 21.0297 4.24023 22.3469 4.24023H25.0671L24.8124 7.87978C24.8037 9.17543 23.8005 10.2661 22.5118 10.2661C21.2234 10.2661 20.2203 9.1754 20.2115 7.8798L20.131 6.72984Z" fill="white"/>
<path fill-rule="evenodd" clip-rule="evenodd" d="M19.5818 29.085C19.527 30.08 19.7727 30.6326 20.1097 31.0124C20.4375 31.3817 20.8744 31.623 21.4032 31.915C21.4608 31.9468 21.5195 31.9792 21.5792 32.0124C22.4558 30.0581 22.8462 28.6272 22.836 27.5827C22.8296 26.9179 22.6607 26.4344 22.371 26.0664C22.127 25.7564 21.7737 25.4984 21.2895 25.2895C20.9715 25.7253 20.6029 26.304 20.2882 26.9219C19.8974 27.6892 19.616 28.4664 19.5818 29.085ZM20.2735 34.6569H7.4846L7.48192 34.1931C7.4603 30.4533 9.19042 27.7318 11.6251 25.9536H3.20226L3.08735 25.8802C2.68458 25.6227 2.38685 25.3209 2.19445 24.9525C2.0031 24.5862 1.93486 24.1901 1.93243 23.7747L1.92969 23.3054H13.9234C13.6865 17.152 15.5501 12.5703 18.6238 10.4095C19.5507 9.75775 20.5735 9.6727 21.5444 10.1066C22.4871 10.5278 23.3416 11.4181 24.0469 12.6406C25.8963 15.8465 28.7872 17.0898 30.512 17.0666L31.0134 17.0599L30.9614 17.9433C31.4289 17.8415 31.9425 17.7842 32.4801 17.7811L32.9466 17.7785L32.9704 21.9352L32.5038 21.9378C32.2026 21.9395 31.909 21.9241 31.6268 21.8935C32.3008 23.3591 33.0456 25.3489 33.2496 27.33C35.975 27.7609 37.5189 29.416 38.3702 30.9752C38.8128 31.7858 39.0708 32.5728 39.2185 33.1559C39.2925 33.4481 39.3393 33.6912 39.3678 33.8629C39.3821 33.9489 39.3918 34.0172 39.398 34.065C39.4011 34.089 39.4034 34.1078 39.4049 34.1213C39.4057 34.128 39.4063 34.1333 39.4067 34.1373L39.4072 34.1422L39.4074 34.1438L39.4075 34.1445L39.421 34.2811L39.4075 34.1449L39.4583 34.6575H22.236L22.2362 34.6572H20.2734L20.2735 34.6569ZM24.9229 31.6833C26.5523 30.6612 27.7557 29.2696 28.4668 27.5911C29.2547 25.7314 29.4504 23.4903 28.9137 20.9636C28.7373 20.9646 28.5508 20.9656 28.3741 20.9666C28.0263 20.9686 27.717 20.9704 27.5986 20.9711C27.1848 20.9734 26.9061 20.6627 26.7662 20.4406C26.6106 20.1937 26.506 19.8759 26.5042 19.5746L26.5015 19.108L28.57 19.096C27.0279 19.0272 25.8146 18.7671 24.8239 18.3345C23.7131 17.8495 22.9099 17.1599 22.2464 16.3338C21.5909 17.3124 21.0545 18.1681 20.5135 19.3197C22.5936 19.9252 24.1793 20.6336 25.3006 21.4856C26.5297 22.4194 27.2089 23.5338 27.3521 24.8544C27.4927 26.1508 27.1094 27.5826 26.3554 29.1548C25.9743 29.9492 25.4929 30.7911 24.9229 31.6833Z" fill="white"/>
<path d="M13.9017 11.791H3.94922V20.962H13.9017V11.791Z" fill="#C2945C"/>
<path d="M13.9017 20.9629H3.94922V23.3684H13.9017V20.9629Z" fill="#D90007"/>
<path d="M13.9005 13.137C13.8975 13.137 13.8817 13.1367 13.8788 13.1367C12.8373 13.1367 11.9079 14.5027 11.3003 16.6391C10.6927 14.5027 9.7631 13.1367 8.7216 13.1367C6.89074 13.1367 5.40625 17.7598 5.40625 23.367H6.88003C6.88003 18.1604 7.70472 13.8619 8.7216 13.8619C9.73874 13.8619 10.5637 17.7583 10.5637 22.5643H12.0367C12.0367 17.7583 12.8616 13.8619 13.8788 13.8619C13.8817 13.8619 13.8975 13.8624 13.9005 13.8624V13.137Z" fill="#FFBC0D"/>
<path d="M13.9017 9.99414H3.94922V11.7913H13.9017V9.99414Z" fill="#C2945C"/>
<path opacity="0.5" d="M13.9017 9.99414H3.94922V11.7913H13.9017V9.99414Z" fill="#E5AF71"/>
<path d="M10.1316 12.5765H7.71724C7.59946 12.5765 7.50391 12.4825 7.50391 12.3666V9.99414H10.3449V12.3666C10.3449 12.4825 10.2494 12.5765 10.1316 12.5765Z" fill="#FFBC0D"/>
<path fill-rule="evenodd" clip-rule="evenodd" d="M14.216 39.6957C16.7925 39.6957 18.8812 37.607 18.8812 35.0305C18.8812 34.926 18.8778 34.8223 18.871 34.7196H9.56098C9.55422 34.8223 9.55078 34.926 9.55078 35.0305C9.55078 37.607 11.6395 39.6957 14.216 39.6957ZM9.61527 34.253C9.98539 32.0466 11.9044 30.3652 14.216 30.3652C16.5277 30.3652 18.4466 32.0466 18.8168 34.253H9.61527Z" fill="#292929"/>
<path fill-rule="evenodd" clip-rule="evenodd" d="M14.2154 37.3625C15.5037 37.3625 16.548 36.3181 16.548 35.0299C16.548 34.9245 16.5411 34.8208 16.5275 34.7191H11.9033C11.8898 34.8208 11.8828 34.9245 11.8828 35.0299C11.8828 36.3181 12.9272 37.3625 14.2154 37.3625ZM12.0155 34.2525C12.3356 33.3465 13.1997 32.6973 14.2154 32.6973C15.2311 32.6973 16.0952 33.3465 16.4154 34.2525H12.0155Z" fill="white"/>
<path d="M37.2289 35.0305C37.2289 37.607 35.1402 39.6957 32.5637 39.6957C29.9871 39.6957 27.8984 37.607 27.8984 35.0305C27.8984 32.4539 29.9871 30.3652 32.5637 30.3652C35.1402 30.3652 37.2289 32.4539 37.2289 35.0305Z" fill="#292929"/>
<path d="M34.8957 35.0299C34.8957 36.3181 33.8514 37.3625 32.5631 37.3625C31.2748 37.3625 30.2305 36.3181 30.2305 35.0299C30.2305 33.7416 31.2748 32.6973 32.5631 32.6973C33.8514 32.6973 34.8957 33.7416 34.8957 35.0299Z" fill="white"/>
<path fill-rule="evenodd" clip-rule="evenodd" d="M22.3131 4.70703C21.2926 4.70703 20.4873 5.6229 20.5625 6.69753L20.6442 7.86292C20.6442 8.93273 21.4653 9.79988 22.478 9.79988C23.4911 9.79988 24.3122 8.93273 24.3122 7.86292L24.533 4.70703H22.3131ZM32.5632 29.8995C29.9934 29.8995 27.8648 31.7884 27.49 34.2535H23.1548C23.5917 33.6605 23.9439 33.1727 24.3211 32.6207C28.5877 30.4371 30.5898 26.0652 29.2821 20.5574L27.5914 20.5671C27.2627 20.5689 26.9687 20.0426 26.9663 19.6343L29.0912 19.622C29.2478 19.2534 29.6735 18.9286 30.2691 18.6944C25.5506 18.8681 23.6351 17.6221 22.2229 15.5907C21.2953 16.9593 20.5949 18.0095 19.8598 19.6841C29.1262 22.2071 28.4064 26.3929 22.6138 34.2532H21.0356C24.016 28.4924 23.9454 25.9792 21.4507 24.9154L22.1282 23.5947C22.1813 23.4912 22.1062 23.3682 21.9899 23.3682H14.3859C14.1474 17.2882 15.9928 12.8888 18.8877 10.8536C20.4747 9.73777 22.2823 10.5856 23.6383 12.9362C25.5619 16.2707 28.6004 17.6213 30.5138 17.5956L30.453 18.6288C31.0222 18.4333 31.7204 18.3145 32.4783 18.3102L32.4968 21.5338C31.8832 21.5373 31.3076 21.4655 30.807 21.3384C31.5855 22.8831 32.651 25.3922 32.8122 27.8049C38.3611 28.4239 38.9388 34.2535 38.9388 34.2535H37.6364C37.2616 31.7884 35.133 29.8995 32.5632 29.8995ZM14.2135 23.8345H2.39453C2.39881 24.5672 2.6344 25.1022 3.33421 25.5496H13.2344C10.2159 27.1832 7.91965 30.0377 7.94402 34.2529H9.27751L11.333 34.2535L16.5805 34.2529H18.6358H20.4975L21.3665 32.4929C21.3026 32.4574 21.2387 32.4222 21.1748 32.387L21.1717 32.3853L21.171 32.3849C20.0693 31.7785 18.9976 31.1887 19.1116 29.1217C19.1688 28.0871 19.8038 26.7804 20.4339 25.7784L21.3777 24.0653C21.4348 23.9617 21.3598 23.8348 21.2415 23.8348H14.2135V23.8345Z" fill="#D90007"/>
<path d="M43 9C43 13.4183 39.4183 17 35 17C30.5817 17 27 13.4183 27 9C27 4.58172 30.5817 1 35 1C39.4183 1 43 4.58172 43 9Z" fill="#54B077"/>
<path fill-rule="evenodd" clip-rule="evenodd" d="M35 16.5C39.1421 16.5 42.5 13.1421 42.5 9C42.5 4.85786 39.1421 1.5 35 1.5C30.8579 1.5 27.5 4.85786 27.5 9C27.5 13.1421 30.8579 16.5 35 16.5ZM35 17C39.4183 17 43 13.4183 43 9C43 4.58172 39.4183 1 35 1C30.5817 1 27 4.58172 27 9C27 13.4183 30.5817 17 35 17Z" fill="white"/>
<path fill-rule="evenodd" clip-rule="evenodd" d="M38.307 6.60535C38.5249 6.77488 38.5642 7.08902 38.3947 7.30699L34.8947 11.807C34.8066 11.9202 34.6742 11.9901 34.5311 11.9991C34.3879 12.008 34.2479 11.955 34.1464 11.8536L32.1464 9.85358C31.9512 9.65831 31.9512 9.34173 32.1464 9.14647C32.3417 8.95121 32.6583 8.95121 32.8536 9.14647L34.4531 10.746L37.6053 6.69305C37.7749 6.47508 38.089 6.43581 38.307 6.60535Z" fill="white"/>
</g>
<defs>
<clipPath id="clip0_17_28595">
<rect width="44" height="44" fill="white"/>
</clipPath>
</defs>
</svg>
