<svg width="27" height="18" viewBox="0 0 27 18" fill="none" xmlns="http://www.w3.org/2000/svg">
<g clip-path="url(#clip0_109_43717)">
<path d="M0 0H27V17.9996H0V0Z" fill="white"/>
<path d="M0 0H27V5.99985H0V0ZM0 11.9998H27V17.9996H0V11.9998Z" fill="#D80027"/>
<path d="M15.503 8.99958C15.503 10.1061 14.606 10.7526 13.4995 10.7526C12.3931 10.7526 11.4961 10.1061 11.4961 8.99958C11.4961 7.89311 12.3931 6.99609 13.4996 6.99609C14.6061 6.99609 15.503 7.89311 15.503 8.99958Z" fill="#FFDA44"/>
<path d="M15.5031 9C15.5031 10.1065 14.6061 11.0035 13.4996 11.0035C12.3931 11.0035 11.4961 10.1065 11.4961 9" fill="#0052B4"/>
<path d="M12.2461 8.50131H12.747V9.50326H12.2461V8.50131ZM14.2494 8.50131H14.7502V9.50326H14.2494V8.50131ZM13.2474 7.75H13.7483V9.50305H13.2474V7.75Z" fill="#D80027"/>
</g>
<rect x="0.5" y="0.5" width="26" height="17" rx="0.5" stroke="black" stroke-opacity="0.2"/>
<defs>
<clipPath id="clip0_109_43717">
<rect width="27" height="18" rx="1" fill="white"/>
</clipPath>
</defs>
</svg>
