<svg width="389" height="49" viewBox="0 0 389 49" fill="none" xmlns="http://www.w3.org/2000/svg">
<g clip-path="url(#clip0_26_12551)">
<path d="M91.6638 22.8816C91.5837 19.6071 88.6597 17.2839 85.3752 17.2839C78.1754 17.2839 77.0338 23.2921 77.0338 28.6995C77.0338 33.7063 79.2368 38.8534 84.6943 38.8534C89.1604 38.8534 91.4335 36.3199 92.0443 32.2143H104.541C103.4 42.5885 95.2287 48.5566 84.7644 48.5566C72.9482 48.5566 64.1462 40.5457 64.1462 28.6995C64.1462 16.3927 72.1571 7.58067 84.7644 7.58067C94.5477 7.58067 103.26 12.6576 104.161 22.8816H91.6638Z" fill="white"/>
<path d="M198.329 8.7022H210.827V14.1697H210.977C213.29 10.1041 217.295 7.58067 222.823 7.58067C235.931 7.58067 237.493 16.9835 237.493 22.6012V47.4351H224.615V28.6995C224.615 23.4023 224.856 18.0249 218.177 18.0249C213.68 18.0249 211.167 21.6699 211.167 27.3276V47.4351H198.329V8.7022Z" fill="white"/>
<path d="M241.79 20.6485C241.792 18.5294 242.361 16.4494 243.438 14.6249C244.516 12.8004 246.063 11.2981 247.919 10.2743C251.414 8.33169 255.93 7.58067 260.426 7.58067C269.739 7.58067 278.761 9.5834 278.761 20.5984V37.5115C278.761 40.796 278.761 44.3809 280.283 47.4351H267.365C266.961 46.2532 266.705 45.0253 266.604 43.7801C263.28 47.2148 258.343 48.5566 253.647 48.5566C246.146 48.5566 240.238 44.8315 240.238 36.8406C240.238 24.2334 254.177 25.1947 263.119 23.4023C265.312 22.9517 266.524 22.2106 266.524 19.8274C266.524 16.9134 262.969 15.8219 260.316 15.8219C256.751 15.8219 254.488 17.3841 253.877 20.6685L241.79 20.6485ZM258.453 40.6759C264.592 40.6759 266.644 37.2512 266.344 29.2603C264.521 30.3918 261.187 30.6021 258.333 31.3531C255.479 32.1042 253.026 33.2157 253.026 36.2799C253.026 39.344 255.579 40.7159 258.453 40.7159V40.6759Z" fill="white"/>
<path d="M282.976 0.0704087H295.844V47.4351H282.976V0.0704087Z" fill="white"/>
<path d="M339.394 47.4351H327.107V42.959H326.957C325.772 44.7323 324.157 46.1761 322.262 47.1551C320.367 48.134 318.254 48.6163 316.122 48.5566C303.775 48.5566 298.548 38.1124 298.548 27.2075C298.548 17.1337 303.996 7.58067 315.141 7.58067C317.302 7.48086 319.454 7.9125 321.409 8.83777C323.365 9.76304 325.063 11.1537 326.356 12.8879H326.507V0.0704087H339.394V47.4351ZM311.426 27.6581C311.426 32.9553 313.429 38.8534 319.307 38.8534C325.595 38.8534 326.957 32.9553 326.957 28.0286C326.957 22.441 324.954 17.2839 319.307 17.2839C313.429 17.2839 311.426 22.7314 311.426 27.6581Z" fill="white"/>
<path d="M348.105 12.8879H342.077V0.0704087H354.123L348.105 12.8879Z" fill="white"/>
<path d="M127.915 0.0704087H107.236V47.4351H127.915C142.535 47.4351 151.487 39.0837 151.487 23.5625C151.487 8.89246 142.665 0.0704087 127.915 0.0704087ZM126.753 36.4601H120.965V11.0154H126.753C134.233 11.0154 137.588 15.9421 137.588 23.4824C137.588 31.8238 134.884 36.4601 126.753 36.4601Z" fill="white"/>
<path d="M39.6141 47.4348L44.7711 28.4088C45.3519 26.1958 45.9327 23.5922 46.153 22.2904H46.3032C46.4234 23.2918 46.8239 26.1357 47.3046 28.559L50.9596 47.3947H65.139L55.2054 0H40.1849L34.1767 23.8225C33.666 25.6751 33.0451 28.6591 32.6746 30.2213H32.5244C32.1439 28.6591 31.523 25.6751 31.0224 23.8225L24.9741 0H9.95359L0 47.4348H14.1894L17.8444 28.5991C18.315 26.1757 18.7055 23.3319 18.8457 22.3305H19.026C19.2463 23.6323 19.8271 26.2358 20.4079 28.4489L25.5649 47.4748L39.6141 47.4348Z" fill="white"/>
<path d="M174.869 7.58067C162.222 7.58067 154.211 16.4628 154.211 28.0987C154.211 39.7346 162.222 48.6267 174.899 48.6267C187.576 48.6267 195.587 39.7446 195.587 28.0987C195.587 16.4528 187.566 7.58067 174.869 7.58067ZM174.869 38.9235C169.301 38.9235 167.068 34.3072 167.068 28.0987C167.068 21.8902 169.301 17.2839 174.869 17.2839C180.436 17.2839 182.669 21.9002 182.669 28.0987C182.669 34.2972 180.436 38.9235 174.869 38.9235Z" fill="white"/>
<path d="M363.335 34.6684C363.302 35.5145 363.475 36.3559 363.84 37.12C364.204 37.8841 364.75 38.5481 365.428 39.0544C366.754 39.9826 368.347 40.4537 369.964 40.3963C372.438 40.3963 375.973 39.3949 375.973 36.2907C375.973 33.1864 371.967 32.7058 369.764 32.185C361.753 30.1823 351.409 29.942 351.409 19.4977C351.409 10.165 361.843 7.63152 369.434 7.63152C377.955 7.63152 386.847 10.0949 387.298 20.1686H375.412C375.466 19.5133 375.342 18.8556 375.053 18.265C374.764 17.6745 374.32 17.1731 373.77 16.8141C372.603 16.1107 371.256 15.7627 369.894 15.8127C367.801 15.8127 364.437 16.033 364.437 18.7267C364.437 22.3817 373.299 23.0526 379.137 24.3143C386.988 25.8864 389 31.5542 389 34.7686C389 45.1427 378.796 48.5774 370.044 48.5774C360.852 48.5774 351.419 45.5133 351.018 34.6885L363.335 34.6684Z" fill="white"/>
</g>
<defs>
<clipPath id="clip0_26_12551">
<rect width="388.47" height="48.56" fill="white" transform="scale(1.00137)"/>
</clipPath>
</defs>
</svg>
