<svg width="27" height="18" viewBox="0 0 27 18" fill="none" xmlns="http://www.w3.org/2000/svg">
<g clip-path="url(#clip0_109_43776)">
<path d="M0 0H27V18H0V0Z" fill="#0052B4"/>
<path d="M13.5 0V6.19162H11.0689L13.5 7.81072V9.00264H12.3082L8.4375 6.42367V9.00264H5.0625V6.42367L1.1918 9.00264H0V7.81072L2.43105 6.19162H0V2.81629H2.43105L0 1.19719V0H1.1918L5.0625 2.57896V0H8.4375V2.57896L12.3082 0H13.5Z" fill="white"/>
<path d="M7.59375 0H5.90625V3.66012H0V5.34779H5.90625V9.00264H7.59375V5.34779H13.5V3.66012H7.59375V0Z" fill="#D80027"/>
<path d="M13.5014 1.19531V2.81442H11.0703L13.5014 1.19531Z" fill="#2E52B2"/>
<path d="M0 9.00127V8.42113L3.2959 6.19025H4.4877L0.384961 9.00127H0ZM0.384961 0.00390625L4.4877 2.80965H3.2959L0 0.584041V0.00390625H0.384961ZM13.5 0.00390625V0.584041L10.2041 2.81492H9.0123L13.115 0.00390625H13.5ZM13.115 9.00127L9.0123 6.19025H10.2041L13.5 8.42113V9.00127H13.115Z" fill="#D80027"/>
<path d="M23.3848 14.6157C24.2294 14.6157 24.9141 13.5885 24.9141 12.3215C24.9141 11.0545 24.2294 10.0273 23.3848 10.0273C22.5402 10.0273 21.8555 11.0545 21.8555 12.3215C21.8555 13.5885 22.5402 14.6157 23.3848 14.6157Z" fill="white"/>
<path d="M21.457 17.2466C22.0978 17.2466 22.6172 17.027 22.6172 16.7561C22.6172 16.4852 22.0978 16.2656 21.457 16.2656C20.8163 16.2656 20.2969 16.4852 20.2969 16.7561C20.2969 17.027 20.8163 17.2466 21.457 17.2466Z" fill="#FFCE00"/>
<path d="M19.1953 17.2466C19.836 17.2466 20.3555 17.027 20.3555 16.7561C20.3555 16.4852 19.836 16.2656 19.1953 16.2656C18.5546 16.2656 18.0352 16.4852 18.0352 16.7561C18.0352 17.027 18.5546 17.2466 19.1953 17.2466Z" fill="#FFCE00"/>
<path d="M18.0352 10.0273L20.3238 14.6104L22.6178 10.0273H18.0352Z" fill="#39B200"/>
<path d="M17.2715 14.6157C18.1161 14.6157 18.8008 13.5885 18.8008 12.3215C18.8008 11.0545 18.1161 10.0273 17.2715 10.0273C16.4269 10.0273 15.7422 11.0545 15.7422 12.3215C15.7422 13.5885 16.4269 14.6157 17.2715 14.6157Z" fill="#9B9B9B"/>
<path d="M19.5668 9.26112L18.8021 10.0258H21.8555L21.0908 9.26112L21.8555 6.96695C21.8555 6.96695 21.1699 5.4375 20.3262 5.4375C19.4824 5.4375 18.7969 6.96695 18.7969 6.96695L19.5668 9.26112Z" fill="#757575"/>
<path d="M20.3262 5.0628C21.1708 5.0628 21.8555 4.37804 21.8555 3.53335C21.8555 2.68866 21.1708 2.00391 20.3262 2.00391C19.4816 2.00391 18.7969 2.68866 18.7969 3.53335C18.7969 4.37804 19.4816 5.0628 20.3262 5.0628Z" fill="#C6B56F"/>
<path d="M20.3574 6.20733C21.202 6.20733 21.8867 5.52257 21.8867 4.67788C21.8867 3.83319 21.202 3.14844 20.3574 3.14844C19.5128 3.14844 18.8281 3.83319 18.8281 4.67788C18.8281 5.52257 19.5128 6.20733 20.3574 6.20733Z" fill="#A54A00"/>
<path d="M23.3848 7.73858C24.2294 7.73858 24.9141 7.05382 24.9141 6.20913C24.9141 5.36444 24.2294 4.67969 23.3848 4.67969C22.5402 4.67969 21.8555 5.36444 21.8555 6.20913C21.8555 7.05382 22.5402 7.73858 23.3848 7.73858Z" fill="white"/>
<path d="M18.0449 9.26592C18.8895 9.26592 19.5742 8.58117 19.5742 7.73648C19.5742 6.89179 18.8895 6.20703 18.0449 6.20703C17.2003 6.20703 16.5156 6.89179 16.5156 7.73648C16.5156 8.58117 17.2003 9.26592 18.0449 9.26592Z" fill="#0049FF"/>
<path d="M22.666 9.26592C23.5106 9.26592 24.1953 8.58117 24.1953 7.73648C24.1953 6.89179 23.5106 6.20703 22.666 6.20703C21.8214 6.20703 21.1367 6.89179 21.1367 7.73648C21.1367 8.58117 21.8214 9.26592 22.666 9.26592Z" fill="#0041F9"/>
<path d="M20.3574 13.848C21.202 13.848 21.8867 13.1632 21.8867 12.3185C21.8867 11.4738 21.202 10.7891 20.3574 10.7891C19.5128 10.7891 18.8281 11.4738 18.8281 12.3185C18.8281 13.1632 19.5128 13.848 20.3574 13.848Z" fill="#F7D71E"/>
<path d="M24.1465 11.555C24.9911 11.555 25.6758 10.8702 25.6758 10.0255C25.6758 9.18085 24.9911 8.49609 24.1465 8.49609C23.3019 8.49609 22.6172 9.18085 22.6172 10.0255C22.6172 10.8702 23.3019 11.555 24.1465 11.555Z" fill="#CEC851"/>
<path d="M20.3262 16.7972C21.1708 16.7972 21.8555 16.1124 21.8555 15.2677C21.8555 14.423 21.1708 13.7383 20.3262 13.7383C19.4816 13.7383 18.7969 14.423 18.7969 15.2677C18.7969 16.1124 19.4816 16.7972 20.3262 16.7972Z" fill="white"/>
<path d="M19.5664 7.15724L20.3311 6.97266L21.0957 7.15724C21.0957 7.55279 20.3311 7.73738 20.3311 7.73738C20.3311 7.73738 19.5664 7.55279 19.5664 7.15724Z" fill="#7C0B29"/>
<path d="M17.2715 7.71905C18.1161 7.71905 18.8008 7.03429 18.8008 6.1896C18.8008 5.34491 18.1161 4.66016 17.2715 4.66016C16.4269 4.66016 15.7422 5.34491 15.7422 6.1896C15.7422 7.03429 16.4269 7.71905 17.2715 7.71905Z" fill="white"/>
</g>
<rect x="0.5" y="0.5" width="26" height="17" rx="0.5" stroke="black" stroke-opacity="0.2"/>
<defs>
<clipPath id="clip0_109_43776">
<rect width="27" height="18" rx="1" fill="white"/>
</clipPath>
</defs>
</svg>
