<svg width="27" height="18" viewBox="0 0 27 18" fill="none" xmlns="http://www.w3.org/2000/svg">
<g clip-path="url(#clip0_109_43893)">
<path d="M0 0H27V18H0V0Z" fill="#10338C"/>
<path d="M27 1.73684L5.01579 9L27 16.3558V17.9647L0 9L27 0V1.73684Z" fill="#D80027"/>
<path d="M26.9997 15.1139V16.4076L4.30078 8.99918L26.9997 1.57812V2.8497" fill="white"/>
<path d="M25.1036 7.38154L23.9515 7.94365L23.7842 7.13733L25.4257 5.57049C25.4257 5.57049 24.9299 3.43102 24.702 3.20312L18.7905 6.14102L18.4305 8.07575L16.7515 9.58049L16.7305 11.3805L18.5352 10.1826L22.0736 10.0426L21.9942 12.0484H23.1642L23.7905 9.69891L25.451 8.40365L25.1036 7.38154Z" fill="#A2001D"/>
<path d="M16.7291 12.5484L15.5586 11.9636L16.7291 11.3789H24.3323V12.5484H16.7291Z" fill="#EFC100"/>
<path fill-rule="evenodd" clip-rule="evenodd" d="M16.7232 11.3516H24.3589V12.5737H16.7232L15.5 11.9626L16.7232 11.3516ZM16.7356 11.4042L15.6178 11.9626L16.7356 12.521H24.3063V11.4042H16.7356Z" fill="#231F20"/>
</g>
<rect x="0.5" y="0.5" width="26" height="17" rx="0.5" stroke="black" stroke-opacity="0.2"/>
<defs>
<clipPath id="clip0_109_43893">
<rect width="27" height="18" rx="1" fill="white"/>
</clipPath>
</defs>
</svg>
