<svg width="375" height="176" viewBox="0 0 375 176" fill="none" xmlns="http://www.w3.org/2000/svg">
<g clip-path="url(#clip0_17_28651)">
<path d="M370.613 43.375V76.2608H307.277L307.283 43.375H370.613Z" fill="#FFBC0D"/>
<path d="M218.277 71.3888H79.5156V43.375H218.367L218.277 71.3888Z" fill="#FFBC0D"/>
<path d="M218.367 45.8105L218.33 56.7725H79.5156V45.8105H218.367Z" fill="#292929" fill-opacity="0.15"/>
<path d="M370.613 45.8105V56.7725H307.277L307.28 45.8105H370.613Z" fill="#292929" fill-opacity="0.15"/>
<path d="M307.277 76.2598H335.291V172.481H307.277V76.2598Z" fill="#F9F9F9"/>
<path d="M336.512 76.2598H370.616V172.481H336.512V76.2598Z" fill="#F9F9F9"/>
<path d="M218.367 33.6309L218.327 45.8096L75.6186 45.8108C74.4076 45.8108 73.4258 44.8293 73.4258 43.6186V35.8242C73.4258 34.6135 74.4076 33.6321 75.6186 33.6321L218.367 33.6309Z" fill="#FFBC0D"/>
<path d="M373.308 33.6321C374.51 33.6321 375.485 34.6135 375.485 35.8242V43.6186C375.485 44.8293 374.51 45.8108 373.308 45.8108L307.277 45.8096L307.28 33.6309L373.308 33.6321Z" fill="#FFBC0D"/>
<path d="M303.016 16L302.983 172.482H222.713L222.629 16L303.016 16Z" fill="#F1F1F1"/>
<path d="M58.5635 76.2598H283.458C284.668 76.2598 285.65 77.2413 285.65 78.4522V95.7477H56.3711V78.4522C56.3711 77.2413 57.3527 76.2598 58.5635 76.2598Z" fill="#6F6F6F"/>
<path d="M223.238 95.748H285.356V172.482H223.238V95.748Z" fill="#D8D8D8"/>
<path d="M118.488 95.748H152.592V172.482H118.488V95.748Z" fill="#F9F9F9"/>
<path d="M153.812 95.748H187.916V172.482H153.812V95.748Z" fill="#F9F9F9"/>
<path d="M189.133 95.748H223.237V172.482H189.133V95.748Z" fill="#F9F9F9"/>
<path d="M251.25 112.799H285.354V172.48H251.25V112.799Z" fill="#F9F9F9"/>
<path d="M56.3711 166.393H118.489V173.701H56.3711V166.393Z" fill="#C2945C"/>
<path d="M56.3711 166.393H118.489V173.701H56.3711V166.393Z" fill="black" fill-opacity="0.15"/>
<path d="M56.3711 159.084H118.489V166.392H56.3711V159.084Z" fill="#C2945C"/>
<path d="M56.3711 152.994H118.489V160.302H56.3711V152.994Z" fill="#C2945C"/>
<path d="M56.3711 152.994H118.489V160.302H56.3711V152.994Z" fill="black" fill-opacity="0.15"/>
<path d="M56.3711 146.904H118.489V154.212H56.3711V146.904Z" fill="#C2945C"/>
<path d="M56.3711 140.814H118.489V148.122H56.3711V140.814Z" fill="#C2945C"/>
<path d="M56.3711 140.814H118.489V148.122H56.3711V140.814Z" fill="black" fill-opacity="0.15"/>
<path d="M56.3711 133.506H118.489V140.814H56.3711V133.506Z" fill="#C2945C"/>
<path d="M56.3711 127.416H118.489V134.724H56.3711V127.416Z" fill="#C2945C"/>
<path d="M56.3711 127.416H118.489V134.724H56.3711V127.416Z" fill="black" fill-opacity="0.15"/>
<path d="M56.3711 121.326H118.489V128.634H56.3711V121.326Z" fill="#C2945C"/>
<path d="M56.3711 115.236H118.489V122.544H56.3711V115.236Z" fill="#C2945C"/>
<path d="M56.3711 115.236H118.489V122.544H56.3711V115.236Z" fill="black" fill-opacity="0.15"/>
<path d="M56.3711 107.928H118.489V115.236H56.3711V107.928Z" fill="#C2945C"/>
<path d="M56.3711 101.838H118.489V109.146H56.3711V101.838Z" fill="#C2945C"/>
<path d="M56.3711 101.838H118.489V109.146H56.3711V101.838Z" fill="black" fill-opacity="0.15"/>
<path d="M56.3711 95.748H118.489V103.056H56.3711V95.748Z" fill="#C2945C"/>
<path d="M151.375 95.748H156.247V172.482H151.375V95.748Z" fill="#D8D8D8"/>
<path d="M334.074 76.2598H338.946V172.481H334.074V76.2598Z" fill="#D8D8D8"/>
<path d="M365.742 76.2598H370.614V172.481H365.742V76.2598Z" fill="#D8D8D8"/>
<path d="M186.699 95.748H191.571V172.482H186.699V95.748Z" fill="#D8D8D8"/>
<path d="M251.25 112.799H285.354V120.107H251.25V112.799Z" fill="#A0A09F" fill-opacity="0.15"/>
<path d="M223.238 95.748H285.356V99.402H223.238V95.748Z" fill="#A0A09F" fill-opacity="0.15"/>
<path d="M186.699 95.748H191.571V103.056H186.699V95.748Z" fill="#A0A09F" fill-opacity="0.15"/>
<path d="M151.375 95.748H156.247V103.056H151.375V95.748Z" fill="#A0A09F" fill-opacity="0.15"/>
<path d="M118.488 95.748H151.374V101.838H118.488V95.748Z" fill="#A0A09F" fill-opacity="0.15"/>
<path d="M156.246 95.748H186.696V101.838H156.246V95.748Z" fill="#A0A09F" fill-opacity="0.15"/>
<path d="M191.57 95.748H223.238V101.838H191.57V95.748Z" fill="#A0A09F" fill-opacity="0.15"/>
<path fill-rule="evenodd" clip-rule="evenodd" d="M273.201 30.947C277.002 30.947 280.082 46.9719 280.082 66.7386H285.591C285.591 45.4497 280.043 28.1934 273.201 28.1934C269.308 28.1934 265.835 33.3808 263.565 41.4902C261.294 33.3808 257.822 28.1934 253.929 28.1934C247.088 28.1934 241.539 45.4497 241.539 66.7386H247.048C247.048 46.9719 250.129 30.947 253.929 30.947C257.73 30.947 260.811 45.7388 260.811 63.985H266.318C266.318 45.7388 269.4 30.947 273.201 30.947Z" fill="#FFBC0D"/>
<path d="M68.3275 175.526L69.4488 175.519C78.2196 175.409 85.1551 173.865 85.1551 164.949C85.1551 155.655 77.6211 148.121 68.3275 148.121C59.0339 148.121 51.5 155.655 51.5 164.949C51.5 174.242 59.0339 175.526 68.3275 175.526Z" fill="#9CC93A"/>
<path d="M106.085 175.526L107.207 175.519C115.977 175.409 122.913 173.865 122.913 164.949C122.913 155.655 115.379 148.121 106.085 148.121C96.7918 148.121 89.2578 155.655 89.2578 164.949C89.2578 174.242 96.7918 175.526 106.085 175.526Z" fill="#9CC93A"/>
<path d="M142.624 175.526L143.746 175.519C152.516 175.409 159.452 173.865 159.452 164.949C159.452 155.655 151.918 148.121 142.624 148.121C133.331 148.121 125.797 155.655 125.797 164.949C125.797 174.242 133.331 175.526 142.624 175.526Z" fill="#9CC93A"/>
</g>
<defs>
<clipPath id="clip0_17_28651">
<rect width="375" height="176" fill="white"/>
</clipPath>
</defs>
</svg>
