<svg width="120" height="200" viewBox="0 0 120 200" fill="none" xmlns="http://www.w3.org/2000/svg">
<g clip-path="url(#clip0_4417_43147)">
<path d="M145.46 -41.019L145.647 -41.1203C147.599 -42.1193 150.013 -41.4223 151.121 -39.5019L178.477 7.87911C179.621 9.86142 178.942 12.3961 176.96 13.5406L101 57.3961C99.0177 58.5405 96.483 57.8613 95.3385 55.8791L67.983 8.49805C66.8386 6.51575 67.5178 3.98105 69.5 2.83652L145.46 -41.019Z" fill="white" stroke="#F1F1F1"/>
<path d="M85.9411 22.7154C85.6184 22.8019 85.3564 23.047 85.2517 23.3696L85.254 23.3781C84.5877 23.5751 84.1391 24.2107 84.1742 24.9192L84.2439 26.1984L84.21 26.2075C83.8872 26.2939 83.3404 26.5969 83.3441 27.6636C83.345 28.0408 83.4155 28.3717 83.4185 28.4169C83.4896 28.7844 83.8064 29.0493 84.1737 29.0613C84.1929 29.0653 84.2547 29.058 84.355 29.0587C85.4994 31.9368 89.8762 42.9044 90.0284 43.2686C90.2905 43.9071 91.074 44.2494 92.3641 44.3087C93.3958 44.3544 94.6115 44.2036 95.7749 43.8918C96.9213 43.5846 98.0936 43.068 99.0082 42.4732C100.148 41.7351 100.664 41.0446 100.572 40.3606C100.5 39.8185 98.889 29.4259 98.2505 25.3446C98.3733 25.2933 98.4451 25.2557 98.4451 25.2557C98.7772 25.1023 98.9622 24.7397 98.8911 24.3722C98.8413 24.1186 98.6197 23.2576 98.0061 22.8698C97.7532 22.7074 97.4686 22.664 97.1945 22.7283C97.0098 22.4464 96.7964 22.2275 96.6099 22.0749C96.3386 21.8439 95.9908 21.7346 95.6419 21.7913L87.2269 23.098L86.617 22.792C86.4312 22.6761 86.1789 22.6517 85.9411 22.7154Z" fill="white"/>
<path d="M85.0898 28.7227C85.0898 28.7227 90.6134 42.5769 90.7702 42.9583C91.01 43.5475 93.2607 43.7268 95.579 43.1056C97.8974 42.4844 99.8799 41.0512 99.7998 40.4467C99.7198 39.8423 97.4715 25.405 97.4715 25.405C97.4715 25.405 95.6851 26.2794 91.2692 27.4627C87.4948 28.4925 85.0898 28.7227 85.0898 28.7227Z" fill="#FBB900"/>
<path d="M84.2038 28.2606C84.2038 28.2606 83.9742 27.098 84.4242 26.9774C84.8828 26.8545 85.0781 26.8022 85.0781 26.8022L84.9702 24.8706C84.9522 24.498 85.2043 24.182 85.5617 24.123L85.8573 24.0714L86.0109 23.6253C86.0512 23.5041 86.1887 23.4396 86.3051 23.5005L87.137 23.9218L95.7967 22.5771C95.9179 22.5539 96.0382 22.5953 96.123 22.6738C96.3226 22.8412 96.6538 23.1943 96.8058 23.6598C96.8058 23.6598 97.1031 23.5801 97.3918 23.5027C97.6805 23.4254 98.013 23.953 98.131 24.5289C98.131 24.5289 95.6203 25.6894 91.2553 26.859C85.8458 28.3085 84.2038 28.2606 84.2038 28.2606Z" fill="#502C1D"/>
<path d="M95.4591 39.6967C95.6753 39.6203 96.1107 40.4977 96.4259 41.6742C96.5317 41.6275 96.629 41.583 96.7348 41.5362C96.3965 40.2738 95.8138 39.3899 95.4154 39.5335C95.1907 39.6121 95.0697 39.9759 95.065 40.5018C94.8003 40.0573 94.5136 39.8027 94.2774 39.8384C93.8691 39.911 93.7979 40.9701 94.1362 42.2325C94.2512 42.2201 94.3577 42.21 94.4727 42.1976C94.1575 41.0211 94.0873 40.0458 94.3212 40.0016C94.5466 39.9596 94.9704 40.794 95.2603 41.8761C95.3707 41.8465 95.4726 41.8192 95.583 41.7896C95.2931 40.7076 95.2429 39.773 95.4591 39.6967Z" fill="#C78901"/>
<path d="M109.937 2.71541C109.615 2.80188 109.353 3.04696 109.248 3.36955L109.25 3.37814C108.584 3.57508 108.135 4.21072 108.17 4.91924L108.24 6.19836L108.206 6.20746C107.883 6.29393 107.336 6.59694 107.34 7.66364C107.341 8.04077 107.412 8.37165 107.415 8.41687C107.486 8.78438 107.802 9.04926 108.17 9.0613C108.189 9.06533 108.251 9.05799 108.351 9.05873C109.495 11.9368 113.872 22.9044 114.025 23.2686C114.287 23.9071 115.07 24.2494 116.36 24.3087C117.392 24.3544 118.608 24.2036 119.771 23.8918C120.917 23.5846 122.09 23.068 123.004 22.4732C124.145 21.7351 124.66 21.0446 124.568 20.3606C124.496 19.8185 122.885 9.42591 122.247 5.34464C122.369 5.29333 122.441 5.25567 122.441 5.25567C122.773 5.10226 122.958 4.73975 122.887 4.37224C122.837 4.11865 122.616 3.2576 122.002 2.86977C121.749 2.70741 121.465 2.66404 121.191 2.72826C121.006 2.44641 120.792 2.22747 120.606 2.07495C120.335 1.84389 119.987 1.73461 119.638 1.79127L111.223 3.09802L110.613 2.79203C110.427 2.67614 110.175 2.6517 109.937 2.71541Z" fill="white"/>
<path d="M109.086 8.72266C109.086 8.72266 114.609 22.5769 114.766 22.9583C115.006 23.5475 117.257 23.7268 119.575 23.1056C121.893 22.4844 123.876 21.0512 123.796 20.4467C123.716 19.8423 121.468 5.40501 121.468 5.40501C121.468 5.40501 119.681 6.27944 115.265 7.46269C111.491 8.49245 109.086 8.72266 109.086 8.72266Z" fill="#FBB900"/>
<path d="M108.2 8.26064C108.2 8.26064 107.97 7.098 108.42 6.9774C108.879 6.85452 109.074 6.80219 109.074 6.80219L108.966 4.87062C108.948 4.49805 109.2 4.18199 109.558 4.12304L109.853 4.07144L110.007 3.62532C110.047 3.50406 110.185 3.43961 110.301 3.50046L111.133 3.92184L119.793 2.57714C119.914 2.55387 120.034 2.59526 120.119 2.6738C120.319 2.84122 120.65 3.19426 120.802 3.65976C120.802 3.65976 121.099 3.58012 121.388 3.50275C121.677 3.42538 122.009 3.95298 122.127 4.52886C122.127 4.52886 119.616 5.6894 115.251 6.85899C109.842 8.30847 108.2 8.26064 108.2 8.26064Z" fill="#502C1D"/>
<path d="M119.455 19.6967C119.671 19.6203 120.107 20.4977 120.422 21.6742C120.528 21.6275 120.625 21.583 120.731 21.5362C120.393 20.2738 119.81 19.3899 119.411 19.5335C119.187 19.6121 119.066 19.9759 119.061 20.5018C118.796 20.0573 118.51 19.8027 118.274 19.8384C117.865 19.911 117.794 20.9701 118.132 22.2325C118.247 22.2201 118.354 22.21 118.469 22.1976C118.154 21.0211 118.083 20.0458 118.317 20.0016C118.543 19.9596 118.966 20.794 119.256 21.8761C119.367 21.8465 119.469 21.8192 119.579 21.7896C119.289 20.7076 119.239 19.773 119.455 19.6967Z" fill="#C78901"/>
<path d="M85.9492 2.16406C85.9492 2.16406 91.4727 16.0183 91.6295 16.3997C91.8693 16.9889 94.12 17.1682 96.4384 16.547C98.7568 15.9258 100.739 14.4926 100.659 13.8881C100.579 13.2837 98.3308 -1.15358 98.3308 -1.15358C98.3308 -1.15358 96.5445 -0.27915 92.1286 0.904097C88.3541 1.93386 85.9492 2.16406 85.9492 2.16406Z" fill="#FBB900"/>
<path d="M96.3185 13.1361C96.5347 13.0598 96.97 13.9372 97.2853 15.1137C97.3911 15.0669 97.4884 15.0224 97.5942 14.9757C97.2559 13.7133 96.6732 12.8294 96.2748 12.9729C96.0501 13.0515 95.9291 13.4153 95.9244 13.9412C95.6597 13.4967 95.373 13.2422 95.1368 13.2778C94.7285 13.3504 94.6573 14.4096 94.9956 15.672C95.1106 15.6596 95.2171 15.6494 95.3321 15.637C95.0168 14.4605 94.9467 13.4853 95.1805 13.441C95.4059 13.399 95.8298 14.2335 96.1197 15.3155C96.2301 15.286 96.332 15.2587 96.4424 15.2291C96.1525 14.147 96.1023 13.2124 96.3185 13.1361Z" fill="#C78901"/>
<path d="M85.0631 1.70205C85.0631 1.70205 84.8335 0.539405 85.2836 0.418805C85.7422 0.295929 85.9375 0.243594 85.9375 0.243594L85.8295 -1.68797C85.8116 -2.06055 86.0637 -2.37661 86.4211 -2.43555L86.7167 -2.48715L86.8702 -2.93327C86.9106 -3.05453 87.048 -3.11898 87.1645 -3.05813L87.9964 -2.63676L96.6561 -3.98146C96.7773 -4.00473 96.8976 -3.96333 96.9823 -3.88479C97.1819 -3.71737 97.5132 -3.36433 97.6652 -2.89884C97.6652 -2.89884 97.9624 -2.97848 98.2512 -3.05584C98.5399 -3.13321 98.8724 -2.60562 98.9903 -2.02973C98.9903 -2.02973 96.4797 -0.869193 92.1147 0.3004C86.7052 1.74988 85.0631 1.70205 85.0631 1.70205Z" fill="#502C1D"/>
<path d="M98.1797 48.9235C97.6274 47.9669 97.9552 46.7437 98.9117 46.1914L154.867 13.8858C155.823 13.3336 157.046 13.6613 157.599 14.6179C158.151 15.5745 157.823 16.7977 156.867 17.35L100.912 49.6555C99.9552 50.2078 98.732 49.88 98.1797 48.9235Z" fill="#F1F1F1"/>
<path d="M178.866 15.3893L179.053 15.2879C181.005 14.2889 183.419 14.9859 184.528 16.9063L211.883 64.2873C213.028 66.2696 212.348 68.8043 210.366 69.9489L134.406 113.804C132.424 114.949 129.889 114.27 128.745 112.287L101.389 64.9063C100.245 62.9239 100.924 60.3893 102.906 59.2447L178.866 15.3893Z" fill="white" stroke="#F1F1F1"/>
<path d="M75.5301 35.858C77.5125 34.7136 80.0472 35.3928 81.1917 37.375L110.047 87.3541C111.192 89.3365 110.512 91.8711 108.53 93.0157L73.2734 113.371C71.2911 114.516 68.7564 113.836 67.6119 111.854L38.7564 61.875C37.612 59.8927 38.2912 57.358 40.2734 56.2135L75.5301 35.858Z" fill="white" stroke="#F1F1F1"/>
<path fill-rule="evenodd" clip-rule="evenodd" d="M80.9187 86.3021C89.528 81.3316 92.4778 70.3229 87.5072 61.7137C82.5366 53.1044 71.528 50.1546 62.9187 55.1252C54.3095 60.0958 51.3597 71.1044 56.3303 79.7137C61.3009 88.3229 72.3095 91.2727 80.9187 86.3021ZM81.6687 87.6012C90.9955 82.2164 94.191 70.2904 88.8062 60.9637C83.4215 51.637 71.4955 48.4414 62.1687 53.8262C52.842 59.2109 49.6465 71.137 55.0312 80.4637C60.416 89.7904 72.342 92.9859 81.6687 87.6012Z" fill="url(#paint0_linear_4417_43147)"/>
<path d="M65.3899 56.5857C65.0328 56.7918 64.7215 57.0991 64.4505 57.4978C63.6127 58.7595 63.818 60.439 63.9815 61.7856C64.0321 62.1772 64.0718 62.5496 64.086 62.8347L64.0821 62.8497C64.0876 62.8593 64.0782 62.8647 64.0838 62.8743C64.0628 63.9448 63.9289 64.2772 63.9024 64.318L63.8399 64.4051C63.45 64.9235 62.9125 65.6419 63.4657 66.687C63.622 66.9793 63.7921 67.1872 64.0021 67.3338C64.0976 67.5209 64.2008 67.6781 64.3229 67.8244L64.319 67.8394C64.1282 68.2684 64.0738 68.6951 64.1371 69.1303C64.2661 69.9613 64.6863 70.6241 65.283 71.0065C65.2409 71.1073 65.2044 71.2176 65.1828 71.3321C65.1634 71.4071 65.1684 71.4807 65.1639 71.5598L65.1656 71.5844C65.1633 71.6239 65.1666 71.673 65.181 71.7413C65.1997 71.9473 65.2559 72.1316 65.3365 72.3146C65.3476 72.3337 65.3586 72.3528 65.3752 72.3815C65.3807 72.3911 65.3918 72.4102 65.3973 72.4198C65.7617 73.051 66.3922 73.2099 66.8194 73.3203L66.879 73.3369C66.8464 73.4322 66.8193 73.5372 66.8164 73.6408C66.7809 74.0567 66.9509 74.4813 67.2624 74.7605C67.511 74.9741 67.7735 75.1031 67.9934 75.1802L69.3044 77.1905C69.3043 77.4074 69.3678 77.6258 69.4837 77.8266C69.5831 77.9988 69.8863 78.3721 70.5086 78.4081L71.144 78.6406C71.5219 79.0346 71.9887 79.3006 72.4888 79.4072L75.8273 84.213C76.405 85.0399 78.221 84.9734 79.7904 84.0673C81.388 83.1449 82.3475 81.66 81.9258 80.7558L79.4165 75.433C79.5704 74.9616 79.5789 74.4339 79.4377 73.9288L79.6061 73.0919C79.7228 72.795 79.7368 72.4936 79.6347 72.2083C79.542 71.9175 79.3459 71.6864 79.0873 71.5423L78.0074 69.4114C78.0506 69.1824 78.0701 68.8906 78.0094 68.5685C77.9345 68.1782 77.6721 67.8323 77.3185 67.6539C77.3452 67.3963 77.3138 67.1466 77.2094 66.9008C76.9494 66.2985 76.3931 66.0076 75.9179 65.8356C75.9229 65.6924 75.9224 65.5397 75.896 65.3637C75.7593 64.5627 75.344 63.9736 74.6517 63.6209C74.3633 63.4686 74.0798 63.3899 73.8372 63.3387C73.7898 63.2131 73.7384 63.1025 73.6816 62.9823C73.3111 62.1887 72.6455 61.5783 71.9166 61.336C71.5177 61.2093 71.1347 61.1753 70.7943 61.1934C70.5502 60.6839 70.0945 60.2201 69.4288 59.8266C69.2205 59.7046 69.0271 59.5867 68.8597 59.492C68.6663 59.3741 68.4337 59.2534 68.2442 59.1205C68.4876 58.6739 68.5321 58.0999 68.3539 57.5524C68.19 57.0732 67.7729 56.6764 67.2364 56.4633C66.633 56.1995 65.9538 56.2601 65.3899 56.5857Z" fill="white"/>
<path d="M77.0469 68.7034C77.1273 69.1032 76.9503 69.4477 76.9503 69.4477L78.4179 72.3369C78.5677 72.3141 78.6738 72.3677 78.7047 72.4646C78.7229 72.5178 78.7466 72.5806 78.6647 72.7427C78.3981 73.2792 77.3221 74.4105 75.0385 75.729C72.83 77.004 71.3947 77.3609 70.6707 77.4091C70.4424 77.4261 70.3496 77.3521 70.322 77.3043C70.2723 77.2183 70.2751 77.1146 70.3658 77.0112L68.5975 74.2957C68.5975 74.2957 68.2107 74.2768 67.9046 74.0072C67.7339 73.8634 67.7722 73.5608 67.9822 73.4905C68.7926 73.2012 70.0113 72.8163 72.4923 71.3839C74.9169 69.9841 75.9121 69.1035 76.5717 68.5314C76.7265 68.3655 77.0077 68.4837 77.0469 68.7034ZM75.2609 76.3529C73.2686 77.5032 71.9858 77.7337 71.705 77.7683C71.9138 78.0431 72.3364 78.4495 73.0283 78.4326L76.6308 83.6087C76.7285 83.7564 77.8481 84.0026 79.3047 83.1617C80.7331 82.3369 81.1315 81.2908 81.0471 81.1228L78.349 75.3862C78.6964 74.8158 78.5612 74.2562 78.437 73.9326C78.082 74.3161 77.0653 75.3112 75.2609 76.3529Z" fill="#DCB98A"/>
<path d="M72.7254 76.082C72.0286 74.5714 71.7418 73.4235 72.0707 73.2336C72.4184 73.0328 73.3321 73.9208 74.3157 75.3423C74.5749 75.2054 74.8287 75.0589 75.0957 74.892C74.3509 73.3199 74.0387 72.0846 74.3864 71.8839C74.7059 71.6994 75.5566 72.5217 76.5259 73.875C76.7066 73.7324 76.8819 73.5802 77.0517 73.4184C75.9072 72.0005 74.7758 71.2127 74.1931 71.5491C73.7233 71.8204 73.6742 72.6904 73.976 73.8424C73.1292 73.0051 72.3512 72.6126 71.8813 72.8838C71.2893 73.2257 71.4058 74.5994 72.0764 76.3036C72.2638 76.2592 72.4777 76.1739 72.7254 76.082Z" fill="#F0D0A0"/>
<path d="M65.1126 68.9758C65.0597 68.6237 65.1654 68.3077 65.3269 68.0231C65.7281 67.0902 66.4539 66.6328 66.9948 65.7467C68.1259 63.9077 67.0741 61.7605 67.0741 61.7605C67.5442 62.2925 67.8362 62.8635 67.9824 63.4422C68.0684 63.8516 68.108 64.2241 68.1068 64.5691C68.0872 65.0778 67.993 65.5657 67.8414 65.9976C67.8181 66.0875 67.7799 66.1733 67.7512 66.2537C67.3312 67.1975 66.6556 67.8937 66.338 68.6891C66.0453 69.4192 66.2759 70.166 66.3471 70.3544C65.9625 70.2959 65.2713 70.0319 65.1126 68.9758ZM74.9526 66.5082C74.683 66.3451 75.012 65.9383 74.9321 65.4744C74.8616 65.005 74.6401 64.6865 74.2158 64.4724C73.8213 64.2666 73.4494 64.2518 73.0427 64.1551C73.0058 63.8958 72.9296 63.6337 72.801 63.3892C72.5735 62.9084 72.146 62.4284 71.6222 62.259C70.9585 62.0427 70.3323 62.2385 70.0526 62.3617C70.0001 62.3793 69.9481 62.3328 69.9692 62.2824C70.0577 62.0017 70.0824 61.3499 68.9332 60.6616C67.6928 59.924 66.9049 59.601 66.8555 58.8644C66.9003 58.8768 66.9395 58.8796 66.9937 58.8866C67.3883 58.8756 67.582 58.3429 67.418 57.8637C67.2541 57.3845 66.1171 56.804 65.2659 58.0861C64.4054 59.3735 65.025 61.5535 65.0581 62.8479C65.0597 62.8725 65.0558 62.8874 65.0575 62.912C65.0432 63.8639 64.9318 64.6041 64.6951 64.9321C64.292 65.4709 64.0465 65.7401 64.3242 66.2429C64.576 66.7224 64.6883 66.5045 64.776 66.7217C64.9427 67.0972 65.1317 67.2942 65.2654 67.3956C65.2638 67.1542 65.2877 66.7833 65.4836 66.4279C66.0195 65.4681 66.4389 64.5884 66.1003 62.9603C65.711 61.1574 64.944 58.7438 66.1816 58.1312C66.2098 58.1149 66.2342 58.1137 66.264 58.1219C66.4232 58.0938 66.5469 58.2647 66.5667 58.3425C66.5723 58.352 66.5435 58.4324 66.5125 58.5523C66.4515 58.8808 66.423 59.5476 66.9776 60.2477C67.5967 61.0379 68.5295 61.2645 68.9765 62.4729C69.2376 63.1638 69.0836 63.8521 68.9038 64.3002C69.0387 64.2734 69.3642 64.2512 69.632 64.6067C70.0866 65.1986 69.1168 66.1666 68.3282 67.1447C67.7742 67.8345 67.3876 68.402 67.0767 69.0788C67.044 69.1742 67.1076 69.1757 67.1717 69.1132C67.7136 68.5325 68.7811 67.7121 69.3263 67.1806C69.5187 66.993 69.7017 66.8108 69.8754 66.6341C70.895 65.5353 71.0584 64.6248 70.8714 64.0187C70.6755 63.3539 69.9852 63.3953 69.9852 63.3953C70.9268 62.4436 72.6534 63.3724 71.8803 65.5275C71.042 67.8734 67.291 70.3833 66.8112 70.7241C66.4856 70.9631 66.1969 71.2445 66.1382 71.5335C66.136 71.573 66.1432 71.6071 66.1465 71.6562C66.153 71.7544 66.1823 71.8268 66.206 71.8896C66.2116 71.8992 66.2226 71.9183 66.2281 71.9279C66.3883 72.2053 66.7297 72.2759 67.0823 72.3656C67.226 72.3975 67.3415 72.4456 67.442 72.4895C67.5072 72.5156 67.6188 72.5787 67.757 72.601C67.9156 72.6369 68.114 72.6117 68.3158 72.4186C68.4667 72.2677 68.9931 71.747 69.6146 71.0439C69.7186 70.9201 69.8374 70.8005 69.9453 70.6617C70.172 70.4033 70.4026 70.1299 70.6221 69.8373C70.6315 69.8319 70.6354 69.8169 70.6448 69.8115C70.7526 69.6727 70.851 69.5394 70.9589 69.4006C70.9683 69.3952 70.9722 69.3802 70.9816 69.3748C71.0894 69.236 71.1917 69.0877 71.294 68.9393C71.3963 68.791 71.4892 68.6481 71.5822 68.5052C71.586 68.4902 71.5954 68.4848 71.6087 68.4643C71.6922 68.3269 71.7757 68.1894 71.8554 68.0669C71.8592 68.0519 71.8686 68.0465 71.8725 68.0315C71.956 67.894 72.0246 67.7524 72.0932 67.6108C72.5695 66.6344 72.7958 66.0064 72.916 65.5417C72.9719 65.3564 73.0035 65.1724 73.003 65.0196C73.0069 65.0046 73.0014 64.9951 73.0052 64.9801C73.0291 64.826 73.038 64.6679 73.0414 64.5001C73.0524 64.5192 73.0729 64.5329 73.0839 64.5521C73.1723 64.7051 73.5561 65.2614 73.4671 66.4095C73.3326 68.0429 71.756 70.1519 71.2285 70.8008C70.7009 71.4496 70.901 71.4489 70.9629 71.4259C72.1448 70.7818 72.66 70.4589 73.4046 69.9907C73.6855 69.7393 74.5853 68.4546 74.7545 67.12C74.7545 67.12 75.338 67.3059 75.2299 67.8784C75.1274 68.4604 74.7392 69.0034 74.7032 69.0496C74.6806 69.0755 74.701 69.0892 74.7441 69.077C75.5441 68.4877 76.0832 68.0107 76.222 67.752C76.7408 66.8276 75.2222 66.6714 74.9526 66.5082Z" fill="#D6D1CA"/>
<path d="M69.7539 100.695C69.2016 99.7384 69.5294 98.5152 70.486 97.9629L96.4667 82.9629C97.4233 82.4106 98.6465 82.7384 99.1988 83.6949C99.751 84.6515 99.4233 85.8747 98.4667 86.427L72.486 101.427C71.5294 101.979 70.3062 101.652 69.7539 100.695Z" fill="#F1F1F1"/>
<path d="M110.03 95.6139C112.012 94.4695 114.547 95.1486 115.692 97.1309L144.547 147.11C145.692 149.092 145.012 151.627 143.03 152.772L107.773 173.127C105.791 174.271 103.256 173.592 102.112 171.61L73.2564 121.631C72.112 119.649 72.7912 117.114 74.7734 115.969L110.03 95.6139Z" fill="white" stroke="#F1F1F1"/>
<path fill-rule="evenodd" clip-rule="evenodd" d="M115.106 145.521C123.716 140.55 126.665 129.542 121.695 120.932C116.724 112.323 105.716 109.373 97.1062 114.344C88.497 119.315 85.5472 130.323 90.5178 138.932C95.4884 147.542 106.497 150.491 115.106 145.521ZM115.856 146.82C125.183 141.435 128.379 129.509 122.994 120.182C117.609 110.856 105.683 107.66 96.3562 113.045C87.0295 118.43 83.834 130.356 89.2188 139.682C94.6035 149.009 106.53 152.205 115.856 146.82Z" fill="url(#paint1_linear_4417_43147)"/>
<path fill-rule="evenodd" clip-rule="evenodd" d="M100.616 120.315L100.474 120.394C95.2975 123.307 92.355 128.283 94.4412 131.897L94.5163 132.026C94.6617 132.271 94.7864 132.447 94.9455 132.603C95.0936 132.748 95.2584 132.858 95.4403 132.922L95.5988 133.197L95.5957 133.24C95.5821 133.502 95.6646 133.767 95.8258 134.056L95.8484 134.096L96.2 134.705L96.1852 134.737C96.153 134.81 96.1249 134.89 96.1009 134.975L96.0892 135.019C95.9569 135.527 96.1171 135.894 96.4253 136.058L96.4317 136.095L96.4415 136.145C96.4491 136.182 96.45 136.192 96.434 136.21L96.4188 136.226C96.3326 136.312 96.1392 136.404 95.838 136.479C95.2968 136.614 95.2473 137.371 95.7645 137.601C96.4834 137.921 97.0885 138.047 97.5651 137.93L97.5715 137.928L97.598 137.957C97.8508 138.23 98.1694 138.425 98.5147 138.526L98.5205 138.528L98.5184 138.551C98.49 138.891 98.5599 139.242 98.734 139.56L98.7537 139.595L98.9134 139.858L98.9184 139.871C98.925 139.886 98.9322 139.901 98.9402 139.917L98.9526 139.939L99.3439 140.617C99.3159 140.78 99.3312 140.952 99.3908 141.125L99.4033 141.159C99.4938 141.397 99.6477 141.566 99.8364 141.664L99.8518 141.671L99.8605 141.73L99.8722 141.801L99.8851 141.873C99.897 141.938 99.9266 142.083 99.9351 142.125C99.9365 142.132 99.9373 142.136 99.9374 142.137L99.9477 142.194C99.9515 142.216 99.9545 142.235 99.9573 142.254L99.9636 142.298L99.9671 142.32C99.97 142.336 99.9738 142.354 99.9792 142.374C99.985 142.396 99.9875 142.405 99.9951 142.424L100.022 142.489C100.04 142.525 100.046 142.536 100.067 142.565L100.107 142.618C100.178 142.695 100.19 142.708 100.292 142.76L100.365 142.797C100.559 142.838 100.578 142.842 100.718 142.805L100.766 142.793L100.767 142.793C100.878 142.736 100.898 142.726 100.939 142.688L100.97 142.66L100.987 142.639L100.999 142.652C101.754 143.479 102.943 143.787 103.999 143.374L104.039 143.358L104.081 143.34C106.617 142.244 109.139 140.972 111.649 139.523C114.235 138.03 116.854 136.323 119.506 134.401C120.611 133.601 120.931 132.077 120.252 130.849L120.229 130.809L120.188 130.738L120.199 130.726C120.446 130.453 120.453 130.011 120.083 129.751L120.06 129.735C119.887 129.621 119.644 129.548 119.38 129.519L119.338 129.514C119.203 129.335 119.022 129.223 118.827 129.181L118.816 129.179L118.783 129.121L118.773 129.096L118.761 129.072L118.379 128.307C118.374 128.296 118.368 128.285 118.361 128.274C118.103 127.827 117.682 127.532 117.22 127.426L117.204 127.422L117.207 127.358C117.211 127.241 117.205 127.123 117.188 127.005L117.182 126.969L117.199 126.959C117.875 126.536 118.221 125.866 118.026 125.12L118.015 125.081L117.993 125.006L117.943 124.832L117.913 124.728L117.888 124.649C117.841 124.495 117.8 124.383 117.754 124.293C117.723 124.233 117.689 124.18 117.638 124.124C117.582 124.063 117.515 124.01 117.424 123.971C117.268 123.903 117.086 123.901 116.923 123.983C116.799 124.046 116.718 124.138 116.665 124.242L116.66 124.253L116.586 124.257C116.564 124.258 116.545 124.259 116.528 124.26L116.48 124.263L116.454 124.266L116.433 124.227C116.386 124.145 116.323 124.067 116.244 123.995L116.221 123.974C116.103 123.871 115.949 123.786 115.788 123.729L115.781 123.726L115.773 123.696C115.673 123.323 115.469 122.98 115.171 122.728L115.137 122.7L115.055 122.635C114.844 122.47 114.671 122.355 114.497 122.279L114.495 122.278L114.396 122.106L114.398 122.101C114.48 121.82 114.428 121.522 114.286 121.224L114.27 121.192C114.242 121.136 114.217 121.09 114.181 121.029L114.117 120.922L114.036 120.784C112.937 118.941 110.829 118.07 108.148 118.132C105.757 118.187 103.017 118.993 100.616 120.315ZM95.0181 131.728L94.9466 131.605C92.951 128.149 96.2108 123.48 100.768 120.915L100.908 120.838C105.449 118.338 111.525 117.61 113.564 121.133C113.583 121.166 113.604 121.201 113.627 121.238C113.778 121.489 113.977 121.819 113.725 122.11L114.105 122.77C114.294 122.809 114.473 122.923 114.703 123.103L114.781 123.165C115.118 123.436 115.271 123.88 115.256 124.282C115.289 124.266 115.318 124.256 115.347 124.249L115.359 124.246C115.523 124.214 116.384 124.5 115.668 124.98C115.839 125.088 116.027 125.117 116.338 124.911C116.414 124.86 116.549 124.854 116.688 124.848C116.922 124.838 117.169 124.827 117.177 124.602L117.178 124.572C117.198 124.341 117.351 124.885 117.417 125.118L117.422 125.135L117.452 125.24C117.616 125.812 117.252 126.324 116.578 126.608L116.532 126.628C116.513 126.636 116.495 126.645 116.477 126.653C116.71 127.136 116.651 127.687 116.361 128.091C116.891 127.829 117.548 128.032 117.856 128.566L118.238 129.331L118.232 129.335L118.499 129.796C118.646 129.722 118.807 129.747 118.901 129.91C118.905 129.916 118.909 129.923 118.912 129.929C118.97 130.028 118.989 130.06 118.952 130.107C119.287 130.075 119.61 130.141 119.748 130.232C119.832 130.287 119.754 130.34 119.623 130.407L119.452 130.492L119.391 130.524L119.724 131.101L119.744 131.136C120.273 132.092 120.024 133.287 119.157 133.914C116.521 135.825 113.918 137.521 111.35 139.004C108.859 140.442 106.356 141.705 103.84 142.792L103.803 142.808C102.826 143.208 101.687 142.808 101.143 141.866L101.028 141.666L101.006 141.681C100.907 141.749 100.858 141.825 100.812 141.898C100.77 141.962 100.73 142.025 100.656 142.079L100.645 142.088C100.585 142.137 100.564 142.196 100.554 142.222C100.549 142.238 100.548 142.242 100.544 142.222L100.526 142.105L100.515 142.042C100.51 142.015 100.503 141.984 100.496 141.949C100.463 141.783 100.412 141.538 100.405 141.287L100.33 141.158C100.161 141.189 100.021 141.142 99.9509 140.956C99.891 140.799 99.9156 140.676 99.9945 140.577L99.458 139.648L99.4655 139.643L99.2591 139.303C99.0055 138.864 99.0637 138.332 99.3664 137.975C98.7846 138.112 98.1512 137.851 97.8296 137.294L97.7483 137.153C97.4498 137.477 96.8638 137.445 95.9905 137.057C96.7753 136.861 97.1172 136.52 97.0161 136.035L97.0081 135.993C96.9741 135.803 96.9855 135.65 97.026 135.522C96.7182 135.621 96.5585 135.562 96.6574 135.182C96.727 134.914 96.8212 134.795 96.9537 134.735C96.8741 134.668 96.8021 134.581 96.7396 134.472L96.3537 133.804C96.1908 133.522 96.1404 133.316 96.2226 133.11L95.8078 132.392C95.4807 132.394 95.2501 132.104 95.0692 131.812L95.0181 131.728Z" fill="white"/>
<path fill-rule="evenodd" clip-rule="evenodd" d="M119.159 133.916C116.522 135.827 113.92 137.523 111.351 139.006C108.86 140.444 106.357 141.707 103.841 142.794C102.856 143.22 101.695 142.821 101.144 141.868L100.661 141.03L119.258 130.293L119.725 131.102C120.281 132.065 120.036 133.281 119.159 133.916Z" fill="#EC9D47"/>
<path d="M118.12 130.519L118.101 130.547C117.29 131.76 116.591 131.257 115.754 131.781C115.41 131.996 115.167 132.243 115 132.463L114.961 132.46C114.919 132.458 114.875 132.457 114.829 132.459L114.611 132.585L114.442 132.68C114.213 132.81 113.964 132.947 113.696 133.092L113.559 133.166L113.386 133.257C113.218 133.347 112.993 133.474 112.793 133.61L112.781 133.622C112.748 133.678 112.72 133.735 112.698 133.792C112.651 133.909 112.612 134.02 112.574 134.124C112.338 134.219 112.139 134.311 111.893 134.373C111.657 134.577 111.454 134.775 111.278 134.969C110.948 135.331 108.512 136.39 107.329 137.069L107.01 137.198C106.314 137.484 105.745 137.735 105.601 137.764L105.593 137.765C105.526 137.775 105.459 137.788 105.392 137.804L105.337 137.866L105.279 137.93C104.836 138.412 104.214 138.925 103.16 139.36C102.92 139.458 102.686 139.615 102.464 139.806C102.104 139.778 102 140.031 101.763 140.117C101.44 140.234 101.263 140.174 100.808 140.394C100.185 140.695 100.452 141.705 100.516 142.044C100.58 142.383 100.501 142.196 100.657 142.08C100.814 141.965 100.819 141.812 101.007 141.682C101.805 141.131 102.359 142.27 103.489 141.869C104.099 141.652 104.353 140.71 104.558 140.531C104.764 140.353 105.088 140.408 105.322 140.278C106.427 139.666 106.688 138.728 107.538 138.077L107.48 138.053C107.445 138.039 107.411 138.026 107.376 138.013C107.314 137.99 107.48 137.891 107.759 137.751L107.988 137.744C108.976 137.712 110.162 137.636 110.148 137.969C110.616 137.794 111.061 137.521 111.562 137.2C112.047 136.888 112.312 136.202 112.679 135.929C113.321 135.453 115.429 134.908 115.429 134.908C115.429 134.908 115.042 134.522 115.234 134.202C115.498 133.761 116.493 133.159 116.725 133.221C116.957 133.283 117.179 133.293 117.394 133.171C117.922 132.87 117.92 132.527 118.146 132.318C118.384 132.098 118.574 132.117 118.982 131.935C119.437 131.731 119.335 131.421 119.164 131.211L119.154 131.198C118.626 130.571 120.017 130.41 119.749 130.233C119.48 130.057 118.507 129.975 118.12 130.519Z" fill="#9CC93A"/>
<path fill-rule="evenodd" clip-rule="evenodd" d="M112.157 133.945C109.054 136.454 107.144 136.474 105.411 137.25C104.277 137.757 103.311 138.408 102.639 139.056C102.632 139.063 102.336 139.297 102.163 139.411C101.853 139.616 101.51 139.814 101.135 140.005C101.135 140.005 100.61 140.23 100.32 140.357C100.029 140.484 99.8365 140.657 99.9506 140.958C100.039 141.19 100.234 141.206 100.46 141.122C100.687 141.038 101.762 140.12 105.079 138.419C108.397 136.717 110.399 140.748 110.424 139.075C110.449 137.342 111.409 135.501 112.342 134.461C113.275 133.422 116.399 131.986 117.274 131.442C118.149 130.899 118.347 130.663 118.672 130.357C118.997 130.052 119.028 130.131 118.901 129.912C118.787 129.714 118.574 129.719 118.406 129.858C118.312 129.936 118.046 130.25 116.669 131.097C115.578 131.768 113.529 132.836 112.157 133.945Z" fill="#FFBC0D"/>
<path fill-rule="evenodd" clip-rule="evenodd" d="M99.6577 137.733C99.1172 138.045 98.939 138.748 99.2598 139.304L99.6308 139.915C99.6308 139.915 100.24 139.846 101.736 138.924C103.231 138.003 103.898 137.129 105.029 136.621C106.758 135.845 107.742 136.116 110.65 134.058C113.559 131.999 118.239 129.332 118.239 129.332L117.857 128.567C117.536 128.011 116.838 127.814 116.297 128.126C112.409 130.099 109.512 131.634 107.606 132.732C105.7 133.829 103.124 135.457 99.6577 137.733Z" fill="#73371F"/>
<path fill-rule="evenodd" clip-rule="evenodd" d="M115.819 125.502C115.753 125.388 115.609 125.347 115.497 125.412L97.3044 135.915C97.1927 135.98 97.1558 136.125 97.222 136.239L97.3872 136.526C98.0294 137.638 99.4396 138.013 100.505 137.356C102.634 136.045 105.977 133.996 107.738 132.979C109.68 131.858 113.67 129.698 115.78 128.562C116.534 128.156 116.794 127.192 116.355 126.43L115.819 125.502Z" fill="#EC9D47"/>
<path d="M109.775 127.954L109.67 128.001C108.332 128.597 108.217 128.203 107.558 128.571C107.259 128.737 107.099 128.967 106.992 129.224C106.249 129.18 105.515 129.217 104.844 129.623C104.314 129.945 104.054 130.767 103.655 131.057C102.958 131.563 101.331 131.889 100.523 131.711C100.465 131.698 100.452 131.784 100.504 131.84L100.616 131.958C100.834 132.193 101.063 132.491 100.867 132.86C100.594 133.374 99.9491 133.717 99.2389 133.877C98.9728 133.767 98.7213 133.723 98.4861 133.846C97.9063 134.148 97.9286 134.578 97.6853 134.808L97.6578 134.833C97.3632 135.097 96.8658 135.307 97.0172 136.035C97.1688 136.764 95.9916 137.058 95.9916 137.058C95.9916 137.058 97.417 137.691 97.8216 137.06L97.8392 137.032C98.6855 135.628 99.5042 136.356 100.421 135.818C100.797 135.597 101.056 135.323 101.233 135.07C101.41 134.817 103.456 134.661 103.758 133.73L103.793 133.62C103.956 133.088 104.029 132.665 104.512 132.544C104.8 132.472 105.259 132.549 105.968 132.076C106.426 131.772 106.665 131.189 106.867 130.684C107.279 130.633 107.437 130.452 108.121 130.744L108.164 130.762C108.706 131.001 109.032 131.011 109.315 130.599L109.333 130.572C109.761 129.918 110.36 130.307 111.147 129.785C111.668 129.439 111.539 128.041 113.104 127.679C113.38 127.615 113.605 127.363 113.779 127.034C114.054 127.154 114.285 127.304 114.452 127.407C115.322 127.946 115.315 127.259 115.651 127.145L115.665 127.141C116.011 127.042 116.073 126.833 116.533 126.628L116.579 126.608C117.265 126.32 117.631 125.794 117.444 125.209C117.413 125.112 117.189 124.244 117.178 124.603C117.166 124.962 116.544 124.775 116.339 124.911C115.47 125.489 115.56 124.222 114.305 124.566C113.689 124.734 113.01 125.631 112.689 126.245L112.344 126.127C111.947 125.994 111.517 125.879 111.219 126.025C110.408 126.42 110.539 127.601 109.775 127.954Z" fill="#9CC93A"/>
<path fill-rule="evenodd" clip-rule="evenodd" d="M113.002 123.118C112.091 123.645 107.635 125.802 104.874 127.396C102.079 129.01 97.5894 131.879 96.8712 132.431C96.1532 132.984 96.0331 133.244 96.3564 133.804C96.6798 134.364 96.4189 133.912 96.7423 134.472C97.0656 135.032 97.6469 135.026 98.1885 134.713L114.857 125.089C115.399 124.777 115.413 123.67 114.784 123.165C114.155 122.66 113.913 122.592 113.002 123.118Z" fill="#73371F"/>
<path d="M115.361 124.248C115.16 124.288 114.953 124.484 113.441 125.633C112.848 126.083 111.863 126.731 110.238 127.62C109.1 128.242 107.321 129.245 104.06 131.049C100.8 132.852 99.3925 133.763 98.3502 134.345C97.3077 134.928 96.87 134.372 96.6589 135.184C96.4478 135.995 97.4157 135.341 98.4871 134.818C99.5586 134.296 99.3349 134.049 102.812 132.183C106.289 130.317 107.954 129.882 109.534 128.992C112.512 127.315 112.991 126.03 114.904 125.34C116.816 124.65 115.561 124.208 115.361 124.248Z" fill="#EDC8A3"/>
<path fill-rule="evenodd" clip-rule="evenodd" d="M94.9493 131.607C95.1979 132.037 95.5411 132.632 96.1544 132.294C96.7537 131.932 101.415 128.551 104.345 126.874C107.139 125.246 112.457 122.727 113.336 122.374C114.194 122.001 113.749 121.465 113.565 121.136C111.505 117.578 105.326 118.356 100.771 120.917C96.2135 123.482 92.9536 128.15 94.9493 131.607Z" fill="white"/>
<path fill-rule="evenodd" clip-rule="evenodd" d="M94.9492 131.605L95.0242 131.734C95.2668 132.142 95.6005 132.597 96.1544 132.292L96.1952 132.267C96.9394 131.795 101.474 128.515 104.345 126.872L104.516 126.773C107.35 125.144 112.475 122.718 113.336 122.372C114.194 121.999 113.749 121.463 113.565 121.134C111.505 117.576 105.326 118.354 100.771 120.915C96.2134 123.48 92.9536 128.148 94.9492 131.605ZM112.091 121.243C112.152 121.078 112.331 120.991 112.491 121.049C112.651 121.107 112.732 121.288 112.672 121.454C112.612 121.619 112.195 122.129 112.108 122.098C112.021 122.066 112.031 121.409 112.091 121.243ZM99.4495 128.565C99.4528 128.375 99.702 127.702 99.8038 127.7C99.9056 127.698 100.132 128.364 100.128 128.553C100.125 128.743 99.9704 128.9 99.7829 128.903C99.5954 128.906 99.4462 128.755 99.4495 128.565ZM108.245 122.878C108.181 122.698 108.276 122.497 108.456 122.43C108.637 122.362 108.835 122.454 108.899 122.634C108.964 122.815 108.96 123.535 108.862 123.572C108.764 123.608 108.309 123.058 108.245 122.878ZM102.797 125.918C102.857 125.752 103.036 125.665 103.196 125.724C103.357 125.782 103.438 125.963 103.377 126.129C103.317 126.294 102.901 126.804 102.814 126.773C102.726 126.741 102.736 126.084 102.797 125.918ZM104.925 124.524C104.917 124.334 105.063 124.187 105.251 124.194C105.438 124.202 106.109 124.469 106.113 124.572C106.117 124.676 105.465 124.89 105.277 124.882C105.09 124.874 104.932 124.714 104.925 124.524ZM95.6719 129.612C95.7259 129.451 95.9032 129.373 96.068 129.438C96.2328 129.503 96.7457 129.936 96.7164 130.023C96.6872 130.111 96.0376 130.086 95.8728 130.021C95.708 129.956 95.6181 129.773 95.6719 129.612ZM97.7307 126.827C97.7599 126.739 98.4096 126.764 98.5744 126.829C98.7392 126.894 98.8291 127.077 98.7751 127.238C98.7213 127.399 98.544 127.477 98.3791 127.413C98.2143 127.348 97.7015 126.915 97.7307 126.827ZM109.741 119.973C109.801 119.807 109.98 119.72 110.141 119.779C110.301 119.837 110.382 120.018 110.321 120.184C110.261 120.349 109.845 120.859 109.758 120.828C109.671 120.796 109.68 120.138 109.741 119.973ZM100.288 124.513C100.455 124.416 100.668 124.47 100.762 124.634C100.857 124.798 100.978 125.497 100.887 125.55C100.796 125.602 100.25 125.148 100.156 124.984C100.061 124.82 100.12 124.609 100.288 124.513ZM106.515 121.528C106.575 121.362 106.992 120.852 107.079 120.884C107.166 120.915 107.156 121.573 107.096 121.738C107.035 121.904 106.856 121.991 106.696 121.933C106.536 121.875 106.455 121.693 106.515 121.528ZM102.478 123.114C102.531 123.027 103.238 123.148 103.404 123.24C103.57 123.332 103.627 123.537 103.53 123.697C103.434 123.858 103.221 123.914 103.055 123.822C102.889 123.73 102.426 123.201 102.478 123.114ZM97.7793 124.357C97.7152 124.177 97.8098 123.976 97.9905 123.909C98.1712 123.842 98.3696 123.933 98.4337 124.114C98.4977 124.294 98.4947 125.015 98.3965 125.051C98.2983 125.088 97.8434 124.537 97.7793 124.357ZM104.544 119.981C104.712 119.884 104.924 119.939 105.019 120.102C105.113 120.266 105.234 120.966 105.143 121.018C105.052 121.071 104.507 120.616 104.412 120.452C104.318 120.289 104.377 120.078 104.544 119.981ZM101.674 121.173C101.735 121.008 101.914 120.921 102.074 120.979C102.234 121.037 102.315 121.218 102.255 121.384C102.195 121.55 101.778 122.06 101.691 122.028C101.604 121.996 101.614 121.339 101.674 121.173Z" fill="#EC9D47"/>
<path d="M103.941 159.914C103.389 158.957 103.717 157.734 104.673 157.182L130.654 142.182C131.611 141.629 132.834 141.957 133.386 142.914C133.939 143.87 133.611 145.093 132.654 145.646L106.673 160.646C105.717 161.198 104.494 160.87 103.941 159.914Z" fill="#F1F1F1"/>
<path d="M144.874 155.503C146.856 154.358 149.391 155.037 150.535 157.02L179.391 206.999C180.535 208.981 179.856 211.516 177.874 212.66L142.617 233.016C140.635 234.16 138.1 233.481 136.956 231.499L108.1 181.52C106.956 179.537 107.635 177.003 109.617 175.858L144.874 155.503Z" fill="white" stroke="#F1F1F1"/>
<path d="M41.163 -22.6107C43.1453 -23.7551 45.68 -23.076 46.8245 -21.0937L74.68 27.1533C75.8244 29.1356 75.1452 31.6703 73.163 32.8149L37.9063 53.1703C35.9239 54.3147 33.3893 53.6356 32.2447 51.6533L4.38925 3.40626C3.24486 1.42395 3.92403 -1.11075 5.90626 -2.25528L41.163 -22.6107Z" fill="white" stroke="#F1F1F1"/>
<path fill-rule="evenodd" clip-rule="evenodd" d="M44.6375 25.226C53.2468 20.2554 56.1965 9.24676 51.226 0.637495C46.2554 -7.97177 35.2468 -10.9215 26.6375 -5.95096C18.0282 -0.980399 15.0785 10.0282 20.049 18.6375C25.0196 27.2468 36.0282 30.1965 44.6375 25.226ZM45.3875 26.525C54.7142 21.1402 57.9098 9.2142 52.525 -0.112505C47.1402 -9.43921 35.2142 -12.6348 25.8875 -7.25C16.5608 -1.86522 13.3652 10.0608 18.75 19.3875C24.1348 28.7142 36.0608 31.9098 45.3875 26.525Z" fill="url(#paint2_linear_4417_43147)"/>
<path d="M47.7882 14.662C48.129 15.2524 45.1351 17.619 41.1011 19.9481C37.067 22.2771 33.5205 23.6866 33.1796 23.0963C32.8388 22.5059 35.8327 20.1393 39.8668 17.8102C43.9008 15.4812 47.4473 14.0717 47.7882 14.662Z" fill="#A0A09F" fill-opacity="0.15"/>
<path fill-rule="evenodd" clip-rule="evenodd" d="M27.3813 10.5514L26.7887 10.8936C26.7887 10.8936 28.7922 13.5269 30.9767 16.014C33.1613 18.5012 35.5754 20.8974 35.5754 20.8974L36.7495 21.0345C36.7495 21.0345 37.9363 19.5344 39.9893 18.3491C42.0423 17.1638 44.0375 16.8268 44.0375 16.8268L44.5058 15.7414C44.5058 15.7414 43.6495 12.4875 42.576 9.31718C41.5026 6.14691 40.2356 3.12997 40.2356 3.12997L39.7194 3.42802L39.5928 2.95775L39.5928 2.95772C39.2357 1.39813 38.9101 0.363666 38.3493 -1.07828C37.7395 -0.921572 37.1211 -0.393718 37.1796 -0.186479C37.248 0.0557563 37.2901 0.220071 37.3395 0.413259L37.3396 0.41334L37.3396 0.413493L37.3397 0.413757C37.3626 0.503178 37.3871 0.598801 37.4165 0.71121C37.0628 0.596213 36.5458 0.731116 36.0878 0.94049C36.5529 1.99782 36.6863 2.47927 36.9762 3.52585L36.9762 3.526C37.0033 3.62378 37.0318 3.72649 37.062 3.83506C36.3241 2.42744 35.9649 1.61789 35.3823 0.0568022C34.8346 0.240979 34.2427 0.690523 34.2501 1.15837C34.5896 2.04561 34.7803 2.53611 35.1399 3.27086L35.0082 3.06157C34.2982 1.93243 33.8486 1.21739 33.0194 0.021876C32.4265 0.430263 32.0148 1.05042 32.1294 1.4953L32.1899 1.58463C32.3035 1.75209 32.4558 1.9766 32.5488 2.11715C32.1155 2.35461 31.7592 2.80583 31.6689 3.03686C31.8103 3.4551 31.9458 3.7967 32.0765 4.12598L32.0765 4.12599C32.2773 4.63216 32.4666 5.10921 32.6477 5.79074C32.6477 5.79074 32.1077 5.10088 30.6641 1.75875C30.5775 1.5582 29.6043 1.48619 29.0701 1.70664C29.4851 2.68257 29.9129 3.64937 30.3525 4.60876C29.6837 3.5633 28.9774 2.53194 28.2289 1.51096C27.8132 1.66241 27.3927 2.80087 27.5182 2.97595C28.9703 5.0028 29.1707 5.341 30.0129 6.77264C29.0667 5.57831 28.7087 5.14296 28.0786 4.45808C27.6046 4.78106 27.2023 5.71685 27.3444 5.87876C28.0275 6.65739 28.284 7.02259 29.0058 8.14104C28.3543 7.36684 27.9403 6.94159 27.4507 6.43871L27.4507 6.43871L27.4507 6.4387C27.1497 6.12955 26.8202 5.79105 26.3894 5.32411C26.3206 5.24945 25.2985 5.49033 24.8892 5.8981C25.0216 6.0369 25.1548 6.17536 25.2879 6.31382L25.2879 6.31385L25.2879 6.31388C26.0646 7.12155 26.8407 7.92877 27.4767 8.79912C26.789 8.24347 26.1118 7.66155 25.4457 7.04447C25.0434 7.45926 24.9651 8.73726 25.0407 8.80504C25.4401 9.16281 25.8272 9.43545 26.2243 9.7151C26.4645 9.88429 26.7084 10.056 26.9608 10.2508L26.9608 10.2508L27.3813 10.5514Z" fill="white"/>
<path fill-rule="evenodd" clip-rule="evenodd" d="M26.7891 10.8926L28.419 9.95154C28.419 9.95154 32.0008 13.045 35.6962 10.9115C39.3915 8.77799 38.6061 4.07002 38.6061 4.07002L40.236 3.12898C40.236 3.12898 41.503 6.14592 42.5764 9.31619C43.6499 12.4865 44.5062 15.7405 44.5062 15.7405L44.0379 16.8258C44.0379 16.8258 42.0427 17.1628 39.9897 18.3481C37.9367 19.5334 36.7499 21.0335 36.7499 21.0335L35.5758 20.8964C35.5758 20.8964 33.1617 18.5002 30.9771 16.013C28.7926 13.5259 26.7891 10.8926 26.7891 10.8926Z" fill="#DB0007"/>
<path fill-rule="evenodd" clip-rule="evenodd" d="M37.4374 11.5374C36.9784 11.8024 36.9092 12.6282 37.1733 13.7046C36.3735 12.9375 35.6235 12.5846 35.1644 12.8497C34.3576 13.3155 34.8355 15.6546 36.2322 18.0738L36.8817 17.6988C35.5848 15.4524 34.8969 13.4214 35.3451 13.1626C35.7935 12.9037 37.1276 14.3751 38.3247 16.4486L38.9742 16.0737C37.777 14.0001 37.1698 12.1091 37.6181 11.8503C38.0665 11.5914 39.4814 13.2027 40.7783 15.4491L41.4276 15.0742C40.0309 12.655 38.2444 11.0714 37.4374 11.5374Z" fill="#FFBC0D"/>
<path fill-rule="evenodd" clip-rule="evenodd" d="M28.5908 9.30975C28.5908 9.30975 32.1501 12.4162 35.5118 10.4753C38.8735 8.53445 37.9629 3.89876 37.9629 3.89876C37.9629 3.89876 38.8797 3.36942 39.5928 2.95772C39.2357 1.39813 38.9101 0.363666 38.3493 -1.07828C37.7395 -0.921572 37.1211 -0.393718 37.1796 -0.186479C37.2797 0.168058 37.3234 0.355678 37.4165 0.71121C37.0628 0.596212 36.5458 0.731116 36.0878 0.94049C36.5964 2.09665 36.7083 2.56424 37.062 3.83506C36.3241 2.42744 35.9649 1.61789 35.3823 0.0568022C34.8346 0.240979 34.2427 0.690523 34.2501 1.15837C34.5896 2.04561 34.7803 2.53611 35.1399 3.27086C34.3511 2.01704 33.8987 1.28958 33.0194 0.0218759C32.4265 0.430262 32.0148 1.05042 32.1294 1.4953C32.2427 1.66256 32.4379 1.94955 32.5488 2.11715C32.1155 2.35461 31.7592 2.80583 31.6689 3.03686C32.0276 4.09801 32.3488 4.66585 32.6477 5.79074C32.6477 5.79074 32.1077 5.10088 30.6641 1.75875C30.5775 1.5582 29.6043 1.48619 29.0701 1.70664C29.4851 2.68257 29.9129 3.64937 30.3525 4.60876C29.6837 3.5633 28.9774 2.53194 28.2289 1.51096C27.8132 1.66241 27.3927 2.80087 27.5182 2.97595C28.9703 5.0028 29.1707 5.341 30.0129 6.77264C29.0667 5.57831 28.7087 5.14296 28.0786 4.45808C27.6046 4.78106 27.2023 5.71685 27.3444 5.87876C28.0275 6.65739 28.284 7.02259 29.0058 8.14104C27.9537 6.89088 27.521 6.5506 26.3894 5.32411C26.3206 5.24945 25.2985 5.49033 24.8892 5.8981C25.7943 6.84662 26.7317 7.77955 27.4767 8.79912C26.789 8.24347 26.1118 7.66155 25.4457 7.04447C25.0434 7.45926 24.9651 8.73726 25.0407 8.80504C25.6818 9.37928 26.2911 9.73418 26.9608 10.2508L28.5908 9.30975Z" fill="#FFBC0D"/>
<path fill-rule="evenodd" clip-rule="evenodd" d="M27.0413 3.31825C26.8025 2.98507 26.8956 2.54475 27.1323 1.99992C27.3541 1.48964 27.6402 1.09962 28.0288 0.958054C28.2745 0.868541 28.5498 0.952026 28.7044 1.16294L28.7441 1.21754L28.7568 1.2092C28.778 1.19588 28.8002 1.18376 28.8234 1.17299L28.8469 1.16268C29.6149 0.845752 30.9394 0.909789 31.2052 1.52525C31.2647 1.66299 31.3231 1.79725 31.3804 1.9281L31.5103 2.2232L31.5334 2.19728C31.5995 2.12354 31.6707 2.05139 31.7454 1.98262L31.7485 1.97976L31.6479 1.83121L31.6255 1.79653C31.5968 1.74834 31.575 1.69621 31.561 1.64174C31.3741 0.916525 31.8908 0.0855608 32.6869 -0.462781C32.9538 -0.646611 33.3191 -0.579907 33.5038 -0.313617C33.6142 -0.154541 33.7188 -0.00252958 33.8194 0.144852L33.9532 0.341878L33.9568 0.337237C34.2307 -0.0249276 34.6691 -0.315661 35.1543 -0.486596L35.196 -0.500954C35.4968 -0.602102 35.8235 -0.446427 35.9345 -0.149137C35.9674 -0.0610054 35.9995 0.0246584 36.0311 0.108107L36.1025 0.296138L36.1858 0.264891C36.3359 0.210396 36.4834 0.166817 36.6272 0.135637L36.6581 0.129143L36.6381 0.0564162L36.6148 -0.0269454C36.4253 -0.697829 37.3439 -1.42714 38.204 -1.64821C38.4924 -1.72232 38.7906 -1.56926 38.8986 -1.29177C39.4331 0.0825593 39.7524 1.08491 40.0743 2.4287L40.1045 2.55646L40.1164 2.55369C40.3762 2.49926 40.6511 2.62729 40.7693 2.87997L40.779 2.90193C41.6291 4.92615 42.4141 7.0016 43.1342 9.12824C43.8542 11.2546 44.5014 13.409 45.0757 15.5914C45.1092 15.7186 45.0991 15.8534 45.047 15.9741L44.5787 17.0595C44.4997 17.2426 44.3333 17.3732 44.1366 17.4064C42.8785 17.6189 41.5947 18.1016 40.2845 18.8581C38.9771 19.6129 37.9542 20.4608 37.2119 21.3991C37.0853 21.5591 36.885 21.6421 36.6824 21.6184L35.5083 21.4813C35.3775 21.466 35.2556 21.4073 35.1622 21.3145C33.5433 19.7077 32.0012 18.0701 30.536 16.4018C29.0705 14.7334 27.6657 13.0159 26.3217 11.2494C26.151 11.0251 26.1678 10.7221 26.3363 10.5184L26.3373 10.517L26.2204 10.4323L26.1138 10.3561L25.6808 10.0502C25.2826 9.7672 25.0109 9.55982 24.733 9.31685L24.6494 9.24278C24.3723 8.99452 24.3807 8.61338 24.4843 7.96221L24.4943 7.90169C24.5695 7.46068 24.6923 7.082 24.8869 6.8027L24.9111 6.76905L24.4648 6.30385C24.244 6.07241 24.2486 5.70687 24.4753 5.48111C24.7384 5.21905 25.1373 5.01565 25.5873 4.87025C25.765 4.81284 25.9411 4.76875 26.0889 4.74436C26.1727 4.73055 26.2488 4.72267 26.3191 4.72219C26.3732 4.72183 26.4254 4.72557 26.4804 4.73641C26.6031 4.76056 26.7166 4.80984 26.8228 4.92499L26.9234 5.03363L26.9519 4.97302C27.1176 4.62938 27.3402 4.31321 27.5935 4.09207L27.5181 3.98594L27.0413 3.31825ZM30.3537 4.6084C29.6849 3.56294 28.9786 2.53158 28.2301 1.51061C27.8144 1.66206 27.3939 2.80052 27.5194 2.97559C28.6941 4.6153 29.0496 5.14984 29.5885 6.05221L30.0141 6.77229C29.1509 5.68273 28.7772 5.22483 28.2399 4.63288L28.0798 4.45773C27.6058 4.78071 27.2034 5.7165 27.3456 5.87841C27.9604 6.57917 28.2296 6.94506 28.8035 7.82659L29.007 8.14069C28.3554 7.36649 27.9415 6.94123 27.4519 6.43835C27.1839 6.16303 26.8932 5.86444 26.5285 5.47258L26.3906 5.32376C26.3217 5.2491 25.2997 5.48998 24.8903 5.89775C25.0228 6.03657 25.156 6.17505 25.2891 6.31353C26.0657 7.1212 26.8419 7.92842 27.4779 8.79877C26.7901 8.24312 26.113 7.66119 25.4468 7.04412C25.0446 7.45891 24.9662 8.73691 25.0419 8.80469C25.4413 9.16246 25.8284 9.4351 26.2255 9.71474C26.4322 9.86032 26.6415 10.0078 26.8568 10.1702L26.962 10.2504L27.3825 10.551L26.7898 10.8932C28.1255 12.6487 29.5215 14.3555 30.9779 16.0136C32.4343 17.6718 33.9671 19.2996 35.5766 20.897L36.7506 21.0342C37.5419 20.034 38.6218 19.1389 39.9904 18.3487C41.3591 17.5585 42.7085 17.0511 44.0387 16.8264L44.507 15.7411C43.9361 13.5717 43.2928 11.4303 42.5772 9.3168C41.8615 7.20328 41.0814 5.14088 40.2368 3.12959L39.7206 3.4276L39.594 2.95736L39.5616 2.817C39.217 1.33471 38.8943 0.319617 38.3504 -1.07864C37.7407 -0.921925 37.1223 -0.394072 37.1808 -0.186832C37.2142 -0.0686533 37.2412 0.0309796 37.266 0.124466L37.4177 0.710856C37.064 0.595859 36.547 0.730763 36.089 0.940136C36.5007 1.87608 36.6525 2.36078 36.883 3.18564L37.0632 3.83471C36.3613 2.49576 36.0021 1.69794 35.4672 0.279693L35.3835 0.0564486C34.8358 0.240626 34.2439 0.69017 34.2513 1.15801C34.5682 1.98611 34.7554 2.4686 35.0713 3.12662L35.141 3.27051C35.0961 3.1991 35.0523 3.12941 35.0094 3.06122C34.3424 2.00049 33.9052 1.30521 33.1673 0.23375L33.0206 0.0215221C32.4277 0.429909 32.0159 1.05007 32.1305 1.49494C32.1489 1.52197 32.1693 1.55213 32.1912 1.5844C32.2735 1.70575 32.3762 1.85705 32.4618 1.98463L32.55 2.1168C32.1166 2.35426 31.7604 2.80548 31.6701 3.0365C31.8114 3.45474 31.947 3.79635 32.0777 4.12563C32.2785 4.6318 32.4678 5.10885 32.6489 5.79039C32.6489 5.79039 32.1512 5.15461 30.8342 2.14685L30.6653 1.7584C30.5787 1.55785 29.6055 1.48584 29.0713 1.70629C29.4863 2.68222 29.9141 3.64902 30.3537 4.6084Z" fill="white"/>
<path d="M33.082 39.9977C32.5297 39.0411 32.8575 37.8179 33.8141 37.2656L59.7948 22.2656C60.7514 21.7133 61.9746 22.0411 62.5269 22.9977C63.0792 23.9543 62.7514 25.1774 61.7948 25.7297L35.8141 40.7297C34.8575 41.282 33.6343 40.9543 33.082 39.9977Z" fill="#F1F1F1"/>
</g>
<defs>
<linearGradient id="paint0_linear_4417_43147" x1="81.249" y1="87.2725" x2="61.749" y2="53.4975" gradientUnits="userSpaceOnUse">
<stop stop-color="white" stop-opacity="0"/>
<stop offset="0.252114" stop-color="#FBEE0C" stop-opacity="0"/>
<stop offset="0.482226" stop-color="#F4C70E"/>
<stop offset="0.746632" stop-color="#D51E14"/>
</linearGradient>
<linearGradient id="paint1_linear_4417_43147" x1="115.436" y1="146.491" x2="95.9365" y2="112.716" gradientUnits="userSpaceOnUse">
<stop stop-color="white" stop-opacity="0"/>
<stop offset="0.252114" stop-color="#FBEE0C" stop-opacity="0"/>
<stop offset="0.482226" stop-color="#F4C70E"/>
<stop offset="0.746632" stop-color="#D51E14"/>
</linearGradient>
<linearGradient id="paint2_linear_4417_43147" x1="44.9677" y1="26.1963" x2="25.4677" y2="-7.57865" gradientUnits="userSpaceOnUse">
<stop stop-color="white" stop-opacity="0"/>
<stop offset="0.252114" stop-color="#FBEE0C" stop-opacity="0"/>
<stop offset="0.482226" stop-color="#F4C70E"/>
<stop offset="0.746632" stop-color="#D51E14"/>
</linearGradient>
<clipPath id="clip0_4417_43147">
<rect width="120" height="200" fill="white"/>
</clipPath>
</defs>
</svg>
