<svg width="27" height="18" viewBox="0 0 27 18" fill="none" xmlns="http://www.w3.org/2000/svg">
<g clip-path="url(#clip0_109_43738)">
<path d="M0 0H27V18H0V0Z" fill="#D80027"/>
<path d="M26.9474 0H0V18" fill="#6DA544"/>
<path d="M16.1947 0L0 10.2368V18H10.8895L27 7.81579V0H16.1947Z" fill="#FFDA44"/>
<path d="M27 0H20.2737L0 13.1263V17.9474L6.64211 18L27 4.82105V0Z" fill="black"/>
<path d="M7.42438 9.84235L9.06649 11.1055L10.7665 9.93709L10.077 11.8845L11.7139 13.1424L9.6507 13.0845L8.95596 15.0318L8.37175 13.0529L6.30859 12.995L8.00859 11.8266L7.42438 9.84235ZM16.3454 3.72656L17.9875 4.98446L19.6875 3.81604L18.9981 5.7634L20.6349 7.0213L18.5718 6.9634L17.877 8.91077L17.2928 6.93183L15.2297 6.87393L16.9349 5.70551L16.3454 3.72656Z" fill="white"/>
</g>
<rect x="0.5" y="0.5" width="26" height="17" rx="0.5" stroke="black" stroke-opacity="0.2"/>
<defs>
<clipPath id="clip0_109_43738">
<rect width="27" height="18" rx="1" fill="white"/>
</clipPath>
</defs>
</svg>
