<svg width="27" height="18" viewBox="0 0 27 18" fill="none" xmlns="http://www.w3.org/2000/svg">
<g clip-path="url(#clip0_109_43732)">
<path d="M0 0H27V17.9996H0V0Z" fill="black"/>
<path d="M0 0H27V5.99985H0V0Z" fill="#D80027"/>
<path d="M0 12H27V17.9999H0V12Z" fill="#496E2D"/>
<path d="M14.8401 7.94531L15.3127 8.59658L16.0781 8.34841L15.6048 8.9991L16.0773 9.65032L15.3122 9.4012L14.8389 10.0519L14.8394 9.24732L14.0742 8.99815L14.8396 8.74999L14.8401 7.94531Z" fill="white"/>
<path d="M13.5514 10.6273C12.6524 10.6273 11.9236 9.89849 11.9236 8.99953C11.9236 8.10056 12.6525 7.37172 13.5514 7.37172C13.8218 7.37134 14.088 7.43859 14.3258 7.56736C13.9645 7.21415 13.4705 6.99609 12.9254 6.99609C11.8189 6.99609 10.9219 7.89311 10.9219 8.99958C10.9219 10.1061 11.8189 11.0031 12.9254 11.0031C13.4705 11.0031 13.9645 10.785 14.3258 10.4318C14.088 10.5605 13.8218 10.6278 13.5514 10.6273Z" fill="white"/>
</g>
<rect x="0.5" y="0.5" width="26" height="17" rx="0.5" stroke="black" stroke-opacity="0.2"/>
<defs>
<clipPath id="clip0_109_43732">
<rect width="27" height="18" rx="1" fill="white"/>
</clipPath>
</defs>
</svg>
