<svg width="375" height="225" viewBox="0 0 375 225" fill="none" xmlns="http://www.w3.org/2000/svg">
<path d="M98 30H267C271.418 30 275 33.5817 275 38C275 42.4183 271.418 46 267 46H98C93.5817 46 90 42.4183 90 38C90 33.5817 93.5817 30 98 30Z" fill="#6F6F6F"/>
<path d="M257 38C258.105 38 259 38.8954 259 40L259 112.074C257.649 111.954 256.229 112.443 255.166 113.77C243.481 128.351 230.834 139.861 217.227 148.324C203.723 156.722 193.931 161.196 188.308 161.759C183.355 162.256 182.755 169.236 187.55 170.572C195.664 172.832 202.071 176.535 206.864 181.675C211.546 186.696 215.348 193.793 218.212 202.999L107 203C105.895 203 105 202.105 105 201V40C105 38.8954 105.895 38 107 38H257Z" fill="#F1F1F1"/>
<rect x="131" y="114" width="81" height="6" fill="#A0A09F"/>
<path d="M192 161C190.614 161.398 189.378 161.651 188.297 161.759C185.341 162.056 183.936 164.663 184.303 167L131 167V161L192 161Z" fill="#A0A09F"/>
<rect x="131" y="152" width="41" height="6" fill="#A0A09F"/>
<rect x="131" y="103" width="41" height="6" fill="#A0A09F"/>
<path d="M258.755 116.317C258.755 116.317 252.044 137.286 243.007 159.036C233.971 180.787 222.935 202.538 222.935 202.538C222.935 202.538 218.307 186.998 210.233 178.339C202.159 169.681 188.835 165.97 188.835 165.97C188.835 165.97 198.597 164.991 219.682 151.878C240.767 138.764 258.755 116.317 258.755 116.317Z" fill="#D8D8D8"/>
<mask id="mask0_3835_40577" style="mask-type:alpha" maskUnits="userSpaceOnUse" x="128" y="38" width="108" height="62">
<rect x="128" y="38" width="108" height="62" fill="#C4C4C4"/>
</mask>
<g mask="url(#mask0_3835_40577)">
<path fill-rule="evenodd" clip-rule="evenodd" d="M136 67.998C136 72.1054 139.07 75.557 143.161 75.9198C148.809 76.4205 156.992 76.998 164.696 76.998C171.923 76.998 178.898 76.4897 183.847 76.0133C187.958 75.6176 191 72.1282 191 67.998H136Z" fill="#EC9D47"/>
<path d="M139.008 67.2806L139.087 67.3194C142.439 69.0323 143.345 66.9482 145.875 67.0405C146.912 67.0784 147.766 67.3241 148.421 67.609L148.502 67.5509C148.592 67.4894 148.69 67.4304 148.794 67.3743L149.44 67.3719L149.936 67.3676C150.611 67.3601 151.337 67.3462 152.12 67.324L152.518 67.3114L153.017 67.2924C153.505 67.2769 154.167 67.2681 154.786 67.3162L154.827 67.3293C154.972 67.4131 155.106 67.506 155.23 67.6082C155.483 67.8159 155.711 68.0201 155.929 68.2068C156.575 68.1115 157.134 68.0606 157.76 67.8761C158.544 68.0327 159.249 68.2174 159.888 68.4296C161.083 68.8266 167.845 68.0262 171.338 68.0154L172.211 67.89C174.121 67.6227 175.704 67.445 176.061 67.3197L176.082 67.3117C176.243 67.2463 176.408 67.1869 176.577 67.1341L176.779 67.2043L176.989 67.2744C178.589 67.7931 180.626 68.15 183.522 67.7484C184.179 67.6573 184.899 67.7061 185.636 67.8521C186.399 67.3102 186.953 67.7517 187.59 67.635C188.456 67.4768 188.772 67.1016 190.064 67.0029C191.83 66.8685 192.533 69.548 192.825 70.4132C193.117 71.2784 193.053 70.7419 192.558 70.6846C192.064 70.6273 191.856 70.282 191.272 70.2332C188.797 70.0251 189.027 73.3814 186.005 73.9596C184.374 74.2718 182.604 72.4406 181.919 72.3032C181.235 72.1658 180.587 72.7229 179.902 72.7351C176.665 72.7929 174.884 70.9813 172.165 70.6123L172.264 70.481C172.323 70.4042 172.382 70.3278 172.442 70.2519C172.551 70.1146 172.056 70.1072 171.258 70.1564L170.741 70.4462C168.509 71.6846 165.778 73.0851 166.236 73.8339C164.973 74.051 163.637 74.0147 162.115 73.9403C160.64 73.868 159.172 72.6421 158.008 72.502C155.975 72.2577 150.6 73.8054 150.6 73.8054C150.6 73.8054 150.965 72.4029 150.127 71.9206C148.977 71.2587 146 71.1952 145.564 71.646C145.128 72.0967 144.648 72.4137 144.016 72.4175C142.458 72.4268 142.023 71.6345 141.255 71.4541C140.446 71.2644 140.048 71.5615 138.909 71.6835C137.638 71.8198 137.469 70.9685 137.578 70.2599L137.585 70.2167C137.952 68.0739 134.659 69.5496 135.029 68.787C135.399 68.0244 137.452 66.5421 139.008 67.2806Z" fill="#9CC93A"/>
<path fill-rule="evenodd" clip-rule="evenodd" d="M156.054 67.4184C166.114 68.9595 170.361 66.6309 175.182 66.1482C178.336 65.8324 181.303 66.0311 183.615 66.5912C183.64 66.5972 184.592 66.7327 185.121 66.7637C186.067 66.8192 187.078 66.8192 188.152 66.7637C188.152 66.7637 189.597 66.5955 190.402 66.5087C191.207 66.4219 191.854 66.5551 191.985 67.3423C192.086 67.9505 191.675 68.227 191.068 68.3284C190.46 68.4297 186.911 67.7904 177.408 68.2499C167.904 68.7093 168.621 79.8616 166.432 76.2959C164.164 72.6004 159.693 69.8332 156.304 68.7561C152.916 67.6789 144.179 68.471 141.551 68.3879C138.923 68.3047 138.183 68.0444 137.075 67.7904C135.966 67.5365 136 67.7457 136 67.1161C136 66.5488 136.478 66.2968 137.026 66.3876C137.332 66.4383 138.323 66.7822 142.446 66.8942C145.714 66.983 151.606 66.737 156.054 67.4184Z" fill="#FFBC0D"/>
<path fill-rule="evenodd" clip-rule="evenodd" d="M189.105 59.904C190.704 59.904 192 61.226 192 62.8567L191.96 64.6739C191.96 64.6739 190.519 65.2956 186.022 65.1677C181.524 65.0398 178.927 63.9643 175.768 64.2835C170.939 64.7715 169.104 66.6188 160.016 65.7847C150.929 64.9505 137.132 65.0267 137.132 65.0267L137 62.8567C137 61.226 138.296 59.904 139.895 59.904C151.045 59.3063 159.437 59.0044 165.07 58.9981C170.704 58.9919 178.502 59.3 189.105 59.904Z" fill="#73371F"/>
<path fill-rule="evenodd" clip-rule="evenodd" d="M137 53.9207C137 53.4111 137.413 52.998 137.923 52.998H191.342C191.705 52.998 192 53.2928 192 53.6564C192 57.1847 189.086 60.0155 185.559 59.9198C179.146 59.746 169.551 59.5111 164.5 59.5111C159.378 59.5111 149.585 59.7526 143.174 59.9271C139.792 60.0192 137 57.3044 137 53.9207Z" fill="#EC9D47"/>
<path d="M154.006 50.8413L154.297 50.8135C158.026 50.4309 157.776 49.4325 159.707 49.4033C160.581 49.3898 161.231 49.6893 161.796 50.1141C163.386 49.0861 165.06 48.2479 167.065 48.2905C168.65 48.3243 170.279 49.7812 171.534 49.9104C173.726 50.1355 177.748 48.8059 179.309 47.4087C179.422 47.3073 179.561 47.4784 179.516 47.6651L179.42 48.0599C179.238 48.8434 179.111 49.7768 180.017 50.3321C181.28 51.1053 183.148 51.0426 184.926 50.4998C185.374 49.9275 185.876 49.5186 186.554 49.4902C188.225 49.4204 188.727 50.3812 189.559 50.5749L189.653 50.5953C190.643 50.7986 192.013 50.6313 192.61 52.4017C193.206 54.172 196.19 53.3352 196.19 53.3352C196.19 53.3352 193.843 56.4949 192.139 55.6322L192.064 55.5929C188.392 53.606 187.51 56.2103 184.791 56.1912C183.676 56.1834 182.749 55.9126 182.034 55.5859C181.319 55.2592 176.588 57.4826 174.726 55.8418L174.508 55.6459C173.465 54.6948 172.762 53.8693 171.539 54.2117C170.808 54.4161 169.891 55.1578 167.713 55.0203C166.309 54.932 165.035 53.9665 163.941 53.1237C162.962 53.5289 162.381 53.3355 161.238 54.8253L161.168 54.9186C160.272 56.1166 159.565 56.5453 158.41 56.0056L158.335 55.9699C156.55 55.0862 155.722 56.6809 153.309 56.5327C151.712 56.4345 150.21 53.2402 146.277 54.4137C145.584 54.6202 144.763 54.3556 143.957 53.8608C143.501 54.4657 143.182 55.0794 142.945 55.5119C141.705 57.771 140.843 56.2707 139.952 56.4449L139.916 56.4529C139.022 56.6734 138.618 56.2978 137.337 56.4287L137.21 56.443C135.32 56.6751 133.838 55.9927 133.503 54.491C133.447 54.24 132.833 52.0771 133.318 52.8413C133.802 53.6056 134.941 52.4216 135.57 52.4598C138.235 52.6238 136.415 49.9891 139.633 49.1627C141.214 48.7566 143.866 49.8525 145.362 50.7829L145.975 50.0955C146.686 49.3095 147.49 48.5221 148.338 48.464C150.639 48.3062 151.861 51.0324 154.006 50.8413Z" fill="#9CC93A"/>
<path fill-rule="evenodd" clip-rule="evenodd" d="M141.043 44.838C143.704 44.838 156.186 43.998 164.248 43.998C172.408 43.998 185.866 44.558 188.137 44.838C190.409 45.118 191 45.5038 191 47.0158C191 48.5279 191 47.3082 191 48.8203C191 50.3323 189.718 50.998 188.137 50.998H139.472C137.891 50.998 136.461 48.7736 137.2 47.0158C137.939 45.258 138.383 44.838 141.043 44.838Z" fill="#73371F"/>
<path d="M136.89 50.2744C137.38 50.1252 138.08 50.2744 142.837 50.8187C144.703 51.032 147.676 51.1882 152.352 51.0908C155.627 51.0226 160.784 50.9738 170.193 50.8187C179.602 50.6635 183.829 50.857 186.845 50.8187C189.86 50.7803 190.115 49.186 191.602 50.5465C193.089 51.9071 190.145 51.7176 187.142 51.9071C184.139 52.0966 184.317 51.3559 174.356 51.635C164.395 51.914 160.203 52.9519 155.623 52.9956C146.994 53.0779 144.324 51.0908 139.269 51.9071C134.214 52.7234 136.401 50.4237 136.89 50.2744Z" fill="#E5AF71"/>
<path fill-rule="evenodd" clip-rule="evenodd" d="M190.994 40.9569C190.994 42.2071 190.994 43.9334 189.223 43.968C187.454 43.9334 172.974 42.4308 164.439 42.4625C156.264 42.4308 141.437 43.6329 139.065 43.968C136.717 44.2339 137.012 42.5076 137 41.5591C137.012 31.2215 151.525 25.1478 164.734 24.998C177.956 24.8535 190.994 30.9209 190.994 40.9569Z" fill="white"/>
<path d="M164.736 24.998C177.959 24.8533 190.999 30.9306 190.999 40.9824C190.999 42.2345 190.999 43.9632 189.229 43.998C187.459 43.9633 172.977 42.4585 164.441 42.4902C156.265 42.4585 141.436 43.6623 139.064 43.998C136.716 44.2643 137.011 42.536 136.999 41.5859C137.011 31.2319 151.525 25.1481 164.736 24.998ZM140.1 40.1807C139.81 39.9113 139.385 39.945 139.15 40.2559C138.915 40.5673 138.959 41.0396 139.248 41.3096C139.537 41.5792 140.853 42.1349 140.983 41.9678C141.111 41.7986 140.389 40.4507 140.1 40.1807ZM176.879 40.6006C176.639 40.1473 175.288 38.8719 175.069 39.0088C174.852 39.1476 175.187 41.0644 175.426 41.5176C175.665 41.9704 176.185 42.1318 176.586 41.8789C176.987 41.6257 177.118 41.0534 176.879 40.6006ZM150.981 38.7188C150.882 38.2476 150.362 37.9313 149.819 38.0117C149.277 38.0923 148.917 38.5388 149.016 39.0098C149.114 39.4809 150.151 41.0405 150.446 40.998C150.741 40.9529 151.08 39.1898 150.981 38.7188ZM166.1 38.1807C165.81 37.9113 165.385 37.945 165.15 38.2559C164.915 38.5673 164.959 39.0396 165.248 39.3096C165.537 39.5792 166.853 40.1349 166.983 39.9678C167.111 39.7986 166.389 38.4507 166.1 38.1807ZM160.879 38.4111C160.626 38.0104 160.053 37.879 159.601 38.1182C159.147 38.3581 157.872 39.7102 158.009 39.9287C158.147 40.1463 160.064 39.8105 160.518 39.5713C160.97 39.3319 161.132 38.8124 160.879 38.4111ZM186.741 38.1494C186.43 37.9148 185.958 37.959 185.688 38.248C185.419 38.5375 184.862 39.8539 185.03 39.9834C185.199 40.1111 186.546 39.3891 186.816 39.0996C187.086 38.8102 187.053 38.3845 186.741 38.1494ZM144.1 34.1807C143.81 33.9113 143.385 33.945 143.15 34.2559C142.915 34.5673 142.959 35.0396 143.248 35.3096C143.537 35.5792 144.853 36.1349 144.983 35.9678C145.111 35.7986 144.389 34.4507 144.1 34.1807ZM169.999 32.999C169.447 32.9992 168.999 33.3824 168.999 33.8555C168.999 34.3287 169.699 35.9977 169.999 35.999C170.299 35.9984 170.999 34.3288 170.999 33.8555C170.999 33.3823 170.551 32.9991 169.999 32.999ZM178.968 34.0137C178.798 33.8869 177.452 34.6092 177.182 34.8984C176.912 35.1877 176.946 35.6126 177.257 35.8477C177.568 36.0825 178.04 36.0382 178.31 35.749C178.58 35.4592 179.136 34.142 178.968 34.0137ZM163.929 32.0098C163.71 31.8735 162.357 33.1489 162.118 33.6016C161.879 34.0543 162.011 34.6267 162.412 34.8799C162.813 35.1329 163.333 34.9713 163.572 34.5186C163.812 34.0657 164.146 32.1478 163.929 32.0098ZM152.749 33.6885C152.459 33.4184 151.141 32.8611 151.014 33.0303C150.887 33.2007 151.609 34.5461 151.898 34.8164C152.188 35.0861 152.613 35.0525 152.848 34.7412C153.083 34.4297 153.038 33.9585 152.749 33.6885ZM154.999 27.999C154.447 27.9992 153.999 28.3824 153.999 28.8555C153.999 29.3287 154.699 30.9977 154.999 30.999C155.299 30.9984 155.999 29.3288 155.999 28.8555C155.999 28.3823 155.551 27.9991 154.999 27.999ZM175.981 28.7188C175.882 28.2476 175.362 27.9313 174.819 28.0117C174.277 28.0923 173.917 28.5388 174.016 29.0098C174.114 29.4809 175.151 31.0405 175.446 30.998C175.741 30.9529 176.08 29.1898 175.981 28.7188ZM163.1 27.1807C162.81 26.9113 162.385 26.945 162.15 27.2559C161.915 27.5673 161.959 28.0396 162.248 28.3096C162.537 28.5792 163.853 29.1349 163.983 28.9678C164.111 28.7986 163.389 27.4507 163.1 27.1807Z" fill="#EC9D47"/>
<path d="M198.292 33.0137C198.685 36.5427 198.959 40.0379 199.12 43.5146C199.403 40.5682 199.725 37.6201 200.092 34.668C201.727 34.8818 204.029 36.4217 203.957 37.0303C202.756 47.1715 203.105 49.6045 203.105 49.6045C203.972 46.4532 203.988 44.6233 204.616 41.543C205.169 41.1085 206.694 40.5121 208.104 40.543C208.069 39.9804 207.996 39.0095 207.954 38.4443C208.306 37.2032 210.209 36.2747 212.257 36.1143C212.621 40.4261 212.701 42.8274 212.861 46.9785C213.021 44.69 213.25 43.2313 213.677 40.6006C214.326 39.4539 216.43 39.1921 218.047 39.5127C217.259 44.1209 216.992 46.5908 216.807 51.0439C217.746 47.4616 218.137 46.1687 218.529 42.6475C219.96 42.7812 221.43 43.1789 222.141 43.9541C222.418 42.9601 222.577 42.4428 222.836 41.4414C222.987 40.8561 225.27 40.4417 227 40.916C226.329 45.2045 225.657 48.1735 224.314 52.4619H222.376L224 52.665L223.645 53.998H225C225 53.998 223.834 63.1971 221.977 72.498C220.124 81.7762 217.623 90.953 217.61 90.998L214.924 92.998C214.924 92.998 209.55 90.9981 202.832 90.998C196.114 90.998 191.076 92.998 191.076 92.998L188.39 90.998C188.378 90.9569 185.856 81.6766 184.022 72.498C182.185 63.2992 181 53.998 181 53.998H183.583L183 52.6934L183.546 52.4619H182.686C181.767 50.2682 180.768 48.5514 180.003 46.2578C179.915 45.9848 181.93 42.9933 183.516 42.5498C184.281 44.9826 185.125 47.3462 186.032 49.6602C185.646 46.1392 184.66 42.5583 183.776 38.9854C185.37 38.569 188.24 39.4175 188.304 39.6953C189.35 44.2608 189.935 45.6945 190.751 50.2061C190.563 46.4774 190.45 45.23 189.872 42.3809C189.753 41.7879 192.083 40.0797 193.715 39.96C194.295 42.5068 194.558 44.0666 195.192 48.2939C195.154 43.6361 195.141 42.5331 194.444 35.5742C194.385 34.9725 197.049 32.7986 198.292 33.0137Z" fill="white"/>
<path fill-rule="evenodd" clip-rule="evenodd" d="M181 53.998H186.333C186.333 53.998 190.74 66.6647 202.832 66.6647C214.924 66.6647 219.667 53.998 219.667 53.998H225C225 53.998 223.835 63.197 221.977 72.498C220.12 81.7991 217.611 90.998 217.611 90.998L214.924 92.998C214.924 92.998 209.55 90.998 202.832 90.998C196.115 90.998 191.076 92.998 191.076 92.998L188.389 90.998C188.389 90.998 185.86 81.697 184.023 72.498C182.186 63.2991 181 53.998 181 53.998Z" fill="#DB0007"/>
<path fill-rule="evenodd" clip-rule="evenodd" d="M206.219 70.998C204.717 70.998 203.377 72.8819 202.5 75.8275C201.624 72.8819 200.284 70.998 198.781 70.998C196.141 70.998 194 77.2663 194 84.998H196.125C196.125 77.8186 197.315 71.9982 198.781 71.9982C200.249 71.9982 201.438 77.3713 201.438 83.9984H203.563C203.563 77.3713 204.752 71.9982 206.219 71.9982C207.686 71.9982 208.876 77.8186 208.876 84.998H211C211 77.2663 208.86 70.998 206.219 70.998Z" fill="#FFBC0D"/>
<path fill-rule="evenodd" clip-rule="evenodd" d="M188.057 52.462C188.057 52.462 192.421 64.998 203.5 64.998C214.579 64.998 218.943 52.462 218.943 52.462C218.943 52.462 221.964 52.462 224.314 52.462C225.657 48.1733 226.329 45.2042 227 40.9156C225.269 40.4412 222.988 40.856 222.836 41.4414C222.578 42.4428 222.418 42.9599 222.141 43.9539C221.431 43.1786 219.961 42.7813 218.53 42.6476C218.137 46.1688 217.746 47.4615 216.807 51.0439C216.992 46.5905 217.259 44.1206 218.047 39.512C216.431 39.1914 214.326 39.4532 213.677 40.5999C213.25 43.2309 213.021 44.6896 212.861 46.9783C212.701 42.827 212.621 40.4257 212.257 36.1138C210.208 36.2742 208.306 37.2031 207.954 38.4443C207.996 39.0095 208.069 39.9803 208.104 40.5428C206.694 40.5119 205.169 41.1083 204.616 41.5428C203.989 44.623 203.972 46.4526 203.106 49.6039C203.106 49.6039 202.756 47.1711 203.957 37.0296C204.029 36.421 201.726 34.8815 200.091 34.6678C199.724 37.62 199.402 40.5681 199.12 43.5147C198.959 40.0377 198.685 36.5422 198.292 33.013C197.048 32.7978 194.384 34.9733 194.444 35.5744C195.141 42.5335 195.154 43.6359 195.193 48.2941C194.558 44.0665 194.294 42.507 193.715 39.9601C192.082 40.0799 189.752 41.7885 189.872 42.381C190.45 45.2301 190.563 46.4767 190.751 50.2054C189.934 45.6937 189.35 44.2605 188.304 39.6948C188.24 39.4169 185.37 38.5688 183.777 38.9851C184.66 42.5581 185.646 46.1385 186.032 49.6595C185.125 47.3456 184.282 44.9826 183.516 42.5498C181.93 42.9932 179.913 45.9873 180.003 46.258C180.768 48.5517 181.768 50.2681 182.686 52.462H188.057Z" fill="#FFBC0D"/>
<path d="M194.446 32.3193C195.713 31.3864 196.967 30.8371 198.121 31.0391C198.851 31.1669 199.409 31.7594 199.489 32.4922L199.509 32.6807L199.552 32.6787C199.622 32.676 199.694 32.6772 199.767 32.6836L199.839 32.6924C202.172 33.0011 205.332 35.0243 205.112 36.9014C205.063 37.3211 205.016 37.7309 204.972 38.1309L204.872 39.0352L204.965 39.0039C205.232 38.9172 205.509 38.8409 205.79 38.7783L205.801 38.7764L205.765 38.2715L205.759 38.1553C205.756 37.9971 205.778 37.8392 205.82 37.6865C206.389 35.653 208.834 34.3523 211.564 34.1357C212.48 34.0633 213.281 34.7412 213.357 35.6514C213.403 36.1952 213.444 36.7143 213.482 37.2158L213.531 37.8848L213.547 37.8789C214.732 37.3809 216.22 37.2891 217.652 37.5557L217.774 37.5791C218.656 37.7561 219.238 38.5966 219.089 39.4785C219.045 39.74 219.002 39.995 218.961 40.2432L218.87 40.8027L219.119 40.8438C219.564 40.9222 219.988 41.0239 220.385 41.1504L220.47 41.1777L220.523 40.9727L220.585 40.7363C221.071 38.8317 224.358 38.345 226.781 39.0176C227.594 39.2431 228.109 40.0377 227.98 40.8672C227.345 44.9754 226.709 47.8725 225.595 51.6064L225.487 51.9609L225.521 51.9707C226.235 52.204 226.728 52.9042 226.66 53.6875L226.653 53.7549C225.872 59.8942 224.857 66.0673 223.611 72.2734C222.366 78.4787 220.902 84.6503 219.22 90.7871C219.122 91.1446 218.905 91.4594 218.606 91.6807L215.92 93.6699C215.467 94.0054 214.873 94.0896 214.344 93.8936C210.956 92.6392 207.122 92.0088 202.835 92.0088C198.558 92.0088 194.847 92.6366 191.696 93.8809C191.159 94.093 190.549 94.0132 190.086 93.6699L187.399 91.6807C187.1 91.4591 186.884 91.1433 186.786 90.7852C185.09 84.5813 183.627 78.4107 182.395 72.2734C181.162 66.1352 180.149 59.9623 179.354 53.7559C179.253 52.9677 179.723 52.2521 180.425 51.9922L180.429 51.9902L180.263 51.6182L180.108 51.2822L179.479 49.9248C178.903 48.6729 178.531 47.7835 178.193 46.7988L178.093 46.501C177.765 45.5045 178.325 44.5852 179.502 43.1416L179.611 43.0078C180.421 42.0375 181.259 41.2864 182.132 40.8789L182.239 40.8311L181.803 39.0664C181.589 38.1902 182.118 37.304 182.994 37.0723C184.011 36.8034 185.279 36.8691 186.589 37.1484C187.106 37.2587 187.601 37.399 187.998 37.5479C188.223 37.6321 188.421 37.7205 188.594 37.8184C188.727 37.8937 188.85 37.977 188.97 38.0811C189.236 38.3128 189.445 38.593 189.542 39.0234L189.636 39.4307L189.791 39.3223C190.684 38.7171 191.679 38.259 192.613 38.0762L192.579 37.7109L192.354 35.4092C192.241 34.2594 193.094 33.3157 194.446 32.3193ZM198.291 33.0127C197.047 32.7959 194.385 34.9928 194.444 35.6006C195.008 41.289 195.124 43.105 195.168 46.083L195.192 48.4531C194.614 44.5565 194.344 42.9032 193.86 40.6895L193.715 40.0322C192.082 40.1532 189.752 41.8798 189.872 42.4785C190.392 45.0694 190.536 46.3487 190.696 49.3252L190.751 50.3848C189.969 46.0161 189.399 44.5038 188.432 40.3252L188.304 39.7646C188.24 39.4839 185.37 38.6262 183.776 39.0469C184.66 42.6571 185.646 46.2754 186.032 49.833C185.125 47.4951 184.281 45.1075 183.516 42.6494C181.93 43.0977 179.914 46.1206 180.003 46.3955C180.728 48.5912 181.663 50.2636 182.54 52.3184L182.686 52.6641L183.296 53.998H181.343C182.139 60.1986 183.153 66.3655 184.387 72.498C185.62 78.6306 187.087 84.7974 188.785 90.998L191.491 92.998C194.874 91.6647 198.821 90.998 203.331 90.998C207.841 90.9981 211.901 91.6647 215.509 92.998L218.215 90.998C219.899 84.8655 221.365 78.6986 222.612 72.498C223.859 66.2974 224.875 60.1306 225.657 53.998H223.956L224.314 52.6641L224.435 52.2744C225.698 48.1485 226.349 45.1999 227 40.998C225.269 40.5187 222.987 40.9378 222.836 41.5293C222.75 41.8664 222.675 42.1496 222.603 42.4141L222.141 44.0674C221.43 43.2842 219.96 42.8831 218.529 42.748C218.211 45.6281 217.895 47.033 217.288 49.3838L216.807 51.2314C216.983 46.9512 217.234 44.4843 217.936 40.2461L218.047 39.5791C216.431 39.2552 214.326 39.5201 213.677 40.6787C213.278 43.1599 213.053 44.6095 212.895 46.6719L212.861 47.124C212.71 43.1694 212.63 40.7861 212.316 36.875L212.257 36.1455C210.209 36.3076 208.306 37.2468 207.954 38.501C207.986 38.9403 208.037 39.622 208.074 40.1719L208.104 40.6211C206.694 40.5899 205.169 41.1929 204.616 41.6318C203.989 44.7439 203.972 46.5924 203.105 49.7764C203.101 49.7466 202.79 47.4502 203.82 38.2637L203.957 37.0713C204.029 36.4564 201.727 34.9006 200.092 34.6846C199.725 37.6675 199.402 40.6468 199.119 43.624C198.958 40.1108 198.684 36.5788 198.291 33.0127Z" fill="white"/>
</g>
</svg>
