<svg width="376" height="226" viewBox="0 0 376 226" fill="none" xmlns="http://www.w3.org/2000/svg">
<path fill-rule="evenodd" clip-rule="evenodd" d="M170.046 35.7215L170.944 34.6554C171.357 34.1647 171.524 33.4984 171.349 32.8437L174.25 32.0662C174.365 32.4926 174.42 32.921 174.422 33.3426C174.428 34.5456 173.996 35.6943 173.242 36.5899C174.482 36.3521 175.721 36.1762 176.957 36.0603C177.672 35.9933 178.386 35.9463 179.097 35.919C179.53 34.2854 179.555 32.5199 179.086 30.7704C177.655 25.4286 172.164 22.2586 166.823 23.6899C161.481 25.1212 158.311 30.6119 159.742 35.9537C160.211 37.7031 161.115 39.2196 162.307 40.4178C162.937 40.0856 163.578 39.7696 164.231 39.4702C165.359 38.9528 166.52 38.4854 167.713 38.0714C166.613 37.6727 165.664 36.8936 165.068 35.8491C164.858 35.483 164.692 35.0843 164.578 34.6579C163.862 31.987 165.448 29.2416 168.118 28.526C170.789 27.8103 173.535 29.3953 174.25 32.0662L171.349 32.8437C171.062 31.7754 169.964 31.1414 168.896 31.4276C167.828 31.7139 167.194 32.812 167.48 33.8804C167.655 34.5351 168.133 35.0285 168.736 35.2469L170.046 35.7215ZM168.739 40.8951C168.725 40.8998 168.712 40.9045 168.698 40.9092C168.495 40.9798 168.293 41.052 168.092 41.1259C150.779 47.4835 140.872 66.1218 145.738 84.282L155.068 119.102L224.707 100.442L215.377 65.6223C210.801 48.5433 194.698 37.6311 177.681 39.0129C177.413 39.0347 177.145 39.0595 176.876 39.0874C174.998 39.2825 173.11 39.6281 171.228 40.1325C170.383 40.3589 169.553 40.6135 168.739 40.8951ZM227.732 100.122L218.279 64.8448C213.748 47.9356 198.792 36.6101 182.179 35.9243C182.563 34.0162 182.524 31.9931 181.988 29.9929C180.127 23.0486 172.989 18.9276 166.045 20.7883C159.101 22.649 154.98 29.7869 156.84 36.7312C157.376 38.7309 158.353 40.5024 159.64 41.9626C145.596 50.8619 138.306 68.152 142.837 85.0595L152.289 120.337C145.541 124.01 141.922 131.943 143.998 139.691L147.108 151.298L162.836 147.083L162.89 147.285C165.037 155.297 173.273 160.052 181.285 157.905C189.298 155.758 194.053 147.522 191.906 139.51L191.852 139.308L247.698 124.345L244.589 112.738C242.512 104.99 235.412 99.929 227.732 100.122ZM156.813 121.744C149.334 123.748 144.896 131.435 146.9 138.914L149.233 147.618L244.019 122.22L241.687 113.515C239.683 106.037 231.996 101.599 224.518 103.603L156.813 121.744ZM131.65 144.961C128.371 145.179 124.506 146.069 125.718 149.155C126.99 152.398 130.407 150.169 132.9 147.911C133.01 147.812 133.118 147.713 133.223 147.614C133.628 147.235 134.004 146.862 134.334 146.521L134.335 146.52C134.508 146.341 134.669 146.172 134.815 146.015C135.217 145.584 134.95 144.918 134.369 144.906C134.139 144.901 133.886 144.898 133.616 144.898C133.148 144.898 132.627 144.908 132.083 144.935C131.94 144.943 131.796 144.951 131.65 144.961ZM137.013 148.062C139.061 145.864 137.785 141.975 134.435 141.903L137.013 148.062ZM134.435 141.903C132.848 141.868 129.898 141.901 127.458 142.6C126.279 142.937 124.731 143.56 123.655 144.852C122.355 146.413 122.187 148.382 122.921 150.252C123.65 152.111 125.103 153.523 127.202 153.756C128.922 153.947 130.494 153.255 131.562 152.648C133.788 151.382 135.913 149.244 137.013 148.062M138.943 113.582C137.884 110.471 136.024 106.968 133.356 108.937C130.553 111.005 133.591 113.729 136.417 115.553C136.541 115.633 136.665 115.712 136.788 115.788C137.259 116.081 137.716 116.347 138.131 116.578L138.132 116.579C138.349 116.7 138.555 116.811 138.744 116.912C139.264 117.188 139.838 116.758 139.7 116.194C139.645 115.97 139.583 115.725 139.513 115.464C139.391 115.012 139.247 114.512 139.08 113.994C139.036 113.857 138.99 113.72 138.943 113.582ZM142.618 115.48C142.241 113.938 141.445 111.097 140.139 108.921C139.508 107.87 138.505 106.536 136.979 105.831C135.135 104.979 133.189 105.327 131.572 106.52C129.966 107.706 128.978 109.474 129.297 111.562C129.557 113.273 130.632 114.612 131.495 115.486C133.295 117.309 135.91 118.808 137.336 119.565C139.989 120.974 143.415 118.735 142.618 115.48ZM156.755 165.8C156.784 165.657 156.813 165.515 156.843 165.375C156.957 164.843 157.082 164.338 157.203 163.885C157.273 163.625 157.342 163.38 157.406 163.159C157.568 162.602 158.281 162.516 158.593 163.016C158.707 163.198 158.829 163.397 158.956 163.61L158.957 163.611C159.201 164.019 159.464 164.478 159.725 164.967C159.793 165.095 159.861 165.224 159.929 165.356C161.465 168.349 162.734 172.226 159.272 172.616C155.977 172.987 156.118 169.024 156.755 165.8ZM159.608 175.601C157.611 175.826 155.752 175.154 154.581 173.494C153.612 172.121 153.411 170.464 153.39 169.238C153.347 166.701 154.078 163.842 154.522 162.318C155.46 159.101 159.546 158.875 161.139 161.422M159.608 175.601C161.593 175.377 163.331 174.34 164.1 172.373C164.729 170.761 164.468 169.063 164.158 167.875C163.511 165.397 161.996 162.791 161.139 161.422M143.723 161.709C143.253 165.04 142.054 168.94 139.001 167.262C136.094 165.666 138.495 162.509 140.874 160.243C140.98 160.142 141.086 160.043 141.191 159.946C141.591 159.577 141.984 159.236 142.344 158.936C142.551 158.763 142.748 158.604 142.929 158.46C143.382 158.098 144.014 158.439 143.981 159.027C143.969 159.241 143.954 159.474 143.935 159.722L143.935 159.724C143.9 160.197 143.85 160.724 143.781 161.274C143.763 161.418 143.744 161.563 143.723 161.709ZM146.98 159.193C147.146 156.193 143.678 154.022 141.057 156.11L146.98 159.193ZM141.057 156.11C139.815 157.099 137.57 159.013 136.142 161.111C135.452 162.125 134.662 163.595 134.662 165.276C134.662 167.308 135.793 168.928 137.555 169.895C139.305 170.857 141.324 171.012 143.086 169.847C144.53 168.893 145.295 167.355 145.727 166.205C146.627 163.808 146.891 160.805 146.98 159.193M130.666 126.618C130.767 126.723 130.866 126.829 130.964 126.934C131.334 127.333 131.676 127.725 131.977 128.084C132.15 128.291 132.311 128.487 132.455 128.667C132.818 129.119 132.48 129.752 131.891 129.721C131.677 129.71 131.444 129.696 131.197 129.678L131.194 129.677C130.721 129.643 130.194 129.595 129.644 129.528C129.5 129.511 129.355 129.492 129.208 129.472C125.876 129.011 121.972 127.825 123.64 124.767C125.227 121.855 128.392 124.245 130.666 126.618ZM121.003 123.328C120.047 125.081 119.898 127.101 121.068 128.86C122.027 130.301 123.567 131.061 124.718 131.489C127.119 132.382 130.122 132.637 131.735 132.721C134.735 132.878 136.896 129.402 134.799 126.788C133.806 125.549 131.885 123.31 129.782 121.889C128.766 121.202 127.294 120.416 125.613 120.421C123.582 120.428 121.965 121.564 121.003 123.328ZM189.004 140.287C189.273 141.289 189.406 142.295 189.416 143.287C189.469 148.638 185.916 153.555 180.508 155.004C175.1 156.453 169.564 153.972 166.934 149.311C166.447 148.447 166.06 147.509 165.791 146.507L189.004 140.287Z" fill="white"/>
<path fill-rule="evenodd" clip-rule="evenodd" d="M173.242 36.5892C174.26 35.3796 174.69 33.7085 174.25 32.0655C173.534 29.3946 170.789 27.8096 168.118 28.5252C165.447 29.2409 163.862 31.9862 164.578 34.6571C165.018 36.3001 166.227 37.5322 167.713 38.0706C165.83 38.7243 164.025 39.511 162.307 40.4172C161.115 39.219 160.211 37.7024 159.742 35.9529C158.311 30.6112 161.481 25.1205 166.822 23.6892C172.164 22.2579 177.655 25.4279 179.086 30.7697C179.555 32.5192 179.53 34.2847 179.097 35.9183C177.156 35.9927 175.199 36.2137 173.242 36.5892ZM177.681 39.0122C177.413 39.0339 177.145 39.0587 176.876 39.0866C174.998 39.2818 173.11 39.6274 171.228 40.1318C151.997 45.2845 140.585 65.051 145.738 84.2813L155.068 119.101L224.707 100.441L215.377 65.6215C210.801 48.5425 194.698 37.6303 177.681 39.0122ZM156.813 121.743C149.334 123.747 144.896 131.434 146.9 138.913L149.232 147.618L244.019 122.22L241.687 113.515C239.683 106.036 231.996 101.598 224.517 103.602L156.813 121.743ZM189.004 140.286C190.722 146.697 186.918 153.285 180.508 155.003C174.098 156.721 167.509 152.917 165.791 146.506L189.004 140.286ZM134.815 146.014C135.216 145.583 134.95 144.917 134.369 144.905C131.267 144.837 124.129 145.108 125.718 149.155C127.372 153.373 132.655 148.334 134.815 146.014ZM139.7 116.194C139.838 116.757 139.264 117.187 138.744 116.911C135.945 115.425 129.71 111.626 133.356 108.937C136.854 106.355 138.963 113.179 139.7 116.194ZM158.593 163.015C158.28 162.516 157.568 162.601 157.406 163.158C156.538 166.137 154.951 173.102 159.272 172.615C163.774 172.109 160.274 165.702 158.593 163.015ZM142.929 158.459C143.382 158.097 144.013 158.438 143.981 159.026C143.806 162.191 142.972 169.444 139.001 167.261C135.19 165.169 140.501 160.393 142.929 158.459ZM131.891 129.72C132.479 129.751 132.818 129.119 132.455 128.666C130.514 126.245 125.721 120.949 123.64 124.766C121.471 128.744 128.726 129.555 131.891 129.72Z" fill="#FFBC0D"/>
</svg>
