<svg width="27" height="18" viewBox="0 0 27 18" fill="none" xmlns="http://www.w3.org/2000/svg">
<g clip-path="url(#clip0_109_43901)">
<path d="M0 0H27V18H0V0Z" fill="white"/>
<path d="M13.4727 0H26.9727V18H13.4727V0Z" fill="#C31B28"/>
<path d="M5.32635 3.59091V1.73828H3.47372V3.59091H1.62109V5.44354H3.47372V7.29618H5.32635V5.44354H7.17898V3.59091H5.32635Z" fill="#ACABB1"/>
<path fill-rule="evenodd" clip-rule="evenodd" d="M3.42294 1.68359H5.38084V3.53623H7.23347V5.49412H5.38084V7.34675H3.42294V5.49412H1.57031V3.53623H3.42294V1.68359ZM3.52821 1.78886V3.64149H1.67558V5.38886H3.52821V7.24149H5.27557V5.38886H7.1282V3.64149H5.27557V1.78886H3.52821Z" fill="#C31B28"/>
</g>
<rect x="0.5" y="0.5" width="26" height="17" rx="0.5" stroke="black" stroke-opacity="0.2"/>
<defs>
<clipPath id="clip0_109_43901">
<rect width="27" height="18" rx="1" fill="white"/>
</clipPath>
</defs>
</svg>
