<svg width="44" height="44" viewBox="0 0 44 44" fill="none" xmlns="http://www.w3.org/2000/svg">
<path d="M42 36.5691C42 37.66 33.0457 38.5444 22 38.5444C10.9543 38.5444 2 37.66 2 36.5691C2 35.4781 10.9543 34.5938 22 34.5938C33.0457 34.5938 42 35.4781 42 36.5691Z" fill="#A0A09F" fill-opacity="0.15"/>
<path fill-rule="evenodd" clip-rule="evenodd" d="M12.207 5.45703V15.9607C12.207 16.2508 12.4375 16.4858 12.7214 16.4858H19.9231C20.207 16.4858 20.4375 16.2508 20.4375 15.9607V5.45703L19.6144 5.97775L18.7914 5.45703L17.9683 5.97775L17.1453 5.45703L16.3223 5.97775L15.4992 5.45703L14.6762 5.97775L13.8531 5.45703L13.0301 5.97775L12.207 5.45703Z" fill="#C2945C"/>
<path fill-rule="evenodd" clip-rule="evenodd" d="M20.4375 14.3457L20.4376 15.9604C20.4376 16.2506 20.2071 16.4856 19.9232 16.4856H12.7215C12.4376 16.4856 12.2071 16.2506 12.2071 15.9604L12.207 14.3457H20.4375Z" fill="#DB0007"/>
<path fill-rule="evenodd" clip-rule="evenodd" d="M19.398 8.45898C19.7706 8.45898 20.1229 8.72173 20.4359 9.1894L20.4359 11.5696C20.1975 9.98785 19.8212 8.96705 19.398 8.96705C18.6777 8.96705 18.0929 11.6982 18.0929 15.0668H17.0489C17.0489 11.6982 16.4646 8.96705 15.7436 8.96705C15.0233 8.96705 14.4388 11.9261 14.4388 15.5749H13.3945C13.3945 11.6447 14.4467 8.45898 15.7436 8.45898C16.4818 8.45898 17.1402 9.41662 17.571 10.9137C18.0016 9.41662 18.6603 8.45898 19.398 8.45898Z" fill="#FFBC0D"/>
<path d="M27.3063 27.2377L17.0625 27.2378V25.7522L28.2085 25.752C27.8563 26.2101 27.5529 26.708 27.3063 27.2377Z" fill="#606060"/>
<path d="M17.6968 18.5703V24.0176C17.6968 25.3237 17.8652 26.3988 18.2021 27.2428C18.233 27.2385 18.2646 27.2365 18.2967 27.2365L27.306 27.2364C26.9829 27.9304 26.7571 28.6791 26.6464 29.4649L17.3853 29.4649C16.9529 25.4994 13.6017 22.4134 9.53125 22.4134C6.82438 22.4134 4.43558 23.7781 3.01172 25.8587C3.32431 21.7813 6.73181 18.5703 10.8893 18.5703H17.6968Z" fill="#FFBC0D"/>
<path d="M30.5401 10.3795C32.5458 12.8429 34.2419 15.1369 35.6285 17.2614C36.7906 19.0421 37.8129 20.8228 38.6954 22.6034C38.8441 22.9035 38.7706 23.2557 38.538 23.4733L38.5381 23.7906C37.3498 23.0736 35.958 22.6612 34.47 22.6612C32.2334 22.6612 30.214 23.5929 28.7766 25.0903L29.7946 21.2913L28.189 11.2441C28.1292 10.8693 28.3622 10.5099 28.7288 10.4117C28.7288 10.4117 29.3238 10.2523 29.6213 10.1726C29.6722 10.1589 29.8198 10.2308 29.8198 10.2308C30.002 10.182 30.1458 10.1061 30.307 10.1897C30.3952 10.2355 30.4749 10.2994 30.5401 10.3795Z" fill="#FFBC0D"/>
<path d="M8.42086 19.0643V19.323C8.42086 20.4139 7.53649 21.2983 6.44556 21.2983L4.91797 21.2981C5.84234 20.232 7.04741 19.4159 8.4182 18.9648C8.42004 18.9978 8.42086 19.031 8.42086 19.0643Z" fill="#DB0007"/>
<path d="M24.9655 10.1523H30.8872C31.2975 10.1523 31.6301 10.4849 31.6301 10.8952C31.6301 11.3054 31.2975 11.638 30.8872 11.638H24.9655C24.5552 11.638 24.2227 11.3054 24.2227 10.8952C24.2227 10.4849 24.5552 10.1523 24.9655 10.1523Z" fill="#606060"/>
<path d="M10.9523 16.0938H20.5949C21.3128 16.0938 21.8948 16.6757 21.8948 17.3937C21.8948 18.1116 21.3128 18.6936 20.5949 18.6936H10.9523C10.2343 18.6936 9.65234 18.1116 9.65234 17.3937C9.65234 16.6757 10.2343 16.0938 10.9523 16.0938Z" fill="#606060"/>
<path d="M15.9935 30.2311C15.9935 33.913 13.0087 36.8978 9.32682 36.8978C5.64492 36.8978 2.66016 33.913 2.66016 30.2311C2.66016 26.5492 5.64492 23.5645 9.32682 23.5645C13.0087 23.5645 15.9935 26.5492 15.9935 30.2311Z" fill="#606060"/>
<path d="M12.042 30.148C12.042 31.6935 10.7892 32.9463 9.24367 32.9463C7.69818 32.9463 6.44531 31.6935 6.44531 30.148C6.44531 28.6025 7.69818 27.3496 9.24367 27.3496C10.7892 27.3496 12.042 28.6025 12.042 30.148Z" fill="#F1F1F1"/>
<path d="M11.1423 28.0078C11.6964 28.5278 12.0435 29.2727 12.0435 30.0999C12.0435 31.6718 10.7904 32.9461 9.24465 32.9461C8.43124 32.9461 7.69887 32.5932 7.1875 32.0298C7.58475 32.2327 8.03332 32.3469 8.50812 32.3469C10.1352 32.3469 11.4542 31.0056 11.4542 29.3509C11.4542 28.8729 11.3442 28.4211 11.1484 28.0201L11.1423 28.0078Z" fill="white"/>
<path d="M6.11719 30.3125H13.6892V31.1355H6.11719V30.3125Z" fill="#292929" fill-opacity="0.15"/>
<path d="M9.53159 23.1543C13.486 23.1543 16.6921 26.3968 16.6921 30.3971H2.37109C2.37109 26.3968 5.57719 23.1543 9.53159 23.1543Z" fill="#FFBC0D"/>
<path d="M41.013 30.2311C41.013 33.913 38.0283 36.8978 34.3464 36.8978C30.6645 36.8978 27.6797 33.913 27.6797 30.2311C27.6797 26.5492 30.6645 23.5645 34.3464 23.5645C38.0283 23.5645 41.013 26.5492 41.013 30.2311Z" fill="#606060"/>
<path d="M37.0616 30.148C37.0616 31.6935 35.8087 32.9463 34.2632 32.9463C32.7177 32.9463 31.4648 31.6935 31.4648 30.148C31.4648 28.6025 32.7177 27.3496 34.2632 27.3496C35.8087 27.3496 37.0616 28.6025 37.0616 30.148Z" fill="#F1F1F1"/>
<path d="M36.3109 28.0078C36.8744 28.5278 37.2273 29.2727 37.2273 30.0999C37.2273 31.6718 35.953 32.9461 34.3811 32.9461C33.5539 32.9461 32.8091 32.5932 32.2891 32.0298C32.693 32.2327 33.1492 32.3469 33.6321 32.3469C35.2867 32.3469 36.6281 31.0056 36.6281 29.3509C36.6281 28.8729 36.5162 28.4211 36.3171 28.0201L36.3109 28.0078Z" fill="white"/>
<path d="M30.9727 30.3125H38.5447V31.1355H30.9727V30.3125Z" fill="#292929" fill-opacity="0.15"/>
<path d="M34.5121 23.4004C38.3861 23.4004 41.5423 26.4735 41.6725 30.314H27.3516C27.4818 26.4735 30.638 23.4004 34.5121 23.4004Z" fill="#FFBC0D"/>
</svg>
