<svg width="153" height="98" viewBox="0 0 153 98" fill="none" xmlns="http://www.w3.org/2000/svg">
<path d="M127.984 21.2305C122.733 21.2305 118.05 28.2282 114.981 39.1705C111.918 28.2282 107.234 21.2305 101.983 21.2305C92.7522 21.2305 85.2734 44.5226 85.2734 73.2328H92.6966C92.6966 46.5632 96.8537 24.9471 101.983 24.9471C107.112 24.9471 111.27 44.9024 111.27 69.506H118.698C118.698 44.8923 122.855 24.9471 127.984 24.9471C133.114 24.9471 137.271 46.5632 137.271 73.2328H144.699C144.699 44.5125 137.215 21.2305 127.984 21.2305Z" fill="#FFBC0D"/>
<path d="M9.45312 32.8849H16.0357L22.5626 52.4352L29.2616 32.8849H35.6467V59.0734H30.6186V41.6144L24.6386 59.0734H20.3853L14.3698 41.6448V59.0684H9.45312V32.8849ZM49.622 59.6608C46.513 59.6608 44.1213 58.7629 42.447 56.967C40.7726 55.1712 39.9287 52.6208 39.9152 49.316C39.8959 47.8748 40.1254 46.441 40.5937 45.0779C41.007 43.8836 41.6698 42.7909 42.5381 41.8727C43.3897 40.9826 44.427 40.291 45.5762 39.8473C48.1733 38.9225 51.0099 38.9225 53.607 39.8473C54.7568 40.2899 55.7943 40.9815 56.6451 41.8727C57.5122 42.7891 58.1704 43.8826 58.5743 45.0779C59.4653 47.8521 59.4653 50.8357 58.5743 53.6099C58.1583 54.8195 57.4962 55.9298 56.6299 56.8708C55.7847 57.7808 54.7467 58.4901 53.5918 58.9469C52.3254 59.4332 50.9784 59.6754 49.622 59.6608ZM49.622 55.5543C50.2642 55.5926 50.9052 55.4618 51.481 55.1748C52.0568 54.8878 52.5472 54.4547 52.9031 53.9188C53.6222 52.8352 53.9867 51.2959 53.9867 49.316C53.9867 47.3362 53.6222 45.8323 52.9031 44.8044C52.5021 44.3203 51.9992 43.9306 51.4303 43.6631C50.8614 43.3956 50.2405 43.2569 49.6119 43.2569C48.9832 43.2569 48.3623 43.3956 47.7934 43.6631C47.2245 43.9306 46.7216 44.3203 46.3206 44.8044C45.6015 45.8172 45.237 47.3362 45.237 49.316C45.237 51.2959 45.5914 52.8605 46.3054 53.9188C46.6633 54.4612 47.1591 54.8986 47.742 55.1861C48.3249 55.4735 48.9737 55.6006 49.622 55.5543ZM80.0993 59.0734H75.4408V47.078L67.481 59.0734H63.1162V39.7055H67.7392V51.7718L75.7345 39.7004H80.0993V59.0734ZM69.0962 31.7305C69.1469 32.6622 69.4152 33.3103 69.9013 33.6749C70.4606 34.0617 71.1309 34.2555 71.8103 34.2268C72.4785 34.254 73.1371 34.06 73.6838 33.6749C74.1699 33.3103 74.4383 32.6622 74.4889 31.7305H78.1549C78.1549 33.6377 77.5878 35.0622 76.4535 36.0041C75.3142 36.9459 73.7699 37.4168 71.8103 37.4168C69.7849 37.4168 68.1899 36.9459 67.1164 36.0041C66.0429 35.0622 65.5012 33.6394 65.5012 31.7305H69.0962Z" fill="url(#paint0_linear_465_41644)"/>
<defs>
<linearGradient id="paint0_linear_465_41644" x1="9.45312" y1="45.6855" x2="80.0993" y2="45.6855" gradientUnits="userSpaceOnUse">
<stop stop-color="#8B2A7B"/>
<stop offset="0.05" stop-color="#9B286D"/>
<stop offset="0.18" stop-color="#BF2350"/>
<stop offset="0.3" stop-color="#D81F3A"/>
<stop offset="0.41" stop-color="#E81D2D"/>
<stop offset="0.5" stop-color="#ED1C29"/>
<stop offset="1" stop-color="#F37021"/>
</linearGradient>
</defs>
</svg>
