<svg width="27" height="18" viewBox="0 0 27 18" fill="none" xmlns="http://www.w3.org/2000/svg">
<g clip-path="url(#clip0_109_43706)">
<path d="M0 0H27V17.9996H0V0Z" fill="white"/>
<path d="M0 5.87109H27V12.1316H0V5.87109Z" fill="#0052B4"/>
<path d="M0 12.1289H27V17.9985H0V12.1289Z" fill="#D80027"/>
<path d="M6.82812 5.08594V9.57553C6.82812 12.1294 10.1645 12.9119 10.1645 12.9119C10.1645 12.9119 13.5007 12.1293 13.5007 9.57553V5.08594H6.82812Z" fill="white"/>
<path d="M7.70703 5.21875V9.53986C7.70703 9.82842 7.7711 10.101 7.89809 10.3565H12.4317C12.5586 10.101 12.6227 9.82847 12.6227 9.53986V5.21875H7.70703Z" fill="#D80027"/>
<path d="M11.6692 8.23233H10.5393V7.47913H11.2926V6.72592H10.5393V5.97266H9.78614V6.72592H9.03298V7.47913H9.78614V8.23233H8.65625V8.98559H9.78614V9.7388H10.5393V8.98559H11.6692V8.23233Z" fill="white"/>
<path d="M8.9257 11.4096C9.41107 11.7146 9.90973 11.8918 10.1651 11.9705C10.4204 11.8917 10.9191 11.7146 11.4044 11.4096C11.8939 11.102 12.2371 10.7501 12.4319 10.3582C12.2097 10.2006 11.944 10.1162 11.6716 10.1165C11.5684 10.1165 11.4682 10.1287 11.3719 10.1511C11.1678 9.68728 10.7044 9.36328 10.1652 9.36328C9.62586 9.36328 9.16253 9.68728 8.9584 10.1511C8.86017 10.1282 8.75964 10.1166 8.65876 10.1165C8.38638 10.1162 8.12065 10.2006 7.89844 10.3582C8.09308 10.7501 8.43622 11.102 8.9257 11.4096Z" fill="#0052B4"/>
</g>
<rect x="0.5" y="0.5" width="26" height="17" rx="0.5" stroke="black" stroke-opacity="0.2"/>
<defs>
<clipPath id="clip0_109_43706">
<rect width="27" height="18" rx="1" fill="white"/>
</clipPath>
</defs>
</svg>
