<svg width="375" height="225" viewBox="0 0 375 225" fill="none" xmlns="http://www.w3.org/2000/svg">
<ellipse cx="187.625" cy="210.258" rx="80.6248" ry="9.25835" fill="#A0A09F" fill-opacity="0.15"/>
<mask id="path-2-outside-1_17_28626" maskUnits="userSpaceOnUse" x="128" y="6" width="135" height="208" fill="black">
<rect fill="white" x="128" y="6" width="135" height="208"/>
<path d="M178.607 10.4004C185.566 8.63692 192.657 12.8654 194.421 19.8203C195.996 26.0491 192.776 32.3862 187.093 34.9121L208.258 38.3262C208.788 38.086 209.369 37.8267 209.605 37.7285C209.771 37.6584 209.949 37.614 210.126 37.5771C211.919 36.9573 214.107 37.4965 216.365 39.1494C218.734 40.8799 220.922 43.6399 222.53 46.9199C224.043 50.0005 224.877 53.2115 224.903 56.0225L233.277 55.249C233.675 55.2124 234.063 55.3886 234.295 55.7119L239.942 63.5791C240.177 63.9064 240.218 64.3352 240.049 64.7021L238.34 68.4102C241.557 69.3218 244.536 68.7146 245.373 67.0098L244.589 66.5459C244.502 66.4908 243.747 65.9811 244.237 65.1514L249.205 56.749C249.261 56.6608 249.771 55.9084 250.6 56.3984L258.998 61.3633C259.06 61.4016 259.853 61.9153 259.354 62.7607L254.388 71.1582C254.35 71.219 253.837 72.015 252.99 71.5146L246.073 67.4248C244.846 69.5411 241.491 70.1708 238.024 69.0957L236.019 73.4492C235.849 73.816 235.496 74.0652 235.094 74.1025L229.493 74.6201L229.84 77.6123L227.113 79.4541C237.127 80.3596 243.325 81.6145 243.325 83C243.325 83.0153 243.325 83.0306 243.323 83.0459L242.325 103C242.325 103.536 240.9 104.048 238.315 104.516L236.325 206C236.325 208.761 214.834 211 188.325 211C161.816 211 140.326 208.761 140.325 206L138.335 104.521C135.732 104.052 134.296 103.538 134.296 103C134.296 102.96 134.304 102.92 134.319 102.881L133.327 83.0459C133.326 83.0306 133.325 83.0153 133.325 83C133.325 81.87 137.448 80.8285 144.401 79.9912L132.214 58.9023C131.772 58.1367 132.036 57.1478 132.802 56.7061L153.39 44.8096C154.155 44.3678 155.144 44.6318 155.586 45.3975L166.659 64.5586C167.936 63.9491 169.248 63.5114 170.553 63.2578L172.099 53.7246C171.964 53.6889 171.847 53.6046 171.77 53.4883C171.693 53.3719 171.661 53.2309 171.681 53.0928L172.384 48.7549C172.406 48.6165 172.48 48.4915 172.59 48.4043C172.7 48.317 172.839 48.2736 172.979 48.2832L173.346 46.04C173.21 46.0054 173.092 45.9214 173.015 45.8047C172.938 45.6881 172.907 45.5464 172.928 45.4082L173.337 42.8838C173.361 42.7458 173.435 42.6211 173.545 42.5342C173.655 42.4473 173.793 42.4037 173.933 42.4121L174.679 37.8037C174.87 36.6396 175.479 35.5899 176.386 34.8457C172.928 33.2582 170.189 30.1815 169.184 26.2139C167.424 19.259 171.649 12.164 178.607 10.4004ZM223.69 72.4521C223.448 72.3412 223.164 72.4374 223.058 72.667L220.158 78.9229C220.506 78.9453 220.851 78.967 221.193 78.9902L223.938 73.0693C224.044 72.8394 223.933 72.5632 223.69 72.4521ZM210.09 78.4072C212.934 78.5188 215.654 78.652 218.226 78.8037L221.834 70.9736L218.743 66.668C218.508 66.3408 218.468 65.9128 218.637 65.5459L219.445 63.79C217.549 64.6502 215.112 63.9253 212.738 62.0576L210.09 78.4072ZM246.273 64.4785C246.498 65.1023 246.574 65.7243 246.479 66.3145C246.555 66.286 246.629 66.2468 246.699 66.1973C247.127 65.8928 247.227 65.2984 246.923 64.8701C246.764 64.6466 246.526 64.5123 246.273 64.4785ZM245.467 64.7568C245.151 65.0795 245.101 65.5916 245.372 65.9727C245.442 66.0715 245.528 66.1538 245.624 66.2168C245.694 65.7496 245.636 65.2562 245.467 64.7568ZM236.342 58.5576C237.651 58.5876 239.078 58.8888 240.488 59.4756C242.678 60.2892 244.433 61.5919 245.473 63.0098L245.008 63.7969C244.137 62.3823 242.436 61.0186 240.229 60.1543C239.098 59.7072 237.969 59.4498 236.921 59.3652L236.342 58.5576ZM231.977 59.3896C230.982 58.9376 229.808 59.3691 229.354 60.3535C228.901 61.3382 229.339 62.5037 230.334 62.9561C230.538 63.0487 230.75 63.1037 230.961 63.125C230.819 62.462 230.855 61.8117 231.097 61.21C231.345 60.5808 231.76 60.0596 232.302 59.6504L232.353 59.6123C232.238 59.5263 232.112 59.4514 231.977 59.3896ZM232.868 60.1943C232.433 60.5036 232.113 60.8925 231.939 61.3525C231.723 61.872 231.691 62.4392 231.82 63.0225C232.307 62.8518 232.726 62.494 232.957 61.9922C233.233 61.3926 233.178 60.726 232.868 60.1943Z"/>
</mask>
<path d="M178.607 10.4004C185.566 8.63692 192.657 12.8654 194.421 19.8203C195.996 26.0491 192.776 32.3862 187.093 34.9121L208.258 38.3262C208.788 38.086 209.369 37.8267 209.605 37.7285C209.771 37.6584 209.949 37.614 210.126 37.5771C211.919 36.9573 214.107 37.4965 216.365 39.1494C218.734 40.8799 220.922 43.6399 222.53 46.9199C224.043 50.0005 224.877 53.2115 224.903 56.0225L233.277 55.249C233.675 55.2124 234.063 55.3886 234.295 55.7119L239.942 63.5791C240.177 63.9064 240.218 64.3352 240.049 64.7021L238.34 68.4102C241.557 69.3218 244.536 68.7146 245.373 67.0098L244.589 66.5459C244.502 66.4908 243.747 65.9811 244.237 65.1514L249.205 56.749C249.261 56.6608 249.771 55.9084 250.6 56.3984L258.998 61.3633C259.06 61.4016 259.853 61.9153 259.354 62.7607L254.388 71.1582C254.35 71.219 253.837 72.015 252.99 71.5146L246.073 67.4248C244.846 69.5411 241.491 70.1708 238.024 69.0957L236.019 73.4492C235.849 73.816 235.496 74.0652 235.094 74.1025L229.493 74.6201L229.84 77.6123L227.113 79.4541C237.127 80.3596 243.325 81.6145 243.325 83C243.325 83.0153 243.325 83.0306 243.323 83.0459L242.325 103C242.325 103.536 240.9 104.048 238.315 104.516L236.325 206C236.325 208.761 214.834 211 188.325 211C161.816 211 140.326 208.761 140.325 206L138.335 104.521C135.732 104.052 134.296 103.538 134.296 103C134.296 102.96 134.304 102.92 134.319 102.881L133.327 83.0459C133.326 83.0306 133.325 83.0153 133.325 83C133.325 81.87 137.448 80.8285 144.401 79.9912L132.214 58.9023C131.772 58.1367 132.036 57.1478 132.802 56.7061L153.39 44.8096C154.155 44.3678 155.144 44.6318 155.586 45.3975L166.659 64.5586C167.936 63.9491 169.248 63.5114 170.553 63.2578L172.099 53.7246C171.964 53.6889 171.847 53.6046 171.77 53.4883C171.693 53.3719 171.661 53.2309 171.681 53.0928L172.384 48.7549C172.406 48.6165 172.48 48.4915 172.59 48.4043C172.7 48.317 172.839 48.2736 172.979 48.2832L173.346 46.04C173.21 46.0054 173.092 45.9214 173.015 45.8047C172.938 45.6881 172.907 45.5464 172.928 45.4082L173.337 42.8838C173.361 42.7458 173.435 42.6211 173.545 42.5342C173.655 42.4473 173.793 42.4037 173.933 42.4121L174.679 37.8037C174.87 36.6396 175.479 35.5899 176.386 34.8457C172.928 33.2582 170.189 30.1815 169.184 26.2139C167.424 19.259 171.649 12.164 178.607 10.4004ZM223.69 72.4521C223.448 72.3412 223.164 72.4374 223.058 72.667L220.158 78.9229C220.506 78.9453 220.851 78.967 221.193 78.9902L223.938 73.0693C224.044 72.8394 223.933 72.5632 223.69 72.4521ZM210.09 78.4072C212.934 78.5188 215.654 78.652 218.226 78.8037L221.834 70.9736L218.743 66.668C218.508 66.3408 218.468 65.9128 218.637 65.5459L219.445 63.79C217.549 64.6502 215.112 63.9253 212.738 62.0576L210.09 78.4072ZM246.273 64.4785C246.498 65.1023 246.574 65.7243 246.479 66.3145C246.555 66.286 246.629 66.2468 246.699 66.1973C247.127 65.8928 247.227 65.2984 246.923 64.8701C246.764 64.6466 246.526 64.5123 246.273 64.4785ZM245.467 64.7568C245.151 65.0795 245.101 65.5916 245.372 65.9727C245.442 66.0715 245.528 66.1538 245.624 66.2168C245.694 65.7496 245.636 65.2562 245.467 64.7568ZM236.342 58.5576C237.651 58.5876 239.078 58.8888 240.488 59.4756C242.678 60.2892 244.433 61.5919 245.473 63.0098L245.008 63.7969C244.137 62.3823 242.436 61.0186 240.229 60.1543C239.098 59.7072 237.969 59.4498 236.921 59.3652L236.342 58.5576ZM231.977 59.3896C230.982 58.9376 229.808 59.3691 229.354 60.3535C228.901 61.3382 229.339 62.5037 230.334 62.9561C230.538 63.0487 230.75 63.1037 230.961 63.125C230.819 62.462 230.855 61.8117 231.097 61.21C231.345 60.5808 231.76 60.0596 232.302 59.6504L232.353 59.6123C232.238 59.5263 232.112 59.4514 231.977 59.3896ZM232.868 60.1943C232.433 60.5036 232.113 60.8925 231.939 61.3525C231.723 61.872 231.691 62.4392 231.82 63.0225C232.307 62.8518 232.726 62.494 232.957 61.9922C233.233 61.3926 233.178 60.726 232.868 60.1943Z" fill="white"/>
<path d="M178.607 10.4004L177.87 7.49232L177.87 7.49234L178.607 10.4004ZM194.421 19.8203L197.329 19.0848L197.329 19.0829L194.421 19.8203ZM187.093 34.9121L185.874 32.1707L176.656 36.2674L186.615 37.8738L187.093 34.9121ZM208.258 38.3262L207.78 41.2879L208.672 41.4318L209.496 41.0588L208.258 38.3262ZM209.605 37.7285L210.758 40.4984L210.765 40.4954L210.772 40.4923L209.605 37.7285ZM210.126 37.5771L210.738 40.5141L210.925 40.4751L211.106 40.4125L210.126 37.5771ZM216.365 39.1494L214.593 41.5701L214.596 41.5719L216.365 39.1494ZM222.53 46.9199L219.837 48.2409L219.837 48.2421L222.53 46.9199ZM224.903 56.0225L221.903 56.0511L221.935 59.3094L225.179 59.0097L224.903 56.0225ZM233.277 55.249L233.003 52.2616L233.001 52.2617L233.277 55.249ZM234.295 55.7119L236.732 53.9625L236.732 53.9622L234.295 55.7119ZM239.942 63.5791L237.505 65.3286L237.505 65.3286L239.942 63.5791ZM240.049 64.7021L242.773 65.9579L242.773 65.9576L240.049 64.7021ZM238.34 68.4102L235.615 67.1544L234.147 70.3402L237.522 71.2965L238.34 68.4102ZM245.373 67.0098L248.066 68.3324L249.289 65.8409L246.9 64.4277L245.373 67.0098ZM244.589 66.5459L242.985 69.0813L243.023 69.1052L243.061 69.128L244.589 66.5459ZM244.237 65.1514L246.82 66.6783L246.82 66.6782L244.237 65.1514ZM249.205 56.749L246.671 55.144L246.646 55.1827L246.623 55.2222L249.205 56.749ZM250.6 56.3984L249.073 58.9809L249.073 58.9809L250.6 56.3984ZM258.998 61.3633L260.576 58.812L260.551 58.7961L260.525 58.7808L258.998 61.3633ZM259.354 62.7607L261.936 64.2878L261.936 64.2872L259.354 62.7607ZM254.388 71.1582L256.94 72.7355L256.955 72.7105L256.97 72.6852L254.388 71.1582ZM252.99 71.5146L254.517 68.9323L254.517 68.9323L252.99 71.5146ZM246.073 67.4248L247.6 64.8424L244.996 63.3026L243.478 65.9198L246.073 67.4248ZM238.024 69.0957L238.913 66.2303L236.4 65.4512L235.3 67.8403L238.024 69.0957ZM236.019 73.4492L238.743 74.705L238.743 74.7046L236.019 73.4492ZM235.094 74.1025L235.37 77.0898L235.371 77.0897L235.094 74.1025ZM229.493 74.6201L229.217 71.6328L226.16 71.9154L226.513 74.9654L229.493 74.6201ZM229.84 77.6123L231.519 80.0983L233.03 79.0779L232.82 77.267L229.84 77.6123ZM227.113 79.4541L225.434 76.9681L218.454 81.6832L226.843 82.4419L227.113 79.4541ZM243.325 83L246.325 83.0007V83H243.325ZM243.323 83.0459L240.338 82.7496L240.331 82.8227L240.327 82.896L243.323 83.0459ZM242.325 103L239.329 102.85L239.325 102.924L239.325 102.999L242.325 103ZM238.315 104.516L237.782 101.563L235.364 102.001L235.316 104.457L238.315 104.516ZM236.325 206L233.326 205.941L233.325 205.97L233.325 205.999L236.325 206ZM140.325 206L143.325 205.999L143.325 205.97L143.325 205.941L140.325 206ZM138.335 104.521L141.334 104.462L141.286 102.004L138.867 101.568L138.335 104.521ZM134.296 103H131.296L131.296 103.001L134.296 103ZM134.319 102.881L137.111 103.98L137.348 103.378L137.316 102.731L134.319 102.881ZM133.327 83.0459L136.323 82.896L136.32 82.8229L136.313 82.7501L133.327 83.0459ZM133.325 83H130.325L130.325 83.0007L133.325 83ZM144.401 79.9912L144.76 82.9697L149.273 82.4262L146.999 78.4901L144.401 79.9912ZM132.214 58.9023L129.615 60.4017L129.616 60.4034L132.214 58.9023ZM132.802 56.7061L134.301 59.3045L134.303 59.3036L132.802 56.7061ZM153.39 44.8096L151.89 42.2111L151.889 42.212L153.39 44.8096ZM155.586 45.3975L152.988 46.8971L152.988 46.8985L155.586 45.3975ZM166.659 64.5586L164.062 66.0597L165.449 68.4608L167.952 67.2658L166.659 64.5586ZM170.553 63.2578L171.125 66.2027L173.179 65.8034L173.514 63.738L170.553 63.2578ZM172.099 53.7246L175.06 54.2048L175.495 51.521L172.867 50.8247L172.099 53.7246ZM171.77 53.4883L169.267 55.143L169.268 55.1438L171.77 53.4883ZM171.681 53.0928L168.719 52.6128L168.715 52.6391L168.711 52.6656L171.681 53.0928ZM172.384 48.7549L169.423 48.2709L169.422 48.2749L172.384 48.7549ZM172.59 48.4043L170.726 46.0531L170.724 46.055L172.59 48.4043ZM172.979 48.2832L172.774 51.2761L175.5 51.4636L175.94 48.7666L172.979 48.2832ZM173.346 46.04L176.307 46.5234L176.749 43.8138L174.089 43.1336L173.346 46.04ZM173.015 45.8047L170.512 47.4587L170.513 47.4602L173.015 45.8047ZM172.928 45.4082L169.966 44.9282L169.964 44.9421L169.962 44.956L172.928 45.4082ZM173.337 42.8838L170.381 42.3733L170.378 42.3885L170.376 42.4038L173.337 42.8838ZM173.545 42.5342L171.683 40.1818L171.682 40.183L173.545 42.5342ZM173.933 42.4121L173.752 45.4067L176.46 45.5698L176.894 42.8916L173.933 42.4121ZM174.679 37.8037L171.718 37.3168L171.717 37.3243L174.679 37.8037ZM176.386 34.8457L178.29 37.1642L181.996 34.1205L177.638 32.1193L176.386 34.8457ZM169.184 26.2139L166.275 26.9497L166.276 26.9509L169.184 26.2139ZM223.69 72.4521L224.938 69.7237L224.937 69.7235L223.69 72.4521ZM223.058 72.667L220.337 71.4025L220.336 71.4055L223.058 72.667ZM220.158 78.9229L217.436 77.6613L215.595 81.6342L219.965 81.9166L220.158 78.9229ZM221.193 78.9902L220.99 81.9834L223.048 82.123L223.915 80.2517L221.193 78.9902ZM223.938 73.0693L226.659 74.3308L226.66 74.3287L223.938 73.0693ZM210.09 78.4072L207.128 77.9275L206.587 81.2722L209.972 81.4049L210.09 78.4072ZM218.226 78.8037L218.049 81.7985L220.093 81.9191L220.95 80.0593L218.226 78.8037ZM221.834 70.9736L224.559 72.2292L225.29 70.643L224.271 69.2242L221.834 70.9736ZM218.743 66.668L221.18 64.9185L221.18 64.9185L218.743 66.668ZM218.637 65.5459L215.912 64.291L215.912 64.2911L218.637 65.5459ZM219.445 63.79L222.17 65.0449L225.538 57.7317L218.206 61.058L219.445 63.79ZM212.738 62.0576L214.593 59.7L210.591 56.5508L209.777 61.5779L212.738 62.0576ZM246.273 64.4785L246.671 61.505L241.778 60.8502L243.451 65.4951L246.273 64.4785ZM246.479 66.3145L243.517 65.8343L242.693 70.9207L247.523 69.1268L246.479 66.3145ZM246.699 66.1973L248.437 68.6425L248.438 68.6419L246.699 66.1973ZM246.923 64.8701L249.368 63.1321L249.367 63.1307L246.923 64.8701ZM245.467 64.7568L248.308 63.7931L246.739 59.1687L243.323 62.6582L245.467 64.7568ZM245.372 65.9727L242.926 67.7098L242.927 67.7107L245.372 65.9727ZM245.624 66.2168L243.973 68.7215L247.896 71.3077L248.591 66.6605L245.624 66.2168ZM236.342 58.5576L236.41 55.5584L230.401 55.4208L233.904 60.3058L236.342 58.5576ZM240.488 59.4756L239.336 62.2453L239.389 62.2676L239.444 62.2878L240.488 59.4756ZM245.473 63.0098L248.056 64.5353L249.062 62.8311L247.892 61.2353L245.473 63.0098ZM245.008 63.7969L242.453 65.3698L245.061 69.6057L247.591 65.3224L245.008 63.7969ZM240.229 60.1543L239.125 62.944L239.135 62.9478L240.229 60.1543ZM236.921 59.3652L234.483 61.1134L235.293 62.2437L236.68 62.3555L236.921 59.3652ZM231.977 59.3896L233.218 56.6587L233.218 56.6585L231.977 59.3896ZM229.354 60.3535L226.63 59.0975L226.63 59.098L229.354 60.3535ZM230.334 62.9561L229.092 65.687L229.093 65.6872L230.334 62.9561ZM230.961 63.125L230.66 66.1099L234.755 66.5224L233.895 62.4977L230.961 63.125ZM231.097 61.21L233.881 62.3275L233.884 62.3202L233.887 62.3128L231.097 61.21ZM232.302 59.6504L230.502 57.2504L230.493 57.2572L232.302 59.6504ZM232.353 59.6123L234.153 62.0123L237.346 59.6175L234.158 57.2161L232.353 59.6123ZM232.868 60.1943L235.461 58.6849L233.808 55.8455L231.13 57.7493L232.868 60.1943ZM231.939 61.3525L234.708 62.5078L234.728 62.4609L234.746 62.4133L231.939 61.3525ZM231.82 63.0225L228.892 63.6731L229.625 66.9723L232.814 65.8532L231.82 63.0225ZM232.957 61.9922L235.682 63.2479L235.682 63.2477L232.957 61.9922ZM178.607 10.4004L179.344 13.3085C184.696 11.9523 190.156 15.2073 191.513 20.5577L194.421 19.8203L197.329 19.0829C195.158 10.5236 186.436 5.32151 177.87 7.49232L178.607 10.4004ZM194.421 19.8203L191.512 20.5559C192.723 25.3436 190.247 30.2273 185.874 32.1707L187.093 34.9121L188.311 37.6536C195.305 34.5451 199.269 26.7546 197.329 19.0848L194.421 19.8203ZM187.093 34.9121L186.615 37.8738L207.78 41.2879L208.258 38.3262L208.736 35.3645L187.571 31.9504L187.093 34.9121ZM208.258 38.3262L209.496 41.0588C210.036 40.8142 210.573 40.5753 210.758 40.4984L209.605 37.7285L208.453 34.9586C208.166 35.0781 207.54 35.3577 207.02 35.5935L208.258 38.3262ZM209.605 37.7285L210.772 40.4923C210.742 40.505 210.718 40.5139 210.701 40.5196C210.685 40.5252 210.674 40.5282 210.672 40.5289C210.669 40.5296 210.673 40.5286 210.684 40.5259C210.696 40.5231 210.713 40.5193 210.738 40.5141L210.126 37.5771L209.514 34.6402C209.278 34.6894 208.875 34.7805 208.439 34.9648L209.605 37.7285ZM210.126 37.5771L211.106 40.4125C211.598 40.2425 212.748 40.2194 214.593 41.5701L216.365 39.1494L218.137 36.7287C215.466 34.7735 212.24 33.6722 209.146 34.7418L210.126 37.5771ZM216.365 39.1494L214.596 41.5719C216.486 42.9527 218.39 45.2907 219.837 48.2409L222.53 46.9199L225.224 45.5989C223.453 41.989 220.982 38.807 218.135 36.727L216.365 39.1494ZM222.53 46.9199L219.837 48.2421C221.193 51.004 221.882 53.7739 221.903 56.0511L224.903 56.0225L227.903 55.9939C227.871 52.649 226.892 48.9971 225.223 45.5977L222.53 46.9199ZM224.903 56.0225L225.179 59.0097L233.553 58.2363L233.277 55.249L233.001 52.2617L224.627 53.0352L224.903 56.0225ZM233.277 55.249L233.552 58.2364C232.897 58.2967 232.25 58.0072 231.858 57.4616L234.295 55.7119L236.732 53.9622C235.876 52.7699 234.454 52.1281 233.003 52.2616L233.277 55.249ZM234.295 55.7119L231.858 57.4614L237.505 65.3286L239.942 63.5791L242.379 61.8296L236.732 53.9625L234.295 55.7119ZM239.942 63.5791L237.505 65.3286C237.108 64.7754 237.043 64.0561 237.324 63.4467L240.049 64.7021L242.773 65.9576C243.393 64.6142 243.246 63.0374 242.379 61.8296L239.942 63.5791ZM240.049 64.7021L237.324 63.4464L235.615 67.1544L238.34 68.4102L241.064 69.6659L242.773 65.9579L240.049 64.7021ZM238.34 68.4102L237.522 71.2965C239.503 71.8579 241.54 71.9933 243.339 71.6326C245.061 71.2872 247.071 70.3581 248.066 68.3324L245.373 67.0098L242.68 65.6872C242.838 65.3663 242.94 65.5932 242.159 65.7497C241.455 65.891 240.394 65.8741 239.158 65.5238L238.34 68.4102ZM245.373 67.0098L246.9 64.4277L246.116 63.9638L244.589 66.5459L243.061 69.128L243.846 69.5918L245.373 67.0098ZM244.589 66.5459L246.193 64.0105C246.294 64.0748 246.567 64.2479 246.79 64.6317C246.925 64.864 247.064 65.215 247.072 65.6542C247.081 66.1072 246.947 66.4626 246.82 66.6783L244.237 65.1514L241.655 63.6244C240.804 65.0637 240.973 66.5631 241.603 67.6466C242.102 68.5065 242.797 68.962 242.985 69.0813L244.589 66.5459ZM244.237 65.1514L246.82 66.6782L251.787 58.2758L249.205 56.749L246.623 55.2222L241.655 63.6246L244.237 65.1514ZM249.205 56.749L251.74 58.354C251.674 58.4571 251.501 58.7301 251.116 58.9528C250.883 59.0876 250.533 59.2256 250.094 59.2336C249.642 59.2418 249.288 59.1081 249.073 58.9809L250.6 56.3984L252.126 53.816C250.69 52.9668 249.193 53.1331 248.109 53.7609C247.248 54.2593 246.792 54.9527 246.671 55.144L249.205 56.749ZM250.6 56.3984L249.073 58.9809L257.471 63.9458L258.998 61.3633L260.525 58.7808L252.126 53.8159L250.6 56.3984ZM258.998 61.3633L257.42 63.9146C257.308 63.8453 257.039 63.6771 256.815 63.3048C256.679 63.0783 256.532 62.7275 256.519 62.2817C256.505 61.8196 256.64 61.4552 256.771 61.2343L259.354 62.7607L261.936 64.2872C262.317 63.6436 262.54 62.8979 262.516 62.1005C262.493 61.3194 262.237 60.6793 261.958 60.2138C261.447 59.3637 260.75 58.9196 260.576 58.812L258.998 61.3633ZM259.354 62.7607L256.771 61.2337L251.805 69.6312L254.388 71.1582L256.97 72.6852L261.936 64.2878L259.354 62.7607ZM254.388 71.1582L251.836 69.5809C251.904 69.4711 252.071 69.2021 252.443 68.9779C252.669 68.8414 253.02 68.6939 253.467 68.68C253.93 68.6656 254.296 68.8014 254.517 68.9323L252.99 71.5146L251.463 74.097C252.108 74.4781 252.855 74.702 253.654 74.6772C254.436 74.6528 255.076 74.3964 255.542 74.1158C256.391 73.6035 256.834 72.906 256.94 72.7355L254.388 71.1582ZM252.99 71.5146L254.517 68.9323L247.6 64.8424L246.073 67.4248L244.546 70.0072L251.463 74.097L252.99 71.5146ZM246.073 67.4248L243.478 65.9198C243.421 66.0175 243.161 66.3417 242.295 66.5163C241.444 66.6881 240.253 66.6458 238.913 66.2303L238.024 69.0957L237.136 71.9611C239.263 72.6207 241.483 72.8012 243.482 72.3978C245.467 71.9973 247.498 70.9484 248.668 68.9298L246.073 67.4248ZM238.024 69.0957L235.3 67.8403L233.294 72.1938L236.019 73.4492L238.743 74.7046L240.749 70.3511L238.024 69.0957ZM236.019 73.4492L233.294 72.1934C233.575 71.5843 234.157 71.1766 234.817 71.1154L235.094 74.1025L235.371 77.0897C236.836 76.9537 238.124 76.0477 238.743 74.705L236.019 73.4492ZM235.094 74.1025L234.818 71.1153L229.217 71.6328L229.493 74.6201L229.769 77.6074L235.37 77.0898L235.094 74.1025ZM229.493 74.6201L226.513 74.9654L226.86 77.9576L229.84 77.6123L232.82 77.267L232.473 74.2748L229.493 74.6201ZM229.84 77.6123L228.161 75.1263L225.434 76.9681L227.113 79.4541L228.793 81.9401L231.519 80.0983L229.84 77.6123ZM227.113 79.4541L226.843 82.4419C231.809 82.891 235.721 83.4182 238.346 83.9805C239.682 84.2669 240.532 84.5309 240.985 84.7319C241.224 84.8374 241.185 84.8535 241.042 84.7255C240.912 84.6099 240.325 84.0324 240.325 83H243.325H246.325C246.325 81.6213 245.544 80.7015 245.037 80.2485C244.515 79.7831 243.914 79.4669 243.415 79.2457C242.394 78.7934 241.067 78.4274 239.603 78.1136C236.625 77.4757 232.431 76.9228 227.383 76.4663L227.113 79.4541ZM243.325 83L240.325 82.9993C240.325 82.963 240.326 82.8703 240.338 82.7496L243.323 83.0459L246.309 83.3422C246.324 83.1909 246.325 83.0676 246.325 83.0007L243.325 83ZM243.323 83.0459L240.327 82.896L239.329 102.85L242.325 103L245.321 103.15L246.319 83.1958L243.323 83.0459ZM242.325 103L239.325 102.999C239.325 102.366 239.544 101.865 239.76 101.539C239.962 101.236 240.171 101.065 240.26 100.999C240.422 100.878 240.471 100.887 240.241 100.973C239.815 101.132 239.022 101.339 237.782 101.563L238.315 104.516L238.849 107.468C240.194 107.225 241.405 106.942 242.338 106.594C242.787 106.427 243.355 106.179 243.864 105.796C244.298 105.47 245.325 104.56 245.325 103.001L242.325 103ZM238.315 104.516L235.316 104.457L233.326 205.941L236.325 206L239.325 206.059L241.315 104.574L238.315 104.516ZM236.325 206L233.325 205.999C233.325 205.126 233.764 204.586 233.929 204.417C234.085 204.257 234.161 204.246 233.989 204.334C233.656 204.504 232.974 204.753 231.835 205.033C229.606 205.582 226.251 206.104 221.955 206.552C213.401 207.443 201.51 208 188.325 208V211V214C201.65 214 213.758 213.438 222.577 212.519C226.967 212.062 230.642 211.506 233.27 210.859C234.56 210.541 235.765 210.163 236.711 209.681C237.178 209.443 237.741 209.102 238.225 208.606C238.718 208.1 239.325 207.219 239.325 206.001L236.325 206ZM188.325 211V208C175.14 208 163.249 207.443 154.695 206.552C150.4 206.104 147.045 205.582 144.815 205.033C143.676 204.753 142.995 204.504 142.661 204.334C142.489 204.246 142.565 204.257 142.721 204.417C142.886 204.586 143.325 205.126 143.325 205.999L140.325 206L137.325 206.001C137.325 207.219 137.932 208.1 138.425 208.606C138.909 209.102 139.472 209.443 139.94 209.681C140.885 210.163 142.09 210.541 143.38 210.859C146.009 211.506 149.683 212.062 154.074 212.519C162.892 213.438 175.001 214 188.325 214V211ZM140.325 206L143.325 205.941L141.334 104.462L138.335 104.521L135.336 104.579L137.326 206.059L140.325 206ZM138.335 104.521L138.867 101.568C137.617 101.343 136.816 101.134 136.384 100.974C136.151 100.887 136.198 100.877 136.358 100.997C136.446 101.062 136.656 101.232 136.858 101.535C137.075 101.861 137.296 102.363 137.296 102.999L134.296 103L131.296 103.001C131.297 104.566 132.33 105.476 132.764 105.801C133.274 106.183 133.844 106.431 134.295 106.599C135.232 106.947 136.45 107.229 137.803 107.473L138.335 104.521ZM134.296 103H137.296C137.296 103.364 137.222 103.696 137.111 103.98L134.319 102.881L131.528 101.782C131.385 102.144 131.296 102.556 131.296 103H134.296ZM134.319 102.881L137.316 102.731L136.323 82.896L133.327 83.0459L130.331 83.1958L131.323 103.031L134.319 102.881ZM133.327 83.0459L136.313 82.7501C136.324 82.8703 136.325 82.9626 136.325 82.9993L133.325 83L130.325 83.0007C130.325 83.068 130.327 83.191 130.342 83.3417L133.327 83.0459ZM133.325 83H136.325C136.325 83.8375 135.929 84.3866 135.731 84.6042C135.547 84.8058 135.419 84.8568 135.513 84.8057C135.695 84.7064 136.157 84.5168 137.028 84.2847C138.723 83.833 141.327 83.3831 144.76 82.9697L144.401 79.9912L144.043 77.0127C140.522 77.4367 137.588 77.9261 135.483 78.487C134.455 78.7612 133.452 79.0962 132.643 79.5362C132.242 79.7547 131.738 80.079 131.301 80.557C130.85 81.0511 130.325 81.8801 130.325 83H133.325ZM144.401 79.9912L146.999 78.4901L134.811 57.4012L132.214 58.9023L129.616 60.4034L141.804 81.4923L144.401 79.9912ZM132.214 58.9023L134.812 57.4029C135.197 58.0691 134.974 58.9163 134.301 59.3045L132.802 56.7061L131.302 54.1076C129.098 55.3793 128.347 58.2044 129.615 60.4017L132.214 58.9023ZM132.802 56.7061L134.303 59.3036L154.891 47.4071L153.39 44.8096L151.889 42.212L131.301 54.1085L132.802 56.7061ZM153.39 44.8096L154.889 47.408C154.223 47.7925 153.376 47.5695 152.988 46.8971L155.586 45.3975L158.184 43.8978C156.912 41.6942 154.088 40.9431 151.89 42.2111L153.39 44.8096ZM155.586 45.3975L152.988 46.8985L164.062 66.0597L166.659 64.5586L169.257 63.0575L158.183 43.8964L155.586 45.3975ZM166.659 64.5586L167.952 67.2658C169.012 66.7595 170.084 66.4052 171.125 66.2027L170.553 63.2578L169.98 60.3129C168.413 60.6177 166.859 61.1388 165.367 61.8514L166.659 64.5586ZM170.553 63.2578L173.514 63.738L175.06 54.2048L172.099 53.7246L169.137 53.2444L167.591 62.7776L170.553 63.2578ZM172.099 53.7246L172.867 50.8247C173.444 50.9775 173.943 51.3367 174.271 51.8328L171.77 53.4883L169.268 55.1438C169.75 55.8726 170.484 56.4002 171.33 56.6245L172.099 53.7246ZM171.77 53.4883L174.272 51.8336C174.599 52.3287 174.735 52.9282 174.65 53.52L171.681 53.0928L168.711 52.6656C168.586 53.5336 168.786 54.4151 169.267 55.143L171.77 53.4883ZM171.681 53.0928L174.642 53.5728L175.345 49.2349L172.384 48.7549L169.422 48.2749L168.719 52.6128L171.681 53.0928ZM172.384 48.7549L175.344 49.2388C175.246 49.8401 174.927 50.3789 174.456 50.7535L172.59 48.4043L170.724 46.055C170.033 46.6041 169.567 47.3928 169.423 48.2709L172.384 48.7549ZM172.59 48.4043L174.453 50.7554C173.98 51.1302 173.383 51.318 172.774 51.2761L172.979 48.2832L173.185 45.2903C172.296 45.2291 171.42 45.5039 170.726 46.0531L172.59 48.4043ZM172.979 48.2832L175.94 48.7666L176.307 46.5234L173.346 46.04L170.385 45.5567L170.019 47.7998L172.979 48.2832ZM173.346 46.04L174.089 43.1336C174.673 43.2829 175.182 43.6437 175.517 44.1492L173.015 45.8047L170.513 47.4602C171.002 48.1991 171.748 48.7279 172.602 48.9465L173.346 46.04ZM173.015 45.8047L175.517 44.1507C175.852 44.6572 175.984 45.2667 175.893 45.8604L172.928 45.4082L169.962 44.956C169.829 45.8261 170.023 46.7189 170.512 47.4587L173.015 45.8047ZM172.928 45.4082L175.889 45.8882L176.298 43.3638L173.337 42.8838L170.376 42.4038L169.966 44.9282L172.928 45.4082ZM173.337 42.8838L176.293 43.3943C176.19 43.989 175.872 44.5175 175.408 44.8853L173.545 42.5342L171.682 40.183C170.998 40.7247 170.531 41.5027 170.381 42.3733L173.337 42.8838ZM173.545 42.5342L175.407 44.8866C174.94 45.2562 174.351 45.4428 173.752 45.4067L173.933 42.4121L174.113 39.4175C173.234 39.3646 172.37 39.6384 171.683 40.1818L173.545 42.5342ZM173.933 42.4121L176.894 42.8916L177.64 38.2832L174.679 37.8037L171.717 37.3243L170.971 41.9327L173.933 42.4121ZM174.679 37.8037L177.639 38.2906C177.712 37.8488 177.943 37.4487 178.29 37.1642L176.386 34.8457L174.482 32.5272C173.016 33.7311 172.029 35.4304 171.718 37.3168L174.679 37.8037ZM176.386 34.8457L177.638 32.1193C174.965 30.8924 172.864 28.524 172.092 25.4768L169.184 26.2139L166.276 26.9509C167.514 31.839 170.891 35.6241 175.134 37.5721L176.386 34.8457ZM169.184 26.2139L172.092 25.478C170.738 20.1286 173.992 14.665 179.344 13.3084L178.607 10.4004L177.87 7.49234C169.306 9.66297 164.109 18.3894 166.275 26.9497L169.184 26.2139ZM223.69 72.4521L224.937 69.7235C223.33 68.9892 221.2 69.5451 220.337 71.4025L223.058 72.667L225.778 73.9315C225.128 75.3296 223.565 75.6931 222.444 75.1808L223.69 72.4521ZM223.058 72.667L220.336 71.4055L217.436 77.6613L220.158 78.9229L222.88 80.1844L225.779 73.9285L223.058 72.667ZM220.158 78.9229L219.965 81.9166C220.32 81.9396 220.655 81.9606 220.99 81.9834L221.193 78.9902L221.396 75.9971C221.048 75.9735 220.692 75.9511 220.352 75.9291L220.158 78.9229ZM221.193 78.9902L223.915 80.2517L226.659 74.3308L223.938 73.0693L221.216 71.8078L218.471 77.7287L221.193 78.9902ZM223.938 73.0693L226.66 74.3287C227.526 72.4569 226.555 70.463 224.938 69.7237L223.69 72.4521L222.443 75.1806C221.312 74.6634 220.562 73.2219 221.215 71.81L223.938 73.0693ZM210.09 78.4072L209.972 81.4049C212.798 81.5157 215.498 81.648 218.049 81.7985L218.226 78.8037L218.402 75.8089C215.81 75.656 213.07 75.5218 210.207 75.4095L210.09 78.4072ZM218.226 78.8037L220.95 80.0593L224.559 72.2292L221.834 70.9736L219.109 69.718L215.501 77.5481L218.226 78.8037ZM221.834 70.9736L224.271 69.2242L221.18 64.9185L218.743 66.668L216.306 68.4174L219.397 72.7231L221.834 70.9736ZM218.743 66.668L221.18 64.9185C221.577 65.4718 221.642 66.1916 221.362 66.8007L218.637 65.5459L215.912 64.2911C215.293 65.6341 215.439 67.2097 216.306 68.4175L218.743 66.668ZM218.637 65.5459L221.362 66.8008L222.17 65.0449L219.445 63.79L216.72 62.5352L215.912 64.291L218.637 65.5459ZM219.445 63.79L218.206 61.058C217.864 61.2133 216.669 61.3328 214.593 59.7L212.738 62.0576L210.883 64.4153C213.555 66.5178 217.235 68.087 220.685 66.522L219.445 63.79ZM212.738 62.0576L209.777 61.5779L207.128 77.9275L210.09 78.4072L213.051 78.8869L215.7 62.5373L212.738 62.0576ZM246.273 64.4785L243.451 65.4951C243.534 65.7265 243.518 65.8305 243.517 65.8343L246.479 66.3145L249.44 66.7946C249.631 65.6182 249.462 64.4781 249.096 63.4619L246.273 64.4785ZM246.479 66.3145L247.523 69.1268C247.848 69.0062 248.155 68.8431 248.437 68.6425L246.699 66.1973L244.961 63.752C245.104 63.6506 245.262 63.5659 245.434 63.5021L246.479 66.3145ZM246.699 66.1973L248.438 68.6419C250.218 67.3757 250.631 64.9082 249.368 63.1321L246.923 64.8701L244.478 66.6082C243.824 65.6885 244.036 64.4098 244.96 63.7526L246.699 66.1973ZM246.923 64.8701L249.367 63.1307C248.707 62.2027 247.713 61.6444 246.671 61.505L246.273 64.4785L245.876 67.452C245.338 67.3801 244.821 67.0904 244.479 66.6096L246.923 64.8701ZM245.467 64.7568L243.323 62.6582C242.009 64.0006 241.801 66.1256 242.926 67.7098L245.372 65.9727L247.818 64.2355C248.402 65.0576 248.293 66.1585 247.611 66.8555L245.467 64.7568ZM245.372 65.9727L242.927 67.7107C243.212 68.112 243.567 68.4543 243.973 68.7215L245.624 66.2168L247.275 63.7121C247.489 63.8533 247.673 64.031 247.817 64.2346L245.372 65.9727ZM245.624 66.2168L248.591 66.6605C248.743 65.6417 248.603 64.6624 248.308 63.7931L245.467 64.7568L242.626 65.7206C242.647 65.7845 242.652 65.8195 242.653 65.827C242.654 65.8333 242.651 65.8133 242.657 65.773L245.624 66.2168ZM236.342 58.5576L236.273 61.5568C237.183 61.5777 238.244 61.791 239.336 62.2453L240.488 59.4756L241.641 56.7058C239.913 55.9866 238.119 55.5975 236.41 55.5584L236.342 58.5576ZM240.488 59.4756L239.444 62.2878C241.183 62.9339 242.418 63.9175 243.054 64.7842L245.473 63.0098L247.892 61.2353C246.447 59.2664 244.174 57.6445 241.533 56.6634L240.488 59.4756ZM245.473 63.0098L242.889 61.4842L242.425 62.2713L245.008 63.7969L247.591 65.3224L248.056 64.5353L245.473 63.0098ZM245.008 63.7969L247.562 62.2239C246.27 60.1251 243.977 58.4003 241.322 57.3608L240.229 60.1543L239.135 62.9478C240.894 63.6368 242.004 64.6395 242.453 65.3698L245.008 63.7969ZM240.229 60.1543L241.332 57.3646C239.937 56.8129 238.518 56.4843 237.162 56.375L236.921 59.3652L236.68 62.3555C237.42 62.4152 238.259 62.6014 239.125 62.944L240.229 60.1543ZM236.921 59.3652L239.359 57.6171L238.78 56.8094L236.342 58.5576L233.904 60.3058L234.483 61.1134L236.921 59.3652ZM231.977 59.3896L233.218 56.6585C230.74 55.5324 227.784 56.5947 226.63 59.0975L229.354 60.3535L232.079 61.6095C231.833 62.1436 231.224 62.3428 230.735 62.1208L231.977 59.3896ZM229.354 60.3535L226.63 59.098C225.471 61.6123 226.603 64.5553 229.092 65.687L230.334 62.9561L231.576 60.2251C232.075 60.4521 232.33 61.0641 232.079 61.609L229.354 60.3535ZM230.334 62.9561L229.093 65.6872C229.604 65.9194 230.134 66.0569 230.66 66.1099L230.961 63.125L231.262 60.1401C231.365 60.1505 231.472 60.178 231.575 60.2249L230.334 62.9561ZM230.961 63.125L233.895 62.4977C233.877 62.4133 233.877 62.3641 233.878 62.3449C233.879 62.3349 233.88 62.3301 233.88 62.329C233.881 62.328 233.881 62.3279 233.881 62.3275L231.097 61.21L228.313 60.0924C227.821 61.3183 227.778 62.5845 228.027 63.7523L230.961 63.125ZM231.097 61.21L233.887 62.3128C233.916 62.2394 233.969 62.1504 234.111 62.0436L232.302 59.6504L230.493 57.2572C229.551 57.9687 228.775 58.9222 228.307 60.1071L231.097 61.21ZM232.302 59.6504L234.102 62.0504L234.153 62.0123L232.353 59.6123L230.553 57.2123L230.502 57.2504L232.302 59.6504ZM232.353 59.6123L234.158 57.2161C233.865 56.9956 233.549 56.8093 233.218 56.6587L231.977 59.3896L230.735 62.1206C230.675 62.0935 230.612 62.0569 230.548 62.0085L232.353 59.6123ZM232.868 60.1943L231.13 57.7493C230.287 58.3487 229.549 59.1919 229.133 60.2917L231.939 61.3525L234.746 62.4133C234.715 62.4949 234.675 62.5585 234.641 62.6009C234.608 62.6415 234.59 62.6512 234.606 62.6394L232.868 60.1943ZM231.939 61.3525L229.171 60.1973C228.683 61.366 228.648 62.5742 228.892 63.6731L231.82 63.0225L234.749 62.3718C234.74 62.3323 234.745 62.3326 234.743 62.3658C234.741 62.4016 234.731 62.4531 234.708 62.5078L231.939 61.3525ZM231.82 63.0225L232.814 65.8532C234.026 65.4277 235.093 64.5254 235.682 63.2479L232.957 61.9922L230.232 60.7365C230.359 60.4627 230.587 60.2758 230.827 60.1917L231.82 63.0225ZM232.957 61.9922L235.682 63.2477C236.387 61.7161 236.238 60.019 235.461 58.6849L232.868 60.1943L230.276 61.7038C230.118 61.433 230.079 61.069 230.232 60.7367L232.957 61.9922Z" fill="white" mask="url(#path-2-outside-1_17_28626)"/>
<path d="M211.31 38.8658L179.951 33.807C178.683 33.5996 177.385 33.904 176.341 34.6535C175.298 35.4029 174.594 36.5359 174.386 37.8036L173.64 42.4123C173.5 42.4038 173.362 42.4473 173.252 42.5344C173.142 42.6214 173.069 42.7459 173.045 42.884L172.635 45.4084C172.614 45.5467 172.645 45.6879 172.723 45.8046C172.8 45.9213 172.918 46.0051 173.053 46.0398L172.687 48.283C172.547 48.2734 172.408 48.3164 172.298 48.4037C172.188 48.4909 172.114 48.6161 172.092 48.7548L171.389 53.0929C171.369 53.2311 171.4 53.3717 171.477 53.4881C171.554 53.6045 171.671 53.6886 171.806 53.7243L162.82 109.181C162.719 109.809 162.743 110.451 162.89 111.07C163.037 111.688 163.304 112.272 163.677 112.787C164.05 113.303 164.52 113.74 165.062 114.073C165.603 114.407 166.205 114.63 166.833 114.731L198.176 119.805C199.444 120.013 200.742 119.708 201.786 118.959C202.829 118.209 203.532 117.076 203.741 115.809L213.284 56.8882L213.39 56.8904C213.463 56.9025 213.538 56.9 213.61 56.8832C213.683 56.8663 213.751 56.8354 213.811 56.7922C213.871 56.7489 213.922 56.6943 213.961 56.6313C214 56.5683 214.027 56.4983 214.039 56.4251L214.895 51.1217C214.918 50.9734 214.881 50.8221 214.793 50.7006C214.705 50.5792 214.572 50.4975 214.424 50.4732L214.318 50.471L215.308 44.3722C215.5 43.113 215.188 41.8289 214.44 40.7982C213.691 39.7675 212.567 39.0732 211.31 38.8658Z" fill="black"/>
<path d="M201.148 112.945C201.028 113.63 200.645 114.24 200.08 114.646C199.516 115.052 198.815 115.221 198.127 115.116L168.375 110.299C167.689 110.182 167.075 109.799 166.667 109.235C166.259 108.67 166.089 107.967 166.193 107.278L176.989 40.6311C177.108 39.9452 177.49 39.3331 178.055 38.9262C178.62 38.5192 179.321 38.3497 180.01 38.4542L209.761 43.2771C210.447 43.3944 211.06 43.7757 211.468 44.3394C211.876 44.903 212.047 45.604 211.944 46.2922L201.148 112.945Z" fill="white"/>
<path d="M197.306 39.7057L192.952 39.0024C192.878 38.9913 192.808 38.9657 192.744 38.9271C192.68 38.8885 192.625 38.8377 192.581 38.7776C192.537 38.7175 192.506 38.6493 192.488 38.5769C192.471 38.5046 192.468 38.4295 192.479 38.3559C192.491 38.2824 192.517 38.212 192.556 38.1486C192.596 38.0853 192.647 38.0303 192.707 37.9868C192.768 37.9434 192.836 37.9123 192.909 37.8955C192.981 37.8786 193.056 37.8763 193.13 37.8886L197.479 38.5918C197.627 38.6161 197.759 38.6978 197.847 38.8193C197.935 38.9407 197.972 39.092 197.949 39.2403C197.938 39.3132 197.912 39.3832 197.874 39.4462C197.835 39.5091 197.785 39.5638 197.725 39.6071C197.665 39.6504 197.597 39.6814 197.525 39.6983C197.453 39.7152 197.379 39.7177 197.306 39.7057Z" fill="white"/>
<path d="M186.259 66.2249L186.348 66.3225L186.556 66.561C186.628 66.6424 186.701 66.7131 186.78 66.7892L187.009 67.0122L187.255 67.2196L187.506 67.4164C187.59 67.482 187.679 67.5424 187.774 67.6029C187.868 67.6635 187.947 67.7183 188.036 67.7734C188.125 67.8285 188.231 67.8839 188.331 67.9392C188.431 67.9946 188.51 68.0388 188.604 68.0833C188.699 68.1279 188.821 68.1783 188.926 68.2284C189.031 68.2786 189.111 68.3068 189.211 68.3409C189.311 68.3749 189.454 68.4258 189.576 68.4603C189.697 68.4947 189.75 68.5224 189.845 68.5457C189.94 68.569 190.195 68.6276 190.375 68.658L190.508 68.6607L190.62 68.6631C190.806 68.667 190.991 68.7135 191.177 68.7227C191.268 68.7246 191.353 68.7264 191.438 68.7282L191.847 68.7367L192.124 68.7425C192.252 68.7452 192.379 68.7479 192.502 68.7079L192.786 68.6606L193.143 68.5937L193.416 68.5196C193.534 68.4901 193.652 68.4553 193.764 68.4151C193.855 68.388 193.945 68.3561 194.033 68.3196L194.365 68.1883L194.618 68.0659C194.731 68.015 194.833 67.9586 194.941 67.9023L195.178 67.7636C195.221 67.7326 195.269 67.7123 195.312 67.6866C196.487 66.9391 197.407 65.8522 197.95 64.57C198.493 63.2878 198.633 61.8709 198.352 60.507C198.072 59.1432 197.383 57.8969 196.378 56.9334C195.373 55.9699 194.098 55.3346 192.724 55.1119C191.349 54.8892 189.94 55.0894 188.682 55.6862C187.423 56.283 186.376 57.248 185.679 58.4534C184.982 59.6587 184.668 61.0475 184.778 62.4356C184.889 63.8236 185.418 65.1454 186.297 66.2256L186.259 66.2249Z" fill="#FFBC0D"/>
<path d="M196.98 68.5934C196.041 69.3494 194.953 69.8994 193.788 70.2075C192.622 70.5157 191.405 70.5752 190.215 70.3821C189.025 70.189 187.889 69.7476 186.881 69.0867C185.873 68.4258 185.015 67.5602 184.363 66.546C181.844 67.1743 180.065 68.4939 179.794 70.2443C179.299 73.2937 183.457 76.4993 189.079 77.4101C194.7 78.321 199.654 76.5678 200.149 73.545C200.43 71.7895 199.17 69.9804 196.98 68.5934Z" fill="#FFBC0D"/>
<path d="M153.095 44.8087C153.86 44.367 154.85 44.6311 155.292 45.3969L174.401 78.4628C174.842 79.2283 174.578 80.2161 173.813 80.6579L153.224 92.5557C152.459 92.9973 151.47 92.7328 151.028 91.9671L131.919 58.9012C131.478 58.1355 131.742 57.1477 132.507 56.706L153.095 44.8087Z" fill="white"/>
<path d="M153.095 44.8087C153.86 44.367 154.85 44.6311 155.292 45.3969L174.401 78.4628C174.842 79.2283 174.578 80.2161 173.813 80.6579L153.224 92.5557C152.459 92.9973 151.47 92.7328 151.028 91.9671L131.919 58.9012C131.478 58.1355 131.742 57.1477 132.507 56.706L153.095 44.8087Z" stroke="white"/>
<path d="M153.345 45.2418C153.871 44.9379 154.555 45.1205 154.859 45.6468L173.968 78.7127C174.272 79.2397 174.088 79.9215 173.563 80.2249L173.562 80.2254L152.974 92.1227L152.874 92.1737C152.364 92.4022 151.746 92.2106 151.461 91.7171L132.352 58.6512L132.301 58.5511C132.088 58.0746 132.24 57.5045 132.662 57.1994L132.757 57.139L153.345 45.2418Z" fill="white" stroke="#D8D8D8"/>
<path d="M151.104 84.4214C150.717 84.6446 150.203 84.4763 149.954 84.0456C149.705 83.6149 149.817 83.0847 150.204 82.8615L166.407 73.5071C166.794 73.2839 167.309 73.4522 167.557 73.8829C167.806 74.3136 167.694 74.8438 167.307 75.067L151.104 84.4214Z" fill="#F1F1F1"/>
<path d="M152.48 87.2686C152.205 87.4273 151.781 87.2067 151.532 86.776C151.284 86.3453 151.305 85.8674 151.58 85.7087L163.102 79.0568C163.377 78.8981 163.801 79.1186 164.05 79.5494C164.299 79.9801 164.277 80.458 164.002 80.6167L152.48 87.2686Z" fill="#F1F1F1"/>
<g style="mix-blend-mode:multiply">
<ellipse cx="8.34507" cy="0.848771" rx="8.34507" ry="0.848771" transform="matrix(0.86604 -0.499974 0.499774 0.866156 146.859 75.1406)" fill="#F1F1F1"/>
</g>
<path fill-rule="evenodd" clip-rule="evenodd" d="M147.713 73.5059C148.197 74.3446 149.23 74.6874 150.108 74.279C151.325 73.7132 153.072 72.862 154.653 71.9494C156.137 71.093 157.508 70.1625 158.466 69.4795C159.259 68.9143 159.469 67.8434 158.983 67.0001L147.713 73.5059Z" fill="#E89700"/>
<path d="M148.177 72.9827L148.197 72.9809C149.074 72.9142 149.028 72.4058 149.557 72.1244C149.774 72.009 149.976 71.9553 150.142 71.9326L150.152 71.9119C150.163 71.8894 150.177 71.8665 150.192 71.8434L150.324 71.7666L150.425 71.707C150.562 71.6258 150.71 71.5372 150.868 71.4404L150.948 71.3909L151.048 71.3282C151.146 71.2674 151.281 71.1874 151.413 71.1236L151.423 71.1212C151.462 71.1202 151.5 71.1222 151.536 71.1272C151.611 71.1374 151.681 71.1497 151.746 71.1598C151.868 71.065 151.977 70.9892 152.084 70.8796C152.262 70.8171 152.427 70.7692 152.582 70.7346C152.871 70.6697 154.167 69.7158 154.882 69.3006L155.046 69.1733C155.408 68.8958 155.713 68.6744 155.772 68.6081L155.775 68.6041C155.801 68.5724 155.828 68.5414 155.857 68.5113L155.906 68.501L155.957 68.4896C156.342 68.4002 156.799 68.2281 157.348 67.8082C157.472 67.713 157.625 67.6372 157.793 67.5781C157.889 67.3836 158.051 67.403 158.169 67.3052C158.329 67.1724 158.352 67.0628 158.605 66.891C158.952 66.6562 159.394 67.089 159.55 67.221C159.706 67.3531 159.633 67.2574 159.525 67.3049C159.418 67.3523 159.337 67.3104 159.212 67.3701C158.682 67.6227 159.101 68.2418 158.547 68.7105C158.247 68.9635 157.681 68.8202 157.526 68.8748C157.37 68.9293 157.299 69.1131 157.16 69.1966C156.504 69.5905 155.938 69.4523 155.339 69.7028L155.345 69.6658C155.349 69.6441 155.352 69.6224 155.356 69.6006C155.363 69.5613 155.261 69.6185 155.103 69.7223L155.029 69.8393C154.709 70.3417 154.306 70.9343 154.483 71.0243C154.248 71.2154 153.97 71.3665 153.65 71.5322C153.34 71.6927 152.903 71.6303 152.649 71.741C152.206 71.9344 151.276 72.8681 151.276 72.8681C151.276 72.8681 151.195 72.5549 150.97 72.5611C150.661 72.5696 150.044 72.9096 150.005 73.0479C149.966 73.1862 149.902 73.304 149.773 73.3795C149.455 73.5655 149.278 73.4644 149.101 73.5206C148.914 73.5797 148.865 73.684 148.646 73.8422C148.4 74.0187 148.271 73.8749 148.215 73.7255L148.211 73.7163C148.049 73.2603 147.538 73.9339 147.529 73.7434C147.52 73.5528 147.776 73.0245 148.177 72.9827Z" fill="#9CC93A"/>
<path fill-rule="evenodd" clip-rule="evenodd" d="M151.781 70.8928C154.032 70.0161 154.629 69.0322 155.563 68.3605C156.174 67.921 156.807 67.6098 157.349 67.4508C157.355 67.4491 157.567 67.364 157.679 67.3076C157.881 67.2067 158.088 67.0868 158.303 66.9478C158.303 66.9478 158.58 66.7416 158.735 66.6282C158.89 66.5147 159.039 66.4654 159.16 66.6121C159.253 66.7254 159.201 66.8311 159.088 66.9241C158.975 67.0171 158.17 67.3066 156.27 68.5294C154.371 69.7521 155.844 71.9651 154.97 71.4901C154.064 70.9979 152.816 70.9583 151.991 71.1386C151.166 71.319 149.464 72.5192 148.914 72.814C148.364 73.1088 148.18 73.143 147.922 73.2222C147.664 73.3015 147.696 73.3406 147.621 73.2108C147.554 73.0939 147.622 72.9853 147.746 72.9389C147.815 72.913 148.059 72.8663 148.92 72.4C149.603 72.0304 150.785 71.2803 151.781 70.8928Z" fill="#FFBC0D"/>
<path fill-rule="evenodd" clip-rule="evenodd" d="M157.582 65.5208C157.91 65.3317 158.329 65.4445 158.518 65.7728L158.721 66.1433C158.721 66.1433 158.498 66.4389 157.562 66.9451C156.626 67.4514 155.968 67.5421 155.358 67.9801C154.426 68.6495 154.264 69.2384 152.305 70.1455C150.346 71.0525 147.528 72.6999 147.528 72.6999L147.249 72.2787C147.06 71.9504 147.172 71.531 147.499 71.3419C149.714 69.9026 151.399 68.8492 152.552 68.1815C153.706 67.5139 155.34 66.6535 157.582 65.5208Z" fill="#73371F"/>
<path fill-rule="evenodd" clip-rule="evenodd" d="M146.327 70.3988C146.265 70.2918 146.302 70.155 146.408 70.0933L157.346 63.7789C157.423 63.7349 157.52 63.761 157.564 63.8373C157.992 64.5783 157.722 65.5264 156.969 65.9334C155.635 66.6554 153.665 67.7278 152.639 68.3202C151.598 68.9211 149.644 70.1157 148.351 70.9108C147.652 71.3406 146.737 71.1094 146.327 70.3988Z" fill="#E89700"/>
<path d="M149.408 67.9117L149.465 67.8715C150.185 67.3516 150.016 67.1774 150.408 66.9427C150.586 66.8364 150.755 66.8205 150.921 66.8404C151.126 66.4421 151.37 66.0726 151.786 65.8439C152.116 65.663 152.621 65.7676 152.894 65.6453C153.37 65.4316 154.038 64.6836 154.194 64.2134C154.205 64.1794 154.254 64.1978 154.267 64.2413L154.294 64.3332C154.348 64.5148 154.432 64.7205 154.684 64.7266C155.034 64.7349 155.409 64.5008 155.71 64.1794C155.735 64.0094 155.789 63.8664 155.925 63.7803C156.26 63.5681 156.476 63.7049 156.669 63.6459L156.691 63.639C156.918 63.5632 157.179 63.3667 157.51 63.6576C157.841 63.9485 158.355 63.4241 158.355 63.4241C158.355 63.4241 158.245 64.3474 157.794 64.3731L157.774 64.374C156.787 64.4031 156.913 65.0395 156.353 65.3577C156.123 65.4881 155.901 65.5426 155.716 65.5606C155.531 65.5786 154.822 66.5931 154.247 66.4785L154.179 66.4644C153.854 66.3937 153.612 66.3083 153.402 66.5231C153.276 66.6515 153.175 66.9116 152.712 67.1414C152.414 67.2897 152.039 67.2434 151.715 67.2009C151.562 67.3997 151.42 67.429 151.361 67.8686L151.358 67.896C151.315 68.2468 151.22 68.4182 150.92 68.4447L150.901 68.4462C150.43 68.4773 150.448 68.901 149.936 69.1566C149.597 69.3257 148.912 68.8513 148.244 69.5567C148.126 69.681 147.926 69.7243 147.703 69.7187C147.681 69.8962 147.688 70.0593 147.69 70.1758C147.702 70.784 147.348 70.5797 147.186 70.7208L147.179 70.7267C147.022 70.8776 146.895 70.8488 146.648 71.0273L146.623 71.0452C146.263 71.3165 145.879 71.3527 145.633 71.0856C145.592 71.041 145.211 70.672 145.401 70.7707C145.59 70.8694 145.684 70.4927 145.818 70.426C146.384 70.1439 145.7 69.8214 146.263 69.2713C146.539 69.0011 147.212 68.9108 147.629 68.9237L147.673 68.7106C147.727 68.4659 147.799 68.2099 147.966 68.0975C148.419 67.7928 148.991 68.2048 149.408 67.9117Z" fill="#9CC93A"/>
<path fill-rule="evenodd" clip-rule="evenodd" d="M145.914 68.1739C146.466 67.8551 148.951 66.1756 150.624 65.2096C152.318 64.2318 155.182 62.7418 155.689 62.5309C156.196 62.32 156.367 62.3335 156.558 62.6643C156.749 62.9952 156.595 62.7283 156.786 63.0592C156.977 63.39 156.795 63.6892 156.467 63.8787L146.366 69.71C146.037 69.8994 145.46 69.584 145.391 69.1109C145.323 68.6377 145.362 68.4927 145.914 68.1739Z" fill="#73371F"/>
<path d="M145.776 69.7248C145.858 69.6326 146.023 69.5821 147.082 69.1336C147.497 68.9578 148.135 68.6361 149.094 68.0532C149.766 67.645 150.831 67.0154 152.766 65.8518C154.702 64.6881 155.605 64.2245 156.227 63.8541C156.848 63.4838 156.695 63.0949 157.18 63.2222C157.665 63.3495 157.029 63.6601 156.429 64.0629C155.83 64.4658 155.771 64.2781 153.737 65.5357C151.704 66.7934 150.967 67.5295 150.021 68.0887C148.238 69.1425 147.426 69.0164 146.481 69.8062C145.537 70.596 145.693 69.817 145.776 69.7248Z" fill="#EDC8A3"/>
<path fill-rule="evenodd" clip-rule="evenodd" d="M155.852 61.2941C155.999 61.5484 156.201 61.8996 155.838 62.1188C155.466 62.3238 152.284 63.7533 150.516 64.7824C148.815 65.7557 145.878 67.777 145.425 68.1294C144.969 68.4649 144.828 68.0783 144.714 67.8868C143.503 65.7823 145.802 62.8075 148.527 61.1941C151.255 59.5804 154.673 59.2524 155.852 61.2941Z" fill="white"/>
<path d="M148.524 61.1948C151.252 59.5811 154.671 59.2529 155.849 61.2945C155.996 61.5488 156.199 61.9 155.835 62.1192C155.463 62.3244 152.281 63.7543 150.514 64.7833C148.813 65.7565 145.876 67.7772 145.423 68.1296C144.967 68.4652 144.825 68.0791 144.711 67.8875C143.5 65.7831 145.8 62.8082 148.524 61.1948ZM145.22 67.1552C145.116 67.1384 145.016 67.2059 144.997 67.3056C144.978 67.4055 145.047 67.5006 145.151 67.5177C145.255 67.5346 145.647 67.4676 145.658 67.4133C145.667 67.3586 145.324 67.1723 145.22 67.1552ZM152.336 62.6714C152.305 62.7246 152.58 63.0344 152.679 63.0879C152.778 63.1413 152.907 63.1072 152.966 63.0111C153.025 62.915 152.992 62.7935 152.893 62.7399C152.793 62.6863 152.368 62.6194 152.336 62.6714ZM146.951 65.618C146.861 65.692 146.847 65.8215 146.921 65.9073C146.995 65.9931 147.369 66.2015 147.418 66.1614C147.466 66.12 147.321 65.7258 147.247 65.6396C147.174 65.554 147.041 65.5443 146.951 65.618ZM150.494 63.7029C150.39 63.686 150.29 63.7533 150.271 63.8533C150.252 63.9532 150.321 64.0484 150.425 64.0654C150.53 64.0823 150.921 64.0145 150.932 63.9602C150.941 63.9055 150.599 63.7202 150.494 63.7029ZM149.119 64.3989C149.023 64.3398 148.902 64.3719 148.848 64.4707C148.795 64.57 148.727 64.9957 148.78 65.0278C148.832 65.0596 149.143 64.7849 149.197 64.6856C149.25 64.5863 149.215 64.458 149.119 64.3989ZM154.594 61.0876C154.494 61.0686 154.399 61.1374 154.382 61.2417C154.365 61.3458 154.432 61.737 154.487 61.7486C154.541 61.7581 154.728 61.4153 154.745 61.3109C154.762 61.2067 154.694 61.1068 154.594 61.0876ZM152.52 61.3425C152.466 61.3322 152.279 61.6757 152.262 61.7802C152.245 61.8845 152.312 61.9845 152.412 62.0035C152.512 62.0224 152.608 61.9536 152.625 61.8495C152.641 61.7454 152.574 61.3554 152.52 61.3425ZM145.283 65.5672C145.179 65.5504 145.079 65.6178 145.06 65.7175C145.041 65.8175 145.11 65.9126 145.214 65.9297C145.318 65.9466 145.71 65.8796 145.721 65.8253C145.73 65.7708 145.387 65.5843 145.283 65.5672ZM150.537 61.9928C150.435 62.0513 150.397 62.1776 150.453 62.2743C150.509 62.3709 150.833 62.636 150.889 62.6055C150.944 62.573 150.877 62.1587 150.821 62.0619C150.765 61.9654 150.638 61.9346 150.537 61.9928ZM146.572 64.4542C146.564 64.5092 146.905 64.694 147.009 64.7115C147.114 64.7284 147.214 64.6606 147.233 64.5606C147.252 64.4609 147.183 64.366 147.079 64.349C146.974 64.3322 146.583 64.4 146.572 64.4542ZM149.139 62.7207C149.078 62.723 148.924 63.1226 148.92 63.2361C148.917 63.3489 149.006 63.4382 149.119 63.4351C149.231 63.4318 149.326 63.3381 149.329 63.2255C149.332 63.1127 149.2 62.7197 149.139 62.7207ZM150.928 60.6265C150.838 60.7005 150.824 60.83 150.898 60.9158C150.972 61.0015 151.346 61.21 151.395 61.1699C151.444 61.1284 151.299 60.734 151.225 60.6481C151.151 60.5624 151.019 60.5528 150.928 60.6265ZM146.882 62.878C146.781 62.9366 146.744 63.0617 146.799 63.1582C146.855 63.2548 147.18 63.5217 147.236 63.4903C147.291 63.4579 147.222 63.0429 147.166 62.9463C147.11 62.85 146.983 62.8197 146.882 62.878ZM148.38 61.7381C148.276 61.7213 148.176 61.7886 148.157 61.8884C148.138 61.9885 148.207 62.0831 148.312 62.1001C148.416 62.1168 148.807 62.0504 148.818 61.9962C148.828 61.9418 148.484 61.7552 148.38 61.7381Z" fill="#E89700"/>
<path d="M184.705 35.6376C177.747 37.3976 170.655 33.1729 168.891 26.2143C167.131 19.2593 171.356 12.1641 178.315 10.4004C185.273 8.63677 192.365 12.8651 194.129 19.8201C195.889 26.7788 191.664 33.874 184.705 35.6376Z" fill="url(#paint0_linear_17_28626)"/>
<path d="M178.629 11.6512C172.36 13.2377 168.552 19.6282 170.143 25.8969C171.733 32.1656 178.12 35.9733 184.388 34.3831C190.657 32.7929 194.465 26.4061 192.875 20.1374C191.284 13.8686 184.898 10.0646 178.629 11.6512Z" fill="white"/>
<path d="M182.914 15.5985C181.667 15.9158 180.977 17.8565 180.906 20.6348C179.523 18.2218 177.992 16.8456 176.745 17.1592C174.557 17.7126 174.177 23.6862 175.903 30.4973L177.667 30.0508C176.066 23.7268 175.752 18.3473 176.97 18.041C178.187 17.7311 180.371 22.2177 181.851 28.0547L183.615 27.6083C182.131 21.7713 181.921 16.7865 183.135 16.4766C184.353 16.1667 186.636 21.0481 188.238 27.3721L189.998 26.9257C188.278 20.1146 185.102 15.0413 182.914 15.5985Z" fill="#FFBC0D"/>
<path d="M222.235 46.9199C220.627 43.6398 218.439 40.8799 216.07 39.1495C213.812 37.4965 211.624 36.9579 209.831 37.5777C209.654 37.6146 209.476 37.6589 209.31 37.729C208.893 37.9024 207.395 38.5776 207.012 38.7658C203.392 40.5405 203.204 47.5693 206.584 54.4652C209.967 61.3612 215.642 65.5157 219.258 63.741C219.748 63.5012 220.892 63.0511 221.468 62.7633C221.501 62.7485 221.538 62.7411 221.571 62.7227C223.445 61.8039 224.523 59.6123 224.604 56.5536C224.685 53.6203 223.844 50.1963 222.235 46.9199Z" fill="url(#paint1_linear_17_28626)"/>
<path d="M221.239 62.0395C219.716 62.7885 217.675 62.3199 215.495 60.726C213.207 59.0546 211.082 56.3648 209.51 53.1585C207.938 49.9522 207.112 46.6279 207.193 43.7942C207.267 41.0934 208.149 39.1932 209.672 38.4479C211.196 37.6989 213.237 38.1675 215.417 39.7614C217.705 41.4328 219.83 44.1226 221.402 47.3289C222.918 50.4245 223.737 53.6271 223.726 56.3944C223.726 56.494 223.723 56.5936 223.723 56.6932C223.641 59.394 222.763 61.2905 221.239 62.0395Z" fill="white"/>
<path d="M213.98 42.5183C213.312 42.8467 213.549 44.8354 214.46 47.6838C212.766 45.2191 211.338 43.8134 210.671 44.1417C209.494 44.7173 211.313 50.8348 214.733 57.8045L215.678 57.3396C212.504 50.868 210.46 45.363 211.113 45.042C211.766 44.721 214.67 49.3072 217.6 55.2808L218.544 54.8159C215.615 48.8423 213.77 43.7396 214.423 43.4186C215.076 43.0976 218.179 48.086 221.352 54.5576L222.297 54.0927C218.88 47.123 215.157 41.9427 213.98 42.5183Z" fill="#FFBC0D"/>
<path d="M180.838 67.5752C180.524 67.1324 180.273 66.6638 179.919 66.2063C179.834 66.0956 179.742 65.9886 179.649 65.889C178.159 64.022 175.761 62.9963 172.838 63C169.802 63 166.555 64.1106 163.692 66.1251C157.77 70.2871 155.353 77.0908 158.264 81.3376C158.268 81.3449 158.272 81.3597 158.275 81.3671C158.681 81.9869 158.803 82.1567 159.235 82.7728C162.186 86.968 169.414 86.968 175.381 82.7691C181.347 78.5703 183.789 71.7703 180.838 67.5752Z" fill="url(#paint2_linear_17_28626)"/>
<path d="M164.174 66.8081C166.894 64.8931 169.971 63.8379 172.838 63.8379C174.668 63.8379 176.262 64.2696 177.513 65.0776C178.184 65.513 178.756 66.0554 179.21 66.7011C180.509 68.5496 180.704 71.0216 179.756 73.6671C178.789 76.3642 176.756 78.9027 174.037 80.8177C168.466 84.7398 161.721 84.7877 159.002 80.9247C156.282 77.0616 158.603 70.7302 164.174 66.8081Z" fill="white"/>
<path d="M173.13 68.3495C173.702 69.1317 169.731 72.5446 164.367 76.0387L165.142 77.1345C170.528 73.6552 175.439 71.5189 176 72.2937C176.557 73.0685 172.133 76.6549 166.241 80.3888L166.994 81.4735C173.377 77.474 177.852 73.1829 176.845 71.7882C176.266 70.9913 174.174 71.2421 171.399 72.2974C173.499 70.3124 174.546 68.6336 173.96 67.8329C172.919 66.4198 166.975 68.5598 160.832 72.7143L161.622 73.8212C167.348 69.9803 172.558 67.5673 173.13 68.3495Z" fill="#FFBC0D"/>
<path fill-rule="evenodd" clip-rule="evenodd" d="M222.375 56.798C222.544 56.431 222.897 56.1816 223.3 56.1444L232.985 55.249C233.383 55.2121 233.77 55.3882 234.003 55.7118L239.65 63.5789C239.885 63.9062 239.926 64.3346 239.757 64.7016L238.048 68.41C241.265 69.3217 244.243 68.7145 245.081 67.0096L244.296 66.5459C244.209 66.4909 243.454 65.981 243.945 65.1513L248.913 56.7491C248.968 56.6621 249.478 55.9072 250.308 56.3978L258.706 61.3633C258.766 61.4009 259.562 61.9143 259.061 62.7606L254.096 71.1583C254.058 71.2191 253.545 72.0146 252.699 71.5142L245.782 67.4241C244.554 69.5408 241.199 70.1707 237.732 69.0954L235.726 73.4485C235.557 73.8155 235.204 74.0649 234.801 74.1022L229.201 74.6199L229.548 77.6116L225.679 80.2266L226.216 84.8444L222.347 87.4594L222.883 92.0773L216.014 94.9776L213.055 89.3925L221.542 70.9733L218.451 66.6676C218.216 66.3403 218.175 65.9119 218.344 65.5449L222.375 56.798ZM232.665 61.9913C232.433 62.4934 232.015 62.8516 231.528 63.0223C231.398 62.439 231.43 61.8714 231.647 61.352C231.821 60.8918 232.142 60.5035 232.577 60.1942L232.569 60.1799C232.885 60.7138 232.943 61.3865 232.665 61.9913ZM231.685 59.3893C231.821 59.4511 231.946 59.5262 232.061 59.6123L232.01 59.6496C231.469 60.0588 231.053 60.5802 230.805 61.2095C230.563 61.8113 230.527 62.4618 230.668 63.1249C230.457 63.1036 230.246 63.048 230.042 62.9553C229.047 62.5029 228.608 61.338 229.062 60.3533C229.516 59.3685 230.69 58.937 231.685 59.3893ZM246.407 66.197C246.337 66.2467 246.263 66.2855 246.186 66.314C246.282 65.7239 246.206 65.1021 245.982 64.4783C246.234 64.5121 246.472 64.6464 246.631 64.8702C246.936 65.2985 246.835 65.8926 246.407 66.197ZM245.332 66.216C245.402 65.7487 245.345 65.2556 245.175 64.7562C244.859 65.0789 244.809 65.5915 245.08 65.9727C245.15 66.0716 245.236 66.153 245.332 66.216ZM215.27 88.8442C215.164 89.0742 215.274 89.3507 215.517 89.4618C215.76 89.5728 216.044 89.4764 216.15 89.2464L223.646 73.0692C223.752 72.8392 223.641 72.5627 223.398 72.4517C223.155 72.3406 222.872 72.437 222.765 72.667L215.27 88.8442ZM240.196 59.4755C238.786 58.8887 237.358 58.5876 236.049 58.5577L236.629 59.365C237.677 59.4496 238.806 59.7066 239.937 60.1538C242.144 61.018 243.845 62.3815 244.716 63.7961L245.181 63.0096C244.141 61.5916 242.386 60.2891 240.196 59.4755Z" fill="#A0A09F"/>
<path fill-rule="evenodd" clip-rule="evenodd" d="M222.373 56.798C222.542 56.431 222.895 56.1816 223.298 56.1444L232.983 55.249C233.381 55.2121 233.769 55.3882 234.001 55.7118L239.649 63.5789C239.884 63.9062 239.924 64.3346 239.755 64.7016L235.725 73.4485C235.556 73.8155 235.203 74.0649 234.8 74.1022L229.199 74.6199L229.547 77.6116L225.678 80.2266L226.214 84.8444L222.345 87.4594L222.881 92.0773L216.012 94.9776L213.053 89.3925L221.54 70.9733L218.449 66.6676C218.214 66.3403 218.174 65.9119 218.343 65.5449L222.373 56.798ZM229.06 60.3533C228.607 61.338 229.045 62.5029 230.04 62.9553C231.035 63.4076 232.209 62.976 232.663 61.9913C233.117 61.0066 232.678 59.8416 231.683 59.3893C230.688 58.937 229.514 59.3685 229.06 60.3533ZM215.269 88.8442C215.162 89.0742 215.273 89.3507 215.516 89.4618C215.759 89.5728 216.042 89.4764 216.149 89.2464L223.644 73.0692C223.75 72.8392 223.64 72.5627 223.397 72.4517C223.154 72.3406 222.87 72.437 222.764 72.667L215.269 88.8442Z" fill="#FFBC0D"/>
<path fill-rule="evenodd" clip-rule="evenodd" d="M250.305 56.3984L258.703 61.3639C258.764 61.4015 259.559 61.9149 259.059 62.7612L254.093 71.1589C254.056 71.2197 253.542 72.0152 252.696 71.5148L244.294 66.5465C244.207 66.4915 243.452 65.9816 243.942 65.1519L248.911 56.7498C248.966 56.6627 249.475 55.9078 250.305 56.3984ZM245.077 65.9733C245.382 66.4017 245.976 66.5021 246.404 66.1976C246.833 65.8932 246.933 65.2991 246.629 64.8708C246.324 64.4425 245.73 64.3421 245.302 64.6465C244.873 64.951 244.773 65.545 245.077 65.9733Z" fill="#DB0007"/>
<path fill-rule="evenodd" clip-rule="evenodd" d="M249.384 60.7139C249.032 61.3095 249.511 62.3101 250.547 63.3913C249.101 63.005 247.993 63.0671 247.641 63.6628C247.022 64.7096 249.16 67.12 252.417 69.0458L252.915 68.2032C249.891 66.4149 247.718 64.4934 248.062 63.9119C248.406 63.3303 250.948 64.197 253.74 65.8477L254.238 65.0053C251.446 63.3545 249.462 61.5446 249.805 60.963C250.149 60.3813 252.88 61.3594 255.905 63.1478L256.403 62.3054C253.146 60.3795 250.003 59.6669 249.384 60.7139Z" fill="#FFBC0D"/>
<path d="M232.07 59.6049C232.28 59.7684 232.451 59.9696 232.577 60.1939C232.141 60.5032 231.821 60.8915 231.647 61.3516C230.744 63.5158 233.049 66.514 236.875 68.0121C240.636 69.4998 244.383 68.8824 245.165 66.8141C245.433 66.1712 245.418 65.4548 245.165 64.7259C245.202 64.6875 245.244 64.6521 245.289 64.6198C245.495 64.4732 245.74 64.4205 245.972 64.4531C246.289 65.3169 246.32 66.1775 246.007 66.9565C244.926 69.6927 240.699 70.3895 236.616 68.6904C232.393 67.1217 229.79 63.7362 230.804 61.2092C231.053 60.5799 231.468 60.0584 232.01 59.6492L232.07 59.6049Z" fill="#A0A09F"/>
<path d="M236.051 58.5566C237.36 58.5866 238.787 58.8876 240.197 59.4744C242.387 60.2881 244.142 61.5906 245.182 63.0085L244.718 63.7951C243.846 62.3805 242.145 61.017 239.938 60.1527C238.808 59.7055 237.678 59.4485 236.631 59.364L236.051 58.5566Z" fill="#A0A09F"/>
<path d="M238.027 104L236.027 206C236.027 208.761 214.537 211 188.027 211C161.518 211 140.027 208.761 140.027 206L138.027 104H238.027Z" fill="#EAEAEA"/>
<path d="M188.027 78C218.403 78 243.027 80.2386 243.027 83L242.027 103C242.027 105.209 217.851 107 188.027 107C158.204 107 134.027 105.209 134.027 103L133.027 83C133.027 80.2386 157.652 78 188.027 78Z" fill="#F1F1F1"/>
<path d="M242 103C242 105.209 217.823 107 188 107C158.177 107 134 105.209 134 103C134 100.791 158.177 99 188 99C217.823 99 242 100.791 242 103Z" fill="#D8D8D8"/>
<path d="M140.027 206L138.027 104C146.084 102.541 165.406 101.5 187.998 101.5C210.59 101.5 229.971 102.541 238.027 104L238.027 107.514C238.027 107.514 186.998 105.5 163.527 133.5C140.057 161.5 146.027 208.5 146.027 208.5C140.027 207.5 140.027 206 140.027 206Z" fill="#D8D8D8"/>
<g style="mix-blend-mode:multiply">
<rect x="158.027" y="114" width="10" height="82" rx="5" fill="#F1F1F1"/>
</g>
<g style="mix-blend-mode:multiply">
<rect x="208.027" y="114" width="10" height="82" rx="5" fill="#F1F1F1"/>
</g>
<g style="mix-blend-mode:multiply">
<rect x="183.027" y="112" width="10" height="86" rx="5" fill="#F1F1F1"/>
</g>
<defs>
<linearGradient id="paint0_linear_17_28626" x1="194.528" y1="23.0184" x2="168.492" y2="23.0184" gradientUnits="userSpaceOnUse">
<stop offset="0.000616698" stop-color="#910063"/>
<stop offset="0.0362" stop-color="#990059"/>
<stop offset="0.1727" stop-color="#B60035"/>
<stop offset="0.3012" stop-color="#CA001C"/>
<stop offset="0.4172" stop-color="#D7000C"/>
<stop offset="0.5101" stop-color="#DB0007"/>
<stop offset="1" stop-color="#E8720A"/>
</linearGradient>
<linearGradient id="paint1_linear_17_28626" x1="224.609" y1="50.7395" x2="204.168" y2="50.7395" gradientUnits="userSpaceOnUse">
<stop offset="0.000616698" stop-color="#910063"/>
<stop offset="0.0362" stop-color="#990059"/>
<stop offset="0.1727" stop-color="#B60035"/>
<stop offset="0.3012" stop-color="#CA001C"/>
<stop offset="0.4172" stop-color="#D7000C"/>
<stop offset="0.5101" stop-color="#DB0007"/>
<stop offset="1" stop-color="#E8720A"/>
</linearGradient>
<linearGradient id="paint2_linear_17_28626" x1="157.031" y1="74.4593" x2="182.089" y2="74.4593" gradientUnits="userSpaceOnUse">
<stop offset="0.000616698" stop-color="#910063"/>
<stop offset="0.0362" stop-color="#990059"/>
<stop offset="0.1727" stop-color="#B60035"/>
<stop offset="0.3012" stop-color="#CA001C"/>
<stop offset="0.4172" stop-color="#D7000C"/>
<stop offset="0.5101" stop-color="#DB0007"/>
<stop offset="1" stop-color="#E8720A"/>
</linearGradient>
</defs>
</svg>
