<svg width="375" height="225" viewBox="0 0 375 225" fill="none" xmlns="http://www.w3.org/2000/svg">
<path d="M259.375 40.6145L259.656 40.5463C262.556 39.9247 265.466 41.6819 266.242 44.5796L293.88 147.726C294.682 150.717 292.907 153.792 289.915 154.594L120.12 200.09C117.129 200.892 114.054 199.116 113.252 196.125L85.6142 92.9787C84.8127 89.9875 86.588 86.9126 89.5792 86.1111L259.375 40.6145Z" fill="#FFBC0D" stroke="white" stroke-width="3"/>
<path fill-rule="evenodd" clip-rule="evenodd" d="M113.561 128.009L137.364 121.631C139.555 121.044 141.807 122.344 142.394 124.535L145.583 136.437C146.17 138.628 144.87 140.88 142.679 141.467L118.876 147.845C116.685 148.432 114.433 147.132 113.846 144.941L110.657 133.039C110.07 130.848 111.37 128.596 113.561 128.009Z" fill="white"/>
<path fill-rule="evenodd" clip-rule="evenodd" d="M120.747 164.352L172.321 150.533C173.197 150.298 174.098 150.818 174.333 151.695L175.183 154.868C175.418 155.745 174.898 156.646 174.021 156.881L122.448 170.7C121.571 170.934 120.671 170.414 120.436 169.538L119.585 166.364C119.351 165.488 119.871 164.587 120.747 164.352Z" fill="white"/>
<path fill-rule="evenodd" clip-rule="evenodd" d="M123.938 176.254L212.01 152.656C212.887 152.421 213.787 152.941 214.022 153.817L214.873 156.991C215.107 157.868 214.587 158.768 213.711 159.003L125.639 182.602C124.763 182.837 123.862 182.317 123.627 181.44L122.777 178.267C122.542 177.39 123.062 176.489 123.938 176.254Z" fill="white"/>
<circle cx="261.875" cy="41.8359" r="36.5" fill="#DB0007" stroke="white" stroke-width="3"/>
<path fill-rule="evenodd" clip-rule="evenodd" d="M273.598 56.3602L248.762 31.5244C247.981 30.7434 247.981 29.477 248.762 28.696L250.147 27.3105L274.983 52.1463C275.764 52.9274 275.764 54.1937 274.983 54.9748L273.598 56.3602Z" fill="white"/>
<path fill-rule="evenodd" clip-rule="evenodd" d="M276.397 30.1113L251.562 54.9471C250.78 55.7282 249.514 55.7282 248.733 54.9471L247.348 53.5617L272.183 28.7259C272.964 27.9448 274.231 27.9448 275.012 28.7259L276.397 30.1113Z" fill="white"/>
<line x1="75.3925" y1="143.302" x2="37.7214" y2="153.396" stroke="#D8D8D8" stroke-width="3" stroke-linecap="round"/>
<line x1="88.9315" y1="155.202" x2="51.2604" y2="165.296" stroke="#D8D8D8" stroke-width="3" stroke-linecap="round"/>
<line x1="76.3964" y1="174.091" x2="38.7253" y2="184.185" stroke="#D8D8D8" stroke-width="3" stroke-linecap="round"/>
</svg>
