<svg width="327" height="252" viewBox="0 0 327 252" fill="none" xmlns="http://www.w3.org/2000/svg">
<ellipse cx="163.561" cy="215.453" rx="134.561" ry="12.5468" fill="#A0A09F" fill-opacity="0.15"/>
<path fill-rule="evenodd" clip-rule="evenodd" d="M164.79 132C167.022 132 169.259 132.002 171.499 132.006L171.5 214.401C170.267 216.134 168.267 217 165.5 217C162.733 217 160.733 216.134 159.5 214.401L159.5 132.005L164.79 132Z" fill="#6F6F6F"/>
<path fill-rule="evenodd" clip-rule="evenodd" d="M77.9848 107H254.015C255.94 107 257.5 108.56 257.5 110.485V126.515C257.5 128.376 256.042 129.896 254.206 129.995L253.944 129.999C223.679 129.38 194.031 129.07 165 129.07C136.02 129.07 107.039 129.379 78.059 129.996C76.1348 130.037 74.5418 128.51 74.5008 126.586L74.5 110.485C74.5 108.56 76.0602 107 77.9848 107Z" fill="#FFBC0D"/>
<path d="M48.9627 156.003L62.692 158.671L49.0519 213.127C48.5141 215.274 46.3903 216.626 44.2173 216.203C42.1799 215.807 40.7505 213.977 40.9055 211.907C41.2489 207.322 42.0094 198.705 43.494 188.059C45.7288 172.031 48.9627 156.003 48.9627 156.003Z" fill="#6F6F6F"/>
<path opacity="0.3" d="M60.104 169L58.1 177L45.5003 177L45.5 174.88C45.8235 172.92 46.1582 170.961 46.5041 169.001L60.104 169Z" fill="#292929"/>
<path d="M98.2348 156.001L84.4994 158.671L98.1333 213.097C98.6754 215.261 100.816 216.623 103.006 216.197C105.035 215.803 106.466 213.995 106.322 211.933C106.028 207.701 105.349 199.861 103.86 189.182C101.547 172.592 98.2348 156.001 98.2348 156.001Z" fill="#6F6F6F"/>
<path opacity="0.3" d="M100.644 169C101.116 171.667 101.568 174.333 102 177L89.012 176.999L87 169L100.644 169Z" fill="#292929"/>
<path d="M54.1415 152.66C54.1415 152.66 63.4688 151.659 79.4792 151.659C86.1638 151.659 92.8484 151.833 98.3678 152.037C105.755 152.309 111.5 158.419 111.5 165.812V169H41.4826C40.4625 169 39.6058 168.232 39.4945 167.218L31.1898 91.5789C30.3475 83.9074 35.8725 77.001 43.5418 76.1387L44.7168 76.0065C45.2667 75.9447 45.7622 76.3411 45.8226 76.8911L54.1415 152.66Z" fill="#292929"/>
<path d="M284.262 156L271.753 158.431C271.753 158.431 272.468 165.337 276.676 182.481C279.784 195.143 283.427 207.808 285.119 213.563C285.657 215.392 287.495 216.495 289.366 216.131C291.311 215.753 292.617 213.914 292.334 211.953L288.062 182.338L284.262 156Z" fill="#6F6F6F"/>
<path opacity="0.3" d="M286.324 169.001L287.5 177L275.313 177C274.61 174.048 274.005 171.381 273.5 169L286.324 169.001Z" fill="#292929"/>
<path d="M231.949 156L245.692 158.671C245.692 158.671 244.726 166.517 240.514 183.33C237.47 195.481 233.903 207.633 232.159 213.437C231.556 215.443 229.532 216.653 227.475 216.253C225.333 215.837 223.891 213.817 224.192 211.656L231.949 156Z" fill="#6F6F6F"/>
<path opacity="0.3" d="M241.806 176.999L229.5 177L230.55 169.001L243.5 169C243.023 171.41 242.458 174.076 241.806 176.999Z" fill="#292929"/>
<path d="M277.858 152.836C277.858 152.836 267.782 151.845 252.021 151.845C245.523 151.845 239.024 152.014 233.63 152.212C226.244 152.483 220.5 158.593 220.5 165.984V169H290.52C291.539 169 292.395 168.234 292.507 167.221L300.79 92.5918C301.643 84.9083 296.107 77.9879 288.423 77.1333L287.281 77.0062C286.732 76.9452 286.237 77.3408 286.177 77.8898L277.858 152.836Z" fill="#292929"/>
<circle cx="163.062" cy="53" r="45" fill="#FFBC0D"/>
<path d="M171.931 64.0005V63.2965C171.931 61.5045 172.326 59.9579 173.115 58.6565C173.926 57.3339 175.206 56.0432 176.955 54.7845L179.547 52.9285C180.465 52.2672 181.115 51.6592 181.499 51.1045C181.883 50.5285 182.075 49.8672 182.075 49.1205C182.075 48.2459 181.883 47.5739 181.499 47.1045C181.115 46.6352 180.561 46.4005 179.835 46.4005C179.025 46.4005 178.406 46.7205 177.979 47.3605C177.553 47.9792 177.286 48.9499 177.179 50.2725H171.867C171.995 47.8405 172.806 45.9525 174.299 44.6085C175.793 43.2432 177.755 42.5605 180.187 42.5605C181.702 42.5605 183.025 42.8272 184.155 43.3605C185.286 43.8725 186.161 44.6085 186.779 45.5685C187.419 46.5072 187.739 47.6165 187.739 48.8965C187.739 50.2192 187.419 51.4032 186.779 52.4485C186.161 53.4939 185.158 54.5072 183.771 55.4885L180.827 57.5685C180.145 58.0592 179.611 58.4752 179.227 58.8165C178.865 59.1579 178.63 59.5099 178.523 59.8725H187.835V64.0005H171.931Z" fill="#292929"/>
<path d="M157.703 50.4003V45.9843C158.876 45.7709 159.996 45.4403 161.063 44.9923C162.151 44.5443 163.132 43.9043 164.007 43.0723H168.199V64.0003H162.631V49.1523C161.82 49.4509 160.999 49.7069 160.167 49.9203C159.335 50.1336 158.514 50.2936 157.703 50.4003Z" fill="#292929"/>
<path d="M139.693 64.0003L140.557 59.0403H138.445V55.4243H141.165L141.901 51.1363H139.373V47.5203H142.541L143.309 43.0723H147.597L146.829 47.5203H150.381L151.149 43.0723H155.437L154.669 47.5203H156.781V51.1363H154.029L153.293 55.4243H155.853V59.0403H152.685L151.821 64.0003H147.533L148.397 59.0403H144.845L143.981 64.0003H139.693ZM145.453 55.4243H149.005L149.741 51.1363H146.189L145.453 55.4243Z" fill="#292929"/>
</svg>
