<svg width="375" height="225" viewBox="0 0 375 225" fill="none" xmlns="http://www.w3.org/2000/svg">
<g clip-path="url(#clip0_102_69570)">
<path d="M184.5 4C262.096 4 325 66.904 325 144.5C325 163.443 321.249 181.51 314.453 198H54.5469C47.7506 181.51 44 163.443 44 144.5C44 66.904 106.904 4 184.5 4Z" fill="#DCEDF4"/>
<ellipse cx="184" cy="203" rx="153" ry="14" fill="#A0A09F" fill-opacity="0.15"/>
<path d="M316 97V124H264L264.005 97H316Z" fill="#FFBC0D"/>
<path d="M190.926 120H77V97H191L190.926 120Z" fill="#FFBC0D"/>
<path d="M191 99L190.97 108H77V99H191Z" fill="black" fill-opacity="0.1"/>
<path d="M316 99V108H264L264.002 99H316Z" fill="black" fill-opacity="0.1"/>
<path d="M264 124H287V203H264V124Z" fill="#F9F9F9"/>
<path d="M288 124H316V203H288V124Z" fill="#F9F9F9"/>
<path d="M191 89L190.967 98.999L73.8004 99C72.8061 99 72 98.1942 72 97.2002V90.8008C72 89.8068 72.8061 89.001 73.8004 89.001L191 89Z" fill="#FFBC0D"/>
<path d="M318.212 89.001C319.2 89.001 320 89.8068 320 90.8008V97.2002C320 98.1942 319.2 99 318.212 99L264 98.999L264.002 89L318.212 89.001Z" fill="#FFBC0D"/>
<path d="M260.5 74.5234L260.473 202.998H194.569L194.5 74.5234L260.5 74.5234Z" fill="#F1F1F1"/>
<path d="M59.8 124H244.443C245.437 124 246.243 124.806 246.243 125.8V140H58V125.8C58 124.806 58.8059 124 59.8 124Z" fill="#606060"/>
<path d="M195 140H246V203H195V140Z" fill="#D8D8D8"/>
<path d="M109 140H137V203H109V140Z" fill="#F9F9F9"/>
<path d="M138 140H166V203H138V140Z" fill="#F9F9F9"/>
<path d="M167 140H195V203H167V140Z" fill="#F9F9F9"/>
<path d="M218 154H246V203H218V154Z" fill="#F9F9F9"/>
<path d="M58 198H109V204H58V198Z" fill="#A5835B"/>
<path d="M58 192H109V198H58V192Z" fill="#C2945C"/>
<path d="M58 187H109V193H58V187Z" fill="#A5835B"/>
<path d="M58 182H109V188H58V182Z" fill="#C2945C"/>
<path d="M58 177H109V183H58V177Z" fill="#A5835B"/>
<path d="M58 171H109V177H58V171Z" fill="#C2945C"/>
<path d="M58 166H109V172H58V166Z" fill="#A5835B"/>
<path d="M58 161H109V167H58V161Z" fill="#C2945C"/>
<path d="M58 156H109V162H58V156Z" fill="#A5835B"/>
<path d="M58 150H109V156H58V150Z" fill="#C2945C"/>
<path d="M58 145H109V151H58V145Z" fill="#A5835B"/>
<path d="M58 140H109V146H58V140Z" fill="#C2945C"/>
<path d="M136 140H140V203H136V140Z" fill="#D8D8D8"/>
<path d="M286 124H290V203H286V124Z" fill="#D8D8D8"/>
<path d="M312 124H316V203H312V124Z" fill="#D8D8D8"/>
<path d="M165 140H169V203H165V140Z" fill="#D8D8D8"/>
<path d="M218 154H246V160H218V154Z" fill="#A0A09F" fill-opacity="0.15"/>
<path d="M195 140H246V143H195V140Z" fill="#292929" fill-opacity="0.1"/>
<path d="M165 140H169V146H165V140Z" fill="#292929" fill-opacity="0.1"/>
<path d="M136 140H140V146H136V140Z" fill="#292929" fill-opacity="0.1"/>
<path d="M109 140H136V145H109V140Z" fill="#A0A09F" fill-opacity="0.15"/>
<path d="M140 140H165V145H140V140Z" fill="#A0A09F" fill-opacity="0.15"/>
<path d="M169 140H195V145H169V140Z" fill="#A0A09F" fill-opacity="0.15"/>
<path fill-rule="evenodd" clip-rule="evenodd" d="M236.023 86.7959C239.143 86.7959 241.672 99.9528 241.672 116.182H246.195C246.195 98.703 241.64 84.5352 236.023 84.5352C232.826 84.5352 229.975 88.7942 228.111 95.4522C226.247 88.7942 223.396 84.5352 220.2 84.5352C214.584 84.5352 210.027 98.703 210.027 116.182H214.55C214.55 99.9528 217.08 86.7959 220.2 86.7959C223.32 86.7959 225.85 98.9404 225.85 113.921H230.372C230.372 98.9404 232.902 86.7959 236.023 86.7959Z" fill="#FFBC0D"/>
<rect x="63" y="33" width="6" height="170" fill="#F9F9F9"/>
<rect x="66" y="33" width="3" height="170" fill="#F1F1F1"/>
<path d="M66 26C68.2091 26 70 27.7909 70 30C70 31.195 69.4754 32.267 68.6445 33H63.3555C62.5246 32.267 62 31.195 62 30C62 27.7909 63.7909 26 66 26Z" fill="#FFBC0D"/>
<path opacity="0.5" d="M66 26C67.3598 26 68.5605 26.6789 69.2832 27.7158C68.6357 27.2648 67.8489 27 67 27C64.7909 27 63 28.7909 63 31C63 31.8496 63.2659 32.6366 63.7178 33.2842C62.6799 32.5616 62 31.3605 62 30C62 27.7909 63.7909 26 66 26Z" fill="#F9F9F9"/>
<g clip-path="url(#clip1_102_69570)">
<path d="M69 33H124.323V69.882H69V33Z" fill="#D80027"/>
<path d="M83.8828 33H124.539V45.294H83.8828V33Z" fill="white"/>
<path d="M83.8828 57.8047H124.539V70.0987H83.8828V57.8047Z" fill="#4A7C3A"/>
<path fill-rule="evenodd" clip-rule="evenodd" d="M72.9219 37.1244C72.9218 37.1244 72.9218 37.1243 73.3484 36.7946C73.7751 36.4648 73.7751 36.4648 73.7751 36.4648L73.786 36.4789C73.7934 36.4885 73.8045 36.5028 73.8191 36.5215C73.8483 36.5591 73.8916 36.6144 73.9472 36.6852C74.0585 36.8269 74.2194 37.0304 74.4172 37.2769C74.813 37.7702 75.3554 38.4344 75.9429 39.1194C76.5314 39.8057 77.16 40.5069 77.7291 41.077C78.3184 41.6673 78.7847 42.0552 79.0579 42.1848C79.7762 42.5256 80.2004 42.6633 80.4283 42.7178C80.5413 42.7448 80.5998 42.7498 80.6174 42.7507C80.6211 42.7508 80.6226 42.7508 80.6222 42.7508C80.6217 42.7508 80.6179 42.7509 80.6111 42.7514C80.605 42.7519 80.5965 42.7527 80.5858 42.7543C80.5805 42.7551 80.5746 42.7561 80.5682 42.7574C80.5649 42.758 80.5616 42.7587 80.5582 42.7594L80.5529 42.7605L80.5502 42.7612L80.5488 42.7615C80.5481 42.7616 80.5474 42.7618 80.6709 43.2867C80.7944 43.8116 80.7937 43.8117 80.793 43.8119L80.7916 43.8122L80.7888 43.8128L80.7831 43.8141C80.7793 43.8149 80.7754 43.8157 80.7715 43.8164C80.7636 43.818 80.7555 43.8194 80.7471 43.8206C80.7303 43.8232 80.7125 43.8252 80.6935 43.8266C80.6556 43.8296 80.6127 43.8302 80.5637 43.8277C80.4664 43.8229 80.3409 43.8057 80.1775 43.7666C79.8527 43.689 79.3549 43.5193 78.5957 43.1591C78.1302 42.9383 77.5423 42.4163 76.9659 41.8389C76.3693 41.2412 75.7207 40.5169 75.1243 39.8214C74.5268 39.1247 73.9766 38.451 73.5761 37.9518C73.3757 37.7021 73.2125 37.4957 73.0992 37.3515C73.0426 37.2794 72.9984 37.2229 72.9683 37.1842C72.9533 37.1649 72.9417 37.1501 72.9339 37.14L72.9219 37.1244Z" fill="white"/>
<path fill-rule="evenodd" clip-rule="evenodd" d="M72.7324 43.2873L72.7796 43.8244L72.3672 42.8905L74.8769 40.5804H74.5765V39.502H76.0484L76.0863 39.4672V36.7952H77.1647V38.4745L79.4201 36.3984L80.2028 37.1364L79.7853 36.7952C80.2028 37.1364 80.2028 37.1363 80.2028 37.1364L80.157 37.1922C80.1273 37.2285 80.0836 37.2818 80.0276 37.3497C79.9157 37.4856 79.7549 37.6805 79.5586 37.9166C79.2033 38.3442 78.7314 38.9078 78.2242 39.502H78.6637V40.5804H77.292C76.974 40.943 76.6602 41.2942 76.3693 41.61C75.8565 42.1666 75.3763 42.6561 75.0667 42.8818C74.4916 43.3011 73.9311 43.5352 73.5118 43.6649C73.3019 43.7298 73.126 43.769 72.9994 43.7923C72.936 43.804 72.8848 43.8117 72.8476 43.8166C72.829 43.8191 72.8138 43.8209 72.8024 43.8221C72.7967 43.8227 72.792 43.8232 72.7881 43.8236L72.7831 43.8241L72.7812 43.8243L72.78 43.8244C72.7798 43.8244 72.7796 43.8244 72.7324 43.2873Z" fill="white"/>
</g>
<path d="M67.8158 205.5L68.7364 205.494C75.9374 205.404 81.6316 204.137 81.6316 196.816C81.6316 189.186 75.446 183 67.8158 183C60.1855 183 54 189.186 54 196.816C54 204.446 60.1855 205.5 67.8158 205.5Z" fill="#9CC93A"/>
<path d="M98.8158 205.5L99.7364 205.494C106.937 205.404 112.632 204.137 112.632 196.816C112.632 189.186 106.446 183 98.8158 183C91.1855 183 85 189.186 85 196.816C85 204.446 91.1855 205.5 98.8158 205.5Z" fill="#9CC93A"/>
<path d="M128.816 205.5L129.736 205.494C136.937 205.404 142.632 204.137 142.632 196.816C142.632 189.186 136.446 183 128.816 183C121.186 183 115 189.186 115 196.816C115 204.446 121.186 205.5 128.816 205.5Z" fill="#9CC93A"/>
<path d="M253.561 29.8555C255.088 29.8555 256.327 31.0943 256.327 32.6221C256.327 34.0685 255.217 35.2538 253.802 35.376C254.09 36.0127 254.252 36.7186 254.252 37.4629C254.252 40.2639 251.982 42.5342 249.181 42.5342H257.94C260.741 42.5342 263.013 44.8055 263.013 47.6064H269.929C272.729 47.6066 275 49.8769 275 52.6777C275 55.4786 272.73 57.7498 269.929 57.75H262.332C261.455 59.2653 259.817 60.2852 257.94 60.2852H215.523C213.647 60.2852 212.009 59.2653 211.132 57.75H206.071C203.27 57.7498 201 55.4786 201 52.6777C201 49.8769 203.271 47.6066 206.071 47.6064H210.452C210.452 44.8055 212.722 42.5342 215.523 42.5342H221.748C221.748 39.7334 224.018 37.4629 226.819 37.4629H235.349C235.349 34.6619 237.62 32.3916 240.421 32.3916H249.181C249.746 32.3916 250.288 32.4849 250.796 32.6553C250.796 32.6442 250.795 32.6332 250.795 32.6221C250.795 31.0943 252.033 29.8556 253.561 29.8555Z" fill="white"/>
<path d="M140.047 2C143.684 2 146.634 4.94858 146.634 8.58594C146.634 8.65081 146.631 8.71586 146.629 8.78027H148.184C150.537 8.78048 152.445 10.6884 152.445 13.042H155.738C158.092 13.042 160 14.95 160 17.3037C160 19.6574 158.092 21.5654 155.738 21.5654H153.229C152.493 22.8389 151.116 23.6963 149.539 23.6963H133.461C131.884 23.6963 130.507 22.8389 129.771 21.5654H127.262C124.908 21.5654 123 19.6574 123 17.3037C123 14.95 124.908 13.042 127.262 13.042H127.843C127.843 10.6883 129.751 8.78037 132.104 8.78027H133.466C133.464 8.71585 133.461 8.65081 133.461 8.58594C133.461 4.94867 136.41 2.00015 140.047 2Z" fill="white"/>
</g>
<defs>
<clipPath id="clip0_102_69570">
<rect width="375" height="225" fill="white"/>
</clipPath>
<clipPath id="clip1_102_69570">
<rect width="55.3231" height="36.882" fill="white" transform="translate(69 33)"/>
</clipPath>
</defs>
</svg>
