<svg width="375" height="225" viewBox="0 0 375 225" fill="none" xmlns="http://www.w3.org/2000/svg">
<path d="M158.407 99.6238L148.261 87.4034L150.938 71.747L140.791 59.5266L79.9006 75.8422L61.8611 80.6759C59.7273 81.2477 58.4609 83.441 59.0327 85.5749L86.8404 189.355C87.4122 191.488 89.6055 192.755 91.7394 192.183L170.67 171.034L173.347 155.377L163.2 143.157L165.877 127.501L155.73 115.28L158.407 99.6238Z" fill="#FFBC0D"/>
<path fill-rule="evenodd" clip-rule="evenodd" d="M85.2676 121.355L109.162 114.952C111.361 114.363 113.622 115.668 114.211 117.868L117.413 129.815C118.002 132.014 116.697 134.275 114.497 134.864L90.603 141.267C88.4035 141.856 86.1428 140.551 85.5535 138.351L82.3522 126.404C81.7629 124.205 83.0681 121.944 85.2676 121.355Z" fill="white"/>
<path fill-rule="evenodd" clip-rule="evenodd" d="M92.4836 157.837L144.255 143.965C145.135 143.729 146.039 144.251 146.275 145.131L147.128 148.317C147.364 149.197 146.842 150.101 145.962 150.337L94.1909 164.209C93.3111 164.444 92.4069 163.922 92.1711 163.043L91.3175 159.857C91.0817 158.977 91.6038 158.073 92.4836 157.837Z" fill="white"/>
<path d="M173.348 155.377L173.271 155.824L97.3904 176.156C96.5106 176.392 95.606 175.869 95.3703 174.99L94.5167 171.804C94.281 170.924 94.8033 170.02 95.6831 169.784L168.999 150.139L173.348 155.377Z" fill="white"/>
<path d="M92.1275 193.632C89.1935 194.418 86.1776 192.677 85.3914 189.743L57.5838 85.9631C56.7976 83.0291 58.5388 80.0132 61.4729 79.227L141.332 57.829L141.945 58.5684L152.091 70.7884L152.533 71.3192L152.416 71.9996L149.856 86.9752L159.561 98.6654L160.003 99.1962L159.886 99.8766L157.326 114.852L167.031 126.542L167.472 127.073L167.355 127.754L164.795 142.729L174.5 154.419L174.942 154.95L174.825 155.63L172.148 171.286L171.986 172.234L92.1275 193.632Z" stroke="white" stroke-width="3"/>
<path d="M210.445 67.8768L213.082 83.5225L202.975 95.7536L205.612 111.399L195.505 123.63L198.142 139.276L188.036 151.507L279.233 175.943C281.432 176.533 283.693 175.227 284.282 173.028L312.026 69.4856C312.616 67.2862 311.31 65.0255 309.111 64.4361L217.914 40L220.551 55.6457L210.445 67.8768Z" fill="#FFBC0D"/>
<path d="M212.088 136.61C212.968 136.846 213.49 137.75 213.255 138.63L212.401 141.816C212.165 142.695 211.261 143.218 210.381 142.982L197.853 139.625L198.142 139.276L197.012 132.57L212.088 136.61Z" fill="white"/>
<path d="M309.499 62.9873C312.499 63.791 314.279 66.8745 313.475 69.8741L285.731 173.416C284.928 176.415 281.844 178.196 278.845 177.392L185.392 152.351L186.879 150.552L196.55 138.848L194.026 123.88L193.912 123.203L194.349 122.675L204.018 110.972L201.496 96.0026L201.382 95.327L201.819 94.7981L211.488 83.0954L208.965 68.1257L208.851 67.4501L209.288 66.9211L218.958 55.2185L216.435 40.2497L216.047 37.9468L309.499 62.9873Z" stroke="white" stroke-width="3"/>
<path d="M174.99 46.9331H168.117C168.375 42.0939 170.022 38.2328 173.059 35.3498C176.148 32.4669 180.267 31.0254 185.415 31.0254C188.607 31.0254 191.412 31.5917 193.832 32.7243C196.252 33.8054 198.131 35.3498 199.469 37.3576C200.859 39.3139 201.554 41.6305 201.554 44.3076C201.554 47.0361 200.988 49.3785 199.855 51.3348C198.774 53.291 197.075 55.1701 194.759 56.9719L190.125 60.6014C188.53 61.8884 187.474 63.0982 186.959 64.2308C186.445 65.3119 186.187 66.7019 186.187 68.4008V70.0224H179.778V67.783C179.778 65.4664 180.19 63.5358 181.013 61.9914C181.888 60.3955 183.381 58.7481 185.492 57.0492L190.048 53.3425C191.541 52.107 192.622 50.7942 193.292 49.4042C194.012 48.0142 194.373 46.3668 194.373 44.462C194.373 42.0939 193.549 40.1633 191.902 38.6704C190.254 37.1259 188.04 36.3537 185.26 36.3537C182.275 36.3537 179.881 37.2546 178.079 39.0565C176.277 40.8583 175.247 43.4839 174.99 46.9331ZM183.021 84.7718C181.683 84.7718 180.576 84.3342 179.7 83.4591C178.825 82.5839 178.388 81.5028 178.388 80.2157C178.388 78.9287 178.825 77.8476 179.7 76.9724C180.576 76.0972 181.683 75.6596 183.021 75.6596C184.308 75.6596 185.389 76.0972 186.264 76.9724C187.14 77.8476 187.577 78.9287 187.577 80.2157C187.577 81.5028 187.14 82.5839 186.264 83.4591C185.389 84.3342 184.308 84.7718 183.021 84.7718Z" fill="#DB0007"/>
<path d="M183.021 74.1592C184.688 74.1593 186.157 74.7435 187.325 75.9121C188.494 77.0808 189.077 78.5488 189.077 80.2158C189.077 81.8829 188.494 83.3508 187.325 84.5195C186.157 85.6882 184.688 86.2714 183.021 86.2715C181.321 86.2715 179.82 85.7003 178.64 84.5195C177.471 83.3508 176.888 81.8829 176.888 80.2158C176.888 78.5488 177.471 77.0808 178.64 75.9121C179.82 74.7313 181.321 74.1592 183.021 74.1592ZM185.415 29.5254C188.774 29.5254 191.796 30.121 194.443 31.3555L194.444 31.3545C197.096 32.5394 199.207 34.2592 200.718 36.5254H200.717C202.29 38.7566 203.055 41.3726 203.055 44.3076C203.055 47.234 202.446 49.8375 201.167 52.0596L201.168 52.0605C199.963 54.2408 198.109 56.2669 195.68 58.1562L195.679 58.1553L191.051 61.7822C189.543 63.0005 188.699 64.0299 188.325 64.8516L188.319 64.8633L188.313 64.876C187.926 65.6894 187.688 66.8379 187.688 68.4004V71.5225H178.277V67.7832C178.277 65.297 178.718 63.1057 179.689 61.2852L179.693 61.2773L179.698 61.2705C180.702 59.4397 182.356 57.6483 184.552 55.8809L189.092 52.1865C190.459 51.0547 191.386 49.9058 191.94 48.7539L191.949 48.7334L191.96 48.7139C192.549 47.5786 192.873 46.1778 192.873 44.4619C192.873 42.4863 192.206 40.9706 190.895 39.7822L190.885 39.7734L190.876 39.7646C189.568 38.538 187.752 37.8536 185.261 37.8535C182.599 37.8535 180.612 38.6448 179.14 40.1172C177.67 41.5867 176.726 43.8253 176.485 47.0449L176.382 48.4326H166.535L166.619 46.8535C166.893 41.6958 168.667 37.4503 172.026 34.2617L172.036 34.2529C175.461 31.0568 179.975 29.5254 185.415 29.5254Z" stroke="white" stroke-width="3"/>
</svg>
