<svg width="375" height="225" viewBox="0 0 375 225" fill="none" xmlns="http://www.w3.org/2000/svg">
<path d="M284.847 190.131C284.847 195.304 241.065 199.498 187.057 199.498C133.048 199.498 89.2656 195.304 89.2656 190.131C89.2656 184.957 133.048 180.764 187.057 180.764C241.065 180.764 284.847 184.957 284.847 190.131Z" fill="#A0A09F" fill-opacity="0.15"/>
<path fill-rule="evenodd" clip-rule="evenodd" d="M139.168 42.6016V92.4099C139.168 93.7859 140.295 94.9004 141.683 94.9004H176.896C178.284 94.9004 179.411 93.7859 179.411 92.4099V42.6016L175.387 45.0708L171.362 42.6016L167.338 45.0708L163.314 42.6016L159.29 45.0708L155.265 42.6016L151.241 45.0708L147.217 42.6016L143.192 45.0708L139.168 42.6016Z" fill="#C2945C"/>
<path fill-rule="evenodd" clip-rule="evenodd" d="M139.168 42.6016V92.4099C139.168 93.7859 140.295 94.9004 141.683 94.9004H176.896C178.284 94.9004 179.411 93.7859 179.411 92.4099V42.6016L175.387 45.0708L171.362 42.6016L167.338 45.0708L163.314 42.6016L159.29 45.0708L155.265 42.6016L151.241 45.0708L147.217 42.6016L143.192 45.0708L139.168 42.6016Z" fill="#C2945C"/>
<path fill-rule="evenodd" clip-rule="evenodd" d="M179.411 84.752L179.412 92.4091C179.412 93.785 178.285 94.8995 176.896 94.8995H141.684C140.295 94.8995 139.169 93.785 139.169 92.4091L139.168 84.752H179.411Z" fill="#DB0007"/>
<path fill-rule="evenodd" clip-rule="evenodd" d="M174.338 56.8359C176.16 56.8359 177.883 58.0819 179.414 60.2996L179.414 71.5866C178.248 64.0858 176.408 59.2452 174.338 59.2452C170.817 59.2452 167.957 72.1963 167.957 88.1703H162.853C162.853 72.1963 159.996 59.2452 156.47 59.2452C152.948 59.2452 150.09 73.2772 150.09 90.5795H144.984C144.984 71.9426 150.129 56.8359 156.47 56.8359C160.08 56.8359 163.299 61.3771 165.406 68.4762C167.511 61.3771 170.732 56.8359 174.338 56.8359Z" fill="#FFBC0D"/>
<path d="M212.998 145.879L162.91 145.88V138.835L217.409 138.834C215.687 141.006 214.204 143.367 212.998 145.879Z" fill="#606060"/>
<path d="M166.014 104.785V130.616C166.014 136.81 166.838 141.908 168.485 145.91C168.636 145.89 168.791 145.88 168.947 145.88L212.999 145.88C211.419 149.171 210.315 152.721 209.774 156.447L164.491 156.447C162.377 137.643 145.991 123.009 126.088 123.009C112.853 123.009 101.173 129.481 94.2109 139.347C95.7394 120.012 112.4 104.785 132.729 104.785H166.014Z" fill="#FFBC0D"/>
<path d="M228.811 65.9423C238.618 77.6237 246.911 88.5019 253.691 98.5767C259.373 107.021 264.372 115.465 268.687 123.909C269.414 125.331 269.054 127.002 267.917 128.033L267.917 129.538C262.107 126.138 255.302 124.183 248.026 124.183C237.091 124.183 227.216 128.601 220.188 135.701L225.166 117.686L217.315 70.0424C217.022 68.2652 218.162 66.5609 219.954 66.0951C219.954 66.0951 222.864 65.3391 224.318 64.9611C224.567 64.8964 225.289 65.2374 225.289 65.2374C226.18 65.0059 226.883 64.646 227.671 65.0426C228.102 65.2597 228.492 65.5626 228.811 65.9423Z" fill="#FFBC0D"/>
<path d="M120.655 107.126V108.353C120.655 113.526 116.331 117.72 110.997 117.72L103.527 117.719C108.047 112.663 113.939 108.793 120.642 106.654C120.651 106.811 120.655 106.968 120.655 107.126Z" fill="#DB0007"/>
<path d="M201.554 64.8652H230.509C232.515 64.8652 234.141 66.4423 234.141 68.3877C234.141 70.3331 232.515 71.9101 230.509 71.9101H201.554C199.548 71.9101 197.922 70.3331 197.922 68.3877C197.922 66.4423 199.548 64.8652 201.554 64.8652Z" fill="#606060"/>
<path d="M133.047 93.043H180.196C183.706 93.043 186.552 95.8028 186.552 99.2072C186.552 102.612 183.706 105.372 180.196 105.372H133.047C129.537 105.372 126.691 102.612 126.691 99.2072C126.691 95.8028 129.537 93.043 133.047 93.043Z" fill="#606060"/>
<path d="M157.678 160.078C157.678 177.538 143.084 191.692 125.081 191.692C107.079 191.692 92.4844 177.538 92.4844 160.078C92.4844 142.619 107.079 128.465 125.081 128.465C143.084 128.465 157.678 142.619 157.678 160.078Z" fill="#606060"/>
<path d="M138.361 159.688C138.361 167.017 132.236 172.958 124.679 172.958C117.122 172.958 110.996 167.017 110.996 159.688C110.996 152.359 117.122 146.418 124.679 146.418C132.236 146.418 138.361 152.359 138.361 159.688Z" fill="#F1F1F1"/>
<path d="M133.954 149.541C136.664 152.007 138.361 155.539 138.361 159.462C138.361 166.916 132.234 172.958 124.676 172.958C120.699 172.958 117.118 171.285 114.617 168.613C116.56 169.575 118.753 170.117 121.074 170.117C129.03 170.117 135.48 163.756 135.48 155.91C135.48 153.643 134.941 151.501 133.984 149.6L133.954 149.541Z" fill="white"/>
<path opacity="0.1" d="M109.387 160.469H146.41V164.372H109.387V160.469Z" fill="#606060"/>
<path d="M126.09 126.521C145.425 126.521 161.101 141.897 161.101 160.867H91.0781C91.0781 141.897 106.754 126.521 126.09 126.521Z" fill="#FFBC0D"/>
<path d="M280.018 160.078C280.018 177.538 265.424 191.692 247.421 191.692C229.418 191.692 214.824 177.538 214.824 160.078C214.824 142.619 229.418 128.465 247.421 128.465C265.424 128.465 280.018 142.619 280.018 160.078Z" fill="#606060"/>
<path d="M260.701 159.688C260.701 167.017 254.575 172.958 247.019 172.958C239.462 172.958 233.336 167.017 233.336 159.688C233.336 152.359 239.462 146.418 247.019 146.418C254.575 146.418 260.701 152.359 260.701 159.688Z" fill="#F1F1F1"/>
<path d="M257.024 149.541C259.78 152.007 261.505 155.539 261.505 159.462C261.505 166.916 255.275 172.958 247.588 172.958C243.544 172.958 239.902 171.285 237.359 168.613C239.335 169.575 241.565 170.117 243.926 170.117C252.017 170.117 258.575 163.756 258.575 155.91C258.575 153.643 258.028 151.501 257.055 149.6L257.024 149.541Z" fill="white"/>
<path opacity="0.1" d="M230.922 160.469H267.946V164.372H230.922V160.469Z" fill="#606060"/>
<path d="M248.226 127.684C267.169 127.684 282.601 142.256 283.238 160.468H213.215C213.852 142.256 229.284 127.684 248.226 127.684Z" fill="#FFBC0D"/>
<path d="M315.32 56.8652C315.32 76.1952 299.65 91.8652 280.32 91.8652C260.99 91.8652 245.32 76.1952 245.32 56.8652C245.32 37.5353 260.99 21.8652 280.32 21.8652C299.65 21.8652 315.32 37.5353 315.32 56.8652Z" fill="#006BAE"/>
<path fill-rule="evenodd" clip-rule="evenodd" d="M280.32 23.3652C261.819 23.3652 246.82 38.3637 246.82 56.8652C246.82 75.3668 261.819 90.3652 280.32 90.3652C298.822 90.3652 313.82 75.3668 313.82 56.8652C313.82 38.3637 298.822 23.3652 280.32 23.3652ZM243.82 56.8652C243.82 36.7068 260.162 20.3652 280.32 20.3652C300.479 20.3652 316.82 36.7068 316.82 56.8652C316.82 77.0236 300.479 93.3652 280.32 93.3652C260.162 93.3652 243.82 77.0236 243.82 56.8652Z" fill="#006BAE"/>
<path fill-rule="evenodd" clip-rule="evenodd" d="M278.668 41.0664C278.668 39.9618 279.563 39.0664 280.668 39.0664H282.073V56.6961L289.328 63.9506C290.109 64.7317 290.109 65.998 289.328 66.779L288.334 67.7726L278.668 58.1065V41.0664Z" fill="white"/>
</svg>
