<svg width="27" height="18" viewBox="0 0 27 18" fill="none" xmlns="http://www.w3.org/2000/svg">
<g clip-path="url(#clip0_109_43692)">
<path d="M0 0H27V18.0002H0V0Z" fill="#0052B4"/>
<path d="M17.5117 5.625V9.74994C17.5117 11.7593 20.2508 12.375 20.2508 12.375C20.2508 12.375 22.99 11.7593 22.99 9.74994V5.625H17.5117Z" fill="#FFDA44"/>
<path d="M19.8581 7.12499C19.8581 7.53922 19.5078 8.62502 19.0755 8.62502C18.6433 8.62502 18.293 7.53927 18.293 7.12499C18.293 6.71071 19.0755 6.375 19.0755 6.375C19.0755 6.375 19.8581 6.71076 19.8581 7.12499Z" fill="#FF9811"/>
<path d="M21.937 7.94185C22.0632 7.64653 22.1615 7.2149 22.1615 7.00001C22.1615 6.65481 21.6919 6.375 21.6919 6.375C21.6919 6.375 21.2224 6.65481 21.2224 7.00001C21.2224 7.2149 21.3206 7.64653 21.4469 7.94185L21.1758 8.52841C21.3403 8.59244 21.5154 8.62519 21.6919 8.62497C21.8746 8.62497 22.0487 8.59048 22.2081 8.52841L21.937 7.94185Z" fill="#A2001D"/>
<path d="M19.6648 9.75C19.6648 9.75 19.2734 10.5 19.2734 11.25H21.2299C21.2299 10.5 20.8386 9.75 20.8386 9.75L20.2517 9.375L19.6648 9.75Z" fill="#6DA544"/>
<path d="M20.8379 9.74994V9.56246C20.8379 9.25181 20.5752 9 20.251 9C19.9268 9 19.6641 9.25186 19.6641 9.56246V9.74994H20.8379Z" fill="#D80027"/>
<path d="M13.5 0V1.61119L11.1181 2.93478H13.5V6.06504H10.3832L13.5 7.79657V8.99981H12.093L8.21739 6.84688V8.99981H5.28261V6.43835L0.672047 8.99981H0V7.38857L2.38185 6.06504H0V2.93478H3.11676L0 1.20266V0H1.40695L5.28261 2.15288V0H8.21739V2.56142L12.828 0H13.5Z" fill="white"/>
<path d="M7.59375 0H5.90625V3.65619H0V5.34369H5.90625V8.99998H7.59375V5.34369H13.5V3.65619H7.59375V0Z" fill="#D80027"/>
<path d="M8.21875 6.06641L13.5014 9.00118V8.1713L9.71256 6.06641H8.21875Z" fill="#0052B4"/>
<path d="M8.21875 6.06641L13.5014 9.00118V8.1713L9.71256 6.06641H8.21875Z" fill="white"/>
<path d="M8.21739 6.06641L13.5 9.00118V8.1713L9.71119 6.06641H8.21739ZM3.78875 6.06641L0 8.1713V9.00118L5.28261 6.06641H3.78875Z" fill="#D80027"/>
<path d="M5.28261 2.93477L0 0V0.829881L3.78881 2.93477H5.28261Z" fill="#0052B4"/>
<path d="M5.28261 2.93477L0 0V0.829881L3.78881 2.93477H5.28261Z" fill="white"/>
<path d="M5.28261 2.93478L0 0V0.829882L3.78881 2.93478H5.28261ZM9.71125 2.93478L13.5 0.829882V0L8.21739 2.93478H9.71125Z" fill="#D80027"/>
</g>
<rect x="0.5" y="0.5" width="26" height="17" rx="0.5" stroke="black" stroke-opacity="0.2"/>
<defs>
<clipPath id="clip0_109_43692">
<rect width="27" height="18" rx="1" fill="white"/>
</clipPath>
</defs>
</svg>
