<svg width="375" height="225" viewBox="0 0 375 225" fill="none" xmlns="http://www.w3.org/2000/svg">
<rect width="375" height="225" fill="#A0A09F" fill-opacity="0.15"/>
<path fill-rule="evenodd" clip-rule="evenodd" d="M199.383 90.9648H244.464L236.762 154.205H207.085L199.383 90.9648ZM204.306 95.3248L210.946 149.845H232.901L239.541 95.3248H204.306Z" fill="#A0A09F"/>
<path d="M239.883 110.528L239.127 116.737C238.275 112.229 237.184 109.522 235.994 109.522C233.272 109.522 231.066 122.605 231.066 138.74H227.122C227.122 122.605 224.913 109.522 222.191 109.522C219.469 109.522 217.261 123.693 217.261 141.176H213.316C213.316 122.351 217.289 107.088 222.191 107.088C224.978 107.088 227.465 111.674 229.093 118.847C230.718 111.674 233.207 107.088 235.994 107.088C237.389 107.088 238.709 108.324 239.883 110.528Z" fill="#A0A09F"/>
<path fill-rule="evenodd" clip-rule="evenodd" d="M153.77 69.3438L161.792 73.6774L168.857 70.6242L176.029 73.7232L183.2 70.6242L190.371 73.7232L197.648 70.5785L203.385 73.6774L212.63 69.6821V88.4938H208.27V76.316L203.173 78.5186L197.436 75.4196L190.371 78.4728L183.2 75.3739L176.029 78.4728L168.857 75.3739L161.581 78.5186L158.13 76.6544V113.285H153.77V69.3438Z" fill="#A0A09F"/>
<path fill-rule="evenodd" clip-rule="evenodd" d="M228.384 73.3061L225.516 93.4492L221.199 92.8345L224.068 72.6914L228.384 73.3061Z" fill="#A0A09F"/>
<path fill-rule="evenodd" clip-rule="evenodd" d="M204.714 151.102H178.898V146.742H204.714V151.102Z" fill="#A0A09F"/>
<path fill-rule="evenodd" clip-rule="evenodd" d="M133.941 142.197L137.795 140.158L142.918 149.844H171.845L176.968 140.158L180.822 142.197L174.471 154.204H140.292L133.941 142.197Z" fill="#A0A09F"/>
<path fill-rule="evenodd" clip-rule="evenodd" d="M138.677 115.752H176.09L184.942 138.706H129.824L138.677 115.752ZM141.668 120.112L136.179 134.346H178.588L173.098 120.112H141.668Z" fill="#A0A09F"/>
</svg>
