<svg width="375" height="225" viewBox="0 0 375 225" fill="none" xmlns="http://www.w3.org/2000/svg">
<ellipse cx="187" cy="187.2" rx="53.5" ry="8.3" fill="#A0A09F" fill-opacity="0.15"/>
<path fill-rule="evenodd" clip-rule="evenodd" d="M177.699 142.252C177.857 139.251 174.09 139.25 170.278 139.248C166.088 139.247 161.843 139.246 162.691 135.262C163.597 131.001 166.295 130.703 169.306 130.37C171.671 130.108 174.229 129.825 176.261 127.582C179.429 124.082 181.477 120.999 183.189 118.421C183.971 117.243 184.684 116.171 185.401 115.212C186.612 113.594 189.72 113.26 192.561 112.955C195.084 112.684 197.397 112.435 197.979 111.329C198.401 110.525 198.217 109.264 198.025 107.95C197.655 105.42 197.258 102.699 201.121 102.699C204.178 102.699 204.79 106.095 205.376 109.349C205.915 112.341 206.432 115.212 208.809 115.212C213.771 115.212 218.567 104.957 218.567 104.957C218.567 104.957 221.875 101.965 221.875 99.6426C221.875 97.3197 218.567 92.674 218.567 92.674V86.5397C218.567 86.5397 217.575 81.894 214.763 81.5632C211.951 81.2324 211.951 86.5397 211.951 86.5397L213.771 94.8315C215.346 100.872 210.628 104.957 208.809 104.957C206.989 104.957 205.501 99.6426 205.501 99.6426L203.02 94.8315C203.02 94.8315 198.554 95.9965 196.9 94.8315C195.246 93.6664 195.742 90.3512 195.742 90.3512L198.554 86.5397L203.02 82.8864L206.989 75.587L211.671 72.6098C204.186 68.368 195.744 66.1014 187.141 66.0236C178.538 65.9457 170.057 68.0591 162.496 72.1647C154.935 76.2703 148.544 82.2329 143.924 89.491C139.305 96.749 136.608 105.064 136.09 113.652C137.528 111.875 139.851 109.279 140.973 108.992C142.274 108.668 144.568 110.43 145.539 111.336V121.231C144.022 123.303 140.75 127.445 139.858 127.445C138.976 127.646 138.136 128.002 137.377 128.495C138.928 134.978 141.74 141.092 145.654 146.488C149.568 151.884 154.507 156.456 160.188 159.943C161.486 158.557 163.732 156.729 166.19 154.727C171.384 150.497 177.528 145.493 177.699 142.252ZM148.991 133.155C148.617 132.436 148.991 128.775 151.522 126.438C152.045 125.958 153.226 125.843 154.213 125.747C155.074 125.663 155.787 125.594 155.787 125.309C155.787 125.059 155.072 124.809 154.138 124.481C152.79 124.009 150.984 123.377 150.206 122.353C148.89 120.62 150.818 116.435 151.522 115.212C151.839 114.664 153.015 114.095 154.216 113.514C155.691 112.801 157.204 112.069 157.204 111.336C157.204 110.559 156.376 110.065 155.504 109.544C154.883 109.173 154.24 108.789 153.86 108.28C153.141 107.302 151.522 103.655 150.818 101.958C151.22 100.189 152.076 96.5358 152.256 96.0468C152.457 95.4284 153.471 94.3137 157.225 94.0044V99.0385C158.139 99.2398 160.512 99.808 162.705 100.477C164.053 100.866 165.108 103.264 166.187 105.719C167.284 108.214 168.407 110.767 169.889 111.329C172.83 112.443 172.766 121.728 171.917 123.77C171.46 124.871 169.313 125.23 166.732 125.662C164.526 126.031 162.002 126.453 159.944 127.438C156.377 129.164 151.156 131.968 148.991 133.155ZM209.405 149.58C209.405 149.58 206.989 142.281 205.501 139.627C204.012 136.973 196.871 140.957 193.592 143.611C191.466 145.456 189.823 147.791 188.802 150.414C188.802 150.414 172.478 159.569 163.848 161.985C172.027 166.114 181.171 167.947 190.309 167.291C199.447 166.635 208.236 163.514 215.741 158.26L209.405 149.58ZM216.086 147.566C216.086 147.566 213.44 143.417 214.763 142.252C216.086 141.123 228.549 141.533 228.542 144.122C228.54 144.555 228.511 144.987 228.455 145.416C226.902 147.666 225.17 149.787 223.278 151.759L216.086 147.566Z" fill="#CCCCCC"/>
<path d="M211.67 72.6094C217.788 76.0714 223.119 80.7683 227.324 86.4014C231.529 92.0344 234.517 98.4805 236.097 105.33C237.677 112.18 237.814 119.284 236.501 126.189C235.188 133.095 232.452 139.652 228.469 145.444C228.524 145.015 228.554 144.583 228.556 144.15C228.556 141.497 216.093 141.115 214.77 142.28C213.452 143.44 216.068 147.556 216.093 147.595L223.284 151.788C220.988 154.188 218.461 156.355 215.74 158.26L209.405 149.58C209.405 149.58 206.989 142.281 205.5 139.627C204.011 136.973 196.899 140.958 193.591 143.611C191.472 145.449 189.831 147.774 188.809 150.386C188.713 150.439 172.459 159.547 163.854 161.956C162.603 161.352 161.381 160.633 160.194 159.914C164.236 155.599 177.453 146.998 177.698 142.252C178.022 135.981 161.051 142.891 162.676 135.29C164.301 127.689 171.636 132.68 176.26 127.581C180.884 122.482 183.12 118.268 185.407 115.212C187.694 112.156 196.741 113.687 197.978 111.328C199.214 108.969 195.253 102.699 201.12 102.698C206.988 102.698 203.846 115.211 208.808 115.212C213.752 115.212 218.533 105.029 218.566 104.957C218.566 104.957 221.875 101.965 221.875 99.6426C221.875 97.3197 218.566 92.6738 218.566 92.6738V86.5391C218.558 86.498 217.562 81.892 214.763 81.5625C211.962 81.2329 211.95 86.4993 211.95 86.5391L213.771 94.8311C215.345 100.872 210.627 104.957 208.808 104.957C206.997 104.956 205.514 99.6925 205.5 99.6426L203.019 94.8311C202.969 94.8439 198.544 95.9822 196.899 94.8311C195.245 93.6732 195.741 90.3506 195.741 90.3506L198.553 86.5391L203.019 82.8857L206.988 75.5869L211.67 72.6094ZM157.246 98.9883C158.159 99.204 160.568 99.7724 162.726 100.427C165.451 101.268 166.976 110.214 169.917 111.336C172.858 112.458 172.758 121.734 171.945 123.777C171.104 125.82 164.408 125.31 159.942 127.438C156.375 129.157 151.148 131.962 148.99 133.148C148.645 132.437 148.99 128.769 151.521 126.432C152.528 125.54 155.808 125.87 155.808 125.259C155.807 124.648 151.544 124.036 150.228 122.304C148.912 120.571 150.831 116.385 151.543 115.162C152.255 113.94 157.224 112.609 157.225 111.286C157.225 109.963 154.794 109.452 153.881 108.229C153.147 107.251 151.558 103.605 150.839 101.908C151.263 100.139 152.118 96.4873 152.276 95.9971C152.478 95.393 153.492 94.2633 157.246 93.9541V98.9883ZM140.972 108.984C142.273 108.661 144.56 110.416 145.538 111.329V121.231C144.021 123.303 140.749 127.444 139.857 127.444C138.975 127.646 138.135 128.002 137.376 128.495C136.455 124.639 135.99 120.687 135.988 116.723C135.988 115.687 136.031 114.666 136.089 113.645C137.527 111.861 139.85 109.272 140.972 108.984Z" fill="#A0A09F"/>
<path d="M208.568 31.9902C221.166 31.9905 231.378 42.1795 231.378 54.748C231.378 76.4972 210.203 93.6149 208.568 93.6182C206.938 93.6182 185.758 76.4992 185.758 54.748C185.758 42.1793 195.971 31.9902 208.568 31.9902ZM208.568 47.7607C204.675 47.7607 201.518 50.9191 201.518 54.8154C201.518 58.7117 204.675 61.8701 208.568 61.8701C212.462 61.8699 215.618 58.7116 215.618 54.8154C215.618 50.9192 212.462 47.761 208.568 47.7607Z" fill="#6F6F6F"/>
<path d="M208.565 29.5C222.531 29.5 233.864 40.7972 233.864 54.748C233.864 55.0115 233.86 55.2742 233.854 55.5361C233.853 55.5957 233.851 55.6553 233.85 55.7148C233.843 55.978 233.833 56.2403 233.82 56.502C233.818 56.5505 233.816 56.599 233.813 56.6475C233.785 57.1965 233.744 57.7421 233.691 58.2842C233.687 58.3252 233.684 58.3662 233.68 58.4072C233.655 58.6571 233.627 58.906 233.597 59.1543C233.572 59.3593 233.544 59.5636 233.517 59.7676C233.5 59.8907 233.485 60.014 233.467 60.1367C233.421 60.4493 233.37 60.7603 233.316 61.0703C233.302 61.1521 233.288 61.2338 233.273 61.3154C233.23 61.5572 233.185 61.798 233.138 62.0381C233.112 62.1663 233.086 62.2941 233.06 62.4219C233.02 62.6129 232.979 62.8033 232.937 62.9932C232.906 63.1288 232.876 63.2643 232.845 63.3994C232.8 63.5905 232.753 63.7808 232.706 63.9707C232.677 64.0883 232.648 64.206 232.618 64.3232C232.581 64.4685 232.542 64.6132 232.503 64.7578C232.456 64.9313 232.411 65.1049 232.362 65.2773C232.281 65.564 232.197 65.849 232.11 66.1328C232.073 66.2542 232.035 66.3752 231.997 66.4961C231.938 66.6849 231.877 66.873 231.815 67.0605C231.779 67.1699 231.743 67.2788 231.706 67.3877C231.651 67.5506 231.596 67.7131 231.539 67.875C231.486 68.0265 231.432 68.1776 231.378 68.3281C231.314 68.504 231.248 68.6788 231.183 68.8535C231.133 68.9853 231.084 69.117 231.033 69.248C230.963 69.4291 230.892 69.6094 230.82 69.7891C230.781 69.8874 230.743 69.9861 230.703 70.084C230.585 70.3727 230.464 70.6593 230.342 70.9443C230.316 71.0046 230.29 71.0649 230.264 71.125C230.163 71.3561 230.061 71.5858 229.957 71.8145C229.915 71.9068 229.873 71.9989 229.831 72.0908C229.758 72.2506 229.683 72.4098 229.608 72.5684C229.542 72.7097 229.473 72.8499 229.405 72.9902C229.327 73.1513 229.249 73.3119 229.17 73.4717C229.113 73.5859 229.056 73.6999 228.999 73.8135C228.918 73.9741 228.835 74.1337 228.753 74.293C228.694 74.4068 228.636 74.5207 228.576 74.6338C228.298 75.1622 228.012 75.6823 227.721 76.1943C227.669 76.2861 227.616 76.3775 227.563 76.4688C227.465 76.6404 227.365 76.8108 227.265 76.9805C227.211 77.0719 227.157 77.1631 227.103 77.2539C227.004 77.4193 226.906 77.5845 226.806 77.748C226.75 77.8385 226.695 77.9287 226.64 78.0186C226.194 78.7401 225.739 79.4439 225.277 80.127C234.322 89.666 239.875 102.562 239.875 116.752C239.875 146.146 216.062 169.975 186.688 169.975C157.313 169.975 133.5 146.146 133.5 116.752C133.5 88.1494 156.048 64.8163 184.328 63.5811C184.317 63.5334 184.307 63.4853 184.296 63.4375C184.236 63.1804 184.178 62.9222 184.123 62.6631C184.1 62.5551 184.076 62.4472 184.054 62.3389C184.036 62.2523 184.017 62.1659 184 62.0791C183.947 61.8097 183.897 61.5391 183.849 61.2676C183.834 61.1824 183.819 61.0971 183.805 61.0117C183.759 60.7451 183.717 60.4776 183.677 60.209C183.666 60.1384 183.656 60.0678 183.646 59.9971C183.603 59.7001 183.564 59.4019 183.528 59.1025C183.513 58.9748 183.498 58.8469 183.484 58.7188C183.48 58.6794 183.476 58.64 183.472 58.6006C183.457 58.4599 183.443 58.3189 183.43 58.1777C183.427 58.1458 183.423 58.114 183.42 58.082C183.409 57.9611 183.4 57.84 183.39 57.7188C183.385 57.6592 183.38 57.5997 183.375 57.54C183.335 57.0152 183.306 56.4872 183.288 55.9561C183.275 55.5551 183.268 55.1525 183.268 54.748C183.268 50.6065 184.266 46.6986 186.036 43.251C186.409 42.5251 186.816 41.8197 187.255 41.1367C188.352 39.4292 189.649 37.862 191.114 36.4688C191.407 36.1902 191.707 35.9187 192.013 35.6543C193.084 34.7285 194.234 33.8911 195.451 33.1533C195.799 32.9425 196.152 32.7402 196.511 32.5459C200.095 30.6034 204.202 29.5001 208.565 29.5ZM184.995 66.0479C157.778 66.9413 135.988 89.3003 135.988 116.752C135.988 144.771 158.687 167.484 186.688 167.484C214.688 167.484 237.387 144.77 237.387 116.752C237.387 103.403 232.234 91.259 223.812 82.2012C223.388 82.7764 222.965 83.3363 222.539 83.8779C219.688 87.5062 216.78 90.4364 214.459 92.4746C213.301 93.4917 212.264 94.3073 211.433 94.8848C211.021 95.1705 210.624 95.4244 210.263 95.6172C210.084 95.7127 209.874 95.8142 209.65 95.8984C209.479 95.963 209.071 96.1074 208.565 96.1074C208.061 96.1073 207.653 95.963 207.481 95.8984C207.258 95.8142 207.048 95.7127 206.869 95.6172C206.508 95.4244 206.111 95.1705 205.699 94.8848C204.868 94.3073 203.831 93.4917 202.673 92.4746C200.352 90.4364 197.443 87.5062 194.593 83.8779C190.846 79.1084 187.101 73.0073 184.995 66.0469V66.0479ZM207.978 31.9971C197.217 32.2689 188.309 39.976 186.22 50.1611C186.182 50.3465 186.146 50.5327 186.112 50.7197C185.878 52.0272 185.756 53.3735 185.756 54.748C185.756 76.497 206.931 93.6138 208.565 93.6172C209.936 93.6172 225.111 81.5271 229.921 64.7578C229.972 64.579 230.021 64.3995 230.07 64.2197C230.826 61.4389 231.295 58.5338 231.365 55.5361C231.371 55.2741 231.376 55.0114 231.376 54.748C231.376 54.5516 231.373 54.3554 231.368 54.1602C231.125 44.5959 224.968 36.498 216.409 33.3711C216.06 33.2434 215.706 33.1236 215.349 33.0127C213.384 32.4032 211.306 32.0514 209.154 31.9971L208.565 31.9902C208.369 31.9902 208.173 31.9921 207.978 31.9971ZM208.565 47.7598C212.459 47.7598 215.616 50.9191 215.616 54.8154C215.616 56.7633 214.827 58.5271 213.552 59.8037C213.392 59.9633 213.225 60.115 213.051 60.2588C212.006 61.1215 210.709 61.6894 209.287 61.834C209.05 61.8581 208.809 61.8701 208.565 61.8701C208.444 61.8701 208.323 61.8664 208.203 61.8604C208.083 61.8543 207.963 61.846 207.845 61.834C207.608 61.8099 207.374 61.7736 207.145 61.7266C203.932 61.0686 201.516 58.2244 201.516 54.8154C201.516 51.4063 203.932 48.5614 207.145 47.9033C207.374 47.8563 207.608 47.821 207.845 47.7969C208.082 47.7728 208.322 47.7598 208.565 47.7598ZM208.565 50.25C206.046 50.2503 204.004 52.2944 204.004 54.8154C204.004 57.3363 206.046 59.3796 208.565 59.3799C211.006 59.3799 213 57.4619 213.122 55.0498C213.126 54.9722 213.128 54.894 213.128 54.8154C213.128 54.7366 213.126 54.6579 213.122 54.5801C213.059 53.335 212.497 52.2215 211.633 51.4355C211.525 51.3376 211.413 51.2446 211.296 51.1572C210.535 50.5874 209.589 50.25 208.565 50.25Z" fill="white"/>
<path fill-rule="evenodd" clip-rule="evenodd" d="M244 49.4191C244 61.2003 239.205 71.7812 233.648 79.9958C244.552 91.4887 251.246 107.026 251.246 124.123C251.246 159.537 222.537 188.246 187.123 188.246C151.709 188.246 123 159.537 123 124.123C123 89.6622 150.184 61.5505 184.278 60.062C183.517 56.8673 183.06 53.5394 183.005 50.1074C183.002 49.8784 183 49.649 183 49.4191C183 32.6108 196.664 19 213.5 19C230.337 19 244 32.6108 244 49.4191ZM231.882 82.4972C242.035 93.4101 248.246 108.041 248.246 124.123C248.246 157.88 220.88 185.246 187.123 185.246C153.366 185.246 126 157.88 126 124.123C126 91.0488 152.27 64.11 185.082 63.0334C187.621 71.4195 192.137 78.7699 196.654 84.5161C200.091 88.8876 203.597 92.4174 206.395 94.8731C207.792 96.0985 209.041 97.0816 210.043 97.7774C210.54 98.1216 211.019 98.4264 211.455 98.6588C211.67 98.7739 211.923 98.897 212.193 98.9985C212.4 99.0762 212.891 99.2502 213.5 99.2502C214.109 99.2502 214.6 99.0763 214.807 98.9985C215.077 98.897 215.33 98.7739 215.545 98.6588C215.981 98.4265 216.461 98.1217 216.957 97.7774C217.959 97.0816 219.208 96.0985 220.605 94.8731C223.404 92.4174 226.909 88.8876 230.346 84.5161C230.859 83.8636 231.372 83.1903 231.882 82.4972ZM229.756 80.3224C222.635 90.1305 214.571 96.2502 213.5 96.2502C211.89 96.2502 194.47 82.415 188.218 63.0096C187.899 62.0206 187.61 61.0172 187.353 60.0004C186.495 56.6086 186 53.0679 186 49.4191C186 35.2224 196.821 23.5457 210.688 22.1416C211.613 22.048 212.551 22 213.5 22C228.688 22 241 34.276 241 49.4191C241 61.3503 235.707 72.1247 229.756 80.3224ZM219 49.5C219 52.5376 216.538 55 213.5 55C213.12 55 212.75 54.9615 212.392 54.8883C209.885 54.3754 208 52.1579 208 49.5C208 46.4624 210.462 44 213.5 44C216.538 44 219 46.4624 219 49.5ZM222 49.5C222 54.1944 218.194 58 213.5 58C213.482 58 213.463 57.9999 213.445 57.9998C208.776 57.9703 205 54.1761 205 49.5C205 44.8056 208.806 41 213.5 41C218.194 41 222 44.8056 222 49.5Z" fill="white"/>
</svg>
