<svg width="136" height="136" viewBox="0 0 136 136" fill="none" xmlns="http://www.w3.org/2000/svg">
<path d="M116.001 126.182C116.001 130.045 94.8228 133.176 68.6978 133.176C42.5729 133.176 21.3945 130.045 21.3945 126.182C21.3945 122.319 42.5729 119.188 68.6978 119.188C94.8228 119.188 116.001 122.319 116.001 126.182Z" fill="#A0A09F" fill-opacity="0.15"/>
<path fill-rule="evenodd" clip-rule="evenodd" d="M24.755 45.8291V49.7606C24.755 49.7606 27.1018 68.36 30.7379 86.7553C34.3739 105.151 39.3798 123.75 39.3798 123.75L44.6979 127.749C44.6979 127.749 54.6693 123.75 67.9646 123.75C81.2599 123.75 91.8961 127.749 91.8961 127.749L97.2142 123.75C97.2142 123.75 102.18 105.355 105.856 86.7553C109.533 68.1559 111.857 48.5964 111.857 48.5964L111.857 46.3297L99.5187 46.3297C99.5187 42.9297 96.1536 50.8631 96.1536 50.8631C96.1536 50.8631 97.2753 46.3297 96.1536 36.1297C95.782 32.7505 84.9367 37.7637 84.9367 41.7964C84.9367 45.8291 84.9367 59.9297 86.0584 64.4631C85.2977 65.0311 83.3968 66.3369 82.6933 66.7297C80.6286 67.8826 79.3031 68.1855 77.0848 68.9964C75.273 69.6587 74.304 70.2563 72.4015 70.5641C70.5266 70.8675 67.5394 70.5641 67.5394 70.5641C67.5394 70.5641 66.9895 55.3964 64.7462 48.5964C64.0367 46.446 55.7726 41.7964 53.5292 42.9297C51.2858 44.0631 54.1023 55.7484 54.6509 62.1964C55.233 69.0383 55.7726 67.8631 55.1222 67.8631C54.0005 67.8631 50.1641 64.4631 49.0424 62.1964C47.9207 59.9297 43.4339 33.8631 42.3122 31.5964C41.1905 29.3297 33.3387 31.5964 33.3387 31.5964C33.3387 31.5964 31.6867 28.2339 29.9736 27.0631C28.8519 26.2964 21 32.7297 21 34.9964C21 37.2631 24.0749 44.1581 24.755 45.8291Z" fill="white"/>
<path fill-rule="evenodd" clip-rule="evenodd" d="M24.5859 48.1934H35.1416C35.1416 48.1934 43.8641 73.5231 67.7956 73.5231C91.727 73.5231 101.114 48.1934 101.114 48.1934H111.67C111.67 48.1934 109.363 66.5886 105.687 85.1881C102.011 103.788 97.0451 122.183 97.0451 122.183L91.727 126.182C91.727 126.182 81.0908 122.183 67.7956 122.183C54.5003 122.183 44.5288 126.182 44.5288 126.182L39.2107 122.183C39.2107 122.183 34.2048 103.583 30.5688 85.1881C26.9328 66.7928 24.5859 48.1934 24.5859 48.1934Z" fill="#DB0007"/>
<path fill-rule="evenodd" clip-rule="evenodd" d="M74.4886 81.5215C71.5158 81.5215 68.8639 85.3783 67.1283 91.409C65.3945 85.3783 62.7414 81.5215 59.7681 81.5215C54.543 81.5215 50.3047 94.3546 50.3047 110.184H54.511C54.511 95.4854 56.8658 83.5692 59.7681 83.5692C62.6722 83.5692 65.0257 94.5696 65.0257 108.138H69.2315C69.2315 94.5696 71.5851 83.5692 74.4886 83.5692C77.392 83.5692 79.7462 95.4854 79.7462 110.184H83.9508C83.9508 94.3546 79.7148 81.5215 74.4886 81.5215Z" fill="#FFBC0D"/>
<path d="M45.5461 59.1574C40.1403 52.52 37.7724 45.5266 37.7724 45.5266H27.2168C25.4125 41.0938 25.5757 40.9979 24.0719 36.3633C23.8946 35.8163 26.2441 31.7591 29.3611 30.8633C31.4932 32.3633 32.0109 35.1887 33.7932 39.8641V36.3633C36.7056 32.7304 40.0707 33.8637 40.0707 33.8637C42.1278 43.0891 43.9418 50.0414 45.5461 59.1574C48.6293 62.9431 52.7007 66.613 57.8846 68.8036C57.8084 59.3916 54.7519 50.8632 55.7417 47.0631C55.9325 46.3304 61.5797 47.8615 62.5046 49.7304C63.4294 51.5993 64.5007 63.631 64.8173 70.6564L66.4722 70.8073C66.4723 70.8073 66.4723 70.8073 66.4723 70.8073L68.1199 70.8563L69.7675 70.8073L69.7676 70.8073L69.7677 70.8073C69.7676 70.8073 69.7675 70.8073 69.7675 70.8073C69.2269 70.8397 68.6777 70.8563 68.1199 70.8563C67.5621 70.8563 67.0129 70.8397 66.4723 70.8073H66.4723L66.4722 70.8073C65.9114 70.7737 65.3597 70.7231 64.8173 70.6564C62.3143 70.349 60.0063 69.7002 57.8846 68.8036C52.7007 66.613 48.6293 62.9431 45.5461 59.1574Z" fill="#FFBC0D"/>
<path d="M69.7675 70.8073C69.7675 70.8073 69.7676 70.8073 69.7677 70.8073L71.4225 70.6564C71.4225 70.6564 71.4226 70.6564 71.4226 70.6564L72.3197 70.5304C72.3198 70.5304 72.3198 70.5304 72.3199 70.5304L73.1754 70.3804L74.0264 70.2015C79.7765 68.891 84.3926 65.7601 87.9971 62.1523C87.4285 43.7779 88.3036 45.2236 88.3036 42.9304L88.351 42.8655C89.185 41.7219 91.7766 38.1682 93.9121 38.3971C93.9121 38.3971 94.6815 40.3195 94.0128 54.5102C92.4547 56.994 90.4625 59.6847 87.9971 62.1523C84.3926 65.7601 79.7765 68.891 74.0264 70.2015C73.4682 70.3287 72.8995 70.4388 72.3199 70.5304L72.3198 70.5304L72.3197 70.5304C72.0235 70.5773 71.7245 70.6193 71.4226 70.6564L71.4225 70.6564L71.4225 70.6564C70.8801 70.7231 70.3285 70.7737 69.7677 70.8073L69.7676 70.8073L69.7675 70.8073Z" fill="#FFBC0D"/>
<path fill-rule="evenodd" clip-rule="evenodd" d="M27.2143 45.5268L23.9002 66.7299L98.3961 46.3299L98.7215 45.0059H112.624L112.69 45.026C114.104 45.495 115.08 46.9021 114.946 48.4769L114.932 48.6123C113.384 60.9546 111.377 73.3642 108.911 85.8409C106.445 98.316 103.547 110.722 100.217 123.06C100.023 123.779 99.5956 124.411 99.0038 124.856L93.6857 128.856C92.7885 129.531 91.6139 129.7 90.5657 129.306C83.8589 126.784 76.27 125.516 67.7847 125.516C59.3178 125.516 51.972 126.778 45.735 129.28C44.6719 129.706 43.466 129.546 42.5484 128.856L37.2303 124.856C36.6379 124.411 36.2106 123.777 36.0168 123.057C32.6599 110.585 29.762 98.1795 27.3232 85.8409C24.884 73.5008 22.8773 61.092 21.3029 48.6149C21.103 47.0305 21.0771 46.0494 22.4666 45.5268H27.2143ZM27.2143 45.5268L28.4137 48.1931H24.5754C26.1399 60.5928 28.1342 72.9244 30.5582 85.1879C32.9823 97.4515 35.8629 109.783 39.2002 122.183L44.5183 126.182C51.1659 123.516 58.9215 122.183 67.785 122.183C76.6485 122.183 84.6257 123.516 91.7165 126.182L97.0346 122.183C100.345 109.919 103.226 97.5876 105.677 85.1879C108.127 72.7883 110.319 59.7268 111.856 47.4632L110.735 47.4632L98.3961 46.3299L23.9002 66.7299L27.2143 45.5268Z" fill="white"/>
</svg>
