<svg width="375" height="225" viewBox="0 0 375 225" fill="none" xmlns="http://www.w3.org/2000/svg">
<g clip-path="url(#clip0_102_69717)">
<path d="M184.5 4C262.096 4 325 66.904 325 144.5C325 163.443 321.249 181.51 314.453 198H54.5469C47.7506 181.51 44 163.443 44 144.5C44 66.904 106.904 4 184.5 4Z" fill="#DCEDF4"/>
<ellipse cx="184" cy="203" rx="153" ry="14" fill="#A0A09F" fill-opacity="0.15"/>
<path d="M316 97V124H264L264.005 97H316Z" fill="#FFBC0D"/>
<path d="M190.926 120H77V97H191L190.926 120Z" fill="#FFBC0D"/>
<path d="M191 99L190.97 108H77V99H191Z" fill="black" fill-opacity="0.1"/>
<path d="M316 99V108H264L264.002 99H316Z" fill="black" fill-opacity="0.1"/>
<path d="M264 124H287V203H264V124Z" fill="#F9F9F9"/>
<path d="M288 124H316V203H288V124Z" fill="#F9F9F9"/>
<path d="M191 89L190.967 98.999L73.8004 99C72.8061 99 72 98.1942 72 97.2002V90.8008C72 89.8068 72.8061 89.001 73.8004 89.001L191 89Z" fill="#FFBC0D"/>
<path d="M318.212 89.001C319.2 89.001 320 89.8068 320 90.8008V97.2002C320 98.1942 319.2 99 318.212 99L264 98.999L264.002 89L318.212 89.001Z" fill="#FFBC0D"/>
<path d="M260.5 74.5234L260.473 202.998H194.569L194.5 74.5234L260.5 74.5234Z" fill="#F1F1F1"/>
<path d="M59.8 124H244.443C245.437 124 246.243 124.806 246.243 125.8V140H58V125.8C58 124.806 58.8059 124 59.8 124Z" fill="#606060"/>
<path d="M195 140H246V203H195V140Z" fill="#D8D8D8"/>
<path d="M109 140H137V203H109V140Z" fill="#F9F9F9"/>
<path d="M138 140H166V203H138V140Z" fill="#F9F9F9"/>
<path d="M167 140H195V203H167V140Z" fill="#F9F9F9"/>
<path d="M218 154H246V203H218V154Z" fill="#F9F9F9"/>
<path d="M58 198H109V204H58V198Z" fill="#A5835B"/>
<path d="M58 192H109V198H58V192Z" fill="#C2945C"/>
<path d="M58 187H109V193H58V187Z" fill="#A5835B"/>
<path d="M58 182H109V188H58V182Z" fill="#C2945C"/>
<path d="M58 177H109V183H58V177Z" fill="#A5835B"/>
<path d="M58 171H109V177H58V171Z" fill="#C2945C"/>
<path d="M58 166H109V172H58V166Z" fill="#A5835B"/>
<path d="M58 161H109V167H58V161Z" fill="#C2945C"/>
<path d="M58 156H109V162H58V156Z" fill="#A5835B"/>
<path d="M58 150H109V156H58V150Z" fill="#C2945C"/>
<path d="M58 145H109V151H58V145Z" fill="#A5835B"/>
<path d="M58 140H109V146H58V140Z" fill="#C2945C"/>
<path d="M136 140H140V203H136V140Z" fill="#D8D8D8"/>
<path d="M286 124H290V203H286V124Z" fill="#D8D8D8"/>
<path d="M312 124H316V203H312V124Z" fill="#D8D8D8"/>
<path d="M165 140H169V203H165V140Z" fill="#D8D8D8"/>
<path d="M218 154H246V160H218V154Z" fill="#A0A09F" fill-opacity="0.15"/>
<path d="M195 140H246V143H195V140Z" fill="#292929" fill-opacity="0.1"/>
<path d="M165 140H169V146H165V140Z" fill="#292929" fill-opacity="0.1"/>
<path d="M136 140H140V146H136V140Z" fill="#292929" fill-opacity="0.1"/>
<path d="M109 140H136V145H109V140Z" fill="#A0A09F" fill-opacity="0.15"/>
<path d="M140 140H165V145H140V140Z" fill="#A0A09F" fill-opacity="0.15"/>
<path d="M169 140H195V145H169V140Z" fill="#A0A09F" fill-opacity="0.15"/>
<path fill-rule="evenodd" clip-rule="evenodd" d="M236.023 86.7959C239.143 86.7959 241.672 99.9528 241.672 116.182H246.195C246.195 98.703 241.64 84.5352 236.023 84.5352C232.826 84.5352 229.975 88.7942 228.111 95.4522C226.247 88.7942 223.396 84.5352 220.2 84.5352C214.584 84.5352 210.027 98.703 210.027 116.182H214.55C214.55 99.9528 217.08 86.7959 220.2 86.7959C223.32 86.7959 225.85 98.9404 225.85 113.921H230.372C230.372 98.9404 232.902 86.7959 236.023 86.7959Z" fill="#FFBC0D"/>
<rect x="63" y="33" width="6" height="170" fill="#F9F9F9"/>
<rect x="66" y="33" width="3" height="170" fill="#F1F1F1"/>
<path d="M66 26C68.2091 26 70 27.7909 70 30C70 31.195 69.4754 32.267 68.6445 33H63.3555C62.5246 32.267 62 31.195 62 30C62 27.7909 63.7909 26 66 26Z" fill="#FFBC0D"/>
<path opacity="0.5" d="M66 26C67.3598 26 68.5605 26.6789 69.2832 27.7158C68.6357 27.2648 67.8489 27 67 27C64.7909 27 63 28.7909 63 31C63 31.8496 63.2659 32.6366 63.7178 33.2842C62.6799 32.5616 62 31.3605 62 30C62 27.7909 63.7909 26 66 26Z" fill="#F9F9F9"/>
<g clip-path="url(#clip1_102_69717)">
<path d="M69 33H124.323V69.882H69V33Z" fill="white"/>
<path d="M84.2822 49.6817C84.2822 49.6817 84.3037 56.9179 92.338 56.7238L92.8233 58.2228H93.7831C93.7831 58.2228 92.985 53.7905 100.264 53.7474C100.264 53.7474 100.264 50.7709 103.241 50.7709H107.716C107.716 50.7709 100.599 45.1847 114.068 38.0455L114.262 36.6328C114.262 36.6328 100.254 44.2896 92.8125 42.8014C92.8125 42.8014 93.9664 47.3847 91.6478 47.3847C90.4831 47.3847 90.6017 46.5112 88.1645 46.5112C86.1478 46.5112 86.2988 48.6356 85.3282 48.6141C84.3684 48.5925 83.3008 47.2876 83.2145 47.5141C83.139 47.7406 84.2822 49.6817 84.2822 49.6817Z" fill="#DB7D00"/>
<path d="M94.582 66.2271C95.3261 65.6879 95.984 65.5153 96.9977 65.332C98.0114 65.1486 99.0898 64.8575 99.6506 64.7065C100.211 64.5555 97.7418 65.4182 97.1163 65.6016C96.4908 65.7741 94.582 66.2271 94.582 66.2271ZM98.6693 64.6418C98.4644 63.3585 98.9712 62.0212 100.125 61.482C100.395 62.4095 99.5643 63.9839 98.6693 64.6418ZM100.632 63.9732C100.006 62.9163 101.063 61.5359 101.829 60.8673C102.185 61.5144 101.559 63.4232 100.632 63.9732ZM102.455 63.1536C101.786 62.2477 102.573 60.6516 103.404 60.0261C103.738 60.9104 103.414 62.5281 102.455 63.1536ZM104.277 62.0104C103.673 61.1477 104.094 59.8105 104.956 58.9477C105.582 59.6595 105.054 61.2124 104.277 62.0104ZM105.733 60.8565C105.226 60.0477 105.852 58.1173 106.66 57.5781C107.016 58.2899 106.747 60.3173 105.733 60.8565ZM106.898 60.5546C106.747 59.3899 108.774 58.1066 109.615 58.1389C109.518 59.0987 108.655 60.1448 106.898 60.5546ZM105.765 61.8702C106.714 60.8889 108.569 60.8889 109.227 61.0938C109.044 61.6653 106.865 62.9163 105.765 61.8702Z" fill="#006651"/>
<path d="M104.449 62.8516C105.786 62.4957 106.66 62.1938 107.458 63.0349C106.897 63.7467 104.719 63.5418 104.449 62.8516ZM102.54 63.7143C103.824 63.0241 105.376 64.0379 105.614 64.6418C104.179 65.2349 102.519 63.8653 102.54 63.7143ZM100.782 64.7065C101.947 64.2643 103.284 64.8575 103.824 65.5153C103.198 65.8065 101.559 66.13 100.782 64.7065ZM99.1755 65.2133C100.513 65.0624 101.807 66.0761 102.087 66.6584C100.373 66.8202 99.7147 66.3133 99.1755 65.2133ZM98.7441 66.2271C98 65.6878 97.3422 65.5153 96.3285 65.332C95.3148 65.1486 94.2363 64.8575 93.6756 64.7065C93.104 64.5555 95.5844 65.4182 96.2099 65.6016C96.8353 65.7741 98.7441 66.2271 98.7441 66.2271ZM94.6569 64.6418C94.8618 63.3585 94.355 62.0212 93.2011 61.482C92.9315 62.4094 93.7618 63.9839 94.6569 64.6418ZM92.6942 63.9732C93.3197 62.9163 92.2628 61.5359 91.4971 60.8673C91.1413 61.5144 91.7668 63.4232 92.6942 63.9732ZM90.8717 63.1536C91.5403 62.2477 90.753 60.6516 89.9227 60.0261C89.5883 60.9104 89.9119 62.5281 90.8717 63.1536ZM89.0491 62.0104C89.653 61.1477 89.2325 59.8105 88.3697 58.9477C87.7442 59.6595 88.2727 61.2124 89.0491 62.0104ZM87.5933 60.8565C88.1001 60.0477 87.4746 58.1173 86.6658 57.5781C86.3099 58.2899 86.5795 60.3173 87.5933 60.8565ZM86.4286 60.5546C86.5795 59.3899 84.5521 58.1066 83.7109 58.1389C83.808 59.0987 84.6707 60.1448 86.4286 60.5546ZM87.5609 61.8702C86.6119 60.8889 84.757 60.8889 84.0992 61.0938C84.2825 61.6653 86.4609 62.9163 87.5609 61.8702Z" fill="#006651"/>
<path d="M88.876 62.8505C87.5387 62.4946 86.6652 62.1927 85.8672 63.0338C86.428 63.7456 88.6064 63.5407 88.876 62.8505ZM90.7848 63.7132C89.5015 63.0231 87.9485 64.0368 87.7113 64.6407C89.1456 65.2338 90.8064 63.8642 90.7848 63.7132ZM92.5426 64.7054C91.3779 64.2632 90.0407 64.8564 89.5015 65.5142C90.127 65.8054 91.7662 66.1289 92.5426 64.7054ZM94.1495 65.2123C92.8122 65.0613 91.5181 66.075 91.2377 66.6574C92.9524 66.8191 93.6103 66.3123 94.1495 65.2123Z" fill="#006651"/>
</g>
<path d="M67.8158 205.5L68.7364 205.494C75.9374 205.404 81.6316 204.137 81.6316 196.816C81.6316 189.186 75.446 183 67.8158 183C60.1855 183 54 189.186 54 196.816C54 204.446 60.1855 205.5 67.8158 205.5Z" fill="#9CC93A"/>
<path d="M98.8158 205.5L99.7364 205.494C106.937 205.404 112.632 204.137 112.632 196.816C112.632 189.186 106.446 183 98.8158 183C91.1855 183 85 189.186 85 196.816C85 204.446 91.1855 205.5 98.8158 205.5Z" fill="#9CC93A"/>
<path d="M128.816 205.5L129.736 205.494C136.937 205.404 142.632 204.137 142.632 196.816C142.632 189.186 136.446 183 128.816 183C121.186 183 115 189.186 115 196.816C115 204.446 121.186 205.5 128.816 205.5Z" fill="#9CC93A"/>
<path d="M253.561 29.8555C255.088 29.8555 256.327 31.0943 256.327 32.6221C256.327 34.0685 255.217 35.2538 253.802 35.376C254.09 36.0127 254.252 36.7186 254.252 37.4629C254.252 40.2639 251.982 42.5342 249.181 42.5342H257.94C260.741 42.5342 263.013 44.8055 263.013 47.6064H269.929C272.729 47.6066 275 49.8769 275 52.6777C275 55.4786 272.73 57.7498 269.929 57.75H262.332C261.455 59.2653 259.817 60.2852 257.94 60.2852H215.523C213.647 60.2852 212.009 59.2653 211.132 57.75H206.071C203.27 57.7498 201 55.4786 201 52.6777C201 49.8769 203.271 47.6066 206.071 47.6064H210.452C210.452 44.8055 212.722 42.5342 215.523 42.5342H221.748C221.748 39.7334 224.018 37.4629 226.819 37.4629H235.349C235.349 34.6619 237.62 32.3916 240.421 32.3916H249.181C249.746 32.3916 250.288 32.4849 250.796 32.6553C250.796 32.6442 250.795 32.6332 250.795 32.6221C250.795 31.0943 252.033 29.8556 253.561 29.8555Z" fill="white"/>
<path d="M140.047 2C143.684 2 146.634 4.94858 146.634 8.58594C146.634 8.65081 146.631 8.71586 146.629 8.78027H148.184C150.537 8.78048 152.445 10.6884 152.445 13.042H155.738C158.092 13.042 160 14.95 160 17.3037C160 19.6574 158.092 21.5654 155.738 21.5654H153.229C152.493 22.8389 151.116 23.6963 149.539 23.6963H133.461C131.884 23.6963 130.507 22.8389 129.771 21.5654H127.262C124.908 21.5654 123 19.6574 123 17.3037C123 14.95 124.908 13.042 127.262 13.042H127.843C127.843 10.6883 129.751 8.78037 132.104 8.78027H133.466C133.464 8.71585 133.461 8.65081 133.461 8.58594C133.461 4.94867 136.41 2.00015 140.047 2Z" fill="white"/>
</g>
<defs>
<clipPath id="clip0_102_69717">
<rect width="375" height="225" fill="white"/>
</clipPath>
<clipPath id="clip1_102_69717">
<rect width="55.3231" height="36.882" fill="white" transform="translate(69 33)"/>
</clipPath>
</defs>
</svg>
