<svg width="375" height="225" viewBox="0 0 375 225" fill="none" xmlns="http://www.w3.org/2000/svg">
<path fill-rule="evenodd" clip-rule="evenodd" d="M276.252 195.999C296.287 195.999 312.528 193.273 312.528 189.911C312.528 186.548 296.287 183.822 276.252 183.822C256.218 183.822 239.977 186.548 239.977 189.911C239.977 193.273 256.218 195.999 276.252 195.999Z" fill="#A0A09F" fill-opacity="0.15"/>
<path d="M255.427 104.034C256.219 102.847 257.543 102.139 258.969 102.139C260.002 102.139 260.999 102.514 261.775 103.196L263.924 105.083L299.755 108.92C301.236 109.079 302.566 109.876 303.404 111.108C303.966 111.934 304.601 113.049 305.061 114.382C306.242 114.418 307.358 114.935 308.216 115.849C310.299 118.065 310.239 121.79 310.17 122.879C310.074 124.429 308.924 125.708 307.394 125.971L307.387 125.972C307.334 125.981 307.032 126.032 306.494 126.111C304.62 143.317 300.35 183.823 299.543 189.322C298.735 194.821 286.529 194.956 277.773 195.238C267.988 195.554 253.928 194.477 253.226 189.645C252.524 184.812 247.14 138.936 245.6 126.07C245.157 125.972 244.916 125.904 244.838 125.881C243.339 125.436 242.347 124.014 242.448 122.454C242.459 122.294 242.562 120.849 242.961 119.342C244.104 115.024 246.664 114.379 248.088 114.379H248.222L249.329 109.116C249.936 106.233 252.481 104.127 255.412 104.057L255.427 104.034Z" fill="white"/>
<path fill-rule="evenodd" clip-rule="evenodd" d="M245.789 122.67C245.789 122.67 246.11 117.727 248.087 117.727H250.938L252.605 109.805C252.922 108.298 254.322 107.269 255.855 107.417L257.115 107.538L258.213 105.89C258.517 105.434 259.153 105.35 259.566 105.712L262.512 108.299L299.398 112.249C299.9 112.303 300.351 112.573 300.636 112.992C301.253 113.899 302.24 115.655 302.343 117.727H304.928C306.22 117.727 306.98 120.236 306.828 122.67C306.828 122.67 295.312 124.647 276.156 124.647C252.44 124.647 245.789 122.67 245.789 122.67Z" fill="#461E00"/>
<path fill-rule="evenodd" clip-rule="evenodd" d="M248.906 125.51C248.906 125.51 256.32 187.483 256.545 189.213C256.888 191.836 265.85 192.448 275.998 192.448C286.145 192.448 295.883 191.38 296.225 188.87C296.567 186.361 303.18 125.567 303.18 125.567C303.18 125.567 294.914 127.163 275.588 127.163C258.997 127.163 248.906 125.51 248.906 125.51Z" fill="#FFBC0D"/>
<g style="mix-blend-mode:multiply" opacity="0.5">
<path d="M303.18 125.566C303.172 125.633 296.567 186.362 296.225 188.87C295.988 190.607 291.249 191.653 284.988 192.133C286.624 176.286 288.638 145.416 289.821 126.828C299.005 126.363 303.135 125.575 303.18 125.566Z" fill="#D6D6D6"/>
</g>
<path fill-rule="evenodd" clip-rule="evenodd" d="M279.278 178.558C280.258 178.484 281.049 182.501 281.049 187.591C281.52 187.53 281.991 187.458 282.46 187.376C282.46 181.893 281.043 177.718 279.278 177.849C278.275 177.926 277.377 179.278 276.79 181.367C276.204 179.278 275.306 177.926 274.302 177.849C272.538 177.718 271.121 181.892 271.121 187.376C271.59 187.458 272.06 187.53 272.531 187.591C272.531 182.501 273.323 178.484 274.302 178.558C275.283 178.633 276.079 182.452 276.079 187.151C276.553 187.161 277.027 187.161 277.502 187.151C277.501 182.452 278.298 178.633 279.278 178.558Z" fill="#EC9D47"/>
<ellipse cx="187.467" cy="171.284" rx="34.4629" ry="6.4618" fill="#A0A09F" fill-opacity="0.15"/>
<path d="M190.592 30.0283L196.218 30.8184C197.771 31.0368 198.853 32.4731 198.635 34.0264L192.882 74.9561L193.103 74.9658C195.754 75.0862 198.405 75.2788 201.057 75.543L202.192 75.6602C204.242 75.8803 205.949 77.307 206.54 79.2607L206.568 79.3594H213.407C215.579 79.3594 217.44 80.8951 217.863 83.0117L217.891 83.1572L218.789 88.5498C219.005 89.8443 218.311 91.065 217.195 91.5889L217.148 91.6094L217.119 92.0215C216.426 103.994 215.571 115.994 214.554 128.021L214.272 131.301C213.131 144.426 211.803 157.519 210.288 170.58C210.135 171.898 209.09 172.934 207.771 173.076C201.082 173.799 194.392 174.182 187.692 174.225L186.447 174.229C179.339 174.229 172.231 173.845 165.123 173.076C163.804 172.934 162.759 171.897 162.606 170.579C161.086 157.454 159.758 144.361 158.622 131.301C158.054 124.77 157.533 118.232 157.059 111.683L156.825 108.411C156.443 102.954 156.093 97.4906 155.777 92.0459L155.748 91.6104L155.694 91.5869C154.615 91.0776 153.932 89.9154 154.088 88.667L154.105 88.5498L155.004 83.1572C155.369 80.9659 157.266 79.3594 159.487 79.3594H166.326L166.354 79.2607C166.931 77.3571 168.565 75.954 170.545 75.6797L170.702 75.6602C173.987 75.3074 177.273 75.0655 180.559 74.9336L181.416 74.9014L187.384 32.4453C187.602 30.8919 189.038 29.81 190.592 30.0283Z" fill="white"/>
<path fill-rule="evenodd" clip-rule="evenodd" d="M158.609 91.8574C167.888 92.6149 177.167 92.9936 186.445 92.9936C195.724 92.9936 205.003 92.6149 214.281 91.8574C213.527 104.891 212.58 117.957 211.441 131.055C210.302 144.153 208.976 157.219 207.464 170.252C200.458 171.01 193.452 171.389 186.445 171.389C179.439 171.389 172.433 171.01 165.426 170.252C163.909 157.154 162.583 144.089 161.45 131.055C160.316 118.021 159.37 104.955 158.609 91.8574Z" fill="white"/>
<path fill-rule="evenodd" clip-rule="evenodd" d="M214.281 91.8574C214.281 91.8574 213.149 111.408 211.441 131.055C209.732 150.702 207.464 170.252 207.464 170.252C207.464 170.252 196.955 171.389 186.445 171.389C194.729 171.389 198.895 145.181 198.943 92.7659C207.464 92.4255 214.281 91.8574 214.281 91.8574Z" fill="#EAEAEA"/>
<path fill-rule="evenodd" clip-rule="evenodd" d="M170.616 127.319C167.956 117.952 164.12 111.4 159.746 109.48C159.744 109.467 159.744 109.467 160.158 115.093C163.989 121.188 166.747 138.314 166.747 158.485H174.487C174.487 133.208 178.818 112.713 184.162 112.713C189.505 112.713 193.838 134.914 193.838 162.298H201.576C201.576 132.807 193.78 108.898 184.162 108.898C178.691 108.898 173.81 116.084 170.616 127.319Z" fill="#FFBC0D"/>
<g style="mix-blend-mode:multiply" opacity="0.24">
<path d="M197.981 129.814C200.234 138.814 201.575 150.076 201.575 162.298H193.838C193.838 161.879 193.834 161.461 193.832 161.045C195.763 154.116 197.145 143.706 197.981 129.814Z" fill="#ADADAD"/>
</g>
<path d="M190.195 32.8398L195.821 33.6305L189.314 79.9307L183.578 79.923L190.195 32.8398Z" fill="#A0A09F" fill-opacity="0.15"/>
<path d="M193.008 33.4805L194.695 33.7177L188.166 80.1745L186.446 80.1722L193.008 33.4805Z" fill="#EAEAEA"/>
<path fill-rule="evenodd" clip-rule="evenodd" d="M159.486 82.1992H213.407C214.24 82.1992 214.951 82.8015 215.088 83.6233L215.987 89.0162C206.14 89.7736 196.293 90.1523 186.446 90.1523C176.6 90.1523 166.753 89.7736 156.906 89.0162L157.805 83.6233C157.942 82.8015 158.653 82.1992 159.486 82.1992Z" fill="#EAEAEA"/>
<path fill-rule="evenodd" clip-rule="evenodd" d="M171.004 78.4835C176.152 77.9307 181.299 77.6543 186.446 77.6543C191.594 77.6543 196.741 77.9307 201.889 78.4835C202.846 78.5863 203.635 79.2818 203.857 80.2191L204.057 81.0628H168.836L169.036 80.2191C169.258 79.2818 170.047 78.5863 171.004 78.4835Z" fill="#EAEAEA"/>
<ellipse cx="99.1556" cy="169.19" rx="44.1556" ry="6.4618" fill="#A0A09F" fill-opacity="0.15"/>
<mask id="path-18-outside-1_17_28579" maskUnits="userSpaceOnUse" x="58.4609" y="69.2637" width="82" height="103" fill="black">
<rect fill="white" x="58.4609" y="69.2637" width="82" height="103"/>
<path d="M90.8008 72.2881C91.4312 78.0487 91.8705 83.7544 92.1289 89.4297C92.5821 84.6202 93.0988 79.808 93.6875 74.9893C96.3097 75.338 100.003 77.8503 99.8877 78.8438C97.9609 95.3976 98.5225 99.3691 98.5225 99.3691C99.912 94.2254 99.9385 91.2386 100.945 86.2109C101.832 85.5018 104.278 84.5277 106.539 84.5781C106.483 83.6599 106.366 82.0757 106.3 81.1533C106.864 79.1274 109.915 77.6106 113.2 77.3486C113.785 84.387 113.914 88.307 114.171 95.083C114.427 91.3473 114.794 88.9663 115.479 84.6719C116.52 82.8001 119.896 82.3722 122.488 82.8955C121.225 90.418 120.796 94.4505 120.499 101.72C122.006 95.8721 122.633 93.7614 123.263 88.0137C125.558 88.232 127.916 88.881 129.055 90.1465C129.5 88.524 129.756 87.6795 130.171 86.0449C130.414 85.0897 134.073 84.4124 136.849 85.1865C135.839 91.7491 134.83 96.4192 132.933 102.745L132.541 104.034L131.967 106.188H134.695C134.695 106.188 132.813 121.048 129.812 136.073C126.82 151.058 122.78 165.88 122.759 165.959L118.418 169.19C118.418 169.19 109.736 165.959 98.8848 165.959C88.0329 165.959 79.8936 169.19 79.8936 169.19L75.5527 165.959C75.532 165.883 71.4593 150.896 68.499 136.073C65.5313 121.213 63.6162 106.188 63.6162 106.188H66.7471L65.7686 104.034L65.4912 103.371C64.0972 100.099 62.6165 97.4172 61.4658 93.9072C61.3212 93.4652 64.5566 88.5785 67.1006 87.8545C68.3289 91.8255 69.682 95.683 71.1367 99.46C70.517 93.7128 68.9358 87.8682 67.5186 82.0361C70.0748 81.3566 74.6783 82.7408 74.7803 83.1943C76.4593 90.6468 77.3956 92.9863 78.7051 100.351C78.4035 94.2644 78.2231 92.2295 77.2969 87.5791C77.1041 86.612 80.8405 83.8225 83.459 83.627C84.3891 87.7842 84.8125 90.33 85.8301 97.2305C85.7679 89.6273 85.7475 87.8277 84.6299 76.4688C84.5332 75.4875 88.806 71.9369 90.8008 72.2881Z"/>
</mask>
<path d="M90.8008 72.2881C91.4312 78.0487 91.8705 83.7544 92.1289 89.4297C92.5821 84.6202 93.0988 79.808 93.6875 74.9893C96.3097 75.338 100.003 77.8503 99.8877 78.8438C97.9609 95.3976 98.5225 99.3691 98.5225 99.3691C99.912 94.2254 99.9385 91.2386 100.945 86.2109C101.832 85.5018 104.278 84.5277 106.539 84.5781C106.483 83.6599 106.366 82.0757 106.3 81.1533C106.864 79.1274 109.915 77.6106 113.2 77.3486C113.785 84.387 113.914 88.307 114.171 95.083C114.427 91.3473 114.794 88.9663 115.479 84.6719C116.52 82.8001 119.896 82.3722 122.488 82.8955C121.225 90.418 120.796 94.4505 120.499 101.72C122.006 95.8721 122.633 93.7614 123.263 88.0137C125.558 88.232 127.916 88.881 129.055 90.1465C129.5 88.524 129.756 87.6795 130.171 86.0449C130.414 85.0897 134.073 84.4124 136.849 85.1865C135.839 91.7491 134.83 96.4192 132.933 102.745L132.541 104.034L131.967 106.188H134.695C134.695 106.188 132.813 121.048 129.812 136.073C126.82 151.058 122.78 165.88 122.759 165.959L118.418 169.19C118.418 169.19 109.736 165.959 98.8848 165.959C88.0329 165.959 79.8936 169.19 79.8936 169.19L75.5527 165.959C75.532 165.883 71.4593 150.896 68.499 136.073C65.5313 121.213 63.6162 106.188 63.6162 106.188H66.7471L65.7686 104.034L65.4912 103.371C64.0972 100.099 62.6165 97.4172 61.4658 93.9072C61.3212 93.4652 64.5566 88.5785 67.1006 87.8545C68.3289 91.8255 69.682 95.683 71.1367 99.46C70.517 93.7128 68.9358 87.8682 67.5186 82.0361C70.0748 81.3566 74.6783 82.7408 74.7803 83.1943C76.4593 90.6468 77.3956 92.9863 78.7051 100.351C78.4035 94.2644 78.2231 92.2295 77.2969 87.5791C77.1041 86.612 80.8405 83.8225 83.459 83.627C84.3891 87.7842 84.8125 90.33 85.8301 97.2305C85.7679 89.6273 85.7475 87.8277 84.6299 76.4688C84.5332 75.4875 88.806 71.9369 90.8008 72.2881Z" fill="white"/>
<path d="M90.8008 72.2881L93.4772 71.9952C93.347 70.8051 92.4466 69.844 91.2676 69.6364L90.8008 72.2881ZM92.1289 89.4297L89.4393 89.5521C89.5036 90.9649 90.6499 92.0871 92.0637 92.1213C93.4775 92.1556 94.6768 91.0902 94.8095 89.6822L92.1289 89.4297ZM93.6875 74.9893L94.0424 72.3203C93.3297 72.2255 92.6086 72.4198 92.0399 72.8598C91.4712 73.2998 91.1021 73.949 91.015 74.6628L93.6875 74.9893ZM99.8877 78.8438L102.562 79.155L102.562 79.1537L99.8877 78.8438ZM98.5225 99.3691L95.8566 99.7461C96.0356 101.012 97.0803 101.978 98.3565 102.056C99.6326 102.135 100.788 101.306 101.122 100.071L98.5225 99.3691ZM100.945 86.2109L99.264 84.1081C98.7692 84.5037 98.4297 85.0611 98.3053 85.6823L100.945 86.2109ZM106.539 84.5781L106.479 87.2699C107.232 87.2867 107.957 86.9875 108.479 86.445C109.001 85.9025 109.272 85.1661 109.227 84.4146L106.539 84.5781ZM106.3 81.1533L103.706 80.4314C103.623 80.7291 103.592 81.0388 103.614 81.347L106.3 81.1533ZM113.2 77.3486L115.883 77.1259C115.761 75.6474 114.465 74.5468 112.986 74.6647L113.2 77.3486ZM114.171 95.083L111.48 95.185C111.535 96.6153 112.698 97.7532 114.13 97.7751C115.561 97.797 116.759 96.6954 116.857 95.2674L114.171 95.083ZM115.479 84.6719L113.126 83.3629C112.973 83.6377 112.869 83.9373 112.82 84.2479L115.479 84.6719ZM122.488 82.8955L125.144 83.3414C125.384 81.9089 124.445 80.5437 123.021 80.2563L122.488 82.8955ZM120.499 101.72L117.809 101.61C117.753 102.986 118.744 104.182 120.106 104.383C121.468 104.584 122.763 103.725 123.106 102.392L120.499 101.72ZM123.263 88.0137L123.518 85.3334C122.052 85.194 120.747 86.2572 120.586 87.7203L123.263 88.0137ZM129.055 90.1465L127.053 91.9477C127.712 92.6794 128.717 92.9933 129.675 92.7664C130.633 92.5395 131.391 91.8079 131.651 90.8585L129.055 90.1465ZM130.171 86.0449L127.562 85.3802L127.561 85.3827L130.171 86.0449ZM136.849 85.1865L139.51 85.5959C139.717 84.2488 138.885 82.9593 137.572 82.5931L136.849 85.1865ZM132.933 102.745L135.509 103.528L135.512 103.518L132.933 102.745ZM132.541 104.034L129.965 103.252C129.956 103.281 129.947 103.311 129.94 103.34L132.541 104.034ZM131.967 106.188L129.365 105.494C129.15 106.302 129.322 107.164 129.832 107.828C130.341 108.491 131.13 108.88 131.967 108.88V106.188ZM134.695 106.188L137.366 106.526C137.464 105.759 137.226 104.987 136.715 104.407C136.204 103.827 135.468 103.495 134.695 103.495V106.188ZM129.812 136.073L132.453 136.601H132.453L129.812 136.073ZM122.759 165.959L124.367 168.119C124.85 167.759 125.198 167.248 125.356 166.667L122.759 165.959ZM118.418 169.19L117.479 171.714C118.334 172.032 119.293 171.895 120.026 171.35L118.418 169.19ZM98.8848 165.959L98.8848 163.267H98.8848V165.959ZM79.8936 169.19L78.2858 171.35C79.0348 171.908 80.0192 172.037 80.8871 171.693L79.8936 169.19ZM75.5527 165.959L72.9546 166.665C73.1127 167.247 73.4615 167.759 73.945 168.119L75.5527 165.959ZM68.499 136.073L65.8587 136.601L68.499 136.073ZM63.6162 106.188V103.495C62.8428 103.495 62.1068 103.828 61.5956 104.408C61.0845 104.989 60.8476 105.761 60.9454 106.528L63.6162 106.188ZM66.7471 106.188V108.88C67.6624 108.88 68.5151 108.415 69.0107 107.645C69.5063 106.876 69.577 105.907 69.1983 105.074L66.7471 106.188ZM65.7686 104.034L63.2847 105.073C63.2952 105.098 63.3061 105.123 63.3174 105.148L65.7686 104.034ZM65.4912 103.371L67.9751 102.332C67.9728 102.327 67.9705 102.321 67.9682 102.316L65.4912 103.371ZM61.4658 93.9072L58.9068 94.7443L58.9074 94.746L61.4658 93.9072ZM67.1006 87.8545L69.6728 87.0588C69.2404 85.661 67.7708 84.8644 66.3636 85.2649L67.1006 87.8545ZM71.1367 99.46L68.6242 100.428C69.1101 101.689 70.4563 102.395 71.7703 102.077C73.0842 101.759 73.9586 100.515 73.8136 99.1713L71.1367 99.46ZM67.5186 82.0361L66.8269 79.4341C65.4115 79.8103 64.5565 81.2488 64.9023 82.6719L67.5186 82.0361ZM74.7803 83.1943L72.1535 83.7851L72.1537 83.7861L74.7803 83.1943ZM78.7051 100.351L76.0542 100.822C76.303 102.221 77.5961 103.186 79.008 103.026C80.4199 102.866 81.4645 101.637 81.3942 100.217L78.7051 100.351ZM77.2969 87.5791L79.9374 87.0532L79.9373 87.0527L77.2969 87.5791ZM83.459 83.627L86.0864 83.0391C85.7947 81.7352 84.5909 80.8425 83.2584 80.942L83.459 83.627ZM85.8301 97.2305L83.1665 97.6232C83.3729 99.0229 84.6274 100.024 86.038 99.9148C87.4486 99.8056 88.534 98.6232 88.5224 97.2085L85.8301 97.2305ZM84.6299 76.4688L87.3094 76.2051L87.3093 76.2048L84.6299 76.4688ZM90.8008 72.2881L88.1243 72.581C88.7486 78.2848 89.1835 83.9336 89.4393 89.5521L92.1289 89.4297L94.8185 89.3072C94.5576 83.5752 94.1139 77.8127 93.4772 71.9952L90.8008 72.2881ZM92.1289 89.4297L94.8095 89.6822C95.2604 84.8961 95.7746 80.1085 96.36 75.3157L93.6875 74.9893L91.015 74.6628C90.4231 79.5074 89.9037 84.3443 89.4484 89.1771L92.1289 89.4297ZM93.6875 74.9893L93.3326 77.6582C94.0998 77.7602 95.2956 78.2557 96.3571 78.9388C96.8669 79.267 97.223 79.5607 97.4081 79.7506C97.5044 79.8494 97.487 79.8516 97.431 79.7549C97.406 79.7116 97.1303 79.2489 97.2132 78.5338L99.8877 78.8438L102.562 79.1537C102.674 78.1903 102.308 77.4316 102.093 77.0595C101.847 76.6338 101.539 76.2741 101.264 75.9922C100.707 75.4207 99.9979 74.8783 99.2711 74.4106C97.8592 73.502 95.8974 72.567 94.0424 72.3203L93.6875 74.9893ZM99.8877 78.8438L97.2133 78.5325C96.2441 86.8591 95.8951 92.0682 95.7916 95.2259C95.7397 96.8059 95.749 97.8823 95.7741 98.5861C95.7867 98.9384 95.8034 99.2 95.8187 99.3869C95.8264 99.4804 95.8338 99.5557 95.8403 99.6148C95.8436 99.6443 95.8466 99.6698 95.8493 99.6916C95.8507 99.7025 95.852 99.7125 95.8532 99.7215C95.8538 99.7261 95.8544 99.7304 95.8549 99.7345C95.8552 99.7365 95.8555 99.7385 95.8558 99.7404C95.8559 99.7414 95.8561 99.7428 95.8562 99.7433C95.8564 99.7447 95.8566 99.7461 98.5225 99.3691C101.188 98.9922 101.189 98.9935 101.189 98.9949C101.189 98.9953 101.189 98.9966 101.189 98.9975C101.189 98.9992 101.19 99.0008 101.19 99.0023C101.19 99.0055 101.191 99.0083 101.191 99.0109C101.192 99.016 101.192 99.02 101.192 99.0229C101.193 99.0286 101.193 99.0298 101.193 99.0262C101.192 99.019 101.189 98.9928 101.185 98.9454C101.178 98.8504 101.165 98.6724 101.156 98.3938C101.136 97.8355 101.125 96.8844 101.173 95.4024C101.271 92.4359 101.604 87.3822 102.562 79.155L99.8877 78.8438ZM98.5225 99.3691L101.122 100.071C101.853 97.3633 102.225 95.2207 102.539 93.1504C102.855 91.0727 103.098 89.1715 103.585 86.7396L100.945 86.2109L98.3053 85.6823C97.7855 88.2781 97.5126 90.3841 97.2155 92.3427C96.9172 94.3086 96.5812 96.2312 95.9232 98.667L98.5225 99.3691ZM100.945 86.2109L102.627 88.3138C102.625 88.3152 102.659 88.2886 102.74 88.2392C102.819 88.1918 102.925 88.1336 103.058 88.0686C103.325 87.9378 103.666 87.7975 104.057 87.6708C104.858 87.4111 105.727 87.2531 106.479 87.2699L106.539 84.5781L106.599 81.8864C105.089 81.8527 103.605 82.1566 102.396 82.5486C101.234 82.9254 100.061 83.4705 99.264 84.1081L100.945 86.2109ZM106.539 84.5781L109.227 84.4146C109.169 83.4766 109.051 81.8689 108.985 80.9596L106.3 81.1533L103.614 81.347C103.682 82.2825 103.797 83.8432 103.852 84.7416L106.539 84.5781ZM106.3 81.1533L108.894 81.8753C108.892 81.8812 109.05 81.4711 109.999 80.9638C110.873 80.4964 112.089 80.1382 113.414 80.0325L113.2 77.3486L112.986 74.6647C111.026 74.821 109.074 75.3522 107.46 76.2152C105.921 77.0383 104.272 78.3995 103.706 80.4314L106.3 81.1533ZM113.2 77.3486L110.517 77.5714C111.096 84.5426 111.223 88.4075 111.48 95.185L114.171 95.083L116.861 94.981C116.604 88.2065 116.473 84.2315 115.883 77.1259L113.2 77.3486ZM114.171 95.083L116.857 95.2674C117.105 91.6608 117.454 89.3815 118.137 85.0959L115.479 84.6719L112.82 84.2479C112.133 88.551 111.75 91.0338 111.485 94.8986L114.171 95.083ZM115.479 84.6719L117.831 85.9809C117.795 86.0468 117.969 85.7298 118.961 85.5193C119.861 85.3283 120.979 85.3376 121.956 85.5347L122.488 82.8955L123.021 80.2563C121.405 79.9301 119.539 79.8917 117.843 80.2518C116.238 80.5924 114.204 81.4253 113.126 83.3629L115.479 84.6719ZM122.488 82.8955L119.833 82.4496C118.552 90.0767 118.11 94.2215 117.809 101.61L120.499 101.72L123.189 101.83C123.481 94.6794 123.898 90.7592 125.144 83.3414L122.488 82.8955ZM120.499 101.72L123.106 102.392C124.612 96.5485 125.286 94.2682 125.939 88.307L123.263 88.0137L120.586 87.7203C119.98 93.2545 119.4 95.1957 117.892 101.048L120.499 101.72ZM123.263 88.0137L123.008 90.694C124.008 90.7891 124.954 90.9733 125.722 91.2355C126.53 91.511 126.918 91.7969 127.053 91.9477L129.055 90.1465L131.056 88.3453C130.053 87.2306 128.692 86.5592 127.462 86.1393C126.193 85.706 124.812 85.4565 123.518 85.3334L123.263 88.0137ZM129.055 90.1465L131.651 90.8585C132.081 89.2922 132.358 88.3733 132.781 86.7072L130.171 86.0449L127.561 85.3827C127.154 86.9857 126.918 87.7559 126.458 89.4345L129.055 90.1465ZM130.171 86.0449L132.78 86.7097C132.621 87.3324 132.262 87.6657 132.148 87.7615C132.018 87.8709 131.947 87.8915 132.014 87.8619C132.144 87.8046 132.458 87.7043 132.956 87.6304C133.954 87.4821 135.172 87.5141 136.125 87.78L136.849 85.1865L137.572 82.5931C135.75 82.0849 133.75 82.0684 132.165 82.304C131.37 82.422 130.551 82.6218 129.839 82.936C129.485 83.0921 129.067 83.3163 128.68 83.6425C128.308 83.9552 127.781 84.5186 127.562 85.3802L130.171 86.0449ZM136.849 85.1865L134.188 84.7771C133.195 91.2311 132.211 95.7783 130.354 101.972L132.933 102.745L135.512 103.518C137.448 97.0601 138.483 92.2672 139.51 85.5959L136.849 85.1865ZM132.933 102.745L130.356 101.963L129.965 103.252L132.541 104.034L135.117 104.817L135.509 103.528L132.933 102.745ZM132.541 104.034L129.94 103.34L129.365 105.494L131.967 106.188L134.568 106.881L135.143 104.728L132.541 104.034ZM131.967 106.188V108.88H134.695V106.188V103.495H131.967V106.188ZM134.695 106.188C132.024 105.849 132.024 105.849 132.024 105.849C132.024 105.849 132.024 105.849 132.024 105.85C132.024 105.85 132.024 105.85 132.024 105.851C132.024 105.853 132.023 105.855 132.023 105.859C132.022 105.865 132.021 105.875 132.019 105.889C132.016 105.917 132.01 105.958 132.003 106.014C131.989 106.124 131.968 106.289 131.939 106.504C131.882 106.935 131.798 107.57 131.687 108.378C131.465 109.996 131.138 112.311 130.717 115.093C129.875 120.663 128.661 128.089 127.172 135.546L129.812 136.073L132.453 136.601C133.964 129.032 135.192 121.516 136.041 115.898C136.466 113.088 136.797 110.748 137.022 109.11C137.134 108.291 137.22 107.647 137.278 107.207C137.307 106.986 137.329 106.817 137.344 106.703C137.351 106.645 137.357 106.602 137.361 106.572C137.362 106.557 137.364 106.546 137.365 106.538C137.365 106.534 137.366 106.531 137.366 106.529C137.366 106.528 137.366 106.527 137.366 106.527C137.366 106.527 137.366 106.526 137.366 106.526C137.366 106.526 137.366 106.526 134.695 106.188ZM129.812 136.073L127.172 135.546C124.198 150.436 120.179 165.185 120.161 165.251L122.759 165.959L125.356 166.667C125.382 166.575 129.441 151.68 132.453 136.601L129.812 136.073ZM122.759 165.959L121.151 163.799L116.81 167.031L118.418 169.19L120.026 171.35L124.367 168.119L122.759 165.959ZM118.418 169.19C119.357 166.667 119.357 166.667 119.356 166.667C119.356 166.667 119.355 166.666 119.355 166.666C119.354 166.666 119.353 166.665 119.352 166.665C119.349 166.664 119.346 166.663 119.343 166.662C119.336 166.659 119.327 166.656 119.316 166.652C119.293 166.644 119.263 166.633 119.224 166.619C119.146 166.591 119.036 166.552 118.894 166.504C118.611 166.407 118.204 166.272 117.685 166.112C116.646 165.793 115.158 165.371 113.322 164.95C109.659 164.111 104.567 163.267 98.8848 163.267L98.8848 165.959L98.8847 168.651C104.054 168.651 108.729 169.423 112.12 170.199C113.811 170.587 115.171 170.973 116.099 171.259C116.563 171.402 116.919 171.519 117.153 171.599C117.27 171.639 117.357 171.67 117.412 171.69C117.439 171.699 117.459 171.706 117.47 171.71C117.475 171.713 117.479 171.714 117.481 171.714C117.481 171.715 117.482 171.715 117.481 171.715C117.481 171.715 117.481 171.714 117.48 171.714C117.48 171.714 117.48 171.714 117.48 171.714C117.479 171.714 117.479 171.714 118.418 169.19ZM98.8848 165.959V163.267C93.1991 163.267 88.2368 164.112 84.6958 164.956C82.9221 165.378 81.4959 165.802 80.5031 166.125C80.0064 166.286 79.6175 166.422 79.3469 166.52C79.2116 166.569 79.1059 166.609 79.031 166.637C78.9935 166.652 78.9638 166.663 78.9419 166.672C78.9309 166.676 78.922 166.679 78.915 166.682C78.9115 166.683 78.9085 166.685 78.906 166.686C78.9048 166.686 78.9037 166.687 78.9027 166.687C78.9022 166.687 78.9015 166.687 78.9013 166.688C78.9006 166.688 78.9001 166.688 79.8936 169.19C80.8871 171.693 80.8865 171.693 80.886 171.693C80.8859 171.693 80.8854 171.693 80.8852 171.694C80.8847 171.694 80.8843 171.694 80.8841 171.694C80.8835 171.694 80.8835 171.694 80.884 171.694C80.8849 171.694 80.8878 171.693 80.8926 171.691C80.9022 171.687 80.9195 171.68 80.9443 171.671C80.9939 171.652 81.0736 171.622 81.182 171.583C81.399 171.504 81.7307 171.388 82.1667 171.246C83.0391 170.963 84.326 170.579 85.9436 170.194C89.1853 169.422 93.7186 168.651 98.8848 168.651V165.959ZM79.8936 169.19L81.5013 167.031L77.1605 163.799L75.5527 165.959L73.945 168.119L78.2858 171.35L79.8936 169.19ZM75.5527 165.959L78.1509 165.253C78.1332 165.188 74.0807 150.274 71.1393 135.546L68.499 136.073L65.8587 136.601C68.8378 151.518 72.9308 166.578 72.9546 166.665L75.5527 165.959ZM68.499 136.073L71.1393 135.546C69.6666 128.172 68.453 120.745 67.6068 115.155C67.184 112.362 66.8536 110.031 66.6291 108.4C66.5168 107.585 66.4311 106.945 66.3735 106.509C66.3447 106.292 66.323 106.125 66.3085 106.013C66.3012 105.958 66.2958 105.916 66.2922 105.888C66.2904 105.874 66.2891 105.863 66.2882 105.857C66.2878 105.853 66.2875 105.851 66.2873 105.849C66.2872 105.848 66.2871 105.848 66.2871 105.847C66.287 105.847 66.287 105.847 66.287 105.847C66.287 105.847 66.287 105.847 63.6162 106.188C60.9454 106.528 60.9454 106.528 60.9454 106.528C60.9455 106.528 60.9455 106.529 60.9455 106.529C60.9456 106.53 60.9457 106.53 60.9458 106.531C60.9461 106.533 60.9465 106.536 60.947 106.54C60.948 106.548 60.9494 106.559 60.9514 106.574C60.9552 106.604 60.9609 106.648 60.9684 106.706C60.9834 106.822 61.0057 106.993 61.0351 107.215C61.0939 107.659 61.1809 108.309 61.2946 109.135C61.5218 110.785 61.8557 113.14 62.2826 115.961C63.1359 121.598 64.3637 129.114 65.8587 136.601L68.499 136.073ZM63.6162 106.188V108.88H66.7471V106.188V103.495H63.6162V106.188ZM66.7471 106.188L69.1983 105.074L68.2198 102.92L65.7686 104.034L63.3174 105.148L64.2959 107.301L66.7471 106.188ZM65.7686 104.034L68.2525 102.995L67.9751 102.332L65.4912 103.371L63.0073 104.41L63.2847 105.073L65.7686 104.034ZM65.4912 103.371L67.9682 102.316C66.4407 98.7305 65.1336 96.4525 64.0243 93.0685L61.4658 93.9072L58.9074 94.746C60.0993 98.3818 61.7536 101.467 63.0142 104.426L65.4912 103.371ZM61.4658 93.9072L64.0248 93.0701C64.1792 93.5421 64.1579 93.9322 64.1441 94.0893C64.1276 94.2766 64.0932 94.4153 64.0755 94.4805C64.0402 94.6103 64.0072 94.6774 64.0184 94.6525C64.0351 94.6153 64.0978 94.4901 64.229 94.2741C64.4829 93.8558 64.8816 93.2802 65.3663 92.6823C65.8532 92.0819 66.3805 91.5165 66.8826 91.0845C67.425 90.6177 67.7525 90.4683 67.8376 90.4441L67.1006 87.8545L66.3636 85.2649C65.1766 85.6027 64.1457 86.3356 63.3705 87.0026C62.555 87.7042 61.8055 88.524 61.1836 89.2909C60.5596 90.0605 60.0175 90.8347 59.626 91.4796C59.4344 91.7952 59.2483 92.1299 59.1057 92.4474C59.0374 92.5998 58.9472 92.8179 58.8792 93.0682C58.845 93.1937 58.8004 93.385 58.78 93.6167C58.7623 93.8183 58.7434 94.2447 58.9068 94.7443L61.4658 93.9072ZM67.1006 87.8545L64.5284 88.6501C65.7763 92.6843 67.1497 96.5993 68.6242 100.428L71.1367 99.46L73.6492 98.4923C72.2143 94.7667 70.8816 90.9667 69.6728 87.0588L67.1006 87.8545ZM71.1367 99.46L73.8136 99.1713C73.1696 93.1995 71.5258 87.124 70.1348 81.4003L67.5186 82.0361L64.9023 82.6719C66.3459 88.6124 67.8643 94.2261 68.4598 99.7486L71.1367 99.46ZM67.5186 82.0361L68.2103 84.6382C68.4744 84.568 68.9321 84.5218 69.5772 84.5554C70.1982 84.5878 70.872 84.6872 71.5057 84.823C72.1436 84.9597 72.6763 85.1193 73.0134 85.2462C73.1926 85.3137 73.2453 85.3454 73.2135 85.3273C73.2035 85.3216 73.0884 85.2576 72.9389 85.127C72.878 85.0738 72.3429 84.6275 72.1535 83.7851L74.7803 83.1943L77.4071 82.6035C77.2049 81.7044 76.6219 81.1942 76.4811 81.0712C76.2517 80.8709 76.0247 80.7313 75.8742 80.6457C75.5611 80.4678 75.2174 80.3222 74.9108 80.2067C74.2762 79.9678 73.4791 79.7388 72.6339 79.5577C71.0551 79.2194 68.7443 78.9244 66.8269 79.4341L67.5186 82.0361ZM74.7803 83.1943L72.1537 83.7861C73.8956 91.5176 74.752 93.4982 76.0542 100.822L78.7051 100.351L81.3559 99.8792C80.0392 92.4744 79.0231 89.7761 77.4068 82.6026L74.7803 83.1943ZM78.7051 100.351L81.3942 100.217C81.0892 94.0638 80.8996 91.8839 79.9374 87.0532L77.2969 87.5791L74.6563 88.105C75.5466 92.5751 75.7177 94.465 76.016 100.484L78.7051 100.351ZM77.2969 87.5791L79.9373 87.0527C80.0916 87.8265 79.8033 88.3519 79.7828 88.3911C79.7273 88.4967 79.7071 88.4969 79.8025 88.392C79.9839 88.1925 80.3371 87.8811 80.8393 87.539C81.9125 86.8081 83.0348 86.3586 83.6595 86.3119L83.459 83.627L83.2584 80.942C81.2647 81.0909 79.2095 82.1339 77.8081 83.0884C77.073 83.589 76.3646 84.1685 75.8178 84.7701C75.549 85.0658 75.2481 85.4441 75.015 85.8882C74.8168 86.2658 74.4539 87.0899 74.6564 88.1055L77.2969 87.5791ZM83.459 83.627L80.8315 84.2148C81.7394 88.2724 82.1513 90.7391 83.1665 97.6232L85.8301 97.2305L88.4937 96.8377C87.4738 89.921 87.0388 87.2959 86.0864 83.0391L83.459 83.627ZM85.8301 97.2305L88.5224 97.2085C88.4595 89.5213 88.4345 87.641 87.3094 76.2051L84.6299 76.4688L81.9504 76.7324C83.0604 88.0143 83.0763 89.7333 83.1378 97.2525L85.8301 97.2305ZM84.6299 76.4688L87.3093 76.2048C87.3525 76.6435 87.2619 76.9681 87.2169 77.1038C87.1671 77.254 87.1162 77.3409 87.1086 77.3539C87.0954 77.3764 87.1346 77.3085 87.2755 77.1517C87.5479 76.8485 87.9926 76.4428 88.533 76.0428C89.0736 75.6425 89.6174 75.3168 90.0652 75.1199C90.2869 75.0224 90.438 74.9774 90.5189 74.9602C90.6112 74.9406 90.5297 74.9742 90.334 74.9397L90.8008 72.2881L91.2676 69.6364C89.9635 69.4069 88.712 69.8325 87.8977 70.1905C86.9863 70.5912 86.0939 71.1486 85.3291 71.7148C84.564 72.2812 83.834 72.9251 83.2701 73.5527C82.9928 73.8613 82.6985 74.2289 82.4623 74.6321C82.2943 74.919 81.8503 75.716 81.9504 76.7327L84.6299 76.4688Z" fill="white" mask="url(#path-18-outside-1_17_28579)"/>
<path fill-rule="evenodd" clip-rule="evenodd" d="M63.6172 106.188H72.2329C72.2329 106.188 79.3524 126.65 98.8858 126.65C118.419 126.65 126.081 106.188 126.081 106.188H134.697C134.697 106.188 132.814 121.048 129.814 136.073C126.813 151.099 122.76 165.959 122.76 165.959L118.419 169.19C118.419 169.19 109.738 165.959 98.8858 165.959C88.0339 165.959 79.895 169.19 79.895 169.19L75.5542 165.959C75.5542 165.959 71.4683 150.934 68.5005 136.073C65.5327 121.213 63.6172 106.188 63.6172 106.188Z" fill="#D90007"/>
<path fill-rule="evenodd" clip-rule="evenodd" d="M104.357 133.111C101.93 133.111 99.7656 136.227 98.349 141.099C96.9338 136.227 94.7683 133.111 92.3414 133.111C88.0766 133.111 84.6172 143.478 84.6172 156.266H88.0505C88.0505 144.392 89.9725 134.766 92.3414 134.766C94.7118 134.766 96.6328 143.652 96.6328 154.613H100.066C100.066 143.652 101.987 134.766 104.357 134.766C106.726 134.766 108.648 144.392 108.648 156.266H112.08C112.08 143.478 108.622 133.111 104.357 133.111Z" fill="#FFBC0D"/>
<path fill-rule="evenodd" clip-rule="evenodd" d="M74.3845 104.034C74.3845 104.034 81.3848 124.497 99.1548 124.497C116.925 124.497 123.925 104.034 123.925 104.034C123.925 104.034 128.771 104.034 132.541 104.034C134.695 97.0339 135.772 92.1875 136.849 85.1873C134.073 84.413 130.413 85.0901 130.17 86.0456C129.755 87.6802 129.5 88.5241 129.055 90.1466C127.916 88.8811 125.557 88.2326 123.262 88.0144C122.632 93.7621 122.006 95.872 120.499 101.72C120.796 94.4503 121.225 90.4187 122.488 82.8962C119.895 82.3729 116.52 82.8002 115.478 84.672C114.794 88.9665 114.427 91.3475 114.17 95.0833C113.913 88.3073 113.785 84.3877 113.2 77.3494C109.915 77.6113 106.863 79.1275 106.299 81.1535C106.366 82.0761 106.483 83.6607 106.539 84.5788C104.277 84.5284 101.832 85.5019 100.945 86.211C99.9386 91.2389 99.9124 94.2253 98.5228 99.3691C98.5228 99.3691 97.9608 95.3981 99.8876 78.8442C100.003 77.8509 96.3099 75.3379 93.6875 74.9892C93.0989 79.808 92.5821 84.6201 92.1289 89.4297C91.8705 83.7543 91.4309 78.0488 90.8005 72.288C88.8057 71.9368 84.5329 75.4878 84.6296 76.469C85.7472 87.8281 85.7676 89.6276 85.8297 97.231C84.8122 90.3304 84.3891 87.7849 83.459 83.6277C80.8405 83.8232 77.1035 86.6121 77.2963 87.5793C78.2226 92.2298 78.4033 94.2646 78.7049 100.351C77.3954 92.9865 76.459 90.6471 74.7799 83.1945C74.6779 82.741 70.0748 81.3567 67.5185 82.0363C68.9358 87.8684 70.5168 93.7126 71.1366 99.4598C69.6819 95.6828 68.3292 91.8258 67.1008 87.8548C64.5567 88.5785 61.3209 93.4657 61.4656 93.9076C62.693 97.6516 64.2961 100.453 65.7688 104.034H74.3845Z" fill="#FFBC0D"/>
<ellipse cx="139.006" cy="198.538" rx="56.0022" ry="6.4618" fill="#A0A09F" fill-opacity="0.15"/>
<path d="M140.351 126.112C154.18 126.112 166.416 128.79 175.245 133.871C184.108 138.972 189.622 146.566 189.622 156.268C189.622 157.197 189.419 158.259 189.044 159.233C188.895 159.619 188.709 160.011 188.486 160.388L188.517 160.403C188.752 160.39 188.992 160.439 189.211 160.553L190.849 161.403H190.848C191.496 161.739 191.868 162.407 191.868 163.094V164.965C191.868 165.815 191.288 166.612 190.422 166.812C190.425 166.866 190.43 166.92 190.43 166.975C190.43 167.675 190.19 168.329 189.781 168.853C190.529 169.944 190.969 171.271 190.969 172.698V175.136C190.969 176.395 190.626 177.499 189.965 178.396C189.507 179.017 188.924 179.494 188.276 179.853V180.807C188.475 180.885 188.671 180.985 188.856 181.115C189.54 181.598 189.892 182.346 189.892 183.208C189.892 183.638 189.816 184.111 189.555 184.544C189.493 184.646 189.424 184.736 189.353 184.819V188.349C189.353 193.986 185.12 198.725 179.519 199.359C166.906 200.787 153.939 201.5 140.62 201.5C138.806 201.5 136.982 201.485 135.146 201.459C134.826 201.517 134.51 201.51 134.207 201.447C122.434 201.248 110.213 200.508 97.5449 199.227C91.9549 198.661 87.6844 194.005 87.5811 188.409V188.396L87.5801 188.214L87.5791 188.202V184C87.5791 183.643 87.7213 183.3 87.9736 183.048C88.2261 182.795 88.5688 182.653 88.9258 182.653H91.4678C91.5573 182.313 91.6952 181.999 91.8877 181.719V179.853C91.2417 179.495 90.6607 179.021 90.2031 178.402C89.5391 177.505 89.1954 176.398 89.1953 175.136V172.698C89.1953 171.076 89.7612 169.584 90.7051 168.42C90.4648 168.053 90.3109 167.625 90.2783 167.161C90.2772 167.145 90.2769 167.129 90.2764 167.113L90.2725 167.021V166.975C90.2725 166.499 90.3982 166.053 90.6172 165.666C90.5377 165.525 90.4723 165.375 90.4189 165.22C90.3256 165.035 90.2725 164.829 90.2725 164.614L90.2715 161.18C89.2057 159.968 88.6563 158.265 88.6562 156.807C88.6562 147.046 94.8432 139.332 104.266 134.129C113.684 128.928 126.511 126.112 140.351 126.112Z" fill="white" stroke="white" stroke-width="2.69242" stroke-linejoin="round"/>
<path fill-rule="evenodd" clip-rule="evenodd" d="M88.9258 188.277C88.9258 193.209 92.6106 197.352 97.5199 197.822C107.497 198.778 124.632 200.154 140.62 200.154C156.015 200.154 170.772 198.879 179.615 197.931C184.438 197.413 188.007 193.317 188.007 188.467V184H88.9258V188.277Z" fill="#EC9D47"/>
<path fill-rule="evenodd" clip-rule="evenodd" d="M184.409 167.337C187.289 167.337 189.624 169.737 189.624 172.698V175.136C189.624 177.151 188.543 178.398 186.944 178.99C186.679 178.916 186.374 178.886 186.05 178.886C186.039 178.886 161.838 179.1 158.562 179.498C156.669 179.606 155.392 179.712 154.732 179.814C136.579 182.643 128.915 178.369 120.217 177.483C114.525 176.903 109.171 177.268 105 178.296C104.955 178.307 103.237 178.556 102.283 178.613C100.575 178.715 99.0169 178.913 97.0048 178.852C95.8499 178.818 94.3248 179.35 93.4508 179.068C91.7279 178.514 90.543 177.245 90.543 175.136V172.698C90.543 169.737 92.8777 167.337 95.7578 167.337C115.845 166.251 130.963 165.703 141.111 165.692L141.43 165.691C150.981 165.691 165.307 166.24 184.409 167.337Z" fill="#73371F"/>
<path fill-rule="evenodd" clip-rule="evenodd" d="M155.155 182.805C155.82 182.703 157.105 182.599 159.011 182.492C162.309 182.099 186.674 181.888 186.685 181.888C187.715 181.888 188.549 182.18 188.549 183.208C188.549 184.349 187.724 184.241 186.597 184.43C185.094 184.683 183.486 184.817 181.773 184.833C179.487 184.853 172.627 184.701 161.192 184.377C160.575 184.36 159.386 184.415 157.624 184.544C156.781 184.805 155.809 185.042 154.699 185.229C143.846 187.067 140.421 192.197 136.301 198.895C132.325 205.358 129.561 184.874 116.362 184.312C107.563 183.937 100.373 184.174 94.7924 185.022C94.6586 185.026 94.5246 185.017 94.3926 184.996C93.2888 184.812 92.5431 184.311 92.7271 183.208C92.9652 181.781 94.1565 181.79 95.6019 181.697L96.8436 181.618C98.7954 181.719 100.631 181.719 102.35 181.618C103.311 181.562 105.04 181.316 105.086 181.305C109.285 180.29 114.675 179.93 120.406 180.503C129.163 181.378 136.878 185.598 155.155 182.805Z" fill="#FFBC0D"/>
<path d="M160.438 162.998C167.523 163.442 175.597 164.079 184.659 164.907L184.795 164.92H184.932C186.441 164.92 187.714 164.332 188.715 163.39C188.962 163.633 189.114 163.971 189.114 164.344C189.114 165.088 188.511 165.691 187.767 165.691H92.9676C92.317 165.691 91.7741 165.229 91.6484 164.616C92.226 164.813 92.8471 164.92 93.5062 164.92H93.634L93.7613 164.909C103.483 164.08 112.003 163.443 119.315 162.998L160.438 162.998Z" fill="#FFD90D"/>
<path d="M91.6211 166.965C91.6211 166.25 92.1773 165.669 92.8917 165.661C99.2203 165.587 127.338 165.264 134.969 165.264C142.667 165.264 179.812 165.592 187.637 165.663C188.454 165.67 189.087 166.334 189.087 167.151C189.087 167.815 188.647 168.399 188.005 168.568C186.554 168.952 184.028 169.572 182.865 169.572C181.545 169.572 180.217 169.356 178.87 169.085C177.539 168.817 176.191 168.495 174.817 168.273C173.517 168.063 103.213 168.242 92.8829 168.269C92.161 168.271 91.6211 167.687 91.6211 166.965Z" fill="#D90007"/>
<path d="M190.23 162.597C190.41 162.689 190.524 162.882 190.524 163.093V164.964C190.524 165.269 190.29 165.515 190 165.515C189.932 165.515 189.865 165.501 189.801 165.474C188.238 164.8 185.626 163.699 184.062 163.275L184.618 163.329L184.75 163.342H184.883C186.366 163.342 187.614 162.727 188.593 161.746C188.787 161.844 190.032 162.495 190.23 162.597Z" fill="#FFEBB8"/>
<path d="M125.834 165.157C126.019 165.277 126.112 165.496 126.07 165.712L125.717 167.531C125.66 167.823 125.378 168.014 125.086 167.957C125.028 167.946 124.972 167.925 124.92 167.895C121.491 165.928 117.976 164.401 114.375 163.314C117.096 163.131 119.671 162.971 122.101 162.834C123.284 163.539 124.528 164.313 125.834 165.157Z" fill="#FFEBB8"/>
<path d="M139.857 162.461C143.354 162.461 147.379 162.576 151.931 162.808C145.766 165.449 141.112 166.769 137.969 166.769C134.905 166.769 130.405 165.514 124.469 163.004C130.604 162.642 135.734 162.461 139.857 162.461Z" fill="#FFEBB8"/>
<path d="M123.881 162.75C123.877 164.198 123.493 165.634 122.692 166.918C120.216 170.887 117.555 175.152 109.685 170.227C106.207 168.05 104.786 166.003 104.496 164.052C111.615 163.5 117.955 163.073 123.513 162.77L123.881 162.75Z" fill="#E6E454"/>
<path d="M124.961 162.693C124.967 164.345 124.532 165.99 123.607 167.465C123.364 167.852 123.255 168.025 123.117 168.241C121.43 170.88 120.133 172.282 118.212 173.026C115.749 173.979 112.8 173.39 109.115 171.096C105.585 168.899 103.762 166.621 103.422 164.128C104.157 164.071 104.884 164.015 105.603 163.96C105.894 165.687 107.312 167.413 110.27 169.255C113.425 171.218 115.693 171.671 117.423 171.001C118.782 170.475 119.825 169.348 121.277 167.075C121.411 166.865 121.518 166.696 121.758 166.314C122.433 165.238 122.763 164.032 122.778 162.81C123.476 162.772 124.161 162.735 124.834 162.7L124.961 162.693Z" fill="#66881E"/>
<path d="M150.586 162.479C154.634 162.644 159.122 162.893 164.048 163.227C161.563 166.664 157.994 165.788 154.617 164.959C153.03 164.569 151.675 163.709 150.645 162.546L150.586 162.479Z" fill="#E6E454"/>
<path d="M149.188 162.424C150.155 162.459 151.148 162.499 152.168 162.544C152.943 163.192 153.864 163.671 154.896 163.921C155.329 164.025 155.521 164.072 155.761 164.127C158.354 164.733 159.871 164.819 161.197 164.279C161.782 164.04 162.32 163.666 162.811 163.134C163.641 163.187 164.485 163.243 165.342 163.302C164.445 164.716 163.344 165.668 162.029 166.204C160.154 166.967 158.27 166.86 155.258 166.157C155.06 166.111 154.895 166.071 154.612 166.003L154.376 165.946C152.237 165.429 150.475 164.183 149.255 162.518L149.188 162.424Z" fill="#66881E"/>
<path fill-rule="evenodd" clip-rule="evenodd" d="M157.066 162.799C162.385 163.103 168.309 163.525 174.836 164.067C173.903 164.579 173.014 165.196 172.172 165.941C168.432 169.253 165.975 173.679 164.817 172.197C163.659 170.715 163.659 167.329 162.468 165.73C161.536 164.479 160.045 163.541 157.267 162.848L157.066 162.799Z" fill="#FFBC0D"/>
<path fill-rule="evenodd" clip-rule="evenodd" d="M188.277 156.268C188.277 158.29 187.065 161.383 184.904 161.383C184.904 161.383 155.472 158.691 139.814 158.691C125.053 158.691 93.504 161.383 93.504 161.383C91.344 161.383 90.0039 158.829 90.0039 156.806C90.0039 138.606 112.992 127.459 140.352 127.459C167.713 127.459 188.277 138.067 188.277 156.268Z" fill="#EC9D47"/>
<path fill-rule="evenodd" clip-rule="evenodd" d="M136.016 146.112C135.26 145.703 135.013 144.779 135.464 144.047C135.915 143.315 138.464 141.254 138.875 141.476C139.286 141.698 138.654 144.796 138.203 145.528C137.752 146.26 136.773 146.521 136.016 146.112Z" fill="white"/>
<path fill-rule="evenodd" clip-rule="evenodd" d="M135.564 132.253C136.07 131.666 136.986 131.602 137.609 132.111C138.233 132.62 139.789 135.159 139.514 135.478C139.239 135.797 136.399 134.746 135.776 134.237C135.152 133.729 135.057 132.84 135.564 132.253Z" fill="white"/>
<path fill-rule="evenodd" clip-rule="evenodd" d="M119.295 146.358C118.788 146.945 117.873 147.009 117.249 146.5C116.626 145.991 115.07 143.452 115.345 143.133C115.62 142.814 118.46 143.865 119.083 144.374C119.706 144.883 119.801 145.771 119.295 146.358Z" fill="white"/>
<path fill-rule="evenodd" clip-rule="evenodd" d="M113.407 150.636C114.284 150.491 115.125 151.06 115.285 151.906C115.444 152.752 114.896 155.918 114.42 155.996C113.943 156.075 112.268 153.275 112.108 152.429C111.949 151.583 112.53 150.78 113.407 150.636Z" fill="white"/>
<path fill-rule="evenodd" clip-rule="evenodd" d="M94.099 155.946C94.6053 155.359 95.5211 155.296 96.1444 155.805C96.7677 156.314 98.3241 158.852 98.049 159.171C97.774 159.49 94.934 158.44 94.3107 157.931C93.6874 157.422 93.5926 156.533 94.099 155.946Z" fill="white"/>
<path fill-rule="evenodd" clip-rule="evenodd" d="M163.185 147.596C162.598 147.089 162.534 146.173 163.043 145.55C163.552 144.927 166.091 143.371 166.409 143.646C166.728 143.921 165.678 146.761 165.169 147.384C164.66 148.007 163.772 148.102 163.185 147.596Z" fill="white"/>
<path fill-rule="evenodd" clip-rule="evenodd" d="M158.642 134.481C159.519 134.337 160.359 134.906 160.519 135.752C160.679 136.597 160.13 139.764 159.654 139.842C159.178 139.921 157.503 137.12 157.343 136.275C157.183 135.429 157.765 134.626 158.642 134.481Z" fill="white"/>
<path fill-rule="evenodd" clip-rule="evenodd" d="M132.352 150.852C132.761 151.609 132.5 152.587 131.768 153.038C131.037 153.49 127.938 154.122 127.716 153.711C127.494 153.3 129.556 150.751 130.287 150.299C131.019 149.848 131.943 150.096 132.352 150.852Z" fill="white"/>
<path fill-rule="evenodd" clip-rule="evenodd" d="M142.025 151.638C142.531 151.051 143.447 150.987 144.07 151.496C144.693 152.005 146.25 154.544 145.975 154.863C145.7 155.181 142.86 154.131 142.236 153.622C141.613 153.113 141.518 152.225 142.025 151.638Z" fill="white"/>
<path fill-rule="evenodd" clip-rule="evenodd" d="M150.854 141.998C151.746 141.998 152.469 142.687 152.469 143.537C152.469 144.386 151.338 147.383 150.854 147.383C150.369 147.383 149.238 144.386 149.238 143.537C149.238 142.687 149.962 141.998 150.854 141.998Z" fill="white"/>
<path fill-rule="evenodd" clip-rule="evenodd" d="M181.061 148.247C181.648 148.754 181.712 149.67 181.203 150.293C180.694 150.916 178.155 152.473 177.837 152.197C177.518 151.922 178.568 149.082 179.077 148.459C179.586 147.836 180.474 147.741 181.061 148.247Z" fill="white"/>
<path fill-rule="evenodd" clip-rule="evenodd" d="M162.999 156.345C162.243 156.754 161.264 156.492 160.813 155.76C160.362 155.029 159.73 151.93 160.141 151.708C160.552 151.486 163.101 153.548 163.552 154.279C164.003 155.011 163.755 155.936 162.999 156.345Z" fill="white"/>
<path fill-rule="evenodd" clip-rule="evenodd" d="M123.389 133.92C124.281 133.92 125.004 134.609 125.004 135.458C125.004 136.308 123.873 139.305 123.389 139.305C122.904 139.305 121.773 136.308 121.773 135.458C121.773 134.609 122.497 133.92 123.389 133.92Z" fill="white"/>
<path fill-rule="evenodd" clip-rule="evenodd" d="M100.56 145.714C101.066 145.127 101.982 145.063 102.605 145.572C103.229 146.081 104.785 148.62 104.51 148.939C104.235 149.258 101.395 148.207 100.772 147.698C100.148 147.19 100.054 146.301 100.56 145.714Z" fill="white"/>
</svg>
