<svg width="375" height="225" viewBox="0 0 375 225" fill="none" xmlns="http://www.w3.org/2000/svg">
<ellipse cx="191.5" cy="204.5" rx="62" ry="10" fill="#A0A09F" fill-opacity="0.15"/>
<path fill-rule="evenodd" clip-rule="evenodd" d="M238.519 40.3044V28.5895C238.519 20.2521 231.755 13.5 223.42 13.5H150.773C142.437 13.5 135.674 20.2522 135.674 28.5895V37.2671C134.943 38.1674 134.5 39.3164 134.5 40.5853V46.4442C134.5 47.7119 134.943 48.8615 135.674 49.7624V50.8976C134.943 51.7985 134.5 52.9481 134.5 54.2159V64.2965C134.5 65.5642 134.943 66.7138 135.674 67.6147V194.41C135.674 202.747 142.437 209.5 150.773 209.5H223.42C231.756 209.5 238.519 202.747 238.519 194.41V60.0216C239.469 59.0651 240.057 57.748 240.057 56.2938V44.032C240.057 42.5775 239.469 41.2607 238.519 40.3044ZM235.016 42.7647C234.934 42.7483 234.85 42.7398 234.763 42.7398C234.68 42.7398 234.598 42.7493 234.519 42.7647V28.5895C234.519 22.4646 229.549 17.5 223.42 17.5H150.773C144.643 17.5 139.674 22.4646 139.674 28.5895V39.3049C139.019 39.3673 138.5 39.9154 138.5 40.5853V46.4442C138.5 47.114 139.019 47.6628 139.674 47.7245V52.9355C139.019 52.9973 138.5 53.546 138.5 54.2159V64.2965C138.5 64.9663 139.019 65.515 139.674 65.5768V194.41C139.674 200.535 144.643 205.5 150.773 205.5H223.42C229.55 205.5 234.519 200.535 234.519 194.41V57.561C234.598 57.5765 234.68 57.586 234.763 57.586C234.85 57.586 234.934 57.5774 235.016 57.561C235.608 57.4428 236.057 56.9182 236.057 56.2938V44.032C236.057 43.4075 235.607 42.8829 235.016 42.7647Z" fill="white"/>
<rect x="145.969" y="35.5098" width="84.3364" height="107.178" rx="16" fill="white"/>
<path d="M166.24 54.5664H175.971C176.643 54.5664 177.187 55.111 177.187 55.7828V65.5137C177.187 66.1855 176.643 66.7301 175.971 66.7301H166.24C165.568 66.7301 165.023 66.1855 165.023 65.5137V55.7828C165.023 55.111 165.568 54.5664 166.24 54.5664Z" fill="#292929"/>
<path d="M200.298 54.5664H210.029C210.701 54.5664 211.246 55.111 211.246 55.7828V65.5137C211.246 66.1855 210.701 66.7301 210.029 66.7301H200.298C199.627 66.7301 199.082 66.1855 199.082 65.5137V55.7828C199.082 55.111 199.627 54.5664 200.298 54.5664Z" fill="#292929"/>
<path d="M166.24 88.623H175.971C176.643 88.623 177.187 89.1676 177.187 89.8394V99.5704C177.187 100.242 176.643 100.787 175.971 100.787H166.24C165.568 100.787 165.023 100.242 165.023 99.5704V89.8394C165.023 89.1676 165.568 88.623 166.24 88.623Z" fill="#292929"/>
<path d="M199.081 80.1094C199.753 80.1094 200.297 80.654 200.297 81.3257V88.624H210.028V81.3257C210.028 80.654 210.573 80.1094 211.245 80.1094H218.543C219.215 80.1094 219.759 80.654 219.759 81.3257V88.624C219.759 89.2957 219.215 89.8403 218.543 89.8403H211.245V99.5713H218.543C219.215 99.5713 219.759 100.116 219.759 100.788V108.086C219.759 108.758 219.215 109.302 218.543 109.302H211.245C210.573 109.302 210.028 108.758 210.028 108.086V100.788H200.297V108.086C200.297 108.758 199.753 109.302 199.081 109.302H191.783C191.111 109.302 190.566 108.758 190.566 108.086V100.788C190.566 100.116 191.111 99.5713 191.783 99.5713H199.081V89.8403H191.783C191.111 89.8403 190.566 89.2957 190.566 88.624V81.3257C190.566 80.654 191.111 80.1094 191.783 80.1094H199.081Z" fill="#292929"/>
<path d="M180.835 80.1094C183.522 80.1094 185.7 82.2876 185.7 84.9746V104.437C185.7 107.124 183.522 109.302 180.835 109.302H161.373C158.686 109.302 156.508 107.124 156.508 104.437V84.9746C156.508 82.2877 158.686 80.1095 161.373 80.1094H180.835ZM161.373 83.7578C160.701 83.7578 160.156 84.3028 160.156 84.9746V104.437C160.156 105.108 160.701 105.653 161.373 105.653H180.835C181.507 105.653 182.051 105.108 182.051 104.437V84.9746C182.051 84.3029 181.507 83.7579 180.835 83.7578H161.373Z" fill="#292929"/>
<path d="M180.835 46.0508C183.522 46.0508 185.7 48.229 185.7 50.916V70.3779C185.7 73.0651 183.522 75.2432 180.835 75.2432H161.373C158.686 75.243 156.508 73.065 156.508 70.3779V50.916C156.508 48.2291 158.686 46.0509 161.373 46.0508H180.835ZM161.373 49.7002C160.701 49.7002 160.156 50.2452 160.156 50.917V70.3789C160.157 71.0505 160.701 71.5947 161.373 71.5947H180.835C181.507 71.5947 182.051 71.0504 182.051 70.3789V50.917C182.051 50.2452 181.507 49.7002 180.835 49.7002H161.373Z" fill="#292929"/>
<path d="M214.894 46.0508C217.581 46.0508 219.759 48.229 219.759 50.916V70.3779C219.759 73.0651 217.581 75.2432 214.894 75.2432H195.432C192.745 75.243 190.566 73.065 190.566 70.3779V50.916C190.567 48.2291 192.745 46.0509 195.432 46.0508H214.894ZM195.432 49.7002C194.76 49.7004 194.216 50.2444 194.216 50.916V70.3779C194.216 71.0496 194.76 71.5945 195.432 71.5947H214.894C215.565 71.5947 216.11 71.0497 216.11 70.3779V50.916C216.11 50.2443 215.565 49.7002 214.894 49.7002H195.432Z" fill="#292929"/>
<path d="M234.763 42.7398C234.68 42.7398 234.598 42.7493 234.519 42.7647V28.5895C234.519 22.4646 229.549 17.5 223.42 17.5H150.773C144.643 17.5 139.674 22.4646 139.674 28.5895V39.3049C139.019 39.3673 138.5 39.9154 138.5 40.5853V46.4442C138.5 47.114 139.019 47.6628 139.674 47.7245V52.9355C139.019 52.9973 138.5 53.546 138.5 54.2159V64.2965C138.5 64.9663 139.019 65.515 139.674 65.5768V194.41C139.674 200.535 144.643 205.5 150.773 205.5H223.42C229.55 205.5 234.519 200.535 234.519 194.41V57.561C234.598 57.5765 234.68 57.586 234.763 57.586C235.475 57.586 236.057 57.0046 236.057 56.2938V44.032C236.057 43.3211 235.474 42.7398 234.763 42.7398Z" fill="#292929"/>
<path d="M192.14 24.5336H182.051C181.34 24.5336 180.758 23.9523 180.758 23.2414C180.758 22.5306 181.34 21.9492 182.051 21.9492H192.14C192.852 21.9492 193.434 22.5306 193.434 23.2414C193.434 23.9517 192.852 24.5336 192.14 24.5336Z" fill="white"/>
<path d="M227.607 188.904C227.607 192.234 224.905 194.933 221.573 194.933H152.616C149.283 194.933 146.582 192.233 146.582 188.904V34.0717C146.582 30.742 149.283 28.043 152.616 28.043H221.573C224.906 28.043 227.607 30.742 227.607 34.0717V188.904H227.607Z" fill="white"/>
<path d="M220.5 69.5H152.5V104.444H220.5V69.5Z" fill="white"/>
<path d="M158.614 73.8672H156.867V100.076H158.614V73.8672Z" fill="#292929"/>
<path d="M167.735 73.8672H165.988V100.076H167.735V73.8672Z" fill="#292929"/>
<path d="M164.239 73.8672H162.492V100.076H164.239V73.8672Z" fill="#292929"/>
<path d="M174.041 73.8672H170.547V100.076H174.041V73.8672Z" fill="#292929"/>
<path d="M177.72 73.8672H175.973V100.076H177.72V73.8672Z" fill="#292929"/>
<path d="M182.277 73.8672H179.656V100.076H182.277V73.8672Z" fill="#292929"/>
<path d="M185.966 73.8672H184.219V100.076H185.966V73.8672Z" fill="#292929"/>
<path d="M190.515 73.8672H187.895V100.076H190.515V73.8672Z" fill="#292929"/>
<path d="M195.075 73.8672H193.328V100.076H195.075V73.8672Z" fill="#292929"/>
<path d="M201.381 73.8672H197.887V100.076H201.381V73.8672Z" fill="#292929"/>
<path d="M209.621 73.8672H207V100.076H209.621V73.8672Z" fill="#292929"/>
<path d="M213.306 73.8672H211.559V100.076H213.306V73.8672Z" fill="#292929"/>
<path d="M217.864 73.8672H216.117V100.076H217.864V73.8672Z" fill="#292929"/>
<path d="M153.238 128.148L154.365 118.084H156.993L159.096 124.408L161.214 118.084H163.843L164.97 128.148H162.281L161.695 122.004L159.908 127.412H158.24L156.438 121.944L155.837 128.148H153.238Z" fill="#292929"/>
<path d="M175.699 123.115C175.699 124.893 174.258 126.334 172.48 126.334C170.703 126.334 169.262 124.893 169.262 123.115C169.262 121.338 170.703 119.897 172.48 119.897C174.258 119.897 175.699 121.338 175.699 123.115Z" fill="#292929"/>
<path d="M184.282 123.115C184.282 124.893 182.841 126.334 181.064 126.334C179.286 126.334 177.845 124.893 177.845 123.115C177.845 121.338 179.286 119.896 181.064 119.896C182.841 119.896 184.282 121.338 184.282 123.115Z" fill="#292929"/>
<path d="M192.866 123.115C192.866 124.893 191.425 126.334 189.647 126.334C187.869 126.334 186.428 124.893 186.428 123.115C186.428 121.338 187.869 119.897 189.647 119.897C191.425 119.897 192.866 121.338 192.866 123.115Z" fill="#292929"/>
<path d="M203.595 123.115C203.595 124.893 202.154 126.334 200.376 126.334C198.598 126.334 197.157 124.893 197.157 123.115C197.157 121.338 198.598 119.897 200.376 119.897C202.154 119.897 203.595 121.338 203.595 123.115Z" fill="#292929"/>
<path d="M212.178 123.115C212.178 124.893 210.737 126.334 208.959 126.334C207.182 126.334 205.741 124.893 205.741 123.115C205.741 121.338 207.182 119.896 208.959 119.896C210.737 119.896 212.178 121.338 212.178 123.115Z" fill="#292929"/>
<path d="M220.762 123.115C220.762 124.893 219.32 126.334 217.543 126.334C215.765 126.334 214.324 124.893 214.324 123.115C214.324 121.338 215.765 119.897 217.543 119.897C219.32 119.897 220.762 121.338 220.762 123.115Z" fill="#292929"/>
<path d="M187 140.139C223.175 140.139 252.5 134.167 252.5 122.819C252.5 111.472 223.175 105.5 187 105.5C150.825 105.5 121.5 112.069 121.5 126.403C121.5 137.153 142.936 147.306 192.359 148.5" stroke="#DB0007" stroke-width="6"/>
<path fill-rule="evenodd" clip-rule="evenodd" d="M190.821 35.5716C192.301 35.5716 193.499 41.8077 193.499 49.5H195.643C195.643 41.2154 193.484 34.5 190.821 34.5C189.306 34.5 187.955 36.5187 187.071 39.6745C186.188 36.5187 184.836 34.5 183.321 34.5C180.66 34.5 178.5 41.2154 178.5 49.5H180.644C180.644 41.8077 181.843 35.5716 183.321 35.5716C184.801 35.5716 186 41.3279 186 48.4284H188.143C188.143 41.3279 189.342 35.5716 190.821 35.5716Z" fill="#FFBC0D"/>
</svg>
