<svg width="27" height="18" viewBox="0 0 27 18" fill="none" xmlns="http://www.w3.org/2000/svg">
<g clip-path="url(#clip0_109_43747)">
<path d="M0 0H26.9474V18H0V0Z" fill="white"/>
<path d="M0 0H27V6H0V0Z" fill="#6DA544"/>
<path d="M0 11.9952H27V17.9952H0V11.9952ZM14.6737 7.09519C14.6789 7.20045 15.1316 8.47414 14.9053 9.16887C14.5579 10.2373 14.0737 10.3162 13.8632 10.4583V7.05308L13.5 6.83203L13.1368 7.05308V10.4583C12.9263 10.3162 12.4842 10.332 12.0947 9.16887C11.8684 8.50045 12.3947 7.20572 12.4 7.10572C12.4 7.10572 11.9 7.53203 11.5684 8.36887C11.2579 9.14782 11.6684 10.9794 13.1211 11.2531C13.2421 11.2741 13.3684 11.5478 13.5 11.5478C13.6105 11.5478 13.7158 11.2741 13.8158 11.2583C15.3105 11.0162 15.6579 9.06361 15.3895 8.33203C15.1053 7.56361 14.6737 7.09519 14.6737 7.09519Z" fill="#D80027"/>
<g opacity="0.5">
<path opacity="0.5" d="M2.34737 5.20703H3.52105V6.49124H2.34737V5.20703ZM0 5.20703H1.17368V6.49124H0V5.20703ZM4.69474 5.20703H5.86842V6.49124H4.69474V5.20703ZM7.04211 5.20703H8.21579V6.49124H7.04211V5.20703ZM9.38947 5.20703H10.5632V6.49124H9.38947V5.20703ZM11.7368 5.20703H12.9105V6.49124H11.7368V5.20703ZM14.0895 5.20703H15.2632V6.49124H14.0895V5.20703ZM16.4368 5.20703H17.6105V6.49124H16.4368V5.20703ZM18.7842 5.20703H19.9579V6.49124H18.7842V5.20703ZM21.1316 5.20703H22.3053V6.49124H21.1316V5.20703ZM23.4789 5.20703H24.6526V6.49124H23.4789V5.20703ZM25.8263 5.20703H27V6.49124H25.8263V5.20703ZM2.34737 11.4176H3.52105V12.7597H2.34737V11.4176ZM0 11.4176H1.17368V12.7597H0V11.4176ZM4.69474 11.4176H5.86842V12.7597H4.69474V11.4176ZM7.04211 11.4176H8.21579V12.7597H7.04211V11.4176ZM9.38947 11.4176H10.5632V12.7597H9.38947V11.4176ZM11.7368 11.4176H12.9105V12.7597H11.7368V11.4176ZM14.0895 11.4176H15.2632V12.7597H14.0895V11.4176ZM16.4368 11.4176H17.6105V12.7597H16.4368V11.4176ZM18.7842 11.4176H19.9579V12.7597H18.7842V11.4176ZM21.1316 11.4176H22.3053V12.7597H21.1316V11.4176ZM23.4789 11.4176H24.6526V12.7597H23.4789V11.4176ZM25.8263 11.4176H27V12.7597H25.8263V11.4176Z" fill="white"/>
</g>
</g>
<rect x="0.5" y="0.5" width="26" height="17" rx="0.5" stroke="black" stroke-opacity="0.2"/>
<defs>
<clipPath id="clip0_109_43747">
<rect width="27" height="18" rx="1" fill="white"/>
</clipPath>
</defs>
</svg>
