<svg width="196" height="118" viewBox="0 0 196 118" fill="none" xmlns="http://www.w3.org/2000/svg">
<path fill-rule="evenodd" clip-rule="evenodd" d="M114.303 35.8184C108.656 24.3087 108.97 12.5773 115.019 9.61518C115.66 9.30112 118.163 8.17416 118.86 7.88473C119.137 7.76772 119.433 7.69382 119.729 7.63224C122.726 6.59766 126.382 7.49676 130.155 10.2556C134.114 13.1438 137.77 17.7502 140.458 23.2248C143.146 28.6933 144.552 34.4081 144.416 39.3039C144.281 44.4091 142.48 48.0671 139.348 49.6005C139.316 49.6186 139.281 49.6303 139.247 49.6419C139.222 49.65 139.199 49.658 139.176 49.6682C138.656 49.9276 137.86 50.266 137.108 50.5855L137.108 50.5856L137.107 50.5861C136.467 50.858 135.859 51.1161 135.482 51.3001C129.44 54.2622 119.957 47.3281 114.303 35.8184ZM136.296 52.9639C136.619 52.8066 137.17 52.5716 137.831 52.2908L137.107 50.5861L137.831 52.2908L137.876 52.2716C138.554 51.9835 139.336 51.6513 139.902 51.3754C139.965 51.3525 140.07 51.3116 140.184 51.2537C144.187 49.2813 146.124 44.78 146.268 39.3531C146.413 34.0932 144.909 28.0815 142.121 22.4084C139.332 16.7298 135.501 11.8631 131.247 8.75937C127.259 5.84392 123.008 4.59498 119.238 5.84304C118.925 5.91139 118.539 6.01052 118.145 6.17596C117.411 6.48124 114.881 7.62006 114.204 7.95177C110.252 9.88718 108.559 14.4607 108.423 19.4612C108.285 24.5592 109.712 30.666 112.641 36.6343L112.641 36.635C115.573 42.6035 119.534 47.4695 123.654 50.4814C127.694 53.4349 132.348 54.8985 136.296 52.9639ZM43.7118 52.9208C43.7087 52.9147 43.7056 52.9054 43.7025 52.8962C43.6994 52.8869 43.6964 52.8777 43.6933 52.8715C38.8286 45.7834 42.8671 34.4277 52.763 27.4812C57.5475 24.1189 62.9733 22.2652 68.0476 22.2652C72.9308 22.2591 76.9385 23.9711 79.4294 27.0871C79.5835 27.2534 79.7377 27.432 79.8795 27.6167C80.2242 28.0615 80.5104 28.5125 80.7929 28.9577C80.9953 29.2767 81.1959 29.5929 81.4147 29.9014C86.3473 36.9033 82.2656 48.2529 72.2957 55.2609C62.3259 62.269 50.2474 62.269 45.3148 55.2671L45.1352 55.0111C44.5538 54.1828 44.3301 53.864 43.7118 52.9208ZM43.6191 56.0752C43.6191 56.0751 43.6191 56.0751 43.619 56.075C43.0322 55.2389 42.7961 54.9024 42.1627 53.9363L42.1037 53.8463L42.0674 53.7738C39.3061 49.6342 39.1901 44.4298 40.9484 39.501C42.7294 34.5081 46.4722 29.634 51.6988 25.9652C56.745 22.4192 62.5351 20.4132 68.0467 20.413C68.0462 20.413 68.0457 20.413 68.0453 20.413M41.9455 53.4825L41.9462 53.4844L41.9455 53.4825ZM43.6191 56.0752L43.7987 56.331L43.8006 56.3338C46.7081 60.4611 51.6162 62.3708 56.9166 62.37C62.2237 62.3691 68.1017 60.473 73.3609 56.7762C78.6197 53.0797 82.3925 48.1947 84.1866 43.2056C85.9786 38.2223 85.8369 32.9627 82.929 28.8347L82.9256 28.8299C82.7389 28.5667 82.5634 28.2909 82.3568 27.9653L82.3409 27.9402C82.0682 27.5103 81.7433 26.9983 81.346 26.4853C81.1781 26.2668 81.0029 26.0626 80.8341 25.8782C77.9143 22.2627 73.3352 20.4067 68.0467 20.413M100.045 112.436L100.044 112.436C87.0402 112.935 76.05 102.783 75.5382 89.7865L75.5381 89.7858C75.0314 76.796 85.1942 65.818 98.2011 65.3133C111.208 64.8085 122.196 74.9672 122.71 87.957L122.71 87.9582C123.215 100.953 113.053 111.932 100.045 112.436ZM120.859 88.0301C121.324 100.002 111.96 110.12 99.9735 110.586C87.9886 111.045 77.8605 101.687 77.389 89.7136C76.9222 77.7477 86.2868 67.6293 98.273 67.1641C110.259 66.699 120.386 76.0629 120.859 88.0301Z" fill="white"/>
<path d="M81.4155 29.902C80.8914 29.163 80.4721 28.3809 79.8802 27.6173C79.7384 27.4325 79.5843 27.254 79.4301 27.0877C76.9392 23.9716 72.9315 22.2596 68.0484 22.2658C62.974 22.2658 57.5482 24.1194 52.7637 27.4818C42.8678 34.4283 38.8293 45.784 43.694 52.8721C43.7002 52.8844 43.7064 52.9091 43.7125 52.9214C44.3907 53.956 44.5942 54.2392 45.3156 55.2677C50.2481 62.2695 62.3266 62.2695 72.2965 55.2615C82.2663 48.2535 86.348 36.9039 81.4155 29.902Z" fill="url(#paint0_linear_17_28599)"/>
<path d="M53.5702 28.6212C58.1143 25.4251 63.2564 23.6639 68.0471 23.6639C71.1053 23.6639 73.7689 24.3844 75.859 25.733C76.9812 26.4597 77.9369 27.365 78.6952 28.4427C80.8655 31.5279 81.1923 35.6539 79.6077 40.0694C77.9923 44.571 74.5951 48.8079 70.051 52.004C60.7409 58.5502 49.47 58.6302 44.926 52.1826C40.3819 45.7349 44.2601 35.1674 53.5702 28.6212Z" fill="white"/>
<path d="M68.5358 31.196C69.4915 32.5016 62.8572 38.1979 53.8924 44.0298L55.1872 45.8587C64.189 40.0516 72.3955 36.486 73.3327 37.7792C74.2637 39.0724 66.8711 45.0582 57.0245 51.2903L58.2823 53.1008C68.9489 46.4253 76.4278 39.2633 74.7446 36.9355C73.7766 35.6053 70.2807 36.0241 65.6441 37.7853C69.1524 34.4722 70.9034 31.6702 69.9231 30.3339C68.1844 27.9753 58.2515 31.5471 47.9857 38.4812L49.3051 40.3287C58.8742 33.918 67.5801 29.8905 68.5358 31.196Z" fill="#FFBC0D"/>
<path d="M140.457 23.2248C137.769 17.7502 134.113 13.1438 130.155 10.2556C126.381 7.49677 122.725 6.59767 119.728 7.63225C119.432 7.69383 119.137 7.76773 118.859 7.88474C118.162 8.17417 115.659 9.30112 115.018 9.61519C108.969 12.5773 108.655 24.3087 114.303 35.8184C119.957 47.3281 129.439 54.2622 135.482 51.3001C136.302 50.8998 138.213 50.1485 139.175 49.6682C139.23 49.6436 139.292 49.6312 139.348 49.6005C142.48 48.0671 144.28 44.4091 144.416 39.3039C144.551 34.4082 143.146 28.6933 140.457 23.2248Z" fill="url(#paint1_linear_17_28599)"/>
<path d="M138.792 48.461C136.245 49.7111 132.836 48.929 129.192 46.2687C125.369 43.479 121.818 38.9897 119.191 33.6382C116.564 28.2867 115.183 22.7382 115.319 18.0087C115.442 13.5009 116.916 10.3294 119.462 9.08543C122.009 7.83532 125.418 8.61741 129.062 11.2778C132.885 14.0674 136.436 18.5568 139.063 23.9082C141.597 29.075 142.966 34.4203 142.947 39.039C142.947 39.2052 142.941 39.3715 142.941 39.5378C142.805 44.0456 141.338 47.2109 138.792 48.461Z" fill="white"/>
<path d="M126.667 15.8769C125.551 16.425 125.946 19.7442 127.469 24.4984C124.639 20.3847 122.252 18.0384 121.136 18.5865C119.17 19.5472 122.209 29.7575 127.925 41.3904L129.503 40.6144C124.201 29.8129 120.785 20.6249 121.876 20.0891C122.968 19.5533 127.82 27.208 132.716 37.1781L134.294 36.4022C129.398 26.4321 126.316 17.9153 127.407 17.3795C128.498 16.8437 133.684 25.1696 138.986 35.9711L140.564 35.1952C134.855 23.5623 128.634 14.9162 126.667 15.8769Z" fill="#FFBC0D"/>
<path d="M99.9729 110.58C87.988 111.039 77.8598 101.681 77.3883 89.7077C76.9216 77.7418 86.2861 67.6234 98.2723 67.1582C110.259 66.6931 120.385 76.0571 120.858 88.0242C121.324 99.9962 111.959 110.115 99.9729 110.58Z" fill="url(#paint2_linear_17_28599)"/>
<path d="M98.353 69.3096C87.556 69.7249 79.1172 78.8374 79.5443 89.624C79.9715 100.411 89.0922 108.843 99.8904 108.422C110.689 108 119.126 98.894 118.699 88.1074C118.272 77.3209 109.15 68.8942 98.353 69.3096Z" fill="white"/>
<path d="M103.986 77.2418C101.837 77.3272 100.037 80.2564 98.9596 84.7682C97.534 80.3484 95.508 77.5702 93.3607 77.6496C89.5924 77.794 86.9011 87.4151 87.3634 99.1345L90.4011 99.0175C89.975 88.1368 91.3266 79.2449 93.423 79.1674C95.5208 79.0838 97.5365 87.1669 97.9323 97.2102L100.97 97.0932C100.568 87.0486 101.952 78.8372 104.043 78.7523C106.141 78.6688 108.183 87.4309 108.609 98.3117L111.641 98.1934C111.19 86.4765 107.755 77.0913 103.986 77.2418Z" fill="#FFBC0D"/>
<path d="M123.002 64.5403C123.241 64.6781 123.439 64.8763 123.577 65.1151L132.625 80.7992C133.058 81.5496 132.801 82.5089 132.051 82.9418C131.812 83.0793 131.542 83.1517 131.267 83.1517H113.17C112.303 83.1517 111.601 82.4494 111.601 81.5831C111.601 81.3079 111.673 81.0376 111.811 80.7992L120.86 65.1151C121.292 64.3647 122.252 64.1074 123.002 64.5403Z" fill="#EF8849"/>
<path d="M119.806 64.5357C120.57 63.2263 122.275 62.768 123.611 63.5303C124.035 63.7719 124.385 64.1196 124.628 64.5357L133.784 80.2191C134.544 81.5221 134.096 83.1937 132.766 83.9521C132.343 84.1934 131.862 84.3208 131.372 84.3208H113.063C111.516 84.3208 110.281 83.0842 110.281 81.5829C110.281 81.1049 110.408 80.6343 110.651 80.2191L119.806 64.5357ZM111.475 81.5829C111.475 82.3949 112.099 83.0636 112.899 83.1441L113.063 83.1521H131.372L131.58 83.1384C131.717 83.1205 131.851 83.0847 131.979 83.0323L132.166 82.9421C132.877 82.5362 133.15 81.6678 132.821 80.9426L132.748 80.8L123.592 65.1155C123.452 64.8767 123.252 64.6781 123.01 64.5403C122.251 64.1077 121.281 64.3653 120.843 65.1155L111.687 80.8L111.595 80.9837C111.516 81.173 111.475 81.3767 111.475 81.5829Z" fill="white"/>
<path d="M120.983 69.8657L121.179 77.192H123.2L123.404 69.8657H120.983ZM122.193 81.014C123.049 81.014 123.571 80.5221 123.571 79.7274C123.571 78.9251 123.049 78.4332 122.193 78.4332C121.346 78.4332 120.816 78.9251 120.816 79.7274C120.816 80.5221 121.346 81.014 122.193 81.014Z" fill="#292929"/>
<defs>
<linearGradient id="paint0_linear_17_28599" x1="41.6336" y1="41.392" x2="83.5063" y2="41.392" gradientUnits="userSpaceOnUse">
<stop offset="0.000616698" stop-color="#910063"/>
<stop offset="0.0362" stop-color="#990059"/>
<stop offset="0.1727" stop-color="#B60035"/>
<stop offset="0.3012" stop-color="#CA001C"/>
<stop offset="0.4172" stop-color="#D7000C"/>
<stop offset="0.5101" stop-color="#DB0007"/>
<stop offset="1" stop-color="#E8720A"/>
</linearGradient>
<linearGradient id="paint1_linear_17_28599" x1="144.425" y1="29.5999" x2="110.266" y2="29.5999" gradientUnits="userSpaceOnUse">
<stop offset="0.000616698" stop-color="#910063"/>
<stop offset="0.0362" stop-color="#990059"/>
<stop offset="0.1727" stop-color="#B60035"/>
<stop offset="0.3012" stop-color="#CA001C"/>
<stop offset="0.4172" stop-color="#D7000C"/>
<stop offset="0.5101" stop-color="#DB0007"/>
<stop offset="1" stop-color="#E8720A"/>
</linearGradient>
<linearGradient id="paint2_linear_17_28599" x1="124.913" y1="72.1286" x2="82.3539" y2="63.0954" gradientUnits="userSpaceOnUse">
<stop offset="0.000616698" stop-color="#910063"/>
<stop offset="0.0362" stop-color="#990059"/>
<stop offset="0.1727" stop-color="#B60035"/>
<stop offset="0.3012" stop-color="#CA001C"/>
<stop offset="0.4172" stop-color="#D7000C"/>
<stop offset="0.5101" stop-color="#DB0007"/>
<stop offset="1" stop-color="#E8720A"/>
</linearGradient>
</defs>
</svg>
