<svg width="27" height="18" viewBox="0 0 27 18" fill="none" xmlns="http://www.w3.org/2000/svg">
<g clip-path="url(#clip0_109_43867)">
<path d="M0 0H27V18H0V0Z" fill="#095FAD"/>
<path d="M18 0H27V18H18V0ZM0 0H9V18H0V0Z" fill="#BE1229"/>
<path d="M5.70053 8.75H6.47948V12.6553H5.70053V8.75ZM2.57422 8.75H3.35317V12.6553H2.57422V8.75Z" fill="#FFDA44"/>
<path d="M4.52504 11.4837C4.95524 11.4837 5.30399 11.1349 5.30399 10.7047C5.30399 10.2745 4.95524 9.92578 4.52504 9.92578C4.09484 9.92578 3.74609 10.2745 3.74609 10.7047C3.74609 11.1349 4.09484 11.4837 4.52504 11.4837Z" fill="#FFDA44"/>
<path d="M3.74609 11.8763H5.30925V12.6553H3.74609V11.8763ZM3.74609 8.75H5.30925V9.52895H3.74609V8.75Z" fill="#FFDA44"/>
<path d="M4.52504 8.35868C4.95524 8.35868 5.30399 8.00993 5.30399 7.57973C5.30399 7.14953 4.95524 6.80078 4.52504 6.80078C4.09484 6.80078 3.74609 7.14953 3.74609 7.57973C3.74609 8.00993 4.09484 8.35868 4.52504 8.35868Z" fill="#FFDA44"/>
<path d="M4.01562 6.52026H5.04194L4.52615 5.69922L4.01562 6.52026Z" fill="#FFDA44"/>
</g>
<rect x="0.5" y="0.5" width="26" height="17" rx="0.5" stroke="black" stroke-opacity="0.2"/>
<defs>
<clipPath id="clip0_109_43867">
<rect width="27" height="18" rx="1" fill="white"/>
</clipPath>
</defs>
</svg>
