<svg width="136" height="136" viewBox="0 0 136 136" fill="none" xmlns="http://www.w3.org/2000/svg">
<path d="M71.4467 83.5868C71.8646 85.1461 70.9325 86.7648 69.374 87.1825L27.4461 98.4435C25.8876 98.8612 24.2693 97.9284 23.8514 96.3691L5.76596 29.0259C5.34806 27.4666 6.28014 25.8479 7.83866 25.4302L49.7665 14.1693C51.3251 13.7515 52.9433 14.6844 53.3612 16.2436L71.4467 83.5868Z" fill="white"/>
<path fill-rule="evenodd" clip-rule="evenodd" d="M69.0483 85.9673C69.9337 85.7299 70.4697 84.8027 70.2316 83.913C70.2315 83.9129 70.2316 83.9132 70.2316 83.913L52.1461 16.57C51.9083 15.6826 50.9808 15.1465 50.0929 15.3843C50.0928 15.3844 50.093 15.3843 50.0929 15.3843L8.16498 26.6453C7.27948 26.8826 6.74277 27.8098 6.98104 28.6996C6.98101 28.6995 6.98107 28.6997 6.98104 28.6996L25.0665 96.0428C25.3043 96.93 26.232 97.466 27.1199 97.2284C27.1197 97.2284 27.1201 97.2283 27.1199 97.2284L69.0483 85.9673ZM49.7665 14.1693L7.83866 25.4302C6.28014 25.8479 5.34806 27.4666 5.76596 29.0259L23.8514 96.3691C24.2693 97.9284 25.8876 98.8612 27.4461 98.4435L69.374 87.1825C70.9325 86.7648 71.8646 85.1461 71.4467 83.5868L53.3612 16.2436C52.9433 14.6844 51.3251 13.7515 49.7665 14.1693Z" fill="#EAEAEA"/>
<path d="M27.5463 83.0964C26.759 83.3074 25.9301 82.7675 25.6951 81.8906C25.4601 81.0137 25.9079 80.1317 26.6952 79.9207L59.693 71.0787C60.4803 70.8678 61.3092 71.4077 61.5442 72.2846C61.7792 73.1615 61.3314 74.0435 60.5441 74.2545L27.5463 83.0964Z" fill="#F1F1F1"/>
<path d="M28.6266 88.7654C28.0668 88.9154 27.4223 88.326 27.1873 87.4492C26.9523 86.5723 27.2157 85.7397 27.7755 85.5897L51.2406 79.3019C51.8004 79.1519 52.4449 79.7412 52.6799 80.6181C52.9149 81.495 52.6515 82.3276 52.0917 82.4776L28.6266 88.7654Z" fill="#F1F1F1"/>
<g style="mix-blend-mode:multiply">
<path d="M54.2827 58.3336C54.5043 59.1602 48.0943 61.596 39.9657 63.7741C31.8371 65.9522 25.068 67.0479 24.8464 66.2213C24.6249 65.3947 31.0349 62.9589 39.1635 60.7808C47.2921 58.6026 54.0612 57.507 54.2827 58.3336Z" fill="#F1F1F1"/>
</g>
<path fill-rule="evenodd" clip-rule="evenodd" d="M26.7198 62.2429C27.1774 63.9502 28.8381 65.0428 30.5791 64.7374C32.9921 64.3142 36.477 63.6385 39.6967 62.7757C42.7181 61.966 45.5766 60.9727 47.5892 60.2208C49.2542 59.5987 50.1302 57.8097 49.67 56.0929L26.7198 62.2429Z" fill="#E89700"/>
<path d="M27.7917 61.5396L27.8287 61.546C29.4073 61.8427 29.5662 60.9245 30.6313 60.6779C31.0682 60.5767 31.4502 60.5776 31.7534 60.616L31.7812 60.5842C31.8122 60.55 31.8466 60.516 31.8842 60.4824L32.1534 60.4092L32.36 60.352C32.6407 60.2737 32.9424 60.187 33.2666 60.0908L33.4312 60.0414L33.6376 59.9781C33.8396 59.9175 34.1149 59.84 34.3779 59.7897L34.3966 59.7902C34.4657 59.807 34.5315 59.8283 34.5941 59.8545C34.7213 59.9077 34.838 59.9622 34.9486 60.011C35.2081 59.9014 35.4358 59.819 35.6775 59.6767C36.0211 59.6505 36.3346 59.644 36.6234 59.6558C37.1636 59.6778 39.901 58.6081 41.3569 58.2134L41.7078 58.0667C42.477 57.7483 43.1187 57.5017 43.2542 57.4127L43.2621 57.4073C43.3226 57.3635 43.3852 57.3218 43.45 57.2823L43.5415 57.2872L43.6368 57.2912C44.3589 57.3156 45.2459 57.2279 46.412 56.7467C46.6767 56.6375 46.9821 56.5761 47.3051 56.5509C47.5664 56.2533 47.844 56.3643 48.0975 56.2474C48.442 56.0886 48.5344 55.9062 49.0631 55.7231C49.7858 55.4729 50.3607 56.4447 50.5734 56.7512C50.7861 57.0577 50.7029 56.8545 50.4905 56.8874C50.2781 56.9202 50.1551 56.8081 49.9064 56.8543C48.8521 57.0493 49.3005 58.3393 48.1003 58.9038C47.4528 59.2084 46.522 58.6885 46.2219 58.7112C45.9219 58.7339 45.7102 59.0246 45.4255 59.1061C44.0813 59.4905 43.148 58.9795 41.9748 59.1389L42.0023 59.0764C42.0187 59.0397 42.0355 59.0031 42.0526 58.9666C42.0837 58.9006 41.8761 58.9531 41.5485 59.0616L41.3631 59.233C40.562 59.9679 39.5699 60.8222 39.8398 61.0645C39.3357 61.2907 38.7744 61.4259 38.1314 61.5669C37.5087 61.7034 36.7673 61.387 36.2671 61.4622C35.3933 61.5937 33.3133 62.8013 33.3133 62.8013C33.3133 62.8013 33.3182 62.2108 32.9181 62.1154C32.3688 61.9845 31.1199 62.2925 30.9855 62.5178C30.8511 62.7432 30.6841 62.9212 30.4208 62.9933C29.7719 63.1711 29.5071 62.9092 29.1676 62.9243C28.8102 62.9404 28.6751 63.1014 28.2129 63.2766C27.6971 63.472 27.5369 63.1573 27.5081 62.8673L27.5065 62.8496C27.4346 61.9686 26.2158 62.9152 26.2899 62.5749C26.364 62.2347 27.065 61.4241 27.7917 61.5396Z" fill="#9CC93A"/>
<path fill-rule="evenodd" clip-rule="evenodd" d="M35.135 59.5584C39.5209 59.076 41.0375 57.6226 43.0017 56.8792C44.2871 56.3928 45.5519 56.1432 46.5828 56.1188C46.5939 56.1185 47.0077 56.0685 47.2328 56.0222C47.6352 55.9393 48.0583 55.8259 48.5019 55.6821C48.5019 55.6821 49.0882 55.4493 49.4155 55.3226C49.7428 55.1958 50.0285 55.1792 50.1719 55.4947C50.2827 55.7385 50.1419 55.9005 49.8989 56.0112C49.6559 56.1219 48.098 56.2519 44.1701 57.5111C40.2423 58.7703 41.7964 63.3681 40.4791 62.1179C39.1137 60.8222 36.9306 60.163 35.3904 60.0915C33.8502 60.0199 30.281 61.3325 29.1712 61.5925C28.0614 61.8525 27.7223 61.8264 27.2296 61.8442C26.7369 61.862 26.7747 61.946 26.7039 61.6819C26.6401 61.4439 26.8117 61.2846 27.0517 61.2612C27.1855 61.2481 27.639 61.2812 29.3781 60.8655C30.7564 60.5361 33.1958 59.7717 35.135 59.5584Z" fill="#FFBC0D"/>
<path fill-rule="evenodd" clip-rule="evenodd" d="M47.9005 52.8205C48.5676 52.6417 49.2536 53.0386 49.4327 53.7068L49.6155 54.456C49.6155 54.456 49.0827 54.8718 47.1919 55.3223C45.3012 55.7728 44.0993 55.6224 42.816 56.1065C40.8548 56.8464 40.2918 57.8086 36.4082 58.4829C32.5245 59.1572 26.7758 60.7311 26.7758 60.7311L26.4824 59.8566C26.3033 59.1884 26.6989 58.5017 27.366 58.323C31.9532 56.8313 35.4218 55.7692 37.7717 55.1368C40.1217 54.5043 43.4095 53.7586 47.9005 52.8205Z" fill="#73371F"/>
<path fill-rule="evenodd" clip-rule="evenodd" d="M25.7463 56.1091C25.6879 55.8914 25.8172 55.6675 26.0349 55.6092L48.3096 49.6404C48.465 49.5988 48.6247 49.6909 48.6663 49.8463C49.0706 51.3548 48.1472 52.899 46.6281 53.2613C43.9328 53.9041 39.9521 54.8649 37.8622 55.425C35.7422 55.9931 31.7311 57.1768 29.0751 57.9683C27.6398 58.3961 26.1341 57.5558 25.7463 56.1091Z" fill="#E89700"/>
<path d="M32.3589 53.179L32.4773 53.1348C33.9926 52.558 33.7767 52.171 34.5801 51.9426C34.9437 51.8391 35.2487 51.8907 35.5319 52.0041C36.0817 51.3986 36.6876 50.8626 37.5297 50.6558C38.1958 50.4922 39.0384 50.9155 39.577 50.8286C40.5179 50.6766 42.05 49.6733 42.5462 48.9177C42.582 48.8629 42.6592 48.9184 42.6613 49.0011L42.6653 49.1759C42.6764 49.522 42.7272 49.9244 43.1675 50.0537C43.7811 50.2337 44.5546 49.9984 45.2368 49.5736C45.3604 49.2854 45.5244 49.0592 45.8045 48.9715C46.4949 48.7552 46.8112 49.0985 47.1806 49.0858L47.2219 49.0838C47.6581 49.0574 48.2121 48.8343 48.6583 49.5035C49.1046 50.1727 50.2579 49.4906 50.2579 49.4906C50.2579 49.4906 49.6294 51.0671 48.8214 50.8993L48.7857 50.8914C47.0307 50.4766 46.9521 51.6582 45.8143 51.9548C45.3477 52.0764 44.9303 52.0676 44.5952 52.0119C44.2601 51.9562 42.5313 53.4106 41.571 52.9369L41.458 52.8799C40.9165 52.6013 40.531 52.3369 40.0583 52.6162C39.7755 52.7831 39.4751 53.1941 38.5502 53.3809C37.9537 53.5015 37.3141 53.2428 36.7632 53.015C36.3993 53.2931 36.1349 53.2778 35.8237 54.0251L35.8045 54.0718C35.5639 54.6702 35.316 54.9277 34.7735 54.8327L34.7385 54.8262C33.8941 54.6588 33.7258 55.4145 32.7014 55.6232C32.0235 55.7612 31.0401 54.6016 29.5281 55.5299C29.2617 55.6934 28.8889 55.6754 28.4972 55.5599C28.3743 55.8624 28.3095 56.1533 28.2584 56.3597C27.9922 57.4377 27.465 56.9106 27.1122 57.0829L27.098 57.0902C26.7493 57.282 26.5386 57.1711 26.018 57.369L25.9666 57.3892C25.2031 57.6973 24.5078 57.5797 24.2008 56.9929C24.1494 56.8948 23.652 56.0644 23.9395 56.3278C24.227 56.5913 24.571 55.9715 24.8379 55.917C25.9693 55.6866 24.9157 54.7951 26.1682 54.091C26.7833 53.7452 28.0132 53.9037 28.7414 54.123L28.9211 53.7685C29.1305 53.3621 29.3787 52.9447 29.7267 52.8255C30.6699 52.5022 31.4841 53.4987 32.3589 53.179Z" fill="#9CC93A"/>
<path fill-rule="evenodd" clip-rule="evenodd" d="M26.071 51.9885C27.1956 51.6871 32.3717 49.8991 35.7793 48.986C39.2286 48.0617 44.9839 46.7868 45.9775 46.6542C46.9711 46.5217 47.267 46.6265 47.4475 47.3C47.6281 47.9735 47.4825 47.4302 47.663 48.1037C47.8435 48.7772 47.3812 49.2189 46.7129 49.398L26.1422 54.9102C25.4739 55.0893 24.6041 54.2604 24.7067 53.3938C24.8092 52.5271 24.9465 52.2898 26.071 51.9885Z" fill="#73371F"/>
<path d="M25.0942 54.6602C25.283 54.5364 25.5976 54.5253 27.6776 54.2348C28.4932 54.1208 29.7707 53.8551 31.7377 53.2802C33.1152 52.8777 35.2916 52.2707 39.2545 51.1328C43.2173 49.9948 45.0299 49.604 46.3012 49.2446C47.5726 48.8851 47.4853 48.127 48.2812 48.5806C49.0771 49.0343 47.8081 49.2814 46.5604 49.7087C45.3128 50.1359 45.2973 49.7769 41.1162 51.0341C36.9351 52.2912 35.2881 53.2412 33.3553 53.7805C29.7135 54.7967 28.3402 54.1906 26.301 55.1372C24.2619 56.0837 24.9055 54.784 25.0942 54.6602Z" fill="#EDC8A3"/>
<path fill-rule="evenodd" clip-rule="evenodd" d="M46.8499 44.5494C46.9887 45.0672 47.1803 45.7822 46.4358 45.9971C45.684 46.1833 39.3959 47.2015 35.7916 48.1815C32.3322 49.0946 26.1975 51.2724 25.2323 51.6799C24.269 52.0561 24.2021 51.3076 24.0918 50.9162C22.9489 46.6332 28.4097 42.4734 33.9772 40.9148C39.5502 39.357 45.7355 40.3928 46.8499 44.5494Z" fill="white"/>
<path fill-rule="evenodd" clip-rule="evenodd" d="M46.4317 45.9974C47.1762 45.7825 46.9845 45.0675 46.8457 44.5497C45.7313 40.393 39.5459 39.3571 33.973 40.9148C28.4055 42.4734 22.9449 46.6333 24.0879 50.9163C24.099 50.9558 24.1097 50.9989 24.1209 51.0441C24.2208 51.4473 24.3623 52.0183 25.2284 51.68C26.1936 51.2726 32.3282 49.0948 35.7876 48.1817C38.3806 47.4767 42.3627 46.7519 44.6731 46.3314C45.5741 46.1674 46.2208 46.0497 46.4317 45.9974ZM32.9978 41.9646C33.0786 41.7971 33.2868 41.7256 33.4628 41.8048C33.6387 41.8839 34.1568 42.3753 34.1129 42.4663C34.069 42.5572 33.3461 42.4902 33.1701 42.4111C32.9942 42.3319 32.917 42.132 32.9978 41.9646ZM33.9632 45.1469C33.7626 45.0992 33.6479 44.9004 33.7069 44.7029C33.7659 44.5054 34.2283 43.8696 34.3372 43.8956C34.4461 43.9215 34.4922 44.6784 34.4332 44.8759C34.3741 45.0733 34.1637 45.1947 33.9632 45.1469ZM29.6405 46.4013C29.8164 46.4805 30.0246 46.409 30.1054 46.2415C30.1862 46.0741 30.1091 45.8742 29.9331 45.7951C29.7572 45.7159 29.0342 45.6489 28.9903 45.7398C28.9464 45.8308 29.4645 46.3222 29.6405 46.4013ZM29.1076 47.9721C29.3017 47.8842 29.5317 47.9637 29.6212 48.1498C29.7107 48.3358 29.7803 49.1032 29.6749 49.1509C29.5694 49.1987 29.0076 48.6541 28.9181 48.4681C28.8286 48.282 28.9134 48.06 29.1076 47.9721ZM25.3294 49.8661C25.1534 49.7869 24.9452 49.8584 24.8644 50.0259C24.7836 50.1933 24.8608 50.3932 25.0367 50.4724C25.2127 50.5515 25.9357 50.6185 25.9795 50.5276C26.0234 50.4366 25.5053 49.9452 25.3294 49.8661ZM40.4488 44.178C40.2814 44.0972 40.2098 43.889 40.289 43.7131C40.3681 43.5371 40.8594 43.019 40.9503 43.0629C41.0412 43.1068 40.9744 43.8298 40.8952 44.0058C40.8161 44.1818 40.6162 44.2589 40.4488 44.178ZM38.9956 41.2261C38.9061 41.0401 38.6762 40.9606 38.482 41.0485C38.2879 41.1364 38.203 41.3584 38.2926 41.5445C38.3821 41.7305 38.9439 42.2751 39.0493 42.2273C39.1548 42.1796 39.0852 41.4122 38.9956 41.2261ZM33.5089 46.8466C33.6506 46.9964 33.6508 47.2394 33.5093 47.3893C33.3679 47.5392 32.6895 47.8779 32.6126 47.7965C32.5356 47.7152 32.8548 46.9967 32.9962 46.8468C33.1377 46.6969 33.3672 46.6968 33.5089 46.8466ZM36.2633 46.2682C36.0873 46.189 35.8792 46.2606 35.7984 46.428C35.7176 46.5954 35.7947 46.7953 35.9707 46.8745C36.1466 46.9536 36.8696 47.0206 36.9135 46.9297C36.9574 46.8387 36.4393 46.3473 36.2633 46.2682ZM37.1446 43.273C37.3512 43.2176 37.5615 43.3322 37.6142 43.5291C37.667 43.7259 37.5912 44.4902 37.479 44.5202C37.3668 44.5503 36.9188 43.9264 36.866 43.7296C36.8133 43.5328 36.938 43.3284 37.1446 43.273ZM44.8899 44.0588C44.969 43.8829 44.8974 43.6747 44.73 43.5939C44.5626 43.513 44.3627 43.5902 44.2836 43.7661C44.2045 43.9421 44.1376 44.6651 44.2285 44.709C44.3194 44.7529 44.8107 44.2348 44.8899 44.0588ZM40.9482 46.2164C40.7985 46.3581 40.5555 46.3582 40.4056 46.2168C40.2557 46.0753 39.917 45.3969 39.9983 45.3199C40.0797 45.243 40.7981 45.5623 40.948 45.7037C41.0979 45.8452 41.098 46.0747 40.9482 46.2164ZM30.7517 43.3626C30.6989 43.1658 30.4886 43.0511 30.282 43.1065C30.0754 43.1619 29.9507 43.3663 30.0035 43.5631C30.0562 43.76 30.5042 44.3838 30.6164 44.3538C30.7286 44.3237 30.8044 43.5594 30.7517 43.3626ZM25.7258 47.255C25.8066 47.0876 26.0147 47.016 26.1907 47.0952C26.3666 47.1743 26.8848 47.6657 26.8409 47.7567C26.797 47.8476 26.074 47.7806 25.898 47.7015C25.7221 47.6223 25.645 47.4224 25.7258 47.255Z" fill="#E89700"/>
<path d="M104.651 119.816C104.651 123.292 86.1312 126.111 63.2863 126.111C40.4413 126.111 21.9219 123.292 21.9219 119.816C21.9219 116.34 40.4413 113.521 63.2863 113.521C86.1312 113.521 104.651 116.34 104.651 119.816Z" fill="#A0A09F" fill-opacity="0.15"/>
<path d="M90.0897 85.4525C90.0897 87.0668 88.7703 88.3891 87.1567 88.3891L43.7405 88.4114C42.1268 88.4114 40.8052 87.0914 40.8052 85.477L40.7695 15.746C40.7695 14.1317 42.089 12.8094 43.7026 12.8094L87.1188 12.7871C88.7324 12.7871 90.054 14.1071 90.054 15.7215L90.0897 85.4525Z" fill="white"/>
<path fill-rule="evenodd" clip-rule="evenodd" d="M87.1567 88.3891C88.7703 88.3891 90.0897 87.0668 90.0897 85.4525L90.054 15.7215C90.054 14.1071 88.7324 12.7871 87.1188 12.7871L43.7026 12.8094C42.089 12.8094 40.7695 14.1317 40.7695 15.746L40.8052 85.477C40.8052 87.0914 42.1268 88.4114 43.7405 88.4114L87.1567 88.3891ZM42.0277 15.746C42.0277 15.7459 42.0277 15.7461 42.0277 15.746L42.0633 85.4764C42.0633 86.395 42.8207 87.153 43.74 87.1533C43.7398 87.1533 43.7401 87.1533 43.74 87.1533L87.156 87.131C88.073 87.131 88.8316 86.3738 88.8316 85.4525L88.7959 15.7221C88.7959 14.8034 88.0387 14.0454 87.1194 14.0453C87.1193 14.0453 87.1195 14.0453 87.1194 14.0453L43.7032 14.0675C42.7863 14.0675 42.0279 14.8249 42.0277 15.746Z" fill="#EAEAEA"/>
<path d="M76.5258 60.0469C76.5258 61.0457 70.9927 61.8554 64.1672 61.8554C57.3417 61.8554 51.8086 61.0457 51.8086 60.0469C51.8086 59.048 57.3417 58.2383 64.1672 58.2383C70.9927 58.2383 76.5258 59.048 76.5258 60.0469Z" fill="#A0A09F" fill-opacity="0.15"/>
<path fill-rule="evenodd" clip-rule="evenodd" d="M55.0968 42.4129H54.2202C54.2202 42.4129 54.7563 46.6183 55.587 50.7776C56.4176 54.9369 57.5612 59.1423 57.5612 59.1423L58.7762 60.0466C58.7762 60.0466 61.0541 59.1423 64.0914 59.1423C67.1287 59.1423 69.5586 60.0466 69.5586 60.0466L70.7735 59.1423C70.7735 59.1423 71.9079 54.983 72.7478 50.7776C73.5876 46.5722 74.1145 42.4129 74.1145 42.4129H73.351L73.5118 41.8102L73.5115 41.8102C74.1144 39.8509 74.4158 38.4944 74.7172 36.5351C73.9403 36.3184 72.9159 36.5079 72.8481 36.7754C72.7687 37.088 72.7102 37.2973 72.6413 37.5434L72.6412 37.5437L72.6404 37.5465C72.6088 37.6597 72.5749 37.7807 72.5358 37.9232C72.217 37.569 71.557 37.3875 70.9146 37.3264C70.7534 38.7976 70.5929 39.4173 70.2441 40.7643L70.2437 40.7658L70.2421 40.772C70.2101 40.8956 70.1765 41.0253 70.1412 41.1623C70.2243 39.1278 70.3443 37.9994 70.6979 35.8939C69.9723 35.7474 69.0274 35.867 68.736 36.3909C68.5443 37.5929 68.4417 38.2593 68.3699 39.3049L68.3579 38.9883C68.2935 37.2806 68.2526 36.1992 68.0984 34.3414C67.1789 34.4147 66.3248 34.8391 66.1669 35.4061L66.1769 35.5442L66.177 35.5447C66.1957 35.8032 66.2208 36.1495 66.2339 36.3648C65.601 36.3507 64.9166 36.6232 64.6684 36.8217C64.5573 37.3763 64.4889 37.8422 64.4229 38.2912L64.4229 38.2913L64.4229 38.2913C64.3215 38.9816 64.226 39.6322 63.9903 40.5045C63.9903 40.5045 63.833 39.393 64.3723 34.7598C64.4047 34.4818 63.371 33.7784 62.637 33.6808C62.4722 35.0295 62.3276 36.3764 62.2008 37.7225C62.1284 36.1341 62.0054 34.5372 61.829 32.9248C61.2706 32.8265 60.0747 33.8204 60.1018 34.095C60.4146 37.2743 60.4203 37.7779 60.4377 39.9061C60.1529 37.9746 60.0345 37.2622 59.7742 36.0986C59.0413 36.1533 57.9953 36.9339 58.0493 37.2046C58.3086 38.5063 58.3591 39.0758 58.4436 40.7792C58.2166 39.5028 58.0297 38.7657 57.8086 37.8941L57.8086 37.894C57.6727 37.3582 57.5239 36.7715 57.345 35.9774C57.3164 35.8505 56.0281 35.463 55.3126 35.6532C55.3707 35.8921 55.4297 36.131 55.4887 36.37L55.4888 36.37C55.8331 37.7638 56.1772 39.1567 56.3253 40.5299C55.9181 39.4727 55.5395 38.3932 55.1957 37.2817C54.4836 37.4843 53.578 38.8522 53.6185 38.9759C53.8325 39.6287 54.0874 40.1792 54.3488 40.7439C54.507 41.0855 54.6675 41.4324 54.8229 41.8102H54.8231L54.8229 41.8103L55.0968 42.4129Z" fill="white"/>
<path fill-rule="evenodd" clip-rule="evenodd" d="M54.2188 42.4121H56.6302C56.6302 42.4121 58.6228 48.1393 64.09 48.1393C69.5571 48.1393 71.7017 42.4121 71.7017 42.4121H74.1131C74.1131 42.4121 73.5862 46.5714 72.7463 50.7768C71.9064 54.9822 70.7721 59.1414 70.7721 59.1414L69.5571 60.0457C69.5571 60.0457 67.1273 59.1414 64.09 59.1414C61.0527 59.1414 58.7747 60.0457 58.7747 60.0457L57.5598 59.1414C57.5598 59.1414 56.4162 54.936 55.5855 50.7768C54.7549 46.6175 54.2188 42.4121 54.2188 42.4121Z" fill="#D90007"/>
<path fill-rule="evenodd" clip-rule="evenodd" d="M65.6225 49.9492C64.9433 49.9492 64.3375 50.8213 63.941 52.1848C63.5449 50.8213 62.9388 49.9492 62.2596 49.9492C61.0659 49.9492 60.0977 52.8508 60.0977 56.4299H61.0586C61.0586 53.1065 61.5965 50.4122 62.2596 50.4122C62.923 50.4122 63.4607 52.8994 63.4607 55.9672H64.4215C64.4215 52.8994 64.9592 50.4122 65.6225 50.4122C66.2858 50.4122 66.8236 53.1065 66.8236 56.4299H67.7841C67.7841 52.8508 66.8164 49.9492 65.6225 49.9492Z" fill="#FFBC0D"/>
<path fill-rule="evenodd" clip-rule="evenodd" d="M57.2343 41.8101C57.2343 41.8101 59.1936 47.5373 64.1672 47.5373C69.1408 47.5373 71.1001 41.8101 71.1001 41.8101C71.1001 41.8101 72.4565 41.8101 73.5115 41.8101C74.1144 39.8508 74.4158 38.4944 74.7172 36.5351C73.9403 36.3184 72.9159 36.5079 72.8481 36.7754C72.732 37.2329 72.6603 37.4691 72.5358 37.9232C72.217 37.569 71.557 37.3875 70.9146 37.3264C70.7383 38.9351 70.5629 39.5256 70.1412 41.1623C70.2243 39.1277 70.3443 37.9993 70.6979 35.8939C69.9723 35.7474 69.0274 35.867 68.736 36.3909C68.5443 37.5929 68.4417 38.2593 68.3699 39.3049C68.298 37.4084 68.2619 36.3113 68.0984 34.3414C67.1789 34.4147 66.3248 34.8391 66.1669 35.4061C66.1855 35.6643 66.2183 36.1078 66.2339 36.3648C65.601 36.3507 64.9166 36.6232 64.6684 36.8216C64.3866 38.2289 64.3793 39.0647 63.9903 40.5044C63.9903 40.5044 63.833 39.393 64.3723 34.7598C64.4047 34.4818 63.371 33.7784 62.637 33.6808C62.4722 35.0295 62.3276 36.3764 62.2008 37.7225C62.1284 36.134 62.0054 34.5371 61.829 32.9248C61.2706 32.8265 60.0747 33.8204 60.1018 34.095C60.4146 37.2743 60.4203 37.7779 60.4377 39.906C60.1529 37.9746 60.0345 37.2622 59.7742 36.0986C59.0413 36.1533 57.9953 36.9339 58.0493 37.2046C58.3086 38.5062 58.3591 39.0757 58.4436 40.7792C58.077 38.718 57.8149 38.0633 57.345 35.9774C57.3164 35.8505 56.0281 35.463 55.3126 35.6532C55.7093 37.2855 56.1518 38.9212 56.3253 40.5298C55.9181 39.4727 55.5395 38.3932 55.1957 37.2817C54.4836 37.4843 53.578 38.8521 53.6185 38.9758C53.962 40.0237 54.4107 40.8078 54.8229 41.8101H57.2343Z" fill="#FFBC0D"/>
<path d="M47.8119 73.6161C46.9968 73.6161 46.3359 72.88 46.3359 71.9721C46.3359 71.0642 46.9968 70.3281 47.8119 70.3281L81.9738 70.3281C82.7889 70.3281 83.4498 71.0642 83.4498 71.9721C83.4498 72.88 82.7889 73.6161 81.9738 73.6161L47.8119 73.6161Z" fill="#F1F1F1"/>
<path d="M47.3855 79.37C46.8059 79.37 46.3359 78.6339 46.3359 77.726C46.3359 76.8182 46.8059 76.082 47.3855 76.082L71.6784 76.082C72.258 76.082 72.728 76.8182 72.728 77.726C72.728 78.6339 72.258 79.37 71.6784 79.37L47.3855 79.37Z" fill="#F1F1F1"/>
<path d="M112.189 96.7416C111.771 98.3009 110.154 99.2364 108.596 98.8187L66.6562 87.6008C65.0977 87.1831 64.1628 85.566 64.5807 84.0067L82.5973 16.6451C83.0152 15.0858 84.6319 14.1502 86.1904 14.5679L128.13 25.7858C129.688 26.2036 130.623 27.8207 130.205 29.38L112.189 96.7416Z" fill="white"/>
<path fill-rule="evenodd" clip-rule="evenodd" d="M108.921 97.6035C109.807 97.8408 110.735 97.3059 110.973 96.4164C110.973 96.4162 110.973 96.4165 110.973 96.4164L128.99 29.0549C129.228 28.1675 128.693 27.2394 127.805 27.0012C127.805 27.0012 127.805 27.0013 127.805 27.0012L85.8653 15.7834C84.9798 15.546 84.0514 16.0805 83.8127 16.9702C83.8128 16.97 83.8127 16.9703 83.8127 16.9702L65.7962 84.3318C65.5584 85.2191 66.0937 86.1472 66.9814 86.3855C66.9812 86.3854 66.9816 86.3855 66.9814 86.3855L108.921 97.6035ZM128.13 25.7858L86.1904 14.5679C84.6319 14.1502 83.0152 15.0858 82.5973 16.6451L64.5807 84.0067C64.1628 85.566 65.0977 87.1831 66.6562 87.6008L108.596 98.8187C110.154 99.2364 111.771 98.3009 112.189 96.7416L130.205 29.38C130.623 27.8207 129.688 26.2036 128.13 25.7858Z" fill="#EAEAEA"/>
<path d="M74.4184 74.3644C73.631 74.1534 73.1832 73.2714 73.4182 72.3945C73.6532 71.5176 74.4821 70.9777 75.2694 71.1887L108.267 80.0306C109.055 80.2416 109.502 81.1236 109.267 82.0005C109.032 82.8774 108.203 83.4173 107.416 83.2064L74.4184 74.3644Z" fill="#F1F1F1"/>
<path d="M72.5182 79.8126C71.9583 79.6626 71.6949 78.8299 71.9299 77.9531C72.1649 77.0762 72.8094 76.4869 73.3693 76.6369L96.8343 82.9246C97.3942 83.0746 97.6576 83.9073 97.4226 84.7841C97.1876 85.661 96.5431 86.2503 95.9832 86.1003L72.5182 79.8126Z" fill="#F1F1F1"/>
<path d="M105.18 66.5322C104.928 67.4646 100.692 67.1287 95.7188 65.7819C90.7458 64.4352 86.9192 62.5875 87.1717 61.6551C87.4242 60.7227 91.6603 61.0586 96.6332 62.4053C101.606 63.7521 105.433 65.5997 105.18 66.5322Z" fill="#A0A09F" fill-opacity="0.15"/>
<path d="M101.414 38.4813L101.188 38.4289C100.32 38.2309 99.4443 38.0618 98.5609 37.9215L98.5186 37.9154C97.982 37.847 97.4557 38.098 97.1704 38.5546L97.1559 38.5782L95.369 38.0945C94.7886 37.9373 94.1796 38.2228 93.9291 38.7695L93.3127 40.1149L93.2999 40.1443C93.1708 40.4595 93.2671 40.8114 93.513 41.0208L93.5253 41.0309L93.5021 41.1466C93.1994 42.5915 92.9042 44.0437 92.618 45.4967L92.4474 46.3678C92.108 48.1126 91.7815 49.8578 91.4678 51.6042C90.8404 55.097 90.261 58.6118 89.7296 62.1486C89.6763 62.5037 89.8758 62.8485 90.2104 62.9791C92.013 63.6828 93.843 64.2861 95.7003 64.7891L96.026 64.8762C97.7794 65.3391 99.5544 65.7124 101.353 65.9968C101.708 66.0529 102.054 65.856 102.187 65.5225C103.507 62.2173 104.781 58.8905 106.008 55.5419L106.313 54.7047C107.43 51.6344 108.503 48.5597 109.531 45.4806L109.568 45.3751L109.581 45.373C109.91 45.3151 110.178 45.0453 110.213 44.6918L110.36 43.2192L110.363 43.1794C110.402 42.5964 110.025 42.0635 109.457 41.9098L107.67 41.4257L107.67 41.3981C107.653 40.8457 107.309 40.3523 106.789 40.1497L106.5 40.0386C105.826 39.782 105.147 39.5441 104.463 39.3251L104.406 39.307L108.805 29.0201C108.972 28.6297 108.791 28.1778 108.4 28.0109L106.987 27.4063C106.596 27.2393 106.144 27.4205 105.977 27.8109L101.414 38.4813Z" fill="white"/>
<path fill-rule="evenodd" clip-rule="evenodd" d="M94.2539 41.2988C96.6246 42.1533 99.0221 42.9088 101.446 43.5653C103.871 44.2218 106.322 44.7794 108.8 45.2381C107.68 48.59 106.508 51.9368 105.284 55.2784C104.06 58.62 102.789 61.94 101.471 65.2383C99.5872 64.9405 97.7298 64.5437 95.8992 64.0479C94.0687 63.5522 92.2649 62.9575 90.4879 62.2638C91.0182 58.7343 91.5964 55.2267 92.2225 51.7411C92.8486 48.2556 93.5257 44.7748 94.2539 41.2988Z" fill="white"/>
<path fill-rule="evenodd" clip-rule="evenodd" d="M108.8 45.2372C108.8 45.2372 107.121 50.2652 105.284 55.2775C103.448 60.2899 101.472 65.2375 101.472 65.2375C101.472 65.2375 98.6457 64.7907 95.8999 64.0471C98.0643 64.6332 101.007 58.0806 104.728 44.3892C106.979 44.9033 108.8 45.2372 108.8 45.2372Z" fill="#EAEAEA"/>
<path fill-rule="evenodd" clip-rule="evenodd" d="M94.8844 51.4141C94.8521 48.7784 94.3134 46.795 93.3066 45.984C93.307 45.9803 93.307 45.9803 93.0171 47.4796C93.5865 49.3432 93.0954 54.0128 91.6681 59.2832L93.6904 59.8308C95.479 53.2264 98.0608 48.1783 99.4569 48.5564C100.853 48.9345 100.414 55.0414 98.4765 62.1962L100.498 62.7438C102.585 55.0385 102.24 48.2402 99.7269 47.5596C98.2975 47.1725 96.5139 48.7046 94.8844 51.4141Z" fill="#FFBC0D"/>
<g style="mix-blend-mode:multiply" opacity="0.24">
<path fill-rule="evenodd" clip-rule="evenodd" d="M98.5638 61.8663C99.5583 60.1922 100.656 57.5703 101.857 54.0006C101.809 56.5116 101.362 59.5496 100.497 62.7433L98.4754 62.1958C98.5052 62.0857 98.5347 61.9758 98.5638 61.8663Z" fill="#ADADAD"/>
</g>
<path d="M106.684 28.1133L108.097 28.7179L103.121 40.3546L101.623 39.9467L106.684 28.1133Z" fill="#A0A09F" fill-opacity="0.15"/>
<path d="M107.371 28.4805L107.795 28.6619L102.802 40.3379L102.353 40.2155L107.371 28.4805Z" fill="#EAEAEA"/>
<path fill-rule="evenodd" clip-rule="evenodd" d="M95.1701 38.8368L109.258 42.6522C109.476 42.7111 109.619 42.9188 109.597 43.1432L109.45 44.6158C106.824 44.117 104.224 43.5192 101.651 42.8225C99.0787 42.1257 96.5328 41.33 94.0137 40.4354L94.6302 39.09C94.7241 38.885 94.9525 38.7779 95.1701 38.8368Z" fill="#EAEAEA"/>
<path fill-rule="evenodd" clip-rule="evenodd" d="M98.4415 38.6806C99.8254 38.9004 101.19 39.1924 102.535 39.5566C103.88 39.9209 105.205 40.3573 106.511 40.8659C106.754 40.9606 106.911 41.1981 106.902 41.4587L106.895 41.6933L97.6924 39.2011L97.8043 38.9948C97.9286 38.7656 98.184 38.6397 98.4415 38.6806Z" fill="#EAEAEA"/>
<path fill-rule="evenodd" clip-rule="evenodd" d="M63.1243 119.76C64.5411 119.76 82.9401 104.899 82.9401 86.0152C82.9401 75.1036 74.0684 66.2578 63.1243 66.2578C52.1805 66.2578 43.3086 75.1036 43.3086 86.0152C43.3086 104.899 61.7079 119.76 63.1243 119.76Z" fill="#FFBC0D"/>
<path d="M69.1008 86.0738C69.1008 89.3744 66.4252 92.05 63.1246 92.05C59.8241 92.05 57.1484 89.3744 57.1484 86.0738C57.1484 82.7733 59.8241 80.0977 63.1246 80.0977C66.4252 80.0977 69.1008 82.7733 69.1008 86.0738Z" fill="white"/>
<path fill-rule="evenodd" clip-rule="evenodd" d="M87.1183 10.9004C89.1961 10.9004 90.9739 12.2249 91.6498 14.074L128.619 23.9625C131.183 24.6497 132.717 27.3006 132.03 29.8673C132.03 29.8676 132.03 29.867 132.03 29.8673L114.014 97.229C113.326 99.7924 110.677 101.33 108.109 100.641L83.7868 94.1358C81.8523 101.758 77.5326 108.311 73.4953 113.027C71.295 115.597 69.1464 117.66 67.4474 119.092C66.6003 119.806 65.8457 120.38 65.2369 120.787C64.9356 120.989 64.641 121.168 64.3703 121.306C64.2356 121.374 64.078 121.447 63.9087 121.507C63.7703 121.555 63.4804 121.648 63.1243 121.648C62.7808 121.648 62.5013 121.562 62.3637 121.515C62.1982 121.458 62.0453 121.389 61.9158 121.325C61.6557 121.195 61.3759 121.027 61.0929 120.841C60.5208 120.465 59.8154 119.935 59.0244 119.279C57.4372 117.961 55.4252 116.065 53.335 113.696C49.4962 109.346 45.2972 103.294 43.0525 96.2065L27.9382 100.266C25.3742 100.953 22.7197 99.4248 22.0314 96.8583C22.0313 96.858 22.0314 96.8587 22.0314 96.8583L3.94589 29.5152C3.25896 26.9521 4.7844 24.296 7.35171 23.6073C7.3514 23.6074 7.35202 23.6073 7.35171 23.6073L38.9214 15.1284C39.2259 12.7641 41.2527 10.9232 43.7012 10.9227L87.1183 10.9004ZM43.7021 12.8099C42.0885 12.8099 40.7691 14.1321 40.7691 15.7465L40.7695 16.5861L7.84123 25.43C6.28271 25.8477 5.35062 27.4664 5.76852 29.0257L23.854 96.3689C24.2719 97.9281 25.8901 98.861 27.4486 98.4432L44.3507 93.9037C44.3905 94.0559 44.4313 94.2076 44.473 94.359C48.5392 109.098 61.9244 119.761 63.1243 119.761C64.3435 119.761 78.1411 108.754 81.9635 93.6481C82.1174 93.0401 82.2551 92.4255 82.3751 91.8046L108.597 98.8185C110.156 99.2362 111.772 98.3006 112.19 96.7414L130.207 29.3797C130.625 27.8204 129.69 26.2033 128.132 25.7856L90.0511 15.5999C89.9865 14.0416 88.6911 12.7876 87.1183 12.7876L43.7021 12.8099Z" fill="white"/>
</svg>
