<svg width="375" height="225" viewBox="0 0 375 225" fill="none" xmlns="http://www.w3.org/2000/svg">
<ellipse cx="184" cy="183" rx="153" ry="14" fill="#A0A09F" fill-opacity="0.15"/>
<path d="M316 77V104H264L264.005 77H316Z" fill="#CCCCCC"/>
<path d="M190.926 100H77V77H191L190.926 100Z" fill="#CCCCCC"/>
<path d="M191 79L190.97 88H77V79H191Z" fill="#6F6F6F"/>
<path d="M316 79V88H264L264.002 79H316Z" fill="#6F6F6F"/>
<path d="M264 104H287V183H264V104Z" fill="#F9F9F9"/>
<path d="M288 104H316V183H288V104Z" fill="#F9F9F9"/>
<path d="M191 69L190.967 78.999L73.8004 79C72.8061 79 72 78.1942 72 77.2002V70.8008C72 69.8068 72.8061 69.001 73.8004 69.001L191 69Z" fill="#CCCCCC"/>
<path d="M318.212 69.001C319.2 69.001 320 69.8068 320 70.8008V77.2002C320 78.1942 319.2 79 318.212 79L264 78.999L264.002 69L318.212 69.001Z" fill="#CCCCCC"/>
<path d="M260.5 54.5254L260.473 183H194.569L194.5 54.5254L260.5 54.5254Z" fill="#F1F1F1"/>
<path d="M59.8 104H244.443C245.437 104 246.243 104.806 246.243 105.8V120H58V105.8C58 104.806 58.8059 104 59.8 104Z" fill="#6F6F6F"/>
<path d="M195 120H246V183H195V120Z" fill="#D8D8D8"/>
<path d="M109 120H137V183H109V120Z" fill="#F9F9F9"/>
<path d="M138 120H166V183H138V120Z" fill="#F9F9F9"/>
<path d="M167 120H195V183H167V120Z" fill="#F9F9F9"/>
<path d="M218 134H246V183H218V134Z" fill="#F9F9F9"/>
<path d="M58 178H109V184H58V178Z" fill="#CCCCCC"/>
<path d="M58 172H109V178H58V172Z" fill="#D8D8D8"/>
<path d="M58 167H109V173H58V167Z" fill="#CCCCCC"/>
<path d="M58 162H109V168H58V162Z" fill="#D8D8D8"/>
<path d="M58 157H109V163H58V157Z" fill="#CCCCCC"/>
<path d="M58 151H109V157H58V151Z" fill="#D8D8D8"/>
<path d="M58 146H109V152H58V146Z" fill="#CCCCCC"/>
<path d="M58 141H109V147H58V141Z" fill="#D8D8D8"/>
<path d="M58 136H109V142H58V136Z" fill="#CCCCCC"/>
<path d="M58 130H109V136H58V130Z" fill="#D8D8D8"/>
<path d="M58 125H109V131H58V125Z" fill="#CCCCCC"/>
<path d="M58 120H109V126H58V120Z" fill="#D8D8D8"/>
<path d="M136 120H140V183H136V120Z" fill="#D8D8D8"/>
<path d="M286 104H290V183H286V104Z" fill="#D8D8D8"/>
<path d="M312 104H316V183H312V104Z" fill="#D8D8D8"/>
<path d="M165 120H169V183H165V120Z" fill="#D8D8D8"/>
<path d="M218 134H246V140H218V134Z" fill="#EAEAEA"/>
<path d="M195 120H246V123H195V120Z" fill="#292929" fill-opacity="0.15"/>
<path d="M165 120H169V126H165V120Z" fill="#292929" fill-opacity="0.15"/>
<path d="M136 120H140V126H136V120Z" fill="#292929" fill-opacity="0.15"/>
<path d="M109 120H136V125H109V120Z" fill="#A0A09F" fill-opacity="0.15"/>
<path d="M140 120H165V125H140V120Z" fill="#A0A09F" fill-opacity="0.15"/>
<path d="M169 120H195V125H169V120Z" fill="#A0A09F" fill-opacity="0.15"/>
<path fill-rule="evenodd" clip-rule="evenodd" d="M236.023 66.7959C239.143 66.7959 241.672 79.9528 241.672 96.1817H246.195C246.195 78.703 241.64 64.5352 236.023 64.5352C232.826 64.5352 229.975 68.7942 228.111 75.4522C226.247 68.7942 223.396 64.5352 220.2 64.5352C214.584 64.5352 210.027 78.703 210.027 96.1817H214.55C214.55 79.9528 217.08 66.7959 220.2 66.7959C223.32 66.7959 225.85 78.9404 225.85 93.9209H230.372C230.372 78.9404 232.902 66.7959 236.023 66.7959Z" fill="#CCCCCC"/>
<path d="M67.8158 186.5L68.7364 186.494C75.9374 186.404 81.6316 185.137 81.6316 177.816C81.6316 170.186 75.446 164 67.8158 164C60.1855 164 54 170.186 54 177.816C54 185.446 60.1855 186.5 67.8158 186.5Z" fill="#CCCCCC"/>
<path d="M98.8158 186.5L99.7364 186.494C106.937 186.404 112.632 185.137 112.632 177.816C112.632 170.186 106.446 164 98.8158 164C91.1855 164 85 170.186 85 177.816C85 185.446 91.1855 186.5 98.8158 186.5Z" fill="#CCCCCC"/>
<path d="M128.816 186.5L129.736 186.494C136.937 186.404 142.632 185.137 142.632 177.816C142.632 170.186 136.446 164 128.816 164C121.186 164 115 170.186 115 177.816C115 185.446 121.186 186.5 128.816 186.5Z" fill="#CCCCCC"/>
<mask id="path-44-outside-1_1015_45303" maskUnits="userSpaceOnUse" x="51" y="51.5254" width="272" height="138" fill="black">
<rect fill="white" x="51" y="51.5254" width="272" height="138"/>
<path d="M260.475 183H246V183.001H141.132C138.979 185.806 134.719 186.432 129.736 186.495L128.815 186.501C123.441 186.501 118.783 185.977 116.499 183.001H111.132C108.979 185.806 104.719 186.432 99.7363 186.495L98.8154 186.501C94.1093 186.501 89.9535 186.099 87.459 184.001H79.1729C76.8422 185.961 73.0614 186.441 68.7363 186.495L67.8154 186.501C60.1854 186.501 54.0001 185.446 54 177.816C54 174.025 55.5275 170.591 58 168.095V105.801C58 104.807 58.8058 104.001 59.7998 104.001H194.528L194.502 54.5254H260.502L260.475 183ZM318.213 69.002C319.2 69.0022 320 69.8079 320 70.8018V77.2002C320 78.194 319.2 79.0007 318.213 79.001L316 79V183.001H264V104.001L264.003 88H264L264.002 79H264.005V78.999H264L264.002 69.001L318.213 69.002ZM190.974 77.001H191L190.993 79H191L190.97 88H190.965L190.926 100.001H77V79L73.8008 79.001C72.8065 79.001 72 78.1942 72 77.2002V70.8018C72 69.8077 72.8065 69.002 73.8008 69.002L191 69.001L190.974 77.001Z"/>
</mask>
<path d="M260.475 183V186H263.474L263.475 183.001L260.475 183ZM246 183V180H243V183H246ZM246 183.001V186.001H249V183.001H246ZM141.132 183.001V180.001H139.653L138.752 181.174L141.132 183.001ZM129.736 186.495L129.755 189.495L129.765 189.495L129.774 189.495L129.736 186.495ZM128.815 186.501L128.815 189.501H128.825L128.835 189.501L128.815 186.501ZM116.499 183.001L118.879 181.175L117.978 180.001H116.499V183.001ZM111.132 183.001V180.001H109.653L108.752 181.174L111.132 183.001ZM99.7363 186.495L99.7554 189.495L99.7648 189.495L99.7741 189.495L99.7363 186.495ZM98.8154 186.501L98.8154 189.501H98.825L98.8345 189.501L98.8154 186.501ZM87.459 184.001L89.3898 181.705L88.5527 181.001H87.459V184.001ZM79.1729 184.001V181.001H78.0791L77.242 181.705L79.1729 184.001ZM68.7363 186.495L68.7554 189.495L68.7648 189.495L68.7741 189.495L68.7363 186.495ZM67.8154 186.501L67.8154 189.501H67.825L67.8345 189.501L67.8154 186.501ZM54 177.816H51V177.816L54 177.816ZM58 168.095L60.1315 170.206L61 169.329V168.095H58ZM59.7998 104.001V101.001H59.7995L59.7998 104.001ZM194.528 104.001V107.001H197.53L197.528 103.999L194.528 104.001ZM194.502 54.5254V51.5254H191.5L191.502 54.527L194.502 54.5254ZM260.502 54.5254L263.502 54.526L263.503 51.5254H260.502V54.5254ZM318.213 69.002L318.214 66.002H318.213L318.213 69.002ZM318.213 79.001L318.212 82.001H318.214L318.213 79.001ZM316 79L316.001 76L313 75.9987V79H316ZM316 183.001V186.001H319V183.001H316ZM264 183.001H261V186.001H264V183.001ZM264 104.001L261 104V104.001H264ZM264.003 88L267.003 88.0005L267.003 85H264.003V88ZM264 88L261 87.9993L260.999 91H264V88ZM264.002 79V76H261.003L261.002 78.9993L264.002 79ZM264.005 79V82H267.005V79H264.005ZM264.005 78.999H267.005V75.999H264.005V78.999ZM264 78.999L261 78.9984L260.999 81.999H264V78.999ZM264.002 69.001L264.002 66.001L261.003 66.0009L261.002 69.0004L264.002 69.001ZM190.974 77.001L187.974 76.9911L187.964 80.001H190.974V77.001ZM191 77.001L194 77.0112L194.01 74.001H191V77.001ZM190.993 79L187.993 78.9897L187.983 82H190.993V79ZM191 79L194 79.0101L194.01 76H191V79ZM190.97 88V91H193.96L193.97 88.0101L190.97 88ZM190.965 88V85H187.975L187.965 87.9902L190.965 88ZM190.926 100.001V103.001H193.916L193.926 100.011L190.926 100.001ZM77 100.001H74V103.001H77V100.001ZM77 79H80V75.9991L76.9991 76L77 79ZM73.8008 79.001V82.001H73.8017L73.8008 79.001ZM73.8008 69.002V72.002H73.8008L73.8008 69.002ZM191 69.001L194 69.0109L194.01 66.001L191 66.001L191 69.001ZM260.475 183V180H246V183V186H260.475V183ZM246 183H243V183.001H246H249V183H246ZM246 183.001V180.001H141.132V183.001V186.001H246V183.001ZM141.132 183.001L138.752 181.174C138.22 181.867 137.31 182.46 135.732 182.875C134.134 183.296 132.116 183.465 129.699 183.495L129.736 186.495L129.774 189.495C132.339 189.463 134.942 189.287 137.259 188.677C139.594 188.063 141.891 186.939 143.512 184.828L141.132 183.001ZM129.736 186.495L129.717 183.495L128.796 183.501L128.815 186.501L128.835 189.501L129.755 189.495L129.736 186.495ZM128.815 186.501L128.815 183.501C126.179 183.501 123.959 183.367 122.19 182.948C120.435 182.532 119.443 181.91 118.879 181.175L116.499 183.001L114.119 184.827C115.839 187.069 118.318 188.196 120.806 188.786C123.281 189.373 126.077 189.501 128.815 189.501L128.815 186.501ZM116.499 183.001V180.001H111.132V183.001V186.001H116.499V183.001ZM111.132 183.001L108.752 181.174C108.22 181.867 107.31 182.46 105.732 182.875C104.134 183.296 102.116 183.465 99.6985 183.495L99.7363 186.495L99.7741 189.495C102.339 189.463 104.942 189.287 107.259 188.677C109.595 188.063 111.891 186.939 113.512 184.828L111.132 183.001ZM99.7363 186.495L99.7172 183.495L98.7963 183.501L98.8154 186.501L98.8345 189.501L99.7554 189.495L99.7363 186.495ZM98.8154 186.501L98.8154 183.501C96.5185 183.501 94.5231 183.4 92.8596 183.089C91.1867 182.776 90.0879 182.292 89.3898 181.705L87.459 184.001L85.5282 186.297C87.3246 187.808 89.551 188.574 91.7562 188.986C93.9707 189.401 96.4063 189.501 98.8154 189.501L98.8154 186.501ZM87.459 184.001V181.001H79.1729V184.001V187.001H87.459V184.001ZM79.1729 184.001L77.242 181.705C76.5922 182.251 75.5911 182.712 74.0883 183.026C72.59 183.34 70.7871 183.469 68.6985 183.495L68.7363 186.495L68.7741 189.495C71.0106 189.467 73.2606 189.329 75.3167 188.899C77.3682 188.47 79.4229 187.71 81.1037 186.297L79.1729 184.001ZM68.7363 186.495L68.7172 183.495L67.7963 183.501L67.8154 186.501L67.8345 189.501L68.7554 189.495L68.7363 186.495ZM67.8154 186.501L67.8154 183.501C63.9836 183.501 61.1721 183.205 59.3599 182.323C58.5397 181.923 58.0121 181.442 57.6621 180.855C57.3026 180.253 57 179.319 57 177.816L54 177.816L51 177.816C51 180.129 51.4707 182.188 52.5094 183.929C53.5575 185.686 55.0532 186.899 56.7331 187.717C59.9211 189.27 64.0172 189.501 67.8154 189.501L67.8154 186.501ZM54 177.816H57C57 174.848 58.1924 172.164 60.1315 170.206L58 168.095L55.8685 165.984C52.8625 169.019 51 173.203 51 177.816H54ZM58 168.095H61V105.801H58H55V168.095H58ZM58 105.801H61C61 106.464 60.4624 107.001 59.8001 107.001L59.7998 104.001L59.7995 101.001C57.1492 101.001 55 103.15 55 105.801H58ZM59.7998 104.001V107.001H194.528V104.001V101.001H59.7998V104.001ZM194.528 104.001L197.528 103.999L197.502 54.5238L194.502 54.5254L191.502 54.527L191.528 104.003L194.528 104.001ZM194.502 54.5254V57.5254H260.502V54.5254V51.5254H194.502V54.5254ZM260.502 54.5254L257.502 54.5248L257.475 182.999L260.475 183L263.475 183.001L263.502 54.526L260.502 54.5254ZM318.213 69.002L318.212 72.002C317.523 72.0018 317 71.4452 317 70.8018H320H323C323 68.1706 320.876 66.0027 318.214 66.002L318.213 69.002ZM320 70.8018H317V77.2002H320H323V70.8018H320ZM320 77.2002H317C317 76.5589 317.521 76.0012 318.212 76.001L318.213 79.001L318.214 82.001C320.879 82.0003 323 79.8292 323 77.2002H320ZM318.213 79.001L318.214 76.001L316.001 76L316 79L315.999 82L318.212 82.001L318.213 79.001ZM316 79H313V183.001H316H319V79H316ZM316 183.001V180.001H264V183.001V186.001H316V183.001ZM264 183.001H267V104.001H264H261V183.001H264ZM264 104.001L267 104.002L267.003 88.0005L264.003 88L261.003 87.9995L261 104L264 104.001ZM264.003 88V85H264V88V91H264.003V88ZM264 88L267 88.0007L267.002 79.0007L264.002 79L261.002 78.9993L261 87.9993L264 88ZM264.002 79V82H264.005V79V76H264.002V79ZM264.005 79H267.005V78.999H264.005H261.005V79H264.005ZM264.005 78.999V75.999H264V78.999V81.999H264.005V78.999ZM264 78.999L267 78.9996L267.002 69.0016L264.002 69.001L261.002 69.0004L261 78.9984L264 78.999ZM264.002 69.001L264.002 72.001L318.213 72.002L318.213 69.002L318.213 66.002L264.002 66.001L264.002 69.001ZM190.974 77.001V80.001H191V77.001V74.001H190.974V77.001ZM191 77.001L188 76.9907L187.993 78.9897L190.993 79L193.993 79.0103L194 77.0112L191 77.001ZM190.993 79V82H191V79V76H190.993V79ZM191 79L188 78.9899L187.97 87.9899L190.97 88L193.97 88.0101L194 79.0101L191 79ZM190.97 88V85H190.965V88V91H190.97V88ZM190.965 88L187.965 87.9902L187.926 99.9912L190.926 100.001L193.926 100.011L193.965 88.0098L190.965 88ZM190.926 100.001V97.001H77V100.001V103.001H190.926V100.001ZM77 100.001H80V79H77H74V100.001H77ZM77 79L76.9991 76L73.7999 76.001L73.8008 79.001L73.8017 82.001L77.0009 82L77 79ZM73.8008 79.001V76.001C74.4636 76.001 75 76.5377 75 77.2002H72H69C69 79.8507 71.1493 82.001 73.8008 82.001V79.001ZM72 77.2002H75V70.8018H72H69V77.2002H72ZM72 70.8018H75C75 71.4664 74.4615 72.002 73.8008 72.002V69.002V66.002C71.1514 66.002 69 68.1491 69 70.8018H72ZM73.8008 69.002L73.8008 72.002L191 72.001L191 69.001L191 66.001L73.8008 66.002L73.8008 69.002ZM191 69.001L188 68.9911L187.974 76.9911L190.974 77.001L193.974 77.0109L194 69.0109L191 69.001Z" fill="white" mask="url(#path-44-outside-1_1015_45303)"/>
</svg>
