<svg width="27" height="18" viewBox="0 0 27 18" fill="none" xmlns="http://www.w3.org/2000/svg">
<g clip-path="url(#clip0_109_43752)">
<path d="M0 0H27V18H0V0Z" fill="white"/>
<path d="M17.9263 6.44215H14.9737L13.5 3.88425L12.0263 6.44215H9.07368L10.5474 9.00005L9.07368 11.5579H12.0263L13.5 14.1158L14.9737 11.5579H17.9263L16.4526 9.00005L17.9263 6.44215ZM15.4316 9.00005L14.5263 10.7474H12.4789L11.5684 9.00005L12.4737 7.25268H14.5211L15.4316 9.00005ZM13.5 5.2211L14.1263 6.44741H12.8684L13.5 5.2211ZM10.4316 7.25268H11.6895L11.1211 8.35794L10.4316 7.25268ZM10.4316 10.7474L11.1158 9.58426L11.7421 10.7474H10.4316ZM13.5 12.7211L12.8737 11.5579H14.1316L13.5 12.7211ZM16.6263 10.7474H15.3105L15.9368 9.58426L16.6263 10.7474ZM15.2526 7.25268H16.6263L15.9421 8.41584L15.2526 7.25268ZM0 1.12109H26.9474V3.36846H0V1.12109ZM0 14.5948H26.9474V16.8422H0V14.5948Z" fill="#2E52B2"/>
</g>
<rect x="0.5" y="0.5" width="26" height="17" rx="0.5" stroke="black" stroke-opacity="0.2"/>
<defs>
<clipPath id="clip0_109_43752">
<rect width="27" height="18" rx="1" fill="white"/>
</clipPath>
</defs>
</svg>
