<svg width="375" height="225" viewBox="0 0 375 225" fill="none" xmlns="http://www.w3.org/2000/svg">
<g clip-path="url(#clip0_102_69602)">
<path d="M184.5 4C262.096 4 325 66.904 325 144.5C325 163.443 321.249 181.51 314.453 198H54.5469C47.7506 181.51 44 163.443 44 144.5C44 66.904 106.904 4 184.5 4Z" fill="#DCEDF4"/>
<ellipse cx="184" cy="203" rx="153" ry="14" fill="#A0A09F" fill-opacity="0.15"/>
<path d="M316 97V124H264L264.005 97H316Z" fill="#FFBC0D"/>
<path d="M190.926 120H77V97H191L190.926 120Z" fill="#FFBC0D"/>
<path d="M191 99L190.97 108H77V99H191Z" fill="black" fill-opacity="0.1"/>
<path d="M316 99V108H264L264.002 99H316Z" fill="black" fill-opacity="0.1"/>
<path d="M264 124H287V203H264V124Z" fill="#F9F9F9"/>
<path d="M288 124H316V203H288V124Z" fill="#F9F9F9"/>
<path d="M191 89L190.967 98.999L73.8004 99C72.8061 99 72 98.1942 72 97.2002V90.8008C72 89.8068 72.8061 89.001 73.8004 89.001L191 89Z" fill="#FFBC0D"/>
<path d="M318.212 89.001C319.2 89.001 320 89.8068 320 90.8008V97.2002C320 98.1942 319.2 99 318.212 99L264 98.999L264.002 89L318.212 89.001Z" fill="#FFBC0D"/>
<path d="M260.5 74.5234L260.473 202.998H194.569L194.5 74.5234L260.5 74.5234Z" fill="#F1F1F1"/>
<path d="M59.8 124H244.443C245.437 124 246.243 124.806 246.243 125.8V140H58V125.8C58 124.806 58.8059 124 59.8 124Z" fill="#606060"/>
<path d="M195 140H246V203H195V140Z" fill="#D8D8D8"/>
<path d="M109 140H137V203H109V140Z" fill="#F9F9F9"/>
<path d="M138 140H166V203H138V140Z" fill="#F9F9F9"/>
<path d="M167 140H195V203H167V140Z" fill="#F9F9F9"/>
<path d="M218 154H246V203H218V154Z" fill="#F9F9F9"/>
<path d="M58 198H109V204H58V198Z" fill="#A5835B"/>
<path d="M58 192H109V198H58V192Z" fill="#C2945C"/>
<path d="M58 187H109V193H58V187Z" fill="#A5835B"/>
<path d="M58 182H109V188H58V182Z" fill="#C2945C"/>
<path d="M58 177H109V183H58V177Z" fill="#A5835B"/>
<path d="M58 171H109V177H58V171Z" fill="#C2945C"/>
<path d="M58 166H109V172H58V166Z" fill="#A5835B"/>
<path d="M58 161H109V167H58V161Z" fill="#C2945C"/>
<path d="M58 156H109V162H58V156Z" fill="#A5835B"/>
<path d="M58 150H109V156H58V150Z" fill="#C2945C"/>
<path d="M58 145H109V151H58V145Z" fill="#A5835B"/>
<path d="M58 140H109V146H58V140Z" fill="#C2945C"/>
<path d="M136 140H140V203H136V140Z" fill="#D8D8D8"/>
<path d="M286 124H290V203H286V124Z" fill="#D8D8D8"/>
<path d="M312 124H316V203H312V124Z" fill="#D8D8D8"/>
<path d="M165 140H169V203H165V140Z" fill="#D8D8D8"/>
<path d="M218 154H246V160H218V154Z" fill="#A0A09F" fill-opacity="0.15"/>
<path d="M195 140H246V143H195V140Z" fill="#292929" fill-opacity="0.1"/>
<path d="M165 140H169V146H165V140Z" fill="#292929" fill-opacity="0.1"/>
<path d="M136 140H140V146H136V140Z" fill="#292929" fill-opacity="0.1"/>
<path d="M109 140H136V145H109V140Z" fill="#A0A09F" fill-opacity="0.15"/>
<path d="M140 140H165V145H140V140Z" fill="#A0A09F" fill-opacity="0.15"/>
<path d="M169 140H195V145H169V140Z" fill="#A0A09F" fill-opacity="0.15"/>
<path fill-rule="evenodd" clip-rule="evenodd" d="M236.023 86.7959C239.143 86.7959 241.672 99.9528 241.672 116.182H246.195C246.195 98.703 241.64 84.5352 236.023 84.5352C232.826 84.5352 229.975 88.7942 228.111 95.4522C226.247 88.7942 223.396 84.5352 220.2 84.5352C214.584 84.5352 210.027 98.703 210.027 116.182H214.55C214.55 99.9528 217.08 86.7959 220.2 86.7959C223.32 86.7959 225.85 98.9404 225.85 113.921H230.372C230.372 98.9404 232.902 86.7959 236.023 86.7959Z" fill="#FFBC0D"/>
<rect x="63" y="33" width="6" height="170" fill="#F9F9F9"/>
<rect x="66" y="33" width="3" height="170" fill="#F1F1F1"/>
<path d="M66 26C68.2091 26 70 27.7909 70 30C70 31.195 69.4754 32.267 68.6445 33H63.3555C62.5246 32.267 62 31.195 62 30C62 27.7909 63.7909 26 66 26Z" fill="#FFBC0D"/>
<path opacity="0.5" d="M66 26C67.3598 26 68.5605 26.6789 69.2832 27.7158C68.6357 27.2648 67.8489 27 67 27C64.7909 27 63 28.7909 63 31C63 31.8496 63.2659 32.6366 63.7178 33.2842C62.6799 32.5616 62 31.3605 62 30C62 27.7909 63.7909 26 66 26Z" fill="#F9F9F9"/>
<g clip-path="url(#clip1_102_69602)">
<path d="M69 33H124.323V69.882H69V33Z" fill="#E6BE53"/>
<path d="M71.1562 35.1562H122.166V67.7246H71.1562V35.1562Z" fill="#E01D24"/>
<path d="M95.797 45.1737C96.2715 45.6483 97.048 45.6483 97.5225 45.1737L97.0156 45.6806L99.4637 43.2326C99.9921 42.7473 100.769 42.6287 101.426 42.9306L101.653 43.0385C102.268 43.3512 102.375 43.9767 101.901 44.4512L102.408 43.9443L99.949 46.4031C99.4637 46.9316 99.345 47.708 99.647 48.3659L99.7548 48.5923C100.068 49.207 100.305 50.2531 100.305 50.9217V49.7031C100.305 50.3717 100.779 50.6845 101.405 50.3717L101.631 50.2639C102.246 49.9512 102.354 49.3257 101.879 48.8512L102.386 49.358C101.912 48.8835 101.912 48.1071 102.386 47.6325L101.879 48.1394C102.44 47.5463 102.915 46.8884 103.292 46.1767L103.4 45.9502C103.713 45.3355 104.079 44.3218 104.252 43.664L104.877 41.1512C105.039 40.5042 105.514 40.4179 105.913 40.9571L108.091 43.8581C108.501 44.4081 108.835 45.3679 108.835 46.0796V48.4953C108.835 49.1747 108.598 50.1992 108.285 50.8355L108.177 51.0619C107.8 51.7737 107.325 52.4315 106.765 53.0247L106.031 53.758C105.449 54.3188 104.791 54.7933 104.069 55.1707L103.842 55.2786C103.227 55.5913 102.171 55.8286 101.513 55.8286C100.844 55.8286 100.769 56.0658 101.394 56.3785L101.621 56.4864C102.235 56.7991 103.109 57.4246 103.583 57.8991L103.076 57.3923C103.551 57.8668 104.327 57.8668 104.802 57.3923L104.295 57.8991C104.769 57.4246 105.546 57.4246 106.02 57.8991L105.557 57.3707C106.053 57.8991 106.171 58.6756 105.869 59.3334L105.762 59.5599C105.449 60.1746 104.64 60.6599 103.993 60.6599C103.184 60.6275 102.397 60.4442 101.664 60.1099L101.437 60.002C100.736 59.6138 100.165 59.0422 99.7764 58.3413L99.6686 58.1148C99.3558 57.5001 98.7303 57.3923 98.2558 57.8668L98.7627 57.3599C98.2882 57.8668 98.2019 58.6324 98.5686 59.2256L99.6793 60.8863C100.046 61.4363 99.895 62.1912 99.345 62.5579L97.6843 63.6687C97.0696 64.0353 96.3039 64.0353 95.6784 63.6687L94.0176 62.5579C93.4676 62.1912 93.3167 61.4471 93.6833 60.8863L94.7941 59.2256C95.1608 58.6324 95.0745 57.8668 94.6 57.3599L95.1068 57.8668C94.6323 57.3923 94.0068 57.4785 93.6941 58.1148L93.5863 58.3413C93.2735 58.956 92.5618 59.6785 91.9255 60.002L91.699 60.1099C91.0843 60.4226 90.0275 60.6599 89.3696 60.6599C88.6255 60.6275 87.9569 60.2069 87.601 59.5599L87.4932 59.3334C87.1912 58.6756 87.3206 57.8991 87.8059 57.3707L87.2991 57.8776C87.7736 57.403 88.55 57.403 89.0245 57.8776L88.5177 57.3707C88.9922 57.8452 89.7686 57.8452 90.2432 57.3707L89.7363 57.8776C90.3294 57.3168 90.9873 56.8423 91.699 56.4648L91.9255 56.357C92.5402 56.0442 92.4647 55.807 91.8069 55.807C90.998 55.7746 90.2108 55.5913 89.4775 55.257L89.251 55.1491C88.5392 54.7717 87.8814 54.2972 87.2883 53.7364L86.5549 53.0031C85.9942 52.4207 85.5197 51.7629 85.1422 51.0404L85.0344 50.8139C84.7001 50.0806 84.5059 49.2825 84.4844 48.4737V46.0473C84.4844 45.3679 84.8187 44.3649 85.2285 43.8257L87.4069 40.9248C87.8167 40.3748 88.2804 40.461 88.4422 41.1189L89.0677 43.6316C89.2834 44.4189 89.5637 45.1845 89.9196 45.9179L90.0275 46.1443C90.3402 46.759 90.9657 47.6325 91.4402 48.1071L90.9333 47.6002C91.4078 48.0747 91.4078 48.8512 90.9333 49.3257L91.4402 48.8188C90.9657 49.2933 91.052 49.9188 91.6882 50.2315L91.9147 50.3394C92.5294 50.6521 93.0147 50.3394 93.0147 49.6708V50.8894C93.0147 50.2208 93.2519 49.1963 93.5647 48.56L93.6725 48.3335C93.9745 47.6757 93.8559 46.91 93.3706 46.3708L90.9226 43.9228L91.4294 44.4296C90.9549 43.9551 91.0412 43.3296 91.6775 43.0169L91.9039 42.9091C92.5618 42.6071 93.3274 42.7257 93.8667 43.211L96.3147 45.659L95.797 45.1737ZM93.8559 40.7846C93.3814 40.3101 93.5108 39.7601 94.1578 39.5444L95.4951 39.0915C96.1421 38.8758 97.1666 38.8758 97.8137 39.0915L99.1509 39.5444C99.798 39.7601 99.9274 40.3101 99.4529 40.7846L98.7196 41.5179C98.148 42.0248 97.4147 42.3267 96.649 42.3699C95.9804 42.3699 95.0529 41.9924 94.5784 41.5179C94.5892 41.5179 93.8559 40.7846 93.8559 40.7846Z" fill="#E6BE53"/>
<path d="M94.2227 54.5884C94.2227 55.257 94.406 55.2786 94.6756 54.6423C94.6756 54.6423 95.4413 52.1404 96.6599 52.1404C97.8785 52.1404 98.6658 54.6854 98.6658 54.6854C98.903 55.3001 99.0971 55.257 99.0971 54.5668V53.359C99.0971 51.3423 98.0079 49.7031 96.6599 49.7031C95.3119 49.7031 94.2227 51.3423 94.2227 53.359V54.5884Z" fill="#215F90"/>
</g>
<path d="M67.8158 205.5L68.7364 205.494C75.9374 205.404 81.6316 204.137 81.6316 196.816C81.6316 189.186 75.446 183 67.8158 183C60.1855 183 54 189.186 54 196.816C54 204.446 60.1855 205.5 67.8158 205.5Z" fill="#9CC93A"/>
<path d="M98.8158 205.5L99.7364 205.494C106.937 205.404 112.632 204.137 112.632 196.816C112.632 189.186 106.446 183 98.8158 183C91.1855 183 85 189.186 85 196.816C85 204.446 91.1855 205.5 98.8158 205.5Z" fill="#9CC93A"/>
<path d="M128.816 205.5L129.736 205.494C136.937 205.404 142.632 204.137 142.632 196.816C142.632 189.186 136.446 183 128.816 183C121.186 183 115 189.186 115 196.816C115 204.446 121.186 205.5 128.816 205.5Z" fill="#9CC93A"/>
<path d="M253.561 29.8555C255.088 29.8555 256.327 31.0943 256.327 32.6221C256.327 34.0685 255.217 35.2538 253.802 35.376C254.09 36.0127 254.252 36.7186 254.252 37.4629C254.252 40.2639 251.982 42.5342 249.181 42.5342H257.94C260.741 42.5342 263.013 44.8055 263.013 47.6064H269.929C272.729 47.6066 275 49.8769 275 52.6777C275 55.4786 272.73 57.7498 269.929 57.75H262.332C261.455 59.2653 259.817 60.2852 257.94 60.2852H215.523C213.647 60.2852 212.009 59.2653 211.132 57.75H206.071C203.27 57.7498 201 55.4786 201 52.6777C201 49.8769 203.271 47.6066 206.071 47.6064H210.452C210.452 44.8055 212.722 42.5342 215.523 42.5342H221.748C221.748 39.7334 224.018 37.4629 226.819 37.4629H235.349C235.349 34.6619 237.62 32.3916 240.421 32.3916H249.181C249.746 32.3916 250.288 32.4849 250.796 32.6553C250.796 32.6442 250.795 32.6332 250.795 32.6221C250.795 31.0943 252.033 29.8556 253.561 29.8555Z" fill="white"/>
<path d="M140.047 2C143.684 2 146.634 4.94858 146.634 8.58594C146.634 8.65081 146.631 8.71586 146.629 8.78027H148.184C150.537 8.78048 152.445 10.6884 152.445 13.042H155.738C158.092 13.042 160 14.95 160 17.3037C160 19.6574 158.092 21.5654 155.738 21.5654H153.229C152.493 22.8389 151.116 23.6963 149.539 23.6963H133.461C131.884 23.6963 130.507 22.8389 129.771 21.5654H127.262C124.908 21.5654 123 19.6574 123 17.3037C123 14.95 124.908 13.042 127.262 13.042H127.843C127.843 10.6883 129.751 8.78037 132.104 8.78027H133.466C133.464 8.71585 133.461 8.65081 133.461 8.58594C133.461 4.94867 136.41 2.00015 140.047 2Z" fill="white"/>
</g>
<defs>
<clipPath id="clip0_102_69602">
<rect width="375" height="225" fill="white"/>
</clipPath>
<clipPath id="clip1_102_69602">
<rect width="55.3231" height="36.882" fill="white" transform="translate(69 33)"/>
</clipPath>
</defs>
</svg>
