<svg width="136" height="136" viewBox="0 0 136 136" fill="none" xmlns="http://www.w3.org/2000/svg">
<path fill-rule="evenodd" clip-rule="evenodd" d="M93.289 39.6748C86.6737 26.1933 87.042 12.4522 94.1267 8.9826C94.8778 8.61473 97.8099 7.29471 98.626 6.95569C98.951 6.81864 99.2976 6.73208 99.6443 6.65995C103.154 5.44813 107.437 6.50126 111.857 9.73277C116.493 13.1158 120.776 18.5112 123.924 24.9238C127.073 31.3291 128.72 38.023 128.561 43.7575C128.402 49.7372 126.293 54.0219 122.624 55.8179C122.586 55.8392 122.546 55.8529 122.505 55.8665C122.477 55.876 122.449 55.8854 122.422 55.8973C121.814 56.2011 120.881 56.5975 120.001 56.9717L120 56.9719L119.999 56.9724C119.249 57.2909 118.538 57.5933 118.096 57.8088C111.019 61.2783 99.9115 53.1563 93.289 39.6748ZM119.05 59.7576C119.427 59.5734 120.073 59.2981 120.847 58.9691L119.999 56.9724L120.847 58.9691L120.9 58.9467C121.694 58.6093 122.61 58.2202 123.272 57.897C123.347 57.8701 123.47 57.8223 123.603 57.7544C128.292 55.4442 130.561 50.1717 130.73 43.8151C130.9 37.6541 129.138 30.6124 125.872 23.9675C122.606 17.3161 118.118 11.6157 113.135 7.98017C108.464 4.56526 103.485 3.10235 99.0692 4.56423C98.7021 4.6443 98.2498 4.7604 97.7888 4.95418C96.929 5.31176 93.9657 6.64568 93.1724 7.03421C88.5435 9.3012 86.5606 14.6583 86.4016 20.5154C86.2395 26.4868 87.911 33.6398 91.3413 40.6305L91.3417 40.6314C94.7759 47.6223 99.4159 53.3219 104.242 56.8498C108.974 60.3092 114.425 62.0236 119.05 59.7576ZM10.604 59.7071C10.6004 59.6999 10.5968 59.6891 10.5931 59.6783C10.5895 59.6675 10.5859 59.6566 10.5823 59.6494C4.88422 51.347 9.61458 38.0459 21.2058 29.9094C26.81 25.971 33.1653 23.7998 39.1089 23.7998C44.8287 23.7926 49.5229 25.7978 52.4406 29.4477C52.6211 29.6425 52.8017 29.8517 52.9678 30.0681C53.3716 30.589 53.7068 31.1173 54.0376 31.6387C54.2748 32.0125 54.5097 32.3828 54.766 32.7442C60.5436 40.9456 55.7627 54.2395 44.0848 62.4481C32.407 70.6568 18.2592 70.6568 12.4817 62.4554L12.2712 62.1555C11.5903 61.1853 11.3282 60.8119 10.604 59.7071ZM10.4955 63.4019C10.4954 63.4018 10.4954 63.4017 10.4953 63.4017C9.80796 62.4224 9.53142 62.0282 8.78956 60.8966L8.72044 60.7911L8.67795 60.7063C5.44355 55.8574 5.3077 49.7615 7.36714 43.9883C9.45335 38.14 13.8373 32.431 19.9593 28.1337C25.87 23.9801 32.6521 21.6305 39.1078 21.6303C39.1073 21.6303 39.1067 21.6303 39.1062 21.6303M8.53517 60.365L8.53594 60.3673L8.53517 60.365ZM10.4955 63.4019L10.7058 63.7016L10.708 63.7048C14.1136 68.5392 19.8626 70.776 26.071 70.7751C32.2872 70.7741 39.1723 68.5532 45.3324 64.2231C51.4921 59.8933 55.9113 54.1714 58.0127 48.3276C60.1118 42.4905 59.9458 36.3298 56.5397 31.4947L56.5357 31.4891C56.317 31.1808 56.1115 30.8577 55.8695 30.4764L55.8509 30.447C55.5314 29.9434 55.1509 29.3437 54.6855 28.7428C54.4888 28.4869 54.2837 28.2477 54.0859 28.0317C50.666 23.7968 45.3024 21.6228 39.1078 21.6303M76.5884 129.419L76.5873 129.419C61.3552 130.002 48.4822 118.112 47.8827 102.888L47.8827 102.888C47.2892 87.6724 59.193 74.8138 74.4282 74.2226C89.6633 73.6314 102.534 85.5304 103.135 100.746L103.135 100.747C103.727 115.968 91.824 128.827 76.5884 129.419ZM100.967 100.831C101.513 114.854 90.5438 126.706 76.5042 127.251C62.4661 127.789 50.6029 116.827 50.0506 102.803C49.5038 88.7872 60.4727 76.9353 74.5123 76.3905C88.5519 75.8457 100.414 86.8139 100.967 100.831Z" fill="white"/>
<path d="M54.7651 32.7432C54.1513 31.8776 53.6602 30.9616 52.9669 30.0671C52.8008 29.8507 52.6202 29.6415 52.4397 29.4468C49.522 25.7969 44.8278 23.7916 39.108 23.7988C33.1644 23.7988 26.8091 25.97 21.2049 29.9084C9.61369 38.0449 4.88333 51.3461 10.5814 59.6485C10.5886 59.6629 10.5959 59.6918 10.6031 59.7062C11.3975 60.918 11.6358 61.2498 12.4808 62.4544C18.2583 70.6558 32.4061 70.6558 44.0839 62.4472C55.7618 54.2386 60.5427 40.9446 54.7651 32.7432Z" fill="url(#paint0_linear_4254_40939)"/>
<path d="M22.15 31.2441C27.4726 27.5005 33.4956 25.4375 39.1071 25.4375C42.6892 25.4375 45.809 26.2814 48.2573 27.8611C49.5716 28.7123 50.691 29.7726 51.5793 31.0349C54.1215 34.6488 54.5042 39.4816 52.6482 44.6535C50.756 49.9263 46.7768 54.889 41.4542 58.6327C30.5491 66.3003 17.3474 66.3941 12.0249 58.8419C6.70232 51.2896 11.2449 38.9118 22.15 31.2441Z" fill="white"/>
<path d="M39.68 34.2577C40.7994 35.7869 33.0286 42.4591 22.528 49.29L24.0446 51.4323C34.5886 44.6303 44.201 40.4538 45.2987 41.9686C46.3892 43.4834 37.7301 50.4946 26.1967 57.7944L27.67 59.9151C40.1639 52.0959 48.9241 43.707 46.9525 40.9804C45.8187 39.4223 41.7238 39.9128 36.293 41.9758C40.4022 38.0951 42.4533 34.8131 41.305 33.2478C39.2684 30.4852 27.6339 34.6688 15.6094 42.7909L17.1549 44.9549C28.3633 37.4459 38.5606 32.7285 39.68 34.2577Z" fill="#FFBC0D"/>
<path d="M123.923 24.9237C120.774 18.5111 116.491 13.1156 111.855 9.73264C107.435 6.50113 103.152 5.448 99.6425 6.65982C99.2958 6.73195 98.9492 6.81851 98.6242 6.95556C97.8081 7.29458 94.876 8.6146 94.1249 8.98247C87.0402 12.452 86.6719 26.1932 93.2872 39.6747C99.9097 53.1561 111.017 61.2782 118.094 57.8087C119.055 57.3398 121.294 56.4598 122.42 55.8972C122.485 55.8683 122.558 55.8539 122.623 55.8178C126.291 54.0217 128.4 49.7371 128.559 43.7573C128.718 38.0228 127.071 31.329 123.923 24.9237Z" fill="url(#paint1_linear_4254_40939)"/>
<path d="M121.973 54.4838C118.991 55.948 114.997 55.032 110.729 51.9159C106.251 48.6483 102.091 43.3899 99.0148 37.1216C95.9383 30.8533 94.3206 24.3542 94.4794 18.8145C94.6239 13.5344 96.3499 9.81961 99.3326 8.36255C102.315 6.89827 106.309 7.81435 110.577 10.9305C115.055 14.198 119.215 19.4565 122.291 25.7247C125.259 31.7766 126.863 38.0377 126.841 43.4476C126.841 43.6423 126.834 43.8371 126.834 44.0318C126.675 49.3119 124.956 53.0195 121.973 54.4838Z" fill="white"/>
<path d="M107.769 16.3178C106.462 16.9598 106.924 20.8477 108.708 26.4163C105.393 21.5979 102.598 18.8496 101.291 19.4916C98.9871 20.6169 102.548 32.5764 109.242 46.2021L111.091 45.2933C104.88 32.6413 100.879 21.8792 102.158 21.2516C103.436 20.6241 109.119 29.5901 114.854 41.2683L116.702 40.3594C110.968 28.6813 107.357 18.7054 108.636 18.0778C109.914 17.4503 115.988 27.2025 122.198 39.8545L124.047 38.9456C117.36 25.3199 110.073 15.1926 107.769 16.3178Z" fill="#FFBC0D"/>
<path d="M76.4999 127.245C62.4617 127.783 50.5985 116.821 50.0462 102.797C49.4994 88.7812 60.4683 76.9293 74.5079 76.3845C88.5475 75.8397 100.409 86.8079 100.963 100.825C101.508 114.848 90.5395 126.7 76.4999 127.245Z" fill="url(#paint2_linear_4254_40939)"/>
<path d="M74.6028 78.9035C61.9561 79.39 52.0716 90.0636 52.5719 102.698C53.0722 115.332 63.7554 125.21 76.4036 124.716C89.0517 124.223 98.9347 113.556 98.4344 100.922C97.9341 88.2873 87.2494 78.4169 74.6028 78.9035Z" fill="white"/>
<path d="M81.2019 88.1952C78.6853 88.2952 76.5764 91.7263 75.3145 97.011C73.6447 91.8341 71.2716 88.5799 68.7565 88.6729C64.3425 88.8421 61.1902 100.111 61.7318 113.838L65.2898 113.701C64.7908 100.957 66.3739 90.5415 68.8295 90.4507C71.2866 90.3528 73.6476 99.8206 74.1113 111.585L77.6693 111.447C77.1986 99.6821 78.8193 90.0639 81.2693 89.9645C83.7264 89.8667 86.118 100.13 86.6171 112.875L90.1681 112.736C89.6406 99.012 85.6173 88.019 81.2019 88.1952Z" fill="#FFBC0D"/>
<defs>
<linearGradient id="paint0_linear_4254_40939" x1="8.16797" y1="46.2016" x2="57.2141" y2="46.2016" gradientUnits="userSpaceOnUse">
<stop offset="0.000616698" stop-color="#910063"/>
<stop offset="0.0362" stop-color="#990059"/>
<stop offset="0.1727" stop-color="#B60035"/>
<stop offset="0.3012" stop-color="#CA001C"/>
<stop offset="0.4172" stop-color="#D7000C"/>
<stop offset="0.5101" stop-color="#DB0007"/>
<stop offset="1" stop-color="#E8720A"/>
</linearGradient>
<linearGradient id="paint1_linear_4254_40939" x1="128.57" y1="32.3908" x2="88.5586" y2="32.3908" gradientUnits="userSpaceOnUse">
<stop offset="0.000616698" stop-color="#910063"/>
<stop offset="0.0362" stop-color="#990059"/>
<stop offset="0.1727" stop-color="#B60035"/>
<stop offset="0.3012" stop-color="#CA001C"/>
<stop offset="0.4172" stop-color="#D7000C"/>
<stop offset="0.5101" stop-color="#DB0007"/>
<stop offset="1" stop-color="#E8720A"/>
</linearGradient>
<linearGradient id="paint2_linear_4254_40939" x1="105.713" y1="82.2064" x2="55.8624" y2="71.6257" gradientUnits="userSpaceOnUse">
<stop offset="0.000616698" stop-color="#910063"/>
<stop offset="0.0362" stop-color="#990059"/>
<stop offset="0.1727" stop-color="#B60035"/>
<stop offset="0.3012" stop-color="#CA001C"/>
<stop offset="0.4172" stop-color="#D7000C"/>
<stop offset="0.5101" stop-color="#DB0007"/>
<stop offset="1" stop-color="#E8720A"/>
</linearGradient>
</defs>
</svg>
