<svg width="170" height="170" viewBox="0 0 170 170" fill="none" xmlns="http://www.w3.org/2000/svg">
<path d="M68.7795 23.5353L70.5186 25.3008L72.2576 23.5353C73.1402 22.6393 74.676 23.2578 74.676 24.5092V85.0384H27.8867V24.5092C27.8867 23.2578 29.4226 22.6393 30.3051 23.5353L32.0442 25.3008L33.7833 23.5353C34.3201 22.9903 35.195 22.9742 35.7517 23.4872L35.8014 23.5353L37.5405 25.3008L39.2796 23.5353C39.8165 22.9903 40.6913 22.9742 41.2481 23.4872L41.2978 23.5353L43.0369 25.3008L44.776 23.5353C45.3128 22.9903 46.1877 22.9742 46.7444 23.4872L46.7941 23.5353L48.5332 25.3008L50.2723 23.5353C50.8092 22.9903 51.684 22.9742 52.2407 23.4872L52.2904 23.5353L54.0295 25.3008L55.7686 23.5353C56.3055 22.9903 57.1803 22.9742 57.7371 23.4872L57.7868 23.5353L59.5259 25.3008L61.265 23.5353C61.8018 22.9903 62.6767 22.9742 63.2334 23.4872L63.2831 23.5353L65.0222 25.3008L66.7613 23.5353C67.2982 22.9903 68.173 22.9742 68.7297 23.4872L68.7795 23.5353Z" fill="white"/>
<path fill-rule="evenodd" clip-rule="evenodd" d="M29.2656 24.6719L32.0097 27.4863L34.7537 24.6719L37.4978 27.4863L40.2418 24.6719L42.9859 27.4863L45.7299 24.6719L48.474 27.4863L51.218 24.6719L53.9621 27.4863L56.7061 24.6719L59.4502 27.4863L62.1942 24.6719L64.9383 27.4863L67.6823 24.6719L70.4264 27.4863L73.1704 24.6719V80.9601C73.1704 82.2036 72.1624 83.2116 70.9189 83.2116H31.5172C30.2737 83.2116 29.2656 82.2036 29.2656 80.9601V24.6719Z" fill="#C2945C"/>
<path d="M29.2656 72.6523H73.3026V83.6616H29.2656V72.6523Z" fill="#DB0007"/>
<path fill-rule="evenodd" clip-rule="evenodd" d="M73.1647 38.5926C72.8038 38.5138 72.2561 38.4629 71.8886 38.4629C67.2157 38.4629 63.0433 44.4851 60.3158 53.8996C57.5866 44.4851 53.4158 38.4629 48.7397 38.4629C40.5246 38.4629 33.8594 58.9463 33.8594 83.6617H40.4743C40.4743 60.7162 44.177 41.658 48.7397 41.658C53.3073 41.658 57.0083 58.8331 57.0083 80.017H63.6216C63.6216 58.8331 67.3258 41.658 71.8886 41.658C72.2589 41.658 72.8072 41.7913 73.1647 42.0287C73.1633 39.8809 73.1647 41.0067 73.1647 38.5926Z" fill="#FFBC0D"/>
<path d="M113.152 41.4113C113.532 40.8418 114.167 40.502 114.851 40.502C115.347 40.502 115.825 40.6822 116.198 41.0092L117.228 41.9143L134.419 43.7555C135.129 43.8317 135.768 44.2142 136.169 44.8052C136.439 45.2014 136.744 45.7363 136.964 46.3757C137.531 46.393 138.067 46.6413 138.478 47.0796C139.477 48.1428 139.448 49.93 139.416 50.4524C139.369 51.196 138.818 51.8098 138.084 51.9356L138.08 51.9362C138.055 51.9405 137.91 51.9649 137.652 52.0031C136.753 60.258 134.704 79.6908 134.317 82.3291C133.929 84.9674 128.073 85.032 123.873 85.1675C119.178 85.319 112.433 84.8024 112.096 82.484C111.759 80.1656 109.176 58.156 108.437 51.9835C108.225 51.9362 108.109 51.9035 108.072 51.8924C107.353 51.6793 106.877 50.9968 106.925 50.2482C106.93 50.1717 106.98 49.4784 107.171 48.7552C107.72 46.6839 108.948 46.3746 109.631 46.3746H109.695L110.227 43.8496C110.518 42.4662 111.738 41.4558 113.145 41.4222L113.152 41.4113Z" fill="white"/>
<path fill-rule="evenodd" clip-rule="evenodd" d="M108.527 50.3534C108.527 50.3534 108.681 47.9821 109.63 47.9821H110.998L111.798 44.1814C111.95 43.4582 112.621 42.9647 113.356 43.0356L113.961 43.0937L114.488 42.3032C114.634 42.0842 114.939 42.0439 115.137 42.2176L116.55 43.4586L134.247 45.3539C134.488 45.3798 134.704 45.5095 134.841 45.7101C135.137 46.1456 135.61 46.9877 135.66 47.9821H136.9C137.52 47.9821 137.884 49.1859 137.811 50.3534C137.811 50.3534 132.286 51.3019 123.096 51.3019C111.718 51.3019 108.527 50.3534 108.527 50.3534Z" fill="#461E00"/>
<path fill-rule="evenodd" clip-rule="evenodd" d="M110.023 51.7148C110.023 51.7148 113.58 81.447 113.688 82.277C113.853 83.5357 118.152 83.8294 123.021 83.8294C127.889 83.8294 132.561 83.3167 132.725 82.1128C132.889 80.9089 136.062 51.7422 136.062 51.7422C136.062 51.7422 132.096 52.5082 122.824 52.5082C114.865 52.5082 110.023 51.7148 110.023 51.7148Z" fill="#FFBC0D"/>
<g style="mix-blend-mode:multiply" opacity="0.5">
<path fill-rule="evenodd" clip-rule="evenodd" d="M127.336 83.6786C128.121 76.076 129.087 61.2665 129.655 52.3489C134.085 52.1244 136.063 51.7422 136.063 51.7422C136.063 51.7422 132.891 80.9089 132.726 82.1128C132.613 82.9462 130.339 83.4484 127.336 83.6786Z" fill="#D8D8D8"/>
</g>
<path fill-rule="evenodd" clip-rule="evenodd" d="M124.593 77.1658C125.063 77.1307 125.443 79.0576 125.443 81.4996C125.669 81.4702 125.894 81.4359 126.12 81.3964C126.12 78.7658 125.44 76.7628 124.593 76.8257C124.112 76.8626 123.681 77.5116 123.4 78.5134C123.118 77.5116 122.687 76.8626 122.206 76.8257C121.359 76.763 120.68 78.7656 120.68 81.3964C120.905 81.4359 121.13 81.4702 121.356 81.4996C121.356 79.0576 121.736 77.1307 122.206 77.1658C122.676 77.2017 123.059 79.034 123.058 81.2885C123.286 81.2933 123.513 81.2933 123.741 81.2885C123.741 79.034 124.123 77.2019 124.593 77.1658Z" fill="#EC9D47"/>
<path fill-rule="evenodd" clip-rule="evenodd" d="M14.125 100.861H155.869V149.702C155.869 152.698 153.107 154.531 150.502 154.531H19.492C16.8866 154.531 14.125 152.698 14.125 149.702V100.861Z" fill="white"/>
<path fill-rule="evenodd" clip-rule="evenodd" d="M12.186 85.7246H157.808C159.398 85.7246 160.686 87.0129 160.686 88.602V97.985C160.686 99.5742 159.398 100.862 157.808 100.862L157.762 100.862C132.72 100.454 108.19 100.25 84.17 100.25C60.1916 100.25 36.2132 100.453 12.2347 100.86C10.694 100.886 9.41558 99.6962 9.31496 98.1753L9.30859 97.983V88.602C9.30859 87.0129 10.5968 85.7246 12.186 85.7246Z" fill="white"/>
<path d="M157.738 102.926L157.73 102.926C132.699 102.518 108.18 102.314 84.1717 102.314C60.205 102.314 36.2382 102.517 12.2715 102.924C9.62476 102.969 7.42988 100.925 7.25696 98.3113L7.25472 98.2774L7.24722 98.0511L7.24609 97.9827V88.6018C7.24609 85.8726 9.45853 83.6602 12.1877 83.6602H157.81C160.539 83.6602 162.752 85.8726 162.752 88.6018V97.9848C162.752 100.714 160.539 102.926 157.81 102.926H157.802L157.738 102.926Z" fill="white"/>
<path d="M16.1914 102.926H153.807V149.702C153.807 151.229 152.328 152.467 150.504 152.467H19.4942C17.6701 152.467 16.1914 151.229 16.1914 149.702V102.926Z" fill="#292929"/>
<path fill-rule="evenodd" clip-rule="evenodd" d="M12.1899 85.7246H157.812C159.401 85.7246 160.69 87.0129 160.69 88.602V97.985C160.69 99.5742 159.401 100.862 157.812 100.862L157.765 100.862C132.724 100.454 108.193 100.25 84.1739 100.25C60.1955 100.25 36.2171 100.453 12.2386 100.86C10.6979 100.886 9.41949 99.6962 9.31887 98.1753L9.3125 97.983V88.602C9.3125 87.0129 10.6007 85.7246 12.1899 85.7246Z" fill="#FFBC0D"/>
<path d="M82.6896 35.4961C86.6122 35.4961 89.1164 38.3781 91.206 45.3097L91.255 45.4737L91.2843 45.5319L95.8122 55.1909C95.9059 55.3908 95.9461 55.6117 95.9289 55.8319C95.5539 60.6174 95.0055 65.4339 94.2838 70.2815C93.5621 75.1287 92.6764 79.9443 91.6267 84.7284C91.503 85.2921 91.0177 85.6989 90.4482 85.7245L90.391 85.7258H58.6121C58.0178 85.7258 57.5035 85.3104 57.3761 84.7273C56.3172 79.881 55.4316 75.0658 54.7193 70.2815C54.0069 65.4968 53.4586 60.6807 53.0743 55.8331C53.0588 55.637 53.0888 55.4403 53.1616 55.2584L53.1909 55.1909L57.7316 45.5054L57.7481 45.4732L57.8028 45.2907C59.849 38.512 62.6076 35.6679 66.4225 35.5012L66.5383 35.4974L66.6581 35.4961C69.7911 35.4961 72.5279 36.6958 74.5691 41.0633L74.6738 41.2903L74.7151 41.1999C76.7173 36.8496 79.3999 35.6155 82.4757 35.5001L82.574 35.4973L82.6896 35.4961Z" fill="white"/>
<path fill-rule="evenodd" clip-rule="evenodd" d="M59.4301 47.7568H84.9519L84.9008 47.52C84.1878 44.2756 83.2604 42.3112 82.2455 42.3112C81.1863 42.3112 80.2223 44.2877 79.498 47.5209L79.4461 47.7568H69.9281L69.8769 47.52C69.1639 44.2756 68.2363 42.3112 67.2217 42.3112C66.1497 42.3112 65.1753 44.3356 64.4484 47.6383L64.4225 47.7568H59.456C61.226 41.6869 64.0105 37.7695 67.1436 37.7695C70.1861 37.7695 72.9004 41.1958 74.6747 46.5532C76.4501 41.1958 79.1639 37.7695 82.2063 37.7695C85.3081 37.7695 88.068 41.6089 89.84 47.5753L89.8934 47.7568H89.9193L94.1736 56.7929C93.8235 61.2419 93.3114 65.7204 92.6374 70.2281C91.9633 74.7358 91.1361 79.2143 90.1557 83.6633H59.1937C58.2046 79.1556 57.3773 74.6772 56.7121 70.2281C56.0468 65.779 55.5347 61.3006 55.1758 56.7929L59.4301 47.7568Z" fill="white"/>
<path fill-rule="evenodd" clip-rule="evenodd" d="M59.4301 47.7578H89.9193L94.1736 56.7939C94.1736 56.7939 93.6484 63.4675 92.6374 70.2291C91.6263 76.9907 90.1557 83.6644 90.1557 83.6644H59.1937C59.1937 83.6644 57.71 76.9027 56.7121 70.2291C55.7142 63.5555 55.1758 56.7939 55.1758 56.7939L59.4301 47.7578Z" fill="#DB0007"/>
<path fill-rule="evenodd" clip-rule="evenodd" d="M74.6771 73.2006C68.9487 73.2006 64.0825 69.0571 62.3279 63.2948L60.8734 63.9599L60.1719 62.4278L64.1725 60.5977L64.874 62.13L63.6442 62.6926C64.8514 67.016 69.3328 70.2261 74.6771 70.2261C80.0213 70.2261 84.5027 67.016 85.7101 62.6926L84.4802 62.13L85.1816 60.5977L89.1825 62.4278L88.4808 63.9599L87.0262 63.2948C85.2717 69.0571 80.4056 73.2006 74.6771 73.2006Z" fill="#FFBC0D"/>
<path fill-rule="evenodd" clip-rule="evenodd" d="M64.4235 47.7568C65.1531 44.3841 66.138 42.3112 67.2227 42.3112C68.2617 42.3112 69.2096 44.3714 69.9291 47.7568H79.4471C80.1769 44.3841 81.1618 42.3112 82.2465 42.3112C83.2858 42.3112 84.2334 44.3714 84.9529 47.7568H89.8944C88.1247 41.6869 85.3404 37.7695 82.2073 37.7695C79.1649 37.7695 76.4511 41.1958 74.6757 46.5532C72.9014 41.1958 70.1871 37.7695 67.1446 37.7695C64.0115 37.7695 61.227 41.6869 59.457 47.7568H64.4235Z" fill="#FFBC0D"/>
<path fill-rule="evenodd" clip-rule="evenodd" d="M64.4235 47.7568C65.1531 44.3841 66.138 42.3112 67.2227 42.3112C68.2617 42.3112 69.2096 44.3714 69.9291 47.7568H79.4471C80.1769 44.3841 81.1618 42.3112 82.2465 42.3112C83.2858 42.3112 84.2334 44.3714 84.9529 47.7568H89.8944C88.1247 41.6869 85.3404 37.7695 82.2073 37.7695C79.1649 37.7695 76.4511 41.1958 74.6757 46.5532C72.9014 41.1958 70.1871 37.7695 67.1446 37.7695C64.0115 37.7695 61.227 41.6869 59.457 47.7568H64.4235Z" fill="#FFBC0D"/>
<path fill-rule="evenodd" clip-rule="evenodd" d="M78.9185 46.7728C79.6797 43.3749 80.7516 41.5742 82.2461 41.5742C83.7023 41.5742 84.7323 43.363 85.4824 46.7763L85.6892 47.7332H78.707L78.9185 46.7728ZM84.1536 46.3178C83.5607 43.9576 82.8566 42.7994 82.2738 42.7637L82.2461 42.7629C81.6019 42.7629 80.8428 43.9597 80.222 46.4284L80.1932 46.5438H84.209L84.1536 46.3178Z" fill="white"/>
<path fill-rule="evenodd" clip-rule="evenodd" d="M63.8671 46.8924C64.6314 43.4198 65.7121 41.5742 67.221 41.5742C68.6419 41.5742 69.6573 43.2781 70.4026 46.5324L70.4573 46.7763L70.664 47.7332H63.6836L63.8671 46.8924ZM69.1282 46.3178C68.5353 43.9578 67.8311 42.7994 67.2484 42.7637L67.2207 42.7629C66.5775 42.7629 65.818 43.9671 65.1966 46.4318L65.1684 46.5438H69.1838L69.1282 46.3178Z" fill="white"/>
</svg>
