<svg width="375" height="225" viewBox="0 0 375 225" fill="none" xmlns="http://www.w3.org/2000/svg">
<ellipse cx="184.582" cy="189.78" rx="97.5979" ry="12.7992" fill="#A0A09F" fill-opacity="0.15"/>
<path d="M144 64.0195C144 61.8104 145.909 60.0195 148.264 60.0195H154.736C157.091 60.0195 159 61.8104 159 64.0195V133.065C159 135.274 157.091 137.065 154.736 137.065H148.264C145.909 137.065 144 135.274 144 133.065V64.0195Z" fill="#F1F1F1"/>
<path d="M195 89.0444V74.8535C195 72.6444 193.218 70.8535 191.02 70.8535H183.98C181.782 70.8535 180 72.6444 180 74.8535V96.3362L184.83 93.5277L184.88 93.5005C188.805 91.3661 189.13 91.2183 195 89.0444Z" fill="#F1F1F1"/>
<path d="M112.264 84.0957C109.909 84.0957 108 85.8866 108 88.0957V133.064C108 135.274 109.909 137.064 112.264 137.064H118.736C121.091 137.064 123 135.274 123 133.064V88.0957C123 85.8866 121.091 84.0957 118.736 84.0957H112.264Z" fill="#F1F1F1"/>
<path d="M126 107.357C126 105.148 127.782 103.357 129.98 103.357H137.02C139.218 103.357 141 105.148 141 107.357V133.065C141 135.274 139.218 137.065 137.02 137.065H129.98C127.782 137.065 126 135.274 126 133.065V107.357Z" fill="#D8D8D8"/>
<path d="M93.7803 57.6113C91.5825 57.6113 89.8008 59.4022 89.8008 61.6113V133.064C89.8008 135.274 91.5825 137.064 93.7803 137.064H100.821C103.019 137.064 104.801 135.274 104.801 133.064V61.6113C104.801 59.4022 103.019 57.6113 100.821 57.6113H93.7803Z" fill="#D8D8D8"/>
<path d="M176.579 134.857C175.925 136.166 174.577 137.065 173.02 137.065H165.98C163.782 137.065 162 135.274 162 133.065V84.4844C162 82.2752 163.782 80.4844 165.98 80.4844H173.02C175.218 80.4844 177 82.2752 177 84.4844V98.2858C174.045 100.723 172.304 104.301 172.137 108.061L171.743 108.309C169.374 109.799 168.259 112.676 169.002 115.385L173.237 130.825C173.732 132.631 174.975 134.077 176.579 134.857Z" fill="#D8D8D8"/>
<path d="M272.769 94.1635C273.939 99.0092 272.496 103.515 269.546 104.227C266.597 104.939 263.257 101.588 262.087 96.7425C260.917 91.8967 262.36 87.3912 265.31 86.679C268.259 85.9669 271.599 89.3178 272.769 94.1635Z" fill="#FFBC0D"/>
<path d="M217.835 140.608L219.53 139.896C219.93 139.729 220.39 139.917 220.558 140.316L224.017 148.555C224.185 148.954 223.997 149.415 223.597 149.582L221.902 150.294L217.835 140.608Z" fill="#FFBC0D"/>
<path d="M172.413 114.321C172.136 113.317 172.552 112.251 173.434 111.699L182.379 106.102L189.329 131.847L178.859 131.489C177.83 131.453 176.944 130.754 176.67 129.761L172.413 114.321Z" fill="#FFBC0D"/>
<path d="M227.888 166.157L228.799 164.968L235.025 166.861C237.154 167.509 237.28 170.476 235.213 171.301L230.666 173.116L227.888 166.157Z" fill="#FFBC0D"/>
<path d="M200.316 135.923L214.049 130.11L232.024 172.574L218.291 178.387L200.316 135.923Z" fill="#FFBC0D"/>
<path d="M251.339 56.506L255.938 55.8322C256.779 55.6316 257.624 56.1493 257.827 56.9899L276.363 133.57C276.566 134.409 276.053 135.255 275.215 135.463L271.363 136.417L251.339 56.506Z" fill="#FFBC0D"/>
<path d="M209.743 88.6365L216.893 86.0042C228.201 82.2894 234.876 76.3459 241.395 68.4903L251.339 56.506L271.363 136.417L267.683 135.036C253.093 129.553 241.443 126.229 222.803 132.039L209.743 88.6365Z" fill="#FFBC0D"/>
<path d="M176.182 111.64C174.764 107.397 176.526 102.741 180.399 100.501L186.42 97.0179C190.28 94.9296 190.28 94.9296 196.765 92.5416L209.743 88.6365L222.803 132.039L210.133 135.852C206.32 136.999 202.381 137.674 198.403 137.862L192.273 138.151C188.063 138.349 184.233 135.726 182.897 131.729L176.182 111.64Z" fill="#FFBC0D"/>
<mask id="path-9-outside-1_4486_42249" maskUnits="userSpaceOnUse" x="86.8008" y="51.7891" width="193" height="131" fill="black">
<rect fill="white" x="86.8008" y="51.7891" width="193" height="131"/>
<path fill-rule="evenodd" clip-rule="evenodd" d="M255.939 55.8322C256.781 55.6316 257.626 56.1498 257.829 56.9904L265.034 86.758C265.125 86.7277 265.218 86.7016 265.312 86.6789C268.261 85.9668 271.6 89.3178 272.771 94.1632C273.94 99.0087 272.498 103.514 269.549 104.227C269.458 104.249 269.367 104.266 269.275 104.28L276.365 133.57C276.568 134.409 276.055 135.255 275.217 135.463L271.365 136.417L267.685 135.036C253.095 129.554 241.445 126.229 222.805 132.039L215.764 134.157L218.396 140.373L219.532 139.897C219.932 139.729 220.392 139.917 220.56 140.317L224.019 148.555C224.186 148.954 223.999 149.414 223.6 149.582L222.49 150.047L228.808 164.971L235.027 166.861C237.156 167.509 237.282 170.476 235.215 171.301L232.001 172.583L218.293 178.387L201.054 137.662C200.173 137.752 199.29 137.821 198.405 137.862L192.275 138.151C188.065 138.349 184.235 135.726 182.898 131.729L182.863 131.625L178.861 131.488C177.832 131.453 176.946 130.753 176.672 129.761L172.415 114.32C172.138 113.317 172.553 112.251 173.436 111.698L175.827 110.201C175.189 106.383 176.962 102.49 180.4 100.501L186.422 97.0177C190.282 94.9295 190.283 94.9302 196.768 92.5422L209.745 88.6369L216.895 86.0041C228.203 82.2893 234.878 76.3459 241.396 68.4904L251.341 56.506L255.939 55.8322ZM100.821 57.6115C103.019 57.6115 104.801 59.4024 104.801 61.6115V133.065C104.801 135.274 103.019 137.065 100.821 137.065H93.7803C91.5826 137.065 89.801 135.274 89.8008 133.065V61.6115C89.8008 59.4024 91.5825 57.6115 93.7803 57.6115H100.821ZM118.737 84.0959C121.092 84.0959 123.002 85.8867 123.002 88.0959V133.065C123.002 135.274 121.092 137.065 118.737 137.065H112.266C109.911 137.065 108.002 135.274 108.002 133.065V88.0959C108.002 85.8867 109.911 84.0959 112.266 84.0959H118.737ZM137.021 103.357C139.219 103.357 141.001 105.148 141.001 107.357V133.065C141.001 135.274 139.219 137.065 137.021 137.065H129.981C127.784 137.065 126.002 135.274 126.002 133.065V107.357C126.002 105.148 127.784 103.357 129.981 103.357H137.021ZM154.737 60.0187C157.092 60.0187 159.001 61.8096 159.001 64.0187V133.065C159.001 135.274 157.092 137.065 154.737 137.065H148.266C145.911 137.065 144.002 135.274 144.002 133.065V64.0187C144.002 61.8096 145.911 60.0187 148.266 60.0187H154.737ZM173.021 80.4845C175.219 80.4845 177.001 82.2754 177.001 84.4845V98.2853C174.046 100.723 172.305 104.3 172.139 108.061L171.745 108.308C169.376 109.798 168.26 112.676 169.003 115.384L173.238 130.825C173.733 132.63 174.977 134.076 176.58 134.857C175.926 136.166 174.578 137.065 173.021 137.065H165.981C163.784 137.065 162.002 135.274 162.002 133.065V84.4836C162.002 82.2746 163.784 80.4845 165.981 80.4845H173.021ZM191.021 70.8537C193.219 70.8537 195.001 72.6445 195.001 74.8537V89.0441C189.131 91.2177 188.807 91.3659 184.882 93.5002L184.831 93.5275L180.002 96.3361V74.8537C180.002 72.6445 181.784 70.8537 183.981 70.8537H191.021Z"/>
</mask>
<path fill-rule="evenodd" clip-rule="evenodd" d="M255.939 55.8322L256.374 58.8005L256.506 58.7812L256.635 58.7504L255.939 55.8322ZM257.829 56.9904L260.745 56.2846V56.2846L257.829 56.9904ZM265.034 86.758L262.118 87.4637L262.886 90.6356L265.982 89.6042L265.034 86.758ZM265.312 86.6789L264.607 83.7627L264.607 83.7627L265.312 86.6789ZM272.771 94.1632L275.687 93.4591L275.687 93.4591L272.771 94.1632ZM269.549 104.227L270.253 107.143L270.253 107.143L269.549 104.227ZM269.275 104.28L268.812 101.317L265.593 101.82L266.36 104.986L269.275 104.28ZM276.365 133.57L279.281 132.864L279.281 132.864L276.365 133.57ZM275.217 135.463L275.938 138.375L275.938 138.375L275.217 135.463ZM271.365 136.417L270.311 139.226L271.183 139.553L272.087 139.329L271.365 136.417ZM267.685 135.036L266.629 137.845L266.631 137.845L267.685 135.036ZM222.805 132.039L223.669 134.912L223.683 134.908L223.697 134.903L222.805 132.039ZM215.764 134.157L214.899 131.285L211.697 132.248L213.001 135.327L215.764 134.157ZM218.396 140.373L215.633 141.543L216.799 144.296L219.555 143.14L218.396 140.373ZM219.532 139.897L220.692 142.663L220.693 142.663L219.532 139.897ZM220.56 140.317L223.326 139.155L223.326 139.155L220.56 140.317ZM224.019 148.555L221.252 149.716L221.253 149.716L224.019 148.555ZM223.6 149.582L224.759 152.349L224.763 152.348L223.6 149.582ZM222.49 150.047L221.331 147.28L218.554 148.444L219.728 151.217L222.49 150.047ZM228.808 164.971L226.045 166.14L226.592 167.433L227.935 167.841L228.808 164.971ZM235.027 166.861L235.9 163.991L235.9 163.991L235.027 166.861ZM235.215 171.301L236.327 174.087L236.327 174.087L235.215 171.301ZM232.001 172.583L230.889 169.797L230.86 169.808L230.831 169.821L232.001 172.583ZM218.293 178.387L215.53 179.556L216.7 182.319L219.463 181.149L218.293 178.387ZM201.054 137.662L203.816 136.493L202.953 134.453L200.749 134.678L201.054 137.662ZM198.405 137.862L198.546 140.859L198.547 140.859L198.405 137.862ZM192.275 138.151L192.135 135.154L192.134 135.154L192.275 138.151ZM182.898 131.729L185.744 130.778L185.741 130.771L185.739 130.764L182.898 131.729ZM182.863 131.625L185.704 130.66L185.037 128.698L182.966 128.627L182.863 131.625ZM178.861 131.488L178.759 134.487L178.759 134.487L178.861 131.488ZM176.672 129.761L173.78 130.558L173.78 130.558L176.672 129.761ZM172.415 114.32L169.523 115.118L169.523 115.118L172.415 114.32ZM173.436 111.698L175.027 114.242L175.027 114.241L173.436 111.698ZM175.827 110.201L177.419 112.744L179.116 111.682L178.786 109.707L175.827 110.201ZM180.4 100.501L181.903 103.098L181.903 103.098L180.4 100.501ZM186.422 97.0177L184.994 94.3791L184.957 94.3995L184.92 94.421L186.422 97.0177ZM196.768 92.5422L195.903 89.6694L195.816 89.6956L195.731 89.727L196.768 92.5422ZM209.745 88.6369L210.61 91.5096L210.697 91.4835L210.782 91.4521L209.745 88.6369ZM216.895 86.0041L215.958 83.1539L215.908 83.1705L215.858 83.1889L216.895 86.0041ZM241.396 68.4904L239.088 66.5747L239.088 66.5747L241.396 68.4904ZM251.341 56.506L250.906 53.5377L249.767 53.7046L249.032 54.5903L251.341 56.506ZM100.821 57.6115L100.821 54.6115H100.821V57.6115ZM104.801 133.065L107.801 133.065V133.065H104.801ZM100.821 137.065V140.065H100.821L100.821 137.065ZM93.7803 137.065L93.7802 140.065H93.7803V137.065ZM89.8008 133.065H86.8008V133.065L89.8008 133.065ZM93.7803 57.6115V54.6115H93.7802L93.7803 57.6115ZM123.002 133.065L126.002 133.065V133.065H123.002ZM108.002 133.065H105.002V133.065L108.002 133.065ZM141.001 107.357H144.001V107.356L141.001 107.357ZM141.001 133.065L144.001 133.065V133.065H141.001ZM126.002 133.065H123.002V133.065L126.002 133.065ZM126.002 107.357L123.002 107.356V107.357H126.002ZM159.001 64.0187H162.001V64.0187L159.001 64.0187ZM159.001 133.065L162.001 133.065V133.065H159.001ZM144.002 133.065H141.002V133.065L144.002 133.065ZM144.002 64.0187L141.002 64.0187V64.0187H144.002ZM177.001 98.2853L178.91 100.6L180.001 99.6996V98.2853H177.001ZM172.139 108.061L173.734 110.602L175.066 109.765L175.136 108.194L172.139 108.061ZM171.745 108.308L170.15 105.767L170.148 105.768L171.745 108.308ZM169.003 115.384L166.11 116.177L166.11 116.178L169.003 115.384ZM173.238 130.825L170.345 131.619L170.345 131.619L173.238 130.825ZM176.58 134.857L179.264 136.197L180.619 133.486L177.893 132.159L176.58 134.857ZM162.002 133.065H159.002V133.065L162.002 133.065ZM162.002 84.4836L159.002 84.4832V84.4836H162.002ZM195.001 89.0441L196.043 91.8574L198.001 91.1322V89.0441H195.001ZM184.882 93.5002L186.304 96.1416L186.315 96.1357L184.882 93.5002ZM184.831 93.5275L183.409 90.8861L183.365 90.9094L183.323 90.9342L184.831 93.5275ZM180.002 96.3361H177.002V101.551L181.51 98.9294L180.002 96.3361ZM255.939 55.8322L256.635 58.7504C255.867 58.9336 255.098 58.4602 254.913 57.6962L257.829 56.9904L260.745 56.2846C260.153 53.8394 257.695 52.3296 255.244 52.914L255.939 55.8322ZM257.829 56.9904L254.913 57.6962L262.118 87.4637L265.034 86.758L267.95 86.0522L260.745 56.2846L257.829 56.9904ZM265.034 86.758L265.982 89.6042C265.985 89.6032 265.996 89.5998 266.016 89.5951L265.312 86.6789L264.607 83.7627C264.439 83.8033 264.265 83.8523 264.086 83.9118L265.034 86.758ZM265.312 86.6789L266.016 89.5951C266.084 89.5785 266.638 89.5064 267.583 90.4547C268.484 91.3588 269.377 92.8898 269.854 94.8674L272.771 94.1632L275.687 93.4591C274.994 90.5913 273.632 88.024 271.833 86.2193C270.079 84.4587 267.488 83.0671 264.607 83.7627L265.312 86.6789ZM272.771 94.1632L269.854 94.8674C270.332 96.845 270.236 98.6144 269.847 99.8302C269.439 101.105 268.913 101.294 268.844 101.311L269.549 104.227L270.253 107.143C273.134 106.447 274.804 104.027 275.562 101.66C276.338 99.233 276.379 96.3269 275.687 93.4591L272.771 94.1632ZM269.549 104.227L268.845 101.311C268.846 101.31 268.836 101.313 268.812 101.317L269.275 104.28L269.739 107.244C269.898 107.22 270.071 107.187 270.253 107.143L269.549 104.227ZM269.275 104.28L266.36 104.986L273.449 134.275L276.365 133.57L279.281 132.864L272.191 103.575L269.275 104.28ZM276.365 133.57L273.449 134.275C273.264 133.511 273.731 132.74 274.495 132.551L275.217 135.463L275.938 138.375C278.379 137.77 279.872 135.307 279.281 132.864L276.365 133.57ZM275.217 135.463L274.495 132.551L270.644 133.505L271.365 136.417L272.087 139.329L275.938 138.375L275.217 135.463ZM271.365 136.417L272.419 133.608L268.738 132.227L267.685 135.036L266.631 137.845L270.311 139.226L271.365 136.417ZM267.685 135.036L268.74 132.228C261.417 129.476 254.56 127.156 247.097 126.322C239.576 125.481 231.585 126.16 221.912 129.175L222.805 132.039L223.697 134.903C232.664 132.108 239.819 131.545 246.43 132.285C253.1 133.03 259.363 135.114 266.629 137.845L267.685 135.036ZM222.805 132.039L221.94 129.166L214.899 131.285L215.764 134.157L216.628 137.03L223.669 134.912L222.805 132.039ZM215.764 134.157L213.001 135.327L215.633 141.543L218.396 140.373L221.158 139.204L218.526 132.988L215.764 134.157ZM218.396 140.373L219.555 143.14L220.692 142.663L219.532 139.897L218.372 137.13L217.236 137.607L218.396 140.373ZM219.532 139.897L220.693 142.663C219.565 143.136 218.267 142.606 217.794 141.478L220.56 140.317L223.326 139.155C222.517 137.228 220.299 136.322 218.372 137.13L219.532 139.897ZM220.56 140.317L217.793 141.478L221.252 149.716L224.019 148.555L226.785 147.393L223.326 139.155L220.56 140.317ZM224.019 148.555L221.253 149.716C220.78 148.591 221.307 147.292 222.436 146.817L223.6 149.582L224.763 152.348C226.691 151.536 227.593 149.318 226.785 147.393L224.019 148.555ZM223.6 149.582L222.44 146.815L221.331 147.28L222.49 150.047L223.65 152.814L224.759 152.349L223.6 149.582ZM222.49 150.047L219.728 151.217L226.045 166.14L228.808 164.971L231.57 163.801L225.253 148.878L222.49 150.047ZM228.808 164.971L227.935 167.841L234.155 169.732L235.027 166.861L235.9 163.991L229.68 162.101L228.808 164.971ZM235.027 166.861L234.154 169.732C234.059 169.703 233.924 169.62 233.822 169.481C233.733 169.358 233.701 169.237 233.697 169.141C233.693 169.045 233.714 168.922 233.793 168.793C233.883 168.645 234.011 168.551 234.103 168.515L235.215 171.301L236.327 174.087C241.027 172.211 240.742 165.464 235.9 163.991L235.027 166.861ZM235.215 171.301L234.103 168.515L230.889 169.797L232.001 172.583L233.113 175.37L236.327 174.087L235.215 171.301ZM232.001 172.583L230.831 169.821L217.123 175.624L218.293 178.387L219.463 181.149L233.171 175.346L232.001 172.583ZM218.293 178.387L221.056 177.217L203.816 136.493L201.054 137.662L198.291 138.832L215.53 179.556L218.293 178.387ZM201.054 137.662L200.749 134.678C199.917 134.763 199.088 134.827 198.264 134.866L198.405 137.862L198.547 140.859C199.492 140.815 200.43 140.742 201.358 140.647L201.054 137.662ZM198.405 137.862L198.264 134.866L192.135 135.154L192.275 138.151L192.416 141.147L198.546 140.859L198.405 137.862ZM192.275 138.151L192.134 135.154C189.264 135.289 186.654 133.501 185.744 130.778L182.898 131.729L180.053 132.68C181.815 137.951 186.866 141.409 192.417 141.147L192.275 138.151ZM182.898 131.729L185.739 130.764L185.704 130.66L182.863 131.625L180.023 132.59L180.058 132.693L182.898 131.729ZM182.863 131.625L182.966 128.627L178.964 128.49L178.861 131.488L178.759 134.487L182.761 134.623L182.863 131.625ZM178.861 131.488L178.964 128.49C179.246 128.5 179.489 128.692 179.564 128.964L176.672 129.761L173.78 130.558C174.402 132.815 176.419 134.407 178.759 134.487L178.861 131.488ZM176.672 129.761L179.564 128.964L175.307 113.523L172.415 114.32L169.523 115.118L173.78 130.558L176.672 129.761ZM172.415 114.32L175.307 113.523C175.383 113.797 175.27 114.089 175.027 114.242L173.436 111.698L171.844 109.155C169.836 110.412 168.894 112.837 169.523 115.118L172.415 114.32ZM173.436 111.698L175.027 114.241L177.419 112.744L175.827 110.201L174.235 107.658L171.844 109.156L173.436 111.698ZM175.827 110.201L178.786 109.707C178.351 107.105 179.562 104.452 181.903 103.098L180.4 100.501L178.898 97.9043C174.362 100.528 172.027 105.662 172.868 110.696L175.827 110.201ZM180.4 100.501L181.903 103.098L187.924 99.6145L186.422 97.0177L184.92 94.421L178.898 97.9044L180.4 100.501ZM186.422 97.0177L187.849 99.6564C191.533 97.6636 191.386 97.7208 197.804 95.3574L196.768 92.5422L195.731 89.727C189.179 92.1396 189.031 92.1955 184.994 94.3791L186.422 97.0177ZM196.768 92.5422L197.632 95.4149L210.61 91.5096L209.745 88.6369L208.881 85.7641L195.903 89.6694L196.768 92.5422ZM209.745 88.6369L210.782 91.4521L217.931 88.8193L216.895 86.0041L215.858 83.1889L208.708 85.8217L209.745 88.6369ZM216.895 86.0041L217.831 88.8542C229.847 84.9069 236.962 78.5324 243.705 70.4061L241.396 68.4904L239.088 66.5747C232.794 74.1595 226.559 79.6716 215.958 83.1539L216.895 86.0041ZM241.396 68.4904L243.705 70.4061L253.65 58.4217L251.341 56.506L249.032 54.5903L239.088 66.5747L241.396 68.4904ZM251.341 56.506L251.776 59.4743L256.374 58.8005L255.939 55.8322L255.505 52.8639L250.906 53.5377L251.341 56.506ZM100.821 57.6115L100.821 60.6115C101.348 60.6115 101.801 61.0447 101.801 61.6115H104.801H107.801C107.801 57.7601 104.69 54.6115 100.821 54.6115L100.821 57.6115ZM104.801 61.6115H101.801V133.065H104.801H107.801V61.6115H104.801ZM104.801 133.065L101.801 133.064C101.801 133.631 101.347 134.065 100.821 134.065L100.821 137.065L100.821 140.065C104.691 140.065 107.8 136.916 107.801 133.065L104.801 133.065ZM100.821 137.065V134.065H93.7803V137.065V140.065H100.821V137.065ZM93.7803 137.065L93.7803 134.065C93.2543 134.065 92.8008 133.631 92.8008 133.064L89.8008 133.065L86.8008 133.065C86.8012 136.916 89.9109 140.065 93.7802 140.065L93.7803 137.065ZM89.8008 133.065H92.8008V61.6115H89.8008H86.8008V133.065H89.8008ZM89.8008 61.6115H92.8008C92.8008 61.0447 93.2538 60.6115 93.7803 60.6115L93.7803 57.6115L93.7802 54.6115C89.9111 54.6115 86.8008 57.7601 86.8008 61.6115H89.8008ZM93.7803 57.6115V60.6115H100.821V57.6115V54.6115H93.7803V57.6115ZM118.737 84.0959V87.0959C119.619 87.0959 120.002 87.7219 120.002 88.0959H123.002H126.002C126.002 84.0515 122.565 81.0959 118.737 81.0959V84.0959ZM123.002 88.0959H120.002V133.065H123.002H126.002V88.0959H123.002ZM123.002 133.065L120.002 133.064C120.002 133.439 119.619 134.065 118.737 134.065V137.065V140.065C122.565 140.065 126.001 137.109 126.002 133.065L123.002 133.065ZM118.737 137.065V134.065H112.266V137.065V140.065H118.737V137.065ZM112.266 137.065V134.065C111.385 134.065 111.002 133.439 111.002 133.064L108.002 133.065L105.002 133.065C105.002 137.108 108.437 140.065 112.266 140.065V137.065ZM108.002 133.065H111.002V88.0959H108.002H105.002V133.065H108.002ZM108.002 88.0959H111.002C111.002 87.7211 111.384 87.0959 112.266 87.0959V84.0959V81.0959C108.437 81.0959 105.002 84.0524 105.002 88.0959H108.002ZM112.266 84.0959V87.0959H118.737V84.0959V81.0959H112.266V84.0959ZM137.021 103.357V106.357C137.548 106.357 138.001 106.79 138.001 107.357L141.001 107.357L144.001 107.356C144.001 103.505 140.891 100.357 137.021 100.357V103.357ZM141.001 107.357H138.001V133.065H141.001H144.001V107.357H141.001ZM141.001 133.065L138.001 133.064C138.001 133.632 137.548 134.065 137.021 134.065V137.065V140.065C140.891 140.065 144.001 136.916 144.001 133.065L141.001 133.065ZM137.021 137.065V134.065H129.981V137.065V140.065H137.021V137.065ZM129.981 137.065V134.065C129.455 134.065 129.002 133.632 129.002 133.064L126.002 133.065L123.002 133.065C123.002 136.916 126.112 140.065 129.981 140.065V137.065ZM126.002 133.065H129.002V107.357H126.002H123.002V133.065H126.002ZM126.002 107.357L129.002 107.357C129.002 106.79 129.455 106.357 129.981 106.357V103.357V100.357C126.112 100.357 123.002 103.505 123.002 107.356L126.002 107.357ZM129.981 103.357V106.357H137.021V103.357V100.357H129.981V103.357ZM154.737 60.0187V63.0187C155.619 63.0187 156.001 63.6439 156.001 64.0187L159.001 64.0187L162.001 64.0187C162.001 59.9752 158.566 57.0187 154.737 57.0187V60.0187ZM159.001 64.0187H156.001V133.065H159.001H162.001V64.0187H159.001ZM159.001 133.065L156.001 133.064C156.001 133.439 155.618 134.065 154.737 134.065V137.065V140.065C158.566 140.065 162.001 137.108 162.001 133.065L159.001 133.065ZM154.737 137.065V134.065H148.266V137.065V140.065H154.737V137.065ZM148.266 137.065V134.065C147.385 134.065 147.002 133.439 147.002 133.064L144.002 133.065L141.002 133.065C141.002 137.108 144.437 140.065 148.266 140.065V137.065ZM144.002 133.065H147.002V64.0187H144.002H141.002V133.065H144.002ZM144.002 64.0187L147.002 64.0187C147.002 63.6439 147.384 63.0187 148.266 63.0187V60.0187V57.0187C144.437 57.0187 141.002 59.9752 141.002 64.0187L144.002 64.0187ZM148.266 60.0187V63.0187H154.737V60.0187V57.0187H148.266V60.0187ZM173.021 80.4845V83.4845C173.548 83.4845 174.001 83.9177 174.001 84.4845H177.001H180.001C180.001 80.6331 176.891 77.4845 173.021 77.4845V80.4845ZM177.001 84.4845H174.001V98.2853H177.001H180.001V84.4845H177.001ZM177.001 98.2853L175.092 95.971C171.47 98.9586 169.345 103.334 169.142 107.928L172.139 108.061L175.136 108.194C175.266 105.266 176.622 102.487 178.91 100.6L177.001 98.2853ZM172.139 108.061L170.544 105.52L170.15 105.767L171.745 108.308L173.34 110.849L173.734 110.602L172.139 108.061ZM171.745 108.308L170.148 105.768C166.654 107.965 165.019 112.199 166.11 116.177L169.003 115.384L171.896 114.591C171.502 113.152 172.097 111.63 173.342 110.847L171.745 108.308ZM169.003 115.384L166.11 116.178L170.345 131.619L173.238 130.825L176.131 130.032L171.896 114.59L169.003 115.384ZM173.238 130.825L170.345 131.619C171.074 134.274 172.904 136.404 175.267 137.554L176.58 134.857L177.893 132.159C177.049 131.749 176.393 130.987 176.131 130.032L173.238 130.825ZM176.58 134.857L173.896 133.516C173.728 133.854 173.391 134.065 173.021 134.065V137.065V140.065C175.765 140.065 178.125 138.478 179.264 136.197L176.58 134.857ZM173.021 137.065V134.065H165.981V137.065V140.065H173.021V137.065ZM165.981 137.065V134.065C165.455 134.065 165.002 133.632 165.002 133.064L162.002 133.065L159.002 133.065C159.002 136.916 162.112 140.065 165.981 140.065V137.065ZM162.002 133.065H165.002V84.4836H162.002H159.002V133.065H162.002ZM162.002 84.4836L165.002 84.4839C165.002 83.9176 165.455 83.4845 165.981 83.4845V80.4845V77.4845C162.113 77.4845 159.002 80.6317 159.002 84.4832L162.002 84.4836ZM165.981 80.4845V83.4845H173.021V80.4845V77.4845H165.981V80.4845ZM191.021 70.8537V73.8537C191.548 73.8537 192.001 74.2868 192.001 74.8537H195.001H198.001C198.001 71.0023 194.891 67.8537 191.021 67.8537V70.8537ZM195.001 74.8537H192.001V89.0441H195.001H198.001V74.8537H195.001ZM195.001 89.0441L193.959 86.2308C188 88.4376 187.536 88.6422 183.449 90.8646L184.882 93.5002L186.315 96.1357C190.078 94.0897 190.263 93.9979 196.043 91.8574L195.001 89.0441ZM184.882 93.5002L183.46 90.8587L183.409 90.8861L184.831 93.5275L186.253 96.1689L186.304 96.1416L184.882 93.5002ZM184.831 93.5275L183.323 90.9342L178.494 93.7428L180.002 96.3361L181.51 98.9294L186.339 96.1208L184.831 93.5275ZM180.002 96.3361H183.002V74.8537H180.002H177.002V96.3361H180.002ZM180.002 74.8537H183.002C183.002 74.2868 183.455 73.8537 183.981 73.8537V70.8537V67.8537C180.112 67.8537 177.002 71.0023 177.002 74.8537H180.002ZM183.981 70.8537V73.8537H191.021V70.8537V67.8537H183.981V70.8537Z" fill="white" mask="url(#path-9-outside-1_4486_42249)"/>
</svg>
