<svg width="375" height="225" viewBox="0 0 375 225" fill="none" xmlns="http://www.w3.org/2000/svg">
<ellipse cx="294.039" cy="181.994" rx="33.5392" ry="5.03088" fill="#A0A09F" fill-opacity="0.15"/>
<mask id="path-2-outside-1_4362_42151" maskUnits="userSpaceOnUse" x="260.402" y="98.5" width="69" height="87" fill="black">
<rect fill="white" x="260.402" y="98.5" width="69" height="87"/>
<path d="M288.003 101.521C288.532 106.351 288.901 111.135 289.117 115.894C289.497 111.861 289.93 107.826 290.424 103.785C292.623 104.078 295.719 106.185 295.622 107.018C294.006 120.898 294.478 124.228 294.478 124.228C295.643 119.915 295.666 117.41 296.51 113.194C297.254 112.6 299.303 111.784 301.199 111.826C301.152 111.056 301.055 109.728 300.999 108.954C301.472 107.255 304.03 105.984 306.785 105.765C307.275 111.666 307.383 114.952 307.599 120.634C307.814 117.501 308.121 115.505 308.695 111.904C309.568 110.335 312.398 109.976 314.572 110.415C313.513 116.722 313.153 120.103 312.904 126.198C314.168 121.295 314.693 119.526 315.222 114.707C317.146 114.89 319.123 115.433 320.078 116.494C320.451 115.134 320.666 114.426 321.014 113.056C321.217 112.255 324.286 111.687 326.613 112.336C325.71 118.205 324.808 122.269 323.002 128.139L322.521 129.944H324.808C324.808 129.944 323.23 142.405 320.714 155.003C318.198 167.601 314.799 180.062 314.799 180.062L311.159 182.771C311.129 182.76 303.861 180.063 294.781 180.062C285.682 180.062 278.857 182.771 278.857 182.771L275.218 180.062C275.218 180.062 271.792 167.463 269.304 155.003C266.815 142.543 265.209 129.944 265.209 129.944H267.836L267.015 128.139L266.547 127.041C265.448 124.537 264.307 122.395 263.406 119.648C263.285 119.278 265.998 115.181 268.131 114.573C269.161 117.903 270.296 121.137 271.516 124.304C270.996 119.485 269.67 114.584 268.481 109.694C270.624 109.125 274.483 110.285 274.57 110.665C275.978 116.914 276.763 118.876 277.861 125.051C277.608 119.948 277.456 118.241 276.68 114.342C276.518 113.531 279.652 111.192 281.848 111.028C282.628 114.514 282.982 116.649 283.835 122.435C283.783 116.059 283.766 114.55 282.829 105.026C282.748 104.204 286.33 101.226 288.003 101.521Z"/>
</mask>
<path d="M288.003 101.521C288.532 106.351 288.901 111.135 289.117 115.894C289.497 111.861 289.93 107.826 290.424 103.785C292.623 104.078 295.719 106.185 295.622 107.018C294.006 120.898 294.478 124.228 294.478 124.228C295.643 119.915 295.666 117.41 296.51 113.194C297.254 112.6 299.303 111.784 301.199 111.826C301.152 111.056 301.055 109.728 300.999 108.954C301.472 107.255 304.03 105.984 306.785 105.765C307.275 111.666 307.383 114.952 307.599 120.634C307.814 117.501 308.121 115.505 308.695 111.904C309.568 110.335 312.398 109.976 314.572 110.415C313.513 116.722 313.153 120.103 312.904 126.198C314.168 121.295 314.693 119.526 315.222 114.707C317.146 114.89 319.123 115.433 320.078 116.494C320.451 115.134 320.666 114.426 321.014 113.056C321.217 112.255 324.286 111.687 326.613 112.336C325.71 118.205 324.808 122.269 323.002 128.139L322.521 129.944H324.808C324.808 129.944 323.23 142.405 320.714 155.003C318.198 167.601 314.799 180.062 314.799 180.062L311.159 182.771C311.129 182.76 303.861 180.063 294.781 180.062C285.682 180.062 278.857 182.771 278.857 182.771L275.218 180.062C275.218 180.062 271.792 167.463 269.304 155.003C266.815 142.543 265.209 129.944 265.209 129.944H267.836L267.015 128.139L266.547 127.041C265.448 124.537 264.307 122.395 263.406 119.648C263.285 119.278 265.998 115.181 268.131 114.573C269.161 117.903 270.296 121.137 271.516 124.304C270.996 119.485 269.67 114.584 268.481 109.694C270.624 109.125 274.483 110.285 274.57 110.665C275.978 116.914 276.763 118.876 277.861 125.051C277.608 119.948 277.456 118.241 276.68 114.342C276.518 113.531 279.652 111.192 281.848 111.028C282.628 114.514 282.982 116.649 283.835 122.435C283.783 116.059 283.766 114.55 282.829 105.026C282.748 104.204 286.33 101.226 288.003 101.521Z" fill="white"/>
<path d="M288.003 101.521L290.679 101.228C290.549 100.038 289.649 99.0764 288.47 98.8689L288.003 101.521ZM289.117 115.894L286.428 116.016C286.492 117.429 287.638 118.551 289.052 118.585C290.466 118.619 291.665 117.554 291.798 116.146L289.117 115.894ZM290.424 103.785L290.779 101.116C290.066 101.021 289.345 101.216 288.776 101.656C288.208 102.096 287.838 102.745 287.751 103.459L290.424 103.785ZM295.622 107.018L298.296 107.329L298.297 107.328L295.622 107.018ZM294.478 124.228L291.812 124.605C291.991 125.871 293.035 126.836 294.312 126.915C295.588 126.994 296.743 126.164 297.077 124.93L294.478 124.228ZM296.51 113.194L294.829 111.091C294.334 111.487 293.994 112.044 293.87 112.666L296.51 113.194ZM301.199 111.826L301.139 114.518C301.892 114.535 302.617 114.236 303.139 113.693C303.661 113.151 303.932 112.414 303.887 111.663L301.199 111.826ZM300.999 108.954L298.405 108.232C298.322 108.53 298.291 108.84 298.314 109.148L300.999 108.954ZM306.785 105.765L309.468 105.542C309.346 104.063 308.05 102.963 306.571 103.081L306.785 105.765ZM307.599 120.634L304.908 120.736C304.962 122.166 306.126 123.304 307.557 123.326C308.989 123.348 310.187 122.246 310.285 120.818L307.599 120.634ZM308.695 111.904L306.343 110.595C306.19 110.87 306.086 111.17 306.036 111.48L308.695 111.904ZM314.572 110.415L317.227 110.861C317.468 109.428 316.529 108.063 315.105 107.776L314.572 110.415ZM312.904 126.198L310.214 126.088C310.158 127.464 311.149 128.661 312.511 128.862C313.874 129.063 315.168 128.204 315.512 126.87L312.904 126.198ZM315.222 114.707L315.477 112.027C314.011 111.887 312.706 112.951 312.545 114.414L315.222 114.707ZM320.078 116.494L318.077 118.296C318.736 119.027 319.741 119.341 320.699 119.114C321.657 118.887 322.414 118.155 322.675 117.206L320.078 116.494ZM321.014 113.056L318.404 112.392L318.404 112.393L321.014 113.056ZM326.613 112.336L329.274 112.745C329.482 111.398 328.649 110.109 327.337 109.743L326.613 112.336ZM323.002 128.139L320.429 127.347C320.419 127.379 320.409 127.412 320.4 127.445L323.002 128.139ZM322.521 129.944L319.919 129.251C319.703 130.059 319.876 130.921 320.385 131.585C320.895 132.248 321.684 132.637 322.521 132.637V129.944ZM324.808 129.944L327.479 130.283C327.576 129.516 327.339 128.744 326.827 128.164C326.316 127.584 325.581 127.252 324.808 127.252V129.944ZM320.714 155.003L323.354 155.53V155.53L320.714 155.003ZM314.799 180.062L316.406 182.222C316.889 181.863 317.238 181.352 317.396 180.771L314.799 180.062ZM311.159 182.771L310.221 185.295C311.077 185.613 312.035 185.476 312.767 184.931L311.159 182.771ZM294.781 180.062L294.781 177.37H294.781V180.062ZM278.857 182.771L277.25 184.931C277.999 185.489 278.983 185.618 279.851 185.274L278.857 182.771ZM275.218 180.062L272.62 180.769C272.778 181.351 273.127 181.862 273.61 182.222L275.218 180.062ZM269.304 155.003L266.663 155.53L266.663 155.53L269.304 155.003ZM265.209 129.944V127.252C264.436 127.252 263.699 127.585 263.188 128.165C262.677 128.745 262.44 129.518 262.538 130.285L265.209 129.944ZM267.836 129.944V132.637C268.751 132.637 269.604 132.172 270.1 131.402C270.595 130.632 270.666 129.663 270.287 128.83L267.836 129.944ZM267.015 128.139L264.538 129.194C264.546 129.214 264.555 129.234 264.564 129.253L267.015 128.139ZM266.547 127.041L269.024 125.985C269.02 125.977 269.016 125.968 269.012 125.959L266.547 127.041ZM263.406 119.648L260.848 120.487L260.848 120.487L263.406 119.648ZM268.131 114.573L270.703 113.778C270.271 112.38 268.801 111.583 267.394 111.984L268.131 114.573ZM271.516 124.304L269.003 125.271C269.489 126.533 270.835 127.239 272.149 126.921C273.463 126.602 274.337 125.359 274.193 124.015L271.516 124.304ZM268.481 109.694L267.79 107.092C266.374 107.469 265.519 108.907 265.865 110.33L268.481 109.694ZM274.57 110.665L277.197 110.073L277.195 110.066L274.57 110.665ZM277.861 125.051L275.21 125.522C275.459 126.921 276.752 127.886 278.164 127.726C279.576 127.566 280.621 126.337 280.55 124.918L277.861 125.051ZM276.68 114.342L274.039 114.867L274.039 114.868L276.68 114.342ZM281.848 111.028L284.475 110.44C284.183 109.137 282.98 108.244 281.647 108.343L281.848 111.028ZM283.835 122.435L281.171 122.827C281.378 124.227 282.632 125.228 284.043 125.119C285.453 125.01 286.539 123.827 286.527 122.413L283.835 122.435ZM282.829 105.026L285.509 104.763L285.509 104.762L282.829 105.026ZM288.003 101.521L285.326 101.813C285.849 106.587 286.213 111.314 286.428 116.016L289.117 115.894L291.807 115.771C291.588 110.955 291.214 106.114 290.679 101.228L288.003 101.521ZM289.117 115.894L291.798 116.146C292.176 112.137 292.606 108.126 293.096 104.112L290.424 103.785L287.751 103.459C287.255 107.525 286.819 111.585 286.437 115.641L289.117 115.894ZM290.424 103.785L290.069 106.454C290.624 106.528 291.565 106.908 292.426 107.463C292.836 107.726 293.106 107.953 293.231 108.081C293.298 108.149 293.257 108.122 293.186 107.999C293.145 107.929 292.862 107.442 292.948 106.707L295.622 107.018L298.297 107.328C298.406 106.385 298.048 105.65 297.848 105.304C297.617 104.905 297.333 104.575 297.088 104.323C296.591 103.813 295.968 103.338 295.341 102.935C294.129 102.155 292.422 101.335 290.779 101.116L290.424 103.785ZM295.622 107.018L292.948 106.706C292.134 113.696 291.84 118.076 291.753 120.739C291.709 122.072 291.717 122.985 291.738 123.587C291.749 123.888 291.764 124.114 291.777 124.278C291.784 124.36 291.79 124.427 291.796 124.481C291.799 124.508 291.802 124.532 291.805 124.552C291.806 124.562 291.807 124.572 291.808 124.581C291.809 124.585 291.81 124.589 291.81 124.593C291.81 124.595 291.811 124.597 291.811 124.599C291.811 124.6 291.811 124.601 291.811 124.602C291.811 124.603 291.812 124.605 294.478 124.228C297.143 123.85 297.144 123.852 297.144 123.853C297.144 123.854 297.144 123.855 297.144 123.856C297.144 123.857 297.145 123.859 297.145 123.861C297.145 123.864 297.146 123.867 297.146 123.87C297.147 123.875 297.147 123.88 297.148 123.883C297.149 123.89 297.149 123.893 297.149 123.892C297.149 123.89 297.147 123.872 297.144 123.837C297.138 123.764 297.128 123.622 297.12 123.394C297.104 122.938 297.094 122.151 297.135 120.916C297.216 118.444 297.494 114.219 298.296 107.329L295.622 107.018ZM294.478 124.228L297.077 124.93C297.696 122.637 298.011 120.823 298.276 119.079C298.542 117.327 298.744 115.749 299.15 113.723L296.51 113.194L293.87 112.666C293.431 114.855 293.2 116.638 292.952 118.27C292.703 119.91 292.424 121.505 291.878 123.525L294.478 124.228ZM296.51 113.194L298.191 115.298C298.169 115.315 298.249 115.252 298.471 115.143C298.676 115.043 298.943 114.933 299.253 114.833C299.891 114.626 300.57 114.505 301.139 114.518L301.199 111.826L301.259 109.134C299.933 109.105 298.639 109.371 297.592 109.71C296.593 110.034 295.555 110.511 294.829 111.091L296.51 113.194ZM301.199 111.826L303.887 111.663C303.839 110.873 303.739 109.522 303.684 108.76L300.999 108.954L298.314 109.148C298.37 109.933 298.466 111.24 298.512 111.99L301.199 111.826ZM300.999 108.954L303.593 109.676C303.546 109.846 303.558 109.579 304.306 109.179C304.979 108.819 305.939 108.533 306.999 108.449L306.785 105.765L306.571 103.081C304.877 103.216 303.18 103.675 301.767 104.43C300.429 105.146 298.925 106.364 298.405 108.232L300.999 108.954ZM306.785 105.765L304.102 105.987C304.586 111.821 304.693 115.053 304.908 120.736L307.599 120.634L310.289 120.532C310.074 114.852 309.964 111.51 309.468 105.542L306.785 105.765ZM307.599 120.634L310.285 120.818C310.491 117.815 310.781 115.921 311.354 112.328L308.695 111.904L306.036 111.48C305.461 115.09 305.136 117.188 304.913 120.449L307.599 120.634ZM308.695 111.904L311.048 113.213C310.927 113.43 310.923 113.206 311.705 113.04C312.395 112.894 313.272 112.899 314.04 113.054L314.572 110.415L315.105 107.776C313.698 107.492 312.074 107.457 310.587 107.773C309.192 108.069 307.336 108.809 306.343 110.595L308.695 111.904ZM314.572 110.415L311.917 109.969C310.84 116.381 310.468 119.874 310.214 126.088L312.904 126.198L315.594 126.308C315.838 120.332 316.186 117.064 317.227 110.861L314.572 110.415ZM312.904 126.198L315.512 126.87C316.774 121.972 317.346 120.033 317.898 115L315.222 114.707L312.545 114.414C312.041 119.019 311.562 120.619 310.297 125.526L312.904 126.198ZM315.222 114.707L314.967 117.387C315.782 117.465 316.541 117.614 317.144 117.82C317.787 118.039 318.034 118.247 318.077 118.296L320.078 116.494L322.079 114.693C321.167 113.68 319.948 113.086 318.882 112.723C317.777 112.346 316.585 112.132 315.477 112.027L315.222 114.707ZM320.078 116.494L322.675 117.206C323.032 115.901 323.268 115.12 323.623 113.718L321.014 113.056L318.404 112.393C318.064 113.732 317.87 114.366 317.482 115.782L320.078 116.494ZM321.014 113.056L323.623 113.719C323.46 114.361 323.087 114.714 322.952 114.827C322.801 114.954 322.702 114.991 322.735 114.977C322.797 114.95 323.019 114.874 323.413 114.815C324.202 114.698 325.161 114.726 325.89 114.929L326.613 112.336L327.337 109.743C325.738 109.297 323.999 109.284 322.621 109.489C321.931 109.591 321.203 109.767 320.56 110.051C320.24 110.192 319.849 110.4 319.483 110.709C319.132 111.004 318.618 111.55 318.404 112.392L321.014 113.056ZM326.613 112.336L323.952 111.927C323.068 117.674 322.194 121.61 320.429 127.347L323.002 128.139L325.575 128.93C327.422 122.929 328.353 118.736 329.274 112.745L326.613 112.336ZM323.002 128.139L320.4 127.445L319.919 129.251L322.521 129.944L325.122 130.638L325.603 128.832L323.002 128.139ZM322.521 129.944V132.637H324.808V129.944V127.252H322.521V129.944ZM324.808 129.944C322.137 129.606 322.137 129.606 322.137 129.606C322.137 129.606 322.137 129.606 322.137 129.606C322.136 129.607 322.136 129.607 322.136 129.608C322.136 129.609 322.136 129.611 322.136 129.614C322.135 129.619 322.134 129.628 322.132 129.639C322.129 129.662 322.125 129.697 322.119 129.743C322.107 129.835 322.089 129.973 322.065 130.153C322.018 130.514 321.947 131.045 321.854 131.722C321.669 133.077 321.394 135.016 321.042 137.347C320.337 142.013 319.32 148.232 318.074 154.476L320.714 155.003L323.354 155.53C324.623 149.175 325.654 142.866 326.366 138.152C326.723 135.793 327.001 133.829 327.189 132.454C327.284 131.766 327.356 131.225 327.404 130.855C327.429 130.671 327.447 130.528 327.46 130.432C327.466 130.384 327.471 130.347 327.474 130.322C327.475 130.309 327.477 130.3 327.477 130.293C327.478 130.29 327.478 130.287 327.478 130.286C327.478 130.285 327.479 130.284 327.479 130.284C327.479 130.283 327.479 130.283 327.479 130.283C327.479 130.283 327.479 130.283 324.808 129.944ZM320.714 155.003L318.074 154.476C316.827 160.719 315.358 166.941 314.2 171.608C313.621 173.94 313.12 175.88 312.765 177.236C312.587 177.913 312.446 178.445 312.349 178.806C312.301 178.986 312.264 179.124 312.239 179.217C312.226 179.263 312.217 179.298 312.21 179.321C312.207 179.332 312.205 179.341 312.203 179.346C312.203 179.349 312.202 179.351 312.202 179.352C312.202 179.353 312.201 179.354 312.201 179.354C312.201 179.354 312.201 179.354 312.201 179.354C312.201 179.354 312.201 179.354 314.799 180.062C317.396 180.771 317.396 180.771 317.396 180.771C317.396 180.771 317.397 180.77 317.397 180.77C317.397 180.77 317.397 180.769 317.397 180.768C317.398 180.766 317.398 180.764 317.399 180.761C317.401 180.754 317.404 180.745 317.407 180.732C317.414 180.707 317.424 180.67 317.437 180.622C317.463 180.526 317.501 180.384 317.551 180.199C317.65 179.829 317.793 179.289 317.974 178.602C318.334 177.227 318.841 175.264 319.426 172.906C320.596 168.193 322.085 161.885 323.354 155.53L320.714 155.003ZM314.799 180.062L313.191 177.903L309.552 180.612L311.159 182.771L312.767 184.931L316.406 182.222L314.799 180.062ZM311.159 182.771L312.097 180.248C311.948 180.192 304.33 177.37 294.781 177.37L294.781 180.062L294.781 182.755C303.392 182.755 310.31 185.328 310.221 185.295L311.159 182.771ZM294.781 180.062V177.37C289.972 177.37 285.777 178.085 282.783 178.798C281.284 179.155 280.076 179.514 279.234 179.787C278.813 179.924 278.482 180.04 278.251 180.124C278.135 180.166 278.045 180.2 277.98 180.224C277.947 180.237 277.921 180.247 277.902 180.254C277.892 180.258 277.884 180.261 277.878 180.263C277.875 180.265 277.872 180.266 277.87 180.267C277.869 180.267 277.868 180.268 277.867 180.268C277.866 180.268 277.866 180.268 277.865 180.269C277.865 180.269 277.864 180.269 278.857 182.771C279.851 185.274 279.85 185.274 279.85 185.274C279.85 185.274 279.849 185.275 279.849 185.275C279.848 185.275 279.848 185.275 279.848 185.275C279.847 185.276 279.847 185.276 279.847 185.276C279.847 185.275 279.849 185.275 279.852 185.273C279.86 185.271 279.873 185.265 279.893 185.258C279.932 185.243 279.997 185.219 280.086 185.186C280.263 185.122 280.537 185.026 280.898 184.909C281.619 184.675 282.687 184.356 284.031 184.036C286.725 183.395 290.491 182.755 294.781 182.755V180.062ZM278.857 182.771L280.465 180.612L276.825 177.903L275.218 180.062L273.61 182.222L277.25 184.931L278.857 182.771ZM275.218 180.062C277.816 179.356 277.816 179.356 277.816 179.356C277.816 179.356 277.816 179.356 277.816 179.356C277.816 179.356 277.816 179.355 277.815 179.354C277.815 179.353 277.815 179.351 277.814 179.348C277.812 179.343 277.81 179.334 277.807 179.322C277.8 179.299 277.791 179.264 277.778 179.217C277.753 179.124 277.716 178.984 277.667 178.802C277.569 178.437 277.427 177.901 277.248 177.218C276.891 175.851 276.388 173.898 275.807 171.557C274.645 166.871 273.177 160.65 271.944 154.476L269.304 155.003L266.663 155.53C267.919 161.816 269.408 168.124 270.581 172.853C271.168 175.22 271.676 177.196 272.039 178.581C272.22 179.273 272.365 179.819 272.465 180.192C272.514 180.378 272.553 180.522 272.579 180.619C272.592 180.667 272.602 180.704 272.609 180.73C272.612 180.742 272.615 180.752 272.617 180.758C272.618 180.762 272.618 180.764 272.619 180.766C272.619 180.767 272.619 180.767 272.619 180.768C272.619 180.768 272.62 180.768 272.62 180.769C272.62 180.769 272.62 180.769 275.218 180.062ZM269.304 155.003L271.944 154.476C270.711 148.302 269.694 142.082 268.985 137.398C268.631 135.058 268.354 133.106 268.166 131.74C268.072 131.057 268 130.521 267.952 130.157C267.928 129.975 267.91 129.836 267.898 129.742C267.892 129.696 267.887 129.661 267.884 129.637C267.883 129.626 267.881 129.617 267.881 129.612C267.88 129.609 267.88 129.607 267.88 129.605C267.88 129.605 267.88 129.604 267.88 129.604C267.88 129.604 267.88 129.604 267.88 129.604C267.88 129.604 267.88 129.604 265.209 129.944C262.538 130.285 262.538 130.285 262.538 130.285C262.538 130.285 262.538 130.286 262.538 130.286C262.538 130.286 262.538 130.287 262.539 130.288C262.539 130.29 262.539 130.292 262.54 130.296C262.54 130.302 262.542 130.312 262.543 130.324C262.547 130.35 262.551 130.387 262.558 130.435C262.57 130.533 262.589 130.676 262.614 130.863C262.663 131.236 262.736 131.782 262.832 132.475C263.022 133.861 263.303 135.837 263.661 138.204C264.377 142.935 265.408 149.244 266.663 155.53L269.304 155.003ZM265.209 129.944V132.637H267.836V129.944V127.252H265.209V129.944ZM267.836 129.944L270.287 128.83L269.465 127.024L267.015 128.139L264.564 129.253L265.385 131.059L267.836 129.944ZM267.015 128.139L269.492 127.083L269.024 125.985L266.547 127.041L264.07 128.097L264.538 129.194L267.015 128.139ZM266.547 127.041L269.012 125.959C267.818 123.237 266.812 121.394 265.965 118.81L263.406 119.648L260.848 120.487C261.802 123.396 263.079 125.837 264.081 128.123L266.547 127.041ZM263.406 119.648L265.965 118.81C266.12 119.285 266.099 119.678 266.085 119.839C266.068 120.03 266.033 120.173 266.014 120.243C265.993 120.321 265.973 120.377 265.963 120.404C265.952 120.433 265.944 120.449 265.943 120.451C265.942 120.454 265.953 120.431 265.981 120.378C266.008 120.328 266.046 120.262 266.095 120.182C266.297 119.849 266.619 119.383 267.014 118.895C267.412 118.405 267.836 117.952 268.232 117.611C268.668 117.236 268.886 117.158 268.868 117.163L268.131 114.573L267.394 111.984C266.31 112.292 265.388 112.954 264.72 113.529C264.011 114.14 263.364 114.847 262.832 115.504C262.297 116.163 261.831 116.828 261.492 117.387C261.326 117.66 261.16 117.958 261.031 118.246C260.969 118.384 260.883 118.59 260.818 118.831C260.785 118.952 260.741 119.139 260.721 119.367C260.704 119.565 260.685 119.989 260.848 120.487L263.406 119.648ZM268.131 114.573L265.559 115.369C266.608 118.762 267.764 122.054 269.003 125.271L271.516 124.304L274.028 123.336C272.828 120.22 271.713 117.044 270.703 113.778L268.131 114.573ZM271.516 124.304L274.193 124.015C273.649 118.971 272.26 113.84 271.098 109.059L268.481 109.694L265.865 110.33C267.08 115.329 268.343 119.998 268.839 124.592L271.516 124.304ZM268.481 109.694L269.173 112.296C269.334 112.254 269.668 112.214 270.185 112.241C270.678 112.267 271.219 112.346 271.733 112.456C272.251 112.567 272.677 112.695 272.935 112.793C273.075 112.845 273.096 112.863 273.042 112.832C273.021 112.82 272.897 112.75 272.742 112.615C272.662 112.545 272.528 112.419 272.391 112.234C272.259 112.056 272.052 111.729 271.945 111.264L274.57 110.665L277.195 110.066C276.992 109.175 276.415 108.673 276.28 108.556C276.058 108.362 275.84 108.228 275.701 108.149C275.411 107.985 275.099 107.854 274.832 107.753C274.276 107.544 273.586 107.346 272.861 107.191C271.522 106.904 269.5 106.638 267.79 107.092L268.481 109.694ZM274.57 110.665L271.944 111.257C273.414 117.785 274.12 119.388 275.21 125.522L277.861 125.051L280.512 124.579C279.407 118.364 278.542 116.043 277.197 110.073L274.57 110.665ZM277.861 125.051L280.55 124.918C280.294 119.746 280.133 117.895 279.32 113.816L276.68 114.342L274.039 114.868C274.78 118.587 274.923 120.149 275.172 125.184L277.861 125.051ZM276.68 114.342L279.32 113.816C279.478 114.61 279.184 115.159 279.149 115.225C279.079 115.358 279.036 115.389 279.102 115.316C279.225 115.181 279.493 114.942 279.895 114.668C280.285 114.402 280.724 114.158 281.144 113.979C281.583 113.793 281.892 113.725 282.048 113.713L281.848 111.028L281.647 108.343C279.865 108.476 278.066 109.399 276.865 110.217C276.229 110.649 275.607 111.157 275.118 111.694C274.879 111.957 274.601 112.305 274.382 112.721C274.198 113.071 273.841 113.871 274.039 114.867L276.68 114.342ZM281.848 111.028L279.22 111.616C279.978 115.002 280.32 117.057 281.171 122.827L283.835 122.435L286.499 122.042C285.643 116.24 285.277 114.026 284.475 110.44L281.848 111.028ZM283.835 122.435L286.527 122.413C286.474 115.954 286.453 114.364 285.509 104.763L282.829 105.026L280.15 105.29C281.079 114.737 281.091 116.165 281.143 122.457L283.835 122.435ZM282.829 105.026L285.509 104.762C285.553 105.211 285.46 105.547 285.411 105.696C285.357 105.859 285.299 105.96 285.283 105.988C285.252 106.041 285.264 106.009 285.371 105.889C285.576 105.661 285.926 105.34 286.361 105.018C286.796 104.696 287.223 104.442 287.561 104.293C287.728 104.22 287.826 104.193 287.857 104.186C287.9 104.177 287.772 104.214 287.536 104.172L288.003 101.521L288.47 98.8689C287.246 98.6535 286.098 99.054 285.394 99.3638C284.592 99.7164 283.816 100.202 283.156 100.691C282.497 101.179 281.862 101.738 281.365 102.291C281.122 102.562 280.854 102.894 280.636 103.267C280.486 103.523 280.051 104.294 280.15 105.29L282.829 105.026Z" fill="white" mask="url(#path-2-outside-1_4362_42151)"/>
<path fill-rule="evenodd" clip-rule="evenodd" d="M265.211 129.945H272.435C272.435 129.945 278.405 147.103 294.783 147.103C311.161 147.103 317.586 129.945 317.586 129.945H324.81C324.81 129.945 323.231 142.405 320.715 155.004C318.199 167.602 314.801 180.063 314.801 180.063L311.161 182.772C311.161 182.772 303.882 180.063 294.783 180.063C285.684 180.063 278.86 182.772 278.86 182.772L275.22 180.063C275.22 180.063 271.794 167.464 269.306 155.004C266.817 142.544 265.211 129.945 265.211 129.945Z" fill="#DB0007"/>
<path fill-rule="evenodd" clip-rule="evenodd" d="M299.367 152.52C297.333 152.52 295.518 155.132 294.33 159.217C293.144 155.132 291.328 152.52 289.293 152.52C285.717 152.52 282.816 161.212 282.816 171.934H285.695C285.695 161.978 287.307 153.907 289.293 153.907C291.281 153.907 292.891 161.358 292.891 170.548H295.77C295.77 161.358 297.38 153.907 299.367 153.907C301.355 153.907 302.966 161.978 302.966 171.934H305.843C305.843 161.212 302.944 152.52 299.367 152.52Z" fill="#FFBC0D"/>
<path fill-rule="evenodd" clip-rule="evenodd" d="M274.239 128.139C274.239 128.139 280.108 145.296 295.008 145.296C309.908 145.296 315.777 128.139 315.777 128.139C315.777 128.139 319.841 128.139 323.001 128.139C324.807 122.269 325.71 118.206 326.613 112.336C324.286 111.687 321.217 112.255 321.014 113.056C320.666 114.426 320.451 115.134 320.078 116.494C319.123 115.433 317.146 114.89 315.222 114.707C314.693 119.526 314.168 121.295 312.905 126.198C313.154 120.103 313.513 116.723 314.572 110.415C312.398 109.976 309.568 110.335 308.695 111.904C308.121 115.505 307.813 117.501 307.598 120.634C307.383 114.952 307.275 111.666 306.785 105.764C304.03 105.984 301.471 107.255 300.999 108.954C301.054 109.727 301.152 111.056 301.199 111.826C299.303 111.784 297.253 112.6 296.509 113.195C295.665 117.41 295.643 119.914 294.478 124.227C294.478 124.227 294.007 120.898 295.622 107.018C295.719 106.185 292.622 104.078 290.424 103.785C289.93 107.826 289.497 111.861 289.117 115.893C288.9 111.135 288.532 106.351 288.003 101.52C286.33 101.226 282.748 104.203 282.829 105.026C283.766 114.55 283.783 116.059 283.835 122.435C282.982 116.649 282.627 114.514 281.847 111.029C279.652 111.192 276.518 113.531 276.68 114.342C277.457 118.241 277.608 119.947 277.861 125.051C276.763 118.876 275.978 116.914 274.57 110.665C274.484 110.285 270.625 109.124 268.482 109.694C269.67 114.584 270.996 119.484 271.515 124.303C270.295 121.136 269.161 117.902 268.131 114.573C265.998 115.18 263.285 119.277 263.406 119.648C264.435 122.787 265.78 125.136 267.014 128.139H274.239Z" fill="#FFBC0D"/>
<ellipse cx="119" cy="213.5" rx="29.5" ry="3" fill="#A0A09F" fill-opacity="0.15"/>
<path fill-rule="evenodd" clip-rule="evenodd" d="M166.5 161.5C166.5 190.219 143.219 213.5 114.5 213.5C85.7812 213.5 62.5 190.219 62.5 161.5C62.5 132.781 85.7812 109.5 114.5 109.5C143.219 109.5 166.5 132.781 166.5 161.5Z" fill="white"/>
<path fill-rule="evenodd" clip-rule="evenodd" d="M105.711 186.461C105.866 183.527 102.183 183.526 98.4563 183.524C94.3602 183.523 90.2099 183.522 91.0382 179.627C91.924 175.462 94.5625 175.17 97.5055 174.844C99.8183 174.588 102.319 174.312 104.305 172.118C107.403 168.697 109.405 165.683 111.079 163.163L111.079 163.163L111.079 163.162C111.844 162.011 112.54 160.962 113.241 160.025C114.425 158.443 117.464 158.116 120.242 157.818C122.709 157.553 124.969 157.31 125.538 156.229C125.952 155.443 125.771 154.209 125.584 152.926C125.222 150.452 124.834 147.792 128.611 147.792C131.6 147.792 132.198 151.112 132.77 154.293C133.297 157.218 133.803 160.025 136.127 160.025C140.978 160.025 145.668 149.999 145.668 149.999C145.668 149.999 148.902 147.074 148.902 144.803C148.902 142.533 145.668 137.991 145.668 137.991V131.993C145.668 131.993 144.697 127.451 141.948 127.128C139.199 126.805 139.199 131.993 139.199 131.993L140.978 140.1C142.518 146.006 137.906 149.999 136.127 149.999C134.348 149.999 132.893 144.803 132.893 144.803L130.467 140.1C130.467 140.1 126.101 141.239 124.484 140.1C122.867 138.961 123.352 135.72 123.352 135.72L126.101 131.993L130.467 128.422L134.348 121.285L138.925 118.375C131.607 114.228 123.354 112.012 114.943 111.936C106.532 111.859 98.2397 113.926 90.8478 117.94C83.4559 121.953 77.2074 127.783 72.6908 134.879C68.1743 141.975 65.5383 150.103 65.0312 158.499C66.4374 156.763 68.7084 154.225 69.8052 153.944C71.0777 153.627 73.3206 155.35 74.2697 156.236V165.91C72.7862 167.935 69.5872 171.985 68.7154 171.985C67.8528 172.181 67.0317 172.529 66.2898 173.011C67.8057 179.349 70.5555 185.327 74.3821 190.602C78.2087 195.878 83.0371 200.348 88.5915 203.757C89.8608 202.402 92.0559 200.614 94.4591 198.657C99.5371 194.522 105.544 189.63 105.711 186.461ZM77.6445 177.567C77.2789 176.864 77.6445 173.285 80.1194 171C80.6301 170.531 81.7849 170.418 82.7498 170.325C83.5914 170.243 84.2886 170.175 84.2886 169.896C84.2886 169.652 83.5899 169.407 82.6763 169.087C81.3581 168.626 79.5926 168.008 78.8327 167.007C77.5461 165.312 79.4303 161.22 80.1194 160.025C80.4286 159.489 81.5788 158.933 82.753 158.365C84.1953 157.667 85.6737 156.953 85.6737 156.236C85.6737 155.476 84.8641 154.993 84.0124 154.484C83.405 154.121 82.7761 153.745 82.4044 153.247C81.7013 152.291 80.1194 148.727 79.4303 147.067C79.8241 145.338 80.6607 141.766 80.8365 141.288C81.0334 140.683 82.0247 139.594 85.6948 139.291V144.213C86.5877 144.41 88.9079 144.965 91.0523 145.619C92.3704 145.999 93.4015 148.344 94.4568 150.744C95.5292 153.183 96.6267 155.679 98.076 156.229C100.952 157.318 100.888 166.395 100.059 168.392C99.6115 169.468 97.513 169.819 94.9896 170.241C92.8324 170.602 90.3647 171.015 88.3524 171.978C84.8652 173.665 79.7608 176.407 77.6445 177.567ZM136.71 193.625C136.71 193.625 134.348 186.489 132.892 183.895C131.437 181.3 124.456 185.195 121.249 187.79C119.172 189.594 117.565 191.876 116.567 194.441C116.567 194.441 100.607 203.391 92.1701 205.753C100.166 209.789 109.106 211.582 118.04 210.941C126.974 210.3 135.567 207.248 142.904 202.111L136.71 193.625ZM143.242 191.657C143.242 191.657 140.655 187.6 141.948 186.461C143.242 185.357 155.426 185.758 155.419 188.289C155.418 188.712 155.389 189.135 155.335 189.554C153.816 191.754 152.123 193.827 150.273 195.756L143.242 191.657Z" fill="#CBE0F3"/>
<path d="M138.927 118.375C144.908 121.76 150.119 126.351 154.23 131.858C158.342 137.366 161.263 143.668 162.808 150.365C164.352 157.062 164.487 164.006 163.203 170.758C161.919 177.509 159.245 183.921 155.351 189.583C155.405 189.163 155.433 188.741 155.435 188.317C155.434 185.723 143.253 185.351 141.957 186.489C140.663 187.628 143.25 191.686 143.25 191.686L150.281 195.784C148.036 198.13 145.565 200.25 142.905 202.112L136.712 193.626C136.712 193.626 134.349 186.49 132.894 183.896C131.438 181.301 124.485 185.196 121.251 187.79C119.18 189.587 117.575 191.86 116.575 194.413C116.529 194.439 100.603 203.367 92.1787 205.726C90.9554 205.135 89.7597 204.432 88.5996 203.729C92.5511 199.51 105.474 191.101 105.713 186.461C106.029 180.331 89.4365 187.087 91.0254 179.655C92.6144 172.224 99.7859 177.103 104.307 172.118C108.827 167.133 111.014 163.013 113.25 160.025C115.486 157.038 124.331 158.535 125.54 156.229C126.749 153.922 122.876 147.792 128.612 147.792C134.349 147.792 131.277 160.025 136.128 160.025C140.963 160.025 145.639 150.065 145.669 150C145.669 150 148.903 147.075 148.903 144.804C148.903 142.542 145.695 138.027 145.669 137.991V131.994C145.669 131.994 144.698 127.451 141.949 127.128C139.201 126.805 139.2 131.994 139.2 131.994L140.979 140.101C142.519 146.006 137.907 150 136.128 150C134.349 150 132.894 144.804 132.894 144.804L130.468 140.101C130.412 140.115 126.092 141.225 124.485 140.101C122.868 138.969 123.354 135.72 123.354 135.72L126.103 131.994L130.468 128.422L134.35 121.286L138.927 118.375ZM85.7168 144.164C86.6097 144.375 88.965 144.931 91.0742 145.57C93.7389 146.393 95.2299 155.138 98.1055 156.235C100.981 157.332 100.882 166.403 100.088 168.399C99.2647 170.396 92.7194 169.897 88.3535 171.978C84.8662 173.658 79.7547 176.4 77.6455 177.561C77.308 176.865 77.6454 173.278 80.1201 170.993C81.1043 170.121 84.3098 170.445 84.3105 169.848C84.3105 169.25 80.1424 168.652 78.8555 166.958C77.5689 165.264 79.4454 161.172 80.1416 159.977C80.8377 158.781 85.6963 157.48 85.6963 156.187C85.6962 154.893 83.3197 154.393 82.4268 153.198C81.7096 152.242 80.1562 148.678 79.4531 147.019C79.8679 145.289 80.7035 141.718 80.8584 141.239C81.0553 140.649 82.047 139.545 85.7168 139.242V144.164ZM69.8057 153.937C71.0782 153.62 73.3142 155.336 74.2705 156.229V165.91C72.787 167.935 69.5876 171.984 68.7158 171.984C67.8534 172.181 67.0328 172.53 66.291 173.012C65.3909 169.241 64.935 165.378 64.9336 161.502C64.9336 160.49 64.976 159.491 65.0322 158.493C66.4383 156.75 68.7088 154.218 69.8057 153.937Z" fill="#9CC93A"/>
<mask id="path-11-outside-2_4362_42151" maskUnits="userSpaceOnUse" x="83.9729" y="14.2435" width="217.443" height="167.491" fill="black">
<rect fill="white" x="83.9729" y="14.2435" width="217.443" height="167.491"/>
<path d="M168.57 161.153C165.29 162.356 161.65 162.077 158.592 160.389L108.425 132.699C106.216 131.48 105.242 128.821 106.139 126.463L126.519 72.9085C127.761 69.6435 130.358 67.0772 133.638 65.8747L258.784 19.9922C260.91 19.2127 263.266 20.3046 264.046 22.4307L296.155 110.009C296.934 112.135 295.843 114.491 293.716 115.271L168.57 161.153ZM139.374 128.19C144.445 126.331 147.049 120.713 145.19 115.642C143.331 110.571 137.712 107.967 132.641 109.826C127.569 111.685 124.965 117.304 126.825 122.375C128.684 127.446 134.302 130.049 139.374 128.19Z"/>
</mask>
<path d="M168.57 161.153C165.29 162.356 161.65 162.077 158.592 160.389L108.425 132.699C106.216 131.48 105.242 128.821 106.139 126.463L126.519 72.9085C127.761 69.6435 130.358 67.0772 133.638 65.8747L258.784 19.9922C260.91 19.2127 263.266 20.3046 264.046 22.4307L296.155 110.009C296.934 112.135 295.843 114.491 293.716 115.271L168.57 161.153ZM139.374 128.19C144.445 126.331 147.049 120.713 145.19 115.642C143.331 110.571 137.712 107.967 132.641 109.826C127.569 111.685 124.965 117.304 126.825 122.375C128.684 127.446 134.302 130.049 139.374 128.19Z" fill="#D8D8D8"/>
<path d="M168.57 161.153L167.538 158.337L168.57 161.153ZM158.592 160.389L157.142 163.016L157.142 163.016L158.592 160.389ZM108.425 132.699L106.975 135.326L108.425 132.699ZM106.139 126.463L103.335 125.396L103.335 125.396L106.139 126.463ZM126.519 72.9085L129.322 73.9755L126.519 72.9085ZM264.046 22.4307L261.229 23.4633L264.046 22.4307ZM296.155 110.009L298.972 108.977L296.155 110.009ZM293.716 115.271L292.684 112.454L293.716 115.271ZM139.374 128.19L140.406 131.007L140.406 131.007L139.374 128.19ZM145.19 115.642L148.007 114.609L148.007 114.609L145.19 115.642ZM132.641 109.826L131.608 107.009L131.608 107.009L132.641 109.826ZM126.825 122.375L124.008 123.408L124.008 123.408L126.825 122.375ZM168.57 161.153L167.538 158.337C165.074 159.24 162.339 159.031 160.041 157.763L158.592 160.389L157.142 163.016C160.962 165.124 165.507 165.472 169.603 163.97L168.57 161.153ZM158.592 160.389L160.042 157.763L109.875 130.073L108.425 132.699L106.975 135.326L157.142 163.016L158.592 160.389ZM108.425 132.699L109.875 130.073C108.974 129.576 108.577 128.492 108.943 127.53L106.139 126.463L103.335 125.396C101.906 129.151 103.458 133.384 106.975 135.326L108.425 132.699ZM106.139 126.463L108.943 127.53L129.322 73.9755L126.519 72.9085L123.715 71.8415L103.335 125.396L106.139 126.463ZM126.519 72.9085L129.322 73.9755C130.256 71.5223 132.207 69.5946 134.671 68.6914L133.638 65.8747L132.605 63.058C128.509 64.5599 125.266 67.7647 123.715 71.8415L126.519 72.9085ZM133.638 65.8747L134.671 68.6914L259.817 22.8089L258.784 19.9922L257.751 17.1755L132.605 63.058L133.638 65.8747ZM258.784 19.9922L259.817 22.8089C260.387 22.5997 261.02 22.8928 261.229 23.4633L264.046 22.4307L266.862 21.398C265.513 17.7163 261.433 15.8257 257.751 17.1755L258.784 19.9922ZM264.046 22.4307L261.229 23.4633L293.338 111.042L296.155 110.009L298.972 108.977L266.862 21.398L264.046 22.4307ZM296.155 110.009L293.338 111.042C293.547 111.613 293.254 112.245 292.684 112.454L293.716 115.271L294.749 118.088C298.431 116.738 300.321 112.658 298.972 108.977L296.155 110.009ZM293.716 115.271L292.684 112.454L167.538 158.337L168.57 161.153L169.603 163.97L294.749 118.088L293.716 115.271ZM139.374 128.19L140.406 131.007C147.033 128.577 150.436 121.236 148.007 114.609L145.19 115.642L142.373 116.674C143.662 120.19 141.857 124.084 138.341 125.373L139.374 128.19ZM145.19 115.642L148.007 114.609C145.577 107.982 138.235 104.58 131.608 107.009L132.641 109.826L133.673 112.643C137.189 111.354 141.084 113.159 142.373 116.674L145.19 115.642ZM132.641 109.826L131.608 107.009C124.981 109.439 121.578 116.781 124.008 123.408L126.825 122.375L129.641 121.342C128.352 117.827 130.158 113.931 133.673 112.643L132.641 109.826ZM126.825 122.375L124.008 123.408C126.438 130.035 133.78 133.436 140.406 131.007L139.374 128.19L138.341 125.373C134.825 126.662 130.93 124.858 129.641 121.342L126.825 122.375Z" fill="white" mask="url(#path-11-outside-2_4362_42151)"/>
<path opacity="0.1" fill-rule="evenodd" clip-rule="evenodd" d="M148.588 114.398C151.135 121.346 147.567 129.043 140.619 131.589C133.671 134.136 125.975 130.568 123.428 123.62C120.882 116.672 124.449 108.976 131.397 106.429C138.345 103.883 146.042 107.451 148.588 114.398ZM126.825 122.375C128.684 127.447 134.302 130.051 139.374 128.192C144.446 126.333 147.05 120.715 145.191 115.643C143.332 110.572 137.714 107.967 132.642 109.826C127.571 111.685 124.966 117.303 126.825 122.375Z" fill="#292929"/>
<path d="M193.007 98.1047C186.363 79.9771 195.672 59.8957 213.8 53.2516C231.928 46.6075 252.009 55.9167 258.653 74.0443C265.297 92.1719 255.988 112.253 237.861 118.897C219.733 125.542 199.652 116.232 193.007 98.1047Z" fill="white"/>
<path d="M218.967 101.525C220.161 102.107 221.602 101.611 222.184 100.417L227.589 89.3343L240.293 95.5301C240.592 95.6757 240.952 95.5517 241.097 95.2531L241.625 94.1719C242.207 92.9776 241.711 91.5373 240.517 90.9548L229.434 85.55L235.63 72.8456C235.776 72.5471 235.652 72.187 235.353 72.0414L234.272 71.5141C233.078 70.9316 231.637 71.4276 231.055 72.6219L225.65 83.7045L212.946 77.5087C212.647 77.3631 212.287 77.4871 212.141 77.7856L211.614 78.8669C211.032 80.0612 211.528 81.5015 212.722 82.0839L223.805 87.4888L217.609 100.193C217.463 100.492 217.587 100.852 217.886 100.997L218.967 101.525Z" fill="#6F6F6F"/>
<mask id="path-16-outside-3_4362_42151" maskUnits="userSpaceOnUse" x="83.969" y="14.2435" width="217.443" height="167.491" fill="black">
<rect fill="white" x="83.969" y="14.2435" width="217.443" height="167.491"/>
<path d="M168.566 161.153C165.287 162.356 161.646 162.077 158.588 160.389L108.421 132.699C106.212 131.48 105.238 128.821 106.135 126.463L126.515 72.9085C127.757 69.6435 130.354 67.0772 133.634 65.8747L258.78 19.9922C260.906 19.2127 263.262 20.3046 264.042 22.4307L296.151 110.009C296.93 112.135 295.839 114.491 293.713 115.271L168.566 161.153Z"/>
</mask>
<path d="M168.566 161.153L167.534 158.337L168.566 161.153ZM158.588 160.389L157.138 163.016L157.138 163.016L158.588 160.389ZM108.421 132.699L106.971 135.326L108.421 132.699ZM106.135 126.463L103.331 125.396L103.331 125.396L106.135 126.463ZM126.515 72.9085L129.319 73.9755L126.515 72.9085ZM264.042 22.4307L266.858 21.398L264.042 22.4307ZM296.151 110.009L293.334 111.042L296.151 110.009ZM293.713 115.271L292.68 112.454L293.713 115.271ZM168.566 161.153L167.534 158.337C165.07 159.24 162.335 159.031 160.038 157.763L158.588 160.389L157.138 163.016C160.958 165.124 165.503 165.472 169.599 163.97L168.566 161.153ZM158.588 160.389L160.038 157.763L109.871 130.073L108.421 132.699L106.971 135.326L157.138 163.016L158.588 160.389ZM108.421 132.699L109.871 130.073C108.97 129.576 108.573 128.492 108.939 127.53L106.135 126.463L103.331 125.396C101.902 129.151 103.454 133.384 106.971 135.326L108.421 132.699ZM106.135 126.463L108.939 127.53L129.319 73.9755L126.515 72.9085L123.711 71.8415L103.331 125.396L106.135 126.463ZM126.515 72.9085L129.319 73.9755C130.252 71.5223 132.203 69.5946 134.667 68.6914L133.634 65.8747L132.601 63.058C128.505 64.5599 125.262 67.7647 123.711 71.8415L126.515 72.9085ZM133.634 65.8747L134.667 68.6914L259.813 22.8089L258.78 19.9922L257.748 17.1755L132.601 63.058L133.634 65.8747ZM258.78 19.9922L259.813 22.8089C260.383 22.5997 261.016 22.8928 261.225 23.4633L264.042 22.4307L266.858 21.398C265.509 17.7163 261.429 15.8257 257.748 17.1755L258.78 19.9922ZM264.042 22.4307L261.225 23.4633L293.334 111.042L296.151 110.009L298.968 108.977L266.858 21.398L264.042 22.4307ZM296.151 110.009L293.334 111.042C293.543 111.613 293.25 112.245 292.68 112.454L293.713 115.271L294.745 118.088C298.427 116.738 300.317 112.658 298.968 108.977L296.151 110.009ZM293.713 115.271L292.68 112.454L167.534 158.337L168.566 161.153L169.599 163.97L294.745 118.088L293.713 115.271Z" fill="white" mask="url(#path-16-outside-3_4362_42151)"/>
<ellipse cx="234.5" cy="200.138" rx="48" ry="5.53846" fill="#A0A09F" fill-opacity="0.15"/>
<path d="M235.655 136.153C247.53 136.153 258.053 138.452 265.659 142.829C273.299 147.226 278.078 153.791 278.078 162.192C278.078 163.015 277.9 163.949 277.57 164.804C277.474 165.055 277.357 165.309 277.224 165.561C277.36 165.583 277.495 165.628 277.622 165.694L279.019 166.42C279.645 166.741 280.003 167.384 280.003 168.043V169.646C280.003 170.408 279.516 171.13 278.77 171.376C278.768 171.968 278.581 172.525 278.258 172.984C278.874 173.929 279.232 175.061 279.232 176.275V178.364C279.232 179.479 278.929 180.467 278.335 181.272C277.947 181.798 277.462 182.207 276.925 182.52V183.096C277.066 183.16 277.207 183.237 277.341 183.332C277.983 183.786 278.309 184.488 278.309 185.283C278.309 185.673 278.241 186.117 277.992 186.527C277.947 186.601 277.898 186.669 277.848 186.732V189.689C277.848 194.619 274.146 198.763 269.248 199.317C258.43 200.542 247.309 201.154 235.886 201.154C234.335 201.154 232.775 201.142 231.205 201.119C230.919 201.168 230.638 201.161 230.368 201.107C220.277 200.936 209.803 200.302 198.946 199.204C194.058 198.71 190.324 194.638 190.233 189.744V189.732L190.232 189.576L190.231 189.563V185.962C190.231 185.605 190.374 185.262 190.626 185.01C190.878 184.757 191.221 184.615 191.578 184.615H193.611C193.686 184.377 193.789 184.151 193.924 183.944V182.52C193.389 182.208 192.905 181.801 192.519 181.278C191.922 180.472 191.616 179.482 191.616 178.364V176.275C191.616 174.89 192.082 173.609 192.866 172.595C192.686 172.281 192.573 171.923 192.546 171.542C192.545 171.526 192.544 171.511 192.543 171.495L192.54 171.416V171.369C192.54 170.964 192.638 170.582 192.811 170.244C192.761 170.147 192.718 170.047 192.682 169.943C192.591 169.761 192.54 169.558 192.54 169.347L192.539 166.475C191.622 165.4 191.155 163.922 191.155 162.654C191.155 154.194 196.521 147.528 204.634 143.049C212.742 138.572 223.77 136.153 235.655 136.153Z" fill="white" stroke="white" stroke-width="2.69242" stroke-linejoin="round"/>
<path fill-rule="evenodd" clip-rule="evenodd" d="M191.578 188.391C191.578 193.323 195.265 197.466 200.175 197.924C208.858 198.734 222.819 199.807 235.886 199.807C248.406 199.807 260.433 198.822 268.106 198.027C272.93 197.528 276.501 193.431 276.501 188.581V185.96H191.578V188.391Z" fill="#EC9D47"/>
<path fill-rule="evenodd" clip-rule="evenodd" d="M273.414 171.68C275.883 171.68 277.884 173.737 277.884 176.275V178.364C277.884 180.091 276.957 181.161 275.587 181.668C275.36 181.604 275.099 181.579 274.821 181.579C274.811 181.579 254.068 181.762 251.261 182.103C249.638 182.196 248.544 182.286 247.978 182.374C232.419 184.799 225.85 181.136 218.395 180.376C213.516 179.879 208.927 180.192 205.352 181.073C205.314 181.082 203.841 181.296 203.023 181.345C201.56 181.432 200.224 181.602 198.499 181.55C197.51 181.52 196.202 181.976 195.453 181.735C193.977 181.26 192.961 180.172 192.961 178.364V176.275C192.961 173.737 194.962 171.68 197.431 171.68C214.647 170.749 227.605 170.279 236.303 170.27L236.576 170.27C244.763 170.27 257.042 170.74 273.414 171.68Z" fill="#73371F"/>
<path fill-rule="evenodd" clip-rule="evenodd" d="M248.34 184.937C248.91 184.85 250.011 184.761 251.645 184.669C254.472 184.332 275.355 184.151 275.365 184.151C276.247 184.151 276.962 184.402 276.962 185.283C276.962 186.261 276.255 186.168 275.29 186.33C274.001 186.547 272.623 186.662 271.154 186.675C269.195 186.692 263.315 186.562 253.514 186.285C252.985 186.27 251.966 186.317 250.456 186.427C249.734 186.651 248.9 186.854 247.95 187.015C238.647 188.59 235.712 192.987 232.18 198.728C228.772 204.267 226.403 186.71 215.09 186.229C207.548 185.907 201.386 186.11 196.603 186.837C196.488 186.841 196.373 186.833 196.26 186.815C195.314 186.657 194.675 186.228 194.832 185.283C195.037 184.06 196.058 184.067 197.297 183.988L198.361 183.92C200.034 184.006 201.607 184.006 203.08 183.92C203.904 183.872 205.386 183.661 205.425 183.652C209.024 182.782 213.645 182.473 218.556 182.964C226.062 183.714 232.675 187.331 248.34 184.937Z" fill="#FFBC0D"/>
<path d="M252.866 167.961C258.939 168.342 265.86 168.887 273.627 169.597L273.743 169.608H273.861C275.154 169.608 276.245 169.104 277.103 168.297C277.314 168.505 277.445 168.795 277.445 169.115C277.445 169.752 276.928 170.269 276.291 170.269H195.037C194.479 170.269 194.014 169.873 193.906 169.348C194.401 169.516 194.934 169.608 195.499 169.608H195.608L195.717 169.599C204.05 168.888 211.352 168.342 217.62 167.961L252.866 167.961Z" fill="#FFD90D"/>
<path d="M193.883 171.36C193.883 170.748 194.36 170.25 194.972 170.243C200.396 170.179 224.496 169.902 231.037 169.902C237.635 169.902 269.472 170.184 276.179 170.244C276.879 170.25 277.421 170.82 277.421 171.52C277.421 172.089 277.044 172.589 276.494 172.735C275.251 173.063 273.086 173.595 272.088 173.595C270.957 173.595 269.819 173.41 268.665 173.177C267.524 172.948 266.369 172.672 265.191 172.482C264.077 172.302 203.818 172.455 194.964 172.479C194.346 172.48 193.883 171.979 193.883 171.36Z" fill="#DB0007"/>
<path d="M278.403 167.618C278.558 167.697 278.656 167.862 278.656 168.043V169.647C278.656 169.908 278.455 170.119 278.206 170.119C278.148 170.119 278.09 170.107 278.036 170.084C276.696 169.506 274.457 168.563 273.117 168.199L273.593 168.245L273.707 168.256H273.821C275.092 168.256 276.161 167.73 277 166.889C277.167 166.973 278.234 167.531 278.403 167.618Z" fill="#FFEBB8"/>
<path d="M223.212 169.812C223.371 169.914 223.451 170.102 223.415 170.287L223.112 171.846C223.063 172.096 222.821 172.26 222.571 172.211C222.521 172.202 222.473 172.184 222.429 172.159C219.49 170.472 216.477 169.164 213.391 168.232C215.723 168.075 217.93 167.938 220.013 167.82C221.026 168.424 222.093 169.088 223.212 169.812Z" fill="#FFEBB8"/>
<path d="M235.229 167.5C238.226 167.5 241.676 167.599 245.578 167.797C240.293 170.061 236.305 171.192 233.611 171.192C230.984 171.192 227.127 170.117 222.039 167.966C227.298 167.655 231.695 167.5 235.229 167.5Z" fill="#FFEBB8"/>
<path d="M221.537 167.748C221.533 168.989 221.205 170.22 220.518 171.32C218.395 174.722 216.115 178.378 209.369 174.156C206.388 172.291 205.17 170.536 204.922 168.864C211.024 168.391 216.457 168.025 221.221 167.765L221.537 167.748Z" fill="#E6E454"/>
<path d="M222.461 167.699C222.466 169.115 222.093 170.525 221.301 171.789C221.093 172.121 220.999 172.269 220.88 172.454C219.435 174.716 218.324 175.918 216.677 176.555C214.566 177.372 212.038 176.867 208.88 174.902C205.854 173.018 204.291 171.066 204 168.929C204.63 168.88 205.253 168.832 205.869 168.785C206.119 170.265 207.334 171.744 209.87 173.323C212.574 175.006 214.518 175.394 216 174.82C217.165 174.369 218.059 173.403 219.304 171.455C219.419 171.275 219.51 171.13 219.716 170.802C220.294 169.88 220.577 168.847 220.59 167.8C221.188 167.766 221.776 167.735 222.353 167.705L222.461 167.699Z" fill="#66881E"/>
<path d="M244.426 167.516C247.896 167.658 251.742 167.871 255.964 168.157C253.834 171.103 250.776 170.352 247.881 169.642C246.52 169.307 245.359 168.57 244.476 167.573L244.426 167.516Z" fill="#E6E454"/>
<path d="M243.227 167.469C244.055 167.499 244.907 167.533 245.781 167.572C246.445 168.127 247.235 168.538 248.119 168.752C248.49 168.841 248.655 168.881 248.861 168.929C251.084 169.448 252.383 169.522 253.52 169.059C254.021 168.854 254.483 168.533 254.903 168.077C255.615 168.123 256.338 168.171 257.073 168.221C256.304 169.433 255.36 170.249 254.233 170.708C252.626 171.363 251.011 171.271 248.43 170.668C248.26 170.629 248.119 170.595 247.876 170.537L247.673 170.488C245.84 170.044 244.33 168.976 243.285 167.549L243.227 167.469Z" fill="#66881E"/>
<path fill-rule="evenodd" clip-rule="evenodd" d="M249.98 167.789C254.539 168.05 259.616 168.412 265.211 168.876C264.411 169.314 263.649 169.844 262.928 170.483C259.722 173.321 257.616 177.115 256.624 175.844C255.631 174.574 255.631 171.672 254.61 170.301C253.812 169.229 252.534 168.425 250.152 167.831L249.98 167.789Z" fill="#FFBC0D"/>
<path fill-rule="evenodd" clip-rule="evenodd" d="M276.731 162.192C276.731 163.926 275.691 166.577 273.84 166.577C273.84 166.577 248.613 164.269 235.192 164.269C222.54 164.269 195.5 166.577 195.5 166.577C193.649 166.577 192.5 164.387 192.5 162.654C192.5 147.054 212.203 137.5 235.654 137.5C259.105 137.5 276.731 146.592 276.731 162.192Z" fill="#EC9D47"/>
<path fill-rule="evenodd" clip-rule="evenodd" d="M231.936 153.488C231.288 153.138 231.076 152.345 231.463 151.718C231.849 151.091 234.034 149.324 234.386 149.514C234.739 149.705 234.197 152.36 233.81 152.988C233.424 153.615 232.585 153.839 231.936 153.488Z" fill="white"/>
<path fill-rule="evenodd" clip-rule="evenodd" d="M231.549 141.607C231.983 141.104 232.767 141.05 233.302 141.486C233.836 141.922 235.17 144.098 234.934 144.371C234.698 144.645 232.264 143.745 231.73 143.308C231.196 142.872 231.115 142.111 231.549 141.607Z" fill="white"/>
<path fill-rule="evenodd" clip-rule="evenodd" d="M217.605 153.699C217.171 154.203 216.386 154.257 215.852 153.821C215.317 153.385 213.983 151.209 214.219 150.935C214.455 150.662 216.889 151.562 217.423 151.999C217.957 152.435 218.039 153.196 217.605 153.699Z" fill="white"/>
<path fill-rule="evenodd" clip-rule="evenodd" d="M212.558 157.365C213.31 157.241 214.03 157.729 214.167 158.454C214.304 159.179 213.834 161.892 213.425 161.96C213.017 162.027 211.581 159.627 211.445 158.902C211.308 158.177 211.806 157.489 212.558 157.365Z" fill="white"/>
<path fill-rule="evenodd" clip-rule="evenodd" d="M196.009 161.916C196.443 161.413 197.228 161.358 197.763 161.795C198.297 162.231 199.631 164.407 199.395 164.68C199.159 164.953 196.725 164.053 196.191 163.617C195.657 163.181 195.575 162.419 196.009 161.916Z" fill="white"/>
<path fill-rule="evenodd" clip-rule="evenodd" d="M255.225 154.759C254.721 154.325 254.667 153.54 255.103 153.006C255.539 152.472 257.715 151.138 257.989 151.373C258.262 151.609 257.362 154.043 256.926 154.578C256.489 155.112 255.728 155.193 255.225 154.759Z" fill="white"/>
<path fill-rule="evenodd" clip-rule="evenodd" d="M251.331 143.519C252.083 143.395 252.803 143.883 252.94 144.608C253.077 145.333 252.607 148.047 252.199 148.114C251.791 148.181 250.355 145.781 250.218 145.056C250.081 144.331 250.579 143.643 251.331 143.519Z" fill="white"/>
<path fill-rule="evenodd" clip-rule="evenodd" d="M228.797 157.552C229.147 158.2 228.923 159.039 228.296 159.425C227.669 159.812 225.013 160.354 224.823 160.002C224.632 159.65 226.4 157.464 227.027 157.078C227.654 156.691 228.446 156.903 228.797 157.552Z" fill="white"/>
<path fill-rule="evenodd" clip-rule="evenodd" d="M237.088 158.225C237.522 157.721 238.307 157.667 238.841 158.103C239.375 158.539 240.709 160.715 240.473 160.989C240.238 161.262 237.803 160.362 237.269 159.926C236.735 159.489 236.654 158.728 237.088 158.225Z" fill="white"/>
<path fill-rule="evenodd" clip-rule="evenodd" d="M244.654 149.961C245.419 149.961 246.039 150.551 246.039 151.28C246.039 152.008 245.069 154.576 244.654 154.576C244.239 154.576 243.27 152.008 243.27 151.28C243.27 150.551 243.889 149.961 244.654 149.961Z" fill="white"/>
<path fill-rule="evenodd" clip-rule="evenodd" d="M270.545 155.318C271.048 155.752 271.103 156.537 270.667 157.071C270.23 157.605 268.055 158.939 267.781 158.704C267.508 158.468 268.408 156.034 268.844 155.5C269.28 154.965 270.042 154.884 270.545 155.318Z" fill="white"/>
<path fill-rule="evenodd" clip-rule="evenodd" d="M255.064 162.258C254.416 162.608 253.577 162.384 253.19 161.757C252.803 161.13 252.262 158.474 252.614 158.284C252.966 158.093 255.151 159.861 255.538 160.488C255.924 161.115 255.712 161.907 255.064 162.258Z" fill="white"/>
<path fill-rule="evenodd" clip-rule="evenodd" d="M221.115 143.039C221.88 143.039 222.5 143.629 222.5 144.358C222.5 145.086 221.53 147.654 221.115 147.654C220.7 147.654 219.73 145.086 219.73 144.358C219.73 143.629 220.35 143.039 221.115 143.039Z" fill="white"/>
<path fill-rule="evenodd" clip-rule="evenodd" d="M201.549 153.147C201.983 152.643 202.767 152.589 203.302 153.025C203.836 153.461 205.17 155.637 204.934 155.911C204.698 156.184 202.264 155.284 201.73 154.847C201.196 154.411 201.115 153.65 201.549 153.147Z" fill="white"/>
</svg>
