<svg width="27" height="18" viewBox="0 0 27 18" fill="none" xmlns="http://www.w3.org/2000/svg">
<g clip-path="url(#clip0_109_43749)">
<path d="M0 -0.015625H27V18.0002H0V-0.015625Z" fill="white"/>
<path d="M24.3632 10.4275C24.1526 10.4275 23.6263 10.1644 23.2579 9.95384C22.6789 9.63805 22.1526 9.32226 21.6211 9.32226C21.0895 9.32226 20.5684 9.63805 19.9842 9.95384C19.6158 10.1644 19.1421 10.4275 18.9316 10.4275C18.7211 10.4275 18.1947 10.1644 17.8789 9.95384C17.3 9.63805 16.7211 9.32226 16.1895 9.32226C15.7158 9.32226 15.1368 9.63805 14.5526 9.95384C14.1842 10.1644 13.7105 10.4275 13.5 10.4275C13.2895 10.4275 12.8158 10.1644 12.4474 9.95384C11.8684 9.63805 11.2895 9.32226 10.8105 9.32226C10.2842 9.32226 9.70526 9.63805 9.12105 9.95384C8.80526 10.1644 8.27895 10.4275 8.06842 10.4275C7.85789 10.4275 7.38421 10.1644 7.01579 9.95384C6.43684 9.63805 5.91053 9.32226 5.37895 9.32226C4.84737 9.32226 4.32632 9.63805 3.74211 9.95384C3.37368 10.1644 2.84737 10.4275 2.63684 10.4275C2.42632 10.4275 1.95263 10.1644 1.58421 9.95384C1.05789 9.63805 0.531579 9.32226 0 9.32226V10.4802L1 11.0065C1.57895 11.3223 2.10526 11.638 2.63684 11.638C3.16842 11.638 3.74211 11.3223 4.32632 11.0065C4.64211 10.7959 5.16842 10.4802 5.37895 10.4802C5.58947 10.4802 6.06316 10.7959 6.43158 11.0065C7.01053 11.3223 7.53684 11.638 8.06842 11.638C8.6 11.638 9.12105 11.3223 9.70526 11.0065C10.0737 10.7959 10.6 10.4802 10.8105 10.4802C11.0211 10.4802 11.4947 10.7959 11.8632 11.0065C12.4421 11.3223 12.9684 11.638 13.5 11.638C14.0316 11.638 14.5526 11.3223 15.1368 11.0065C15.5053 10.7959 15.9789 10.4802 16.1895 10.4802C16.4 10.4802 16.9263 10.7959 17.2947 11.0065C17.8737 11.3223 18.4 11.638 18.9316 11.638C19.4632 11.638 19.9842 11.3223 20.5684 11.0065C20.9368 10.7959 21.4105 10.4802 21.6211 10.4802C21.8316 10.4802 22.3579 10.7959 22.6737 11.0065C23.2526 11.3223 23.8316 11.638 24.3632 11.638C24.8947 11.638 25.4158 11.3223 26 11.0065L27 10.4802V9.32226C26.4737 9.32226 25.9474 9.63805 25.4158 9.95384C25.0474 10.1644 24.5737 10.4275 24.3632 10.4275ZM0 1.66961L1 2.19593C1.57895 2.51172 2.10526 2.82751 2.63684 2.82751C3.16842 2.82751 3.74211 2.51172 4.32632 2.19593C4.64211 1.9854 5.16842 1.66961 5.37895 1.66961C5.58947 1.66961 6.06316 1.9854 6.43158 2.19593C7.01053 2.51172 7.53684 2.82751 8.06842 2.82751C8.6 2.82751 9.12105 2.51172 9.70526 2.19593C10.0737 1.9854 10.6 1.66961 10.8105 1.66961C11.0211 1.66961 11.4947 1.9854 11.8632 2.19593C12.4421 2.51172 12.9684 2.82751 13.5 2.82751C14.0316 2.82751 14.5526 2.51172 15.1368 2.19593C15.5053 1.9854 15.9789 1.66961 16.1895 1.66961C16.4 1.66961 16.9263 1.9854 17.2947 2.19593C17.8737 2.51172 18.4 2.82751 18.9316 2.82751C19.4632 2.82751 19.9842 2.51172 20.5684 2.19593C20.9368 1.9854 21.4105 1.66961 21.6211 1.66961C21.8316 1.66961 22.3579 1.9854 22.6737 2.19593C23.2526 2.51172 23.8316 2.82751 24.3632 2.82751C24.8947 2.82751 25.4158 2.51172 26 2.19593L27 1.66961V0.511719C26.4737 0.56435 25.9474 0.827509 25.4158 1.1433C25.0474 1.35382 24.5737 1.61698 24.3632 1.61698C24.1526 1.61698 23.6263 1.35382 23.2579 1.1433C22.6789 0.827509 22.1526 0.511719 21.6211 0.511719C21.0895 0.511719 20.5684 0.827509 19.9842 1.1433C19.6158 1.35382 19.1421 1.61698 18.9316 1.61698C18.7211 1.61698 18.1947 1.35382 17.8789 1.1433C17.3 0.827509 16.7211 0.511719 16.1895 0.511719C15.6579 0.511719 15.1368 0.827509 14.5526 1.1433C14.1842 1.35382 13.7105 1.61698 13.5 1.61698C13.2895 1.61698 12.8158 1.35382 12.4474 1.1433C11.8684 0.827509 11.2895 0.511719 10.8105 0.511719C10.3316 0.511719 9.70526 0.827509 9.12105 1.1433C8.80526 1.35382 8.27895 1.61698 8.06842 1.61698C7.85789 1.61698 7.38421 1.35382 7.01579 1.1433C6.43684 0.827509 5.91053 0.511719 5.37895 0.511719C4.84737 0.511719 4.32632 0.827509 3.74211 1.1433C3.37368 1.35382 2.84737 1.61698 2.63684 1.61698C2.42632 1.61698 1.95263 1.35382 1.58421 1.1433C1.05789 0.827509 0.531579 0.56435 0 0.511719V1.66961H0ZM24.3632 4.57488C24.1526 4.57488 23.6263 4.31172 23.2579 4.1012C22.6789 3.78541 22.1526 3.46962 21.6211 3.46962C21.0895 3.46962 20.5684 3.78541 19.9842 4.1012C19.6158 4.31172 19.1421 4.57488 18.9316 4.57488C18.7211 4.57488 18.1947 4.31172 17.8789 4.1012C17.3 3.78541 16.7211 3.46962 16.1895 3.46962C15.7158 3.46962 15.1368 3.78541 14.5526 4.1012C14.1842 4.31172 13.7105 4.57488 13.5 4.57488C13.2895 4.57488 12.8158 4.31172 12.4474 4.1012C11.8684 3.78541 11.2895 3.46962 10.8105 3.46962C10.2842 3.46962 9.70526 3.78541 9.12105 4.1012C8.80526 4.31172 8.27895 4.57488 8.06842 4.57488C7.85789 4.57488 7.38421 4.31172 7.01579 4.1012C6.43684 3.78541 5.91053 3.46962 5.37895 3.46962C4.84737 3.46962 4.32632 3.78541 3.74211 4.1012C3.37368 4.31172 2.84737 4.57488 2.63684 4.57488C2.42632 4.57488 1.95263 4.31172 1.58421 4.1012C1.05789 3.78541 0.531579 3.46962 0 3.46962V4.62751L1 5.1012C1.57895 5.41699 2.10526 5.73278 2.63684 5.73278C3.16842 5.73278 3.74211 5.41699 4.32632 5.1012C4.64211 4.89067 5.16842 4.62751 5.37895 4.62751C5.58947 4.62751 6.06316 4.89067 6.43158 5.1012C7.01053 5.41699 7.53684 5.73278 8.06842 5.73278C8.6 5.73278 9.12105 5.41699 9.70526 5.1012C10.0737 4.89067 10.6 4.62751 10.8105 4.62751C11.0211 4.62751 11.4947 4.89067 11.8632 5.1012C12.4421 5.41699 12.9684 5.73278 13.5 5.73278C14.0316 5.73278 14.5526 5.41699 15.1368 5.1012C15.5053 4.89067 15.9789 4.62751 16.1895 4.62751C16.4 4.62751 16.9263 4.89067 17.2947 5.1012C17.8737 5.41699 18.4 5.73278 18.9316 5.73278C19.4632 5.73278 19.9842 5.41699 20.5684 5.1012C20.9368 4.89067 21.4105 4.62751 21.6211 4.62751C21.8316 4.62751 22.3579 4.89067 22.6737 5.1012C23.2526 5.41699 23.8316 5.73278 24.3632 5.73278C24.8947 5.73278 25.4158 5.41699 26 5.1012L27 4.62751V3.46962C26.4737 3.46962 25.9474 3.78541 25.4158 4.1012C25.0474 4.30646 24.5737 4.57488 24.3632 4.57488ZM27 6.36436C26.4737 6.41699 25.9474 6.68015 25.4158 6.99594C25.0474 7.20646 24.5737 7.52225 24.3632 7.52225C24.1526 7.52225 23.6263 7.20646 23.2579 6.99594C22.6789 6.68015 22.1526 6.36436 21.6211 6.36436C21.0895 6.36436 20.5684 6.68015 19.9842 6.99594C19.6158 7.20646 19.1421 7.52225 18.9316 7.52225C18.7211 7.52225 18.1947 7.20646 17.8789 6.99594C17.3 6.68015 16.7211 6.36436 16.1895 6.36436C15.6579 6.36436 15.1368 6.68015 14.5526 6.99594C14.1842 7.20646 13.7105 7.52225 13.5 7.52225C13.2895 7.52225 12.8158 7.20646 12.4474 6.99594C11.8684 6.68015 11.2895 6.36436 10.8105 6.36436C10.3316 6.36436 9.70526 6.68015 9.12105 6.99594C8.80526 7.20646 8.27895 7.52225 8.06842 7.52225C7.85789 7.52225 7.38421 7.20646 7.01579 6.99594C6.43684 6.68015 5.91053 6.36436 5.37895 6.36436C4.84737 6.36436 4.32632 6.68015 3.74211 6.99594C3.37368 7.20646 2.84737 7.52225 2.63684 7.52225C2.42632 7.52225 1.95263 7.20646 1.58421 6.99594C1.05789 6.68015 0.531579 6.41699 0 6.36436V7.57488C0.210526 7.62752 0.684211 7.83804 1 8.04857C1.57895 8.36436 2.10526 8.68015 2.63684 8.68015C3.16842 8.68015 3.74211 8.36436 4.32632 8.04857C4.64211 7.83804 5.16842 7.57488 5.37895 7.57488C5.58947 7.57488 6.06316 7.83804 6.43158 8.04857C7.01053 8.36436 7.53684 8.68015 8.06842 8.68015C8.6 8.68015 9.12105 8.36436 9.70526 8.04857C10.0737 7.83804 10.6 7.57488 10.8105 7.57488C11.0211 7.57488 11.4947 7.83804 11.8632 8.04857C12.4421 8.36436 12.9684 8.68015 13.5 8.68015C14.0316 8.68015 14.5526 8.36436 15.1368 8.04857C15.5053 7.83804 15.9789 7.57488 16.1895 7.57488C16.4 7.57488 16.9263 7.83804 17.2947 8.04857C17.8737 8.36436 18.4 8.68015 18.9316 8.68015C19.4632 8.68015 19.9842 8.36436 20.5684 8.04857C20.9368 7.83804 21.4105 7.57488 21.6211 7.57488C21.8316 7.57488 22.3579 7.83804 22.6737 8.04857C23.2526 8.36436 23.8316 8.68015 24.3632 8.68015C24.8947 8.68015 25.4158 8.36436 26 8.04857C26.3158 7.83804 26.7895 7.62752 27 7.57488V6.36436ZM24.3632 13.3802C24.1526 13.3802 23.6263 13.117 23.2579 12.9065C22.6789 12.5907 22.1526 12.2749 21.6211 12.2749C21.0895 12.2749 20.5684 12.5907 19.9842 12.9065C19.6158 13.117 19.1421 13.3802 18.9316 13.3802C18.7211 13.3802 18.1947 13.117 17.8789 12.9065C17.3 12.5907 16.7211 12.2749 16.1895 12.2749C15.7158 12.2749 15.1368 12.5907 14.5526 12.9065C14.1842 13.117 13.7105 13.3802 13.5 13.3802C13.2895 13.3802 12.8158 13.117 12.4474 12.9065C11.8684 12.5907 11.2895 12.2749 10.8105 12.2749C10.2842 12.2749 9.70526 12.5907 9.12105 12.9065C8.80526 13.117 8.27895 13.3802 8.06842 13.3802C7.85789 13.3802 7.38421 13.117 7.01579 12.9065C6.43684 12.5907 5.91053 12.2749 5.37895 12.2749C4.84737 12.2749 4.32632 12.5907 3.74211 12.9065C3.37368 13.117 2.84737 13.3802 2.63684 13.3802C2.42632 13.3802 1.95263 13.117 1.58421 12.9065C1.05789 12.5907 0.531579 12.2749 0 12.2749V13.4328L1 13.9065C1.57895 14.2223 2.10526 14.5381 2.63684 14.5381C3.16842 14.5381 3.74211 14.2223 4.32632 13.9065C4.64211 13.6959 5.16842 13.4328 5.37895 13.4328C5.58947 13.4328 6.06316 13.6959 6.43158 13.9065C7.01053 14.2223 7.53684 14.5381 8.06842 14.5381C8.6 14.5381 9.12105 14.2223 9.70526 13.9065C10.0737 13.6959 10.6 13.4328 10.8105 13.4328C11.0211 13.4328 11.4947 13.6959 11.8632 13.9065C12.4421 14.2223 12.9684 14.5381 13.5 14.5381C14.0316 14.5381 14.5526 14.2223 15.1368 13.9065C15.5053 13.6959 15.9789 13.4328 16.1895 13.4328C16.4 13.4328 16.9263 13.6959 17.2947 13.9065C17.8737 14.2223 18.4 14.5381 18.9316 14.5381C19.4632 14.5381 19.9842 14.2223 20.5684 13.9065C20.9368 13.6959 21.4105 13.4328 21.6211 13.4328C21.8316 13.4328 22.3579 13.6959 22.6737 13.9065C23.2526 14.2223 23.8316 14.5381 24.3632 14.5381C24.8947 14.5381 25.4158 14.2223 26 13.9065L27 13.4328V12.2749C26.4737 12.2749 25.9474 12.5907 25.4158 12.9065C25.0474 13.117 24.5737 13.3802 24.3632 13.3802ZM27 15.1696C26.4737 15.2223 25.9474 15.4854 25.4158 15.8012C25.0474 16.0117 24.5737 16.3275 24.3632 16.3275C24.1526 16.3275 23.6263 16.0117 23.2579 15.8012C22.6789 15.4854 22.1526 15.1696 21.6211 15.1696C21.0895 15.1696 20.5684 15.4854 19.9842 15.8012C19.6158 16.0117 19.1421 16.3275 18.9316 16.3275C18.7211 16.3275 18.1947 16.0117 17.8789 15.8012C17.3 15.4854 16.7211 15.1696 16.1895 15.1696C15.6579 15.1696 15.1368 15.4854 14.5526 15.8012C14.1842 16.0117 13.7105 16.3275 13.5 16.3275C13.2895 16.3275 12.8158 16.0117 12.4474 15.8012C11.8684 15.4854 11.2895 15.1696 10.8105 15.1696C10.3316 15.1696 9.70526 15.4854 9.12105 15.8012C8.80526 16.0117 8.27895 16.3275 8.06842 16.3275C7.85789 16.3275 7.38421 16.0117 7.01579 15.8012C6.43684 15.4854 5.91053 15.1696 5.37895 15.1696C4.84737 15.1696 4.32632 15.4854 3.74211 15.8012C3.37368 16.0117 2.84737 16.3275 2.63684 16.3275C2.42632 16.3275 1.95263 16.0117 1.58421 15.8012C1.05789 15.4854 0.531579 15.2223 0 15.1696V16.3802C0.210526 16.3802 0.684211 16.6433 1 16.8538C1.57895 17.1696 2.10526 17.4854 2.63684 17.4854C3.16842 17.4854 3.74211 17.1696 4.32632 16.8538C4.64211 16.6433 5.16842 16.3802 5.37895 16.3802C5.58947 16.3802 6.06316 16.6433 6.43158 16.8538C7.01053 17.1696 7.53684 17.4854 8.06842 17.4854C8.6 17.4854 9.12105 17.1696 9.70526 16.8538C10.0737 16.6433 10.6 16.3802 10.8105 16.3802C11.0211 16.3802 11.4947 16.6433 11.8632 16.8538C12.4421 17.1696 12.9684 17.4854 13.5 17.4854C14.0316 17.4854 14.5526 17.1696 15.1368 16.8538C15.5053 16.6433 15.9789 16.3802 16.1895 16.3802C16.4 16.3802 16.9263 16.6433 17.2947 16.8538C17.8737 17.1696 18.4 17.4854 18.9316 17.4854C19.4632 17.4854 19.9842 17.1696 20.5684 16.8538C20.9368 16.6433 21.4105 16.3802 21.6211 16.3802C21.8316 16.3802 22.3579 16.6433 22.6737 16.8538C23.2526 17.1696 23.8316 17.4854 24.3632 17.4854C24.8947 17.4854 25.4158 17.1696 26 16.8538C26.3158 16.6433 26.7895 16.3802 27 16.3802V15.1696Z" fill="#0052B4"/>
<path d="M0 -0.015625H13.4737V8.98438H0V-0.015625Z" fill="white"/>
<path d="M20.517 6.30859H21.4749V10.456H20.5117L20.517 6.30859ZM20.517 12.5086H21.4749V16.4612H20.5117L20.517 12.5086Z" fill="#A2001D"/>
<path d="M7.57895 -0.015625H5.89474V3.66859H0V5.3528H5.89474V8.98438H7.57895V5.3528H13.4737V3.66859H7.57895V-0.015625Z" fill="#D80027"/>
<path d="M0 -0.015625V0.773849L3 2.82648H4.21053L0 -0.015625ZM13.4737 -0.015625V0.773849L10.4737 2.82648H9.26316L13.4737 -0.015625Z" fill="#D80027"/>
<path d="M0 -0.015625V0.773849L3 2.82648H4.21053L0 -0.015625ZM13.4737 -0.015625V0.773849L10.4737 2.82648H9.26316L13.4737 -0.015625ZM0 8.98438V8.1949L3 6.1949H4.21053L0 8.98438ZM13.4737 8.98438V8.1949L10.4737 6.1949H9.26316L13.4737 8.98438Z" fill="#D80027"/>
<path d="M0 1.1949V2.82648H2.42105L0 1.1949ZM5.05263 -0.015625V2.56332L1.21053 -0.015625H5.05263ZM13.4737 1.1949V2.82648H11.0526L13.4737 1.1949ZM8.42105 -0.015625V2.56332L12.2632 -0.015625H8.42105Z" fill="#2E52B2"/>
<path d="M0 1.1949V2.82648H2.42105L0 1.1949ZM5.05263 -0.015625V2.56332L1.21053 -0.015625H5.05263ZM13.4737 1.1949V2.82648H11.0526L13.4737 1.1949ZM8.42105 -0.015625V2.56332L12.2632 -0.015625H8.42105ZM0 7.77385V6.1949H2.42105L0 7.77385ZM5.05263 8.98438V6.40543L1.21053 8.98438H5.05263ZM13.4737 7.77385V6.1949H11.0526L13.4737 7.77385ZM8.42105 8.98438V6.40543L12.2632 8.98438H8.42105Z" fill="#2E52B2"/>
<path d="M24.3573 4.8171H22.8257L24.1783 3.46447C24.4152 3.23289 24.4152 2.86447 24.1783 2.63289L23.9994 2.45395C23.7678 2.22237 23.3994 2.22237 23.1678 2.45395L21.8046 3.8171V1.96974C21.8046 1.64342 21.5362 1.375 21.2099 1.375H20.9625C20.6362 1.375 20.3678 1.64342 20.3678 1.96974V3.63816L19.131 2.38553C18.8836 2.13816 18.4889 2.13816 18.2415 2.38553L18.052 2.575C17.8046 2.82237 17.8046 3.22763 18.052 3.48026L19.3678 4.8171H17.7573C17.4415 4.8171 17.1836 5.075 17.1836 5.39079V5.63289C17.1836 5.94868 17.4415 6.20658 17.7573 6.20658H19.4204L18.331 7.29605C18.0994 7.52763 18.0994 7.89605 18.331 8.12763L18.5099 8.30657C18.7415 8.53815 19.1099 8.53815 19.3415 8.30657L20.3731 7.275V8.79078C20.3731 9.11184 20.6415 9.37499 20.9678 9.38552H21.2152C21.5415 9.38552 21.8099 9.1171 21.8099 8.79078V7.30131L22.9783 8.49078C23.2257 8.73815 23.631 8.73815 23.8783 8.49078L24.0678 8.30131C24.3152 8.05394 24.3152 7.64868 24.0678 7.39605L22.9046 6.21184H24.3573C24.6678 6.21184 24.9204 5.95394 24.931 5.63815V5.39605C24.931 5.075 24.6731 4.8171 24.3573 4.8171Z" fill="#5DA51E"/>
<path fill-rule="evenodd" clip-rule="evenodd" d="M20.2623 1.96953C20.2623 1.58508 20.5779 1.26953 20.9623 1.26953H21.2097C21.5942 1.26953 21.9097 1.58508 21.9097 1.96953V3.56277L23.0932 2.37931C23.3659 2.10662 23.8009 2.10662 24.0736 2.37931L24.2517 2.55743C24.2519 2.55757 24.252 2.5577 24.2521 2.55784C24.5306 2.8306 24.5306 3.26635 24.2521 3.53911C24.252 3.53925 24.2519 3.53939 24.2517 3.53953L23.0796 4.71164H24.3571C24.7316 4.71164 25.036 5.01729 25.036 5.39585V5.63971L25.036 5.64146C25.0237 6.01008 24.7282 6.31691 24.3571 6.31691H23.1554L24.1428 7.32221C24.4298 7.61533 24.4309 8.08665 24.142 8.37555L23.9526 8.56502C23.6641 8.8535 23.1922 8.8535 22.9037 8.56502L22.9034 8.56469L21.915 7.55849V8.79059C21.915 9.17504 21.5994 9.49059 21.215 9.49059H20.9659L20.9642 9.49054C20.5849 9.4783 20.2676 9.17217 20.2676 8.79059V7.52893L19.4157 8.38081C19.143 8.6535 18.708 8.6535 18.4353 8.38081L18.2563 8.20187C17.9836 7.92918 17.9836 7.49411 18.2563 7.22142L19.1661 6.31164H17.7571C17.3831 6.31164 17.0781 6.00662 17.0781 5.63269V5.39059C17.0781 5.01666 17.3831 4.71164 17.7571 4.71164H19.1163L17.9768 3.5539L17.9766 3.5537C17.6896 3.26059 17.6885 2.78927 17.9774 2.50036L18.1669 2.31089C18.4553 2.02241 18.9167 2.02241 19.2052 2.31089L19.2057 2.31136L20.2623 3.38153V1.96953ZM20.9623 1.48006C20.6942 1.48006 20.4729 1.70135 20.4729 1.96953V3.89438L19.0563 2.45975C19.0563 2.45968 19.0562 2.45961 19.0561 2.45954C18.8498 2.25349 18.5219 2.25357 18.3157 2.45975L18.1262 2.64923C17.9204 2.85503 17.9193 3.19418 18.1269 3.40633C18.127 3.40636 18.127 3.40639 18.127 3.40642L19.6189 4.92217H17.7571C17.4994 4.92217 17.2887 5.13293 17.2887 5.39059V5.63269C17.2887 5.89035 17.4994 6.10112 17.7571 6.10112H19.6744L18.4052 7.37029C18.2147 7.56076 18.2147 7.86253 18.4052 8.053L18.5841 8.23195C18.7746 8.42242 19.0764 8.42242 19.2669 8.23195L20.4781 7.02067V8.79059C20.4781 9.05061 20.6968 9.27044 20.9694 9.28007H21.215C21.4831 9.28007 21.7044 9.05877 21.7044 8.79059V7.04375L23.0526 8.41616C23.0527 8.41626 23.0528 8.41637 23.0529 8.41647C23.2592 8.62242 23.5975 8.62232 23.8037 8.41616L23.9932 8.22669C24.199 8.02088 24.2001 7.68175 23.9925 7.4696C23.9925 7.46956 23.9924 7.46953 23.9924 7.4695L22.6535 6.10638H24.3571C24.6065 6.10638 24.8159 5.8983 24.8255 5.63613V5.39585C24.8255 5.13231 24.6141 4.92217 24.3571 4.92217H22.5714L24.1041 3.38942L24.1045 3.38901C24.2991 3.19872 24.2991 2.89824 24.1045 2.70795L24.1041 2.70754L23.9247 2.52818C23.7343 2.3377 23.4325 2.3377 23.242 2.52818L21.6992 4.07103V1.96953C21.6992 1.70135 21.4779 1.48006 21.2097 1.48006H20.9623Z" fill="#45602C"/>
<path d="M23.1176 13.1104H18.9176C18.9176 13.1104 18.8703 12.4052 18.6018 11.9631C18.2755 11.4157 17.8703 10.4841 18.5282 10.0315C19.365 9.45782 20.3018 10.0736 21.065 10.0736C21.686 10.0789 22.4808 9.33676 23.4334 10.0315C24.0755 10.4999 23.6387 11.5157 23.365 11.9631C22.9966 12.5683 23.1176 13.1104 23.1176 13.1104Z" fill="#E2DD24"/>
<path fill-rule="evenodd" clip-rule="evenodd" d="M21.0642 10.1786C20.8608 10.1786 20.6494 10.1376 20.44 10.0886C20.3709 10.0724 20.3024 10.0555 20.2342 10.0386C20.0913 10.0032 19.9493 9.96807 19.8043 9.94059C19.3806 9.86035 18.9715 9.85473 18.5874 10.118C18.3049 10.3124 18.2433 10.6088 18.2994 10.9441C18.356 11.2825 18.5308 11.6386 18.6917 11.9086C18.8355 12.1456 18.9172 12.4468 18.9633 12.6821C18.9867 12.801 19.0013 12.9057 19.0102 12.9807C19.0112 12.9892 19.0121 12.9973 19.013 13.0049H22.9975C22.9926 12.9414 22.9903 12.8564 22.9978 12.7556C23.0146 12.5311 23.0803 12.2275 23.2747 11.9081L23.2748 11.9079C23.4078 11.6905 23.5784 11.3376 23.6385 10.9871C23.6987 10.6361 23.645 10.3161 23.371 10.1163C22.9274 9.79278 22.5255 9.80279 22.1498 9.89592C22.0089 9.93085 21.8752 9.97649 21.7422 10.0219C21.6934 10.0386 21.6446 10.0552 21.5956 10.0713C21.4185 10.1294 21.2381 10.18 21.0642 10.1786ZM23.1173 13.1102V13.2155H18.8188L18.8123 13.1173L18.8122 13.117L18.8121 13.1158C18.8121 13.1146 18.8119 13.1128 18.8117 13.1104C18.8114 13.1055 18.8108 13.0981 18.8099 13.0885C18.8081 13.0692 18.8053 13.0409 18.8011 13.0055C18.7928 12.9345 18.7788 12.8352 18.7567 12.7226C18.7121 12.4948 18.636 12.2225 18.5115 12.0175L18.5113 12.0171L18.5111 12.0167C18.3457 11.7394 18.1549 11.3562 18.0917 10.9789C18.0281 10.5985 18.0928 10.2028 18.4681 9.94452L18.4683 9.94442C18.921 9.63408 19.3987 9.64952 19.8434 9.73374C19.9942 9.7623 20.1461 9.79986 20.292 9.83595C20.3588 9.85248 20.4243 9.8687 20.488 9.88361C20.6949 9.93206 20.8866 9.96809 21.0646 9.96809H21.0651L21.0655 9.96809C21.202 9.96925 21.3537 9.92908 21.5299 9.87128C21.574 9.85681 21.6198 9.8412 21.6668 9.82513C21.8022 9.77889 21.9487 9.72888 22.0992 9.69157C22.5143 9.58864 22.9861 9.57497 23.4951 9.9462C23.8632 10.2148 23.9122 10.6369 23.846 11.0227C23.7798 11.4091 23.5952 11.7877 23.4545 12.0177C23.2805 12.3035 23.2226 12.5736 23.2078 12.7713C23.2004 12.8703 23.2038 12.9511 23.2089 13.0063C23.2115 13.0339 23.2145 13.0551 23.2167 13.0689C23.2178 13.0758 23.2187 13.0809 23.2193 13.084C23.2195 13.0849 23.2197 13.0856 23.2198 13.0862C23.2199 13.0866 23.2199 13.0869 23.22 13.0871L23.22 13.0873C23.22 13.0873 23.22 13.0873 23.1173 13.1102Z" fill="#525625"/>
</g>
<rect x="0.5" y="0.5" width="26" height="17" rx="0.5" stroke="black" stroke-opacity="0.2"/>
<defs>
<clipPath id="clip0_109_43749">
<rect width="27" height="18" rx="1" fill="white"/>
</clipPath>
</defs>
</svg>
