<svg width="27" height="18" viewBox="0 0 27 18" fill="none" xmlns="http://www.w3.org/2000/svg">
<g clip-path="url(#clip0_109_43872)">
<path d="M0 0H27V18H0V0Z" fill="#0021AD"/>
<path d="M0 0H27V18" fill="#1C8A42"/>
<path d="M4.09258 14.3458L4.39317 14.9734L5.06817 14.8152L4.76758 15.4428L5.31075 15.87L4.63575 16.023V16.7191L4.09258 16.2814L3.55469 16.7191V16.023L2.87969 15.87L3.42285 15.4428L3.11699 14.8152L3.79727 14.9734L4.09258 14.3458ZM2.13613 9.12991L2.43672 9.75751L3.11172 9.59929L2.81114 10.2216L3.3543 10.6541L2.67403 10.807L2.6793 11.5032L2.13613 11.0655L1.59297 11.5032L1.59824 10.807L0.917969 10.6541L1.46641 10.2216L1.16055 9.59929L1.83555 9.75751L2.13613 9.12991ZM4.09258 4.86328L4.39317 5.48561L5.06817 5.33266L4.76758 5.95499L5.31075 6.38745L4.63575 6.5404V7.23129L4.09258 6.79882L3.55469 7.23129V6.5404L2.87969 6.38745L3.42285 5.95499L3.11699 5.33266L3.79727 5.48561L4.09258 4.86328ZM6.52364 8.1806L6.82423 8.8082L7.49923 8.64998L7.19864 9.27758L7.74181 9.70477L7.0668 9.85771V10.5539L6.52364 10.1214L5.98575 10.5539V9.85771L5.31075 9.70477L5.85391 9.27758L5.55333 8.64998L6.22833 8.8082L6.52364 8.1806ZM4.78868 11.0285L5.02071 11.7511H5.78536L5.16836 12.1994L5.40567 12.9219L4.78868 12.4789L4.17168 12.9219L4.40899 12.1994L3.792 11.7511H4.55137L4.78868 11.0285Z" fill="white"/>
<path d="M14.085 12.9324C16.2547 12.9324 18.0137 11.1733 18.0137 9.00331C18.0137 6.83333 16.2547 5.07422 14.085 5.07422C11.9152 5.07422 10.1562 6.83333 10.1562 9.00331C10.1562 11.1733 11.9152 12.9324 14.085 12.9324Z" fill="#FFC639"/>
<path d="M14.0844 11.6169H15.3922C15.3922 11.6169 15.9617 10.6148 15.3922 9.65494L16.7 8.347L16.0461 7.03906H15.3922C15.3922 7.03906 15.0652 8.02002 13.7574 8.02002C12.4496 8.02002 12.1227 7.03906 12.1227 7.03906H11.4688L12.1227 8.347L11.4688 9.65494L12.1227 10.3089C12.1227 10.3089 12.7766 9.00097 14.0844 9.65494C14.0844 9.65494 14.6381 10.4724 14.0844 11.6169Z" fill="#1C8A42"/>
<path d="M24.4885 4.86128C24.5201 4.70833 24.4779 3.93306 24.4779 3.76957C24.4779 2.64622 23.7449 1.69163 22.7271 1.35938C23.0383 1.99225 23.2123 2.69896 23.2123 3.45313C23.2123 3.70628 23.1912 3.95416 23.1543 4.19676C23.0014 3.94888 22.8062 3.72738 22.5637 3.53224C21.6619 2.81499 20.4227 2.79389 19.5104 3.40039C20.217 3.55334 20.8973 3.86978 21.4984 4.3497C21.973 4.72415 22.3527 5.23573 22.6428 5.72621C22.6428 5.72621 21.7041 6.30107 21.008 6.52257C20.3119 6.74408 18.7773 6.93921 18.7773 6.93921C22.5742 7.57209 25.7383 5.04059 25.7383 5.04059C25.3955 4.33388 24.9051 4.82963 24.4885 4.86128Z" fill="#FFC639"/>
</g>
<rect x="0.5" y="0.5" width="26" height="17" rx="0.5" stroke="black" stroke-opacity="0.2"/>
<defs>
<clipPath id="clip0_109_43872">
<rect width="27" height="18" rx="1" fill="white"/>
</clipPath>
</defs>
</svg>
