<svg width="375" height="225" viewBox="0 0 375 225" fill="none" xmlns="http://www.w3.org/2000/svg">
<g clip-path="url(#clip0_102_69675)">
<path d="M184.5 4C262.096 4 325 66.904 325 144.5C325 163.443 321.249 181.51 314.453 198H54.5469C47.7506 181.51 44 163.443 44 144.5C44 66.904 106.904 4 184.5 4Z" fill="#DCEDF4"/>
<ellipse cx="184" cy="203" rx="153" ry="14" fill="#A0A09F" fill-opacity="0.15"/>
<path d="M316 97V124H264L264.005 97H316Z" fill="#FFBC0D"/>
<path d="M190.926 120H77V97H191L190.926 120Z" fill="#FFBC0D"/>
<path d="M191 99L190.97 108H77V99H191Z" fill="black" fill-opacity="0.1"/>
<path d="M316 99V108H264L264.002 99H316Z" fill="black" fill-opacity="0.1"/>
<path d="M264 124H287V203H264V124Z" fill="#F9F9F9"/>
<path d="M288 124H316V203H288V124Z" fill="#F9F9F9"/>
<path d="M191 89L190.967 98.999L73.8004 99C72.8061 99 72 98.1942 72 97.2002V90.8008C72 89.8068 72.8061 89.001 73.8004 89.001L191 89Z" fill="#FFBC0D"/>
<path d="M318.212 89.001C319.2 89.001 320 89.8068 320 90.8008V97.2002C320 98.1942 319.2 99 318.212 99L264 98.999L264.002 89L318.212 89.001Z" fill="#FFBC0D"/>
<path d="M260.5 74.5234L260.473 202.998H194.569L194.5 74.5234L260.5 74.5234Z" fill="#F1F1F1"/>
<path d="M59.8 124H244.443C245.437 124 246.243 124.806 246.243 125.8V140H58V125.8C58 124.806 58.8059 124 59.8 124Z" fill="#606060"/>
<path d="M195 140H246V203H195V140Z" fill="#D8D8D8"/>
<path d="M109 140H137V203H109V140Z" fill="#F9F9F9"/>
<path d="M138 140H166V203H138V140Z" fill="#F9F9F9"/>
<path d="M167 140H195V203H167V140Z" fill="#F9F9F9"/>
<path d="M218 154H246V203H218V154Z" fill="#F9F9F9"/>
<path d="M58 198H109V204H58V198Z" fill="#A5835B"/>
<path d="M58 192H109V198H58V192Z" fill="#C2945C"/>
<path d="M58 187H109V193H58V187Z" fill="#A5835B"/>
<path d="M58 182H109V188H58V182Z" fill="#C2945C"/>
<path d="M58 177H109V183H58V177Z" fill="#A5835B"/>
<path d="M58 171H109V177H58V171Z" fill="#C2945C"/>
<path d="M58 166H109V172H58V166Z" fill="#A5835B"/>
<path d="M58 161H109V167H58V161Z" fill="#C2945C"/>
<path d="M58 156H109V162H58V156Z" fill="#A5835B"/>
<path d="M58 150H109V156H58V150Z" fill="#C2945C"/>
<path d="M58 145H109V151H58V145Z" fill="#A5835B"/>
<path d="M58 140H109V146H58V140Z" fill="#C2945C"/>
<path d="M136 140H140V203H136V140Z" fill="#D8D8D8"/>
<path d="M286 124H290V203H286V124Z" fill="#D8D8D8"/>
<path d="M312 124H316V203H312V124Z" fill="#D8D8D8"/>
<path d="M165 140H169V203H165V140Z" fill="#D8D8D8"/>
<path d="M218 154H246V160H218V154Z" fill="#A0A09F" fill-opacity="0.15"/>
<path d="M195 140H246V143H195V140Z" fill="#292929" fill-opacity="0.1"/>
<path d="M165 140H169V146H165V140Z" fill="#292929" fill-opacity="0.1"/>
<path d="M136 140H140V146H136V140Z" fill="#292929" fill-opacity="0.1"/>
<path d="M109 140H136V145H109V140Z" fill="#A0A09F" fill-opacity="0.15"/>
<path d="M140 140H165V145H140V140Z" fill="#A0A09F" fill-opacity="0.15"/>
<path d="M169 140H195V145H169V140Z" fill="#A0A09F" fill-opacity="0.15"/>
<path fill-rule="evenodd" clip-rule="evenodd" d="M236.023 86.7959C239.143 86.7959 241.672 99.9528 241.672 116.182H246.195C246.195 98.703 241.64 84.5352 236.023 84.5352C232.826 84.5352 229.975 88.7942 228.111 95.4522C226.247 88.7942 223.396 84.5352 220.2 84.5352C214.584 84.5352 210.027 98.703 210.027 116.182H214.55C214.55 99.9528 217.08 86.7959 220.2 86.7959C223.32 86.7959 225.85 98.9404 225.85 113.921H230.372C230.372 98.9404 232.902 86.7959 236.023 86.7959Z" fill="#FFBC0D"/>
<rect x="63" y="33" width="6" height="170" fill="#F9F9F9"/>
<rect x="66" y="33" width="3" height="170" fill="#F1F1F1"/>
<path d="M66 26C68.2091 26 70 27.7909 70 30C70 31.195 69.4754 32.267 68.6445 33H63.3555C62.5246 32.267 62 31.195 62 30C62 27.7909 63.7909 26 66 26Z" fill="#FFBC0D"/>
<path opacity="0.5" d="M66 26C67.3598 26 68.5605 26.6789 69.2832 27.7158C68.6357 27.2648 67.8489 27 67 27C64.7909 27 63 28.7909 63 31C63 31.8496 63.2659 32.6366 63.7178 33.2842C62.6799 32.5616 62 31.3605 62 30C62 27.7909 63.7909 26 66 26Z" fill="#F9F9F9"/>
<g clip-path="url(#clip1_102_69675)">
<path d="M69 33H124.323V69.882H69V33Z" fill="white"/>
<path d="M69 33H124.323V45.2725H69V33Z" fill="#6DA544"/>
<path d="M69 57.543H124.323V69.8801H69V57.543Z" fill="#D80027"/>
<path d="M82.5881 51.4087L69 69.8065V33L82.5881 51.4087Z" fill="#0070C8"/>
<path fill-rule="evenodd" clip-rule="evenodd" d="M94.2141 47.9805H101.946V52.3912C101.946 53.3604 101.704 54.0909 101.337 54.6406C100.971 55.19 100.483 55.5555 99.997 55.7987C99.5109 56.0417 99.0255 56.163 98.662 56.2236C98.4801 56.2539 98.3285 56.269 98.2221 56.2766C98.1689 56.2804 98.1269 56.2824 98.0982 56.2833C98.0838 56.2838 98.0727 56.284 98.0651 56.2842C98.0614 56.2842 98.0585 56.2843 98.0565 56.2843L98.0542 56.2843L98.0535 56.2843H98.0534C98.0533 56.2843 98.0533 56.2843 98.0533 56.2304C98.0533 56.2843 98.0532 56.2843 98.0532 56.2843H98.053L98.0523 56.2843L98.05 56.2843C98.0481 56.2843 98.0452 56.2842 98.0414 56.2842C98.0338 56.284 98.0227 56.2838 98.0083 56.2833C97.9796 56.2824 97.9377 56.2804 97.8845 56.2766C97.778 56.269 97.6264 56.2539 97.4445 56.2236C97.0811 56.163 96.5956 56.0417 96.1096 55.7987C95.6233 55.5555 95.1353 55.19 94.7691 54.6406C94.4026 54.0909 94.1602 53.3604 94.1602 52.3912V48.0344H94.2141V47.9805ZM94.268 48.0883V52.3912C94.268 53.3416 94.5054 54.0507 94.8588 54.5808C95.2124 55.1112 95.6843 55.4655 96.1578 55.7022C96.6315 55.9391 97.1059 56.0578 97.4623 56.1172C97.6403 56.1469 97.7886 56.1617 97.8921 56.1691C97.9439 56.1728 97.9845 56.1746 98.0119 56.1755C98.0257 56.176 98.0362 56.1762 98.0431 56.1763C98.0466 56.1764 98.0492 56.1764 98.0509 56.1764L98.0528 56.1764L98.0532 56.1764H98.0533L98.0537 56.1764L98.0556 56.1764C98.0573 56.1764 98.0599 56.1764 98.0634 56.1763C98.0704 56.1762 98.0808 56.176 98.0946 56.1755C98.1221 56.1746 98.1626 56.1728 98.2144 56.1691C98.3179 56.1617 98.4662 56.1469 98.6443 56.1172C99.0007 56.0578 99.475 55.9391 99.9487 55.7022C100.422 55.4655 100.894 55.1112 101.248 54.5808C101.601 54.0507 101.839 53.3416 101.839 52.3912V48.0883H94.268Z" fill="black"/>
<path d="M97.5251 52.3906H98.582L99.0133 55.173H97.0938L97.5251 52.3906Z" fill="#786145"/>
<path d="M99.9709 50.4711C99.9709 49.4142 99.1081 48.875 98.0513 48.875C96.9944 48.875 96.1317 49.4142 96.1317 50.4711C95.6032 50.4711 95.1719 50.9024 95.1719 51.4308C95.1719 51.9593 95.6032 52.3906 96.1317 52.3906H99.9709C100.499 52.3906 100.931 51.9593 100.931 51.4308C100.931 50.9024 100.499 50.4711 99.9709 50.4711Z" fill="#6DA544"/>
<path d="M93.8764 45.9414L94.0813 46.2973H94.4911L94.2862 46.6532L94.4911 46.9983H94.0813L93.8764 47.3541L93.6715 46.9983H93.2617L93.4666 46.6532L93.2617 46.2973H93.6715L93.8764 45.9414ZM95.5264 45.9414L95.7313 46.2973H96.1303L95.9254 46.6532L96.1303 46.9983H95.7313L95.5264 47.3541L95.3215 46.9983H94.9117L95.1166 46.6532L94.9117 46.2973H95.3215L95.5264 45.9414ZM97.1764 45.9414L97.3813 46.2973H97.7803L97.5754 46.6532L97.7803 46.9983H97.3813L97.1764 47.3541L96.9715 46.9983H96.5617L96.7666 46.6532L96.5617 46.2973H96.9715L97.1764 45.9414ZM98.8803 45.9414L99.0852 46.2973H99.495L99.2901 46.6532L99.495 46.9983H99.0852L98.8803 47.3541L98.6754 46.9983H98.2764L98.4705 46.6532L98.2764 46.2973H98.6754L98.8803 45.9414ZM100.606 45.9414L100.811 46.2973H101.22L101.016 46.6532L101.22 46.9983H100.811L100.606 47.3541L100.401 46.9983H100.002L100.196 46.6532L100.002 46.2973H100.401L100.606 45.9414ZM102.223 45.9414L102.428 46.2973H102.827L102.622 46.6532L102.827 46.9983H102.428L102.223 47.3541L102.019 46.9983H101.609L101.814 46.6532L101.609 46.2973H102.019L102.223 45.9414Z" fill="#FFDA00"/>
<path fill-rule="evenodd" clip-rule="evenodd" d="M95.5274 45.832L95.7635 46.2421H96.2246L95.9889 46.6514L96.226 47.0509H95.7635L95.5274 47.4609L95.2913 47.0509H94.818L95.0551 46.6514L94.8194 46.2421H95.2913L95.5274 45.832ZM98.8813 45.832L99.1174 46.2421H99.5892L99.3535 46.6514L99.5907 47.0509H99.1174L98.8813 47.4609L98.6452 47.0509H98.1852L98.4098 46.6515L98.1865 46.2421H98.6452L98.8813 45.832ZM100.607 45.832L100.843 46.2421H101.315L101.079 46.6514L101.316 47.0509H100.843L100.607 47.4609L100.371 47.0509H99.9106L100.135 46.6515L99.912 46.2421H100.371L100.607 45.832ZM102.224 45.832L102.46 46.2421H102.922L102.686 46.6514L102.923 47.0509H102.46L102.224 47.4609L101.988 47.0509H101.515L101.752 46.6514L101.516 46.2421H101.988L102.224 45.832ZM93.8774 45.832L94.1135 46.2421H94.5854L94.3497 46.6514L94.5868 47.0509H94.1135L93.8774 47.4609L93.6413 47.0509H93.168L93.4051 46.6514L93.1694 46.2421H93.6413L93.8774 45.832ZM97.1774 45.832L97.4134 46.2421H97.8746L97.6389 46.6514L97.876 47.0509H97.4134L97.1774 47.4609L96.9413 47.0509H96.4679L96.7051 46.6514L96.4694 46.2421H96.9413L97.1774 45.832ZM97.1774 46.0482L97.0036 46.3499H96.6559L96.83 46.6523L96.6574 46.943H97.0036L97.1774 47.2448L97.3511 46.943H97.6866L97.5139 46.6523L97.688 46.3499H97.3511L97.1774 46.0482ZM93.8774 46.0482L93.7037 46.3499H93.356L93.5301 46.6523L93.3574 46.943H93.7037L93.8774 47.2448L94.0511 46.943H94.3974L94.2247 46.6523L94.3988 46.3499H94.0511L93.8774 46.0482ZM95.5274 46.0482L95.3537 46.3499H95.0059L95.18 46.6523L95.0074 46.943H95.3537L95.5274 47.2448L95.7011 46.943H96.0366L95.8639 46.6523L96.038 46.3499H95.7011L95.5274 46.0482ZM98.8813 46.0482L98.7076 46.3499H98.3682L98.5331 46.6523L98.3696 46.943H98.7076L98.8813 47.2448L99.055 46.943H99.4013L99.2286 46.6523L99.4027 46.3499H99.055L98.8813 46.0482ZM100.607 46.0482L100.433 46.3499H100.094L100.259 46.6523L100.095 46.943H100.433L100.607 47.2448L100.78 46.943H101.127L100.954 46.6523L101.128 46.3499H100.78L100.607 46.0482ZM102.224 46.0482L102.051 46.3499H101.703L101.877 46.6523L101.704 46.943H102.051L102.224 47.2448L102.398 46.943H102.734L102.561 46.6523L102.735 46.3499H102.398L102.224 46.0482Z" fill="black"/>
</g>
<path d="M67.8158 205.5L68.7364 205.494C75.9374 205.404 81.6316 204.137 81.6316 196.816C81.6316 189.186 75.446 183 67.8158 183C60.1855 183 54 189.186 54 196.816C54 204.446 60.1855 205.5 67.8158 205.5Z" fill="#9CC93A"/>
<path d="M98.8158 205.5L99.7364 205.494C106.937 205.404 112.632 204.137 112.632 196.816C112.632 189.186 106.446 183 98.8158 183C91.1855 183 85 189.186 85 196.816C85 204.446 91.1855 205.5 98.8158 205.5Z" fill="#9CC93A"/>
<path d="M128.816 205.5L129.736 205.494C136.937 205.404 142.632 204.137 142.632 196.816C142.632 189.186 136.446 183 128.816 183C121.186 183 115 189.186 115 196.816C115 204.446 121.186 205.5 128.816 205.5Z" fill="#9CC93A"/>
<path d="M253.561 29.8555C255.088 29.8555 256.327 31.0943 256.327 32.6221C256.327 34.0685 255.217 35.2538 253.802 35.376C254.09 36.0127 254.252 36.7186 254.252 37.4629C254.252 40.2639 251.982 42.5342 249.181 42.5342H257.94C260.741 42.5342 263.013 44.8055 263.013 47.6064H269.929C272.729 47.6066 275 49.8769 275 52.6777C275 55.4786 272.73 57.7498 269.929 57.75H262.332C261.455 59.2653 259.817 60.2852 257.94 60.2852H215.523C213.647 60.2852 212.009 59.2653 211.132 57.75H206.071C203.27 57.7498 201 55.4786 201 52.6777C201 49.8769 203.271 47.6066 206.071 47.6064H210.452C210.452 44.8055 212.722 42.5342 215.523 42.5342H221.748C221.748 39.7334 224.018 37.4629 226.819 37.4629H235.349C235.349 34.6619 237.62 32.3916 240.421 32.3916H249.181C249.746 32.3916 250.288 32.4849 250.796 32.6553C250.796 32.6442 250.795 32.6332 250.795 32.6221C250.795 31.0943 252.033 29.8556 253.561 29.8555Z" fill="white"/>
<path d="M140.047 2C143.684 2 146.634 4.94858 146.634 8.58594C146.634 8.65081 146.631 8.71586 146.629 8.78027H148.184C150.537 8.78048 152.445 10.6884 152.445 13.042H155.738C158.092 13.042 160 14.95 160 17.3037C160 19.6574 158.092 21.5654 155.738 21.5654H153.229C152.493 22.8389 151.116 23.6963 149.539 23.6963H133.461C131.884 23.6963 130.507 22.8389 129.771 21.5654H127.262C124.908 21.5654 123 19.6574 123 17.3037C123 14.95 124.908 13.042 127.262 13.042H127.843C127.843 10.6883 129.751 8.78037 132.104 8.78027H133.466C133.464 8.71585 133.461 8.65081 133.461 8.58594C133.461 4.94867 136.41 2.00015 140.047 2Z" fill="white"/>
</g>
<defs>
<clipPath id="clip0_102_69675">
<rect width="375" height="225" fill="white"/>
</clipPath>
<clipPath id="clip1_102_69675">
<rect width="55.3231" height="36.882" fill="white" transform="translate(69 33)"/>
</clipPath>
</defs>
</svg>
