<svg width="136" height="136" viewBox="0 0 136 136" fill="none" xmlns="http://www.w3.org/2000/svg">
<path d="M119.826 114.66C119.826 117.609 99.0089 119.999 73.3292 119.999C47.6495 119.999 26.832 117.609 26.832 114.66C26.832 111.711 47.6495 109.32 73.3292 109.32C99.0089 109.32 119.826 111.711 119.826 114.66Z" fill="#A0A09F" fill-opacity="0.15"/>
<path fill-rule="evenodd" clip-rule="evenodd" d="M17.6362 62.3796L93.9329 18.3297C94.997 17.7153 96.3576 18.0799 96.972 19.144L120.554 59.9897C121.169 61.0538 120.804 62.4144 119.74 63.0288L43.4432 107.079C42.3791 107.693 41.0185 107.328 40.4042 106.264L16.8219 65.4187C16.2075 64.3546 16.5721 62.994 17.6362 62.3796Z" fill="#EAEAEA"/>
<path fill-rule="evenodd" clip-rule="evenodd" d="M17.6362 62.3796L93.9329 18.3297C94.997 17.7153 96.3576 18.0799 96.972 19.144L120.554 59.9897C121.169 61.0538 120.804 62.4144 119.74 63.0288L43.4432 107.079C42.3791 107.693 41.0185 107.328 40.4042 106.264L16.8219 65.4187C16.2075 64.3546 16.5721 62.994 17.6362 62.3796Z" fill="#EAEAEA"/>
<path fill-rule="evenodd" clip-rule="evenodd" d="M16.7711 60.8812L93.0678 16.8313C94.9594 15.7392 97.3782 16.3873 98.4703 18.2789L122.053 59.1246C123.145 61.0162 122.497 63.435 120.605 64.5271L44.3082 108.577C42.4167 109.669 39.9979 109.021 38.9058 107.129L15.3235 66.2837C14.2314 64.3921 14.8795 61.9733 16.7711 60.8812ZM93.9329 18.3296L17.6361 62.3796C16.5721 62.9939 16.2075 64.3545 16.8218 65.4186L40.4041 106.264C41.0185 107.328 42.3791 107.693 43.4432 107.079L119.74 63.0287C120.804 62.4144 121.169 61.0537 120.554 59.9897L96.9719 19.1439C96.3576 18.0799 94.9969 17.7153 93.9329 18.3296Z" fill="white"/>
<path fill-rule="evenodd" clip-rule="evenodd" d="M96.972 19.144L98.7945 22.3014L75.6931 71.1256C75.301 71.9543 74.4406 72.4576 73.5261 72.3933L18.62 68.5338L16.8219 65.4187C16.2075 64.3546 16.5721 62.994 17.6362 62.3796L93.9329 18.3297C94.997 17.7153 96.3576 18.0799 96.972 19.144Z" fill="#A0A09F" fill-opacity="0.15"/>
<path fill-rule="evenodd" clip-rule="evenodd" d="M17.5812 62.4105L93.9855 18.2984C95.0496 17.6841 96.4102 18.0487 97.0246 19.1127C97.3892 19.7443 97.4211 20.5143 97.1102 21.1739L74.4943 69.1396C74.1024 69.9709 73.2397 70.4756 72.3231 70.4099L18.5346 66.5562C17.3091 66.4684 16.3867 65.4037 16.4745 64.1782C16.5273 63.4418 16.9419 62.7796 17.5812 62.4105Z" fill="#F1F1F1"/>
<path d="M83.3453 60.6259C86.5399 66.1591 84.6441 73.2344 79.1109 76.429C73.5777 79.6236 66.5024 77.7278 63.3078 72.1945C60.1132 66.6613 62.009 59.586 67.5422 56.3914C73.0754 53.1968 80.1507 55.0927 83.3453 60.6259Z" fill="#A0A09F" fill-opacity="0.15"/>
<path fill-rule="evenodd" clip-rule="evenodd" d="M74.9004 77.6053C68.8256 79.5791 62.3008 76.2546 60.327 70.1797C58.3532 64.1049 61.6777 57.5801 67.7525 55.6063C73.8274 53.6325 80.3521 56.957 82.326 63.0318C84.2998 69.1067 80.9753 75.6314 74.9004 77.6053Z" fill="#DB0007"/>
<path fill-rule="evenodd" clip-rule="evenodd" d="M72.3319 60.7922C73.431 60.4351 75.8272 64.7794 77.6843 70.495L79.2771 69.9775C77.277 63.8217 74.0516 59.3532 72.0732 59.996C70.9475 60.3617 70.4307 62.188 70.5361 64.7462C69.1177 62.6146 67.6261 61.4409 66.5005 61.8067C64.5226 62.4493 64.5392 67.9604 66.5394 74.1162L68.1322 73.5987C66.2751 67.8831 65.6606 62.9598 66.7592 62.6029C67.8583 62.2458 70.1391 66.2334 71.8534 71.5093L73.4457 70.992C71.7314 65.716 71.2328 61.1493 72.3319 60.7922Z" fill="#FFBC0D"/>
</svg>
