<svg width="136" height="136" viewBox="0 0 136 136" fill="none" xmlns="http://www.w3.org/2000/svg">
<path fill-rule="evenodd" clip-rule="evenodd" d="M67.7168 116.296C102.982 116.296 131.57 113.97 131.57 111.101C131.57 108.232 102.982 105.906 67.7168 105.906C32.4515 105.906 3.86328 108.232 3.86328 111.101C3.86328 113.97 32.4515 116.296 67.7168 116.296Z" fill="#A0A09F" fill-opacity="0.15"/>
<path d="M63.6055 75.2024C52.2956 75.226 40.9856 75.3582 29.6757 75.5991C28.1256 75.6321 26.8422 74.4023 26.8092 72.8522L26.8089 72.8384L26.8086 65.8542C26.8086 64.3038 28.0655 63.0469 29.6159 63.0469H105.82C107.371 63.0469 108.628 64.3037 108.628 65.8542V72.7938C108.628 74.293 107.453 75.517 105.973 75.597L105.949 75.5983L105.787 75.601L105.763 75.6005C94.0951 75.3618 82.6399 75.2294 71.3972 75.2034L71.3978 111.255L71.1572 111.593C70.3087 112.785 68.98 113.264 67.5017 113.264C66.0234 113.264 64.6947 112.785 63.8462 111.593L63.6056 111.255L63.6055 75.2024Z" fill="white"/>
<path fill-rule="evenodd" clip-rule="evenodd" d="M14.4576 92.4846H13.8148C12.7108 92.4846 11.7837 91.6537 11.6632 90.5563L8.06803 57.8116C7.62526 53.7789 10.5296 50.1485 14.5611 49.6952L15.0698 49.638C16.0219 49.5309 16.88 50.2173 16.9845 51.1697L20.4473 82.7089C20.8913 82.6752 21.446 82.6371 22.1053 82.599C24.004 82.4893 26.7713 82.3801 30.2637 82.3801C33.1785 82.3801 36.0892 82.4562 38.4885 82.5446C42.403 82.6888 45.4244 85.9252 45.4244 89.8058V92.4846H40.9708C41.3481 94.6965 41.7528 97.2187 42.1048 99.7435C42.7538 104.399 43.0506 107.823 43.1801 109.681C43.2894 111.249 42.1984 112.601 40.6965 112.893C39.0708 113.209 37.4821 112.198 37.0796 110.591L32.5438 92.4846H22.8897L18.3511 110.604C17.9505 112.203 16.3689 113.21 14.7506 112.895C13.2372 112.601 12.1522 111.231 12.2696 109.664C12.4198 107.658 12.7516 103.9 13.399 99.2571C13.7264 96.9087 14.1027 94.5629 14.4576 92.4846Z" fill="white"/>
<path fill-rule="evenodd" clip-rule="evenodd" d="M93.9899 92.4853H90.0117V89.8808C90.0117 86.001 93.0326 82.7647 96.9467 82.6211C99.2917 82.535 102.122 82.4616 104.956 82.4616C108.395 82.4616 111.215 82.5696 113.179 82.678C113.902 82.7179 114.51 82.7578 114.99 82.7925L118.451 51.6013C118.557 50.6506 119.413 49.9656 120.364 50.0713L120.858 50.1263C124.897 50.5756 127.808 54.2134 127.359 58.2524L123.774 90.5596C123.652 91.6559 122.725 92.4853 121.622 92.4853H121.224L123.693 109.596C123.914 111.13 122.892 112.569 121.37 112.865C119.911 113.148 118.462 112.287 118.038 110.845C117.304 108.346 115.72 102.842 114.368 97.3321C113.903 95.4407 113.536 93.8329 113.246 92.4853H102.46C102.146 93.9329 101.744 95.6696 101.234 97.7059C99.909 102.995 98.3584 108.277 97.6013 110.797C97.1464 112.311 95.6202 113.217 94.0818 112.918C92.4768 112.606 91.3964 111.093 91.6221 109.473L93.9899 92.4853Z" fill="white"/>
<path fill-rule="evenodd" clip-rule="evenodd" d="M96.0366 61.3032V61.613C96.0366 63.0227 94.8938 64.1655 93.4841 64.1655H40.572C39.1623 64.1655 38.0195 63.0227 38.0195 61.613V61.3032C37.2689 60.8588 36.7656 60.0408 36.7656 59.1053C36.7656 57.6956 37.9084 56.5527 39.3182 56.5527C40.9643 56.5527 42.3664 57.5977 42.8973 59.0604H91.1588C91.6897 57.5977 93.0918 56.5527 94.7379 56.5527C96.1477 56.5527 97.2905 57.6955 97.2905 59.1053C97.2905 60.0408 96.7872 60.8588 96.0366 61.3032Z" fill="white"/>
<path fill-rule="evenodd" clip-rule="evenodd" d="M67.1923 75.1699C68.1588 75.1699 69.1269 75.1708 70.0966 75.1725L70.0972 110.842C69.5634 111.592 68.6976 111.967 67.4998 111.967C66.302 111.967 65.4362 111.592 64.9024 110.842L64.9023 75.172L67.1923 75.1699Z" fill="#6F6F6F"/>
<path fill-rule="evenodd" clip-rule="evenodd" d="M29.6141 64.3477H105.818C106.652 64.3477 107.327 65.0231 107.327 65.8562V72.7959C107.327 73.6013 106.696 74.2593 105.901 74.3022L105.788 74.3042C92.6856 74.036 79.8508 73.902 67.2834 73.902C54.7376 73.902 42.1919 74.0356 29.6462 74.3028C28.8132 74.3205 28.1236 73.6596 28.1058 72.8266L28.1055 65.8562C28.1055 65.0231 28.7809 64.3477 29.6141 64.3477Z" fill="#FFBC0D"/>
<path d="M17.053 85.559L22.9965 86.7143L17.0916 110.288C16.8588 111.218 15.9394 111.803 14.9987 111.62C14.1167 111.449 13.4979 110.656 13.565 109.76C13.7136 107.775 14.0429 104.045 14.6855 99.4363C15.653 92.4977 17.053 85.559 17.053 85.559Z" fill="#6F6F6F"/>
<path d="M38.378 85.5588L32.4318 86.7146L38.334 110.276C38.5687 111.212 39.4952 111.802 40.4433 111.618C41.3219 111.447 41.9414 110.665 41.8792 109.772C41.7515 107.94 41.4576 104.546 40.8131 99.9229C39.8119 92.7409 38.378 85.5588 38.378 85.5588Z" fill="#6F6F6F"/>
<path opacity="0.1" d="M39.4223 91.1856C39.6263 92.34 39.822 93.4944 40.0092 94.6488L34.3866 94.6486L33.5156 91.1855L39.4223 91.1856Z" fill="#292929"/>
<path d="M19.2929 84.1123C19.2929 84.1123 23.3308 83.6788 30.2618 83.6788C33.1556 83.6788 36.0494 83.7544 38.4387 83.8424C41.6369 83.9602 44.1237 86.6054 44.1237 89.8058V91.1859H13.8128C13.3712 91.1859 13.0004 90.8535 12.9522 90.4145L9.35704 57.6699C8.99241 54.3488 11.3842 51.3591 14.7043 50.9857L15.2129 50.9285C15.451 50.9018 15.6655 51.0734 15.6916 51.3115L19.2929 84.1123Z" fill="#292929"/>
<path d="M118.914 85.5586L113.499 86.6112C113.499 86.6112 113.808 89.6008 115.63 97.0222C116.976 102.504 118.553 107.987 119.285 110.478C119.518 111.27 120.314 111.747 121.124 111.59C121.966 111.426 122.531 110.63 122.409 109.781L120.559 96.9602L118.914 85.5586Z" fill="#6F6F6F"/>
<path opacity="0.1" d="M119.806 91.1859L120.315 94.6488L115.039 94.6488C114.734 93.3707 114.473 92.2163 114.254 91.1855L119.806 91.1859Z" fill="#292929"/>
<path d="M96.2656 85.5586L102.215 86.715C102.215 86.715 101.797 90.1116 99.9734 97.39C98.6555 102.65 97.1115 107.911 96.3566 110.423C96.0956 111.292 95.2191 111.816 94.3287 111.643C93.4013 111.462 92.777 110.588 92.9074 109.652L96.2656 85.5586Z" fill="#6F6F6F"/>
<path opacity="0.1" d="M100.53 94.6485L95.2031 94.6488L95.6576 91.186L101.264 91.1855C101.057 92.2288 100.813 93.3831 100.53 94.6485Z" fill="#292929"/>
<path d="M116.141 84.1891C116.141 84.1891 111.779 83.7603 104.956 83.7603C102.142 83.7603 99.3289 83.8332 96.9938 83.9189C93.7964 84.0362 91.3099 86.6812 91.3099 89.8808V91.1866H121.622C122.063 91.1866 122.434 90.8548 122.482 90.4163L126.068 58.1092C126.437 54.7829 124.04 51.7871 120.714 51.4171L120.22 51.3621C119.982 51.3356 119.768 51.5069 119.742 51.7446L116.141 84.1891Z" fill="#292929"/>
<path fill-rule="evenodd" clip-rule="evenodd" d="M77.4104 45.5275H76.7157C76.7157 45.5275 77.1404 48.859 77.7984 52.1539C78.4564 55.4487 79.3624 58.7802 79.3624 58.7802L80.3248 59.4965C80.3248 59.4965 82.1294 58.7802 84.5354 58.7802C86.9415 58.7802 88.8664 59.4965 88.8664 59.4965L89.8288 58.7802C89.8288 58.7802 90.7274 55.4853 91.3928 52.1539C92.0581 48.8224 92.4755 45.5275 92.4755 45.5275H91.87L91.9973 45.0501H91.9981C92.4757 43.4979 92.7145 42.4234 92.9533 40.8713C92.3378 40.6996 91.5263 40.8497 91.4725 41.0616C91.4097 41.3093 91.3633 41.4751 91.3087 41.67L91.3087 41.67C91.2835 41.7604 91.2564 41.857 91.2252 41.9709C90.9726 41.6903 90.4498 41.5465 89.9409 41.4981C89.8132 42.6636 89.6861 43.1545 89.4098 44.2215L89.3283 44.5369C89.3941 42.9251 89.4891 42.0312 89.7693 40.3633C89.1944 40.2473 88.4459 40.342 88.215 40.757C88.0632 41.7092 87.9819 42.2372 87.925 43.0655L87.9156 42.8147C87.8645 41.4619 87.8321 40.6052 87.71 39.1335C86.9815 39.1915 86.3049 39.5277 86.1799 39.9769L86.1878 40.086L86.1878 40.086L86.1878 40.0866C86.2027 40.2914 86.2226 40.5658 86.233 40.7364C85.7316 40.7252 85.1895 40.9411 84.9928 41.0983C84.9048 41.5377 84.8506 41.9067 84.7984 42.2625C84.718 42.8093 84.6423 43.3247 84.4556 44.0157C84.4556 44.0157 84.331 43.1353 84.7583 39.4649C84.7839 39.2447 83.965 38.6875 83.3836 38.6102C83.2531 39.6786 83.1385 40.7455 83.038 41.8119C82.9807 40.5536 82.8832 39.2885 82.7435 38.0113C82.3012 37.9334 81.3538 38.7207 81.3752 38.9383C81.623 41.4568 81.6276 41.8558 81.6413 43.5417C81.4157 42.0116 81.3219 41.4473 81.1157 40.5255C80.5351 40.5688 79.7066 41.1872 79.7493 41.4017C79.9547 42.4328 79.9947 42.8839 80.0616 44.2334C79.8818 43.2222 79.7337 42.6383 79.5586 41.9478L79.5586 41.9478L79.5586 41.9478C79.451 41.5233 79.3331 41.0586 79.1914 40.4295C79.1687 40.3289 78.1482 40.022 77.5814 40.1727C77.6274 40.3619 77.6741 40.5512 77.7209 40.7405C77.9937 41.8446 78.2663 42.948 78.3836 44.0358C78.061 43.1984 77.7611 42.3432 77.4888 41.4627C76.9247 41.6232 76.2072 42.7068 76.2393 42.8048C76.4089 43.322 76.6108 43.7581 76.8178 44.2054L76.8179 44.2054C76.9431 44.476 77.0703 44.7508 77.1934 45.0501H77.1943L77.1935 45.0504L77.4104 45.5275Z" fill="white"/>
<path fill-rule="evenodd" clip-rule="evenodd" d="M76.7148 45.5273H78.6251C78.6251 45.5273 80.2037 50.0643 84.5346 50.0643C88.8656 50.0643 90.5644 45.5273 90.5644 45.5273H92.4747C92.4747 45.5273 92.0573 48.8222 91.3919 52.1536C90.7266 55.4851 89.828 58.7799 89.828 58.7799L88.8656 59.4963C88.8656 59.4963 86.9407 58.7799 84.5346 58.7799C82.1285 58.7799 80.324 59.4963 80.324 59.4963L79.3615 58.7799C79.3615 58.7799 78.4556 55.4485 77.7976 52.1536C77.1396 48.8588 76.7148 45.5273 76.7148 45.5273Z" fill="#DB0007"/>
<path fill-rule="evenodd" clip-rule="evenodd" d="M85.7477 51.498C85.2097 51.498 84.7298 52.1889 84.4157 53.269C84.1019 52.1889 83.6218 51.498 83.0837 51.498C82.1381 51.498 81.3711 53.7966 81.3711 56.6319H82.1323C82.1323 53.9992 82.5585 51.8648 83.0837 51.8648C83.6093 51.8648 84.0352 53.8352 84.0352 56.2654H84.7963C84.7963 53.8352 85.2223 51.8648 85.7477 51.8648C86.2732 51.8648 86.6992 53.9992 86.6992 56.6319H87.4601C87.4601 53.7966 86.6935 51.498 85.7477 51.498Z" fill="#FFBC0D"/>
<path fill-rule="evenodd" clip-rule="evenodd" d="M79.1037 45.05C79.1037 45.05 80.6558 49.587 84.5958 49.587C88.5357 49.587 90.0878 45.05 90.0878 45.05C90.0878 45.05 91.1624 45.05 91.9981 45.05C92.4757 43.4979 92.7145 42.4234 92.9533 40.8713C92.3378 40.6996 91.5263 40.8497 91.4725 41.0616C91.3806 41.424 91.3238 41.6111 91.2252 41.9709C90.9726 41.6903 90.4498 41.5465 89.9409 41.4981C89.8012 42.7725 89.6623 43.2403 89.3283 44.5368C89.3941 42.9251 89.4891 42.0312 89.7693 40.3633C89.1944 40.2473 88.4459 40.342 88.215 40.757C88.0632 41.7092 87.9819 42.2371 87.925 43.0654C87.8681 41.5631 87.8395 40.694 87.71 39.1335C86.9815 39.1915 86.3049 39.5277 86.1799 39.9769C86.1946 40.1815 86.2206 40.5328 86.233 40.7364C85.7316 40.7252 85.1895 40.941 84.9928 41.0983C84.7696 42.2131 84.7638 42.8752 84.4556 44.0157C84.4556 44.0157 84.331 43.1352 84.7583 39.4649C84.7839 39.2447 83.965 38.6875 83.3836 38.6102C83.2531 39.6786 83.1385 40.7455 83.038 41.8119C82.9807 40.5536 82.8832 39.2885 82.7435 38.0113C82.3012 37.9334 81.3538 38.7207 81.3752 38.9383C81.623 41.4568 81.6276 41.8558 81.6413 43.5416C81.4157 42.0116 81.3219 41.4472 81.1157 40.5255C80.5351 40.5688 79.7066 41.1872 79.7493 41.4016C79.9547 42.4328 79.9947 42.8839 80.0616 44.2333C79.7713 42.6005 79.5637 42.0819 79.1914 40.4295C79.1687 40.3289 78.1482 40.022 77.5814 40.1726C77.8956 41.4657 78.2462 42.7615 78.3836 44.0358C78.061 43.1984 77.7611 42.3432 77.4888 41.4627C76.9247 41.6232 76.2072 42.7068 76.2393 42.8048C76.5115 43.6349 76.8669 44.256 77.1934 45.05H79.1037Z" fill="#FFBC0D"/>
<path fill-rule="evenodd" clip-rule="evenodd" d="M80.7829 38.9967C80.7422 38.5827 81.0475 38.2429 81.532 37.8841C81.9859 37.5481 82.4353 37.3505 82.8488 37.4232C83.1102 37.4693 83.3098 37.6824 83.3387 37.9462L83.3459 38.0144L83.3613 38.0135C83.3866 38.0125 83.4123 38.0131 83.4381 38.0154L83.4641 38.0183C84.3 38.1295 85.4317 38.8579 85.353 39.5338C85.3354 39.6851 85.3186 39.8327 85.3026 39.9768L85.267 40.3022L85.3004 40.2911C85.396 40.2598 85.4951 40.2325 85.5957 40.21L85.5999 40.209L85.5868 40.0274L85.5848 39.9856C85.584 39.9286 85.5913 39.8718 85.6066 39.8167C85.8104 39.0845 86.6863 38.6163 87.6643 38.5383C87.9922 38.5121 88.2795 38.7562 88.3067 39.084C88.3229 39.2798 88.3378 39.4665 88.3514 39.6471L88.3691 39.8882L88.3745 39.8859C88.7991 39.7066 89.332 39.6735 89.8452 39.7695L89.8892 39.7781C90.2049 39.8418 90.4131 40.1445 90.3598 40.4621C90.344 40.5563 90.3287 40.6479 90.3141 40.7372L90.2815 40.9388L90.3706 40.9536C90.5301 40.9818 90.6819 41.0184 90.8242 41.064L90.8546 41.0739L90.8739 40.9998L90.8957 40.9147C91.0697 40.2289 92.2472 40.054 93.1154 40.2962C93.4065 40.3774 93.591 40.6633 93.5451 40.962C93.3175 42.4413 93.0894 43.4844 92.6904 44.8289L92.6522 44.9566L92.664 44.9602C92.92 45.0442 93.0967 45.2962 93.0723 45.5783L93.0697 45.6025C92.7897 47.8132 92.4265 50.036 91.9802 52.2707C91.5339 54.5052 91.0094 56.7273 90.4067 58.9372C90.3716 59.066 90.2943 59.1793 90.1872 59.259L89.2248 59.9753C89.0624 60.0962 88.8499 60.1265 88.6601 60.0559C87.4464 59.6042 86.073 59.3771 84.5374 59.3771C83.0051 59.3771 81.6758 59.6032 80.547 60.0513C80.3546 60.1277 80.1364 60.0989 79.9703 59.9753L79.0079 59.259C78.9007 59.1792 78.8234 59.0657 78.7883 58.9367C78.1808 56.7027 77.6563 54.4807 77.215 52.2707C76.7736 50.0604 76.4104 47.8378 76.1255 45.603C76.0893 45.3192 76.2578 45.0614 76.5093 44.9678L76.5109 44.9672L76.4511 44.8334L76.396 44.7122L76.1707 44.2236C75.9643 43.7728 75.8307 43.4526 75.7098 43.0981L75.6738 42.9905C75.5563 42.6317 75.7571 42.3009 76.1786 41.7811L76.2181 41.733C76.5081 41.3835 76.8081 41.1129 77.121 40.9662L77.1593 40.9489L77.0031 40.3135C76.9264 39.998 77.116 39.679 77.4298 39.5956C77.7941 39.4988 78.2479 39.5224 78.7173 39.623C78.9026 39.6628 79.0798 39.7134 79.2221 39.767C79.3028 39.7973 79.3737 39.829 79.4357 39.8643C79.4835 39.8914 79.5274 39.9212 79.5703 39.9586C79.6659 40.0421 79.7406 40.1431 79.7755 40.2982L79.8088 40.4447L79.8646 40.4059C80.1847 40.1879 80.5408 40.023 80.8756 39.9571L80.8633 39.8256L80.7829 38.9967ZM83.0397 41.8117C82.9824 40.5533 82.885 39.2883 82.7452 38.011C82.3029 37.9332 81.3555 38.7205 81.377 38.938C81.5774 40.9755 81.6187 41.6258 81.6344 42.6925L81.6431 43.5414C81.4372 42.1456 81.3411 41.5534 81.1693 40.7605L81.1174 40.5253C80.5369 40.5686 79.7083 41.187 79.751 41.4014C79.9359 42.3294 79.9868 42.7876 80.0439 43.8537L80.0633 44.2331C79.8835 43.2219 79.7355 42.638 79.5603 41.9476C79.4645 41.5695 79.3605 41.1596 79.2388 40.63L79.1931 40.4292C79.1705 40.3287 78.1499 40.0217 77.5831 40.1724C77.6291 40.3617 77.6759 40.551 77.7226 40.7403C77.9954 41.8443 78.268 42.9478 78.3853 44.0356C78.0628 43.1981 77.7628 42.3429 77.4905 41.4625C76.9264 41.6229 76.2089 42.7065 76.241 42.8045C76.4106 43.3217 76.6125 43.7578 76.8196 44.2051C76.9274 44.438 77.0366 44.6738 77.1434 44.9258L77.1951 45.0498L77.4122 45.5274H76.7176C77.0007 47.7483 77.3616 49.9571 77.8003 52.1537C78.239 54.3502 78.7603 56.559 79.3643 58.7799L80.3267 59.4963C81.5297 59.0187 82.9333 58.7799 84.5373 58.7799C86.1414 58.7799 87.585 59.0187 88.8683 59.4963L89.8307 58.7799C90.4298 56.5834 90.9511 54.3746 91.3947 52.1537C91.8382 49.9327 92.1991 47.7239 92.4774 45.5274H91.8724L91.9998 45.0498L92.0426 44.91C92.4919 43.4321 92.7234 42.3761 92.955 40.871C92.3395 40.6994 91.528 40.8495 91.4743 41.0614C91.4436 41.1822 91.4169 41.2835 91.3912 41.3782L91.2269 41.9706C90.9744 41.69 90.4515 41.5463 89.9426 41.4979C89.8296 42.5295 89.717 43.0326 89.501 43.8746L89.33 44.5366C89.3926 43.0035 89.4817 42.1199 89.7313 40.6018L89.771 40.3631C89.1961 40.247 88.4477 40.3418 88.2168 40.7568C88.075 41.6455 87.9948 42.1646 87.9385 42.9033L87.9268 43.0652C87.9235 42.9796 87.9204 42.8961 87.9173 42.8145C87.8693 41.5436 87.8379 40.7105 87.7329 39.3942L87.7117 39.1332C86.9833 39.1913 86.3066 39.5275 86.1816 39.9767C86.184 40.0097 86.1867 40.0466 86.1895 40.086C86.2003 40.2345 86.2137 40.4196 86.2243 40.5752L86.2347 40.7361C85.7333 40.725 85.1912 40.9408 84.9945 41.098C84.9065 41.5374 84.8523 41.9065 84.8001 42.2622C84.7197 42.8091 84.644 43.3245 84.4574 44.0154C84.4574 44.0154 84.3425 43.204 84.7113 39.8918L84.76 39.4647C84.7856 39.2444 83.9667 38.6872 83.3853 38.6099C83.2548 39.6784 83.1402 40.7453 83.0397 41.8117Z" fill="white"/>
<path d="M75.0561 59.3951H60.399L57.4492 54.2988H78.0059L75.0561 59.3951Z" fill="white" stroke="white" stroke-width="1.64165"/>
<path fill-rule="evenodd" clip-rule="evenodd" d="M56.0234 53.4785H79.4271L75.5271 60.2165H59.9234L56.0234 53.4785ZM58.8704 55.1202L60.87 58.5748H74.5805L76.5801 55.1202H58.8704Z" fill="white"/>
<path d="M59.5386 43.2324H75.8376C76.0862 43.2324 76.3067 43.3919 76.3846 43.6279L79.0681 51.7587C79.3212 52.5256 78.9047 53.3525 78.1378 53.6056C77.9899 53.6544 77.8352 53.6793 77.6795 53.6793H57.6966C56.8891 53.6793 56.2344 53.0246 56.2344 52.217C56.2344 52.0613 56.2592 51.9066 56.308 51.7587L58.9915 43.6279C59.0694 43.3919 59.29 43.2324 59.5386 43.2324Z" fill="white" stroke="white" stroke-width="1.49241"/>
<path fill-rule="evenodd" clip-rule="evenodd" d="M59.6617 43.9787L57.0168 51.9927C56.9929 52.0651 56.9807 52.1409 56.9807 52.2171C56.9807 52.6126 57.3013 52.9332 57.6967 52.9332H77.6796C77.7559 52.9332 77.8316 52.921 77.9041 52.8971C78.2796 52.7732 78.4836 52.3683 78.3596 51.9927L75.7147 43.9787H59.6617ZM58.283 43.3942C58.4619 42.8523 58.9681 42.4863 59.5387 42.4863H75.8377C76.4083 42.4863 76.9145 42.8523 77.0933 43.3942L79.7768 51.525C80.1591 52.6832 79.53 53.9321 78.3718 54.3143C78.1485 54.388 77.9148 54.4256 77.6796 54.4256H57.6967C56.477 54.4256 55.4883 53.4368 55.4883 52.2171C55.4883 51.982 55.5258 51.7483 55.5995 51.525L58.283 43.3942Z" fill="white"/>
<path d="M75.0561 59.3951H60.399L57.4492 54.2988H78.0059L75.0561 59.3951Z" fill="#C2945C"/>
<mask id="mask0_17_28575" style="mask-type:luminance" maskUnits="userSpaceOnUse" x="57" y="54" width="22" height="6">
<path d="M75.0561 59.3951H60.399L57.4492 54.2988H78.0059L75.0561 59.3951Z" fill="white"/>
</mask>
<g mask="url(#mask0_17_28575)">
</g>
<path d="M59.5386 43.2324H75.8376C76.0862 43.2324 76.3067 43.3919 76.3846 43.6279L79.0681 51.7587C79.3212 52.5256 78.9047 53.3525 78.1378 53.6056C77.9899 53.6544 77.8352 53.6793 77.6795 53.6793H57.6966C56.8891 53.6793 56.2344 53.0246 56.2344 52.217C56.2344 52.0613 56.2592 51.9066 56.308 51.7587L58.9915 43.6279C59.0694 43.3919 59.29 43.2324 59.5386 43.2324Z" fill="#C2945C"/>
<path fill-rule="evenodd" clip-rule="evenodd" d="M74.0878 47.1016C73.5709 47.1016 73.1098 47.771 72.808 48.8179C72.5066 47.771 72.0453 47.1016 71.5283 47.1016C70.6198 47.1016 69.8828 49.3292 69.8828 52.077H70.6142C70.6142 49.5255 71.0236 47.457 71.5283 47.457C72.0332 47.457 72.4424 49.3665 72.4424 51.7217H73.1737C73.1737 49.3665 73.583 47.457 74.0878 47.457C74.5926 47.457 75.002 49.5255 75.002 52.077H75.7331C75.7331 49.3292 74.9965 47.1016 74.0878 47.1016Z" fill="#FFBC0D"/>
<path d="M94.9041 60.4471V61.701C94.9041 62.3935 94.3427 62.9548 93.6502 62.9548H40.7381C40.0457 62.9548 39.4843 62.3935 39.4843 61.701V60.4471C38.7918 60.4471 38.2305 59.8858 38.2305 59.1933C38.2305 58.5008 38.7918 57.9395 39.4843 57.9395C40.8693 57.9395 41.992 59.0622 41.992 60.4471H92.3964C92.3964 59.0622 93.5191 57.9395 94.9041 57.9395C95.5965 57.9395 96.1579 58.5008 96.1579 59.1933C96.1579 59.8858 95.5965 60.4471 94.9041 60.4471Z" fill="#461E00"/>
<path d="M44.4668 39.2476C44.6493 38.9739 44.9545 38.8105 45.2835 38.8105C45.5216 38.8105 45.7514 38.8972 45.9304 39.0543L46.4259 39.4893L54.6874 40.3742C55.0288 40.4108 55.3356 40.5946 55.5288 40.8786C55.6584 41.0691 55.8047 41.3261 55.9108 41.6334C56.1832 41.6417 56.4405 41.761 56.6383 41.9717C57.1184 42.4827 57.1046 43.3416 57.0888 43.5926C57.0665 43.95 56.8015 44.245 56.4487 44.3055C56.443 44.3064 56.3726 44.3184 56.2413 44.3379C55.8092 48.3051 54.8247 57.6444 54.6384 58.9123C54.4521 60.1802 51.6378 60.2112 49.6191 60.2764C47.363 60.3492 44.121 60.1009 43.9592 58.9867C43.7973 57.8725 42.5559 47.2949 42.2009 44.3284C42.0988 44.3057 42.0433 44.29 42.0253 44.2847C41.6796 44.1823 41.451 43.8543 41.4743 43.4945C41.4767 43.4577 41.5004 43.1246 41.5924 42.777C41.8561 41.7815 42.4463 41.6329 42.7746 41.6329H42.8054L43.0608 40.4194C43.2007 39.7545 43.7875 39.2689 44.4634 39.2528L44.4668 39.2476Z" fill="white"/>
<path fill-rule="evenodd" clip-rule="evenodd" d="M42.2461 43.544C42.2461 43.544 42.32 42.4044 42.776 42.4044H43.4333L43.8177 40.5778C43.8908 40.2303 44.2135 39.9931 44.5669 40.0271L44.8575 40.0551L45.1107 39.6752C45.1808 39.5699 45.3275 39.5506 45.4225 39.634L46.1019 40.2304L54.6066 41.1413C54.7224 41.1537 54.8263 41.2161 54.892 41.3125C55.0344 41.5218 55.2618 41.9265 55.2857 42.4044H55.8816C56.1796 42.4044 56.3548 42.983 56.3197 43.544C56.3197 43.544 53.6645 43.9998 49.2479 43.9998C43.7796 43.9998 42.2461 43.544 42.2461 43.544Z" fill="#461E00"/>
<path fill-rule="evenodd" clip-rule="evenodd" d="M42.9648 44.1992C42.9648 44.1992 44.6742 58.4882 44.7262 58.8871C44.8051 59.492 46.8715 59.6332 49.2113 59.6332C51.5511 59.6332 53.7962 59.3867 53.875 58.8082C53.9539 58.2296 55.4786 44.2123 55.4786 44.2123C55.4786 44.2123 53.5727 44.5805 49.1168 44.5805C45.2915 44.5805 42.9648 44.1992 42.9648 44.1992Z" fill="#FFBC0D"/>
<g style="mix-blend-mode:multiply" opacity="0.5">
<path fill-rule="evenodd" clip-rule="evenodd" d="M51.2812 59.5612C51.6583 55.9075 52.123 48.7902 52.3959 44.5044C54.5243 44.3965 55.4751 44.2129 55.4751 44.2129C55.4751 44.2129 53.9504 58.2302 53.8715 58.8087C53.8169 59.2092 52.7245 59.4505 51.2812 59.5612Z" fill="#D6D6D6"/>
</g>
<path fill-rule="evenodd" clip-rule="evenodd" d="M49.9667 56.4298C50.1927 56.4129 50.3751 57.339 50.3751 58.5126C50.4837 58.4984 50.5921 58.482 50.7003 58.463C50.7003 57.1987 50.3737 56.2361 49.9667 56.2663C49.7354 56.2841 49.5284 56.596 49.3931 57.0774C49.2578 56.596 49.0509 56.2841 48.8194 56.2663C48.4126 56.2362 48.0859 57.1986 48.0859 58.463C48.194 58.482 48.3025 58.4984 48.4111 58.5126C48.4111 57.339 48.5936 56.4129 48.8194 56.4298C49.0454 56.447 49.2292 57.3276 49.2291 58.4111C49.3385 58.4134 49.4477 58.4134 49.5571 58.4111C49.557 57.3276 49.7408 56.4471 49.9667 56.4298Z" fill="#EC9D47"/>
</svg>
