<svg width="27" height="18" viewBox="0 0 27 18" fill="none" xmlns="http://www.w3.org/2000/svg">
<g clip-path="url(#clip0_109_43905)">
<path d="M0 0H27V17.9996H0V0Z" fill="#FFDA44"/>
<path d="M13.5 0H27V18.0002H13.5V0Z" fill="white"/>
<path d="M16.9477 7.8311L18.639 10.0686C18.3725 10.4721 18.374 11.0158 18.6821 11.4235C19.0731 11.9407 19.8092 12.043 20.3265 11.6521C20.8436 11.2611 20.946 10.5249 20.555 10.0077C20.2469 9.60003 19.7241 9.45042 19.2633 9.59665L16.6272 6.10938L16.0029 6.5813L15.0664 7.2892L16.0103 8.5378L16.9477 7.8311ZM19.3827 10.4035C19.4237 10.3725 19.4704 10.3499 19.5201 10.3369C19.5698 10.324 19.6216 10.321 19.6725 10.3281C19.7234 10.3351 19.7724 10.3522 19.8168 10.3782C19.8611 10.4042 19.8998 10.4387 19.9308 10.4797C19.9618 10.5207 19.9844 10.5674 19.9974 10.6171C20.0103 10.6669 20.0133 10.7187 20.0063 10.7696C19.9992 10.8205 19.9822 10.8695 19.9561 10.9138C19.9301 10.9581 19.8956 10.9969 19.8546 11.0279C19.7718 11.0905 19.6676 11.1176 19.5648 11.1033C19.462 11.089 19.3691 11.0345 19.3065 10.9517C19.2439 10.8689 19.2167 10.7646 19.231 10.6618C19.2453 10.559 19.2999 10.4661 19.3827 10.4035Z" fill="#ACABB1"/>
<path d="M19.8486 8.53779L20.7925 7.2892L19.856 6.5813L19.2317 6.10938L16.5957 9.59665C16.1348 9.45031 15.6121 9.59997 15.3039 10.0077C14.913 10.5249 15.0153 11.2611 15.5325 11.6521C16.0497 12.043 16.7859 11.9407 17.1768 11.4235C17.4851 11.0158 17.4864 10.4721 17.2199 10.0686L18.9113 7.8311L19.8486 8.53779ZM16.5525 10.9515C16.4899 11.0343 16.397 11.0888 16.2942 11.1031C16.1914 11.1174 16.0871 11.0903 16.0043 11.0277C15.9215 10.9651 15.867 10.8722 15.8527 10.7694C15.8384 10.6666 15.8656 10.5623 15.9281 10.4795C15.9591 10.4385 15.9979 10.404 16.0422 10.378C16.0865 10.352 16.1355 10.335 16.1865 10.3279C16.2374 10.3208 16.2892 10.3238 16.3389 10.3368C16.3886 10.3497 16.4353 10.3723 16.4763 10.4033C16.5173 10.4343 16.5518 10.4731 16.5778 10.5174C16.6038 10.5617 16.6209 10.6107 16.628 10.6616C16.635 10.7125 16.632 10.7643 16.6191 10.8141C16.6061 10.8638 16.5835 10.9105 16.5525 10.9515Z" fill="#FFDA44"/>
</g>
<rect x="0.5" y="0.5" width="26" height="17" rx="0.5" stroke="black" stroke-opacity="0.2"/>
<defs>
<clipPath id="clip0_109_43905">
<rect width="27" height="18" rx="1" fill="white"/>
</clipPath>
</defs>
</svg>
