<svg width="375" height="225" viewBox="0 0 375 225" fill="none" xmlns="http://www.w3.org/2000/svg">
<path d="M143.483 65.9854C140.672 74.984 131.177 79.9649 122.306 77.0911C113.441 74.2156 108.507 64.5573 111.314 55.5561C114.12 46.555 123.62 41.5766 132.487 44.4479C141.355 47.3259 146.289 56.9843 143.483 65.9854Z" fill="url(#paint0_linear_1584_44980)"/>
<path d="M112.908 56.0486C110.378 64.1559 114.82 72.8582 122.813 75.4455C130.805 78.0328 139.36 73.5487 141.887 65.4388C144.413 57.3288 139.975 48.6292 131.982 46.0418C123.99 43.4545 115.439 47.9412 112.908 56.0486Z" fill="white"/>
<path d="M120.15 54.0219C119.649 55.6365 121.316 57.7588 124.328 59.7716C120.726 59.6377 118.166 60.3906 117.66 62.0026C116.777 64.833 123.098 69.4168 131.779 72.2294L132.49 69.9477C124.431 67.334 118.292 63.9389 118.785 62.365C119.274 60.7886 125.707 61.4715 133.146 63.8822L133.857 61.6005C126.416 59.1939 120.781 55.9583 121.268 54.3859C121.758 52.8095 128.693 53.6559 136.752 56.2697L137.461 53.992C128.785 51.1712 121.029 51.1889 120.15 54.0219Z" fill="#FFBC0D"/>
<g style="mix-blend-mode:multiply">
<path fill-rule="evenodd" clip-rule="evenodd" d="M187.5 219.5C220.637 219.5 247.5 214.127 247.5 207.5C247.5 200.873 220.637 195.5 187.5 195.5C154.363 195.5 127.5 200.873 127.5 207.5C127.5 214.127 154.363 219.5 187.5 219.5Z" fill="#A0A09F" fill-opacity="0.15"/>
</g>
<path d="M234.227 49.337C234.145 49.337 234.065 49.3463 233.986 49.3615V35.4126C233.986 29.3854 229.096 24.5 223.064 24.5H151.577C145.545 24.5 140.655 29.3854 140.655 35.4126V45.957C140.011 46.0183 139.5 46.5577 139.5 47.2169V52.9823C139.5 53.6415 140.011 54.1814 140.655 54.2422V59.3701C140.011 59.4309 139.5 59.9708 139.5 60.63V70.5497C139.5 71.2089 140.011 71.7488 140.655 71.8096V198.587C140.655 204.614 145.545 209.5 151.577 209.5H223.064C229.097 209.5 233.986 204.614 233.986 198.587V63.9218C234.065 63.9369 234.145 63.9463 234.227 63.9463C234.927 63.9463 235.5 63.3742 235.5 62.6747V50.6086C235.5 49.9091 234.927 49.337 234.227 49.337Z" fill="#292929"/>
<path fill-rule="evenodd" clip-rule="evenodd" d="M236.986 47.349V35.4126C236.986 27.726 230.751 21.5 223.064 21.5H151.577C143.89 21.5 137.655 27.7261 137.655 35.4126V44.3026C136.942 45.0593 136.5 46.0789 136.5 47.2169V52.9823C136.5 54.1194 136.942 55.1395 137.655 55.8969V57.7154C136.942 58.4728 136.5 59.4929 136.5 60.63V70.5497C136.5 71.6868 136.942 72.7069 137.655 73.4643V198.587C137.655 206.273 143.89 212.5 151.577 212.5H223.064C230.751 212.5 236.986 206.273 236.986 198.587V65.9345C237.912 65.1509 238.5 63.9812 238.5 62.6747V50.6086C238.5 49.3019 237.911 48.1325 236.986 47.349ZM234.476 49.3615C234.395 49.3454 234.312 49.337 234.227 49.337C234.145 49.337 234.065 49.3463 233.986 49.3615V35.4126C233.986 29.3854 229.096 24.5 223.064 24.5H151.577C145.545 24.5 140.655 29.3854 140.655 35.4126V45.957C140.011 46.0183 139.5 46.5577 139.5 47.2169V52.9823C139.5 53.6415 140.011 54.1814 140.655 54.2422V59.3701C140.011 59.4309 139.5 59.9708 139.5 60.63V70.5497C139.5 71.2089 140.011 71.7488 140.655 71.8096V198.587C140.655 204.614 145.545 209.5 151.577 209.5H223.064C229.097 209.5 233.986 204.614 233.986 198.587V63.9218C234.065 63.937 234.145 63.9463 234.227 63.9463C234.312 63.9463 234.396 63.9379 234.476 63.9218C235.058 63.8054 235.5 63.2892 235.5 62.6747V50.6086C235.5 49.9941 235.058 49.4779 234.476 49.3615Z" fill="white"/>
<path d="M192.287 31.4201H182.359C181.659 31.4201 181.086 30.848 181.086 30.1485C181.086 29.4491 181.659 28.877 182.359 28.877H192.287C192.987 28.877 193.56 29.4491 193.56 30.1485C193.56 30.8475 192.987 31.4201 192.287 31.4201Z" fill="white"/>
<path d="M227.185 193.169C227.185 196.446 224.527 199.102 221.247 199.102H153.391C150.111 199.102 147.453 196.445 147.453 193.169V40.8075C147.453 37.531 150.111 34.875 153.391 34.875H221.248C224.527 34.875 227.185 37.531 227.185 40.8075V193.169H227.185Z" fill="white"/>
<mask id="mask0_1584_44980" style="mask-type:alpha" maskUnits="userSpaceOnUse" x="147" y="34" width="81" height="166">
<path d="M227.185 193.169C227.185 196.446 224.527 199.102 221.247 199.102H153.391C150.111 199.102 147.453 196.445 147.453 193.169V40.8075C147.453 37.531 150.111 34.875 153.391 34.875H221.248C224.527 34.875 227.185 37.531 227.185 40.8075V193.169H227.185Z" fill="white"/>
</mask>
<g mask="url(#mask0_1584_44980)">
<path d="M184.498 171.205L184.045 171.222C182.31 171.291 180.575 171.419 178.841 171.606L178.758 171.616C177.713 171.761 176.85 172.501 176.546 173.506L176.531 173.558L172.92 173.559C171.748 173.559 170.747 174.406 170.554 175.563L170.079 178.41L170.07 178.472C169.988 179.131 170.349 179.745 170.918 180.014L170.947 180.026L170.962 180.256C171.129 183.13 171.313 186.015 171.515 188.896L171.638 190.623C171.889 194.08 172.164 197.532 172.464 200.98C173.063 207.875 173.765 214.787 174.567 221.716C174.648 222.412 175.2 222.959 175.896 223.034C179.648 223.44 183.401 223.643 187.154 223.643L187.811 223.641C191.348 223.618 194.88 223.416 198.411 223.034C199.108 222.959 199.659 222.412 199.74 221.716C200.54 214.821 201.241 207.909 201.843 200.98L201.992 199.248C202.529 192.899 202.98 186.564 203.346 180.243L203.361 180.026L203.386 180.015C203.975 179.738 204.342 179.094 204.228 178.41L203.753 175.563L203.739 175.487C203.516 174.369 202.534 173.559 201.387 173.559L197.776 173.558L197.761 173.506C197.449 172.475 196.548 171.722 195.466 171.606L194.866 171.543C193.467 171.404 192.067 171.303 190.667 171.239L190.551 171.234L193.588 149.626C193.703 148.806 193.132 148.047 192.312 147.932L189.342 147.515C188.522 147.4 187.763 147.971 187.648 148.791L184.498 171.205Z" fill="white"/>
<path fill-rule="evenodd" clip-rule="evenodd" d="M172.461 180.156C177.359 180.556 182.258 180.756 187.156 180.756C192.055 180.756 196.953 180.556 201.852 180.156C201.453 187.037 200.954 193.935 200.352 200.85C199.751 207.765 199.051 214.662 198.253 221.543C194.554 221.943 190.855 222.143 187.156 222.143C183.458 222.143 179.759 221.943 176.06 221.543C175.259 214.629 174.559 207.731 173.96 200.85C173.362 193.969 172.862 187.071 172.461 180.156Z" fill="white"/>
<path fill-rule="evenodd" clip-rule="evenodd" d="M201.852 180.156C201.852 180.156 201.254 190.478 200.352 200.85C199.45 211.222 198.253 221.543 198.253 221.543C198.253 221.543 192.705 222.143 187.156 222.143C191.53 222.143 193.729 208.307 193.754 180.636C198.253 180.456 201.852 180.156 201.852 180.156Z" fill="#EAEAEA"/>
<path fill-rule="evenodd" clip-rule="evenodd" d="M178.797 198.879C177.393 193.934 175.368 190.475 173.059 189.461C173.058 189.454 173.058 189.454 173.276 192.424C175.298 195.642 176.755 204.683 176.755 215.333H180.841C180.841 201.988 183.127 191.168 185.948 191.168C188.769 191.168 191.057 202.889 191.057 217.346H195.142C195.142 201.776 191.026 189.154 185.948 189.154C183.06 189.154 180.484 192.948 178.797 198.879Z" fill="#FFBC0D"/>
<path d="M189.156 149L192.104 149.422L188.648 173.861L185.641 173.852L189.156 149Z" fill="#A0A09F" fill-opacity="0.15"/>
<path d="M190.625 149.338L191.512 149.464L188.06 173.989L187.156 173.987L190.625 149.338Z" fill="#EAEAEA"/>
<path fill-rule="evenodd" clip-rule="evenodd" d="M172.921 175.059H201.387C201.827 175.059 202.202 175.377 202.274 175.81L202.749 178.657C197.551 179.057 192.352 179.257 187.154 179.257C181.955 179.257 176.757 179.057 171.559 178.657L172.033 175.81C172.105 175.377 172.481 175.059 172.921 175.059Z" fill="#EAEAEA"/>
<path fill-rule="evenodd" clip-rule="evenodd" d="M179 173.096C181.718 172.804 184.435 172.658 187.153 172.658C189.87 172.658 192.587 172.804 195.305 173.096C195.811 173.15 196.227 173.517 196.344 174.012L196.45 174.458H177.855L177.961 174.012C178.078 173.517 178.495 173.15 179 173.096Z" fill="#EAEAEA"/>
<g style="mix-blend-mode:multiply">
<path fill-rule="evenodd" clip-rule="evenodd" d="M187.548 77.8079C200.829 77.8079 211.596 76.2323 211.596 74.2887C211.596 72.3451 200.829 70.7695 187.548 70.7695C174.267 70.7695 163.5 72.3451 163.5 74.2887C163.5 76.2323 174.267 77.8079 187.548 77.8079Z" fill="#F1F1F1"/>
</g>
<path fill-rule="evenodd" clip-rule="evenodd" d="M169.899 39.9758H168.193C168.193 39.9758 169.236 48.1589 170.852 56.2521C172.469 64.3453 174.694 72.5284 174.694 72.5284L177.058 74.288C177.058 74.288 181.491 72.5284 187.401 72.5284C193.311 72.5284 198.039 74.288 198.039 74.288L200.403 72.5284C200.403 72.5284 202.61 64.4351 204.244 56.2521C205.879 48.069 206.904 39.9758 206.904 39.9758H205.418L205.731 38.8026L205.731 38.8026C206.904 34.9902 207.49 32.3508 208.077 28.5384C206.565 28.1167 204.572 28.4855 204.44 29.0059C204.285 29.6142 204.171 30.0214 204.037 30.5003L204.037 30.5004L204.037 30.5016L204.037 30.5021C203.975 30.7235 203.909 30.9603 203.832 31.2393C203.212 30.5501 201.927 30.1969 200.678 30.0781C200.364 32.9408 200.052 34.1465 199.373 36.7676C199.309 37.0126 199.243 37.2699 199.173 37.5422C199.334 33.5832 199.568 31.3875 200.256 27.2907C198.844 27.0056 197.005 27.2384 196.438 28.2578C196.065 30.5966 195.866 31.8934 195.726 33.9279L195.703 33.3119C195.577 29.9889 195.498 27.8846 195.198 24.2697C193.408 24.4124 191.746 25.2382 191.439 26.3415L191.459 26.61C191.495 27.1131 191.544 27.7877 191.57 28.207C190.338 28.1796 189.006 28.7097 188.523 29.0959C188.307 30.1752 188.174 31.0817 188.046 31.9555C187.848 33.2988 187.663 34.5648 187.204 36.262C187.204 36.262 186.898 34.0994 187.947 25.0839C188.01 24.5429 185.999 23.1743 184.571 22.9844C184.25 25.6088 183.969 28.2295 183.722 30.8489C183.581 27.758 183.342 24.6507 182.998 21.5132C181.912 21.322 179.585 23.2559 179.638 23.7903C180.246 29.9766 180.257 30.9567 180.291 35.0976C179.737 31.3394 179.507 29.9531 179 27.689C177.574 27.7955 175.539 29.3144 175.644 29.8411C176.148 32.3739 176.247 33.482 176.411 36.7967C175.969 34.3129 175.605 32.8787 175.175 31.1827L175.175 31.1826L175.175 31.1825C174.911 30.1398 174.621 28.9983 174.273 27.4531C174.218 27.2061 171.711 26.4522 170.319 26.8223C170.432 27.2871 170.546 27.7521 170.661 28.217L170.661 28.2171C171.331 30.9291 172.001 33.6395 172.289 36.3114C171.497 34.2544 170.76 32.1538 170.091 29.9912C168.706 30.3853 166.943 33.047 167.022 33.2876C167.439 34.558 167.934 35.6292 168.443 36.7279C168.751 37.3927 169.063 38.0675 169.366 38.8027H169.366L169.899 39.9758Z" fill="white"/>
<path fill-rule="evenodd" clip-rule="evenodd" d="M168.191 39.9766H172.884C172.884 39.9766 176.761 51.1207 187.399 51.1207C198.037 51.1207 202.21 39.9766 202.21 39.9766H206.903C206.903 39.9766 205.877 48.0698 204.243 56.2529C202.609 64.4359 200.401 72.5291 200.401 72.5291L198.037 74.2887C198.037 74.2887 193.309 72.5291 187.399 72.5291C181.489 72.5291 177.057 74.2887 177.057 74.2887L174.693 72.5291C174.693 72.5291 172.467 64.3461 170.851 56.2529C169.235 48.1596 168.191 39.9766 168.191 39.9766Z" fill="#DB0007"/>
<path fill-rule="evenodd" clip-rule="evenodd" d="M190.379 54.6387C189.058 54.6387 187.879 56.3355 187.107 58.9888C186.337 56.3355 185.157 54.6387 183.836 54.6387C181.513 54.6387 179.629 60.2848 179.629 67.2491H181.499C181.499 60.7823 182.545 55.5396 183.836 55.5396C185.127 55.5396 186.173 60.3793 186.173 66.3487H188.042C188.042 60.3793 189.089 55.5396 190.379 55.5396C191.67 55.5396 192.716 60.7823 192.716 67.2491H194.585C194.585 60.2848 192.703 54.6387 190.379 54.6387Z" fill="#FFBC0D"/>
<path fill-rule="evenodd" clip-rule="evenodd" d="M174.058 38.8027C174.058 38.8027 177.87 49.9468 187.548 49.9468C197.226 49.9468 201.038 38.8027 201.038 38.8027C201.038 38.8027 203.678 38.8027 205.731 38.8027C206.904 34.9903 207.49 32.3509 208.077 28.5384C206.565 28.1167 204.572 28.4855 204.44 29.0059C204.214 29.8961 204.074 30.3557 203.832 31.2393C203.212 30.5501 201.927 30.1969 200.678 30.0781C200.334 33.2084 199.993 34.3575 199.173 37.5422C199.334 33.5832 199.568 31.3875 200.256 27.2907C198.844 27.0056 197.005 27.2384 196.438 28.2578C196.065 30.5966 195.866 31.8934 195.726 33.9279C195.586 30.2376 195.516 28.103 195.198 24.2697C193.408 24.4124 191.746 25.2382 191.439 26.3415C191.476 26.844 191.539 27.707 191.57 28.207C190.338 28.1796 189.006 28.7097 188.523 29.0959C187.975 31.8342 187.961 33.4606 187.204 36.262C187.204 36.262 186.898 34.0994 187.947 25.0839C188.01 24.5429 185.999 23.1743 184.571 22.9844C184.25 25.6088 183.969 28.2295 183.722 30.8489C183.581 27.758 183.342 24.6507 182.998 21.5132C181.912 21.322 179.585 23.2559 179.638 23.7903C180.246 29.9766 180.257 30.9567 180.291 35.0976C179.737 31.3394 179.507 29.9531 179 27.689C177.574 27.7955 175.539 29.3144 175.644 29.8411C176.148 32.3739 176.247 33.482 176.411 36.7967C175.698 32.786 175.188 31.5119 174.273 27.4531C174.218 27.2061 171.711 26.4522 170.319 26.8223C171.09 29.9986 171.952 33.1814 172.289 36.3114C171.497 34.2544 170.76 32.1538 170.091 29.9912C168.706 30.3853 166.943 33.047 167.022 33.2876C167.691 35.3267 168.564 36.8524 169.366 38.8027H174.058Z" fill="#FFBC0D"/>
<g style="mix-blend-mode:multiply">
<path d="M219.445 133.865C219.445 135.865 205.394 137.486 188.062 137.486C170.73 137.486 156.68 135.865 156.68 133.865C156.68 131.865 170.73 130.244 188.062 130.244C205.394 130.244 219.445 131.865 219.445 133.865Z" fill="#A0A09F" fill-opacity="0.15"/>
</g>
<path fill-rule="evenodd" clip-rule="evenodd" d="M160 124.971C160 129.102 163.088 132.573 167.203 132.937C172.905 133.441 181.18 134.023 188.968 134.023C196.278 134.023 203.33 133.51 208.328 133.03C212.463 132.633 215.523 129.125 215.523 124.971H160Z" fill="#EC9D47"/>
<path fill-rule="evenodd" clip-rule="evenodd" d="M213.503 115.633C215.117 115.633 216.425 116.978 216.425 118.637V120.003C216.425 121.133 215.819 121.832 214.923 122.163C214.775 122.122 214.604 122.105 214.422 122.105C214.416 122.105 200.854 122.225 199.019 122.448C197.958 122.508 197.243 122.568 196.873 122.625C186.7 124.21 182.405 121.815 177.531 121.319C174.341 120.994 171.341 121.198 169.004 121.774C168.978 121.78 168.016 121.92 167.481 121.952C166.524 122.009 165.651 122.12 164.523 122.086C163.876 122.067 163.022 122.365 162.532 122.207C161.566 121.896 160.902 121.185 160.902 120.003V118.637C160.902 116.978 162.211 115.633 163.825 115.633C175.081 115.025 183.553 114.717 189.239 114.711L189.418 114.711C194.77 114.711 202.799 115.018 213.503 115.633Z" fill="#73371F"/>
<path fill-rule="evenodd" clip-rule="evenodd" d="M197.108 124.302C197.481 124.245 198.201 124.187 199.269 124.127C201.117 123.907 214.771 123.788 214.777 123.788C215.354 123.788 215.822 123.952 215.822 124.528C215.822 125.168 215.359 125.107 214.728 125.213C213.886 125.355 212.984 125.43 212.024 125.438C210.743 125.45 206.899 125.365 200.491 125.183C200.146 125.173 199.479 125.204 198.492 125.276C198.02 125.423 197.475 125.555 196.853 125.661C190.771 126.69 188.852 129.565 186.543 133.319C184.315 136.94 182.766 125.461 175.37 125.146C170.439 124.936 166.41 125.069 163.282 125.544C163.207 125.547 163.132 125.542 163.058 125.53C162.44 125.427 162.022 125.146 162.125 124.528C162.258 123.729 162.926 123.733 163.736 123.681L164.432 123.637C165.526 123.693 166.554 123.693 167.517 123.637C168.056 123.606 169.025 123.468 169.05 123.462C171.404 122.893 174.424 122.691 177.636 123.012C182.543 123.502 186.866 125.867 197.108 124.302Z" fill="#FFBC0D"/>
<path d="M179.783 114.676C179.723 115.483 179.451 116.267 178.952 116.951C177.41 119.063 175.752 121.333 171.555 118.274C169.7 116.922 168.988 115.724 168.905 114.626C172.903 114.603 176.46 114.619 179.577 114.673L179.783 114.676Z" fill="#E6E454"/>
<path d="M180.389 114.688C180.326 115.609 180.017 116.508 179.441 117.292C179.29 117.498 179.222 117.59 179.136 117.706C178.088 119.108 177.307 119.837 176.205 120.175C174.791 120.607 173.167 120.161 171.201 118.736C169.318 117.37 168.392 116.028 168.302 114.625C168.715 114.623 169.123 114.621 169.527 114.619C169.62 115.593 170.342 116.611 171.921 117.756C173.604 118.976 174.852 119.319 175.845 119.015C176.625 118.777 177.253 118.19 178.155 116.982C178.239 116.871 178.305 116.78 178.454 116.577C178.874 116.005 179.107 115.346 179.165 114.666C179.556 114.672 179.94 114.679 180.318 114.687L180.389 114.688Z" fill="#66881E"/>
<path d="M190.723 115.525C192.994 115.527 195.514 115.578 198.283 115.677C197.031 118.307 195 117.763 193.077 117.248C192.174 117.006 191.381 116.407 190.758 115.574L190.723 115.525Z" fill="#E6E454"/>
<path d="M190.105 115.566C190.648 115.562 191.205 115.56 191.777 115.561C192.235 115.989 192.768 116.295 193.355 116.438C193.601 116.498 193.71 116.524 193.846 116.556C195.32 116.9 196.171 116.915 196.892 116.498C197.211 116.315 197.498 116.037 197.752 115.652C198.219 115.664 198.693 115.678 199.174 115.693C198.726 116.706 198.146 117.402 197.43 117.815C196.411 118.403 195.353 118.385 193.642 117.986C193.529 117.959 193.435 117.937 193.275 117.898L193.14 117.865C191.925 117.569 190.892 116.754 190.147 115.63L190.105 115.566Z" fill="#66881E"/>
<path fill-rule="evenodd" clip-rule="evenodd" d="M200.293 115.203C203.273 115.373 206.593 115.61 210.251 115.914C209.728 116.2 209.229 116.547 208.758 116.964C206.662 118.82 205.285 121.3 204.636 120.47C203.988 119.639 203.988 117.742 203.32 116.845C202.798 116.145 201.962 115.619 200.405 115.231L200.293 115.203Z" fill="#FFBC0D"/>
<path d="M200.072 113.203C204.042 113.452 208.567 113.809 213.645 114.273L213.721 114.28H213.798C214.643 114.28 215.356 113.95 215.918 113.423C216.056 113.559 216.141 113.748 216.141 113.958C216.141 114.374 215.803 114.712 215.386 114.712H162.263C161.898 114.712 161.594 114.453 161.523 114.11C161.847 114.22 162.195 114.28 162.565 114.28H162.636L162.707 114.274C168.156 113.809 172.93 113.452 177.027 113.203L200.072 113.203Z" fill="#FFD90D"/>
<path d="M161.508 115.426C161.508 115.026 161.82 114.7 162.22 114.695C165.766 114.654 181.523 114.473 185.799 114.473C190.113 114.473 210.928 114.657 215.313 114.696C215.771 114.7 216.125 115.072 216.125 115.53C216.125 115.902 215.879 116.229 215.519 116.324C214.706 116.539 213.291 116.887 212.639 116.887C211.899 116.887 211.155 116.766 210.4 116.614C209.655 116.464 208.899 116.283 208.129 116.159C207.401 116.041 168.004 116.142 162.215 116.157C161.81 116.158 161.508 115.83 161.508 115.426Z" fill="#DB0007"/>
<path d="M216.765 113.883C216.866 113.935 216.93 114.043 216.93 114.161V115.21C216.93 115.38 216.798 115.519 216.636 115.519C216.598 115.519 216.56 115.511 216.525 115.495C215.648 115.118 214.185 114.501 213.309 114.263L213.62 114.293L213.694 114.3H213.769C214.599 114.3 215.299 113.956 215.847 113.406C215.956 113.461 216.654 113.826 216.765 113.883Z" fill="#FFEBB8"/>
<path d="M180.683 114.413C180.787 114.48 180.839 114.603 180.816 114.724L180.618 115.743C180.586 115.907 180.427 116.014 180.264 115.982C180.231 115.976 180.2 115.964 180.171 115.947C178.249 114.845 176.279 113.989 174.262 113.38C175.786 113.278 176.899 113.203 178.709 113.203C179.372 113.598 179.951 113.94 180.683 114.413Z" fill="#FFEBB8"/>
<path d="M188.537 112.9C190.497 112.9 193.054 113.073 195.605 113.202C192.151 114.682 189.241 115.314 187.48 115.314C185.762 115.314 183.241 114.611 179.914 113.205C183.352 113.002 186.227 112.9 188.537 112.9Z" fill="#FFEBB8"/>
<path fill-rule="evenodd" clip-rule="evenodd" d="M215.672 110.034C215.672 111.168 214.992 112.901 213.782 112.901C213.782 112.901 197.289 111.392 188.514 111.392C180.242 111.392 162.563 112.901 162.563 112.901C161.353 112.901 160.602 111.47 160.602 110.336C160.602 100.137 173.483 93.8906 188.816 93.8906C204.148 93.8906 215.672 99.8352 215.672 110.034Z" fill="#EC9D47"/>
<path fill-rule="evenodd" clip-rule="evenodd" d="M186.385 104.344C185.961 104.115 185.823 103.597 186.075 103.187C186.328 102.777 187.757 101.621 187.987 101.746C188.217 101.87 187.863 103.606 187.61 104.016C187.358 104.426 186.809 104.573 186.385 104.344Z" fill="white"/>
<path fill-rule="evenodd" clip-rule="evenodd" d="M186.132 96.5767C186.415 96.2477 186.929 96.2122 187.278 96.4973C187.627 96.7825 188.499 98.2051 188.345 98.3838C188.191 98.5625 186.6 97.9739 186.25 97.6888C185.901 97.4036 185.848 96.9057 186.132 96.5767Z" fill="white"/>
<path fill-rule="evenodd" clip-rule="evenodd" d="M177.017 104.481C176.733 104.81 176.22 104.845 175.871 104.56C175.521 104.275 174.649 102.852 174.803 102.674C174.957 102.495 176.549 103.084 176.898 103.369C177.247 103.654 177.301 104.152 177.017 104.481Z" fill="white"/>
<path fill-rule="evenodd" clip-rule="evenodd" d="M173.715 106.878C174.207 106.797 174.678 107.116 174.767 107.59C174.857 108.064 174.55 109.838 174.283 109.882C174.016 109.926 173.077 108.357 172.987 107.883C172.898 107.409 173.224 106.959 173.715 106.878Z" fill="white"/>
<path fill-rule="evenodd" clip-rule="evenodd" d="M162.897 109.854C163.181 109.525 163.694 109.489 164.043 109.775C164.393 110.06 165.265 111.482 165.111 111.661C164.957 111.84 163.365 111.251 163.016 110.966C162.667 110.681 162.614 110.183 162.897 109.854Z" fill="white"/>
<path fill-rule="evenodd" clip-rule="evenodd" d="M201.612 105.175C201.283 104.891 201.247 104.378 201.532 104.029C201.818 103.679 203.24 102.807 203.419 102.961C203.598 103.116 203.009 104.707 202.724 105.056C202.439 105.406 201.941 105.459 201.612 105.175Z" fill="white"/>
<path fill-rule="evenodd" clip-rule="evenodd" d="M199.063 97.8251C199.554 97.7441 200.025 98.0628 200.115 98.5368C200.205 99.0109 199.897 100.785 199.63 100.829C199.363 100.873 198.425 99.3039 198.335 98.8299C198.246 98.3559 198.571 97.906 199.063 97.8251Z" fill="white"/>
<path fill-rule="evenodd" clip-rule="evenodd" d="M184.334 107C184.563 107.424 184.417 107.973 184.007 108.226C183.597 108.478 181.86 108.832 181.736 108.602C181.611 108.372 182.767 106.943 183.177 106.691C183.587 106.438 184.105 106.577 184.334 107Z" fill="white"/>
<path fill-rule="evenodd" clip-rule="evenodd" d="M189.753 107.44C190.036 107.111 190.55 107.075 190.899 107.361C191.248 107.646 192.12 109.068 191.966 109.247C191.812 109.426 190.221 108.837 189.871 108.552C189.522 108.267 189.469 107.769 189.753 107.44Z" fill="white"/>
<path fill-rule="evenodd" clip-rule="evenodd" d="M194.702 102.037C195.202 102.037 195.607 102.423 195.607 102.899C195.607 103.375 194.974 105.055 194.702 105.055C194.431 105.055 193.797 103.375 193.797 102.899C193.797 102.423 194.202 102.037 194.702 102.037Z" fill="white"/>
<path fill-rule="evenodd" clip-rule="evenodd" d="M211.629 105.54C211.958 105.824 211.994 106.337 211.709 106.686C211.424 107.035 210.001 107.908 209.822 107.753C209.644 107.599 210.232 106.008 210.517 105.658C210.802 105.309 211.3 105.256 211.629 105.54Z" fill="white"/>
<path fill-rule="evenodd" clip-rule="evenodd" d="M201.508 110.076C201.084 110.305 200.536 110.159 200.283 109.749C200.03 109.339 199.676 107.603 199.906 107.478C200.137 107.354 201.565 108.509 201.818 108.919C202.071 109.329 201.932 109.847 201.508 110.076Z" fill="white"/>
<path fill-rule="evenodd" clip-rule="evenodd" d="M179.312 97.5117C179.811 97.5117 180.217 97.8977 180.217 98.3739C180.217 98.85 179.583 100.529 179.312 100.529C179.04 100.529 178.406 98.85 178.406 98.3739C178.406 97.8977 178.812 97.5117 179.312 97.5117Z" fill="white"/>
<path fill-rule="evenodd" clip-rule="evenodd" d="M166.518 104.12C166.802 103.791 167.315 103.755 167.665 104.04C168.014 104.325 168.886 105.748 168.732 105.927C168.578 106.105 166.986 105.517 166.637 105.232C166.288 104.947 166.235 104.449 166.518 104.12Z" fill="white"/>
</g>
<path d="M260.017 18.3889C259.417 17.5287 258.938 16.6183 258.26 15.7294C258.098 15.5143 257.922 15.3064 257.745 15.1129C254.895 11.4857 250.31 9.49285 244.723 9.50002C238.917 9.50002 232.709 11.6577 227.235 15.5717C215.912 23.6577 211.292 36.8762 216.858 45.1271C216.865 45.1414 216.872 45.1701 216.879 45.1844C217.655 46.3887 217.887 46.7185 218.713 47.9156C224.356 56.0661 238.176 56.0661 249.583 47.9084C260.991 39.7508 265.661 26.5394 260.017 18.3889Z" fill="url(#paint1_linear_1584_44980)"/>
<path d="M228.161 16.8957C233.36 13.1752 239.243 11.125 244.725 11.125C248.224 11.125 251.271 11.9637 253.663 13.5337C254.946 14.3795 256.04 15.4333 256.908 16.6878C259.391 20.2793 259.765 25.0823 257.952 30.2222C256.103 35.4624 252.216 40.3944 247.017 44.1149C236.365 51.7351 223.469 51.8283 218.27 44.3228C213.071 36.8173 217.508 24.5159 228.161 16.8957Z" fill="white"/>
<path d="M245.282 19.9043C246.376 21.424 238.785 28.0546 228.528 34.843L230.009 36.972C240.309 30.2123 249.698 26.0619 250.771 27.5672C251.836 29.0725 243.377 36.0401 232.111 43.2944L233.551 45.4019C245.755 37.6315 254.312 29.2948 252.386 26.5851C251.279 25.0368 247.279 25.5242 241.974 27.5744C245.988 23.7178 247.991 20.4563 246.869 18.9007C244.88 16.1553 233.515 20.3129 221.77 28.3844L223.279 30.5349C234.228 23.0727 244.189 18.3846 245.282 19.9043Z" fill="#FFBC0D"/>
<path d="M307.418 74.3435C305.625 82.0808 298.717 86.0421 292.012 83.1755C285.312 80.3078 281.313 71.6812 283.103 63.9415C284.893 56.2018 291.803 52.2429 298.505 55.1071C305.209 57.9772 309.208 66.6038 307.418 74.3435Z" fill="url(#paint2_linear_1584_44980)"/>
<path d="M284.148 64.4672C282.534 71.4383 286.135 79.2107 292.176 81.7918C298.217 84.3728 304.44 80.8068 306.051 73.8334C307.662 66.8599 304.065 59.0899 298.024 56.5088C291.983 53.9278 285.763 57.4962 284.148 64.4672Z" fill="white"/>
<path d="M288.948 63.1295C288.629 64.5179 289.942 66.437 292.253 68.3151C289.565 68.0524 287.683 68.6056 287.36 69.9916C286.797 72.4253 291.659 76.6805 298.22 79.4859L298.674 77.524C292.583 74.9173 287.895 71.7066 288.21 70.3534C288.522 68.9978 293.337 69.8541 298.96 72.2585L299.414 70.2966C293.789 67.8956 289.483 64.8445 289.794 63.4924C290.105 62.1368 295.301 63.1561 301.392 65.7628L301.844 63.8044C295.286 60.992 289.508 60.6934 288.948 63.1295Z" fill="#FFBC0D"/>
<path d="M68.3367 84.0556C65.7691 78.736 62.277 74.2602 58.4963 71.4538C54.8922 68.7731 51.4001 67.8995 48.5381 68.9048C48.2554 68.9646 47.9727 69.0364 47.7077 69.1501C47.0423 69.4313 44.6514 70.5264 44.0389 70.8315C38.2619 73.7097 37.9615 85.1087 43.3558 96.2923C48.756 107.476 57.8132 114.214 63.5843 111.335C64.3676 110.946 66.1931 110.216 67.1118 109.75C67.1648 109.726 67.2237 109.714 67.2767 109.684C70.2683 108.194 71.9878 104.64 72.1174 99.6791C72.247 94.922 70.9043 89.3691 68.3367 84.0556Z" fill="url(#paint3_linear_1584_44980)"/>
<path d="M66.7482 108.592C64.3161 109.806 61.0595 109.046 57.5791 106.461C53.928 103.751 50.536 99.3884 48.0273 94.1884C45.5186 88.9884 44.1995 83.5969 44.329 79.0012C44.4468 74.621 45.8543 71.5392 48.2864 70.3305C50.7185 69.1158 53.9751 69.8757 57.4555 72.4608C61.1066 75.1715 64.4986 79.5338 67.0073 84.7338C69.4277 89.7543 70.735 94.9484 70.7174 99.4363C70.7174 99.5979 70.7115 99.7594 70.7115 99.921C70.5819 104.301 69.1804 107.377 66.7482 108.592Z" fill="white"/>
<path d="M55.1626 76.9126C54.0967 77.4452 54.4736 80.6703 55.9282 85.2897C53.2252 81.2926 50.9461 79.0129 49.8802 79.5454C48.0017 80.4788 50.9049 90.3996 56.364 101.703L57.8715 100.949C52.8071 90.4535 49.5446 81.526 50.5869 81.0054C51.6293 80.4848 56.2639 87.9224 60.9397 97.6099L62.4472 96.8559C57.7714 87.1685 54.827 78.8932 55.8693 78.3726C56.9116 77.8521 61.8642 85.9419 66.9287 96.4371L68.4363 95.6831C62.9831 84.3801 57.0412 75.9792 55.1626 76.9126Z" fill="#FFBC0D"/>
<path d="M125.189 164.059C125.514 159.72 124.939 155.577 123.564 152.392C122.255 149.353 120.351 147.508 118.156 147.093C117.953 147.027 117.747 146.968 117.536 146.943C117.008 146.877 115.08 146.693 114.577 146.661C109.832 146.365 105.436 153.524 104.75 162.646C104.067 171.77 107.356 179.408 112.097 179.702C112.739 179.743 114.172 179.951 114.93 179.993C114.973 179.997 115.015 180.011 115.06 180.011C117.516 180.165 119.924 178.533 121.836 175.417C123.673 172.432 124.866 168.395 125.189 164.059Z" fill="url(#paint4_linear_1584_44980)"/>
<path d="M115.126 179.12C113.127 178.997 111.331 177.311 110.066 174.378C108.738 171.303 108.185 167.269 108.504 163.027C108.822 158.785 109.97 154.86 111.748 151.977C113.438 149.227 115.472 147.781 117.468 147.908C119.467 148.03 121.263 149.716 122.528 152.649C123.856 155.725 124.409 159.759 124.09 164C123.782 168.095 122.699 171.89 121.033 174.746C120.973 174.849 120.91 174.95 120.85 175.053C119.152 177.798 117.124 179.243 115.126 179.12Z" fill="white"/>
<path d="M119.429 154.643C118.553 154.589 117.603 156.785 116.827 160.267C116.578 156.721 115.966 154.426 115.09 154.372C113.548 154.275 111.739 161.672 111.05 170.894L112.289 170.97C112.932 162.408 114.145 155.512 115.002 155.564C115.858 155.617 116.069 162.07 115.477 169.972L116.716 170.048C117.309 162.145 118.484 155.782 119.341 155.834C120.197 155.887 120.37 162.873 119.728 171.434L120.967 171.51C121.66 162.29 120.971 154.74 119.429 154.643Z" fill="#FFBC0D"/>
<path d="M243.014 202.528C229.917 205.894 216.571 197.815 213.251 184.508C209.939 171.207 217.89 157.638 230.986 154.266C244.083 150.893 257.429 158.979 260.749 172.28C264.061 185.587 256.11 199.156 243.014 202.528Z" fill="url(#paint5_linear_1584_44980)"/>
<path d="M231.577 156.667C219.779 159.701 212.613 171.922 215.606 183.911C218.599 195.899 230.619 203.181 242.417 200.14C254.215 197.099 261.381 184.884 258.388 172.896C255.395 160.908 243.375 153.633 231.577 156.667Z" fill="white"/>
<path d="M239.638 164.217C237.291 164.824 235.993 168.535 235.861 173.848C233.257 169.234 230.375 166.602 228.028 167.201C223.91 168.26 223.195 179.684 226.444 192.709L229.764 191.855C226.75 179.761 226.16 169.473 228.451 168.888C230.743 168.295 234.854 176.875 237.638 188.038L240.958 187.184C238.166 176.022 237.77 166.489 240.055 165.896C242.346 165.303 246.645 174.639 249.658 186.733L252.971 185.879C249.735 172.853 243.756 163.151 239.638 164.217Z" fill="#FFBC0D"/>
<defs>
<linearGradient id="paint0_linear_1584_44980" x1="136.283" y1="46.2284" x2="118.081" y2="75.0398" gradientUnits="userSpaceOnUse">
<stop offset="0.000616698" stop-color="#910063"/>
<stop offset="0.0362" stop-color="#990059"/>
<stop offset="0.1727" stop-color="#B60035"/>
<stop offset="0.3012" stop-color="#CA001C"/>
<stop offset="0.4172" stop-color="#D7000C"/>
<stop offset="0.5101" stop-color="#DB0007"/>
<stop offset="1" stop-color="#E8720A"/>
</linearGradient>
<linearGradient id="paint1_linear_1584_44980" x1="214.5" y1="31.7637" x2="262.409" y2="31.7637" gradientUnits="userSpaceOnUse">
<stop offset="0.000616698" stop-color="#910063"/>
<stop offset="0.0362" stop-color="#990059"/>
<stop offset="0.1727" stop-color="#B60035"/>
<stop offset="0.3012" stop-color="#CA001C"/>
<stop offset="0.4172" stop-color="#D7000C"/>
<stop offset="0.5101" stop-color="#DB0007"/>
<stop offset="1" stop-color="#E8720A"/>
</linearGradient>
<linearGradient id="paint2_linear_1584_44980" x1="301.393" y1="56.8143" x2="284.882" y2="78.1923" gradientUnits="userSpaceOnUse">
<stop offset="0.000616698" stop-color="#910063"/>
<stop offset="0.0362" stop-color="#990059"/>
<stop offset="0.1727" stop-color="#B60035"/>
<stop offset="0.3012" stop-color="#CA001C"/>
<stop offset="0.4172" stop-color="#D7000C"/>
<stop offset="0.5101" stop-color="#DB0007"/>
<stop offset="1" stop-color="#E8720A"/>
</linearGradient>
<linearGradient id="paint3_linear_1584_44980" x1="72.126" y1="90.25" x2="39.5" y2="90.25" gradientUnits="userSpaceOnUse">
<stop offset="0.000616698" stop-color="#910063"/>
<stop offset="0.0362" stop-color="#990059"/>
<stop offset="0.1727" stop-color="#B60035"/>
<stop offset="0.3012" stop-color="#CA001C"/>
<stop offset="0.4172" stop-color="#D7000C"/>
<stop offset="0.5101" stop-color="#DB0007"/>
<stop offset="1" stop-color="#E8720A"/>
</linearGradient>
<linearGradient id="paint4_linear_1584_44980" x1="125.32" y1="169.408" x2="104.517" y2="157.375" gradientUnits="userSpaceOnUse">
<stop offset="0.000616698" stop-color="#910063"/>
<stop offset="0.0362" stop-color="#990059"/>
<stop offset="0.1727" stop-color="#B60035"/>
<stop offset="0.3012" stop-color="#CA001C"/>
<stop offset="0.4172" stop-color="#D7000C"/>
<stop offset="0.5101" stop-color="#DB0007"/>
<stop offset="1" stop-color="#E8720A"/>
</linearGradient>
<linearGradient id="paint5_linear_1584_44980" x1="261.5" y1="178.396" x2="212.5" y2="178.396" gradientUnits="userSpaceOnUse">
<stop offset="0.000616698" stop-color="#910063"/>
<stop offset="0.0362" stop-color="#990059"/>
<stop offset="0.1727" stop-color="#B60035"/>
<stop offset="0.3012" stop-color="#CA001C"/>
<stop offset="0.4172" stop-color="#D7000C"/>
<stop offset="0.5101" stop-color="#DB0007"/>
<stop offset="1" stop-color="#E8720A"/>
</linearGradient>
</defs>
</svg>
