<svg width="27" height="18" viewBox="0 0 27 18" fill="none" xmlns="http://www.w3.org/2000/svg">
<g clip-path="url(#clip0_109_43758)">
<path d="M0 0H27V18H0V0Z" fill="white"/>
<path d="M0 0H27V6H0V0ZM0 12H27V18H0V12ZM10.7105 6.20526L11.0632 7.07895L11.9895 7.13158L11.2526 7.70526L11.5 8.63684L10.7105 8.11579L9.92105 8.63684L10.1684 7.70526L9.43158 7.13158L10.3579 7.07895L10.7105 6.20526ZM16.2368 6.20526L16.5895 7.07895L17.5158 7.13158L16.7789 7.70526L17.0263 8.63684L16.2368 8.11579L15.4474 8.63684L15.6947 7.70526L14.9579 7.13158L15.8842 7.07895L16.2368 6.20526ZM13.4737 7.76842L13.8263 8.64211L14.7526 8.69474L14.0158 9.26842L14.2632 10.2L13.4737 9.67895L12.6842 10.2L12.9316 9.26842L12.1947 8.69474L13.1211 8.64211L13.4737 7.76842ZM10.7105 9.33158L11.0632 10.2053L11.9895 10.2579L11.2526 10.8316L11.5 11.7579L10.7105 11.2368L9.92105 11.7579L10.1684 10.8316L9.43158 10.2579L10.3579 10.2053L10.7105 9.33158ZM16.2368 9.33158L16.5895 10.2053L17.5158 10.2579L16.7789 10.8316L17.0263 11.7579L16.2368 11.2368L15.4474 11.7579L15.6947 10.8316L14.9579 10.2579L15.8842 10.2053L16.2368 9.33158Z" fill="#338AF3"/>
</g>
<rect x="0.5" y="0.5" width="26" height="17" rx="0.5" stroke="black" stroke-opacity="0.2"/>
<defs>
<clipPath id="clip0_109_43758">
<rect width="27" height="18" rx="1" fill="white"/>
</clipPath>
</defs>
</svg>
