<svg width="375" height="225" viewBox="0 0 375 225" fill="none" xmlns="http://www.w3.org/2000/svg">
<g clip-path="url(#clip0_1584_44983)">
<path fill-rule="evenodd" clip-rule="evenodd" d="M188.367 165.79C226.749 165.79 257.863 134.261 257.863 95.3669C257.863 56.4731 226.749 24.9434 188.367 24.9434C149.986 24.9434 118.872 56.4731 118.872 95.3669C118.872 134.261 149.986 165.79 188.367 165.79ZM188.367 171.234C229.716 171.234 263.235 137.267 263.235 95.3669C263.235 53.4668 229.716 19.5 188.367 19.5C147.019 19.5 113.5 53.4668 113.5 95.3669C113.5 137.267 147.019 171.234 188.367 171.234Z" fill="url(#paint0_linear_1584_44983)"/>
<path fill-rule="evenodd" clip-rule="evenodd" d="M188.367 165.79C226.749 165.79 257.863 134.261 257.863 95.3669C257.863 56.4731 226.749 24.9434 188.367 24.9434C149.986 24.9434 118.872 56.4731 118.872 95.3669C118.872 134.261 149.986 165.79 188.367 165.79ZM188.367 171.234C229.716 171.234 263.235 137.267 263.235 95.3669C263.235 53.4668 229.716 19.5 188.367 19.5C147.019 19.5 113.5 53.4668 113.5 95.3669C113.5 137.267 147.019 171.234 188.367 171.234Z" fill="url(#paint1_linear_1584_44983)"/>
<g style="mix-blend-mode:multiply">
<path fill-rule="evenodd" clip-rule="evenodd" d="M188.002 201.499C221.468 201.499 248.597 197.529 248.597 192.631C248.597 187.734 221.468 183.764 188.002 183.764C154.536 183.764 127.406 187.734 127.406 192.631C127.406 197.529 154.536 201.499 188.002 201.499Z" fill="#F1F1F1"/>
</g>
<path d="M168.067 65.3887C167.935 64.0421 173.799 59.1687 176.536 59.6504C177.401 67.556 178.005 75.3863 178.359 83.1748C178.981 76.5745 179.69 69.9704 180.498 63.3574C184.097 63.836 189.165 67.2852 189.007 68.6484C186.371 91.2926 187.129 96.7796 187.134 96.8145C189.041 89.7557 189.076 85.6574 190.458 78.7578C191.675 77.7847 195.031 76.4484 198.135 76.5176C198.058 75.2576 197.897 73.0834 197.806 71.8174C198.58 69.0371 202.768 66.9561 207.276 66.5967C208.078 76.2555 208.255 81.6348 208.607 90.9336C208.959 85.8069 209.463 82.539 210.402 76.6455C211.831 74.077 216.464 73.4908 220.021 74.209C218.288 84.5319 217.699 90.0646 217.292 100.04C219.36 92.0154 220.219 89.12 221.084 81.2324C224.233 81.5319 227.47 82.4216 229.033 84.1582C229.644 81.9318 229.995 80.7734 230.564 78.5303C230.898 77.2192 235.919 76.2902 239.729 77.3525C238.343 86.3586 236.958 92.767 234.354 101.448L233.817 103.217L233.029 106.173H236.773C236.762 106.26 234.18 126.61 230.071 147.186C225.955 167.795 220.397 188.177 220.392 188.198L214.435 192.632C214.381 192.612 202.488 188.198 187.629 188.198C172.773 188.198 161.621 192.611 161.567 192.632L155.61 188.198C155.605 188.18 150.002 167.57 145.931 147.186C141.867 126.836 139.24 106.261 139.229 106.173H143.528L142.185 103.217L141.804 102.308C139.891 97.817 137.858 94.1363 136.279 89.3193C136.083 88.7106 140.522 82.0067 144.013 81.0137C145.698 86.4631 147.555 91.7563 149.551 96.9395C148.7 89.0525 146.531 81.0318 144.586 73.0283C148.094 72.0958 154.411 73.9958 154.551 74.6182C156.855 84.8454 158.14 88.056 159.938 98.1621C159.524 89.81 159.275 87.0175 158.004 80.6357C157.739 79.3085 162.868 75.4814 166.461 75.2129C167.737 80.9178 168.318 84.4112 169.715 93.8809C169.63 83.4466 169.601 80.9768 168.067 65.3887Z" fill="white"/>
<path fill-rule="evenodd" clip-rule="evenodd" d="M139.23 106.172H151.054C151.054 106.172 160.824 134.253 187.63 134.253C214.436 134.253 224.951 106.172 224.951 106.172H236.775C236.775 106.172 234.191 126.565 230.073 147.185C225.955 167.804 220.393 188.198 220.393 188.198L214.436 192.631C214.436 192.631 202.522 188.198 187.63 188.198C172.738 188.198 161.569 192.631 161.569 192.631L155.612 188.198C155.612 188.198 150.005 167.578 145.932 147.185C141.859 126.791 139.23 106.172 139.23 106.172Z" fill="#DB0007"/>
<path fill-rule="evenodd" clip-rule="evenodd" d="M195.139 143.121C191.81 143.121 188.839 147.397 186.895 154.083C184.953 147.397 181.981 143.121 178.651 143.121C172.798 143.121 168.051 157.348 168.051 174.897H172.762C172.762 158.602 175.4 145.391 178.651 145.391C181.904 145.391 184.54 157.586 184.54 172.628H189.251C189.251 157.586 191.887 145.391 195.139 145.391C198.392 145.391 201.029 158.602 201.029 174.897H205.738C205.738 157.348 200.994 143.121 195.139 143.121Z" fill="#FFBC0D"/>
<path fill-rule="evenodd" clip-rule="evenodd" d="M154.009 103.216C154.009 103.216 163.615 131.297 188.001 131.297C212.387 131.297 221.994 103.216 221.994 103.216C221.994 103.216 228.645 103.216 233.818 103.216C236.773 93.6098 238.251 86.9591 239.729 77.3525C235.92 76.2899 230.897 77.2191 230.565 78.5304C229.995 80.7735 229.644 81.9317 229.034 84.1583C227.47 82.4216 224.234 81.5317 221.085 81.2322C220.22 89.1198 219.36 92.0153 217.293 100.04C217.7 90.0644 218.288 84.5317 220.022 74.2085C216.464 73.4903 211.832 74.0767 210.403 76.6453C209.463 82.5388 208.96 85.8063 208.608 90.933C208.255 81.6342 208.078 76.2553 207.276 66.5964C202.768 66.9558 198.58 69.0366 197.806 71.8169C197.897 73.0829 198.058 75.2575 198.135 76.5175C195.031 76.4483 191.676 77.7842 190.459 78.7574C189.077 85.6572 189.041 89.7555 187.134 96.8145C187.134 96.8145 186.363 91.365 189.007 68.6478C189.166 67.2846 184.097 63.836 180.499 63.3574C179.691 69.9704 178.982 76.5741 178.36 83.1745C178.005 75.386 177.402 67.5562 176.537 59.6506C173.799 59.1687 167.936 64.0417 168.068 65.3883C169.602 80.9766 169.63 83.446 169.715 93.8804C168.319 84.4105 167.738 80.9173 166.462 75.2122C162.868 75.4805 157.74 79.3078 158.005 80.6351C159.276 87.0171 159.524 89.8094 159.938 98.1617C158.141 88.0555 156.856 84.8452 154.551 74.6178C154.411 73.9955 148.094 72.0958 144.586 73.0283C146.531 81.0318 148.701 89.0519 149.551 96.9389C147.555 91.7557 145.699 86.4626 144.013 81.0132C140.522 82.0063 136.081 88.7131 136.28 89.3195C137.964 94.4575 140.164 98.3021 142.185 103.216H154.009Z" fill="#FFBC0D"/>
<path d="M169.027 58.8652C171.836 56.7857 174.618 55.5622 177.177 56.0127C178.795 56.2976 180.03 57.6169 180.209 59.25L180.253 59.6719L180.349 59.666C180.505 59.6599 180.664 59.6644 180.824 59.6787L180.985 59.6963C186.159 60.3845 193.163 64.8928 192.677 69.0762C192.568 70.0124 192.463 70.9265 192.364 71.8184L192.145 73.832L192.351 73.7627C192.942 73.5694 193.556 73.4012 194.179 73.2617L194.204 73.2559L194.124 72.1309L194.111 71.8721C194.106 71.5196 194.151 71.1675 194.246 70.8271C195.508 66.2949 200.929 63.3967 206.982 62.9141C209.012 62.7524 210.79 64.2632 210.958 66.292C211.059 67.5039 211.15 68.6596 211.234 69.7773L211.344 71.2695L211.378 71.2559C214.006 70.1459 217.304 69.941 220.48 70.5352L220.753 70.5879C222.707 70.9824 223.995 72.8556 223.665 74.8213C223.567 75.404 223.473 75.9714 223.383 76.5244L223.181 77.7725L223.732 77.8633C224.72 78.0381 225.66 78.2648 226.54 78.5469L226.728 78.6084L226.848 78.1504L226.982 77.623C228.059 73.3782 235.348 72.296 240.722 73.7949C242.523 74.2976 243.665 76.0675 243.381 77.916C241.972 87.0719 240.561 93.5279 238.091 101.85L237.854 102.64L237.928 102.662C239.512 103.182 240.605 104.743 240.454 106.488L240.438 106.638C238.705 120.321 236.457 134.078 233.694 147.91C230.932 161.74 227.686 175.494 223.956 189.172C223.739 189.969 223.26 190.67 222.598 191.163L216.641 195.597C215.636 196.345 214.32 196.533 213.146 196.096C205.633 193.3 197.132 191.895 187.628 191.895C178.144 191.895 169.917 193.294 162.931 196.067C161.74 196.54 160.389 196.362 159.361 195.597L153.404 191.163C152.741 190.669 152.262 189.967 152.045 189.169C148.285 175.342 145.038 161.589 142.307 147.91C139.575 134.23 137.327 120.473 135.563 106.641C135.34 104.884 136.382 103.288 137.938 102.709L137.949 102.706L137.579 101.877L137.238 101.128L135.844 98.1035C134.566 95.3131 133.739 93.3314 132.99 91.1367L132.768 90.4707C132.04 88.2499 133.284 86.2026 135.893 82.9854L136.137 82.6875C137.931 80.5249 139.788 78.8505 141.725 77.9424L141.962 77.835L140.995 73.9023C140.521 71.9494 141.694 69.9753 143.637 69.459C145.891 68.8597 148.7 69.0063 151.605 69.6289C152.752 69.8747 153.849 70.1879 154.729 70.5195C155.229 70.7075 155.668 70.9037 156.052 71.1221C156.347 71.29 156.619 71.4742 156.885 71.7061C157.476 72.2227 157.939 72.847 158.155 73.8066L158.361 74.7139L158.706 74.4736C160.687 73.1247 162.891 72.1038 164.964 71.6963L164.888 70.8818L164.391 65.752C164.138 63.1893 166.028 61.0858 169.027 58.8652ZM176.536 59.6514C173.799 59.1695 167.935 64.0431 168.067 65.3896C169.308 78.0001 169.564 82.0251 169.661 88.627L169.714 93.8818C168.44 85.2427 167.845 81.5771 166.781 76.6689L166.461 75.2139C162.868 75.4821 157.739 79.3095 158.004 80.6367C159.148 86.3801 159.463 89.2163 159.816 95.8145L159.937 98.1631C158.214 88.4781 156.962 85.126 154.833 75.8623L154.551 74.6191C154.411 73.9968 148.094 72.0971 144.586 73.0293C146.531 81.0328 148.7 89.0534 149.551 96.9404C147.555 91.7573 145.698 86.464 144.013 81.0146C140.522 82.0076 136.082 88.7123 136.279 89.3203C137.875 94.1879 139.934 97.895 141.864 102.45L142.185 103.218L143.527 106.174H139.229C140.981 119.92 143.215 133.591 145.93 147.187C148.645 160.782 151.871 174.453 155.609 188.199L161.566 192.633C169.012 189.677 177.7 188.199 187.628 188.199C197.556 188.199 206.492 189.677 214.435 192.633L220.391 188.199C224.099 174.604 227.326 160.933 230.071 147.187C232.817 133.44 235.05 119.769 236.772 106.174H233.028L233.816 103.218L234.081 102.353C236.862 93.2055 238.295 86.669 239.729 77.3535C235.919 76.291 230.897 77.2201 230.563 78.5312C230.374 79.279 230.209 79.9068 230.05 80.4932L229.032 84.1592C227.469 82.4228 224.233 81.5329 221.084 81.2334C220.384 87.6186 219.688 90.7326 218.351 95.9443L217.292 100.041C217.679 90.5522 218.23 85.0832 219.775 75.6875L220.021 74.21C216.463 73.4918 211.83 74.0778 210.401 76.6465C209.524 82.147 209.027 85.3605 208.679 89.9326L208.606 90.9346C208.274 82.1671 208.098 76.8839 207.407 68.2129L207.275 66.5977C202.767 66.9571 198.58 69.0381 197.806 71.8184C197.876 72.7922 197.987 74.3034 198.069 75.5225L198.134 76.5186C195.03 76.4493 191.675 77.7857 190.458 78.7588C189.076 85.6585 189.04 89.7566 187.133 96.8154C187.127 96.7728 186.432 91.7064 188.705 71.293L189.006 68.6494C189.164 67.2863 184.097 63.8372 180.498 63.3584C179.69 69.9714 178.98 76.5754 178.358 83.1758C178.004 75.3873 177.401 67.557 176.536 59.6514Z" fill="white"/>
<path fill-rule="evenodd" clip-rule="evenodd" d="M13.3674 165.79C51.7488 165.79 82.8632 134.261 82.8632 95.3669C82.8632 56.4731 51.7488 24.9434 13.3674 24.9434C-25.014 24.9434 -56.1283 56.4731 -56.1283 95.3669C-56.1283 134.261 -25.014 165.79 13.3674 165.79ZM13.3674 171.234C54.7155 171.234 88.2348 137.267 88.2348 95.3669C88.2348 53.4668 54.7155 19.5 13.3674 19.5C-27.9807 19.5 -61.5 53.4668 -61.5 95.3669C-61.5 137.267 -27.9807 171.234 13.3674 171.234Z" fill="url(#paint2_linear_1584_44983)"/>
<path fill-rule="evenodd" clip-rule="evenodd" d="M13.3674 165.79C51.7488 165.79 82.8632 134.261 82.8632 95.3669C82.8632 56.4731 51.7488 24.9434 13.3674 24.9434C-25.014 24.9434 -56.1283 56.4731 -56.1283 95.3669C-56.1283 134.261 -25.014 165.79 13.3674 165.79ZM13.3674 171.234C54.7155 171.234 88.2348 137.267 88.2348 95.3669C88.2348 53.4668 54.7155 19.5 13.3674 19.5C-27.9807 19.5 -61.5 53.4668 -61.5 95.3669C-61.5 137.267 -27.9807 171.234 13.3674 171.234Z" fill="url(#paint3_linear_1584_44983)"/>
<g style="mix-blend-mode:multiply">
<ellipse cx="-11.3031" cy="191.748" rx="84.1969" ry="9.71503" fill="#A0A09F" fill-opacity="0.15"/>
</g>
<path d="M-9.27832 82.2158C11.5421 82.2158 29.987 86.2454 43.3135 93.915C56.6973 101.618 65.0594 113.11 65.0596 127.812C65.0596 129.133 64.794 130.614 64.3086 131.996C64.0651 132.689 63.7515 133.398 63.3594 134.073L63.9697 134.684C64.2946 134.762 64.5973 134.913 64.8584 135.122L66.7637 136.113H66.7627C67.8277 136.665 68.4355 137.76 68.4355 138.885V141.698C68.4355 143.244 67.2646 144.693 65.5713 144.804C65.5051 144.913 65.4348 145.019 65.3604 145.123C66.4494 146.776 67.083 148.764 67.083 150.896V154.561C67.0829 157.543 65.8378 159.816 63.8457 161.281V163.372C64.0342 163.509 64.2167 163.668 64.3887 163.85C65.1394 164.644 65.4639 165.653 65.4639 166.697C65.4639 167.372 65.346 168.135 64.9199 168.84C64.8382 168.975 64.7471 169.097 64.6543 169.212V174.427C64.6539 183.034 58.1907 190.27 49.6377 191.238C30.6648 193.386 11.1609 194.459 -8.87305 194.459C-11.5955 194.459 -14.3348 194.439 -17.0898 194.399C-17.5866 194.485 -18.0758 194.472 -18.5449 194.378C-36.2452 194.077 -54.6178 192.965 -73.6611 191.039C-82.1968 190.176 -88.7172 183.067 -88.875 174.521C-88.8751 174.515 -88.8749 174.508 -88.875 174.501L-88.8779 174.227V167.888C-88.8779 166.626 -87.8553 165.603 -86.5938 165.603H-84.8105C-84.7735 165.567 -84.7334 165.526 -84.6924 165.478C-84.459 165.203 -84.0206 164.522 -84.0205 163.03C-84.0205 161.451 -84.513 159.737 -85.0732 158.33C-85.3459 157.645 -85.6187 157.072 -85.8213 156.674C-85.9221 156.476 -86.0047 156.323 -86.0596 156.224C-86.0867 156.175 -86.1068 156.139 -86.1191 156.117C-86.1244 156.108 -86.1287 156.101 -86.1309 156.098L-86.1953 155.981C-86.3843 155.615 -86.4674 155.208 -86.4443 154.804C-86.4462 154.723 -86.4492 154.642 -86.4492 154.561V150.896C-86.4492 148.464 -85.6262 146.218 -84.2412 144.445C-84.5673 143.895 -84.772 143.264 -84.8193 142.589C-84.8212 142.562 -84.8233 142.535 -84.8242 142.509L-84.8291 142.371L-84.8301 142.291C-84.83 141.578 -84.6551 140.907 -84.3457 140.316C-84.4349 140.144 -84.5134 139.966 -84.5791 139.781C-84.8245 139.301 -84.8989 138.737 -84.7617 138.188L-84.2031 135.951C-85.0285 135.182 -85.6679 134.253 -86.1338 133.313C-86.8582 131.852 -87.2588 130.186 -87.2588 128.622C-87.2586 113.819 -77.872 102.149 -63.6562 94.2998C-49.4479 86.4544 -30.117 82.2158 -9.27832 82.2158Z" fill="white" stroke="white" stroke-width="4.56862" stroke-linejoin="round"/>
<path fill-rule="evenodd" clip-rule="evenodd" d="M-86.5937 171.262C-86.5937 180.42 -79.7583 188.114 -70.6382 188.955C-55.356 190.366 -31.3605 192.176 -8.87353 192.176C12.6266 192.176 33.2994 190.521 46.7861 189.143C55.747 188.228 62.37 180.621 62.37 171.614V167.888H-86.5937V171.262Z" fill="#EC9D47"/>
<path fill-rule="evenodd" clip-rule="evenodd" d="M56.9556 142.835C61.2856 142.835 64.7958 146.444 64.7958 150.896V154.56C64.7958 157.59 63.1701 159.466 60.7666 160.355C60.3679 160.243 59.9098 160.199 59.4224 160.199C59.406 160.199 23.0207 160.521 18.0956 161.119C15.2496 161.282 13.3301 161.44 12.3374 161.595C-14.9554 165.848 -26.4774 159.421 -39.5546 158.089C-48.1119 157.218 -56.1616 157.766 -62.4327 159.312C-62.5003 159.328 -65.0824 159.702 -66.5178 159.788C-69.085 159.941 -71.4278 160.239 -74.4529 160.148C-76.1892 160.096 -78.4822 160.896 -79.7962 160.473C-82.3864 159.639 -84.168 157.732 -84.168 154.56V150.896C-84.168 146.444 -80.6578 142.835 -76.3278 142.835C-46.1276 141.203 -23.3988 140.379 -8.14146 140.362L-7.66213 140.361C6.69736 140.361 28.2366 141.186 56.9556 142.835Z" fill="#73371F"/>
<path fill-rule="evenodd" clip-rule="evenodd" d="M12.9696 166.091C13.9691 165.938 15.9015 165.782 18.7669 165.622C23.7253 165.031 60.3573 164.713 60.3738 164.713C61.9217 164.713 63.1766 165.152 63.1766 166.698C63.1766 168.413 61.9361 168.25 60.2421 168.535C57.9822 168.915 55.5642 169.117 52.9881 169.14C49.5519 169.17 39.2378 168.942 22.0459 168.455C21.1185 168.429 19.3304 168.512 16.6815 168.705C15.4147 169.098 13.9526 169.454 12.285 169.736C-4.03201 172.499 -9.18165 180.212 -15.377 190.282C-21.3542 199.998 -25.5097 169.202 -45.3536 168.357C-58.5829 167.793 -69.3926 168.149 -77.7827 169.424C-77.9839 169.431 -78.1852 169.418 -78.3838 169.385C-80.0433 169.109 -81.1643 168.355 -80.8878 166.698C-80.5298 164.553 -78.7388 164.565 -76.5656 164.426L-74.6988 164.307C-71.7643 164.458 -69.0048 164.458 -66.4202 164.307C-64.975 164.223 -62.3754 163.853 -62.3074 163.837C-55.9938 162.311 -47.8895 161.769 -39.2742 162.63C-26.1083 163.945 -14.5082 170.29 12.9696 166.091Z" fill="#FFBC0D"/>
<path d="M-4.17188 142.516C1.92359 142.528 8.68747 142.675 16.1185 142.954C12.7477 150.031 7.29813 148.558 2.14099 147.164C-0.28374 146.508 -2.40786 144.893 -4.07661 142.646L-4.17188 142.516Z" fill="#E6E454"/>
<path d="M-5.82812 142.623C-4.37265 142.613 -2.87724 142.61 -1.34192 142.615C-0.114191 143.77 1.31571 144.595 2.88991 144.983C3.55013 145.146 3.84375 145.217 4.20873 145.303C8.16223 146.235 10.4469 146.277 12.3846 145.16C13.2399 144.666 14.0113 143.921 14.6956 142.884C15.9479 142.918 17.2205 142.957 18.5125 142.999C17.3047 145.724 15.7455 147.598 13.8234 148.706C11.0844 150.286 8.24481 150.234 3.65329 149.152C3.35187 149.08 3.09988 149.02 2.66858 148.914L2.30792 148.825C-0.953784 148.022 -3.72194 145.823 -5.71737 142.794L-5.82812 142.623Z" fill="#66881E"/>
<path fill-rule="evenodd" clip-rule="evenodd" d="M21.5156 141.68C29.512 142.137 38.4181 142.772 48.232 143.586C46.8284 144.355 45.4914 145.284 44.2262 146.404C38.6039 151.383 34.9092 158.038 33.1686 155.809C31.4279 153.581 31.4279 148.491 29.6365 146.086C28.2362 144.206 25.9942 142.795 21.817 141.753L21.5156 141.68Z" fill="#FFBC0D"/>
<path d="M20.9179 136.313C31.5697 136.98 43.7097 137.937 57.3336 139.183L57.5385 139.202H57.7444C60.0129 139.202 61.926 138.317 63.4318 136.902C63.8023 137.267 64.0311 137.775 64.0311 138.337C64.0311 139.454 63.1247 140.361 62.0066 140.361H-80.5206C-81.4988 140.361 -82.3149 139.667 -82.5039 138.745C-81.6356 139.041 -80.7017 139.202 -79.7108 139.202H-79.5187L-79.3273 139.185C-64.7105 137.938 -51.9022 136.981 -40.9084 136.312L20.9179 136.313Z" fill="#FFD90D"/>
<path d="M-82.5469 142.276C-82.5469 141.202 -81.7106 140.328 -80.6365 140.316C-71.1217 140.204 -28.8479 139.719 -17.3752 139.719C-5.80158 139.719 50.044 140.213 61.8094 140.318C63.0374 140.329 63.9881 141.328 63.9881 142.556C63.9881 143.554 63.3271 144.432 62.3615 144.687C60.1812 145.263 56.3834 146.195 54.6339 146.195C52.6498 146.195 50.6525 145.871 48.6281 145.463C46.6276 145.061 44.6008 144.576 42.5341 144.243C40.5801 143.928 -65.119 144.197 -80.6499 144.238C-81.7352 144.241 -82.5469 143.362 -82.5469 142.276Z" fill="#DB0007"/>
<path d="M65.7101 138.139C65.9808 138.278 66.1525 138.567 66.1525 138.884V141.697C66.1525 142.155 65.7997 142.526 65.3646 142.526C65.2621 142.526 65.1606 142.505 65.0658 142.465C62.715 141.451 58.7883 139.796 56.4375 139.159L57.2719 139.239L57.4714 139.258H57.6717C59.9008 139.258 61.7773 138.335 63.249 136.859C63.5411 137.006 65.4122 137.986 65.7101 138.139Z" fill="#FFEBB8"/>
<path d="M-10.0242 135.504C-4.7669 135.504 2.09421 135.966 8.9383 136.313C-0.330494 140.284 -8.13708 141.981 -12.8624 141.981C-17.4693 141.981 -24.2352 140.094 -33.1602 136.321C-23.9362 135.776 -16.2227 135.504 -10.0242 135.504Z" fill="#FFEBB8"/>
<path fill-rule="evenodd" clip-rule="evenodd" d="M62.7728 127.813C62.7728 130.853 60.9498 135.504 57.7023 135.504C57.7023 135.504 13.452 131.456 -10.0899 131.456C-32.2825 131.456 -79.7143 135.504 -79.7143 135.504C-82.9618 135.504 -84.9766 131.663 -84.9766 128.622C-84.9766 101.259 -50.4155 84.5 -9.2803 84.5C31.8549 84.5 62.7728 100.449 62.7728 127.813Z" fill="#EC9D47"/>
<path fill-rule="evenodd" clip-rule="evenodd" d="M25.0462 114.774C24.1635 114.013 24.0681 112.636 24.8332 111.699C25.5982 110.762 29.4151 108.422 29.8946 108.836C30.374 109.249 28.7948 113.519 28.0298 114.456C27.2647 115.393 25.929 115.536 25.0462 114.774Z" fill="white"/>
<path fill-rule="evenodd" clip-rule="evenodd" d="M18.2152 95.0591C19.5338 94.842 20.7975 95.697 21.0377 96.9687C21.2778 98.2405 20.4534 103.001 19.7372 103.119C19.0209 103.237 16.5025 99.0268 16.2624 97.755C16.0222 96.4832 16.8965 95.2762 18.2152 95.0591Z" fill="white"/>
<path fill-rule="evenodd" clip-rule="evenodd" d="M6.50688 106.359C7.84825 106.359 8.93564 107.395 8.93564 108.672C8.93564 109.95 7.23545 114.455 6.50688 114.455C5.77831 114.455 4.07812 109.95 4.07812 108.672C4.07812 107.395 5.16552 106.359 6.50688 106.359Z" fill="white"/>
<path fill-rule="evenodd" clip-rule="evenodd" d="M51.9255 115.753C52.8083 116.514 52.9036 117.891 52.1386 118.828C51.3736 119.765 47.5567 122.105 47.0772 121.692C46.5978 121.278 48.177 117.009 48.942 116.071C49.7071 115.134 51.0428 114.992 51.9255 115.753Z" fill="white"/>
<path fill-rule="evenodd" clip-rule="evenodd" d="M24.7668 127.927C23.6297 128.542 22.1581 128.149 21.48 127.049C20.8018 125.949 19.8517 121.291 20.4693 120.957C21.087 120.623 24.9198 123.723 25.5979 124.823C26.2761 125.923 25.904 127.313 24.7668 127.927Z" fill="white"/>
<path fill-rule="evenodd" clip-rule="evenodd" d="M353.367 165.79C391.749 165.79 422.863 134.261 422.863 95.3669C422.863 56.4731 391.749 24.9434 353.367 24.9434C314.986 24.9434 283.872 56.4731 283.872 95.3669C283.872 134.261 314.986 165.79 353.367 165.79ZM353.367 171.234C394.716 171.234 428.235 137.267 428.235 95.3669C428.235 53.4668 394.716 19.5 353.367 19.5C312.019 19.5 278.5 53.4668 278.5 95.3669C278.5 137.267 312.019 171.234 353.367 171.234Z" fill="url(#paint4_linear_1584_44983)"/>
<path fill-rule="evenodd" clip-rule="evenodd" d="M353.367 165.79C391.749 165.79 422.863 134.261 422.863 95.3669C422.863 56.4731 391.749 24.9434 353.367 24.9434C314.986 24.9434 283.872 56.4731 283.872 95.3669C283.872 134.261 314.986 165.79 353.367 165.79ZM353.367 171.234C394.716 171.234 428.235 137.267 428.235 95.3669C428.235 53.4668 394.716 19.5 353.367 19.5C312.019 19.5 278.5 53.4668 278.5 95.3669C278.5 137.267 312.019 171.234 353.367 171.234Z" fill="url(#paint5_linear_1584_44983)"/>
<g style="mix-blend-mode:multiply">
<path fill-rule="evenodd" clip-rule="evenodd" d="M353.897 203.5C385.255 203.5 410.676 199.234 410.676 193.971C410.676 188.708 385.255 184.441 353.897 184.441C322.538 184.441 297.117 188.708 297.117 193.971C297.117 199.234 322.538 203.5 353.897 203.5Z" fill="#F1F1F1"/>
</g>
<path d="M321.302 55.5547C322.541 53.6966 324.613 52.5879 326.846 52.5879C328.463 52.5879 330.023 53.176 331.238 54.2428L334.602 57.1956L390.685 63.2027C393.002 63.4513 395.085 64.6992 396.397 66.6272C397.276 67.9199 398.27 69.665 398.99 71.7508C400.839 71.8073 402.586 72.6173 403.929 74.0474C407.188 77.5162 407.094 83.3468 406.987 85.0512C406.835 87.4771 405.036 89.4796 402.641 89.8901C402.603 89.8965 402.125 89.9781 401.233 90.1102C398.3 117.042 391.617 180.441 390.352 189.048C389.088 197.656 369.983 197.867 356.279 198.309C340.963 198.803 318.955 197.118 317.856 189.554C316.758 181.99 308.33 110.184 305.92 90.0462C305.227 89.8919 304.85 89.7853 304.728 89.7492C302.382 89.0539 300.829 86.8272 300.988 84.385C301.004 84.1352 301.165 81.8736 301.789 79.5141C303.579 72.7565 307.586 71.7474 309.815 71.7474H310.024L311.758 63.5095C312.708 58.9961 316.691 55.6997 321.279 55.5902L321.302 55.5547Z" fill="white"/>
<path fill-rule="evenodd" clip-rule="evenodd" d="M306.219 84.7241C306.219 84.7241 306.721 76.9877 309.816 76.9877H314.278L316.888 64.5881C317.384 62.2287 319.574 60.6186 321.973 60.8498L323.946 61.0396L325.665 58.4606C326.141 57.7461 327.137 57.6145 327.782 58.1811L332.394 62.2298L390.128 68.4133C390.914 68.4977 391.62 68.9211 392.066 69.5756C393.032 70.9964 394.576 73.7437 394.738 76.9877H398.784C400.806 76.9877 401.996 80.9153 401.758 84.7241C401.758 84.7241 383.732 87.8185 353.75 87.8185C316.629 87.8185 306.219 84.7241 306.219 84.7241Z" fill="#461E00"/>
<path fill-rule="evenodd" clip-rule="evenodd" d="M311.094 89.168C311.094 89.168 322.698 186.169 323.051 188.877C323.586 192.983 337.614 193.941 353.498 193.941C369.381 193.941 384.622 192.269 385.157 188.341C385.693 184.413 396.043 89.2571 396.043 89.2571C396.043 89.2571 383.105 91.7563 352.856 91.7563C326.888 91.7563 311.094 89.168 311.094 89.168Z" fill="#FFBC0D"/>
<g style="mix-blend-mode:multiply" opacity="0.5">
<path d="M396.044 89.2578C396.042 89.277 385.694 184.415 385.158 188.342C384.788 191.061 377.37 192.698 367.57 193.449C370.13 168.646 373.285 120.329 375.137 91.2354C389.588 90.503 396.044 89.2578 396.044 89.2578Z" fill="#D6D6D6"/>
</g>
<path fill-rule="evenodd" clip-rule="evenodd" d="M358.631 172.202C360.165 172.088 361.403 178.374 361.403 186.341C362.14 186.245 362.876 186.133 363.611 186.005C363.611 177.422 361.394 170.888 358.631 171.093C357.06 171.213 355.655 173.33 354.737 176.599C353.819 173.33 352.414 171.213 350.843 171.093C348.081 170.888 345.863 177.422 345.863 186.005C346.597 186.133 347.334 186.245 348.071 186.341C348.071 178.374 349.309 172.088 350.843 172.202C352.377 172.319 353.624 178.297 353.624 185.652C354.366 185.668 355.108 185.668 355.85 185.652C355.85 178.297 357.097 172.32 358.631 172.202Z" fill="#EC9D47"/>
</g>
<defs>
<linearGradient id="paint0_linear_1584_44983" x1="113.5" y1="164.089" x2="113.5" y2="19.5" gradientUnits="userSpaceOnUse">
<stop stop-color="#FFD42C"/>
<stop offset="0.135417" stop-color="#FFBC0D"/>
<stop offset="0.330657" stop-color="#E76E1F"/>
<stop offset="0.682292" stop-color="#D51E14"/>
<stop offset="0.885417" stop-color="#CF1B1B"/>
<stop offset="0.9999" stop-color="#BD1330"/>
<stop offset="1" stop-color="#910063"/>
</linearGradient>
<linearGradient id="paint1_linear_1584_44983" x1="188.367" y1="19.5" x2="188.367" y2="171.234" gradientUnits="userSpaceOnUse">
<stop offset="0.558109" stop-color="white" stop-opacity="0"/>
<stop offset="0.982202" stop-color="white"/>
</linearGradient>
<linearGradient id="paint2_linear_1584_44983" x1="-61.5" y1="164.089" x2="-61.5" y2="19.5" gradientUnits="userSpaceOnUse">
<stop stop-color="#FFD42C"/>
<stop offset="0.135417" stop-color="#FFBC0D"/>
<stop offset="0.330657" stop-color="#E76E1F"/>
<stop offset="0.682292" stop-color="#D51E14"/>
<stop offset="0.885417" stop-color="#CF1B1B"/>
<stop offset="0.9999" stop-color="#BD1330"/>
<stop offset="1" stop-color="#910063"/>
</linearGradient>
<linearGradient id="paint3_linear_1584_44983" x1="13.3674" y1="19.5" x2="13.3674" y2="171.234" gradientUnits="userSpaceOnUse">
<stop offset="0.558109" stop-color="white" stop-opacity="0"/>
<stop offset="0.982202" stop-color="white"/>
</linearGradient>
<linearGradient id="paint4_linear_1584_44983" x1="278.5" y1="164.089" x2="278.5" y2="19.5" gradientUnits="userSpaceOnUse">
<stop stop-color="#FFD42C"/>
<stop offset="0.135417" stop-color="#FFBC0D"/>
<stop offset="0.330657" stop-color="#E76E1F"/>
<stop offset="0.682292" stop-color="#D51E14"/>
<stop offset="0.885417" stop-color="#CF1B1B"/>
<stop offset="0.9999" stop-color="#BD1330"/>
<stop offset="1" stop-color="#910063"/>
</linearGradient>
<linearGradient id="paint5_linear_1584_44983" x1="353.367" y1="19.5" x2="353.367" y2="171.234" gradientUnits="userSpaceOnUse">
<stop offset="0.558109" stop-color="white" stop-opacity="0"/>
<stop offset="0.982202" stop-color="white"/>
</linearGradient>
<clipPath id="clip0_1584_44983">
<rect width="375" height="225" fill="white"/>
</clipPath>
</defs>
</svg>
