<svg width="375" height="225" viewBox="0 0 375 225" fill="none" xmlns="http://www.w3.org/2000/svg">
<ellipse cx="188.145" cy="202.618" rx="78.1452" ry="9.61787" fill="#A0A09F" fill-opacity="0.15"/>
<path d="M187.882 152.794C194.509 152.794 199.882 158.167 199.882 164.794C199.882 171.421 194.509 176.794 187.882 176.794C181.254 176.794 175.882 171.421 175.882 164.794C175.882 158.167 181.255 152.794 187.882 152.794ZM140.069 67.9297C140.85 67.1486 142.117 67.1486 142.898 67.9297L231.069 156.101C231.85 156.882 231.85 158.149 231.069 158.93L225.413 164.586C224.632 165.367 223.365 165.367 222.584 164.586L134.413 76.415C133.632 75.634 133.632 74.367 134.413 73.5859L140.069 67.9297ZM190.415 140.901C182.538 140.238 174.449 142.675 168.13 148.213C167.299 148.941 166.035 148.948 165.254 148.167L159.598 142.51C158.817 141.729 158.814 140.457 159.631 139.714C165.331 134.524 172.115 131.185 179.209 129.695L190.415 140.901ZM169.515 120.001C162.874 122.397 156.608 126.136 151.14 131.22C150.331 131.971 149.065 131.977 148.284 131.196L142.627 125.539C141.846 124.758 141.847 123.486 142.651 122.729C147.995 117.694 153.973 113.719 160.318 110.805L169.515 120.001ZM188.25 104.795C204.396 104.884 220.516 110.862 233.112 122.729C233.916 123.486 233.917 124.758 233.137 125.539L227.479 131.196C226.698 131.977 225.432 131.972 224.623 131.22C218.046 125.106 210.315 120.938 202.165 118.711L188.25 104.795ZM151.362 101.849C145.225 105.102 139.43 109.232 134.163 114.239C133.363 115 132.094 115.006 131.313 114.226L125.656 108.568C124.875 107.787 124.879 106.515 125.677 105.751C130.89 100.761 136.557 96.5198 142.54 93.0264L151.362 101.849ZM214.956 84.9443C227.734 88.9623 239.793 95.8974 250.087 105.751C250.885 106.515 250.888 107.787 250.107 108.568L244.45 114.226C243.669 115.006 242.4 115 241.6 114.239C231.314 104.46 219.015 98.0257 206.08 94.9355C209.704 92.2835 212.74 88.8759 214.956 84.9443Z" fill="#EAEAEA"/>
<circle cx="187.5" cy="70.5" r="26.5" fill="#DB0007"/>
<path d="M187.499 67.6729L196.86 58.3115C197.641 57.5305 198.907 57.5305 199.688 58.3115L201.103 59.7256L190.327 70.501L199.688 79.8623C200.469 80.6433 200.469 81.9094 199.688 82.6904L198.274 84.1045L187.499 73.3291L178.137 82.6914C177.356 83.4722 176.09 83.4724 175.309 82.6914L173.895 81.2773L184.671 70.501L175.309 61.1387C174.528 60.3576 174.528 59.0915 175.309 58.3105L176.723 56.8965L187.499 67.6729Z" fill="white"/>
<mask id="path-5-outside-1_17_28643" maskUnits="userSpaceOnUse" x="122.074" y="41" width="132" height="139" fill="black">
<rect fill="white" x="122.074" y="41" width="132" height="139"/>
<path d="M187.882 152.794C194.509 152.794 199.882 158.167 199.882 164.794C199.882 171.421 194.509 176.794 187.882 176.794C181.254 176.794 175.882 171.421 175.882 164.794C175.882 158.167 181.255 152.794 187.882 152.794ZM140.069 67.9297C140.85 67.1486 142.117 67.1486 142.898 67.9297L231.069 156.101C231.85 156.882 231.85 158.149 231.069 158.93L225.413 164.586C224.632 165.367 223.365 165.367 222.584 164.586L134.413 76.415C133.632 75.634 133.632 74.367 134.413 73.5859L140.069 67.9297ZM190.415 140.901C182.538 140.238 174.449 142.675 168.13 148.213C167.299 148.941 166.035 148.948 165.254 148.167L159.598 142.51C158.817 141.729 158.814 140.457 159.631 139.714C165.331 134.524 172.115 131.185 179.209 129.695L190.415 140.901ZM169.515 120.001C162.874 122.397 156.608 126.136 151.14 131.22C150.331 131.971 149.065 131.977 148.284 131.196L142.627 125.539C141.846 124.758 141.847 123.486 142.651 122.729C147.995 117.694 153.973 113.719 160.318 110.805L169.515 120.001ZM188.25 104.795C204.396 104.885 220.516 110.862 233.112 122.729C233.916 123.486 233.917 124.758 233.137 125.539L227.479 131.196C226.698 131.977 225.432 131.972 224.623 131.22C218.046 125.106 210.315 120.938 202.165 118.711L188.25 104.795ZM151.362 101.849C145.225 105.102 139.43 109.232 134.163 114.239C133.363 115 132.094 115.006 131.313 114.226L125.656 108.568C124.875 107.787 124.879 106.515 125.677 105.751C130.89 100.761 136.557 96.5198 142.54 93.0264L151.362 101.849ZM214.956 84.9443C227.734 88.9623 239.793 95.8974 250.087 105.751C250.885 106.515 250.888 107.787 250.107 108.568L244.45 114.226C243.669 115.006 242.4 115 241.6 114.239C231.314 104.46 219.015 98.0257 206.08 94.9355C209.704 92.2835 212.74 88.8759 214.956 84.9443ZM187.499 44C202.134 44.0003 213.999 55.8646 213.999 70.5C213.999 85.1354 202.134 96.9997 187.499 97C172.863 97 160.999 85.1355 160.999 70.5C160.999 55.8645 172.863 44 187.499 44Z"/>
</mask>
<path d="M187.882 152.794L187.882 149.794H187.882V152.794ZM199.882 164.794L202.882 164.794V164.794L199.882 164.794ZM187.882 176.794V179.794H187.882L187.882 176.794ZM175.882 164.794L172.882 164.794V164.794L175.882 164.794ZM140.069 67.9297L142.191 70.051L140.069 67.9297ZM142.898 67.9297L140.777 70.051L142.898 67.9297ZM231.069 156.101L233.191 153.979L233.191 153.979L231.069 156.101ZM225.413 164.586L227.534 166.707L227.534 166.707L225.413 164.586ZM222.584 164.586L220.463 166.707L220.463 166.707L222.584 164.586ZM134.413 76.415L132.292 78.5364L134.413 76.415ZM134.413 73.5859L132.292 71.4646L132.292 71.4646L134.413 73.5859ZM190.415 140.901L190.163 143.891L198.336 144.579L192.536 138.78L190.415 140.901ZM168.13 148.213L170.107 150.469L170.107 150.469L168.13 148.213ZM165.254 148.167L163.132 150.288L163.133 150.289L165.254 148.167ZM159.598 142.51L161.719 140.389L161.719 140.388L159.598 142.51ZM159.631 139.714L157.611 137.495L157.611 137.496L159.631 139.714ZM179.209 129.695L181.33 127.574L180.182 126.426L178.592 126.759L179.209 129.695ZM169.515 120.001L170.533 122.823L174.976 121.22L171.636 117.88L169.515 120.001ZM151.14 131.22L153.182 133.417L153.182 133.417L151.14 131.22ZM148.284 131.196L146.163 133.318L146.164 133.318L148.284 131.196ZM142.627 125.539L140.506 127.66L142.627 125.539ZM142.651 122.729L140.594 120.545L140.594 120.545L142.651 122.729ZM160.318 110.805L162.44 108.683L160.963 107.207L159.066 108.079L160.318 110.805ZM188.25 104.795L188.267 101.795L180.967 101.754L186.129 106.916L188.25 104.795ZM233.112 122.729L235.17 120.545L235.169 120.545L233.112 122.729ZM233.137 125.539L235.258 127.66L235.259 127.66L233.137 125.539ZM227.479 131.196L229.6 133.318L229.601 133.318L227.479 131.196ZM224.623 131.22L222.58 133.417L222.581 133.417L224.623 131.22ZM202.165 118.711L200.044 120.832L200.606 121.395L201.374 121.605L202.165 118.711ZM151.362 101.849L152.767 104.499L156.354 102.598L153.484 99.7273L151.362 101.849ZM134.163 114.239L136.23 116.414L136.23 116.413L134.163 114.239ZM131.313 114.226L129.192 116.347L129.193 116.347L131.313 114.226ZM125.656 108.568L123.535 110.689L123.535 110.69L125.656 108.568ZM125.677 105.751L123.602 103.584L123.602 103.584L125.677 105.751ZM142.54 93.0264L144.661 90.905L143.025 89.269L141.027 90.4357L142.54 93.0264ZM214.956 84.9443L215.856 82.0825L213.537 81.3532L212.343 83.4712L214.956 84.9443ZM250.087 105.751L252.162 103.584L252.161 103.584L250.087 105.751ZM250.107 108.568L252.229 110.69L252.23 110.689L250.107 108.568ZM244.45 114.226L246.571 116.347L246.572 116.347L244.45 114.226ZM241.6 114.239L239.532 116.413L239.533 116.414L241.6 114.239ZM206.08 94.9355L204.308 92.5145L199.073 96.3459L205.383 97.8534L206.08 94.9355ZM187.499 44L187.499 41H187.499V44ZM187.499 97V100H187.499L187.499 97ZM187.882 152.794L187.882 155.794C192.852 155.794 196.882 159.824 196.882 164.794L199.882 164.794L202.882 164.794C202.882 156.51 196.166 149.794 187.882 149.794L187.882 152.794ZM199.882 164.794L196.882 164.794C196.882 169.764 192.852 173.794 187.882 173.794L187.882 176.794L187.882 179.794C196.166 179.794 202.882 173.078 202.882 164.794L199.882 164.794ZM187.882 176.794V173.794C182.911 173.794 178.882 169.764 178.882 164.794L175.882 164.794L172.882 164.794C172.882 173.078 179.598 179.794 187.882 179.794V176.794ZM175.882 164.794L178.882 164.794C178.882 159.823 182.911 155.794 187.882 155.794V152.794V149.794C179.598 149.794 172.882 156.51 172.882 164.794L175.882 164.794ZM140.069 67.9297L142.191 70.051C141.8 70.4415 141.168 70.4415 140.777 70.051L142.898 67.9297L145.02 65.8084C143.067 63.8557 139.901 63.8557 137.948 65.8084L140.069 67.9297ZM142.898 67.9297L140.777 70.051L228.948 158.222L231.069 156.101L233.191 153.979L145.02 65.8084L142.898 67.9297ZM231.069 156.101L228.948 158.222C228.558 157.831 228.557 157.199 228.948 156.808L231.069 158.93L233.191 161.051C235.143 159.098 235.143 155.932 233.191 153.979L231.069 156.101ZM231.069 158.93L228.948 156.808L223.292 162.465L225.413 164.586L227.534 166.707L233.191 161.051L231.069 158.93ZM225.413 164.586L223.292 162.465C223.682 162.074 224.315 162.074 224.705 162.465L222.584 164.586L220.463 166.707C222.415 168.66 225.582 168.66 227.534 166.707L225.413 164.586ZM222.584 164.586L224.705 162.465L136.534 74.2937L134.413 76.415L132.292 78.5364L220.463 166.707L222.584 164.586ZM134.413 76.415L136.534 74.2937C136.925 74.6843 136.925 75.3167 136.534 75.7072L134.413 73.5859L132.292 71.4646C130.339 73.4172 130.339 76.5837 132.292 78.5364L134.413 76.415ZM134.413 73.5859L136.534 75.7073L142.191 70.051L140.069 67.9297L137.948 65.8084L132.292 71.4646L134.413 73.5859ZM190.415 140.901L190.667 137.912C182.01 137.183 173.108 139.861 166.153 145.957L168.13 148.213L170.107 150.469C175.79 145.488 183.066 143.293 190.163 143.891L190.415 140.901ZM168.13 148.213L166.153 145.957C166.413 145.729 166.949 145.619 167.375 146.045L165.254 148.167L163.133 150.289C165.121 152.276 168.186 152.153 170.107 150.469L168.13 148.213ZM165.254 148.167L167.375 146.046L161.719 140.389L159.598 142.51L157.476 144.631L163.132 150.288L165.254 148.167ZM159.598 142.51L161.719 140.388C162.083 140.753 162.167 141.462 161.651 141.932L159.631 139.714L157.611 137.496C155.461 139.453 155.55 142.705 157.476 144.631L159.598 142.51ZM159.631 139.714L161.65 141.932C166.944 137.113 173.239 134.015 179.826 132.631L179.209 129.695L178.592 126.759C170.991 128.356 163.718 131.936 157.611 137.495L159.631 139.714ZM179.209 129.695L177.088 131.817L188.294 143.023L190.415 140.901L192.536 138.78L181.33 127.574L179.209 129.695ZM169.515 120.001L168.496 117.179C161.483 119.71 154.867 123.659 149.097 129.022L151.14 131.22L153.182 133.417C158.348 128.614 164.264 125.085 170.533 122.823L169.515 120.001ZM151.14 131.22L149.097 129.022C149.414 128.728 149.991 128.66 150.405 129.074L148.284 131.196L146.164 133.318C148.14 135.293 151.247 135.215 153.182 133.417L151.14 131.22ZM148.284 131.196L150.406 129.075L144.748 123.418L142.627 125.539L140.506 127.66L146.163 133.318L148.284 131.196ZM142.627 125.539L144.748 123.418C145.129 123.798 145.172 124.476 144.709 124.912L142.651 122.729L140.594 120.545C138.523 122.496 138.563 125.718 140.506 127.66L142.627 125.539ZM142.651 122.729L144.708 124.912C149.812 120.104 155.517 116.311 161.571 113.531L160.318 110.805L159.066 108.079C152.429 111.127 146.178 115.284 140.594 120.545L142.651 122.729ZM160.318 110.805L158.197 112.926L167.393 122.122L169.515 120.001L171.636 117.88L162.44 108.683L160.318 110.805ZM188.25 104.795L188.233 107.795C203.651 107.88 219.033 113.587 231.055 124.912L233.112 122.729L235.169 120.545C222 108.138 205.142 101.889 188.267 101.795L188.25 104.795ZM233.112 122.729L231.055 124.912C230.591 124.475 230.635 123.798 231.015 123.418L233.137 125.539L235.259 127.66C237.199 125.718 237.241 122.496 235.17 120.545L233.112 122.729ZM233.137 125.539L231.015 123.418L225.358 129.075L227.479 131.196L229.601 133.318L235.258 127.66L233.137 125.539ZM227.479 131.196L225.359 129.074C225.773 128.66 226.349 128.728 226.665 129.022L224.623 131.22L222.581 133.417C224.515 135.215 227.624 135.293 229.6 133.318L227.479 131.196ZM224.623 131.22L226.666 129.023C219.724 122.57 211.561 118.168 202.956 115.817L202.165 118.711L201.374 121.605C209.07 123.708 216.368 127.642 222.58 133.417L224.623 131.22ZM202.165 118.711L204.286 116.59L190.371 102.674L188.25 104.795L186.129 106.916L200.044 120.832L202.165 118.711ZM151.362 101.849L149.957 99.1981C143.581 102.578 137.563 106.867 132.096 112.065L134.163 114.239L136.23 116.413C141.296 111.597 146.869 107.627 152.767 104.499L151.362 101.849ZM134.163 114.239L132.096 112.065C132.431 111.746 133.022 111.692 133.434 112.104L131.313 114.226L129.193 116.347C131.167 118.32 134.294 118.254 136.23 116.414L134.163 114.239ZM131.313 114.226L133.435 112.104L127.778 106.447L125.656 108.568L123.535 110.69L129.192 116.347L131.313 114.226ZM125.656 108.568L127.778 106.447C128.166 106.835 128.19 107.498 127.751 107.918L125.677 105.751L123.602 103.584C121.568 105.531 121.585 108.739 123.535 110.689L125.656 108.568ZM125.677 105.751L127.751 107.918C132.793 103.092 138.271 98.993 144.053 95.617L142.54 93.0264L141.027 90.4357C134.843 94.0466 128.988 98.4292 123.602 103.584L125.677 105.751ZM142.54 93.0264L140.419 95.1477L149.241 103.97L151.362 101.849L153.484 99.7273L144.661 90.905L142.54 93.0264ZM214.956 84.9443L214.056 87.8062C226.404 91.6891 238.059 98.3907 248.012 107.918L250.087 105.751L252.161 103.584C241.526 93.404 229.063 86.2354 215.856 82.0825L214.956 84.9443ZM250.087 105.751L248.012 107.918C247.573 107.498 247.598 106.835 247.985 106.448L250.107 108.568L252.23 110.689C254.178 108.739 254.196 105.531 252.162 103.584L250.087 105.751ZM250.107 108.568L247.986 106.447L242.329 112.104L244.45 114.226L246.572 116.347L252.229 110.69L250.107 108.568ZM244.45 114.226L242.329 112.104C242.741 111.692 243.332 111.747 243.667 112.065L241.6 114.239L239.533 116.414C241.469 118.254 244.597 118.321 246.571 116.347L244.45 114.226ZM241.6 114.239L243.667 112.065C232.987 101.912 220.212 95.2273 206.777 92.0177L206.08 94.9355L205.383 97.8534C217.818 100.824 229.641 107.009 239.532 116.413L241.6 114.239ZM206.08 94.9355L207.852 97.3566C211.819 94.4534 215.142 90.7233 217.569 86.4175L214.956 84.9443L212.343 83.4712C210.337 87.0286 207.589 90.1136 204.308 92.5145L206.08 94.9355ZM187.499 44L187.499 47C200.478 47.0002 210.999 57.5215 210.999 70.5H213.999H216.999C216.999 54.2077 203.791 41.0003 187.499 41L187.499 44ZM213.999 70.5H210.999C210.999 83.4785 200.478 93.9998 187.499 94L187.499 97L187.499 100C203.791 99.9997 216.999 86.7923 216.999 70.5H213.999ZM187.499 97V94C174.52 94 163.999 83.4787 163.999 70.5H160.999H157.999C157.999 86.7924 171.207 100 187.499 100V97ZM160.999 70.5H163.999C163.999 57.5213 174.52 47 187.499 47V44V41C171.207 41 157.999 54.2076 157.999 70.5H160.999Z" fill="white" mask="url(#path-5-outside-1_17_28643)"/>
</svg>
