<svg width="153" height="98" viewBox="0 0 153 98" fill="none" xmlns="http://www.w3.org/2000/svg">
<path d="M129.41 23.9219C124.147 23.9219 119.439 30.9427 116.363 41.9165C113.29 30.9427 108.586 23.9219 103.315 23.9219C94.0526 23.9219 86.5391 47.2808 86.5391 76.0867H93.992C93.992 49.3393 98.1649 27.6414 103.304 27.6414C108.444 27.6414 112.626 47.6635 112.626 72.3613H120.08C120.08 47.6635 124.253 27.6414 129.4 27.6414C134.547 27.6414 138.713 49.3319 138.713 76.0867H146.167C146.185 47.2808 138.674 23.9219 129.41 23.9219Z" fill="#FFBC0D"/>
<path d="M23.9102 50.0651C25.006 51.2256 25.5539 52.9757 25.5539 55.3155C25.5539 56.6554 25.1785 58.4164 24.4276 60.5985H19.0352C19.3532 58.8664 19.5243 57.1105 19.5467 55.3495C19.5467 53.327 18.7854 52.3157 17.2629 52.3157C16.9227 52.3117 16.5859 52.383 16.2765 52.5242C15.967 52.6655 15.6926 52.8733 15.4728 53.1329C14.9801 53.6787 14.7337 54.5422 14.7337 55.7234V60.6H9.01172V45.2313C9.01172 39.3203 11.7394 36.3648 17.1949 36.3648C19.7866 36.3648 21.7412 36.8647 23.0588 37.8647C24.3763 38.8646 25.0011 40.2734 24.9331 42.0911C24.8868 43.9787 23.9723 45.3195 22.1896 46.1135C20.4069 46.9076 17.9463 47.3164 14.8076 47.3401V50.8172C15.3032 50.0634 15.976 49.4423 16.767 49.0082C17.558 48.5742 18.4434 48.3404 19.3456 48.3272C21.2978 48.3272 22.8193 48.9065 23.9102 50.0651ZM14.8076 43.7934V45.017C16.1715 44.9954 17.2555 44.7451 18.0596 44.2663C18.8637 43.7875 19.3013 43.1629 19.3722 42.3925C19.4166 41.7098 19.2865 41.1601 18.979 40.7389C18.6716 40.3178 18.1439 40.1079 17.3944 40.1079C15.6689 40.1109 14.8066 41.3394 14.8076 43.7934ZM42.006 45.1914C43.4024 46.6692 44.1011 48.8858 44.1021 51.8413V58.9966C44.1021 61.9275 43.4615 64.1934 42.1804 65.7943C40.8993 67.3952 38.8023 68.1962 35.8893 68.1971C33.9578 68.1971 32.3728 67.8282 31.134 67.0903C29.8953 66.3524 28.9976 65.4037 28.4408 64.2441C27.8861 63.0965 27.6 61.8377 27.6042 60.563C27.6117 59.33 27.7837 58.1035 28.1156 56.9159H33.5716C33.4494 58.2577 33.3883 59.6114 33.3883 60.9768C33.3883 63.2949 34.2175 64.454 35.876 64.454C37.4902 64.454 38.2973 63.2836 38.2973 60.9428V50.5424C38.2973 49.2942 38.0815 48.3454 37.6498 47.6962C37.4548 47.3873 37.182 47.135 36.8588 46.9646C36.5355 46.7942 36.1732 46.7117 35.808 46.7253C35.0128 46.7253 34.4107 46.9923 34.0017 47.5263C33.5927 48.0602 33.3883 48.8159 33.3883 49.7931L33.4563 51.7024H28.1348C28.0895 50.7921 28.0668 50.2577 28.0668 50.099C28.0656 48.8994 28.3585 47.7177 28.9197 46.6573C29.5114 45.5413 30.4107 44.6182 31.511 43.9974C32.6699 43.3147 34.1017 42.9738 35.8065 42.9748C38.5372 42.9758 40.6012 43.7146 41.9986 45.1914H42.006ZM63.911 51.0197C63.911 53.2009 63.5021 55.0471 62.6842 56.5583C61.8662 58.0696 60.7921 59.1946 59.4617 59.9335C58.1665 60.6629 56.7045 61.0447 55.2179 61.0418C53.7412 61.0522 52.2823 60.7193 50.9563 60.0695C49.625 59.4145 48.5055 58.3972 47.7265 57.1346C46.8958 55.8273 46.4809 54.2195 46.4819 52.3112C46.4819 50.334 46.8268 48.7375 47.5166 47.5218C48.2064 46.3061 49.0761 45.4367 50.1256 44.9136C51.1174 44.4044 52.2153 44.1361 53.3303 44.1304C54.3142 44.1159 55.2865 44.3443 56.161 44.7954C56.9681 45.2071 57.6416 45.8395 58.1033 46.6189V43.7255C58.1033 42.4989 57.8422 41.5901 57.3199 40.999C56.7976 40.4079 56.1043 40.1124 55.2401 40.1124C54.4212 40.1124 53.756 40.3399 53.2445 40.7951C52.7331 41.2502 52.466 41.8975 52.4434 42.7369H47.1633C47.1612 41.6327 47.4745 40.5509 48.0665 39.6188C48.6696 38.6523 49.5733 37.8681 50.7775 37.2662C51.9817 36.6643 53.4367 36.3633 55.1425 36.3633C57.8919 36.3633 60.0397 37.1076 61.5859 38.5962C63.132 40.0848 63.9046 42.2743 63.9036 45.1648L63.911 51.0197ZM58.1831 52.2817C58.1831 50.7143 57.8707 49.6306 57.246 49.0306C56.6212 48.4307 55.9806 48.1297 55.3243 48.1277C54.5734 48.1277 53.9142 48.4853 53.3465 49.2006C52.7789 49.9158 52.4946 51.0463 52.4936 52.592C52.4936 54.1378 52.7779 55.2628 53.3465 55.9672C53.9151 56.6716 54.5744 57.0238 55.3243 57.0238C55.9836 57.0238 56.6241 56.7283 57.246 56.1372C57.8678 55.5461 58.1802 54.4668 58.1831 52.8994V52.2817ZM80.8731 45.8224C82.1305 47.7199 82.7592 49.9749 82.7592 52.5876C82.7676 53.9706 82.6473 55.3513 82.4 56.712C82.1521 58.0253 81.8278 59.323 81.4289 60.5985H76.3484C76.7535 57.9474 76.9586 55.2695 76.9618 52.5876C76.9618 50.7699 76.8027 49.3385 76.4844 48.2932C76.1661 47.248 75.4615 46.7253 74.3706 46.7253C73.2797 46.7253 72.5697 47.248 72.2405 48.2932C71.9114 49.3385 71.7463 50.7699 71.7453 52.5876C71.7615 55.2703 71.9784 57.9481 72.3943 60.5985H67.2798C66.8808 59.323 66.5566 58.0253 66.3086 56.712C66.0613 55.3513 65.9411 53.9706 65.9494 52.5876C65.9494 49.9749 66.586 47.7199 67.8592 45.8224C69.1324 43.925 71.3004 42.9762 74.3632 42.9762C77.4368 42.9762 79.6043 43.925 80.8657 45.8224H80.8731Z" fill="url(#paint0_linear_465_41649)"/>
<defs>
<linearGradient id="paint0_linear_465_41649" x1="9.01172" y1="52.2817" x2="82.7592" y2="52.2817" gradientUnits="userSpaceOnUse">
<stop stop-color="#8E2065"/>
<stop offset="0.04" stop-color="#981C59"/>
<stop offset="0.18" stop-color="#B51035"/>
<stop offset="0.3" stop-color="#CA071C"/>
<stop offset="0.42" stop-color="#D7020C"/>
<stop offset="0.51" stop-color="#DB0007"/>
<stop offset="1" stop-color="#E57325"/>
</linearGradient>
</defs>
</svg>
