<svg width="44" height="44" viewBox="0 0 44 44" fill="none" xmlns="http://www.w3.org/2000/svg">
<path fill-rule="evenodd" clip-rule="evenodd" d="M29.3328 12.898C28.3254 12.9167 25.8545 12.9473 25.0251 12.8173C24.7002 12.7664 24.3857 12.6588 24.0016 12.5274L24.0016 12.5274C22.8321 12.1273 21.0176 11.5065 16.298 11.5927C10.0285 11.7071 9.38264 13.2293 9.26834 13.5212C9.21982 13.645 9.1538 13.973 9.14545 14.3231C9.13639 14.7026 8.79153 15.7808 8.50052 16.0245C7.61539 16.7656 7.40071 17.857 8.16814 18.7112C8.37649 18.9431 8.34196 19.375 8.12615 19.6C7.50013 20.2527 7.45692 21.3229 7.83624 22.0286C8.01191 22.3554 8.20618 23.3297 8.11177 23.6885C7.81228 24.8267 8.19372 26.4973 10.0212 26.4889C10.0443 26.4888 10.0688 26.4861 10.0915 26.4816C10.7835 26.3421 11.3768 26.2106 11.8737 26.1003C12.6918 25.9189 13.2486 25.7954 13.5547 25.7903C14.1396 25.7807 15.8658 25.9946 16.2518 26.3864C16.9189 26.9818 15.7512 28.7008 15.0188 29.779C14.8415 30.04 14.6898 30.2635 14.5957 30.4243C14.3176 30.8999 12.6679 34.4236 14.3423 35.5133C14.4145 35.5603 14.5046 35.5754 14.5873 35.5509C15.3191 35.3342 15.8738 34.428 16.5933 33.2525C17.3872 31.9556 18.3816 30.331 20.0358 28.9435C21.7075 27.5412 22.686 26.3613 23.4304 25.4637C24.1686 24.5734 24.6766 23.9608 25.4023 23.6844C26.5208 23.2584 28.4936 23.3188 29.3506 23.37C29.5753 23.3834 29.7676 23.2058 29.7676 22.9807V22.8888H30.6737C30.859 23.8788 31.7278 24.628 32.7715 24.628H35.8545L35.8545 11.5846H32.7715C31.8872 11.5846 31.1284 12.1224 30.8046 12.8889H29.3328V12.898Z" fill="white"/>
<path fill-rule="evenodd" clip-rule="evenodd" d="M29.3328 12.8902V12.8994C28.3255 12.9181 25.8545 12.9486 25.0252 12.8187C24.7002 12.7677 24.3857 12.6601 24.0016 12.5287C22.8322 12.1286 21.0176 11.5079 16.2981 11.594C10.0285 11.7085 9.38268 13.2307 9.26838 13.5225C9.21987 13.6464 9.15385 13.9744 9.14549 14.3245C9.13643 14.7039 8.79158 15.7822 8.50056 16.0259C7.61543 16.767 7.40075 17.8583 8.16818 18.7125C8.37654 18.9444 8.342 19.3764 8.12619 19.6014C7.50018 20.2541 7.45696 21.3243 7.83628 22.03C8.01195 22.3568 8.20623 23.3311 8.11181 23.6899C7.81233 24.8281 8.19376 26.4987 10.0212 26.4902C10.0444 26.4901 10.0688 26.4875 10.0915 26.4829C10.7836 26.3435 11.3769 26.2119 11.8737 26.1017C12.6918 25.9202 13.2486 25.7967 13.5548 25.7917C14.1396 25.7821 15.8658 25.9959 16.2518 26.3878C16.919 26.9832 15.7513 28.7022 15.0189 29.7804C14.8416 30.0414 14.6898 30.2648 14.5957 30.4257C14.3176 30.9012 12.6679 34.4249 14.3423 35.5146C14.4146 35.5617 14.5047 35.5767 14.5873 35.5523C15.3191 35.3356 15.8739 34.4293 16.5934 33.2539C17.3872 31.9569 18.3817 30.3323 20.0358 28.9448C21.7076 27.5425 22.686 26.3626 23.4304 25.465C24.1687 24.5748 24.6767 23.9622 25.4024 23.6858C26.5208 23.2598 28.4936 23.3202 29.3507 23.3713C29.5753 23.3847 29.7676 23.2071 29.7676 22.9821V22.8902H30.6737C30.859 23.8802 31.7278 24.6294 32.7716 24.6294H35.8546L35.8546 11.586H32.7716C31.8872 11.586 31.1285 12.1238 30.8046 12.8902H29.3328ZM30.3792 12.1788H29.3328C29.2894 12.1788 29.247 12.1827 29.2057 12.1901C28.6942 12.199 27.8954 12.2091 27.1175 12.2033C26.2572 12.197 25.4879 12.171 25.1353 12.1158C24.8832 12.0763 24.6296 11.9916 24.2319 11.8556C22.9901 11.4307 21.0933 10.7949 16.2851 10.8827C13.1072 10.9407 11.2685 11.3549 10.1833 11.8429C9.63442 12.0896 9.26505 12.3611 9.01519 12.6266C8.75755 12.9004 8.65434 13.1394 8.60592 13.2631C8.51662 13.4911 8.44375 13.909 8.43423 14.3075C8.43421 14.308 8.43397 14.3143 8.43256 14.3274C8.43111 14.341 8.42871 14.3589 8.42503 14.3814C8.41759 14.4268 8.40608 14.4834 8.39018 14.5494C8.35828 14.6817 8.31257 14.8357 8.25852 14.9874C8.20397 15.1406 8.14565 15.2783 8.09148 15.3826C8.05234 15.4579 8.02832 15.4904 8.02405 15.497C7.48537 15.9548 7.10755 16.5549 7.01055 17.2248C6.91334 17.8961 7.10945 18.569 7.59037 19.1325C6.74047 20.0421 6.71181 21.4407 7.20962 22.3668C7.24184 22.4268 7.31908 22.6598 7.37492 22.9729C7.40048 23.1162 7.41703 23.2517 7.42281 23.3623C7.42837 23.4686 7.42171 23.5132 7.42245 23.5134C7.42259 23.5134 7.42299 23.5118 7.42377 23.5089C7.23977 24.2082 7.25269 25.0969 7.63573 25.8445C8.04687 26.6469 8.84818 27.2071 10.0245 27.2017C10.0964 27.2013 10.1668 27.1935 10.232 27.1804C10.9309 27.0396 11.5297 26.9067 12.0262 26.7966L12.0278 26.7963C12.4402 26.7048 12.7733 26.631 13.0415 26.579C13.32 26.5251 13.4817 26.5045 13.5665 26.5031C13.7975 26.4993 14.3261 26.5431 14.8497 26.639C15.1079 26.6863 15.3428 26.7423 15.5251 26.803C15.6479 26.8439 15.7125 26.876 15.7393 26.8899C15.7392 26.9032 15.7383 26.921 15.736 26.9441C15.721 27.0888 15.6533 27.3086 15.5162 27.6006C15.2446 28.179 14.8043 28.8302 14.4303 29.3806L14.417 29.4003C14.2506 29.6452 14.0879 29.8846 13.9816 30.0665C13.8107 30.3587 13.2982 31.4273 13.0421 32.5863C12.9139 33.1668 12.8378 33.8219 12.9334 34.4361C13.0312 35.0643 13.3197 35.698 13.9542 36.1109C14.1909 36.265 14.4955 36.3214 14.7893 36.2344C15.3652 36.0639 15.8002 35.6454 16.1508 35.2067C16.4988 34.7712 16.8368 34.219 17.183 33.6534L17.2002 33.6253C17.9958 32.3255 18.9378 30.7944 20.493 29.4899C22.2141 28.0462 23.2253 26.8269 23.9765 25.9211L23.9781 25.9192C24.7545 24.9828 25.1409 24.5467 25.6556 24.3507C26.103 24.1802 26.7804 24.0915 27.5051 24.0604C28.2117 24.0301 28.8927 24.0567 29.3083 24.0815C29.6571 24.1023 29.9812 23.9578 30.1996 23.7142C30.6562 24.6759 31.6357 25.3409 32.7716 25.3409H35.8546C36.2475 25.3409 36.566 25.0223 36.566 24.6294L36.566 11.586C36.566 11.3973 36.4911 11.2163 36.3576 11.0829C36.2242 10.9495 36.0433 10.8745 35.8546 10.8745H32.7716C31.7671 10.8745 30.8854 11.3948 30.3792 12.1788ZM15.7367 26.8565C15.7366 26.8566 15.7368 26.8585 15.7379 26.8618C15.7373 26.858 15.7368 26.8563 15.7367 26.8565Z" fill="white"/>
<path d="M14.5957 30.4257C14.6898 30.2648 14.8416 30.0414 15.0189 29.7804C15.7513 28.7022 16.919 26.9832 16.2518 26.3878C15.8658 25.9959 14.1396 25.7821 13.5548 25.7917C13.2486 25.7967 12.6918 25.9202 11.8737 26.1017C11.3769 26.2119 10.7836 26.3435 10.0915 26.4829C10.0688 26.4875 10.0444 26.4901 10.0212 26.4902C8.19376 26.4987 7.81233 24.8281 8.11181 23.6899C8.20623 23.3311 8.01195 22.3568 7.83628 22.03C7.45696 21.3243 7.50018 20.2541 8.12619 19.6014C8.342 19.3764 8.37654 18.9444 8.16818 18.7125C7.40075 17.8583 7.61543 16.767 8.50056 16.0259C8.79158 15.7822 9.13643 14.7039 9.14549 14.3245C9.15385 13.9744 9.21987 13.6464 9.26838 13.5225C9.38268 13.2307 10.0285 11.7085 16.2981 11.594C21.0176 11.5079 22.8322 12.1286 24.0016 12.5287C24.3857 12.6601 24.7002 12.7677 25.0252 12.8187C25.8545 12.9486 28.3255 12.9181 29.3328 12.8994V12.8902H30.8046C31.1285 12.1238 31.8872 11.586 32.7716 11.586H35.8546L35.8546 24.6294H32.7716C31.7278 24.6294 30.859 23.8802 30.6737 22.8902H29.7676V22.9821C29.7676 23.2071 29.5753 23.3847 29.3507 23.3713C28.4936 23.3202 26.5208 23.2598 25.4024 23.6858C24.6767 23.9622 24.1687 24.5748 23.4304 25.465C22.686 26.3626 21.7076 27.5425 20.0358 28.9448C18.3817 30.3323 17.3872 31.9569 16.5934 33.2539C15.8739 34.4293 15.3191 35.3356 14.5873 35.5523C14.5047 35.5767 14.4146 35.5617 14.3423 35.5146C12.6679 34.4249 14.3176 30.9012 14.5957 30.4257ZM14.5957 30.4257L13.9816 30.0665M13.9816 30.0665C14.0879 29.8846 14.2506 29.6452 14.417 29.4003L14.4303 29.3806C14.8043 28.8302 15.2446 28.179 15.5162 27.6006C15.6533 27.3086 15.721 27.0888 15.736 26.9442C15.7383 26.921 15.7392 26.9032 15.7393 26.8899C15.7125 26.876 15.6479 26.8439 15.5251 26.803C15.3428 26.7423 15.1079 26.6863 14.8497 26.639C14.3261 26.5431 13.7975 26.4993 13.5665 26.5031C13.4817 26.5045 13.32 26.5251 13.0415 26.579C12.7733 26.631 12.4402 26.7048 12.0278 26.7963L12.0262 26.7966C11.5297 26.9067 10.9309 27.0396 10.232 27.1804C10.1668 27.1935 10.0964 27.2013 10.0245 27.2017C8.84818 27.2071 8.04687 26.6469 7.63573 25.8445C7.25269 25.0969 7.23977 24.2082 7.42377 23.5089C7.42299 23.5118 7.42259 23.5134 7.42245 23.5134C7.42171 23.5132 7.42837 23.4686 7.42281 23.3623C7.41703 23.2517 7.40048 23.1162 7.37492 22.9729C7.31908 22.6598 7.24184 22.4268 7.20962 22.3668C6.71181 21.4407 6.74047 20.0421 7.59037 19.1325C7.10945 18.569 6.91334 17.8961 7.01055 17.2248C7.10755 16.5549 7.48537 15.9548 8.02405 15.497C8.02832 15.4904 8.05234 15.4579 8.09148 15.3826C8.14565 15.2783 8.20397 15.1406 8.25852 14.9874C8.31257 14.8357 8.35828 14.6817 8.39018 14.5494C8.40608 14.4834 8.41759 14.4268 8.42503 14.3814C8.42871 14.3589 8.43111 14.341 8.43256 14.3274C8.43397 14.3143 8.43421 14.308 8.43423 14.3075C8.44375 13.909 8.51662 13.4911 8.60592 13.2631C8.65434 13.1394 8.75755 12.9004 9.01519 12.6266C9.26505 12.3611 9.63442 12.0896 10.1833 11.8429C11.2685 11.3549 13.1072 10.9407 16.2851 10.8827C21.0933 10.7949 22.9901 11.4307 24.2319 11.8556C24.6296 11.9916 24.8832 12.0763 25.1353 12.1158C25.4879 12.171 26.2572 12.197 27.1175 12.2033C27.8954 12.2091 28.6942 12.199 29.2057 12.1901C29.247 12.1827 29.2894 12.1788 29.3328 12.1788H30.3792C30.8854 11.3948 31.7671 10.8745 32.7716 10.8745H35.8546C36.0433 10.8745 36.2242 10.9495 36.3576 11.0829C36.4911 11.2163 36.566 11.3973 36.566 11.586L36.566 24.6294C36.566 25.0223 36.2475 25.3409 35.8546 25.3409H32.7716C31.6357 25.3409 30.6562 24.6759 30.1996 23.7142C29.9812 23.9578 29.6571 24.1023 29.3083 24.0815C28.8927 24.0567 28.2117 24.0301 27.5051 24.0604C26.7804 24.0915 26.103 24.1802 25.6556 24.3507C25.1409 24.5467 24.7545 24.9828 23.978 25.9192L23.9765 25.9211C23.2253 26.8269 22.2141 28.0462 20.493 29.4899C18.9378 30.7944 17.9958 32.3255 17.2002 33.6253L17.183 33.6534C16.8368 34.219 16.4988 34.7712 16.1508 35.2067C15.8002 35.6454 15.3652 36.0639 14.7893 36.2344C14.4955 36.3214 14.1909 36.265 13.9542 36.1109C13.3197 35.698 13.0312 35.0643 12.9334 34.4361C12.8378 33.8219 12.9139 33.1668 13.0421 32.5863C13.2982 31.4273 13.8107 30.3587 13.9816 30.0665ZM15.7367 26.8565C15.7366 26.8566 15.7368 26.8585 15.7379 26.8618C15.7373 26.858 15.7368 26.8563 15.7367 26.8565Z" stroke="white" stroke-linejoin="round"/>
<path d="M25.0173 12.8095C25.8594 12.9415 28.3939 12.9129 29.3704 12.8963C29.5849 12.8927 29.7598 13.0654 29.7598 13.2799V22.9729C29.7598 23.198 29.5675 23.3756 29.3428 23.3622C28.4858 23.311 26.513 23.2506 25.3945 23.6766C23.9371 24.2317 23.3578 26.1425 20.0279 28.9357C16.8746 31.5807 16.1187 35.0874 14.5795 35.5431C14.4968 35.5676 14.4067 35.5525 14.3344 35.5055C12.6601 34.4158 14.3098 30.892 14.5879 30.4165C15.0706 29.591 17.0726 27.1181 16.244 26.3786C15.858 25.9868 14.1318 25.7729 13.5469 25.7825C13.0548 25.7906 11.9152 26.1048 10.0837 26.4737C10.061 26.4783 10.0365 26.481 10.0134 26.4811C8.18591 26.4895 7.80447 24.8189 8.10396 23.6807C8.19837 23.3219 8.00409 22.3476 7.82843 22.0208C7.4491 21.3151 7.49232 20.2449 8.11834 19.5922C8.33414 19.3672 8.36868 18.9353 8.16033 18.7034C7.39289 17.8491 7.60758 16.7578 8.4927 16.0167C8.78372 15.773 9.12857 14.6948 9.13763 14.3153C9.14599 13.9652 9.21201 13.6372 9.26052 13.5134C9.37483 13.2215 10.0206 11.6993 16.2902 11.5849C22.5598 11.4704 23.7028 12.6035 25.0173 12.8095Z" fill="#D87714"/>
<path d="M32.7711 11.584C31.5923 11.584 30.6367 12.5396 30.6367 13.7184L30.6367 22.493C30.6367 23.6718 31.5923 24.6274 32.7711 24.6274L35.8541 24.6274L35.8541 11.584L32.7711 11.584Z" fill="#DB0007"/>
</svg>
