<svg width="375" height="225" viewBox="0 0 375 225" fill="none" xmlns="http://www.w3.org/2000/svg">
<ellipse cx="187" cy="195" rx="75" ry="10" fill="#A0A09F" fill-opacity="0.15"/>
<path d="M201.117 74C214.032 74.0001 224.499 84.0591 224.499 96.4697V122.912H230.432C232.641 122.912 234.432 124.703 234.432 126.912V190.419C234.432 192.628 232.641 194.419 230.432 194.419H138C135.791 194.419 134 192.628 134 190.419V126.912C134 124.703 135.791 122.912 138 122.912H142.702V96.4697C142.702 84.0592 153.17 74.0002 166.084 74H201.117ZM166.084 85.96C160.043 85.9602 155.148 90.6645 155.147 96.4697V122.912H212.054V96.4697C212.054 90.6645 207.158 85.9601 201.117 85.96H166.084Z" fill="#A0A09F"/>
<mask id="path-3-outside-1_17_28685" maskUnits="userSpaceOnUse" x="131" y="71" width="107" height="127" fill="black">
<rect fill="white" x="131" y="71" width="107" height="127"/>
<path d="M201.117 74C214.032 74.0001 224.499 84.0591 224.499 96.4697V122.912H230.432C232.641 122.912 234.432 124.703 234.432 126.912V190.419C234.431 192.628 232.641 194.419 230.432 194.419H138C135.791 194.419 134 192.628 134 190.419V126.912C134 124.703 135.791 122.912 138 122.912H142.702V96.4697C142.702 84.0592 153.17 74.0002 166.084 74H201.117ZM166.084 85.96C160.043 85.9602 155.148 90.6645 155.147 96.4697V122.912H212.054V96.4697C212.054 90.6645 207.158 85.9601 201.117 85.96H166.084Z"/>
</mask>
<path d="M201.117 74C214.032 74.0001 224.499 84.0591 224.499 96.4697V122.912H230.432C232.641 122.912 234.432 124.703 234.432 126.912V190.419C234.431 192.628 232.641 194.419 230.432 194.419H138C135.791 194.419 134 192.628 134 190.419V126.912C134 124.703 135.791 122.912 138 122.912H142.702V96.4697C142.702 84.0592 153.17 74.0002 166.084 74H201.117ZM166.084 85.96C160.043 85.9602 155.148 90.6645 155.147 96.4697V122.912H212.054V96.4697C212.054 90.6645 207.158 85.9601 201.117 85.96H166.084Z" fill="#A0A09F"/>
<path d="M201.117 74L201.117 71H201.117V74ZM224.499 96.4697H227.499V96.4697L224.499 96.4697ZM224.499 122.912H221.499V125.912H224.499V122.912ZM234.432 126.912H237.432V126.912L234.432 126.912ZM234.432 190.419L237.432 190.419V190.419H234.432ZM138 194.419L138 197.419H138V194.419ZM134 190.419H131V190.419L134 190.419ZM134 126.912L131 126.912V126.912H134ZM138 122.912V119.912H138L138 122.912ZM142.702 122.912V125.912H145.702V122.912H142.702ZM142.702 96.4697L139.702 96.4697V96.4697H142.702ZM166.084 74V71H166.084L166.084 74ZM166.084 85.96V82.96H166.084L166.084 85.96ZM155.147 96.4697L152.147 96.4697V96.4697H155.147ZM155.147 122.912H152.147V125.912H155.147V122.912ZM212.054 122.912V125.912H215.054V122.912H212.054ZM212.054 96.4697H215.054V96.4697L212.054 96.4697ZM201.117 85.96L201.117 82.96H201.117V85.96ZM201.117 74L201.117 77C212.488 77.0001 221.499 85.8274 221.499 96.4697L224.499 96.4697L227.499 96.4697C227.499 82.2909 215.575 71.0001 201.117 71L201.117 74ZM224.499 96.4697H221.499V122.912H224.499H227.499V96.4697H224.499ZM224.499 122.912V125.912H230.432V122.912V119.912H224.499V122.912ZM230.432 122.912V125.912C230.984 125.912 231.432 126.36 231.432 126.912L234.432 126.912L237.432 126.912C237.432 123.046 234.298 119.912 230.432 119.912V122.912ZM234.432 126.912H231.432V190.419H234.432H237.432V126.912H234.432ZM234.432 190.419L231.432 190.419C231.432 190.971 230.984 191.419 230.432 191.419V194.419V197.419C234.298 197.419 237.431 194.285 237.432 190.419L234.432 190.419ZM230.432 194.419V191.419H138V194.419V197.419H230.432V194.419ZM138 194.419L138 191.419C137.448 191.419 137 190.971 137 190.419L134 190.419L131 190.419C131 194.285 134.134 197.419 138 197.419L138 194.419ZM134 190.419H137V126.912H134H131V190.419H134ZM134 126.912L137 126.912C137 126.36 137.448 125.912 138 125.912L138 122.912L138 119.912C134.134 119.912 131 123.046 131 126.912L134 126.912ZM138 122.912V125.912H142.702V122.912V119.912H138V122.912ZM142.702 122.912H145.702V96.4697H142.702H139.702V122.912H142.702ZM142.702 96.4697L145.702 96.4697C145.702 85.8275 154.713 77.0002 166.084 77L166.084 74L166.084 71C151.626 71.0003 139.702 82.2909 139.702 96.4697L142.702 96.4697ZM166.084 74V77H201.117V74V71H166.084V74ZM166.084 85.96L166.084 82.96C158.5 82.9603 152.148 88.8962 152.147 96.4697L155.147 96.4697L158.147 96.4698C158.148 92.4329 161.586 88.9601 166.084 88.96L166.084 85.96ZM155.147 96.4697H152.147V122.912H155.147H158.147V96.4697H155.147ZM155.147 122.912V125.912H212.054V122.912V119.912H155.147V122.912ZM212.054 122.912H215.054V96.4697H212.054H209.054V122.912H212.054ZM212.054 96.4697L215.054 96.4697C215.054 88.8961 208.701 82.9601 201.117 82.96L201.117 85.96L201.117 88.96C205.615 88.96 209.054 92.4328 209.054 96.4698L212.054 96.4697ZM201.117 85.96V82.96H166.084V85.96V88.96H201.117V85.96Z" fill="white" mask="url(#path-3-outside-1_17_28685)"/>
</svg>
