<svg width="375" height="225" viewBox="0 0 375 225" fill="none" xmlns="http://www.w3.org/2000/svg">
<path fill-rule="evenodd" clip-rule="evenodd" d="M129.594 33.1186C129.594 32.188 130.348 31.4336 131.279 31.4336H244.174C245.104 31.4336 245.859 32.188 245.859 33.1186V167.919C245.859 168.849 245.104 169.604 244.174 169.604H187.726H131.279C130.348 169.604 129.594 168.849 129.594 167.919V33.1186ZM141.175 62.8674C141.175 64.6948 139.693 66.1762 137.866 66.1762C136.038 66.1762 134.557 64.6948 134.557 62.8674C134.557 61.04 136.038 59.5586 137.866 59.5586C139.693 59.5586 141.175 61.04 141.175 62.8674ZM137.866 79.4115C139.693 79.4115 141.175 77.9301 141.175 76.1027C141.175 74.2753 139.693 72.7939 137.866 72.7939C136.038 72.7939 134.557 74.2753 134.557 76.1027C134.557 77.9301 136.038 79.4115 137.866 79.4115ZM141.175 129.044C141.175 130.871 139.693 132.353 137.866 132.353C136.038 132.353 134.557 130.871 134.557 129.044C134.557 127.216 136.038 125.735 137.866 125.735C139.693 125.735 141.175 127.216 141.175 129.044ZM137.866 143.934C139.693 143.934 141.175 142.452 141.175 140.625C141.175 138.797 139.693 137.316 137.866 137.316C136.038 137.316 134.557 138.797 134.557 140.625C134.557 142.452 136.038 143.934 137.866 143.934Z" fill="#F1F1F1"/>
<path d="M150.594 76.8986C150.594 75.9848 151.334 75.2441 152.248 75.2441H221.394C222.308 75.2441 223.049 75.9848 223.049 76.8986V78.6447C223.049 79.5584 222.308 80.2991 221.394 80.2991H152.248C151.334 80.2991 150.594 79.5584 150.594 78.6447V76.8986Z" fill="#A0A09F"/>
<path d="M150.594 47.4103C150.594 46.4966 151.334 45.7559 152.248 45.7559H197.804C198.718 45.7559 199.459 46.4966 199.459 47.4103V49.1565C199.459 50.0702 198.718 50.8109 197.804 50.8109H152.248C151.334 50.8109 150.594 50.0702 150.594 49.1565V47.4103Z" fill="#A0A09F"/>
<path d="M150.594 85.3224C150.594 84.4087 151.334 83.668 152.248 83.668H221.394C222.308 83.668 223.049 84.4087 223.049 85.3224V87.0686C223.049 87.9823 222.308 88.723 221.394 88.723H152.248C151.334 88.723 150.594 87.9823 150.594 87.0686V85.3224Z" fill="#A0A09F"/>
<path d="M150.594 104.701C150.594 103.788 151.334 103.047 152.248 103.047H206.229C207.143 103.047 207.884 103.788 207.884 104.701V106.447C207.884 107.361 207.143 108.102 206.229 108.102H152.248C151.334 108.102 150.594 107.361 150.594 106.447V104.701Z" fill="#A0A09F"/>
<path d="M150.594 135.873C150.594 134.959 151.334 134.219 152.248 134.219H206.229C207.143 134.219 207.884 134.959 207.884 135.873V137.619C207.884 138.533 207.143 139.274 206.229 139.274H152.248C151.334 139.274 150.594 138.533 150.594 137.619V135.873Z" fill="#A0A09F"/>
<path d="M150.594 113.967C150.594 113.053 151.334 112.312 152.248 112.312H217.182C218.096 112.312 218.836 113.053 218.836 113.967V115.713C218.836 116.627 218.096 117.368 217.182 117.368H152.248C151.334 117.368 150.594 116.627 150.594 115.713V113.967Z" fill="#A0A09F"/>
<path d="M150.594 145.141C150.594 144.227 151.334 143.486 152.248 143.486H183.482C184.396 143.486 185.136 144.227 185.136 145.141V146.887C185.136 147.801 184.396 148.541 183.482 148.541H152.248C151.334 148.541 150.594 147.801 150.594 146.887V145.141Z" fill="#A0A09F"/>
<path d="M150.594 54.9923C150.594 54.0786 151.334 53.3379 152.248 53.3379H183.482C184.396 53.3379 185.136 54.0786 185.136 54.9923V56.7385C185.136 57.6522 184.396 58.3929 183.482 58.3929H152.248C151.334 58.3929 150.594 57.6522 150.594 56.7385V54.9923Z" fill="#A0A09F"/>
<path d="M266.079 194.036C266.079 198.223 235.526 201.618 197.836 201.618C160.147 201.618 129.594 198.223 129.594 194.036C129.594 189.848 160.147 186.453 197.836 186.453C235.526 186.453 266.079 189.848 266.079 194.036Z" fill="#A0A09F" fill-opacity="0.15"/>
<g opacity="0.4">
<mask id="mask0_1694_43738" style="mask-type:alpha" maskUnits="userSpaceOnUse" x="218" y="132" width="44" height="44">
<path d="M261.948 153.859C261.948 165.737 252.319 175.366 240.441 175.366C228.563 175.366 218.934 165.737 218.934 153.859C218.934 141.981 228.563 132.352 240.441 132.352C252.319 132.352 261.948 141.981 261.948 153.859Z" fill="#A0A09F" fill-opacity="0.15"/>
</mask>
<g mask="url(#mask0_1694_43738)">
<path d="M129.594 33.1166C129.594 32.186 130.348 31.4316 131.279 31.4316H244.174C245.104 31.4316 245.859 32.186 245.859 33.1166V167.917C245.859 168.847 245.104 169.602 244.174 169.602H187.726H131.279C130.348 169.602 129.594 168.847 129.594 167.917V33.1166Z" fill="#292929"/>
</g>
</g>
<path d="M260.296 152.206C260.296 163.171 251.407 172.059 240.443 172.059C229.478 172.059 220.59 163.171 220.59 152.206C220.59 141.242 229.478 132.354 240.443 132.354C251.407 132.354 260.296 141.242 260.296 152.206Z" fill="#FFBC0D"/>
<path d="M245.04 149.772V152.953L239.189 151.254C237.769 150.841 236.673 150.392 235.9 149.906C235.127 149.421 234.588 148.864 234.283 148.235C233.977 147.588 233.824 146.851 233.824 146.024C233.824 144.604 234.363 143.481 235.442 142.654C236.52 141.827 238.012 141.414 239.917 141.414C241.822 141.414 243.323 141.809 244.42 142.6C245.516 143.391 246.145 144.523 246.307 145.997H242.02C241.948 145.26 241.688 144.757 241.238 144.488C240.789 144.2 240.331 144.056 239.863 144.056C239.27 144.056 238.821 144.218 238.515 144.541C238.21 144.847 238.057 145.269 238.057 145.809C238.057 146.33 238.183 146.779 238.434 147.157C238.704 147.534 239.207 147.849 239.944 148.1L245.04 149.772ZM235.091 154.49V151.308L240.942 153.007C242.344 153.42 243.431 153.879 244.204 154.382C244.995 154.867 245.543 155.424 245.848 156.053C246.154 156.682 246.307 157.41 246.307 158.237C246.307 159.675 245.768 160.798 244.689 161.607C243.611 162.434 242.119 162.847 240.214 162.847C238.291 162.847 236.781 162.452 235.684 161.661C234.606 160.87 233.986 159.738 233.824 158.264H238.111C238.183 159.001 238.443 159.513 238.893 159.801C239.36 160.07 239.818 160.205 240.268 160.205C240.861 160.205 241.31 160.052 241.616 159.747C241.921 159.423 242.074 159.001 242.074 158.48C242.074 157.959 241.939 157.5 241.67 157.105C241.4 156.709 240.906 156.395 240.187 156.161L235.091 154.49Z" fill="white"/>
<path fill-rule="evenodd" clip-rule="evenodd" d="M126.285 33.1188C126.285 30.3608 128.521 28.125 131.279 28.125H244.174C246.932 28.125 249.168 30.3608 249.168 33.1188V130.746C257.632 134.192 263.601 142.498 263.601 152.206C263.601 164.998 253.231 175.368 240.44 175.368C236.711 175.368 233.18 174.484 230.052 172.913H131.279C128.521 172.913 126.285 170.677 126.285 167.919V33.1188ZM230.869 169.604C233.707 171.169 236.97 172.059 240.44 172.059C251.404 172.059 260.293 163.17 260.293 152.206C260.293 143.12 254.189 135.46 245.859 133.102V33.1188C245.859 32.1882 245.105 31.4338 244.174 31.4338H131.279C130.348 31.4338 129.594 32.1882 129.594 33.1188V167.919C129.594 168.85 130.348 169.604 131.279 169.604H230.869ZM137.866 66.1765C139.693 66.1765 141.175 64.6951 141.175 62.8676C141.175 61.0402 139.693 59.5588 137.866 59.5588C136.039 59.5588 134.557 61.0402 134.557 62.8676C134.557 64.6951 136.039 66.1765 137.866 66.1765ZM141.175 76.1029C141.175 77.9304 139.693 79.4118 137.866 79.4118C136.039 79.4118 134.557 77.9304 134.557 76.1029C134.557 74.2755 136.039 72.7941 137.866 72.7941C139.693 72.7941 141.175 74.2755 141.175 76.1029ZM137.866 132.353C139.693 132.353 141.175 130.872 141.175 129.044C141.175 127.217 139.693 125.735 137.866 125.735C136.039 125.735 134.557 127.217 134.557 129.044C134.557 130.872 136.039 132.353 137.866 132.353ZM141.175 140.625C141.175 142.452 139.693 143.934 137.866 143.934C136.039 143.934 134.557 142.452 134.557 140.625C134.557 138.798 136.039 137.316 137.866 137.316C139.693 137.316 141.175 138.798 141.175 140.625Z" fill="white"/>
</svg>
