<svg width="27" height="18" viewBox="0 0 27 18" fill="none" xmlns="http://www.w3.org/2000/svg">
<g clip-path="url(#clip0_109_43794)">
<path d="M0 0H27V6H0V0Z" fill="#FFCE00"/>
<path d="M0 6H27V12H0V6Z" fill="#203899"/>
<path d="M0 12H27V18H0V12Z" fill="#D82B2B"/>
<path d="M14.5579 6.45703L14.7259 7.00903L15.2659 7.17703L14.7979 7.50103L14.8099 8.07703L14.3539 7.72903L13.8139 7.90903L13.9939 7.38103L13.6579 6.92503H14.2219L14.5579 6.45703ZM12.4339 6.45703L12.7579 6.92503H13.3219L12.9859 7.38103L13.1659 7.92103L12.6259 7.72903L12.1699 8.06503L12.1819 7.50103L11.7139 7.16503L12.2539 7.00903L12.4339 6.45703ZM16.5619 7.12903L16.5499 7.70503L17.0179 8.02903L16.4659 8.19703L16.2979 8.73703L15.9739 8.28103H15.3979L15.7459 7.82503L15.5659 7.28503L16.1059 7.47703L16.5619 7.12903ZM10.4299 7.15303L10.9099 7.47703L11.4379 7.26103L11.2819 7.81303L11.6419 8.24503L11.0779 8.26903L10.7659 8.74903L10.5739 8.22103L10.0219 8.07703L10.4659 7.71703L10.4299 7.15303ZM18.2899 8.55703L18.0499 9.08503L18.3499 9.56503L17.7859 9.50503L17.4139 9.93703L17.2939 9.38503L16.7779 9.16903L17.2699 8.88103L17.3059 8.31703L17.7259 8.68903L18.2899 8.55703ZM18.5179 9.90103L18.7699 10.417L19.3339 10.501L18.9259 10.897L19.0219 11.449L18.5179 11.185L18.0139 11.449L18.1099 10.897L17.7019 10.501L18.2659 10.417L18.5179 9.90103ZM8.40194 9.84103L8.65394 10.357L9.21794 10.429L8.80994 10.825L8.90594 11.389L8.40194 11.125L7.89794 11.389L7.99394 10.825L7.58594 10.429L8.14994 10.357L8.40194 9.84103ZM8.77394 8.46103L9.31394 8.62903L9.76994 8.28103V8.85703L10.2379 9.16903L9.69794 9.34903L9.54194 9.90103L9.20594 9.44503L8.64194 9.45703L8.96594 9.00103L8.77394 8.46103Z" fill="white"/>
</g>
<rect x="0.5" y="0.5" width="26" height="17" rx="0.5" stroke="black" stroke-opacity="0.2"/>
<defs>
<clipPath id="clip0_109_43794">
<rect width="27" height="18" rx="1" fill="white"/>
</clipPath>
</defs>
</svg>
