<svg width="27" height="18" viewBox="0 0 27 18" fill="none" xmlns="http://www.w3.org/2000/svg">
<g clip-path="url(#clip0_109_43719)">
<path d="M0 0H27V17.9996H0V0Z" fill="white"/>
<path d="M13.5 9V17.9998H0V9H13.5Z" fill="#0052B4"/>
<path d="M27 0V8.9998H13.5V0H27Z" fill="#D80027"/>
<path d="M6.75069 1.98828L7.37422 3.90723H9.392L7.7596 5.09328L8.38308 7.01224L6.75069 5.82624L5.11829 7.01224L5.74177 5.09328L4.10938 3.90723H6.12715L6.75069 1.98828Z" fill="#0052B4"/>
<path d="M20.2507 10.9883L20.8742 12.9072H22.892L21.2596 14.0933L21.8831 16.0122L20.2507 14.8262L18.6183 16.0122L19.2418 14.0933L17.6094 12.9072H19.6272L20.2507 10.9883Z" fill="#D80027"/>
</g>
<rect x="0.5" y="0.5" width="26" height="17" rx="0.5" stroke="black" stroke-opacity="0.2"/>
<defs>
<clipPath id="clip0_109_43719">
<rect width="27" height="18" rx="1" fill="white"/>
</clipPath>
</defs>
</svg>
