<svg width="375" height="225" viewBox="0 0 375 225" fill="none" xmlns="http://www.w3.org/2000/svg">
<path fill-rule="evenodd" clip-rule="evenodd" d="M79.1071 51H254.893C257.161 51 259 52.8388 259 55.1071V161.893C259 164.161 257.161 166 254.893 166H79.1071C76.8388 166 75 164.161 75 161.893V55.1071C75 52.8388 76.8388 51 79.1071 51Z" fill="#FFBC0D"/>
<path fill-rule="evenodd" clip-rule="evenodd" d="M91.4275 96.1777H116.07C118.339 96.1777 120.177 98.0166 120.177 100.285V112.606C120.177 114.875 118.339 116.713 116.07 116.713H91.4275C89.1591 116.713 87.3203 114.875 87.3203 112.606V100.285C87.3203 98.0166 89.1591 96.1777 91.4275 96.1777Z" fill="white"/>
<path fill-rule="evenodd" clip-rule="evenodd" d="M88.9632 133.143H142.356C143.263 133.143 143.999 133.878 143.999 134.785V138.071C143.999 138.978 143.263 139.714 142.356 139.714H88.9632C88.0558 139.714 87.3203 138.978 87.3203 138.071V134.785C87.3203 133.878 88.0558 133.143 88.9632 133.143Z" fill="white"/>
<path fill-rule="evenodd" clip-rule="evenodd" d="M88.9632 145.465H180.142C181.049 145.465 181.785 146.2 181.785 147.108V150.393C181.785 151.301 181.049 152.036 180.142 152.036H88.9632C88.0558 152.036 87.3203 151.301 87.3203 150.393V147.108C87.3203 146.2 88.0558 145.465 88.9632 145.465Z" fill="white"/>
<path d="M277.064 92.7467V174.253C266.666 184.603 252.33 191 236.5 191C204.744 191 179 165.256 179 133.5C179 101.744 204.744 76 236.5 76C252.33 76 266.666 82.3969 277.064 92.7467Z" fill="#FFBC0D"/>
<rect x="206" y="118" width="62" height="30" rx="15" fill="#EDC8A3"/>
<path d="M218.836 131.225V128.051C219.679 127.898 220.484 127.66 221.251 127.338C222.033 127.016 222.738 126.556 223.367 125.958H226.38V141H222.378V130.328C221.795 130.543 221.205 130.727 220.607 130.88C220.009 131.033 219.419 131.148 218.836 131.225Z" fill="#6F6F6F"/>
<path d="M228.833 141V140.494C228.833 139.206 229.116 138.094 229.684 137.159C230.266 136.208 231.186 135.281 232.444 134.376L234.307 133.042C234.966 132.567 235.434 132.13 235.71 131.731C235.986 131.317 236.124 130.842 236.124 130.305C236.124 129.676 235.986 129.193 235.71 128.856C235.434 128.519 235.035 128.35 234.514 128.35C233.931 128.35 233.486 128.58 233.18 129.04C232.873 129.485 232.681 130.182 232.605 131.133H228.787C228.879 129.385 229.461 128.028 230.535 127.062C231.608 126.081 233.019 125.59 234.767 125.59C235.855 125.59 236.806 125.782 237.619 126.165C238.431 126.533 239.06 127.062 239.505 127.752C239.965 128.427 240.195 129.224 240.195 130.144C240.195 131.095 239.965 131.946 239.505 132.697C239.06 133.448 238.339 134.177 237.343 134.882L235.227 136.377C234.736 136.73 234.353 137.029 234.077 137.274C233.816 137.519 233.647 137.772 233.571 138.033H240.264V141H228.833Z" fill="#6F6F6F"/>
<path d="M247.225 141.368C245.247 141.368 243.752 140.9 242.74 139.965C241.728 139.014 241.153 137.765 241.015 136.216H244.787C244.849 137.075 245.079 137.696 245.477 138.079C245.891 138.462 246.42 138.654 247.064 138.654C247.708 138.654 248.207 138.478 248.559 138.125C248.927 137.757 249.111 137.22 249.111 136.515C249.111 135.856 248.889 135.311 248.444 134.882C248.015 134.453 247.187 134.238 245.96 134.238H245.431V131.823H245.937C246.903 131.823 247.578 131.662 247.961 131.34C248.36 131.018 248.559 130.589 248.559 130.052C248.559 129.531 248.414 129.109 248.122 128.787C247.846 128.465 247.448 128.304 246.926 128.304C245.914 128.304 245.339 128.841 245.201 129.914H241.452C241.621 128.58 242.173 127.53 243.108 126.763C244.059 125.981 245.37 125.59 247.041 125.59C248.145 125.59 249.111 125.759 249.939 126.096C250.767 126.433 251.411 126.916 251.871 127.545C252.347 128.158 252.584 128.91 252.584 129.799C252.584 130.443 252.431 131.056 252.124 131.639C251.818 132.222 251.266 132.697 250.468 133.065C251.174 133.341 251.718 133.678 252.101 134.077C252.5 134.476 252.768 134.905 252.906 135.365C253.06 135.825 253.136 136.277 253.136 136.722C253.136 137.703 252.891 138.539 252.4 139.229C251.91 139.919 251.22 140.448 250.33 140.816C249.456 141.184 248.421 141.368 247.225 141.368Z" fill="#6F6F6F"/>
<path fill-rule="evenodd" clip-rule="evenodd" d="M236.5 183C263.838 183 286 160.838 286 133.5C286 106.162 263.838 84 236.5 84C209.162 84 187 106.162 187 133.5C187 160.838 209.162 183 236.5 183ZM236.5 191C268.256 191 294 165.256 294 133.5C294 101.744 268.256 76 236.5 76C204.744 76 179 101.744 179 133.5C179 165.256 204.744 191 236.5 191Z" fill="#DB0007"/>
<path fill-rule="evenodd" clip-rule="evenodd" d="M272.697 168.697C275.626 165.768 280.374 165.768 283.303 168.697L300.303 185.697C303.232 188.626 303.232 193.374 300.303 196.303C297.374 199.232 292.626 199.232 289.697 196.303L272.697 179.303C269.768 176.374 269.768 171.626 272.697 168.697Z" fill="#DB0007"/>
<mask id="path-10-outside-1_17_28596" maskUnits="userSpaceOnUse" x="72" y="48" width="234" height="154" fill="black">
<rect fill="white" x="72" y="48" width="234" height="154"/>
<path d="M254.893 51C257.161 51 259 52.8391 259 55.1074V80.5693C259.53 80.795 260.056 81.0285 260.578 81.2695C260.636 81.2963 260.694 81.3227 260.752 81.3496C260.839 81.3902 260.926 81.4316 261.013 81.4727C261.338 81.6263 261.662 81.7819 261.984 81.9414L262.055 81.9766C262.606 82.2504 263.152 82.5334 263.692 82.8242C263.747 82.8534 263.801 82.8818 263.855 82.9111C263.983 82.9805 264.111 83.0508 264.238 83.1211C264.318 83.1648 264.397 83.2088 264.476 83.2529C264.817 83.4432 265.155 83.637 265.492 83.834C265.551 83.8681 265.609 83.9022 265.667 83.9365C265.739 83.9789 265.81 84.0218 265.882 84.0645C266.011 84.1415 266.141 84.2179 266.27 84.2959C266.336 84.3361 266.402 84.3775 266.468 84.418C266.614 84.5076 266.761 84.5976 266.906 84.6885C267.361 84.9722 267.811 85.2626 268.257 85.5586C268.575 85.7696 268.891 85.9831 269.204 86.2002C269.463 86.3793 269.719 86.561 269.975 86.7441C270.095 86.8305 270.215 86.9167 270.335 87.0039C270.602 87.1989 270.868 87.3963 271.132 87.5957C271.402 87.7999 271.671 88.006 271.938 88.2148C272.004 88.2672 272.07 88.3204 272.137 88.373C272.256 88.4673 272.375 88.562 272.493 88.6572C273.156 89.1903 273.808 89.7375 274.446 90.2988C274.494 90.3409 274.542 90.3826 274.59 90.4248C274.879 90.6804 275.165 90.939 275.448 91.2002C275.503 91.2505 275.558 91.3001 275.612 91.3506C275.73 91.4595 275.846 91.5698 275.962 91.6797C276.004 91.719 276.045 91.7584 276.087 91.7979C287.12 102.275 294 117.084 294 133.5C294 146.446 289.721 158.391 282.502 168.002C282.781 168.212 283.05 168.442 283.304 168.696L300.304 185.696C303.233 188.625 303.233 193.375 300.304 196.304C297.375 199.233 292.625 199.233 289.696 196.304L272.696 179.304C272.486 179.094 272.293 178.872 272.113 178.645C272.055 178.691 271.996 178.738 271.938 178.784C271.671 178.993 271.402 179.199 271.132 179.403C271.027 179.483 270.921 179.563 270.815 179.642C270.537 179.849 270.257 180.053 269.975 180.255C269.889 180.316 269.803 180.378 269.717 180.439C269.265 180.76 268.808 181.073 268.347 181.381C267.993 181.617 267.636 181.849 267.276 182.077C267.042 182.226 266.806 182.374 266.569 182.52C266.47 182.581 266.37 182.642 266.27 182.703C266.195 182.749 266.119 182.793 266.044 182.838C265.919 182.913 265.793 182.988 265.667 183.062C265.609 183.097 265.551 183.131 265.492 183.165C265.155 183.362 264.817 183.556 264.476 183.746C264.397 183.79 264.318 183.834 264.238 183.878C264.111 183.948 263.983 184.019 263.855 184.088C263.801 184.117 263.747 184.146 263.692 184.175C263.337 184.366 262.979 184.554 262.619 184.738C262.089 185.009 261.553 185.271 261.013 185.526C260.926 185.567 260.839 185.609 260.752 185.649C260.694 185.676 260.636 185.703 260.578 185.729C260.006 185.993 259.43 186.25 258.849 186.495C258.483 186.649 258.115 186.799 257.746 186.946C257.682 186.972 257.617 186.998 257.553 187.023C257.479 187.053 257.404 187.081 257.33 187.109C256.649 187.374 255.961 187.627 255.268 187.866C255.002 187.958 254.735 188.048 254.467 188.136C254.389 188.161 254.312 188.188 254.234 188.213C253.904 188.32 253.573 188.422 253.24 188.523C253.04 188.584 252.84 188.644 252.639 188.703C252.349 188.788 252.058 188.87 251.767 188.95C251.686 188.972 251.606 188.995 251.525 189.017C251.437 189.04 251.349 189.063 251.261 189.086C251.122 189.123 250.983 189.16 250.844 189.195C250.758 189.217 250.672 189.239 250.586 189.261C250.444 189.296 250.302 189.333 250.16 189.367C250.017 189.402 249.873 189.435 249.729 189.469C249.643 189.489 249.556 189.51 249.469 189.53C249.122 189.61 248.775 189.686 248.426 189.76C248.304 189.785 248.183 189.812 248.061 189.837C247.218 190.009 246.368 190.161 245.513 190.296C245.004 190.376 244.493 190.45 243.98 190.517C243.811 190.539 243.642 190.56 243.473 190.58C243.166 190.617 242.858 190.652 242.55 190.685C242.403 190.7 242.257 190.714 242.11 190.729C241.714 190.767 241.317 190.802 240.918 190.832C240.893 190.834 240.868 190.835 240.843 190.837C240.488 190.863 240.133 190.886 239.776 190.906C239.508 190.921 239.239 190.935 238.97 190.946C238.151 190.981 237.327 191 236.5 191C225.584 191 215.378 187.958 206.685 182.676C206.289 182.436 205.897 182.191 205.508 181.941C199.017 177.78 193.419 172.349 189.061 166H79.1074C76.8391 166 75 164.161 75 161.893V55.1074C75 52.8391 76.8391 51 79.1074 51H254.893ZM277.063 161.871C282.693 153.837 286 144.055 286 133.5C286 122.944 282.694 113.162 277.063 105.128V161.871Z"/>
</mask>
<path d="M259 80.5693H256V82.5529L257.825 83.3297L259 80.5693ZM260.578 81.2695L259.32 83.9932L260.578 81.2695ZM260.752 81.3496L262.019 78.6302L260.752 81.3496ZM261.013 81.4727L259.732 84.1857L261.013 81.4727ZM261.984 81.9414L263.326 79.2581L263.316 79.253L261.984 81.9414ZM262.055 81.9766L260.713 84.6599L260.72 84.6631L262.055 81.9766ZM263.692 82.8242L262.272 85.4664L263.692 82.8242ZM263.855 82.9111L265.285 80.2735L263.855 82.9111ZM264.238 83.1211L262.789 85.7478L264.238 83.1211ZM264.476 83.2529L265.937 80.6331L264.476 83.2529ZM265.492 83.834L267.007 81.2445L265.492 83.834ZM265.667 83.9365L264.143 86.5206L265.667 83.9365ZM265.882 84.0645L267.417 81.487L265.882 84.0645ZM266.27 84.2959L264.714 86.8612L266.27 84.2959ZM266.468 84.418L268.034 81.859L266.468 84.418ZM266.906 84.6885L265.318 87.2333L266.906 84.6885ZM268.257 85.5586L269.916 83.0591L268.257 85.5586ZM269.204 86.2002L267.496 88.6663L269.204 86.2002ZM269.975 86.7441L271.723 84.3063L269.975 86.7441ZM270.335 87.0039L268.568 89.4282L270.335 87.0039ZM271.132 87.5957L272.94 85.2022V85.2022L271.132 87.5957ZM271.938 88.2148L270.087 90.5762L271.938 88.2148ZM272.137 88.373L273.998 86.0199L272.137 88.373ZM272.493 88.6572L270.614 90.9956L272.493 88.6572ZM274.446 90.2988L276.427 88.0456L274.446 90.2988ZM274.59 90.4248L272.602 92.6714L274.59 90.4248ZM275.448 91.2002L277.481 88.9938L275.448 91.2002ZM275.612 91.3506L273.571 93.5492L275.612 91.3506ZM275.962 91.6797L278.021 89.4981L275.962 91.6797ZM276.087 91.7979L274.021 93.9733L276.087 91.7979ZM282.502 168.002L280.103 166.2L278.303 168.597L280.698 170.399L282.502 168.002ZM300.304 185.696L302.425 183.575L300.304 185.696ZM289.696 196.304L287.575 198.425L289.696 196.304ZM272.113 178.645L274.466 176.783L272.606 174.432L270.254 176.29L272.113 178.645ZM271.938 178.784L273.788 181.145L271.938 178.784ZM271.132 179.403L269.323 177.01L271.132 179.403ZM270.815 179.642L272.608 182.047L270.815 179.642ZM269.975 180.255L268.226 177.817L269.975 180.255ZM269.717 180.439L271.452 182.887L269.717 180.439ZM268.347 181.381L266.683 178.884L268.347 181.381ZM267.276 182.077L268.884 184.61L267.276 182.077ZM266.569 182.52L264.998 179.964L266.569 182.52ZM266.27 182.703L267.825 185.268L266.27 182.703ZM266.044 182.838L264.5 180.266L266.044 182.838ZM265.667 183.062L267.191 185.647L265.667 183.062ZM265.492 183.165L263.977 180.576L265.492 183.165ZM264.476 183.746L265.937 186.366L264.476 183.746ZM264.238 183.878L262.789 181.251L264.238 183.878ZM263.855 184.088L265.285 186.726L263.855 184.088ZM263.692 184.175L262.272 181.533L263.692 184.175ZM262.619 184.738L263.984 187.41L262.619 184.738ZM261.013 185.526L259.732 182.813L261.013 185.526ZM260.752 185.649L262.019 188.369L260.752 185.649ZM260.578 185.729L259.32 183.006L260.578 185.729ZM258.849 186.495L260.016 189.259L258.849 186.495ZM257.746 186.946L256.637 184.159L257.746 186.946ZM257.553 187.023L258.652 189.815L257.553 187.023ZM257.33 187.109L256.243 184.313H256.243L257.33 187.109ZM255.268 187.866L256.246 190.702L255.268 187.866ZM254.467 188.136L253.53 185.286L254.467 188.136ZM254.234 188.213L255.159 191.067L254.234 188.213ZM253.24 188.523L252.368 185.653L253.24 188.523ZM252.639 188.703L253.479 191.583L252.639 188.703ZM251.767 188.95L250.972 186.057L251.767 188.95ZM251.525 189.017L252.307 191.913L251.525 189.017ZM251.261 189.086L250.493 186.186L251.261 189.086ZM250.844 189.195L251.59 192.101L250.844 189.195ZM250.586 189.261L249.853 186.352L250.586 189.261ZM250.16 189.367L250.87 192.282L250.16 189.367ZM249.729 189.469L249.042 186.549L249.729 189.469ZM249.469 189.53L250.143 192.454L249.469 189.53ZM248.426 189.76L247.807 186.824L248.426 189.76ZM248.061 189.837L248.661 192.776L248.061 189.837ZM245.513 190.296L245.046 187.332L245.513 190.296ZM243.98 190.517L244.367 193.492L243.98 190.517ZM243.473 190.58L243.113 187.602L243.473 190.58ZM242.55 190.685L242.862 193.668L242.55 190.685ZM242.11 190.729L241.821 187.742L242.11 190.729ZM240.918 190.832L241.145 193.823L240.918 190.832ZM240.843 190.837L240.619 187.845L240.843 190.837ZM239.776 190.906L239.945 193.902L239.776 190.906ZM238.97 190.946L238.843 187.949L238.97 190.946ZM206.685 182.676L205.127 185.24L206.685 182.676ZM205.508 181.941L207.127 179.416L205.508 181.941ZM189.061 166L191.534 164.302L190.64 163H189.061V166ZM277.063 161.871H274.063V171.38L279.52 163.593L277.063 161.871ZM277.063 105.128L279.52 103.406L274.063 95.6191V105.128H277.063ZM254.893 51V54C255.504 54 256 54.496 256 55.1074H259H262C262 51.1823 258.818 48 254.893 48V51ZM259 55.1074H256V80.5693H259H262V55.1074H259ZM259 80.5693L257.825 83.3297C258.327 83.5433 258.825 83.7646 259.32 83.9932L260.578 81.2695L261.836 78.5459C261.287 78.2925 260.733 78.0467 260.175 77.809L259 80.5693ZM260.578 81.2695L259.32 83.9932C259.406 84.0325 259.428 84.0425 259.485 84.069L260.752 81.3496L262.019 78.6302C261.96 78.6028 261.867 78.5601 261.836 78.5459L260.578 81.2695ZM260.752 81.3496L259.485 84.069C259.564 84.1058 259.627 84.1358 259.732 84.1857L261.013 81.4727L262.293 78.7597C262.225 78.7274 262.114 78.6746 262.019 78.6302L260.752 81.3496ZM261.013 81.4727L259.732 84.1857C260.046 84.3337 260.352 84.4809 260.653 84.6298L261.984 81.9414L263.316 79.253C262.972 79.0829 262.63 78.9188 262.293 78.7597L261.013 81.4727ZM261.984 81.9414L260.643 84.6247L260.713 84.6598L262.055 81.9766L263.396 79.2933L263.326 79.2581L261.984 81.9414ZM262.055 81.9766L260.72 84.6631C261.24 84.9217 261.757 85.1899 262.272 85.4664L263.692 82.8242L265.113 80.182C264.546 79.8769 263.971 79.5791 263.39 79.29L262.055 81.9766ZM263.692 82.8242L262.272 85.4664C262.421 85.5469 262.333 85.4984 262.426 85.5488L263.855 82.9111L265.285 80.2735C265.244 80.2512 265.205 80.2307 265.178 80.2164C265.147 80.2 265.13 80.191 265.113 80.182L263.692 82.8242ZM263.855 82.9111L262.426 85.5488C262.542 85.6118 262.66 85.6765 262.789 85.7478L264.238 83.1211L265.688 80.4944C265.562 80.4251 265.424 80.3492 265.285 80.2735L263.855 82.9111ZM264.238 83.1211L262.789 85.7478C262.862 85.7879 262.936 85.8291 263.014 85.8727L264.476 83.2529L265.937 80.6331C265.857 80.5886 265.773 80.5417 265.688 80.4944L264.238 83.1211ZM264.476 83.2529L263.014 85.8727C263.336 86.0527 263.658 86.2364 263.977 86.4234L265.492 83.834L267.007 81.2445C266.653 81.0376 266.297 80.8337 265.937 80.6331L264.476 83.2529ZM265.492 83.834L263.977 86.4234C264.036 86.458 264.09 86.4894 264.143 86.5206L265.667 83.9365L267.191 81.3524C267.127 81.315 267.065 81.2782 267.007 81.2445L265.492 83.834ZM265.667 83.9365L264.143 86.5206C264.208 86.5589 264.261 86.5907 264.347 86.6419L265.882 84.0645L267.417 81.487C267.36 81.4529 267.27 81.3988 267.191 81.3524L265.667 83.9365ZM265.882 84.0645L264.347 86.6419C264.493 86.7289 264.599 86.7913 264.714 86.8612L266.27 84.2959L267.825 81.7306C267.683 81.6445 267.53 81.554 267.417 81.487L265.882 84.0645ZM266.27 84.2959L264.714 86.8612C264.797 86.9114 264.77 86.8961 264.902 86.9769L266.468 84.418L268.034 81.859C268.033 81.8589 267.875 81.7609 267.825 81.7306L266.27 84.2959ZM266.468 84.418L264.902 86.9769C265.046 87.0648 265.183 87.1494 265.318 87.2333L266.906 84.6885L268.495 82.1436C268.338 82.0457 268.183 81.9504 268.034 81.859L266.468 84.418ZM266.906 84.6885L265.318 87.2333C265.747 87.5014 266.174 87.7765 266.598 88.0581L268.257 85.5586L269.916 83.0591C269.448 82.7487 268.975 82.4431 268.495 82.1436L266.906 84.6885ZM268.257 85.5586L266.598 88.0581C266.902 88.2601 267.201 88.4623 267.496 88.6663L269.204 86.2002L270.912 83.7341C270.58 83.5039 270.247 83.2791 269.916 83.0591L268.257 85.5586ZM269.204 86.2002L267.496 88.6663C267.738 88.8338 267.98 89.0057 268.226 89.182L269.975 86.7441L271.723 84.3063C271.458 84.1162 271.188 83.9248 270.912 83.7341L269.204 86.2002ZM269.975 86.7441L268.226 89.182C268.349 89.2703 268.459 89.3492 268.568 89.4282L270.335 87.0039L272.102 84.5796C271.971 84.4842 271.841 84.3907 271.723 84.3063L269.975 86.7441ZM270.335 87.0039L268.568 89.4282C268.82 89.612 269.072 89.7991 269.323 89.9892L271.132 87.5957L272.94 85.2022C272.664 84.9935 272.385 84.7857 272.102 84.5796L270.335 87.0039ZM271.132 87.5957L269.323 89.9892C269.583 90.1854 269.837 90.3805 270.087 90.5762L271.938 88.2148L273.788 85.8535C273.505 85.6315 273.221 85.4145 272.94 85.2022L271.132 87.5957ZM271.938 88.2148L270.087 90.5762C270.159 90.6328 270.164 90.6376 270.276 90.7262L272.137 88.373L273.998 86.0199C273.977 86.0033 273.849 85.9015 273.788 85.8535L271.938 88.2148ZM272.137 88.373L270.276 90.7262C270.389 90.8155 270.501 90.9053 270.614 90.9956L272.493 88.6572L274.372 86.3188C274.248 86.2188 274.123 86.1192 273.998 86.0199L272.137 88.373ZM272.493 88.6572L270.614 90.9956C271.243 91.5014 271.861 92.0202 272.466 92.552L274.446 90.2988L276.427 88.0456C275.755 87.4547 275.07 86.8791 274.372 86.3188L272.493 88.6572ZM274.446 90.2988L272.466 92.552C272.535 92.613 272.555 92.6301 272.602 92.6714L274.59 90.4248L276.578 88.1782C276.529 88.1351 276.453 88.0687 276.427 88.0456L274.446 90.2988ZM274.59 90.4248L272.602 92.6714C272.875 92.9129 273.146 93.1581 273.416 93.4066L275.448 91.2002L277.481 88.9938C277.184 88.7198 276.883 88.4478 276.578 88.1782L274.59 90.4248ZM275.448 91.2002L273.416 93.4066C273.52 93.5029 273.506 93.4885 273.571 93.5492L275.612 91.3506L277.653 89.152C277.61 89.1118 277.486 88.998 277.481 88.9938L275.448 91.2002ZM275.612 91.3506L273.571 93.5492C273.676 93.6468 273.774 93.74 273.903 93.8613L275.962 91.6797L278.021 89.4981C277.917 89.3997 277.783 89.2722 277.653 89.152L275.612 91.3506ZM275.962 91.6797L273.903 93.8613C273.947 93.903 273.984 93.9378 274.021 93.9733L276.087 91.7979L278.153 89.6224C278.107 89.5789 278.06 89.5351 278.021 89.4981L275.962 91.6797ZM276.087 91.7979L274.021 93.9733C284.483 103.908 291 117.94 291 133.5H294H297C297 116.228 289.757 100.642 278.153 89.6224L276.087 91.7979ZM294 133.5H291C291 145.773 286.946 157.091 280.103 166.2L282.502 168.002L284.901 169.804C292.497 159.692 297 147.118 297 133.5H294ZM282.502 168.002L280.698 170.399C280.874 170.531 281.035 170.671 281.182 170.818L283.304 168.696L285.425 166.575C285.064 166.214 284.688 165.892 284.306 165.605L282.502 168.002ZM283.304 168.696L281.182 170.818L298.182 187.818L300.304 185.696L302.425 183.575L285.425 166.575L283.304 168.696ZM300.304 185.696L298.182 187.818C299.94 189.575 299.94 192.425 298.182 194.182L300.304 196.304L302.425 198.425C306.526 194.325 306.526 187.675 302.425 183.575L300.304 185.696ZM300.304 196.304L298.182 194.182C296.425 195.94 293.575 195.94 291.818 194.182L289.696 196.304L287.575 198.425C291.675 202.526 298.325 202.526 302.425 198.425L300.304 196.304ZM289.696 196.304L291.818 194.182L274.818 177.182L272.696 179.304L270.575 181.425L287.575 198.425L289.696 196.304ZM272.696 179.304L274.818 177.182C274.703 177.068 274.587 176.937 274.466 176.783L272.113 178.645L269.76 180.506C269.999 180.808 270.269 181.119 270.575 181.425L272.696 179.304ZM272.113 178.645L270.254 176.29C270.136 176.384 270.161 176.365 270.087 176.423L271.938 178.784L273.788 181.145C273.829 181.113 273.867 181.083 273.897 181.059C273.93 181.033 273.951 181.016 273.973 180.999L272.113 178.645ZM271.938 178.784L270.087 176.423C269.837 176.619 269.583 176.814 269.323 177.01L271.132 179.403L272.94 181.797C273.221 181.585 273.505 181.368 273.788 181.145L271.938 178.784ZM271.132 179.403L269.323 177.01C269.211 177.094 269.118 177.165 269.023 177.236L270.815 179.642L272.608 182.047C272.724 181.961 272.842 181.871 272.94 181.797L271.132 179.403ZM270.815 179.642L269.023 177.236C268.764 177.429 268.499 177.621 268.226 177.817L269.975 180.255L271.723 182.693C272.014 182.484 272.31 182.269 272.608 182.047L270.815 179.642ZM269.975 180.255L268.226 177.817C268.131 177.885 268.059 177.937 267.982 177.992L269.717 180.439L271.452 182.887C271.547 182.819 271.647 182.748 271.723 182.693L269.975 180.255ZM269.717 180.439L267.982 177.992C267.555 178.295 267.122 178.592 266.683 178.884L268.347 181.381L270.01 183.877C270.494 183.555 270.975 183.225 271.452 182.887L269.717 180.439ZM268.347 181.381L266.683 178.884C266.347 179.108 266.009 179.328 265.668 179.544L267.276 182.077L268.884 184.61C269.263 184.37 269.638 184.126 270.01 183.877L268.347 181.381ZM267.276 182.077L265.668 179.544C265.442 179.688 265.22 179.828 264.998 179.964L266.569 182.52L268.14 185.075C268.393 184.92 268.641 184.764 268.884 184.61L267.276 182.077ZM266.569 182.52L264.998 179.964C264.894 180.028 264.804 180.083 264.714 180.138L266.27 182.703L267.825 185.268C267.935 185.202 268.045 185.134 268.14 185.075L266.569 182.52ZM266.27 182.703L264.714 180.138C264.634 180.186 264.624 180.191 264.5 180.266L266.044 182.838L267.588 185.41C267.614 185.394 267.755 185.311 267.825 185.268L266.27 182.703ZM266.044 182.838L264.5 180.266C264.377 180.339 264.259 180.41 264.143 180.478L265.667 183.062L267.191 185.647C267.327 185.567 267.46 185.487 267.588 185.41L266.044 182.838ZM265.667 183.062L264.143 180.478C264.09 180.51 264.036 180.541 263.977 180.576L265.492 183.165L267.007 185.754C267.065 185.721 267.127 185.684 267.191 185.647L265.667 183.062ZM265.492 183.165L263.977 180.576C263.658 180.763 263.336 180.946 263.014 181.126L264.476 183.746L265.937 186.366C266.297 186.165 266.653 185.961 267.007 185.754L265.492 183.165ZM264.476 183.746L263.014 181.126C262.936 181.17 262.862 181.211 262.789 181.251L264.238 183.878L265.688 186.505C265.773 186.457 265.857 186.41 265.937 186.366L264.476 183.746ZM264.238 183.878L262.789 181.251C262.66 181.322 262.542 181.387 262.426 181.45L263.855 184.088L265.285 186.726C265.424 186.65 265.562 186.574 265.688 186.505L264.238 183.878ZM263.855 184.088L262.426 181.45C262.333 181.501 262.421 181.452 262.272 181.533L263.692 184.175L265.113 186.817C265.13 186.808 265.147 186.799 265.178 186.783C265.205 186.768 265.244 186.748 265.285 186.726L263.855 184.088ZM263.692 184.175L262.272 181.533C261.931 181.716 261.592 181.894 261.255 182.067L262.619 184.738L263.984 187.41C264.366 187.215 264.743 187.016 265.113 186.817L263.692 184.175ZM262.619 184.738L261.255 182.067C260.754 182.322 260.247 182.57 259.732 182.813L261.013 185.526L262.293 188.239C262.859 187.973 263.423 187.697 263.984 187.41L262.619 184.738ZM261.013 185.526L259.732 182.813C259.627 182.863 259.564 182.893 259.485 182.93L260.752 185.649L262.019 188.369C262.114 188.324 262.225 188.272 262.293 188.239L261.013 185.526ZM260.752 185.649L259.485 182.93C259.428 182.957 259.406 182.967 259.32 183.006L260.578 185.729L261.836 188.453C261.866 188.439 261.96 188.396 262.019 188.369L260.752 185.649ZM260.578 185.729L259.32 183.006C258.775 183.258 258.229 183.5 257.682 183.731L258.849 186.495L260.016 189.259C260.631 188.999 261.238 188.729 261.836 188.453L260.578 185.729ZM258.849 186.495L257.682 183.731C257.339 183.876 256.991 184.018 256.637 184.159L257.746 186.946L258.855 189.734C259.24 189.581 259.627 189.423 260.016 189.259L258.849 186.495ZM257.746 186.946L256.637 184.159C256.543 184.196 256.517 184.207 256.454 184.232L257.553 187.023L258.652 189.815C258.717 189.789 258.821 189.747 258.855 189.734L257.746 186.946ZM257.553 187.023L256.454 184.232C256.367 184.266 256.381 184.26 256.243 184.313L257.33 187.109L258.417 189.905C258.428 189.901 258.59 189.839 258.652 189.815L257.553 187.023ZM257.33 187.109L256.243 184.313C255.597 184.565 254.945 184.804 254.289 185.03L255.268 187.866L256.246 190.702C256.977 190.45 257.701 190.184 258.417 189.905L257.33 187.109ZM255.268 187.866L254.289 185.03C254.038 185.117 253.785 185.202 253.53 185.286L254.467 188.136L255.403 190.986C255.684 190.894 255.965 190.799 256.246 190.702L255.268 187.866ZM254.467 188.136L253.53 185.286C253.376 185.336 253.406 185.328 253.31 185.359L254.234 188.213L255.159 191.067C255.218 191.048 255.403 190.986 255.403 190.986L254.467 188.136ZM254.234 188.213L253.31 185.359C253.004 185.458 252.692 185.555 252.368 185.653L253.24 188.523L254.112 191.394C254.454 191.29 254.805 191.182 255.159 191.067L254.234 188.213ZM253.24 188.523L252.368 185.653C252.173 185.712 251.985 185.769 251.798 185.823L252.639 188.703L253.479 191.583C253.695 191.52 253.907 191.456 254.112 191.394L253.24 188.523ZM252.639 188.703L251.798 185.823C251.523 185.903 251.248 185.982 250.972 186.057L251.767 188.95L252.561 191.843C252.869 191.759 253.174 191.672 253.479 191.583L252.639 188.703ZM251.767 188.95L250.972 186.057C250.865 186.087 250.819 186.1 250.743 186.12L251.525 189.017L252.307 191.913C252.393 191.89 252.508 191.858 252.561 191.843L251.767 188.95ZM251.525 189.017L250.743 186.12C250.643 186.147 250.652 186.144 250.493 186.186L251.261 189.086L252.029 191.986C252.046 191.982 252.232 191.933 252.307 191.913L251.525 189.017ZM251.261 189.086L250.493 186.186C250.351 186.223 250.224 186.257 250.098 186.29L250.844 189.195L251.59 192.101C251.742 192.062 251.893 192.022 252.029 191.986L251.261 189.086ZM250.844 189.195L250.098 186.29C250.019 186.31 249.938 186.33 249.853 186.352L250.586 189.261L251.319 192.17C251.406 192.148 251.497 192.125 251.59 192.101L250.844 189.195ZM250.586 189.261L249.853 186.352C249.701 186.39 249.577 186.421 249.45 186.452L250.16 189.367L250.87 192.282C251.027 192.244 251.187 192.203 251.319 192.17L250.586 189.261ZM250.16 189.367L249.45 186.452C249.321 186.484 249.213 186.508 249.042 186.549L249.729 189.469L250.417 192.389C250.534 192.361 250.713 192.32 250.87 192.282L250.16 189.367ZM249.729 189.469L249.042 186.549C248.928 186.575 248.876 186.588 248.795 186.607L249.469 189.53L250.143 192.454C250.236 192.432 250.357 192.403 250.417 192.389L249.729 189.469ZM249.469 189.53L248.795 186.607C248.47 186.682 248.141 186.754 247.807 186.824L248.426 189.76L249.045 192.695C249.408 192.619 249.774 192.538 250.143 192.454L249.469 189.53ZM248.426 189.76L247.807 186.824C247.653 186.857 247.572 186.875 247.461 186.898L248.061 189.837L248.661 192.776C248.793 192.749 248.955 192.714 249.045 192.695L248.426 189.76ZM248.061 189.837L247.461 186.898C246.665 187.06 245.86 187.204 245.046 187.332L245.513 190.296L245.979 193.259C246.877 193.118 247.771 192.958 248.661 192.776L248.061 189.837ZM245.513 190.296L245.046 187.332C244.562 187.409 244.078 187.479 243.594 187.542L243.98 190.517L244.367 193.492C244.909 193.421 245.446 193.343 245.979 193.259L245.513 190.296ZM243.98 190.517L243.594 187.542C243.436 187.562 243.276 187.582 243.113 187.602L243.473 190.58L243.833 193.558C244.009 193.537 244.187 193.515 244.367 193.492L243.98 190.517ZM243.473 190.58L243.113 187.602C242.819 187.637 242.527 187.671 242.238 187.701L242.55 190.685L242.862 193.668C243.189 193.634 243.513 193.597 243.833 193.558L243.473 190.58ZM242.55 190.685L242.238 187.701C242.103 187.715 241.965 187.729 241.821 187.742L242.11 190.729L242.4 193.715C242.549 193.7 242.704 193.685 242.862 193.668L242.55 190.685ZM242.11 190.729L241.821 187.742C241.443 187.779 241.066 187.812 240.691 187.841L240.918 190.832L241.145 193.823C241.567 193.791 241.985 193.755 242.4 193.715L242.11 190.729ZM240.918 190.832L240.691 187.841C240.7 187.84 240.706 187.84 240.708 187.839C240.709 187.839 240.708 187.839 240.701 187.84C240.697 187.84 240.685 187.841 240.672 187.842C240.659 187.842 240.64 187.844 240.619 187.845L240.843 190.837L241.066 193.829C241.058 193.829 241.052 193.83 241.051 193.83C241.051 193.83 241.052 193.83 241.059 193.829C241.065 193.829 241.077 193.828 241.091 193.827C241.105 193.826 241.124 193.825 241.145 193.823L240.918 190.832ZM240.843 190.837L240.619 187.845C240.285 187.87 239.949 187.892 239.608 187.911L239.776 190.906L239.945 193.902C240.317 193.881 240.691 193.857 241.066 193.829L240.843 190.837ZM239.776 190.906L239.608 187.911C239.351 187.925 239.096 187.938 238.843 187.949L238.97 190.946L239.096 193.944C239.382 193.932 239.665 193.917 239.945 193.902L239.776 190.906ZM238.97 190.946L238.843 187.949C238.062 187.982 237.281 188 236.5 188V191V194C237.374 194 238.239 193.98 239.096 193.944L238.97 190.946ZM236.5 191V188C226.149 188 216.48 185.117 208.242 180.112L206.685 182.676L205.127 185.24C214.277 190.799 225.019 194 236.5 194V191ZM206.685 182.676L208.242 180.112C207.867 179.884 207.495 179.652 207.127 179.416L205.508 181.941L203.889 184.467C204.299 184.73 204.711 184.987 205.127 185.24L206.685 182.676ZM205.508 181.941L207.127 179.416C200.974 175.471 195.666 170.322 191.534 164.302L189.061 166L186.587 167.698C191.171 174.376 197.06 180.089 203.889 184.467L205.508 181.941ZM189.061 166V163H79.1074V166V169H189.061V166ZM79.1074 166V163C78.496 163 78 162.504 78 161.893H75H72C72 165.818 75.1823 169 79.1074 169V166ZM75 161.893H78V55.1074H75H72V161.893H75ZM75 55.1074H78C78 54.496 78.496 54 79.1074 54V51V48C75.1823 48 72 51.1823 72 55.1074H75ZM79.1074 51V54H254.893V51V48H79.1074V51ZM277.063 161.871L279.52 163.593C285.492 155.071 289 144.692 289 133.5H286H283C283 143.419 279.895 152.603 274.607 160.15L277.063 161.871ZM286 133.5H289C289 122.308 285.492 111.928 279.52 103.406L277.063 105.128L274.607 106.85C279.895 114.396 283 123.581 283 133.5H286ZM277.063 105.128H274.063V161.871H277.063H280.063V105.128H277.063Z" fill="white" mask="url(#path-10-outside-1_17_28596)"/>
</svg>
