<svg width="375" height="225" viewBox="0 0 375 225" fill="none" xmlns="http://www.w3.org/2000/svg">
<ellipse cx="181.254" cy="197.122" rx="75.7461" ry="11.579" fill="#A0A09F" fill-opacity="0.15"/>
<mask id="path-2-outside-1_17_28660" maskUnits="userSpaceOnUse" x="87.8164" y="41" width="190" height="156" fill="black">
<rect fill="white" x="87.8164" y="41" width="190" height="156"/>
<path d="M170.387 51.1299C173.15 50.6428 175.812 52.5047 176.3 55.2695L181.188 82.9199C187.583 79.1594 195.038 77 203 77C226.748 77 246 96.195 246 119.873C246 160.85 206.074 193.101 203 193.101C201.881 193.1 195.881 188.826 188.7 181.415L118.924 193.753C116.16 194.24 113.497 192.378 113.01 189.613L91.8936 70.1924C91.4063 67.4276 93.2667 64.7647 96.0303 64.2773L170.387 51.1299ZM203 107C195.82 107 190 112.82 190 120C190 127.18 195.82 133 203 133C210.18 133 216 127.18 216 120C216 112.82 210.18 107 203 107ZM256.773 126.066C262.042 123.9 274.453 119.638 273.987 127.77C273.543 135.572 261.683 130.654 256.668 128.213C255.73 127.757 255.794 126.469 256.773 126.066ZM255.204 94.2686C258.684 89.7582 267.3 79.8623 270.963 87.1367C274.479 94.1165 261.749 95.7859 256.186 96.1797C255.145 96.2542 254.557 95.1068 255.204 94.2686ZM234.53 69.5518C235.19 63.8932 237.48 50.9727 244.366 55.3223C250.975 59.494 240.923 67.4816 236.356 70.6846C235.503 71.2844 234.407 70.6035 234.53 69.5518ZM200.771 44.0127C208.573 44.4575 203.654 56.317 201.213 61.332C200.757 62.2703 199.469 62.206 199.066 61.2266C196.9 55.9577 192.639 43.5471 200.771 44.0127Z"/>
</mask>
<path d="M170.387 51.1299L169.866 48.1754L169.864 48.1757L170.387 51.1299ZM176.3 55.2695L173.345 55.7905L173.346 55.7918L176.3 55.2695ZM181.188 82.9199L178.234 83.4422L178.986 87.6952L182.709 85.5059L181.188 82.9199ZM203 77V74H203L203 77ZM246 119.873L249 119.873V119.873L246 119.873ZM203 193.101L202.999 196.101H203V193.101ZM188.7 181.415L190.855 179.327L189.746 178.184L188.178 178.461L188.7 181.415ZM118.924 193.753L119.445 196.707L119.446 196.707L118.924 193.753ZM113.01 189.613L115.964 189.092L115.964 189.091L113.01 189.613ZM91.8936 70.1924L88.9391 70.7131L88.9394 70.7147L91.8936 70.1924ZM96.0303 64.2773L96.5513 67.2318L96.5526 67.2315L96.0303 64.2773ZM203 107V104H203L203 107ZM190 120H187V120L190 120ZM203 133L203 136H203V133ZM216 120L219 120V120H216ZM256.773 126.066L257.913 128.841L257.914 128.841L256.773 126.066ZM273.987 127.77L270.992 127.598L270.992 127.599L273.987 127.77ZM256.668 128.213L257.981 125.515L257.979 125.514L256.668 128.213ZM255.204 94.2686L257.579 96.1018L257.579 96.1012L255.204 94.2686ZM270.963 87.1367L268.283 88.4859L268.284 88.4865L270.963 87.1367ZM256.186 96.1797L255.974 93.1872L255.971 93.1874L256.186 96.1797ZM234.53 69.5518L237.51 69.9001L237.51 69.8993L234.53 69.5518ZM244.366 55.3223L242.764 57.8587L242.765 57.8591L244.366 55.3223ZM236.356 70.6846L234.634 68.2286L234.632 68.2299L236.356 70.6846ZM200.771 44.0127L200.599 47.0078L200.6 47.0078L200.771 44.0127ZM201.213 61.332L198.515 60.0192L198.515 60.0209L201.213 61.332ZM199.066 61.2266L201.841 60.0867L201.841 60.0859L199.066 61.2266ZM170.387 51.1299L170.907 54.0844C172.041 53.8846 173.146 54.6587 173.345 55.7905L176.3 55.2695L179.254 54.7486C178.479 50.3507 174.26 47.4011 169.866 48.1754L170.387 51.1299ZM176.3 55.2695L173.346 55.7918L178.234 83.4422L181.188 82.9199L184.143 82.3976L179.254 54.7472L176.3 55.2695ZM181.188 82.9199L182.709 85.5059C188.656 82.0089 195.588 80 203 80L203 77L203 74C194.489 74 186.511 76.3098 179.668 80.3339L181.188 82.9199ZM203 77V80C225.1 80 243 97.8602 243 119.873L246 119.873L249 119.873C249 94.5298 228.397 74 203 74V77ZM246 119.873L243 119.873C243 139.409 233.459 157.07 223.294 169.999C218.234 176.436 213.084 181.615 209.037 185.166C207.011 186.944 205.29 188.289 204.02 189.17C203.38 189.614 202.898 189.91 202.577 190.082C202.5 190.123 202.441 190.152 202.397 190.172C202.353 190.193 202.334 190.2 202.338 190.199C202.34 190.198 202.389 190.179 202.476 190.159C202.552 190.14 202.74 190.101 203 190.101V193.101V196.101C203.644 196.101 204.182 195.915 204.449 195.815C204.779 195.691 205.103 195.535 205.402 195.375C206.004 195.054 206.695 194.617 207.441 194.099C208.943 193.057 210.845 191.562 212.994 189.676C217.298 185.9 222.706 180.455 228.011 173.707C238.578 160.267 249 141.314 249 119.873L246 119.873ZM203 193.101L203.001 190.101C203.572 190.101 203.877 190.299 203.614 190.178C203.483 190.117 203.244 189.99 202.886 189.768C202.178 189.329 201.193 188.634 199.977 187.678C197.556 185.775 194.361 182.946 190.855 179.327L188.7 181.415L186.546 183.503C190.221 187.295 193.615 190.309 196.269 192.395C197.591 193.434 198.764 194.271 199.721 194.865C200.195 195.16 200.664 195.425 201.103 195.627C201.411 195.769 202.149 196.1 202.999 196.101L203 193.101ZM188.7 181.415L188.178 178.461L118.401 190.799L118.924 193.753L119.446 196.707L189.223 184.369L188.7 181.415ZM118.924 193.753L118.403 190.798C117.269 190.998 116.164 190.224 115.964 189.092L113.01 189.613L110.055 190.134C110.831 194.533 115.051 197.482 119.445 196.707L118.924 193.753ZM113.01 189.613L115.964 189.091L94.8477 69.67L91.8936 70.1924L88.9394 70.7147L110.056 190.136L113.01 189.613ZM91.8936 70.1924L94.848 69.6717C94.6476 68.5343 95.4235 67.4306 96.5513 67.2318L96.0303 64.2773L95.5093 61.3229C91.11 62.0987 88.165 66.3209 88.9391 70.7131L91.8936 70.1924ZM96.0303 64.2773L96.5526 67.2315L170.909 54.0841L170.387 51.1299L169.864 48.1757L95.5079 61.3232L96.0303 64.2773ZM203 107L203 104C194.164 104 187 111.163 187 120H190H193C193 114.477 197.477 110 203 110L203 107ZM190 120L187 120C187 128.836 194.164 136 203 136L203 133L203 130C197.477 130 193 125.523 193 120L190 120ZM203 133V136C211.837 136 219 128.836 219 120L216 120L213 120C213 125.523 208.523 130 203 130V133ZM216 120H219C219 111.163 211.837 104 203 104V107V110C208.523 110 213 114.477 213 120H216ZM256.773 126.066L257.914 128.841C260.521 127.769 264.577 126.323 267.789 126.045C269.447 125.902 270.333 126.125 270.688 126.339C270.717 126.356 271.059 126.427 270.992 127.598L273.987 127.77L276.982 127.941C277.148 125.046 276.114 122.601 273.781 121.198C271.776 119.991 269.318 119.891 267.272 120.067C263.079 120.43 258.295 122.197 255.633 123.292L256.773 126.066ZM273.987 127.77L270.992 127.599C270.933 128.63 270.624 128.71 270.506 128.767C270.073 128.974 269.123 129.117 267.496 128.867C264.328 128.381 260.456 126.72 257.981 125.515L256.668 128.213L255.355 130.91C257.895 132.147 262.461 134.165 266.587 134.798C268.608 135.108 271.02 135.17 273.091 134.181C275.479 133.041 276.819 130.811 276.982 127.94L273.987 127.77ZM256.668 128.213L257.979 125.514C258.634 125.833 259.034 126.545 258.998 127.268C258.963 127.978 258.519 128.593 257.913 128.841L256.773 126.066L255.633 123.291C252.423 124.61 251.928 129.246 255.357 130.911L256.668 128.213ZM255.204 94.2686L257.579 96.1012C259.301 93.8696 262.09 90.589 264.733 88.7427C266.097 87.7898 266.977 87.54 267.391 87.5474C267.424 87.548 267.756 87.438 268.283 88.4859L270.963 87.1367L273.642 85.7876C272.339 83.1982 270.22 81.5973 267.499 81.5484C265.159 81.5063 262.98 82.6484 261.297 83.824C257.846 86.2346 254.587 90.1572 252.829 92.4359L255.204 94.2686ZM270.963 87.1367L268.284 88.4865C268.748 89.4087 268.521 89.633 268.447 89.7404C268.175 90.1366 267.424 90.7353 265.891 91.3325C262.904 92.4957 258.72 92.9928 255.974 93.1872L256.186 96.1797L256.397 99.1722C259.215 98.9728 264.178 98.4383 268.068 96.9234C269.973 96.1816 272.093 95.0295 273.393 93.1374C274.891 90.9564 274.936 88.3547 273.642 85.7869L270.963 87.1367ZM256.186 96.1797L255.971 93.1874C256.697 93.1354 257.4 93.5516 257.731 94.1969C258.056 94.8304 257.978 95.5842 257.579 96.1018L255.204 94.2686L252.829 92.4353C250.709 95.182 252.595 99.4445 256.4 99.172L256.186 96.1797ZM234.53 69.5518L237.51 69.8993C237.837 67.0997 238.538 62.8513 239.853 59.9073C240.531 58.388 241.156 57.7209 241.515 57.5139C241.544 57.4973 241.772 57.2321 242.764 57.8587L244.366 55.3223L245.968 52.7858C243.517 51.2376 240.876 50.9564 238.518 52.3159C236.491 53.485 235.211 55.5862 234.374 57.4606C232.657 61.3042 231.884 66.3452 231.55 69.2042L234.53 69.5518ZM244.366 55.3223L242.765 57.8591C243.638 58.4102 243.558 58.7196 243.55 58.8497C243.521 59.3296 243.186 60.2295 242.179 61.5312C240.218 64.0667 236.887 66.6477 234.634 68.2286L236.356 70.6846L238.079 73.1406C240.392 71.5184 244.371 68.5042 246.925 65.2023C248.176 63.5852 249.4 61.5058 249.539 59.2146C249.7 56.5737 248.399 54.3202 245.968 52.7854L244.366 55.3223ZM236.356 70.6846L234.632 68.2299C235.228 67.8112 236.044 67.8066 236.659 68.1887C237.264 68.5639 237.586 69.2497 237.51 69.9001L234.53 69.5518L231.551 69.2034C231.147 72.6514 234.962 75.3312 238.081 73.1392L236.356 70.6846ZM200.771 44.0127L200.6 47.0078C201.63 47.0666 201.711 47.3758 201.767 47.4935C201.974 47.9273 202.117 48.8769 201.868 50.5036C201.381 53.6721 199.72 57.544 198.515 60.0192L201.213 61.332L203.91 62.6449C205.147 60.105 207.165 55.5397 207.798 51.4135C208.108 49.3928 208.171 46.9807 207.182 44.9091C206.042 42.5213 203.812 41.1812 200.941 41.0176L200.771 44.0127ZM201.213 61.332L198.515 60.0209C198.833 59.3658 199.545 58.9663 200.268 59.0021C200.978 59.0372 201.592 59.4807 201.841 60.0867L199.066 61.2266L196.291 62.3665C197.611 65.5783 202.245 66.0713 203.911 62.6432L201.213 61.332ZM199.066 61.2266L201.841 60.0859C200.769 57.4791 199.323 53.4234 199.046 50.2111C198.902 48.5534 199.126 47.6668 199.34 47.3116C199.357 47.2832 199.428 46.9407 200.599 47.0078L200.771 44.0127L200.942 41.0176C198.048 40.8519 195.602 41.8861 194.198 44.2184C192.992 46.2239 192.891 48.682 193.068 50.7272C193.43 54.9211 195.197 59.7051 196.292 62.3672L199.066 61.2266Z" fill="white" mask="url(#path-2-outside-1_17_28660)"/>
<path d="M115.996 189.086L94.8805 69.6658C94.6834 68.5465 95.4477 67.4606 96.5575 67.2649L96.5585 67.2648L170.913 54.1174C172.029 53.9207 173.117 54.683 173.313 55.7965L173.313 55.7975L194.429 175.218C194.626 176.337 193.862 177.423 192.753 177.619L192.751 177.62L118.396 190.766C117.28 190.962 116.193 190.201 115.996 189.088L115.996 189.086Z" fill="white" stroke="#D8D8D8" stroke-width="6.06605"/>
<path d="M121.431 167.183C120.035 167.43 118.681 166.368 118.406 164.813C118.132 163.257 119.042 161.797 120.438 161.55L178.948 151.235C180.344 150.989 181.698 152.05 181.972 153.606C182.246 155.161 181.336 156.622 179.94 156.868L121.431 167.183Z" fill="#F1F1F1"/>
<path d="M122.439 177.167C121.446 177.342 120.419 176.223 120.145 174.668C119.871 173.113 120.453 171.71 121.446 171.535L163.053 164.199C164.046 164.024 165.073 165.144 165.347 166.699C165.621 168.254 165.038 169.657 164.046 169.832L122.439 177.167Z" fill="#F1F1F1"/>
<path fill-rule="evenodd" clip-rule="evenodd" d="M163.413 99.6284L163.468 99.9287C163.604 100.71 163.694 101.618 163.097 102.117L163.423 103.869C163.85 104.089 164.057 104.495 164.186 105.183L164.49 106.813C164.539 107.077 164.543 107.319 164.507 107.541C164.811 107.454 165.135 107.515 165.628 107.853C166.328 108.334 166.146 108.653 165.497 108.924C165.745 109.075 165.98 109.31 166.192 109.667L166.238 109.745C166.755 110.678 167.803 110.754 169.38 109.973C168.481 111.83 167.555 112.703 166.603 112.594L166.667 112.937C166.921 114.295 166.24 115.609 165.082 116.201C166.088 116.359 166.935 117.143 167.135 118.214L167.273 119.058L167.292 119.054L167.715 121.32C167.986 121.371 168.199 121.536 168.323 121.877C168.468 122.279 168.304 122.55 167.979 122.736L168.038 123.052C168.452 123.56 168.751 124.143 168.921 124.437L168.99 124.554C169.274 125.025 169.132 124.665 168.738 124.695C168.316 124.726 168.092 124.484 167.597 124.537L167.541 124.543L167.632 125.03C168.06 127.326 166.739 129.576 164.554 130.294L164.471 130.32C158.769 132.075 152.839 133.528 146.682 134.677C140.334 135.862 133.627 136.746 126.562 137.33C124.24 137.522 122.141 135.927 121.668 133.626L121.651 133.54L121.389 132.136L121.243 132.169C120.729 132.293 120.299 132.447 120.384 132.159C120.485 131.819 120.928 131.258 121.527 130.839C121.393 130.814 121.385 130.728 121.333 130.448C121.259 130.051 121.49 129.785 121.839 129.698L121.629 128.574L121.615 128.577L121.168 126.794C120.925 125.493 121.725 124.241 122.973 123.924C121.923 123.672 121.046 122.857 120.751 121.744C120.71 121.755 120.668 121.767 120.625 121.78L120.521 121.812C119.004 122.294 117.677 121.971 117.141 120.81L117.066 120.643C116.869 120.221 116.225 118.873 116.698 119.384C117.224 119.953 117.991 118.777 118.523 118.711C119.329 118.611 119.6 118.299 119.731 117.885C117.867 118.107 118.89 116.433 119.206 116.257L119.231 116.244C119.287 116.215 119.35 116.19 119.427 116.169C118.835 115.536 118.461 114.599 118.638 113.685L118.68 113.473C118.807 112.859 118.943 112.422 119.199 112.093L118.899 110.486C117.949 110.347 117.909 109.292 117.784 108.668C116.19 100.072 127.285 92.7385 138.337 90.445L138.677 90.3761C149.849 88.1652 161.84 91.2001 163.413 99.6284Z" fill="white"/>
<path fill-rule="evenodd" clip-rule="evenodd" d="M138.083 89.1844L138.429 89.1143C151.119 86.603 163.019 90.5842 164.663 99.3953L164.721 99.7107C164.826 100.314 164.868 100.775 164.824 101.252C164.784 101.696 164.666 102.106 164.455 102.466L164.58 103.136L164.646 103.202C165.039 103.61 165.276 104.156 165.417 104.854L165.436 104.95L165.713 106.435L165.783 106.467C165.94 106.541 166.099 106.631 166.259 106.737L166.34 106.791C167.276 107.434 167.529 108.256 167.25 108.955L167.292 109.025L167.346 109.12C167.385 109.19 167.398 109.208 167.45 109.215L167.498 109.22C167.762 109.239 168.212 109.118 168.817 108.818C169.905 108.279 171.055 109.443 170.523 110.542C169.783 112.071 168.959 113.125 168.004 113.602L167.991 113.608L167.988 113.693C167.955 114.492 167.702 115.256 167.273 115.905L167.265 115.915L167.302 115.95C167.828 116.464 168.209 117.135 168.368 117.896L168.385 117.981L168.492 118.634L168.502 118.661C168.513 118.695 168.522 118.731 168.531 118.767L168.542 118.821L168.85 120.473C169.127 120.699 169.344 121.001 169.489 121.366L169.517 121.44C169.703 121.954 169.687 122.446 169.512 122.869L169.497 122.903L169.566 123.011L169.647 123.143L169.727 123.279C169.798 123.4 169.955 123.679 170 123.759C170.008 123.773 170.012 123.78 170.013 123.781L170.076 123.889C170.101 123.93 170.123 123.965 170.146 124.001L170.196 124.08L170.221 124.121C170.239 124.151 170.258 124.185 170.278 124.226C170.299 124.27 170.308 124.288 170.323 124.33L170.37 124.473C170.39 124.558 170.396 124.584 170.402 124.661L170.412 124.802C170.401 125.028 170.399 125.065 170.304 125.293L170.235 125.455C169.972 125.795 169.947 125.827 169.663 125.964L169.565 126.012L169.565 126.012C169.299 126.076 169.252 126.088 169.131 126.084L169.04 126.08L168.982 126.07L168.981 126.109C168.898 128.515 167.363 130.682 165.031 131.49L164.941 131.521L164.847 131.55C159.099 133.32 153.122 134.783 146.919 135.941C140.528 137.134 133.779 138.024 126.672 138.612C123.712 138.857 121.029 136.824 120.422 133.871L120.403 133.774L120.371 133.6L120.337 133.597C119.542 133.497 118.906 132.789 119.151 131.845L119.167 131.787C119.293 131.361 119.592 130.901 119.987 130.482L120.052 130.416C120.023 129.934 120.165 129.499 120.428 129.156L120.443 129.138L120.416 128.998L120.398 128.942L120.383 128.888L119.937 127.105C119.93 127.079 119.924 127.053 119.92 127.027C119.716 125.937 119.997 124.865 120.613 124.044L120.634 124.016L120.538 123.916C120.366 123.73 120.21 123.529 120.072 123.314L120.03 123.248L119.99 123.255C118.273 123.513 116.753 122.907 116.024 121.418L115.986 121.339L115.917 121.186L115.753 120.834L115.657 120.622L115.585 120.458C115.447 120.14 115.356 119.901 115.306 119.69C115.272 119.548 115.253 119.415 115.259 119.253C115.266 119.075 115.302 118.894 115.398 118.702C115.561 118.373 115.86 118.115 116.244 118.021C116.54 117.949 116.803 117.986 117.037 118.08L117.062 118.091L117.189 117.994C117.227 117.964 117.26 117.939 117.29 117.916L117.374 117.856L117.421 117.823L117.401 117.73C117.364 117.532 117.358 117.316 117.386 117.087L117.395 117.021C117.445 116.687 117.58 116.333 117.766 116.014L117.775 116L117.745 115.941C117.384 115.192 117.238 114.348 117.375 113.521L117.393 113.425L117.437 113.205C117.553 112.642 117.678 112.212 117.858 111.843L117.86 111.839L117.782 111.421L117.771 111.414C117.239 111.07 116.905 110.513 116.72 109.828L116.701 109.754C116.667 109.623 116.644 109.512 116.617 109.363L116.572 109.1L116.512 108.762C115.73 104.219 117.995 99.8442 122.524 96.187C126.562 92.9256 132.24 90.397 138.083 89.1844ZM163.469 99.9288L163.414 99.6284C161.841 91.2001 149.85 88.1652 138.678 90.3761L138.338 90.445C127.286 92.7385 116.191 100.072 117.785 108.668C117.802 108.749 117.816 108.836 117.831 108.927C117.935 109.548 118.072 110.365 118.9 110.486L119.2 112.093C118.944 112.422 118.808 112.859 118.681 113.473L118.639 113.685C118.462 114.599 118.836 115.536 119.428 116.169C119.351 116.19 119.288 116.215 119.232 116.244L119.207 116.257C118.891 116.433 117.867 118.107 119.733 117.885C119.601 118.299 119.33 118.611 118.524 118.711C118.325 118.735 118.094 118.915 117.854 119.1C117.453 119.412 117.028 119.741 116.699 119.384L116.653 119.337C116.294 118.988 116.808 120.089 117.029 120.561L117.045 120.595L117.142 120.81C117.678 121.971 119.005 122.294 120.522 121.812L120.626 121.78C120.669 121.767 120.711 121.755 120.752 121.745C121.048 122.857 121.924 123.672 122.974 123.924C121.726 124.241 120.926 125.492 121.169 126.794L121.616 128.576L121.63 128.574L121.84 129.699C121.491 129.785 121.259 130.051 121.334 130.449C121.337 130.464 121.339 130.48 121.342 130.495C121.387 130.737 121.402 130.816 121.528 130.839C120.929 131.258 120.486 131.819 120.385 132.159C120.324 132.366 120.529 132.345 120.84 132.27L121.244 132.169L121.39 132.136L121.652 133.541L121.669 133.626C122.142 135.927 124.241 137.522 126.563 137.33C133.628 136.746 140.335 135.862 146.683 134.677C152.84 133.528 158.77 132.075 164.472 130.32L164.555 130.294C166.74 129.576 168.061 127.327 167.633 125.029L167.542 124.543L167.598 124.537C167.86 124.509 168.046 124.564 168.227 124.617C168.386 124.664 168.541 124.709 168.739 124.695L168.771 124.693C168.941 124.689 169.059 124.756 169.111 124.785C169.143 124.803 169.15 124.807 169.127 124.771L168.991 124.554L168.922 124.437C168.892 124.386 168.858 124.325 168.821 124.258C168.643 123.941 168.38 123.471 168.039 123.052L167.98 122.736C168.305 122.551 168.469 122.278 168.324 121.877C168.2 121.536 167.987 121.371 167.716 121.32L167.293 119.054L167.274 119.057L167.136 118.214C166.936 117.143 166.089 116.359 165.083 116.201C166.241 115.608 166.922 114.295 166.668 112.937L166.604 112.594C167.556 112.703 168.482 111.83 169.381 109.973C167.804 110.754 166.756 110.678 166.239 109.746L166.193 109.667C165.981 109.31 165.746 109.076 165.498 108.924C166.147 108.653 166.329 108.334 165.629 107.854C165.136 107.515 164.812 107.453 164.508 107.541C164.544 107.319 164.54 107.077 164.491 106.813L164.187 105.183C164.058 104.495 163.851 104.089 163.424 103.869L163.098 102.117C163.642 101.662 163.616 100.867 163.503 100.138L163.469 99.9288Z" fill="white"/>
<path fill-rule="evenodd" clip-rule="evenodd" d="M126.564 137.33C133.629 136.746 140.336 135.861 146.684 134.676C152.841 133.527 158.771 132.075 164.474 130.319C166.708 129.632 168.068 127.355 167.634 125.029L167.253 122.987L121.285 131.566L121.653 133.54C122.091 135.886 124.213 137.524 126.564 137.33Z" fill="#EC9D47"/>
<path d="M123.489 130.342L123.561 130.36C126.616 131.199 127.064 129.401 129.191 129.08C130.064 128.948 130.814 129.01 131.403 129.134L131.463 129.076C131.528 129.013 131.601 128.951 131.68 128.89L132.219 128.787L132.633 128.706C133.196 128.595 133.801 128.471 134.452 128.331L134.782 128.259L135.197 128.166C135.602 128.078 136.154 127.967 136.678 127.909L136.715 127.913C136.848 127.957 136.974 128.01 137.093 128.072C137.335 128.198 137.556 128.324 137.766 128.439C138.292 128.262 138.751 128.134 139.246 127.89C139.925 127.893 140.541 127.929 141.107 127.998C142.164 128.127 147.696 126.436 150.613 125.883L151.324 125.647C152.881 125.137 154.177 124.749 154.456 124.594L154.473 124.584C154.598 124.507 154.727 124.434 154.86 124.366L155.039 124.39L155.226 124.413C156.64 124.576 158.394 124.541 160.755 123.771C161.29 123.596 161.899 123.522 162.537 123.523C163.094 122.974 163.623 123.238 164.138 123.046C164.837 122.785 165.046 122.438 166.111 122.158C167.567 121.776 168.552 123.795 168.924 124.437C169.296 125.08 169.163 124.663 168.741 124.695C168.319 124.726 168.094 124.484 167.599 124.537C165.501 124.757 166.19 127.389 163.751 128.32C162.434 128.822 160.684 127.643 160.091 127.64C159.499 127.638 159.04 128.182 158.469 128.299C155.773 128.849 154.017 127.687 151.69 127.818L151.753 127.698C151.79 127.628 151.829 127.558 151.868 127.488C151.939 127.362 151.523 127.434 150.864 127.597L150.475 127.908C148.793 129.241 146.719 130.78 147.213 131.303C146.19 131.673 145.068 131.852 143.785 132.03C142.542 132.203 141.133 131.458 140.14 131.528C138.405 131.651 134.143 133.719 134.143 133.719C134.143 133.719 134.24 132.548 133.469 132.295C132.409 131.948 129.912 132.362 129.615 132.789C129.318 133.215 128.963 133.542 128.436 133.643C127.135 133.894 126.654 133.332 125.985 133.308C125.282 133.283 124.992 133.582 124.059 133.856C123.017 134.163 122.75 133.513 122.736 132.933L122.735 132.897C122.724 131.137 120.192 132.823 120.387 132.159C120.583 131.496 122.079 129.997 123.489 130.342Z" fill="#9CC93A"/>
<path fill-rule="evenodd" clip-rule="evenodd" d="M138.2 127.567C146.883 127.303 150.075 124.657 154.042 123.492C156.637 122.73 159.157 122.434 161.185 122.549C161.207 122.55 162.026 122.516 162.475 122.46C163.278 122.359 164.125 122.201 165.017 121.985C165.017 121.985 166.203 121.616 166.864 121.416C167.525 121.216 168.089 121.228 168.323 121.878C168.505 122.379 168.205 122.678 167.711 122.86C167.218 123.041 164.14 123.053 156.242 124.931C148.344 126.81 150.716 136.184 148.314 133.493C145.825 130.705 141.636 129.051 138.623 128.665C135.61 128.28 128.408 130.321 126.191 130.662C123.974 131.003 123.312 130.897 122.342 130.854C121.372 130.812 121.434 130.985 121.334 130.449C121.244 129.967 121.604 129.677 122.079 129.669C122.344 129.664 123.229 129.801 126.705 129.251C129.46 128.815 134.362 127.683 138.2 127.567Z" fill="#FFBC0D"/>
<path fill-rule="evenodd" clip-rule="evenodd" d="M164.259 116.212C165.595 115.963 166.883 116.859 167.136 118.214L167.385 119.73C167.385 119.73 166.277 120.472 162.498 121.067C158.719 121.662 156.382 121.174 153.791 121.932C149.831 123.091 148.584 124.912 140.859 125.636C133.135 126.361 121.616 128.577 121.616 128.577L121.169 126.794C120.916 125.439 121.794 124.139 123.13 123.889C132.357 121.653 139.324 120.093 144.031 119.209C148.738 118.325 155.303 117.365 164.259 116.212Z" fill="#73371F"/>
<path fill-rule="evenodd" clip-rule="evenodd" d="M120.219 118.943C120.167 118.664 120.349 118.396 120.625 118.344L165.593 109.951C165.869 109.899 166.135 110.084 166.187 110.363L166.317 111.061C166.823 113.773 165.017 116.362 162.324 116.786C156.946 117.632 148.515 118.982 144.163 119.795C139.363 120.69 129.703 122.766 124.603 123.872C122.78 124.268 120.988 123.062 120.642 121.206L120.219 118.943Z" fill="#EC9D47"/>
<path d="M133.694 114.465L133.933 114.396C136.994 113.491 136.627 112.688 138.238 112.362C138.967 112.214 139.558 112.365 140.098 112.635C141.266 111.519 142.535 110.551 144.219 110.274C145.551 110.055 147.143 111.028 148.213 110.941C150.083 110.788 153.239 109.038 154.325 107.617C154.403 107.514 154.547 107.636 154.539 107.801L154.521 108.148C154.491 108.837 154.532 109.644 155.377 109.97C156.555 110.425 158.108 110.08 159.511 109.344C159.796 108.792 160.151 108.369 160.714 108.239C162.102 107.919 162.672 108.65 163.399 108.683L163.48 108.686C164.341 108.703 165.461 108.347 166.238 109.746C167.016 111.145 169.381 109.974 169.381 109.974C169.381 109.974 167.914 113.004 166.352 112.543L166.283 112.522C162.899 111.421 162.57 113.754 160.292 114.163C159.358 114.331 158.54 114.247 157.891 114.084C157.241 113.92 153.632 116.534 151.816 115.442L151.603 115.311C150.581 114.672 149.863 114.086 148.894 114.566C148.314 114.852 147.663 115.621 145.82 115.845C144.631 115.99 143.413 115.376 142.366 114.836C141.61 115.331 141.093 115.259 140.372 116.693L140.327 116.783C139.766 117.933 139.242 118.405 138.19 118.13L138.123 118.112C136.49 117.646 136.048 119.12 134.005 119.372C132.654 119.539 130.895 117.081 127.789 118.685C127.242 118.967 126.513 118.873 125.761 118.581C125.475 119.162 125.304 119.73 125.174 120.131C124.492 122.229 123.534 121.1 122.816 121.386L122.787 121.398C122.074 121.724 121.677 121.47 120.626 121.781L120.522 121.813C118.977 122.304 117.63 121.96 117.114 120.747C117.027 120.544 116.174 118.817 116.699 119.385C117.225 119.954 117.992 118.778 118.524 118.712C120.779 118.433 118.842 116.497 121.405 115.297C122.664 114.708 125.055 115.217 126.452 115.767L126.858 115.092C127.329 114.318 127.878 113.529 128.579 113.347C130.478 112.855 131.93 114.962 133.694 114.465Z" fill="#9CC93A"/>
<path fill-rule="evenodd" clip-rule="evenodd" d="M121.526 111.11C123.778 110.69 134.204 107.958 141.03 106.684C147.938 105.395 159.426 103.774 161.397 103.668C163.367 103.562 163.932 103.817 164.187 105.182C164.442 106.548 164.237 105.446 164.492 106.812C164.746 108.178 163.774 108.981 162.435 109.231L121.234 116.922C119.895 117.171 118.31 115.388 118.639 113.684C118.969 111.98 119.273 111.53 121.526 111.11Z" fill="#73371F"/>
<path d="M119.209 116.258C119.598 116.042 120.217 116.07 124.344 115.822C125.962 115.724 128.509 115.399 132.456 114.569C135.22 113.988 139.582 113.126 147.531 111.494C155.479 109.861 159.096 109.372 161.645 108.86C164.194 108.347 164.135 106.828 165.63 107.854C167.126 108.881 164.598 109.171 162.085 109.822C159.573 110.473 159.595 109.758 151.201 111.592C142.806 113.427 139.432 115.052 135.558 115.817C128.258 117.259 125.651 115.839 121.508 117.396C117.364 118.952 118.82 116.474 119.209 116.258Z" fill="#EDC8A3"/>
<path fill-rule="evenodd" clip-rule="evenodd" d="M163.412 99.6281C163.608 100.678 163.879 102.128 162.385 102.437C160.882 102.687 148.386 103.714 141.164 105.089C134.237 106.355 121.871 109.707 119.916 110.364C117.969 110.958 117.948 109.462 117.789 108.667C116.179 99.9835 127.515 92.5892 138.677 90.3757C149.849 88.1649 161.839 91.1997 163.412 99.6281Z" fill="white"/>
<path fill-rule="evenodd" clip-rule="evenodd" d="M163.409 99.63L163.466 99.9445C163.64 100.95 163.73 102.16 162.382 102.439L162.278 102.454C160.38 102.73 148.237 103.743 141.16 105.091L140.738 105.17C133.743 106.489 121.828 109.722 119.912 110.366C117.965 110.96 117.944 109.464 117.785 108.669C116.175 99.9854 127.511 92.5911 138.673 90.3777C149.845 88.1668 161.835 91.2017 163.409 99.63ZM120.381 106.781C120.047 106.596 119.628 106.706 119.445 107.025C119.261 107.345 119.383 107.754 119.717 107.939C120.05 108.124 121.46 108.371 121.56 108.197C121.659 108.024 120.715 106.966 120.381 106.781ZM151.662 100.987C151.388 100.682 150.025 99.9347 149.854 100.075C149.682 100.214 150.247 101.615 150.521 101.919C150.794 102.224 151.271 102.262 151.586 102.004C151.901 101.747 151.935 101.291 151.662 100.987ZM129.061 104.053C128.913 103.669 128.473 103.475 128.079 103.619C127.684 103.762 127.485 104.19 127.633 104.573C127.781 104.957 128.804 106.126 129.018 106.048C129.232 105.97 129.209 104.436 129.061 104.053ZM142.379 101.367C142.046 101.182 141.626 101.291 141.443 101.611C141.259 101.93 141.381 102.339 141.715 102.524C142.049 102.709 143.458 102.957 143.558 102.783C143.658 102.609 142.713 101.552 142.379 101.367ZM136.886 102.08C136.63 101.76 136.18 101.724 135.88 101.999C135.58 102.274 134.847 103.65 134.986 103.824C135.125 103.998 136.507 103.433 136.807 103.157C137.107 102.882 137.142 102.4 136.886 102.08ZM159.398 97.3968C159.081 97.2097 158.677 97.3311 158.496 97.668C158.314 98.0047 158.076 99.4292 158.248 99.5309C158.42 99.6325 159.462 98.6818 159.643 98.3449C159.824 98.0083 159.715 97.5836 159.398 97.3968ZM152.056 95.746C151.884 95.6444 150.842 96.5953 150.661 96.9319C150.479 97.2688 150.589 97.6932 150.906 97.8803C151.223 98.0672 151.626 97.9457 151.808 97.6088C151.989 97.2722 152.228 95.8476 152.056 95.746ZM122.482 101.417C122.148 101.232 121.729 101.341 121.546 101.661C121.362 101.981 121.484 102.39 121.818 102.575C122.152 102.76 123.561 103.007 123.661 102.833C123.76 102.66 122.816 101.602 122.482 101.417ZM144.552 95.5607C144.138 95.638 143.863 96.024 143.938 96.4231C144.012 96.8221 144.799 98.1314 145.024 98.0895C145.249 98.0475 145.511 96.5423 145.437 96.1433C145.362 95.7443 144.966 95.4835 144.552 95.5607ZM130.021 99.4277C129.688 99.2427 128.278 98.9955 128.178 99.169C128.079 99.3426 129.023 100.4 129.357 100.585C129.691 100.77 130.11 100.661 130.294 100.341C130.477 100.022 130.355 99.6127 130.021 99.4277ZM138.949 96.3531C138.739 96.2842 137.737 97.4732 137.591 97.856C137.446 98.2387 137.642 98.6514 138.029 98.7779C138.416 98.9045 138.847 98.6969 138.992 98.3142C139.137 97.9317 139.159 96.4217 138.949 96.3531ZM148.489 91.7907C148.34 91.4072 147.9 91.2129 147.506 91.3567C147.112 91.5005 146.912 91.9279 147.061 92.3113C147.209 92.6948 148.231 93.8647 148.446 93.7865C148.66 93.7083 148.637 92.1739 148.489 91.7907ZM131.103 94.1457C130.689 94.223 130.414 94.6091 130.489 95.008C130.563 95.4071 131.35 96.7164 131.575 96.6744C131.8 96.6325 132.062 95.1273 131.988 94.7282C131.913 94.3293 131.517 94.0684 131.103 94.1457ZM137.541 92.0645C137.207 91.8795 136.788 91.9886 136.604 92.3081C136.421 92.6277 136.542 93.0367 136.876 93.2217C137.21 93.4067 138.62 93.654 138.719 93.4804C138.819 93.3069 137.875 92.2495 137.541 92.0645Z" fill="#EC9D47"/>
<path d="M203 77C226.748 77 246 96.195 246 119.873C246 160.85 206.074 193.101 203 193.101C199.926 193.101 160 160.85 160 119.873C160 96.195 179.252 77 203 77ZM203 107C195.82 107 190 112.82 190 120C190 127.18 195.82 133 203 133C210.18 133 216 127.18 216 120C216 112.82 210.18 107 203 107Z" fill="#FFBC0D"/>
<path d="M199.067 61.2267C199.469 62.2062 200.757 62.2705 201.213 61.3319C203.654 56.3168 208.573 44.4573 200.77 44.0127C192.638 43.5471 196.901 55.9579 199.067 61.2267Z" fill="#FFBC0D"/>
<path d="M234.53 69.5524C234.407 70.6042 235.503 71.2848 236.356 70.6849C240.923 67.4819 250.975 59.4942 244.366 55.3225C237.479 50.9728 235.19 63.8941 234.53 69.5524Z" fill="#FFBC0D"/>
<path d="M255.203 94.2692C254.556 95.1074 255.145 96.2549 256.185 96.1803C261.749 95.7866 274.479 94.117 270.963 87.1373C267.3 79.8619 258.683 89.7589 255.203 94.2692Z" fill="#FFBC0D"/>
<path d="M256.773 126.067C255.794 126.469 255.73 127.757 256.668 128.213C261.683 130.654 273.543 135.573 273.987 127.77C274.453 119.638 262.042 123.901 256.773 126.067Z" fill="#FFBC0D"/>
<path fill-rule="evenodd" clip-rule="evenodd" d="M204.449 195.815C204.182 195.915 203.644 196.1 203 196.1C202.356 196.1 201.817 195.915 201.551 195.815C201.221 195.691 200.897 195.534 200.598 195.375C199.996 195.054 199.305 194.617 198.559 194.099C197.057 193.057 195.155 191.562 193.006 189.676C188.702 185.9 183.294 180.455 177.989 173.707C167.422 160.267 157 141.315 157 119.873C157 94.53 177.603 74 203 74C228.397 74 249 94.53 249 119.873C249 141.315 238.578 160.267 228.011 173.707C222.706 180.455 217.298 185.9 212.994 189.676C210.845 191.562 208.943 193.057 207.441 194.099C206.695 194.617 206.004 195.054 205.402 195.375C205.103 195.534 204.779 195.691 204.449 195.815ZM203 130C208.523 130 213 125.523 213 120C213 114.477 208.523 110 203 110C197.477 110 193 114.477 193 120C193 125.523 197.477 130 203 130ZM203 193.1C206.074 193.1 246 160.85 246 119.873C246 96.1952 226.749 77 203 77C179.252 77 160 96.1952 160 119.873C160 160.85 199.926 193.1 203 193.1ZM216 120C216 127.18 210.18 133 203 133C195.82 133 190 127.18 190 120C190 112.82 195.82 107 203 107C210.18 107 216 112.82 216 120Z" fill="white"/>
</svg>
