<svg width="27" height="18" viewBox="0 0 27 18" fill="none" xmlns="http://www.w3.org/2000/svg">
<g clip-path="url(#clip0_109_43804)">
<path d="M0 0H27V18.0002H0V0Z" fill="white"/>
<path d="M0 0H27V4.77663H0V0Z" fill="black"/>
<path d="M0 13.2227H27V17.9987H0V13.2227Z" fill="#496E2D"/>
<path d="M0 5.97266H27V12.0265H0V5.97266Z" fill="#A2001D"/>
<path d="M17.0475 2.87274L15.6984 2.25L13.5003 7.22718L11.3022 2.25L9.95312 2.87274L12.6821 9L9.95312 15.1273L11.3022 15.75L13.5003 10.7729L15.6984 15.75L17.0475 15.1273L14.3185 9L17.0475 2.87274Z" fill="white"/>
<path d="M14.4186 3.46072C13.8963 2.89035 13.5023 2.5625 13.5023 2.5625C13.5023 2.5625 13.1082 2.8903 12.5859 3.46067V14.5416C13.1082 15.112 13.5023 15.4399 13.5023 15.4399C13.5023 15.4399 13.8963 15.1121 14.4186 14.5416V3.46072Z" fill="white"/>
<path d="M11.0234 5.58415V12.4151C11.5753 13.3929 12.2508 14.1945 12.7569 14.7258V3.27344C12.2507 3.80479 11.5753 4.6063 11.0234 5.58415ZM15.9763 5.58415C15.4244 4.6063 14.7489 3.80479 14.2428 3.27344V14.7259C14.749 14.1945 15.4244 13.393 15.9763 12.4152V5.58415Z" fill="#A2001D"/>
<path d="M15.9746 5.58594V12.4169C16.5333 11.4268 16.9652 10.2562 16.9652 9.00144C16.9652 7.74667 16.5333 6.57602 15.9746 5.58594ZM11.0218 5.58594V12.4169C10.4631 11.4268 10.0312 10.2562 10.0312 9.00144C10.0312 7.74667 10.4631 6.57602 11.0218 5.58594Z" fill="black"/>
</g>
<rect x="0.5" y="0.5" width="26" height="17" rx="0.5" stroke="black" stroke-opacity="0.2"/>
<defs>
<clipPath id="clip0_109_43804">
<rect width="27" height="18" rx="1" fill="white"/>
</clipPath>
</defs>
</svg>
