<svg width="136" height="136" viewBox="0 0 136 136" fill="none" xmlns="http://www.w3.org/2000/svg">
<path d="M114 125C114 128.314 93.629 131 68.5 131C43.371 131 23 128.314 23 125C23 121.686 43.371 119 68.5 119C93.629 119 114 121.686 114 125Z" fill="#A0A09F" fill-opacity="0.15"/>
<path fill-rule="evenodd" clip-rule="evenodd" d="M86.3406 29.1662L30.8193 61.8707C29.8761 62.4263 29.5618 63.6414 30.1174 64.5846L53.0046 103.439C53.5602 104.383 54.7752 104.697 55.7185 104.141L111.24 71.4366C112.695 70.5794 113.707 69.1334 114.014 67.4727L119.047 40.2325C119.269 39.0331 118.574 37.8536 117.417 37.466L91.1524 28.6618C89.5512 28.125 87.7958 28.309 86.3406 29.1662ZM108.622 48.3877C111.274 46.826 112.157 43.4107 110.595 40.7594C109.033 38.1082 105.618 37.2249 102.967 38.7866C100.316 40.3483 99.4324 43.7636 100.994 46.4149C102.556 49.0662 105.971 49.9495 108.622 48.3877Z" fill="#EAEAEA"/>
<path fill-rule="evenodd" clip-rule="evenodd" d="M84.3408 15.7808L15.8907 40.6946C14.7279 41.1178 14.1283 42.4036 14.5515 43.5665L31.9866 91.4689C32.4098 92.6318 33.6956 93.2314 34.8585 92.8081L103.309 67.8943C105.103 67.2414 106.525 65.8425 107.208 64.0598L118.415 34.8188C118.908 33.5314 118.379 32.0772 117.173 31.4082L89.793 16.2114C88.1238 15.2849 86.1348 15.1278 84.3408 15.7808ZM103.91 43.8768C106.684 42.8673 108.114 39.8002 107.105 37.0264C106.095 34.2526 103.028 32.8225 100.254 33.832C97.4806 34.8416 96.0504 37.9086 97.06 40.6824C98.0696 43.4562 101.137 44.8864 103.91 43.8768Z" fill="#FFBC0D"/>
<path fill-rule="evenodd" clip-rule="evenodd" d="M15.2076 38.8152L83.6577 13.9014C85.9961 13.0503 88.5887 13.2551 90.7646 14.4627L118.145 29.6595C120.221 30.812 121.133 33.317 120.283 35.5346L109.077 64.7755C108.186 67.0993 106.332 68.9226 103.994 69.7737L35.5435 94.6875C33.3426 95.4886 30.9091 94.3538 30.1081 92.153L12.6731 44.2506C11.872 42.0498 13.0068 39.6163 15.2076 38.8152ZM103.227 41.9975C104.963 41.3657 105.858 39.4463 105.226 37.7105C104.595 35.9747 102.675 35.0797 100.939 35.7115C99.2035 36.3433 98.3085 38.2626 98.9403 39.9984C99.5721 41.7343 101.491 42.6293 103.227 41.9975ZM15.8917 40.6946L84.3417 15.7808C86.1357 15.1279 88.1247 15.285 89.794 16.2114L117.174 31.4082C118.38 32.0773 118.909 33.5315 118.415 34.8189L107.209 64.0598C106.526 65.8426 105.103 67.2414 103.309 67.8944L34.8594 92.8081C33.6966 93.2314 32.4107 92.6318 31.9875 91.4689L14.5525 43.5666C14.1292 42.4037 14.7288 41.1179 15.8917 40.6946ZM107.106 37.0265C108.115 39.8003 106.685 42.8673 103.911 43.8769C101.138 44.8864 98.0705 43.4563 97.0609 40.6825C96.0514 37.9087 97.4815 34.8417 100.255 33.8321C103.029 32.8225 106.096 34.2527 107.106 37.0265Z" fill="white"/>
<path opacity="0.1" fill-rule="evenodd" clip-rule="evenodd" d="M95.2029 41.3593C93.8201 37.5592 95.7799 33.3576 99.58 31.9749C103.38 30.5921 107.582 32.5519 108.965 36.3521C110.347 40.1522 108.388 44.3538 104.587 45.7365C100.787 47.1193 96.5856 45.1595 95.2029 41.3593ZM107.106 37.0281C106.097 34.2541 103.03 32.8235 100.256 33.8329C97.4821 34.8422 96.0515 37.9093 97.0609 40.6833C98.0703 43.4573 101.137 44.8879 103.911 43.8785C106.685 42.8692 108.116 39.8021 107.106 37.0281Z" fill="#292929"/>
<path d="M70.9066 50.2027C74.5143 60.1178 69.4012 71.0801 59.4861 74.6878C49.5711 78.2955 38.6088 73.1823 35.0011 63.2673C31.3934 53.3522 36.5065 42.3899 46.4215 38.7822C56.3365 35.1745 67.2989 40.2877 70.9066 50.2027Z" fill="white"/>
<path fill-rule="evenodd" clip-rule="evenodd" d="M54.1475 46.4467C52.346 47.1022 51.5814 50.0023 51.847 54.0054C49.479 50.7673 47.0288 49.037 45.227 49.6926C42.0606 50.8447 42.2954 59.4834 45.753 68.9863L48.302 68.0588C45.0914 59.2347 43.9155 51.5619 45.6742 50.9219C47.4341 50.2815 51.2632 56.3665 54.2269 64.5117L56.7755 63.5843C53.8119 55.4391 52.8353 48.3162 54.5948 47.676C56.3543 47.0358 60.3838 53.6704 63.5944 62.4944L66.1424 61.5673C62.6847 52.0644 57.3146 45.2943 54.1475 46.4467Z" fill="#FFBC0D"/>
<path fill-rule="evenodd" clip-rule="evenodd" d="M117.63 37.5461C118.659 37.9992 119.257 39.1065 119.049 40.2312L114.016 67.4715C113.709 69.1322 112.697 70.5782 111.242 71.4354L55.7206 104.14C54.7774 104.696 53.5623 104.381 53.0067 103.438L44.6465 89.2454L34.8605 92.8072C33.6976 93.2305 32.4118 92.6309 31.9885 91.468L14.5535 43.5656C14.1303 42.4028 14.7298 41.1169 15.8927 40.6937L84.3428 15.7799C86.1368 15.1269 88.1258 15.284 89.795 16.2105L117.175 31.4073C118.381 32.0763 118.91 33.5306 118.417 34.818L117.54 37.1041L117.404 37.4596L117.419 37.4648C117.491 37.4889 117.562 37.5161 117.63 37.5461ZM119.456 36.7768L119.977 35.4162C120.769 33.3513 119.92 31.0188 117.986 29.9456L90.6063 14.7489C88.5136 13.5874 86.0201 13.3904 83.771 14.209L15.321 39.1228C13.2905 39.8618 12.2436 42.1069 12.9826 44.1374L30.4177 92.0397C31.1567 94.0702 33.4018 95.1171 35.4323 94.3781L43.9118 91.2918L51.5663 104.287C52.5905 106.025 54.8303 106.605 56.569 105.58L112.09 72.8758C113.963 71.7728 115.265 69.9121 115.66 67.7752L120.693 40.535C120.955 39.1149 120.454 37.7112 119.456 36.7768Z" fill="white"/>
</svg>
