<svg width="27" height="18" viewBox="0 0 27 18" fill="none" xmlns="http://www.w3.org/2000/svg">
<g clip-path="url(#clip0_109_43883)">
<path d="M0 0H27V18H0V0Z" fill="#1E509C"/>
<path d="M27 9.26682V4.27734L0 17.9984L27 9.26682Z" fill="white"/>
<path d="M27 0V4.27895L0 18L27 0Z" fill="#F18D36"/>
<path d="M6.66912 5.22628L6.2586 2.37891L5.85333 5.22628L4.7586 3.97891L5.32175 5.64207L3.66386 5.07891L4.90596 6.17364L2.05859 6.57891L4.90596 6.98417L3.66386 8.07891L5.32175 7.51575L4.7586 9.17891L5.85333 7.93154L6.2586 10.7789L6.66912 7.93154L7.7586 9.17891L7.2007 7.51575L8.8586 8.07891L7.61649 6.98417L10.4586 6.57891L7.61649 6.17364L8.8586 5.07891L7.2007 5.64207L7.7586 3.97891L6.66912 5.22628Z" fill="white"/>
</g>
<rect x="0.5" y="0.5" width="26" height="17" rx="0.5" stroke="black" stroke-opacity="0.2"/>
<defs>
<clipPath id="clip0_109_43883">
<rect width="27" height="18" rx="1" fill="white"/>
</clipPath>
</defs>
</svg>
