<svg width="27" height="18" viewBox="0 0 27 18" fill="none" xmlns="http://www.w3.org/2000/svg">
<g clip-path="url(#clip0_109_43885)">
<path d="M0 0H27V18H0V0Z" fill="#FFDA44"/>
<path d="M0 10.2184L27 16.9258V11.3006L0 5.12109V10.2184Z" fill="black"/>
<path d="M27 12.3555V7.78495L0 1.07812V5.64866" fill="white"/>
<path d="M16.1595 7.06407C16.3702 7.45299 16.4802 7.88844 16.4796 8.33076C16.4796 9.4672 15.7671 10.437 14.7647 10.8193V7.68107C15.0653 7.61831 15.292 7.34514 15.292 7.01713C15.6559 7.01713 15.9512 6.71391 15.9512 6.33949H15.929C16.2929 6.33949 16.6098 6.03626 16.6098 5.66185H14.7647V4.0355L13.9742 2.57422L13.1832 4.0355V5.66185H11.338C11.338 6.03626 11.6549 6.33949 12.0188 6.33949H11.9966C11.9966 6.71391 12.292 7.01713 12.6558 7.01713C12.6558 7.34514 12.8821 7.61831 13.1826 7.68107V10.9174C12.0177 10.6332 11.1534 9.58321 11.1534 8.33076C11.1534 7.87197 11.2694 7.44059 11.4735 7.06407C10.8955 7.65523 10.5391 8.46312 10.5391 9.35487C10.5391 11.1647 12.0061 12.6323 13.8165 12.6323C15.6269 12.6323 17.0939 11.1647 17.0939 9.35487C17.0939 8.46312 16.7369 7.6547 16.1595 7.06407Z" fill="#D80027"/>
<path fill-rule="evenodd" clip-rule="evenodd" d="M13.9711 2.41016L14.8405 4.01734V5.58472H16.6857V5.66367C16.6857 6.0489 16.3872 6.36493 16.0237 6.41372C15.9905 6.77085 15.7146 7.05769 15.3643 7.09402C15.3346 7.40262 15.1237 7.65775 14.8405 7.74407V10.7037C15.7567 10.3063 16.3976 9.39425 16.3976 8.33258V8.33247C16.3982 7.90331 16.2914 7.48083 16.087 7.10349L16.1564 7.06589L16.2129 7.01069C16.8041 7.61544 17.1698 8.44344 17.1698 9.35669C17.1698 11.2101 15.6674 12.7131 13.8134 12.7131C11.9594 12.7131 10.457 11.2101 10.457 9.35669C10.457 8.44345 10.8222 7.61597 11.414 7.01069L11.8093 6.60635L11.5398 7.10351C11.3419 7.46877 11.2293 7.88725 11.2293 8.33258C11.2293 9.51252 12.0199 10.5074 13.1006 10.8166V7.74407C12.8174 7.65773 12.607 7.40255 12.5774 7.09402C12.2271 7.05769 11.9511 6.77085 11.918 6.41372C11.5544 6.36493 11.256 6.0489 11.256 5.66367V5.58472H13.1011V4.01733L13.9711 2.41016ZM12.0157 6.26236V6.34131H12.0725C12.0725 6.67417 12.3345 6.94 12.6527 6.94H12.7317V7.01895C12.7317 7.31034 12.9324 7.55064 13.1957 7.6056L13.2585 7.61872V11.0197L13.1608 10.9959C11.9614 10.7033 11.0714 9.62227 11.0714 8.33258C11.0714 8.0509 11.1139 7.77917 11.1928 7.52346C10.8286 8.04264 10.6149 8.67449 10.6149 9.35669C10.6149 11.123 12.0467 12.5552 13.8134 12.5552C15.5802 12.5552 17.0119 11.123 17.0119 9.35669C17.0119 8.67457 16.7979 8.04245 16.434 7.5234C16.5146 7.78457 16.5558 8.05733 16.5555 8.33269C16.5554 9.50294 15.8217 10.5013 14.7897 10.8949L14.6826 10.9357V7.61872L14.7455 7.6056C15.0088 7.55062 15.21 7.31024 15.21 7.01895V6.94H15.2889C15.6072 6.94 15.8692 6.67417 15.8692 6.34131H15.926V6.26236C16.2214 6.26236 16.482 6.03514 16.5224 5.74261H14.6826V4.05731L13.9711 2.74192L13.259 4.05732V5.74261H11.4193C11.4596 6.03514 11.7203 6.26236 12.0157 6.26236Z" fill="#231F20"/>
<path d="M10.4667 11.961C10.4667 11.961 11.5578 13.4223 13.9735 13.4223C16.3893 13.4223 17.4803 11.961 17.4803 11.961L18.1907 13.4571C18.1907 13.4571 17.0817 14.9184 13.9735 14.9184C10.8654 14.9184 9.75635 13.4571 9.75635 13.4571L10.4667 11.961ZM6.81641 7.02344H7.9175L9.23217 8.46099V12.3344H7.84631V8.72888L6.81641 7.02344ZM21.0948 7.02344H19.9937L18.679 8.46099V12.3344H20.0643V8.72888L21.0948 7.02344Z" fill="#D80027"/>
<path fill-rule="evenodd" clip-rule="evenodd" d="M6.67578 6.94141H7.95156L9.31039 8.42725V12.4102H7.76664V8.74779L6.67578 6.94141ZM6.95559 7.0993L7.92453 8.70381V12.2523H9.1525V8.48856L7.88199 7.0993H6.95559ZM19.9582 6.94141H21.234L20.1426 8.7478V12.4102H18.5993V8.42725L19.9582 6.94141ZM20.0277 7.0993L18.7572 8.48856V12.2523H19.9847V8.7038L20.9541 7.0993H20.0277ZM17.4948 11.8057L18.2819 13.4635L18.2528 13.5017L18.19 13.454C18.2528 13.5017 18.2528 13.5018 18.2528 13.5018L18.2527 13.502L18.2524 13.5023L18.2515 13.5035C18.2508 13.5044 18.2498 13.5057 18.2485 13.5073C18.246 13.5105 18.2423 13.515 18.2375 13.5208C18.2279 13.5324 18.2136 13.5491 18.1946 13.57C18.1565 13.6118 18.0992 13.6707 18.0209 13.7411C17.8642 13.8818 17.6235 14.0681 17.2849 14.2539C16.6072 14.6257 15.5398 14.9942 13.9728 14.9942C12.4058 14.9942 11.3384 14.6257 10.6607 14.2539C10.3221 14.0681 10.0814 13.8818 9.92472 13.7411C9.84639 13.6707 9.78906 13.6118 9.75098 13.57C9.73194 13.5491 9.71772 13.5324 9.70808 13.5208C9.70327 13.515 9.6996 13.5105 9.69705 13.5073C9.69629 13.5063 9.69563 13.5055 9.69507 13.5048C9.69469 13.5043 9.69435 13.5038 9.69406 13.5035L9.69319 13.5023L9.69291 13.502L9.69281 13.5018C9.69277 13.5018 9.69274 13.5017 9.75562 13.454L9.69274 13.5017L9.66372 13.4635L10.3946 11.9241L10.466 11.9579C10.5292 11.9107 10.5292 11.9107 10.5292 11.9106L10.5292 11.9107L10.5296 11.9112C10.5298 11.9115 10.5301 11.9119 10.5305 11.9124C10.5308 11.9128 10.5312 11.9133 10.5316 11.9138C10.5328 11.9153 10.5343 11.9173 10.5362 11.9197C10.5375 11.9213 10.5389 11.923 10.5404 11.9249C10.5484 11.9349 10.5607 11.9499 10.5773 11.9691C10.6105 12.0075 10.6611 12.063 10.7294 12.1298C10.8661 12.2635 11.0737 12.4426 11.3558 12.6219C11.9196 12.9803 12.7818 13.3403 13.9728 13.3403C15.1638 13.3403 16.026 12.9803 16.5898 12.6219C16.8719 12.4426 17.0795 12.2635 17.2162 12.1298C17.2845 12.063 17.3351 12.0075 17.3683 11.9691C17.3849 11.9499 17.3972 11.9349 17.4052 11.9249C17.4092 11.92 17.4121 11.9162 17.414 11.9138C17.4149 11.9126 17.4156 11.9117 17.416 11.9112L17.4164 11.9107L17.4164 11.9106L17.4948 11.8057ZM17.461 12.1027C17.427 12.1407 17.3823 12.1882 17.3266 12.2427C17.1832 12.383 16.9671 12.5692 16.6745 12.7552C16.0887 13.1275 15.1975 13.4982 13.9728 13.4982C12.7481 13.4982 11.8568 13.1275 11.2711 12.7552C10.9785 12.5692 10.7624 12.383 10.619 12.2427C10.5633 12.1882 10.5186 12.1407 10.4846 12.1027L9.8486 13.4423C9.85417 13.4486 9.86054 13.4558 9.86771 13.4636C9.90243 13.5018 9.95602 13.557 10.0302 13.6236C10.1786 13.7569 10.4095 13.9359 10.7366 14.1154C11.3905 14.4742 12.4317 14.8363 13.9728 14.8363C15.5139 14.8363 16.5551 14.4742 17.209 14.1154C17.5361 13.9359 17.767 13.7569 17.9154 13.6236C17.9896 13.557 18.0432 13.5018 18.0779 13.4636C18.085 13.4558 18.0914 13.4486 18.097 13.4423L17.461 12.1027Z" fill="#231F20"/>
</g>
<rect x="0.5" y="0.5" width="26" height="17" rx="0.5" stroke="black" stroke-opacity="0.2"/>
<defs>
<clipPath id="clip0_109_43885">
<rect width="27" height="18" rx="1" fill="white"/>
</clipPath>
</defs>
</svg>
