<svg width="27" height="18" viewBox="0 0 27 18" fill="none" xmlns="http://www.w3.org/2000/svg">
<g clip-path="url(#clip0_109_43741)">
<path d="M0 0H27V18.0002H0V0Z" fill="#91DC5A"/>
<path d="M0 0H27V18.0002H0V0Z" fill="white"/>
<path d="M0 0H27V3.01578H0V0ZM0 14.9844H27V17.9996H0V14.9844Z" fill="#0052B4"/>
<path d="M0 4.21094H27V13.7865H0V4.21094Z" fill="#D80027"/>
<path d="M10.0372 12.4611C11.9497 12.4611 13.5001 10.9107 13.5001 8.99811C13.5001 7.08558 11.9497 5.53516 10.0372 5.53516C8.12464 5.53516 6.57422 7.08558 6.57422 8.99811C6.57422 10.9107 8.12464 12.4611 10.0372 12.4611Z" fill="white"/>
<path d="M10.0358 5.53516L10.8128 7.92645H13.3312L11.2931 9.40449L12.0761 11.8029L10.0358 10.3179L7.99864 11.8001L8.77858 9.40449L6.74219 7.92645H9.25878L10.0358 5.53516Z" fill="#D80027"/>
</g>
<rect x="0.5" y="0.5" width="26" height="17" rx="0.5" stroke="black" stroke-opacity="0.2"/>
<defs>
<clipPath id="clip0_109_43741">
<rect width="27" height="18" rx="1" fill="white"/>
</clipPath>
</defs>
</svg>
