<svg width="375" height="225" viewBox="0 0 375 225" fill="none" xmlns="http://www.w3.org/2000/svg">
<g clip-path="url(#clip0_102_69737)">
<path d="M184.5 4C262.096 4 325 66.904 325 144.5C325 163.443 321.249 181.51 314.453 198H54.5469C47.7506 181.51 44 163.443 44 144.5C44 66.904 106.904 4 184.5 4Z" fill="#DCEDF4"/>
<ellipse cx="184" cy="203" rx="153" ry="14" fill="#A0A09F" fill-opacity="0.15"/>
<path d="M316 97V124H264L264.005 97H316Z" fill="#FFBC0D"/>
<path d="M190.926 120H77V97H191L190.926 120Z" fill="#FFBC0D"/>
<path d="M191 99L190.97 108H77V99H191Z" fill="black" fill-opacity="0.1"/>
<path d="M316 99V108H264L264.002 99H316Z" fill="black" fill-opacity="0.1"/>
<path d="M264 124H287V203H264V124Z" fill="#F9F9F9"/>
<path d="M288 124H316V203H288V124Z" fill="#F9F9F9"/>
<path d="M191 89L190.967 98.999L73.8004 99C72.8061 99 72 98.1942 72 97.2002V90.8008C72 89.8068 72.8061 89.001 73.8004 89.001L191 89Z" fill="#FFBC0D"/>
<path d="M318.212 89.001C319.2 89.001 320 89.8068 320 90.8008V97.2002C320 98.1942 319.2 99 318.212 99L264 98.999L264.002 89L318.212 89.001Z" fill="#FFBC0D"/>
<path d="M260.5 74.5234L260.473 202.998H194.569L194.5 74.5234L260.5 74.5234Z" fill="#F1F1F1"/>
<path d="M59.8 124H244.443C245.437 124 246.243 124.806 246.243 125.8V140H58V125.8C58 124.806 58.8059 124 59.8 124Z" fill="#606060"/>
<path d="M195 140H246V203H195V140Z" fill="#D8D8D8"/>
<path d="M109 140H137V203H109V140Z" fill="#F9F9F9"/>
<path d="M138 140H166V203H138V140Z" fill="#F9F9F9"/>
<path d="M167 140H195V203H167V140Z" fill="#F9F9F9"/>
<path d="M218 154H246V203H218V154Z" fill="#F9F9F9"/>
<path d="M58 198H109V204H58V198Z" fill="#A5835B"/>
<path d="M58 192H109V198H58V192Z" fill="#C2945C"/>
<path d="M58 187H109V193H58V187Z" fill="#A5835B"/>
<path d="M58 182H109V188H58V182Z" fill="#C2945C"/>
<path d="M58 177H109V183H58V177Z" fill="#A5835B"/>
<path d="M58 171H109V177H58V171Z" fill="#C2945C"/>
<path d="M58 166H109V172H58V166Z" fill="#A5835B"/>
<path d="M58 161H109V167H58V161Z" fill="#C2945C"/>
<path d="M58 156H109V162H58V156Z" fill="#A5835B"/>
<path d="M58 150H109V156H58V150Z" fill="#C2945C"/>
<path d="M58 145H109V151H58V145Z" fill="#A5835B"/>
<path d="M58 140H109V146H58V140Z" fill="#C2945C"/>
<path d="M136 140H140V203H136V140Z" fill="#D8D8D8"/>
<path d="M286 124H290V203H286V124Z" fill="#D8D8D8"/>
<path d="M312 124H316V203H312V124Z" fill="#D8D8D8"/>
<path d="M165 140H169V203H165V140Z" fill="#D8D8D8"/>
<path d="M218 154H246V160H218V154Z" fill="#A0A09F" fill-opacity="0.15"/>
<path d="M195 140H246V143H195V140Z" fill="#292929" fill-opacity="0.1"/>
<path d="M165 140H169V146H165V140Z" fill="#292929" fill-opacity="0.1"/>
<path d="M136 140H140V146H136V140Z" fill="#292929" fill-opacity="0.1"/>
<path d="M109 140H136V145H109V140Z" fill="#A0A09F" fill-opacity="0.15"/>
<path d="M140 140H165V145H140V140Z" fill="#A0A09F" fill-opacity="0.15"/>
<path d="M169 140H195V145H169V140Z" fill="#A0A09F" fill-opacity="0.15"/>
<path fill-rule="evenodd" clip-rule="evenodd" d="M236.023 86.7959C239.143 86.7959 241.672 99.9528 241.672 116.182H246.195C246.195 98.703 241.64 84.5352 236.023 84.5352C232.826 84.5352 229.975 88.7942 228.111 95.4522C226.247 88.7942 223.396 84.5352 220.2 84.5352C214.584 84.5352 210.027 98.703 210.027 116.182H214.55C214.55 99.9528 217.08 86.7959 220.2 86.7959C223.32 86.7959 225.85 98.9404 225.85 113.921H230.372C230.372 98.9404 232.902 86.7959 236.023 86.7959Z" fill="#FFBC0D"/>
<rect x="63" y="33" width="6" height="170" fill="#F9F9F9"/>
<rect x="66" y="33" width="3" height="170" fill="#F1F1F1"/>
<path d="M66 26C68.2091 26 70 27.7909 70 30C70 31.195 69.4754 32.267 68.6445 33H63.3555C62.5246 32.267 62 31.195 62 30C62 27.7909 63.7909 26 66 26Z" fill="#FFBC0D"/>
<path opacity="0.5" d="M66 26C67.3598 26 68.5605 26.6789 69.2832 27.7158C68.6357 27.2648 67.8489 27 67 27C64.7909 27 63 28.7909 63 31C63 31.8496 63.2659 32.6366 63.7178 33.2842C62.6799 32.5616 62 31.3605 62 30C62 27.7909 63.7909 26 66 26Z" fill="#F9F9F9"/>
<g clip-path="url(#clip1_102_69737)">
<path d="M69 33H124.323V69.882H69V33Z" fill="#FF7415"/>
<path d="M124.323 33H69V69.882" fill="#FFDA44"/>
<path fill-rule="evenodd" clip-rule="evenodd" d="M105.833 40.104C105.551 40.0318 105.317 40.0438 104.995 40.257C104.56 40.5477 104.472 40.7502 104.449 40.8127C104.421 40.8915 104.381 41.0727 104.47 41.4632C104.681 42.3866 105.347 43.5151 106.319 45.1278C106.335 45.1559 106.353 45.1842 106.37 45.2127C107.203 46.5941 108.304 48.4208 108.65 50.2525C108.841 51.2609 108.833 52.3921 108.372 53.5209C107.91 54.6529 107.078 55.5679 105.991 56.2925C105.991 56.2926 105.991 56.2928 105.99 56.293C105.99 56.2931 105.99 56.2933 105.99 56.2934C104.887 57.0291 103.716 57.4572 102.489 57.4724C101.261 57.4876 100.197 57.0859 99.3149 56.5339C97.7239 55.5383 96.435 53.8414 95.4625 52.5613C95.4374 52.5282 95.4125 52.4953 95.3877 52.4628C94.2486 50.9641 93.4502 49.9412 92.6633 49.4163C92.3342 49.1968 92.1322 49.1568 92.0073 49.1549C91.8899 49.153 91.6127 49.1802 91.1212 49.5073C91.1211 49.5074 91.1209 49.5075 91.1208 49.5076C90.4856 49.9313 90.2337 50.2834 90.1255 50.5087C90.0225 50.723 89.9736 50.979 90.0193 51.3564C90.1296 52.2672 90.7003 53.3944 91.6161 54.9835C91.687 55.1064 91.7607 55.2333 91.8366 55.3639C92.5994 56.6768 93.5772 58.3596 93.9339 59.9936C94.1472 60.9702 94.1851 62.0917 93.757 63.224C93.3248 64.3676 92.5082 65.282 91.4371 65.9961C89.966 66.9794 88.3971 67.1036 87.0033 66.7428C85.6973 66.4047 84.5944 65.661 83.7734 64.9676C82.9332 64.2579 82.2495 63.4819 81.7856 62.9028C81.5501 62.6089 81.3626 62.3549 81.2312 62.1701C81.1654 62.0775 81.1132 62.0017 81.0756 61.9461C81.0567 61.9183 81.0415 61.8956 81.0301 61.8783C81.0244 61.8696 81.0196 61.8623 81.0157 61.8565L81.0107 61.8487L81.0087 61.8457L81.0078 61.8443C81.0074 61.8437 81.0071 61.8431 82.9075 60.6113C84.8079 59.3794 84.8075 59.3789 84.8072 59.3783L84.8068 59.3776C84.8098 59.3823 84.8163 59.392 84.826 59.4064C84.8455 59.4352 84.878 59.4824 84.9223 59.5448C85.0114 59.67 85.1467 59.8537 85.3203 60.0704C85.6745 60.5125 86.1544 61.0495 86.6959 61.5069C87.2566 61.9805 87.7536 62.258 88.1383 62.3575C88.4347 62.4343 88.6469 62.4128 88.9205 62.2298L88.9222 62.2286L88.924 62.2275C89.3888 61.9179 89.4916 61.6982 89.5203 61.6222C89.5536 61.5342 89.5939 61.3497 89.5088 60.9598C89.311 60.0539 88.6899 58.9766 87.7844 57.4059C87.7539 57.353 87.723 57.2995 87.6919 57.2455C86.8694 55.8183 85.7633 53.8879 85.5228 51.9009C85.393 50.8294 85.5002 49.6765 86.0429 48.5469C86.5803 47.4284 87.4633 46.502 88.6099 45.7375L88.6113 45.7365C89.6944 45.0157 90.8569 44.6062 92.0791 44.6256C93.2939 44.6449 94.3314 45.0841 95.1766 45.6478C96.6515 46.6317 97.8833 48.2568 98.8298 49.5057C98.8854 49.579 98.94 49.6511 98.9937 49.7216C100.119 51.2017 100.928 52.2 101.717 52.6939C102.046 52.8996 102.267 52.9449 102.433 52.9429C102.601 52.9408 102.933 52.8877 103.477 52.5244L103.478 52.5239L103.479 52.5234C103.985 52.1864 104.13 51.9292 104.179 51.8072C104.231 51.6814 104.272 51.4759 104.2 51.0942C104.028 50.1834 103.396 49.0536 102.439 47.4661C102.39 47.3838 102.339 47.2998 102.287 47.2143C101.48 45.8794 100.439 44.1577 100.054 42.4711C99.833 41.5025 99.7826 40.3859 100.196 39.2567C100.615 38.1112 101.421 37.1958 102.484 36.4873L102.486 36.4856C103.969 35.5003 105.543 35.3531 106.958 35.7163C108.282 36.056 109.386 36.815 110.202 37.5224C111.036 38.2458 111.708 39.0372 112.161 39.6269C112.391 39.9264 112.573 40.1853 112.701 40.3738C112.765 40.4682 112.816 40.5457 112.853 40.6025C112.871 40.6309 112.886 40.6542 112.897 40.672C112.903 40.6809 112.907 40.6884 112.911 40.6944L112.916 40.7024L112.919 40.707C112.919 40.7076 112.92 40.7083 110.99 41.8947C109.061 43.0811 109.062 43.0817 109.062 43.0822L109.063 43.0832L109.063 43.0836C109.06 43.0791 109.054 43.0694 109.045 43.055C109.026 43.0263 108.995 42.9789 108.953 42.9161C108.867 42.7901 108.737 42.6051 108.569 42.3869C108.227 41.9412 107.762 41.4021 107.235 40.9449C106.689 40.4717 106.206 40.2 105.833 40.104Z" fill="white"/>
</g>
<path d="M67.8158 205.5L68.7364 205.494C75.9374 205.404 81.6316 204.137 81.6316 196.816C81.6316 189.186 75.446 183 67.8158 183C60.1855 183 54 189.186 54 196.816C54 204.446 60.1855 205.5 67.8158 205.5Z" fill="#9CC93A"/>
<path d="M98.8158 205.5L99.7364 205.494C106.937 205.404 112.632 204.137 112.632 196.816C112.632 189.186 106.446 183 98.8158 183C91.1855 183 85 189.186 85 196.816C85 204.446 91.1855 205.5 98.8158 205.5Z" fill="#9CC93A"/>
<path d="M128.816 205.5L129.736 205.494C136.937 205.404 142.632 204.137 142.632 196.816C142.632 189.186 136.446 183 128.816 183C121.186 183 115 189.186 115 196.816C115 204.446 121.186 205.5 128.816 205.5Z" fill="#9CC93A"/>
<path d="M253.561 29.8555C255.088 29.8555 256.327 31.0943 256.327 32.6221C256.327 34.0685 255.217 35.2538 253.802 35.376C254.09 36.0127 254.252 36.7186 254.252 37.4629C254.252 40.2639 251.982 42.5342 249.181 42.5342H257.94C260.741 42.5342 263.013 44.8055 263.013 47.6064H269.929C272.729 47.6066 275 49.8769 275 52.6777C275 55.4786 272.73 57.7498 269.929 57.75H262.332C261.455 59.2653 259.817 60.2852 257.94 60.2852H215.523C213.647 60.2852 212.009 59.2653 211.132 57.75H206.071C203.27 57.7498 201 55.4786 201 52.6777C201 49.8769 203.271 47.6066 206.071 47.6064H210.452C210.452 44.8055 212.722 42.5342 215.523 42.5342H221.748C221.748 39.7334 224.018 37.4629 226.819 37.4629H235.349C235.349 34.6619 237.62 32.3916 240.421 32.3916H249.181C249.746 32.3916 250.288 32.4849 250.796 32.6553C250.796 32.6442 250.795 32.6332 250.795 32.6221C250.795 31.0943 252.033 29.8556 253.561 29.8555Z" fill="white"/>
<path d="M140.047 2C143.684 2 146.634 4.94858 146.634 8.58594C146.634 8.65081 146.631 8.71586 146.629 8.78027H148.184C150.537 8.78048 152.445 10.6884 152.445 13.042H155.738C158.092 13.042 160 14.95 160 17.3037C160 19.6574 158.092 21.5654 155.738 21.5654H153.229C152.493 22.8389 151.116 23.6963 149.539 23.6963H133.461C131.884 23.6963 130.507 22.8389 129.771 21.5654H127.262C124.908 21.5654 123 19.6574 123 17.3037C123 14.95 124.908 13.042 127.262 13.042H127.843C127.843 10.6883 129.751 8.78037 132.104 8.78027H133.466C133.464 8.71585 133.461 8.65081 133.461 8.58594C133.461 4.94867 136.41 2.00015 140.047 2Z" fill="white"/>
</g>
<defs>
<clipPath id="clip0_102_69737">
<rect width="375" height="225" fill="white"/>
</clipPath>
<clipPath id="clip1_102_69737">
<rect width="55.3231" height="36.882" fill="white" transform="translate(69 33)"/>
</clipPath>
</defs>
</svg>
