<svg width="136" height="136" viewBox="0 0 136 136" fill="none" xmlns="http://www.w3.org/2000/svg">
<path d="M97.3115 127.373C97.3115 129.928 84.8824 132 69.5503 132C54.2182 132 41.7891 129.928 41.7891 127.373C41.7891 124.818 54.2182 122.746 69.5503 122.746C84.8824 122.746 97.3115 124.818 97.3115 127.373Z" fill="#F1F1F1"/>
<path d="M41.7891 11.4491C41.7891 9.54423 43.3427 8 45.2592 8H93.8414C95.7579 8 97.3115 9.54422 97.3115 11.4491V80.4316C97.3115 82.3365 95.7579 83.8807 93.8414 83.8807H45.2592C43.3427 83.8807 41.7891 82.3365 41.7891 80.4316V11.4491Z" fill="#606060"/>
<path fill-rule="evenodd" clip-rule="evenodd" d="M93.8414 10H45.2592C44.4358 10 43.7891 10.6602 43.7891 11.4491V80.4316C43.7891 81.2204 44.4358 81.8807 45.2592 81.8807H93.8414C94.6648 81.8807 95.3115 81.2204 95.3115 80.4316V11.4491C95.3115 10.6602 94.6648 10 93.8414 10ZM45.2592 8C43.3427 8 41.7891 9.54423 41.7891 11.4491V80.4316C41.7891 82.3365 43.3427 83.8807 45.2592 83.8807H93.8414C95.7579 83.8807 97.3115 82.3365 97.3115 80.4316V11.4491C97.3115 9.54422 95.7579 8 93.8414 8H45.2592Z" fill="#606060"/>
<path d="M85.283 32.0595C85.283 40.7477 78.2399 47.7908 69.5517 47.7908C60.8635 47.7908 53.8203 40.7477 53.8203 32.0595C53.8203 23.3713 60.8635 16.3281 69.5517 16.3281C78.2399 16.3281 85.283 23.3713 85.283 32.0595Z" fill="#FFBC0D"/>
<path fill-rule="evenodd" clip-rule="evenodd" d="M73.4997 59.0384C74.8801 59.0384 75.9988 65.0855 75.9988 72.5455H78C78 64.5126 75.9842 58 73.4997 58C72.0864 58 70.8241 59.9567 70 63.0175C69.1747 59.9567 67.9136 58 66.5003 58C64.0146 58 62 64.5126 62 72.5455H64C64 65.0855 65.1199 59.0384 66.5003 59.0384C67.8807 59.0384 69.0006 64.6213 69.0006 71.5058H71.0006C71.0006 64.6213 72.1193 59.0384 73.4997 59.0384Z" fill="#FFBC0D"/>
<path d="M65.8477 86.8809H73.2506V125.634C73.2506 125.634 72.3253 127.373 69.5492 127.373C66.773 127.373 65.8477 125.634 65.8477 125.634V86.8809Z" fill="#D8D8D8"/>
<path d="M68.6238 86.8809H65.8477V125.701C65.8477 125.701 66.5633 127.048 68.6238 127.373V86.8809Z" fill="#A0A09F"/>
</svg>
