<svg width="375" height="225" viewBox="0 0 375 225" fill="none" xmlns="http://www.w3.org/2000/svg">
<path d="M187.988 165.402C163.785 165.402 143.206 152.994 135.656 135.699L129.926 135.699L131.752 101.433L138.272 101.499C147.316 86.8537 166.18 76.7794 187.988 76.7793C210.293 76.7793 229.52 87.3177 238.308 102.507L242.188 102.546L243.276 103.855L245.082 135.699L240.32 135.699C232.771 152.994 212.192 165.402 187.988 165.402Z" fill="#EAEAEA"/>
<mask id="mask0_17_28605" style="mask-type:luminance" maskUnits="userSpaceOnUse" x="129" y="76" width="117" height="90">
<path d="M187.989 165.402C163.786 165.402 143.206 152.994 135.656 135.699L129.926 135.699L131.752 101.433L138.272 101.499C147.316 86.8536 166.181 76.7793 187.989 76.7793C210.294 76.7794 229.521 87.3176 238.309 102.507L242.188 102.546L243.276 103.855L245.082 135.699L240.321 135.699C232.772 152.994 212.193 165.402 187.989 165.402Z" fill="white"/>
</mask>
<g mask="url(#mask0_17_28605)">
<path d="M186.398 190.648L186.398 74.6063L189.941 74.6063L189.941 190.648L186.398 190.648Z" fill="#FFBC0D"/>
<path d="M195.254 190.648L195.254 74.6063L198.797 74.6063L198.797 190.648L195.254 190.648Z" fill="#FFBC0D"/>
<path d="M204.113 190.648L204.113 74.6063L207.656 74.6063L207.656 190.648L204.113 190.648Z" fill="#FFBC0D"/>
<path d="M212.972 190.648L212.972 74.6063L216.516 74.6063L216.516 190.648L212.972 190.648Z" fill="#FFBC0D"/>
<path d="M221.828 190.648L221.828 74.6063L225.371 74.6063L225.371 190.648L221.828 190.648Z" fill="#FFBC0D"/>
<path d="M230.687 190.648L230.687 74.6063L234.23 74.6063L234.23 190.648L230.687 190.648Z" fill="#FFBC0D"/>
<path d="M239.547 190.648L239.547 74.6063L243.09 74.6063L243.09 190.648L239.547 190.648Z" fill="#FFBC0D"/>
<path d="M133.246 190.648L133.246 74.6063L136.789 74.6063L136.789 190.648L133.246 190.648Z" fill="#FFBC0D"/>
<path d="M142.105 190.648L142.105 74.6063L145.648 74.6063L145.648 190.648L142.105 190.648Z" fill="#FFBC0D"/>
<path d="M150.965 190.648L150.965 74.6063L154.508 74.6063L154.508 190.648L150.965 190.648Z" fill="#FFBC0D"/>
<path d="M159.82 190.648L159.82 74.6063L163.363 74.6063L163.363 190.648L159.82 190.648Z" fill="#FFBC0D"/>
<path d="M168.679 190.648L168.679 74.6063L172.223 74.6063L172.223 190.648L168.679 190.648Z" fill="#FFBC0D"/>
<path d="M177.539 190.648L177.539 74.6063L181.082 74.6063L181.082 190.648L177.539 190.648Z" fill="#FFBC0D"/>
</g>
<path fill-rule="evenodd" clip-rule="evenodd" d="M187.283 106.649C166.892 106.649 149.685 117.263 144.277 131.784C140.099 131.987 135.92 132.22 131.741 132.482C129.793 132.604 127.871 132.223 127.211 130.627C127.015 130.152 126.957 129.642 127.042 129.142L144.234 28.6498C144.521 26.9729 146.323 25.815 148.259 26.0636C148.444 26.0873 148.627 26.1238 148.805 26.1725C160.82 29.455 173.611 31.0963 187.178 31.0963C200.796 31.0963 213.809 29.4425 226.217 26.1351C228.088 25.6365 230.071 26.5458 230.646 28.166C230.699 28.3141 230.738 28.4655 230.764 28.6187L247.961 129.136C248.248 130.813 246.911 132.374 244.976 132.623C244.67 132.662 240.481 132.419 236.743 132.482C233.424 132.538 230.507 132.991 230.278 131.756C224.858 117.25 207.66 106.649 187.283 106.649Z" fill="#DB0007"/>
<path d="M176.802 84.6017C172.759 84.6017 169.47 68.0313 169.47 47.5894L163.587 47.5894C163.587 69.5799 169.621 87.4202 176.802 87.4202C180.936 87.4202 184.647 82.0619 187.061 73.6683C189.414 82.0929 193.186 87.4512 197.35 87.4512C204.501 87.4512 210.535 69.6109 210.535 47.6203L204.682 47.6203C204.682 68.0313 201.483 84.6017 197.35 84.6017C193.216 84.6017 190.018 69.3012 190.018 50.5318L184.164 50.5318C184.164 69.3941 180.876 84.6017 176.833 84.6017" fill="#FFBC0D"/>
<mask id="path-18-outside-1_17_28605" maskUnits="userSpaceOnUse" x="123.004" y="23" width="129" height="146" fill="black">
<rect fill="white" x="123.004" y="23" width="129" height="146"/>
<path d="M226.218 26.1367C228.088 25.6382 230.071 26.5478 230.646 28.168C230.699 28.3159 230.738 28.467 230.765 28.6201L247.962 129.138C248.249 130.815 246.911 132.376 244.976 132.624C244.961 132.626 244.938 132.623 244.906 132.624L245.081 135.7H240.319C232.769 152.995 212.191 165.403 187.987 165.403C163.784 165.403 143.205 152.995 135.655 135.7H129.925L130.098 132.444C128.793 132.283 127.681 131.765 127.211 130.628C127.015 130.153 126.957 129.643 127.042 129.144L131.734 101.71L131.75 101.434H131.782L144.234 28.6514C144.521 26.9746 146.323 25.817 148.259 26.0654C148.444 26.0892 148.627 26.1251 148.806 26.1738C160.821 29.4563 173.612 31.0977 187.179 31.0977C200.797 31.0976 213.81 29.4442 226.218 26.1367Z"/>
</mask>
<path d="M226.218 26.1367L225.445 23.2379L225.445 23.2379L226.218 26.1367ZM230.646 28.168L233.474 27.1643L233.473 27.1638L230.646 28.168ZM230.765 28.6201L233.722 28.1142L233.722 28.1141L230.765 28.6201ZM247.962 129.138L250.919 128.632L250.919 128.632L247.962 129.138ZM244.976 132.624L245.353 135.6L245.358 135.6L244.976 132.624ZM244.906 132.624L244.844 129.625L241.735 129.689L241.911 132.794L244.906 132.624ZM245.081 135.7V138.7H248.256L248.076 135.53L245.081 135.7ZM240.319 135.7V132.7H238.356L237.57 134.5L240.319 135.7ZM187.987 165.403L187.987 168.403H187.987V165.403ZM135.655 135.7L138.405 134.5L137.619 132.7H135.655V135.7ZM129.925 135.7L126.929 135.541L126.761 138.7H129.925V135.7ZM130.098 132.444L133.093 132.603L133.242 129.81L130.465 129.467L130.098 132.444ZM127.211 130.628L124.438 131.773L124.438 131.774L127.211 130.628ZM127.042 129.144L129.999 129.649L129.999 129.649L127.042 129.144ZM131.734 101.71L134.691 102.216L134.72 102.049L134.73 101.879L131.734 101.71ZM131.75 101.434V98.4336H128.915L128.755 101.264L131.75 101.434ZM131.782 101.434V104.434H134.313L134.739 101.94L131.782 101.434ZM144.234 28.6514L147.191 29.1573L147.191 29.1573L144.234 28.6514ZM148.259 26.0654L148.641 23.0899L148.641 23.0898L148.259 26.0654ZM148.806 26.1738L148.015 29.0678L148.015 29.0678L148.806 26.1738ZM187.179 31.0977V34.0977H187.179L187.179 31.0977ZM226.218 26.1367L226.99 29.0355C227.238 28.9696 227.486 29.0018 227.667 29.0847C227.85 29.1687 227.844 29.24 227.82 29.1722L230.646 28.168L233.473 27.1638C232.279 23.8 228.531 22.4154 225.445 23.2379L226.218 26.1367ZM230.646 28.168L227.819 29.1716C227.815 29.1586 227.811 29.1433 227.808 29.1262L230.765 28.6201L233.722 28.1141C233.666 27.7908 233.583 27.4732 233.474 27.1643L230.646 28.168ZM230.765 28.6201L227.808 29.126L245.005 129.644L247.962 129.138L250.919 128.632L233.722 28.1142L230.765 28.6201ZM247.962 129.138L245.005 129.644C244.997 129.596 245.001 129.541 245.014 129.496C245.026 129.456 245.038 129.448 245.024 129.465C244.993 129.501 244.865 129.614 244.594 129.648L244.976 132.624L245.358 135.6C248.562 135.188 251.561 132.383 250.919 128.632L247.962 129.138ZM244.976 132.624L244.598 129.648C244.686 129.637 244.759 129.631 244.813 129.629C244.866 129.626 244.911 129.625 244.94 129.625C244.97 129.625 244.994 129.625 245.006 129.625C245.013 129.625 245.019 129.625 245.022 129.625C245.025 129.625 245.028 129.626 245.028 129.626C245.038 129.626 244.946 129.623 244.844 129.625L244.906 132.624L244.968 135.623C244.898 135.625 244.833 135.622 244.866 135.623C244.871 135.624 244.924 135.625 244.986 135.625C245.044 135.624 245.181 135.622 245.353 135.6L244.976 132.624ZM244.906 132.624L241.911 132.794L242.086 135.87L245.081 135.7L248.076 135.53L247.901 132.454L244.906 132.624ZM245.081 135.7V132.7H240.319V135.7V138.7H245.081V135.7ZM240.319 135.7L237.57 134.5C230.599 150.468 211.276 162.403 187.987 162.403V165.403V168.403C213.105 168.403 234.94 155.523 243.069 136.9L240.319 135.7ZM187.987 165.403L187.987 162.403C164.699 162.403 145.375 150.468 138.405 134.5L135.655 135.7L132.906 136.9C141.035 155.523 162.869 168.403 187.987 168.403L187.987 165.403ZM135.655 135.7V132.7H129.925V135.7V138.7H135.655V135.7ZM129.925 135.7L132.921 135.859L133.093 132.603L130.098 132.444L127.102 132.285L126.929 135.541L129.925 135.7ZM130.098 132.444L130.465 129.467C130.279 129.444 130.135 129.412 130.029 129.38C129.922 129.348 129.869 129.32 129.854 129.311C129.841 129.304 129.865 129.316 129.902 129.357C129.942 129.401 129.969 129.448 129.983 129.482L127.211 130.628L124.438 131.774C125.515 134.378 127.972 135.205 129.73 135.422L130.098 132.444ZM127.211 130.628L129.984 129.483C129.991 129.499 129.998 129.524 130.002 129.555C130.005 129.587 130.004 129.619 129.999 129.649L127.042 129.144L124.085 128.638C123.903 129.703 124.03 130.785 124.438 131.773L127.211 130.628ZM127.042 129.144L129.999 129.649L134.691 102.216L131.734 101.71L128.777 101.204L124.085 128.638L127.042 129.144ZM131.734 101.71L134.73 101.879L134.745 101.603L131.75 101.434L128.755 101.264L128.739 101.541L131.734 101.71ZM131.75 101.434V104.434H131.782V101.434V98.4336H131.75V101.434ZM131.782 101.434L134.739 101.94L147.191 29.1573L144.234 28.6514L141.277 28.1455L128.825 100.928L131.782 101.434ZM144.234 28.6514L147.191 29.1573C147.172 29.2681 147.122 29.2425 147.25 29.1604C147.379 29.0773 147.603 29.0059 147.877 29.041L148.259 26.0654L148.641 23.0898C145.484 22.6847 141.895 24.5369 141.277 28.1455L144.234 28.6514ZM148.259 26.0654L147.877 29.041C147.932 29.0482 147.979 29.0579 148.015 29.0678L148.806 26.1738L149.596 23.2799C149.276 23.1923 148.955 23.1302 148.641 23.0899L148.259 26.0654ZM148.806 26.1738L148.015 29.0678C160.31 32.4266 173.369 34.0977 187.179 34.0977V31.0977V28.0977C173.856 28.0977 161.332 26.486 149.596 23.2799L148.806 26.1738ZM187.179 31.0977L187.179 34.0977C201.042 34.0976 214.316 32.4141 226.99 29.0355L226.218 26.1367L225.445 23.2379C213.304 26.4742 200.552 28.0976 187.179 28.0977L187.179 31.0977Z" fill="white" mask="url(#path-18-outside-1_17_28605)"/>
<ellipse cx="188" cy="204.801" rx="80" ry="10" fill="#A0A09F" fill-opacity="0.15"/>
</svg>
