<svg width="376" height="226" viewBox="0 0 376 226" fill="none" xmlns="http://www.w3.org/2000/svg">
<ellipse cx="188.25" cy="209.779" rx="64.5859" ry="10.0133" fill="#A0A09F" fill-opacity="0.15"/>
<path fill-rule="evenodd" clip-rule="evenodd" d="M177.021 155.609C177.211 151.986 172.664 151.985 168.062 151.983C163.004 151.982 157.88 151.98 158.903 147.171C159.996 142.028 163.254 141.667 166.888 141.265C169.744 140.949 172.832 140.608 175.284 137.899C179.11 133.674 181.582 129.953 183.648 126.841C184.593 125.419 185.453 124.124 186.319 122.967C187.78 121.013 191.533 120.61 194.962 120.242C198.009 119.914 200.8 119.615 201.503 118.279C202.013 117.309 201.79 115.786 201.559 114.201C201.112 111.146 200.633 107.861 205.296 107.861C208.987 107.861 209.725 111.961 210.432 115.889C211.083 119.5 211.707 122.967 214.577 122.967C220.567 122.967 226.358 110.587 226.358 110.587C226.358 110.587 230.351 106.976 230.351 104.172C230.351 101.367 226.358 95.7592 226.358 95.7592V88.3539C226.358 88.3539 225.16 82.7456 221.765 82.3463C218.371 81.9469 218.371 88.3539 218.371 88.3539L220.567 98.3636C222.468 105.656 216.773 110.587 214.577 110.587C212.38 110.587 210.583 104.172 210.583 104.172L207.588 98.3636C207.588 98.3636 202.197 99.77 200.2 98.3636C198.204 96.9572 198.803 92.9551 198.803 92.9551L202.197 88.3539L207.588 83.9437L212.38 75.132L218.032 71.5378C208.996 66.4172 198.805 63.6811 188.419 63.5871C178.034 63.4931 167.795 66.0443 158.667 71.0005C149.54 75.9567 141.825 83.1548 136.248 91.9166C130.671 100.678 127.416 110.716 126.79 121.083C128.526 118.939 131.33 115.805 132.684 115.457C134.256 115.067 137.025 117.194 138.197 118.288V130.233C136.365 132.734 132.415 137.734 131.339 137.734C130.274 137.977 129.26 138.406 128.344 139.002C130.216 146.828 133.611 154.209 138.336 160.723C143.061 167.237 149.023 172.756 155.881 176.966C157.449 175.292 160.159 173.085 163.127 170.669C169.397 165.563 176.815 159.522 177.021 155.609ZM142.364 144.627C141.913 143.759 142.364 139.34 145.42 136.519C146.051 135.939 147.477 135.8 148.668 135.684C149.707 135.583 150.568 135.499 150.568 135.156C150.568 134.854 149.706 134.552 148.577 134.157C146.95 133.587 144.77 132.823 143.831 131.588C142.243 129.495 144.569 124.443 145.42 122.967C145.802 122.305 147.222 121.618 148.672 120.917C150.453 120.056 152.279 119.173 152.279 118.288C152.279 117.35 151.279 116.753 150.227 116.125C149.477 115.676 148.701 115.212 148.242 114.598C147.373 113.417 145.42 109.016 144.569 106.967C145.056 104.831 146.089 100.421 146.306 99.8308C146.549 99.0842 147.773 97.7386 152.305 97.3653V103.442C153.407 103.685 156.272 104.371 158.92 105.179C160.547 105.648 161.821 108.543 163.124 111.507C164.448 114.519 165.803 117.601 167.593 118.279C171.143 119.625 171.065 130.832 170.041 133.298C169.489 134.627 166.897 135.061 163.782 135.582H163.781C161.118 136.027 158.071 136.537 155.586 137.725C151.28 139.809 144.977 143.195 142.364 144.627ZM215.297 164.456C215.297 164.456 212.38 155.644 210.583 152.44C208.786 149.237 200.166 154.047 196.207 157.25C193.641 159.478 191.657 162.296 190.425 165.463C190.425 165.463 170.718 176.514 160.3 179.431C170.173 184.415 181.213 186.629 192.244 185.837C203.275 185.045 213.886 181.277 222.946 174.934L215.297 164.456ZM223.363 162.025C223.363 162.025 220.168 157.016 221.765 155.609C223.363 154.246 238.408 154.741 238.399 157.866C238.397 158.389 238.362 158.911 238.295 159.429C236.419 162.145 234.329 164.705 232.044 167.086L223.363 162.025Z" fill="#CBE0F3"/>
<path d="M218.032 71.5385C225.418 75.7178 231.854 81.3874 236.93 88.1876C242.007 94.9878 245.612 102.77 247.52 111.039C249.427 119.308 249.594 127.884 248.009 136.22C246.423 144.557 243.121 152.473 238.312 159.465C238.379 158.947 238.415 158.425 238.417 157.902C238.417 154.699 223.373 154.238 221.774 155.644C220.182 157.046 223.35 162.027 223.371 162.06L232.053 167.122C229.281 170.018 226.23 172.635 222.946 174.935L215.298 164.456C215.279 164.4 212.375 155.634 210.584 152.441C208.786 149.238 200.201 154.048 196.207 157.251C193.649 159.47 191.668 162.276 190.434 165.429C190.371 165.464 170.71 176.484 160.309 179.397C158.798 178.668 157.322 177.8 155.89 176.932C160.769 171.723 176.726 161.34 177.022 155.61C177.412 148.04 156.924 156.382 158.885 147.206C160.847 138.03 169.703 144.055 175.285 137.9C180.867 131.745 183.567 126.657 186.328 122.967C189.089 119.278 200.01 121.127 201.503 118.279C202.996 115.432 198.213 107.862 205.296 107.862C212.381 107.862 208.587 122.967 214.577 122.967C220.568 122.967 226.358 110.587 226.358 110.587C226.359 110.586 230.351 106.975 230.351 104.172C230.351 101.374 226.375 95.7845 226.358 95.7602V88.3548C226.358 88.3548 225.16 82.7463 221.766 82.3468C218.371 81.9475 218.371 88.3548 218.371 88.3548L220.568 98.3642C222.469 105.656 216.774 110.587 214.577 110.587C212.381 110.587 210.584 104.172 210.584 104.172L207.589 98.3642C207.586 98.3648 202.197 99.7615 200.201 98.3642C198.204 96.9665 198.802 92.9556 198.802 92.9556L202.198 88.3548L207.589 83.9446L212.381 75.1331L218.032 71.5385ZM152.33 103.383C153.433 103.643 156.341 104.328 158.946 105.118C162.185 106.118 164.019 116.599 167.463 118.218L167.791 118.359C171.175 119.99 171.041 130.88 170.076 133.307C169.06 135.773 160.978 135.157 155.587 137.726C151.281 139.801 144.969 143.187 142.364 144.619C141.948 143.759 142.365 139.332 145.421 136.511C146.637 135.434 150.595 135.834 150.595 135.096C150.595 134.358 145.446 133.62 143.857 131.527C142.269 129.435 144.587 124.382 145.446 122.907C146.306 121.431 152.305 119.825 152.305 118.228C152.305 116.63 149.37 116.014 148.267 114.538C147.382 113.357 145.464 108.956 144.596 106.907C145.108 104.771 146.141 100.361 146.332 99.7704C146.576 99.041 147.8 97.6785 152.33 97.3052V103.383ZM132.684 115.449C134.256 115.059 137.017 117.177 138.197 118.279V130.234C136.366 132.734 132.415 137.735 131.339 137.735C130.274 137.978 129.259 138.407 128.344 139.002C127.232 134.347 126.67 129.577 126.668 124.791C126.668 123.541 126.72 122.308 126.79 121.075C128.526 118.922 131.33 115.797 132.684 115.449Z" fill="#9CC93A"/>
<path d="M214.285 22.53C229.493 22.53 241.822 34.8222 241.822 49.9854C241.822 76.2265 216.254 96.8788 214.285 96.8788C212.317 96.8788 186.748 76.2265 186.748 49.9854C186.748 34.8222 199.077 22.53 214.285 22.53ZM214.285 41.5553C209.584 41.5553 205.774 45.3659 205.774 50.0666C205.774 54.7672 209.584 58.5779 214.285 58.5779C218.986 58.5779 222.796 54.7672 222.796 50.0666C222.796 45.3659 218.986 41.5553 214.285 41.5553Z" fill="#FFBC0D"/>
<path d="M214.285 19.526C231.144 19.526 244.826 33.1549 244.826 49.9854C244.826 50.3034 244.821 50.6206 244.814 50.9369C244.813 50.992 244.812 51.0471 244.811 51.1021C244.793 51.7877 244.759 52.469 244.71 53.1459C244.706 53.2019 244.703 53.258 244.698 53.3141C244.675 53.623 244.648 53.931 244.618 54.2381C244.613 54.2949 244.607 54.3516 244.602 54.4083C244.571 54.7153 244.537 55.0214 244.5 55.3265C244.494 55.378 244.488 55.4295 244.481 55.481C244.401 56.1261 244.307 56.7665 244.201 57.4025C244.191 57.4602 244.181 57.5179 244.171 57.5756C244.117 57.8936 244.06 58.2104 243.999 58.5261C243.991 58.5691 243.983 58.6122 243.975 58.6551C243.918 58.9492 243.858 59.2423 243.796 59.5342C243.78 59.6064 243.764 59.6783 243.748 59.7504C243.612 60.3733 243.465 60.9914 243.306 61.6044C243.294 61.6524 243.28 61.7002 243.268 61.7481C243.187 62.0581 243.102 62.3668 243.016 62.6742C242.911 63.0451 242.802 63.4141 242.69 63.7811C242.682 63.8078 242.674 63.8346 242.665 63.8613C242.564 64.1917 242.457 64.5199 242.35 64.847C242.307 64.9766 242.264 65.1061 242.221 65.2352C242.14 65.4728 242.058 65.7094 241.975 65.9451C241.925 66.0866 241.875 66.2277 241.824 66.3685C241.745 66.5861 241.664 66.8028 241.583 67.0188C241.529 67.1618 241.476 67.3048 241.421 67.4471C241.333 67.6747 241.243 67.901 241.153 68.1267C241.105 68.247 241.058 68.3678 241.009 68.4876C240.88 68.804 240.748 69.1185 240.614 69.4312C240.569 69.5358 240.523 69.6399 240.478 69.7441C240.359 70.0175 240.238 70.2892 240.115 70.5596C240.063 70.6751 240.01 70.7899 239.957 70.9048C239.848 71.1402 239.74 71.3749 239.629 71.6079C239.573 71.727 239.514 71.8453 239.457 71.9639C239.358 72.1685 239.259 72.3722 239.158 72.575C239.092 72.7073 239.027 72.8396 238.96 72.9711C238.874 73.1413 238.787 73.3107 238.7 73.4795C238.412 74.038 238.117 74.5893 237.816 75.1331C237.679 75.382 237.541 75.6296 237.401 75.8753C237.367 75.9337 237.334 75.9921 237.301 76.0503C237.142 76.3272 236.982 76.6019 236.821 76.8747C236.787 76.9326 236.752 76.99 236.717 77.0478C236.57 77.2949 236.422 77.5405 236.273 77.7841C236.223 77.8661 236.173 77.948 236.123 78.0295C235.992 78.2411 235.859 78.4505 235.728 78.6593C235.655 78.7736 235.584 78.8881 235.511 79.0015C235.164 79.5445 234.814 80.0793 234.459 80.6033C245.378 92.1115 252.081 107.67 252.081 124.789C252.081 160.25 223.334 188.997 187.873 188.997C152.412 188.997 123.664 160.25 123.664 124.789C123.664 90.2822 150.885 62.1325 185.024 60.6422C185.019 60.6216 185.015 60.6011 185.01 60.5806C184.869 59.9863 184.739 59.3875 184.62 58.7842C184.606 58.7156 184.594 58.6467 184.58 58.5779C184.51 58.2147 184.444 57.85 184.382 57.4837C184.371 57.4214 184.361 57.3592 184.351 57.2969C184.328 57.1605 184.306 57.024 184.285 56.8872C184.271 56.7973 184.258 56.7073 184.244 56.6173C184.223 56.4777 184.203 56.3378 184.183 56.1978C184.174 56.129 184.163 56.0603 184.154 55.9914C184.135 55.8502 184.117 55.7087 184.099 55.5671C184.086 55.458 184.072 55.3488 184.059 55.2395C184.05 55.1632 184.041 55.087 184.032 55.0107C184.016 54.8736 184.001 54.7364 183.987 54.599C183.977 54.5049 183.969 54.4106 183.959 54.3164C183.947 54.1917 183.935 54.0669 183.923 53.9418C183.914 53.8406 183.906 53.7392 183.898 53.6377C183.89 53.542 183.882 53.4462 183.874 53.3502C183.827 52.7349 183.792 52.1159 183.771 51.4933C183.769 51.4411 183.766 51.389 183.765 51.3368C183.751 50.8882 183.744 50.4376 183.744 49.9854C183.744 33.1548 197.426 19.526 214.285 19.526ZM185.829 63.6178C152.973 64.6958 126.668 91.6706 126.668 124.789C126.668 158.591 154.071 185.993 187.873 185.993C221.675 185.993 249.077 158.591 249.077 124.789C249.077 108.685 242.857 94.0342 232.689 83.1066C232.179 83.8006 231.667 84.4764 231.153 85.1298C227.712 89.5068 224.202 93.0412 221.4 95.5C220.002 96.727 218.75 97.7115 217.747 98.4082C217.25 98.7529 216.769 99.0586 216.334 99.2912C216.118 99.4064 215.865 99.529 215.594 99.6305C215.387 99.7084 214.895 99.8828 214.285 99.8828C213.675 99.8828 213.183 99.7084 212.976 99.6305C212.705 99.529 212.452 99.4064 212.236 99.2912C211.801 99.0587 211.321 98.7528 210.824 98.4082C209.82 97.7115 208.569 96.727 207.171 95.5C204.369 93.0412 200.858 89.5069 197.417 85.1298C192.893 79.3757 188.374 72.0142 185.831 63.6168L185.829 63.6178ZM214.285 22.53C199.315 22.53 187.134 34.4409 186.757 49.2765C186.751 49.5121 186.748 49.7484 186.748 49.9854C186.748 50.1587 186.75 50.3319 186.752 50.5047C186.757 50.8515 186.765 51.1974 186.779 51.5422C186.792 51.8937 186.81 52.2441 186.832 52.5934C186.852 52.899 186.875 53.2038 186.901 53.5077C186.967 54.2739 187.054 55.0344 187.16 55.789C187.174 55.8879 187.188 55.9867 187.202 56.0853C187.263 56.4972 187.329 56.9073 187.402 57.3155C187.403 57.3256 187.405 57.3357 187.406 57.3458C187.44 57.534 187.475 57.7216 187.511 57.909C191.772 80.2665 212.52 96.8788 214.285 96.8788C215.941 96.8788 234.285 82.2722 240.078 62.019C240.153 61.757 240.224 61.4937 240.295 61.2299C240.62 60.0174 240.901 58.7861 241.128 57.5365C241.375 56.1768 241.56 54.7962 241.677 53.3972C241.733 52.7192 241.775 52.0369 241.798 51.3505C241.803 51.2128 241.807 51.0749 241.81 50.9369C241.817 50.6206 241.822 50.3034 241.822 49.9854C241.822 34.8222 229.493 22.53 214.285 22.53ZM214.285 41.5553C217.663 41.5553 220.583 43.5235 221.957 46.3761C222.077 46.6242 222.184 46.8791 222.28 47.1398C222.566 47.922 222.741 48.758 222.786 49.6285C222.793 49.7736 222.796 49.9197 222.796 50.0666C222.796 50.2135 222.793 50.3596 222.786 50.5047C222.741 51.3751 222.566 52.2111 222.28 52.9933C222.184 53.2541 222.077 53.509 221.957 53.757C220.583 56.6096 217.663 58.5779 214.285 58.5779C210.906 58.5779 207.987 56.6096 206.613 53.757C206.493 53.509 206.385 53.2541 206.29 52.9933C206.004 52.2111 205.829 51.3751 205.784 50.5047C205.777 50.3596 205.774 50.2135 205.774 50.0666C205.774 49.9197 205.777 49.7736 205.784 49.6285C205.829 48.758 206.004 47.922 206.29 47.1398C206.385 46.8791 206.493 46.6242 206.613 46.3761C207.987 43.5235 210.906 41.5553 214.285 41.5553ZM214.285 44.5593C211.243 44.5593 208.778 47.025 208.778 50.0666C208.778 53.1082 211.243 55.5739 214.285 55.5739C214.38 55.5739 214.475 55.5718 214.569 55.5671C217.478 55.4195 219.792 53.0131 219.792 50.0666C219.792 47.025 217.327 44.5593 214.285 44.5593Z" fill="white"/>
</svg>
