<svg width="27" height="18" viewBox="0 0 27 18" fill="none" xmlns="http://www.w3.org/2000/svg">
<g clip-path="url(#clip0_109_43857)">
<path d="M0 0H27V18H0V0Z" fill="#055E1C"/>
<path d="M9.67929 10.7599C9.67929 11.4083 10.1924 11.9338 10.8255 11.9338H14.2642C14.2642 12.474 14.6919 12.9121 15.2195 12.9121H16.3657C16.8932 12.9121 17.3209 12.4741 17.3209 11.9338V10.7599H9.67929ZM17.4163 5.08594V7.82507C17.4163 8.25659 17.0735 8.60764 16.6521 8.60764V9.78156C17.7055 9.78156 18.5624 8.90391 18.5624 7.82507V5.08594H17.4163ZM9.20167 7.82512C9.20167 8.25664 8.8589 8.6077 8.4375 8.6077V9.78162C9.49092 9.78162 10.3479 8.90396 10.3479 7.82512V5.08599H9.20162V7.82512H9.20167Z" fill="white"/>
<path d="M15.6979 5.08594H16.8442V7.82507H15.6979V5.08594ZM13.9786 6.65136C13.9786 6.75925 13.8929 6.847 13.7875 6.847C13.6821 6.847 13.5965 6.75925 13.5965 6.65136V5.0861H12.4502V6.65136C12.4502 6.75925 12.3645 6.847 12.2592 6.847C12.1538 6.847 12.0681 6.75925 12.0681 6.65136V5.0861H10.9219V6.65136C10.9219 7.40651 11.5218 8.02092 12.2591 8.02092C12.5431 8.02092 12.8065 7.92953 13.0233 7.77428C13.24 7.92953 13.5035 8.02092 13.7875 8.02092C13.8446 8.02092 13.9008 8.01681 13.9562 8.00958C13.875 8.3523 13.5736 8.60786 13.2143 8.60786V9.78177C14.2678 9.78177 15.1247 8.90412 15.1247 7.82528V5.0861H13.9785L13.9786 6.65136Z" fill="white"/>
<path d="M10.9219 8.60938H12.6411V9.78329H10.9219V8.60938Z" fill="white"/>
</g>
<rect x="0.5" y="0.5" width="26" height="17" rx="0.5" stroke="black" stroke-opacity="0.2"/>
<defs>
<clipPath id="clip0_109_43857">
<rect width="27" height="18" rx="1" fill="white"/>
</clipPath>
</defs>
</svg>
