<svg width="72" height="72" viewBox="0 0 72 72" fill="none" xmlns="http://www.w3.org/2000/svg">
<path d="M63 62C63 63.6569 51.3594 65 37 65C22.6406 65 11 63.6569 11 62C11 60.3431 22.6406 59 37 59C51.3594 59 63 60.3431 63 62Z" fill="#F0F0F0"/>
<path d="M32.2264 15L31.2075 15.6792L30.1887 15L29.1698 15.6792L28.1509 15L27.1321 15.6792L26.1132 15L25.0943 15.6792L24.0755 15L23.0566 15.6792L22.0377 15L21.0189 15.6792L20 15V31.6415C20 32.3918 20.6082 33 21.3585 33H32.9056C33.6559 33 34.2641 32.3918 34.2641 31.6415V15L33.2453 15.6792L32.2264 15Z" fill="#808080"/>
<path d="M20 29.9434H34.2641V31.6415C34.2641 32.3917 33.6559 33 32.9056 33H21.3585C20.6082 33 20 32.3917 20 31.6415V29.9434Z" fill="#606060"/>
<path d="M34.2663 20.3866C32.9615 20.3866 31.9032 25.6002 31.9032 32.0303H30.0132C30.0132 25.6002 28.9564 20.3866 27.65 20.3866C26.3467 20.3866 25.2884 26.0334 25.2884 33.0009H23.3984C23.3984 25.4975 25.302 19.416 27.65 19.416C28.9866 19.416 30.1795 21.2439 30.9582 24.1028C31.7384 21.2439 32.9298 19.416 34.2663 19.416V20.3866Z" fill="#B3B3B3"/>
<path fill-rule="evenodd" clip-rule="evenodd" d="M51.6595 25.2699L51.6261 25.4762L50.792 25.3411L50.7703 25.5768L49.3762 25.4486L49.382 25.386L48.9927 25.4191L48.9953 25.4339L47.6156 25.6715L47.6131 25.6567L46.7665 25.8787L46.7447 25.7953L45.9178 26.071L44.0827 20.5684L45.2706 20.1723L45.0417 19.2991L46.3959 18.9441L46.6766 20.0146L47.9876 19.7888L47.894 18.6861L49.2889 18.5676L49.6347 22.6368L49.9937 18.7301L51.281 18.8484L51.4312 17.921L52.8132 18.1448L52.5539 19.7459L52.8776 18.1595L54.2493 18.4393L54.0644 19.3455L55.3382 19.5421L54.9058 22.3441L55.486 19.5589L56.8565 19.8444L55.8851 24.508L54.6127 24.2429L54.4995 24.9763L53.1159 24.7627L53.6026 21.6095L52.808 25.5042L51.6595 25.2699Z" fill="#B9B9B9"/>
<path d="M46.2064 22H44L46.4375 34H54.5625L57 22H54.7859C54.4944 23.5814 52.6849 24.7992 50.4962 24.7992C48.3074 24.7992 46.4979 23.5814 46.2064 22Z" fill="#9F9F9F"/>
<path fill-rule="evenodd" clip-rule="evenodd" d="M46.5406 21.5996L46.6009 21.9271C46.8443 23.2477 48.4188 24.3988 50.4973 24.3988C52.5758 24.3988 54.1503 23.2477 54.3937 21.9271L54.454 21.5996H57.4906L54.8906 34.3996H46.1117L43.5117 21.5996H46.5406ZM44.0011 21.9996L46.4386 33.9996H54.5636L57.0011 21.9996H54.7871C54.4956 23.5811 52.6861 24.7988 50.4973 24.7988C48.3085 24.7988 46.499 23.5811 46.2075 21.9996H44.0011Z" fill="white"/>
<path fill-rule="evenodd" clip-rule="evenodd" d="M51.6154 26.247C52.0545 26.247 52.4104 28.0608 52.4104 30.2984H53.047C53.047 27.889 52.4057 25.9355 51.6154 25.9355C51.1658 25.9355 50.7642 26.5224 50.502 27.4405C50.2395 26.5224 49.8383 25.9355 49.3887 25.9355C48.5979 25.9355 47.957 27.889 47.957 30.2984H48.5933C48.5933 28.0608 48.9496 26.247 49.3887 26.247C49.8278 26.247 50.1841 27.9216 50.1841 29.9866H50.8203C50.8203 27.9216 51.1762 26.247 51.6154 26.247Z" fill="#E0E0E0"/>
<path d="M40.1676 33.2658L41.6367 20.6387H32.3326L33.9649 33.2658H40.1676Z" fill="#F9F9F9"/>
<path fill-rule="evenodd" clip-rule="evenodd" d="M40.9021 26.9629C40.6234 24.9838 40.1926 23.7144 39.7087 23.7144C38.8693 23.7144 38.1876 27.8711 38.1876 33H36.9703C36.9703 27.4767 38.1963 23 39.7087 23C40.2551 23 40.7641 23.5419 41.1914 24.4759L40.9021 26.9629Z" fill="#A0A09F"/>
<path d="M33.9647 33.2658H36.3198L36 21.9991L41.5 20.9991L35.6552 20.6387H32.3324L33.9647 33.2658Z" fill="#EBEBEB"/>
<path fill-rule="evenodd" clip-rule="evenodd" d="M35.7785 10.0176L36.502 19.0398L37.4988 18.9599L36.7753 9.93771L35.7785 10.0176Z" fill="#D6D6D6"/>
<path d="M40 18.75C40 18.3358 39.6642 18 39.25 18H34.75C34.3358 18 34 18.3358 34 18.75C34 18.8881 34.1119 19 34.25 19H39.75C39.8881 19 40 18.8881 40 18.75Z" fill="#EBEBEB"/>
<path d="M42 20.5C42 19.6716 41.3284 19 40.5 19H33.5C32.6716 19 32 19.6716 32 20.5C32 20.7761 32.2239 21 32.5 21H41.5C41.7761 21 42 20.7761 42 20.5Z" fill="#F9F9F9"/>
<path d="M11 34C11 33.4477 11.4477 33 12 33H62C62.5523 33 63 33.4477 63 34V38C63 38.5523 62.5523 39 62 39H12C11.4477 39 11 38.5523 11 38V34Z" fill="#DBDBDB"/>
<path d="M15 39H59V61C59 61.5523 58.5523 62 58 62H16C15.4477 62 15 61.5523 15 61V39Z" fill="#D8D8D8"/>
<path d="M15 39H59V43H15V39Z" fill="#B3B3B3"/>
</svg>
