<svg width="44" height="44" viewBox="0 0 44 44" fill="none" xmlns="http://www.w3.org/2000/svg">
<path d="M2 5C2 3.34315 3.34315 2 5 2H39C40.6569 2 42 3.34315 42 5V39C42 40.6569 40.6569 42 39 42H5C3.34315 42 2 40.6569 2 39V5Z" fill="#D6D6D6"/>
<path fill-rule="evenodd" clip-rule="evenodd" d="M18.4961 10H9.74609C9.42303 10 9.30859 10.2287 9.30859 10.3333V18.6667C9.30859 18.7713 9.42303 19 9.74609 19H18.4961C18.8192 19 18.9336 18.7713 18.9336 18.6667V10.3333C18.9336 10.2287 18.8192 10 18.4961 10ZM18.4961 8.25H9.74609C8.53797 8.25 7.55859 9.18274 7.55859 10.3333V18.6667C7.55859 19.8173 8.53797 20.75 9.74609 20.75H18.4961C19.7042 20.75 20.6836 19.8173 20.6836 18.6667V10.3333C20.6836 9.18274 19.7042 8.25 18.4961 8.25Z" fill="#6F6F6F"/>
<path fill-rule="evenodd" clip-rule="evenodd" d="M18.4961 25H9.74609C9.42303 25 9.30859 25.2287 9.30859 25.3333V33.6667C9.30859 33.7713 9.42303 34 9.74609 34H18.4961C18.8192 34 18.9336 33.7713 18.9336 33.6667V25.3333C18.9336 25.2287 18.8192 25 18.4961 25ZM18.4961 23.25H9.74609C8.53797 23.25 7.55859 24.1827 7.55859 25.3333V33.6667C7.55859 34.8173 8.53797 35.75 9.74609 35.75H18.4961C19.7042 35.75 20.6836 34.8173 20.6836 33.6667V25.3333C20.6836 24.1827 19.7042 23.25 18.4961 23.25Z" fill="#6F6F6F"/>
<path fill-rule="evenodd" clip-rule="evenodd" d="M34.2461 10H25.4961C25.173 10 25.0586 10.2287 25.0586 10.3333V18.6667C25.0586 18.7713 25.173 19 25.4961 19H34.2461C34.5692 19 34.6836 18.7713 34.6836 18.6667V10.3333C34.6836 10.2287 34.5692 10 34.2461 10ZM34.2461 8.25H25.4961C24.288 8.25 23.3086 9.18274 23.3086 10.3333V18.6667C23.3086 19.8173 24.288 20.75 25.4961 20.75H34.2461C35.4542 20.75 36.4336 19.8173 36.4336 18.6667V10.3333C36.4336 9.18274 35.4542 8.25 34.2461 8.25Z" fill="#6F6F6F"/>
<path fill-rule="evenodd" clip-rule="evenodd" d="M27.2461 12.25C27.2461 12.1119 27.358 12 27.4961 12H32.2461C32.3842 12 32.4961 12.1119 32.4961 12.25V16.75C32.4961 16.8881 32.3842 17 32.2461 17H27.4961C27.358 17 27.2461 16.8881 27.2461 16.75V12.25Z" fill="#6F6F6F"/>
<path fill-rule="evenodd" clip-rule="evenodd" d="M11.4961 27.25C11.4961 27.1119 11.608 27 11.7461 27H16.4961C16.6342 27 16.7461 27.1119 16.7461 27.25V31.75C16.7461 31.8881 16.6342 32 16.4961 32H11.7461C11.608 32 11.4961 31.8881 11.4961 31.75V27.25Z" fill="#6F6F6F"/>
<path fill-rule="evenodd" clip-rule="evenodd" d="M11.4961 12.25C11.4961 12.1119 11.608 12 11.7461 12H16.4961C16.6342 12 16.7461 12.1119 16.7461 12.25V16.75C16.7461 16.8881 16.6342 17 16.4961 17H11.7461C11.608 17 11.4961 16.8881 11.4961 16.75V12.25Z" fill="#6F6F6F"/>
<path d="M27.2461 27.25C27.2461 27.1119 27.358 27 27.4961 27H32.2461C32.3842 27 32.4961 27.1119 32.4961 27.25V31.75C32.4961 31.8881 32.3842 32 32.2461 32H27.4961C27.358 32 27.2461 31.8881 27.2461 31.75V27.25Z" fill="#6F6F6F"/>
<path d="M23.3086 23.5C23.3086 23.3619 23.4205 23.25 23.5586 23.25H26.9961C27.1342 23.25 27.2461 23.3619 27.2461 23.5V26.75C27.2461 26.8881 27.1342 27 26.9961 27H23.5586C23.4205 27 23.3086 26.8881 23.3086 26.75V23.5Z" fill="#6F6F6F"/>
<path d="M23.3086 32.25C23.3086 32.1119 23.4205 32 23.5586 32H26.9961C27.1342 32 27.2461 32.1119 27.2461 32.25V35.5C27.2461 35.6381 27.1342 35.75 26.9961 35.75H23.5586C23.4205 35.75 23.3086 35.6381 23.3086 35.5V32.25Z" fill="#6F6F6F"/>
<path d="M32.4961 23.5C32.4961 23.3619 32.608 23.25 32.7461 23.25H36.1836C36.3217 23.25 36.4336 23.3619 36.4336 23.5V26.75C36.4336 26.8881 36.3217 27 36.1836 27H32.7461C32.608 27 32.4961 26.8881 32.4961 26.75V23.5Z" fill="#6F6F6F"/>
<path d="M32.4961 32.25C32.4961 32.1119 32.608 32 32.7461 32H36.1836C36.3217 32 36.4336 32.1119 36.4336 32.25V35.5C36.4336 35.6381 36.3217 35.75 36.1836 35.75H32.7461C32.608 35.75 32.4961 35.6381 32.4961 35.5V32.25Z" fill="#6F6F6F"/>
<path fill-rule="evenodd" clip-rule="evenodd" d="M5 1H39C41.2091 1 43 2.79086 43 5V39C43 41.2091 41.2091 43 39 43H5C2.79086 43 1 41.2091 1 39V5C1 2.79086 2.79086 1 5 1ZM5 2C3.34315 2 2 3.34315 2 5V39C2 40.6569 3.34315 42 5 42H39C40.6569 42 42 40.6569 42 39V5C42 3.34315 40.6569 2 39 2H5Z" fill="white"/>
</svg>
