<svg width="136" height="136" viewBox="0 0 136 136" fill="none" xmlns="http://www.w3.org/2000/svg">
<path fill-rule="evenodd" clip-rule="evenodd" d="M68.2503 111.838C94.2198 111.838 115.272 90.5045 115.272 64.1883C115.272 37.8721 94.2198 16.5385 68.2503 16.5385C42.2808 16.5385 21.2283 37.8721 21.2283 64.1883C21.2283 90.5045 42.2808 111.838 68.2503 111.838ZM68.2503 115.521C96.2271 115.521 118.907 92.5387 118.907 64.1883C118.907 35.838 96.2271 12.8555 68.2503 12.8555C40.2735 12.8555 17.5938 35.838 17.5938 64.1883C17.5938 92.5387 40.2735 115.521 68.2503 115.521Z" fill="url(#paint0_linear_4254_40821)"/>
<path fill-rule="evenodd" clip-rule="evenodd" d="M68.2503 111.838C94.2198 111.838 115.272 90.5045 115.272 64.1883C115.272 37.8721 94.2198 16.5385 68.2503 16.5385C42.2808 16.5385 21.2283 37.8721 21.2283 64.1883C21.2283 90.5045 42.2808 111.838 68.2503 111.838ZM68.2503 115.521C96.2271 115.521 118.907 92.5387 118.907 64.1883C118.907 35.838 96.2271 12.8555 68.2503 12.8555C40.2735 12.8555 17.5938 35.838 17.5938 64.1883C17.5938 92.5387 40.2735 115.521 68.2503 115.521Z" fill="url(#paint1_linear_4254_40821)"/>
<g style="mix-blend-mode:multiply">
<path fill-rule="evenodd" clip-rule="evenodd" d="M68 136C90.6437 136 109 133.314 109 130C109 126.686 90.6437 124 68 124C45.3563 124 27 126.686 27 130C27 133.314 45.3563 136 68 136Z" fill="#A0A09F" fill-opacity="0.15"/>
</g>
<path fill-rule="evenodd" clip-rule="evenodd" d="M37.9091 71.5H35C35 71.5 36.7786 85.4516 39.5343 99.25C42.29 113.048 46.084 127 46.084 127L50.1145 130C50.1145 130 57.6718 127 67.7481 127C77.8244 127 85.8855 130 85.8855 130L89.916 127C89.916 127 93.6794 113.202 96.4657 99.25C99.2519 85.2984 101 71.5 101 71.5H98.4667L99 69.5C101 63 102 58.5 103 52C100.422 51.281 97.024 51.9098 96.799 52.797C96.5359 53.8338 96.3416 54.5281 96.1132 55.3443L96.113 55.3448L96.113 55.3449L96.1128 55.3454L96.1117 55.3494C96.0062 55.7265 95.8933 56.1297 95.763 56.6049C94.7055 55.4299 92.5157 54.8277 90.3847 54.6251C89.8498 59.5058 89.3175 61.5615 88.1603 66.0303L88.1601 66.0313L88.1594 66.034C88.0515 66.4505 87.9382 66.8881 87.819 67.3508C88.0945 60.6011 88.4928 56.8576 89.6658 49.8727C87.2584 49.3868 84.124 49.7835 83.157 51.5215C82.5211 55.5091 82.1806 57.72 81.9425 61.1888L81.9028 60.1387C81.6889 54.4732 81.5535 50.8854 81.0418 44.7222C77.9913 44.9654 75.1577 46.3733 74.6341 48.2545L74.6672 48.712C74.7295 49.5699 74.8129 50.7201 74.8564 51.4351C72.7566 51.3882 70.4863 52.2921 69.6627 52.9506C69.2943 54.7905 69.0672 56.3361 68.8484 57.8258L68.8484 57.826C68.512 60.1162 68.1949 62.2746 67.4132 65.1683C67.4132 65.1683 66.8914 61.4811 68.6805 46.1103C68.7878 45.1879 65.3584 42.8545 62.9235 42.5307C62.3769 47.0052 61.897 51.4733 61.4762 55.9392C61.2363 50.6694 60.8282 45.3717 60.2428 40.0226C58.3905 39.6965 54.4231 42.9937 54.5129 43.9048C55.5506 54.4521 55.5695 56.123 55.6273 63.1831C54.6824 56.7756 54.2896 54.412 53.4259 50.5519C50.9946 50.7334 47.5247 53.323 47.7037 54.2211C48.5638 58.5393 48.7315 60.4286 49.0116 66.0799C48.2586 61.8452 47.6385 59.3999 46.9051 56.5083L46.9051 56.5083C46.4543 54.7306 45.9607 52.7842 45.3671 50.1497C45.2724 49.7286 40.9983 48.4432 38.6247 49.0742C38.8173 49.8667 39.0131 50.6594 39.2089 51.4521L39.209 51.4523C40.3513 56.076 41.4929 60.6971 41.9842 65.2525C40.6334 61.7455 39.3774 58.1641 38.2368 54.4769C35.8745 55.1488 32.87 59.6868 33.0044 60.0971C33.7144 62.2631 34.5599 64.0893 35.4272 65.9626C35.9519 67.096 36.4845 68.2466 37 69.5L37.9091 71.5Z" fill="white"/>
<path fill-rule="evenodd" clip-rule="evenodd" d="M35 71.5H43C43 71.5 49.6107 90.5 67.7481 90.5C85.8855 90.5 93 71.5 93 71.5H101C101 71.5 99.2519 85.2984 96.4657 99.25C93.6794 113.202 89.916 127 89.916 127L85.8855 130C85.8855 130 77.8244 127 67.7481 127C57.6718 127 50.1145 130 50.1145 130L46.084 127C46.084 127 42.2901 113.048 39.5344 99.25C36.7787 85.4516 35 71.5 35 71.5Z" fill="#DB0007"/>
<path fill-rule="evenodd" clip-rule="evenodd" d="M72.8287 96.5C70.5757 96.5 68.5658 99.393 67.2504 103.917C65.9364 99.393 63.9257 96.5 61.6722 96.5C57.7122 96.5 54.5 106.126 54.5 118H57.6879C57.6879 106.974 59.4726 98.036 61.6722 98.036C63.8732 98.036 65.6569 106.287 65.6569 116.465H68.8444C68.8444 106.287 70.6282 98.036 72.8287 98.036C75.0292 98.036 76.8134 106.974 76.8134 118H80C80 106.126 76.7896 96.5 72.8287 96.5Z" fill="#FFBC0D"/>
<path fill-rule="evenodd" clip-rule="evenodd" d="M45 69.5C45 69.5 51.5 88.5 68 88.5C84.5 88.5 91 69.5 91 69.5C91 69.5 95.5 69.5 99 69.5C101 63 102 58.5 103 52C100.422 51.281 97.024 51.9098 96.799 52.797C96.4138 54.3147 96.1762 55.0984 95.763 56.6049C94.7055 55.4299 92.5157 54.8277 90.3847 54.6251C89.7998 59.962 89.218 61.9211 87.819 67.3508C88.0945 60.6011 88.4928 56.8576 89.6658 49.8727C87.2584 49.3868 84.124 49.7835 83.157 51.5215C82.5211 55.5091 82.1806 57.72 81.9425 61.1888C81.7039 54.8971 81.5844 51.2576 81.0418 44.7222C77.9913 44.9654 75.1577 46.3733 74.6341 48.2545C74.6959 49.1111 74.8046 50.5825 74.8564 51.4351C72.7566 51.3882 70.4863 52.2921 69.6627 52.9506C68.7278 57.6191 68.7035 60.3921 67.4132 65.1683C67.4132 65.1683 66.8914 61.4811 68.6805 46.1103C68.7878 45.1879 65.3584 42.8545 62.9235 42.5307C62.3769 47.0052 61.897 51.4733 61.4762 55.9392C61.2363 50.6694 60.8282 45.3717 60.2428 40.0226C58.3905 39.6965 54.4231 42.9937 54.5129 43.9048C55.5506 54.4521 55.5695 56.123 55.6273 63.1831C54.6824 56.7756 54.2896 54.412 53.4259 50.5519C50.9946 50.7334 47.5247 53.323 47.7037 54.2211C48.5638 58.5393 48.7315 60.4286 49.0116 66.0799C47.7957 59.2418 46.9262 57.0697 45.3671 50.1497C45.2724 49.7286 40.9983 48.4432 38.6247 49.0742C39.9407 54.4895 41.4087 59.916 41.9842 65.2525C40.6334 61.7455 39.3774 58.1641 38.2368 54.4769C35.8745 55.1488 32.87 59.6868 33.0044 60.0971C34.144 63.5735 35.6326 66.1749 37 69.5H45Z" fill="#FFBC0D"/>
<path fill-rule="evenodd" clip-rule="evenodd" d="M52.0236 44.1504C51.8528 42.4165 53.1313 40.9935 55.1607 39.491C57.0614 38.0839 58.9435 37.2562 60.6749 37.561C61.7697 37.7537 62.6057 38.6462 62.7266 39.7512L62.7567 40.0365L62.8213 40.0329C62.9274 40.0287 63.0348 40.0313 63.1432 40.041L63.2518 40.0531C66.7524 40.5186 71.4918 43.5692 71.1624 46.3999C71.0887 47.0333 71.0183 47.6517 70.9512 48.2552L70.8022 49.6175L70.9421 49.5711C71.3424 49.4403 71.7576 49.3259 72.1788 49.2315L72.1962 49.2275L72.1416 48.4669L72.1331 48.2918C72.1296 48.0532 72.1602 47.8151 72.2243 47.5847C73.0779 44.518 76.7459 42.5572 80.8419 42.2307C82.215 42.1212 83.418 43.1432 83.532 44.5159C83.6001 45.336 83.6622 46.118 83.7193 46.8743L83.7932 47.884L83.8161 47.8745C85.5941 47.1234 87.8257 46.9849 89.9752 47.3869L90.1592 47.4227C91.4813 47.6896 92.3534 48.9571 92.13 50.2873C92.0638 50.6816 92.0001 51.0653 91.9388 51.4395L91.8022 52.2835L92.1753 52.3456C92.8435 52.4639 93.4792 52.617 94.0748 52.8078L94.2022 52.8495L94.2832 52.5394L94.3744 52.1829C95.103 49.3107 100.034 48.5783 103.67 49.5925C104.889 49.9325 105.662 51.1298 105.47 52.3807C104.517 58.5759 103.562 62.9442 101.89 68.575L101.73 69.1095L101.78 69.1246C102.852 69.4765 103.592 70.5319 103.49 71.7132L103.479 71.8147C102.306 81.0728 100.785 90.3813 98.9159 99.7402C97.0471 109.098 94.8507 118.404 92.3266 127.658C92.1795 128.198 91.8559 128.672 91.4074 129.006L87.3769 132.006C86.6969 132.512 85.8067 132.639 85.0122 132.344C79.9293 130.452 74.1777 129.501 67.7468 129.501C61.3298 129.501 55.7626 130.448 51.0356 132.324C50.2299 132.644 49.3159 132.524 48.6205 132.006L44.59 129.006C44.141 128.672 43.8172 128.197 43.6703 127.657C41.1261 118.301 38.9298 108.995 37.0815 99.7402C35.2329 90.4837 33.712 81.1759 32.5188 71.8167C32.3673 70.6282 33.0729 69.5486 34.126 69.1566L34.1327 69.154L33.8823 68.5936L33.6519 68.0863L32.7082 66.0401C31.8436 64.1521 31.2844 62.8113 30.7779 61.3264L30.6273 60.8759C30.135 59.3732 30.976 57.988 32.7412 55.8111L32.9065 55.6095C34.121 54.1461 35.3775 53.0129 36.6877 52.3985L36.8482 52.326L36.1941 49.6651C35.873 48.3437 36.6669 47.008 37.9811 46.6587C39.5066 46.2531 41.4072 46.3522 43.373 46.7735C44.1491 46.9398 44.891 47.1517 45.4871 47.3762C45.8248 47.5033 46.1217 47.6361 46.3816 47.7838C46.5815 47.8974 46.7655 48.022 46.9451 48.1789C47.3454 48.5286 47.6586 48.9512 47.8047 49.6007L47.9442 50.2145L48.1776 50.0518C49.5181 49.1391 51.0094 48.4483 52.4117 48.1725L52.36 47.6218L52.0236 44.1504ZM61.4748 55.9397C61.2349 50.6699 60.8267 45.3722 60.2413 40.0231C58.3891 39.697 54.4216 42.9942 54.5114 43.9053C55.3509 52.4379 55.5237 55.1613 55.5896 59.6284L55.6258 63.1835C54.7638 57.3381 54.3613 54.8583 53.6416 51.5374L53.4245 50.5524C50.9932 50.7339 47.5232 53.3235 47.7022 54.2216C48.4763 58.1079 48.6896 60.0269 48.9287 64.4916L49.0101 66.0803C48.2571 61.8457 47.637 59.4004 46.9037 56.5088C46.5022 54.9257 46.0667 53.2087 45.557 50.9911L45.3656 50.1502C45.2709 49.7291 40.9968 48.4437 38.6232 49.0747C38.8158 49.8672 39.0117 50.66 39.2075 51.4527C40.3498 56.0764 41.4914 60.6975 41.9827 65.253C40.632 61.746 39.3759 58.1646 38.2354 54.4774C35.873 55.1493 32.8685 59.6873 33.0029 60.0976C33.713 62.2635 34.5584 64.0898 35.4257 65.9631C35.8771 66.9382 36.3345 67.9261 36.7817 68.9813L36.9985 69.5005L37.9075 71.5005H34.9985C36.1843 80.8015 37.6958 90.0515 39.5329 99.2505C41.37 108.449 43.5532 117.699 46.0825 127L50.113 130C55.1512 128 61.0291 127 67.7466 127C74.4642 127 80.51 128 85.884 130L89.9146 127C92.4235 117.802 94.6067 108.552 96.4642 99.2505C98.3217 89.9494 99.8332 80.6994 100.999 71.5005H98.465L98.9985 69.5005L99.1776 68.915C101.059 62.7259 102.029 58.3035 102.999 52.0005C100.421 51.2815 97.0226 51.9102 96.7975 52.7975C96.6691 53.3034 96.5571 53.7277 96.4496 54.1245L95.7616 56.6054C94.704 55.4304 92.5142 54.8282 90.3832 54.6255C89.9097 58.9459 89.4383 61.0527 88.5337 64.579L87.8175 67.3513C88.0796 60.9308 88.4527 57.2304 89.4981 50.873L89.6644 49.8732C87.2569 49.3872 84.1225 49.784 83.1556 51.522C82.562 55.2438 82.2259 57.4178 81.9901 60.5114L81.941 61.1893C81.9274 60.8309 81.9142 60.4812 81.9013 60.139C81.7004 54.8169 81.5687 51.3283 81.1294 45.8157L81.0404 44.7227C77.9898 44.9659 75.1562 46.3738 74.6326 48.255C74.6426 48.3934 74.6538 48.5479 74.6658 48.7132C74.7109 49.3349 74.7672 50.1099 74.8113 50.7616L74.855 51.4355C72.7551 51.3887 70.4848 52.2926 69.6613 52.9511C69.2928 54.7911 69.0658 56.3367 68.8469 57.8265C68.5105 60.1166 68.1935 62.275 67.4117 65.1688C67.4117 65.1688 66.9308 61.7707 68.4752 47.8997L68.679 46.1108C68.7863 45.1884 65.357 42.855 62.922 42.5312C62.3754 47.0057 61.8956 51.4738 61.4748 55.9397Z" fill="white"/>
<path fill-rule="evenodd" clip-rule="evenodd" d="M68 136C90.6437 136 109 133.314 109 130C109 126.686 90.6437 124 68 124C45.3563 124 27 126.686 27 130C27 133.314 45.3563 136 68 136Z" fill="#A0A09F" fill-opacity="0.15"/>
<path fill-rule="evenodd" clip-rule="evenodd" d="M37.9091 71.5H35C35 71.5 36.7786 85.4516 39.5343 99.25C42.29 113.048 46.084 127 46.084 127L50.1145 130C50.1145 130 57.6718 127 67.7481 127C77.8244 127 85.8855 130 85.8855 130L89.916 127C89.916 127 93.6794 113.202 96.4657 99.25C99.2519 85.2984 101 71.5 101 71.5H98.4667L99 69.5C101 63 102 58.5 103 52C100.422 51.281 97.024 51.9098 96.799 52.797C96.5359 53.8338 96.3416 54.5281 96.1132 55.3443L96.113 55.3448L96.113 55.3449L96.1128 55.3454L96.1117 55.3494C96.0062 55.7265 95.8933 56.1297 95.763 56.6049C94.7055 55.4299 92.5157 54.8277 90.3847 54.6251C89.8498 59.5058 89.3175 61.5615 88.1603 66.0303L88.1601 66.0313L88.1594 66.034C88.0515 66.4505 87.9382 66.8881 87.819 67.3508C88.0945 60.6011 88.4928 56.8576 89.6658 49.8727C87.2584 49.3868 84.124 49.7835 83.157 51.5215C82.5211 55.5091 82.1806 57.72 81.9425 61.1888L81.9028 60.1387C81.6889 54.4732 81.5535 50.8854 81.0418 44.7222C77.9913 44.9654 75.1577 46.3733 74.6341 48.2545L74.6672 48.712C74.7295 49.5699 74.8129 50.7201 74.8564 51.4351C72.7566 51.3882 70.4863 52.2921 69.6627 52.9506C69.2943 54.7905 69.0672 56.3361 68.8484 57.8258L68.8484 57.826C68.512 60.1162 68.1949 62.2746 67.4132 65.1683C67.4132 65.1683 66.8914 61.4811 68.6805 46.1103C68.7878 45.1879 65.3584 42.8545 62.9235 42.5307C62.3769 47.0052 61.897 51.4733 61.4762 55.9392C61.2363 50.6694 60.8282 45.3717 60.2428 40.0226C58.3905 39.6965 54.4231 42.9937 54.5129 43.9048C55.5506 54.4521 55.5695 56.123 55.6273 63.1831C54.6824 56.7756 54.2896 54.412 53.4259 50.5519C50.9946 50.7334 47.5247 53.323 47.7037 54.2211C48.5638 58.5393 48.7315 60.4286 49.0116 66.0799C48.2586 61.8452 47.6385 59.3999 46.9051 56.5083L46.9051 56.5083C46.4543 54.7306 45.9607 52.7842 45.3671 50.1497C45.2724 49.7286 40.9983 48.4432 38.6247 49.0742C38.8173 49.8667 39.0131 50.6594 39.2089 51.4521L39.209 51.4523C40.3513 56.076 41.4929 60.6971 41.9842 65.2525C40.6334 61.7455 39.3774 58.1641 38.2368 54.4769C35.8745 55.1488 32.87 59.6868 33.0044 60.0971C33.7144 62.2631 34.5599 64.0893 35.4272 65.9626C35.9519 67.096 36.4845 68.2466 37 69.5L37.9091 71.5Z" fill="white"/>
<path fill-rule="evenodd" clip-rule="evenodd" d="M35 71.5H43C43 71.5 49.6107 90.5 67.7481 90.5C85.8855 90.5 93 71.5 93 71.5H101C101 71.5 99.2519 85.2984 96.4657 99.25C93.6794 113.202 89.916 127 89.916 127L85.8855 130C85.8855 130 77.8244 127 67.7481 127C57.6718 127 50.1145 130 50.1145 130L46.084 127C46.084 127 42.2901 113.048 39.5344 99.25C36.7787 85.4516 35 71.5 35 71.5Z" fill="#DB0007"/>
<path fill-rule="evenodd" clip-rule="evenodd" d="M72.8287 96.5C70.5757 96.5 68.5658 99.393 67.2504 103.917C65.9364 99.393 63.9257 96.5 61.6722 96.5C57.7122 96.5 54.5 106.126 54.5 118H57.6879C57.6879 106.974 59.4726 98.036 61.6722 98.036C63.8732 98.036 65.6569 106.287 65.6569 116.465H68.8444C68.8444 106.287 70.6282 98.036 72.8287 98.036C75.0292 98.036 76.8134 106.974 76.8134 118H80C80 106.126 76.7896 96.5 72.8287 96.5Z" fill="#FFBC0D"/>
<path fill-rule="evenodd" clip-rule="evenodd" d="M45 69.5C45 69.5 51.5 88.5 68 88.5C84.5 88.5 91 69.5 91 69.5C91 69.5 95.5 69.5 99 69.5C101 63 102 58.5 103 52C100.422 51.281 97.024 51.9098 96.799 52.797C96.4138 54.3147 96.1762 55.0984 95.763 56.6049C94.7055 55.4299 92.5157 54.8277 90.3847 54.6251C89.7998 59.962 89.218 61.9211 87.819 67.3508C88.0945 60.6011 88.4928 56.8576 89.6658 49.8727C87.2584 49.3868 84.124 49.7835 83.157 51.5215C82.5211 55.5091 82.1806 57.72 81.9425 61.1888C81.7039 54.8971 81.5844 51.2576 81.0418 44.7222C77.9913 44.9654 75.1577 46.3733 74.6341 48.2545C74.6959 49.1111 74.8046 50.5825 74.8564 51.4351C72.7566 51.3882 70.4863 52.2921 69.6627 52.9506C68.7278 57.6191 68.7035 60.3921 67.4132 65.1683C67.4132 65.1683 66.8914 61.4811 68.6805 46.1103C68.7878 45.1879 65.3584 42.8545 62.9235 42.5307C62.3769 47.0052 61.897 51.4733 61.4762 55.9392C61.2363 50.6694 60.8282 45.3717 60.2428 40.0226C58.3905 39.6965 54.4231 42.9937 54.5129 43.9048C55.5506 54.4521 55.5695 56.123 55.6273 63.1831C54.6824 56.7756 54.2896 54.412 53.4259 50.5519C50.9946 50.7334 47.5247 53.323 47.7037 54.2211C48.5638 58.5393 48.7315 60.4286 49.0116 66.0799C47.7957 59.2418 46.9262 57.0697 45.3671 50.1497C45.2724 49.7286 40.9983 48.4432 38.6247 49.0742C39.9407 54.4895 41.4087 59.916 41.9842 65.2525C40.6334 61.7455 39.3774 58.1641 38.2368 54.4769C35.8745 55.1488 32.87 59.6868 33.0044 60.0971C34.144 63.5735 35.6326 66.1749 37 69.5H45Z" fill="#FFBC0D"/>
<path fill-rule="evenodd" clip-rule="evenodd" d="M52.0236 44.1504C51.8528 42.4165 53.1313 40.9935 55.1607 39.491C57.0614 38.0839 58.9435 37.2562 60.6749 37.561C61.7697 37.7537 62.6057 38.6462 62.7266 39.7512L62.7567 40.0365L62.8213 40.0329C62.9274 40.0287 63.0348 40.0313 63.1432 40.041L63.2518 40.0531C66.7524 40.5186 71.4918 43.5692 71.1624 46.3999C71.0887 47.0333 71.0183 47.6517 70.9512 48.2552L70.8022 49.6175L70.9421 49.5711C71.3424 49.4403 71.7576 49.3259 72.1788 49.2315L72.1962 49.2275L72.1416 48.4669L72.1331 48.2918C72.1296 48.0532 72.1602 47.8151 72.2243 47.5847C73.0779 44.518 76.7459 42.5572 80.8419 42.2307C82.215 42.1212 83.418 43.1432 83.532 44.5159C83.6001 45.336 83.6622 46.118 83.7193 46.8743L83.7932 47.884L83.8161 47.8745C85.5941 47.1234 87.8257 46.9849 89.9752 47.3869L90.1592 47.4227C91.4813 47.6896 92.3534 48.9571 92.13 50.2873C92.0638 50.6816 92.0001 51.0653 91.9388 51.4395L91.8022 52.2835L92.1753 52.3456C92.8435 52.4639 93.4792 52.617 94.0748 52.8078L94.2022 52.8495L94.2832 52.5394L94.3744 52.1829C95.103 49.3107 100.034 48.5783 103.67 49.5925C104.889 49.9325 105.662 51.1298 105.47 52.3807C104.517 58.5759 103.562 62.9442 101.89 68.575L101.73 69.1095L101.78 69.1246C102.852 69.4765 103.592 70.5319 103.49 71.7132L103.479 71.8147C102.306 81.0728 100.785 90.3813 98.9159 99.7402C97.0471 109.098 94.8507 118.404 92.3266 127.658C92.1795 128.198 91.8559 128.672 91.4074 129.006L87.3769 132.006C86.6969 132.512 85.8067 132.639 85.0122 132.344C79.9293 130.452 74.1777 129.501 67.7468 129.501C61.3298 129.501 55.7626 130.448 51.0356 132.324C50.2299 132.644 49.3159 132.524 48.6205 132.006L44.59 129.006C44.141 128.672 43.8172 128.197 43.6703 127.657C41.1261 118.301 38.9298 108.995 37.0815 99.7402C35.2329 90.4837 33.712 81.1759 32.5188 71.8167C32.3673 70.6282 33.0729 69.5486 34.126 69.1566L34.1327 69.154L33.8823 68.5936L33.6519 68.0863L32.7082 66.0401C31.8436 64.1521 31.2844 62.8113 30.7779 61.3264L30.6273 60.8759C30.135 59.3732 30.976 57.988 32.7412 55.8111L32.9065 55.6095C34.121 54.1461 35.3775 53.0129 36.6877 52.3985L36.8482 52.326L36.1941 49.6651C35.873 48.3437 36.6669 47.008 37.9811 46.6587C39.5066 46.2531 41.4072 46.3522 43.373 46.7735C44.1491 46.9398 44.891 47.1517 45.4871 47.3762C45.8248 47.5033 46.1217 47.6361 46.3816 47.7838C46.5815 47.8974 46.7655 48.022 46.9451 48.1789C47.3454 48.5286 47.6586 48.9512 47.8047 49.6007L47.9442 50.2145L48.1776 50.0518C49.5181 49.1391 51.0094 48.4483 52.4117 48.1725L52.36 47.6218L52.0236 44.1504ZM61.4748 55.9397C61.2349 50.6699 60.8267 45.3722 60.2413 40.0231C58.3891 39.697 54.4216 42.9942 54.5114 43.9053C55.3509 52.4379 55.5237 55.1613 55.5896 59.6284L55.6258 63.1835C54.7638 57.3381 54.3613 54.8583 53.6416 51.5374L53.4245 50.5524C50.9932 50.7339 47.5232 53.3235 47.7022 54.2216C48.4763 58.1079 48.6896 60.0269 48.9287 64.4916L49.0101 66.0803C48.2571 61.8457 47.637 59.4004 46.9037 56.5088C46.5022 54.9257 46.0667 53.2087 45.557 50.9911L45.3656 50.1502C45.2709 49.7291 40.9968 48.4437 38.6232 49.0747C38.8158 49.8672 39.0117 50.66 39.2075 51.4527C40.3498 56.0764 41.4914 60.6975 41.9827 65.253C40.632 61.746 39.3759 58.1646 38.2354 54.4774C35.873 55.1493 32.8685 59.6873 33.0029 60.0976C33.713 62.2635 34.5584 64.0898 35.4257 65.9631C35.8771 66.9382 36.3345 67.9261 36.7817 68.9813L36.9985 69.5005L37.9075 71.5005H34.9985C36.1843 80.8015 37.6958 90.0515 39.5329 99.2505C41.37 108.449 43.5532 117.699 46.0825 127L50.113 130C55.1512 128 61.0291 127 67.7466 127C74.4642 127 80.51 128 85.884 130L89.9146 127C92.4235 117.802 94.6067 108.552 96.4642 99.2505C98.3217 89.9494 99.8332 80.6994 100.999 71.5005H98.465L98.9985 69.5005L99.1776 68.915C101.059 62.7259 102.029 58.3035 102.999 52.0005C100.421 51.2815 97.0226 51.9102 96.7975 52.7975C96.6691 53.3034 96.5571 53.7277 96.4496 54.1245L95.7616 56.6054C94.704 55.4304 92.5142 54.8282 90.3832 54.6255C89.9097 58.9459 89.4383 61.0527 88.5337 64.579L87.8175 67.3513C88.0796 60.9308 88.4527 57.2304 89.4981 50.873L89.6644 49.8732C87.2569 49.3872 84.1225 49.784 83.1556 51.522C82.562 55.2438 82.2259 57.4178 81.9901 60.5114L81.941 61.1893C81.9274 60.8309 81.9142 60.4812 81.9013 60.139C81.7004 54.8169 81.5687 51.3283 81.1294 45.8157L81.0404 44.7227C77.9898 44.9659 75.1562 46.3738 74.6326 48.255C74.6426 48.3934 74.6538 48.5479 74.6658 48.7132C74.7109 49.3349 74.7672 50.1099 74.8113 50.7616L74.855 51.4355C72.7551 51.3887 70.4848 52.2926 69.6613 52.9511C69.2928 54.7911 69.0658 56.3367 68.8469 57.8265C68.5105 60.1166 68.1935 62.275 67.4117 65.1688C67.4117 65.1688 66.9308 61.7707 68.4752 47.8997L68.679 46.1108C68.7863 45.1884 65.357 42.855 62.922 42.5312C62.3754 47.0057 61.8956 51.4738 61.4748 55.9397Z" fill="white"/>
<defs>
<linearGradient id="paint0_linear_4254_40821" x1="17.5937" y1="110.687" x2="17.5938" y2="12.8555" gradientUnits="userSpaceOnUse">
<stop stop-color="#FFD42C"/>
<stop offset="0.135417" stop-color="#FFBC0D"/>
<stop offset="0.330657" stop-color="#E76E1F"/>
<stop offset="0.682292" stop-color="#D51E14"/>
<stop offset="0.885417" stop-color="#CF1B1B"/>
<stop offset="0.9999" stop-color="#BD1330"/>
<stop offset="1" stop-color="#910063"/>
</linearGradient>
<linearGradient id="paint1_linear_4254_40821" x1="68.2503" y1="12.8555" x2="68.2503" y2="115.521" gradientUnits="userSpaceOnUse">
<stop offset="0.558109" stop-color="white" stop-opacity="0"/>
<stop offset="0.982202" stop-color="white"/>
</linearGradient>
</defs>
</svg>
