<svg width="153" height="98" viewBox="0 0 153 98" fill="none" xmlns="http://www.w3.org/2000/svg">
<rect x="1.5" y="9" width="150" height="80" rx="40" fill="white"/>
<path d="M113.782 31.3281C110.073 31.3281 106.756 36.2751 104.588 44.0074C102.423 36.2751 99.1088 31.3281 95.3946 31.3281C88.8684 31.3281 83.5742 47.7871 83.5742 68.0841H88.8257C88.8257 49.2376 91.7659 33.9489 95.3873 33.9489C99.0088 33.9489 101.955 48.0568 101.955 65.4591H107.208C107.208 48.0568 110.148 33.9489 113.775 33.9489C117.401 33.9489 120.336 49.2324 120.336 68.0841H125.589C125.601 47.7871 120.309 31.3281 113.782 31.3281Z" fill="#FFBC0D"/>
<path d="M39.443 49.7521C40.2151 50.5698 40.6012 51.803 40.6012 53.4516C40.6012 54.3957 40.3366 55.6365 39.8075 57.1741H36.008C36.2321 55.9536 36.3526 54.7164 36.3684 53.4756C36.3684 52.0505 35.832 51.3379 34.7592 51.3379C34.5195 51.3351 34.2822 51.3853 34.0641 51.4849C33.8461 51.5844 33.6527 51.7308 33.4979 51.9137C33.1507 52.2983 32.9771 52.9067 32.9771 53.739V57.1751H28.9453V46.3462C28.9453 42.1812 30.8673 40.0987 34.7113 40.0987C36.5374 40.0987 37.9147 40.451 38.8431 41.1556C39.7714 41.8601 40.2116 42.8528 40.1637 44.1335C40.1311 45.4635 39.4867 46.4083 38.2306 46.9678C36.9745 47.5273 35.2407 47.8154 33.0292 47.832V50.2821C33.3784 49.7509 33.8524 49.3133 34.4098 49.0075C34.9672 48.7016 35.591 48.5369 36.2267 48.5276C37.6022 48.5276 38.6743 48.9358 39.443 49.7521ZM33.0292 45.333V46.1952C33.9902 46.1799 34.754 46.0036 35.3206 45.6662C35.8872 45.3289 36.1955 44.8888 36.2455 44.3459C36.2767 43.8649 36.185 43.4775 35.9684 43.1808C35.7518 42.884 35.3799 42.7362 34.8519 42.7362C33.6361 42.7383 33.0285 43.6039 33.0292 45.333ZM52.1935 46.3181C53.1774 47.3593 53.6697 48.9212 53.6704 51.0037V56.0454C53.6704 58.1105 53.2191 59.7071 52.3164 60.8351C51.4137 61.9631 49.9361 62.5275 47.8836 62.5282C46.5227 62.5282 45.4058 62.2682 44.533 61.7483C43.6602 61.2284 43.0276 60.5599 42.6353 59.7429C42.2444 58.9342 42.0428 58.0472 42.0458 57.1491C42.0511 56.2803 42.1723 55.4161 42.4062 54.5793H46.2505C46.1644 55.5248 46.1213 56.4785 46.1213 57.4407C46.1213 59.074 46.7056 59.8907 47.8742 59.8907C49.0116 59.8907 49.5803 59.066 49.5803 57.4167V50.0884C49.5803 49.2089 49.4282 48.5404 49.1241 48.083C48.9867 47.8653 48.7945 47.6875 48.5667 47.5675C48.3389 47.4474 48.0836 47.3893 47.8263 47.3989C47.266 47.3989 46.8417 47.587 46.5536 47.9632C46.2654 48.3395 46.1213 48.8719 46.1213 49.5605L46.1692 50.9058H42.4197C42.3878 50.2644 42.3718 49.8878 42.3718 49.776C42.3709 48.9307 42.5773 48.0981 42.9728 47.351C43.3896 46.5646 44.0233 45.9142 44.7986 45.4767C45.6151 44.9957 46.624 44.7555 47.8253 44.7562C49.7494 44.7569 51.2037 45.2775 52.1883 46.3181H52.1935ZM67.6281 50.4247C67.6281 51.9616 67.3399 53.2625 66.7636 54.3273C66.1873 55.3922 65.4304 56.1849 64.493 56.7055C63.5804 57.2195 62.5502 57.4885 61.5028 57.4865C60.4623 57.4938 59.4343 57.2592 58.5 56.8013C57.5619 56.3398 56.7731 55.623 56.2243 54.7334C55.6389 53.8123 55.3466 52.6794 55.3473 51.3348C55.3473 49.9416 55.5903 48.8167 56.0764 47.9601C56.5624 47.1035 57.1752 46.4909 57.9147 46.1223C58.6135 45.7635 59.3871 45.5745 60.1727 45.5704C60.866 45.5603 61.5511 45.7212 62.1673 46.039C62.736 46.3291 63.2106 46.7747 63.5359 47.3239V45.2851C63.5359 44.4209 63.3518 43.7805 62.9838 43.364C62.6158 42.9475 62.1273 42.7393 61.5184 42.7393C60.9414 42.7393 60.4727 42.8997 60.1123 43.2204C59.7519 43.5411 59.5638 43.9971 59.5478 44.5886H55.8274C55.8259 43.8106 56.0467 43.0483 56.4638 42.3915C56.8888 41.7105 57.5255 41.158 58.374 40.7339C59.2225 40.3097 60.2477 40.0977 61.4497 40.0977C63.3869 40.0977 64.9003 40.6221 65.9897 41.671C67.0792 42.7199 67.6235 44.2626 67.6229 46.2993L67.6281 50.4247ZM63.5921 51.314C63.5921 50.2096 63.372 49.446 62.9318 49.0232C62.4915 48.6005 62.0402 48.3884 61.5778 48.387C61.0487 48.387 60.5841 48.639 60.1842 49.143C59.7842 49.6469 59.5839 50.4435 59.5832 51.5326C59.5832 52.6218 59.7835 53.4145 60.1842 53.9108C60.5848 54.4072 61.0494 54.6553 61.5778 54.6553C62.0423 54.6553 62.4936 54.4471 62.9318 54.0306C63.3699 53.6141 63.59 52.8536 63.5921 51.7492V51.314ZM79.5797 46.7627C80.4657 48.0996 80.9087 49.6886 80.9087 51.5295C80.9146 52.504 80.8299 53.4769 80.6556 54.4356C80.4809 55.361 80.2524 56.2753 79.9713 57.1741H76.3916C76.677 55.3061 76.8215 53.4192 76.8238 51.5295C76.8238 50.2488 76.7117 49.2401 76.4874 48.5036C76.2631 47.7671 75.7666 47.3989 74.998 47.3989C74.2293 47.3989 73.729 47.7671 73.4971 48.5036C73.2652 49.2401 73.1489 50.2488 73.1482 51.5295C73.1596 53.4198 73.3124 55.3066 73.6054 57.1741H70.0017C69.7206 56.2753 69.4921 55.361 69.3174 54.4356C69.1432 53.4769 69.0584 52.504 69.0643 51.5295C69.0643 49.6886 69.5129 48.0996 70.41 46.7627C71.3071 45.4257 72.8347 44.7572 74.9928 44.7572C77.1585 44.7572 78.6857 45.4257 79.5745 46.7627H79.5797Z" fill="url(#paint0_linear_465_42154)"/>
<defs>
<linearGradient id="paint0_linear_465_42154" x1="28.9453" y1="51.314" x2="80.9087" y2="51.314" gradientUnits="userSpaceOnUse">
<stop stop-color="#8E2065"/>
<stop offset="0.04" stop-color="#981C59"/>
<stop offset="0.18" stop-color="#B51035"/>
<stop offset="0.3" stop-color="#CA071C"/>
<stop offset="0.42" stop-color="#D7020C"/>
<stop offset="0.51" stop-color="#DB0007"/>
<stop offset="1" stop-color="#E57325"/>
</linearGradient>
</defs>
</svg>
