<svg width="27" height="18" viewBox="0 0 27 18" fill="none" xmlns="http://www.w3.org/2000/svg">
<g clip-path="url(#clip0_109_43727)">
<path d="M0 0H26.9474V1.63684H0V0ZM0 3.27368H26.9474V4.91053H0V3.27368ZM0 6.55263H26.9474V8.18947H0V6.55263ZM0 9.83158H26.9474V11.4684H0V9.83158ZM0 13.1211H26.9474V14.7579H0V13.1211ZM0 16.3632H26.9474V18H0V16.3632Z" fill="#BF0A30"/>
<path d="M0 0H8.18947V8.18947H0V0Z" fill="#002868"/>
<path d="M4.09515 1.58984L4.65831 3.32142H6.47936L5.00567 4.39511L5.56883 6.12669L4.09515 5.05827L2.62146 6.12669L3.18462 4.39511L1.71094 3.32142H3.53199L4.09515 1.58984Z" fill="white"/>
</g>
<rect x="0.5" y="0.5" width="26" height="17" rx="0.5" stroke="black" stroke-opacity="0.2"/>
<defs>
<clipPath id="clip0_109_43727">
<rect width="27" height="18" rx="1" fill="white"/>
</clipPath>
</defs>
</svg>
