<svg width="44" height="44" viewBox="0 0 44 44" fill="none" xmlns="http://www.w3.org/2000/svg">
<g clip-path="url(#clip0_17_28624)">
<path fill-rule="evenodd" clip-rule="evenodd" d="M39.3891 8.41927V25.0376C39.3891 25.4625 39.0446 25.807 38.6197 25.807H26.9253C26.5004 25.807 26.1559 25.4625 26.1559 25.0376V8.41927C26.1559 8.30985 26.1788 8.20577 26.2199 8.11152H25.2327C24.8928 8.11152 24.6172 7.83596 24.6172 7.49603V5.95729C24.6172 5.61736 24.8928 5.3418 25.2327 5.3418H40.3123C40.6522 5.3418 40.9278 5.61736 40.9278 5.95729V7.49603C40.9278 7.83596 40.6522 8.11152 40.3123 8.11152H39.325C39.3662 8.20577 39.3891 8.30985 39.3891 8.41927Z" fill="white"/>
<path d="M26.6172 8.57295C26.6172 8.318 26.8239 8.11133 27.0788 8.11133H38.4655C38.7204 8.11133 38.9271 8.318 38.9271 8.57295V12.7275C38.9271 12.9825 38.7204 13.1892 38.4655 13.1892H27.0788C26.8239 13.1892 26.6172 12.9825 26.6172 12.7275V8.57295Z" fill="#EAEAEA"/>
<path fill-rule="evenodd" clip-rule="evenodd" d="M27.2327 8.72682V24.7297H38.3116V8.72682H27.2327ZM26.9249 8.11133C26.755 8.11133 26.6172 8.24911 26.6172 8.41908V25.0374C26.6172 25.2074 26.755 25.3452 26.9249 25.3452H38.6193C38.7893 25.3452 38.9271 25.2074 38.9271 25.0374V8.41908C38.9271 8.24911 38.7893 8.11133 38.6193 8.11133H26.9249Z" fill="#292929"/>
<path d="M25.0781 5.95661C25.0781 5.87163 25.147 5.80273 25.232 5.80273H40.3116C40.3966 5.80273 40.4655 5.87163 40.4655 5.95661V7.49535C40.4655 7.58033 40.3966 7.64922 40.3116 7.64922H25.232C25.147 7.64922 25.0781 7.58033 25.0781 7.49535V5.95661Z" fill="#FFBC0D"/>
<path d="M27.2344 11.8047H38.3133V13.6512H27.2344V11.8047Z" fill="#292929"/>
<path d="M32.4648 13.1895H33.0803V24.73H32.4648V13.1895Z" fill="#292929"/>
<path d="M42.1571 38.3461C42.1571 39.2385 33.1668 39.9618 22.0766 39.9618C10.9865 39.9618 1.99609 39.2385 1.99609 38.3461C1.99609 37.4538 10.9865 36.7305 22.0766 36.7305C33.1668 36.7305 42.1571 37.4538 42.1571 38.3461Z" fill="#A0A09F" fill-opacity="0.15"/>
<path fill-rule="evenodd" clip-rule="evenodd" d="M7.64586 21.7744L7.65066 21.7683C7.88272 21.4737 8.04929 21.2617 8.15036 21.1092C8.15173 21.1071 8.15309 21.1051 8.15443 21.103C8.03055 20.9016 7.91502 20.6692 7.82056 20.4628C7.54033 19.8504 8.01119 19.2139 8.63488 19.2115C9.09391 19.2098 9.60378 19.2066 10.1513 19.2032L10.1965 19.2029C14.1161 19.1784 19.9899 19.1417 22.6324 19.5552C23.4122 19.6772 24.2831 20.0327 25.1579 20.5036C26.0383 20.9776 26.9495 21.5833 27.8151 22.2306C29.5348 23.5164 31.1102 24.9935 31.9361 25.9835C32.1662 26.0396 32.5468 26.0914 33.0799 26.1627L33.0875 26.1637C34.1276 26.3029 35.6227 26.503 37.1907 26.9529C39.0814 27.4952 40.1003 28.799 40.6359 30.1033C41.1658 31.3937 41.2334 32.7036 41.2334 33.3459V34.446C41.2334 35.1982 40.6236 35.8079 39.8714 35.8079H38.6846C38.0762 37.5975 36.382 38.8854 34.386 38.8854C32.39 38.8854 30.6958 37.5975 30.0874 35.8079H14.2187C13.6102 37.5975 11.9161 38.8854 9.92007 38.8854C7.92408 38.8854 6.22991 37.5975 5.62144 35.8079H4.58851C3.83633 35.8079 3.22656 35.1982 3.22656 34.446V33.3459C3.22656 27.3842 6.28193 23.5058 7.64586 21.7744Z" fill="white"/>
<path fill-rule="evenodd" clip-rule="evenodd" d="M14.3481 33.3452H29.9566C30.4121 31.3194 32.222 29.8061 34.3853 29.8061C36.5486 29.8061 38.3585 31.3194 38.814 33.3452H40.7711C40.7711 32.1104 40.5062 28.3836 37.0627 27.3958C35.5272 26.9553 34.0596 26.7589 33.018 26.6195L33.018 26.6195C32.4763 26.547 32.0499 26.4899 31.789 26.4219C31.709 26.4011 31.6432 26.3533 31.5903 26.2897C30.0025 24.3799 25.3819 20.452 22.5604 20.0105C19.9548 19.6028 14.0963 19.6394 10.1535 19.664C9.60613 19.6674 9.09566 19.6706 8.63595 19.6724C8.3227 19.6735 8.10929 19.985 8.23964 20.2699C8.36372 20.541 8.51206 20.8282 8.65406 21.0208C8.73715 21.1334 8.46577 21.4779 8.01261 22.0532C6.65993 23.7702 3.68751 27.5434 3.68751 33.3452H5.49066C5.9462 31.3194 7.75607 29.8061 9.91939 29.8061C12.0827 29.8061 13.8926 31.3194 14.3481 33.3452ZM16.8022 21.7023L17.1832 26.6209C17.2013 26.8554 17.3969 27.0363 17.632 27.0363H29.076C29.4512 27.0363 29.6615 26.6042 29.4263 26.3119C26.7194 22.9466 24.322 20.9075 17.2296 21.2207C16.9776 21.2319 16.7828 21.4508 16.8022 21.7023ZM14.1148 26.8727L8.1659 26.7557C7.9068 26.7506 7.70418 26.5277 7.74169 26.2713C8.11382 23.7274 9.7497 22.1015 10.5919 21.6768C11.2734 21.3331 12.9942 21.3308 13.7726 21.349C13.9984 21.3543 14.1794 21.5305 14.1976 21.7556L14.5724 26.3863C14.5939 26.6519 14.3812 26.8779 14.1148 26.8727ZM38.9246 34.3453C38.9246 34.689 38.8864 35.0237 38.814 35.3455H38.8781C39.9236 35.3455 40.7711 34.498 40.7711 33.4525V33.3452H38.814C38.8864 33.667 38.9246 34.0017 38.9246 34.3453ZM14.3481 35.3455H29.9566C29.8842 35.0237 29.846 34.689 29.846 34.3453C29.846 34.0017 29.8842 33.667 29.9566 33.3452H14.3481C14.4205 33.667 14.4587 34.0017 14.4587 34.3453C14.4587 34.689 14.4205 35.0237 14.3481 35.3455ZM5.49018 35.3434C4.48665 35.2963 3.6875 34.4677 3.6875 33.4525V33.3452H5.49065C5.41829 33.667 5.3801 34.0017 5.3801 34.3453C5.3801 34.6882 5.41812 35.0222 5.49018 35.3434Z" fill="#D90007"/>
<path d="M16.7656 29.8061C16.7656 29.2962 17.179 28.8828 17.6889 28.8828H22.1512C22.1512 29.3927 21.7379 29.8061 21.228 29.8061H16.7656Z" fill="white"/>
<path fill-rule="evenodd" clip-rule="evenodd" d="M39.1783 30.2356C39.2962 30.2592 39.3824 30.1293 39.3221 30.0192C38.9979 29.4272 38.1742 28.1144 37.6354 28.9393C37.1182 29.7306 38.548 30.1102 39.1783 30.2356Z" fill="white"/>
<path d="M19.5726 22.1133C18.6561 22.1133 17.9329 22.9158 18.0005 23.8574L18.0738 24.8785C18.0738 25.8158 18.8112 26.5756 19.7207 26.5756C20.6304 26.5756 21.3678 25.8158 21.3678 24.8785L21.5661 22.1133H19.5726Z" fill="#D90007"/>
<path d="M13.9952 34.3452C13.9952 36.5973 12.1695 38.4229 9.9175 38.4229C7.66547 38.4229 5.83984 36.5973 5.83984 34.3452C5.83984 32.0932 7.66547 30.2676 9.9175 30.2676C12.1695 30.2676 13.9952 32.0932 13.9952 34.3452Z" fill="#292929"/>
<path d="M11.6875 34.3457C11.6875 35.323 10.8953 36.1153 9.91799 36.1153C8.94069 36.1153 8.14844 35.323 8.14844 34.3457C8.14844 33.3684 8.94069 32.5762 9.91799 32.5762C10.8953 32.5762 11.6875 33.3684 11.6875 34.3457Z" fill="white"/>
<path d="M38.4639 34.3452C38.4639 36.5973 36.6383 38.4229 34.3862 38.4229C32.1342 38.4229 30.3086 36.5973 30.3086 34.3452C30.3086 32.0932 32.1342 30.2676 34.3862 30.2676C36.6383 30.2676 38.4639 32.0932 38.4639 34.3452Z" fill="#292929"/>
<path d="M36.1563 34.3457C36.1563 35.323 35.364 36.1153 34.3867 36.1153C33.4094 36.1153 32.6172 35.323 32.6172 34.3457C32.6172 33.3684 33.4094 32.5762 34.3867 32.5762C35.364 32.5762 36.1563 33.3684 36.1563 34.3457Z" fill="white"/>
</g>
<defs>
<clipPath id="clip0_17_28624">
<rect width="44" height="44" fill="white"/>
</clipPath>
</defs>
</svg>
