<svg width="27" height="18" viewBox="0 0 27 18" fill="none" xmlns="http://www.w3.org/2000/svg">
<g clip-path="url(#clip0_109_43767)">
<path d="M0 0H27V18.0002H0V0Z" fill="#496E2D"/>
<path d="M25.875 5.80859H23.3438C23.3438 5.34263 22.966 4.96484 22.5 4.96484C22.034 4.96484 21.6562 5.34263 21.6562 5.80859H19.125C19.125 6.27455 19.5309 6.65234 19.9969 6.65234H19.9688C19.9688 7.11831 20.3464 7.49609 20.8125 7.49609C20.8125 7.96206 21.1902 8.33984 21.6562 8.33984H23.3438C23.8097 8.33984 24.1875 7.96206 24.1875 7.49609C24.6535 7.49609 25.0312 7.11831 25.0312 6.65234H25.0031C25.4692 6.65234 25.875 6.27455 25.875 5.80859Z" fill="#FF9811"/>
<path d="M18 9H21V17.9998H18V9Z" fill="#D80027"/>
<path d="M24 9H27V17.9998H24V9Z" fill="#FF9811"/>
<path d="M21 9H24V17.9998H21V9Z" fill="black"/>
</g>
<rect x="0.5" y="0.5" width="26" height="17" rx="0.5" stroke="black" stroke-opacity="0.2"/>
<defs>
<clipPath id="clip0_109_43767">
<rect width="27" height="18" rx="1" fill="white"/>
</clipPath>
</defs>
</svg>
