<svg width="136" height="136" viewBox="0 0 136 136" fill="none" xmlns="http://www.w3.org/2000/svg">
<path fill-rule="evenodd" clip-rule="evenodd" d="M67.7981 124.001C92.5395 124.001 112.596 121.327 112.596 118.028C112.596 114.729 92.5395 112.055 67.7981 112.055C43.0568 112.055 23 114.729 23 118.028C23 121.327 43.0568 124.001 67.7981 124.001Z" fill="#A0A09F" fill-opacity="0.15"/>
<path fill-rule="evenodd" clip-rule="evenodd" d="M28.9727 14.4941L33.8258 19.4717L38.6789 14.4941L43.5321 19.4717L48.3852 14.4941L53.2383 19.4717L58.0914 14.4941L62.9446 19.4717L67.7977 14.4941L72.6508 19.4717L77.504 14.4941L82.3571 19.4717L87.2102 14.4941L92.0634 19.4717L96.9165 14.4941L101.77 19.4717L106.623 14.4941V114.046C106.623 116.245 104.84 118.028 102.641 118.028H32.9547C30.7555 118.028 28.9727 116.245 28.9727 114.046V14.4941Z" fill="white"/>
<path fill-rule="evenodd" clip-rule="evenodd" d="M28.9727 14.4941L33.8258 19.4717L38.6789 14.4941L43.5321 19.4717L48.3852 14.4941L53.2383 19.4717L58.0914 14.4941L62.9446 19.4717L67.7977 14.4941L72.6508 19.4717L77.504 14.4941L82.3571 19.4717L87.2102 14.4941L92.0634 19.4717L96.9165 14.4941L101.77 19.4717L106.623 14.4941V114.046C106.623 116.245 104.84 118.028 102.641 118.028H32.9547C30.7555 118.028 28.9727 116.245 28.9727 114.046V14.4941Z" fill="#C2945C"/>
<path fill-rule="evenodd" clip-rule="evenodd" d="M28.9727 99.1133H106.623V114.046C106.623 116.245 104.84 118.028 102.641 118.028H32.9547C30.7555 118.028 28.9727 116.245 28.9727 114.046V99.1133Z" fill="#DB0007"/>
<path fill-rule="evenodd" clip-rule="evenodd" d="M106.622 39.093C105.984 38.9537 105.342 38.8828 104.692 38.8828C96.4274 38.8828 89.0482 49.5337 84.2242 66.1842C79.3973 49.5337 72.0209 38.8828 63.7508 38.8828C49.2215 38.8828 37.4336 74.3146 37.4336 118.026H49.1327C49.1327 77.4448 55.6812 44.5336 63.7508 44.5336C71.829 44.5336 78.3747 74.9096 78.3747 112.375H90.0709C90.0709 74.9096 96.6222 44.5336 104.692 44.5336C105.347 44.5336 105.992 44.7503 106.624 45.1702C106.622 41.3716 106.622 43.3626 106.622 39.093Z" fill="#FFBC0D"/>
<path fill-rule="evenodd" clip-rule="evenodd" d="M98.699 12.7564L101.77 15.9059L104.841 12.7564C106.4 11.1579 109.112 12.2613 109.112 14.4938V114.045C109.112 117.619 106.215 120.516 102.641 120.516H32.9552C29.3815 120.516 26.4844 117.619 26.4844 114.045V14.4938C26.4844 12.2613 29.1966 11.1579 30.7551 12.7564L33.8263 15.9059L36.8975 12.7564C37.8455 11.784 39.3904 11.7554 40.3736 12.6706L40.4614 12.7564L43.5326 15.9059L46.6037 12.7564C47.5518 11.784 49.0967 11.7554 50.0799 12.6706L50.1677 12.7564L53.2388 15.9059L56.31 12.7564C57.258 11.784 58.803 11.7554 59.7861 12.6706L59.8739 12.7564L62.9451 15.9059L66.0162 12.7564C66.9643 11.784 68.5092 11.7554 69.4924 12.6706L69.5802 12.7564L72.6513 15.9059L75.7225 12.7564C76.6705 11.784 78.2155 11.7554 79.1986 12.6706L79.2864 12.7564L82.3576 15.9059L85.4288 12.7564C86.3768 11.784 87.9218 11.7554 88.9049 12.6706L88.9927 12.7564L92.0639 15.9059L95.135 12.7564C96.0831 11.784 97.628 11.7554 98.6112 12.6706L98.699 12.7564ZM106.622 114.045V14.4938L101.769 19.4714L96.916 14.4938L92.0629 19.4714L87.2097 14.4938L82.3566 19.4714L77.5035 14.4938L72.6503 19.4714L67.7972 14.4938L62.9441 19.4714L58.091 14.4938L53.2378 19.4714L48.3847 14.4938L43.5316 19.4714L38.6784 14.4938L33.8253 19.4714L28.9722 14.4938V114.045C28.9722 116.244 30.755 118.027 32.9542 118.027H102.64C104.839 118.027 106.622 116.244 106.622 114.045Z" fill="white"/>
</svg>
