<svg width="27" height="18" viewBox="0 0 27 18" fill="none" xmlns="http://www.w3.org/2000/svg">
<g clip-path="url(#clip0_109_43903)">
<path d="M0 0H27V17.9996H0V0Z" fill="#496E2D"/>
<path d="M0 17.9996V0H27" fill="#0052B4"/>
<path d="M27 3.52714V0H21.7092L0 14.4725V17.9996H5.29084L27 3.52714Z" fill="white"/>
<path d="M27 0V2.11597L3.17424 17.9996H0V15.8837L23.8258 0H27Z" fill="#A2001D"/>
<path d="M9.9008 5.47931L8.70156 6.04336L9.34018 7.20478L8.03801 6.95566L7.873 8.27112L6.96602 7.3036L6.05899 8.27112L5.89399 6.95566L4.59182 7.20473L5.23038 6.04336L4.03125 5.47931L5.23043 4.91521L4.59182 3.75389L5.89399 4.00291L6.05905 2.6875L6.96602 3.65502L7.87305 2.6875L8.03801 4.00291L9.34018 3.75389L8.70167 4.91532L9.9008 5.47931Z" fill="#FFDA44"/>
</g>
<rect x="0.5" y="0.5" width="26" height="17" rx="0.5" stroke="black" stroke-opacity="0.2"/>
<defs>
<clipPath id="clip0_109_43903">
<rect width="27" height="18" rx="1" fill="white"/>
</clipPath>
</defs>
</svg>
