<svg width="27" height="18" viewBox="0 0 27 18" fill="none" xmlns="http://www.w3.org/2000/svg">
<g clip-path="url(#clip0_109_43726)">
<path d="M0 0H27V18H0V0Z" fill="white"/>
<path d="M0 0H27V6H0V0Z" fill="#0052B4"/>
<path d="M0 11.9805H27V17.9805H0V11.9805Z" fill="#6DA544"/>
<path d="M12.9033 9.00144L13.3086 7.78565C13.4139 7.47513 13.577 7.46986 13.6823 7.78565L14.0875 9.00144L15.1086 10.533C15.1981 10.6699 15.177 10.8646 15.0454 10.9541C15.0454 10.9541 14.6823 11.3751 13.4928 11.3751C12.3033 11.3751 11.9402 10.9541 11.9402 10.9541C11.8139 10.8488 11.7875 10.6699 11.877 10.533L12.9033 9.00144Z" fill="black"/>
<path d="M13.4981 9.00004C12.8402 9.00004 12.3086 8.46846 12.3086 7.81057C12.3086 7.15267 12.8402 6.62109 13.4981 6.62109C14.156 6.62109 14.6875 7.15267 14.6875 7.81057C14.6875 8.46846 14.1507 9.00004 13.4981 9.00004ZM13.4981 9.00004C13.8244 9.00004 14.0928 8.14215 14.0928 7.81057C14.0928 7.48425 13.8244 7.21583 13.4981 7.21583C13.1718 7.21583 12.9033 7.48425 12.9033 7.81057C12.9033 8.14215 13.1665 9.00004 13.4981 9.00004Z" fill="black"/>
</g>
<rect x="0.5" y="0.5" width="26" height="17" rx="0.5" stroke="black" stroke-opacity="0.2"/>
<defs>
<clipPath id="clip0_109_43726">
<rect width="27" height="18" rx="1" fill="white"/>
</clipPath>
</defs>
</svg>
