<svg width="27" height="18" viewBox="0 0 27 18" fill="none" xmlns="http://www.w3.org/2000/svg">
<g clip-path="url(#clip0_109_43790)">
<path d="M0 0H27V17.9996H0V0Z" fill="white"/>
<path d="M6.01298 9.00005L0 2.98438V15.0168L6.01298 9.00005Z" fill="black"/>
<path d="M8.50036 8.99825L0 0.492188V2.98262L6.01298 8.9983L0 15.015V17.5008L8.50036 8.99825Z" fill="#FFB915"/>
<path d="M26.8857 10.7607C26.8888 10.7375 26.9281 10.7144 27 10.6912V7.23895H11.7388L4.49982 0H0V0.493752L8.50036 8.99981L0 17.5024V17.9996H4.49982L11.7388 10.7607H26.8857Z" fill="#007847"/>
<path d="M26.5332 12.5234H12.4664L6.98828 18.0015H26.9982V12.5234H26.5332Z" fill="#000C8A"/>
<path d="M26.5332 5.47805H26.9982V0H6.98828L12.4664 5.47805H26.5332Z" fill="#E1392D"/>
</g>
<rect x="0.5" y="0.5" width="26" height="17" rx="0.5" stroke="black" stroke-opacity="0.2"/>
<defs>
<clipPath id="clip0_109_43790">
<rect width="27" height="18" rx="1" fill="white"/>
</clipPath>
</defs>
</svg>
