<svg width="27" height="18" viewBox="0 0 27 18" fill="none" xmlns="http://www.w3.org/2000/svg">
<g clip-path="url(#clip0_109_43830)">
<path d="M0 0H27V17.9996H0V0Z" fill="white"/>
<path d="M0 0H27V5.99985H0V0Z" fill="#D80027"/>
<path d="M0 12H27V17.9999H0V12Z" fill="#0052B4"/>
<path d="M15.2712 6.92969L14.6071 7.59372C14.8903 7.87701 15.0656 8.26829 15.0656 8.7005C15.0656 9.56492 14.3648 10.2657 13.5004 10.2657C12.636 10.2657 11.9352 9.56487 11.9352 8.7005C11.9352 8.26835 12.1104 7.87701 12.3937 7.59372L11.7296 6.92969C11.2764 7.38289 10.9961 8.00895 10.9961 8.70045C10.9961 10.0836 12.1173 11.2048 13.5004 11.2048C14.8835 11.2048 16.0047 10.0836 16.0047 8.70045C16.0047 8.009 15.7244 7.38289 15.2712 6.92969Z" fill="#6DA544"/>
<path d="M13.4992 7.76172L13.7323 8.47917H14.4866L13.8763 8.92256L14.1095 9.63996L13.4992 9.19657L12.8889 9.63996L13.122 8.92256L12.5117 8.47917H13.266L13.4992 7.76172Z" fill="#FFDA44"/>
</g>
<rect x="0.5" y="0.5" width="26" height="17" rx="0.5" stroke="black" stroke-opacity="0.2"/>
<defs>
<clipPath id="clip0_109_43830">
<rect width="27" height="18" rx="1" fill="white"/>
</clipPath>
</defs>
</svg>
