<svg width="27" height="18" viewBox="0 0 27 18" fill="none" xmlns="http://www.w3.org/2000/svg">
<g clip-path="url(#clip0_109_43875)">
<path d="M0 0H27V18H0V0Z" fill="#003787"/>
<path d="M0 0H27L15 12V18H12V12L0 0Z" fill="white"/>
<path d="M13.5 9.5C14.6046 9.5 15.5 8.60457 15.5 7.5C15.5 6.39543 14.6046 5.5 13.5 5.5C12.3954 5.5 11.5 6.39543 11.5 7.5C11.5 8.60457 12.3954 9.5 13.5 9.5Z" fill="#F9D90F"/>
<path d="M11 7.5H16L13.5 12L11 7.5Z" fill="white"/>
<path d="M13.5 12L9.5 8.25H17.5L13.5 12Z" fill="#CF142B"/>
</g>
<rect x="0.5" y="0.5" width="26" height="17" rx="0.5" stroke="black" stroke-opacity="0.2"/>
<defs>
<clipPath id="clip0_109_43875">
<rect width="27" height="18" rx="1" fill="white"/>
</clipPath>
</defs>
</svg>
