<svg width="27" height="18" viewBox="0 0 27 18" fill="none" xmlns="http://www.w3.org/2000/svg">
<g clip-path="url(#clip0_109_43721)">
<path d="M0 0H27V18H0V0Z" fill="#338AF3"/>
<path d="M4.24003 7.20619L1.09375 5.81528L4.24003 4.43181L5.6235 1.29297L7.00697 4.43181L10.1532 5.81528L7.00697 7.20619L5.6235 10.345L4.24003 7.20619Z" fill="white"/>
<path d="M5.62482 3.01953L6.48019 4.96085L8.42151 5.81623L6.48019 6.6716L5.62482 8.61292L4.76945 6.6716L2.82812 5.81623L4.76945 4.96085L5.62482 3.01953Z" fill="#F30028"/>
<path d="M0 11.3203H27V12.4881H0V11.3203ZM0 13.6558H27V14.8236H0V13.6558Z" fill="#FFDA44"/>
</g>
<rect x="0.5" y="0.5" width="26" height="17" rx="0.5" stroke="black" stroke-opacity="0.2"/>
<defs>
<clipPath id="clip0_109_43721">
<rect width="27" height="18" rx="1" fill="white"/>
</clipPath>
</defs>
</svg>
