<svg width="375" height="225" viewBox="0 0 375 225" fill="none" xmlns="http://www.w3.org/2000/svg">
<g clip-path="url(#clip0_102_69754)">
<path d="M184.5 4C262.096 4 325 66.904 325 144.5C325 163.443 321.249 181.51 314.453 198H54.5469C47.7506 181.51 44 163.443 44 144.5C44 66.904 106.904 4 184.5 4Z" fill="#DCEDF4"/>
<ellipse cx="184" cy="203" rx="153" ry="14" fill="#A0A09F" fill-opacity="0.15"/>
<path d="M316 97V124H264L264.005 97H316Z" fill="#FFBC0D"/>
<path d="M190.926 120H77V97H191L190.926 120Z" fill="#FFBC0D"/>
<path d="M191 99L190.97 108H77V99H191Z" fill="black" fill-opacity="0.1"/>
<path d="M316 99V108H264L264.002 99H316Z" fill="black" fill-opacity="0.1"/>
<path d="M264 124H287V203H264V124Z" fill="#F9F9F9"/>
<path d="M288 124H316V203H288V124Z" fill="#F9F9F9"/>
<path d="M191 89L190.967 98.999L73.8004 99C72.8061 99 72 98.1942 72 97.2002V90.8008C72 89.8068 72.8061 89.001 73.8004 89.001L191 89Z" fill="#FFBC0D"/>
<path d="M318.212 89.001C319.2 89.001 320 89.8068 320 90.8008V97.2002C320 98.1942 319.2 99 318.212 99L264 98.999L264.002 89L318.212 89.001Z" fill="#FFBC0D"/>
<path d="M260.5 74.5234L260.473 202.998H194.569L194.5 74.5234L260.5 74.5234Z" fill="#F1F1F1"/>
<path d="M59.8 124H244.443C245.437 124 246.243 124.806 246.243 125.8V140H58V125.8C58 124.806 58.8059 124 59.8 124Z" fill="#606060"/>
<path d="M195 140H246V203H195V140Z" fill="#D8D8D8"/>
<path d="M109 140H137V203H109V140Z" fill="#F9F9F9"/>
<path d="M138 140H166V203H138V140Z" fill="#F9F9F9"/>
<path d="M167 140H195V203H167V140Z" fill="#F9F9F9"/>
<path d="M218 154H246V203H218V154Z" fill="#F9F9F9"/>
<path d="M58 198H109V204H58V198Z" fill="#A5835B"/>
<path d="M58 192H109V198H58V192Z" fill="#C2945C"/>
<path d="M58 187H109V193H58V187Z" fill="#A5835B"/>
<path d="M58 182H109V188H58V182Z" fill="#C2945C"/>
<path d="M58 177H109V183H58V177Z" fill="#A5835B"/>
<path d="M58 171H109V177H58V171Z" fill="#C2945C"/>
<path d="M58 166H109V172H58V166Z" fill="#A5835B"/>
<path d="M58 161H109V167H58V161Z" fill="#C2945C"/>
<path d="M58 156H109V162H58V156Z" fill="#A5835B"/>
<path d="M58 150H109V156H58V150Z" fill="#C2945C"/>
<path d="M58 145H109V151H58V145Z" fill="#A5835B"/>
<path d="M58 140H109V146H58V140Z" fill="#C2945C"/>
<path d="M136 140H140V203H136V140Z" fill="#D8D8D8"/>
<path d="M286 124H290V203H286V124Z" fill="#D8D8D8"/>
<path d="M312 124H316V203H312V124Z" fill="#D8D8D8"/>
<path d="M165 140H169V203H165V140Z" fill="#D8D8D8"/>
<path d="M218 154H246V160H218V154Z" fill="#A0A09F" fill-opacity="0.15"/>
<path d="M195 140H246V143H195V140Z" fill="#292929" fill-opacity="0.1"/>
<path d="M165 140H169V146H165V140Z" fill="#292929" fill-opacity="0.1"/>
<path d="M136 140H140V146H136V140Z" fill="#292929" fill-opacity="0.1"/>
<path d="M109 140H136V145H109V140Z" fill="#A0A09F" fill-opacity="0.15"/>
<path d="M140 140H165V145H140V140Z" fill="#A0A09F" fill-opacity="0.15"/>
<path d="M169 140H195V145H169V140Z" fill="#A0A09F" fill-opacity="0.15"/>
<path fill-rule="evenodd" clip-rule="evenodd" d="M236.023 86.7959C239.143 86.7959 241.672 99.9528 241.672 116.182H246.195C246.195 98.703 241.64 84.5352 236.023 84.5352C232.826 84.5352 229.975 88.7942 228.111 95.4522C226.247 88.7942 223.396 84.5352 220.2 84.5352C214.584 84.5352 210.027 98.703 210.027 116.182H214.55C214.55 99.9528 217.08 86.7959 220.2 86.7959C223.32 86.7959 225.85 98.9404 225.85 113.921H230.372C230.372 98.9404 232.902 86.7959 236.023 86.7959Z" fill="#FFBC0D"/>
<rect x="63" y="33" width="6" height="170" fill="#F9F9F9"/>
<rect x="66" y="33" width="3" height="170" fill="#F1F1F1"/>
<path d="M66 26C68.2091 26 70 27.7909 70 30C70 31.195 69.4754 32.267 68.6445 33H63.3555C62.5246 32.267 62 31.195 62 30C62 27.7909 63.7909 26 66 26Z" fill="#FFBC0D"/>
<path opacity="0.5" d="M66 26C67.3598 26 68.5605 26.6789 69.2832 27.7158C68.6357 27.2648 67.8489 27 67 27C64.7909 27 63 28.7909 63 31C63 31.8496 63.2659 32.6366 63.7178 33.2842C62.6799 32.5616 62 31.3605 62 30C62 27.7909 63.7909 26 66 26Z" fill="#F9F9F9"/>
<g clip-path="url(#clip1_102_69754)">
<path d="M69 33H124.323V69.882H69V33Z" fill="#10338C"/>
<path d="M92.9637 51.4083C92.9961 51.3759 93.0177 51.3436 93.05 51.3112C93.0285 51.3436 92.9961 51.3759 92.9637 51.4083ZM89.2755 55.9269L90.4618 58.3965L93.1255 57.7818L91.9392 60.2406L94.0853 61.9445L91.4108 62.5484L91.4216 65.2876L89.2755 63.5729L87.1403 65.2876L87.1511 62.5484L84.4766 61.9445L86.6226 60.2406L85.4256 57.7818L88.1001 58.3965L89.2755 55.9269ZM110.618 59.0004L111.178 60.1758L112.451 59.8847L111.879 61.0602L112.904 61.869L111.631 62.1494V63.465L110.618 62.6454L109.593 63.465L109.604 62.1494L108.331 61.869L109.356 61.0602L108.784 59.8847L110.057 60.1758L110.618 59.0004ZM105.376 46.4907L105.937 47.6662L107.21 47.375L106.638 48.5505L107.663 49.3593L106.39 49.6505V50.9554L105.376 50.1358L104.352 50.9554L104.363 49.6505L103.079 49.3593L104.104 48.5505L103.532 47.375L104.805 47.6662L105.376 46.4907ZM110.618 39.3516L111.178 40.527L112.451 40.2359L111.879 41.4113L112.904 42.2202L111.631 42.5113V43.8162L110.618 42.9966L109.593 43.8162L109.604 42.5113L108.331 42.2202L109.356 41.4113L108.784 40.2359L110.057 40.527L110.618 39.3516ZM115.201 44.7113L115.762 45.8868L117.034 45.5956L116.463 46.7711L117.487 47.5799L116.215 47.8603V49.176L115.201 48.3564L114.176 49.176V47.8603L112.904 47.5799L113.928 46.7711L113.357 45.5956L114.629 45.8868L115.201 44.7113ZM111.922 50.9554L112.365 52.325H113.799L112.634 53.1661L113.087 54.5357L111.922 53.6838L110.758 54.5357L111.2 53.1661L110.046 52.325H111.48L111.922 50.9554Z" fill="white"/>
<path d="M96.4787 33V36.3L91.615 39.0068H96.4787V45.4018H90.1052L96.4787 48.9391V51.4087H93.5993L85.6729 46.9979V51.4087H79.6769V46.1675L70.2515 51.4087H68.8711V48.1087L73.7456 45.4018H68.8711V39.0068H75.2446L68.8711 35.4588V33H71.7505L79.6769 37.4V33H85.6729V38.2411L95.1091 33H96.4787Z" fill="white"/>
<path d="M84.4004 33H80.9494V40.4735H68.8711V43.9244H80.9494V51.4087H84.4004V43.9244H96.4787V40.4735H84.4004V33Z" fill="#D80027"/>
<path d="M85.6719 45.4023L96.4777 51.4092V49.7052L88.7346 45.4023H85.6719Z" fill="#0052B4"/>
<path d="M85.6719 45.4023L96.4777 51.4092V49.7052L88.7346 45.4023H85.6719Z" fill="white"/>
<path d="M85.6729 45.4023L96.4787 51.4092V49.7052L88.7356 45.4023H85.6729ZM76.6249 45.4023L68.8711 49.7052V51.4092L79.6769 45.4023H76.6249Z" fill="#D80027"/>
<path d="M79.6769 39.0068L68.8711 33V34.6931L76.6249 39.0068H79.6769Z" fill="#0052B4"/>
<path d="M79.6769 39.0068L68.8711 33V34.6931L76.6249 39.0068H79.6769Z" fill="white"/>
<path d="M79.6769 39.0068L68.8711 33V34.6931L76.6249 39.0068H79.6769ZM88.7356 39.0068L96.4787 34.6931V33L85.6729 39.0068H88.7356Z" fill="#D80027"/>
</g>
<path d="M67.8158 205.5L68.7364 205.494C75.9374 205.404 81.6316 204.137 81.6316 196.816C81.6316 189.186 75.446 183 67.8158 183C60.1855 183 54 189.186 54 196.816C54 204.446 60.1855 205.5 67.8158 205.5Z" fill="#9CC93A"/>
<path d="M98.8158 205.5L99.7364 205.494C106.937 205.404 112.632 204.137 112.632 196.816C112.632 189.186 106.446 183 98.8158 183C91.1855 183 85 189.186 85 196.816C85 204.446 91.1855 205.5 98.8158 205.5Z" fill="#9CC93A"/>
<path d="M128.816 205.5L129.736 205.494C136.937 205.404 142.632 204.137 142.632 196.816C142.632 189.186 136.446 183 128.816 183C121.186 183 115 189.186 115 196.816C115 204.446 121.186 205.5 128.816 205.5Z" fill="#9CC93A"/>
<path d="M253.561 29.8555C255.088 29.8555 256.327 31.0943 256.327 32.6221C256.327 34.0685 255.217 35.2538 253.802 35.376C254.09 36.0127 254.252 36.7186 254.252 37.4629C254.252 40.2639 251.982 42.5342 249.181 42.5342H257.94C260.741 42.5342 263.013 44.8055 263.013 47.6064H269.929C272.729 47.6066 275 49.8769 275 52.6777C275 55.4786 272.73 57.7498 269.929 57.75H262.332C261.455 59.2653 259.817 60.2852 257.94 60.2852H215.523C213.647 60.2852 212.009 59.2653 211.132 57.75H206.071C203.27 57.7498 201 55.4786 201 52.6777C201 49.8769 203.271 47.6066 206.071 47.6064H210.452C210.452 44.8055 212.722 42.5342 215.523 42.5342H221.748C221.748 39.7334 224.018 37.4629 226.819 37.4629H235.349C235.349 34.6619 237.62 32.3916 240.421 32.3916H249.181C249.746 32.3916 250.288 32.4849 250.796 32.6553C250.796 32.6442 250.795 32.6332 250.795 32.6221C250.795 31.0943 252.033 29.8556 253.561 29.8555Z" fill="white"/>
<path d="M140.047 2C143.684 2 146.634 4.94858 146.634 8.58594C146.634 8.65081 146.631 8.71586 146.629 8.78027H148.184C150.537 8.78048 152.445 10.6884 152.445 13.042H155.738C158.092 13.042 160 14.95 160 17.3037C160 19.6574 158.092 21.5654 155.738 21.5654H153.229C152.493 22.8389 151.116 23.6963 149.539 23.6963H133.461C131.884 23.6963 130.507 22.8389 129.771 21.5654H127.262C124.908 21.5654 123 19.6574 123 17.3037C123 14.95 124.908 13.042 127.262 13.042H127.843C127.843 10.6883 129.751 8.78037 132.104 8.78027H133.466C133.464 8.71585 133.461 8.65081 133.461 8.58594C133.461 4.94867 136.41 2.00015 140.047 2Z" fill="white"/>
</g>
<defs>
<clipPath id="clip0_102_69754">
<rect width="375" height="225" fill="white"/>
</clipPath>
<clipPath id="clip1_102_69754">
<rect width="55.3231" height="36.882" fill="white" transform="translate(69 33)"/>
</clipPath>
</defs>
</svg>
