<svg width="136" height="136" viewBox="0 0 136 136" fill="none" xmlns="http://www.w3.org/2000/svg">
<g clip-path="url(#clip0_1001_45090)">
<path d="M38.4055 84.8622L38.0899 84.874C36.8811 84.9226 35.6724 85.012 34.4638 85.1421L34.4061 85.1493C33.6778 85.2504 33.0766 85.768 32.8646 86.47L32.8539 86.5062L30.338 86.5064C29.5207 86.5064 28.8232 87.0987 28.6888 87.9069L28.3582 89.8958L28.3519 89.939C28.2945 90.3995 28.5458 90.8279 28.9428 91.0157L28.9626 91.0246L28.9732 91.1851C29.0895 93.1931 29.2182 95.2079 29.3588 97.2207L29.4446 98.4269C29.6192 100.842 29.8109 103.254 30.0198 105.662C30.4376 110.479 30.9263 115.307 31.4857 120.148C31.5419 120.634 31.9262 121.016 32.4114 121.069C35.0262 121.352 37.6412 121.494 40.2563 121.494L40.7145 121.492C43.1791 121.477 45.6403 121.335 48.1012 121.069C48.5864 121.016 48.9707 120.634 49.0269 120.148C49.5844 115.331 50.073 110.503 50.4929 105.662L50.5964 104.452C50.9704 100.017 51.285 95.5915 51.54 91.1761L51.5507 91.0242L51.5681 91.0166C51.9784 90.8234 52.2339 90.3732 52.1545 89.8958L51.8238 87.9069L51.8141 87.8534C51.6584 87.0727 50.9738 86.5064 50.1747 86.5064L47.6585 86.5062L47.6481 86.47C47.4305 85.7495 46.8029 85.2233 46.0489 85.1421L45.6309 85.0988C44.6555 85.0013 43.68 84.9304 42.7046 84.8861L42.6236 84.8825L44.74 69.7878C44.8203 69.2149 44.4221 68.6852 43.8507 68.6046L41.7811 68.3131C41.2096 68.2325 40.6812 68.6317 40.6009 69.2046L38.4055 84.8622Z" fill="white" stroke="white" stroke-width="0.604444"/>
<path fill-rule="evenodd" clip-rule="evenodd" d="M29.8672 91.2246C29.8672 91.2246 35.0477 91.6475 40.2282 91.6475C45.4088 91.6475 50.5893 91.2246 50.5893 91.2246C50.5893 91.2246 50.1679 98.5017 49.532 105.815C48.8961 113.128 48.0519 120.405 48.0519 120.405C48.0519 120.405 44.1401 120.828 40.2282 120.828C36.3164 120.828 32.4046 120.405 32.4046 120.405C32.4046 120.405 31.5572 113.092 30.9244 105.815C30.2916 98.5376 29.8672 91.2246 29.8672 91.2246Z" fill="white"/>
<mask id="mask0_1001_45090" style="mask-type:luminance" maskUnits="userSpaceOnUse" x="29" y="91" width="22" height="30">
<path fill-rule="evenodd" clip-rule="evenodd" d="M29.8672 91.2246C29.8672 91.2246 35.0477 91.6475 40.2282 91.6475C45.4088 91.6475 50.5893 91.2246 50.5893 91.2246C50.5893 91.2246 50.1679 98.5017 49.532 105.815C48.8961 113.128 48.0519 120.405 48.0519 120.405C48.0519 120.405 44.1401 120.828 40.2282 120.828C36.3164 120.828 32.4046 120.405 32.4046 120.405C32.4046 120.405 31.5572 113.092 30.9244 105.815C30.2916 98.5376 29.8672 91.2246 29.8672 91.2246Z" fill="white"/>
</mask>
<g mask="url(#mask0_1001_45090)">
</g>
<path fill-rule="evenodd" clip-rule="evenodd" d="M34.3391 104.425C33.3489 100.938 31.9209 98.4993 30.2931 97.7848C30.2924 97.7798 30.2924 97.7798 30.4464 99.874C31.8721 102.143 32.8988 108.517 32.8988 116.025H35.7798C35.7798 106.617 37.392 98.9884 39.381 98.9884C41.3699 98.9884 42.9825 107.252 42.9825 117.445H45.8627C45.8627 106.468 42.961 97.5684 39.381 97.5684C37.3446 97.5684 35.528 100.243 34.3391 104.425Z" fill="#FFBC0D"/>
<path fill-rule="evenodd" clip-rule="evenodd" d="M50.5915 91.2246C50.5915 91.2246 50.1702 98.5017 49.5343 105.815C48.8984 113.128 48.0541 120.405 48.0541 120.405C48.0541 120.405 44.1423 120.828 40.2305 120.828C43.314 120.828 44.8646 111.073 44.8822 91.5628C48.0541 91.4361 50.5915 91.2246 50.5915 91.2246Z" fill="#A0A09F" fill-opacity="0.15"/>
<path d="M41.625 69.2578L43.7189 69.5521L41.2969 86.7859L39.162 86.7831L41.625 69.2578Z" fill="#F1F1F1"/>
<path d="M42.6719 69.4062L43.3001 69.4945L40.8698 86.7867L40.2293 86.7858L42.6719 69.4062Z" fill="#EAEAEA"/>
<path fill-rule="evenodd" clip-rule="evenodd" d="M30.1947 87.6309H50.2649C50.575 87.6309 50.8396 87.855 50.8906 88.1609L51.2252 90.1683C47.56 90.4502 43.8949 90.5912 40.2298 90.5912C36.5646 90.5912 32.8995 90.4502 29.2344 90.1683L29.5689 88.1609C29.6199 87.855 29.8846 87.6309 30.1947 87.6309Z" fill="#F1F1F1"/>
<path fill-rule="evenodd" clip-rule="evenodd" d="M34.4829 86.2481C36.3988 86.0423 38.3148 85.9395 40.2307 85.9395C42.1467 85.9395 44.0626 86.0423 45.9786 86.2481C46.3351 86.2864 46.6287 86.5452 46.7113 86.8941L46.7857 87.2081H33.6758L33.7502 86.8941C33.8328 86.5452 34.1264 86.2864 34.4829 86.2481Z" fill="#F1F1F1"/>
<ellipse cx="63.5705" cy="126.58" rx="55.1213" ry="5.18788" fill="#A0A09F" fill-opacity="0.15"/>
<mask id="path-11-outside-1_1001_45090" maskUnits="userSpaceOnUse" x="74.2969" y="84.832" width="32" height="40" fill="black">
<rect fill="white" x="74.2969" y="84.832" width="32" height="40"/>
<path fill-rule="evenodd" clip-rule="evenodd" d="M83.793 88.4565C83.7256 87.7724 84.23 87.211 85.0306 86.6183C85.7805 86.0631 86.523 85.7366 87.2061 85.8569C87.638 85.9329 87.9678 86.285 88.0155 86.7209L88.0274 86.8335L88.0529 86.8321C88.0947 86.8304 88.1371 86.8314 88.1798 86.8353L88.2227 86.84C89.6037 87.0237 91.4735 88.2272 91.3436 89.344C91.3145 89.5939 91.2867 89.8378 91.2603 90.0759L91.2015 90.6134L91.2567 90.5951C91.4146 90.5435 91.5784 90.4983 91.7446 90.4611L91.7514 90.4595L91.7299 90.1594L91.7265 90.0904C91.7251 89.9962 91.7372 89.9023 91.7625 89.8114C92.0993 88.6015 93.5464 87.828 95.1623 87.6991C95.7041 87.656 96.1786 88.0591 96.2236 88.6007C96.2505 88.9243 96.275 89.2328 96.2975 89.5311L96.3267 89.9295L96.3357 89.9257C97.0371 89.6294 97.9176 89.5748 98.7656 89.7334L98.8382 89.7475C99.3598 89.8528 99.7038 90.3529 99.6157 90.8776C99.5896 91.0332 99.5644 91.1846 99.5402 91.3322L99.4864 91.6652L99.6336 91.6897C99.8972 91.7363 100.148 91.7967 100.383 91.872L100.433 91.8885L100.465 91.7661L100.501 91.6255C100.789 90.4923 102.734 90.2034 104.169 90.6035C104.65 90.7377 104.954 91.21 104.878 91.7035C104.502 94.1476 104.126 95.871 103.466 98.0925L103.403 98.3034L103.423 98.3093C103.846 98.4481 104.138 98.8645 104.097 99.3306L104.093 99.3706C103.63 103.023 103.03 106.695 102.293 110.388C101.556 114.079 100.689 117.751 99.6933 121.402C99.6352 121.615 99.5075 121.802 99.3306 121.934L97.7405 123.117C97.4722 123.317 97.121 123.367 96.8076 123.25C94.8023 122.504 92.5332 122.129 89.9961 122.129C87.4644 122.129 85.268 122.502 83.4032 123.243C83.0853 123.369 82.7247 123.321 82.4504 123.117L80.8603 121.934C80.6831 121.802 80.5554 121.614 80.4974 121.401C79.4937 117.71 78.6272 114.039 77.898 110.388C77.1687 106.736 76.5687 103.064 76.0979 99.3714C76.0382 98.9025 76.3166 98.4766 76.732 98.3219L76.7347 98.3209L76.6359 98.0998L76.545 97.8997L76.1727 97.0924C75.8316 96.3475 75.611 95.8186 75.4111 95.2328L75.3517 95.055C75.1575 94.4622 75.4893 93.9157 76.1857 93.0569L76.2509 92.9773C76.73 92.4 77.2258 91.9529 77.7427 91.7105L77.806 91.682L77.5479 90.6322C77.4212 90.1109 77.7345 89.5839 78.2529 89.4461C78.8548 89.2861 79.6046 89.3252 80.3802 89.4914C80.6863 89.557 80.979 89.6406 81.2142 89.7291C81.3474 89.7793 81.4646 89.8317 81.5671 89.89C81.646 89.9348 81.7185 89.9839 81.7894 90.0458C81.9473 90.1838 82.0709 90.3505 82.1285 90.6068L82.1836 90.8489L82.2757 90.7847C82.8045 90.4247 83.3928 90.1521 83.9461 90.0433L83.9257 89.826L83.793 88.4565ZM87.5218 93.1075C87.4271 91.0284 87.2661 88.9384 87.0351 86.828C86.3044 86.6994 84.7392 88.0002 84.7746 88.3596C85.1058 91.7259 85.1739 92.8004 85.2 94.5627L85.2142 95.9653C84.8742 93.6592 84.7154 92.6808 84.4314 91.3706L84.3458 90.982C83.3866 91.0536 82.0176 92.0753 82.0882 92.4296C82.3936 93.9628 82.4778 94.7199 82.5721 96.4813L82.6042 97.1081C82.3072 95.4375 82.0625 94.4728 81.7732 93.332C81.6148 92.7074 81.443 92.03 81.2419 91.1551L81.1664 90.8234C81.129 90.6572 79.4428 90.1501 78.5064 90.3991C78.5824 90.7117 78.6597 91.0245 78.7369 91.3373C79.1876 93.1614 79.638 94.9845 79.8318 96.7817C79.2989 95.3981 78.8034 93.9852 78.3534 92.5305C77.4214 92.7956 76.2361 94.5859 76.2891 94.7478C76.5692 95.6023 76.9028 96.3228 77.2449 97.0619C77.423 97.4466 77.6035 97.8363 77.7799 98.2526L77.8654 98.4574L78.2241 99.2465H77.0764C77.5442 102.916 78.1405 106.565 78.8653 110.194C79.5901 113.824 80.4514 117.473 81.4492 121.142L83.0394 122.326C85.027 121.537 87.3459 121.142 89.9961 121.142C92.6463 121.142 95.0315 121.537 97.1517 122.326L98.7418 121.142C99.7316 117.513 100.593 113.864 101.326 110.194C102.059 106.525 102.655 102.876 103.115 99.2465H102.115L102.326 98.4574L102.396 98.2264C103.139 95.7847 103.521 94.04 103.904 91.5533C102.887 91.2697 101.546 91.5177 101.457 91.8678C101.407 92.0674 101.362 92.2348 101.32 92.3913L101.049 93.3701C100.631 92.9065 99.7674 92.6689 98.9267 92.589C98.7399 94.2934 98.5539 95.1246 98.197 96.5158L97.9145 97.6095C98.0179 95.0765 98.1651 93.6167 98.5775 91.1085L98.6431 90.7141C97.6933 90.5224 96.4567 90.6789 96.0753 91.3646C95.8411 92.8329 95.7085 93.6906 95.6154 94.9111L95.5961 95.1785C95.5907 95.0371 95.5855 94.8991 95.5804 94.7641C95.5012 92.6644 95.4492 91.2881 95.2759 89.1134L95.2408 88.6821C94.0373 88.7781 92.9194 89.3335 92.7128 90.0757C92.7167 90.1302 92.7211 90.1911 92.7259 90.2562C92.7437 90.5015 92.7659 90.8074 92.7833 91.0646L92.8005 91.3305C91.9721 91.312 91.0764 91.6686 90.7515 91.9284C90.6061 92.6543 90.5166 93.2641 90.4302 93.8518C90.2975 94.7553 90.1724 95.6069 89.864 96.7485C89.864 96.7485 89.6743 95.4079 90.2836 89.9355L90.364 89.2297C90.4063 88.8659 89.0534 87.9453 88.0927 87.8175C87.8771 89.5828 87.6878 91.3456 87.5218 93.1075Z"/>
</mask>
<path fill-rule="evenodd" clip-rule="evenodd" d="M83.793 88.4565C83.7256 87.7724 84.23 87.211 85.0306 86.6183C85.7805 86.0631 86.523 85.7366 87.2061 85.8569C87.638 85.9329 87.9678 86.285 88.0155 86.7209L88.0274 86.8335L88.0529 86.8321C88.0947 86.8304 88.1371 86.8314 88.1798 86.8353L88.2227 86.84C89.6037 87.0237 91.4735 88.2272 91.3436 89.344C91.3145 89.5939 91.2867 89.8378 91.2603 90.0759L91.2015 90.6134L91.2567 90.5951C91.4146 90.5435 91.5784 90.4983 91.7446 90.4611L91.7514 90.4595L91.7299 90.1594L91.7265 90.0904C91.7251 89.9962 91.7372 89.9023 91.7625 89.8114C92.0993 88.6015 93.5464 87.828 95.1623 87.6991C95.7041 87.656 96.1786 88.0591 96.2236 88.6007C96.2505 88.9243 96.275 89.2328 96.2975 89.5311L96.3267 89.9295L96.3357 89.9257C97.0371 89.6294 97.9176 89.5748 98.7656 89.7334L98.8382 89.7475C99.3598 89.8528 99.7038 90.3529 99.6157 90.8776C99.5896 91.0332 99.5644 91.1846 99.5402 91.3322L99.4864 91.6652L99.6336 91.6897C99.8972 91.7363 100.148 91.7967 100.383 91.872L100.433 91.8885L100.465 91.7661L100.501 91.6255C100.789 90.4923 102.734 90.2034 104.169 90.6035C104.65 90.7377 104.954 91.21 104.878 91.7035C104.502 94.1476 104.126 95.871 103.466 98.0925L103.403 98.3034L103.423 98.3093C103.846 98.4481 104.138 98.8645 104.097 99.3306L104.093 99.3706C103.63 103.023 103.03 106.695 102.293 110.388C101.556 114.079 100.689 117.751 99.6933 121.402C99.6352 121.615 99.5075 121.802 99.3306 121.934L97.7405 123.117C97.4722 123.317 97.121 123.367 96.8076 123.25C94.8023 122.504 92.5332 122.129 89.9961 122.129C87.4644 122.129 85.268 122.502 83.4032 123.243C83.0853 123.369 82.7247 123.321 82.4504 123.117L80.8603 121.934C80.6831 121.802 80.5554 121.614 80.4974 121.401C79.4937 117.71 78.6272 114.039 77.898 110.388C77.1687 106.736 76.5687 103.064 76.0979 99.3714C76.0382 98.9025 76.3166 98.4766 76.732 98.3219L76.7347 98.3209L76.6359 98.0998L76.545 97.8997L76.1727 97.0924C75.8316 96.3475 75.611 95.8186 75.4111 95.2328L75.3517 95.055C75.1575 94.4622 75.4893 93.9157 76.1857 93.0569L76.2509 92.9773C76.73 92.4 77.2258 91.9529 77.7427 91.7105L77.806 91.682L77.5479 90.6322C77.4212 90.1109 77.7345 89.5839 78.2529 89.4461C78.8548 89.2861 79.6046 89.3252 80.3802 89.4914C80.6863 89.557 80.979 89.6406 81.2142 89.7291C81.3474 89.7793 81.4646 89.8317 81.5671 89.89C81.646 89.9348 81.7185 89.9839 81.7894 90.0458C81.9473 90.1838 82.0709 90.3505 82.1285 90.6068L82.1836 90.8489L82.2757 90.7847C82.8045 90.4247 83.3928 90.1521 83.9461 90.0433L83.9257 89.826L83.793 88.4565ZM87.5218 93.1075C87.4271 91.0284 87.2661 88.9384 87.0351 86.828C86.3044 86.6994 84.7392 88.0002 84.7746 88.3596C85.1058 91.7259 85.1739 92.8004 85.2 94.5627L85.2142 95.9653C84.8742 93.6592 84.7154 92.6808 84.4314 91.3706L84.3458 90.982C83.3866 91.0536 82.0176 92.0753 82.0882 92.4296C82.3936 93.9628 82.4778 94.7199 82.5721 96.4813L82.6042 97.1081C82.3072 95.4375 82.0625 94.4728 81.7732 93.332C81.6148 92.7074 81.443 92.03 81.2419 91.1551L81.1664 90.8234C81.129 90.6572 79.4428 90.1501 78.5064 90.3991C78.5824 90.7117 78.6597 91.0245 78.7369 91.3373C79.1876 93.1614 79.638 94.9845 79.8318 96.7817C79.2989 95.3981 78.8034 93.9852 78.3534 92.5305C77.4214 92.7956 76.2361 94.5859 76.2891 94.7478C76.5692 95.6023 76.9028 96.3228 77.2449 97.0619C77.423 97.4466 77.6035 97.8363 77.7799 98.2526L77.8654 98.4574L78.2241 99.2465H77.0764C77.5442 102.916 78.1405 106.565 78.8653 110.194C79.5901 113.824 80.4514 117.473 81.4492 121.142L83.0394 122.326C85.027 121.537 87.3459 121.142 89.9961 121.142C92.6463 121.142 95.0315 121.537 97.1517 122.326L98.7418 121.142C99.7316 117.513 100.593 113.864 101.326 110.194C102.059 106.525 102.655 102.876 103.115 99.2465H102.115L102.326 98.4574L102.396 98.2264C103.139 95.7847 103.521 94.04 103.904 91.5533C102.887 91.2697 101.546 91.5177 101.457 91.8678C101.407 92.0674 101.362 92.2348 101.32 92.3913L101.049 93.3701C100.631 92.9065 99.7674 92.6689 98.9267 92.589C98.7399 94.2934 98.5539 95.1246 98.197 96.5158L97.9145 97.6095C98.0179 95.0765 98.1651 93.6167 98.5775 91.1085L98.6431 90.7141C97.6933 90.5224 96.4567 90.6789 96.0753 91.3646C95.8411 92.8329 95.7085 93.6906 95.6154 94.9111L95.5961 95.1785C95.5907 95.0371 95.5855 94.8991 95.5804 94.7641C95.5012 92.6644 95.4492 91.2881 95.2759 89.1134L95.2408 88.6821C94.0373 88.7781 92.9194 89.3335 92.7128 90.0757C92.7167 90.1302 92.7211 90.1911 92.7259 90.2562C92.7437 90.5015 92.7659 90.8074 92.7833 91.0646L92.8005 91.3305C91.9721 91.312 91.0764 91.6686 90.7515 91.9284C90.6061 92.6543 90.5166 93.2641 90.4302 93.8518C90.2975 94.7553 90.1724 95.6069 89.864 96.7485C89.864 96.7485 89.6743 95.4079 90.2836 89.9355L90.364 89.2297C90.4063 88.8659 89.0534 87.9453 88.0927 87.8175C87.8771 89.5828 87.6878 91.3456 87.5218 93.1075Z" fill="white"/>
<path fill-rule="evenodd" clip-rule="evenodd" d="M83.793 88.4565C83.7256 87.7724 84.23 87.211 85.0306 86.6183C85.7805 86.0631 86.523 85.7366 87.2061 85.8569C87.638 85.9329 87.9678 86.285 88.0155 86.7209L88.0274 86.8335L88.0529 86.8321C88.0947 86.8304 88.1371 86.8314 88.1798 86.8353L88.2227 86.84C89.6037 87.0237 91.4735 88.2272 91.3436 89.344C91.3145 89.5939 91.2867 89.8378 91.2603 90.0759L91.2015 90.6134L91.2567 90.5951C91.4146 90.5435 91.5784 90.4983 91.7446 90.4611L91.7514 90.4595L91.7299 90.1594L91.7265 90.0904C91.7251 89.9962 91.7372 89.9023 91.7625 89.8114C92.0993 88.6015 93.5464 87.828 95.1623 87.6991C95.7041 87.656 96.1786 88.0591 96.2236 88.6007C96.2505 88.9243 96.275 89.2328 96.2975 89.5311L96.3267 89.9295L96.3357 89.9257C97.0371 89.6294 97.9176 89.5748 98.7656 89.7334L98.8382 89.7475C99.3598 89.8528 99.7038 90.3529 99.6157 90.8776C99.5896 91.0332 99.5644 91.1846 99.5402 91.3322L99.4864 91.6652L99.6336 91.6897C99.8972 91.7363 100.148 91.7967 100.383 91.872L100.433 91.8885L100.465 91.7661L100.501 91.6255C100.789 90.4923 102.734 90.2034 104.169 90.6035C104.65 90.7377 104.954 91.21 104.878 91.7035C104.502 94.1476 104.126 95.871 103.466 98.0925L103.403 98.3034L103.423 98.3093C103.846 98.4481 104.138 98.8645 104.097 99.3306L104.093 99.3706C103.63 103.023 103.03 106.695 102.293 110.388C101.556 114.079 100.689 117.751 99.6933 121.402C99.6352 121.615 99.5075 121.802 99.3306 121.934L97.7405 123.117C97.4722 123.317 97.121 123.367 96.8076 123.25C94.8023 122.504 92.5332 122.129 89.9961 122.129C87.4644 122.129 85.268 122.502 83.4032 123.243C83.0853 123.369 82.7247 123.321 82.4504 123.117L80.8603 121.934C80.6831 121.802 80.5554 121.614 80.4974 121.401C79.4937 117.71 78.6272 114.039 77.898 110.388C77.1687 106.736 76.5687 103.064 76.0979 99.3714C76.0382 98.9025 76.3166 98.4766 76.732 98.3219L76.7347 98.3209L76.6359 98.0998L76.545 97.8997L76.1727 97.0924C75.8316 96.3475 75.611 95.8186 75.4111 95.2328L75.3517 95.055C75.1575 94.4622 75.4893 93.9157 76.1857 93.0569L76.2509 92.9773C76.73 92.4 77.2258 91.9529 77.7427 91.7105L77.806 91.682L77.5479 90.6322C77.4212 90.1109 77.7345 89.5839 78.2529 89.4461C78.8548 89.2861 79.6046 89.3252 80.3802 89.4914C80.6863 89.557 80.979 89.6406 81.2142 89.7291C81.3474 89.7793 81.4646 89.8317 81.5671 89.89C81.646 89.9348 81.7185 89.9839 81.7894 90.0458C81.9473 90.1838 82.0709 90.3505 82.1285 90.6068L82.1836 90.8489L82.2757 90.7847C82.8045 90.4247 83.3928 90.1521 83.9461 90.0433L83.9257 89.826L83.793 88.4565ZM87.5218 93.1075C87.4271 91.0284 87.2661 88.9384 87.0351 86.828C86.3044 86.6994 84.7392 88.0002 84.7746 88.3596C85.1058 91.7259 85.1739 92.8004 85.2 94.5627L85.2142 95.9653C84.8742 93.6592 84.7154 92.6808 84.4314 91.3706L84.3458 90.982C83.3866 91.0536 82.0176 92.0753 82.0882 92.4296C82.3936 93.9628 82.4778 94.7199 82.5721 96.4813L82.6042 97.1081C82.3072 95.4375 82.0625 94.4728 81.7732 93.332C81.6148 92.7074 81.443 92.03 81.2419 91.1551L81.1664 90.8234C81.129 90.6572 79.4428 90.1501 78.5064 90.3991C78.5824 90.7117 78.6597 91.0245 78.7369 91.3373C79.1876 93.1614 79.638 94.9845 79.8318 96.7817C79.2989 95.3981 78.8034 93.9852 78.3534 92.5305C77.4214 92.7956 76.2361 94.5859 76.2891 94.7478C76.5692 95.6023 76.9028 96.3228 77.2449 97.0619C77.423 97.4466 77.6035 97.8363 77.7799 98.2526L77.8654 98.4574L78.2241 99.2465H77.0764C77.5442 102.916 78.1405 106.565 78.8653 110.194C79.5901 113.824 80.4514 117.473 81.4492 121.142L83.0394 122.326C85.027 121.537 87.3459 121.142 89.9961 121.142C92.6463 121.142 95.0315 121.537 97.1517 122.326L98.7418 121.142C99.7316 117.513 100.593 113.864 101.326 110.194C102.059 106.525 102.655 102.876 103.115 99.2465H102.115L102.326 98.4574L102.396 98.2264C103.139 95.7847 103.521 94.04 103.904 91.5533C102.887 91.2697 101.546 91.5177 101.457 91.8678C101.407 92.0674 101.362 92.2348 101.32 92.3913L101.049 93.3701C100.631 92.9065 99.7674 92.6689 98.9267 92.589C98.7399 94.2934 98.5539 95.1246 98.197 96.5158L97.9145 97.6095C98.0179 95.0765 98.1651 93.6167 98.5775 91.1085L98.6431 90.7141C97.6933 90.5224 96.4567 90.6789 96.0753 91.3646C95.8411 92.8329 95.7085 93.6906 95.6154 94.9111L95.5961 95.1785C95.5907 95.0371 95.5855 94.8991 95.5804 94.7641C95.5012 92.6644 95.4492 91.2881 95.2759 89.1134L95.2408 88.6821C94.0373 88.7781 92.9194 89.3335 92.7128 90.0757C92.7167 90.1302 92.7211 90.1911 92.7259 90.2562C92.7437 90.5015 92.7659 90.8074 92.7833 91.0646L92.8005 91.3305C91.9721 91.312 91.0764 91.6686 90.7515 91.9284C90.6061 92.6543 90.5166 93.2641 90.4302 93.8518C90.2975 94.7553 90.1724 95.6069 89.864 96.7485C89.864 96.7485 89.6743 95.4079 90.2836 89.9355L90.364 89.2297C90.4063 88.8659 89.0534 87.9453 88.0927 87.8175C87.8771 89.5828 87.6878 91.3456 87.5218 93.1075Z" stroke="white" stroke-width="1.20889" mask="url(#path-11-outside-1_1001_45090)"/>
<path d="M87.0371 86.8271C87.268 88.9374 87.4288 91.0275 87.5234 93.1064C87.6894 91.3446 87.8791 89.5816 88.0947 87.8164C89.055 87.9442 90.4065 88.8644 90.3652 89.2285C89.6594 95.2926 89.8652 96.748 89.8652 96.748C90.3743 94.8638 90.3841 93.7695 90.7529 91.9277C91.0778 91.668 91.9735 91.3117 92.8018 91.3301C92.7813 90.9938 92.7392 90.4132 92.7148 90.0752C92.9214 89.3331 94.0388 88.7777 95.2422 88.6816C95.4562 91.2598 95.5035 92.6956 95.5977 95.1777C95.6916 93.8094 95.8263 92.9372 96.0771 91.3643C96.4586 90.6787 97.6948 90.5213 98.6445 90.7129C98.1818 93.4684 98.0247 94.9457 97.916 97.6084C98.4679 95.4665 98.698 94.6933 98.9287 92.5879C99.7691 92.6679 100.633 92.9058 101.05 93.3691C101.213 92.7749 101.307 92.4659 101.459 91.8672C101.548 91.5172 102.888 91.2691 103.905 91.5527C103.56 93.7966 103.215 95.4364 102.605 97.5293L102.327 98.457L102.116 99.2461H103.116C103.11 99.2947 102.421 104.714 101.327 110.193C100.228 115.698 98.7432 121.142 98.7432 121.142L97.1533 122.325C97.139 122.32 93.9643 121.142 89.998 121.142C86.0227 121.142 83.041 122.325 83.041 122.325L81.4512 121.142C81.4512 121.142 79.9544 115.637 78.8672 110.193C77.7848 104.773 77.0842 99.2938 77.0781 99.2461H78.2275L77.8682 98.457H77.8672C77.3277 97.1452 76.7406 96.1185 76.291 94.7471C76.238 94.5852 77.4235 92.7944 78.3555 92.5293C78.8054 93.984 79.3001 95.3976 79.833 96.7812C79.606 94.6759 79.027 92.5348 78.5078 90.3984C79.4436 90.1497 81.1283 90.6558 81.168 90.8223C81.7831 93.5523 82.1258 94.4097 82.6055 97.1074C82.495 94.8779 82.4292 94.1323 82.0898 92.4287C82.0196 92.0743 83.3886 91.053 84.3477 90.9814C84.6884 92.5042 84.8431 93.4371 85.2158 95.9648C85.193 93.1795 85.1858 92.5195 84.7764 88.3584C84.7424 87.9983 86.3067 86.6986 87.0371 86.8271Z" fill="white"/>
<path fill-rule="evenodd" clip-rule="evenodd" d="M77.0781 99.2461H80.2343C80.2343 99.2461 82.8423 106.742 89.9979 106.742C97.1534 106.742 99.9602 99.2461 99.9602 99.2461H103.116C103.116 99.2461 102.427 104.69 101.327 110.194C100.228 115.698 98.7435 121.142 98.7435 121.142L97.1534 122.325C97.1534 122.325 93.9732 121.142 89.9979 121.142C86.0226 121.142 83.0411 122.325 83.0411 122.325L81.451 121.142C81.451 121.142 79.9542 115.638 78.867 110.194C77.7798 104.75 77.0781 99.2461 77.0781 99.2461Z" fill="#DB0007"/>
<path fill-rule="evenodd" clip-rule="evenodd" d="M92.0005 109.109C91.1117 109.109 90.3188 110.251 89.7998 112.035C89.2814 110.251 88.4881 109.109 87.5991 109.109C86.0368 109.109 84.7695 112.907 84.7695 117.592H86.0272C86.0272 113.242 86.7313 109.715 87.5991 109.715C88.4674 109.715 89.1711 112.971 89.1711 116.986H90.4287C90.4287 112.971 91.1324 109.715 92.0005 109.715C92.8687 109.715 93.5726 113.242 93.5726 117.592H94.8298C94.8298 112.907 93.5632 109.109 92.0005 109.109Z" fill="#FFBC0D"/>
<path fill-rule="evenodd" clip-rule="evenodd" d="M81.0233 98.4567C81.0233 98.4567 83.5877 105.953 90.0972 105.953C96.6068 105.953 99.1712 98.4567 99.1712 98.4567C99.1712 98.4567 100.946 98.4567 102.327 98.4567C103.116 95.8923 103.511 94.117 103.905 91.5526C102.888 91.2689 101.548 91.517 101.459 91.867C101.307 92.4658 101.213 92.775 101.05 93.3693C100.633 92.9057 99.7691 92.6682 98.9284 92.5882C98.6976 94.6937 98.4681 95.4667 97.9162 97.6088C98.0249 94.9459 98.182 93.469 98.6448 90.7133C97.695 90.5216 96.4584 90.6782 96.077 91.3638C95.8261 92.937 95.6917 93.8092 95.5978 95.1777C95.5037 92.6955 95.4565 91.2597 95.2425 88.6814C94.039 88.7773 92.9211 89.3328 92.7145 90.0749C92.7389 90.4129 92.7817 90.9934 92.8022 91.3297C91.9738 91.3112 91.0781 91.6678 90.7532 91.9276C90.3844 93.7694 90.3748 94.8634 89.8657 96.7477C89.8657 96.7477 89.6598 95.2931 90.3657 89.229C90.408 88.8651 89.0551 87.9445 88.0944 87.8168C87.8788 89.582 87.6895 91.3448 87.5235 93.1067C87.4288 91.0276 87.2678 88.9376 87.0368 86.8273C86.3061 86.6986 84.7409 87.9994 84.7763 88.3589C85.1857 92.52 85.1932 93.1792 85.2159 95.9645C84.8432 93.4366 84.6882 92.5042 84.3475 90.9813C83.3883 91.0529 82.0193 92.0745 82.0899 92.4288C82.4293 94.1324 82.4954 94.8778 82.6059 97.1074C82.1262 94.4096 81.7832 93.5527 81.1681 90.8226C81.1307 90.6565 79.4445 90.1494 78.5081 90.3983C79.0273 92.5347 79.6064 94.6756 79.8335 96.781C79.3006 95.3974 78.8051 93.9844 78.3551 92.5298C77.4231 92.7949 76.2378 94.5852 76.2908 94.747C76.7404 96.1186 77.3277 97.1449 77.8671 98.4567H81.0233Z" fill="#FFBC0D"/>
<path d="M79.8955 44.0342L79.3701 44.9414L75.3662 51.8594L75.1914 52.1611H54.5977L54.4229 51.8594L50.418 44.9414L49.8936 44.0342H79.8955Z" fill="white" stroke="white" stroke-width="1.20889"/>
<path d="M75.9043 29.0127C76.5025 29.0127 77.0332 29.3967 77.2207 29.9648L80.8633 41.002C81.3115 42.36 80.5739 43.8242 79.2158 44.2725C78.954 44.3588 78.68 44.4033 78.4043 44.4033H51.2783C49.8482 44.4033 48.6885 43.2436 48.6885 41.8135C48.6885 41.5378 48.7329 41.2637 48.8193 41.002L52.4619 29.9648C52.6494 29.3967 53.1801 29.0127 53.7783 29.0127H75.9043Z" fill="white" stroke="white" stroke-width="1.20889"/>
<path d="M74.8426 51.5569H54.9457L50.9414 44.6387H78.8469L74.8426 51.5569Z" fill="#C2945C"/>
<mask id="mask1_1001_45090" style="mask-type:luminance" maskUnits="userSpaceOnUse" x="50" y="44" width="29" height="8">
<path d="M74.8426 51.5569H54.9457L50.9414 44.6387H78.8469L74.8426 51.5569Z" fill="white"/>
</mask>
<g mask="url(#mask1_1001_45090)">
</g>
<path d="M53.7784 29.6172H75.9042C76.2416 29.6172 76.541 29.8336 76.6468 30.1541L80.2896 41.1916C80.6332 42.2326 80.0678 43.3551 79.0267 43.6987C78.826 43.765 78.616 43.7987 78.4046 43.7987H51.278C50.1817 43.7987 49.293 42.91 49.293 41.8137C49.293 41.6023 49.3267 41.3923 49.393 41.1916L53.0358 30.1541C53.1416 29.8336 53.4409 29.6172 53.7784 29.6172Z" fill="#C2945C"/>
<path fill-rule="evenodd" clip-rule="evenodd" d="M73.5286 34.8711C72.8269 34.8711 72.2009 35.7799 71.7913 37.201C71.382 35.7799 70.7558 34.8711 70.054 34.8711C68.8207 34.8711 67.8203 37.8951 67.8203 41.6251H68.8132C68.8132 38.1615 69.369 35.3536 70.054 35.3536C70.7395 35.3536 71.295 37.9457 71.295 41.1429H72.2877C72.2877 37.9457 72.8432 35.3536 73.5286 35.3536C74.2139 35.3536 74.7695 38.1615 74.7695 41.6251H75.762C75.762 37.8951 74.7621 34.8711 73.5286 34.8711Z" fill="#FFBC0D"/>
<path d="M76.8721 67.3057L76.3467 68.2129L72.3428 75.1309L72.168 75.4326H51.5742L51.3994 75.1309L47.3945 68.2129L46.8701 67.3057H76.8721Z" fill="white" stroke="white" stroke-width="1.20889"/>
<path d="M72.8809 52.2842C73.4791 52.2842 74.0098 52.6682 74.1973 53.2363L77.8398 64.2734C78.2881 65.6315 77.5504 67.0957 76.1924 67.5439C75.9306 67.6303 75.6565 67.6748 75.3809 67.6748H48.2549C46.8248 67.6748 45.665 66.5151 45.665 65.085C45.6651 64.8093 45.7095 64.5352 45.7959 64.2734L49.4385 53.2363C49.626 52.6682 50.1566 52.2842 50.7549 52.2842H72.8809Z" fill="white" stroke="white" stroke-width="1.20889"/>
<path d="M71.8192 74.8284H51.9223L47.918 67.9102H75.8235L71.8192 74.8284Z" fill="#C2945C"/>
<mask id="mask2_1001_45090" style="mask-type:luminance" maskUnits="userSpaceOnUse" x="47" y="67" width="29" height="8">
<path d="M71.8192 74.8284H51.9223L47.918 67.9102H75.8235L71.8192 74.8284Z" fill="white"/>
</mask>
<g mask="url(#mask2_1001_45090)">
</g>
<path d="M50.7549 52.8887H72.8808C73.2182 52.8887 73.5176 53.1051 73.6233 53.4256L77.2662 64.4631C77.6097 65.5041 77.0443 66.6266 76.0033 66.9702C75.8025 67.0364 75.5925 67.0702 75.3811 67.0702H48.2545C47.1583 67.0702 46.2695 66.1815 46.2695 65.0852C46.2695 64.8738 46.3033 64.6638 46.3695 64.4631L50.0124 53.4256C50.1181 53.1051 50.4175 52.8887 50.7549 52.8887Z" fill="#C2945C"/>
<path fill-rule="evenodd" clip-rule="evenodd" d="M70.5051 58.1426C69.8034 58.1426 69.1775 59.0514 68.7678 60.4725C68.3586 59.0514 67.7324 58.1426 67.0306 58.1426C65.7973 58.1426 64.7969 61.1666 64.7969 64.8966H65.7897C65.7897 61.433 66.3455 58.6251 67.0306 58.6251C67.716 58.6251 68.2716 61.2172 68.2716 64.4144H69.2643C69.2643 61.2172 69.8198 58.6251 70.5051 58.6251C71.1904 58.6251 71.7461 61.433 71.7461 64.8966H72.7385C72.7385 61.1666 71.7387 58.1426 70.5051 58.1426Z" fill="#FFBC0D"/>
<path d="M82.3135 90.5771L81.7881 91.4844L77.7842 98.4023L77.6094 98.7041H57.0156L56.8408 98.4023L52.8359 91.4844L52.3115 90.5771H82.3135Z" fill="white" stroke="white" stroke-width="1.20889"/>
<path d="M78.3223 75.5557C78.9205 75.5557 79.4512 75.9397 79.6387 76.5078L83.2812 87.5449C83.7295 88.903 82.9919 90.3672 81.6338 90.8154C81.372 90.9018 81.0979 90.9463 80.8223 90.9463H53.6963C52.2662 90.9463 51.1064 89.7866 51.1064 88.3564C51.1065 88.0808 51.1509 87.8067 51.2373 87.5449L54.8799 76.5078C55.0674 75.9397 55.598 75.5557 56.1963 75.5557H78.3223Z" fill="white" stroke="white" stroke-width="1.20889"/>
<path d="M77.2606 98.0999H57.3637L53.3594 91.1816H81.2649L77.2606 98.0999Z" fill="#C2945C"/>
<mask id="mask3_1001_45090" style="mask-type:luminance" maskUnits="userSpaceOnUse" x="53" y="91" width="29" height="8">
<path d="M77.2606 98.0999H57.3637L53.3594 91.1816H81.2649L77.2606 98.0999Z" fill="white"/>
</mask>
<g mask="url(#mask3_1001_45090)">
</g>
<path d="M56.1963 76.1602H78.3222C78.6596 76.1602 78.959 76.3766 79.0647 76.6971L82.7076 87.7346C83.0511 88.7756 82.4857 89.8981 81.4447 90.2417C81.244 90.3079 81.0339 90.3417 80.8226 90.3417H53.6959C52.5997 90.3417 51.7109 89.453 51.7109 88.3567C51.7109 88.1453 51.7447 87.9353 51.8109 87.7346L55.4538 76.6971C55.5595 76.3766 55.8589 76.1602 56.1963 76.1602Z" fill="#C2945C"/>
<path fill-rule="evenodd" clip-rule="evenodd" d="M75.9465 81.4141C75.2449 81.4141 74.6189 82.3229 74.2093 83.744C73.8 82.3229 73.1738 81.4141 72.472 81.4141C71.2387 81.4141 70.2383 84.4381 70.2383 88.1681H71.2311C71.2311 84.7045 71.7869 81.8966 72.472 81.8966C73.1574 81.8966 73.713 84.4887 73.713 87.6859H74.7057C74.7057 84.4887 75.2612 81.8966 75.9465 81.8966C76.6318 81.8966 77.1875 84.7045 77.1875 88.1681H78.1799C78.1799 84.4381 77.1801 81.4141 75.9465 81.4141Z" fill="#FFBC0D"/>
<path d="M80.501 113.546L79.9756 114.453L75.9717 121.371L75.7969 121.673H55.2031L55.0283 121.371L51.0234 114.453L50.499 113.546H80.501Z" fill="white" stroke="white" stroke-width="1.20889"/>
<path d="M76.5098 98.5244C77.108 98.5245 77.6387 98.9085 77.8262 99.4766L81.4688 110.514C81.917 111.872 81.1794 113.336 79.8213 113.784C79.5595 113.871 79.2854 113.915 79.0098 113.915H51.8838C50.4537 113.915 49.2939 112.755 49.2939 111.325C49.294 111.05 49.3384 110.775 49.4248 110.514L53.0674 99.4766C53.2549 98.9084 53.7855 98.5244 54.3838 98.5244H76.5098Z" fill="white" stroke="white" stroke-width="1.20889"/>
<path d="M75.4481 121.069H55.5512L51.5469 114.15H79.4524L75.4481 121.069Z" fill="#C2945C"/>
<mask id="mask4_1001_45090" style="mask-type:luminance" maskUnits="userSpaceOnUse" x="51" y="114" width="29" height="8">
<path d="M75.4481 121.069H55.5512L51.5469 114.15H79.4524L75.4481 121.069Z" fill="white"/>
</mask>
<g mask="url(#mask4_1001_45090)">
</g>
<path d="M54.3838 99.1289H76.5097C76.8471 99.1289 77.1465 99.3454 77.2522 99.6658L80.8951 110.703C81.2386 111.744 80.6732 112.867 79.6322 113.21C79.4315 113.277 79.2214 113.31 79.0101 113.31H51.8834C50.7872 113.31 49.8984 112.422 49.8984 111.325C49.8984 111.114 49.9322 110.904 49.9984 110.703L53.6413 99.6658C53.747 99.3454 54.0464 99.1289 54.3838 99.1289Z" fill="#C2945C"/>
<path fill-rule="evenodd" clip-rule="evenodd" d="M74.134 104.383C73.4324 104.383 72.8064 105.292 72.3968 106.713C71.9875 105.292 71.3613 104.383 70.6595 104.383C69.4262 104.383 68.4258 107.407 68.4258 111.137H69.4186C69.4186 107.673 69.9744 104.865 70.6595 104.865C71.3449 104.865 71.9005 107.457 71.9005 110.655H72.8932C72.8932 107.457 73.4487 104.865 74.134 104.865C74.8193 104.865 75.375 107.673 75.375 111.137H76.3674C76.3674 107.407 75.3676 104.383 74.134 104.383Z" fill="#FFBC0D"/>
<path d="M111.342 120.748V122.758C111.342 123.868 110.374 124.769 109.18 124.769H17.96C16.7661 124.769 15.7983 123.868 15.7983 122.758V120.748C14.6045 120.748 13.6367 119.847 13.6367 118.737C13.6367 117.627 14.6045 116.727 15.7983 116.727C18.186 116.727 20.1216 118.527 20.1216 120.748H107.019C107.019 118.527 108.954 116.727 111.342 116.727C112.536 116.727 113.503 117.627 113.503 118.737C113.503 119.847 112.536 120.748 111.342 120.748Z" fill="#DB0007" stroke="white" stroke-width="1.20889"/>
</g>
<defs>
<clipPath id="clip0_1001_45090">
<rect width="136" height="136" fill="white"/>
</clipPath>
</defs>
</svg>
