<svg width="27" height="18" viewBox="0 0 27 18" fill="none" xmlns="http://www.w3.org/2000/svg">
<g clip-path="url(#clip0_109_43837)">
<path d="M0 0H27V18H0V0Z" fill="white"/>
<path d="M0 0H27V6.00176H0V0Z" fill="black"/>
<path d="M0 12.0039H27V18.0057H0V12.0039Z" fill="#428823"/>
<path d="M13.5 9.00264L0 18V0L13.5 9.00264ZM16.3002 9.00264C16.3002 7.7949 16.991 6.7823 18.1248 6.53443C17.9508 6.49751 17.7715 6.47641 17.5816 6.47641C16.1895 6.47641 15.0557 7.60504 15.0557 9.00264C15.0557 10.4002 16.1842 11.5289 17.5816 11.5289C17.7662 11.5289 17.9508 11.5078 18.1248 11.4708C16.991 11.2177 16.3002 10.2104 16.3002 9.00264Z" fill="#D80027"/>
<path d="M19.2498 6.8125L19.793 8.48434H21.549L20.1252 9.51804L20.6684 11.1899L19.2498 10.1562L17.826 11.1899L18.3691 9.51804L16.9453 8.48434H18.7066L19.2498 6.8125Z" fill="#D80027"/>
</g>
<rect x="0.5" y="0.5" width="26" height="17" rx="0.5" stroke="black" stroke-opacity="0.2"/>
<defs>
<clipPath id="clip0_109_43837">
<rect width="27" height="18" rx="1" fill="white"/>
</clipPath>
</defs>
</svg>
