<svg width="136" height="136" viewBox="0 0 136 136" fill="none" xmlns="http://www.w3.org/2000/svg">
<path d="M61 111.731C61 112.687 50.9264 113.462 38.5 113.462C26.0736 113.462 16 112.687 16 111.731C16 110.775 26.0736 110 38.5 110C50.9264 110 61 110.775 61 111.731Z" fill="#A0A09F" fill-opacity="0.15"/>
<path d="M68.9934 95.8586C69.4033 97.3883 68.5474 98.9606 67.0901 99.3511L27.885 109.879C26.4276 110.269 24.8988 109.338 24.4889 107.808L6.75129 41.7394C6.34139 40.2096 7.19728 38.6374 8.6546 38.2469L47.8598 27.7193C49.3171 27.3288 50.8459 28.2598 51.2558 29.7896L68.9934 95.8586Z" fill="white"/>
<path fill-rule="evenodd" clip-rule="evenodd" d="M67.0901 99.3511C68.5474 98.9606 69.4033 97.3883 68.9934 95.8586L51.2558 29.7896C50.8459 28.2598 49.3171 27.3288 47.8598 27.7193L8.6546 38.2469C7.19728 38.6374 6.34139 40.2096 6.75129 41.7394L24.4889 107.808C24.8988 109.338 26.4276 110.269 27.885 109.879L67.0901 99.3511ZM66.4024 96.5528C66.4023 96.5527 66.4024 96.553 66.4024 96.5528L48.6647 30.4838C48.6423 30.4001 48.5951 30.3496 48.5546 30.3249C48.5468 30.3202 48.5405 30.3171 48.5358 30.3152L9.3688 40.8326C9.36591 40.8365 9.36228 40.8419 9.35831 40.8492C9.33548 40.8911 9.31952 40.9596 9.34223 41.0448C9.3422 41.0446 9.34227 41.0449 9.34223 41.0448L27.08 107.114C27.1024 107.198 27.1496 107.248 27.1901 107.273C27.1979 107.278 27.2043 107.281 27.2089 107.283L66.3759 96.7654C66.3788 96.7615 66.3824 96.7561 66.3864 96.7488C66.4092 96.7069 66.4251 96.6379 66.4024 96.5528ZM66.3959 96.76L66.3945 96.7604L66.3959 96.76Z" fill="#D8D8D8"/>
<path d="M29.2296 95.6267C28.5759 95.8018 27.8589 95.2463 27.6284 94.386C27.3978 93.5257 27.741 92.6861 28.3947 92.5109L55.7938 85.1694C56.4476 84.9942 57.1645 85.5497 57.3951 86.41C57.6256 87.2704 57.2824 88.1099 56.6287 88.2851L29.2296 95.6267Z" fill="#EAEAEA"/>
<path d="M30.3485 101.173C29.8837 101.298 29.3198 100.701 29.0893 99.8411C28.8588 98.9808 29.0488 98.1822 29.5137 98.0576L48.9975 92.837C49.4624 92.7124 50.0262 93.309 50.2567 94.1693C50.4872 95.0296 50.2972 95.8282 49.8323 95.9527L30.3485 101.173Z" fill="#EAEAEA"/>
<path d="M28.6754 45.0168C27.7961 45.2524 27.0645 46.348 26.8635 46.7575C26.7278 47.024 26.5611 47.4452 26.7174 47.8741C26.8711 48.2931 27.0118 48.6634 27.1323 48.9972C26.7526 49.2036 26.3824 49.5224 26.0877 49.8525C26.085 49.8427 26.0702 49.8258 26.0675 49.816C25.7903 49.2836 25.1995 49.2432 24.6701 49.2386C24.4006 49.2376 23.8668 49.2551 23.3354 49.3975C23.0841 49.4648 22.8601 49.5562 22.6606 49.6619C22.2405 49.9105 22.0858 50.454 22.3246 50.8817C22.448 51.1101 22.574 51.3483 22.707 51.5742C21.8451 52.3386 21.4576 53.9069 21.4506 53.9193C21.4099 54.0766 21.3249 54.455 21.5551 54.8118C22.0706 55.6151 22.5585 56.2375 23.069 56.9061C23.1014 56.9498 23.1338 56.9934 23.1662 57.037L22.9582 57.4588C22.8366 57.7006 22.8369 57.9725 22.9365 58.2282C23.6585 59.9177 27.438 68.6122 30.9657 74.4347C31.0585 74.5877 31.1944 74.7082 31.361 74.7891L32.8039 75.459C32.9951 75.5542 33.2163 75.5681 33.4096 75.5163C33.5062 75.4905 33.6073 75.4425 33.696 75.3873C35.0806 74.4096 36.1697 73.7203 38.5466 73.0834C40.9235 72.4465 42.2113 72.4989 43.8993 72.6533C44.0064 72.6665 44.1056 72.6504 44.2119 72.6219C44.4148 72.5675 44.5897 72.4474 44.7077 72.2693L45.6224 70.9678C45.7289 70.8242 45.7837 70.6421 45.7875 70.4633C45.9314 63.6569 44.8546 54.2277 44.6378 52.4134C44.611 52.1591 44.478 51.9332 44.2711 51.7794L43.8573 51.4719C43.8654 51.3861 43.8612 51.293 43.8693 51.2072C43.9577 49.4889 44.0407 47.8662 43.9863 46.0398C43.9723 45.5624 43.5885 45.1736 43.1171 45.1535C42.8037 45.1433 42.4621 45.1825 42.0949 45.2809C41.5442 45.4285 40.2563 45.8782 40.2772 46.8454C40.2754 46.8772 40.2736 46.9091 40.2814 46.9384C40.1234 46.9284 39.9584 46.9308 39.7766 46.9481C39.7611 46.7744 39.7431 46.591 39.725 46.4076C39.6767 45.9184 39.2595 45.5595 38.7696 45.5861C38.5053 45.6046 38.2366 45.6453 37.9757 45.7152C37.5699 45.8239 37.2088 45.9834 36.9213 46.186C36.8261 45.9081 36.7161 45.6133 36.6105 45.2965C36.4489 44.8481 35.9779 44.5977 35.5238 44.7194C35.5045 44.7246 35.4755 44.7324 35.4562 44.7375C34.3299 45.1335 33.1991 46.0536 33.1873 47.2074C33.1844 47.3128 33.2009 47.413 33.2393 47.5178L33.2882 47.6616C33.2909 47.6713 33.2909 47.6713 33.2935 47.6811C33.2311 47.7187 33.1687 47.7564 33.1159 47.7914C33.0743 47.5201 33.0274 47.2293 32.9876 46.9262C32.907 46.3934 32.46 46.0006 31.6098 45.7263C31.3264 45.6349 30.599 45.4323 29.9185 45.5205C29.8991 45.5257 29.8675 45.5237 29.8482 45.5289C29.6953 45.1514 29.3244 44.9266 28.9292 44.9592C28.8326 44.9851 28.7527 44.9961 28.6754 45.0168Z" fill="white"/>
<path d="M33.1889 74.6544C34.6957 73.5917 35.8524 72.8842 38.3163 72.2241C40.7801 71.5639 42.1356 71.5982 43.9719 71.7651L44.8865 70.4636C45.0223 63.743 43.9778 54.4726 43.7392 52.5386L41.3333 53.1832C41.2097 54.4611 40.4019 59.5626 35.2809 60.9347C30.16 62.3069 26.9097 58.2928 26.1637 57.2479L23.7578 57.8926C24.5278 59.6842 28.2488 68.2375 31.7267 73.9897L33.1889 74.6544Z" fill="#DB0007"/>
<path d="M24.2296 56.9497L26.162 56.4319C26.2973 56.3957 26.4368 56.4524 26.5068 56.5592C26.8421 57.0761 29.9528 61.5355 35.0641 60.1659C40.1657 58.799 40.63 53.3816 40.6715 52.7638C40.6762 52.6265 40.7712 52.5174 40.9065 52.4812L42.9452 51.9349C43.0377 49.9226 43.1588 48.1328 43.1048 46.0762C42.3323 46.053 41.1865 46.5693 41.192 46.8606C41.2016 47.3602 41.1897 47.6249 41.1896 48.127C40.7643 47.8539 40.1253 47.8264 39.4596 47.9316C39.718 49.6301 39.7088 50.2916 39.7335 52.0842C39.2608 49.9723 39.0655 48.7798 38.8521 46.5148C38.0786 46.5652 37.1438 46.9412 36.9977 47.5556C37.1366 48.8469 37.2134 49.5585 37.4237 50.6528C36.8234 48.7216 36.4937 47.607 35.7758 45.6236C34.8595 45.9528 34.105 46.6152 34.1073 47.2422C34.1972 47.5006 34.3491 47.9515 34.4391 48.2098C33.7891 48.3735 33.1666 48.8332 32.9703 49.1055C33.0675 50.6276 33.2976 51.4864 33.299 53.076C33.299 53.076 32.8288 51.9782 32.1033 47.0679C32.0565 46.7771 30.8194 46.3345 30.037 46.4291C30.2441 47.859 30.4609 49.2863 30.7066 50.7058C30.1926 49.0966 29.625 47.4809 29.0092 45.8781C28.4129 45.9333 27.4675 47.2745 27.5723 47.5498C28.7672 50.7338 28.9155 51.2485 29.5109 53.432C28.6902 51.5285 28.3781 50.8276 27.7859 49.6997C27.0576 49.9576 26.2092 51.0427 26.3404 51.3004C26.9596 52.5676 27.1744 53.1376 27.7224 54.8736C26.7781 52.8568 26.3368 52.2532 25.2784 50.2356C25.2154 50.1165 23.7941 50.0684 23.1218 50.4578C23.9774 52.0277 24.8716 53.5873 25.4998 55.1972C24.794 54.2252 24.1094 53.2162 23.4556 52.1675C22.7859 52.5666 22.2445 54.218 22.3172 54.3345C22.9553 55.3246 23.5369 56.0265 24.2296 56.9497Z" fill="#FFBC0D"/>
<path d="M37.4961 62.3272C36.8004 62.5137 36.4331 63.6163 36.4169 65.1792C35.6189 63.824 34.7521 63.0625 34.0564 63.2489C32.839 63.5751 32.6754 66.9454 33.7031 70.7809L34.6886 70.5168C33.7341 66.9546 33.5134 63.9279 34.1898 63.7467C34.8661 63.5654 36.1308 66.0823 37.0121 69.3713L37.9976 69.1072C37.1163 65.8182 36.9531 63.0062 37.6295 62.825C38.3058 62.6438 39.6307 65.3851 40.5825 68.9376L41.5681 68.6735C40.5333 64.8503 38.7136 62.001 37.4961 62.3272Z" fill="#FFBC0D"/>
<path d="M128.853 117.125C128.853 120.861 112.096 123.889 91.4263 123.889C70.7563 123.889 54 120.861 54 117.125C54 113.39 70.7563 110.361 91.4263 110.361C112.096 110.361 128.853 113.39 128.853 117.125Z" fill="#A0A09F" fill-opacity="0.15"/>
<path fill-rule="evenodd" clip-rule="evenodd" d="M128.5 52.7167C128.5 82.2248 98.6432 109.541 92.5124 114.839C91.8713 115.393 90.9688 115.393 90.3277 114.839C84.1968 109.541 54.3398 82.2248 54.3398 52.7167C54.3398 30.0148 70.9412 13 91.42 13C111.899 13 128.5 30.0148 128.5 52.7167ZM90.8063 60.2846C97.0865 60.2846 102.178 55.1725 102.178 48.8664C102.178 42.5603 97.0865 37.4482 90.8063 37.4482C84.5261 37.4482 79.4351 42.5603 79.4351 48.8664C79.4351 55.1725 84.5261 60.2846 90.8063 60.2846Z" fill="#FFBC0D" stroke="white" stroke-width="2"/>
<path fill-rule="evenodd" clip-rule="evenodd" d="M53.3398 52.7167C53.3398 29.5153 70.3376 12 91.42 12C112.502 12 129.5 29.5153 129.5 52.7167C129.5 67.7883 121.887 82.207 113.611 93.4496C105.318 104.713 96.2602 112.922 93.1662 115.596C92.1496 116.474 90.6905 116.474 89.6738 115.596C86.5799 112.922 77.5218 104.713 69.2294 93.4496C60.9527 82.207 53.3398 67.7883 53.3398 52.7167ZM91.42 14C71.5448 14 55.3398 30.5143 55.3398 52.7167C55.3398 67.1531 62.6555 81.1467 70.84 92.2639C79.0089 103.36 87.9446 111.458 90.9815 114.083C91.2471 114.312 91.5929 114.312 91.8585 114.083C94.8955 111.458 103.831 103.36 112 92.2639C120.185 81.1467 127.5 67.1531 127.5 52.7167C127.5 30.5143 111.295 14 91.42 14ZM90.8063 38.4482C85.0823 38.4482 80.4351 43.1087 80.4351 48.8664C80.4351 54.6241 85.0823 59.2846 90.8063 59.2846C96.5303 59.2846 101.178 54.6241 101.178 48.8664C101.178 43.1087 96.5303 38.4482 90.8063 38.4482ZM78.4351 48.8664C78.4351 42.0119 83.97 36.4482 90.8063 36.4482C97.6426 36.4482 103.178 42.0119 103.178 48.8664C103.178 55.7209 97.6426 61.2846 90.8063 61.2846C83.97 61.2846 78.4351 55.7209 78.4351 48.8664Z" fill="white"/>
<path fill-rule="evenodd" clip-rule="evenodd" d="M47.8613 27.7189C49.3186 27.3284 50.8474 28.2594 51.2573 29.7892L55.1398 44.2504C55.4058 42.873 55.736 41.5261 56.1267 40.2131C60.9369 24.0462 74.9201 13 91.4206 13C111.899 13 128.501 30.0148 128.501 52.7167C128.501 82.2248 98.6438 109.541 92.513 114.839C91.8719 115.393 90.9694 115.393 90.3283 114.839C87.3066 112.228 78.5214 104.268 70.388 93.3333C69.2557 91.8111 68.1361 90.2312 67.0464 88.6L68.995 95.8582C69.4049 97.388 68.549 98.9602 67.0917 99.3507L27.8865 109.878C26.4292 110.269 24.9004 109.338 24.4905 107.808L6.75285 41.739C6.34295 40.2093 7.19884 38.637 8.65616 38.2465L47.8613 27.7189ZM71.0266 97.4525C70.7295 99.2203 69.4899 100.779 67.6093 101.283L28.4052 111.81L28.4042 111.81C25.7945 112.509 23.231 110.835 22.5587 108.326L4.82125 42.2576C4.14994 39.7523 5.52517 37.0149 8.13852 36.3147L47.3437 25.787C49.953 25.0879 52.5162 26.7619 53.1889 29.2706C53.1888 29.2703 53.189 29.2709 53.1889 29.2706L55.1913 36.7289C60.9824 21.3675 74.9831 11 91.4206 11C113.107 11 130.501 29.0158 130.501 52.7167C130.501 68.1059 122.739 82.7372 114.417 94.0425C106.062 105.39 96.9431 113.654 93.8207 116.353C92.4286 117.556 90.4127 117.556 89.0206 116.353C86.2256 113.937 78.6 107.04 71.0266 97.4525ZM90.8069 58.2846C95.9747 58.2846 100.178 54.0757 100.178 48.8664C100.178 43.6571 95.9747 39.4482 90.8069 39.4482C85.639 39.4482 81.4356 43.6571 81.4356 48.8664C81.4356 54.0757 85.639 58.2846 90.8069 58.2846ZM90.8069 60.2846C97.0871 60.2846 102.178 55.1725 102.178 48.8664C102.178 42.5603 97.0871 37.4482 90.8069 37.4482C84.5267 37.4482 79.4356 42.5603 79.4356 48.8664C79.4356 55.1725 84.5267 60.2846 90.8069 60.2846Z" fill="white"/>
</svg>
