<svg width="153" height="98" viewBox="0 0 153 98" fill="none" xmlns="http://www.w3.org/2000/svg">
<rect x="2" y="9" width="149" height="80" rx="40" fill="white"/>
<path d="M117.599 30.7305C114.008 30.7305 110.806 35.5305 108.708 43.0362C106.613 35.5305 103.41 30.7305 99.82 30.7305C93.5083 30.7305 88.3945 46.7074 88.3945 66.4007H93.4702C93.4702 48.1071 96.3128 33.2798 99.82 33.2798C103.327 33.2798 106.17 46.9679 106.17 63.8444H111.249C111.249 46.9609 114.092 33.2798 117.599 33.2798C121.106 33.2798 123.949 48.1071 123.949 66.4007H129.028C129.028 46.7004 123.911 30.7305 117.599 30.7305Z" fill="#FFBC0D"/>
<path d="M22.8555 56.6916L24.7355 39.8359H29.1256L32.6364 50.4293L36.1748 39.8359H40.5615L42.445 56.6916H37.9441L36.9642 46.4038L33.9798 55.4586H31.2099L28.2012 46.3031L27.1972 56.6916H22.8555ZM47.9362 57.0216C46.8993 57.0651 45.8812 56.7349 45.066 56.0907C44.6903 55.7655 44.394 55.358 44.2002 54.8997C44.0063 54.4415 43.9199 53.9446 43.9477 53.4476C43.9156 52.6394 44.1695 51.8459 44.6643 51.2073C45.167 50.5956 45.8129 50.1183 46.5444 49.818C47.3567 49.4736 48.2096 49.2343 49.0822 49.106C49.9576 48.9668 50.8413 48.8868 51.7274 48.8664V48.592C51.7627 48.0045 51.6177 47.4202 51.3119 46.9179C51.18 46.7258 51.0013 46.5707 50.7929 46.4674C50.5844 46.364 50.3531 46.3159 50.1209 46.3274C49.7135 46.3181 49.3181 46.466 49.0164 46.7407C48.6959 47.0625 48.4933 47.4836 48.4417 47.9355H44.4254C44.5079 47.3157 44.7149 46.719 45.0339 46.1817C45.3529 45.6444 45.7772 45.1777 46.2812 44.8096C47.2991 44.064 48.6286 43.6901 50.2698 43.6878C52.174 43.6878 53.582 44.1624 54.4937 45.1118C55.4043 46.0565 55.8787 47.4806 55.8787 49.3735V56.6951H52.0701L51.9697 55.0349C51.5281 55.6631 50.9317 56.1657 50.2386 56.4936C49.5224 56.8464 48.7341 57.0272 47.9362 57.0216ZM49.6154 54.3784C49.8999 54.3807 50.1813 54.3195 50.4394 54.1994C50.6974 54.0793 50.9257 53.9031 51.1076 53.6838C51.554 53.117 51.7737 52.4037 51.7239 51.6832V50.7002C50.4706 50.735 49.5715 50.9573 49.0268 51.3671C48.7777 51.5356 48.5734 51.7626 48.4316 52.0283C48.2898 52.294 48.2148 52.5905 48.2132 52.8919C48.1965 53.0951 48.2224 53.2996 48.2892 53.4922C48.3559 53.6848 48.4621 53.8613 48.601 54.0102C48.8782 54.2611 49.2423 54.3933 49.6154 54.3784ZM58.7212 56.6916V44.0108H62.5297L62.6543 45.9489C62.9736 45.2608 63.4941 44.6866 64.1466 44.3025C64.8815 43.8746 65.7207 43.6605 66.5702 43.6843C67.9274 43.6843 68.9938 44.1011 69.7693 44.9312C70.5449 45.7613 70.9361 46.8797 70.9361 48.2898V56.6916H66.6706V48.9428C66.7 48.3785 66.5509 47.8193 66.2447 47.3451C66.0974 47.148 65.9035 46.9908 65.6804 46.8877C65.4573 46.7846 65.2122 46.7389 64.9671 46.7546C64.7018 46.7579 64.4404 46.8192 64.2011 46.9344C63.9619 47.0496 63.7507 47.2158 63.5822 47.4215C63.1806 47.8661 62.9798 48.5607 62.9798 49.5054V56.6742L58.7212 56.6916ZM79.5398 57.0216C78.3145 57.055 77.1036 56.7498 76.0395 56.1393C75.08 55.5738 74.2979 54.7495 73.7821 53.7602C73.2628 52.6993 72.9928 51.5331 72.9928 50.3512C72.9928 49.1693 73.2628 48.0031 73.7821 46.9422C74.299 45.9546 75.0809 45.1317 76.0395 44.5665C77.1153 43.9874 78.3172 43.6843 79.5381 43.6843C80.759 43.6843 81.961 43.9874 83.0367 44.5665C83.9953 45.1317 84.7772 45.9546 85.2941 46.9422C85.8134 48.0031 86.0834 49.1693 86.0834 50.3512C86.0834 51.5331 85.8134 52.6993 85.2941 53.7602C84.7784 54.7495 83.9963 55.5738 83.0367 56.1393C81.9768 56.7475 80.7709 57.0526 79.5502 57.0216H79.5398ZM79.5398 54.243C79.873 54.2388 80.1978 54.1382 80.4754 53.9534C80.753 53.7686 80.9716 53.5073 81.1048 53.201C81.8573 51.3725 81.8573 49.3195 81.1048 47.491C80.975 47.1817 80.757 46.9178 80.4784 46.7322C80.1997 46.5466 79.8726 46.4476 79.5381 46.4476C79.2036 46.4476 78.8765 46.5466 78.5979 46.7322C78.3192 46.9178 78.1013 47.1817 77.9714 47.491C77.2189 49.3195 77.2189 51.3725 77.9714 53.201C78.1041 53.5114 78.3241 53.7763 78.6045 53.9632C78.8849 54.1501 79.2136 54.251 79.5502 54.2534L79.5398 54.243Z" fill="url(#paint0_linear_1545_46680)"/>
<defs>
<linearGradient id="paint0_linear_1545_46680" x1="22.8555" y1="48.4306" x2="86.0795" y2="48.4306" gradientUnits="userSpaceOnUse">
<stop offset="0.000616698" stop-color="#910063"/>
<stop offset="0.0362" stop-color="#990059"/>
<stop offset="0.1727" stop-color="#B60035"/>
<stop offset="0.3012" stop-color="#CA001C"/>
<stop offset="0.4172" stop-color="#D7000C"/>
<stop offset="0.5101" stop-color="#DB0007"/>
<stop offset="1" stop-color="#E8720A"/>
</linearGradient>
</defs>
</svg>
