<svg width="375" height="225" viewBox="0 0 375 225" fill="none" xmlns="http://www.w3.org/2000/svg">
<path d="M218.552 72.2399C217.945 73.017 216.874 73.2635 215.981 72.8315C214.42 72.0758 213 71.3776 211.722 70.7403L211.458 69.7807L211.438 63.2781L205.918 61.8334C205.918 61.8334 203.072 57.9191 202.544 56.5353C202.017 55.152 201.453 52.706 201.38 51.7272C201.326 50.9924 200.326 49.1149 199.064 47.663L211.355 16.5938C218.575 21.3316 224.266 24.9026 228.43 27.3067L229.018 27.6438C232.747 29.7739 237.794 32.4534 244.157 35.6817L246.248 36.7388L218.552 72.2399Z" fill="#FFBC0D"/>
<path fill-rule="evenodd" clip-rule="evenodd" d="M221.888 68.3931L219.133 71.8823C218.546 72.626 217.489 72.8465 216.597 72.4115C211.537 69.9438 207.963 68.1072 205.874 66.9015L205.762 66.8363C203.677 65.625 200.469 63.5473 196.136 60.6034C195.324 60.0518 194.989 59.0407 195.328 58.1673L196.905 54.1075C200.656 56.5899 204.476 58.9536 208.365 61.1988C212.784 63.75 217.291 66.1481 221.888 68.3931Z" fill="white"/>
<g style="mix-blend-mode:multiply">
<path fill-rule="evenodd" clip-rule="evenodd" d="M246.84 37.218L218.981 72.8585C218.371 73.639 217.29 73.884 216.387 73.4464C214.28 72.4254 212.428 71.5113 210.831 70.7041C216.652 64.0573 225.203 51.1174 236.485 31.8854C239.489 33.4743 242.94 35.2525 246.84 37.218Z" fill="#D8D8D8" fill-opacity="0.5"/>
</g>
<path fill-rule="evenodd" clip-rule="evenodd" d="M250.327 26.7329L216.618 9.71383C215.763 9.22016 214.819 9.30454 214.483 9.88614L213.129 12.2251L211.716 14.6655C211.716 14.6655 222.882 21.9641 229.208 25.6164C235.534 29.2686 247.439 35.2899 247.439 35.2899L248.852 32.8495L251.265 28.6794C251.428 28.3985 251.428 28.0394 251.249 27.6724C251.07 27.3054 250.742 26.9689 250.327 26.7329Z" fill="#461E00"/>
<path fill-rule="evenodd" clip-rule="evenodd" d="M214.368 54.8567C214.87 55.1463 214.078 57.4527 212.599 60.0069L213.326 60.4267C214.919 57.6754 215.477 55.0225 214.574 54.501C214.061 54.2045 213.214 54.6101 212.308 55.485C212.614 54.2639 212.544 53.3288 212.03 53.0321C211.127 52.5108 209.104 54.318 207.511 57.0692L208.238 57.4889C209.717 54.9347 211.323 53.0983 211.824 53.3878C212.326 53.6776 211.626 55.8243 210.261 58.1824L210.988 58.6021C212.353 56.244 213.867 54.5672 214.368 54.8567Z" fill="#292929" fill-opacity="0.1"/>
<path fill-rule="evenodd" clip-rule="evenodd" d="M155.949 102.672C157.593 106.729 162.008 108.914 166.197 107.639C171.968 105.883 180.264 103.194 187.858 100.126C194.981 97.2476 201.652 93.969 206.343 91.5265C210.248 89.4935 211.857 84.8315 210.204 80.7511L155.949 102.672Z" fill="#EC9D47"/>
<path d="M158.851 100.606L158.944 100.609C162.902 100.781 163.054 98.5636 165.609 97.627C166.657 97.2428 167.596 97.1173 168.352 97.1068L168.412 97.0226C168.479 96.9317 168.555 96.84 168.639 96.7481L169.282 96.4859L169.775 96.2822C170.445 96.0039 171.164 95.6989 171.936 95.364L172.328 95.1926L172.819 94.9746C173.3 94.7642 173.957 94.4897 174.59 94.2834L174.637 94.2783C174.811 94.2948 174.978 94.3232 175.139 94.364C175.465 94.447 175.766 94.5366 176.051 94.6148C176.661 94.2698 177.199 93.9996 177.757 93.5835C178.594 93.407 179.364 93.2873 180.077 93.2187C181.411 93.0905 187.863 89.6554 191.341 88.2392L192.166 87.7762C193.974 86.7691 195.488 85.9736 195.798 85.7187L195.816 85.7032C195.953 85.5799 196.096 85.4607 196.246 85.3458L196.472 85.327L196.707 85.3044C198.489 85.1213 200.647 84.6186 203.389 83.0951C204.012 82.7494 204.747 82.5029 205.534 82.3358C206.099 81.5468 206.811 81.716 207.404 81.3558C208.21 80.8665 208.389 80.4057 209.642 79.7977C211.354 78.9668 213.02 81.066 213.623 81.7177C214.225 82.3693 213.968 81.9182 213.454 82.0665C212.94 82.2148 212.609 81.9915 212.009 82.1832C209.468 82.9947 210.905 85.8864 208.101 87.6176C206.588 88.5519 204.164 87.6365 203.432 87.7901C202.701 87.9437 202.256 88.6998 201.577 88.9867C198.372 90.3415 195.944 89.448 193.101 90.215L193.152 90.0585C193.183 89.9666 193.215 89.8747 193.247 89.7829C193.306 89.617 192.81 89.8101 192.032 90.1749L191.621 90.641C189.842 92.6409 187.625 94.9858 188.351 95.4669C187.171 96.1685 185.826 96.6745 184.281 97.2214C182.786 97.7509 180.881 97.2523 179.67 97.5964C177.556 98.1979 172.755 101.739 172.755 101.739C172.755 101.739 172.614 100.345 171.605 100.253C170.221 100.128 167.23 101.271 166.958 101.847C166.686 102.423 166.322 102.898 165.693 103.156C164.144 103.792 163.425 103.262 162.594 103.412C161.719 103.569 161.429 103.993 160.338 104.56C159.12 105.193 158.645 104.505 158.499 103.831L158.49 103.789C158.084 101.736 155.333 104.375 155.427 103.548C155.521 102.721 157.034 100.576 158.851 100.606Z" fill="#9CC93A"/>
<path fill-rule="evenodd" clip-rule="evenodd" d="M176.339 93.3212C187.011 90.7489 190.346 86.7733 194.979 84.3563C198.012 82.7749 201.059 81.768 203.592 81.3767C203.619 81.3725 204.625 81.1192 205.166 80.9353C206.135 80.6066 207.146 80.1981 208.199 79.71C208.199 79.71 209.579 78.9625 210.35 78.5529C211.122 78.1433 211.821 78.0111 212.261 78.7217C212.602 79.2707 212.3 79.7048 211.732 80.0487C211.163 80.3927 207.361 81.2073 198.032 85.495C188.703 89.7826 193.802 100.31 190.212 97.736C186.49 95.0686 180.929 94.192 177.115 94.5173C173.301 94.8427 164.87 99.1429 162.208 100.125C159.546 101.106 158.703 101.153 157.494 101.355C156.286 101.557 156.402 101.746 156.154 101.135C155.931 100.585 156.31 100.147 156.895 100.014C157.221 99.9391 158.347 99.8723 162.517 98.314C165.822 97.079 171.62 94.4585 176.339 93.3212Z" fill="#FFBC0D"/>
<path fill-rule="evenodd" clip-rule="evenodd" d="M204.608 73.4898C206.185 72.8526 208.008 73.6793 208.679 75.3363L209.388 77.1988C209.388 77.1988 208.222 78.4047 203.733 80.0672C199.244 81.7297 196.239 81.672 193.254 83.2556C188.692 85.6758 187.642 88.2844 178.334 91.0587C169.026 93.833 155.448 99.4091 155.448 99.4091L154.424 97.2568C153.753 95.5997 154.487 93.7399 156.064 93.1028C166.818 88.0514 174.972 84.4 180.526 82.1485C186.08 79.897 193.9 77.1021 204.608 73.4898Z" fill="#73371F"/>
<path fill-rule="evenodd" clip-rule="evenodd" d="M152.258 87.5579C152.049 87.0405 152.298 86.4516 152.816 86.2425L205.465 64.9708C205.835 64.8216 206.255 64.9999 206.405 65.369C207.857 68.9535 206.056 73.0264 202.431 74.3748C196.036 76.7538 186.619 80.2865 181.687 82.2789C176.685 84.3 167.261 88.3872 161.007 91.1199C157.608 92.6049 153.651 90.9955 152.258 87.5579Z" fill="#EC9D47"/>
<path d="M166.661 78.1368L166.937 77.9931C170.47 76.126 169.823 75.2397 171.72 74.4398C172.578 74.0775 173.341 74.1137 174.068 74.3079C175.229 72.6573 176.548 71.1608 178.546 70.4025C180.127 69.8028 182.319 70.5919 183.611 70.2184C185.868 69.5654 189.311 66.6458 190.294 64.6424C190.365 64.4971 190.571 64.6105 190.601 64.813L190.665 65.2411C190.798 66.088 191.045 67.061 192.163 67.2478C193.72 67.5075 195.541 66.6996 197.081 65.4535C197.296 64.709 197.628 64.1046 198.287 63.8059C199.911 63.0695 200.79 63.8187 201.69 63.6777L201.791 63.6604C202.851 63.466 204.138 62.7534 205.436 64.2643C206.733 65.7753 209.347 63.757 209.347 63.757C209.347 63.757 208.292 67.8158 206.262 67.6439L206.173 67.6351C201.749 67.1382 201.919 70.0634 199.224 71.1302C198.119 71.5677 197.095 71.6702 196.258 71.633C195.42 71.5958 191.633 75.6816 189.138 74.8038L188.844 74.6974C187.433 74.1741 186.408 73.6391 185.336 74.4658C184.695 74.9598 184.086 76.0586 181.879 76.7923C180.456 77.2657 178.811 76.8204 177.392 76.4247C176.587 77.216 175.935 77.257 175.402 79.185L175.369 79.3054C174.963 80.8465 174.435 81.5527 173.078 81.4806L172.99 81.4749C170.872 81.3149 170.692 83.221 168.248 84.0382C166.631 84.5786 163.868 82.0227 160.451 84.7522C159.849 85.2329 158.931 85.2996 157.937 85.1325C157.728 85.912 157.659 86.6457 157.597 87.1678C157.276 89.8946 155.823 88.7567 155.013 89.2846L154.98 89.3069C154.185 89.8815 153.636 89.6718 152.422 90.3127L152.302 90.3775C150.527 91.3613 148.789 91.2791 147.858 89.9291C147.702 89.7035 146.23 87.8118 147.015 88.3734C147.799 88.935 148.452 87.3104 149.088 87.0972C151.787 86.1952 148.935 84.3188 151.786 82.2171C153.185 81.1848 156.245 81.2085 158.094 81.5307L158.426 80.6067C158.814 79.5462 159.294 78.4473 160.109 78.0511C162.319 76.9767 164.617 79.1821 166.661 78.1368Z" fill="#9CC93A"/>
<path fill-rule="evenodd" clip-rule="evenodd" d="M151.49 77.1986C154.163 76.1187 166.359 70.198 174.459 66.9255C182.657 63.613 196.409 58.7191 198.807 58.0815C201.204 57.4439 201.957 57.5959 202.579 59.1323C203.202 60.6687 202.7 59.4294 203.322 60.9658C203.944 62.5022 202.931 63.699 201.342 64.3407L152.447 84.0957C150.858 84.7375 148.506 83.0575 148.525 80.9714C148.544 78.8853 148.817 78.2786 151.49 77.1986Z" fill="#73371F"/>
<path d="M150.024 84.6708C150.442 84.296 151.214 84.19 156.235 82.9118C158.204 82.4107 161.255 81.3937 165.887 79.3877C169.131 77.9829 174.268 75.8404 183.608 71.8527C192.948 67.8649 197.271 66.3854 200.269 65.121C203.268 63.8566 202.758 61.8632 204.899 62.8751C207.04 63.8869 204.003 64.8524 201.09 66.2911C198.176 67.7298 197.998 66.7799 188.165 71.1375C178.333 75.4951 174.636 78.4203 170.074 80.3235C161.479 83.9097 157.854 82.6334 153.188 85.6446C148.522 88.6559 149.606 85.0456 150.024 84.6708Z" fill="#E5AF71"/>
<path fill-rule="evenodd" clip-rule="evenodd" d="M200.008 52.5674C200.505 53.7959 201.193 55.4923 199.428 56.245C197.636 56.9293 182.489 61.3307 173.927 64.8262C165.701 68.1137 151.282 75.314 149.033 76.6059C146.779 77.8205 146.388 76.0043 145.999 75.0771C141.895 64.9136 154.059 53.0538 167.272 47.5444C180.498 42.0355 196.013 42.7052 200.008 52.5674Z" fill="white"/>
<path d="M167.278 47.5422C180.506 42.0327 196.025 42.7117 200.027 52.5891C200.525 53.8194 201.214 55.5189 199.45 56.2718C197.658 56.9561 182.508 61.3562 173.945 64.8522C165.717 68.14 151.297 75.3426 149.048 76.6352C146.795 77.8503 146.402 76.031 146.012 75.1023C141.903 64.9228 154.065 53.0524 167.278 47.5422ZM149.578 72.7603C149.094 72.6763 148.538 72.9358 148.337 73.3394C148.136 73.7429 148.365 74.1391 148.848 74.2232C149.331 74.3071 151.287 74.0915 151.4 73.8725C151.509 73.6532 150.061 72.8445 149.578 72.7603ZM185.786 57.6329C185.41 57.3163 183.748 56.6679 183.603 56.8677C183.46 57.0698 184.447 58.6526 184.823 58.9699C185.199 59.2864 185.72 59.244 185.986 58.8751C186.252 58.5058 186.162 57.9495 185.786 57.6329ZM158.7 67.3661C158.443 66.9826 157.865 66.8873 157.411 67.1539C156.957 67.4207 156.798 67.9484 157.056 68.3318C157.314 68.7153 158.797 69.7277 159.044 69.5842C159.29 69.4383 158.958 67.7505 158.7 67.3661ZM193.8 51.6638C193.396 51.4628 193.001 51.6907 192.917 52.1734C192.834 52.6569 193.051 54.6151 193.27 54.725C193.49 54.8321 194.296 53.3874 194.381 52.9039C194.464 52.421 194.204 51.8654 193.8 51.6638ZM174.519 60.2902C174.036 60.2063 173.481 60.4655 173.28 60.869C173.079 61.2723 173.306 61.6679 173.789 61.7522C174.272 61.8362 176.231 61.6212 176.342 61.402C176.451 61.1827 175.003 60.3744 174.519 60.2902ZM168.02 62.9328C167.651 62.6672 167.095 62.7559 166.778 63.1312C166.462 63.5075 165.813 65.1683 166.014 65.3127C166.215 65.4567 167.799 64.4694 168.116 64.0936C168.433 63.7181 168.39 63.1986 168.02 62.9328ZM184.336 51.4009C184.117 51.2918 183.309 52.7394 183.225 53.2223C183.141 53.7051 183.401 54.2599 183.805 54.4615C184.209 54.663 184.604 54.4346 184.688 53.952C184.772 53.4686 184.556 51.5108 184.336 51.4009ZM150.537 65.0884C150.054 65.0044 149.499 65.2635 149.297 65.6672C149.096 66.0706 149.325 66.4659 149.808 66.55C150.292 66.6338 152.248 66.4183 152.36 66.1993C152.468 65.9797 151.02 65.1727 150.537 65.0884ZM159.261 61.3508C158.777 61.2669 156.817 61.4827 156.708 61.7019C156.602 61.922 158.048 62.7295 158.531 62.8137C159.014 62.8977 159.569 62.6381 159.771 62.2349C159.972 61.8313 159.744 61.4349 159.261 61.3508ZM175.792 52.6897C175.301 52.8883 175.041 53.3903 175.211 53.8111C175.382 54.2321 176.605 55.4633 176.872 55.3571C177.139 55.2493 177.16 53.5141 176.99 53.0926C176.819 52.6717 176.283 52.4913 175.792 52.6897ZM168.949 55.2436C168.705 55.2019 167.963 56.8213 167.913 57.3097C167.864 57.7978 168.186 58.259 168.634 58.3402C169.082 58.4211 169.486 58.0903 169.536 57.6019C169.585 57.1128 169.193 55.2875 168.949 55.2436ZM179.803 47.2204C179.546 46.8371 178.968 46.7425 178.514 47.0091C178.061 47.2757 177.902 47.8027 178.159 48.186C178.417 48.5694 179.9 49.5829 180.148 49.4394C180.394 49.2935 180.061 47.6039 179.803 47.2204ZM158.525 54.606C158.035 54.8045 157.775 55.3067 157.945 55.7273C158.116 56.1481 159.338 57.3791 159.606 57.2733C159.873 57.1656 159.895 55.4297 159.724 55.0085C159.554 54.5878 159.017 54.4075 158.525 54.606ZM166.845 49.7386C166.361 49.6547 165.806 49.9141 165.604 50.3177C165.403 50.721 165.632 51.1164 166.115 51.2006C166.598 51.2846 168.556 51.0695 168.668 50.8504C168.777 50.631 167.328 49.823 166.845 49.7386Z" fill="#EC9D47"/>
<g style="mix-blend-mode:multiply">
<ellipse cx="193.126" cy="211.806" rx="53.7195" ry="7.19457" fill="#F1F1F1"/>
</g>
<path fill-rule="evenodd" clip-rule="evenodd" d="M146.121 87.5801L151.937 93.5756L157.752 87.5801L163.568 93.5756L169.384 87.5801L175.199 93.5756L181.015 87.5801L186.83 93.5756L192.646 87.5801L198.462 93.5756L204.277 87.5801L210.093 93.5756L215.908 87.5801L221.724 93.5756L227.54 87.5801L233.355 93.5756L239.171 87.5801V207.49C239.171 210.139 237.035 212.286 234.399 212.286H150.893C148.257 212.286 146.121 210.139 146.121 207.49V87.5801Z" fill="#C2945C"/>
<path fill-rule="evenodd" clip-rule="evenodd" d="M146.121 189.264H239.171V207.439C239.171 210.116 237.035 212.286 234.399 212.286H150.893C148.257 212.286 146.121 210.116 146.121 207.439V189.264Z" fill="#DB0007"/>
<path fill-rule="evenodd" clip-rule="evenodd" d="M239.167 117.571C238.406 117.403 237.641 117.318 236.866 117.318C227.012 117.318 218.213 130.099 212.462 150.079C206.706 130.099 197.911 117.318 188.051 117.318C170.727 117.318 156.672 159.835 156.672 212.287H170.621C170.621 163.591 178.429 124.099 188.051 124.099C197.682 124.099 205.487 160.549 205.487 205.506H219.433C219.433 160.549 227.244 124.099 236.866 124.099C237.647 124.099 238.416 124.359 239.17 124.863C239.167 120.305 239.167 122.694 239.167 117.571Z" fill="#FFBC0D"/>
</svg>
