<svg width="27" height="18" viewBox="0 0 27 18" fill="none" xmlns="http://www.w3.org/2000/svg">
<g clip-path="url(#clip0_109_43765)">
<path d="M0 0H27V18.0002H0V0Z" fill="black"/>
<path d="M0 2.57812H27V5.15515H0V2.57812ZM0 12.8862H27V15.4633H0V12.8862Z" fill="#FFDA44"/>
<path d="M0 0H27V2.57702H0V0Z" fill="#057F44"/>
<path d="M0 5.15234H27V7.72936H0V5.15234ZM0 10.3064H27V12.8835H0V10.3064Z" fill="#D80027"/>
<path d="M0 15.4609H27V17.9989H0V15.4609Z" fill="#057F44"/>
<path d="M14.607 8.99981L5.60719 17.9996H0V0H5.60719L14.607 8.99981Z" fill="white"/>
<path d="M13.5 8.99996L4.5 17.9999H5.60674L14.6068 8.99996L5.60674 0H4.5L13.5 8.99996Z" fill="black"/>
<path d="M5.40381 6.18359L6.10302 8.33579H8.36622L6.53539 9.66607L7.23464 11.8184L5.40381 10.4882L3.57288 11.8184L4.27224 9.66607L2.44141 8.33579H4.7045L5.40381 6.18359Z" fill="#D80027"/>
<path d="M7.32744 9.17621L5.50499 8.53058C5.50499 8.53058 5.37036 7.26733 5.36219 7.22456C5.30033 6.89867 5.01398 6.65234 4.67016 6.65234C4.28119 6.65234 3.96578 6.9677 3.96578 7.35672C3.96578 7.42121 3.97517 7.48338 3.99141 7.54276L3.48047 8.05719H4.38903C4.38903 9.00018 3.68534 9.00018 3.68534 9.93933L4.07568 10.8785H6.42352L6.81492 9.93933H6.8147C6.85291 9.85163 6.87747 9.7586 6.88753 9.66348C7.22487 9.52695 7.32744 9.17621 7.32744 9.17621Z" fill="#FFDA44"/>
</g>
<rect x="0.5" y="0.5" width="26" height="17" rx="0.5" stroke="black" stroke-opacity="0.2"/>
<defs>
<clipPath id="clip0_109_43765">
<rect width="27" height="18" rx="1" fill="white"/>
</clipPath>
</defs>
</svg>
