<svg width="44" height="44" viewBox="0 0 44 44" fill="none" xmlns="http://www.w3.org/2000/svg">
<path d="M43 30.6952C43 31.5677 33.598 32.2751 22 32.2751C10.402 32.2751 1 31.5677 1 30.6952C1 29.8226 10.402 29.1152 22 29.1152C33.598 29.1152 43 29.8226 43 30.6952Z" fill="#A0A09F" fill-opacity="0.15"/>
<path d="M8.375 23.9716C8.375 20.3413 11.3179 17.3984 14.9481 17.3984H26.0176C29.9442 17.3984 33.1274 20.5816 33.1274 24.5082H8.91158C8.61524 24.5082 8.375 24.2679 8.375 23.9716Z" fill="#606060"/>
<path d="M12.0672 16.8419C12.361 16.6919 12.6931 16.6074 13.0446 16.6074C14.245 16.6074 15.2182 17.5927 15.2182 18.8082C15.2182 19.9992 14.2839 20.9692 13.1169 21.0078C12.6697 21.4615 12.0515 21.7422 11.3684 21.7422C10.0043 21.7422 8.89844 20.6225 8.89844 19.2413C8.89844 17.8601 10.0043 16.7404 11.3684 16.7404C11.6111 16.7404 11.8456 16.7759 12.0672 16.8419Z" fill="#DB0007"/>
<path d="M13.0461 16.6074C13.2519 16.6074 13.451 16.6364 13.6397 16.6905L13.6397 19.3723H12.3231L11.6992 16.7625C11.8257 16.7795 11.9491 16.8063 12.0687 16.8419C12.3625 16.6919 12.6946 16.6074 13.0461 16.6074Z" fill="#292929" fill-opacity="0.15"/>
<path fill-rule="evenodd" clip-rule="evenodd" d="M18.2516 12.6582L20.0792 20.5324C20.1297 20.75 19.9974 20.9659 19.7835 21.015L14.3646 22.2595C14.1509 22.3086 13.9366 22.1722 13.8861 21.9547L12.0586 14.0804L12.7685 14.3286L13.2972 13.796L14.0071 14.0441L14.5358 13.5115L15.2457 13.7597L15.7744 13.2271L16.4843 13.4752L17.013 12.9427L17.7229 13.1908L18.2516 12.6582Z" fill="#C2945C"/>
<path fill-rule="evenodd" clip-rule="evenodd" d="M17.9335 15.0588C18.2348 14.9893 18.571 15.1508 18.9116 15.4939L19.3994 17.5954C18.9014 16.225 18.3743 15.3558 18.0209 15.4374C17.4799 15.5623 17.5106 17.6989 18.0901 20.2091L17.306 20.3901C16.7265 17.8799 15.8178 15.9461 15.2763 16.0711C14.7353 16.196 14.8054 18.5023 15.4331 21.2212L14.6489 21.4023C13.9727 18.4737 14.2149 15.9173 15.1889 15.6925C15.7433 15.5645 16.4025 16.1639 16.9837 17.2048C17.0495 16.0146 17.3794 15.1868 17.9335 15.0588Z" fill="#FFBC0D"/>
<path d="M9.13489 18.1875H33.1852C33.9323 18.1875 34.6687 18.3641 35.3345 18.7028C36.8032 19.45 37.9729 20.3416 38.8438 21.3778C39.9246 22.6637 40.3752 23.9702 40.1956 25.2972H3.10547L4.87943 21.0276C5.59385 19.3081 7.27288 18.1875 9.13489 18.1875Z" fill="#FFBC0D"/>
<path d="M40.2328 24.6393L3.37891 24.6392L3.81655 23.5859L40.0744 23.5859C40.1722 23.9356 40.225 24.2867 40.2328 24.6393Z" fill="#292929" fill-opacity="0.15"/>
<path d="M35.3034 20.7275C35.3034 21.5478 34.6391 22.2127 33.8197 22.2127C33.0002 22.2127 32.3359 21.5478 32.3359 20.7275C32.3359 19.9072 33.0002 19.2422 33.8197 19.2422C34.6391 19.2422 35.3034 19.9072 35.3034 20.7275Z" fill="white"/>
<path d="M20.8166 12H21.0785L28.1235 18.3197H26.6894L20.5779 12.8373C20.3178 12.6041 20.2804 12.2752 20.4943 12.1028C20.5772 12.036 20.6901 12 20.8166 12Z" fill="#FFBC0D"/>
<path d="M20.8789 12H21.624C22.0657 12 22.5339 12.1806 22.8857 12.4868L29.4369 18.1881H27.9894L20.8789 12Z" fill="#F1F1F1"/>
<path d="M17.6807 20.2949H20.5226C20.7195 20.2949 20.8791 20.4545 20.8791 20.6514C20.8791 20.8483 20.7195 21.0079 20.5226 21.0079H17.6807C17.4838 21.0079 17.3242 20.8483 17.3242 20.6514C17.3242 20.4545 17.4838 20.2949 17.6807 20.2949Z" fill="#606060"/>
<path d="M3.10477 24.2441H39.7067C40.6519 24.2441 41.4183 25.0104 41.4183 25.9557V26.0874C41.4183 26.96 40.7109 27.6673 39.8383 27.6673H3.10477C2.81391 27.6673 2.57812 27.4316 2.57812 27.1407V24.7708C2.57812 24.4799 2.81391 24.2441 3.10477 24.2441Z" fill="#DBDBDB"/>
<path d="M39.8383 27.6674H3.10477C2.81391 27.6674 2.57812 27.4316 2.57812 27.1407V26.4824L41.3685 26.4824C41.1931 27.1639 40.5745 27.6674 39.8383 27.6674Z" fill="#292929" fill-opacity="0.15"/>
<path d="M37.9962 27.2071C37.9962 29.4249 36.1983 31.2228 33.9805 31.2228C31.7627 31.2228 29.9648 29.4249 29.9648 27.2071C29.9648 24.9893 31.7627 23.1914 33.9805 23.1914C36.1983 23.1914 37.9962 24.9893 37.9962 27.2071Z" fill="#606060"/>
<path d="M35.7591 27.2721C35.7591 28.2174 34.9928 28.9837 34.0475 28.9837C33.1022 28.9837 32.3359 28.2174 32.3359 27.2721C32.3359 26.3269 33.1022 25.5605 34.0475 25.5605C34.9928 25.5605 35.7591 26.3269 35.7591 27.2721Z" fill="#F1F1F1"/>
<path d="M35.2223 26.0879C35.5529 26.3929 35.7599 26.8298 35.7599 27.3151C35.7599 28.2371 35.0125 28.9846 34.0905 28.9846C33.6052 28.9846 33.1683 28.7775 32.8633 28.4469C33.1003 28.5661 33.3679 28.6331 33.6512 28.6331C34.6217 28.6331 35.4085 27.8463 35.4085 26.8758C35.4085 26.6024 35.3461 26.3436 35.2347 26.1128L35.2223 26.0879Z" fill="white"/>
<path d="M14.4376 27.2071C14.4376 29.4249 12.6397 31.2228 10.4219 31.2228C8.20413 31.2228 6.40625 29.4249 6.40625 27.2071C6.40625 24.9893 8.20413 23.1914 10.4219 23.1914C12.6397 23.1914 14.4376 24.9893 14.4376 27.2071Z" fill="#606060"/>
<path d="M12.2005 27.2721C12.2005 28.2174 11.4342 28.9837 10.4889 28.9837C9.54365 28.9837 8.77734 28.2174 8.77734 27.2721C8.77734 26.3269 9.54365 25.5605 10.4889 25.5605C11.4342 25.5605 12.2005 26.3269 12.2005 27.2721Z" fill="#F1F1F1"/>
<path d="M11.6598 26.0879C11.9904 26.3929 12.1974 26.8298 12.1974 27.3151C12.1974 28.2371 11.45 28.9846 10.528 28.9846C10.0427 28.9846 9.60581 28.7775 9.30078 28.4469C9.53777 28.5661 9.80539 28.6331 10.0887 28.6331C11.0592 28.6331 11.846 27.8463 11.846 26.8758C11.846 26.6024 11.7836 26.3436 11.6722 26.1128L11.6598 26.0879Z" fill="white"/>
</svg>
