<svg width="72" height="72" viewBox="0 0 72 72" fill="none" xmlns="http://www.w3.org/2000/svg">
<g clip-path="url(#clip0_3899_40820)">
<path d="M111.33 60.1395C111.33 62.8561 87.7119 65.0583 58.5772 65.0583C29.4426 65.0583 5.82422 62.8561 5.82422 60.1395C5.82422 57.4229 29.4426 55.2207 58.5772 55.2207C87.7119 55.2207 111.33 57.4229 111.33 60.1395Z" fill="#A0A09F" fill-opacity="0.15"/>
<path d="M15.8068 43.1274H34.4365C36.8934 43.1274 39.2633 41.0763 37.8457 39.0697C37.2682 38.2524 36.3348 37.5433 34.8401 37.2159C30.1018 36.178 18.3689 37.2159 18.3689 37.2159L15.458 11.4397C15.3497 10.4809 14.433 9.82832 13.4915 10.04C11.1814 10.5593 9.63109 12.7325 9.89184 15.0858L12.6896 40.3365C12.8656 41.9253 14.2084 43.1274 15.8068 43.1274Z" fill="#292929"/>
<path d="M12.9119 58.6052C13.0473 57.477 15.078 43.1719 15.078 43.1719H20.0419C20.0419 43.1719 16.3415 57.3868 15.9354 58.6052C15.5292 59.8236 14.9876 60.1395 14.2205 60.1395C13.4534 60.1395 12.7765 59.7333 12.9119 58.6052Z" fill="#6F6F6F"/>
<path d="M37.3533 58.6052C37.2179 57.477 35.1872 43.1719 35.1872 43.1719H30.2233C30.2233 43.1719 33.9237 57.3868 34.3298 58.6052C34.736 59.8236 35.2776 60.1395 36.0447 60.1395C36.8118 60.1395 37.4887 59.7333 37.3533 58.6052Z" fill="#6F6F6F"/>
<path d="M14.6602 46.1051C14.9055 44.3723 15.0759 43.1719 15.0759 43.1719H20.0399C20.0399 43.1719 19.7274 44.3722 19.2741 46.1051H14.6602Z" fill="#292929"/>
<path d="M35.6008 46.1051C35.3554 44.3723 35.185 43.1719 35.185 43.1719H30.2211C30.2211 43.1719 30.5335 44.3722 30.9868 46.1051H35.6008Z" fill="#292929"/>
<path d="M25.7695 22.2224C25.7695 21.3564 26.4716 20.6543 27.3377 20.6543H90.1765C91.0426 20.6543 91.7447 21.3564 91.7447 22.2224V27.2992C91.7447 28.1653 91.0426 28.8673 90.1765 28.8673H27.3377C26.4716 28.8673 25.7695 28.1653 25.7695 27.2992V22.2224Z" fill="#D8D8D8"/>
<path d="M60.6095 30.2207H56.2773V59.7335C56.2775 60.1322 57.2472 60.4555 58.4434 60.4555C59.6397 60.4555 60.6095 60.1322 60.6095 59.7334L60.6095 59.7311V30.2207Z" fill="#6F6F6F"/>
<path fill-rule="evenodd" clip-rule="evenodd" d="M54.1281 11.8823H53.7952C53.7952 11.8823 53.9986 13.4781 54.3138 15.0563C54.629 16.6346 55.063 18.2304 55.063 18.2304L55.524 18.5735C55.524 18.5735 56.3884 18.2304 57.5409 18.2304C58.6934 18.2304 59.6155 18.5735 59.6155 18.5735L60.0765 18.2304C60.0765 18.2304 60.5069 16.6521 60.8256 15.0563C61.1443 13.4605 61.3443 11.8823 61.3443 11.8823H61.0514L61.1124 11.6536L61.112 11.6535H61.1155C61.3443 10.91 61.4587 10.3953 61.573 9.65186C61.2782 9.56963 60.8895 9.64154 60.8638 9.74302C60.8337 9.8616 60.8115 9.941 60.7853 10.0343L60.7853 10.0344L60.7853 10.0345C60.7732 10.0777 60.7602 10.124 60.7453 10.1786C60.6243 10.0442 60.3738 9.9753 60.1301 9.95212C60.0689 10.5104 60.008 10.7455 59.8757 11.2567L59.8366 11.4077C59.8681 10.6357 59.9137 10.2075 60.0479 9.40854C59.7725 9.35296 59.414 9.39834 59.3034 9.59713C59.2307 10.0532 59.1917 10.3061 59.1645 10.7029L59.1599 10.5828C59.1355 9.93475 59.12 9.52438 59.0615 8.81943C58.7125 8.84725 58.3884 9.00828 58.3285 9.22345L58.3323 9.27576C58.3394 9.37388 58.349 9.50546 58.354 9.58724C58.1138 9.58189 57.8541 9.68527 57.7599 9.76059C57.7178 9.97102 57.6918 10.1478 57.6668 10.3182L57.6668 10.3182L57.6668 10.3182C57.6283 10.5802 57.592 10.8271 57.5026 11.1581C57.5026 11.1581 57.4429 10.7363 57.6476 8.97819C57.6598 8.87269 57.2676 8.6058 56.9891 8.56876C56.9265 9.08055 56.8717 9.59162 56.8235 10.1024C56.7961 9.49967 56.7494 8.89371 56.6824 8.28188C56.4706 8.24458 56.0168 8.62172 56.0271 8.72593C56.1458 9.93234 56.1479 10.1235 56.1545 10.931C56.0465 10.1981 56.0015 9.92775 55.9027 9.48622C55.6246 9.50698 55.2277 9.80319 55.2482 9.90591C55.3466 10.3998 55.3658 10.6159 55.3978 11.2623C55.3117 10.778 55.2408 10.4983 55.1569 10.1675L55.1569 10.1675C55.1053 9.96419 55.0489 9.74156 54.981 9.44022C54.9701 9.39206 54.4813 9.24504 54.2098 9.31721C54.2318 9.40785 54.2542 9.49851 54.2766 9.58917L54.2766 9.58921C54.4072 10.1181 54.5378 10.6466 54.594 11.1677C54.4395 10.7666 54.2959 10.3569 54.1654 9.93517C53.8952 10.012 53.5515 10.5311 53.5669 10.578C53.6481 10.8258 53.7448 11.0346 53.844 11.2489C53.904 11.3785 53.965 11.5102 54.0239 11.6535H54.0245L54.0242 11.6537L54.1281 11.8823Z" fill="white"/>
<path fill-rule="evenodd" clip-rule="evenodd" d="M53.7969 11.8828H54.7119C54.7119 11.8828 55.4681 14.056 57.5426 14.056C59.6172 14.056 60.4309 11.8828 60.4309 11.8828H61.346C61.346 11.8828 61.146 13.4611 60.8273 15.0569C60.5086 16.6527 60.0782 18.2309 60.0782 18.2309L59.6172 18.5741C59.6172 18.5741 58.6951 18.2309 57.5426 18.2309C56.3901 18.2309 55.5257 18.5741 55.5257 18.5741L55.0647 18.2309C55.0647 18.2309 54.6307 16.6351 54.3155 15.0569C54.0003 13.4786 53.7969 11.8828 53.7969 11.8828Z" fill="#DB0007"/>
<path fill-rule="evenodd" clip-rule="evenodd" d="M58.1238 14.7422C57.8661 14.7422 57.6362 15.0731 57.4857 15.5905C57.3354 15.0731 57.1055 14.7422 56.8477 14.7422C56.3948 14.7422 56.0273 15.8432 56.0273 17.2014H56.392C56.392 15.9403 56.5961 14.9179 56.8477 14.9179C57.0995 14.9179 57.3035 15.8617 57.3035 17.0258H57.6681C57.6681 15.8617 57.8721 14.9179 58.1238 14.9179C58.3755 14.9179 58.5796 15.9403 58.5796 17.2014H58.944C58.944 15.8432 58.5768 14.7422 58.1238 14.7422Z" fill="#FFBC0D"/>
<path fill-rule="evenodd" clip-rule="evenodd" d="M54.939 11.6535C54.939 11.6535 55.6824 13.8267 57.5697 13.8267C59.457 13.8267 60.2005 11.6535 60.2005 11.6535C60.2005 11.6535 60.7152 11.6535 61.1155 11.6535C61.3443 10.91 61.4587 10.3953 61.573 9.65186C61.2782 9.56963 60.8895 9.64154 60.8638 9.74302C60.8197 9.91662 60.7925 10.0063 60.7453 10.1786C60.6243 10.0442 60.3738 9.9753 60.1301 9.95212C60.0632 10.5626 59.9966 10.7866 59.8366 11.4077C59.8681 10.6357 59.9137 10.2075 60.0479 9.40854C59.7725 9.35296 59.414 9.39834 59.3034 9.59713C59.2307 10.0532 59.1917 10.3061 59.1645 10.7029C59.1372 9.98323 59.1235 9.56695 59.0615 8.81943C58.7125 8.84725 58.3884 9.00828 58.3285 9.22345C58.3356 9.32143 58.348 9.48973 58.354 9.58724C58.1138 9.58189 57.8541 9.68527 57.7599 9.76059C57.653 10.2946 57.6502 10.6118 57.5026 11.1581C57.5026 11.1581 57.4429 10.7363 57.6476 8.97819C57.6598 8.87269 57.2676 8.6058 56.9891 8.56876C56.9265 9.08055 56.8717 9.59162 56.8235 10.1024C56.7961 9.49967 56.7494 8.89371 56.6824 8.28188C56.4706 8.24458 56.0168 8.62172 56.0271 8.72593C56.1458 9.93234 56.1479 10.1235 56.1545 10.931C56.0465 10.1981 56.0015 9.92775 55.9027 9.48622C55.6246 9.50698 55.2277 9.80319 55.2482 9.90591C55.3466 10.3998 55.3658 10.6159 55.3978 11.2623C55.2587 10.4802 55.1593 10.2317 54.981 9.44022C54.9701 9.39206 54.4813 9.24504 54.2098 9.31721C54.3603 9.93661 54.5282 10.5573 54.594 11.1677C54.4395 10.7666 54.2959 10.3569 54.1654 9.93517C53.8952 10.012 53.5515 10.5311 53.5669 10.578C53.6973 10.9756 53.8675 11.2732 54.0239 11.6535H54.939Z" fill="#FFBC0D"/>
<path fill-rule="evenodd" clip-rule="evenodd" d="M55.7484 8.75309C55.7288 8.55476 55.8751 8.392 56.1072 8.22015C56.3246 8.05919 56.5399 7.96452 56.7379 7.99939C56.8631 8.02143 56.9588 8.12351 56.9726 8.2499L56.976 8.28254L56.9834 8.28212C56.9956 8.28165 57.0078 8.28194 57.0202 8.28305L57.0327 8.28443C57.4331 8.33768 57.9752 8.68661 57.9375 9.01038C57.929 9.08284 57.921 9.15357 57.9133 9.22259L57.8963 9.37842L57.9123 9.3731C57.9581 9.35814 58.0056 9.34506 58.0537 9.33427L58.0557 9.33381L58.0495 9.24681L58.0485 9.22678C58.0481 9.19949 58.0516 9.17225 58.0589 9.1459C58.1566 8.79514 58.5761 8.57086 59.0446 8.53351C59.2017 8.52099 59.3393 8.63788 59.3523 8.7949C59.3601 8.8887 59.3672 8.97814 59.3737 9.06465L59.3822 9.18014L59.3848 9.17905C59.5882 9.09314 59.8434 9.0773 60.0893 9.12328L60.1103 9.12737C60.2616 9.1579 60.3613 9.30288 60.3358 9.45503L60.3139 9.58682L60.2983 9.68336L60.3409 9.69045C60.4174 9.70399 60.4901 9.7215 60.5582 9.74333L60.5728 9.7481L60.582 9.71262L60.5925 9.67184C60.6758 9.34332 61.2399 9.25955 61.6558 9.37555C61.7952 9.41445 61.8836 9.5514 61.8616 9.69447C61.7525 10.4031 61.6433 10.9027 61.4522 11.5468L61.4338 11.6079L61.4395 11.6096C61.5622 11.6499 61.6468 11.7706 61.6351 11.9057L61.6339 11.9173C61.4997 12.9763 61.3257 14.041 61.1119 15.1115C60.8982 16.1818 60.647 17.2462 60.3583 18.3048C60.3414 18.3665 60.3044 18.4207 60.2531 18.4589L59.7921 18.802C59.7143 18.8599 59.6125 18.8745 59.5216 18.8407C58.9402 18.6243 58.2824 18.5155 57.5468 18.5155C56.8128 18.5155 56.176 18.6238 55.6354 18.8384C55.5432 18.875 55.4387 18.8612 55.3591 18.802L54.8981 18.4589C54.8468 18.4207 54.8097 18.3663 54.7929 18.3046C54.5019 17.2344 54.2507 16.1701 54.0393 15.1115C53.8278 14.0527 53.6539 12.9881 53.5174 11.9176C53.5001 11.7816 53.5808 11.6581 53.7012 11.6133L53.702 11.613L53.6734 11.5489L53.647 11.4909L53.5391 11.2568C53.4402 11.0409 53.3762 10.8875 53.3183 10.7177L53.3011 10.6662C53.2448 10.4943 53.3409 10.3358 53.5428 10.0868L53.5618 10.0638C53.7007 9.8964 53.8444 9.76678 53.9942 9.69651L54.0126 9.68822L53.9378 9.38386C53.9011 9.23272 53.9919 9.07994 54.1422 9.03998C54.3167 8.9936 54.5341 9.00493 54.7589 9.05311C54.8477 9.07214 54.9325 9.09638 55.0007 9.12205C55.0394 9.1366 55.0733 9.15178 55.103 9.16868C55.1259 9.18167 55.147 9.19593 55.1675 9.21387C55.2133 9.25386 55.2491 9.30221 55.2658 9.3765L55.2818 9.44671L55.3085 9.4281C55.4618 9.3237 55.6324 9.24468 55.7928 9.21314L55.7869 9.15014L55.7484 8.75309ZM56.8329 10.1016C56.8055 9.49881 56.7588 8.89285 56.6919 8.28102C56.48 8.24373 56.0262 8.62086 56.0365 8.72507C56.1325 9.70104 56.1522 10.0125 56.1598 10.5235L56.1639 10.9301C56.0653 10.2615 56.0193 9.97788 55.937 9.59804L55.9121 9.48537C55.634 9.50613 55.2371 9.80233 55.2576 9.90505C55.3462 10.3496 55.3706 10.5691 55.3979 11.0797L55.4072 11.2615C55.3211 10.7771 55.2502 10.4974 55.1663 10.1667C55.1204 9.98559 55.0706 9.78921 55.0123 9.53555L54.9904 9.43937C54.9795 9.3912 54.4907 9.24418 54.2192 9.31635C54.2412 9.407 54.2636 9.49768 54.286 9.58835C54.4167 10.1172 54.5472 10.6458 54.6034 11.1668C54.4489 10.7657 54.3053 10.3561 54.1748 9.93431C53.9046 10.0112 53.5609 10.5302 53.5763 10.5772C53.6575 10.8249 53.7542 11.0338 53.8534 11.2481C53.9051 11.3596 53.9574 11.4726 54.0085 11.5933L54.0333 11.6527L54.1373 11.8814H53.8046C53.9402 12.9453 54.1131 14.0033 54.3232 15.0555C54.5333 16.1077 54.7831 17.1657 55.0724 18.2295L55.5334 18.5727C56.1096 18.3439 56.782 18.2295 57.5503 18.2295C58.3187 18.2295 59.0102 18.3439 59.6249 18.5727L60.0859 18.2295C60.3729 17.1774 60.6226 16.1193 60.835 15.0555C61.0475 13.9916 61.2204 12.9336 61.3537 11.8814H61.0639L61.1249 11.6527L61.1454 11.5857C61.3606 10.8778 61.4715 10.3719 61.5824 9.65101C61.2876 9.56877 60.8989 9.64068 60.8732 9.74216C60.8585 9.80003 60.8457 9.84857 60.8334 9.89395L60.7547 10.1777C60.6337 10.0433 60.3832 9.97444 60.1395 9.95126C60.0853 10.4454 60.0314 10.6864 59.9279 11.0897L59.846 11.4068C59.876 10.6725 59.9187 10.2492 60.0383 9.52204L60.0573 9.40769C59.7819 9.3521 59.4234 9.39749 59.3128 9.59628C59.2449 10.022 59.2065 10.2706 59.1795 10.6245L59.1739 10.702C59.1723 10.661 59.1708 10.621 59.1693 10.5819C59.1464 9.97315 59.1313 9.57412 59.081 8.94359L59.0709 8.81857C58.7219 8.84639 58.3978 9.00742 58.3379 9.2226C58.3391 9.2384 58.3404 9.25603 58.3417 9.2749C58.3469 9.34602 58.3533 9.43472 58.3584 9.5093L58.3634 9.58639C58.1232 9.58103 57.8635 9.68442 57.7693 9.75973C57.7272 9.9702 57.7012 10.147 57.6762 10.3174C57.6377 10.5793 57.6014 10.8262 57.512 11.1572C57.512 11.1572 57.457 10.7685 57.6337 9.18196L57.657 8.97734C57.6692 8.87184 57.277 8.60494 56.9985 8.56791C56.936 9.0797 56.8811 9.59077 56.8329 10.1016Z" fill="white"/>
<path d="M53.0042 18.5232H45.9833L44.5703 16.082H54.4171L53.0042 18.5232Z" fill="white" stroke="white" stroke-width="0.786365"/>
<path d="M45.571 10.7812H53.3784C53.4975 10.7812 53.6031 10.8576 53.6404 10.9707L54.9259 14.8654C55.0471 15.2328 54.8476 15.6289 54.4802 15.7501C54.4094 15.7735 54.3353 15.7854 54.2607 15.7854H44.6887C44.3019 15.7854 43.9883 15.4718 43.9883 15.085C43.9883 15.0104 44.0002 14.9363 44.0236 14.8654L45.309 10.9707C45.3463 10.8576 45.4519 10.7812 45.571 10.7812Z" fill="white" stroke="white" stroke-width="0.714877"/>
<path d="M53.0081 18.5232H45.9872L44.5742 16.082H54.4211L53.0081 18.5232Z" fill="#C2945C"/>
<mask id="mask0_3899_40820" style="mask-type:luminance" maskUnits="userSpaceOnUse" x="44" y="16" width="11" height="3">
<path d="M53.0081 18.5232H45.9872L44.5742 16.082H54.4211L53.0081 18.5232Z" fill="white"/>
</mask>
<g mask="url(#mask0_3899_40820)">
</g>
<path d="M45.571 10.7812H53.3784C53.4975 10.7812 53.6031 10.8576 53.6404 10.9707L54.9259 14.8654C55.0471 15.2328 54.8476 15.6289 54.4802 15.7501C54.4094 15.7735 54.3353 15.7854 54.2607 15.7854H44.6887C44.3019 15.7854 43.9883 15.4718 43.9883 15.085C43.9883 15.0104 44.0002 14.9363 44.0236 14.8654L45.309 10.9707C45.3463 10.8576 45.4519 10.7812 45.571 10.7812Z" fill="#C2945C"/>
<path fill-rule="evenodd" clip-rule="evenodd" d="M52.5377 12.6348C52.2901 12.6348 52.0692 12.9555 51.9246 13.4569C51.7802 12.9555 51.5593 12.6348 51.3116 12.6348C50.8764 12.6348 50.5234 13.7018 50.5234 15.018H50.8738C50.8738 13.7958 51.0699 12.805 51.3116 12.805C51.5535 12.805 51.7495 13.7197 51.7495 14.8479H52.0998C52.0998 13.7197 52.2958 12.805 52.5377 12.805C52.7795 12.805 52.9756 13.7958 52.9756 15.018H53.3258C53.3258 13.7018 52.973 12.6348 52.5377 12.6348Z" fill="#FFBC0D"/>
<path d="M62.5065 19.0293V19.6299C62.5065 19.9616 62.2376 20.2305 61.9059 20.2305H36.5606C36.2289 20.2305 35.96 19.9616 35.96 19.6299V19.0293C35.6283 19.0293 35.3594 18.7604 35.3594 18.4287C35.3594 18.097 35.6283 17.8281 35.96 17.8281C36.6234 17.8281 37.1612 18.3659 37.1612 19.0293H61.3053C61.3053 18.3659 61.8431 17.8281 62.5065 17.8281C62.8382 17.8281 63.1071 18.097 63.1071 18.4287C63.1071 18.7604 62.8382 19.0293 62.5065 19.0293Z" fill="#461E00"/>
<path d="M38.3522 8.87341C38.4396 8.74229 38.5858 8.66406 38.7434 8.66406C38.8575 8.66406 38.9675 8.70556 39.0533 8.78084L39.2906 8.98919L43.2479 9.41306C43.4115 9.43061 43.5585 9.51866 43.651 9.6547C43.7131 9.74592 43.7832 9.86906 43.8339 10.0162C43.9644 10.0202 44.0877 10.0774 44.1825 10.1783C44.4124 10.4231 44.4058 10.8345 44.3983 10.9547C44.3876 11.1259 44.2606 11.2672 44.0916 11.2962L44.0909 11.2963C44.085 11.2973 44.0516 11.3029 43.9923 11.3117C43.7853 13.212 43.3137 17.6856 43.2245 18.293C43.1353 18.9003 41.7872 18.9152 40.8202 18.9464C39.7395 18.9813 38.1866 18.8624 38.109 18.3286C38.0315 17.7949 37.4369 12.7281 37.2668 11.3072C37.2179 11.2963 37.1913 11.2888 37.1827 11.2862C37.0171 11.2372 36.9076 11.0801 36.9188 10.9077C36.9199 10.8901 36.9312 10.7305 36.9753 10.564C37.1016 10.0872 37.3844 10.016 37.5416 10.016H37.5564L37.6787 9.43471C37.7457 9.11624 38.0268 8.88364 38.3506 8.87591L38.3522 8.87341Z" fill="white"/>
<path fill-rule="evenodd" clip-rule="evenodd" d="M37.2891 10.931C37.2891 10.931 37.3245 10.3851 37.5429 10.3851H37.8577L38.0419 9.5102C38.0769 9.34371 38.2315 9.2301 38.4007 9.24642L38.54 9.25981L38.6612 9.07783C38.6948 9.02742 38.7651 9.01813 38.8106 9.05811L39.136 9.3438L43.2098 9.78011C43.2654 9.78607 43.3151 9.81594 43.3466 9.86212C43.4148 9.96238 43.5237 10.1562 43.5352 10.3851H43.8206C43.9633 10.3851 44.0473 10.6623 44.0305 10.931C44.0305 10.931 42.7586 11.1494 40.643 11.1494C38.0236 11.1494 37.2891 10.931 37.2891 10.931Z" fill="#461E00"/>
<path fill-rule="evenodd" clip-rule="evenodd" d="M37.6367 11.2461C37.6367 11.2461 38.4555 18.0907 38.4804 18.2817C38.5182 18.5715 39.5081 18.6391 40.6288 18.6391C41.7496 18.6391 42.825 18.5211 42.8628 18.2439C42.9006 17.9668 43.6309 11.2524 43.6309 11.2524C43.6309 11.2524 42.718 11.4287 40.5836 11.4287C38.7512 11.4287 37.6367 11.2461 37.6367 11.2461Z" fill="#FFBC0D"/>
<g style="mix-blend-mode:multiply" opacity="0.5">
<path fill-rule="evenodd" clip-rule="evenodd" d="M41.625 18.6041C41.8056 16.8539 42.0282 13.4446 42.1589 11.3917C43.1797 11.34 43.6357 11.252 43.6357 11.252C43.6357 11.252 42.9054 17.9664 42.8676 18.2435C42.8414 18.4355 42.3172 18.5511 41.625 18.6041Z" fill="#D8D8D8"/>
</g>
<path fill-rule="evenodd" clip-rule="evenodd" d="M40.9907 17.104C41.099 17.0959 41.1864 17.5395 41.1864 18.1017C41.2384 18.0949 41.2903 18.087 41.3421 18.078C41.3421 17.4724 41.1857 17.0113 40.9907 17.0257C40.8799 17.0342 40.7808 17.1836 40.716 17.4143C40.6512 17.1836 40.552 17.0342 40.4412 17.0257C40.2463 17.0113 40.0898 17.4723 40.0898 18.078C40.1416 18.087 40.1936 18.0949 40.2456 18.1017C40.2456 17.5395 40.333 17.0959 40.4412 17.104C40.5495 17.1123 40.6375 17.5341 40.6374 18.0531C40.6898 18.0542 40.7422 18.0542 40.7945 18.0531C40.7945 17.5341 40.8825 17.1123 40.9907 17.104Z" fill="#E89700"/>
</g>
<defs>
<clipPath id="clip0_3899_40820">
<rect width="72" height="72" fill="white"/>
</clipPath>
</defs>
</svg>
