<svg width="375" height="225" viewBox="0 0 375 225" fill="none" xmlns="http://www.w3.org/2000/svg">
<g clip-path="url(#clip0_102_69710)">
<path d="M184.5 4C262.096 4 325 66.904 325 144.5C325 163.443 321.249 181.51 314.453 198H54.5469C47.7506 181.51 44 163.443 44 144.5C44 66.904 106.904 4 184.5 4Z" fill="#DCEDF4"/>
<ellipse cx="184" cy="203" rx="153" ry="14" fill="#A0A09F" fill-opacity="0.15"/>
<path d="M316 97V124H264L264.005 97H316Z" fill="#FFBC0D"/>
<path d="M190.926 120H77V97H191L190.926 120Z" fill="#FFBC0D"/>
<path d="M191 99L190.97 108H77V99H191Z" fill="black" fill-opacity="0.1"/>
<path d="M316 99V108H264L264.002 99H316Z" fill="black" fill-opacity="0.1"/>
<path d="M264 124H287V203H264V124Z" fill="#F9F9F9"/>
<path d="M288 124H316V203H288V124Z" fill="#F9F9F9"/>
<path d="M191 89L190.967 98.999L73.8004 99C72.8061 99 72 98.1942 72 97.2002V90.8008C72 89.8068 72.8061 89.001 73.8004 89.001L191 89Z" fill="#FFBC0D"/>
<path d="M318.212 89.001C319.2 89.001 320 89.8068 320 90.8008V97.2002C320 98.1942 319.2 99 318.212 99L264 98.999L264.002 89L318.212 89.001Z" fill="#FFBC0D"/>
<path d="M260.5 74.5234L260.473 202.998H194.569L194.5 74.5234L260.5 74.5234Z" fill="#F1F1F1"/>
<path d="M59.8 124H244.443C245.437 124 246.243 124.806 246.243 125.8V140H58V125.8C58 124.806 58.8059 124 59.8 124Z" fill="#606060"/>
<path d="M195 140H246V203H195V140Z" fill="#D8D8D8"/>
<path d="M109 140H137V203H109V140Z" fill="#F9F9F9"/>
<path d="M138 140H166V203H138V140Z" fill="#F9F9F9"/>
<path d="M167 140H195V203H167V140Z" fill="#F9F9F9"/>
<path d="M218 154H246V203H218V154Z" fill="#F9F9F9"/>
<path d="M58 198H109V204H58V198Z" fill="#A5835B"/>
<path d="M58 192H109V198H58V192Z" fill="#C2945C"/>
<path d="M58 187H109V193H58V187Z" fill="#A5835B"/>
<path d="M58 182H109V188H58V182Z" fill="#C2945C"/>
<path d="M58 177H109V183H58V177Z" fill="#A5835B"/>
<path d="M58 171H109V177H58V171Z" fill="#C2945C"/>
<path d="M58 166H109V172H58V166Z" fill="#A5835B"/>
<path d="M58 161H109V167H58V161Z" fill="#C2945C"/>
<path d="M58 156H109V162H58V156Z" fill="#A5835B"/>
<path d="M58 150H109V156H58V150Z" fill="#C2945C"/>
<path d="M58 145H109V151H58V145Z" fill="#A5835B"/>
<path d="M58 140H109V146H58V140Z" fill="#C2945C"/>
<path d="M136 140H140V203H136V140Z" fill="#D8D8D8"/>
<path d="M286 124H290V203H286V124Z" fill="#D8D8D8"/>
<path d="M312 124H316V203H312V124Z" fill="#D8D8D8"/>
<path d="M165 140H169V203H165V140Z" fill="#D8D8D8"/>
<path d="M218 154H246V160H218V154Z" fill="#A0A09F" fill-opacity="0.15"/>
<path d="M195 140H246V143H195V140Z" fill="#292929" fill-opacity="0.1"/>
<path d="M165 140H169V146H165V140Z" fill="#292929" fill-opacity="0.1"/>
<path d="M136 140H140V146H136V140Z" fill="#292929" fill-opacity="0.1"/>
<path d="M109 140H136V145H109V140Z" fill="#A0A09F" fill-opacity="0.15"/>
<path d="M140 140H165V145H140V140Z" fill="#A0A09F" fill-opacity="0.15"/>
<path d="M169 140H195V145H169V140Z" fill="#A0A09F" fill-opacity="0.15"/>
<path fill-rule="evenodd" clip-rule="evenodd" d="M236.023 86.7959C239.143 86.7959 241.672 99.9528 241.672 116.182H246.195C246.195 98.703 241.64 84.5352 236.023 84.5352C232.826 84.5352 229.975 88.7942 228.111 95.4522C226.247 88.7942 223.396 84.5352 220.2 84.5352C214.584 84.5352 210.027 98.703 210.027 116.182H214.55C214.55 99.9528 217.08 86.7959 220.2 86.7959C223.32 86.7959 225.85 98.9404 225.85 113.921H230.372C230.372 98.9404 232.902 86.7959 236.023 86.7959Z" fill="#FFBC0D"/>
<rect x="63" y="33" width="6" height="170" fill="#F9F9F9"/>
<rect x="66" y="33" width="3" height="170" fill="#F1F1F1"/>
<path d="M66 26C68.2091 26 70 27.7909 70 30C70 31.195 69.4754 32.267 68.6445 33H63.3555C62.5246 32.267 62 31.195 62 30C62 27.7909 63.7909 26 66 26Z" fill="#FFBC0D"/>
<path opacity="0.5" d="M66 26C67.3598 26 68.5605 26.6789 69.2832 27.7158C68.6357 27.2648 67.8489 27 67 27C64.7909 27 63 28.7909 63 31C63 31.8496 63.2659 32.6366 63.7178 33.2842C62.6799 32.5616 62 31.3605 62 30C62 27.7909 63.7909 26 66 26Z" fill="#F9F9F9"/>
<g clip-path="url(#clip1_102_69710)">
<path d="M69 33H124.323V69.8813H69V33Z" fill="#496E2D"/>
<path d="M107.596 43.6273C108.503 41.0985 107.484 38.3481 105.297 36.9782C105.698 37.0301 106.092 37.1251 106.473 37.2614C109.39 38.3082 110.907 41.5217 109.86 44.4395C108.813 47.3572 105.6 48.8737 102.682 47.8269C102.301 47.6901 101.937 47.5128 101.594 47.298C104.153 47.6312 106.689 46.1563 107.596 43.6273ZM102.564 36.2852L101.775 37.3038L100.563 36.8687L101.288 37.9333L100.5 38.9519L101.736 38.5912L102.462 39.6558L102.501 38.3684L103.737 38.0076L102.525 37.5727L102.564 36.2852Z" fill="white"/>
<path d="M104.693 39.6027L103.904 40.6213L102.692 40.1863L103.417 41.2508L102.629 42.2694L103.865 41.9086L104.59 42.9733L104.629 41.6858L105.866 41.3249L104.653 40.8901L104.693 39.6027ZM98.8104 37.4922L98.0221 38.5108L96.8098 38.076L97.535 39.1404L96.7466 40.1589L97.983 39.7983L98.7083 40.8628L98.7473 39.5753L99.9839 39.2148L98.7714 38.7796L98.8104 37.4922ZM98.7241 41.2945L97.9357 42.3131L96.7233 41.8781L97.4485 42.9426L96.6602 43.9612L97.8967 43.6005L98.6219 44.6651L98.661 43.3776L99.8974 43.0169L98.6851 42.5819L98.7241 41.2945ZM102.342 42.5925L101.554 43.6111L100.341 43.1761L101.067 44.2407L100.278 45.2592L101.515 44.8986L102.24 45.9631L102.279 44.6757L103.515 44.315L102.303 43.8801L102.342 42.5925Z" fill="white"/>
<path d="M78.0195 33H87.6409V69.8813H78.0195V33Z" fill="#D80027"/>
<path d="M81.6929 42.7101L80.082 41.5102V39.8132L81.6929 38.6133H83.9711L85.5819 39.8132V41.5102L83.9711 42.7101H81.6929Z" fill="white"/>
<path d="M82.832 38.6133H81.6929L80.082 39.8132V40.6428H82.832V38.6133ZM82.832 42.7101H83.9711L85.5819 41.5102V40.6445H82.832V42.7101Z" fill="#FF9811"/>
<path d="M81.6929 64.2687L80.082 63.0687V61.3718L81.6929 60.1719H83.9711L85.5819 61.3718V63.0687L83.9711 64.2687H81.6929Z" fill="white"/>
<path d="M82.832 60.1719H81.6929L80.082 61.3718V62.2014H82.832V60.1719ZM82.832 64.2687H83.9711L85.5819 63.0687V62.2031H82.832V64.2687Z" fill="#FF9811"/>
<path d="M81.6906 53.4908L80.0797 52.2908V50.5941L81.6906 49.394H83.9688L85.5796 50.5941V52.2908L83.9688 53.4908H81.6906ZM85.6359 56.1309H84.9343V55.4293H83.7013L82.8296 54.5576L81.9579 55.4293H80.725V56.1309H80.0234V57.5341H80.725V58.2356H81.9579L82.8297 59.1075L83.7014 58.2356H84.9343V57.5341H85.6359V56.1309ZM85.6359 45.3507H84.9343V44.6492H83.7013L82.8296 43.7773L81.9579 44.6492H80.725V45.3507H80.0234V46.7539H80.725V47.4554H81.9579L82.8297 48.3273L83.7014 47.4554H84.9343V46.7539H85.6359V45.3507Z" fill="#496E2D"/>
<path d="M82.0273 50.6406H83.6308V52.2441H82.0273V50.6406Z" fill="#D80027"/>
<path d="M82.8292 46.8537C83.272 46.8537 83.6311 46.4947 83.6311 46.0519C83.6311 45.609 83.272 45.25 82.8292 45.25C82.3863 45.25 82.0273 45.609 82.0273 46.0519C82.0273 46.4947 82.3863 46.8537 82.8292 46.8537Z" fill="#D80027"/>
<path d="M82.8292 57.635C83.2721 57.635 83.6311 57.276 83.6311 56.8331C83.6311 56.3903 83.2721 56.0312 82.8292 56.0312C82.3863 56.0312 82.0273 56.3903 82.0273 56.8331C82.0273 57.276 82.3863 57.635 82.8292 57.635Z" fill="#D80027"/>
</g>
<path d="M67.8158 205.5L68.7364 205.494C75.9374 205.404 81.6316 204.137 81.6316 196.816C81.6316 189.186 75.446 183 67.8158 183C60.1855 183 54 189.186 54 196.816C54 204.446 60.1855 205.5 67.8158 205.5Z" fill="#9CC93A"/>
<path d="M98.8158 205.5L99.7364 205.494C106.937 205.404 112.632 204.137 112.632 196.816C112.632 189.186 106.446 183 98.8158 183C91.1855 183 85 189.186 85 196.816C85 204.446 91.1855 205.5 98.8158 205.5Z" fill="#9CC93A"/>
<path d="M128.816 205.5L129.736 205.494C136.937 205.404 142.632 204.137 142.632 196.816C142.632 189.186 136.446 183 128.816 183C121.186 183 115 189.186 115 196.816C115 204.446 121.186 205.5 128.816 205.5Z" fill="#9CC93A"/>
<path d="M253.561 29.8555C255.088 29.8555 256.327 31.0943 256.327 32.6221C256.327 34.0685 255.217 35.2538 253.802 35.376C254.09 36.0127 254.252 36.7186 254.252 37.4629C254.252 40.2639 251.982 42.5342 249.181 42.5342H257.94C260.741 42.5342 263.013 44.8055 263.013 47.6064H269.929C272.729 47.6066 275 49.8769 275 52.6777C275 55.4786 272.73 57.7498 269.929 57.75H262.332C261.455 59.2653 259.817 60.2852 257.94 60.2852H215.523C213.647 60.2852 212.009 59.2653 211.132 57.75H206.071C203.27 57.7498 201 55.4786 201 52.6777C201 49.8769 203.271 47.6066 206.071 47.6064H210.452C210.452 44.8055 212.722 42.5342 215.523 42.5342H221.748C221.748 39.7334 224.018 37.4629 226.819 37.4629H235.349C235.349 34.6619 237.62 32.3916 240.421 32.3916H249.181C249.746 32.3916 250.288 32.4849 250.796 32.6553C250.796 32.6442 250.795 32.6332 250.795 32.6221C250.795 31.0943 252.033 29.8556 253.561 29.8555Z" fill="white"/>
<path d="M140.047 2C143.684 2 146.634 4.94858 146.634 8.58594C146.634 8.65081 146.631 8.71586 146.629 8.78027H148.184C150.537 8.78048 152.445 10.6884 152.445 13.042H155.738C158.092 13.042 160 14.95 160 17.3037C160 19.6574 158.092 21.5654 155.738 21.5654H153.229C152.493 22.8389 151.116 23.6963 149.539 23.6963H133.461C131.884 23.6963 130.507 22.8389 129.771 21.5654H127.262C124.908 21.5654 123 19.6574 123 17.3037C123 14.95 124.908 13.042 127.262 13.042H127.843C127.843 10.6883 129.751 8.78037 132.104 8.78027H133.466C133.464 8.71585 133.461 8.65081 133.461 8.58594C133.461 4.94867 136.41 2.00015 140.047 2Z" fill="white"/>
</g>
<defs>
<clipPath id="clip0_102_69710">
<rect width="375" height="225" fill="white"/>
</clipPath>
<clipPath id="clip1_102_69710">
<rect width="55.3231" height="36.882" fill="white" transform="translate(69 33)"/>
</clipPath>
</defs>
</svg>
