<svg width="27" height="18" viewBox="0 0 27 18" fill="none" xmlns="http://www.w3.org/2000/svg">
<g clip-path="url(#clip0_109_43680)">
<path d="M0 0H27V18H0V0Z" fill="#0052B4"/>
<path d="M0 9H13.5V0H27V18H0V9Z" fill="#00B2EE"/>
<path d="M10.3607 14.4261L11.2427 17.1441L8.92969 15.4641H11.7917L9.47869 17.1441L10.3607 14.4261ZM21.1937 10.1991L22.0757 12.9171L19.7627 11.2371H22.6217L20.3087 12.9171L21.1937 10.1991ZM24.3857 7.8441L25.2677 10.5621L22.9547 8.8821H25.8137L23.5007 10.5621L24.3857 7.8441ZM24.3857 1.12109L25.2677 3.8391L22.9547 2.15909H25.8137L23.5007 3.8391L24.3857 1.12109Z" fill="#FFDA44"/>
<path d="M13.497 0V6.189H11.067L13.497 7.809V9H12.306L8.436 6.423V9H5.061V6.423L1.191 9H0V7.809L2.43 6.189H0V2.814H2.43L0 1.197V0H1.191L5.061 2.577V0H8.436V2.577L12.306 0H13.497Z" fill="white"/>
<path d="M7.593 0H5.904V3.66H0V5.346H5.904V9H7.593V5.346H13.497V3.66H7.593V0Z" fill="#D80027"/>
<path d="M13.4964 1.19531V2.81231H11.0664L13.4964 1.19531Z" fill="#2E52B2"/>
<path d="M0 9.0009V8.4219L3.297 6.1899H4.488L0.384 9.0009H0ZM0.384 0.00390625L4.488 2.81491H3.297L0 0.582906V0.00390625H0.384ZM13.497 0.00690625V0.585906L10.2 2.81491H9.009L13.113 0.00690625H13.497ZM13.113 9.0009L9.009 6.1899H10.2L13.497 8.4219V9.0009H13.113Z" fill="#D80027"/>
<path d="M21.5989 3.94922L22.4809 6.66722L20.1679 4.98722H23.0269L20.7139 6.66722L21.5989 3.94922ZM17.5219 5.63222L18.4039 8.35022L16.0909 6.67022H18.9499L16.6369 8.35022L17.5219 5.63222ZM18.4219 12.9192L19.3039 15.6372L16.9909 13.9572H19.8499L17.5369 15.6372L18.4219 12.9192ZM14.6419 9.96122L15.5239 12.6792L13.2109 10.9992H16.0699L13.7569 12.6792L14.6419 9.96122ZM14.6419 13.9212L15.5239 16.6392L13.2109 14.9592H16.0699L13.7569 16.6392L14.6419 13.9212Z" fill="#FFDA44"/>
</g>
<rect x="0.5" y="0.5" width="26" height="17" rx="0.5" stroke="black" stroke-opacity="0.2"/>
<defs>
<clipPath id="clip0_109_43680">
<rect width="27" height="18" rx="1" fill="white"/>
</clipPath>
</defs>
</svg>
