<svg width="27" height="18" viewBox="0 0 27 18" fill="none" xmlns="http://www.w3.org/2000/svg">
<g clip-path="url(#clip0_109_43709)">
<path d="M0 0H27.0053V18H0V0Z" fill="#10338C"/>
<path d="M5.25781 0H23.2578V18" fill="#F6C500"/>
<path d="M1.04688 1.11053L2.12056 0.326316L3.20477 1.10526L2.84161 0H1.40477L1.04688 1.11053Z" fill="white"/>
<path d="M4.85711 1.344L4.44132 0.0703125L4.0308 1.344H2.69922L3.77817 2.12294L3.36764 3.3861L4.44132 2.60716L5.52553 3.3861L5.10974 2.12294L6.18869 1.33873L4.85711 1.344Z" fill="white"/>
<path d="M7.17471 3.64206L6.76418 2.37891L6.35366 3.64206H5.02734L6.10103 4.42627L5.6905 5.68943L6.76418 4.91048L7.84839 5.68943L7.43787 4.42627L8.51155 3.64206H7.17471Z" fill="white"/>
<path d="M9.44168 5.90905L9.03116 4.64062L8.62064 5.90905H7.28906L8.36801 6.69326L7.95748 7.95641L9.03116 7.17747L10.1154 7.95641L9.69958 6.69326L10.7785 5.90378L9.44168 5.90905Z" fill="white"/>
<path d="M11.7087 8.17331L11.2982 6.91016L10.8876 8.17331H9.55078L10.635 8.96279L10.2245 10.2259L11.2982 9.44173L12.3718 10.2259L11.9613 8.96279L13.0455 8.17331H11.7087Z" fill="white"/>
<path d="M13.9782 10.4428L13.5677 9.17969L13.1572 10.4428H11.8203L12.9045 11.227L12.494 12.4955L13.5677 11.7113L14.6414 12.4955L14.2308 11.2218L15.3098 10.4428H13.9782Z" fill="white"/>
<path d="M16.2477 12.7085L15.8319 11.4453L15.4214 12.7085H14.0898L15.1688 13.4874L14.753 14.7611L15.8372 13.9769L16.9109 14.7558L16.5004 13.4874L17.5793 12.7085H16.2477Z" fill="white"/>
<path d="M18.5081 14.9807L18.0976 13.707L17.687 14.9807H16.3555L17.4292 15.7597L17.0186 17.0281L18.0976 16.2439L19.1765 17.0281L18.766 15.7597L19.8397 14.9807H18.5081Z" fill="white"/>
<path d="M20.3685 15.9727L19.9527 17.2411L18.6211 17.2463L19.6632 17.999H21.0632L22.1106 17.2411H20.779L20.3685 15.9727Z" fill="white"/>
</g>
<rect x="0.5" y="0.5" width="26" height="17" rx="0.5" stroke="black" stroke-opacity="0.2"/>
<defs>
<clipPath id="clip0_109_43709">
<rect width="27" height="18" rx="1" fill="white"/>
</clipPath>
</defs>
</svg>
