<svg width="27" height="18" viewBox="0 0 27 18" fill="none" xmlns="http://www.w3.org/2000/svg">
<g clip-path="url(#clip0_109_43826)">
<path d="M0 0H27V6H0V0Z" fill="#20AA46"/>
<path d="M0 12H27V18H0V12Z" fill="#E92F3B"/>
<path d="M0 6H27V12H0V6Z" fill="#FADF50"/>
<path d="M13.5603 15.2417C17.0066 15.2417 19.8003 12.448 19.8003 9.00172C19.8003 5.55546 17.0066 2.76172 13.5603 2.76172C10.1141 2.76172 7.32031 5.55546 7.32031 9.00172C7.32031 12.448 10.1141 15.2417 13.5603 15.2417Z" fill="#205CCA"/>
<path d="M13.1977 10.798L15.1177 9.47797M13.5577 10.558L11.0377 12.358L11.9977 9.47797L9.59766 7.67797H12.5977L13.5577 4.91797L14.5177 7.67797H17.6377L15.1177 9.47797L16.0777 12.358L13.5577 10.558V10.558ZM12.3577 7.67797H14.6377H12.3577ZM11.8777 9.35797L13.4377 10.558L11.8777 9.35797ZM14.3977 7.43797L15.2377 9.59797L14.3977 7.43797ZM11.9977 9.47797L12.7177 7.31797L11.9977 9.47797Z" stroke="#FFDB3D" stroke-width="0.5"/>
<path d="M18.5995 10.7986L16.4395 9.9586M10.4395 4.67859L11.7595 6.5986L10.4395 4.67859ZM16.5595 4.55859L15.3595 6.4786L16.5595 4.55859ZM13.5595 12.1186V14.3986V12.1186ZM10.6795 9.9586L8.51953 10.7986L10.6795 9.9586Z" stroke="#FFDB3D" stroke-width="0.25"/>
</g>
<rect x="0.5" y="0.5" width="26" height="17" rx="0.5" stroke="black" stroke-opacity="0.2"/>
<defs>
<clipPath id="clip0_109_43826">
<rect width="27" height="18" rx="1" fill="white"/>
</clipPath>
</defs>
</svg>
