<svg width="27" height="18" viewBox="0 0 27 18" fill="none" xmlns="http://www.w3.org/2000/svg">
<g clip-path="url(#clip0_109_43816)">
<path d="M0 0H27V18H0V0Z" fill="#0052B4"/>
<path d="M13.5 0V1.61383L11.1164 2.93759H13.5V6.06505H10.3834L13.5 7.7949V9.00264H12.092L8.21602 6.84559V9.00264H5.28398V6.4395L0.669727 9.00264H0V7.38881L2.38359 6.06505H0V2.93759H3.1166L0 1.20246V0H1.40801L5.28398 2.15177V0H8.21602V2.56314L12.8303 0H13.5Z" fill="white"/>
<path d="M7.59375 0H5.90625V3.65485H0V5.34251H5.90625V9.00264H7.59375V5.34251H13.5V3.65485H7.59375V0Z" fill="#D80027"/>
<path d="M8.21484 6.06641L13.4988 9.004V8.17071L9.7125 6.06641H8.21484Z" fill="#0052B4"/>
<path d="M8.21484 6.06641L13.4988 9.004V8.17071L9.7125 6.06641H8.21484Z" fill="white"/>
<path d="M8.21602 6.06641L13.5 9.004V8.17071L9.71367 6.06641H8.21602ZM3.78633 6.06641L0 8.17071V9.004L5.28398 6.06641H3.78633Z" fill="#D80027"/>
<path d="M5.28398 2.93231L0 0V0.828009L3.78633 2.93231H5.28398Z" fill="#0052B4"/>
<path d="M5.28398 2.93231L0 0V0.828009L3.78633 2.93231H5.28398Z" fill="white"/>
<path d="M5.28398 2.93231L0 0V0.828009L3.78633 2.93231H5.28398ZM9.71367 2.93231L13.5 0.828009V0L8.21602 2.93231H9.71367Z" fill="#D80027"/>
<path d="M16.4648 10.241V5.49442C16.4648 5.04613 16.8076 4.6875 17.2559 4.6875H23.6104C24.048 4.6875 24.4014 5.04613 24.4014 5.49442V10.241C24.4014 14.207 20.4357 15.7945 20.4357 15.7945C20.4357 15.7945 16.4648 14.207 16.4648 10.241Z" fill="#1F8BDE"/>
<path d="M16.4648 10.241V5.49442C16.4648 5.04613 16.8076 4.6875 17.2559 4.6875H23.6104C24.048 4.6875 24.4014 5.04613 24.4014 5.49442V10.241C24.4014 14.207 20.4357 15.7945 20.4357 15.7945C20.4357 15.7945 16.4648 14.207 16.4648 10.241ZM20.6625 14.7924C21.0791 14.5551 21.501 14.265 21.8859 13.9116C22.967 12.936 23.6051 11.7282 23.6051 10.2357V5.48914C23.6051 5.47332 17.2559 5.47332 17.2559 5.47332V10.2357C17.2559 11.7282 17.8939 12.936 18.975 13.9116C19.4127 14.3072 19.9031 14.6447 20.4305 14.9137C20.5043 14.8821 20.5781 14.8399 20.6625 14.7924Z" fill="white"/>
<path d="M18.3054 10.1995C18.1683 9.78284 18.3951 9.44531 18.838 9.44531H22.0285C22.4609 9.44531 22.7035 9.77757 22.5611 10.1995L22.271 11.0697C22.1339 11.4863 21.8017 11.5549 21.4378 11.2806C21.4378 11.2806 21.575 11.0275 20.4306 11.0275C19.2863 11.0275 19.4234 11.2806 19.4234 11.2806C19.1017 11.5813 18.7326 11.4916 18.5902 11.0697C18.5955 11.075 18.3054 10.1995 18.3054 10.1995Z" fill="#187536"/>
<path d="M18.8472 9.44445C19.2743 9.52884 19.7859 8.65336 20.4345 8.65336C21.1253 8.65336 21.5841 9.55521 22.0218 9.44445C22.412 9.34952 22.8128 8.27363 22.8128 7.85699C22.8128 6.98152 21.7476 6.26953 20.4345 6.26953C19.1214 6.26953 18.0562 6.98152 18.0562 7.85699C18.0509 8.30528 18.4042 9.36007 18.8472 9.44445ZM18.7734 14.2754C19.1003 14.2965 19.4326 14.1805 19.6804 13.9326L20.155 13.4579C20.3079 13.305 20.5505 13.305 20.7035 13.4579L21.1781 13.9326C21.4259 14.1805 21.7581 14.2965 22.0798 14.2754C22.3593 14.2596 23.7937 12.5086 23.4351 12.5561C23.1925 12.5877 22.9552 12.7038 22.7654 12.8883L22.7601 12.8936L22.2855 13.3683C22.1326 13.5212 21.89 13.5212 21.737 13.3683L21.2624 12.8936C20.8036 12.4295 20.0548 12.4295 19.5908 12.8883L19.5855 12.8936L19.1109 13.3683C18.9579 13.5212 18.7154 13.5212 18.5624 13.3683L18.0878 12.8936C17.9033 12.709 17.6765 12.5983 17.4392 12.5614C17.0859 12.5033 18.4992 14.2596 18.7734 14.2754ZM16.9857 11.0741C17.1386 10.9212 17.3812 10.9212 17.5341 11.0741L18.0087 11.5488C18.4728 12.0076 19.2163 12.0076 19.6804 11.5488L20.155 11.0741C20.3079 10.9212 20.5505 10.9212 20.7035 11.0741L21.1781 11.5488C21.6421 12.0076 22.3857 12.0076 22.8497 11.5488L23.3243 11.0741C23.4773 10.9212 23.7199 10.9212 23.8728 11.0741C23.8728 11.0741 24.1628 10.2936 24.0046 10.2355C23.588 10.0826 23.0976 10.1723 22.7654 10.5098L22.7601 10.5151L22.2855 10.9897C22.1326 11.1427 21.89 11.1427 21.737 10.9897L21.2624 10.5151C20.8036 10.051 20.0548 10.051 19.5908 10.5098L19.5855 10.5151L19.1109 10.9897C18.9579 11.1427 18.7154 11.1427 18.5624 10.9897L18.0878 10.5151C17.7609 10.1881 17.2915 10.0931 16.8855 10.225C16.722 10.283 16.9857 11.0741 16.9857 11.0741Z" fill="white"/>
</g>
<rect x="0.5" y="0.5" width="26" height="17" rx="0.5" stroke="black" stroke-opacity="0.2"/>
<defs>
<clipPath id="clip0_109_43816">
<rect width="27" height="18" rx="1" fill="white"/>
</clipPath>
</defs>
</svg>
