<svg width="136" height="136" viewBox="0 0 136 136" fill="none" xmlns="http://www.w3.org/2000/svg">
<ellipse cx="66.2599" cy="118.334" rx="50.5724" ry="7.73081" fill="#A0A09F" fill-opacity="0.15"/>
<path d="M22.693 112.971L8.59501 33.2388C8.46337 32.4914 8.97346 31.7659 9.71448 31.6353L9.71544 31.6351L59.3586 22.858C60.1035 22.7268 60.8292 23.2354 60.9603 23.9787L60.9605 23.9797L75.0594 103.712C75.1908 104.459 74.6806 105.183 73.9398 105.314L73.9388 105.314L24.2947 114.092C23.55 114.222 22.8244 113.715 22.6932 112.972L22.693 112.971Z" fill="white" stroke="#D8D8D8" stroke-width="4.05004"/>
<path d="M26.3193 98.3461C25.3872 98.5105 24.4831 97.8017 24.3001 96.7633C24.1171 95.7248 24.7245 94.7496 25.6566 94.5853L64.721 87.6981C65.6531 87.5338 66.5572 88.2426 66.7402 89.281C66.9232 90.3195 66.3158 91.2947 65.3837 91.459L26.3193 98.3461Z" fill="#F1F1F1"/>
<path d="M26.9919 105.012C26.329 105.129 25.6433 104.382 25.4603 103.343C25.2773 102.305 25.6663 101.368 26.3291 101.251L54.1083 96.3539C54.7712 96.237 55.4569 96.9842 55.6399 98.0226C55.8229 99.061 55.4339 99.9977 54.7711 100.115L26.9919 105.012Z" fill="#F1F1F1"/>
<path fill-rule="evenodd" clip-rule="evenodd" d="M54.351 53.2415L54.3877 53.4421C54.4786 53.9634 54.5383 54.5697 54.1399 54.9033L54.3579 56.0725C54.6427 56.2194 54.7812 56.4906 54.867 56.9502L55.07 58.0381C55.1029 58.2144 55.1052 58.3765 55.0811 58.5248C55.2842 58.4661 55.5006 58.5073 55.8297 58.733C56.2974 59.0541 56.1759 59.267 55.7422 59.4476C55.9076 59.5489 56.0651 59.7053 56.2066 59.9439L56.2368 59.9963C56.5826 60.6191 57.2819 60.6697 58.3346 60.1481C57.7346 61.3879 57.1166 61.9711 56.4809 61.8981L56.5237 62.1274C56.6929 63.034 56.2383 63.9108 55.4655 64.3062C56.1372 64.4116 56.7026 64.9354 56.8361 65.6505L56.9282 66.2136L56.9407 66.2112L57.2231 67.724C57.404 67.7582 57.5466 67.8686 57.6289 68.0959C57.7259 68.3641 57.6166 68.5456 57.3998 68.6696L57.4389 68.8803C57.7152 69.22 57.9148 69.609 58.0286 69.8053L58.0748 69.8835C58.2641 70.1976 58.169 69.9575 57.9065 69.9771C57.6248 69.9982 57.4747 69.8367 57.1441 69.8717L57.107 69.8762L57.1676 70.2008C57.4538 71.7343 56.5715 73.2363 55.1126 73.7155L55.0575 73.7329C51.2502 74.905 47.2912 75.8746 43.1803 76.6418C38.9419 77.433 34.4641 78.0236 29.747 78.4135C28.1968 78.5417 26.7954 77.4763 26.4796 75.9403L26.4684 75.8832L26.2933 74.9453L26.1956 74.9677C25.8525 75.0501 25.5659 75.1534 25.6226 74.9611C25.6897 74.7335 25.9857 74.3591 26.3852 74.0797C26.296 74.063 26.2905 74.0053 26.2557 73.8188C26.2062 73.5535 26.3607 73.3757 26.5937 73.318L26.4536 72.567L26.4439 72.569L26.1455 71.379C25.9833 70.51 26.5179 69.6745 27.351 69.4624C26.6502 69.2946 26.0646 68.7505 25.8674 68.0075C25.8403 68.0147 25.8121 68.0227 25.7831 68.0313L25.7138 68.0524C24.7009 68.3745 23.8149 68.1589 23.4572 67.3836L23.407 67.2721C23.2757 66.9901 22.8456 66.09 23.1614 66.4317C23.5123 66.8112 24.0244 66.0261 24.3795 65.982C24.9183 65.9155 25.0987 65.7072 25.1867 65.4305C23.9415 65.5792 24.6246 64.4611 24.836 64.3437L24.8525 64.335C24.8901 64.3156 24.9317 64.2993 24.9834 64.2851C24.5883 63.8623 24.3385 63.2368 24.4564 62.6263L24.4846 62.4852C24.5694 62.075 24.6601 61.7832 24.8313 61.5636L24.6311 60.4907C23.9963 60.3978 23.9698 59.6934 23.8867 59.2771C22.8223 53.5376 30.2299 48.6415 37.6089 47.1102L37.8359 47.0642C45.2949 45.5881 53.3007 47.6143 54.351 53.2415Z" fill="white"/>
<path fill-rule="evenodd" clip-rule="evenodd" d="M37.4381 46.2676L37.6691 46.2208C46.1417 44.5441 54.0865 47.2022 55.1845 53.085L55.223 53.2955C55.2933 53.6982 55.3211 54.0063 55.292 54.3246C55.265 54.6213 55.1863 54.8949 55.0457 55.1352L55.1292 55.5822L55.1733 55.6262C55.4356 55.8988 55.5937 56.2638 55.688 56.7292L55.7005 56.7936L55.8856 57.785L55.9323 57.8064C56.037 57.8558 56.1428 57.9159 56.2501 57.9864L56.3037 58.0225C56.9293 58.4517 57.0981 59.001 56.9114 59.4674L56.9399 59.5145L56.9758 59.5775C57.002 59.6247 57.0104 59.6362 57.0453 59.6412L57.0771 59.6442C57.2535 59.657 57.5541 59.5761 57.9581 59.376C58.6841 59.0163 59.4522 59.7932 59.0968 60.5273C58.6029 61.5477 58.0528 62.2518 57.4149 62.5702L57.4064 62.5744L57.4045 62.631C57.3821 63.1644 57.2133 63.6744 56.9267 64.1076L56.9218 64.1148L56.946 64.1381C57.2978 64.4812 57.5518 64.929 57.6584 65.4373L57.6696 65.4939L57.7411 65.9295L57.7473 65.9478C57.7547 65.9709 57.7611 65.9943 57.7667 66.0184L57.7743 66.0547L57.9802 67.1579C58.1646 67.3087 58.3099 67.5102 58.4066 67.7537L58.4253 67.803C58.5497 68.1467 58.5389 68.4747 58.4218 68.7571L58.4119 68.7797L58.4578 68.8521L58.5117 68.94L58.5656 69.0308C58.6129 69.1117 58.7176 69.298 58.7479 69.3518C58.7528 69.3606 58.7558 69.3658 58.7561 69.3665L58.7985 69.4381C58.8152 69.4657 58.8298 69.4892 58.8449 69.5129L58.8786 69.5657L58.8954 69.5929C58.9074 69.6131 58.92 69.636 58.9332 69.6631C58.9475 69.6926 58.9534 69.7049 58.9631 69.7328L58.9944 69.8283C59.0079 69.885 59.012 69.9024 59.0162 69.9535L59.0224 70.048C59.0154 70.1987 59.0143 70.2237 58.9509 70.3756L58.9047 70.4842C58.729 70.7107 58.7121 70.7322 58.5229 70.824L58.4572 70.8556L58.457 70.8557C58.2797 70.8987 58.2483 70.9063 58.1676 70.9039L58.107 70.9011L58.0678 70.8944L58.0673 70.9205C58.0116 72.5271 56.9871 73.974 55.4301 74.5133L55.37 74.5336L55.3076 74.5533C51.4692 75.7348 47.4792 76.7121 43.3375 77.4852C39.0703 78.2816 34.5643 78.8758 29.8194 79.2682C27.8428 79.4317 26.052 78.0742 25.6467 76.1029L25.634 76.038L25.6124 75.9221L25.5898 75.9197C25.0587 75.8534 24.6344 75.3807 24.798 74.7503L24.8088 74.7115C24.8927 74.4269 25.0926 74.1197 25.3564 73.8405L25.3994 73.796C25.38 73.4742 25.475 73.1838 25.6508 72.9549L25.6603 72.943L25.6429 72.8497L25.6308 72.8121L25.6208 72.7757L25.3225 71.5857C25.3182 71.5685 25.3143 71.551 25.3111 71.5336C25.1752 70.8054 25.3627 70.0897 25.7741 69.5417L25.7883 69.523L25.7243 69.4562C25.6094 69.3322 25.5051 69.198 25.4128 69.0546L25.3849 69.0104L25.3578 69.0148C24.2116 69.1876 23.1966 68.7829 22.7099 67.7887L22.6848 67.7359L22.6389 67.6339L22.5294 67.3984L22.4652 67.2568L22.4171 67.1475C22.3248 66.9351 22.2644 66.7757 22.2307 66.6346C22.2082 66.5402 22.1955 66.4514 22.1995 66.3434C22.2039 66.2241 22.2283 66.1037 22.292 65.9753C22.401 65.7554 22.6005 65.5833 22.8572 65.5205C23.0545 65.4723 23.2302 65.497 23.3863 65.56L23.4033 65.5673L23.4878 65.5022C23.5135 65.4824 23.5356 65.4657 23.5556 65.4508L23.6113 65.4105L23.6429 65.3885L23.6295 65.3262C23.6048 65.1939 23.6006 65.0501 23.6196 64.897L23.6257 64.8529C23.6593 64.6302 23.7493 64.3932 23.8735 64.1809L23.8791 64.1712L23.8595 64.1316C23.6182 63.6317 23.5206 63.0681 23.6125 62.5158L23.624 62.4521L23.6534 62.305C23.7311 61.9291 23.8146 61.642 23.9348 61.3958L23.936 61.3931L23.8841 61.1138L23.8765 61.1091C23.5214 60.8798 23.2985 60.5078 23.1748 60.0506L23.1619 60.0013C23.1398 59.9137 23.1242 59.8398 23.1062 59.74L23.076 59.5642L23.0357 59.339C22.5138 56.3055 24.0259 53.3847 27.0498 50.9429C29.7462 48.7654 33.5369 47.0772 37.4381 46.2676ZM54.3873 53.4412L54.3505 53.2406C53.3002 47.6134 45.2945 45.5871 37.8354 47.0632L37.6084 47.1093C30.2295 48.6405 22.8218 53.5365 23.8863 59.2763C23.897 59.3298 23.9067 59.3879 23.9169 59.4491C23.9862 59.8633 24.0775 60.4087 24.6306 60.4896L24.8308 61.5627C24.6597 61.7823 24.569 62.0741 24.4841 62.4843L24.456 62.6255C24.338 63.2357 24.5879 63.8614 24.9829 64.2842C24.9312 64.2984 24.8896 64.3147 24.852 64.3342L24.8355 64.3428C24.6242 64.4602 23.941 65.5782 25.1862 65.4296C25.0983 65.7064 24.9178 65.9146 24.3791 65.9811C24.2465 65.9974 24.092 66.1173 23.9322 66.2411C23.664 66.4491 23.3808 66.6687 23.161 66.4308L23.1304 66.3993C22.8903 66.1664 23.2338 66.9016 23.381 67.2165L23.3917 67.2393L23.4568 67.3827C23.8144 68.1581 24.7004 68.3736 25.7133 68.0516L25.7827 68.0302C25.8116 68.0217 25.8398 68.0138 25.867 68.0066C26.0642 68.7496 26.6497 69.2937 27.3506 69.4615C26.5175 69.6736 25.9829 70.5089 26.1451 71.3779L26.4434 72.568L26.4531 72.5661L26.5933 73.3171C26.3603 73.3748 26.2057 73.5525 26.2553 73.8179C26.2572 73.8285 26.2591 73.8387 26.261 73.8486C26.291 74.0107 26.3006 74.0631 26.3848 74.0788C25.9852 74.3582 25.6893 74.7326 25.6221 74.9601C25.5814 75.0984 25.718 75.0839 25.9254 75.0341L26.1951 74.9667L26.2929 74.9444L26.468 75.8823L26.4791 75.9392C26.795 77.4755 28.1963 78.5409 29.7465 78.4126C34.4636 78.0226 38.9414 77.4321 43.1799 76.641C47.2907 75.8737 51.2498 74.9041 55.0571 73.732L55.1122 73.7146C56.571 73.2353 57.4533 71.7335 57.1671 70.1998L57.1065 69.8753L57.1437 69.8708C57.3188 69.8522 57.4432 69.8889 57.5636 69.9243C57.6703 69.9558 57.7736 69.9861 57.9061 69.9762L57.9275 69.9752C58.0404 69.9726 58.1193 70.0172 58.1538 70.0366C58.1754 70.0488 58.1798 70.0513 58.1648 70.027L58.0743 69.8826L58.0281 69.8044C58.0081 69.7701 57.9855 69.7296 57.9604 69.6846C57.8419 69.4732 57.6663 69.1595 57.4385 68.8795L57.3993 68.6687C57.6161 68.5447 57.7255 68.3631 57.6285 68.095C57.5461 67.8675 57.4035 67.7573 57.2226 67.7231L56.9403 66.2104L56.9277 66.2125L56.8356 65.6495C56.7021 64.9345 56.1368 64.4107 55.465 64.3051C56.2378 63.9098 56.6925 63.0331 56.5232 62.1265L56.4805 61.8972C57.1162 61.9702 57.7341 61.387 58.3342 60.1472C57.2815 60.6688 56.5821 60.6182 56.2363 59.9954L56.2062 59.943C56.0646 59.7044 55.9072 59.548 55.7417 59.4467C56.1754 59.2661 56.2969 59.053 55.8293 58.7322C55.5001 58.5062 55.2837 58.465 55.0806 58.5237C55.1048 58.3756 55.1025 58.2135 55.0696 58.0373L54.8665 56.9493C54.7807 56.4897 54.6422 56.2186 54.3575 56.0717L54.1394 54.9025C54.5027 54.5981 54.4852 54.0674 54.4102 53.5809L54.3873 53.4412Z" fill="white"/>
<path fill-rule="evenodd" clip-rule="evenodd" d="M29.7471 78.4124C34.4642 78.0223 38.942 77.4318 43.1805 76.6407C47.2914 75.8734 51.2504 74.9038 55.0577 73.7318C56.5495 73.2727 57.4576 71.7525 57.1677 70.1997L56.9132 68.836L26.2227 74.5645L26.4686 75.882C26.761 77.4486 28.1778 78.5421 29.7471 78.4124Z" fill="#EC9D47"/>
<path d="M27.6939 73.7463L27.7417 73.7586C29.7817 74.3184 30.0806 73.1182 31.5011 72.9039C32.0837 72.816 32.5844 72.8574 32.9781 72.9403L33.0176 72.9011C33.0615 72.859 33.1101 72.8176 33.1627 72.7769L33.5228 72.7084L33.7992 72.6544C34.1749 72.5803 34.5789 72.4972 35.0134 72.404L35.234 72.3558L35.5107 72.2937C35.7816 72.2348 36.1501 72.1611 36.4998 72.1222L36.5243 72.1248C36.6132 72.1543 36.6974 72.1896 36.7767 72.2307C36.9383 72.3148 37.0859 72.3993 37.226 72.4757C37.577 72.3577 37.8837 72.2725 38.2146 72.1096C38.6674 72.1111 39.079 72.1356 39.4564 72.1817C40.1625 72.2679 43.8561 71.1389 45.8036 70.7695L46.278 70.6121C47.3175 70.2713 48.1831 70.0122 48.3695 69.9086L48.3804 69.9022C48.4642 69.8506 48.5504 69.802 48.6392 69.7564L48.7586 69.7726L48.8831 69.7878C49.8272 69.8965 50.9986 69.8737 52.5746 69.3591C52.9323 69.2423 53.3386 69.1932 53.7646 69.1939C54.1364 68.827 54.4894 69.0036 54.8333 68.8753C55.3005 68.7012 55.4396 68.4691 56.1507 68.2822C57.1227 68.0271 57.7804 69.3756 58.029 69.8042C58.2775 70.2331 58.1887 69.9549 57.907 69.9761C57.6252 69.9972 57.4751 69.8356 57.1445 69.8706C55.7434 70.0179 56.2039 71.7748 54.575 72.3963C53.696 72.7318 52.5272 71.9444 52.1316 71.9428C51.7361 71.9413 51.43 72.3042 51.0487 72.3822C49.2489 72.7498 48.0759 71.9741 46.5223 72.0614L46.5643 71.9814C46.5896 71.9345 46.6152 71.8878 46.6412 71.8412C46.6885 71.7571 46.4111 71.8048 45.9711 71.9139L45.711 72.1216C44.5884 73.0111 43.2038 74.0387 43.5336 74.3882C42.8506 74.6348 42.1014 74.7548 41.2447 74.8738C40.4151 74.989 39.4743 74.4914 38.8111 74.5383C37.6529 74.6203 34.8072 76.0014 34.8072 76.0014C34.8072 76.0014 34.8718 75.2192 34.3568 75.0505C33.6497 74.8191 31.9822 75.0954 31.7838 75.38C31.5854 75.6644 31.3489 75.8827 30.9967 75.9506C30.1285 76.1177 29.8073 75.7426 29.3607 75.7269C28.8907 75.7103 28.6977 75.9095 28.0746 76.0929C27.3791 76.2975 27.2002 75.8635 27.1911 75.4761L27.1908 75.4524C27.1834 74.2771 25.4924 75.4031 25.623 74.9599C25.7537 74.5169 26.7527 73.5164 27.6939 73.7463Z" fill="#9CC93A"/>
<path fill-rule="evenodd" clip-rule="evenodd" d="M37.5164 71.8942C43.3133 71.7179 45.4447 69.9517 48.0928 69.1737C49.8257 68.6647 51.5082 68.4674 52.8621 68.5438C52.8766 68.5446 53.424 68.5221 53.7236 68.4845C54.2593 68.417 54.8251 68.3114 55.4207 68.1678C55.4207 68.1678 56.2123 67.9211 56.6538 67.7877C57.0953 67.6543 57.4714 67.6623 57.6282 68.0957C57.7494 68.4304 57.5488 68.6303 57.2195 68.7514C56.89 68.8725 54.835 68.8804 49.562 70.1345C44.2891 71.3888 45.8725 77.6472 44.2691 75.8509C42.6073 73.9894 39.8105 72.8852 37.7987 72.6277C35.7868 72.3702 30.9787 73.7331 29.4983 73.9605C28.0179 74.1881 27.576 74.1175 26.9284 74.0892C26.2808 74.0608 26.322 74.1761 26.2553 73.8186C26.1952 73.4964 26.4358 73.3033 26.7527 73.2975C26.9294 73.2944 27.5205 73.3862 29.8413 73.0187C31.6805 72.7277 34.9536 71.9721 37.5164 71.8942Z" fill="#FFBC0D"/>
<path fill-rule="evenodd" clip-rule="evenodd" d="M54.9152 64.314C55.8072 64.1475 56.6673 64.7458 56.8362 65.6504L57.002 66.6627C57.002 66.6627 56.2624 67.1576 53.7396 67.5552C51.2167 67.9525 49.656 67.6265 47.926 68.1325C45.2823 68.9062 44.4495 70.1222 39.2921 70.6059C34.1348 71.0897 26.444 72.569 26.444 72.569L26.1456 71.3788C25.9768 70.4742 26.5631 69.606 27.4552 69.4395C33.6154 67.9465 38.2668 66.905 41.4096 66.3147C44.5524 65.7246 48.9357 65.0833 54.9152 64.314Z" fill="#73371F"/>
<path fill-rule="evenodd" clip-rule="evenodd" d="M25.5122 66.1365C25.4774 65.9499 25.5986 65.771 25.7828 65.7366L55.8062 60.1327C55.9905 60.0983 56.168 60.2215 56.2028 60.4081L56.2898 60.874C56.6277 62.6848 55.4215 64.4128 53.6238 64.696C50.0333 65.2613 44.4043 66.1624 41.4982 66.7048C38.2935 67.303 31.8439 68.6885 28.4389 69.4273C27.2221 69.6915 26.0255 68.8865 25.7943 67.6474L25.5122 66.1365Z" fill="#EC9D47"/>
<path d="M34.5094 63.1458L34.6689 63.0997C36.7121 62.4953 36.4673 61.9595 37.5429 61.7416C38.0298 61.6427 38.4245 61.7434 38.7846 61.9236C39.5649 61.179 40.4121 60.5326 41.5364 60.3473C42.4256 60.2009 43.4883 60.851 44.2029 60.7927C45.4513 60.6906 47.5585 59.5224 48.2835 58.5733C48.3359 58.5044 48.4318 58.5861 48.4262 58.696L48.4143 58.9281C48.3947 59.3882 48.4215 59.9267 48.9859 60.1448C49.7725 60.448 50.8095 60.2178 51.7457 59.7268C51.9361 59.3579 52.1736 59.0754 52.5494 58.9887C53.4757 58.7749 53.8564 59.2635 54.3419 59.2855L54.3963 59.2873C54.9705 59.2984 55.7187 59.061 56.2377 59.9952C56.7566 60.9293 58.3356 60.147 58.3356 60.147C58.3356 60.147 57.3562 62.1702 56.3137 61.8625L56.2677 61.8482C54.0081 61.1132 53.7885 62.671 52.2677 62.9441C51.6441 63.0559 51.0979 63.0003 50.6641 62.891C50.2304 62.7818 47.8206 64.527 46.6086 63.7977L46.4661 63.7102C45.7838 63.2839 45.3046 62.8925 44.6574 63.213C44.2702 63.4042 43.8359 63.9174 42.6051 64.0673C41.8114 64.164 40.9984 63.7537 40.2988 63.3935C39.7943 63.7237 39.4492 63.6756 38.9675 64.6332L38.9378 64.6932C38.5633 65.4608 38.213 65.776 37.5112 65.5927L37.4659 65.5803C36.3757 65.2695 36.0805 66.2533 34.717 66.4217C33.8149 66.5331 32.6403 64.8922 30.5668 65.963C30.2014 66.1514 29.7145 66.0884 29.2125 65.894C29.0214 66.2819 28.9078 66.6606 28.8205 66.9288C28.3652 68.3296 27.726 67.5753 27.2466 67.7663L27.2273 67.7746C26.7513 67.9919 26.486 67.8226 25.7841 68.03L25.7148 68.0513C24.6835 68.3792 23.7837 68.1499 23.4392 67.3395C23.3815 67.2042 22.8115 66.0509 23.1624 66.4306C23.5132 66.8101 24.0253 66.0249 24.3805 65.9808C25.8863 65.795 24.5931 64.502 26.3045 63.7011C27.1449 63.3076 28.7414 63.6475 29.6743 64.0152L29.9448 63.5643C30.2595 63.0476 30.6259 62.5206 31.0939 62.3993C32.3622 62.0705 33.3312 63.4773 34.5094 63.1458Z" fill="#9CC93A"/>
<path fill-rule="evenodd" clip-rule="evenodd" d="M26.3838 60.9061C27.8877 60.6254 34.849 58.8019 39.4059 57.9514C44.0185 57.0904 51.6886 56.0082 53.0041 55.9374C54.3195 55.8666 54.6971 56.0369 54.8673 56.9486C55.0375 57.8603 54.9002 57.1248 55.0704 58.0365C55.2405 58.9482 54.5911 59.4849 53.6974 59.6517L26.1889 64.7862C25.2952 64.953 24.2369 63.7626 24.4568 62.6247C24.6767 61.4868 24.88 61.1868 26.3838 60.9061Z" fill="#73371F"/>
<path d="M24.8366 64.3427C25.0963 64.1986 25.5097 64.217 28.2649 64.0515C29.3452 63.9865 31.046 63.7691 33.6811 63.2149C35.5265 62.8268 38.4391 62.2519 43.746 61.1619C49.0529 60.072 51.4674 59.7452 53.1693 59.403C54.8714 59.0607 54.8318 58.0467 55.8303 58.732C56.8289 59.4173 55.141 59.6109 53.4634 60.0454C51.7858 60.48 51.801 60.0026 46.1962 61.2275C40.5915 62.4524 38.3389 63.5378 35.7523 64.0485C30.8782 65.0111 29.1377 64.0629 26.3714 65.1022C23.6051 66.1415 24.5769 64.4869 24.8366 64.3427Z" fill="#EDC8A3"/>
<path fill-rule="evenodd" clip-rule="evenodd" d="M54.35 53.2399C54.4809 53.9409 54.6616 54.9089 53.6644 55.1151C52.6605 55.2824 44.3174 55.9678 39.4959 56.8861C34.871 57.731 26.6145 59.9695 25.309 60.4076C24.0092 60.8045 23.9953 59.8055 23.8894 59.2749C22.8141 53.4772 30.383 48.5404 37.835 47.0626C45.294 45.5865 53.2997 47.6127 54.35 53.2399Z" fill="white"/>
<path fill-rule="evenodd" clip-rule="evenodd" d="M54.3462 53.2419L54.3845 53.4519C54.501 54.1231 54.5611 54.9307 53.6605 55.117L53.5916 55.1276C52.3243 55.3117 44.217 55.9881 39.4921 56.888L39.2103 56.9404C34.5395 57.8216 26.5844 59.9802 25.3051 60.4096C24.0053 60.8065 23.9914 59.8074 23.8854 59.2768C22.8102 53.4792 30.3791 48.5423 37.8311 47.0645C45.2901 45.5884 53.2959 47.6146 54.3462 53.2419ZM25.6185 58.0166C25.3957 57.893 25.1157 57.9659 24.9933 58.1794C24.8708 58.3927 24.9521 58.6658 25.175 58.7893C25.3978 58.9128 26.339 59.0778 26.4055 58.962C26.4721 58.8461 25.8414 58.1401 25.6185 58.0166ZM46.5032 54.1477C46.3206 53.9444 45.4104 53.4453 45.2961 53.5388C45.1818 53.6321 45.559 54.5672 45.7414 54.7704C45.924 54.9738 46.2424 54.9992 46.4528 54.8272C46.6632 54.6553 46.6857 54.3511 46.5032 54.1477ZM31.4137 56.1946C31.3147 55.9386 31.0211 55.8089 30.7579 55.9049C30.4946 56.0008 30.3615 56.2862 30.4605 56.5422C30.5595 56.7982 31.2422 57.5793 31.3851 57.5271C31.5281 57.4749 31.5127 56.4505 31.4137 56.1946ZM40.3058 54.4016C40.0831 54.278 39.8031 54.3509 39.6807 54.5644C39.5581 54.7777 39.6394 55.0508 39.8623 55.1743C40.0851 55.2978 41.0262 55.4629 41.0928 55.347C41.1594 55.2311 40.5288 54.5251 40.3058 54.4016ZM36.6384 54.8777C36.4675 54.6641 36.1667 54.6401 35.9664 54.8237C35.7661 55.0075 35.2766 55.9259 35.3696 56.0419C35.4623 56.1579 36.3853 55.7807 36.5854 55.5969C36.7857 55.4131 36.8095 55.0912 36.6384 54.8777ZM51.6685 51.7508C51.4569 51.6259 51.1872 51.707 51.0661 51.9319C50.9449 52.1567 50.7859 53.1078 50.9007 53.1757C51.0155 53.2435 51.7109 52.6088 51.832 52.3839C51.9532 52.1591 51.8799 51.8756 51.6685 51.7508ZM46.7663 50.6487C46.6515 50.5808 45.9561 51.2157 45.835 51.4405C45.7138 51.6654 45.7871 51.9488 45.9987 52.0737C46.2101 52.1984 46.4798 52.1174 46.6009 51.8924C46.7221 51.6677 46.8811 50.7165 46.7663 50.6487ZM27.0213 54.4351C26.7985 54.3116 26.5185 54.3845 26.3961 54.598C26.2736 54.8113 26.3549 55.0844 26.5778 55.2079C26.8006 55.3314 27.7418 55.4964 27.8083 55.3806C27.8748 55.2647 27.2442 54.5587 27.0213 54.4351ZM41.7566 50.525C41.4802 50.5766 41.2965 50.8343 41.3462 51.1008C41.396 51.3672 41.9216 52.2414 42.0717 52.2133C42.2218 52.1853 42.3967 51.1804 42.347 50.914C42.2973 50.6475 42.033 50.4734 41.7566 50.525ZM32.0551 53.1068C31.8322 52.9833 30.8911 52.8183 30.8245 52.9341C30.758 53.05 31.3886 53.756 31.6115 53.8796C31.8344 54.0031 32.1143 53.9302 32.2368 53.7169C32.3593 53.5034 32.2779 53.2303 32.0551 53.1068ZM38.0153 51.054C37.8751 51.0081 37.2061 51.8019 37.1092 52.0574C37.0124 52.3129 37.1431 52.5885 37.4013 52.6729C37.6596 52.7575 37.9474 52.6189 38.0443 52.3634C38.1413 52.108 38.1556 51.0998 38.0153 51.054ZM44.3847 48.0079C44.2857 47.7519 43.992 47.6222 43.7288 47.7182C43.4655 47.8142 43.3323 48.0995 43.4314 48.3555C43.5304 48.6115 44.213 49.3926 44.3561 49.3404C44.4991 49.2882 44.4836 48.2638 44.3847 48.0079ZM32.7773 49.5803C32.5009 49.6318 32.3172 49.8896 32.367 50.156C32.4167 50.4224 32.9423 51.2966 33.0924 51.2686C33.2426 51.2406 33.4175 50.2356 33.3677 49.9692C33.318 49.7028 33.0537 49.5287 32.7773 49.5803ZM37.0753 48.1907C36.8525 48.0672 36.5725 48.1401 36.4501 48.3534C36.3275 48.5668 36.4088 48.8399 36.6318 48.9634C36.8545 49.0869 37.7957 49.2519 37.8622 49.1361C37.9288 49.0202 37.2982 48.3142 37.0753 48.1907Z" fill="#EC9D47"/>
<mask id="path-17-outside-1_17_28625" maskUnits="userSpaceOnUse" x="50.0703" y="36.1348" width="62" height="82" fill="black">
<rect fill="white" x="50.0703" y="36.1348" width="62" height="82"/>
<path fill-rule="evenodd" clip-rule="evenodd" d="M109.489 66.7595C109.489 94.1181 82.8321 115.65 80.7796 115.65C78.7274 115.65 52.0703 94.1181 52.0703 66.7595C52.0703 50.9506 64.924 38.1348 80.7796 38.1348C96.6355 38.1348 109.489 50.9506 109.489 66.7595ZM80.7796 75.5236C85.5732 75.5236 89.4592 71.6376 89.4592 66.8441C89.4592 62.0505 85.5732 58.1645 80.7796 58.1645C75.9861 58.1645 72.1001 62.0505 72.1001 66.8441C72.1001 71.6376 75.9861 75.5236 80.7796 75.5236Z"/>
</mask>
<path fill-rule="evenodd" clip-rule="evenodd" d="M109.489 66.7595C109.489 94.1181 82.8321 115.65 80.7796 115.65C78.7274 115.65 52.0703 94.1181 52.0703 66.7595C52.0703 50.9506 64.924 38.1348 80.7796 38.1348C96.6355 38.1348 109.489 50.9506 109.489 66.7595ZM80.7796 75.5236C85.5732 75.5236 89.4592 71.6376 89.4592 66.8441C89.4592 62.0505 85.5732 58.1645 80.7796 58.1645C75.9861 58.1645 72.1001 62.0505 72.1001 66.8441C72.1001 71.6376 75.9861 75.5236 80.7796 75.5236Z" fill="#FFBC0D"/>
<path d="M80.7796 117.65C81.2087 117.65 81.5681 117.526 81.7461 117.46C81.9661 117.377 82.1825 117.272 82.382 117.166C82.7835 116.952 83.2449 116.66 83.7428 116.314C84.7456 115.618 86.0156 114.62 87.4504 113.361C90.3237 110.84 93.9343 107.205 97.4762 102.7C104.531 93.7273 111.489 81.074 111.489 66.7595H107.489C107.489 79.8037 101.119 91.5956 94.3316 100.228C90.9527 104.526 87.5144 107.984 84.8122 110.355C83.4593 111.542 82.31 112.44 81.4622 113.028C81.0348 113.325 80.713 113.523 80.4985 113.637C80.4474 113.664 80.4076 113.684 80.3785 113.698C80.3487 113.712 80.3362 113.716 80.339 113.715C80.3396 113.715 80.3722 113.703 80.4302 113.689C80.4813 113.677 80.6063 113.65 80.7796 113.65V117.65ZM50.0703 66.7595C50.0703 81.074 57.0284 93.7273 64.0831 102.7C67.625 107.205 71.2357 110.84 74.1089 113.361C75.5437 114.62 76.8137 115.618 77.8164 116.314C78.3143 116.66 78.7757 116.952 79.1772 117.166C79.3766 117.272 79.5931 117.377 79.8131 117.46C79.991 117.526 80.3504 117.65 80.7796 117.65V113.65C80.9529 113.65 81.0779 113.677 81.129 113.689C81.1871 113.703 81.2196 113.715 81.2203 113.715C81.223 113.716 81.2105 113.712 81.1807 113.698C81.1516 113.684 81.1119 113.664 81.0607 113.637C80.8463 113.523 80.5245 113.325 80.0971 113.028C79.2493 112.44 78.1 111.542 76.7471 110.355C74.0449 107.984 70.6066 104.526 67.2276 100.228C60.4407 91.5956 54.0703 79.8037 54.0703 66.7595H50.0703ZM80.7796 36.1348C63.825 36.1348 50.0703 49.8405 50.0703 66.7595H54.0703C54.0703 52.0607 66.0231 40.1348 80.7796 40.1348V36.1348ZM111.489 66.7595C111.489 49.8405 97.7345 36.1348 80.7796 36.1348V40.1348C95.5365 40.1348 107.489 52.0607 107.489 66.7595H111.489ZM87.4592 66.8441C87.4592 70.5331 84.4687 73.5236 80.7796 73.5236V77.5236C86.6778 77.5236 91.4592 72.7422 91.4592 66.8441H87.4592ZM80.7796 60.1645C84.4687 60.1645 87.4592 63.155 87.4592 66.8441H91.4592C91.4592 60.9459 86.6778 56.1645 80.7796 56.1645V60.1645ZM74.1001 66.8441C74.1001 63.155 77.0906 60.1645 80.7796 60.1645V56.1645C74.8815 56.1645 70.1001 60.9459 70.1001 66.8441H74.1001ZM80.7796 73.5236C77.0906 73.5236 74.1001 70.5331 74.1001 66.8441H70.1001C70.1001 72.7422 74.8815 77.5236 80.7796 77.5236V73.5236Z" fill="white" mask="url(#path-17-outside-1_17_28625)"/>
<path d="M103.526 34.7599C102.185 35.7347 100.489 34.6178 100.643 33.0756C100.843 31.0715 101.317 27.6621 102.407 25.1054C102.946 23.8431 103.705 22.617 104.812 21.9535C106.028 21.2246 107.442 21.2972 108.912 22.1916C110.349 23.0656 111.029 24.2809 110.968 25.6759C110.911 26.9542 110.235 28.2109 109.418 29.3042C107.768 31.5136 105.123 33.5993 103.526 34.7599Z" fill="#FFBC0D" stroke="white" stroke-width="2.00297"/>
<path fill-rule="evenodd" clip-rule="evenodd" d="M116.81 71.9393C116.208 71.5187 116.395 70.631 117.121 70.46C121.021 69.5385 130.117 67.951 128.893 73.5491C127.721 78.9208 120.024 74.1902 116.81 71.9393Z" fill="#FFBC0D"/>
<mask id="path-21-outside-2_17_28625" maskUnits="userSpaceOnUse" x="3.54688" y="17.8105" width="128" height="101" fill="black">
<rect fill="white" x="3.54688" y="17.8105" width="128" height="101"/>
<path fill-rule="evenodd" clip-rule="evenodd" d="M24.6453 116.086L71.231 107.848C76.0257 112.797 80.0327 115.65 80.7796 115.65C82.8322 115.65 109.489 94.1177 109.489 66.7591C109.489 50.9501 96.6356 38.1343 80.7796 38.1343C75.4644 38.1343 70.4865 39.5745 66.2171 42.0849L62.9532 23.6261C62.6277 21.78 60.8502 20.537 59.005 20.8623L9.36076 29.6402C7.5155 29.9655 6.27323 31.7435 6.59868 33.5895L20.6971 113.322C21.0226 115.168 22.8001 116.411 24.6453 116.086ZM80.7797 75.5231C85.5733 75.5231 89.4593 71.6372 89.4593 66.8436C89.4593 62.05 85.5733 58.1641 80.7797 58.1641C75.9861 58.1641 72.1002 62.05 72.1002 66.8436C72.1002 71.6372 75.9861 75.5231 80.7797 75.5231ZM117.119 70.4592C116.394 70.6303 116.207 71.518 116.808 71.9385C120.023 74.1895 127.719 78.92 128.892 73.5483C130.116 67.9503 121.02 69.5377 117.119 70.4592Z"/>
</mask>
<path d="M71.231 107.848L72.6694 106.455L71.9294 105.691L70.8822 105.876L71.231 107.848ZM24.6453 116.086L24.9931 118.058L24.9941 118.058L24.6453 116.086ZM66.2171 42.0849L64.2448 42.4337L64.7468 45.273L67.2324 43.8115L66.2171 42.0849ZM62.9532 23.6261L60.9806 23.9738L60.9808 23.9748L62.9532 23.6261ZM59.005 20.8623L58.6573 18.8897L58.6562 18.8899L59.005 20.8623ZM9.36076 29.6402L9.70849 31.6127L9.70951 31.6125L9.36076 29.6402ZM6.59868 33.5895L4.62613 33.9373L4.62631 33.9383L6.59868 33.5895ZM20.6971 113.322L22.6697 112.974L22.6695 112.973L20.6971 113.322ZM116.808 71.9385L117.957 70.2978L117.956 70.2969L116.808 71.9385ZM117.119 70.4592L117.579 72.4087L117.58 72.4086L117.119 70.4592ZM128.892 73.5483L126.935 73.1206L126.935 73.1212L128.892 73.5483ZM70.8822 105.876L24.2966 114.113L24.9941 118.058L71.5797 109.821L70.8822 105.876ZM80.7796 113.647C81.1606 113.647 81.3648 113.779 81.1892 113.698C81.1014 113.657 80.9419 113.573 80.7029 113.425C80.2305 113.131 79.5725 112.668 78.7609 112.03C77.1441 110.759 75.0103 108.87 72.6694 106.455L69.7925 109.242C72.2464 111.775 74.5134 113.787 76.2855 115.179C77.1683 115.873 77.9519 116.432 78.5907 116.828C78.9073 117.025 79.2208 117.202 79.5139 117.337C79.7191 117.431 80.2119 117.652 80.7796 117.652V113.647ZM107.486 66.7591C107.486 79.8023 101.116 91.5936 94.3294 100.226C90.9506 104.523 87.5124 107.981 84.8103 110.352C83.4575 111.539 82.3083 112.437 81.4605 113.025C81.0332 113.322 80.7115 113.52 80.4972 113.634C80.4461 113.661 80.4064 113.681 80.3773 113.695C80.3476 113.708 80.3351 113.713 80.338 113.712C80.3387 113.712 80.3714 113.699 80.4296 113.685C80.4808 113.673 80.6061 113.647 80.7796 113.647V117.652C81.2093 117.652 81.5691 117.529 81.7472 117.462C81.9673 117.379 82.1839 117.275 82.3834 117.168C82.7851 116.954 83.2466 116.662 83.7446 116.316C84.7475 115.62 86.0176 114.622 87.4524 113.363C90.3258 110.842 93.9366 107.207 97.4786 102.702C104.533 93.7284 111.492 81.0745 111.492 66.7591H107.486ZM80.7796 40.1373C95.5349 40.1373 107.486 52.0619 107.486 66.7591H111.492C111.492 49.8384 97.7362 36.1313 80.7796 36.1313V40.1373ZM67.2324 43.8115C71.2022 41.4773 75.8308 40.1373 80.7796 40.1373V36.1313C75.098 36.1313 69.7708 37.6718 65.2019 40.3583L67.2324 43.8115ZM60.9808 23.9748L64.2448 42.4337L68.1895 41.7362L64.9256 23.2773L60.9808 23.9748ZM59.3527 22.8348C60.1097 22.7014 60.8475 23.2183 60.9806 23.9738L64.9257 23.2783C64.408 20.3417 61.5908 18.3726 58.6573 18.8897L59.3527 22.8348ZM9.70951 31.6125L59.3537 22.8347L58.6562 18.8899L9.01201 27.6678L9.70951 31.6125ZM8.57123 33.2418C8.43736 32.4824 8.9554 31.7455 9.70849 31.6127L9.01303 27.6676C6.0756 28.1854 4.1091 31.0045 4.62613 33.9373L8.57123 33.2418ZM22.6695 112.973L8.57105 33.2408L4.62631 33.9383L18.7247 113.671L22.6695 112.973ZM24.2976 114.113C23.5406 114.246 22.8029 113.73 22.6697 112.974L18.7246 113.67C19.2423 116.606 22.0595 118.575 24.9931 118.058L24.2976 114.113ZM87.4563 66.8436C87.4563 70.531 84.4671 73.5202 80.7797 73.5202V77.5261C86.6795 77.5261 91.4622 72.7434 91.4622 66.8436H87.4563ZM80.7797 60.167C84.4671 60.167 87.4563 63.1562 87.4563 66.8436H91.4622C91.4622 60.9438 86.6795 56.1611 80.7797 56.1611V60.167ZM74.1031 66.8436C74.1031 63.1562 77.0924 60.167 80.7797 60.167V56.1611C74.8799 56.1611 70.0972 60.9438 70.0972 66.8436H74.1031ZM80.7797 73.5202C77.0924 73.5202 74.1031 70.531 74.1031 66.8436H70.0972C70.0972 72.7434 74.8799 77.5261 80.7797 77.5261V73.5202ZM117.956 70.2969C118.339 70.5644 118.523 71.0589 118.426 71.5176C118.332 71.9678 117.986 72.3127 117.579 72.4087L116.659 68.5098C114.366 69.0509 113.544 72.1005 115.661 73.5802L117.956 70.2969ZM126.935 73.1212C126.773 73.8629 126.525 73.9198 126.394 73.9586C126.038 74.0637 125.337 74.0502 124.227 73.6946C122.063 73.0007 119.545 71.4095 117.957 70.2978L115.66 73.5793C117.287 74.7185 120.224 76.618 123.005 77.5093C124.367 77.9462 126.011 78.2488 127.529 77.8004C129.271 77.2858 130.424 75.9196 130.849 73.9755L126.935 73.1212ZM117.58 72.4086C119.511 71.9524 122.503 71.3927 124.783 71.5568C125.958 71.6413 126.578 71.8969 126.828 72.107C126.882 72.1531 127.118 72.2841 126.935 73.1206L130.849 73.9761C131.278 72.0136 130.835 70.2437 129.407 69.0418C128.173 68.0039 126.505 67.6643 125.071 67.5612C122.134 67.3499 118.628 68.0446 116.659 68.5099L117.58 72.4086Z" fill="white" mask="url(#path-21-outside-2_17_28625)"/>
<path d="M80.4721 28.3629C79.8607 29.9034 77.8301 29.8666 77.1353 28.4812C76.2325 26.6808 74.8097 23.5466 74.3642 20.8028C74.1443 19.4482 74.13 18.0062 74.7105 16.8536C75.3485 15.5873 76.5823 14.8925 78.3027 14.8622C79.9844 14.8323 81.2088 15.4956 81.9028 16.7074C82.5386 17.8177 82.6393 19.2412 82.5338 20.6018C82.3204 23.3515 81.2008 26.5282 80.4721 28.3629Z" fill="#FFBC0D" stroke="white" stroke-width="2.00297"/>
<path d="M115.877 51.4184C114.229 51.2445 113.717 49.279 114.864 48.2368C116.355 46.8826 118.99 44.6683 121.513 43.5003C122.758 42.9237 124.143 42.5216 125.409 42.7703C126.801 43.0437 127.802 44.0448 128.294 45.6935C128.776 47.305 128.467 48.6628 127.487 49.6575C126.589 50.5688 125.245 51.0491 123.906 51.3139C121.201 51.8489 117.84 51.6261 115.877 51.4184Z" fill="#FFBC0D" stroke="white" stroke-width="2.00297"/>
</svg>
