<svg width="27" height="18" viewBox="0 0 27 18" fill="none" xmlns="http://www.w3.org/2000/svg">
<g clip-path="url(#clip0_109_43737)">
<path d="M0 0H27V18H0V0Z" fill="#36B6CC"/>
<path d="M13.4984 12.5945C15.4867 12.5945 17.0984 10.9828 17.0984 8.99453C17.0984 7.00631 15.4867 5.39453 13.4984 5.39453C11.5102 5.39453 9.89844 7.00631 9.89844 8.99453C9.89844 10.9828 11.5102 12.5945 13.4984 12.5945Z" fill="#FFD400"/>
<path d="M13.4992 13.2388L12.0308 15.4335L11.6571 12.8177L9.38343 14.1598L10.1834 11.644L7.55185 11.8651L9.36238 9.94403L6.89396 8.99667L9.35712 8.0493L7.54659 6.12825L10.1782 6.3493L9.37817 3.83351L11.6519 5.17035L12.0255 2.55456L13.494 4.7493L14.9624 2.55456L15.3361 5.17035L17.6098 3.83351L16.8098 6.3493L19.4413 6.12825L17.6361 8.05456L20.0992 8.99667L17.6361 9.94403L19.4466 11.8651L16.815 11.644L17.615 14.1598L15.3413 12.823L14.9676 15.4388C14.9676 15.4335 13.4992 13.2388 13.4992 13.2388ZM13.4992 13.1967C15.8203 13.1967 17.7045 11.3125 17.7045 8.9914C17.7045 6.67035 15.8203 4.7914 13.4992 4.7914C11.1782 4.7914 9.29396 6.67561 9.29396 8.99667C9.29396 11.3177 11.1782 13.1967 13.4992 13.1967ZM1.19922 1.49141C1.19922 1.32299 1.32553 1.19141 1.49922 1.19141H2.09396C2.26238 1.19141 2.39396 1.31772 2.39396 1.49141V2.08614C2.39922 2.2493 2.26764 2.38614 2.09922 2.38614H1.49922C1.33606 2.38614 1.19922 2.25456 1.19922 2.09141V1.49141ZM1.19922 3.89667C1.19922 3.72825 1.32553 3.59667 1.49922 3.59667H2.09396C2.26238 3.59667 2.39396 3.72298 2.39396 3.89667V4.49141C2.39922 4.65456 2.26764 4.7914 2.09922 4.7914H1.49922C1.33606 4.7914 1.19922 4.65983 1.19922 4.49667V3.89667ZM1.19922 6.29667C1.19922 6.12825 1.32553 5.99667 1.49922 5.99667H2.09396C2.26238 5.99667 2.39396 6.12298 2.39396 6.29667V6.8914C2.39922 7.05456 2.26764 7.1914 2.09922 7.1914H1.49922C1.33606 7.1914 1.19922 7.05982 1.19922 6.89667V6.29667ZM1.19922 8.69667C1.19922 8.52824 1.32553 8.39667 1.49922 8.39667H2.09396C2.26238 8.39667 2.39396 8.52298 2.39396 8.69667V9.2914C2.39922 9.45456 2.26764 9.5914 2.09922 9.5914H1.49922C1.33606 9.5914 1.19922 9.45982 1.19922 9.29667V8.69667ZM1.19922 11.1019C1.19922 10.9335 1.32553 10.8019 1.49922 10.8019H2.09396C2.26238 10.8019 2.39396 10.9282 2.39396 11.1019V11.6967C2.39922 11.8598 2.26764 11.9967 2.09922 11.9967H1.49922C1.33606 11.9967 1.19922 11.8651 1.19922 11.7019V11.1019ZM1.19922 13.5019C1.19922 13.3335 1.32553 13.2019 1.49922 13.2019H2.09396C2.26238 13.2019 2.39396 13.3282 2.39396 13.5019V14.0967C2.39922 14.2598 2.26764 14.3967 2.09922 14.3967H1.49922C1.33606 14.3967 1.19922 14.2651 1.19922 14.1019V13.5019ZM1.19922 15.9019C1.19922 15.7335 1.32553 15.6019 1.49922 15.6019H2.09396C2.26238 15.6019 2.39396 15.7282 2.39396 15.9019V16.4967C2.39922 16.6598 2.26764 16.7967 2.09922 16.7967H1.49922C1.33606 16.7967 1.19922 16.6651 1.19922 16.5019V15.9019ZM2.39922 14.7019C2.39922 14.5335 2.52554 14.4019 2.69922 14.4019H3.29396C3.46238 14.4019 3.59396 14.5282 3.59396 14.7019V15.2967C3.59922 15.4598 3.46764 15.5967 3.29922 15.5967H2.69922C2.53606 15.5967 2.39922 15.4651 2.39922 15.3019V14.7019ZM2.39922 12.3019C2.39922 12.1335 2.52554 12.0019 2.69922 12.0019H3.29396C3.46238 12.0019 3.59396 12.1282 3.59396 12.3019V12.8967C3.59922 13.0598 3.46764 13.1967 3.29922 13.1967H2.69922C2.53606 13.1967 2.39922 13.0651 2.39922 12.9019V12.3019ZM2.39922 9.89667C2.39922 9.72824 2.52554 9.59667 2.69922 9.59667H3.29396C3.46238 9.59667 3.59396 9.72298 3.59396 9.89667V10.4914C3.59922 10.6546 3.46764 10.7914 3.29922 10.7914H2.69922C2.53606 10.7914 2.39922 10.6598 2.39922 10.4967V9.89667ZM2.39922 7.49667C2.39922 7.32825 2.52554 7.19667 2.69922 7.19667H3.29396C3.46238 7.19667 3.59396 7.32298 3.59396 7.49667V8.0914C3.59922 8.25456 3.46764 8.3914 3.29922 8.3914H2.69922C2.53606 8.3914 2.39922 8.25982 2.39922 8.09667V7.49667ZM2.39922 5.09667C2.39922 4.92825 2.52554 4.79667 2.69922 4.79667H3.29396C3.46238 4.79667 3.59396 4.92298 3.59396 5.09667V5.6914C3.59922 5.85456 3.46764 5.9914 3.29922 5.9914H2.69922C2.53606 5.9914 2.39922 5.85983 2.39922 5.69667V5.09667ZM2.39922 2.69667C2.39922 2.52825 2.52554 2.39667 2.69922 2.39667H3.29396C3.46238 2.39667 3.59396 2.52298 3.59396 2.69667V3.29141C3.59922 3.45456 3.46764 3.59141 3.29922 3.59141H2.69922C2.53606 3.59141 2.39922 3.45983 2.39922 3.29667V2.69667Z" fill="#FFD400"/>
</g>
<rect x="0.5" y="0.5" width="26" height="17" rx="0.5" stroke="black" stroke-opacity="0.2"/>
<defs>
<clipPath id="clip0_109_43737">
<rect width="27" height="18" rx="1" fill="white"/>
</clipPath>
</defs>
</svg>
