<svg width="136" height="136" viewBox="0 0 136 136" fill="none" xmlns="http://www.w3.org/2000/svg">
<path fill-rule="evenodd" clip-rule="evenodd" d="M68.1441 130.999C83.6876 130.999 96.2881 128.433 96.2881 125.266C96.2881 122.1 83.6876 119.533 68.1441 119.533C52.6005 119.533 40 122.1 40 125.266C40 128.433 52.6005 130.999 68.1441 130.999Z" fill="#A0A09F" fill-opacity="0.15"/>
<path fill-rule="evenodd" clip-rule="evenodd" d="M73.3573 91.911V125.877L73.0642 126.286C71.9872 127.787 70.3013 128.394 68.406 128.394C66.5107 128.394 64.8248 127.787 63.7478 126.286L63.4547 125.877V91.911H48.3403C46.9011 91.911 45.7344 90.7443 45.7344 89.3051V10.6059C45.7344 9.16671 46.9011 8 48.3403 8H88.4717C89.9109 8 91.0776 9.16672 91.0776 10.6059V89.3051C91.0776 90.7443 89.9109 91.911 88.4717 91.911H73.3573Z" fill="white"/>
<path fill-rule="evenodd" clip-rule="evenodd" d="M65.0156 91.9102H71.791V125.374C71.0948 126.344 69.9656 126.83 68.4033 126.83C66.8411 126.83 65.7119 126.344 65.0156 125.374V91.9102Z" fill="#ADADAD"/>
<path d="M47.2969 10.6068C47.2969 10.0311 47.7636 9.56445 48.3392 9.56445H88.4706C89.0463 9.56445 89.513 10.0311 89.513 10.6068V89.306C89.513 89.8817 89.0463 90.3484 88.4706 90.3484H48.3392C47.7636 90.3484 47.2969 89.8817 47.2969 89.306V10.6068Z" fill="#292929"/>
<path fill-rule="evenodd" clip-rule="evenodd" d="M68.4052 44.4842C76.033 44.4842 82.2166 38.3006 82.2166 30.6728C82.2166 23.0449 76.033 16.8613 68.4052 16.8613C60.7773 16.8613 54.5938 23.0449 54.5938 30.6728C54.5938 38.3006 60.7773 44.4842 68.4052 44.4842Z" fill="#FFBC0D"/>
<path d="M75.4392 55.9834V58.0269V60.1599V79.8878C75.4392 80.7707 74.702 81.4865 73.7925 81.4865H63.0139C62.1044 81.4865 61.3672 80.7707 61.3672 79.8878V61.3154V59.4931V58.7419V57.5281V55.9834C61.3672 55.1004 62.1044 54.3848 63.0139 54.3848H73.7925C74.7019 54.3848 75.4392 55.1004 75.4392 55.9834Z" fill="white"/>
<path d="M73.3556 77.1228C73.3556 77.518 73.0254 77.8383 72.6182 77.8383H64.1906C63.7833 77.8383 63.4531 77.5179 63.4531 77.1228V58.7486C63.4531 58.3535 63.7833 58.0332 64.1906 58.0332H72.6182C73.0255 58.0332 73.3557 58.3535 73.3557 58.7486L73.3556 77.1228Z" fill="#292929"/>
</svg>
