<svg width="27" height="18" viewBox="0 0 27 18" fill="none" xmlns="http://www.w3.org/2000/svg">
<g clip-path="url(#clip0_109_43895)">
<path d="M0 0H27V18H0V0Z" fill="#003893"/>
<path d="M0 9.58984H27V11.7688H0V9.58984Z" fill="#CF2027"/>
<path d="M0 7.41016H27V9.5891H0V7.41016ZM0 11.7681H27V13.947H0V11.7681Z" fill="white"/>
<path d="M7.91706 3.68359L8.28022 4.79412H9.44864L8.50127 5.48359L8.86443 6.59412L7.91706 5.90465L6.97496 6.59412L7.33285 5.48359L6.39075 4.79412H7.55917L7.91706 3.68359ZM7.91706 14.7204L8.28022 15.831H9.44864L8.50127 16.5152L8.86443 17.631L7.91706 16.9415L6.97496 17.631L7.33285 16.5152L6.39075 15.831H7.55917L7.91706 14.7204ZM2.78022 10.9889L3.14338 12.0994H4.3118L3.36443 12.7836L3.72759 13.8994L2.78022 13.2099L1.83812 13.8994L2.19601 12.7836L1.25391 12.0994H2.42233L2.78022 10.9889ZM4.74338 4.78886L5.10654 5.89938H6.27496L5.32759 6.58359L5.69075 7.69938L4.74338 7.00991L3.80127 7.69938L4.15917 6.58359L3.2118 5.89938H4.38548L4.74338 4.78886ZM1.25391 8.5257H2.42233L2.78022 7.41517L3.14338 8.5257H4.3118L3.36443 9.21517L3.72759 10.3257L2.78022 9.64149L1.83812 10.3257L2.19601 9.21517L1.25391 8.5257ZM3.80127 16.3625L4.15917 15.252L3.2118 14.5678H4.38548L4.74338 13.452L5.10654 14.5678H6.27496L5.32759 15.252L5.69075 16.3625L4.74338 15.6783L3.80127 16.3625ZM13.0539 10.9889L12.6907 12.0994H11.5223L12.4697 12.7836L12.1065 13.8994L13.0539 13.2099L14.0013 13.8994L13.6381 12.7836L14.5855 12.0994H13.4171L13.0539 10.9889ZM11.0907 4.78886L10.7329 5.89938H9.56443L10.5065 6.58359L10.1486 7.69938L11.0907 7.00991L12.0381 7.69938L11.675 6.58359L12.6223 5.89938H11.4539L11.0907 4.78886ZM14.5855 8.5257H13.4171L13.0539 7.41517L12.6907 8.5257H11.5223L12.4697 9.21517L12.1065 10.3257L13.0539 9.64149L14.0013 10.3257L13.6381 9.21517L14.5855 8.5257ZM12.0381 16.3625L11.675 15.252L12.6223 14.5678H11.4539L11.0907 13.452L10.7329 14.5678H9.56443L10.5065 15.252L10.1486 16.3625L11.0907 15.6783L12.0381 16.3625Z" fill="#F7D116"/>
<path fill-rule="evenodd" clip-rule="evenodd" d="M7.91586 3.59766L8.29828 4.76709H9.5285L8.53122 5.49289L8.91371 6.66256L7.91609 5.93651L6.924 6.66256L7.30096 5.49289L6.30921 4.76709H7.53898L7.91586 3.59766ZM7.91623 3.76811L7.57732 4.81972H6.47025L7.36271 5.47287L7.02387 6.52425L7.916 5.87135L8.81311 6.52425L8.46929 5.47287L9.36674 4.81972H8.26012L7.91623 3.76811ZM4.74218 4.70292L5.1246 5.87235H6.35532L5.35753 6.59298L5.73988 7.76771L4.74241 7.04177L3.75048 7.76771L4.12726 6.59303L3.1294 5.87235H4.3653L4.74218 4.70292ZM11.0895 4.70292L11.472 5.87235H12.7027L11.7049 6.59298L12.0872 7.76771L11.0898 7.04177L10.0978 7.76771L10.4746 6.59298L9.48239 5.87235H10.7127L11.0895 4.70292ZM4.74255 4.87337L4.40364 5.92498H3.29217L4.18904 6.57273L3.85004 7.62962L4.74232 6.97661L5.63958 7.62962L5.29561 6.57278L6.19256 5.92498H5.08644L4.74255 4.87337ZM11.0899 4.87337L10.751 5.92498H9.64443L10.5364 6.57278L10.1974 7.62962L11.0897 6.97661L11.9869 7.62962L11.643 6.57278L12.5399 5.92498H11.4338L11.0899 4.87337ZM2.77902 7.32923L3.16145 8.49867H4.39166L3.39438 9.22447L3.77672 10.3937L2.77925 9.67326L1.78732 10.3937L2.16412 9.22447L1.17238 8.49867H2.40214L2.77902 7.32923ZM13.0529 7.32979L13.4351 8.49867H14.6653L13.6681 9.22447L14.0504 10.3937L13.0529 9.67323L12.0554 10.3937L12.4377 9.22447L11.4404 8.49867H12.6706L13.0529 7.32979ZM2.77939 7.49968L2.44048 8.5513H1.33341L2.22587 9.20444L1.88688 10.2563L2.77916 9.60828L3.67643 10.2563L3.33245 9.20444L4.2299 8.5513H3.12328L2.77939 7.49968ZM13.0529 7.49912L12.7088 8.5513H11.6022L12.4996 9.20444L12.1557 10.2563L13.0529 9.60831L13.9501 10.2563L13.6061 9.20444L14.5036 8.5513H13.397L13.0529 7.49912ZM2.77902 10.9029L3.16145 12.0723H4.39217L3.39438 12.793L3.77672 13.9677L2.77925 13.2418L1.78732 13.9677L2.16412 12.793L1.17188 12.0723H2.40214L2.77902 10.9029ZM13.0529 10.9035L13.4351 12.0723H14.6658L13.6681 12.793L14.0504 13.9677L13.0529 13.2417L12.0554 13.9677L12.4377 12.793L11.4399 12.0723H12.6706L13.0529 10.9035ZM2.77939 11.0734L2.44048 12.125H1.33391L2.22587 12.7728L1.88688 13.8296L2.77916 13.1766L3.67643 13.8296L3.33245 12.7728L4.2294 12.125H3.12328L2.77939 11.0734ZM13.0529 11.0728L12.7088 12.125H11.6027L12.4996 12.7728L12.1557 13.8296L13.0529 13.1766L13.9501 13.8296L13.6061 12.7728L14.5031 12.125H13.397L13.0529 11.0728ZM4.74218 13.3657L5.12463 14.5408H6.35532L5.35756 15.2614L5.73988 16.4305L4.74241 15.7101L3.75048 16.4305L4.12724 15.2614L3.1294 14.5408H4.36527L4.74218 13.3657ZM11.0895 13.3657L11.472 14.5408H12.7027L11.7049 15.2614L12.0872 16.4305L11.0898 15.7101L10.0978 16.4305L10.4746 15.2614L9.48239 14.5408H10.7126L11.0895 13.3657ZM4.74255 13.5369L4.40366 14.5934H3.29217L4.18907 15.2412L3.85004 16.2931L4.74232 15.6451L5.63958 16.2931L5.29559 15.2412L6.19256 14.5934H5.08641L4.74255 13.5369ZM11.0899 13.5369L10.751 14.5934H9.64443L10.5364 15.2412L10.1974 16.2931L11.0897 15.6451L11.9869 16.2931L11.643 15.2412L12.5399 14.5934H11.4338L11.0899 13.5369ZM7.91586 14.6345L8.29828 15.8039H9.52901L8.53122 16.5245L8.91356 17.6993L7.91609 16.9733L6.92416 17.6993L7.30096 16.5245L6.30871 15.8039H7.53898L7.91586 14.6345ZM7.91623 14.8049L7.57732 15.8566H6.47075L7.36271 16.5043L7.02372 17.5612L7.916 16.9082L8.81326 17.5612L8.46929 16.5043L9.36624 15.8566H8.26012L7.91623 14.8049Z" fill="black"/>
</g>
<rect x="0.5" y="0.5" width="26" height="17" rx="0.5" stroke="black" stroke-opacity="0.2"/>
<defs>
<clipPath id="clip0_109_43895">
<rect width="27" height="18" rx="1" fill="white"/>
</clipPath>
</defs>
</svg>
