<svg width="375" height="225" viewBox="0 0 375 225" fill="none" xmlns="http://www.w3.org/2000/svg">
<path d="M104.285 92.8478C102.712 86.9797 106.195 80.948 112.063 79.3756L252.122 41.8469C257.99 40.2745 264.022 43.7569 265.594 49.6251L288.37 134.627C289.943 140.495 286.46 146.526 280.592 148.099L140.533 185.627C134.665 187.2 128.633 183.717 127.061 177.849L104.285 92.8478Z" fill="#FFBC0D"/>
<path fill-rule="evenodd" clip-rule="evenodd" d="M111.289 76.4781L251.348 38.9493C258.816 36.9481 266.493 41.3803 268.494 48.8488L291.27 133.85C293.272 141.319 288.839 148.996 281.371 150.997L141.312 188.525C133.843 190.527 126.166 186.095 124.165 178.626L101.389 93.6245C99.3879 86.156 103.82 78.4793 111.289 76.4781ZM112.065 79.3759C106.197 80.9482 102.715 86.9799 104.287 92.8481L127.063 177.85C128.635 183.718 134.667 187.2 140.535 185.628L280.594 148.099C286.463 146.527 289.945 140.495 288.373 134.627L265.596 49.6253C264.024 43.7572 257.992 40.2748 252.124 41.8471L112.065 79.3759Z" fill="white"/>
<path fill-rule="evenodd" clip-rule="evenodd" d="M82.5892 135.756C82.8169 136.553 82.3558 137.383 81.5593 137.611L54.195 145.434C53.3985 145.661 52.5682 145.2 52.3404 144.404C52.1127 143.607 52.5738 142.777 53.3703 142.549L80.7347 134.726C81.5312 134.498 82.3615 134.96 82.5892 135.756Z" fill="#D6D6D6"/>
<path fill-rule="evenodd" clip-rule="evenodd" d="M95.8041 144.756C96.0318 145.553 95.5707 146.383 94.7742 146.611L67.4098 154.434C66.6133 154.661 65.783 154.2 65.5553 153.404C65.3276 152.607 65.7887 151.777 66.5852 151.549L93.9495 143.726C94.7461 143.498 95.5764 143.96 95.8041 144.756Z" fill="#D6D6D6"/>
<path fill-rule="evenodd" clip-rule="evenodd" d="M80.2455 162.608C80.4732 163.404 80.0121 164.234 79.2156 164.462L51.8512 172.285C51.0547 172.513 50.2244 172.052 49.9967 171.255C49.769 170.459 50.2301 169.629 51.0266 169.401L78.3909 161.578C79.1875 161.35 80.0178 161.811 80.2455 162.608Z" fill="#D6D6D6"/>
<path d="M107.133 103.473L268.442 60.2499L273.619 79.5684L112.309 122.791L107.133 103.473Z" fill="#606060"/>
<path d="M135.133 138.416L223.032 114.863L226.138 126.455L138.239 150.007L135.133 138.416Z" fill="#FBE4A7"/>
<path d="M141.344 161.6L229.243 138.047L230.278 141.911L142.379 165.463L141.344 161.6Z" fill="#FBE4A7"/>
<path d="M239.59 118.71C238.447 114.442 240.979 110.055 245.247 108.912L261.668 104.512C265.935 103.368 270.322 105.901 271.466 110.169C272.609 114.437 270.077 118.823 265.809 119.967L249.388 124.367C245.12 125.51 240.734 122.978 239.59 118.71Z" fill="#FBE4A7"/>
<path d="M286.438 49C286.438 64.464 273.901 77 258.438 77C242.974 77 230.438 64.464 230.438 49C230.438 33.536 242.974 21 258.438 21C273.901 21 286.438 33.536 286.438 49Z" fill="#DB0007"/>
<path fill-rule="evenodd" clip-rule="evenodd" d="M266.609 62.8287L244.609 40.8287L250.266 35.1719L272.266 57.1719L266.609 62.8287Z" fill="white"/>
<path fill-rule="evenodd" clip-rule="evenodd" d="M266.609 35.1713L244.609 57.1713L250.266 62.8281L272.266 40.8281L266.609 35.1713Z" fill="white"/>
</svg>
