<svg width="27" height="18" viewBox="0 0 27 18" fill="none" xmlns="http://www.w3.org/2000/svg">
<g clip-path="url(#clip0_109_43870)">
<path d="M0 0H27V17.9996H0V0Z" fill="white"/>
<path d="M27 0V8.99981H13.5L0 0H27Z" fill="#0052B4"/>
<path d="M27 9V17.9998H0L13.5 9H27Z" fill="#D80027"/>
<path d="M8.53926 9.00119L7.10025 8.32435L7.86658 6.93068L6.30396 7.22958L6.10594 5.65108L5.01751 6.81203L3.92912 5.65108L3.7311 7.22958L2.16853 6.93063L2.93481 8.32429L1.4958 9.00119L2.93481 9.67804L2.16853 11.0717L3.73121 10.7728L3.92912 12.3513L5.01751 11.1904L6.10594 12.3513L6.30396 10.7728L7.86653 11.0718L7.1002 9.67814L8.53926 9.00119ZM1.15018 1.70312L1.62906 2.37264L2.41369 2.12405L1.92495 2.78639L2.40383 3.4558L1.62289 3.19572L1.13415 3.85801L1.14032 3.03493L0.359375 2.77474L1.14406 2.52626L1.15018 1.70312ZM1.15018 14.1444L1.62906 14.8139L2.41369 14.5653L1.92495 15.2276L2.40383 15.8971L1.62289 15.637L1.13415 16.2992L1.14032 15.4762L0.359375 15.216L1.14406 14.9675L1.15018 14.1444ZM11.0962 7.92378L10.6173 8.59324L9.83268 8.3447L10.3214 9.00699L9.84254 9.67651L10.6235 9.41637L11.1122 10.0786L11.1061 9.25558L11.887 8.99539L11.1023 8.74685L11.0962 7.92378Z" fill="#FFDA44"/>
</g>
<rect x="0.5" y="0.5" width="26" height="17" rx="0.5" stroke="black" stroke-opacity="0.2"/>
<defs>
<clipPath id="clip0_109_43870">
<rect width="27" height="18" rx="1" fill="white"/>
</clipPath>
</defs>
</svg>
