<svg width="27" height="18" viewBox="0 0 27 18" fill="none" xmlns="http://www.w3.org/2000/svg">
<g clip-path="url(#clip0_109_43796)">
<path d="M0 0H27V18H0V0Z" fill="#ED2939"/>
<path d="M0 0H3.6V7.9794H0V0Z" fill="#002395"/>
<path d="M3.60156 0H7.20156V7.9794H3.60156V0Z" fill="white"/>
<path fill-rule="evenodd" clip-rule="evenodd" d="M11.3739 0V8.05835H0V7.90045H11.2161V0H11.3739Z" fill="white"/>
<path d="M19.4544 7.79348L15.8328 4.17188H23.0778L19.4544 7.79348ZM18.2484 9.00128L14.625 5.37968V12.6247L18.2484 9.00128ZM19.4544 10.2091L15.8328 13.8307H23.0778L19.4544 10.2091ZM20.6622 9.00128L24.2856 5.37788V12.6229L20.6622 9.00128Z" fill="white"/>
</g>
<rect x="0.5" y="0.5" width="26" height="17" rx="0.5" stroke="black" stroke-opacity="0.2"/>
<defs>
<clipPath id="clip0_109_43796">
<rect width="27" height="18" rx="1" fill="white"/>
</clipPath>
</defs>
</svg>
