<svg width="27" height="18" viewBox="0 0 27 18" fill="none" xmlns="http://www.w3.org/2000/svg">
<g clip-path="url(#clip0_109_43743)">
<path d="M0 0H27V18.0002H0V0Z" fill="#0052B4"/>
<path d="M20.2489 6.65005C21.1133 6.65005 21.8141 5.94926 21.8141 5.08479C21.8141 4.22032 21.1133 3.51953 20.2489 3.51953C19.3844 3.51953 18.6836 4.22032 18.6836 5.08479C18.6836 5.94926 19.3844 6.65005 20.2489 6.65005Z" fill="#6DA544"/>
<path d="M17.5117 4.69531H22.9898V7.04315H17.5117V4.69531Z" fill="#D80027"/>
<path d="M17.5117 10.5664V12.1317H18.3352C18.829 12.6155 19.5049 12.9142 20.2509 12.9142C20.9969 12.9142 21.6727 12.6155 22.1665 12.1317H22.99V10.5664H17.5117Z" fill="#FFDA44"/>
<path d="M17.5117 6.65234V9.00018C17.5117 11.0968 20.2509 11.7393 20.2509 11.7393C20.2509 11.7393 22.99 11.0969 22.99 9.00018V6.65234H17.5117Z" fill="#338AF3"/>
<path d="M20.2507 7.90416C19.566 7.90416 19.566 8.53028 18.8812 8.53028C18.1965 8.53028 18.1965 7.90416 17.5117 7.90416V8.99982C18.1965 8.99982 18.1965 9.62594 18.8812 9.62594C19.566 9.62594 19.566 8.99982 20.2507 8.99982C20.9356 8.99982 20.9356 9.62594 21.6204 9.62594C22.3052 9.62594 22.3052 8.99982 22.9901 8.99982V7.90416C22.3053 7.90416 22.3053 8.53028 21.6204 8.53028C20.9356 8.53022 20.9356 7.90416 20.2507 7.90416ZM20.2507 5.71094C19.566 5.71094 19.566 6.33705 18.8812 6.33705C18.1965 6.33705 18.1965 5.71094 17.5117 5.71094V6.8066C18.1965 6.8066 18.1965 7.43271 18.8812 7.43271C19.566 7.43271 19.566 6.8066 20.2507 6.8066C20.9356 6.8066 20.9356 7.43271 21.6204 7.43271C22.3052 7.43271 22.3052 6.8066 22.9901 6.8066V5.71094C22.3053 5.71094 22.3053 6.33705 21.6204 6.33705C20.9356 6.33705 20.9356 5.71094 20.2507 5.71094Z" fill="#F3F3F3"/>
<path d="M13.5 0V1.19269L11.0706 2.81211H13.5V6.18711H11.0706L13.5 7.80711V8.9998H12.3067L8.4375 6.42009V8.9998H5.0625V6.42009L1.19327 8.9998H0V7.80711L2.42942 6.18711H0V2.81211H2.42942L0 1.19269V0H1.19327L5.0625 2.57908V0H8.4375V2.57908L12.3067 0H13.5Z" fill="white"/>
<path d="M7.59375 0H5.90625V3.65629H0V5.34379H5.90625V9.00007H7.59375V5.34379H13.5V3.65629H7.59375V0Z" fill="#D80027"/>
<path d="M0 0V0.79534L3.02574 2.81253H4.21875L0 0ZM13.5 0V0.79534L10.4743 2.81253H9.28125L13.5 0Z" fill="#D80027"/>
<path d="M0 0V0.79534L3.02574 2.81254H4.21875L0 0ZM13.5 0V0.79534L10.4743 2.81254H9.28125L13.5 0ZM0 9.00007V8.20473L3.02574 6.18754H4.21875L0 9.00007ZM13.5 9.00007V8.20473L10.4743 6.18754H9.28125L13.5 9.00007Z" fill="#D80027"/>
</g>
<rect x="0.5" y="0.5" width="26" height="17" rx="0.5" stroke="black" stroke-opacity="0.2"/>
<defs>
<clipPath id="clip0_109_43743">
<rect width="27" height="18" rx="1" fill="white"/>
</clipPath>
</defs>
</svg>
