<svg width="27" height="18" viewBox="0 0 27 18" fill="none" xmlns="http://www.w3.org/2000/svg">
<g clip-path="url(#clip0_109_43742)">
<path d="M0 0H27V17.9996H0V0Z" fill="#0052B4"/>
<path d="M0 0H27V4.50019H0V0Z" fill="#FFDA44"/>
<path d="M0 4.5H27V9.0002H0V4.5Z" fill="white"/>
<path d="M0 9H27V13.5002H0V9Z" fill="#D80027"/>
<path d="M13.5 9.00043L0 18.0002V0L13.5 9.00043Z" fill="#6DA544"/>
<path d="M3.61918 9.00085C3.61918 7.68961 4.54077 6.59416 5.77138 6.32542C5.57859 6.28315 5.38181 6.26179 5.18444 6.26172C3.6716 6.26172 2.44531 7.48806 2.44531 9.00085C2.44531 10.5136 3.67165 11.74 5.18444 11.74C5.386 11.74 5.58222 11.7176 5.77138 11.6763C4.54072 11.4075 3.61918 10.3121 3.61918 9.00085Z" fill="white"/>
<path d="M5.7422 6.65234L5.88786 7.10074H6.3593L5.97793 7.37792L6.12358 7.82626L5.7422 7.54914L5.36072 7.82626L5.50648 7.37792L5.125 7.10074H5.59645L5.7422 6.65234ZM5.7422 7.82626L5.88786 8.27466H6.3593L5.97793 8.55178L6.12358 9.00018L5.7422 8.72306L5.36072 9.00018L5.50648 8.55178L5.125 8.27466H5.59645L5.7422 7.82626ZM5.7422 9.00018L5.88786 9.44858H6.3593L5.97793 9.7257L6.12358 10.1741L5.7422 9.89698L5.36072 10.1741L5.50648 9.7257L5.125 9.44858H5.59645L5.7422 9.00018ZM5.7422 10.1741L5.88786 10.6225H6.3593L5.97793 10.8996L6.12358 11.348L5.7422 11.0709L5.36072 11.348L5.50648 10.8996L5.125 10.6225H5.59645L5.7422 10.1741Z" fill="white"/>
</g>
<rect x="0.5" y="0.5" width="26" height="17" rx="0.5" stroke="black" stroke-opacity="0.2"/>
<defs>
<clipPath id="clip0_109_43742">
<rect width="27" height="18" rx="1" fill="white"/>
</clipPath>
</defs>
</svg>
