<svg width="136" height="136" viewBox="0 0 136 136" fill="none" xmlns="http://www.w3.org/2000/svg">
<g clip-path="url(#clip0_17_28568)">
<path fill-rule="evenodd" clip-rule="evenodd" d="M99.5165 31.6202L11.3987 47.9519C10.1697 48.1796 9.35811 49.3605 9.58588 50.5895L18.3291 97.7637C18.5569 98.9926 19.7378 99.8042 20.9667 99.5764L76.3781 89.3065L76.5361 88.1044L100.376 74.4198L100.347 68.1356C100.341 67.0058 100.945 65.9634 101.922 65.4023L107.487 62.208L102.154 33.433C101.926 32.204 100.745 31.3924 99.5165 31.6202Z" fill="#EAEAEA"/>
<path fill-rule="evenodd" clip-rule="evenodd" d="M102.154 33.433L102.83 37.0795L64.099 76.0521C63.4416 76.7136 62.4458 76.9041 61.5907 76.5319L10.2523 54.1872L9.58588 50.5895C9.35811 49.3605 10.1697 48.1796 11.3987 47.9519L99.5165 31.6202C100.745 31.3924 101.926 32.204 102.154 33.433Z" fill="#A0A09F" fill-opacity="0.15"/>
<path fill-rule="evenodd" clip-rule="evenodd" d="M11.3343 47.9625L99.5764 31.6078C100.805 31.38 101.986 32.1916 102.214 33.4206C102.349 34.1499 102.118 34.8992 101.596 35.4261L63.6228 73.7405C62.9647 74.4045 61.9661 74.5955 61.1095 74.2212L10.8408 52.2615C9.69545 51.7612 9.17257 50.4271 9.67291 49.2817C9.97354 48.5936 10.596 48.0993 11.3343 47.9625Z" fill="#F1F1F1"/>
<path d="M75.0015 68.5846C76.1859 74.9751 71.9655 81.1158 65.575 82.3002C59.1845 83.4846 53.0438 79.2643 51.8594 72.8738C50.675 66.4833 54.8954 60.3426 61.2859 59.1582C67.6764 57.9738 73.8171 62.1941 75.0015 68.5846Z" fill="#A0A09F" fill-opacity="0.15"/>
<path fill-rule="evenodd" clip-rule="evenodd" d="M61.1381 81.9971C54.6427 81.827 49.5151 76.4236 49.6852 69.9282C49.8553 63.4329 55.2587 58.3052 61.754 58.4753C68.2494 58.6454 73.377 64.0488 73.2069 70.5442C73.0368 77.0395 67.6334 82.1671 61.1381 81.9971Z" fill="#DB0007"/>
<path fill-rule="evenodd" clip-rule="evenodd" d="M64.3838 65.0022C65.559 65.033 66.3815 70.0123 66.2215 76.1236L67.9246 76.1682C68.0969 69.5863 66.5214 64.2063 64.4061 64.1509C63.2026 64.1193 62.0869 65.695 61.3193 68.1838C60.683 65.6583 59.6513 64.0264 58.4477 63.9948C56.3329 63.9395 54.4775 69.2297 54.3051 75.8115L56.0082 75.8561C56.1682 69.7449 57.2507 64.8154 58.4254 64.8462C59.6006 64.8769 60.4336 69.4751 60.2859 75.1162L61.9884 75.1608C62.1361 69.5197 63.2087 64.9714 64.3838 65.0022Z" fill="#FFBC0D"/>
<path d="M115.677 114.627C115.677 117.621 95.9402 120.049 71.5942 120.049C47.2481 120.049 27.5117 117.621 27.5117 114.627C27.5117 111.633 47.2481 109.205 71.5942 109.205C95.9402 109.205 115.677 111.633 115.677 114.627Z" fill="#A0A09F" fill-opacity="0.15"/>
<path fill-rule="evenodd" clip-rule="evenodd" d="M114.201 60.4329C114.678 60.1589 115.267 60.1605 115.744 60.4371L127.205 67.0871C127.677 67.3605 127.968 67.8617 127.97 68.4043L128.032 81.5976C128.035 82.1465 127.742 82.6542 127.264 82.9282L115.885 89.4599C115.408 89.734 114.819 89.7324 114.342 89.4557L107.715 85.6103L105.739 89.2065L99.3794 89.0567L96.3298 94.6075L89.97 94.4578L86.9204 100.009L77.0039 97.8077L78.1261 89.2704L102.088 75.5159L102.054 68.2953C102.052 67.7464 102.345 67.2386 102.822 66.9646L114.201 60.4329ZM118.821 69.6588C117.54 70.3941 117.107 72.0339 117.855 73.3214C118.603 74.6088 120.247 75.0564 121.528 74.3211C122.809 73.5857 123.242 71.946 122.494 70.6585C121.746 69.3711 120.102 68.9235 118.821 69.6588ZM81.0194 90.4101C80.7196 90.5814 80.6242 90.9757 80.8064 91.2909C80.9887 91.6061 81.3795 91.7227 81.6793 91.5514L102.77 79.5036C103.07 79.3323 103.165 78.9379 102.983 78.6228C102.801 78.3076 102.41 78.1909 102.11 78.3622L81.0194 90.4101Z" fill="#FFBC0D"/>
<path fill-rule="evenodd" clip-rule="evenodd" d="M109.002 61.5623L103.735 33.1395C103.345 31.037 101.325 29.6485 99.2221 30.0382L11.1043 46.3698C9.00185 46.7595 7.61335 48.7798 8.00302 50.8823L16.7462 98.0564C17.1359 100.159 19.1562 101.547 21.2587 101.158L76.2809 90.96L75.2163 99.0593L87.7488 101.841L90.9085 96.0894L97.2684 96.2391L100.318 90.6883L106.678 90.838L108.331 87.8285L113.534 90.8475C114.507 91.412 115.709 91.416 116.685 90.8554L128.064 84.3238C129.042 83.7626 129.645 82.7203 129.64 81.5904L129.578 68.3971C129.573 67.2807 128.974 66.2545 128.012 65.6961L116.551 59.0462C115.578 58.4817 114.376 58.4777 113.4 59.0382L109.002 61.5623ZM107.714 85.6107L114.342 89.4561C114.818 89.7328 115.407 89.7344 115.885 89.4603L127.264 82.9287C127.741 82.6546 128.034 82.1469 128.031 81.598L127.97 68.4047C127.967 67.8621 127.676 67.361 127.205 67.0875L115.743 60.4376C115.267 60.1609 114.678 60.1593 114.2 60.4334L102.821 66.965C102.344 67.2391 102.051 67.7468 102.053 68.2957L102.087 75.5163L78.1254 89.2709L77.0032 97.8081L86.9197 100.009L89.9692 94.4582L96.3291 94.608L99.3786 89.0571L105.739 89.2069L107.714 85.6107ZM76.5349 88.104L100.375 74.4194L100.346 68.1352C100.34 67.0054 100.944 65.9631 101.921 65.4019L107.486 62.2076L102.153 33.4326C101.925 32.2037 100.744 31.3921 99.5153 31.6198L11.3975 47.9515C10.1685 48.1793 9.35691 49.3602 9.58468 50.5891L18.3279 97.7633C18.5557 98.9922 19.7366 99.8038 20.9655 99.5761L76.3769 89.3062L76.5349 88.104ZM119.621 71.0544C119.123 71.3398 118.939 71.9871 119.245 72.514C119.554 73.0462 120.224 73.2151 120.727 72.9264C121.224 72.6409 121.408 71.9936 121.102 71.4667C120.793 70.9345 120.124 70.7656 119.621 71.0544ZM81.0187 90.4105C80.7188 90.5818 80.6235 90.9762 80.8057 91.2913C80.9867 91.6044 81.3736 91.7216 81.6726 91.5552C81.6746 91.5541 81.6766 91.553 81.6786 91.5519L102.769 79.504C103.069 79.3327 103.165 78.9384 102.982 78.6232C102.801 78.3101 102.415 78.1929 102.116 78.3593C102.114 78.3604 102.112 78.3615 102.11 78.3627L81.0187 90.4105ZM118.82 69.6592C117.539 70.3946 117.107 72.0344 117.854 73.3218C118.602 74.6092 120.246 75.0568 121.527 74.3215C122.808 73.5862 123.241 71.9464 122.493 70.6589C121.746 69.3715 120.101 68.9239 118.82 69.6592Z" fill="white"/>
</g>
<defs>
<clipPath id="clip0_17_28568">
<rect width="136" height="136" fill="white"/>
</clipPath>
</defs>
</svg>
