<svg width="27" height="18" viewBox="0 0 27 18" fill="none" xmlns="http://www.w3.org/2000/svg">
<g clip-path="url(#clip0_109_43896)">
<path d="M0 0H27V18H0V0Z" fill="white"/>
<path d="M8.29676 10.5357C8.29676 10.5357 7.82004 12.8523 7.27846 12.6656C6.71842 12.479 6.35402 11.6763 6.35402 11.6763L5.58832 12.7964C5.58832 12.7964 7.60172 13.2436 7.75096 13.0849C7.81529 13.0248 8.18391 12.2886 8.29623 11.7111V10.5357H8.29676ZM5.33678 13.7298C5.33678 13.7298 5.206 14.794 5.28088 14.9248C5.34627 15.0461 7.36283 15.5223 7.36283 15.5223C7.36283 15.5223 6.04658 16.3903 5.79451 16.6055L4.84213 15.0276L4.80469 13.7298H5.33678ZM5.93426 4.99219C5.93426 4.99219 8.02518 7.18596 8.06262 7.39162C8.10006 7.5878 7.8385 7.55985 7.8385 7.55985C7.8385 7.55985 5.47652 5.58071 5.206 5.39403C4.92598 5.20682 5.93426 4.99219 5.93426 4.99219Z" fill="#E6BC00"/>
<path d="M5.24238 5.52319C5.24238 5.52319 6.13833 5.48575 6.11988 4.91621C6.10142 4.35617 5.53189 4.13204 5.1116 4.26283C4.6913 4.38412 3.89818 4.97211 4.39283 6.11118C4.88748 7.24076 5.62523 7.66106 5.77447 8.63191C5.77447 8.63191 5.48654 9.15187 4.76619 8.65036C3.87497 8.02968 4.43923 6.63378 4.21564 6.27941C3.99152 5.90604 2.05617 4.22697 2.05617 4.22697C2.05617 4.22697 0.461478 6.30314 1.10695 8.17786C2.00079 10.7729 3.83542 9.86432 4.51412 10.1164C4.51412 10.1164 2.29242 13.3838 1.90007 13.6544C1.90007 13.6544 3.16992 14.0931 4.42078 12.6651C4.42078 12.6651 4.72874 13.1787 4.79413 13.7293H5.33572C5.58779 12.3476 8.05207 10.3405 7.96822 9.38813C7.87488 8.26751 5.37316 6.78355 5.24238 5.52319Z" fill="#ADADAD"/>
<path d="M18.9412 10.6153C18.9412 10.6153 19.4137 12.8528 19.9553 12.6662C20.5153 12.4795 20.8797 11.6769 20.8797 11.6769L21.6454 12.7969C21.6454 12.7969 19.6942 13.2441 19.545 13.0854C19.4812 13.0253 19.0535 12.3582 18.9375 11.785L18.9412 10.6153ZM21.897 13.7298C21.897 13.7298 22.0277 14.794 21.9529 14.9248C21.8875 15.0461 19.8709 15.5223 19.8709 15.5223C19.8709 15.5223 21.1871 16.3903 21.4392 16.6055L22.3916 15.0276L22.429 13.7298H21.897ZM21.2995 4.99219C21.2995 4.99219 19.2086 7.18596 19.1711 7.39162C19.1337 7.5878 19.3952 7.55985 19.3952 7.55985C19.3952 7.55985 21.7572 5.58071 22.0277 5.39403C22.2988 5.20682 21.2995 4.99219 21.2995 4.99219Z" fill="#E6BC00"/>
<path d="M8.29688 4.58984H18.9381V12.2607C18.9381 13.1076 18.4271 13.3887 17.7827 13.9403L15.3612 16.0185C14.3988 16.8423 12.8347 16.8396 11.877 16.0185L9.4507 13.9392C8.81367 13.3934 8.29688 13.1107 8.29688 12.2612V4.58984Z" fill="#125ECC"/>
<path d="M10.5763 7.79131C10.1565 7.79131 9.81641 7.45117 9.81641 7.0314C9.81641 6.61163 10.1565 6.27149 10.5763 6.27149C10.9961 6.27149 11.3362 6.61163 11.3362 7.0314C11.3362 7.45117 10.9961 7.79131 10.5763 7.79131ZM13.6164 7.6331C13.1967 7.6331 12.8565 7.29296 12.8565 6.87319C12.8565 6.45342 13.1967 6.11328 13.6164 6.11328C14.0362 6.11328 14.3763 6.45342 14.3763 6.87319C14.3763 7.29296 14.0362 7.6331 13.6164 7.6331ZM16.6566 7.79131C16.2368 7.79131 15.8967 7.45117 15.8967 7.0314C15.8967 6.61163 16.2368 6.27149 16.6566 6.27149C17.0763 6.27149 17.4165 6.61163 17.4165 7.0314C17.4165 7.45117 17.0763 7.79131 16.6566 7.79131ZM11.3362 14.4739C10.9164 14.4739 10.5763 14.1337 10.5763 13.714C10.5763 13.2942 10.9164 12.9541 11.3362 12.9541C11.756 12.9541 12.0961 13.2942 12.0961 13.714C12.0966 14.1337 11.756 14.4739 11.3362 14.4739ZM13.6164 15.2343C13.1967 15.2343 12.8565 14.8942 12.8565 14.4744C12.8565 14.0546 13.1967 13.7145 13.6164 13.7145C14.0362 13.7145 14.3763 14.0546 14.3763 14.4744C14.3763 14.8936 14.0362 15.2343 13.6164 15.2343ZM15.8967 14.4739C15.4769 14.4739 15.1368 14.1337 15.1368 13.714C15.1368 13.2942 15.4769 12.9541 15.8967 12.9541C16.3164 12.9541 16.6566 13.2942 16.6566 13.714C16.6566 14.1337 16.3164 14.4739 15.8967 14.4739Z" fill="#FFE600"/>
<path d="M8.29688 9.24609H18.9381V12.2862H8.29688V9.24609Z" fill="#D60537"/>
<path d="M7.53516 2.31068C7.53516 2.31068 10.5753 1.55078 13.616 1.55078C16.6566 1.55078 19.6968 2.31068 19.6968 2.31068L18.9369 5.35082C18.9369 5.35082 16.2764 4.59092 13.6165 4.59092C10.9566 4.59092 8.29611 5.35082 8.29611 5.35082L7.53516 2.31068Z" fill="#EACE00"/>
<path d="M13.6164 3.83231C13.1967 3.83231 12.8565 3.49217 12.8565 3.07241C12.8565 2.65264 13.1967 2.3125 13.6164 2.3125C14.0362 2.3125 14.3763 2.65264 14.3763 3.07241C14.3763 3.49217 14.0362 3.83231 13.6164 3.83231ZM16.6566 4.09598C16.2368 4.09598 15.8967 3.75585 15.8967 3.33608C15.8967 2.91631 16.2368 2.57617 16.6566 2.57617C17.0763 2.57617 17.4165 2.91631 17.4165 3.33608C17.4165 3.75585 17.0763 4.09598 16.6566 4.09598ZM10.5763 4.09598C10.1565 4.09598 9.81641 3.75585 9.81641 3.33608C9.81641 2.91631 10.1565 2.57617 10.5763 2.57617C10.9961 2.57617 11.3362 2.91631 11.3362 3.33608C11.3362 3.75585 10.9961 4.09598 10.5763 4.09598Z" fill="#7A6920"/>
<path d="M19.2521 9.38813C19.1682 10.3405 21.6325 12.3476 21.8846 13.7293H22.4262C22.4916 13.1787 22.7995 12.6651 22.7995 12.6651C24.0504 14.0937 25.3202 13.6544 25.3202 13.6544C24.9279 13.3838 22.7062 10.1164 22.7062 10.1164C23.3854 9.86432 25.22 10.7729 26.1134 8.17786C26.7588 6.30314 25.1641 4.22697 25.1641 4.22697C25.1641 4.22697 23.2288 5.90604 23.0047 6.27941C22.7805 6.63431 23.3453 8.0302 22.4541 8.65036C21.7338 9.15187 21.4458 8.63191 21.4458 8.63191C21.5951 7.66106 22.3328 7.24076 22.8275 6.11118C23.3221 4.97211 22.529 4.38412 22.1087 4.26283C21.6884 4.13204 21.1194 4.35617 21.1004 4.91621C21.082 5.48575 21.9779 5.52319 21.9779 5.52319C21.8471 6.78355 19.3454 8.26751 19.2521 9.38813Z" fill="#ADADAD"/>
<path d="M13.6154 11.6606C14.1085 11.6606 14.5082 11.2609 14.5082 10.7678C14.5082 10.2747 14.1085 9.875 13.6154 9.875C13.1224 9.875 12.7227 10.2747 12.7227 10.7678C12.7227 11.2609 13.1224 11.6606 13.6154 11.6606Z" fill="white"/>
</g>
<rect x="0.5" y="0.5" width="26" height="17" rx="0.5" stroke="black" stroke-opacity="0.2"/>
<defs>
<clipPath id="clip0_109_43896">
<rect width="27" height="18" rx="1" fill="white"/>
</clipPath>
</defs>
</svg>
