<svg width="136" height="136" viewBox="0 0 136 136" fill="none" xmlns="http://www.w3.org/2000/svg">
<path d="M116.385 126.318C116.385 130.181 94.9869 133.313 68.591 133.313C42.195 133.313 20.7969 130.181 20.7969 126.318C20.7969 122.456 42.195 119.324 68.591 119.324C94.9869 119.324 116.385 122.456 116.385 126.318Z" fill="#A0A09F" fill-opacity="0.15"/>
<path fill-rule="evenodd" clip-rule="evenodd" d="M27.8922 48.3302H24.0141C24.0141 48.3302 26.3853 66.9297 30.059 85.325C33.7327 103.72 38.7906 122.32 38.7906 122.32L44.1639 126.319C44.1639 126.319 54.2388 122.32 67.672 122.32C81.1052 122.32 91.8517 126.319 91.8517 126.319L97.225 122.32C97.225 122.32 102.242 103.924 105.957 85.325C109.671 66.7255 112.002 48.3302 112.002 48.3302H108.624L109.335 45.6637H109.335C112.001 36.9982 113.335 30.9991 114.668 22.3337C111.231 21.3752 106.701 22.2133 106.401 23.3962C106.05 24.7786 105.791 25.7042 105.486 26.7925L105.486 26.7929L105.486 26.7938L105.486 26.7953C105.345 27.299 105.194 27.8377 105.02 28.4727C103.61 26.9062 100.691 26.1034 97.8497 25.8332C97.1366 32.34 96.4269 35.0805 94.8843 41.038L94.8841 41.0388C94.74 41.5954 94.5886 42.1801 94.4292 42.7985C94.7966 33.8001 95.3275 28.8095 96.8913 19.4977C93.6819 18.8498 89.5033 19.3788 88.2142 21.6958C87.3664 27.0118 86.9125 29.9593 86.595 34.5837L86.5421 33.1837C86.257 25.6307 86.0765 20.8478 85.3943 12.6314C81.3275 12.9556 77.5499 14.8325 76.8519 17.3404L76.8961 17.9505C76.979 19.0941 77.0903 20.6274 77.1483 21.5805C74.3489 21.5181 71.3222 22.7231 70.2244 23.6009C69.7331 26.0539 69.4305 28.1144 69.1387 30.1006V30.1006C68.6902 33.1537 68.2675 36.0311 67.2254 39.8889C67.2254 39.8889 66.5297 34.9733 68.9149 14.4818C69.058 13.2522 64.4861 10.1414 61.24 9.70975C60.5113 15.6749 59.8715 21.6315 59.3106 27.5852C58.9907 20.5598 58.4466 13.4972 57.6662 6.36605C55.1969 5.93135 49.9077 10.327 50.0274 11.5416C51.4108 25.6027 51.4361 27.8302 51.5131 37.2423C50.2534 28.7002 49.7298 25.5492 48.5784 20.4031C45.3371 20.6451 40.7111 24.0974 40.9498 25.2947C42.0964 31.0514 42.32 33.5702 42.6934 41.1041C41.6896 35.4588 40.8629 32.1989 39.8852 28.344L39.8852 28.3439L39.8852 28.3439C39.2841 25.974 38.6261 23.3792 37.8348 19.8669C37.7085 19.3055 32.0105 17.592 28.8462 18.4331C29.1029 19.4896 29.364 20.5463 29.625 21.603L29.6251 21.6032L29.6251 21.6034C31.1479 27.7675 32.6699 33.9281 33.3248 40.0012C31.5241 35.3258 29.8496 30.5513 28.3291 25.6357C25.1798 26.5315 21.1743 32.5813 21.3535 33.1283C22.3001 36.0158 23.4272 38.4505 24.5834 40.9478C25.2829 42.4587 25.993 43.9926 26.6802 45.6635L26.68 45.6636L27.8922 48.3302Z" fill="white"/>
<path fill-rule="evenodd" clip-rule="evenodd" d="M24.0195 48.3301H34.6847C34.6847 48.3301 43.4977 73.6598 67.6774 73.6598C91.8572 73.6598 101.342 48.3301 101.342 48.3301H112.007C112.007 48.3301 109.677 66.7254 105.962 85.3248C102.248 103.924 97.2305 122.32 97.2305 122.32L91.8572 126.319C91.8572 126.319 81.1106 122.32 67.6774 122.32C54.2442 122.32 44.1693 126.319 44.1693 126.319L38.7961 122.32C38.7961 122.32 33.7382 103.72 30.0645 85.3248C26.3907 66.9295 24.0195 48.3301 24.0195 48.3301Z" fill="#DB0007"/>
<path fill-rule="evenodd" clip-rule="evenodd" d="M74.4426 81.6582C71.439 81.6582 68.7596 85.515 67.006 91.5457C65.2542 85.515 62.5736 81.6582 59.5694 81.6582C54.2901 81.6582 50.0078 94.4913 50.0078 110.321H54.2578C54.2578 95.6221 56.637 83.7059 59.5694 83.7059C62.5036 83.7059 64.8816 94.7063 64.8816 108.274H69.131C69.131 94.7063 71.509 83.7059 74.4426 83.7059C77.3762 83.7059 79.7548 95.6221 79.7548 110.321H84.003C84.003 94.4913 79.7231 81.6582 74.4426 81.6582Z" fill="#FFBC0D"/>
<path fill-rule="evenodd" clip-rule="evenodd" d="M37.3454 45.6637C37.3454 45.6637 46.0108 70.9934 68.0077 70.9934C90.0046 70.9934 98.67 45.6637 98.67 45.6637C98.67 45.6637 104.669 45.6637 109.335 45.6637C112.001 36.9982 113.335 30.9991 114.668 22.3337C111.231 21.3752 106.701 22.2133 106.401 23.3962C105.887 25.4196 105.571 26.4643 105.02 28.4727C103.61 26.9062 100.691 26.1034 97.8497 25.8332C97.0699 32.9481 96.2943 35.5599 94.4292 42.7985C94.7966 33.8001 95.3275 28.8095 96.8913 19.4977C93.6819 18.8498 89.5033 19.3788 88.2142 21.6958C87.3664 27.0118 86.9125 29.9593 86.595 34.5837C86.277 26.1959 86.1176 21.344 85.3943 12.6314C81.3275 12.9556 77.5499 14.8325 76.8519 17.3404C76.9342 18.4824 77.0791 20.4439 77.1483 21.5805C74.3489 21.5181 71.3222 22.7231 70.2244 23.6009C68.978 29.8248 68.9455 33.5215 67.2254 39.8889C67.2254 39.8889 66.5297 34.9733 68.9149 14.4818C69.058 13.2522 64.4861 10.1414 61.24 9.70975C60.5113 15.6749 59.8715 21.6315 59.3106 27.5852C58.9907 20.5598 58.4466 13.4972 57.6662 6.36605C55.1969 5.93135 49.9077 10.327 50.0274 11.5416C51.4108 25.6027 51.4361 27.8302 51.5131 37.2423C50.2534 28.7002 49.7298 25.5492 48.5784 20.4031C45.3371 20.6451 40.7111 24.0974 40.9498 25.2947C42.0964 31.0514 42.32 33.5702 42.6934 41.1041C41.0725 31.9881 39.9133 29.0923 37.8348 19.8669C37.7085 19.3055 32.0105 17.592 28.8462 18.4331C30.6006 25.6525 32.5576 32.8869 33.3248 40.0012C31.5241 35.3258 29.8496 30.5513 28.3291 25.6357C25.1798 26.5315 21.1743 32.5813 21.3535 33.1283C22.8728 37.7628 24.8573 41.2308 26.6802 45.6637H37.3454Z" fill="#FFBC0D"/>
<path fill-rule="evenodd" clip-rule="evenodd" d="M46.7097 11.8686C46.482 9.55699 48.1864 7.65991 50.8919 5.65693C53.4258 3.78098 55.9349 2.67757 58.2431 3.08392C59.7026 3.34084 60.8172 4.53059 60.9784 6.00372L61.0185 6.38418L61.1046 6.37929C61.246 6.37375 61.3892 6.3772 61.5337 6.39012L61.6785 6.40623C66.3453 7.02686 72.6636 11.0938 72.2245 14.8674C72.1262 15.7119 72.0324 16.5363 71.9429 17.3408L71.7443 19.157L71.9307 19.0951C72.4644 18.9207 73.0179 18.7682 73.5795 18.6424L73.6027 18.6371L73.5299 17.623L73.5185 17.3896C73.5138 17.0715 73.5547 16.7541 73.6402 16.447C74.7781 12.3587 79.6681 9.74463 85.1286 9.30929C86.9592 9.16335 88.563 10.5257 88.7149 12.3559C88.8057 13.4492 88.8885 14.4916 88.9645 15.4999L89.0631 16.846L89.0936 16.8333C91.464 15.832 94.439 15.6473 97.3046 16.1833L97.5499 16.231C99.3125 16.5868 100.475 18.2766 100.177 20.0499C100.089 20.5756 100.004 21.0871 99.9224 21.586L99.7403 22.7112L100.238 22.7939C101.128 22.9516 101.976 23.1558 102.77 23.4102L102.94 23.4657L103.048 23.0522L103.169 22.577C104.141 18.7479 110.715 17.7715 115.562 19.1236C117.187 19.5769 118.217 21.1731 117.961 22.8407C116.69 31.0998 115.417 36.9234 113.189 44.43L112.976 45.1427L113.042 45.1628C114.471 45.6318 115.457 47.0389 115.321 48.6137L115.307 48.7491C113.743 61.0914 111.716 73.501 109.224 85.9777C106.733 98.4527 103.804 110.859 100.439 123.197C100.243 123.916 99.8119 124.548 99.214 124.993L93.8407 128.993C92.9342 129.667 91.7474 129.837 90.6883 129.443C83.912 126.921 76.2442 125.653 67.671 125.653C59.1162 125.653 51.6942 126.915 45.3926 129.417C44.3184 129.843 43.1 129.683 42.1729 128.993L36.7996 124.993C36.201 124.548 35.7693 123.914 35.5735 123.194C32.1818 110.722 29.2538 98.3162 26.7897 85.9777C24.3252 73.6375 22.2976 61.2288 20.7069 48.7517C20.505 47.1673 21.4457 45.728 22.8497 45.2055L22.8585 45.202L22.5248 44.4549L22.2175 43.7786L20.9594 41.0507C19.8068 38.5336 19.0614 36.7463 18.3861 34.7666L18.1853 34.166C17.5291 32.1627 18.6502 30.3161 21.0035 27.4139L21.2239 27.1452C22.8429 25.1943 24.5181 23.6835 26.2647 22.8644L26.4787 22.7678L25.6067 19.2204C25.1786 17.4588 26.237 15.6781 27.989 15.2124C30.0227 14.6718 32.5565 14.8038 35.1772 15.3655C36.2119 15.5872 37.2009 15.8697 37.9956 16.169C38.4458 16.3385 38.8416 16.5154 39.1881 16.7124C39.4546 16.8638 39.6999 17.03 39.9393 17.2391C40.473 17.7052 40.8905 18.2687 41.0852 19.1346L41.2713 19.9529L41.5824 19.736C43.3695 18.5192 45.3575 17.5982 47.2271 17.2306L47.1581 16.4964L46.7097 11.8686ZM59.31 27.5852C58.9901 20.5598 58.446 13.4971 57.6656 6.36602C55.1963 5.93133 49.9072 10.3269 50.0268 11.5416C51.146 22.9168 51.3763 26.5475 51.4642 32.5027L51.5125 37.2423C50.3634 29.4495 49.8267 26.1435 48.8672 21.7163L48.5778 20.4031C45.3365 20.645 40.7105 24.0974 40.9492 25.2946C41.9811 30.4757 42.2655 33.034 42.5842 38.9861L42.6928 41.1041C41.689 35.4587 40.8623 32.1988 39.8846 28.3439C39.3493 26.2333 38.7688 23.9444 38.0893 20.988L37.8342 19.8669C37.7079 19.3055 32.0099 17.5919 28.8456 18.4331C29.1023 19.4897 29.3635 20.5466 29.6245 21.6034C31.1474 27.7675 32.6693 33.9281 33.3242 40.0012C31.5235 35.3257 29.849 30.5513 28.3285 25.6357C25.1792 26.5315 21.1737 32.5813 21.3529 33.1282C22.2995 36.0158 23.4266 38.4505 24.5828 40.9478C25.1847 42.2478 25.7944 43.5648 26.3906 44.9714L26.6796 45.6637L27.8915 48.3299H24.0134C25.5942 60.7296 27.6091 73.0611 30.0583 85.3247C32.5075 97.5882 35.418 109.92 38.7899 122.319L44.1632 126.319C50.8798 123.653 58.7158 122.319 67.6713 122.319C76.6267 122.319 84.6867 123.653 91.851 126.319L97.2243 122.319C100.569 110.056 103.48 97.7243 105.956 85.3247C108.432 72.925 110.447 60.5935 112.001 48.3299H108.623L109.335 45.6637L109.573 44.8831C112.082 36.6322 113.374 30.7365 114.667 22.3336C111.231 21.3751 106.7 22.2133 106.4 23.3961C106.229 24.0706 106.08 24.6363 105.936 25.1652L105.019 28.4726C103.609 26.9061 100.69 26.1034 97.8491 25.8332C97.2179 31.5929 96.5893 34.4016 95.3834 39.1026L94.4287 42.7985C94.7781 34.239 95.2755 29.3059 96.6692 20.8305L96.8908 19.4977C93.6813 18.8498 89.5027 19.3788 88.2136 21.6958C87.4224 26.6574 86.9742 29.5557 86.6598 33.6799L86.5945 34.5836C86.5763 34.106 86.5587 33.6397 86.5415 33.1836C86.2737 26.0884 86.0981 21.4376 85.5124 14.0885L85.3938 12.6313C81.327 12.9556 77.5493 14.8324 76.8513 17.3404C76.8646 17.5249 76.8796 17.7309 76.8955 17.9513C76.9557 18.78 77.0307 19.8133 77.0894 20.682L77.1477 21.5805C74.3483 21.518 71.3217 22.7231 70.2238 23.6009C69.7325 26.0539 69.4299 28.1144 69.1381 30.1005C68.6896 33.1536 68.267 36.0311 67.2248 39.8889C67.2248 39.8889 66.5837 35.3587 68.6426 16.8667L68.9143 14.4818C69.0574 13.2522 64.4855 10.1414 61.2394 9.70972C60.5107 15.6748 59.871 21.6315 59.31 27.5852Z" fill="white"/>
</svg>
