<svg width="136" height="136" viewBox="0 0 136 136" fill="none" xmlns="http://www.w3.org/2000/svg">
<g clip-path="url(#clip0_1001_45082)">
<g clip-path="url(#clip1_1001_45082)">
<path d="M40.1982 56.2129C41.1078 56.2129 42.0049 56.267 42.8867 56.3701L43.3955 60.082C45.2271 60.3991 46.9706 60.9749 48.5869 61.7686L51.2119 59.0312C52.8631 59.9387 54.3895 61.0444 55.7607 62.3154L53.959 65.6777C55.2254 66.984 56.309 68.4685 57.1689 70.0898L60.9453 69.4102C61.73 71.085 62.3174 72.8701 62.6787 74.7363L59.2207 76.4092C59.3466 77.3006 59.4141 78.2116 59.4141 79.1377C59.4141 80.0635 59.3465 80.9741 59.2207 81.8652L62.6709 83.5332C62.306 85.3999 61.7144 87.1849 60.9258 88.8594L57.1689 88.1846C56.3091 89.8059 55.2263 91.2904 53.96 92.5967L55.7451 95.9268C54.3698 97.1992 52.8387 98.3048 51.1826 99.2119L48.5869 96.5059C46.9705 97.2997 45.2273 97.8753 43.3955 98.1924L42.8926 101.856C42.0088 101.96 41.1099 102.016 40.1982 102.016C39.1994 102.016 38.2151 101.95 37.25 101.826L36.752 98.1924C34.9199 97.8752 33.1762 97.2998 31.5596 96.5059L29.0498 99.1211C27.3899 98.1942 25.857 97.0677 24.4844 95.7725L26.1875 92.5977C24.9209 91.2912 23.8374 89.8061 22.9775 88.1846L19.4492 88.8184C18.655 87.1232 18.0632 85.3147 17.7031 83.4238L20.9258 81.8662C20.7999 80.9749 20.7344 80.0638 20.7344 79.1377C20.7344 78.2116 20.7999 77.3006 20.9258 76.4092L17.6953 74.8467C18.0517 72.9558 18.6393 71.147 19.4297 69.4512L22.9775 70.0898C23.8374 68.4684 24.921 66.9841 26.1875 65.6777L24.4678 62.4707C25.8367 61.1765 27.3651 60.0496 29.0205 59.1221L31.5596 61.7686C33.1762 60.9746 34.92 60.3992 36.752 60.082L37.2568 56.3994C38.2197 56.276 39.2018 56.2129 40.1982 56.2129ZM40.0732 72.6914C36.513 72.6915 33.627 75.5774 33.627 79.1377C33.627 82.6979 36.513 85.5839 40.0732 85.584C43.6336 85.584 46.5204 82.698 46.5205 79.1377C46.5205 75.5773 43.6336 72.6914 40.0732 72.6914Z" fill="#FFBC0D"/>
<path d="M56.4798 25.5255C57.3658 25.7913 58.2144 26.1223 59.0227 26.5107L58.6729 29.2942C60.2487 30.1621 61.6232 31.2971 62.7537 32.6229L65.3653 31.7343C66.4329 33.1632 67.2748 34.7504 67.8607 36.4358L65.7073 38.1082C66.1919 39.782 66.3834 41.5542 66.2407 43.3478L68.6472 44.5326C68.5259 45.3825 68.3406 46.2343 68.0864 47.0815C67.8182 47.9757 67.4826 48.8315 67.0896 49.6464L64.4506 49.3145C63.5824 50.8906 62.447 52.2644 61.1209 53.395L61.9706 55.895C60.5397 56.9793 58.9478 57.8364 57.255 58.4341L55.6356 56.3486C53.9617 56.8332 52.1899 57.0239 50.3963 56.8811L49.2204 59.2679C48.3237 59.1474 47.4246 58.9564 46.5304 58.6882C45.6831 58.434 44.87 58.1198 44.0937 57.7532L44.4296 55.091C42.8538 54.2228 41.4792 53.0882 40.3488 51.7623L37.7671 52.6394C36.6826 51.2225 35.821 49.6459 35.2158 47.968L37.3952 46.2769C36.9108 44.6033 36.7199 42.831 36.8627 41.0376L34.3464 39.7974C34.4671 38.9088 34.6579 38.0181 34.9237 37.1321C35.1755 36.293 35.485 35.487 35.847 34.7175L38.6528 35.0709C39.5209 33.4951 40.6557 32.1206 41.9815 30.9901L41.0655 28.2968C42.4804 27.229 44.0523 26.3826 45.7228 25.7892L47.4669 28.0365C49.1406 27.5519 50.9127 27.3613 52.7062 27.504L53.9557 24.967C54.7974 25.0884 55.6407 25.2737 56.4798 25.5255ZM52.9629 37.4892C50.3651 36.7098 47.6269 38.1842 46.8476 40.7819C46.0684 43.3795 47.5429 46.1169 50.1406 46.8962C52.7381 47.6754 55.4752 46.2016 56.2546 43.6042C57.034 41.0065 55.5604 38.2686 52.9629 37.4892Z" fill="#A0A09F"/>
<path d="M101.665 48.3555C102.895 48.3555 104.108 48.4299 105.3 48.5713L105.776 52.6924C107.717 52.9927 109.588 53.5039 111.364 54.2021L113.831 50.8779C116.032 51.8357 118.099 53.0445 119.994 54.4697L118.345 58.2803C119.835 59.4898 121.19 60.8579 122.386 62.3594L126.193 60.71C127.608 62.6167 128.806 64.6937 129.75 66.9053L126.4 69.3936C127.069 71.1461 127.556 72.9879 127.839 74.8965L131.988 75.376C132.12 76.5258 132.189 77.6948 132.189 78.8799C132.189 80.116 132.114 81.3346 131.971 82.5322L127.792 83.0156C127.49 84.9001 126.99 86.7181 126.312 88.4473L129.702 90.9639C128.747 93.177 127.538 95.2548 126.111 97.1602L122.209 95.4717C121.031 96.9189 119.703 98.2378 118.249 99.4072L119.945 103.326C118.04 104.753 115.962 105.962 113.749 106.917L111.192 103.474C109.478 104.134 107.677 104.622 105.812 104.913L105.317 109.186C104.12 109.328 102.901 109.404 101.665 109.404C100.48 109.404 99.311 109.335 98.1611 109.203L97.667 104.926C95.795 104.639 93.9885 104.153 92.2676 103.495L89.6904 106.965C87.4791 106.021 85.4026 104.823 83.4961 103.408L85.209 99.4521C83.7413 98.2782 82.4015 96.9513 81.2139 95.4951L77.2549 97.208C75.8298 95.3131 74.6207 93.247 73.6631 91.0459L77.1064 88.4902C76.419 86.7457 75.9134 84.9099 75.6094 83.0068L71.3564 82.5146C71.215 81.3227 71.1406 80.1099 71.1406 78.8799C71.1406 77.7006 71.2087 76.537 71.3389 75.3926L75.5625 74.9053C75.8476 72.978 76.3409 71.1187 77.0186 69.3506L73.6152 66.8232C74.5618 64.6239 75.7582 62.5573 77.1709 60.6611L81.0371 62.335C82.2426 60.8245 83.6099 59.4492 85.1133 58.2354L83.4463 54.3857C85.3428 52.9728 87.4096 51.7758 89.6094 50.8291L92.0967 54.1797C93.8789 53.4841 95.7552 52.9762 97.7012 52.6807L98.1777 48.5537C99.3222 48.4235 100.486 48.3555 101.665 48.3555ZM101.665 71.3828C97.5245 71.3829 94.168 74.7393 94.168 78.8799C94.168 83.0205 97.5245 86.3769 101.665 86.377C105.806 86.377 109.162 83.0205 109.162 78.8799C109.162 74.7393 105.806 71.3828 101.665 71.3828Z" fill="#EAEAEA"/>
<ellipse cx="68.6368" cy="122.703" rx="48.3555" ry="6.04444" fill="#A0A09F" fill-opacity="0.15"/>
<path d="M73.4727 115.672C73.4727 116.158 73.4242 116.633 73.333 117.092L71.2773 117.679C71.0803 118.175 70.8118 118.636 70.4854 119.048L71.0049 121.12C70.2945 121.745 69.4614 122.231 68.5459 122.541L67.0098 121.055C66.7518 121.092 66.4881 121.112 66.2197 121.112C65.9512 121.112 65.6868 121.092 65.4287 121.055L63.8936 122.541C62.9778 122.231 62.1451 121.744 61.4346 121.119L61.9531 119.048C61.6266 118.636 61.3582 118.175 61.1611 117.679L59.1064 117.092C59.0153 116.633 58.9658 116.158 58.9658 115.672C58.9658 115.185 59.0151 114.711 59.1064 114.251L61.1611 113.665C61.3582 113.169 61.6267 112.708 61.9531 112.296L61.4346 110.224C62.145 109.599 62.978 109.113 63.8936 108.803L65.4287 110.289C65.6868 110.251 65.9512 110.231 66.2197 110.231C66.4881 110.231 66.7518 110.252 67.0098 110.289L68.5459 108.803C69.4614 109.113 70.2955 109.598 71.0059 110.223L70.4854 112.296C70.8118 112.708 71.0803 113.169 71.2773 113.665L73.333 114.251C73.4243 114.71 73.4727 115.186 73.4727 115.672ZM68.6367 115.672C68.6367 114.337 67.5548 113.254 66.2197 113.254C64.8844 113.254 63.8018 114.337 63.8018 115.672C63.8018 117.007 64.8844 118.09 66.2197 118.09C67.5549 118.09 68.6367 117.007 68.6367 115.672Z" fill="#DB0007"/>
<mask id="path-6-outside-1_1001_45082" maskUnits="userSpaceOnUse" x="15.6953" y="22.9688" width="119" height="102" fill="black">
<rect fill="white" x="15.6953" y="22.9688" width="119" height="102"/>
<path d="M68.5459 108.803C69.4613 109.113 70.2955 109.598 71.0059 110.223L70.4854 112.296C70.8118 112.708 71.0803 113.169 71.2773 113.665L73.333 114.251C73.4243 114.71 73.4726 115.186 73.4727 115.672C73.4727 116.158 73.4241 116.633 73.333 117.092L71.2773 117.679C71.0803 118.175 70.8117 118.636 70.4854 119.048L71.0049 121.12C70.2946 121.745 69.4613 122.231 68.5459 122.541L67.0098 121.055C66.7519 121.092 66.488 121.112 66.2197 121.112C65.9513 121.112 65.6867 121.092 65.4287 121.055L63.8936 122.541C62.9778 122.231 62.1451 121.744 61.4346 121.119L61.9531 119.048C61.6267 118.636 61.3582 118.175 61.1611 117.679L59.1064 117.092C59.0153 116.633 58.9658 116.158 58.9658 115.672C58.9658 115.186 59.0152 114.71 59.1064 114.251L61.1611 113.665C61.3582 113.169 61.6267 112.708 61.9531 112.296L61.4346 110.224C62.145 109.599 62.9781 109.113 63.8936 108.803L65.4287 110.289C65.6867 110.252 65.9513 110.231 66.2197 110.231C66.488 110.231 66.7519 110.252 67.0098 110.289L68.5459 108.803ZM66.2197 113.254C64.8845 113.254 63.8019 114.337 63.8018 115.672C63.8018 117.007 64.8844 118.09 66.2197 118.09C67.5547 118.089 68.6367 117.007 68.6367 115.672C68.6366 114.337 67.5546 113.254 66.2197 113.254ZM101.668 48.3564C102.898 48.3565 104.111 48.4308 105.303 48.5723L105.779 52.6934C107.72 52.9937 109.591 53.5049 111.367 54.2031L113.834 50.8789C116.035 51.8366 118.102 53.0455 119.997 54.4707L118.348 58.2812C119.837 59.4907 121.193 60.859 122.389 62.3604L126.196 60.7109C127.611 62.6175 128.809 64.6949 129.753 66.9062L126.403 69.3945C127.072 71.147 127.559 72.989 127.842 74.8975L131.991 75.377C132.123 76.5267 132.192 77.6959 132.192 78.8809C132.192 80.1168 132.116 81.3357 131.974 82.5332L127.795 83.0166C127.493 84.901 126.993 86.7192 126.315 88.4482L129.705 90.9648C128.75 93.178 127.541 95.2558 126.114 97.1611L122.212 95.4727C121.034 96.9198 119.706 98.2388 118.252 99.4082L119.948 103.327C118.043 104.754 115.965 105.963 113.752 106.918L111.195 103.475C109.481 104.135 107.68 104.623 105.814 104.914L105.32 109.187C104.123 109.329 102.904 109.405 101.668 109.405C100.483 109.405 99.3138 109.335 98.1641 109.204L97.6699 104.927C95.7981 104.64 93.9913 104.154 92.2705 103.496L89.6934 106.966C87.4822 106.022 85.4054 104.824 83.499 103.409L85.2119 99.4531C83.7444 98.2793 82.4044 96.9521 81.2168 95.4961L77.2578 97.209C75.8328 95.3142 74.6236 93.2478 73.666 91.0469L77.1094 88.4912C76.422 86.7468 75.9163 84.9108 75.6123 83.0078L71.3594 82.5156C71.218 81.3238 71.1436 80.1108 71.1436 78.8809C71.1436 77.7016 71.2116 76.5379 71.3418 75.3936L75.5654 74.9062C75.8506 72.9791 76.3438 71.1196 77.0215 69.3516L73.6182 66.8242C74.5648 64.6249 75.7611 62.5583 77.1738 60.6621L81.04 62.3359C82.2455 60.8255 83.6128 59.4502 85.1162 58.2363L83.4492 54.3867C85.3457 52.9738 87.4125 51.7767 89.6123 50.8301L92.0996 54.1807C93.8817 53.4851 95.7582 52.9771 97.7041 52.6816L98.1807 48.5547C99.325 48.4245 100.489 48.3564 101.668 48.3564ZM40.1982 56.2139C41.1078 56.2139 42.0049 56.268 42.8867 56.3711L43.3955 60.083C45.2271 60.4001 46.9706 60.9758 48.5869 61.7695L51.2119 59.0322C52.8631 59.9397 54.3895 61.0454 55.7607 62.3164L53.959 65.6787C55.2254 66.985 56.309 68.4695 57.1689 70.0908L60.9453 69.4111C61.73 71.086 62.3174 72.8711 62.6787 74.7373L59.2207 76.4102C59.3466 77.3015 59.4141 78.2126 59.4141 79.1387C59.4141 80.0644 59.3465 80.9751 59.2207 81.8662L62.6709 83.5342C62.306 85.4008 61.7144 87.1859 60.9258 88.8604L57.1689 88.1855C56.3092 89.8069 55.2263 91.2914 53.96 92.5977L55.7451 95.9277C54.3698 97.2001 52.8386 98.3058 51.1826 99.2129L48.5869 96.5068C46.9705 97.3006 45.2273 97.8762 43.3955 98.1934L42.8926 101.857C42.0088 101.961 41.1099 102.017 40.1982 102.017C39.1994 102.017 38.2151 101.951 37.25 101.827L36.752 98.1934C34.9199 97.8762 33.1762 97.3008 31.5596 96.5068L29.0498 99.1221C27.3899 98.1952 25.857 97.0687 24.4844 95.7734L26.1875 92.5986C24.921 91.2922 23.8374 89.8071 22.9775 88.1855L19.4492 88.8193C18.655 87.1241 18.0632 85.3157 17.7031 83.4248L20.9258 81.8672C20.7999 80.9759 20.7344 80.0647 20.7344 79.1387C20.7344 78.2126 20.7999 77.3015 20.9258 76.4102L17.6953 74.8477C18.0517 72.9568 18.6393 71.148 19.4297 69.4521L22.9775 70.0908C23.8374 68.4694 24.921 66.985 26.1875 65.6787L24.4678 62.4717C25.8366 61.1775 27.3651 60.0506 29.0205 59.123L31.5596 61.7695C33.1762 60.9756 34.92 60.4001 36.752 60.083L37.2568 56.4004C38.2197 56.277 39.2018 56.2139 40.1982 56.2139ZM101.668 71.3838C97.5274 71.3838 94.1709 74.7403 94.1709 78.8809C94.1711 83.0213 97.5275 86.3779 101.668 86.3779C105.808 86.3777 109.165 83.0212 109.165 78.8809C109.165 74.7404 105.808 71.384 101.668 71.3838ZM40.0732 72.6924C36.513 72.6925 33.627 75.5784 33.627 79.1387C33.627 82.6989 36.513 85.5849 40.0732 85.585C43.6336 85.585 46.5204 82.699 46.5205 79.1387C46.5205 75.5784 43.6336 72.6924 40.0732 72.6924ZM53.959 24.9688C54.8005 25.0901 55.6435 25.2757 56.4824 25.5273C57.3683 25.7931 58.2172 26.1244 59.0254 26.5127L58.6758 29.2959C60.2516 30.1639 61.6263 31.2992 62.7568 32.625L65.3682 31.7363C66.4357 33.1652 67.2783 34.7522 67.8643 36.4375L65.71 38.1104C66.1946 39.784 66.3868 41.5561 66.2441 43.3496L68.6504 44.5342C68.5291 45.3839 68.344 46.2359 68.0898 47.083C67.8216 47.9772 67.4858 48.8335 67.0928 49.6484L64.4541 49.3164C63.586 50.8924 62.45 52.2659 61.124 53.3965L61.9736 55.8965C60.5427 56.9807 58.9507 57.8378 57.2578 58.4355L55.6387 56.3506C53.9649 56.8352 52.193 57.0256 50.3994 56.8828L49.2236 59.2695C48.3269 59.149 47.4274 58.9587 46.5332 58.6904C45.686 58.4362 44.8729 58.1214 44.0967 57.7549L44.4326 55.0928C42.8569 54.2246 41.482 53.0905 40.3516 51.7646L37.7705 52.6416C36.686 51.2247 35.824 49.6476 35.2188 47.9697L37.3984 46.2783C36.9141 44.6048 36.7234 42.8323 36.8662 41.0391L34.3496 39.7988C34.4703 38.9104 34.661 38.0196 34.9268 37.1338C35.1785 36.2948 35.4887 35.4892 35.8506 34.7197L38.6562 35.0732C39.5243 33.4975 40.6586 32.1226 41.9844 30.9922L41.0684 28.2988C42.4833 27.231 44.0553 26.3845 45.7256 25.791L47.4697 28.0381C49.1433 27.5535 50.9156 27.3632 52.709 27.5059L53.959 24.9688ZM52.9658 37.4912C50.3681 36.7119 47.6299 38.1865 46.8506 40.7842C46.0717 43.3817 47.5461 46.1191 50.1436 46.8984C52.741 47.6776 55.4782 46.2037 56.2578 43.6064C57.0372 41.0088 55.5634 38.2707 52.9658 37.4912Z"/>
</mask>
<path d="M68.5459 108.803L69.1275 107.085C68.4842 106.867 67.7731 107.027 67.285 107.5L68.5459 108.803ZM71.0059 110.223L72.7646 110.664C72.93 110.005 72.7133 109.309 72.2031 108.861L71.0059 110.223ZM70.4854 112.296L68.7266 111.854C68.5894 112.401 68.7141 112.98 69.064 113.422L70.4854 112.296ZM71.2773 113.665L69.592 114.334C69.7998 114.858 70.2389 115.255 70.7803 115.409L71.2773 113.665ZM73.333 114.251L75.1116 113.898C74.9791 113.23 74.4843 112.694 73.8301 112.507L73.333 114.251ZM73.4727 115.672H75.286V115.672L73.4727 115.672ZM73.333 117.092L73.8308 118.835C74.4848 118.649 74.9793 118.112 75.1117 117.445L73.333 117.092ZM71.2773 117.679L70.7795 115.935C70.2384 116.09 69.7997 116.486 69.592 117.009L71.2773 117.679ZM70.4854 119.048L69.064 117.922C68.7142 118.363 68.5895 118.942 68.7265 119.489L70.4854 119.048ZM71.0049 121.12L72.2021 122.482C72.7122 122.034 72.9289 121.338 72.7638 120.679L71.0049 121.12ZM68.5459 122.541L67.285 123.844C67.7731 124.316 68.4842 124.476 69.1275 124.259L68.5459 122.541ZM67.0098 121.055L68.2707 119.752C67.8668 119.361 67.3046 119.179 66.7486 119.26L67.0098 121.055ZM66.2197 121.112V122.926H66.2199L66.2197 121.112ZM65.4287 121.055L65.6899 119.26C65.1336 119.179 64.5712 119.361 64.1674 119.752L65.4287 121.055ZM63.8936 122.541L63.3122 124.259C63.9556 124.476 64.6668 124.316 65.1549 123.844L63.8936 122.541ZM61.4346 121.119L59.6755 120.679C59.5107 121.337 59.7275 122.033 60.2373 122.481L61.4346 121.119ZM61.9531 119.048L63.7122 119.488C63.8489 118.942 63.7241 118.363 63.3744 117.922L61.9531 119.048ZM61.1611 117.679L62.8465 117.009C62.6388 116.487 62.2002 116.09 61.6592 115.935L61.1611 117.679ZM59.1064 117.092L57.3278 117.445C57.4602 118.112 57.9546 118.649 58.6084 118.835L59.1064 117.092ZM58.9658 115.672L57.1525 115.672V115.672H58.9658ZM59.1064 114.251L58.6092 112.507C57.9551 112.694 57.4604 113.231 57.3279 113.898L59.1064 114.251ZM61.1611 113.665L61.6584 115.409C62.1997 115.254 62.6386 114.857 62.8464 114.334L61.1611 113.665ZM61.9531 112.296L63.3744 113.422C63.7241 112.981 63.8489 112.402 63.7122 111.856L61.9531 112.296ZM61.4346 110.224L60.2375 108.862C59.7276 109.31 59.5107 110.005 59.6755 110.664L61.4346 110.224ZM63.8936 108.803L65.1549 107.5C64.6669 107.027 63.9557 106.867 63.3122 107.085L63.8936 108.803ZM65.4287 110.289L64.1674 111.592C64.5712 111.983 65.1336 112.164 65.6899 112.083L65.4287 110.289ZM66.2197 110.231L66.2199 108.418H66.2197V110.231ZM67.0098 110.289L66.7486 112.083C67.3046 112.164 67.8668 111.983 68.2707 111.592L67.0098 110.289ZM66.2197 113.254L66.2202 111.441H66.2197V113.254ZM63.8018 115.672L61.9884 115.672V115.672H63.8018ZM66.2197 118.09V119.903H66.2202L66.2197 118.09ZM68.6367 115.672H70.4501V115.672L68.6367 115.672ZM101.668 48.3564L101.668 46.5431H101.668V48.3564ZM105.303 48.5723L107.104 48.364C107.008 47.5295 106.351 46.8705 105.516 46.7716L105.303 48.5723ZM105.779 52.6934L103.978 52.9017C104.072 53.7123 104.695 54.3605 105.502 54.4854L105.779 52.6934ZM111.367 54.2031L110.704 55.8908C111.466 56.1905 112.335 55.9416 112.823 55.2837L111.367 54.2031ZM113.834 50.8789L114.557 49.2161C113.784 48.8796 112.88 49.1209 112.378 49.7983L113.834 50.8789ZM119.997 54.4707L121.661 55.191C121.994 54.422 121.757 53.5251 121.087 53.0215L119.997 54.4707ZM118.348 58.2812L116.684 57.5609C116.361 58.3069 116.574 59.1767 117.205 59.689L118.348 58.2812ZM122.389 62.3604L120.97 63.4898C121.481 64.1309 122.357 64.35 123.109 64.0243L122.389 62.3604ZM126.196 60.7109L127.653 59.6304C127.151 58.9538 126.249 58.7121 125.475 59.047L126.196 60.7109ZM129.753 66.9062L130.834 68.3619C131.507 67.8618 131.75 66.9655 131.421 66.1943L129.753 66.9062ZM126.403 69.3945L125.322 67.9389C124.67 68.4231 124.42 69.2818 124.709 70.0406L126.403 69.3945ZM127.842 74.8975L126.048 75.1635C126.168 75.975 126.819 76.6046 127.634 76.6988L127.842 74.8975ZM131.991 75.377L133.793 75.1711C133.697 74.3335 133.037 73.6724 132.199 73.5756L131.991 75.377ZM132.192 78.8809L134.006 78.8809V78.8809H132.192ZM131.974 82.5332L132.182 84.3345C133.016 84.238 133.675 83.5816 133.774 82.7479L131.974 82.5332ZM127.795 83.0166L127.587 81.2153C126.779 81.3087 126.133 81.9276 126.004 82.7299L127.795 83.0166ZM126.315 88.4482L124.627 87.7864C124.328 88.5485 124.577 89.4162 125.234 89.9042L126.315 88.4482ZM129.705 90.9648L131.37 91.6834C131.703 90.9109 131.462 90.0105 130.786 89.5089L129.705 90.9648ZM126.114 97.1611L125.394 98.8254C126.164 99.1586 127.063 98.9199 127.566 98.2482L126.114 97.1611ZM122.212 95.4727L122.932 93.8084C122.187 93.486 121.318 93.6983 120.805 94.3282L122.212 95.4727ZM118.252 99.4082L117.116 97.9952C116.48 98.5065 116.264 99.3797 116.588 100.129L118.252 99.4082ZM119.948 103.327L121.035 104.779C121.707 104.275 121.946 103.377 121.612 102.607L119.948 103.327ZM113.752 106.918L112.296 107.999C112.798 108.674 113.698 108.916 114.47 108.583L113.752 106.918ZM111.195 103.475L112.651 102.394C112.166 101.74 111.304 101.49 110.544 101.782L111.195 103.475ZM105.814 104.914L105.535 103.122C104.729 103.248 104.107 103.896 104.013 104.706L105.814 104.914ZM105.32 109.187L105.535 110.987C106.369 110.888 107.025 110.229 107.122 109.395L105.32 109.187ZM101.668 109.405V111.219H101.668L101.668 109.405ZM98.1641 109.204L96.3627 109.412C96.4595 110.25 97.1206 110.91 97.9582 111.006L98.1641 109.204ZM97.6699 104.927L99.4713 104.719C99.3775 103.907 98.7523 103.258 97.9445 103.134L97.6699 104.927ZM92.2705 103.496L92.9181 101.802C92.1589 101.512 91.2994 101.762 90.8148 102.415L92.2705 103.496ZM89.6934 106.966L88.9814 108.634C89.7526 108.963 90.649 108.72 91.1491 108.047L89.6934 106.966ZM83.499 103.409L81.835 102.689C81.5003 103.462 81.742 104.364 82.4186 104.865L83.499 103.409ZM85.2119 99.4531L86.876 100.174C87.2009 99.4231 86.9833 98.5479 86.3446 98.0371L85.2119 99.4531ZM81.2168 95.4961L82.622 94.35C82.1093 93.7213 81.2413 93.5097 80.4967 93.8318L81.2168 95.4961ZM77.2578 97.209L75.8086 98.2989C76.3121 98.9685 77.2089 99.2059 77.9779 98.8732L77.2578 97.209ZM73.666 91.0469L72.5853 89.5908C71.908 90.0935 71.6667 90.9969 72.0032 91.7703L73.666 91.0469ZM77.1094 88.4912L78.1901 89.9473C78.8484 89.4587 79.097 88.5892 78.7964 87.8264L77.1094 88.4912ZM75.6123 83.0078L77.4029 82.7217C77.2747 81.9192 76.6281 81.2999 75.8208 81.2065L75.6123 83.0078ZM71.3594 82.5156L69.5587 82.7293C69.6576 83.5634 70.3165 84.2204 71.1509 84.3169L71.3594 82.5156ZM71.1436 78.8809H69.3302V78.8809L71.1436 78.8809ZM71.3418 75.3936L71.134 73.5922C70.296 73.6889 69.6354 74.3506 69.5401 75.1886L71.3418 75.3936ZM75.5654 74.9062L75.7733 76.7076C76.5886 76.6136 77.2391 75.9836 77.3592 75.1716L75.5654 74.9062ZM77.0215 69.3516L78.7147 70.0006C79.0058 69.2411 78.7556 68.3807 78.1026 67.8957L77.0215 69.3516ZM73.6182 66.8242L71.9526 66.1073C71.6202 66.8795 71.8622 67.7788 72.5371 68.28L73.6182 66.8242ZM77.1738 60.6621L77.8943 58.998C77.1224 58.6639 76.2222 58.9043 75.7197 59.5788L77.1738 60.6621ZM81.04 62.3359L80.3196 64C81.0708 64.3252 81.9467 64.1069 82.4573 63.4671L81.04 62.3359ZM85.1162 58.2363L86.2554 59.6472C86.8893 59.1353 87.104 58.2635 86.7802 57.5158L85.1162 58.2363ZM83.4492 54.3867L82.3659 52.9326C81.6914 53.4351 81.451 54.3354 81.7852 55.1073L83.4492 54.3867ZM89.6123 50.8301L91.0683 49.7492C90.5672 49.0742 89.6677 48.8321 88.8955 49.1644L89.6123 50.8301ZM92.0996 54.1807L90.6436 55.2615C91.1309 55.918 91.9973 56.1672 92.7589 55.8699L92.0996 54.1807ZM97.7041 52.6816L97.9764 54.4744C98.7852 54.3516 99.4116 53.7024 99.5055 52.8897L97.7041 52.6816ZM98.1807 48.5547L97.9758 46.753C97.1377 46.8483 96.4761 47.5088 96.3793 48.3467L98.1807 48.5547ZM40.1982 56.2139L40.1983 54.4005H40.1982V56.2139ZM42.8867 56.3711L44.6833 56.1248C44.571 55.3056 43.9187 54.6661 43.0974 54.57L42.8867 56.3711ZM43.3955 60.083L41.599 60.3293C41.7062 61.1119 42.3078 61.735 43.0862 61.8698L43.3955 60.083ZM48.5869 61.7695L47.7877 63.3972C48.4965 63.7453 49.3491 63.5946 49.8957 63.0246L48.5869 61.7695ZM51.2119 59.0322L52.0853 57.4431C51.3661 57.0478 50.4711 57.1848 49.9031 57.7771L51.2119 59.0322ZM55.7607 62.3164L57.3591 63.1729C57.7487 62.4458 57.5984 61.5473 56.9934 60.9865L55.7607 62.3164ZM53.959 65.6787L52.3607 64.8222C51.988 65.5177 52.1078 66.3744 52.6571 66.9409L53.959 65.6787ZM57.1689 70.0908L55.567 70.9405C55.9365 71.6372 56.714 72.0152 57.4902 71.8755L57.1689 70.0908ZM60.9453 69.4111L62.5874 68.6418C62.2387 67.8975 61.433 67.4809 60.6241 67.6265L60.9453 69.4111ZM62.6787 74.7373L63.4684 76.3697C64.2087 76.0115 64.6153 75.2 64.459 74.3926L62.6787 74.7373ZM59.2207 76.4102L58.431 74.7778C57.7215 75.121 57.315 75.8833 57.4252 76.6637L59.2207 76.4102ZM59.4141 79.1387L61.2274 79.1387V79.1387L59.4141 79.1387ZM59.2207 81.8662L57.4252 81.6127C57.315 82.3933 57.7217 83.1557 58.4315 83.4988L59.2207 81.8662ZM62.6709 83.5342L64.4505 83.8821C64.6086 83.0736 64.2018 82.2602 63.4601 81.9016L62.6709 83.5342ZM60.9258 88.8604L60.6052 90.6451C61.4126 90.7901 62.2168 90.3751 62.5663 89.633L60.9258 88.8604ZM57.1689 88.1855L57.4895 86.4008C56.7135 86.2614 55.9363 86.6394 55.5669 87.336L57.1689 88.1855ZM53.96 92.5977L52.658 91.3355C52.1087 91.9021 51.9889 92.7589 52.3618 93.4544L53.96 92.5977ZM55.7451 95.9277L56.9766 97.2588C57.5826 96.6981 57.7334 95.7987 57.3433 95.071L55.7451 95.9277ZM51.1826 99.2129L49.874 100.468C50.4413 101.06 51.3349 101.197 52.0537 100.803L51.1826 99.2129ZM48.5869 96.5068L49.8955 95.2516C49.3489 94.6817 48.4964 94.5311 47.7876 94.8792L48.5869 96.5068ZM43.3955 98.1934L43.0862 96.4066C42.3079 96.5413 41.7064 97.1643 41.599 97.9468L43.3955 98.1934ZM42.8926 101.857L43.1037 103.658C43.9247 103.562 44.5767 102.923 44.6891 102.104L42.8926 101.857ZM40.1982 102.017V103.83H40.1983L40.1982 102.017ZM37.25 101.827L35.4535 102.073C35.5647 102.885 36.2063 103.521 37.0189 103.626L37.25 101.827ZM36.752 98.1934L38.5485 97.9471C38.4412 97.1645 37.8396 96.5414 37.0613 96.4066L36.752 98.1934ZM31.5596 96.5068L32.3589 94.8792C31.6503 94.5312 30.7979 94.6816 30.2512 95.2513L31.5596 96.5068ZM29.0498 99.1221L28.1657 100.705C28.886 101.107 29.7869 100.973 30.3581 100.378L29.0498 99.1221ZM24.4844 95.7734L22.8864 94.9162C22.4992 95.6381 22.644 96.5301 23.2399 97.0923L24.4844 95.7734ZM26.1875 92.5986L27.7854 93.4558C28.1586 92.7603 28.0389 91.9032 27.4894 91.3364L26.1875 92.5986ZM22.9775 88.1855L24.5796 87.336C24.2102 86.6394 23.433 86.2614 22.6569 86.4008L22.9775 88.1855ZM19.4492 88.8193L17.8072 89.5886C18.1558 90.3327 18.9611 90.7494 19.7698 90.6041L19.4492 88.8193ZM17.7031 83.4248L16.914 81.7922C16.1752 82.1493 15.7683 82.958 15.9218 83.764L17.7031 83.4248ZM20.9258 81.8672L21.7149 83.4998C22.4247 83.1567 22.8315 82.3943 22.7213 81.6137L20.9258 81.8672ZM20.7344 79.1387L18.921 79.1387V79.1387L20.7344 79.1387ZM20.9258 76.4102L22.7213 76.6637C22.8315 75.8832 22.4249 75.1209 21.7153 74.7777L20.9258 76.4102ZM17.6953 74.8477L15.9134 74.5118C15.7616 75.3167 16.1684 76.1234 16.9058 76.4801L17.6953 74.8477ZM19.4297 69.4521L19.751 67.6675C18.9407 67.5216 18.1339 67.9399 17.7861 68.6861L19.4297 69.4521ZM22.9775 70.0908L22.6563 71.8755C23.4325 72.0152 24.21 71.6372 24.5795 70.9404L22.9775 70.0908ZM26.1875 65.6787L27.4894 66.9409C28.0388 66.3742 28.1586 65.5173 27.7856 64.8218L26.1875 65.6787ZM24.4678 62.4717L23.222 61.154C22.6273 61.7163 22.4829 62.6073 22.8697 63.3286L24.4678 62.4717ZM29.0205 59.123L30.329 57.8677C29.7572 57.2716 28.8548 57.1374 28.1342 57.5411L29.0205 59.123ZM31.5596 61.7695L30.2511 63.0249C30.7977 63.5947 31.6502 63.7452 32.3589 63.3972L31.5596 61.7695ZM36.752 60.083L37.0613 61.8698C37.8396 61.735 38.4412 61.1119 38.5485 60.3293L36.752 60.083ZM37.2568 56.4004L37.0263 54.6018C36.2135 54.706 35.5716 55.3423 35.4603 56.1541L37.2568 56.4004ZM101.668 71.3838L101.668 69.5705H101.668L101.668 71.3838ZM94.1709 78.8809L92.3576 78.8809V78.8809L94.1709 78.8809ZM101.668 86.3779L101.668 88.1913H101.668L101.668 86.3779ZM109.165 78.8809L110.978 78.8809V78.8809L109.165 78.8809ZM40.0732 72.6924L40.0732 70.8791H40.0732L40.0732 72.6924ZM33.627 79.1387L31.8136 79.1387L31.8136 79.1387L33.627 79.1387ZM40.0732 85.585L40.0732 87.3983H40.0732L40.0732 85.585ZM46.5205 79.1387L48.3338 79.1387V79.1387L46.5205 79.1387ZM53.959 24.9688L54.2179 23.174C53.4406 23.0619 52.6795 23.4628 52.3324 24.1673L53.959 24.9688ZM56.4824 25.5273L57.0035 23.7905L57.0035 23.7905L56.4824 25.5273ZM59.0254 26.5127L60.8246 26.7387C60.9218 25.9651 60.5135 25.2159 59.8107 24.8782L59.0254 26.5127ZM58.6758 29.2959L56.8766 29.0699C56.784 29.8069 57.1503 30.5258 57.8009 30.8842L58.6758 29.2959ZM62.7568 32.625L61.3771 33.8016C61.8592 34.367 62.6376 34.5811 63.341 34.3417L62.7568 32.625ZM65.3682 31.7363L66.8208 30.651C66.3504 30.0214 65.528 29.7665 64.784 30.0197L65.3682 31.7363ZM67.8643 36.4375L68.9764 37.8697C69.5908 37.3926 69.8325 36.5768 69.577 35.842L67.8643 36.4375ZM65.71 38.1104L64.5978 36.6781C64.0111 37.1337 63.7616 37.9011 63.9682 38.6147L65.71 38.1104ZM66.2441 43.3496L64.4365 43.2058C64.3776 43.9465 64.7766 44.6483 65.4432 44.9765L66.2441 43.3496ZM68.6504 44.5342L70.4455 44.7905C70.5564 44.0138 70.1552 43.2538 69.4513 42.9073L68.6504 44.5342ZM68.0898 47.083L69.8267 47.6041L69.8267 47.604L68.0898 47.083ZM67.0928 49.6484L66.8664 51.4476C67.6392 51.5448 68.3877 51.1377 68.7261 50.4362L67.0928 49.6484ZM64.4541 49.3164L64.6805 47.5173C63.9434 47.4245 63.2242 47.7908 62.8658 48.4415L64.4541 49.3164ZM61.124 53.3965L59.9475 52.0167C59.3822 52.4986 59.1681 53.2766 59.4071 53.98L61.124 53.3965ZM61.9736 55.8965L63.0688 57.3418C63.6914 56.87 63.9419 56.0526 63.6905 55.313L61.9736 55.8965ZM57.2578 58.4355L55.8256 59.5478C56.3047 60.1647 57.125 60.4055 57.8615 60.1454L57.2578 58.4355ZM55.6387 56.3506L57.0709 55.2384C56.6153 54.6517 55.8479 54.4022 55.1344 54.6088L55.6387 56.3506ZM50.3994 56.8828L50.5434 55.0752C49.8027 55.0162 49.1011 55.415 48.7728 56.0815L50.3994 56.8828ZM49.2236 59.2695L48.9821 61.0667C49.7541 61.1704 50.5061 60.7696 50.8503 60.0709L49.2236 59.2695ZM46.5332 58.6904L46.0121 60.4273L46.0121 60.4273L46.5332 58.6904ZM44.0967 57.7549L42.2976 57.5279C42.1994 58.3063 42.613 59.0596 43.3225 59.3946L44.0967 57.7549ZM44.4326 55.0928L46.2317 55.3198C46.3247 54.5825 45.9585 53.8631 45.3077 53.5045L44.4326 55.0928ZM40.3516 51.7646L41.7314 50.5882C41.2495 50.0229 40.4715 49.8087 39.7682 50.0477L40.3516 51.7646ZM37.7705 52.6416L36.3305 53.7437C36.8033 54.3614 37.6174 54.6088 38.3539 54.3585L37.7705 52.6416ZM35.2188 47.9697L34.1071 46.5371C33.4862 47.0189 33.2463 47.8458 33.513 48.585L35.2188 47.9697ZM37.3984 46.2783L38.5101 47.7109C39.0971 47.2554 39.3469 46.4879 39.1403 45.7742L37.3984 46.2783ZM36.8662 41.0391L38.6738 41.183C38.7328 40.4425 38.3341 39.7409 37.6678 39.4125L36.8662 41.0391ZM34.3496 39.7988L32.5528 39.5547C32.4478 40.3274 32.8486 41.0807 33.548 41.4254L34.3496 39.7988ZM34.9268 37.1338L33.1899 36.6127L33.1899 36.6127L34.9268 37.1338ZM35.8506 34.7197L36.0773 32.9206C35.298 32.8224 34.544 33.2371 34.2097 33.9479L35.8506 34.7197ZM38.6562 35.0732L38.4296 36.8723C39.1667 36.9652 39.886 36.599 40.2445 35.9482L38.6562 35.0732ZM41.9844 30.9922L43.1609 32.372C43.7263 31.8899 43.9404 31.1117 43.7011 30.4083L41.9844 30.9922ZM41.0684 28.2988L39.976 26.8514C39.3514 27.3228 39.0996 28.1418 39.3516 28.8827L41.0684 28.2988ZM45.7256 25.791L47.1581 24.6792C46.6782 24.061 45.8559 23.8203 45.1185 24.0823L45.7256 25.791ZM47.4697 28.0381L46.0373 29.1499C46.4928 29.7369 47.2604 29.9865 47.9741 29.7799L47.4697 28.0381ZM52.709 27.5059L52.5652 29.3135C53.3057 29.3724 54.0073 28.9737 54.3356 28.3073L52.709 27.5059ZM52.9658 37.4912L53.487 35.7544L53.4869 35.7544L52.9658 37.4912ZM46.8506 40.7842L45.1137 40.2631L45.1137 40.2633L46.8506 40.7842ZM50.1436 46.8984L49.6225 48.6353L49.6226 48.6353L50.1436 46.8984ZM56.2578 43.6064L57.9946 44.1277L57.9947 44.1275L56.2578 43.6064ZM68.5459 108.803L67.9643 110.52C68.6517 110.753 69.2769 111.117 69.8086 111.585L71.0059 110.223L72.2031 108.861C71.3141 108.079 70.271 107.472 69.1275 107.085L68.5459 108.803ZM71.0059 110.223L69.2471 109.781L68.7266 111.854L70.4854 112.296L72.2441 112.737L72.7646 110.664L71.0059 110.223ZM70.4854 112.296L69.064 113.422C69.2825 113.698 69.4613 114.005 69.592 114.334L71.2773 113.665L72.9626 112.996C72.6992 112.333 72.3411 111.718 71.9067 111.17L70.4854 112.296ZM71.2773 113.665L70.7803 115.409L72.8359 115.995L73.333 114.251L73.8301 112.507L71.7744 111.921L71.2773 113.665ZM73.333 114.251L71.5544 114.604C71.6229 114.949 71.6593 115.306 71.6593 115.672L73.4727 115.672L75.286 115.672C75.286 115.065 75.2256 114.472 75.1116 113.898L73.333 114.251ZM73.4727 115.672H71.6593C71.6593 116.037 71.6229 116.393 71.5544 116.739L73.333 117.092L75.1117 117.445C75.2253 116.872 75.286 116.279 75.286 115.672H73.4727ZM73.333 117.092L72.8352 115.348L70.7795 115.935L71.2773 117.679L71.7752 119.422L73.8308 118.835L73.333 117.092ZM71.2773 117.679L69.592 117.009C69.4613 117.339 69.2825 117.646 69.064 117.922L70.4854 119.048L71.9067 120.174C72.341 119.626 72.6992 119.011 72.9627 118.348L71.2773 117.679ZM70.4854 119.048L68.7265 119.489L69.246 121.561L71.0049 121.12L72.7638 120.679L72.2443 118.607L70.4854 119.048ZM71.0049 121.12L69.8077 119.758C69.2747 120.227 68.65 120.591 67.9643 120.823L68.5459 122.541L69.1275 124.259C70.2725 123.871 71.3145 123.262 72.2021 122.482L71.0049 121.12ZM68.5459 122.541L69.8068 121.238L68.2707 119.752L67.0098 121.055L65.7488 122.358L67.285 123.844L68.5459 122.541ZM67.0098 121.055L66.7486 119.26C66.5742 119.286 66.3975 119.299 66.2195 119.299L66.2197 121.112L66.2199 122.926C66.5785 122.926 66.9296 122.899 67.271 122.849L67.0098 121.055ZM66.2197 121.112V119.299C66.0415 119.299 65.8643 119.286 65.6899 119.26L65.4287 121.055L65.1675 122.849C65.5092 122.899 65.861 122.926 66.2197 122.926V121.112ZM65.4287 121.055L64.1674 119.752L62.6322 121.238L63.8936 122.541L65.1549 123.844L66.69 122.357L65.4287 121.055ZM63.8936 122.541L64.4749 120.823C63.7902 120.592 63.166 120.227 62.6318 119.757L61.4346 121.119L60.2373 122.481C61.1243 123.261 62.1654 123.87 63.3122 124.259L63.8936 122.541ZM61.4346 121.119L63.1936 121.56L63.7122 119.488L61.9531 119.048L60.1941 118.607L59.6755 120.679L61.4346 121.119ZM61.9531 119.048L63.3744 117.922C63.1559 117.646 62.9772 117.339 62.8465 117.009L61.1611 117.679L59.4758 118.348C59.7392 119.011 60.0974 119.626 60.5318 120.174L61.9531 119.048ZM61.1611 117.679L61.6592 115.935L59.6045 115.348L59.1064 117.092L58.6084 118.835L60.6631 119.422L61.1611 117.679ZM59.1064 117.092L60.8851 116.739C60.816 116.391 60.7792 116.034 60.7792 115.672H58.9658H57.1525C57.1525 116.281 57.2146 116.874 57.3278 117.445L59.1064 117.092ZM58.9658 115.672L60.7792 115.672C60.7792 115.309 60.816 114.952 60.885 114.604L59.1064 114.251L57.3279 113.898C57.2143 114.469 57.1525 115.063 57.1525 115.672L58.9658 115.672ZM59.1064 114.251L59.6037 115.995L61.6584 115.409L61.1611 113.665L60.6638 111.921L58.6092 112.507L59.1064 114.251ZM61.1611 113.665L62.8464 114.334C62.9772 114.005 63.1561 113.698 63.3744 113.422L61.9531 112.296L60.5318 111.17C60.0974 111.718 59.7392 112.333 59.4758 112.996L61.1611 113.665ZM61.9531 112.296L63.7122 111.856L63.1937 109.783L61.4346 110.224L59.6755 110.664L60.194 112.736L61.9531 112.296ZM61.4346 110.224L62.6316 111.586C63.165 111.117 63.7896 110.752 64.4749 110.52L63.8936 108.803L63.3122 107.085C62.1666 107.473 61.1249 108.082 60.2375 108.862L61.4346 110.224ZM63.8936 108.803L62.6322 110.106L64.1674 111.592L65.4287 110.289L66.69 108.986L65.1549 107.5L63.8936 108.803ZM65.4287 110.289L65.6899 112.083C65.8643 112.058 66.0416 112.045 66.2197 112.045V110.231V108.418C65.861 108.418 65.5092 108.445 65.1675 108.495L65.4287 110.289ZM66.2197 110.231L66.2195 112.045C66.3975 112.045 66.5742 112.058 66.7486 112.083L67.0098 110.289L67.271 108.495C66.9296 108.445 66.5785 108.418 66.2199 108.418L66.2197 110.231ZM67.0098 110.289L68.2707 111.592L69.8068 110.106L68.5459 108.803L67.285 107.5L65.7488 108.986L67.0098 110.289ZM66.2197 113.254V111.441C63.8828 111.441 61.9887 113.335 61.9884 115.672L63.8018 115.672L65.6151 115.672C65.6151 115.338 65.8862 115.067 66.2197 115.067V113.254ZM63.8018 115.672H61.9884C61.9884 118.009 63.8829 119.903 66.2197 119.903V118.09V116.277C65.8859 116.277 65.6151 116.006 65.6151 115.672H63.8018ZM66.2197 118.09L66.2202 119.903C68.5568 119.903 70.4501 118.008 70.4501 115.672H68.6367H66.8234C66.8234 116.006 66.5527 116.276 66.2192 116.277L66.2197 118.09ZM68.6367 115.672L70.4501 115.672C70.4498 113.336 68.5569 111.441 66.2202 111.441L66.2197 113.254L66.2192 115.067C66.5524 115.067 66.8233 115.338 66.8234 115.672L68.6367 115.672ZM101.668 48.3564L101.668 50.1698C102.825 50.1698 103.966 50.2398 105.089 50.373L105.303 48.5723L105.516 46.7716C104.255 46.6219 102.971 46.5431 101.668 46.5431L101.668 48.3564ZM105.303 48.5723L103.501 48.7806L103.978 52.9017L105.779 52.6934L107.581 52.4851L107.104 48.364L105.303 48.5723ZM105.779 52.6934L105.502 54.4854C107.309 54.765 109.05 55.2409 110.704 55.8908L111.367 54.2031L112.03 52.5155C110.131 51.7688 108.13 51.2223 106.057 50.9014L105.779 52.6934ZM111.367 54.2031L112.823 55.2837L115.29 51.9595L113.834 50.8789L112.378 49.7983L109.911 53.1225L111.367 54.2031ZM113.834 50.8789L113.111 52.5417C115.181 53.4423 117.125 54.5794 118.907 55.9199L119.997 54.4707L121.087 53.0215C119.08 51.5117 116.89 50.2309 114.557 49.2161L113.834 50.8789ZM119.997 54.4707L118.333 53.7504L116.684 57.5609L118.348 58.2812L120.012 59.0016L121.661 55.191L119.997 54.4707ZM118.348 58.2812L117.205 59.689C118.593 60.8161 119.856 62.0911 120.97 63.4898L122.389 62.3604L123.807 61.2309C122.53 59.6268 121.082 58.1652 119.491 56.8735L118.348 58.2812ZM122.389 62.3604L123.109 64.0243L126.917 62.3749L126.196 60.7109L125.475 59.047L121.668 60.6964L122.389 62.3604ZM126.196 60.7109L124.74 61.7914C126.071 63.5853 127.198 65.5391 128.085 67.6182L129.753 66.9062L131.421 66.1943C130.42 63.8506 129.151 61.6498 127.653 59.6304L126.196 60.7109ZM129.753 66.9062L128.672 65.4506L125.322 67.9389L126.403 69.3945L127.485 70.8502L130.834 68.3619L129.753 66.9062ZM126.403 69.3945L124.709 70.0406C125.331 71.6718 125.785 73.3865 126.048 75.1635L127.842 74.8975L129.636 74.6315C129.333 72.5915 128.812 70.6222 128.098 68.7485L126.403 69.3945ZM127.842 74.8975L127.634 76.6988L131.783 77.1783L131.991 75.377L132.199 73.5756L128.05 73.0961L127.842 74.8975ZM131.991 75.377L130.19 75.5828C130.313 76.6667 130.379 77.7672 130.379 78.8809H132.192H134.006C134.006 77.6247 133.932 76.3867 133.793 75.1711L131.991 75.377ZM132.192 78.8809L130.379 78.8808C130.379 80.0425 130.308 81.1896 130.173 82.3185L131.974 82.5332L133.774 82.7479C133.925 81.4817 134.006 80.1912 134.006 78.8809L132.192 78.8809ZM131.974 82.5332L131.765 80.7319L127.587 81.2153L127.795 83.0166L128.003 84.8179L132.182 84.3345L131.974 82.5332ZM127.795 83.0166L126.004 82.7299C125.723 84.4852 125.258 86.1776 124.627 87.7864L126.315 88.4482L128.004 89.1101C128.729 87.2608 129.263 85.3169 129.585 83.3033L127.795 83.0166ZM126.315 88.4482L125.234 89.9042L128.624 92.4208L129.705 90.9648L130.786 89.5089L127.396 86.9923L126.315 88.4482ZM129.705 90.9648L128.04 90.2463C127.142 92.3276 126.005 94.2819 124.663 96.0741L126.114 97.1611L127.566 98.2482C129.077 96.2298 130.358 94.0284 131.37 91.6834L129.705 90.9648ZM126.114 97.1611L126.834 95.4969L122.932 93.8084L122.212 95.4727L121.492 97.1369L125.394 98.8254L126.114 97.1611ZM122.212 95.4727L120.805 94.3282C119.709 95.6759 118.471 96.905 117.116 97.9952L118.252 99.4082L119.388 100.821C120.941 99.5726 122.36 98.1638 123.618 96.6171L122.212 95.4727ZM118.252 99.4082L116.588 100.129L118.284 104.047L119.948 103.327L121.612 102.607L119.916 98.6879L118.252 99.4082ZM119.948 103.327L118.861 101.876C117.069 103.218 115.115 104.355 113.033 105.253L113.752 106.918L114.47 108.583C116.815 107.571 119.017 106.29 121.035 104.779L119.948 103.327ZM113.752 106.918L115.208 105.837L112.651 102.394L111.195 103.475L109.739 104.556L112.296 107.999L113.752 106.918ZM111.195 103.475L110.544 101.782C108.947 102.397 107.271 102.851 105.535 103.122L105.814 104.914L106.094 106.706C108.089 106.394 110.014 105.872 111.847 105.167L111.195 103.475ZM105.814 104.914L104.013 104.706L103.519 108.978L105.32 109.187L107.122 109.395L107.616 105.122L105.814 104.914ZM105.32 109.187L105.106 107.386C103.977 107.521 102.83 107.592 101.668 107.592L101.668 109.405L101.668 111.219C102.978 111.219 104.269 111.138 105.535 110.987L105.32 109.187ZM101.668 109.405V107.592C100.554 107.592 99.4538 107.526 98.3699 107.402L98.1641 109.204L97.9582 111.006C99.1738 111.145 100.412 111.219 101.668 111.219V109.405ZM98.1641 109.204L99.9654 108.996L99.4713 104.719L97.6699 104.927L95.8686 105.135L96.3627 109.412L98.1641 109.204ZM97.6699 104.927L97.9445 103.134C96.2034 102.868 94.5215 102.415 92.9181 101.802L92.2705 103.496L91.6229 105.19C93.4611 105.893 95.3928 106.412 97.3953 106.719L97.6699 104.927ZM92.2705 103.496L90.8148 102.415L88.2376 105.885L89.6934 106.966L91.1491 108.047L93.7262 104.577L92.2705 103.496ZM89.6934 106.966L90.4053 105.298C88.3267 104.411 86.3734 103.284 84.5795 101.953L83.499 103.409L82.4186 104.865C84.4375 106.363 86.6377 107.633 88.9814 108.634L89.6934 106.966ZM83.499 103.409L85.1631 104.13L86.876 100.174L85.2119 99.4531L83.5479 98.7326L81.835 102.689L83.499 103.409ZM85.2119 99.4531L86.3446 98.0371C84.9771 96.9432 83.7285 95.7066 82.622 94.35L81.2168 95.4961L79.8116 96.6422C81.0802 98.1977 82.5116 99.6153 84.0792 100.869L85.2119 99.4531ZM81.2168 95.4961L80.4967 93.8318L76.5378 95.5447L77.2578 97.209L77.9779 98.8732L81.9368 97.1603L81.2168 95.4961ZM77.2578 97.209L78.7071 96.1191C77.3665 94.3365 76.2292 92.393 75.3288 90.3234L73.666 91.0469L72.0032 91.7703C73.018 94.1026 74.2992 96.2918 75.8086 98.2989L77.2578 97.209ZM73.666 91.0469L74.7467 92.503L78.1901 89.9473L77.1094 88.4912L76.0287 87.0351L72.5853 89.5908L73.666 91.0469ZM77.1094 88.4912L78.7964 87.8264C78.157 86.2037 77.6862 84.4946 77.4029 82.7217L75.6123 83.0078L73.8217 83.2939C74.1465 85.3269 74.6869 87.2899 75.4223 89.156L77.1094 88.4912ZM75.6123 83.0078L75.8208 81.2065L71.5678 80.7143L71.3594 82.5156L71.1509 84.3169L75.4038 84.8091L75.6123 83.0078ZM71.3594 82.5156L73.1601 82.302C73.0269 81.1792 72.9569 80.0376 72.9569 78.8808L71.1436 78.8809L69.3302 78.8809C69.3302 80.1839 69.409 81.4683 69.5587 82.7293L71.3594 82.5156ZM71.1436 78.8809H72.9569C72.9569 77.7715 73.0209 76.6762 73.1435 75.5985L71.3418 75.3936L69.5401 75.1886C69.4024 76.3997 69.3302 77.6318 69.3302 78.8809H71.1436ZM71.3418 75.3936L71.5496 77.1949L75.7733 76.7076L75.5654 74.9062L75.3576 73.1049L71.134 73.5922L71.3418 75.3936ZM75.5654 74.9062L77.3592 75.1716C77.6247 73.3772 78.0839 71.6463 78.7147 70.0006L77.0215 69.3516L75.3283 68.7026C74.6037 70.5929 74.0764 72.581 73.7716 74.6409L75.5654 74.9062ZM77.0215 69.3516L78.1026 67.8957L74.6993 65.3684L73.6182 66.8242L72.5371 68.28L75.9404 70.8074L77.0215 69.3516ZM73.6182 66.8242L75.2838 67.5411C76.1741 65.4725 77.2993 63.5288 78.628 61.7455L77.1738 60.6621L75.7197 59.5788C74.2229 61.5878 72.9554 63.7772 71.9526 66.1073L73.6182 66.8242ZM77.1738 60.6621L76.4534 62.3262L80.3196 64L81.04 62.3359L81.7605 60.6719L77.8943 58.998L77.1738 60.6621ZM81.04 62.3359L82.4573 63.4671C83.5806 62.0597 84.8547 60.7781 86.2554 59.6472L85.1162 58.2363L83.977 56.8255C82.371 58.1223 80.9104 59.5914 79.6228 61.2048L81.04 62.3359ZM85.1162 58.2363L86.7802 57.5158L85.1132 53.6662L83.4492 54.3867L81.7852 55.1073L83.4522 58.9569L85.1162 58.2363ZM83.4492 54.3867L84.5326 55.8409C86.3165 54.5119 88.2604 53.386 90.3291 52.4957L89.6123 50.8301L88.8955 49.1644C86.5647 50.1675 84.375 51.4357 82.3659 52.9326L83.4492 54.3867ZM89.6123 50.8301L88.1563 51.9109L90.6436 55.2615L92.0996 54.1807L93.5556 53.0998L91.0683 49.7492L89.6123 50.8301ZM92.0996 54.1807L92.7589 55.8699C94.4178 55.2224 96.1646 54.7496 97.9764 54.4744L97.7041 52.6816L97.4318 50.8889C95.3519 51.2047 93.3457 51.7477 91.4403 52.4914L92.0996 54.1807ZM97.7041 52.6816L99.5055 52.8897L99.982 48.7627L98.1807 48.5547L96.3793 48.3467L95.9027 52.4736L97.7041 52.6816ZM98.1807 48.5547L98.3856 50.3564C99.4633 50.2338 100.559 50.1698 101.668 50.1698V48.3564V46.5431C100.419 46.5431 99.1867 46.6152 97.9758 46.753L98.1807 48.5547ZM40.1982 56.2139L40.1982 58.0272C41.0358 58.0272 41.8626 58.077 42.6761 58.1721L42.8867 56.3711L43.0974 54.57C42.1471 54.4589 41.1797 54.4006 40.1983 54.4005L40.1982 56.2139ZM42.8867 56.3711L41.0902 56.6173L41.599 60.3293L43.3955 60.083L45.192 59.8368L44.6833 56.1248L42.8867 56.3711ZM43.3955 60.083L43.0862 61.8698C44.7444 62.1568 46.3231 62.6781 47.7877 63.3972L48.5869 61.7695L49.3862 60.1418C47.618 59.2736 45.7098 58.6434 43.7048 58.2962L43.3955 60.083ZM48.5869 61.7695L49.8957 63.0246L52.5207 60.2873L51.2119 59.0322L49.9031 57.7771L47.2781 60.5144L48.5869 61.7695ZM51.2119 59.0322L50.3385 60.6214C51.8582 61.4566 53.2642 62.4749 54.5281 63.6463L55.7607 62.3164L56.9934 60.9865C55.5147 59.6159 53.8679 58.4228 52.0853 57.4431L51.2119 59.0322ZM55.7607 62.3164L54.1624 61.4599L52.3607 64.8222L53.959 65.6787L55.5573 66.5352L57.3591 63.1729L55.7607 62.3164ZM53.959 65.6787L52.6571 66.9409C53.8055 68.1255 54.7878 69.4714 55.567 70.9405L57.1689 70.0908L58.7709 69.2412C57.8303 67.4677 56.6453 65.8444 55.2609 64.4165L53.959 65.6787ZM57.1689 70.0908L57.4902 71.8755L61.2665 71.1958L60.9453 69.4111L60.6241 67.6265L56.8477 68.3062L57.1689 70.0908ZM60.9453 69.4111L59.3033 70.1805C60.0254 71.7217 60.5659 73.3643 60.8984 75.082L62.6787 74.7373L64.459 74.3926C64.0689 72.3779 63.4347 70.4503 62.5874 68.6418L60.9453 69.4111ZM62.6787 74.7373L61.889 73.1049L58.431 74.7778L59.2207 76.4102L60.0104 78.0425L63.4684 76.3697L62.6787 74.7373ZM59.2207 76.4102L57.4252 76.6637C57.5397 77.4745 57.6007 78.3007 57.6007 79.1387L59.4141 79.1387L61.2274 79.1387C61.2274 78.1244 61.1535 77.1286 61.0162 76.1566L59.2207 76.4102ZM59.4141 79.1387L57.6007 79.1386C57.6007 79.9761 57.5396 80.8021 57.4252 81.6127L59.2207 81.8662L61.0162 82.1197C61.1534 81.1482 61.2274 80.1528 61.2274 79.1387L59.4141 79.1387ZM59.2207 81.8662L58.4315 83.4988L61.8816 85.1667L62.6709 83.5342L63.4601 81.9016L60.01 80.2336L59.2207 81.8662ZM62.6709 83.5342L60.8913 83.1862C60.5554 84.9041 60.0111 86.5466 59.2853 88.0877L60.9258 88.8604L62.5663 89.633C63.4177 87.8251 64.0565 85.8976 64.4505 83.8821L62.6709 83.5342ZM60.9258 88.8604L61.2464 87.0756L57.4895 86.4008L57.1689 88.1855L56.8484 89.9703L60.6052 90.6451L60.9258 88.8604ZM57.1689 88.1855L55.5669 87.336C54.7877 88.8054 53.8061 90.1511 52.658 91.3355L53.96 92.5977L55.2619 93.8598C56.6465 92.4316 57.8306 90.8083 58.771 89.0351L57.1689 88.1855ZM53.96 92.5977L52.3618 93.4544L54.1469 96.7845L55.7451 95.9277L57.3433 95.071L55.5581 91.7409L53.96 92.5977ZM55.7451 95.9277L54.5136 94.5967C53.2464 95.7691 51.8361 96.7875 50.3115 97.6225L51.1826 99.2129L52.0537 100.803C53.8412 99.8242 55.4933 98.6311 56.9766 97.2588L55.7451 95.9277ZM51.1826 99.2129L52.4912 97.9576L49.8955 95.2516L48.5869 96.5068L47.2783 97.7621L49.874 100.468L51.1826 99.2129ZM48.5869 96.5068L47.7876 94.8792C46.3231 95.5984 44.7446 96.1195 43.0862 96.4066L43.3955 98.1934L43.7048 99.9801C45.7099 99.633 47.6179 99.0029 49.3862 98.1345L48.5869 96.5068ZM43.3955 98.1934L41.599 97.9468L41.0961 101.611L42.8926 101.857L44.6891 102.104L45.192 98.4399L43.3955 98.1934ZM42.8926 101.857L42.6814 100.056C41.8645 100.152 41.0361 100.203 40.1982 100.203L40.1982 102.017L40.1983 103.83C41.1836 103.83 42.1531 103.77 43.1037 103.658L42.8926 101.857ZM40.1982 102.017V100.203C39.2786 100.203 38.3716 100.143 37.4811 100.029L37.25 101.827L37.0189 103.626C38.0587 103.759 39.1201 103.83 40.1982 103.83V102.017ZM37.25 101.827L39.0465 101.581L38.5485 97.9471L36.752 98.1934L34.9554 98.4396L35.4535 102.073L37.25 101.827ZM36.752 98.1934L37.0613 96.4066C35.4024 96.1194 33.8234 95.5984 32.3589 94.8792L31.5596 96.5068L30.7602 98.1345C32.529 99.0032 34.4375 99.633 36.4426 99.9801L36.752 98.1934ZM31.5596 96.5068L30.2512 95.2513L27.7415 97.8665L29.0498 99.1221L30.3581 100.378L32.8679 97.7624L31.5596 96.5068ZM29.0498 99.1221L29.9339 97.5388C28.405 96.6851 26.9932 95.6476 25.7289 94.4546L24.4844 95.7734L23.2399 97.0923C24.7209 98.4898 26.3747 99.7052 28.1657 100.705L29.0498 99.1221ZM24.4844 95.7734L26.0823 96.6306L27.7854 93.4558L26.1875 92.5986L24.5896 91.7414L22.8864 94.9162L24.4844 95.7734ZM26.1875 92.5986L27.4894 91.3364C26.341 90.1519 25.3588 88.8055 24.5796 87.336L22.9775 88.1855L21.3755 89.0351C22.316 90.8087 23.5009 92.4325 24.8856 93.8608L26.1875 92.5986ZM22.9775 88.1855L22.6569 86.4008L19.1286 87.0346L19.4492 88.8193L19.7698 90.6041L23.2981 89.9703L22.9775 88.1855ZM19.4492 88.8193L21.0913 88.05C20.3605 86.4903 19.8159 84.8262 19.4844 83.0856L17.7031 83.4248L15.9218 83.764C16.3105 85.8052 16.9495 87.758 17.8072 89.5886L19.4492 88.8193ZM17.7031 83.4248L18.4922 85.0574L21.7149 83.4998L20.9258 81.8672L20.1367 80.2346L16.914 81.7922L17.7031 83.4248ZM20.9258 81.8672L22.7213 81.6137C22.6072 80.8055 22.5477 79.9791 22.5477 79.1386L20.7344 79.1387L18.921 79.1387C18.9211 80.1504 18.9927 81.1462 19.1303 82.1207L20.9258 81.8672ZM20.7344 79.1387L22.5477 79.1387C22.5477 78.2982 22.6072 77.4719 22.7213 76.6637L20.9258 76.4102L19.1303 76.1566C18.9926 77.1312 18.921 78.1269 18.921 79.1387L20.7344 79.1387ZM20.9258 76.4102L21.7153 74.7777L18.4849 73.2152L17.6953 74.8477L16.9058 76.4801L20.1362 78.0426L20.9258 76.4102ZM17.6953 74.8477L19.4773 75.1835C19.8054 73.4427 20.3462 71.7782 21.0733 70.2182L19.4297 69.4521L17.7861 68.6861C16.9324 70.5178 16.298 72.471 15.9134 74.5118L17.6953 74.8477ZM19.4297 69.4521L19.1084 71.2368L22.6563 71.8755L22.9775 70.0908L23.2988 68.3062L19.751 67.6675L19.4297 69.4521ZM22.9775 70.0908L24.5795 70.9404C25.3586 69.4713 26.3409 68.1256 27.4894 66.9409L26.1875 65.6787L24.8856 64.4165C23.5012 65.8445 22.3162 67.4675 21.3755 69.2412L22.9775 70.0908ZM26.1875 65.6787L27.7856 64.8218L26.0658 61.6147L24.4678 62.4717L22.8697 63.3286L24.5894 66.5357L26.1875 65.6787ZM24.4678 62.4717L25.7135 63.7893C26.9747 62.597 28.3826 61.559 29.9068 60.705L29.0205 59.123L28.1342 57.5411C26.3476 58.5421 24.6986 59.758 23.222 61.154L24.4678 62.4717ZM29.0205 59.123L27.712 60.3784L30.2511 63.0249L31.5596 61.7695L32.8681 60.5141L30.329 57.8677L29.0205 59.123ZM31.5596 61.7695L32.3589 63.3972C33.8234 62.678 35.4024 62.1569 37.0613 61.8698L36.752 60.083L36.4426 58.2962C34.4375 58.6434 32.529 59.2733 30.7602 60.1419L31.5596 61.7695ZM36.752 60.083L38.5485 60.3293L39.0534 56.6467L37.2568 56.4004L35.4603 56.1541L34.9554 59.8367L36.752 60.083ZM37.2568 56.4004L37.4874 58.199C38.3733 58.0854 39.2784 58.0272 40.1982 58.0272V56.2139V54.4005C39.1252 54.4005 38.0661 54.4685 37.0263 54.6018L37.2568 56.4004ZM101.668 71.3838L101.668 69.5705C96.5259 69.5705 92.3576 73.7388 92.3576 78.8809L94.1709 78.8809L95.9842 78.8809C95.9842 75.7418 98.5289 73.1972 101.668 73.1971L101.668 71.3838ZM94.1709 78.8809L92.3576 78.8809C92.3578 84.0227 96.526 88.1912 101.668 88.1913L101.668 86.3779L101.668 84.5646C98.529 84.5646 95.9844 82.0199 95.9842 78.8808L94.1709 78.8809ZM101.668 86.3779L101.668 88.1913C106.81 88.191 110.978 84.0227 110.978 78.8809L109.165 78.8809L107.352 78.8808C107.352 82.0197 104.807 84.5644 101.668 84.5646L101.668 86.3779ZM109.165 78.8809L110.978 78.8809C110.978 73.7388 106.81 69.5707 101.668 69.5705L101.668 71.3838L101.668 73.1971C104.807 73.1973 107.352 75.7419 107.352 78.8809L109.165 78.8809ZM40.0732 72.6924L40.0732 70.8791C35.5115 70.8792 31.8137 74.5769 31.8136 79.1387L33.627 79.1387L35.4403 79.1387C35.4403 76.5799 37.5145 74.5058 40.0733 74.5057L40.0732 72.6924ZM33.627 79.1387L31.8136 79.1387C31.8137 83.7004 35.5116 87.3982 40.0732 87.3983L40.0732 85.585L40.0733 83.7716C37.5145 83.7715 35.4403 81.6974 35.4403 79.1386L33.627 79.1387ZM40.0732 85.585L40.0732 87.3983C44.6347 87.3983 48.3338 83.7008 48.3338 79.1387L46.5205 79.1387L44.7072 79.1386C44.7071 81.6972 42.6324 83.7716 40.0732 83.7716L40.0732 85.585ZM46.5205 79.1387L48.3338 79.1387C48.3338 74.5765 44.6347 70.8791 40.0732 70.8791L40.0732 72.6924L40.0732 74.5057C42.6324 74.5057 44.7071 76.5802 44.7072 79.1387L46.5205 79.1387ZM53.959 24.9688L53.7001 26.7635C54.4524 26.872 55.2079 27.0382 55.9614 27.2642L56.4824 25.5273L57.0035 23.7905C56.0792 23.5132 55.1485 23.3082 54.2179 23.174L53.959 24.9688ZM56.4824 25.5273L55.9613 27.2642C56.7553 27.5024 57.5159 27.7992 58.2401 28.1471L59.0254 26.5127L59.8107 24.8782C58.9185 24.4496 57.9813 24.0839 57.0035 23.7905L56.4824 25.5273ZM59.0254 26.5127L57.2262 26.2867L56.8766 29.0699L58.6758 29.2959L60.475 29.5219L60.8246 26.7387L59.0254 26.5127ZM58.6758 29.2959L57.8009 30.8842C59.1813 31.6446 60.3858 32.6392 61.3771 33.8016L62.7568 32.625L64.1366 31.4484C62.8667 29.9593 61.3219 28.6832 59.5507 27.7076L58.6758 29.2959ZM62.7568 32.625L63.341 34.3417L65.9524 33.453L65.3682 31.7363L64.784 30.0197L62.1726 30.9083L62.7568 32.625ZM65.3682 31.7363L63.9155 32.8217C64.8717 34.1016 65.6266 35.5232 66.1515 37.033L67.8643 36.4375L69.577 35.842C68.9301 33.9811 67.9997 32.2289 66.8208 30.651L65.3682 31.7363ZM67.8643 36.4375L66.7521 35.0053L64.5978 36.6781L65.71 38.1104L66.8221 39.5426L68.9764 37.8697L67.8643 36.4375ZM65.71 38.1104L63.9682 38.6147C64.3933 40.0828 64.5615 41.6355 64.4365 43.2058L66.2441 43.3496L68.0518 43.4934C68.2122 41.4768 67.9959 39.4852 67.4517 37.606L65.71 38.1104ZM66.2441 43.3496L65.4432 44.9765L67.8495 46.1611L68.6504 44.5342L69.4513 42.9073L67.045 41.7227L66.2441 43.3496ZM68.6504 44.5342L66.8553 44.2779C66.7465 45.0399 66.5806 45.8034 66.353 46.562L68.0898 47.083L69.8267 47.604C70.1074 46.6684 70.3117 45.7278 70.4455 44.7905L68.6504 44.5342ZM68.0898 47.083L66.353 46.5619C66.1129 47.3623 65.8121 48.1296 65.4595 48.8607L67.0928 49.6484L68.7261 50.4362C69.1595 49.5374 69.5303 48.5921 69.8267 47.6041L68.0898 47.083ZM67.0928 49.6484L67.3192 47.8493L64.6805 47.5173L64.4541 49.3164L64.2277 51.1156L66.8664 51.4476L67.0928 49.6484ZM64.4541 49.3164L62.8658 48.4415C62.1058 49.8213 61.1107 51.0248 59.9475 52.0167L61.124 53.3965L62.3006 54.7763C63.7893 53.5069 65.0662 51.9635 66.0424 50.1913L64.4541 49.3164ZM61.124 53.3965L59.4071 53.98L60.2567 56.48L61.9736 55.8965L63.6905 55.313L62.8409 52.813L61.124 53.3965ZM61.9736 55.8965L60.8785 54.4512C59.5968 55.4224 58.1706 56.1902 56.6541 56.7257L57.2578 58.4355L57.8615 60.1454C59.7308 59.4854 61.4886 58.5391 63.0688 57.3418L61.9736 55.8965ZM57.2578 58.4355L58.69 57.3233L57.0709 55.2384L55.6387 56.3506L54.2065 57.4628L55.8256 59.5478L57.2578 58.4355ZM55.6387 56.3506L55.1344 54.6088C53.6673 55.0335 52.1149 55.2004 50.5434 55.0752L50.3994 56.8828L50.2555 58.6904C52.2711 58.8509 54.2625 58.6368 56.143 58.0924L55.6387 56.3506ZM50.3994 56.8828L48.7728 56.0815L47.597 58.4682L49.2236 59.2695L50.8503 60.0709L52.0261 57.6842L50.3994 56.8828ZM49.2236 59.2695L49.4651 57.4724C48.6597 57.3641 47.8538 57.1935 47.0543 56.9536L46.5332 58.6904L46.0121 60.4273C47.001 60.7239 47.9941 60.934 48.9821 61.0667L49.2236 59.2695ZM46.5332 58.6904L47.0543 56.9536C46.2961 56.7261 45.5676 56.4441 44.8709 56.1151L44.0967 57.7549L43.3225 59.3946C44.1783 59.7987 45.0759 60.1464 46.0121 60.4273L46.5332 58.6904ZM44.0967 57.7549L45.8957 57.9819L46.2317 55.3198L44.4326 55.0928L42.6336 54.8657L42.2976 57.5279L44.0967 57.7549ZM44.4326 55.0928L45.3077 53.5045C43.9266 52.7437 42.722 51.75 41.7314 50.5882L40.3516 51.7646L38.9717 52.9411C40.242 54.431 41.7872 55.7056 43.5576 56.681L44.4326 55.0928ZM40.3516 51.7646L39.7682 50.0477L37.1872 50.9247L37.7705 52.6416L38.3539 54.3585L40.9349 53.4816L40.3516 51.7646ZM37.7705 52.6416L39.2105 51.5395C38.2386 50.2697 37.4664 48.8568 36.9245 47.3544L35.2188 47.9697L33.513 48.585C34.1816 50.4385 35.1334 52.1796 36.3305 53.7437L37.7705 52.6416ZM35.2188 47.9697L36.3304 49.4023L38.5101 47.7109L37.3984 46.2783L36.2868 44.8457L34.1071 46.5371L35.2188 47.9697ZM37.3984 46.2783L39.1403 45.7742C38.7157 44.3072 38.5487 42.7541 38.6738 41.183L36.8662 41.0391L35.0586 40.8951C34.8981 42.9105 35.1125 44.9025 35.6566 46.7825L37.3984 46.2783ZM36.8662 41.0391L37.6678 39.4125L35.1512 38.1723L34.3496 39.7988L33.548 41.4254L36.0646 42.6656L36.8662 41.0391ZM34.3496 39.7988L36.1464 40.043C36.2546 39.2469 36.4254 38.4488 36.6636 37.6549L34.9268 37.1338L33.1899 36.6127C32.8966 37.5905 32.686 38.574 32.5528 39.5547L34.3496 39.7988ZM34.9268 37.1338L36.6636 37.6549C36.8893 36.9027 37.1672 36.1808 37.4915 35.4916L35.8506 34.7197L34.2097 33.9479C33.8101 34.7975 33.4677 35.6869 33.1899 36.6127L34.9268 37.1338ZM35.8506 34.7197L35.6239 36.5188L38.4296 36.8723L38.6562 35.0732L38.8829 33.2741L36.0773 32.9206L35.8506 34.7197ZM38.6562 35.0732L40.2445 35.9482C41.0053 34.5673 41.9991 33.3627 43.1609 32.372L41.9844 30.9922L40.8078 29.6124C39.3181 30.8826 38.0434 32.4278 37.068 34.1983L38.6562 35.0732ZM41.9844 30.9922L43.7011 30.4083L42.7851 27.715L41.0684 28.2988L39.3516 28.8827L40.2676 31.5761L41.9844 30.9922ZM41.0684 28.2988L42.1607 29.7462C43.4282 28.7897 44.8365 28.0313 46.3327 27.4997L45.7256 25.791L45.1185 24.0823C43.274 24.7376 41.5384 25.6724 39.976 26.8514L41.0684 28.2988ZM45.7256 25.791L44.2931 26.9029L46.0373 29.1499L47.4697 28.0381L48.9022 26.9262L47.1581 24.6792L45.7256 25.791ZM47.4697 28.0381L47.9741 29.7799C49.4408 29.3552 50.9936 29.1885 52.5652 29.3135L52.709 27.5059L52.8528 25.6982C50.8376 25.5379 48.8458 25.7518 46.9654 26.2963L47.4697 28.0381ZM52.709 27.5059L54.3356 28.3073L55.5856 25.7702L53.959 24.9688L52.3324 24.1673L51.0824 26.7044L52.709 27.5059ZM52.9658 37.4912L53.4869 35.7544C49.9298 34.6873 46.1808 36.7063 45.1137 40.2631L46.8506 40.7842L48.5874 41.3053C49.079 39.6667 50.8064 38.7366 52.4448 39.2281L52.9658 37.4912ZM46.8506 40.7842L45.1137 40.2633C44.0471 43.8202 46.066 47.5683 49.6225 48.6353L50.1436 46.8984L50.6647 45.1616C49.0262 44.67 48.0963 42.9432 48.5875 41.305L46.8506 40.7842ZM50.1436 46.8984L49.6226 48.6353C53.1792 49.7022 56.9272 47.684 57.9946 44.1277L56.2578 43.6064L54.521 43.0851C54.0293 44.7234 52.3028 45.653 50.6646 45.1616L50.1436 46.8984ZM56.2578 43.6064L57.9947 44.1275C59.0617 40.571 57.044 36.8218 53.487 35.7544L52.9658 37.4912L52.4446 39.228C54.0827 39.7196 55.0126 41.4466 54.521 43.0854L56.2578 43.6064Z" fill="white" mask="url(#path-6-outside-1_1001_45082)"/>
</g>
</g>
<defs>
<clipPath id="clip0_1001_45082">
<rect width="136" height="136" fill="white"/>
</clipPath>
<clipPath id="clip1_1001_45082">
<rect width="226.667" height="136" fill="white" transform="translate(-45)"/>
</clipPath>
</defs>
</svg>
