<svg width="375" height="225" viewBox="0 0 375 225" fill="none" xmlns="http://www.w3.org/2000/svg">
<g clip-path="url(#clip0_102_69763)">
<path d="M184.5 4C262.096 4 325 66.904 325 144.5C325 163.443 321.249 181.51 314.453 198H54.5469C47.7506 181.51 44 163.443 44 144.5C44 66.904 106.904 4 184.5 4Z" fill="#DCEDF4"/>
<ellipse cx="184" cy="203" rx="153" ry="14" fill="#A0A09F" fill-opacity="0.15"/>
<path d="M316 97V124H264L264.005 97H316Z" fill="#FFBC0D"/>
<path d="M190.926 120H77V97H191L190.926 120Z" fill="#FFBC0D"/>
<path d="M191 99L190.97 108H77V99H191Z" fill="black" fill-opacity="0.1"/>
<path d="M316 99V108H264L264.002 99H316Z" fill="black" fill-opacity="0.1"/>
<path d="M264 124H287V203H264V124Z" fill="#F9F9F9"/>
<path d="M288 124H316V203H288V124Z" fill="#F9F9F9"/>
<path d="M191 89L190.967 98.999L73.8004 99C72.8061 99 72 98.1942 72 97.2002V90.8008C72 89.8068 72.8061 89.001 73.8004 89.001L191 89Z" fill="#FFBC0D"/>
<path d="M318.212 89.001C319.2 89.001 320 89.8068 320 90.8008V97.2002C320 98.1942 319.2 99 318.212 99L264 98.999L264.002 89L318.212 89.001Z" fill="#FFBC0D"/>
<path d="M260.5 74.5234L260.473 202.998H194.569L194.5 74.5234L260.5 74.5234Z" fill="#F1F1F1"/>
<path d="M59.8 124H244.443C245.437 124 246.243 124.806 246.243 125.8V140H58V125.8C58 124.806 58.8059 124 59.8 124Z" fill="#606060"/>
<path d="M195 140H246V203H195V140Z" fill="#D8D8D8"/>
<path d="M109 140H137V203H109V140Z" fill="#F9F9F9"/>
<path d="M138 140H166V203H138V140Z" fill="#F9F9F9"/>
<path d="M167 140H195V203H167V140Z" fill="#F9F9F9"/>
<path d="M218 154H246V203H218V154Z" fill="#F9F9F9"/>
<path d="M58 198H109V204H58V198Z" fill="#A5835B"/>
<path d="M58 192H109V198H58V192Z" fill="#C2945C"/>
<path d="M58 187H109V193H58V187Z" fill="#A5835B"/>
<path d="M58 182H109V188H58V182Z" fill="#C2945C"/>
<path d="M58 177H109V183H58V177Z" fill="#A5835B"/>
<path d="M58 171H109V177H58V171Z" fill="#C2945C"/>
<path d="M58 166H109V172H58V166Z" fill="#A5835B"/>
<path d="M58 161H109V167H58V161Z" fill="#C2945C"/>
<path d="M58 156H109V162H58V156Z" fill="#A5835B"/>
<path d="M58 150H109V156H58V150Z" fill="#C2945C"/>
<path d="M58 145H109V151H58V145Z" fill="#A5835B"/>
<path d="M58 140H109V146H58V140Z" fill="#C2945C"/>
<path d="M136 140H140V203H136V140Z" fill="#D8D8D8"/>
<path d="M286 124H290V203H286V124Z" fill="#D8D8D8"/>
<path d="M312 124H316V203H312V124Z" fill="#D8D8D8"/>
<path d="M165 140H169V203H165V140Z" fill="#D8D8D8"/>
<path d="M218 154H246V160H218V154Z" fill="#A0A09F" fill-opacity="0.15"/>
<path d="M195 140H246V143H195V140Z" fill="#292929" fill-opacity="0.1"/>
<path d="M165 140H169V146H165V140Z" fill="#292929" fill-opacity="0.1"/>
<path d="M136 140H140V146H136V140Z" fill="#292929" fill-opacity="0.1"/>
<path d="M109 140H136V145H109V140Z" fill="#A0A09F" fill-opacity="0.15"/>
<path d="M140 140H165V145H140V140Z" fill="#A0A09F" fill-opacity="0.15"/>
<path d="M169 140H195V145H169V140Z" fill="#A0A09F" fill-opacity="0.15"/>
<path fill-rule="evenodd" clip-rule="evenodd" d="M236.023 86.7959C239.143 86.7959 241.672 99.9528 241.672 116.182H246.195C246.195 98.703 241.64 84.5352 236.023 84.5352C232.826 84.5352 229.975 88.7942 228.111 95.4522C226.247 88.7942 223.396 84.5352 220.2 84.5352C214.584 84.5352 210.027 98.703 210.027 116.182H214.55C214.55 99.9528 217.08 86.7959 220.2 86.7959C223.32 86.7959 225.85 98.9404 225.85 113.921H230.372C230.372 98.9404 232.902 86.7959 236.023 86.7959Z" fill="#FFBC0D"/>
<rect x="63" y="33" width="6" height="170" fill="#F9F9F9"/>
<rect x="66" y="33" width="3" height="170" fill="#F1F1F1"/>
<path d="M66 26C68.2091 26 70 27.7909 70 30C70 31.195 69.4754 32.267 68.6445 33H63.3555C62.5246 32.267 62 31.195 62 30C62 27.7909 63.7909 26 66 26Z" fill="#FFBC0D"/>
<path opacity="0.5" d="M66 26C67.3598 26 68.5605 26.6789 69.2832 27.7158C68.6357 27.2648 67.8489 27 67 27C64.7909 27 63 28.7909 63 31C63 31.8496 63.2659 32.6366 63.7178 33.2842C62.6799 32.5616 62 31.3605 62 30C62 27.7909 63.7909 26 66 26Z" fill="#F9F9F9"/>
<g clip-path="url(#clip1_102_69763)">
<path d="M69 33H124.323V69.882H69V33Z" fill="white"/>
<path d="M111.974 50.9718L106.463 61.5296C106.345 61.7458 106.431 62.0159 106.658 62.1348C106.874 62.2537 107.144 62.1672 107.263 61.9403L112.774 51.3825C112.882 51.1556 112.785 50.8854 112.558 50.7881C112.342 50.6909 112.093 50.7665 111.974 50.9718Z" fill="#1583C4"/>
<path d="M112.749 53.3159L106.504 61.4638C106.364 61.6692 106.418 61.9501 106.623 62.0906C106.807 62.2203 107.066 62.1879 107.217 62.015L113.463 53.867C113.614 53.6725 113.582 53.3915 113.376 53.2402C113.182 53.0781 112.901 53.1213 112.749 53.3159Z" fill="#1583C4"/>
<path d="M109.951 52.5915L106.44 61.5716C106.353 61.7985 106.461 62.0687 106.699 62.1551C106.926 62.2416 107.196 62.1335 107.283 61.8958L110.794 52.9157C110.87 52.678 110.751 52.4294 110.513 52.343C110.286 52.2781 110.049 52.3862 109.951 52.5915Z" fill="#1583C4"/>
<path d="M82.1935 51.5751C82.2367 51.7588 82.3232 52.083 82.4312 52.4936C82.6149 53.1852 82.8202 53.8768 83.0363 54.5144C83.2848 55.26 84.6247 57.9076 85.219 58.7397C85.9645 59.7879 86.7425 60.8253 87.5421 61.8303C87.715 62.0356 88.0283 62.0572 88.2336 61.8843C88.4281 61.7114 88.4606 61.4197 88.3093 61.2143C87.5205 60.2201 86.7533 59.2044 86.0186 58.1669C85.5647 57.5402 84.1601 54.8062 83.9656 54.201C83.6522 53.2609 83.3821 52.2991 83.1444 51.3373C83.0903 51.078 82.831 50.9051 82.5717 50.9591C82.3124 51.0132 82.1395 51.2725 82.1935 51.5319C82.1827 51.5535 82.1935 51.5643 82.1935 51.5751Z" fill="#409347"/>
<path d="M101.103 45.4178C101.103 45.4178 99.2014 37.6264 97.2024 37.6264C96.4568 37.6264 95.9166 37.5616 95.5384 38.318C95.4411 38.5017 93.3017 38.1451 93.4746 40.5657C93.5286 41.3113 93.5934 39.5067 95.0846 40.1983C95.7653 40.5225 93.3125 45.407 93.3125 45.407H101.103V45.4178Z" fill="#FFD836"/>
<path fill-rule="evenodd" clip-rule="evenodd" d="M97.0421 37.571C97.0952 37.5714 97.1492 37.5718 97.2039 37.5718C97.4719 37.5718 97.7324 37.7023 97.9809 37.9199C98.2297 38.1377 98.4712 38.4469 98.7023 38.8144C99.1647 39.5495 99.5913 40.5275 99.9544 41.5025C100.318 42.4782 100.618 43.4535 100.828 44.1848C100.933 44.5504 101.015 44.8552 101.071 45.0686C101.099 45.1753 101.121 45.2591 101.135 45.3163C101.138 45.3298 101.141 45.3418 101.144 45.3523H101.159V45.8654L101.06 45.4602H93.2266L93.2658 45.382L93.314 45.4062C93.2658 45.382 93.2658 45.3821 93.2658 45.382L93.2659 45.3818L93.2728 45.3681C93.2774 45.3589 93.2842 45.3452 93.2931 45.3273C93.3108 45.2915 93.3368 45.239 93.3696 45.172C93.4353 45.038 93.5283 44.8461 93.6379 44.6149C93.857 44.1523 94.1419 43.5324 94.4056 42.9027C94.6694 42.2724 94.911 41.6342 95.0442 41.1343C95.111 40.8839 95.1496 40.6717 95.1514 40.5138C95.1524 40.4349 95.144 40.373 95.1276 40.3279C95.1116 40.2837 95.0893 40.259 95.0631 40.2464C94.6988 40.0775 94.4286 40.0641 94.2275 40.12C94.0259 40.1761 93.8852 40.3043 93.7848 40.4345C93.7346 40.4996 93.6949 40.5646 93.6629 40.6208C93.6532 40.6377 93.6439 40.6544 93.6351 40.6704C93.6159 40.7049 93.5989 40.7356 93.5851 40.7556C93.5796 40.7634 93.5734 40.7717 93.5663 40.7789C93.56 40.7853 93.5488 40.7953 93.5328 40.8002C93.5128 40.8064 93.4913 40.8027 93.4744 40.7895C93.4608 40.7789 93.4537 40.765 93.4499 40.7559C93.442 40.7371 93.4371 40.7117 93.4332 40.6834C93.4292 40.6538 93.4257 40.6159 93.4223 40.5689C93.3785 39.956 93.4807 39.513 93.6652 39.1916C93.8498 38.8698 94.1139 38.6749 94.3845 38.5531C94.6544 38.4317 94.9317 38.3826 95.1444 38.3522C95.1805 38.3471 95.2143 38.3425 95.2457 38.3383C95.3086 38.3298 95.3623 38.3225 95.4063 38.3143C95.4391 38.3082 95.4631 38.3021 95.4794 38.2959C95.4879 38.2926 95.492 38.2901 95.4937 38.289C95.6884 37.9018 95.9286 37.7186 96.2194 37.6359C96.4618 37.567 96.7385 37.5689 97.0421 37.571ZM93.401 45.3523H101.033C101.032 45.3492 101.031 45.346 101.03 45.3428C101.016 45.2858 100.995 45.2023 100.967 45.0959C100.911 44.8832 100.829 44.5793 100.724 44.2145C100.515 43.4849 100.215 42.5124 99.8533 41.5402C99.4911 40.5674 99.0675 39.5976 98.611 38.8718C98.3828 38.5088 98.1477 38.2093 97.9099 38.001C97.6718 37.7926 97.4357 37.6796 97.2039 37.6796C97.1472 37.6796 97.0921 37.6793 97.0384 37.6789C96.7337 37.677 96.4752 37.6753 96.2489 37.7397C95.9896 37.8134 95.7713 37.9751 95.5881 38.3414L95.5875 38.3425C95.5718 38.3723 95.5414 38.3876 95.5181 38.3965C95.4925 38.4064 95.4607 38.4139 95.426 38.4203C95.3794 38.429 95.3213 38.4369 95.2565 38.4456C95.2256 38.4498 95.1931 38.4542 95.1597 38.459C94.9493 38.489 94.6843 38.5365 94.4288 38.6515C94.174 38.7661 93.9296 38.9474 93.7587 39.2453C93.5876 39.5435 93.4872 39.9637 93.5298 40.5611C93.5317 40.5865 93.5335 40.6086 93.5354 40.6277C93.5358 40.6269 93.5363 40.626 93.5368 40.6252C93.5461 40.6083 93.5568 40.589 93.5692 40.5673C93.6024 40.5091 93.645 40.4393 93.6994 40.3686C93.8084 40.2273 93.967 40.0806 94.1986 40.0161C94.4306 39.9516 94.7276 39.9719 95.1087 40.1487L95.1092 40.1489C95.168 40.1769 95.2062 40.2282 95.229 40.2911C95.2515 40.3532 95.2603 40.4295 95.2593 40.5151C95.2573 40.6865 95.2159 40.909 95.1484 41.1621C95.0133 41.6693 94.7693 42.313 94.505 42.9443C94.2405 43.5762 93.9548 44.1977 93.7353 44.6611C93.6256 44.8928 93.5323 45.0851 93.4665 45.2194C93.44 45.2735 93.4179 45.3182 93.401 45.3523ZM93.4894 40.7032C93.4889 40.7037 93.489 40.7037 93.4894 40.7032V40.7032Z" fill="#231F20"/>
<path d="M119.365 38.2319L109.543 40.6093C101.407 42.5869 104.994 45.4074 104.994 45.4074L97.2037 46.7041L89.4131 45.4074C89.4131 45.4074 93.0005 42.5869 84.8641 40.6093L75.0421 38.2319C73.659 37.897 73.1187 38.5994 73.8967 39.8097C73.8967 39.8097 85.4152 51.0483 87.5978 51.9128C89.7805 52.7881 92.0064 51.9128 92.0064 51.9128C92.0064 51.9128 90.3964 52.8529 89.4131 54.5063C88.419 56.1597 88.9161 58.2561 85.2099 58.8504C84.6156 59.5637 84.6696 60.3633 85.5232 61.0009C86.3768 61.6277 93.3138 55.803 93.3138 55.803C93.3138 55.803 90.7206 58.4398 90.7206 59.7041C90.7206 60.2553 95.4857 65.5179 97.2145 65.5179C98.9434 65.5179 103.709 60.2553 103.709 59.7041C103.709 58.4398 101.115 55.803 101.115 55.803C101.115 55.803 108.052 61.6277 108.906 61.0009C109.759 60.3741 110.138 58.9153 109.208 58.8504C106.183 58.6559 105.999 56.1597 105.005 54.5063C104.011 52.8529 102.412 51.9128 102.412 51.9128C102.412 51.9128 104.638 52.7881 106.82 51.9128C109.003 51.0375 120.511 39.8097 120.511 39.8097C121.289 38.5994 120.759 37.897 119.365 38.2319Z" fill="#FFD836"/>
<path fill-rule="evenodd" clip-rule="evenodd" d="M75.054 38.1788C75.054 38.1788 75.054 38.1788 75.054 38.1788L84.876 40.5562C86.913 41.0513 88.2213 41.6002 89.0367 42.1478C89.8527 42.6958 90.1798 43.2459 90.2425 43.7424C90.3049 44.2374 90.1029 44.6653 89.8897 44.9662C89.7829 45.117 89.6723 45.2373 89.5884 45.32C89.5686 45.3395 89.5503 45.3569 89.5338 45.3721L97.203 46.6487L104.872 45.3721C104.856 45.3569 104.837 45.3395 104.817 45.32C104.734 45.2373 104.623 45.117 104.516 44.9662C104.303 44.6653 104.101 44.2374 104.163 43.7424C104.226 43.2459 104.553 42.6958 105.369 42.1478C106.185 41.6002 107.493 41.0513 109.53 40.5562L119.352 38.1788C119.705 38.094 120.007 38.0738 120.25 38.1129C120.493 38.1521 120.68 38.2516 120.795 38.4086C120.911 38.5659 120.948 38.7725 120.908 39.0134C120.869 39.2539 120.752 39.5317 120.555 39.8381L120.552 39.8432L120.548 39.8475L120.51 39.8089C120.548 39.8475 120.548 39.8476 120.547 39.8476L120.547 39.848L120.515 39.8798C120.493 39.9011 120.46 39.9327 120.418 39.9739C120.333 40.0564 120.208 40.1774 120.049 40.3318C119.73 40.6406 119.272 41.0827 118.715 41.6159C117.602 42.6823 116.095 44.1133 114.52 45.5718C112.945 47.0302 111.301 48.5163 109.914 49.6927C109.221 50.2809 108.592 50.7921 108.067 51.1838C107.544 51.5744 107.12 51.8497 106.84 51.9621C105.737 52.4043 104.625 52.4038 103.79 52.2937C103.372 52.2386 103.023 52.1559 102.778 52.087C102.776 52.0863 102.774 52.0856 102.771 52.085C102.931 52.1976 103.138 52.3526 103.37 52.5475C103.897 52.9916 104.549 53.6443 105.051 54.4777C105.286 54.8685 105.475 55.3056 105.666 55.7446C105.679 55.774 105.692 55.8035 105.704 55.8329C105.909 56.3028 106.118 56.7721 106.39 57.1955C106.661 57.6183 106.993 57.9937 107.443 58.2756C107.893 58.5574 108.462 58.7477 109.211 58.7958L109.211 58.7959C109.46 58.8132 109.629 58.9257 109.72 59.0998C109.81 59.2703 109.822 59.4921 109.778 59.7242C109.69 60.1884 109.375 60.7219 108.937 61.0436C108.869 61.0939 108.776 61.1075 108.672 61.0988C108.568 61.09 108.445 61.0578 108.307 61.0074C108.031 60.9064 107.686 60.7283 107.3 60.4987C106.527 60.0393 105.578 59.3686 104.657 58.6794C103.736 57.99 102.842 57.281 102.178 56.7445C102.005 56.6045 101.847 56.4763 101.709 56.3631C101.928 56.6092 102.191 56.9142 102.453 57.2452C102.778 57.6548 103.104 58.1053 103.349 58.5336C103.593 58.9598 103.762 59.3722 103.762 59.7034C103.762 59.7521 103.737 59.8153 103.702 59.8841C103.665 59.9557 103.612 60.0425 103.544 60.1417C103.409 60.3404 103.215 60.5926 102.978 60.8787C102.503 61.4511 101.852 62.162 101.147 62.8554C100.442 63.5487 99.6823 64.2257 98.9895 64.7299C98.6432 64.9819 98.3124 65.1916 98.0129 65.3384C97.7144 65.4847 97.442 65.5711 97.2138 65.5711C96.9855 65.5711 96.7131 65.4847 96.4146 65.3384C96.1151 65.1916 95.7844 64.9819 95.438 64.7299C94.7452 64.2257 93.9854 63.5487 93.2806 62.8554C92.5758 62.162 91.9249 61.4511 91.4499 60.8787C91.2124 60.5926 91.0183 60.3404 90.8833 60.1417C90.8159 60.0425 90.7625 59.9557 90.7257 59.8841C90.6904 59.8153 90.6659 59.7521 90.6659 59.7034C90.6659 59.3722 90.8344 58.9598 91.0782 58.5336C91.3232 58.1053 91.6492 57.6548 91.9742 57.2452C92.2367 56.9142 92.4992 56.6092 92.7188 56.3631C92.5805 56.4763 92.423 56.6045 92.2497 56.7445C91.5857 57.281 90.6914 57.99 89.7702 58.6794C88.8493 59.3686 87.9003 60.0393 87.1274 60.4987C86.7412 60.7283 86.3969 60.9064 86.1208 61.0074C85.9829 61.0578 85.8595 61.09 85.7551 61.0988C85.6516 61.1075 85.559 61.0939 85.4905 61.0436L85.4902 61.0433C85.0553 60.7186 84.8175 60.3473 84.7693 59.9599C84.721 59.5725 84.8638 59.1798 85.1677 58.8151L85.1806 58.7996L85.2005 58.7964C86.1222 58.6486 86.7787 58.408 87.2611 58.1069C87.7427 57.8062 88.0532 57.4437 88.281 57.0478C88.5024 56.6632 88.6456 56.2474 88.792 55.8224C88.7968 55.8085 88.8016 55.7946 88.8064 55.7806C88.9573 55.3428 89.1142 54.8967 89.366 54.4779C89.3661 54.4778 89.3661 54.4778 89.3661 54.4777L89.4122 54.5054L89.366 54.4779C89.366 54.4779 89.366 54.4779 89.366 54.4779C89.8618 53.6444 90.5148 52.9915 91.043 52.5475C91.2743 52.353 91.4819 52.1984 91.6424 52.0858C91.7629 52.0518 91.8579 52.0212 91.9231 51.9989C91.9561 51.9877 91.9815 51.9786 91.9987 51.9722C92.0073 51.9691 92.0139 51.9666 92.0183 51.9649L92.0234 51.9629L92.0248 51.9624L92.0252 51.9623L92.0253 51.9622C92.0253 51.9622 92.0253 51.9622 92.0056 51.912C91.9784 51.8654 91.9784 51.8654 91.9784 51.8655L91.978 51.8657L91.9771 51.8662L91.9734 51.8684C91.9702 51.8703 91.9655 51.8731 91.9593 51.8768C91.9471 51.8843 91.929 51.8954 91.9058 51.91C91.8593 51.9393 91.792 51.9828 91.7082 52.0402C91.6873 52.0546 91.6653 52.0698 91.6424 52.0858C91.6411 52.0862 91.6397 52.0866 91.6383 52.087C91.3936 52.1559 91.0445 52.2386 90.6269 52.2937C89.7921 52.4038 88.6799 52.4043 87.5772 51.9621C87.5771 51.9621 87.5772 51.9621 87.5772 51.9621L87.597 51.912L87.577 51.9621C87.577 51.9621 87.5771 51.9621 87.5772 51.9621C87.2969 51.8511 86.873 51.5768 86.3495 51.187C85.8243 50.796 85.1944 50.2853 84.5006 49.6973C83.1129 48.5214 81.4678 47.0349 79.8914 45.5758C78.3148 44.1167 76.8066 42.6846 75.6925 41.6174C75.1354 41.0838 74.6769 40.6413 74.3576 40.3323C74.198 40.1777 74.0732 40.0566 73.9883 39.974C73.9458 39.9327 73.9133 39.9011 73.8914 39.8798L73.8584 39.8476C73.8583 39.8476 73.8583 39.8475 73.8959 39.8089L73.9413 39.7797C73.9402 39.778 73.9391 39.7763 73.938 39.7746L73.9667 39.8025C73.9885 39.8238 74.021 39.8554 74.0634 39.8967C74.1483 39.9792 74.2731 40.1003 74.4326 40.2548C74.7518 40.5637 75.2102 41.006 75.7671 41.5395C76.8809 42.6065 78.3887 44.0381 79.9646 45.4967C81.5406 46.9553 83.1844 48.4406 84.5703 49.615C85.2633 50.2023 85.8913 50.7114 86.4139 51.1005C86.938 51.4907 87.3515 51.7567 87.6169 51.8619L87.6171 51.8619C88.697 52.295 89.789 52.2955 90.6128 52.1868C91.0244 52.1325 91.3683 52.051 91.6091 51.9832C91.7295 51.9493 91.824 51.9188 91.8883 51.8969C91.9204 51.8859 91.945 51.8771 91.9615 51.871C91.9697 51.868 91.9759 51.8656 91.98 51.8641L91.9845 51.8623L91.9858 51.8618L92.0328 51.9585L92.0326 51.9587L92.0318 51.9591L92.0285 51.9611C92.0266 51.9622 92.024 51.9638 92.0208 51.9657C92.0191 51.9667 92.0173 51.9678 92.0152 51.9691C92.0034 51.9762 91.9859 51.987 91.9632 52.0013C91.9178 52.0299 91.8517 52.0727 91.7692 52.1292C91.6041 52.2424 91.3735 52.4105 91.1124 52.63C90.5898 53.0694 89.9462 53.7133 89.4587 54.5331L89.4585 54.5333C89.2133 54.9411 89.0596 55.377 88.9084 55.8158L88.8928 55.861C88.7473 56.2833 88.6011 56.7078 88.3745 57.1016C88.139 57.5108 87.8167 57.8872 87.3182 58.1984C86.8239 58.507 86.1587 58.75 85.2377 58.8997C85.2419 58.8945 85.2462 58.8893 85.2505 58.8842L85.2091 58.8497L85.2176 58.9029C85.2243 58.9018 85.231 58.9007 85.2377 58.8997C84.9564 59.2435 84.8333 59.6017 84.8763 59.9466C84.9199 60.2967 85.1358 60.644 85.5544 60.9567C85.5544 60.9567 85.5544 60.9567 85.5544 60.9567L85.5224 61.0001L85.5547 60.9569C85.5546 60.9568 85.5545 60.9568 85.5544 60.9567C85.5927 60.9847 85.6543 60.999 85.7461 60.9913C85.8371 60.9836 85.9503 60.9549 86.0837 60.9061C86.3504 60.8085 86.6881 60.6344 87.0723 60.406C87.8402 59.9496 88.7855 59.2817 89.7055 58.5931C90.6253 57.9047 91.5185 57.1967 92.1819 56.6606C92.5136 56.3926 92.7877 56.1677 92.979 56.0098C93.0746 55.9308 93.1495 55.8686 93.2004 55.8261C93.2259 55.8049 93.2454 55.7886 93.2585 55.7776L93.2771 55.762L93.2781 55.7612L93.2783 55.761C93.2784 55.761 93.2784 55.761 93.313 55.8023C93.3515 55.8401 93.3515 55.8401 93.3515 55.8401L93.3497 55.8419L93.3442 55.8475C93.3393 55.8525 93.3321 55.86 93.3227 55.8697C93.3038 55.8892 93.276 55.918 93.2407 55.9552C93.17 56.0295 93.069 56.1372 92.9477 56.2703C92.7051 56.5367 92.3818 56.9048 92.0587 57.3122C91.7353 57.7198 91.413 58.1655 91.1718 58.5872C90.9293 59.011 90.7737 59.4023 90.7737 59.7034C90.7737 59.7235 90.7863 59.766 90.8217 59.8348C90.8556 59.9009 90.9063 59.9837 90.9725 60.0811C91.1048 60.2757 91.2965 60.5251 91.5328 60.8098C92.0053 61.3792 92.6537 62.0874 93.3563 62.7785C94.0589 63.4698 94.8146 64.1428 95.5014 64.6427C95.8449 64.8926 96.1701 65.0984 96.4621 65.2415C96.7551 65.3852 97.0098 65.4632 97.2138 65.4632C97.4177 65.4632 97.6724 65.3852 97.9654 65.2415C98.2574 65.0984 98.5826 64.8926 98.9261 64.6427C99.613 64.1428 100.369 63.4698 101.071 62.7785C101.774 62.0874 102.422 61.3792 102.895 60.8098C103.131 60.5251 103.323 60.2757 103.455 60.0811C103.521 59.9837 103.572 59.9009 103.606 59.8348C103.641 59.766 103.654 59.7235 103.654 59.7034C103.654 59.4023 103.498 59.011 103.256 58.5872C103.015 58.1655 102.692 57.7198 102.369 57.3122C102.046 56.9048 101.722 56.5367 101.48 56.2703C101.359 56.1372 101.258 56.0295 101.187 55.9552C101.174 55.9416 101.162 55.929 101.151 55.9177C101.132 55.8981 101.117 55.8821 101.105 55.8697C101.095 55.86 101.088 55.8525 101.083 55.8475L101.078 55.8419L101.076 55.8401C101.076 55.8401 101.076 55.8401 101.082 55.8346L101.076 55.8401L101.149 55.761L101.147 55.7639C101.149 55.761 101.149 55.761 101.149 55.761L101.149 55.7612L101.15 55.762L101.169 55.7776C101.182 55.7886 101.202 55.8049 101.227 55.8261C101.278 55.8686 101.353 55.9308 101.449 56.0098C101.64 56.1677 101.914 56.3926 102.246 56.6606C102.909 57.1967 103.802 57.9047 104.722 58.5931C105.642 59.2817 106.587 59.9496 107.355 60.406C107.739 60.6344 108.077 60.8085 108.344 60.9061C108.477 60.9549 108.59 60.9836 108.681 60.9913C108.773 60.999 108.835 60.9847 108.873 60.9567C109.289 60.6515 109.589 60.1422 109.672 59.7042C109.713 59.4851 109.699 59.2908 109.625 59.15C109.553 59.0128 109.42 58.9186 109.204 58.9035C108.44 58.8543 107.852 58.6596 107.386 58.367C106.919 58.0745 106.576 57.686 106.299 57.2538C106.022 56.8221 105.81 56.3452 105.606 55.876C105.593 55.8471 105.58 55.8182 105.568 55.7894C105.377 55.3487 105.189 54.9178 104.958 54.5333C104.465 53.7134 103.821 53.0693 103.3 52.63C103.04 52.4104 102.81 52.2423 102.646 52.1291C102.564 52.0726 102.498 52.0298 102.453 52.0012C102.44 51.9929 102.428 51.9857 102.419 51.9798C102.412 51.9756 102.406 51.972 102.401 51.969C102.395 51.9654 102.391 51.9628 102.388 51.961L102.385 51.9591L102.384 51.9586L102.384 51.9585L102.431 51.8619L102.431 51.8619L102.432 51.8623L102.437 51.8641C102.441 51.8656 102.447 51.868 102.455 51.871C102.472 51.8771 102.496 51.8859 102.528 51.8969C102.593 51.9188 102.687 51.9493 102.808 51.9832C103.048 52.051 103.392 52.1325 103.804 52.1868C104.628 52.2955 105.72 52.295 106.8 51.8619C107.065 51.7555 107.479 51.4884 108.002 51.0974C108.525 50.7076 109.152 50.198 109.845 49.6105C111.23 48.4355 112.872 46.9506 114.447 45.4926C116.021 44.0347 117.528 42.6041 118.64 41.538C119.197 41.0049 119.655 40.563 119.974 40.2543C120.133 40.1 120.258 39.979 120.343 39.8965C120.385 39.8553 120.417 39.8238 120.439 39.8025L120.468 39.7746C120.658 39.4779 120.766 39.2158 120.802 38.9959C120.838 38.7752 120.802 38.6003 120.708 38.4725C120.614 38.3445 120.456 38.2555 120.232 38.2194C120.008 38.1833 119.721 38.2009 119.377 38.2836M119.377 38.2836L109.555 40.661C107.524 41.1547 106.23 41.6999 105.429 42.2373C104.63 42.7744 104.328 43.3002 104.27 43.7559C104.213 44.2133 104.399 44.6141 104.604 44.9038C104.707 45.0483 104.813 45.1638 104.893 45.2431C104.933 45.2827 104.967 45.3133 104.991 45.3338C105.002 45.344 105.012 45.3517 105.018 45.3568C105.021 45.3594 105.023 45.3613 105.025 45.3625L105.026 45.3639L105.027 45.3642L105.123 45.4397L97.203 46.758L89.283 45.4397L89.379 45.3642L89.3794 45.3639L89.3811 45.3625C89.3826 45.3613 89.385 45.3594 89.3881 45.3568C89.3943 45.3517 89.4035 45.344 89.4152 45.3338C89.4388 45.3133 89.4725 45.2827 89.5127 45.2431C89.5933 45.1638 89.6994 45.0483 89.8017 44.9038C90.007 44.6141 90.1932 44.2133 90.1355 43.7559C90.0779 43.3002 89.7763 42.7744 88.9766 42.2373C88.1762 41.6999 86.8818 41.1547 84.8506 40.661M84.8506 40.661L75.0286 38.2836C74.6873 38.2009 74.4018 38.1833 74.1781 38.2194C73.9546 38.2555 73.7963 38.3445 73.7016 38.4726C73.607 38.6005 73.5699 38.7755 73.6054 38.9961C73.6408 39.216 73.748 39.478 73.938 39.7746L73.9337 39.7704C73.9336 39.7704 73.9336 39.7703 73.8959 39.8089L73.8583 39.8475L73.8539 39.8432L73.8506 39.8381C73.6536 39.5316 73.5377 39.2538 73.499 39.0133C73.4602 38.7722 73.4987 38.5656 73.6149 38.4085C73.7309 38.2516 73.9183 38.1521 74.1609 38.1129C74.4031 38.0738 74.7038 38.094 75.054 38.1788M93.313 55.8023L93.3515 55.8401L93.2783 55.761L93.313 55.8023Z" fill="#231F20"/>
<path d="M90.75 45.082V53.7595C90.75 58.698 97.2008 60.2109 97.2008 60.2109C97.2008 60.2109 103.652 58.698 103.652 53.7595V45.082H90.75Z" fill="white"/>
<path fill-rule="evenodd" clip-rule="evenodd" d="M90.7492 45.0273H103.705V53.7588C103.705 56.2553 102.073 57.8825 100.454 58.8823C99.6433 59.3825 98.8334 59.7274 98.2263 59.9473C97.9226 60.0572 97.6695 60.136 97.4922 60.1873C97.4035 60.2129 97.3337 60.2317 97.286 60.2441C97.2622 60.2503 97.2438 60.2549 97.2314 60.258C97.2252 60.2595 97.2205 60.2607 97.2173 60.2615L97.2136 60.2623L97.2127 60.2626L97.2124 60.2626C97.2123 60.2626 97.2123 60.2626 97.2 60.2101C97.1877 60.2626 97.1876 60.2626 97.1876 60.2626L97.1873 60.2626L97.1864 60.2623L97.1827 60.2615C97.1795 60.2607 97.1748 60.2595 97.1686 60.258C97.1561 60.2549 97.1378 60.2503 97.114 60.2441C97.0663 60.2317 96.9965 60.2129 96.9078 60.1873C96.7305 60.136 96.4773 60.0572 96.1737 59.9473C95.5666 59.7274 94.7567 59.3825 93.9463 58.8823C92.3267 57.8825 90.6953 56.2553 90.6953 53.7588V45.0813H90.7492V45.0273ZM90.8032 45.1352V53.7588C90.8032 56.2007 92.3971 57.7992 94.0029 58.7905C94.8052 59.2858 95.608 59.6277 96.2104 59.8459C96.5115 59.9549 96.7624 60.033 96.9378 60.0837C97.0255 60.109 97.0943 60.1276 97.1411 60.1398C97.1645 60.1458 97.1824 60.1503 97.1944 60.1533C97.1964 60.1538 97.1983 60.1543 97.2 60.1547C97.2017 60.1543 97.2035 60.1538 97.2056 60.1533C97.2176 60.1503 97.2355 60.1458 97.2589 60.1398C97.3057 60.1276 97.3745 60.109 97.4622 60.0837C97.6376 60.033 97.8884 59.9549 98.1896 59.8459C98.792 59.6277 99.5947 59.2858 100.397 58.7905C102.003 57.7992 103.597 56.2007 103.597 53.7588V45.1352H90.8032ZM97.2 60.2101L97.1877 60.2626L97.2 60.2655L97.2123 60.2626L97.2 60.2101Z" fill="#231F20"/>
<path d="M93.332 47.8789V58.3935C94.2181 59.0418 95.1689 59.4957 95.9145 59.7875V47.8789H93.332ZM101.069 47.8789V58.3935C100.183 59.0418 99.2317 59.4957 98.4862 59.7875V47.8789H101.069Z" fill="#D80027"/>
<path d="M90.75 45.082H103.652V49.1776H90.75V45.082Z" fill="#0052B4"/>
<path d="M75.4929 55.7466L73.1265 49.4681H70.6953L74.1314 58.1996H76.8543L80.258 49.4681H77.8268L75.4929 55.7466ZM117.785 49.4141H119.827V58.2428H117.785V49.4141Z" fill="#1583C4"/>
</g>
<path d="M67.8158 205.5L68.7364 205.494C75.9374 205.404 81.6316 204.137 81.6316 196.816C81.6316 189.186 75.446 183 67.8158 183C60.1855 183 54 189.186 54 196.816C54 204.446 60.1855 205.5 67.8158 205.5Z" fill="#9CC93A"/>
<path d="M98.8158 205.5L99.7364 205.494C106.937 205.404 112.632 204.137 112.632 196.816C112.632 189.186 106.446 183 98.8158 183C91.1855 183 85 189.186 85 196.816C85 204.446 91.1855 205.5 98.8158 205.5Z" fill="#9CC93A"/>
<path d="M128.816 205.5L129.736 205.494C136.937 205.404 142.632 204.137 142.632 196.816C142.632 189.186 136.446 183 128.816 183C121.186 183 115 189.186 115 196.816C115 204.446 121.186 205.5 128.816 205.5Z" fill="#9CC93A"/>
<path d="M253.561 29.8555C255.088 29.8555 256.327 31.0943 256.327 32.6221C256.327 34.0685 255.217 35.2538 253.802 35.376C254.09 36.0127 254.252 36.7186 254.252 37.4629C254.252 40.2639 251.982 42.5342 249.181 42.5342H257.94C260.741 42.5342 263.013 44.8055 263.013 47.6064H269.929C272.729 47.6066 275 49.8769 275 52.6777C275 55.4786 272.73 57.7498 269.929 57.75H262.332C261.455 59.2653 259.817 60.2852 257.94 60.2852H215.523C213.647 60.2852 212.009 59.2653 211.132 57.75H206.071C203.27 57.7498 201 55.4786 201 52.6777C201 49.8769 203.271 47.6066 206.071 47.6064H210.452C210.452 44.8055 212.722 42.5342 215.523 42.5342H221.748C221.748 39.7334 224.018 37.4629 226.819 37.4629H235.349C235.349 34.6619 237.62 32.3916 240.421 32.3916H249.181C249.746 32.3916 250.288 32.4849 250.796 32.6553C250.796 32.6442 250.795 32.6332 250.795 32.6221C250.795 31.0943 252.033 29.8556 253.561 29.8555Z" fill="white"/>
<path d="M140.047 2C143.684 2 146.634 4.94858 146.634 8.58594C146.634 8.65081 146.631 8.71586 146.629 8.78027H148.184C150.537 8.78048 152.445 10.6884 152.445 13.042H155.738C158.092 13.042 160 14.95 160 17.3037C160 19.6574 158.092 21.5654 155.738 21.5654H153.229C152.493 22.8389 151.116 23.6963 149.539 23.6963H133.461C131.884 23.6963 130.507 22.8389 129.771 21.5654H127.262C124.908 21.5654 123 19.6574 123 17.3037C123 14.95 124.908 13.042 127.262 13.042H127.843C127.843 10.6883 129.751 8.78037 132.104 8.78027H133.466C133.464 8.71585 133.461 8.65081 133.461 8.58594C133.461 4.94867 136.41 2.00015 140.047 2Z" fill="white"/>
</g>
<defs>
<clipPath id="clip0_102_69763">
<rect width="375" height="225" fill="white"/>
</clipPath>
<clipPath id="clip1_102_69763">
<rect width="55.3231" height="36.882" fill="white" transform="translate(69 33)"/>
</clipPath>
</defs>
</svg>
