<svg width="375" height="225" viewBox="0 0 375 225" fill="none" xmlns="http://www.w3.org/2000/svg">
<ellipse cx="188.196" cy="189.134" rx="68.1962" ry="10.3589" fill="#A0A09F" fill-opacity="0.15"/>
<path fill-rule="evenodd" clip-rule="evenodd" d="M133.848 66.8477C133.848 66.8477 133.848 108.353 133.848 129.105C133.848 147.267 135.483 183.591 135.483 183.591C135.483 186.816 138.504 189.428 142.227 189.428H233.374C237.097 189.428 240.118 186.816 240.118 183.591C240.118 183.591 241.753 149.061 241.753 131.796C241.753 110.147 241.753 66.8477 241.753 66.8477H220.172H198.591H177.01H155.429H133.848Z" fill="#C2945C"/>
<mask id="mask0_3835_40404" style="mask-type:luminance" maskUnits="userSpaceOnUse" x="133" y="66" width="109" height="124">
<path fill-rule="evenodd" clip-rule="evenodd" d="M133.848 66.8477C133.848 66.8477 133.848 108.353 133.848 129.105C133.848 147.267 135.483 183.591 135.483 183.591C135.483 186.816 138.504 189.428 142.227 189.428H233.374C237.097 189.428 240.118 186.816 240.118 183.591C240.118 183.591 241.753 149.061 241.753 131.796C241.753 110.147 241.753 66.8477 241.753 66.8477H220.172H198.591H177.01H155.429H133.848Z" fill="white"/>
</mask>
<g mask="url(#mask0_3835_40404)">
<rect x="129.762" y="168.156" width="116.013" height="25.3268" fill="#DB0007"/>
<path fill-rule="evenodd" clip-rule="evenodd" d="M227.835 104.449C237.302 104.449 244.982 142.622 244.982 189.693H258.702C258.702 138.992 244.881 97.8945 227.835 97.8945C218.143 97.8945 209.489 110.248 203.831 129.561C198.17 110.248 189.52 97.8945 179.821 97.8945C162.781 97.8945 148.957 138.992 148.957 189.693H162.677C162.677 142.622 170.357 104.449 179.821 104.449C189.295 104.449 196.971 139.682 196.971 183.138H210.688C210.688 139.682 218.371 104.449 227.835 104.449Z" fill="#FFBC0D"/>
</g>
<path d="M133.812 74.8027L241.718 74.8027V86.0249L133.812 88.6146V74.8027Z" fill="#292929" fill-opacity="0.1"/>
<path fill-rule="evenodd" clip-rule="evenodd" d="M133.573 48.8352L185.925 48.0566L242.044 48.8373C243.273 48.8544 244.282 49.815 244.359 51.042L245.7 72.3163C245.781 73.6132 244.796 74.7308 243.499 74.8125L243.425 74.816L132.267 74.8172C130.968 74.8172 129.914 73.7637 129.914 72.4642L129.919 72.3163L131.259 51.0399C131.337 49.8138 132.344 48.8535 133.573 48.8352Z" fill="#C2945C"/>
<mask id="mask1_3835_40404" style="mask-type:luminance" maskUnits="userSpaceOnUse" x="159" y="48" width="50" height="50">
<path fill-rule="evenodd" clip-rule="evenodd" d="M159.837 49.9082C159.623 49.1659 160.165 48.4229 160.938 48.4074C165.289 48.3199 177.955 48.0735 185.723 48.0103C193.566 47.9464 203.996 48.2802 207.388 48.3983C208.017 48.4202 208.509 48.9342 208.513 49.5635L208.82 95.893C208.824 96.5457 208.296 97.0772 207.643 97.0772H174.3C173.775 97.0772 173.314 96.7301 173.169 96.2262L159.837 49.9082Z" fill="white"/>
</mask>
<g mask="url(#mask1_3835_40404)">
<path fill-rule="evenodd" clip-rule="evenodd" d="M174.495 90.0163L167.594 48.0586L169.432 47.8884C175.631 47.3275 180.445 47.0301 183.873 46.9961L201.253 46.9928L207.317 85.2724C207.582 86.9492 206.484 88.5272 204.842 88.876L204.621 88.915L178.071 92.6464C176.362 92.8865 174.775 91.7188 174.495 90.0163Z" fill="#F1F1F1"/>
<mask id="mask2_3835_40404" style="mask-type:luminance" maskUnits="userSpaceOnUse" x="167" y="46" width="41" height="47">
<path fill-rule="evenodd" clip-rule="evenodd" d="M174.495 90.0163L167.594 48.0586L169.432 47.8884C175.631 47.3275 180.445 47.0301 183.873 46.9961L201.253 46.9928L207.317 85.2724C207.582 86.9492 206.484 88.5272 204.842 88.876L204.621 88.915L178.071 92.6464C176.362 92.8865 174.775 91.7188 174.495 90.0163Z" fill="white"/>
</mask>
<g mask="url(#mask2_3835_40404)">
<mask id="mask3_3835_40404" style="mask-type:luminance" maskUnits="userSpaceOnUse" x="174" y="57" width="31" height="31">
<path fill-rule="evenodd" clip-rule="evenodd" d="M174.117 61.5039L200.475 57.7995L204.18 84.1574L177.822 87.8618L174.117 61.5039Z" fill="white"/>
</mask>
<g mask="url(#mask3_3835_40404)">
<path fill-rule="evenodd" clip-rule="evenodd" d="M187.296 59.6517C180.018 60.6747 174.946 67.4044 175.969 74.6829C176.992 81.9615 183.722 87.0326 191.001 86.0096C198.279 84.9867 203.35 78.2571 202.327 70.9785C201.304 63.7 194.575 58.6288 187.296 59.6517Z" fill="#DB0007"/>
<circle cx="186.327" cy="80.4944" r="0.555661" transform="rotate(-8 186.327 80.4944)" fill="white"/>
<circle cx="194.03" cy="79.4124" r="0.555661" transform="rotate(-8 194.03 79.4124)" fill="white"/>
<circle cx="192.546" cy="80.0354" r="0.555661" transform="rotate(-8 192.546 80.0354)" fill="white"/>
<circle cx="191.026" cy="80.3948" r="0.555661" transform="rotate(-8 191.026 80.3948)" fill="white"/>
<circle cx="189.487" cy="80.6116" r="0.555661" transform="rotate(-8 189.487 80.6116)" fill="white"/>
<circle cx="187.924" cy="80.6858" r="0.555661" transform="rotate(-8 187.924 80.6858)" fill="white"/>
<path fill-rule="evenodd" clip-rule="evenodd" d="M184.288 77.9742C183.68 78.0597 183.257 78.6216 183.342 79.2294C183.428 79.8372 183.99 80.2607 184.597 80.1752C185.205 80.0898 185.629 79.5279 185.543 78.9201C185.458 78.3123 184.896 77.8888 184.288 77.9742ZM184.334 78.3C184.761 78.24 185.157 78.5385 185.217 78.9652C185.246 79.172 185.193 79.3775 185.067 79.5443C184.941 79.711 184.758 79.8188 184.552 79.8478C184.125 79.9078 183.729 79.6095 183.669 79.1827C183.64 78.9761 183.693 78.7703 183.819 78.6037C183.944 78.4369 184.127 78.3291 184.334 78.3Z" fill="white"/>
<path fill-rule="evenodd" clip-rule="evenodd" d="M196.547 77.3752C196.633 77.983 196.209 78.5449 195.601 78.6303C194.993 78.7157 194.431 78.2923 194.346 77.6845C194.261 77.0766 194.684 76.5147 195.292 76.4293C195.9 76.3439 196.462 76.7673 196.547 77.3752Z" fill="white"/>
</g>
<path fill-rule="evenodd" clip-rule="evenodd" d="M191.004 64.9199C192.143 64.7599 193.741 69.4339 194.574 75.3593L196.223 75.1274C195.326 68.7461 192.938 63.8065 190.888 64.0946C189.722 64.2585 188.9 65.9595 188.561 68.4863C187.539 66.1507 186.28 64.7422 185.114 64.9061C183.065 65.1941 182.129 70.6009 183.026 76.9822L184.676 76.7503C183.843 70.825 184.092 65.8914 185.23 65.7314C186.369 65.5714 187.916 69.8758 188.684 75.3453L190.334 75.1136C189.565 69.644 189.865 65.08 191.004 64.9199Z" fill="#FFBC0D"/>
<path d="M132.244 75.0873L240.904 75.0873L240.904 77.5383L132.244 77.5383L132.244 75.0873Z" fill="#292929" fill-opacity="0.1"/>
</g>
</g>
</svg>
