<svg width="27" height="18" viewBox="0 0 27 18" fill="none" xmlns="http://www.w3.org/2000/svg">
<g clip-path="url(#clip0_109_43728)">
<path d="M0 0H27V18H0V0Z" fill="#FFDA44"/>
<path d="M11.7148 1.17188H25.7727V16.7929H11.7148V1.17188Z" fill="#A2001D"/>
<path d="M1.17188 1.17188H11.714V16.7929H1.17188V1.17188Z" fill="#D80027"/>
<path d="M10.543 0H11.7167V18H10.543V0Z" fill="#FFDA44"/>
<path d="M1.17188 1.17188H5.85609V16.7929H1.17188V1.17188Z" fill="#6DA544"/>
<path d="M5.85938 1.17188H10.5436V16.7929H5.85938V1.17188Z" fill="#FF9811"/>
<path d="M19.378 8.25276C19.3043 8.1475 19.378 6.25803 19.378 6.25803C19.4254 5.86855 19.3833 5.81592 19.4306 5.65803C19.478 5.5054 19.7148 5.0475 19.7148 5.0475C19.7148 5.0475 19.399 4.92645 19.1727 5.01592C18.9464 5.1054 17.8727 4.62119 17.5306 5.19487C17.299 5.56329 16.2885 6.0475 16.2359 5.93171C16.1833 5.81592 15.9254 5.66855 15.8727 5.77908C15.8201 5.88961 15.8359 6.51066 15.8727 6.62118C15.9148 6.75803 16.3885 6.72645 16.5201 6.78434C16.7148 6.87908 17.1622 7.21592 17.1464 7.3475C17.1306 7.47908 15.9622 7.03171 15.8727 7.11066C15.799 7.17382 15.7727 7.80539 15.8517 7.90013C15.9464 8.01066 17.0833 8.19487 17.1675 8.29487C17.2517 8.39487 16.478 8.68434 16.5201 9.61065C16.5569 10.3843 16.9411 10.5264 16.9411 10.5264C16.9411 10.5264 16.8148 10.7159 16.5306 10.6896C16.2043 10.658 15.0885 9.75802 15.0885 9.75802C15.0885 9.75802 14.9043 4.02119 15.278 3.36856C15.5359 2.92119 14.0833 3.90013 14.0833 6.04224V7.9475C14.0833 8.29487 14.0096 9.12644 14.2201 9.73697C14.2201 9.73697 14.199 12.2054 14.299 12.3475C14.399 12.4896 14.9675 12.4633 15.078 12.3475C15.1885 12.2317 15.078 10.7685 15.078 10.7685C15.4833 10.7791 16.0411 11.6896 16.7885 11.6317C17.8727 11.5475 18.299 11.1107 18.5938 11.3685C19.0201 11.7422 18.8833 12.5896 18.6148 13.0264C18.499 13.2107 17.8622 13.2738 17.7885 13.4264C17.7148 13.5791 17.8148 13.7106 17.8148 13.7106H19.378C19.378 13.7106 19.4517 12.6317 19.5201 12.337C19.5885 12.037 19.4885 11.7738 19.8306 11.7896C21.0675 11.8475 21.9254 10.9843 22.2254 11.3685C22.3938 11.5843 22.5201 12.9422 22.399 13.1212C22.2833 13.3001 21.6727 13.2685 21.599 13.4738C21.5254 13.6843 21.6411 13.7054 21.6411 13.7054H23.2043C23.2043 13.7054 23.1833 12.5896 23.3359 12.2475C23.4885 11.9054 23.5938 11.7001 23.8254 11.3422C24.0569 10.9843 24.4201 10.5159 24.4201 9.43697C24.4201 8.6896 23.9938 8.23697 23.9938 8.23697H21.9464C21.2043 8.2475 19.4517 8.35802 19.378 8.25276ZM12.2201 1.70014C12.7833 1.14224 13.2833 1.55803 13.3885 1.81066C13.4885 2.06329 13.499 2.24224 13.5359 2.52645C13.5833 2.88961 13.7938 3.26329 13.7938 3.26329C13.7938 3.26329 13.4201 3.06329 13.0201 3.04224C12.7727 3.02645 12.5464 3.01066 12.3043 2.91066C12.0043 2.78961 11.6885 2.23172 12.2201 1.70014ZM25.2938 1.69487C25.8569 2.25277 25.4411 2.75803 25.1885 2.86329C24.9359 2.96856 24.7569 2.97382 24.4727 3.01066C24.1096 3.05803 23.7359 3.27382 23.7359 3.27382C23.7359 3.27382 23.9306 2.90014 23.9569 2.50014C23.9727 2.25277 23.9885 2.02119 24.0833 1.78435C24.199 1.48435 24.7569 1.1633 25.2938 1.69487ZM25.299 16.2685C24.7359 16.8264 24.2359 16.4054 24.1306 16.1528C24.0306 15.9001 24.0201 15.7212 23.9885 15.437C23.9464 15.0738 23.7306 14.6949 23.7306 14.6949C23.7306 14.6949 24.099 14.8949 24.5043 14.9212C24.7517 14.937 24.978 14.9528 25.2201 15.0528C25.5201 15.1791 25.8359 15.7422 25.299 16.2685ZM12.2359 16.2633C11.678 15.7001 12.0938 15.2001 12.3464 15.0949C12.599 14.9949 12.778 14.9843 13.0622 14.9475C13.4254 14.9001 13.799 14.6896 13.799 14.6896C13.799 14.6896 13.599 15.0633 13.578 15.4633C13.5622 15.7106 13.5464 15.937 13.4464 16.1791C13.3254 16.4791 12.7675 16.8001 12.2359 16.2633Z" fill="#FFDA44"/>
<path fill-rule="evenodd" clip-rule="evenodd" d="M20.4774 5.81023C20.3645 5.90729 20.2806 6.06396 20.2806 6.32813C20.2806 6.555 20.4189 6.75933 20.6948 6.88675C20.9731 7.01523 21.383 7.05797 21.8762 6.94281C22.41 6.81773 22.96 6.85742 23.3772 6.99017C23.5853 7.0564 23.7694 7.14863 23.9026 7.26334C24.0345 7.37693 24.135 7.53029 24.1224 7.71256C24.0966 8.09783 23.9751 8.34277 23.8463 8.49422C23.7827 8.56905 23.7194 8.61852 23.6697 8.65005C23.6449 8.66579 23.6235 8.67703 23.6071 8.68474C23.5989 8.6886 23.592 8.69159 23.5865 8.69381C23.5837 8.69493 23.5813 8.69585 23.5793 8.69661C23.5783 8.69698 23.5774 8.69732 23.5766 8.69761L23.5754 8.69802L23.5749 8.6982L23.5747 8.69828C23.5746 8.69832 23.5744 8.69836 23.5227 8.54918C23.471 8.39999 23.4709 8.40003 23.4708 8.40007L23.4706 8.40015L23.4702 8.40029L23.4695 8.40054L23.4684 8.40092C23.4679 8.40111 23.4677 8.40118 23.4679 8.40112C23.4682 8.401 23.4698 8.40035 23.4725 8.39908C23.4779 8.39654 23.4877 8.39154 23.5006 8.38334C23.5264 8.36701 23.5648 8.33786 23.6057 8.28966C23.6861 8.19509 23.7856 8.01642 23.8073 7.69131L23.8073 7.69082C23.8104 7.64689 23.7886 7.58191 23.6965 7.50262C23.6057 7.4244 23.4641 7.3492 23.2814 7.29109C22.9171 7.17516 22.425 7.13854 21.9482 7.25028L21.9481 7.25031C21.4046 7.37723 20.9197 7.33839 20.5625 7.17346C20.2029 7.00746 19.9648 6.70652 19.9648 6.32813C19.9648 5.98968 20.0764 5.73845 20.2717 5.5707C20.4614 5.4077 20.7101 5.34091 20.9543 5.32454C21.4392 5.29202 21.9802 5.45335 22.2443 5.59403L22.245 5.59437L22.245 5.59437C22.3528 5.65246 22.4879 5.74364 22.6278 5.83814C22.6547 5.8563 22.6818 5.87458 22.7089 5.89277C22.8823 6.0092 23.0643 6.1275 23.2377 6.21469C23.4157 6.30415 23.5615 6.3486 23.6672 6.34254C23.7159 6.33974 23.752 6.32645 23.7808 6.30463C23.8102 6.2824 23.8426 6.24323 23.87 6.17166L24.1649 6.2846C24.1213 6.39856 24.0576 6.49113 23.9714 6.5564C23.8847 6.62208 23.7857 6.65205 23.6853 6.65781C23.4928 6.66885 23.2844 6.59159 23.0959 6.49684C22.9029 6.39982 22.7063 6.27141 22.5328 6.15494C22.5033 6.13515 22.4747 6.11582 22.4469 6.09708C22.3064 6.0023 22.1881 5.92246 22.0956 5.87259C21.8754 5.75542 21.3929 5.61162 20.9754 5.63962C20.7683 5.65351 20.5959 5.70843 20.4774 5.81023Z" fill="#FFDA44"/>
</g>
<rect x="0.5" y="0.5" width="26" height="17" rx="0.5" stroke="black" stroke-opacity="0.2"/>
<defs>
<clipPath id="clip0_109_43728">
<rect width="27" height="18" rx="1" fill="white"/>
</clipPath>
</defs>
</svg>
