<svg width="136" height="136" viewBox="0 0 136 136" fill="none" xmlns="http://www.w3.org/2000/svg">
<path d="M95 81.5C95 84.5376 74.8528 87 50 87C25.1472 87 5 84.5376 5 81.5C5 78.4624 25.1472 76 50 76C74.8528 76 95 78.4624 95 81.5Z" fill="#A0A09F" fill-opacity="0.15"/>
<path fill-rule="evenodd" clip-rule="evenodd" d="M15.4141 14.4258C10.9958 14.4258 7.41406 18.0075 7.41406 22.4258V58.4258C7.41406 62.8441 10.9958 66.4258 15.4141 66.4258H29.4712V80.54L44.9086 66.4258H91.4141C95.8323 66.4258 99.4141 62.8441 99.4141 58.4258V22.4258C99.4141 18.0075 95.8323 14.4258 91.4141 14.4258H15.4141Z" fill="#FFBC0D"/>
<path fill-rule="evenodd" clip-rule="evenodd" d="M15.4141 15.4258C11.5481 15.4258 8.41406 18.5598 8.41406 22.4258V58.4258C8.41406 62.2918 11.5481 65.4258 15.4141 65.4258H30.4712V78.2708L44.5204 65.4258H91.4141C95.2801 65.4258 98.4141 62.2918 98.4141 58.4258V22.4258C98.4141 18.5598 95.2801 15.4258 91.4141 15.4258H15.4141ZM6.41406 22.4258C6.41406 17.4552 10.4435 13.4258 15.4141 13.4258H91.4141C96.3846 13.4258 100.414 17.4552 100.414 22.4258V58.4258C100.414 63.3963 96.3846 67.4258 91.4141 67.4258H45.2969L28.4712 82.8093V67.4258H15.4141C10.4435 67.4258 6.41406 63.3963 6.41406 58.4258V22.4258Z" fill="white"/>
<path d="M125 121.5C125 124.538 110.897 127 93.5 127C76.103 127 62 124.538 62 121.5C62 118.462 76.103 116 93.5 116C110.897 116 125 118.462 125 121.5Z" fill="#A0A09F" fill-opacity="0.15"/>
<path d="M118 121.5C118 121.776 116.881 122 115.5 122C114.119 122 113 121.776 113 121.5C113 121.224 114.119 121 115.5 121C116.881 121 118 121.224 118 121.5Z" fill="#A0A09F" fill-opacity="0.15"/>
<path fill-rule="evenodd" clip-rule="evenodd" d="M68.8438 78.2012C65.53 78.2012 62.8438 80.8875 62.8438 84.2012V106.201C62.8438 109.515 65.53 112.201 68.8438 112.201H105.799L115.307 121.689V112.201H116.844C120.157 112.201 122.844 109.515 122.844 106.201V84.2012C122.844 80.8875 120.157 78.2012 116.844 78.2012H68.8438Z" fill="#DB0007"/>
<path fill-rule="evenodd" clip-rule="evenodd" d="M68.8438 79.2012C66.0823 79.2012 63.8438 81.4397 63.8438 84.2012V106.201C63.8438 108.963 66.0823 111.201 68.8438 111.201H106.212L114.307 119.278V111.201H116.844C119.605 111.201 121.844 108.963 121.844 106.201V84.2012C121.844 81.4397 119.605 79.2012 116.844 79.2012H68.8438ZM61.8438 84.2012C61.8438 80.3352 64.9778 77.2012 68.8438 77.2012H116.844C120.71 77.2012 123.844 80.3352 123.844 84.2012V106.201C123.844 110.067 120.71 113.201 116.844 113.201H116.307V124.099L105.385 113.201H68.8438C64.9778 113.201 61.8438 110.067 61.8438 106.201V84.2012Z" fill="white"/>
</svg>
