<svg width="375" height="225" viewBox="0 0 375 225" fill="none" xmlns="http://www.w3.org/2000/svg">
<mask id="path-1-outside-1_17_28598" maskUnits="userSpaceOnUse" x="122.688" y="78.3867" width="134" height="128" fill="black">
<rect fill="white" x="122.688" y="78.3867" width="134" height="128"/>
<path d="M207.246 155.171L210.673 167.925L218.772 175.587C221.094 171.211 225.156 167.773 230.317 166.387C240.185 163.736 250.332 169.586 252.983 179.453C255.634 189.32 249.784 199.469 239.917 202.12C232.899 204.005 225.74 201.591 221.236 196.489C197.437 175.276 148.952 131.805 136.47 119.646C123.784 107.289 124.868 90.9912 126.996 84.3867L207.246 155.171ZM242.877 182.169C241.726 177.883 237.318 175.343 233.032 176.494C228.747 177.646 226.206 182.053 227.357 186.338C228.509 190.623 232.917 193.164 237.202 192.013C241.487 190.861 244.028 186.454 242.877 182.169Z"/>
</mask>
<path d="M207.246 155.171L210.673 167.925L218.772 175.587C221.094 171.211 225.156 167.773 230.317 166.387C240.185 163.736 250.332 169.586 252.983 179.453C255.634 189.32 249.784 199.469 239.917 202.12C232.899 204.005 225.74 201.591 221.236 196.489C197.437 175.276 148.952 131.805 136.47 119.646C123.784 107.289 124.868 90.9912 126.996 84.3867L207.246 155.171ZM242.877 182.169C241.726 177.883 237.318 175.343 233.032 176.494C228.747 177.646 226.206 182.053 227.357 186.338C228.509 190.623 232.917 193.164 237.202 192.013C241.487 190.861 244.028 186.454 242.877 182.169Z" fill="#A0A09F"/>
<path d="M207.246 155.171L210.143 154.392L209.909 153.519L209.231 152.921L207.246 155.171ZM210.673 167.925L207.776 168.703L207.996 169.522L208.611 170.104L210.673 167.925ZM218.772 175.587L216.711 177.766L219.575 180.476L221.423 176.993L218.772 175.587ZM230.317 166.387L229.539 163.489L229.539 163.489L230.317 166.387ZM252.983 179.453L255.881 178.675L255.881 178.675L252.983 179.453ZM239.917 202.12L240.695 205.017L240.695 205.017L239.917 202.12ZM221.236 196.489L223.485 194.504L223.366 194.369L223.232 194.25L221.236 196.489ZM136.47 119.646L134.376 121.795L134.376 121.795L136.47 119.646ZM126.996 84.3867L128.981 82.1369L125.545 79.1069L124.141 83.4667L126.996 84.3867ZM242.877 182.169L245.774 181.391L245.774 181.391L242.877 182.169ZM233.032 176.494L232.254 173.597L232.254 173.597L233.032 176.494ZM227.357 186.338L224.46 187.116L224.46 187.116L227.357 186.338ZM237.202 192.013L237.981 194.91L237.981 194.91L237.202 192.013ZM207.246 155.171L204.349 155.949L207.776 168.703L210.673 167.925L213.57 167.146L210.143 154.392L207.246 155.171ZM210.673 167.925L208.611 170.104L216.711 177.766L218.772 175.587L220.834 173.408L212.734 165.745L210.673 167.925ZM218.772 175.587L221.423 176.993C223.37 173.322 226.771 170.446 231.096 169.284L230.317 166.387L229.539 163.489C223.541 165.101 218.817 169.101 216.122 174.181L218.772 175.587ZM230.317 166.387L231.096 169.284C239.363 167.063 247.865 171.964 250.086 180.232L252.983 179.453L255.881 178.675C252.8 167.207 241.006 160.409 229.539 163.489L230.317 166.387ZM252.983 179.453L250.086 180.232C252.307 188.499 247.406 197.002 239.139 199.223L239.917 202.12L240.695 205.017C252.163 201.936 258.962 190.142 255.881 178.675L252.983 179.453ZM239.917 202.12L239.139 199.223C233.264 200.801 227.264 198.784 223.485 194.504L221.236 196.489L218.987 198.475C224.216 204.397 232.535 207.21 240.695 205.017L239.917 202.12ZM221.236 196.489L223.232 194.25C199.402 173.009 150.984 129.597 138.563 117.498L136.47 119.646L134.376 121.795C146.919 134.013 195.471 177.543 219.24 198.729L221.236 196.489ZM136.47 119.646L138.563 117.498C126.952 106.187 127.947 91.2182 129.852 85.3067L126.996 84.3867L124.141 83.4667C121.789 90.7641 120.616 108.392 134.376 121.795L136.47 119.646ZM126.996 84.3867L125.012 86.6366L205.262 157.421L207.246 155.171L209.231 152.921L128.981 82.1369L126.996 84.3867ZM242.877 182.169L245.774 181.391C244.193 175.505 238.139 172.016 232.254 173.597L233.032 176.494L233.811 179.391C236.496 178.67 239.258 180.262 239.98 182.947L242.877 182.169ZM233.032 176.494L232.254 173.597C226.369 175.178 222.879 181.231 224.46 187.116L227.357 186.338L230.255 185.56C229.533 182.874 231.125 180.113 233.811 179.391L233.032 176.494ZM227.357 186.338L224.46 187.116C226.041 193.002 232.095 196.491 237.981 194.91L237.202 192.013L236.424 189.115C233.738 189.837 230.976 188.245 230.255 185.559L227.357 186.338ZM237.202 192.013L237.981 194.91C243.866 193.329 247.355 187.276 245.774 181.391L242.877 182.169L239.98 182.947C240.701 185.632 239.109 188.394 236.424 189.115L237.202 192.013Z" fill="white" mask="url(#path-1-outside-1_17_28598)"/>
<path d="M274.893 20.5L275.182 20.5068C278.144 20.6571 280.5 23.1075 280.5 26.1074V132.893C280.5 135.989 277.989 138.5 274.893 138.5H99.1074C96.0107 138.5 93.5 135.989 93.5 132.893V26.1074C93.5 23.0107 96.0107 20.5 99.1074 20.5H274.893Z" fill="#FFBC0D" stroke="white" stroke-width="3"/>
<path fill-rule="evenodd" clip-rule="evenodd" d="M111.427 67.1777H136.07C138.339 67.1777 140.177 69.0166 140.177 71.2849V83.6063C140.177 85.8746 138.339 87.7134 136.07 87.7134H111.427C109.159 87.7134 107.32 85.8746 107.32 83.6063V71.2849C107.32 69.0166 109.159 67.1777 111.427 67.1777Z" fill="white"/>
<path fill-rule="evenodd" clip-rule="evenodd" d="M108.963 104.143H162.356C163.263 104.143 163.999 104.878 163.999 105.785V109.071C163.999 109.978 163.263 110.714 162.356 110.714H108.963C108.056 110.714 107.32 109.978 107.32 109.071V105.785C107.32 104.878 108.056 104.143 108.963 104.143Z" fill="white"/>
<path fill-rule="evenodd" clip-rule="evenodd" d="M108.963 116.465H200.142C201.049 116.465 201.785 117.2 201.785 118.108V121.393C201.785 122.301 201.049 123.036 200.142 123.036H108.963C108.056 123.036 107.32 122.301 107.32 121.393V118.108C107.32 117.2 108.056 116.465 108.963 116.465Z" fill="white"/>
<mask id="path-7-outside-2_17_28598" maskUnits="userSpaceOnUse" x="114.473" y="78.3867" width="135" height="128" fill="black">
<rect fill="white" x="114.473" y="78.3867" width="135" height="128"/>
<path d="M245.099 84.3867C247.227 90.9912 248.311 107.289 235.625 119.646C223.143 131.805 174.658 175.276 150.858 196.489C146.355 201.591 139.195 204.005 132.178 202.12C122.31 199.469 116.46 189.32 119.111 179.453C121.762 169.586 131.91 163.736 141.777 166.387C146.938 167.773 151.001 171.211 153.322 175.587L161.422 167.925L164.849 155.171L245.099 84.3867ZM139.062 176.494C134.777 175.343 130.369 177.883 129.218 182.169C128.067 186.454 130.607 190.861 134.893 192.013C139.178 193.164 143.586 190.623 144.737 186.338C145.889 182.053 143.348 177.646 139.062 176.494ZM185.998 146C183.789 146 181.998 147.791 181.998 150C181.998 152.209 183.789 154 185.998 154C188.207 154 189.998 152.209 189.998 150C189.998 147.791 188.207 146 185.998 146Z"/>
</mask>
<path d="M245.099 84.3867C247.227 90.9912 248.311 107.289 235.625 119.646C223.143 131.805 174.658 175.276 150.858 196.489C146.355 201.591 139.195 204.005 132.178 202.12C122.31 199.469 116.46 189.32 119.111 179.453C121.762 169.586 131.91 163.736 141.777 166.387C146.938 167.773 151.001 171.211 153.322 175.587L161.422 167.925L164.849 155.171L245.099 84.3867ZM139.062 176.494C134.777 175.343 130.369 177.883 129.218 182.169C128.067 186.454 130.607 190.861 134.893 192.013C139.178 193.164 143.586 190.623 144.737 186.338C145.889 182.053 143.348 177.646 139.062 176.494ZM185.998 146C183.789 146 181.998 147.791 181.998 150C181.998 152.209 183.789 154 185.998 154C188.207 154 189.998 152.209 189.998 150C189.998 147.791 188.207 146 185.998 146Z" fill="#EAEAEA"/>
<path d="M245.099 84.3867L247.954 83.4667L246.549 79.1069L243.114 82.1369L245.099 84.3867ZM235.625 119.646L237.718 121.795V121.795L235.625 119.646ZM150.858 196.489L148.862 194.25L148.728 194.369L148.609 194.504L150.858 196.489ZM132.178 202.12L131.399 205.017L131.399 205.017L132.178 202.12ZM119.111 179.453L116.214 178.675L116.214 178.675L119.111 179.453ZM141.777 166.387L142.556 163.489L142.556 163.489L141.777 166.387ZM153.322 175.587L150.672 176.993L152.52 180.476L155.384 177.766L153.322 175.587ZM161.422 167.925L163.484 170.104L164.099 169.522L164.319 168.703L161.422 167.925ZM164.849 155.171L162.864 152.921L162.186 153.519L161.951 154.392L164.849 155.171ZM139.062 176.494L139.841 173.597L139.841 173.597L139.062 176.494ZM129.218 182.169L126.321 181.391L126.32 181.391L129.218 182.169ZM134.893 192.013L134.114 194.91L134.114 194.91L134.893 192.013ZM144.737 186.338L147.635 187.116L147.635 187.116L144.737 186.338ZM185.998 146V143H185.998L185.998 146ZM181.998 150H178.998V150L181.998 150ZM185.998 154L185.998 157H185.998V154ZM189.998 150L192.998 150V150H189.998ZM245.099 84.3867L242.243 85.3067C244.148 91.2182 245.143 106.187 233.532 117.498L235.625 119.646L237.718 121.795C251.478 108.392 250.305 90.7641 247.954 83.4667L245.099 84.3867ZM235.625 119.646L233.532 117.498C221.111 129.597 172.693 173.009 148.862 194.25L150.858 196.489L152.855 198.729C176.624 177.543 225.176 134.013 237.718 121.795L235.625 119.646ZM150.858 196.489L148.609 194.504C144.831 198.784 138.831 200.801 132.956 199.223L132.178 202.12L131.399 205.017C139.559 207.21 147.879 204.397 153.107 198.475L150.858 196.489ZM132.178 202.12L132.956 199.223C124.689 197.002 119.787 188.499 122.009 180.232L119.111 179.453L116.214 178.675C113.133 190.142 119.932 201.936 131.399 205.017L132.178 202.12ZM119.111 179.453L122.009 180.232C124.23 171.964 132.732 167.063 140.999 169.284L141.777 166.387L142.556 163.489C131.088 160.409 119.295 167.208 116.214 178.675L119.111 179.453ZM141.777 166.387L140.999 169.284C145.323 170.446 148.724 173.322 150.672 176.993L153.322 175.587L155.972 174.181C153.277 169.101 148.554 165.101 142.556 163.489L141.777 166.387ZM153.322 175.587L155.384 177.766L163.484 170.104L161.422 167.925L159.36 165.745L151.261 173.408L153.322 175.587ZM161.422 167.925L164.319 168.703L167.746 155.949L164.849 155.171L161.951 154.392L158.525 167.146L161.422 167.925ZM164.849 155.171L166.833 157.421L247.083 86.6366L245.099 84.3867L243.114 82.1369L162.864 152.921L164.849 155.171ZM139.062 176.494L139.841 173.597C133.955 172.016 127.902 175.505 126.321 181.391L129.218 182.169L132.115 182.947C132.836 180.262 135.599 178.67 138.284 179.391L139.062 176.494ZM129.218 182.169L126.32 181.391C124.74 187.276 128.229 193.329 134.114 194.91L134.893 192.013L135.671 189.115C132.986 188.394 131.394 185.632 132.115 182.947L129.218 182.169ZM134.893 192.013L134.114 194.91C140 196.491 146.053 193.002 147.635 187.116L144.737 186.338L141.84 185.559C141.119 188.245 138.357 189.837 135.671 189.115L134.893 192.013ZM144.737 186.338L147.635 187.116C149.216 181.231 145.726 175.178 139.841 173.597L139.062 176.494L138.284 179.391C140.97 180.113 142.561 182.874 141.84 185.56L144.737 186.338ZM185.998 146L185.998 143C182.133 143 178.998 146.134 178.998 150H181.998H184.998C184.998 149.448 185.446 149 185.998 149L185.998 146ZM181.998 150L178.998 150C178.999 153.866 182.132 157 185.998 157L185.998 154L185.998 151C185.446 151 184.998 150.552 184.998 150L181.998 150ZM185.998 154V157C189.864 157 192.998 153.865 192.998 150L189.998 150L186.998 150C186.998 150.552 186.55 151 185.998 151V154ZM189.998 150H192.998C192.998 146.134 189.864 143 185.998 143V146V149C186.55 149 186.998 149.448 186.998 150H189.998Z" fill="white" mask="url(#path-7-outside-2_17_28598)"/>
</svg>
