<svg width="27" height="18" viewBox="0 0 27 18" fill="none" xmlns="http://www.w3.org/2000/svg">
<g clip-path="url(#clip0_109_43684)">
<path d="M0 0H27V18.0002H0V0Z" fill="#D80027"/>
<path d="M13.5 14.0625C16.2959 14.0625 18.5625 11.796 18.5625 9.00001C18.5625 6.20406 16.2959 3.9375 13.5 3.9375C10.7041 3.9375 8.4375 6.20406 8.4375 9.00001C8.4375 11.796 10.7041 14.0625 13.5 14.0625Z" fill="white"/>
<path d="M14.1224 7.0625L14.9909 8.25931L16.3975 7.80321L15.5276 8.99902L16.396 10.1958L14.9899 9.73804L14.1201 10.9338L14.121 9.45517L12.7148 8.99733L14.1215 8.54128L14.1224 7.0625Z" fill="#D80027"/>
<path d="M14.6488 11.9896C12.9966 11.9896 11.6573 10.6503 11.6573 8.99817C11.6573 7.346 12.9966 6.0067 14.6488 6.0067C15.164 6.0067 15.6486 6.13695 16.0718 6.3663C15.408 5.71714 14.5001 5.31641 13.4982 5.31641C11.4649 5.31641 9.81641 6.96483 9.81641 8.99822C9.81641 11.0316 11.4649 12.68 13.4982 12.68C14.5001 12.68 15.408 12.2793 16.0718 11.6301C15.6486 11.8594 15.164 11.9896 14.6488 11.9896Z" fill="#D80027"/>
</g>
<rect x="0.5" y="0.5" width="26" height="17" rx="0.5" stroke="black" stroke-opacity="0.2"/>
<defs>
<clipPath id="clip0_109_43684">
<rect width="27" height="18" rx="1" fill="white"/>
</clipPath>
</defs>
</svg>
