<svg width="136" height="136" viewBox="0 0 136 136" fill="none" xmlns="http://www.w3.org/2000/svg">
<g clip-path="url(#clip0_1001_45088)">
<g clip-path="url(#clip1_1001_45088)">
<g clip-path="url(#clip2_1001_45088)">
<path fill-rule="evenodd" clip-rule="evenodd" d="M29.9496 106.986C29.282 106.986 28.7407 106.445 28.7407 105.778L28.7407 22.9687C28.7407 22.301 29.2819 21.7598 29.9496 21.7598H33.5763C34.2439 21.7598 34.7852 22.301 34.7852 22.9687L34.7852 105.778C34.7852 106.445 34.2439 106.986 33.5763 106.986H29.9496Z" fill="#EAEAEA"/>
<path fill-rule="evenodd" clip-rule="evenodd" d="M51.8354 17.9336C51.9906 17.2842 52.6429 16.8837 53.2923 17.039L57.3946 18.02C58.0439 18.1752 58.4444 18.8275 58.2892 19.4769L47.6298 64.0524C47.5856 64.2373 47.5856 64.4299 47.6298 64.6148L58.2892 109.19C58.4444 109.84 58.0439 110.492 57.3946 110.647L53.2923 111.628C52.6429 111.784 51.9906 111.383 51.8354 110.734L40.8069 64.6148C40.7627 64.4299 40.7627 64.2373 40.8069 64.0524L51.8354 17.9336Z" fill="#EAEAEA"/>
<path opacity="0.2" d="M48.8711 58.9922L47.6289 64.1904C47.5849 64.3751 47.5848 64.5683 47.6289 64.7529L55.0312 95.7119L43.3857 75.54L40.8066 64.7529C40.7625 64.5683 40.7626 64.3751 40.8066 64.1904L43.7842 51.7363L48.8711 58.9922ZM34.7871 40.043V60.6455L28.7422 50.1758V39.0273L34.7871 40.043Z" fill="#6F6F6F"/>
<path fill-rule="evenodd" clip-rule="evenodd" d="M11.8197 100.942C11.152 100.942 10.6108 100.401 10.6108 99.7336L10.6108 29.0136C10.6108 28.3459 11.152 27.8047 11.8197 27.8047H14.8419C15.5095 27.8047 16.0508 28.3459 16.0508 29.0136L16.0508 99.7336C16.0508 100.401 15.5095 100.942 14.8419 100.942H11.8197Z" fill="#EAEAEA"/>
<ellipse cx="70.4552" cy="121.499" rx="35.6622" ry="5.44" fill="#A0A09F" fill-opacity="0.15"/>
<path d="M66.8119 27.0697C66.7815 27.0873 66.7536 27.1092 66.7279 27.1298L63.7222 21.9239C62.424 19.6753 59.5555 18.9004 57.3161 20.1934L30.7666 35.5217C28.5272 36.8146 27.7618 39.6876 29.06 41.9361L31.3316 45.8706C31.1065 46.0325 31.0346 46.3444 31.1757 46.5887L32.4185 48.7413C32.5608 48.9878 32.8656 49.0793 33.1184 48.9653L34.2239 50.8802C33.9963 51.0378 33.9244 51.3497 34.0667 51.5962L36.2036 55.2973C36.3458 55.5437 36.6507 55.6352 36.9034 55.5213L64.22 102.835C65.5182 105.084 68.3867 105.858 70.6262 104.565L97.1756 89.2371C99.415 87.9442 100.178 85.0725 98.88 82.824L69.8636 32.566C69.8956 32.5563 69.9273 32.5409 69.9577 32.5233C70.2183 32.3729 70.3078 32.0362 70.1567 31.7745L67.5577 27.273C67.4088 27.01 67.0726 26.9192 66.8119 27.0697Z" fill="#6F6F6F"/>
<path d="M95.1872 82.2598C95.8936 83.4833 95.477 85.044 94.2606 85.7463L69.06 100.296C67.8415 100.999 66.2824 100.576 65.5773 99.3551L32.7468 42.491C32.0404 41.2675 32.4571 39.7067 33.6734 39.0045L58.874 24.4549C60.0925 23.7514 61.6516 24.1744 62.3567 25.3957L95.1872 82.2598Z" fill="white"/>
<path d="M47.3748 29.3762L43.6866 31.5056C43.4259 31.6561 43.0897 31.5653 42.9386 31.3036C42.7875 31.0419 42.8769 30.7052 43.1376 30.5547L46.8258 28.4254C47.0864 28.2749 47.4227 28.3657 47.5738 28.6274C47.7249 28.8891 47.6354 29.2258 47.3748 29.3762Z" fill="white"/>
<g style="mix-blend-mode:multiply">
<path d="M90.5488 73.9639L85.5 90.6641L77.1016 95.5127L84.6611 70.5068C84.7259 70.2923 84.7303 70.0642 84.6729 69.8477L81.6973 58.6348L90.5488 73.9639Z" fill="#A0A09F" fill-opacity="0.15"/>
</g>
<ellipse cx="62.2666" cy="60.3746" rx="8.13507" ry="8.38816" transform="rotate(-30 62.2666 60.3746)" fill="#DB0007"/>
<path d="M60.4141 65.0938L62.7294 56.4528C62.8972 55.8264 63.541 55.4548 64.1673 55.6226L61.852 64.2636C61.6842 64.8899 61.0404 65.2616 60.4141 65.0938Z" fill="white"/>
<path d="M57.5547 58.4824L66.1957 60.7978C66.822 60.9656 67.1937 61.6094 67.0259 62.2357L58.3849 59.9203C57.7586 59.7525 57.3869 59.1087 57.5547 58.4824Z" fill="white"/>
<path fill-rule="evenodd" clip-rule="evenodd" d="M96.3495 67.1127C96.407 67.3294 96.4031 67.5579 96.3382 67.7725L83.2877 110.94C83.0944 111.579 82.4197 111.94 81.7807 111.747L77.7432 110.527C77.1041 110.333 76.7426 109.659 76.9358 109.02L89.4416 67.6544C89.5065 67.4397 89.5104 67.2113 89.4529 66.9945L76.865 19.5478C76.6938 18.9025 77.0781 18.2406 77.7234 18.0694L81.8004 16.9877C82.4457 16.8165 83.1076 17.2009 83.2788 17.8462L96.3495 67.1127Z" fill="#EAEAEA"/>
<path fill-rule="evenodd" clip-rule="evenodd" d="M103.692 106.986C103.024 106.986 102.483 106.445 102.483 105.778V22.9687C102.483 22.301 103.024 21.7598 103.692 21.7598H107.318C107.986 21.7598 108.527 22.301 108.527 22.9687V105.778C108.527 106.445 107.986 106.986 107.318 106.986H103.692Z" fill="#EAEAEA"/>
<path fill-rule="evenodd" clip-rule="evenodd" d="M122.433 100.942C121.765 100.942 121.224 100.401 121.224 99.7336V29.0136C121.224 28.3459 121.765 27.8047 122.433 27.8047H125.455C126.123 27.8047 126.664 28.3459 126.664 29.0136V99.7336C126.664 100.401 126.123 100.942 125.455 100.942H122.433Z" fill="#EAEAEA"/>
</g>
<mask id="path-16-outside-1_1001_45088" maskUnits="userSpaceOnUse" x="8.60938" y="14.9473" width="120" height="99" fill="black">
<rect fill="white" x="8.60938" y="14.9473" width="120" height="99"/>
<path fill-rule="evenodd" clip-rule="evenodd" d="M96.3392 67.7728C96.4041 67.5581 96.408 67.3297 96.3505 67.1129L83.2798 17.8464C83.1086 17.2011 82.4467 16.8168 81.8014 16.988L77.7244 18.0696C77.0791 18.2408 76.6948 18.9028 76.866 19.5481L89.2132 66.0877L69.8601 32.5671C69.8921 32.5574 69.9238 32.542 69.9542 32.5244C70.2148 32.3739 70.3043 32.0373 70.1532 31.7756L67.5543 27.2741C67.4053 27.0111 67.0691 26.9203 66.8084 27.0708C66.778 27.0883 66.7501 27.1103 66.7244 27.1309L63.7188 21.925C62.5893 19.9688 60.2713 19.1279 58.2131 19.7937L58.289 19.4762C58.4443 18.8268 58.0438 18.1746 57.3944 18.0193L53.2921 17.0383C52.6428 16.883 51.9905 17.2835 51.8352 17.9329L50.3304 24.2256L34.7871 33.1995V22.9689C34.7871 22.3013 34.2459 21.76 33.5783 21.76H29.9516C29.2839 21.76 28.7427 22.3013 28.7427 22.9689V37.8818C28.3289 38.9508 28.3076 40.1643 28.7427 41.2833V50.1752V105.778C28.7427 106.445 29.2839 106.987 29.9516 106.987H33.5783C34.2459 106.987 34.7871 106.445 34.7871 105.778V60.6441L34.7876 60.645V52.8519L36.2001 55.2984C36.3424 55.5448 36.6472 55.6363 36.9 55.5224L41.1048 62.8054L40.8068 64.0518C40.779 64.1679 40.7687 64.2872 40.7758 64.4057C40.7696 64.5218 40.78 64.6387 40.8072 64.7524L43.3863 75.5395L43.4428 75.6375L51.8352 110.733C51.9905 111.382 52.6428 111.783 53.2921 111.628L57.3944 110.647C58.0438 110.491 58.4443 109.839 58.289 109.19L51.5046 80.8183L64.2165 102.836C65.5147 105.085 68.3833 105.859 70.6227 104.567L79.903 99.2086L76.9368 109.02C76.7436 109.659 77.1051 110.334 77.7442 110.527L81.7816 111.747C82.4207 111.941 83.0954 111.579 83.2886 110.94L88.3013 94.3598L97.1721 89.2382C99.4116 87.9453 100.175 85.0736 98.8765 82.8251L94.2245 74.7675L96.3392 67.7728ZM10.6094 99.7333C10.6094 100.401 11.1506 100.942 11.8183 100.942H14.8405C15.5081 100.942 16.0494 100.401 16.0494 99.7333V29.0134C16.0494 28.3457 15.5081 27.8045 14.8405 27.8045H11.8183C11.1506 27.8045 10.6094 28.3457 10.6094 29.0134V99.7333ZM103.694 106.987C103.026 106.987 102.485 106.445 102.485 105.778V22.9688C102.485 22.3011 103.026 21.7599 103.694 21.7599H107.32C107.988 21.7599 108.529 22.3011 108.529 22.9688V105.778C108.529 106.445 107.988 106.987 107.32 106.987H103.694ZM121.223 99.7333C121.223 100.401 121.764 100.942 122.432 100.942H125.454C126.121 100.942 126.663 100.401 126.663 99.7333V29.0134C126.663 28.3457 126.121 27.8045 125.454 27.8045H122.432C121.764 27.8045 121.223 28.3457 121.223 29.0134V99.7333Z"/>
</mask>
<path d="M96.3505 67.1129L98.1032 66.648L98.1032 66.6479L96.3505 67.1129ZM96.3392 67.7728L98.075 68.2975L98.075 68.2975L96.3392 67.7728ZM83.2798 17.8464L85.0325 17.3814L85.0325 17.3814L83.2798 17.8464ZM81.8014 16.988L82.2664 18.7407V18.7407L81.8014 16.988ZM77.7244 18.0696L77.2594 16.3169V16.3169L77.7244 18.0696ZM76.866 19.5481L75.1133 20.0131V20.0131L76.866 19.5481ZM89.2132 66.0877L87.6428 66.9944L90.9659 65.6227L89.2132 66.0877ZM69.8601 32.5671L69.3313 30.8326L67.149 31.498L68.2897 33.4738L69.8601 32.5671ZM69.9542 32.5244L70.8608 34.0949L70.8609 34.0948L69.9542 32.5244ZM70.1532 31.7756L71.7236 30.8689V30.8689L70.1532 31.7756ZM67.5543 27.2741L65.9764 28.1677L65.9801 28.1743L65.9839 28.1808L67.5543 27.2741ZM66.8084 27.0708L67.7151 28.6412L67.7151 28.6412L66.8084 27.0708ZM66.7244 27.1309L65.154 28.0376L66.2115 29.8692L67.8602 28.5445L66.7244 27.1309ZM63.7188 21.925L62.1484 22.8317V22.8317L63.7188 21.925ZM58.2131 19.7937L56.4495 19.372L55.6983 22.5131L58.7712 21.5191L58.2131 19.7937ZM58.289 19.4762L60.0526 19.8979L60.0526 19.8979L58.289 19.4762ZM57.3944 18.0193L57.8162 16.2557V16.2557L57.3944 18.0193ZM53.2921 17.0383L52.8704 18.8019V18.8019L53.2921 17.0383ZM51.8352 17.9329L53.5988 18.3546V18.3546L51.8352 17.9329ZM50.3304 24.2256L51.2371 25.796L51.9126 25.406L52.0941 24.6473L50.3304 24.2256ZM34.7871 33.1995H32.9738V36.3403L35.6938 34.7699L34.7871 33.1995ZM28.7427 37.8818L30.4338 38.5363L30.556 38.2205V37.8818H28.7427ZM28.7427 41.2833H30.556V40.9432L30.4328 40.6262L28.7427 41.2833ZM34.7871 60.6441L36.3569 59.7363L32.9738 53.8867V60.6441H34.7871ZM34.7876 60.645L33.2179 61.5528L36.601 67.4024V60.645H34.7876ZM34.7876 52.8519L36.358 51.9453L32.9743 46.0845V52.8519H34.7876ZM36.2001 55.2984L34.6297 56.205L34.6297 56.205L36.2001 55.2984ZM36.9 55.5224L38.4704 54.6157L37.6502 53.1951L36.1547 53.8693L36.9 55.5224ZM41.1048 62.8054L42.8684 63.2272L43.0365 62.5245L42.6752 61.8988L41.1048 62.8054ZM40.8068 64.0518L42.5704 64.4735L40.8068 64.0518ZM40.7758 64.4057L42.5865 64.5037L42.5921 64.4001L42.5859 64.2965L40.7758 64.4057ZM40.8072 64.7524L42.5708 64.3307L42.5708 64.3306L40.8072 64.7524ZM43.3863 75.5395L41.6226 75.9612L41.684 76.2177L41.8158 76.4461L43.3863 75.5395ZM43.4428 75.6375L45.2064 75.2158L45.1451 74.9593L45.0133 74.7309L43.4428 75.6375ZM51.8352 110.733L53.5988 110.311L51.8352 110.733ZM53.2921 111.628L53.7138 113.391H53.7139L53.2921 111.628ZM57.3944 110.647L57.8162 112.41H57.8162L57.3944 110.647ZM58.289 109.19L56.5254 109.611L56.5254 109.611L58.289 109.19ZM51.5046 80.8183L53.075 79.9116L49.7409 81.24L51.5046 80.8183ZM64.2165 102.836L62.6461 103.743L64.2165 102.836ZM70.6227 104.567L71.5294 106.137V106.137L70.6227 104.567ZM79.903 99.2086L81.6387 99.7333L82.9649 95.347L78.9963 97.6382L79.903 99.2086ZM76.9368 109.02L75.2011 108.495L75.2011 108.495L76.9368 109.02ZM77.7442 110.527L78.2689 108.791L78.2689 108.791L77.7442 110.527ZM81.7816 111.747L82.3064 110.012H82.3064L81.7816 111.747ZM83.2886 110.94L81.5529 110.415L81.5529 110.415L83.2886 110.94ZM88.3013 94.3598L87.3946 92.7894L86.7732 93.1482L86.5655 93.8351L88.3013 94.3598ZM97.1721 89.2382L96.2655 87.6678L96.2655 87.6678L97.1721 89.2382ZM98.8765 82.8251L97.3061 83.7317H97.3061L98.8765 82.8251ZM94.2245 74.7675L92.4888 74.2428L92.2616 74.9943L92.6541 75.6742L94.2245 74.7675ZM96.3505 67.1129L94.5978 67.5779C94.5691 67.4695 94.571 67.3553 94.6035 67.248L96.3392 67.7728L98.075 68.2975C98.2372 67.7609 98.247 67.1898 98.1032 66.648L96.3505 67.1129ZM83.2798 17.8464L81.5271 18.3114L94.5978 67.5779L96.3505 67.1129L98.1032 66.6479L85.0325 17.3814L83.2798 17.8464ZM81.8014 16.988L82.2664 18.7407C81.9437 18.8263 81.6127 18.6341 81.5271 18.3115L83.2798 17.8464L85.0325 17.3814C84.6045 15.7681 82.9497 14.8073 81.3364 15.2353L81.8014 16.988ZM77.7244 18.0696L78.1894 19.8223L82.2664 18.7407L81.8014 16.988L81.3364 15.2353L77.2594 16.3169L77.7244 18.0696ZM76.866 19.5481L78.6187 19.0831C78.7043 19.4057 78.5121 19.7367 78.1894 19.8223L77.7244 18.0696L77.2594 16.3169C75.6461 16.7449 74.6853 18.3998 75.1133 20.0131L76.866 19.5481ZM89.2132 66.0877L90.9659 65.6227L78.6187 19.0831L76.866 19.5481L75.1133 20.0131L87.4605 66.5527L89.2132 66.0877ZM69.8601 32.5671L68.2897 33.4738L87.6428 66.9944L89.2132 66.0877L90.7836 65.1811L71.4305 31.6605L69.8601 32.5671ZM69.9542 32.5244L69.0476 30.954C69.0836 30.9332 69.1837 30.8776 69.3313 30.8326L69.8601 32.5671L70.3889 34.3016C70.6005 34.2371 70.764 34.1507 70.8608 34.0949L69.9542 32.5244ZM70.1532 31.7756L68.5828 32.6823C68.2367 32.0827 68.4349 31.3078 69.0475 30.954L69.9542 32.5244L70.8609 34.0948C71.9948 33.4401 72.372 31.9919 71.7236 30.8689L70.1532 31.7756ZM67.5543 27.2741L65.9839 28.1808L68.5828 32.6823L70.1532 31.7756L71.7236 30.8689L69.1247 26.3674L67.5543 27.2741ZM66.8084 27.0708L67.7151 28.6412C67.1049 28.9935 66.3248 28.7829 65.9764 28.1677L67.5543 27.2741L69.1321 26.3805C68.4859 25.2394 67.0333 24.8471 65.9018 25.5004L66.8084 27.0708ZM66.7244 27.1309L67.8602 28.5445C67.8701 28.5365 67.8573 28.5471 67.8369 28.562C67.8154 28.5778 67.7733 28.6076 67.7151 28.6412L66.8084 27.0708L65.9018 25.5004C65.7374 25.5953 65.6123 25.6984 65.5886 25.7174L66.7244 27.1309ZM63.7188 21.925L62.1484 22.8317L65.154 28.0376L66.7244 27.1309L68.2948 26.2243L65.2892 21.0183L63.7188 21.925ZM58.2131 19.7937L58.7712 21.5191C60.0279 21.1125 61.453 21.6272 62.1484 22.8317L63.7188 21.925L65.2892 21.0183C63.7257 18.3103 60.5148 17.1433 57.655 18.0684L58.2131 19.7937ZM58.289 19.4762L56.5254 19.0544L56.4495 19.372L58.2131 19.7937L59.9767 20.2155L60.0526 19.8979L58.289 19.4762ZM57.3944 18.0193L56.9727 19.7829C56.648 19.7052 56.4478 19.3791 56.5254 19.0544L58.289 19.4762L60.0526 19.8979C60.4408 18.2745 59.4395 16.6439 57.8162 16.2557L57.3944 18.0193ZM53.2921 17.0383L52.8704 18.8019L56.9727 19.7829L57.3944 18.0193L57.8162 16.2557L53.7139 15.2747L53.2921 17.0383ZM51.8352 17.9329L53.5988 18.3546C53.5212 18.6793 53.1951 18.8795 52.8704 18.8019L53.2921 17.0383L53.7139 15.2747C52.0905 14.8865 50.4598 15.8878 50.0716 17.5111L51.8352 17.9329ZM50.3304 24.2256L52.0941 24.6473L53.5988 18.3546L51.8352 17.9329L50.0716 17.5111L48.5668 23.8039L50.3304 24.2256ZM34.7871 33.1995L35.6938 34.7699L51.2371 25.796L50.3304 24.2256L49.4238 22.6552L33.8805 31.6291L34.7871 33.1995ZM34.7871 22.9689H32.9738V33.1995H34.7871H36.6005V22.9689H34.7871ZM33.5783 21.76V23.5734C33.2444 23.5734 32.9738 23.3027 32.9738 22.9689H34.7871H36.6005C36.6005 21.2998 35.2474 19.9467 33.5783 19.9467V21.76ZM29.9516 21.76V23.5734H33.5783V21.76V19.9467H29.9516V21.76ZM28.7427 22.9689H30.556C30.556 23.3027 30.2854 23.5734 29.9516 23.5734V21.76V19.9467C28.2825 19.9467 26.9294 21.2998 26.9294 22.9689H28.7427ZM28.7427 37.8818H30.556V22.9689H28.7427H26.9294V37.8818H28.7427ZM28.7427 41.2833L30.4328 40.6262C30.1667 39.9419 30.1783 39.1964 30.4338 38.5363L28.7427 37.8818L27.0516 37.2272C26.4795 38.7052 26.4485 40.3868 27.0526 41.9405L28.7427 41.2833ZM28.7427 50.1752H30.556V41.2833H28.7427H26.9294V50.1752H28.7427ZM28.7427 105.778H30.556V50.1752H28.7427H26.9294V105.778H28.7427ZM29.9516 106.987V105.173C30.2854 105.173 30.556 105.444 30.556 105.778H28.7427H26.9294C26.9294 107.447 28.2825 108.8 29.9516 108.8V106.987ZM33.5783 106.987V105.173H29.9516V106.987V108.8H33.5783V106.987ZM34.7871 105.778H32.9738C32.9738 105.444 33.2444 105.173 33.5783 105.173V106.987V108.8C35.2474 108.8 36.6005 107.447 36.6005 105.778H34.7871ZM34.7871 60.6441H32.9738V105.778H34.7871H36.6005V60.6441H34.7871ZM34.7876 60.645L36.3573 59.7371L36.3569 59.7363L34.7871 60.6441L33.2174 61.552L33.2179 61.5528L34.7876 60.645ZM34.7876 52.8519H32.9743V60.645H34.7876H36.601V52.8519H34.7876ZM36.2001 55.2984L37.7705 54.3917L36.358 51.9453L34.7876 52.8519L33.2172 53.7586L34.6297 56.205L36.2001 55.2984ZM36.9 55.5224L36.1547 53.8693C36.7286 53.6105 37.4349 53.8105 37.7705 54.3917L36.2001 55.2984L34.6297 56.205C35.2498 57.2791 36.5657 57.6621 37.6452 57.1755L36.9 55.5224ZM41.1048 62.8054L42.6752 61.8988L38.4704 54.6157L36.9 55.5224L35.3296 56.4291L39.5344 63.7121L41.1048 62.8054ZM40.8068 64.0518L42.5704 64.4735L42.8684 63.2272L41.1048 62.8054L39.3412 62.3837L39.0432 63.63L40.8068 64.0518ZM40.7758 64.4057L42.5859 64.2965C42.5895 64.3558 42.5843 64.4154 42.5704 64.4735L40.8068 64.0518L39.0432 63.63C38.9737 63.9205 38.9479 64.2187 38.9658 64.5148L40.7758 64.4057ZM40.8072 64.7524L42.5708 64.3306C42.5846 64.3883 42.5896 64.4465 42.5865 64.5037L40.7758 64.4057L38.9652 64.3077C38.9495 64.5971 38.9754 64.8891 39.0436 65.1741L40.8072 64.7524ZM43.3863 75.5395L45.1499 75.1178L42.5708 64.3307L40.8072 64.7524L39.0435 65.1741L41.6226 75.9612L43.3863 75.5395ZM43.4428 75.6375L45.0133 74.7309L44.9567 74.6329L43.3863 75.5395L41.8158 76.4461L41.8724 76.5441L43.4428 75.6375ZM51.8352 110.733L53.5988 110.311L45.2064 75.2158L43.4428 75.6375L41.6792 76.0592L50.0716 111.155L51.8352 110.733ZM53.2921 111.628L52.8704 109.864C53.1951 109.786 53.5212 109.987 53.5988 110.311L51.8352 110.733L50.0716 111.155C50.4598 112.778 52.0905 113.779 53.7138 113.391L53.2921 111.628ZM57.3944 110.647L56.9727 108.883L52.8704 109.864L53.2921 111.628L53.7139 113.391L57.8162 112.41L57.3944 110.647ZM58.289 109.19L56.5254 109.611C56.4478 109.287 56.648 108.961 56.9727 108.883L57.3944 110.647L57.8162 112.41C59.4395 112.022 60.4408 110.391 60.0526 108.768L58.289 109.19ZM51.5046 80.8183L49.7409 81.24L56.5254 109.611L58.289 109.19L60.0526 108.768L53.2682 80.3966L51.5046 80.8183ZM64.2165 102.836L65.7869 101.929L53.075 79.9116L51.5046 80.8183L49.9342 81.725L62.6461 103.743L64.2165 102.836ZM70.6227 104.567L69.716 102.996C68.3499 103.785 66.5879 103.317 65.7869 101.929L64.2165 102.836L62.6461 103.743C64.4416 106.853 68.4166 107.934 71.5294 106.137L70.6227 104.567ZM79.903 99.2086L78.9963 97.6382L69.716 102.996L70.6227 104.567L71.5294 106.137L80.8097 100.779L79.903 99.2086ZM76.9368 109.02L78.6726 109.545L81.6387 99.7333L79.903 99.2086L78.1673 98.6838L75.2011 108.495L76.9368 109.02ZM77.7442 110.527L78.2689 108.791C78.5885 108.888 78.7692 109.225 78.6726 109.545L76.9368 109.02L75.2011 108.495C74.7181 110.093 75.6217 111.779 77.2194 112.263L77.7442 110.527ZM81.7816 111.747L82.3064 110.012L78.2689 108.791L77.7442 110.527L77.2194 112.263L81.2569 113.483L81.7816 111.747ZM83.2886 110.94L81.5529 110.415C81.6495 110.096 81.9869 109.915 82.3064 110.012L81.7816 111.747L81.2569 113.483C82.8546 113.966 84.5414 113.063 85.0244 111.465L83.2886 110.94ZM88.3013 94.3598L86.5655 93.8351L81.5529 110.415L83.2886 110.94L85.0244 111.465L90.037 94.8846L88.3013 94.3598ZM97.1721 89.2382L96.2655 87.6678L87.3946 92.7894L88.3013 94.3598L89.2079 95.9302L98.0788 90.8086L97.1721 89.2382ZM98.8765 82.8251L97.3061 83.7317C98.1071 85.119 97.6316 86.8791 96.2655 87.6678L97.1721 89.2382L98.0788 90.8086C101.192 89.0115 102.242 85.0282 100.447 81.9184L98.8765 82.8251ZM94.2245 74.7675L92.6541 75.6742L97.3061 83.7317L98.8765 82.8251L100.447 81.9184L95.7949 73.8609L94.2245 74.7675ZM96.3392 67.7728L94.6035 67.248L92.4888 74.2428L94.2245 74.7675L95.9603 75.2923L98.075 68.2975L96.3392 67.7728ZM11.8183 100.942V99.1289C12.1521 99.1289 12.4227 99.3995 12.4227 99.7333H10.6094H8.79604C8.79604 101.402 10.1491 102.756 11.8183 102.756V100.942ZM14.8405 100.942V99.1289H11.8183V100.942V102.756H14.8405V100.942ZM16.0494 99.7333H14.236C14.236 99.3995 14.5066 99.1289 14.8405 99.1289V100.942V102.756C16.5096 102.756 17.8627 101.402 17.8627 99.7333H16.0494ZM16.0494 29.0134H14.236V99.7333H16.0494H17.8627V29.0134H16.0494ZM14.8405 27.8045V29.6178C14.5067 29.6178 14.236 29.3472 14.236 29.0134H16.0494H17.8627C17.8627 27.3442 16.5096 25.9911 14.8405 25.9911V27.8045ZM11.8183 27.8045V29.6178H14.8405V27.8045V25.9911H11.8183V27.8045ZM10.6094 29.0134H12.4227C12.4227 29.3472 12.1521 29.6178 11.8183 29.6178V27.8045V25.9911C10.1491 25.9911 8.79604 27.3442 8.79604 29.0134H10.6094ZM10.6094 99.7333H12.4227V29.0134H10.6094H8.79604V99.7333H10.6094ZM102.485 105.778H100.672C100.672 107.447 102.025 108.8 103.694 108.8V106.987V105.173C104.028 105.173 104.298 105.444 104.298 105.778H102.485ZM102.485 22.9688H100.672V105.778H102.485H104.298V22.9688H102.485ZM103.694 21.7599V19.9466C102.025 19.9466 100.672 21.2997 100.672 22.9688H102.485H104.298C104.298 23.3026 104.028 23.5732 103.694 23.5732V21.7599ZM107.32 21.7599V19.9466H103.694V21.7599V23.5732H107.32V21.7599ZM108.529 22.9688H110.343C110.343 21.2997 108.99 19.9466 107.32 19.9466V21.7599V23.5732C106.987 23.5732 106.716 23.3026 106.716 22.9688H108.529ZM108.529 105.778H110.343V22.9688H108.529H106.716V105.778H108.529ZM107.32 106.987V108.8C108.99 108.8 110.343 107.447 110.343 105.778H108.529H106.716C106.716 105.444 106.987 105.173 107.32 105.173V106.987ZM103.694 106.987V108.8H107.32V106.987V105.173H103.694V106.987ZM122.432 100.942V99.1289C122.765 99.1289 123.036 99.3995 123.036 99.7333H121.223H119.409C119.409 101.402 120.762 102.756 122.432 102.756V100.942ZM125.454 100.942V99.1289H122.432V100.942V102.756H125.454V100.942ZM126.663 99.7333H124.849C124.849 99.3995 125.12 99.1289 125.454 99.1289V100.942V102.756C127.123 102.756 128.476 101.402 128.476 99.7333H126.663ZM126.663 29.0134H124.849V99.7333H126.663H128.476V29.0134H126.663ZM125.454 27.8045V29.6178C125.12 29.6178 124.849 29.3472 124.849 29.0134H126.663H128.476C128.476 27.3442 127.123 25.9911 125.454 25.9911V27.8045ZM122.432 27.8045V29.6178H125.454V27.8045V25.9911H122.432V27.8045ZM121.223 29.0134H123.036C123.036 29.3472 122.765 29.6178 122.432 29.6178V27.8045V25.9911C120.762 25.9911 119.409 27.3442 119.409 29.0134H121.223ZM121.223 99.7333H123.036V29.0134H121.223H119.409V99.7333H121.223Z" fill="white" mask="url(#path-16-outside-1_1001_45088)"/>
</g>
</g>
<defs>
<clipPath id="clip0_1001_45088">
<rect width="136" height="136" fill="white"/>
</clipPath>
<clipPath id="clip1_1001_45088">
<rect width="226.667" height="136" fill="white" transform="translate(-45)"/>
</clipPath>
<clipPath id="clip2_1001_45088">
<rect width="226.667" height="136" fill="white" transform="translate(-45)"/>
</clipPath>
</defs>
</svg>
