<svg width="27" height="18" viewBox="0 0 27 18" fill="none" xmlns="http://www.w3.org/2000/svg">
<g clip-path="url(#clip0_109_43876)">
<path d="M0 0H27V18H0V0Z" fill="white"/>
<path d="M7.45639 8.14186C7.45639 8.14186 7.46692 11.6734 11.388 11.5787L11.6248 12.3103H12.0932C12.0932 12.3103 11.7038 10.1471 15.2564 10.1261C15.2564 10.1261 15.2564 8.67344 16.709 8.67344H18.8932C18.8932 8.67344 15.4196 5.94712 21.9933 2.46291L22.088 1.77344C22.088 1.77344 15.2511 5.51028 11.6196 4.78396C11.6196 4.78396 12.1827 7.02081 11.0511 7.02081C10.4827 7.02081 10.5406 6.59449 9.35113 6.59449C8.36692 6.59449 8.44061 7.63133 7.96692 7.62081C7.4985 7.61028 6.97745 6.97344 6.93534 7.08397C6.8985 7.19449 7.45639 8.14186 7.45639 8.14186Z" fill="#DB7D00"/>
<path d="M12.4844 16.2171C12.8475 15.954 13.1686 15.8698 13.6633 15.7803C14.1581 15.6908 14.6844 15.5487 14.9581 15.475C15.2317 15.4014 14.0265 15.8224 13.7212 15.9119C13.416 15.9961 12.4844 16.2171 12.4844 16.2171ZM14.4791 15.4435C14.3791 14.8171 14.6265 14.1645 15.1896 13.9014C15.3212 14.354 14.916 15.1224 14.4791 15.4435ZM15.437 15.1171C15.1317 14.6014 15.6475 13.9277 16.0212 13.6014C16.1949 13.9171 15.8896 14.8487 15.437 15.1171ZM16.3265 14.7171C16.0002 14.275 16.3844 13.4961 16.7896 13.1908C16.9528 13.6224 16.7949 14.4119 16.3265 14.7171ZM17.216 14.1593C16.9212 13.7382 17.1265 13.0856 17.5475 12.6645C17.8528 13.0119 17.5949 13.7698 17.216 14.1593ZM17.9265 13.5961C17.6791 13.2014 17.9844 12.2593 18.3791 11.9961C18.5528 12.3435 18.4212 13.3329 17.9265 13.5961ZM18.4949 13.4487C18.4212 12.8803 19.4107 12.254 19.8212 12.2698C19.7739 12.7382 19.3528 13.2487 18.4949 13.4487ZM17.9423 14.0908C18.4054 13.6119 19.3107 13.6119 19.6317 13.7119C19.5423 13.9908 18.4791 14.6014 17.9423 14.0908Z" fill="#006651"/>
<path d="M17.3007 14.5698C17.9534 14.3961 18.3797 14.2487 18.7692 14.6592C18.4955 15.0066 17.4323 14.9066 17.3007 14.5698ZM16.3692 14.9908C16.9955 14.654 17.7534 15.1487 17.8692 15.4435C17.1692 15.7329 16.3586 15.0645 16.3692 14.9908ZM15.5113 15.475C16.0797 15.2592 16.7323 15.5487 16.9955 15.8698C16.6902 16.0119 15.8902 16.1698 15.5113 15.475ZM14.7271 15.7224C15.3797 15.6487 16.0113 16.1435 16.1481 16.4277C15.3113 16.5066 14.9902 16.2592 14.7271 15.7224ZM14.5165 16.2171C14.1534 15.954 13.8323 15.8698 13.3376 15.7803C12.8428 15.6908 12.3165 15.5487 12.0428 15.475C11.7639 15.4014 12.9744 15.8224 13.2797 15.9119C13.585 15.9961 14.5165 16.2171 14.5165 16.2171ZM12.5218 15.4435C12.6218 14.8171 12.3744 14.1645 11.8113 13.9014C11.6797 14.354 12.085 15.1224 12.5218 15.4435ZM11.5639 15.1171C11.8692 14.6014 11.3534 13.9277 10.9797 13.6014C10.806 13.9171 11.1113 14.8487 11.5639 15.1171ZM10.6744 14.7171C11.0007 14.275 10.6165 13.4961 10.2113 13.1908C10.0481 13.6224 10.206 14.4119 10.6744 14.7171ZM9.78495 14.1592C10.0797 13.7382 9.87442 13.0856 9.45337 12.6645C9.14811 13.0119 9.406 13.7698 9.78495 14.1592ZM9.07442 13.5961C9.32179 13.2014 9.01653 12.2593 8.62179 11.9961C8.44811 12.3435 8.57969 13.3329 9.07442 13.5961ZM8.506 13.4487C8.57969 12.8803 7.59021 12.254 7.17969 12.2698C7.22706 12.7382 7.64811 13.2487 8.506 13.4487ZM9.05864 14.0908C8.59548 13.6119 7.69021 13.6119 7.36916 13.7119C7.45864 13.9908 8.52179 14.6014 9.05864 14.0908Z" fill="#006651"/>
<path d="M9.69889 14.5694C9.04626 14.3957 8.61994 14.2484 8.23047 14.6589C8.50415 15.0063 9.56731 14.9062 9.69889 14.5694ZM10.6305 14.9905C10.0042 14.6536 9.24626 15.1484 9.13047 15.4431C9.83047 15.7326 10.641 15.0641 10.6305 14.9905ZM11.4884 15.4747C10.9199 15.2589 10.2673 15.5484 10.0042 15.8694C10.3094 16.0115 11.1094 16.1694 11.4884 15.4747ZM12.2726 15.722C11.6199 15.6484 10.9884 16.1431 10.8515 16.4273C11.6884 16.5063 12.0094 16.2589 12.2726 15.722Z" fill="#006651"/>
</g>
<rect x="0.5" y="0.5" width="26" height="17" rx="0.5" stroke="black" stroke-opacity="0.2"/>
<defs>
<clipPath id="clip0_109_43876">
<rect width="27" height="18" rx="1" fill="white"/>
</clipPath>
</defs>
</svg>
