<svg width="44" height="44" viewBox="0 0 44 44" fill="none" xmlns="http://www.w3.org/2000/svg">
<ellipse cx="22.0703" cy="39.75" rx="15.75" ry="2.25" fill="#A0A09F" fill-opacity="0.15"/>
<path fill-rule="evenodd" clip-rule="evenodd" d="M31.3933 6.00009L29.4649 7.2857L27.5363 6H27.5356L25.607 7.2857L23.6786 6.00009L21.7501 7.2857L19.8217 6.00009L17.8933 7.2857L15.9647 6H15.964L14.0354 7.2857L12.107 6.00009L10.1786 7.2857L8.7259 6.31726C8.10988 7.57212 6 12.6515 6 23.3571C6 31.4789 7.34922 36.0926 8.29938 38.3348C8.78393 39.4782 9.94202 40.0714 11.1839 40.0714H31.8654C33.3534 40.0714 34.7113 39.2414 35.2245 37.8448C36.2719 34.9942 37.8214 29.5189 37.8214 22.0714C37.8214 10.8564 35.2659 6.03001 35.2501 6.00014L33.3217 7.2857L31.3933 6.00009Z" fill="#BC9564"/>
<path fill-rule="evenodd" clip-rule="evenodd" d="M36.3275 34.2852H7.04688C7.45104 36.0887 7.90933 37.412 8.30011 38.3342C8.78467 39.4777 9.94275 40.0709 11.1846 40.0709H31.8662C33.3541 40.0709 34.712 39.2409 35.2252 37.8442C35.5633 36.9241 35.9538 35.7304 36.3275 34.2852Z" fill="#DB0007"/>
<path fill-rule="evenodd" clip-rule="evenodd" d="M37.364 14.3629C35.3968 14.5182 31.7171 17.9424 30.2744 23.2289C28.8005 17.8174 26.5425 14.3574 24.0125 14.3574C19.568 14.3574 15.9649 25.8688 15.9648 40.0717H19.5422C19.5422 26.8831 21.5456 16.1946 24.0125 16.1946C26.4852 16.1946 28.4857 26.0631 28.4857 38.2346H32.0631C32.0631 26.0631 35.0307 15.9646 37.5006 15.9646V15.5418C37.4581 15.135 37.4124 14.7421 37.364 14.3629Z" fill="#FFBC0D"/>
</svg>
