<svg width="136" height="136" viewBox="0 0 136 136" fill="none" xmlns="http://www.w3.org/2000/svg">
<path fill-rule="evenodd" clip-rule="evenodd" d="M67.8 125.67C96.9606 125.67 120.6 122.446 120.6 118.47C120.6 114.493 96.9606 111.27 67.8 111.27C38.6394 111.27 15 114.493 15 118.47C15 122.446 38.6394 125.67 67.8 125.67Z" fill="#A0A09F" fill-opacity="0.15"/>
<path d="M104.351 33.6094H31.1992V101.017H104.351V33.6094Z" fill="#C2945C"/>
<path d="M104.351 101.018H31.1992V118.698H104.351V101.018Z" fill="#D90007"/>
<path d="M104.351 43.5078C104.33 43.5078 104.214 43.5059 104.192 43.5059C96.5368 43.5059 89.706 53.546 85.24 69.249C80.7741 53.546 73.9413 43.5059 66.2861 43.5059C52.8292 43.5059 41.918 77.4857 41.918 118.7H52.7505C52.7505 80.4304 58.812 48.8357 66.2861 48.8357C73.7623 48.8357 79.8258 77.4751 79.8258 112.8H90.6524C90.6524 77.4751 96.7159 48.8357 104.192 48.8357C104.214 48.8357 104.33 48.8396 104.351 48.8396V43.5078Z" fill="#FFBC0D"/>
<path d="M104.351 20.4004H31.1992V33.6098H104.351V20.4004Z" fill="#C2945C"/>
<path opacity="0.5" d="M104.351 20.4004H31.1992V33.6098H104.351V20.4004Z" fill="#E5AF71"/>
<path d="M76.6499 39.381H58.904C58.0383 39.381 57.3359 38.6899 57.3359 37.838V20.4004H78.2179V37.838C78.2179 38.6899 77.5155 39.381 76.6499 39.381Z" fill="#FFBC0D"/>
<path fill-rule="evenodd" clip-rule="evenodd" d="M32.1992 18.4004H103.351C105.008 18.4004 106.351 19.7435 106.351 21.4004V117.698C106.351 119.355 105.008 120.698 103.351 120.698H32.1992C30.5424 120.698 29.1992 119.355 29.1992 117.698V21.4004C29.1992 19.7435 30.5424 18.4004 32.1992 18.4004ZM32.1992 20.4004C31.6469 20.4004 31.1992 20.8481 31.1992 21.4004V117.698C31.1992 118.251 31.6469 118.698 32.1992 118.698H103.351C103.904 118.698 104.351 118.251 104.351 117.698V21.4004C104.351 20.8481 103.904 20.4004 103.351 20.4004H32.1992Z" fill="white"/>
</svg>
