<svg width="27" height="18" viewBox="0 0 27 18" fill="none" xmlns="http://www.w3.org/2000/svg">
<g clip-path="url(#clip0_109_43827)">
<path d="M0 0H27V18H0V0Z" fill="#009B3A"/>
<path d="M13.5009 1.01562L24.2851 8.98405L13.5009 16.9472L2.66406 8.98405L13.5009 1.01562Z" fill="#FEDF00"/>
<path d="M13.5011 13.2327C15.8381 13.2327 17.7327 11.3381 17.7327 9.00111C17.7327 6.66407 15.8381 4.76953 13.5011 4.76953C11.1641 4.76953 9.26953 6.66407 9.26953 9.00111C9.26953 11.3381 11.1641 13.2327 13.5011 13.2327Z" fill="white"/>
<path d="M11.3644 8.71978C10.6329 8.71978 9.92233 8.8303 9.25391 9.03557C9.28549 11.3461 11.1644 13.2093 13.4802 13.2093C14.9118 13.2093 16.1802 12.4935 16.9434 11.404C15.6329 9.77241 13.6171 8.71978 11.3644 8.71978ZM17.6276 9.7882C17.675 9.52504 17.7065 9.25662 17.7065 8.97767C17.7065 6.64083 15.8118 4.74609 13.475 4.74609C11.7329 4.74609 10.2381 5.80399 9.58549 7.30399C10.1592 7.1882 10.7486 7.12504 11.3539 7.12504C13.8171 7.1303 16.0381 8.15136 17.6276 9.7882Z" fill="#002776"/>
</g>
<rect x="0.5" y="0.5" width="26" height="17" rx="0.5" stroke="black" stroke-opacity="0.2"/>
<defs>
<clipPath id="clip0_109_43827">
<rect width="27" height="18" rx="1" fill="white"/>
</clipPath>
</defs>
</svg>
