<svg width="375" height="225" viewBox="0 0 375 225" fill="none" xmlns="http://www.w3.org/2000/svg">
<g clip-path="url(#clip0_102_69626)">
<path d="M184.5 4C262.096 4 325 66.904 325 144.5C325 163.443 321.249 181.51 314.453 198H54.5469C47.7506 181.51 44 163.443 44 144.5C44 66.904 106.904 4 184.5 4Z" fill="#DCEDF4"/>
<ellipse cx="184" cy="203" rx="153" ry="14" fill="#A0A09F" fill-opacity="0.15"/>
<path d="M316 97V124H264L264.005 97H316Z" fill="#FFBC0D"/>
<path d="M190.926 120H77V97H191L190.926 120Z" fill="#FFBC0D"/>
<path d="M191 99L190.97 108H77V99H191Z" fill="black" fill-opacity="0.1"/>
<path d="M316 99V108H264L264.002 99H316Z" fill="black" fill-opacity="0.1"/>
<path d="M264 124H287V203H264V124Z" fill="#F9F9F9"/>
<path d="M288 124H316V203H288V124Z" fill="#F9F9F9"/>
<path d="M191 89L190.967 98.999L73.8004 99C72.8061 99 72 98.1942 72 97.2002V90.8008C72 89.8068 72.8061 89.001 73.8004 89.001L191 89Z" fill="#FFBC0D"/>
<path d="M318.212 89.001C319.2 89.001 320 89.8068 320 90.8008V97.2002C320 98.1942 319.2 99 318.212 99L264 98.999L264.002 89L318.212 89.001Z" fill="#FFBC0D"/>
<path d="M260.5 74.5234L260.473 202.998H194.569L194.5 74.5234L260.5 74.5234Z" fill="#F1F1F1"/>
<path d="M59.8 124H244.443C245.437 124 246.243 124.806 246.243 125.8V140H58V125.8C58 124.806 58.8059 124 59.8 124Z" fill="#606060"/>
<path d="M195 140H246V203H195V140Z" fill="#D8D8D8"/>
<path d="M109 140H137V203H109V140Z" fill="#F9F9F9"/>
<path d="M138 140H166V203H138V140Z" fill="#F9F9F9"/>
<path d="M167 140H195V203H167V140Z" fill="#F9F9F9"/>
<path d="M218 154H246V203H218V154Z" fill="#F9F9F9"/>
<path d="M58 198H109V204H58V198Z" fill="#A5835B"/>
<path d="M58 192H109V198H58V192Z" fill="#C2945C"/>
<path d="M58 187H109V193H58V187Z" fill="#A5835B"/>
<path d="M58 182H109V188H58V182Z" fill="#C2945C"/>
<path d="M58 177H109V183H58V177Z" fill="#A5835B"/>
<path d="M58 171H109V177H58V171Z" fill="#C2945C"/>
<path d="M58 166H109V172H58V166Z" fill="#A5835B"/>
<path d="M58 161H109V167H58V161Z" fill="#C2945C"/>
<path d="M58 156H109V162H58V156Z" fill="#A5835B"/>
<path d="M58 150H109V156H58V150Z" fill="#C2945C"/>
<path d="M58 145H109V151H58V145Z" fill="#A5835B"/>
<path d="M58 140H109V146H58V140Z" fill="#C2945C"/>
<path d="M136 140H140V203H136V140Z" fill="#D8D8D8"/>
<path d="M286 124H290V203H286V124Z" fill="#D8D8D8"/>
<path d="M312 124H316V203H312V124Z" fill="#D8D8D8"/>
<path d="M165 140H169V203H165V140Z" fill="#D8D8D8"/>
<path d="M218 154H246V160H218V154Z" fill="#A0A09F" fill-opacity="0.15"/>
<path d="M195 140H246V143H195V140Z" fill="#292929" fill-opacity="0.1"/>
<path d="M165 140H169V146H165V140Z" fill="#292929" fill-opacity="0.1"/>
<path d="M136 140H140V146H136V140Z" fill="#292929" fill-opacity="0.1"/>
<path d="M109 140H136V145H109V140Z" fill="#A0A09F" fill-opacity="0.15"/>
<path d="M140 140H165V145H140V140Z" fill="#A0A09F" fill-opacity="0.15"/>
<path d="M169 140H195V145H169V140Z" fill="#A0A09F" fill-opacity="0.15"/>
<path fill-rule="evenodd" clip-rule="evenodd" d="M236.023 86.7959C239.143 86.7959 241.672 99.9528 241.672 116.182H246.195C246.195 98.703 241.64 84.5352 236.023 84.5352C232.826 84.5352 229.975 88.7942 228.111 95.4522C226.247 88.7942 223.396 84.5352 220.2 84.5352C214.584 84.5352 210.027 98.703 210.027 116.182H214.55C214.55 99.9528 217.08 86.7959 220.2 86.7959C223.32 86.7959 225.85 98.9404 225.85 113.921H230.372C230.372 98.9404 232.902 86.7959 236.023 86.7959Z" fill="#FFBC0D"/>
<rect x="63" y="33" width="6" height="170" fill="#F9F9F9"/>
<rect x="66" y="33" width="3" height="170" fill="#F1F1F1"/>
<path d="M66 26C68.2091 26 70 27.7909 70 30C70 31.195 69.4754 32.267 68.6445 33H63.3555C62.5246 32.267 62 31.195 62 30C62 27.7909 63.7909 26 66 26Z" fill="#FFBC0D"/>
<path opacity="0.5" d="M66 26C67.3598 26 68.5605 26.6789 69.2832 27.7158C68.6357 27.2648 67.8489 27 67 27C64.7909 27 63 28.7909 63 31C63 31.8496 63.2659 32.6366 63.7178 33.2842C62.6799 32.5616 62 31.3605 62 30C62 27.7909 63.7909 26 66 26Z" fill="#F9F9F9"/>
<g clip-path="url(#clip1_102_69626)">
<path d="M69 33H124.323V69.882H69V33Z" fill="#CE1126"/>
<path d="M96.9835 59.7286C100.799 59.7286 103.893 56.6353 103.893 52.8194C103.893 49.0035 100.799 45.9102 96.9835 45.9102C93.1676 45.9102 90.0742 49.0035 90.0742 52.8194C90.0742 56.6353 93.1676 59.7286 96.9835 59.7286Z" fill="#FCD116"/>
<path d="M100.24 42.0234L97.3266 45.2199L100.843 46.019L100.24 42.0234ZM93.9089 42.048L93.3188 46.1173L96.8225 45.1338L93.9089 42.048ZM105.502 45.3305L101.236 46.3755L103.707 49.2892L105.502 45.3305ZM88.4995 45.1092L90.4051 49.1294L92.8885 46.3386L88.4995 45.1092ZM108.047 50.6784L103.818 49.4613L104.506 53.088L108.047 50.6784ZM85.6719 50.3588L89.5937 52.793L90.233 49.3875L85.6719 50.3588Z" fill="#FCD116"/>
<path d="M69 54.5156H124.323V69.8831H69V54.5156Z" fill="#003F87"/>
<path d="M69 65.8265C70.8441 65.8265 72.6882 67.4247 74.5323 67.4247C76.3764 67.4247 78.2205 65.8265 80.0646 65.8265C81.9087 65.8265 83.7528 67.4247 85.5969 67.4247C87.441 67.4247 89.2851 65.8265 91.1292 65.8265C92.9733 65.8265 94.8174 67.4247 96.6615 67.4247C98.5056 67.4247 100.35 65.8265 102.194 65.8265C104.038 65.8265 105.882 67.4247 107.726 67.4247C109.57 67.4247 111.414 65.8265 113.258 65.8265C115.103 65.8265 116.947 67.4247 118.791 67.4247C120.635 67.4247 122.479 65.8265 124.323 65.8265V63.2447C122.479 63.2447 120.635 64.8429 118.791 64.8429C116.947 64.8429 115.103 63.2447 113.258 63.2447C111.414 63.2447 109.57 64.8429 107.726 64.8429C105.882 64.8429 104.038 63.2447 102.194 63.2447C100.35 63.2447 98.5056 64.8429 96.6615 64.8429C94.8174 64.8429 92.9733 63.2447 91.1292 63.2447C89.2851 63.2447 87.441 64.8429 85.5969 64.8429C83.7528 64.8429 81.9087 63.2447 80.0646 63.2447C78.2205 63.2447 76.3764 64.8429 74.5323 64.8429C72.6882 64.8429 70.8441 63.2447 69 63.2447V65.8265ZM69 60.54C70.8441 60.54 72.6882 62.1383 74.5323 62.1383C76.3764 62.1383 78.2205 60.54 80.0646 60.54C81.9087 60.54 83.7528 62.1383 85.5969 62.1383C87.441 62.1383 89.2851 60.54 91.1292 60.54C92.9733 60.54 94.8174 62.1383 96.6615 62.1383C98.5056 62.1383 100.35 60.54 102.194 60.54C104.038 60.54 105.882 62.1383 107.726 62.1383C109.57 62.1383 111.414 60.54 113.258 60.54C115.103 60.54 116.947 62.1383 118.791 62.1383C120.635 62.1383 122.479 60.54 124.323 60.54V57.9583C122.479 57.9583 120.635 59.5565 118.791 59.5565C116.947 59.5565 115.103 57.9583 113.258 57.9583C111.414 57.9583 109.57 59.5565 107.726 59.5565C105.882 59.5565 104.038 57.9583 102.194 57.9583C100.35 57.9583 98.5056 59.5565 96.6615 59.5565C94.8174 59.5565 92.9733 57.9583 91.1292 57.9583C89.2851 57.9583 87.441 59.5565 85.5969 59.5565C83.7528 59.5565 81.9087 57.9583 80.0646 57.9583C78.2205 57.9583 76.3764 59.5565 74.5323 59.5565C72.6882 59.5565 70.8441 57.9583 69 57.9583V60.54ZM69 55.2536C70.8441 55.2536 72.6882 56.8518 74.5323 56.8518C76.3764 56.8518 78.2205 55.2536 80.0646 55.2536C81.9087 55.2536 83.7528 56.8518 85.5969 56.8518C87.441 56.8518 89.2851 55.2536 91.1292 55.2536C92.9733 55.2536 94.8174 56.8518 96.6615 56.8518C98.5056 56.8518 100.35 55.2536 102.194 55.2536C104.038 55.2536 105.882 56.8518 107.726 56.8518C109.57 56.8518 111.414 55.2536 113.258 55.2536C115.103 55.2536 116.947 56.8518 118.791 56.8518C120.635 56.8518 122.479 55.2536 124.323 55.2536V52.6719C122.479 52.6719 120.635 54.2701 118.791 54.2701C116.947 54.2701 115.103 52.6719 113.258 52.6719C111.414 52.6719 109.57 54.2701 107.726 54.2701C105.882 54.2701 104.038 52.6719 102.194 52.6719C100.35 52.6719 98.5056 54.2701 96.6615 54.2701C94.8174 54.2701 92.9733 52.6719 91.1292 52.6719C89.2851 52.6719 87.441 54.2701 85.5969 54.2701C83.7528 54.2701 81.9087 52.6719 80.0646 52.6719C78.2205 52.6719 76.3764 54.2701 74.5323 54.2701C72.6882 54.2701 70.8441 52.6719 69 52.6719V55.2536Z" fill="white"/>
<path fill-rule="evenodd" clip-rule="evenodd" d="M91.5217 38.9374L91.3864 38.2858L94.1403 37.831C94.1403 37.831 90.4398 36.9581 89.2227 36.5155C87.4646 35.8885 87.2188 35.0279 87.2188 35.0279C87.2188 35.0279 92.7142 36.3803 95.1853 36.3803C95.7139 36.3803 96.7589 37.6957 96.7589 37.6957C96.7589 37.6957 98.5784 35.8639 99.4513 35.8024C103.398 35.5197 107.639 35.0156 107.639 35.0156C107.639 35.0156 106.41 35.8393 105.672 36.0606C103.68 36.663 99.4513 37.499 99.4513 37.499L98.8612 38.4211H103.053L101.283 38.9497L102.193 39.798C102.193 39.798 101.234 39.2939 99.9676 39.5398C99.0948 39.6996 98.0744 40.2775 97.1523 40.5233C94.8533 41.1135 93.4764 38.9497 93.4764 38.9497L91.5217 38.9374Z" fill="#FCD116"/>
</g>
<path d="M67.8158 205.5L68.7364 205.494C75.9374 205.404 81.6316 204.137 81.6316 196.816C81.6316 189.186 75.446 183 67.8158 183C60.1855 183 54 189.186 54 196.816C54 204.446 60.1855 205.5 67.8158 205.5Z" fill="#9CC93A"/>
<path d="M98.8158 205.5L99.7364 205.494C106.937 205.404 112.632 204.137 112.632 196.816C112.632 189.186 106.446 183 98.8158 183C91.1855 183 85 189.186 85 196.816C85 204.446 91.1855 205.5 98.8158 205.5Z" fill="#9CC93A"/>
<path d="M128.816 205.5L129.736 205.494C136.937 205.404 142.632 204.137 142.632 196.816C142.632 189.186 136.446 183 128.816 183C121.186 183 115 189.186 115 196.816C115 204.446 121.186 205.5 128.816 205.5Z" fill="#9CC93A"/>
<path d="M253.561 29.8555C255.088 29.8555 256.327 31.0943 256.327 32.6221C256.327 34.0685 255.217 35.2538 253.802 35.376C254.09 36.0127 254.252 36.7186 254.252 37.4629C254.252 40.2639 251.982 42.5342 249.181 42.5342H257.94C260.741 42.5342 263.013 44.8055 263.013 47.6064H269.929C272.729 47.6066 275 49.8769 275 52.6777C275 55.4786 272.73 57.7498 269.929 57.75H262.332C261.455 59.2653 259.817 60.2852 257.94 60.2852H215.523C213.647 60.2852 212.009 59.2653 211.132 57.75H206.071C203.27 57.7498 201 55.4786 201 52.6777C201 49.8769 203.271 47.6066 206.071 47.6064H210.452C210.452 44.8055 212.722 42.5342 215.523 42.5342H221.748C221.748 39.7334 224.018 37.4629 226.819 37.4629H235.349C235.349 34.6619 237.62 32.3916 240.421 32.3916H249.181C249.746 32.3916 250.288 32.4849 250.796 32.6553C250.796 32.6442 250.795 32.6332 250.795 32.6221C250.795 31.0943 252.033 29.8556 253.561 29.8555Z" fill="white"/>
<path d="M140.047 2C143.684 2 146.634 4.94858 146.634 8.58594C146.634 8.65081 146.631 8.71586 146.629 8.78027H148.184C150.537 8.78048 152.445 10.6884 152.445 13.042H155.738C158.092 13.042 160 14.95 160 17.3037C160 19.6574 158.092 21.5654 155.738 21.5654H153.229C152.493 22.8389 151.116 23.6963 149.539 23.6963H133.461C131.884 23.6963 130.507 22.8389 129.771 21.5654H127.262C124.908 21.5654 123 19.6574 123 17.3037C123 14.95 124.908 13.042 127.262 13.042H127.843C127.843 10.6883 129.751 8.78037 132.104 8.78027H133.466C133.464 8.71585 133.461 8.65081 133.461 8.58594C133.461 4.94867 136.41 2.00015 140.047 2Z" fill="white"/>
</g>
<defs>
<clipPath id="clip0_102_69626">
<rect width="375" height="225" fill="white"/>
</clipPath>
<clipPath id="clip1_102_69626">
<rect width="55.3231" height="36.882" fill="white" transform="translate(69 33)"/>
</clipPath>
</defs>
</svg>
