<svg width="153" height="98" viewBox="0 0 153 98" fill="none" xmlns="http://www.w3.org/2000/svg">
<rect x="1.5" y="10" width="150" height="80" rx="40" fill="white"/>
<g clip-path="url(#clip0_3743_44513)">
<path d="M66.0559 25.3945C61.1201 25.3945 56.7168 31.9857 53.8359 42.289C50.9568 31.9857 46.5516 25.3945 41.614 25.3945C32.9386 25.3945 25.9023 47.3219 25.9023 74.3699H32.8857C32.8857 49.2547 36.795 28.8947 41.614 28.8947C46.435 28.8947 50.3442 47.6909 50.3442 70.8733H57.3258C57.3258 47.6909 61.235 28.8947 66.0559 28.8947C70.8768 28.8947 74.786 49.2547 74.786 74.3699H81.7676C81.7676 47.3219 74.7332 25.3945 66.0559 25.3945Z" fill="#FFBC0D"/>
<path d="M125.626 45.943C125.232 44.8451 124.698 43.8659 124.018 43.0073C123.338 42.1487 122.57 41.4673 121.713 40.9667C120.856 40.4662 119.963 40.2141 119.033 40.2141C117.509 40.2141 116.21 40.7512 115.138 41.8253C114.066 42.8995 112.959 44.5455 111.814 46.7651C111.362 47.6474 110.945 48.3288 110.564 48.8056C110.182 49.2824 109.723 49.6167 109.189 49.8086C108.653 50.0004 107.909 50.0954 106.955 50.0954C106.049 50.0954 105.199 50.0899 104.401 50.0771C103.602 50.0661 102.869 50.0479 102.204 50.0241C103.013 49.213 103.657 48.3654 104.133 47.483C104.608 46.6007 104.847 45.7165 104.847 44.8341C104.847 43.7124 104.519 42.7406 103.865 41.9167C103.21 41.0928 102.333 40.4607 101.239 40.0186C100.143 39.5765 98.9288 39.3555 97.5941 39.3555C96.1646 39.3555 94.7588 39.571 93.3785 40.0003C91.9964 40.4296 90.6034 41.027 89.1976 41.7906V46.6957C89.9361 47.4794 90.6563 48.2229 91.3601 48.9244C92.0621 49.6259 92.7714 50.2726 93.4861 50.8663C91.3182 51.5842 89.71 52.6493 88.6616 54.0596C87.6131 55.4717 87.0898 57.0026 87.0898 58.6522C87.0898 61.3011 88.0015 63.3234 89.823 64.7209C91.6445 66.1166 94.2009 66.8145 97.4865 66.8145C99.9389 66.8145 102.025 66.5514 103.739 66.0271L104.06 60.5503C102.796 60.7165 101.702 60.8298 100.772 60.8901C99.8441 60.9485 98.8194 60.9796 97.6999 60.9796C93.7687 60.9796 91.8032 59.8817 91.8032 57.6858C91.8032 56.8035 92.2554 56.0161 93.1616 55.3237C94.0659 54.6314 95.3642 54.1071 97.0562 53.749C97.9132 54.2751 98.772 54.7154 99.629 55.0735C100.486 55.4315 101.487 55.7001 102.63 55.8791C103.773 56.0581 105.214 56.1476 106.953 56.1476C108.215 56.1476 109.347 55.9577 110.347 55.574C111.348 55.1922 112.157 54.6314 112.777 53.8915C113.444 54.6789 114.32 55.3 115.403 55.753C116.486 56.2061 117.707 56.4326 119.066 56.4326C121.447 56.4326 123.234 55.7951 124.425 54.5181C125.615 53.2412 126.211 51.5294 126.211 49.3811C126.215 48.1882 126.018 47.0409 125.626 45.943ZM97.8457 49.0577C97.0362 48.6047 96.2667 48.0548 95.541 47.4118C94.8135 46.7669 94.0933 46.027 93.3785 45.1922C94.6877 44.5711 96.0461 44.2605 97.4519 44.2605C98.4292 44.2605 99.1786 44.4103 99.7037 44.7081C100.227 45.0077 100.49 45.4187 100.49 45.943C100.49 47.2565 99.6071 48.2941 97.8457 49.0577ZM121.141 50.3292C120.544 50.6032 119.83 50.7402 118.996 50.7402C118.258 50.7402 117.554 50.669 116.889 50.5247C116.221 50.3822 115.638 50.1082 115.138 49.7008C115.758 48.316 116.389 47.3022 117.033 46.6573C117.676 46.0124 118.367 45.6909 119.106 45.6909C119.629 45.6909 120.112 45.859 120.554 46.1914C120.995 46.5258 121.352 46.9496 121.626 47.4629C121.899 47.9763 122.036 48.5079 122.036 49.0559C122.034 49.6314 121.737 50.0552 121.141 50.3292Z" fill="url(#paint0_linear_3743_44513)"/>
</g>
<defs>
<linearGradient id="paint0_linear_3743_44513" x1="133.788" y1="53.0858" x2="90.107" y2="53.0858" gradientUnits="userSpaceOnUse">
<stop stop-color="#7A0157"/>
<stop offset="0.000616698" stop-color="#7A0157"/>
<stop offset="0.0237" stop-color="#810252"/>
<stop offset="0.1177" stop-color="#9E033C"/>
<stop offset="0.2092" stop-color="#B90429"/>
<stop offset="0.2963" stop-color="#CF0519"/>
<stop offset="0.3777" stop-color="#E0050D"/>
<stop offset="0.4512" stop-color="#EA0608"/>
<stop offset="0.5101" stop-color="#EE0605"/>
<stop offset="1" stop-color="#F45B04"/>
</linearGradient>
<clipPath id="clip0_3743_44513">
<rect width="101.195" height="49.3833" fill="white" transform="translate(25.9023 25.3086)"/>
</clipPath>
</defs>
</svg>
