<svg width="375" height="225" viewBox="0 0 375 225" fill="none" xmlns="http://www.w3.org/2000/svg">
<mask id="path-1-outside-1_1229_45151" maskUnits="userSpaceOnUse" x="116" y="18" width="128" height="196" fill="black">
<rect fill="white" x="116" y="18" width="128" height="196"/>
<path fill-rule="evenodd" clip-rule="evenodd" d="M203.015 131.8C203.015 131.8 202.913 132.028 202.733 132.446L202.755 132.637C201.526 135.531 196.959 146.819 194.676 159.823L194.582 159.834C194.544 160.056 194.506 160.278 194.47 160.501C194.034 163.163 193.785 165.072 193.556 166.833C193.524 167.08 193.492 167.325 193.46 167.568L167.545 170.788L147.538 173.209C142.815 173.782 138.524 170.405 137.954 165.67L136.5 153.593C137.913 151.114 139.015 147.31 137.774 144.174C137.336 143.066 136.504 141.854 134.978 140.955L125.961 66.0489C125.45 66.0615 124.999 65.6861 124.937 65.1682L123.999 57.3734C123.937 56.8555 124.285 56.3831 124.785 56.2744L124.3 52.2451C123.789 52.2587 123.338 51.8824 123.277 51.3644L122.731 46.8336C122.669 46.3157 123.017 45.8433 123.516 45.7346L122.519 37.4491C121.948 32.7127 125.315 28.4099 130.038 27.8385L186.012 21.0632C190.736 20.491 195.027 23.8665 195.597 28.6029L196.916 39.5636C196.976 39.5442 197.038 39.5297 197.103 39.5219C197.651 39.456 198.154 39.8508 198.22 40.4007L199.362 49.8823C199.427 50.4323 199.034 50.9366 198.485 51.0026C198.421 51.0104 198.358 51.0113 198.295 51.0065L201.37 76.5528C198.12 86.0819 200.87 98.0563 202.111 102.064C203.195 105.479 206.619 119.016 203.015 131.8ZM235.834 197.567C235.377 196.367 234.966 195.28 234.615 194.334C232.97 186.742 231.303 174.534 233.249 160.888C235.289 146.653 231.062 132.452 227.665 121.042L227.663 121.036L227.663 121.036C225.859 114.975 224.301 109.741 223.989 105.57C223.629 100.678 216.098 79.1814 212.781 70.0698C211.544 70.1018 209.276 70.4501 207.378 72.2601C200.417 78.6853 204.197 98.1086 205.106 100.14C205.813 101.537 211.456 122.578 204.26 137.382C199.391 147.413 197.659 160.607 196.729 167.696C196.442 169.887 194.756 170.307 193.177 170.307L148.919 175.808C152.32 181.142 156.933 187.746 161.167 191.008C163.809 193.044 166.051 195.27 168.018 197.569C171.255 201.355 173.747 205.343 176.046 209.025C176.486 209.73 176.918 210.418 177.347 211.093L240.956 211.091C239.442 207.018 238.03 203.323 236.838 200.199L236.837 200.198L236.828 200.175L236.819 200.151C236.471 199.239 236.142 198.376 235.834 197.567ZM126.663 132.044L130.743 134.452L128.623 117.299C127.432 116.854 126.179 116.581 124.982 116.689C123.509 116.803 122.356 117.489 121.383 118.74C120.441 119.954 120.072 121.27 120.259 122.765C120.816 127.225 126.062 131.56 126.663 132.044ZM127.77 143.091C128.151 143.044 128.561 143.018 129 143.016C132.526 142.999 134.718 144.012 135.516 146.031C136.721 149.079 134.588 153.608 133.329 154.786C131.382 156.603 129.593 156.782 126.49 155.458C123.818 154.319 122.104 150.648 122.748 147.441C123.047 145.952 124.101 143.547 127.77 143.091ZM126.913 112.648L127.001 112.69L128.127 113.296L126.237 98.0089C125.119 97.7964 123.95 97.6888 122.844 97.8255C122.376 97.8837 121.919 97.9846 121.485 98.1359C120.112 98.6151 119.133 99.5531 118.495 101.004C117.875 102.413 117.838 103.779 118.382 105.183C120.099 109.608 126.845 112.619 126.913 112.648ZM124.422 83.3213L125.763 94.1695C124.324 92.991 122.973 91.537 122.33 89.8783C121.786 88.4758 121.823 87.1091 122.443 85.7006C122.911 84.6376 123.567 83.8548 124.422 83.3213Z"/>
</mask>
<path d="M202.733 132.446L200.895 131.656L200.683 132.149L200.747 132.683L202.733 132.446ZM203.015 131.8L204.839 132.621L204.9 132.486L204.94 132.342L203.015 131.8ZM202.755 132.637L204.596 133.419L204.804 132.929L204.741 132.401L202.755 132.637ZM194.676 159.823L194.918 161.808L196.389 161.628L196.645 160.169L194.676 159.823ZM194.582 159.834L194.339 157.849L192.863 158.029L192.611 159.495L194.582 159.834ZM194.47 160.501L196.444 160.824L196.444 160.824L194.47 160.501ZM193.556 166.833L195.539 167.091L193.556 166.833ZM193.46 167.568L193.707 169.553L195.242 169.362L195.443 167.828L193.46 167.568ZM167.545 170.788L167.785 172.774L167.792 172.773L167.545 170.788ZM147.538 173.209L147.298 171.224L147.298 171.224L147.538 173.209ZM137.954 165.67L139.94 165.431L139.94 165.431L137.954 165.67ZM136.5 153.593L134.763 152.603L134.435 153.177L134.514 153.832L136.5 153.593ZM137.774 144.174L135.914 144.91L135.914 144.91L137.774 144.174ZM134.978 140.955L132.993 141.194L133.111 142.175L133.963 142.678L134.978 140.955ZM125.961 66.0489L127.947 65.8099L127.729 64.0047L125.912 64.0495L125.961 66.0489ZM124.937 65.1682L126.923 64.9308L126.923 64.9291L124.937 65.1682ZM123.999 57.3734L122.013 57.6108L122.013 57.6125L123.999 57.3734ZM124.785 56.2744L125.21 58.2287L126.988 57.8418L126.77 56.0356L124.785 56.2744ZM124.3 52.2451L126.286 52.0063L126.068 50.1974L124.247 50.2458L124.3 52.2451ZM123.277 51.3644L125.262 51.127L125.262 51.1253L123.277 51.3644ZM122.731 46.8336L120.745 47.071L120.745 47.0727L122.731 46.8336ZM123.516 45.7346L123.942 47.6889L125.72 47.302L125.502 45.4956L123.516 45.7346ZM122.519 37.4491L124.505 37.2101L124.505 37.2098L122.519 37.4491ZM130.038 27.8385L130.278 29.8241L130.279 29.824L130.038 27.8385ZM186.012 21.0632L186.253 23.0487L186.253 23.0487L186.012 21.0632ZM195.597 28.6029L193.611 28.8418L193.611 28.8419L195.597 28.6029ZM196.916 39.5636L194.931 39.8027L195.221 42.2141L197.532 41.4666L196.916 39.5636ZM197.103 39.5219L197.341 41.5077L197.342 41.5076L197.103 39.5219ZM198.22 40.4007L196.234 40.6382L196.235 40.6398L198.22 40.4007ZM199.362 49.8823L201.348 49.6448L201.347 49.6432L199.362 49.8823ZM198.485 51.0026L198.246 49.0169L198.244 49.0172L198.485 51.0026ZM198.295 51.0065L198.449 49.0124L196.018 48.8249L196.309 51.2455L198.295 51.0065ZM201.37 76.5528L203.263 77.1985L203.41 76.7667L203.356 76.3138L201.37 76.5528ZM202.111 102.064L200.2 102.656L200.202 102.663L200.205 102.67L202.111 102.064ZM234.615 194.334L232.66 194.758L232.691 194.897L232.74 195.03L234.615 194.334ZM235.834 197.567L233.964 198.278L233.964 198.278L235.834 197.567ZM233.249 160.888L231.27 160.604L231.269 160.606L233.249 160.888ZM227.665 121.042L229.581 120.472L229.581 120.47L227.665 121.042ZM227.663 121.036L225.74 121.586L225.743 121.597L225.746 121.608L227.663 121.036ZM227.663 121.036L229.586 120.486L229.583 120.476L229.58 120.465L227.663 121.036ZM223.989 105.57L221.995 105.717L221.995 105.719L223.989 105.57ZM212.781 70.0698L214.66 69.3855L214.168 68.0332L212.729 68.0704L212.781 70.0698ZM207.378 72.2601L208.735 73.7298L208.747 73.7187L208.759 73.7074L207.378 72.2601ZM205.106 100.14L203.281 100.957L203.3 101L203.322 101.042L205.106 100.14ZM204.26 137.382L202.462 136.508L202.461 136.509L204.26 137.382ZM196.729 167.696L198.712 167.956L196.729 167.696ZM193.177 170.307V168.307H193.053L192.93 168.322L193.177 170.307ZM148.919 175.808L148.672 173.823L145.53 174.214L147.232 176.883L148.919 175.808ZM161.167 191.008L159.946 192.592L159.946 192.592L161.167 191.008ZM168.018 197.569L169.538 196.269L169.538 196.269L168.018 197.569ZM176.046 209.025L177.743 207.966L177.742 207.966L176.046 209.025ZM177.347 211.093L175.659 212.167L176.249 213.093L177.347 213.093L177.347 211.093ZM240.956 211.091L240.956 213.091L243.833 213.091L242.831 210.394L240.956 211.091ZM236.838 200.199L234.968 200.909L234.969 200.913L236.838 200.199ZM236.837 200.198L238.707 199.489L238.706 199.485L236.837 200.198ZM236.828 200.175L238.697 199.462L238.697 199.462L236.828 200.175ZM236.819 200.151L238.688 199.437L238.688 199.437L236.819 200.151ZM130.743 134.452L129.726 136.174L133.226 138.24L132.728 134.207L130.743 134.452ZM126.663 132.044L125.408 133.601L125.521 133.692L125.646 133.766L126.663 132.044ZM128.623 117.299L130.607 117.054L130.459 115.85L129.323 115.426L128.623 117.299ZM124.982 116.689L125.137 118.683L125.15 118.682L125.162 118.681L124.982 116.689ZM121.383 118.74L119.804 117.512L119.803 117.514L121.383 118.74ZM120.259 122.765L118.274 123.013L118.274 123.013L120.259 122.765ZM129 143.016L129.009 145.016H129.009L129 143.016ZM127.77 143.091L128.016 145.076L128.017 145.076L127.77 143.091ZM135.516 146.031L137.376 145.295L137.376 145.295L135.516 146.031ZM133.329 154.786L134.694 156.248L134.695 156.247L133.329 154.786ZM126.49 155.458L127.275 153.618L127.274 153.618L126.49 155.458ZM122.748 147.441L124.709 147.835L124.709 147.835L122.748 147.441ZM127.001 112.69L127.948 110.929L127.911 110.909L127.873 110.891L127.001 112.69ZM126.913 112.648L127.785 110.848L127.744 110.828L127.702 110.81L126.913 112.648ZM128.127 113.296L127.18 115.057L130.586 116.888L130.111 113.05L128.127 113.296ZM126.237 98.0089L128.222 97.7636L128.043 96.3162L126.611 96.044L126.237 98.0089ZM122.844 97.8255L122.598 95.8407L122.597 95.8408L122.844 97.8255ZM121.485 98.1359L120.827 96.2473L120.826 96.2477L121.485 98.1359ZM118.495 101.004L120.325 101.81L120.325 101.81L118.495 101.004ZM118.382 105.183L116.517 105.905L116.517 105.906L118.382 105.183ZM125.763 94.1695L124.496 95.717L128.361 98.8811L127.748 93.9242L125.763 94.1695ZM124.422 83.3213L126.407 83.076L126.023 79.9655L123.364 81.6244L124.422 83.3213ZM122.33 89.8783L120.465 90.6012L120.465 90.6015L122.33 89.8783ZM122.443 85.7006L120.613 84.8945L120.613 84.8948L122.443 85.7006ZM202.733 132.446L204.57 133.237C204.657 133.033 204.726 132.877 204.772 132.773C204.795 132.721 204.812 132.682 204.823 132.656C204.829 132.644 204.833 132.634 204.836 132.628C204.837 132.625 204.838 132.623 204.838 132.622C204.839 132.622 204.839 132.621 204.839 132.621C204.839 132.621 204.839 132.621 204.839 132.621C204.839 132.621 204.839 132.621 204.839 132.621C204.839 132.621 204.839 132.621 204.839 132.621C204.839 132.621 204.839 132.621 204.839 132.621C204.839 132.621 204.839 132.621 203.015 131.8C201.192 130.978 201.192 130.978 201.192 130.978C201.192 130.979 201.192 130.979 201.192 130.979C201.192 130.979 201.192 130.979 201.192 130.979C201.192 130.979 201.192 130.979 201.192 130.979C201.191 130.979 201.191 130.98 201.191 130.98C201.191 130.981 201.19 130.982 201.19 130.983C201.189 130.985 201.187 130.988 201.185 130.993C201.182 131.001 201.177 131.013 201.17 131.028C201.156 131.058 201.137 131.102 201.111 131.159C201.061 131.274 200.988 131.441 200.895 131.656L202.733 132.446ZM202.755 132.637L204.741 132.401L204.719 132.209L202.733 132.446L200.747 132.683L200.769 132.874L202.755 132.637ZM194.676 159.823L196.645 160.169C198.89 147.383 203.391 136.256 204.596 133.419L202.755 132.637L200.915 131.856C199.662 134.805 195.027 146.255 192.706 159.477L194.676 159.823ZM194.582 159.834L194.824 161.82L194.918 161.808L194.676 159.823L194.433 157.838L194.339 157.849L194.582 159.834ZM194.47 160.501L196.444 160.824C196.479 160.607 196.516 160.391 196.553 160.173L194.582 159.834L192.611 159.495C192.572 159.721 192.534 159.948 192.496 160.178L194.47 160.501ZM193.556 166.833L195.539 167.091C195.768 165.334 196.013 163.453 196.444 160.824L194.47 160.501L192.496 160.177C192.055 162.874 191.803 164.81 191.573 166.574L193.556 166.833ZM193.46 167.568L195.443 167.828C195.475 167.584 195.507 167.338 195.539 167.091L193.556 166.833L191.573 166.574C191.54 166.822 191.509 167.065 191.477 167.308L193.46 167.568ZM167.545 170.788L167.792 172.773L193.707 169.553L193.46 167.568L193.213 165.583L167.298 168.803L167.545 170.788ZM147.538 173.209L147.779 175.195L167.785 172.774L167.545 170.788L167.305 168.803L147.298 171.224L147.538 173.209ZM137.954 165.67L135.968 165.909C136.669 171.736 141.953 175.901 147.779 175.195L147.538 173.209L147.298 171.224C143.677 171.662 140.378 169.074 139.94 165.431L137.954 165.67ZM136.5 153.593L134.514 153.832L135.968 165.909L137.954 165.67L139.94 165.431L138.486 153.354L136.5 153.593ZM137.774 144.174L135.914 144.91C136.829 147.22 136.049 150.345 134.763 152.603L136.5 153.593L138.238 154.584C139.777 151.883 141.202 147.399 139.634 143.438L137.774 144.174ZM134.978 140.955L133.963 142.678C135.054 143.321 135.617 144.158 135.914 144.91L137.774 144.174L139.634 143.438C139.055 141.975 137.954 140.387 135.994 139.232L134.978 140.955ZM125.961 66.0489L123.975 66.288L132.993 141.194L134.978 140.955L136.964 140.715L127.947 65.8099L125.961 66.0489ZM124.937 65.1682L122.952 65.4055C123.139 66.976 124.497 68.0857 126.01 68.0483L125.961 66.0489L125.912 64.0495C126.404 64.0374 126.859 64.3963 126.923 64.9308L124.937 65.1682ZM123.999 57.3734L122.013 57.6125L122.952 65.4072L124.937 65.1682L126.923 64.9291L125.985 57.1344L123.999 57.3734ZM124.785 56.2744L124.359 54.3202C122.875 54.6433 121.826 56.047 122.013 57.6108L123.999 57.3734L125.985 57.1361C126.048 57.6639 125.696 58.1229 125.21 58.2287L124.785 56.2744ZM124.3 52.2451L122.314 52.484L122.799 56.5133L124.785 56.2744L126.77 56.0356L126.286 52.0063L124.3 52.2451ZM123.277 51.3644L121.291 51.6018C121.478 53.1689 122.833 54.2848 124.353 54.2444L124.3 52.2451L124.247 50.2458C124.745 50.2326 125.199 50.5958 125.262 51.127L123.277 51.3644ZM122.731 46.8336L120.745 47.0727L121.291 51.6035L123.277 51.3644L125.262 51.1253L124.717 46.5945L122.731 46.8336ZM123.516 45.7346L123.091 43.7804C121.607 44.1035 120.558 45.5073 120.745 47.071L122.731 46.8336L124.717 46.5963C124.78 47.1241 124.428 47.5831 123.942 47.6889L123.516 45.7346ZM122.519 37.4491L120.533 37.6881L121.531 45.9737L123.516 45.7346L125.502 45.4956L124.505 37.2101L122.519 37.4491ZM130.038 27.8385L129.798 25.853C123.973 26.5575 119.831 31.8607 120.533 37.6884L122.519 37.4491L124.505 37.2098C124.066 33.5646 126.656 30.2622 130.278 29.8241L130.038 27.8385ZM186.012 21.0632L185.772 19.0777L129.798 25.853L130.038 27.8385L130.279 29.824L186.253 23.0487L186.012 21.0632ZM195.597 28.6029L197.582 28.364C196.881 22.5351 191.597 18.372 185.772 19.0778L186.012 21.0632L186.253 23.0487C189.874 22.61 193.173 25.1978 193.611 28.8418L195.597 28.6029ZM196.916 39.5636L198.902 39.3246L197.582 28.3639L195.597 28.6029L193.611 28.8419L194.931 39.8027L196.916 39.5636ZM197.103 39.5219L196.865 37.5361C196.655 37.5613 196.466 37.6071 196.301 37.6607L196.916 39.5636L197.532 41.4666C197.486 41.4814 197.421 41.4981 197.341 41.5077L197.103 39.5219ZM198.22 40.4007L200.206 40.1632C200.009 38.5164 198.51 37.3383 196.864 37.5362L197.103 39.5219L197.342 41.5076C196.793 41.5737 196.3 41.1851 196.234 40.6382L198.22 40.4007ZM199.362 49.8823L201.347 49.6432L200.206 40.1617L198.22 40.4007L196.235 40.6398L197.376 50.1213L199.362 49.8823ZM198.485 51.0026L198.724 52.9883C200.378 52.7894 201.543 51.2815 201.348 49.6448L199.362 49.8823L197.376 50.1198C197.312 49.583 197.689 49.0839 198.246 49.0169L198.485 51.0026ZM198.295 51.0065L198.141 53.0006C198.328 53.015 198.524 53.0126 198.727 52.988L198.485 51.0026L198.244 49.0172C198.319 49.0081 198.388 49.0077 198.449 49.0124L198.295 51.0065ZM201.37 76.5528L203.356 76.3138L200.28 50.7675L198.295 51.0065L196.309 51.2455L199.384 76.7918L201.37 76.5528ZM202.111 102.064L204.021 101.473C203.435 99.5784 202.469 95.7198 202.047 91.1935C201.624 86.6476 201.765 81.5884 203.263 77.1985L201.37 76.5528L199.477 75.9072C197.724 81.0463 197.615 86.7388 198.065 91.5644C198.516 96.4095 199.546 100.542 200.2 102.656L202.111 102.064ZM203.015 131.8L204.94 132.342C208.704 118.99 205.14 104.994 204.017 101.459L202.111 102.064L200.205 102.67C201.251 105.963 204.534 119.041 201.09 131.257L203.015 131.8ZM234.615 194.334L232.74 195.03C233.094 195.984 233.507 197.077 233.964 198.278L235.834 197.567L237.703 196.856C237.247 195.658 236.838 194.576 236.49 193.638L234.615 194.334ZM233.249 160.888L231.269 160.606C229.279 174.561 230.984 187.022 232.66 194.758L234.615 194.334L236.57 193.911C234.956 186.463 233.327 174.506 235.229 161.171L233.249 160.888ZM227.665 121.042L225.748 121.613C229.165 133.09 233.237 146.872 231.27 160.604L233.249 160.888L235.229 161.172C237.341 146.434 232.959 131.814 229.581 120.472L227.665 121.042ZM227.663 121.036L225.746 121.608L225.748 121.615L227.665 121.042L229.581 120.47L229.579 120.464L227.663 121.036ZM227.663 121.036L225.74 121.585L225.74 121.586L227.663 121.036L229.586 120.487L229.586 120.486L227.663 121.036ZM223.989 105.57L221.995 105.719C222.326 110.155 223.966 115.629 225.746 121.606L227.663 121.036L229.58 120.465C227.751 114.322 226.275 109.327 225.984 105.421L223.989 105.57ZM212.781 70.0698L210.901 70.754C212.556 75.2972 215.26 82.9285 217.594 90.027C218.761 93.5778 219.831 96.9792 220.629 99.7873C221.447 102.666 221.922 104.731 221.995 105.717L223.989 105.57L225.984 105.423C225.876 103.963 225.275 101.507 224.476 98.694C223.657 95.811 222.569 92.3516 221.394 88.7777C219.043 81.627 216.323 73.954 214.66 69.3855L212.781 70.0698ZM207.378 72.2601L208.759 73.7074C210.159 72.3719 211.859 72.0943 212.833 72.0691L212.781 70.0698L212.729 68.0704C211.228 68.1093 208.393 68.5283 205.998 70.8128L207.378 72.2601ZM205.106 100.14L206.932 99.3225C206.935 99.329 206.924 99.3061 206.902 99.2416C206.881 99.1807 206.854 99.0983 206.822 98.9925C206.759 98.7803 206.685 98.5006 206.602 98.1562C206.437 97.4685 206.251 96.5628 206.071 95.4965C205.709 93.3619 205.381 90.6342 205.29 87.784C205.198 84.9227 205.35 82.0096 205.911 79.4738C206.479 76.9114 207.418 74.9449 208.735 73.7298L207.378 72.2601L206.022 70.7904C203.857 72.788 202.659 75.6589 202.006 78.6089C201.347 81.5855 201.194 84.8599 201.292 87.9115C201.389 90.9741 201.741 93.8846 202.127 96.1639C202.32 97.3045 202.523 98.2996 202.712 99.088C202.888 99.8237 203.083 100.514 203.281 100.957L205.106 100.14ZM204.26 137.382L206.059 138.256C209.887 130.381 210.251 120.995 209.64 113.57C209.332 109.829 208.771 106.518 208.239 104.046C207.974 102.81 207.714 101.775 207.493 100.992C207.294 100.287 207.082 99.6143 206.891 99.2369L205.106 100.14L203.322 101.042C203.307 101.015 203.426 101.305 203.643 102.076C203.838 102.769 204.079 103.723 204.329 104.887C204.829 107.216 205.362 110.353 205.653 113.898C206.241 121.043 205.829 129.58 202.462 136.508L204.26 137.382ZM196.729 167.696L198.712 167.956C199.65 160.808 201.356 147.945 206.06 138.256L204.26 137.382L202.461 136.509C197.426 146.88 195.668 160.407 194.746 167.435L196.729 167.696ZM193.177 170.307V172.307C194.089 172.307 195.329 172.196 196.439 171.554C197.676 170.838 198.494 169.615 198.712 167.956L196.729 167.696L194.746 167.435C194.706 167.738 194.632 167.885 194.592 167.947C194.555 168.005 194.511 168.048 194.435 168.092C194.236 168.207 193.844 168.307 193.177 168.307V170.307ZM148.919 175.808L149.165 177.793L193.424 172.292L193.177 170.307L192.93 168.322L148.672 173.823L148.919 175.808ZM161.167 191.008L162.387 189.423C158.473 186.407 154.031 180.104 150.605 174.732L148.919 175.808L147.232 176.883C150.61 182.179 155.394 189.085 159.946 192.592L161.167 191.008ZM168.018 197.569L169.538 196.269C167.496 193.883 165.157 191.557 162.387 189.423L161.167 191.008L159.946 192.592C162.462 194.53 164.605 196.656 166.498 198.869L168.018 197.569ZM176.046 209.025L177.742 207.966C175.452 204.297 172.887 200.185 169.538 196.269L168.018 197.569L166.498 198.869C169.624 202.525 172.042 206.389 174.35 210.084L176.046 209.025ZM177.347 211.093L179.034 210.02C178.609 209.351 178.181 208.669 177.743 207.966L176.046 209.025L174.349 210.084C174.791 210.791 175.226 211.485 175.659 212.167L177.347 211.093ZM240.956 211.091L240.956 209.091L177.347 209.093L177.347 211.093L177.347 213.093L240.956 213.091L240.956 211.091ZM236.838 200.199L234.969 200.913C236.162 204.037 237.57 207.725 239.081 211.788L240.956 211.091L242.831 210.394C241.313 206.312 239.899 202.609 238.706 199.486L236.838 200.199ZM236.837 200.198L234.967 200.907L234.968 200.909L236.838 200.199L238.708 199.49L238.707 199.489L236.837 200.198ZM236.828 200.175L234.96 200.888L234.969 200.911L236.837 200.198L238.706 199.485L238.697 199.462L236.828 200.175ZM236.819 200.151L234.951 200.864L234.96 200.888L236.828 200.175L238.697 199.462L238.688 199.437L236.819 200.151ZM235.834 197.567L233.964 198.278C234.273 199.089 234.603 199.952 234.951 200.864L236.819 200.151L238.688 199.437C238.339 198.525 238.01 197.663 237.703 196.856L235.834 197.567ZM130.743 134.452L131.76 132.73L127.679 130.321L126.663 132.044L125.646 133.766L129.726 136.174L130.743 134.452ZM128.623 117.299L126.638 117.544L128.758 134.697L130.743 134.452L132.728 134.207L130.607 117.054L128.623 117.299ZM124.982 116.689L125.162 118.681C125.951 118.61 126.887 118.785 127.922 119.172L128.623 117.299L129.323 115.426C127.976 114.922 126.407 114.552 124.803 114.697L124.982 116.689ZM121.383 118.74L122.962 119.968C123.643 119.093 124.307 118.747 125.137 118.683L124.982 116.689L124.828 114.695C122.712 114.859 121.07 115.885 119.804 117.512L121.383 118.74ZM120.259 122.765L122.243 122.517C122.124 121.561 122.337 120.772 122.963 119.967L121.383 118.74L119.803 117.514C118.544 119.135 118.02 120.979 118.274 123.013L120.259 122.765ZM126.663 132.044L127.918 130.486C127.663 130.281 126.307 129.164 124.964 127.595C123.571 125.967 122.447 124.143 122.243 122.517L120.259 122.765L118.274 123.013C118.628 125.846 120.405 128.42 121.925 130.195C123.494 132.029 125.061 133.322 125.408 133.601L126.663 132.044ZM129 143.016L128.991 141.016C128.478 141.018 127.988 141.049 127.522 141.107L127.77 143.091L128.017 145.076C128.313 145.039 128.643 145.017 129.009 145.016L129 143.016ZM135.516 146.031L137.376 145.295C136.106 142.084 132.759 140.998 128.991 141.016L129 143.016L129.009 145.016C132.293 145 133.33 145.94 133.656 146.766L135.516 146.031ZM133.329 154.786L134.695 156.247C135.67 155.334 136.656 153.551 137.249 151.728C137.846 149.893 138.23 147.456 137.376 145.295L135.516 146.031L133.656 146.766C134.007 147.653 133.928 149.006 133.445 150.491C132.958 151.989 132.247 153.059 131.963 153.325L133.329 154.786ZM126.49 155.458L125.705 157.297C127.376 158.01 128.968 158.445 130.539 158.29C132.184 158.128 133.509 157.353 134.694 156.248L133.329 154.786L131.964 153.324C131.201 154.036 130.659 154.259 130.147 154.309C129.561 154.367 128.706 154.229 127.275 153.618L126.49 155.458ZM122.748 147.441L120.787 147.047C120.372 149.116 120.722 151.269 121.563 153.071C122.399 154.861 123.81 156.49 125.706 157.298L126.49 155.458L127.274 153.618C126.498 153.287 125.716 152.51 125.188 151.379C124.665 150.259 124.48 148.973 124.709 147.835L122.748 147.441ZM127.77 143.091L127.523 141.107C125.249 141.389 123.615 142.311 122.508 143.541C121.435 144.735 120.982 146.079 120.787 147.047L122.748 147.441L124.709 147.835C124.814 147.313 125.037 146.711 125.482 146.216C125.895 145.758 126.622 145.25 128.016 145.076L127.77 143.091ZM127.001 112.69L127.873 110.891L127.785 110.848L126.913 112.648L126.04 114.447L126.128 114.49L127.001 112.69ZM128.127 113.296L129.074 111.534L127.948 110.929L127.001 112.69L126.054 114.452L127.18 115.057L128.127 113.296ZM126.237 98.0089L124.252 98.2542L126.142 113.541L128.127 113.296L130.111 113.05L128.222 97.7636L126.237 98.0089ZM122.844 97.8255L123.089 99.8104C123.914 99.7085 124.858 99.7827 125.864 99.9737L126.237 98.0089L126.611 96.044C125.38 95.8102 123.986 95.6691 122.598 95.8407L122.844 97.8255ZM121.485 98.1359L122.143 100.025C122.427 99.9255 122.744 99.8533 123.091 99.8103L122.844 97.8255L122.597 95.8408C122.007 95.9141 121.411 96.0438 120.827 96.2473L121.485 98.1359ZM118.495 101.004L120.325 101.81C120.762 100.816 121.345 100.303 122.144 100.024L121.485 98.1359L120.826 96.2477C118.88 96.9269 117.504 98.2898 116.664 100.199L118.495 101.004ZM118.382 105.183L120.247 104.46C119.899 103.563 119.913 102.745 120.325 101.81L118.495 101.004L116.664 100.198C115.836 102.08 115.777 103.996 116.517 105.905L118.382 105.183ZM126.913 112.648L127.702 110.81C127.749 110.83 126.168 110.129 124.397 108.914C122.556 107.652 120.875 106.081 120.246 104.459L118.382 105.183L116.517 105.906C117.605 108.71 120.156 110.856 122.135 112.213C124.182 113.617 126.009 114.436 126.123 114.485L126.913 112.648ZM125.763 94.1695L127.748 93.9242L126.407 83.076L124.422 83.3213L122.437 83.5666L123.778 94.4148L125.763 94.1695ZM122.33 89.8783L120.465 90.6015C121.291 92.7321 122.95 94.4517 124.496 95.717L125.763 94.1695L127.03 92.622C125.697 91.5304 124.655 90.342 124.195 89.1552L122.33 89.8783ZM122.443 85.7006L120.613 84.8948C119.784 86.776 119.725 88.6924 120.465 90.6012L122.33 89.8783L124.195 89.1555C123.847 88.2592 123.862 87.4421 124.273 86.5065L122.443 85.7006ZM124.422 83.3213L123.364 81.6244C122.124 82.3981 121.221 83.5143 120.613 84.8945L122.443 85.7006L124.273 86.5068C124.602 85.7608 125.011 85.3115 125.481 85.0182L124.422 83.3213Z" fill="white" mask="url(#path-1-outside-1_1229_45151)"/>
<path d="M190.739 31.8214C190.426 29.2005 188.074 27.3321 185.485 27.6481L131.914 34.1954C129.325 34.5114 127.48 36.8933 127.792 39.5142L142.325 161.405C142.637 164.026 144.99 165.894 147.578 165.578L194.678 159.822C196.961 146.818 201.529 135.53 202.758 132.637L190.739 31.8214Z" fill="white"/>
<path d="M235.833 197.565C235.377 196.366 234.966 195.278 234.615 194.333C232.97 186.741 231.302 174.532 233.249 160.887C235.289 146.651 231.062 132.45 227.664 121.041C225.86 114.978 224.3 109.741 223.989 105.568C223.629 100.677 216.098 79.1798 212.78 70.0682C211.543 70.1002 209.276 70.4485 207.378 72.2585C200.416 78.6837 204.197 98.107 205.106 100.138C205.813 101.536 211.455 122.577 204.26 137.381C199.391 147.411 197.659 160.605 196.729 167.694C196.441 169.885 194.755 170.305 193.177 170.305L148.918 175.806C152.32 181.14 156.933 187.744 161.167 191.006C163.809 193.042 166.05 195.268 168.018 197.568C171.255 201.353 173.747 205.342 176.046 209.024C176.486 209.729 176.917 210.416 177.347 211.091L240.956 211.089C238.99 205.804 237.199 201.154 235.833 197.565Z" fill="#73371F"/>
<path d="M179.247 43.1831C181.988 42.8482 184.483 44.7979 184.822 47.5384L196.688 143.704C197.026 146.444 195.079 148.938 192.338 149.272L152.319 154.161C149.578 154.496 147.082 152.546 146.744 149.805L134.878 53.6407C134.539 50.9001 136.487 48.4072 139.228 48.0722L179.247 43.1831Z" fill="white"/>
<path d="M147.979 164.867C145.411 165.178 143.078 163.343 142.768 160.768L128.356 41.0429C128.047 38.4685 129.877 36.129 132.444 35.8186L185.575 29.3876C188.142 29.0772 190.476 30.9124 190.785 33.4867L202.706 132.511C202.903 132.051 203.016 131.8 203.016 131.8C206.62 119.016 203.196 105.479 202.112 102.064C200.871 98.0563 198.121 86.0819 201.371 76.5528L198.296 51.0065C198.359 51.0113 198.422 51.0104 198.486 51.0026C199.035 50.9366 199.428 50.4323 199.363 49.8823L198.221 40.4007C198.155 39.8508 197.652 39.456 197.104 39.5219C197.039 39.5297 196.977 39.5442 196.917 39.5636L195.598 28.6029C195.028 23.8665 190.737 20.491 186.013 21.0632L130.039 27.8385C125.316 28.4099 121.949 32.7127 122.52 37.4491L123.517 45.7346C123.018 45.8433 122.67 46.3157 122.732 46.8336L123.278 51.3644C123.339 51.8824 123.79 52.2587 124.301 52.2451L124.786 56.2744C124.286 56.3831 123.938 56.8555 124 57.3734L124.938 65.1682C125 65.6861 125.451 66.0615 125.962 66.0489L134.979 140.955C136.505 141.854 137.337 143.066 137.775 144.174C139.016 147.31 137.914 151.114 136.501 153.593L137.955 165.67C138.525 170.405 142.816 173.782 147.539 173.209L167.546 170.788L193.461 167.568C193.72 165.593 193.974 163.538 194.471 160.501C194.541 160.069 194.616 159.64 194.691 159.212L147.979 164.867Z" fill="#6F6F6F"/>
<path d="M126.662 132.044L130.742 134.453L128.622 117.3C127.431 116.854 126.178 116.582 124.981 116.69C123.508 116.804 122.355 117.49 121.382 118.741C120.44 119.954 120.071 121.271 120.258 122.765C120.815 127.225 126.061 131.56 126.662 132.044Z" fill="#73371F"/>
<path d="M129.001 143.016C128.562 143.018 128.152 143.044 127.771 143.091C124.102 143.547 123.048 145.952 122.749 147.441C122.105 150.648 123.819 154.319 126.491 155.458C129.594 156.782 131.383 156.603 133.33 154.786C134.589 153.608 136.722 149.079 135.517 146.031C134.719 144.012 132.527 142.999 129.001 143.016Z" fill="#73371F"/>
<path d="M126.913 112.647L127.001 112.689L128.127 113.295L126.237 98.0079C125.119 97.7955 123.95 97.6878 122.844 97.8246C122.376 97.8828 121.919 97.9836 121.485 98.135C120.112 98.6141 119.133 99.5521 118.495 101.003C117.875 102.412 117.838 103.778 118.382 105.182C120.099 109.607 126.845 112.618 126.913 112.647Z" fill="#73371F"/>
<path d="M125.764 94.1686L124.423 83.3203C123.568 83.8538 122.912 84.6366 122.444 85.6997C121.824 87.1081 121.787 88.4748 122.331 89.8774C122.974 91.536 124.325 92.99 125.764 94.1686Z" fill="#73371F"/>
<path fill-rule="evenodd" clip-rule="evenodd" d="M182.894 94.665L177.309 107.835C176.967 108.64 176.223 109.201 175.355 109.308L161.167 111.05C160.299 111.157 159.441 110.792 158.915 110.094L150.309 98.6659C149.784 97.9684 149.671 97.0437 150.012 96.2398L155.597 83.0695C155.938 82.2648 156.683 81.7034 157.551 81.5969L171.739 79.8548C172.606 79.7483 173.465 80.1129 173.99 80.8111L182.596 92.2389C183.121 92.9364 183.235 93.8611 182.894 94.665Z" fill="#A0A09F"/>
<path d="M182.596 92.2389C183.121 92.9364 183.235 93.8612 182.894 94.6651L177.308 107.835C176.967 108.64 176.222 109.201 175.354 109.308L161.168 111.05C160.3 111.156 159.441 110.792 158.915 110.093L150.309 98.666C149.784 97.9685 149.671 97.0436 150.011 96.2397L155.597 83.0699C155.939 82.2652 156.684 81.7034 157.551 81.5968L171.738 79.8549C172.605 79.7484 173.464 80.1133 173.99 80.8115L182.596 92.2389ZM181.287 93.9831C181.384 93.7531 181.352 93.489 181.202 93.2894L172.596 81.8603C172.445 81.6609 172.199 81.557 171.951 81.5875L157.764 83.3294C157.516 83.3598 157.302 83.5202 157.204 83.7502L151.619 96.9217C151.521 97.1516 151.554 97.4159 151.704 97.6154L160.31 109.044C160.46 109.244 160.707 109.348 160.955 109.317L175.142 107.575C175.39 107.545 175.603 107.385 175.701 107.155L181.287 93.9831Z" fill="white"/>
<path fill-rule="evenodd" clip-rule="evenodd" d="M163.09 86.5664L167.568 86.0165L168.225 97.5673L165.272 97.9298L163.09 86.5664Z" fill="white"/>
<path fill-rule="evenodd" clip-rule="evenodd" d="M167.013 100.11C167.664 100.03 168.232 100.172 168.716 100.536C169.201 100.9 169.485 101.415 169.567 102.082C169.642 102.7 169.482 103.257 169.086 103.754C168.69 104.251 168.184 104.538 167.566 104.614C166.933 104.691 166.372 104.536 165.884 104.147C165.396 103.758 165.114 103.256 165.038 102.638C164.956 101.971 165.107 101.403 165.489 100.932C165.871 100.462 166.38 100.188 167.013 100.11Z" fill="white"/>
</svg>
