<svg width="27" height="18" viewBox="0 0 27 18" fill="none" xmlns="http://www.w3.org/2000/svg">
<g clip-path="url(#clip0_109_43696)">
<path d="M0 0H27V17.9996H0V0Z" fill="#0052B4"/>
<path d="M27 0V8.79029L0 9.00924V0H27Z" fill="#D80027"/>
<path d="M13.5 9.00043L0 18.0002V0L13.5 9.00043Z" fill="white"/>
<path d="M3.14299 9C3.13651 9.08017 3.13312 9.16056 3.13281 9.241C3.13281 10.9718 4.53592 12.375 6.26676 12.375C7.99761 12.375 9.40071 10.9719 9.40071 9.241C9.40071 9.15984 9.3966 9.07958 9.39053 9H3.14299Z" fill="#FFDA44"/>
<path d="M6.26508 7.5536C6.79765 7.5536 7.22938 7.12187 7.22938 6.5893C7.22938 6.05673 6.79765 5.625 6.26508 5.625C5.73251 5.625 5.30078 6.05673 5.30078 6.5893C5.30078 7.12187 5.73251 7.5536 6.26508 7.5536Z" fill="#FFDA44"/>
<path d="M4.09766 6.34766V9.4816C4.09766 11.1424 6.26736 11.6513 6.26736 11.6513C6.26736 11.6513 8.43707 11.1424 8.43707 9.4816V6.34766H4.09766Z" fill="#D80027"/>
<path d="M6.26885 10.6427C5.86638 10.4979 5.0625 10.1276 5.0625 9.48221V7.3125H7.47325V9.48221C7.4732 10.1298 6.66937 10.4991 6.26885 10.6427Z" fill="#338AF3"/>
<path d="M6.74832 8.51612V8.03402L6.26612 7.79297L5.78402 8.03402V8.51612L5.54297 8.75727V9.72152H6.98937V8.75727L6.74832 8.51612Z" fill="#F3F3F3"/>
</g>
<rect x="0.5" y="0.5" width="26" height="17" rx="0.5" stroke="black" stroke-opacity="0.2"/>
<defs>
<clipPath id="clip0_109_43696">
<rect width="27" height="18" rx="1" fill="white"/>
</clipPath>
</defs>
</svg>
