<svg width="376" height="226" viewBox="0 0 376 226" fill="none" xmlns="http://www.w3.org/2000/svg">
<ellipse opacity="0.5" cx="124.165" cy="166.221" rx="29.5393" ry="4.50599" fill="#A0A09F" fill-opacity="0.15"/>
<mask id="path-2-outside-1_1015_45302" maskUnits="userSpaceOnUse" x="96.6285" y="47.5632" width="54.0719" height="121.161" fill="black">
<rect fill="white" x="96.6285" y="47.5632" width="54.0719" height="121.161"/>
<path d="M126.668 166.722H120.66V147.696H126.668V166.722ZM145.437 49.5659C147.208 49.5659 148.645 51.0118 148.645 52.7948V142.6C148.645 144.383 147.208 145.829 145.437 145.829H101.84C100.068 145.829 98.6312 144.383 98.6312 142.6V52.7948C98.6312 51.0118 100.068 49.5659 101.84 49.5659H145.437Z"/>
</mask>
<path d="M126.668 166.722H120.66V147.696H126.668V166.722ZM145.437 49.5659C147.208 49.5659 148.645 51.0118 148.645 52.7948V142.6C148.645 144.383 147.208 145.829 145.437 145.829H101.84C100.068 145.829 98.6312 144.383 98.6312 142.6V52.7948C98.6312 51.0118 100.068 49.5659 101.84 49.5659H145.437Z" fill="#D8D8D8"/>
<path d="M126.668 166.722V168.724H128.671V166.722H126.668ZM120.66 166.722H118.658V168.724H120.66V166.722ZM120.66 147.696V145.694H118.658V147.696H120.66ZM126.668 147.696H128.671V145.694H126.668V147.696ZM145.437 49.5659V47.5632V49.5659ZM101.84 49.5659V47.5632V49.5659ZM126.668 166.722V164.719H120.66V166.722V168.724H126.668V166.722ZM120.66 166.722H122.663V147.696H120.66H118.658V166.722H120.66ZM120.66 147.696V149.699H126.668V147.696V145.694H120.66V147.696ZM126.668 147.696H124.666V166.722H126.668H128.671V147.696H126.668ZM145.437 49.5659V51.5686C146.09 51.5686 146.642 52.1057 146.642 52.7948H148.645H150.648C150.648 49.9179 148.326 47.5632 145.437 47.5632V49.5659ZM148.645 52.7948H146.642V142.6H148.645H150.648V52.7948H148.645ZM148.645 142.6H146.642C146.642 143.289 146.09 143.826 145.437 143.826V145.829V147.831C148.326 147.831 150.648 145.477 150.648 142.6H148.645ZM145.437 145.829V143.826H101.84V145.829V147.831H145.437V145.829ZM101.84 145.829V143.826C101.186 143.826 100.634 143.289 100.634 142.6H98.6312H96.6285C96.6285 145.477 98.9496 147.831 101.84 147.831V145.829ZM98.6312 142.6H100.634V52.7948H98.6312H96.6285V142.6H98.6312ZM98.6312 52.7948H100.634C100.634 52.1057 101.186 51.5686 101.84 51.5686V49.5659V47.5632C98.9496 47.5632 96.6285 49.9179 96.6285 52.7948H98.6312ZM101.84 49.5659V51.5686H145.437V49.5659V47.5632H101.84V49.5659Z" fill="white" mask="url(#path-2-outside-1_1015_45302)"/>
<path fill-rule="evenodd" clip-rule="evenodd" d="M101.839 49.5659H145.437C147.208 49.5659 148.645 51.0113 148.645 52.7944V142.6C148.645 144.383 147.208 145.829 145.437 145.829H101.839C100.067 145.829 98.6312 144.383 98.6312 142.6V52.7944C98.6312 51.0113 100.067 49.5659 101.839 49.5659Z" fill="#292929"/>
<rect x="101.858" y="54.9442" width="43.5602" height="62.3825" rx="2.14826" fill="#F9F9F9"/>
<path fill-rule="evenodd" clip-rule="evenodd" d="M125.838 83.0321C126.709 83.0321 127.415 86.8785 127.415 91.6228H128.676C128.676 86.5134 127.406 82.3713 125.838 82.3713C124.946 82.3713 124.15 83.6161 123.63 85.5628C123.11 83.6161 122.314 82.3713 121.422 82.3713C119.855 82.3713 118.583 86.5134 118.583 91.6228H119.845C119.845 86.8785 120.552 83.0321 121.422 83.0321C122.293 83.0321 122.999 86.5826 122.999 90.962H124.261C124.261 86.5826 124.967 83.0321 125.838 83.0321Z" fill="#FFBC0D"/>
<path d="M126.668 147.696H120.66V166.722H126.668V147.696Z" fill="#6F6F6F"/>
<rect opacity="0.1" x="120.68" y="147.98" width="5.91558" height="5.3778" fill="#292929"/>
<rect x="133.048" y="120.553" width="12.3689" height="13.9823" fill="#6F6F6F"/>
<rect x="104.009" y="106.034" width="18.2845" height="8.0667" fill="#D8D8D8"/>
<rect x="124.983" y="106.034" width="18.2845" height="8.0667" fill="#FFBC0D"/>
<rect x="135.739" y="122.704" width="6.99114" height="2.6889" fill="#A0A09F"/>
<mask id="path-13-outside-2_1015_45302" maskUnits="userSpaceOnUse" x="155.707" y="9.51265" width="128.17" height="196.261" fill="black">
<rect fill="white" x="155.707" y="9.51265" width="128.17" height="196.261"/>
<path fill-rule="evenodd" clip-rule="evenodd" d="M242.838 123.464C242.838 123.464 242.736 123.692 242.555 124.111L242.578 124.303C241.347 127.2 236.774 138.503 234.487 151.524L234.394 151.536C234.355 151.758 234.318 151.98 234.281 152.203C233.845 154.869 233.596 156.78 233.366 158.543C233.334 158.791 233.302 159.036 233.27 159.28L207.321 162.504L187.287 164.929C182.558 165.502 178.261 162.121 177.69 157.379L176.234 145.287C177.65 142.804 178.753 138.995 177.51 135.855C177.071 134.745 176.238 133.531 174.711 132.631L165.681 57.6255C165.17 57.6382 164.718 57.2623 164.656 56.7436L163.717 48.9385C163.655 48.4198 164.004 47.9468 164.503 47.8381L164.018 43.8034C163.507 43.817 163.055 43.4401 162.993 42.9215L162.447 38.3847C162.385 37.866 162.734 37.393 163.234 37.2842L162.235 28.9876C161.663 24.2449 165.034 19.9364 169.764 19.3643L225.813 12.58C230.542 12.0069 234.839 15.3869 235.41 20.1297L236.731 31.105C236.791 31.0856 236.853 31.071 236.918 31.0632C237.467 30.9972 237.971 31.3925 238.037 31.9432L239.18 41.4374C239.246 41.9881 238.851 42.4932 238.302 42.5592C238.238 42.567 238.174 42.5679 238.111 42.5631L241.191 68.1434C237.936 77.6852 240.69 89.6755 241.933 93.6888C243.018 97.1077 246.446 110.663 242.838 123.464ZM275.701 189.319C275.243 188.118 274.832 187.029 274.48 186.082C272.833 178.48 271.163 166.255 273.113 152.591C275.155 138.337 270.923 124.117 267.521 112.693L267.519 112.686L267.519 112.686C265.712 106.617 264.152 101.376 263.84 97.1993C263.479 92.3013 255.939 70.7757 252.617 61.6519C251.378 61.684 249.108 62.0328 247.207 63.8452C240.236 70.279 244.022 89.7281 244.932 91.7619C245.64 93.1614 251.29 114.231 244.085 129.054C239.209 139.098 237.475 152.31 236.544 159.408C236.256 161.602 234.568 162.022 232.987 162.022L188.67 167.531C192.076 172.872 196.695 179.485 200.934 182.751C203.58 184.79 205.824 187.018 207.794 189.321C211.036 193.112 213.531 197.106 215.833 200.792C216.274 201.498 216.706 202.187 217.136 202.863L280.83 202.861C279.313 198.782 277.9 195.082 276.706 191.954L276.704 191.95L276.701 191.943C276.348 191.016 276.013 190.14 275.701 189.319ZM166.384 123.708L170.47 126.12L168.346 108.944C167.154 108.498 165.9 108.225 164.701 108.333C163.226 108.447 162.072 109.134 161.097 110.387C160.154 111.602 159.785 112.92 159.972 114.417C160.53 118.883 165.782 123.223 166.384 123.708ZM167.492 134.771C167.874 134.723 168.285 134.697 168.724 134.695C172.255 134.678 174.45 135.692 175.249 137.714C176.456 140.766 174.32 145.301 173.059 146.48C171.109 148.301 169.318 148.479 166.211 147.153C163.535 146.013 161.819 142.337 162.464 139.126C162.763 137.635 163.819 135.227 167.492 134.771ZM166.634 104.286L166.722 104.329L167.85 104.935L165.958 89.6281C164.838 89.4153 163.667 89.3075 162.56 89.4445C162.091 89.5028 161.634 89.6038 161.199 89.7553C159.825 90.2351 158.844 91.1743 158.205 92.6273C157.584 94.0376 157.547 95.4061 158.092 96.8116C159.811 101.243 166.566 104.257 166.634 104.286ZM164.141 74.9209L165.483 85.7836C164.042 84.6035 162.689 83.1476 162.045 81.4867C161.501 80.0823 161.538 78.7137 162.159 77.3034C162.627 76.2389 163.284 75.4551 164.141 74.9209Z"/>
</mask>
<path d="M242.555 124.111L240.716 123.32L240.503 123.814L240.567 124.348L242.555 124.111ZM242.838 123.464L244.664 124.287L244.725 124.151L244.766 124.007L242.838 123.464ZM242.578 124.303L244.421 125.086L244.63 124.595L244.567 124.066L242.578 124.303ZM234.487 151.524L234.73 153.512L236.203 153.332L236.46 151.871L234.487 151.524ZM234.394 151.536L234.151 149.548L232.672 149.729L232.42 151.196L234.394 151.536ZM234.281 152.203L236.258 152.527L236.258 152.526L234.281 152.203ZM233.366 158.543L231.38 158.285V158.285L233.366 158.543ZM233.27 159.28L233.517 161.267L235.054 161.076L235.256 159.54L233.27 159.28ZM207.321 162.504L207.561 164.492L207.568 164.492L207.321 162.504ZM187.287 164.929L187.047 162.94L187.047 162.94L187.287 164.929ZM177.69 157.379L179.679 157.14L179.679 157.139L177.69 157.379ZM176.234 145.287L174.495 144.295L174.167 144.869L174.246 145.526L176.234 145.287ZM177.51 135.855L175.648 136.591L175.648 136.592L177.51 135.855ZM174.711 132.631L172.722 132.87L172.841 133.853L173.694 134.356L174.711 132.631ZM165.681 57.6255L167.67 57.3862L167.452 55.5786L165.632 55.6235L165.681 57.6255ZM164.656 56.7436L166.645 56.506L166.645 56.5043L164.656 56.7436ZM163.717 48.9385L161.728 49.1762L161.729 49.1778L163.717 48.9385ZM164.503 47.8381L164.929 49.7949L166.709 49.4075L166.492 47.5989L164.503 47.8381ZM164.018 43.8034L166.006 43.5642L165.789 41.7529L163.965 41.8014L164.018 43.8034ZM162.993 42.9215L164.982 42.6838L164.982 42.6821L162.993 42.9215ZM162.447 38.3847L160.458 38.6224L160.459 38.6241L162.447 38.3847ZM163.234 37.2842L163.659 39.2411L165.44 38.8536L165.222 37.0449L163.234 37.2842ZM162.235 28.9876L164.223 28.7483L164.223 28.7481L162.235 28.9876ZM169.764 19.3643L170.004 21.3525L170.005 21.3524L169.764 19.3643ZM225.813 12.58L226.053 14.5681L226.054 14.5681L225.813 12.58ZM235.41 20.1297L233.422 20.3688L233.422 20.369L235.41 20.1297ZM236.731 31.105L234.743 31.3444L235.033 33.759L237.347 33.0105L236.731 31.105ZM236.918 31.0632L237.156 33.0517L237.157 33.0516L236.918 31.0632ZM238.037 31.9432L236.048 32.181L236.048 32.1826L238.037 31.9432ZM239.18 41.4374L241.168 41.1995L241.168 41.198L239.18 41.4374ZM238.302 42.5592L238.063 40.5709L238.061 40.5712L238.302 42.5592ZM238.111 42.5631L238.265 40.5664L235.831 40.3786L236.123 42.8024L238.111 42.5631ZM241.191 68.1434L243.086 68.7899L243.234 68.3576L243.179 67.9041L241.191 68.1434ZM241.933 93.6888L240.02 94.2812L240.022 94.2881L240.024 94.295L241.933 93.6888ZM274.48 186.082L272.523 186.506L272.553 186.645L272.603 186.779L274.48 186.082ZM275.701 189.319L273.829 190.031L273.829 190.031L275.701 189.319ZM273.113 152.591L271.13 152.307L271.13 152.308L273.113 152.591ZM267.521 112.693L269.44 112.121L269.44 112.12L267.521 112.693ZM267.519 112.686L265.593 113.236L265.596 113.248L265.6 113.259L267.519 112.686ZM267.519 112.686L269.444 112.136L269.441 112.125L269.438 112.114L267.519 112.686ZM263.84 97.1993L261.843 97.3465L261.843 97.3483L263.84 97.1993ZM252.617 61.6519L254.499 60.9668L254.006 59.6126L252.565 59.65L252.617 61.6519ZM247.207 63.8452L248.566 65.3169L248.578 65.3058L248.589 65.2945L247.207 63.8452ZM244.932 91.7619L243.104 92.5801L243.124 92.6235L243.145 92.6659L244.932 91.7619ZM244.085 129.054L242.284 128.179L242.284 128.179L244.085 129.054ZM236.544 159.408L234.558 159.147H234.558L236.544 159.408ZM232.987 162.022V160.02H232.863L232.74 160.035L232.987 162.022ZM188.67 167.531L188.423 165.544L185.276 165.935L186.981 168.608L188.67 167.531ZM200.934 182.751L199.712 184.337L199.712 184.337L200.934 182.751ZM207.794 189.321L209.316 188.02L209.316 188.019L207.794 189.321ZM215.833 200.792L217.532 199.732L217.532 199.732L215.833 200.792ZM217.136 202.863L215.446 203.938L216.036 204.866L217.136 204.866L217.136 202.863ZM280.83 202.861L280.83 204.864L283.711 204.863L282.707 202.163L280.83 202.861ZM276.706 191.954L278.577 191.24L278.576 191.238L276.706 191.954ZM276.704 191.95L274.831 192.66L274.833 192.665L276.704 191.95ZM276.701 191.943L278.574 191.233L278.572 191.229L276.701 191.943ZM170.47 126.12L169.452 127.844L172.956 129.913L172.457 125.874L170.47 126.12ZM166.384 123.708L165.127 125.267L165.241 125.359L165.366 125.433L166.384 123.708ZM168.346 108.944L170.334 108.698L170.185 107.493L169.048 107.068L168.346 108.944ZM164.701 108.333L164.857 110.329L164.869 110.329L164.881 110.327L164.701 108.333ZM161.097 110.387L159.516 109.158L159.515 109.159L161.097 110.387ZM159.972 114.417L157.984 114.665L157.984 114.665L159.972 114.417ZM168.724 134.695L168.733 136.698H168.734L168.724 134.695ZM167.492 134.771L167.739 136.758L167.74 136.758L167.492 134.771ZM175.249 137.714L177.111 136.977L177.111 136.977L175.249 137.714ZM173.059 146.48L174.426 147.944L174.427 147.943L173.059 146.48ZM166.211 147.153L166.997 145.311L166.996 145.311L166.211 147.153ZM162.464 139.126L164.428 139.52L164.428 139.52L162.464 139.126ZM166.722 104.329L167.671 102.565L167.634 102.545L167.596 102.527L166.722 104.329ZM166.634 104.286L167.508 102.484L167.467 102.465L167.425 102.446L166.634 104.286ZM167.85 104.935L166.902 106.699L170.312 108.533L169.837 104.69L167.85 104.935ZM165.958 89.6281L167.946 89.3824L167.766 87.9331L166.332 87.6606L165.958 89.6281ZM162.56 89.4445L162.314 87.457L162.313 87.4571L162.56 89.4445ZM161.199 89.7553L160.54 87.8641L160.539 87.8645L161.199 89.7553ZM158.205 92.6273L160.038 93.4343L160.038 93.4338L158.205 92.6273ZM158.092 96.8116L156.224 97.5349L156.225 97.536L158.092 96.8116ZM165.483 85.7836L164.214 87.3332L168.084 90.5014L167.471 85.538L165.483 85.7836ZM164.141 74.9209L166.128 74.6753L165.743 71.5607L163.08 73.2218L164.141 74.9209ZM162.045 81.4867L160.178 82.2105L160.178 82.2109L162.045 81.4867ZM162.159 77.3034L160.326 76.4963L160.326 76.4965L162.159 77.3034ZM242.555 124.111L244.395 124.903C244.482 124.699 244.551 124.543 244.597 124.438C244.62 124.386 244.637 124.347 244.649 124.322C244.654 124.309 244.658 124.3 244.661 124.294C244.662 124.291 244.663 124.289 244.664 124.288C244.664 124.287 244.664 124.287 244.664 124.286C244.664 124.286 244.664 124.286 244.664 124.286C244.664 124.286 244.664 124.286 244.664 124.286C244.664 124.286 244.664 124.287 244.664 124.287C244.664 124.287 244.664 124.287 244.664 124.287C244.664 124.287 244.664 124.287 242.838 123.464C241.012 122.641 241.012 122.641 241.012 122.642C241.012 122.642 241.012 122.642 241.012 122.642C241.012 122.642 241.012 122.642 241.012 122.642C241.012 122.642 241.012 122.642 241.012 122.642C241.012 122.642 241.012 122.643 241.012 122.643C241.011 122.644 241.011 122.645 241.01 122.646C241.009 122.648 241.008 122.652 241.006 122.656C241.002 122.664 240.997 122.676 240.99 122.691C240.977 122.721 240.957 122.765 240.932 122.823C240.881 122.937 240.808 123.104 240.716 123.32L242.555 124.111ZM242.578 124.303L244.567 124.066L244.544 123.874L242.555 124.111L240.567 124.348L240.589 124.54L242.578 124.303ZM234.487 151.524L236.46 151.871C238.708 139.068 243.215 127.926 244.421 125.086L242.578 124.303L240.735 123.52C239.48 126.474 234.84 137.938 232.515 151.178L234.487 151.524ZM234.394 151.536L234.636 153.524L234.73 153.512L234.487 151.524L234.244 149.536L234.151 149.548L234.394 151.536ZM234.281 152.203L236.258 152.526C236.293 152.31 236.33 152.093 236.367 151.875L234.394 151.536L232.42 151.196C232.381 151.422 232.343 151.65 232.305 151.88L234.281 152.203ZM233.366 158.543L235.352 158.802C235.581 157.042 235.827 155.159 236.258 152.527L234.281 152.203L232.305 151.879C231.863 154.58 231.611 156.518 231.38 158.285L233.366 158.543ZM233.27 159.28L235.256 159.54C235.288 159.295 235.32 159.05 235.352 158.802L233.366 158.543L231.38 158.285C231.348 158.533 231.316 158.776 231.285 159.019L233.27 159.28ZM207.321 162.504L207.568 164.492L233.517 161.267L233.27 159.28L233.023 157.292L207.074 160.517L207.321 162.504ZM187.287 164.929L187.528 166.917L207.561 164.492L207.321 162.504L207.08 160.516L187.047 162.94L187.287 164.929ZM177.69 157.379L175.702 157.618C176.404 163.454 181.695 167.623 187.528 166.917L187.287 164.929L187.047 162.94C183.42 163.38 180.118 160.788 179.679 157.14L177.69 157.379ZM176.234 145.287L174.246 145.526L175.702 157.618L177.69 157.379L179.679 157.139L178.223 145.047L176.234 145.287ZM177.51 135.855L175.648 136.592C176.564 138.905 175.783 142.034 174.495 144.295L176.234 145.287L177.974 146.278C179.516 143.574 180.942 139.084 179.372 135.118L177.51 135.855ZM174.711 132.631L173.694 134.356C174.787 135 175.35 135.838 175.648 136.591L177.51 135.855L179.372 135.118C178.793 133.653 177.69 132.062 175.728 130.906L174.711 132.631ZM165.681 57.6255L163.693 57.8649L172.722 132.87L174.711 132.631L176.699 132.392L167.67 57.3862L165.681 57.6255ZM164.656 56.7436L162.668 56.9813C162.856 58.5538 164.215 59.665 165.731 59.6276L165.681 57.6255L165.632 55.6235C166.124 55.6113 166.581 55.9707 166.645 56.506L164.656 56.7436ZM163.717 48.9385L161.729 49.1778L162.668 56.983L164.656 56.7436L166.645 56.5043L165.705 48.6991L163.717 48.9385ZM164.503 47.8381L164.077 45.8812C162.591 46.2047 161.541 47.6104 161.728 49.1762L163.717 48.9385L165.705 48.7008C165.769 49.2293 165.416 49.689 164.929 49.7949L164.503 47.8381ZM164.018 43.8034L162.03 44.0425L162.515 48.0772L164.503 47.8381L166.492 47.5989L166.006 43.5642L164.018 43.8034ZM162.993 42.9215L161.005 43.1592C161.192 44.7284 162.55 45.8458 164.071 45.8053L164.018 43.8034L163.965 41.8014C164.464 41.7882 164.918 42.1519 164.982 42.6838L162.993 42.9215ZM162.447 38.3847L160.459 38.6241L161.005 43.1609L162.993 42.9215L164.982 42.6821L164.435 38.1453L162.447 38.3847ZM163.234 37.2842L162.808 35.3274C161.321 35.6509 160.271 37.0565 160.458 38.6224L162.447 38.3847L164.436 38.147C164.499 38.6755 164.146 39.1352 163.659 39.2411L163.234 37.2842ZM162.235 28.9876L160.247 29.227L161.245 37.5236L163.234 37.2842L165.222 37.0449L164.223 28.7483L162.235 28.9876ZM169.764 19.3643L169.524 17.3761C163.691 18.0816 159.543 23.3918 160.247 29.2272L162.235 28.9876L164.223 28.7481C163.783 25.098 166.377 21.7912 170.004 21.3525L169.764 19.3643ZM225.813 12.58L225.572 10.5918L169.523 17.3761L169.764 19.3643L170.005 21.3524L226.053 14.5681L225.813 12.58ZM235.41 20.1297L237.398 19.8905C236.696 14.0538 231.405 9.8851 225.572 10.5918L225.813 12.58L226.054 14.5681C229.68 14.1287 232.983 16.7201 233.422 20.3688L235.41 20.1297ZM236.731 31.105L238.719 30.8657L237.398 19.8903L235.41 20.1297L233.422 20.369L234.743 31.3444L236.731 31.105ZM236.918 31.0632L236.68 29.0748C236.47 29.1 236.281 29.1459 236.115 29.1995L236.731 31.105L237.347 33.0105C237.302 33.0253 237.237 33.0421 237.156 33.0517L236.918 31.0632ZM238.037 31.9432L240.025 31.7054C239.828 30.0564 238.327 28.8767 236.679 29.0749L236.918 31.0632L237.157 33.0516C236.607 33.1177 236.114 32.7286 236.048 32.181L238.037 31.9432ZM239.18 41.4374L241.168 41.198L240.025 31.7038L238.037 31.9432L236.048 32.1826L237.191 41.6767L239.18 41.4374ZM238.302 42.5592L238.541 44.5475C240.198 44.3483 241.364 42.8385 241.168 41.1995L239.18 41.4374L237.191 41.6752C237.127 41.1377 237.505 40.638 238.063 40.5709L238.302 42.5592ZM238.111 42.5631L237.957 44.5598C238.144 44.5742 238.341 44.5719 238.544 44.5472L238.302 42.5592L238.061 40.5712C238.136 40.562 238.204 40.5616 238.265 40.5664L238.111 42.5631ZM241.191 68.1434L243.179 67.9041L240.1 42.3237L238.111 42.5631L236.123 42.8024L239.202 68.3828L241.191 68.1434ZM241.933 93.6888L243.846 93.0964C243.258 91.1997 242.291 87.3359 241.869 82.8036C241.445 78.2517 241.587 73.1857 243.086 68.7899L241.191 68.1434L239.295 67.4969C237.54 72.6429 237.431 78.343 237.881 83.175C238.333 88.0266 239.364 92.1646 240.02 94.2812L241.933 93.6888ZM242.838 123.464L244.766 124.007C248.534 110.637 244.966 96.6228 243.841 93.0826L241.933 93.6888L240.024 94.295C241.071 97.5925 244.358 110.688 240.911 122.921L242.838 123.464ZM274.48 186.082L272.603 186.779C272.957 187.733 273.371 188.828 273.829 190.031L275.701 189.319L277.572 188.607C277.116 187.407 276.706 186.324 276.358 185.385L274.48 186.082ZM273.113 152.591L271.13 152.308C269.137 166.282 270.844 178.759 272.523 186.506L274.48 186.082L276.437 185.658C274.821 178.2 273.19 166.227 275.095 152.874L273.113 152.591ZM267.521 112.693L265.601 113.264C269.023 124.756 273.1 138.557 271.13 152.307L273.113 152.591L275.095 152.875C277.21 138.118 272.822 123.479 269.44 112.121L267.521 112.693ZM267.519 112.686L265.6 113.259L265.602 113.265L267.521 112.693L269.44 112.12L269.438 112.113L267.519 112.686ZM267.519 112.686L265.593 113.236L265.593 113.236L267.519 112.686L269.444 112.136L269.444 112.136L267.519 112.686ZM263.84 97.1993L261.843 97.3483C262.175 101.79 263.817 107.271 265.599 113.257L267.519 112.686L269.438 112.114C267.607 105.963 266.129 100.962 265.838 97.0503L263.84 97.1993ZM252.617 61.6519L250.735 62.3371C252.391 66.8863 255.1 74.5278 257.436 81.6358C258.605 85.1912 259.676 88.5972 260.475 91.4091C261.294 94.2916 261.77 96.3595 261.843 97.3465L263.84 97.1993L265.838 97.052C265.73 95.59 265.128 93.1305 264.328 90.3143C263.508 87.4275 262.418 83.9634 261.241 80.3848C258.887 73.2246 256.164 65.5413 254.499 60.9668L252.617 61.6519ZM247.207 63.8452L248.589 65.2945C249.992 63.9572 251.694 63.6792 252.669 63.6539L252.617 61.6519L252.565 59.65C251.062 59.6889 248.224 60.1084 245.825 62.396L247.207 63.8452ZM244.932 91.7619L246.76 90.9437C246.763 90.9501 246.753 90.9272 246.73 90.8626C246.709 90.8016 246.682 90.7192 246.651 90.6132C246.587 90.4007 246.513 90.1206 246.43 89.7758C246.265 89.0872 246.078 88.1803 245.898 87.1125C245.536 84.9751 245.207 82.2438 245.116 79.3897C245.024 76.5247 245.176 73.6077 245.738 71.0685C246.306 68.5026 247.247 66.5335 248.566 65.3169L247.207 63.8452L245.849 62.3735C243.682 64.3738 242.482 67.2485 241.828 70.2024C241.167 73.183 241.015 76.4617 241.112 79.5174C241.21 82.5841 241.562 85.4985 241.949 87.7808C242.142 88.9229 242.346 89.9194 242.535 90.7088C242.711 91.4455 242.906 92.1372 243.104 92.5801L244.932 91.7619ZM244.085 129.054L245.886 129.929C249.72 122.043 250.084 112.645 249.472 105.21C249.164 101.464 248.602 98.1492 248.07 95.6738C247.803 94.4359 247.543 93.3991 247.322 92.6151C247.123 91.909 246.91 91.2358 246.719 90.8579L244.932 91.7619L243.145 92.6659C243.131 92.6379 243.249 92.9292 243.467 93.7011C243.662 94.3951 243.903 95.3498 244.154 96.5155C244.655 98.8475 245.188 101.989 245.48 105.538C246.069 112.693 245.656 121.241 242.284 128.179L244.085 129.054ZM236.544 159.408L238.529 159.668C239.468 152.511 241.177 139.631 245.887 129.929L244.085 129.054L242.284 128.179C237.242 138.565 235.481 152.109 234.558 159.147L236.544 159.408ZM232.987 162.022V164.025C233.9 164.025 235.142 163.914 236.253 163.271C237.492 162.554 238.312 161.33 238.529 159.668L236.544 159.408L234.558 159.147C234.518 159.451 234.444 159.598 234.404 159.66C234.367 159.717 234.323 159.761 234.247 159.805C234.047 159.92 233.655 160.02 232.987 160.02V162.022ZM188.67 167.531L188.917 169.518L233.234 164.01L232.987 162.022L232.74 160.035L188.423 165.544L188.67 167.531ZM200.934 182.751L202.156 181.165C198.236 178.144 193.789 171.833 190.358 166.454L188.67 167.531L186.981 168.608C190.363 173.91 195.153 180.825 199.712 184.337L200.934 182.751ZM207.794 189.321L209.316 188.019C207.272 185.63 204.929 183.301 202.156 181.164L200.934 182.751L199.712 184.337C202.231 186.278 204.377 188.407 206.273 190.623L207.794 189.321ZM215.833 200.792L217.532 199.732C215.238 196.058 212.67 191.941 209.316 188.02L207.794 189.321L206.272 190.623C209.403 194.283 211.824 198.153 214.135 201.853L215.833 200.792ZM217.136 202.863L218.826 201.788C218.4 201.119 217.971 200.436 217.532 199.732L215.833 200.792L214.134 201.853C214.576 202.561 215.012 203.255 215.446 203.938L217.136 202.863ZM280.83 202.861L280.83 200.858L217.136 200.86L217.136 202.863L217.136 204.866L280.83 204.864L280.83 202.861ZM276.706 191.954L274.835 192.668C276.029 195.797 277.439 199.49 278.953 203.559L280.83 202.861L282.707 202.163C281.187 198.075 279.771 194.367 278.577 191.24L276.706 191.954ZM276.704 191.95L274.833 192.665L274.835 192.67L276.706 191.954L278.576 191.238L278.574 191.234L276.704 191.95ZM276.701 191.943L274.829 192.654L274.831 192.66L276.704 191.95L278.576 191.239L278.574 191.233L276.701 191.943ZM275.701 189.319L273.829 190.031C274.142 190.853 274.477 191.731 274.831 192.657L276.701 191.943L278.572 191.229C278.218 190.302 277.884 189.426 277.572 188.607L275.701 189.319ZM170.47 126.12L171.488 124.395L167.402 121.983L166.384 123.708L165.366 125.433L169.452 127.844L170.47 126.12ZM168.346 108.944L166.359 109.189L168.482 126.365L170.47 126.12L172.457 125.874L170.334 108.698L168.346 108.944ZM164.701 108.333L164.881 110.327C165.671 110.256 166.609 110.432 167.645 110.82L168.346 108.944L169.048 107.068C167.699 106.564 166.128 106.194 164.522 106.338L164.701 108.333ZM161.097 110.387L162.678 111.617C163.36 110.74 164.025 110.394 164.857 110.329L164.701 108.333L164.546 106.336C162.428 106.501 160.783 107.528 159.516 109.158L161.097 110.387ZM159.972 114.417L161.959 114.169C161.839 113.211 162.053 112.422 162.679 111.615L161.097 110.387L159.515 109.159C158.255 110.783 157.73 112.629 157.984 114.665L159.972 114.417ZM166.384 123.708L167.64 122.149C167.386 121.944 166.028 120.825 164.683 119.253C163.288 117.623 162.162 115.797 161.959 114.169L159.972 114.417L157.984 114.665C158.339 117.502 160.118 120.08 161.64 121.857C163.211 123.694 164.78 124.988 165.127 125.267L166.384 123.708ZM168.724 134.695L168.716 132.692C168.202 132.695 167.711 132.725 167.244 132.783L167.492 134.771L167.74 136.758C168.037 136.721 168.367 136.699 168.733 136.698L168.724 134.695ZM175.249 137.714L177.111 136.977C175.84 133.762 172.489 132.675 168.715 132.692L168.724 134.695L168.734 136.698C172.021 136.682 173.06 137.623 173.387 138.45L175.249 137.714ZM173.059 146.48L174.427 147.943C175.404 147.03 176.39 145.244 176.984 143.419C177.582 141.581 177.967 139.142 177.111 136.977L175.249 137.714L173.387 138.45C173.738 139.339 173.659 140.693 173.175 142.18C172.687 143.68 171.976 144.752 171.691 145.018L173.059 146.48ZM166.211 147.153L165.425 148.995C167.099 149.71 168.693 150.145 170.265 149.99C171.912 149.827 173.239 149.052 174.426 147.944L173.059 146.48L171.692 145.016C170.929 145.729 170.385 145.953 169.872 146.004C169.286 146.062 168.43 145.923 166.997 145.311L166.211 147.153ZM162.464 139.126L160.501 138.731C160.085 140.803 160.435 142.959 161.278 144.763C162.115 146.556 163.527 148.187 165.426 148.996L166.211 147.153L166.996 145.311C166.219 144.98 165.436 144.202 164.907 143.069C164.384 141.948 164.199 140.66 164.428 139.52L162.464 139.126ZM167.492 134.771L167.245 132.783C164.968 133.066 163.332 133.99 162.224 135.221C161.149 136.416 160.695 137.763 160.501 138.732L162.464 139.126L164.428 139.52C164.532 138.998 164.756 138.395 165.202 137.9C165.615 137.44 166.343 136.932 167.739 136.758L167.492 134.771ZM166.722 104.329L167.596 102.527L167.508 102.484L166.634 104.286L165.76 106.089L165.849 106.131L166.722 104.329ZM167.85 104.935L168.798 103.171L167.671 102.565L166.722 104.329L165.774 106.093L166.902 106.699L167.85 104.935ZM165.958 89.6281L163.971 89.8737L165.862 105.181L167.85 104.935L169.837 104.69L167.946 89.3824L165.958 89.6281ZM162.56 89.4445L162.806 91.432C163.631 91.3299 164.577 91.4042 165.584 91.5955L165.958 89.6281L166.332 87.6606C165.099 87.4265 163.703 87.2851 162.314 87.457L162.56 89.4445ZM161.199 89.7553L161.858 91.6465C162.143 91.5472 162.46 91.475 162.807 91.4318L162.56 89.4445L162.313 87.4571C161.722 87.5305 161.125 87.6604 160.54 87.8641L161.199 89.7553ZM158.205 92.6273L160.038 93.4338C160.476 92.4393 161.059 91.9255 161.859 91.6461L161.199 89.7553L160.539 87.8645C158.591 88.5447 157.213 89.9093 156.372 91.8208L158.205 92.6273ZM158.092 96.8116L159.959 96.0882C159.611 95.1892 159.626 94.371 160.038 93.4343L158.205 92.6273L156.372 91.8204C155.543 93.7043 155.484 95.623 156.224 97.5349L158.092 96.8116ZM166.634 104.286L167.425 102.446C167.471 102.466 165.889 101.765 164.115 100.548C162.272 99.2844 160.589 97.7111 159.959 96.0871L158.092 96.8116L156.225 97.536C157.314 100.343 159.868 102.493 161.85 103.851C163.9 105.257 165.729 106.077 165.843 106.126L166.634 104.286ZM165.483 85.7836L167.471 85.538L166.128 74.6753L164.141 74.9209L162.153 75.1666L163.495 86.0292L165.483 85.7836ZM162.045 81.4867L160.178 82.2109C161.006 84.3442 162.667 86.0661 164.214 87.3332L165.483 85.7836L166.752 84.2341C165.417 83.1409 164.373 81.9509 163.913 80.7626L162.045 81.4867ZM162.159 77.3034L160.326 76.4965C159.496 78.3802 159.437 80.2991 160.178 82.2105L162.045 81.4867L163.913 80.7629C163.565 79.8654 163.579 79.0473 163.992 78.1104L162.159 77.3034ZM164.141 74.9209L163.08 73.2218C161.839 73.9965 160.935 75.1142 160.326 76.4963L162.159 77.3034L163.991 78.1106C164.32 77.3637 164.73 76.9138 165.201 76.62L164.141 74.9209Z" fill="white" mask="url(#path-13-outside-2_1015_45302)"/>
<path d="M230.545 23.3525C230.233 20.7281 227.877 18.8572 225.285 19.1736L171.642 25.7296C169.05 26.0461 167.202 28.4311 167.515 31.0555L182.067 153.109C182.38 155.733 184.735 157.604 187.327 157.288L234.49 151.524C236.776 138.503 241.35 127.199 242.58 124.302L230.545 23.3525Z" fill="white"/>
<path d="M275.7 189.317C275.243 188.116 274.831 187.027 274.48 186.08C272.832 178.478 271.163 166.253 273.112 152.589C275.155 138.335 270.922 124.115 267.52 112.691C265.713 106.619 264.152 101.376 263.84 97.1975C263.479 92.2995 255.938 70.7739 252.616 61.6501C251.378 61.6822 249.107 62.031 247.207 63.8434C240.236 70.2772 244.021 89.7263 244.932 91.7601C245.64 93.1596 251.29 114.229 244.085 129.052C239.209 139.096 237.474 152.308 236.543 159.406C236.256 161.6 234.567 162.021 232.987 162.021L188.669 167.529C192.075 172.87 196.694 179.483 200.934 182.749C203.58 184.788 205.824 187.017 207.794 189.319C211.036 193.11 213.531 197.104 215.833 200.791C216.273 201.497 216.705 202.185 217.135 202.861L280.829 202.859C278.861 197.567 277.068 192.911 275.7 189.317Z" fill="#73371F"/>
<path d="M219.037 34.7263C221.782 34.391 224.282 36.3442 224.62 39.0884L236.502 135.382C236.84 138.126 234.89 140.623 232.145 140.958L192.075 145.853C189.33 146.189 186.83 144.236 186.491 141.491L174.61 45.1989C174.271 42.4546 176.222 39.9582 178.966 39.6229L219.037 34.7263Z" fill="white"/>
<path d="M187.728 156.576C185.157 156.886 182.821 155.049 182.511 152.471L168.08 32.5862C167.77 30.0084 169.602 27.6657 172.173 27.3549L225.375 20.9154C227.946 20.6046 230.282 22.4422 230.592 25.02L242.528 124.176C242.726 123.716 242.839 123.464 242.839 123.464C246.447 110.663 243.019 97.1077 241.934 93.6888C240.691 89.6755 237.937 77.6852 241.192 68.1434L238.112 42.5631C238.175 42.5679 238.239 42.567 238.303 42.5592C238.852 42.4932 239.247 41.9881 239.181 41.4374L238.038 31.9432C237.972 31.3925 237.468 30.9972 236.919 31.0632C236.854 31.071 236.792 31.0856 236.732 31.105L235.411 20.1297C234.84 15.3869 230.543 12.0069 225.814 12.58L169.765 19.3643C165.035 19.9364 161.664 24.2449 162.236 28.9876L163.234 37.2842C162.735 37.393 162.386 37.866 162.448 38.3847L162.994 42.9215C163.056 43.4401 163.508 43.817 164.019 43.8034L164.504 47.8381C164.005 47.9468 163.656 48.4198 163.718 48.9385L164.657 56.7436C164.719 57.2623 165.171 57.6382 165.682 57.6255L174.712 132.631C176.239 133.531 177.072 134.745 177.511 135.855C178.754 138.995 177.651 142.804 176.235 145.287L177.691 157.379C178.262 162.121 182.559 165.502 187.288 164.929L207.322 162.504L233.271 159.28C233.531 157.302 233.785 155.244 234.282 152.203C234.353 151.771 234.428 151.341 234.503 150.913L187.728 156.576Z" fill="#292929"/>
<path d="M166.383 123.709L170.469 126.12L168.345 108.944C167.153 108.499 165.899 108.226 164.7 108.334C163.225 108.448 162.071 109.135 161.096 110.388C160.153 111.603 159.784 112.921 159.971 114.418C160.529 118.883 165.781 123.224 166.383 123.709Z" fill="#73371F"/>
<path d="M168.725 134.695C168.286 134.697 167.875 134.723 167.493 134.771C163.82 135.227 162.764 137.635 162.465 139.126C161.82 142.337 163.536 146.013 166.212 147.153C169.319 148.479 171.11 148.301 173.06 146.48C174.321 145.301 176.457 140.766 175.25 137.714C174.451 135.692 172.256 134.678 168.725 134.695Z" fill="#73371F"/>
<path d="M166.634 104.285L166.722 104.328L167.85 104.934L165.958 89.6271C164.838 89.4144 163.667 89.3066 162.56 89.4435C162.091 89.5018 161.634 89.6028 161.199 89.7543C159.825 90.2341 158.844 91.1733 158.205 92.6264C157.584 94.0366 157.547 95.4052 158.092 96.8106C159.811 101.242 166.566 104.256 166.634 104.285Z" fill="#73371F"/>
<path d="M165.484 85.7826L164.141 74.9199C163.285 75.4541 162.628 76.238 162.16 77.3025C161.539 78.7128 161.502 80.0813 162.046 81.4857C162.69 83.1466 164.043 84.6025 165.484 85.7826Z" fill="#73371F"/>
<path d="M185.371 40.2215L192.25 39.3768C192.725 39.3185 193.157 39.6562 193.216 40.1311L194.06 47.0104C194.119 47.4854 193.781 47.9176 193.306 47.9759L186.427 48.8206C185.952 48.8789 185.52 48.5412 185.461 48.0663L184.617 41.187C184.558 40.7121 184.896 40.2798 185.371 40.2215Z" fill="#292929"/>
<path d="M209.446 37.2644L216.325 36.4198C216.8 36.3614 217.232 36.6992 217.291 37.1741L218.135 44.0534C218.194 44.5283 217.856 44.9606 217.381 45.0189L210.502 45.8635C210.027 45.9219 209.595 45.5841 209.536 45.1092L208.692 38.2299C208.633 37.755 208.971 37.3227 209.446 37.2644Z" fill="#292929"/>
<path d="M188.328 64.2984L195.207 63.4537C195.682 63.3954 196.114 63.7332 196.173 64.2081L197.017 71.0874C197.076 71.5623 196.738 71.9946 196.263 72.0529L189.384 72.8975C188.909 72.9559 188.477 72.6181 188.418 72.1432L187.574 65.2639C187.515 64.789 187.853 64.3567 188.328 64.2984Z" fill="#292929"/>
<path d="M210.807 55.4294C211.282 55.371 211.715 55.7088 211.773 56.1837L212.406 61.3432L219.286 60.4985L218.652 55.339C218.594 54.8641 218.932 54.4318 219.406 54.3735L224.566 53.74C225.041 53.6817 225.473 54.0194 225.531 54.4943L226.165 59.6538C226.223 60.1287 225.886 60.561 225.411 60.6193L220.251 61.2528L221.096 68.1321L226.255 67.4986C226.73 67.4403 227.162 67.778 227.221 68.2529L227.854 73.4124C227.913 73.8873 227.575 74.3196 227.1 74.3779L221.94 75.0114C221.466 75.0697 221.033 74.732 220.975 74.2571L220.341 69.0976L213.462 69.9423L214.096 75.1018C214.154 75.5767 213.816 76.0089 213.341 76.0673L208.182 76.7008C207.707 76.7591 207.275 76.4213 207.216 75.9464L206.583 70.787C206.525 70.312 206.862 69.8798 207.337 69.8215L212.497 69.188L211.652 62.3087L206.493 62.9422C206.018 63.0005 205.585 62.6627 205.527 62.1878L204.894 57.0284C204.835 56.5534 205.173 56.1212 205.648 56.0629L210.807 55.4294Z" fill="#292929"/>
<path d="M197.908 57.0118C199.807 56.7788 201.536 58.1296 201.77 60.0292L203.459 73.7881C203.692 75.6875 202.341 77.4167 200.442 77.6501L186.683 79.3395C184.783 79.5727 183.054 78.2216 182.821 76.3221L181.131 62.5633C180.898 60.6636 182.249 58.9344 184.149 58.7012L197.908 57.0118ZM184.466 61.281C183.991 61.3394 183.653 61.7716 183.711 62.2465L185.4 76.0044C185.459 76.4793 185.891 76.817 186.366 76.7587L200.125 75.0694C200.6 75.011 200.937 74.5787 200.879 74.1038L199.19 60.346C199.132 59.8711 198.699 59.5334 198.224 59.5916L184.466 61.281Z" fill="#292929"/>
<path d="M194.951 32.9349C196.85 32.7018 198.579 34.0527 198.813 35.9523L200.502 49.7111C200.735 51.6105 199.384 53.3398 197.485 53.5732L183.726 55.2625C181.826 55.4958 180.097 54.1447 179.864 52.2452L178.174 38.4863C177.941 36.5867 179.292 34.8575 181.192 34.6243L194.951 32.9349ZM181.508 37.204C181.034 37.2624 180.696 37.6948 180.754 38.1696L182.444 51.9284C182.502 52.4033 182.934 52.741 183.409 52.6828L197.168 50.9934C197.643 50.935 197.981 50.5027 197.922 50.0279L196.233 36.269C196.174 35.7943 195.742 35.4564 195.267 35.5147L181.508 37.204Z" fill="#292929"/>
<path d="M219.029 29.9778C220.929 29.7448 222.658 31.0956 222.892 32.9952L224.581 46.7541C224.814 48.6535 223.463 50.3827 221.564 50.6161L207.805 52.3055C205.905 52.5387 204.176 51.1876 203.943 49.2881L202.253 35.5293C202.02 33.6296 203.371 31.9005 205.271 31.6672L219.029 29.9778ZM205.587 34.247C205.113 34.3054 204.775 34.7376 204.833 35.2125L206.522 48.9714C206.581 49.446 207.013 49.7839 207.488 49.7257L221.247 48.0363C221.721 47.978 222.059 47.5455 222.001 47.0708L220.312 33.312C220.253 32.8371 219.821 32.4994 219.346 32.5576L205.587 34.247Z" fill="#292929"/>
<circle cx="208.278" cy="113.15" r="20.5286" transform="rotate(83.8792 208.278 113.15)" stroke="url(#paint0_linear_1015_45302)" stroke-width="2"/>
<ellipse cx="211.959" cy="138.75" rx="15.196" ry="2.2238" transform="rotate(-7 211.959 138.75)" fill="#A0A09F" fill-opacity="0.15"/>
<mask id="path-32-outside-3_1015_45302" maskUnits="userSpaceOnUse" x="193.905" y="102.934" width="32.2214" height="39.1961" fill="black">
<rect fill="white" x="193.905" y="102.934" width="32.2214" height="39.1961"/>
<path d="M205.044 106.001C205.501 107.942 205.89 109.873 206.216 111.801C206.17 110.139 206.145 108.473 206.144 106.802C207.054 106.811 208.42 107.515 208.423 107.859C208.459 113.594 208.818 114.927 208.818 114.927C209.077 113.112 208.96 112.091 209.093 110.331C209.366 110.052 210.161 109.616 210.936 109.538C210.878 109.227 210.772 108.691 210.711 108.379C210.818 107.663 211.796 107.017 212.908 106.79C213.402 109.17 213.611 110.503 213.983 112.807C213.914 111.52 213.939 110.691 213.993 109.196C214.27 108.513 215.405 108.225 216.313 108.295C216.197 110.917 216.22 112.313 216.423 114.808C216.692 112.748 216.817 112 216.792 110.011C217.585 109.989 218.418 110.112 218.86 110.496C218.944 109.924 218.996 109.625 219.07 109.049C219.112 108.713 220.334 108.328 221.314 108.476C221.24 110.912 221.075 112.612 220.633 115.093L220.626 115.094L220.634 115.094L220.528 115.854L221.46 115.74C221.459 115.785 221.438 120.918 221.045 126.153C220.65 131.411 219.889 136.657 219.889 136.657L218.542 137.943C218.525 137.939 215.431 137.205 211.734 137.659C208.027 138.114 205.382 139.559 205.382 139.559L203.764 138.637C203.764 138.637 201.739 133.676 200.102 128.725C198.471 123.793 197.19 118.762 197.18 118.721L198.25 118.59L197.825 117.895L197.825 117.894C197.172 116.733 196.507 115.843 195.931 114.616C195.863 114.471 196.763 112.666 197.602 112.312C198.188 113.617 198.811 114.878 199.467 116.107C199.014 114.17 198.229 112.24 197.5 110.307C198.345 109.968 199.975 110.247 200.03 110.398C200.916 112.873 201.333 113.633 202.089 116.094C201.731 114.027 201.584 113.34 201.072 111.79C200.967 111.467 202.126 110.359 203.012 110.182C203.504 111.563 203.756 112.415 204.393 114.729C204.053 112.135 203.97 111.52 203.111 107.687C203.038 107.356 204.348 105.965 205.044 106.001Z"/>
</mask>
<path d="M205.044 106.001C205.501 107.942 205.89 109.873 206.216 111.801C206.17 110.139 206.145 108.473 206.144 106.802C207.054 106.811 208.42 107.515 208.423 107.859C208.459 113.594 208.818 114.927 208.818 114.927C209.077 113.112 208.96 112.091 209.093 110.331C209.366 110.052 210.161 109.616 210.936 109.538C210.878 109.227 210.772 108.691 210.711 108.379C210.818 107.663 211.796 107.017 212.908 106.79C213.402 109.17 213.611 110.503 213.983 112.807C213.914 111.52 213.939 110.691 213.993 109.196C214.27 108.513 215.405 108.225 216.313 108.295C216.197 110.917 216.22 112.313 216.423 114.808C216.692 112.748 216.817 112 216.792 110.011C217.585 109.989 218.418 110.112 218.86 110.496C218.944 109.924 218.996 109.625 219.07 109.049C219.112 108.713 220.334 108.328 221.314 108.476C221.24 110.912 221.075 112.612 220.633 115.093L220.626 115.094L220.634 115.094L220.528 115.854L221.46 115.74C221.459 115.785 221.438 120.918 221.045 126.153C220.65 131.411 219.889 136.657 219.889 136.657L218.542 137.943C218.525 137.939 215.431 137.205 211.734 137.659C208.027 138.114 205.382 139.559 205.382 139.559L203.764 138.637C203.764 138.637 201.739 133.676 200.102 128.725C198.471 123.793 197.19 118.762 197.18 118.721L198.25 118.59L197.825 117.895L197.825 117.894C197.172 116.733 196.507 115.843 195.931 114.616C195.863 114.471 196.763 112.666 197.602 112.312C198.188 113.617 198.811 114.878 199.467 116.107C199.014 114.17 198.229 112.24 197.5 110.307C198.345 109.968 199.975 110.247 200.03 110.398C200.916 112.873 201.333 113.633 202.089 116.094C201.731 114.027 201.584 113.34 201.072 111.79C200.967 111.467 202.126 110.359 203.012 110.182C203.504 111.563 203.756 112.415 204.393 114.729C204.053 112.135 203.97 111.52 203.111 107.687C203.038 107.356 204.348 105.965 205.044 106.001Z" fill="white"/>
<path d="M205.044 106.001L205.946 105.789C205.852 105.387 205.504 105.097 205.093 105.076L205.044 106.001ZM206.216 111.801L205.303 111.955C205.384 112.435 205.823 112.77 206.307 112.723C206.791 112.675 207.156 112.261 207.143 111.774L206.216 111.801ZM206.144 106.802L206.153 105.875C205.905 105.873 205.667 105.969 205.491 106.144C205.316 106.318 205.217 106.555 205.217 106.802L206.144 106.802ZM208.423 107.859L209.35 107.853L209.35 107.852L208.423 107.859ZM208.818 114.927L207.923 115.168C208.038 115.593 208.435 115.879 208.874 115.852C209.313 115.826 209.673 115.494 209.735 115.058L208.818 114.927ZM209.093 110.331L208.431 109.683C208.278 109.839 208.186 110.044 208.169 110.261L209.093 110.331ZM210.936 109.538L211.028 110.46C211.286 110.435 211.521 110.302 211.677 110.095C211.832 109.888 211.894 109.625 211.847 109.37L210.936 109.538ZM210.711 108.379L209.794 108.241C209.778 108.346 209.781 108.453 209.801 108.558L210.711 108.379ZM212.908 106.79L213.815 106.601C213.711 106.101 213.222 105.78 212.722 105.882L212.908 106.79ZM213.983 112.807L213.069 112.954C213.147 113.441 213.592 113.78 214.082 113.728C214.572 113.675 214.935 113.249 214.908 112.757L213.983 112.807ZM213.993 109.196L213.135 108.847C213.094 108.947 213.071 109.054 213.067 109.162L213.993 109.196ZM216.313 108.295L217.239 108.336C217.261 107.837 216.883 107.41 216.384 107.371L216.313 108.295ZM216.423 114.808L215.5 114.884C215.538 115.356 215.927 115.723 216.401 115.735C216.874 115.746 217.28 115.398 217.342 114.929L216.423 114.808ZM216.792 110.011L216.766 109.084C216.26 109.098 215.859 109.516 215.865 110.023L216.792 110.011ZM218.86 110.496L218.252 111.196C218.508 111.418 218.864 111.483 219.182 111.365C219.5 111.248 219.728 110.966 219.777 110.631L218.86 110.496ZM219.07 109.049L219.989 109.166L219.989 109.166L219.07 109.049ZM221.314 108.476L222.241 108.504C222.255 108.035 221.917 107.63 221.453 107.56L221.314 108.476ZM220.633 115.093L220.746 116.013C221.15 115.964 221.474 115.656 221.546 115.256L220.633 115.093ZM220.626 115.094L220.513 114.175C220.027 114.234 219.671 114.661 219.701 115.15C219.73 115.638 220.134 116.02 220.624 116.021L220.626 115.094ZM220.634 115.094L221.551 115.222C221.588 114.957 221.509 114.689 221.333 114.487C221.158 114.285 220.903 114.168 220.636 114.168L220.634 115.094ZM220.528 115.854L219.61 115.726C219.57 116.012 219.665 116.299 219.867 116.504C220.069 116.709 220.355 116.809 220.641 116.774L220.528 115.854ZM221.46 115.74L222.386 115.743C222.387 115.477 222.274 115.224 222.075 115.047C221.876 114.87 221.611 114.788 221.347 114.82L221.46 115.74ZM221.045 126.153L221.969 126.223L221.969 126.223L221.045 126.153ZM219.889 136.657L220.529 137.328C220.679 137.185 220.776 136.996 220.806 136.79L219.889 136.657ZM218.542 137.943L218.327 138.844C218.633 138.917 218.954 138.83 219.181 138.613L218.542 137.943ZM211.734 137.659L211.621 136.739L211.621 136.739L211.734 137.659ZM205.382 139.559L204.924 140.364C205.203 140.523 205.545 140.526 205.827 140.372L205.382 139.559ZM203.764 138.637L202.906 138.988C202.985 139.18 203.125 139.34 203.306 139.443L203.764 138.637ZM200.102 128.725L199.222 129.015L199.222 129.015L200.102 128.725ZM197.18 118.721L197.067 117.801C196.803 117.834 196.565 117.978 196.415 118.198C196.265 118.418 196.216 118.691 196.282 118.949L197.18 118.721ZM198.25 118.59L198.363 119.509C198.676 119.471 198.948 119.276 199.085 118.992C199.222 118.708 199.205 118.375 199.04 118.106L198.25 118.59ZM197.825 117.895L196.905 118.008C196.921 118.139 196.966 118.266 197.035 118.379L197.825 117.895ZM197.825 117.894L198.745 117.781C198.73 117.661 198.692 117.545 198.633 117.44L197.825 117.894ZM195.931 114.616L195.092 115.01L195.092 115.01L195.931 114.616ZM197.602 112.312L198.447 111.932C198.24 111.473 197.705 111.262 197.241 111.458L197.602 112.312ZM199.467 116.107L198.649 116.543C198.868 116.954 199.357 117.138 199.793 116.975C200.228 116.811 200.475 116.349 200.369 115.896L199.467 116.107ZM197.5 110.307L197.155 109.448C196.687 109.635 196.455 110.163 196.633 110.634L197.5 110.307ZM200.03 110.398L200.902 110.085L200.901 110.082L200.03 110.398ZM202.089 116.094L201.204 116.366C201.347 116.833 201.83 117.108 202.305 116.995C202.781 116.881 203.086 116.417 203.002 115.935L202.089 116.094ZM201.072 111.79L200.192 112.078L200.192 112.08L201.072 111.79ZM203.012 110.182L203.885 109.871C203.73 109.438 203.282 109.184 202.831 109.274L203.012 110.182ZM204.393 114.729L203.499 114.975C203.629 115.444 204.099 115.734 204.576 115.637C205.054 115.541 205.375 115.091 205.312 114.609L204.393 114.729ZM203.111 107.687L202.207 107.888L202.207 107.89L203.111 107.687ZM205.044 106.001L204.142 106.213C204.595 108.135 204.98 110.047 205.303 111.955L206.216 111.801L207.13 111.646C206.801 109.699 206.408 107.749 205.946 105.789L205.044 106.001ZM206.216 111.801L207.143 111.774C207.096 110.121 207.071 108.463 207.07 106.801L206.144 106.802L205.217 106.802C205.218 108.482 205.243 110.157 205.29 111.827L206.216 111.801ZM206.144 106.802L206.134 107.728C206.4 107.731 206.83 107.85 207.221 108.039C207.409 108.13 207.543 108.215 207.614 108.272C207.651 108.302 207.645 108.304 207.622 108.273C207.612 108.26 207.498 108.113 207.497 107.866L208.423 107.859L209.35 107.852C209.347 107.518 209.19 107.275 209.101 107.157C208.999 107.022 208.879 106.912 208.774 106.827C208.56 106.655 208.294 106.5 208.027 106.37C207.506 106.119 206.797 105.882 206.153 105.875L206.144 106.802ZM208.423 107.859L207.497 107.865C207.515 110.75 207.614 112.544 207.711 113.627C207.76 114.169 207.808 114.536 207.846 114.775C207.866 114.895 207.882 114.984 207.895 115.047C207.902 115.079 207.908 115.104 207.912 115.124C207.915 115.134 207.917 115.143 207.919 115.15C207.92 115.154 207.92 115.157 207.921 115.16C207.922 115.162 207.922 115.163 207.922 115.164C207.923 115.165 207.923 115.166 207.923 115.166C207.923 115.167 207.923 115.167 207.923 115.167C207.923 115.168 207.923 115.168 208.818 114.927C209.713 114.687 209.713 114.687 209.713 114.688C209.713 114.688 209.713 114.688 209.713 114.688C209.713 114.689 209.714 114.69 209.714 114.69C209.714 114.691 209.714 114.692 209.715 114.693C209.715 114.695 209.715 114.696 209.716 114.697C209.716 114.699 209.716 114.699 209.716 114.698C209.715 114.696 209.713 114.687 209.71 114.671C209.703 114.639 209.692 114.578 209.677 114.484C209.646 114.294 209.603 113.969 209.557 113.461C209.466 112.444 209.368 110.703 209.35 107.853L208.423 107.859ZM208.818 114.927L209.735 115.058C209.872 114.103 209.909 113.355 209.929 112.635C209.949 111.912 209.953 111.252 210.017 110.401L209.093 110.331L208.169 110.261C208.101 111.17 208.096 111.901 208.077 112.582C208.057 113.266 208.023 113.937 207.901 114.797L208.818 114.927ZM209.093 110.331L209.756 110.979C209.755 110.98 209.766 110.969 209.791 110.949C209.816 110.929 209.85 110.905 209.893 110.877C209.979 110.821 210.089 110.759 210.218 110.699C210.48 110.577 210.771 110.486 211.028 110.46L210.936 109.538L210.843 108.617C210.326 108.668 209.832 108.835 209.435 109.019C209.054 109.197 208.676 109.432 208.431 109.683L209.093 110.331ZM210.936 109.538L211.847 109.37C211.788 109.052 211.68 108.508 211.62 108.2L210.711 108.379L209.801 108.558C209.864 108.874 209.968 109.402 210.025 109.707L210.936 109.538ZM210.711 108.379L211.627 108.517C211.627 108.519 211.664 108.372 211.966 108.159C212.245 107.963 212.645 107.789 213.093 107.698L212.908 106.79L212.722 105.882C212.059 106.018 211.414 106.281 210.899 106.644C210.408 106.989 209.902 107.523 209.794 108.241L210.711 108.379ZM212.908 106.79L212 106.979C212.49 109.336 212.697 110.65 213.069 112.954L213.983 112.807L214.898 112.659C214.526 110.356 214.314 109.004 213.815 106.601L212.908 106.79ZM213.983 112.807L214.908 112.757C214.842 111.515 214.865 110.721 214.919 109.229L213.993 109.196L213.067 109.162C213.013 110.661 212.987 111.525 213.058 112.856L213.983 112.807ZM213.993 109.196L214.852 109.544C214.842 109.568 214.888 109.453 215.218 109.339C215.517 109.236 215.9 109.192 216.242 109.219L216.313 108.295L216.384 107.371C215.819 107.327 215.18 107.393 214.615 107.587C214.082 107.77 213.422 108.14 213.135 108.847L213.993 109.196ZM216.313 108.295L215.387 108.254C215.27 110.913 215.293 112.347 215.5 114.884L216.423 114.808L217.347 114.733C217.146 112.279 217.124 110.922 217.239 108.336L216.313 108.295ZM216.423 114.808L217.342 114.929C217.611 112.869 217.745 112.062 217.718 109.999L216.792 110.011L215.865 110.023C215.89 111.939 215.774 112.627 215.504 114.688L216.423 114.808ZM216.792 110.011L216.817 110.937C217.163 110.927 217.494 110.951 217.767 111.008C218.055 111.068 218.199 111.15 218.252 111.196L218.86 110.496L219.468 109.797C219.079 109.459 218.586 109.286 218.148 109.194C217.696 109.1 217.214 109.072 216.766 109.084L216.792 110.011ZM218.86 110.496L219.777 110.631C219.858 110.079 219.914 109.752 219.989 109.166L219.07 109.049L218.15 108.932C218.079 109.497 218.03 109.769 217.943 110.362L218.86 110.496ZM219.07 109.049L219.989 109.166C219.961 109.385 219.852 109.515 219.817 109.552C219.777 109.595 219.754 109.605 219.775 109.592C219.817 109.567 219.92 109.52 220.087 109.474C220.422 109.381 220.839 109.341 221.176 109.392L221.314 108.476L221.453 107.56C220.809 107.463 220.125 107.541 219.593 107.688C219.327 107.761 219.055 107.864 218.826 108.001C218.711 108.069 218.578 108.164 218.459 108.291C218.345 108.414 218.189 108.629 218.15 108.932L219.07 109.049ZM221.314 108.476L220.388 108.448C220.315 110.841 220.155 112.497 219.721 114.931L220.633 115.093L221.546 115.256C221.996 112.728 222.165 110.983 222.241 108.504L221.314 108.476ZM220.633 115.093L220.52 114.174L220.513 114.175L220.626 115.094L220.739 116.014L220.746 116.013L220.633 115.093ZM220.626 115.094L220.624 116.021L220.631 116.021L220.634 115.094L220.636 114.168L220.628 114.168L220.626 115.094ZM220.634 115.094L219.716 114.967L219.61 115.726L220.528 115.854L221.446 115.982L221.551 115.222L220.634 115.094ZM220.528 115.854L220.641 116.774L221.572 116.659L221.46 115.74L221.347 114.82L220.415 114.935L220.528 115.854ZM221.46 115.74L220.533 115.736C220.533 115.776 220.511 120.883 220.121 126.084L221.045 126.153L221.969 126.223C222.364 120.954 222.386 115.795 222.386 115.743L221.46 115.74ZM221.045 126.153L220.121 126.084C219.925 128.693 219.638 131.304 219.399 133.265C219.28 134.245 219.173 135.061 219.096 135.632C219.057 135.917 219.026 136.141 219.005 136.293C218.994 136.369 218.986 136.427 218.98 136.466C218.978 136.486 218.976 136.5 218.974 136.51C218.973 136.515 218.973 136.519 218.973 136.521C218.972 136.522 218.972 136.523 218.972 136.524C218.972 136.524 218.972 136.524 218.972 136.524C218.972 136.524 218.972 136.524 218.972 136.524C218.972 136.524 218.972 136.524 219.889 136.657C220.806 136.79 220.806 136.79 220.806 136.79C220.806 136.79 220.806 136.79 220.806 136.79C220.806 136.79 220.806 136.79 220.806 136.789C220.806 136.788 220.806 136.787 220.807 136.786C220.807 136.783 220.808 136.779 220.808 136.774C220.81 136.764 220.812 136.748 220.815 136.728C220.821 136.688 220.829 136.628 220.84 136.55C220.862 136.395 220.893 136.168 220.932 135.88C221.01 135.302 221.118 134.478 221.239 133.489C221.479 131.512 221.77 128.871 221.969 126.223L221.045 126.153ZM219.889 136.657L219.249 135.987L217.902 137.273L218.542 137.943L219.181 138.613L220.529 137.328L219.889 136.657ZM218.542 137.943L218.756 137.042C218.697 137.028 215.478 136.266 211.621 136.739L211.734 137.659L211.847 138.578C215.384 138.144 218.353 138.851 218.327 138.844L218.542 137.943ZM211.734 137.659L211.621 136.739C209.679 136.977 208.02 137.474 206.845 137.911C206.257 138.13 205.788 138.334 205.462 138.486C205.299 138.562 205.172 138.625 205.084 138.67C205.04 138.692 205.005 138.71 204.981 138.723C204.969 138.729 204.959 138.734 204.952 138.738C204.948 138.74 204.945 138.742 204.943 138.743C204.942 138.744 204.941 138.744 204.94 138.745C204.94 138.745 204.939 138.745 204.939 138.745C204.939 138.745 204.939 138.745 204.939 138.745C204.938 138.746 204.938 138.746 205.382 139.559C205.827 140.372 205.827 140.372 205.826 140.372C205.826 140.372 205.826 140.372 205.826 140.372C205.826 140.372 205.826 140.372 205.826 140.372C205.826 140.373 205.826 140.373 205.826 140.372C205.826 140.372 205.827 140.372 205.828 140.371C205.832 140.369 205.837 140.366 205.845 140.362C205.861 140.354 205.887 140.34 205.923 140.322C205.994 140.286 206.102 140.232 206.245 140.166C206.531 140.032 206.955 139.847 207.491 139.648C208.566 139.248 210.083 138.795 211.847 138.578L211.734 137.659ZM205.382 139.559L205.841 138.754L204.222 137.832L203.764 138.637L203.306 139.443L204.924 140.364L205.382 139.559ZM203.764 138.637C204.622 138.287 204.622 138.287 204.622 138.287C204.622 138.287 204.622 138.287 204.622 138.287C204.622 138.287 204.622 138.287 204.622 138.286C204.621 138.286 204.621 138.285 204.62 138.284C204.62 138.282 204.618 138.278 204.616 138.274C204.613 138.264 204.607 138.25 204.599 138.232C204.584 138.195 204.562 138.14 204.533 138.068C204.475 137.924 204.39 137.712 204.283 137.443C204.069 136.903 203.766 136.132 203.412 135.207C202.704 133.355 201.794 130.891 200.981 128.434L200.102 128.725L199.222 129.015C200.046 131.51 200.967 134.002 201.681 135.869C202.038 136.803 202.344 137.581 202.561 138.127C202.669 138.4 202.755 138.614 202.814 138.761C202.844 138.834 202.867 138.891 202.882 138.929C202.89 138.948 202.896 138.962 202.9 138.972C202.902 138.977 202.903 138.981 202.904 138.983C202.905 138.985 202.905 138.986 202.906 138.986C202.906 138.987 202.906 138.987 202.906 138.987C202.906 138.987 202.906 138.987 202.906 138.987C202.906 138.988 202.906 138.988 203.764 138.637ZM200.102 128.725L200.981 128.434C199.362 123.535 198.087 118.529 198.078 118.493L197.18 118.721L196.282 118.949C196.293 118.995 197.581 124.052 199.222 129.015L200.102 128.725ZM197.18 118.721L197.293 119.641L198.363 119.509L198.25 118.59L198.137 117.67L197.067 117.801L197.18 118.721ZM198.25 118.59L199.04 118.106L198.615 117.411L197.825 117.895L197.035 118.379L197.46 119.073L198.25 118.59ZM197.825 117.895L198.745 117.782L198.745 117.781L197.825 117.894L196.905 118.007L196.905 118.008L197.825 117.895ZM197.825 117.894L198.633 117.44C198.294 116.839 197.946 116.296 197.639 115.795C197.325 115.284 197.036 114.789 196.77 114.222L195.931 114.616L195.092 115.01C195.402 115.67 195.733 116.233 196.059 116.765C196.391 117.305 196.702 117.788 197.017 118.348L197.825 117.894ZM195.931 114.616L196.77 114.223C196.842 114.377 196.851 114.512 196.853 114.566C196.856 114.631 196.85 114.679 196.846 114.702C196.84 114.748 196.831 114.773 196.834 114.764C196.838 114.75 196.854 114.705 196.89 114.625C196.959 114.472 197.071 114.258 197.212 114.034C197.353 113.808 197.509 113.593 197.663 113.424C197.828 113.242 197.934 113.177 197.962 113.165L197.602 112.312L197.241 111.458C196.85 111.623 196.528 111.917 196.292 112.177C196.042 112.451 195.821 112.763 195.641 113.051C195.46 113.34 195.307 113.627 195.2 113.864C195.148 113.98 195.099 114.102 195.063 114.217C195.046 114.272 195.025 114.35 195.012 114.438C195.006 114.483 194.998 114.55 195.001 114.63C195.004 114.699 195.015 114.846 195.092 115.01L195.931 114.616ZM197.602 112.312L196.756 112.691C197.352 114.017 197.985 115.297 198.649 116.543L199.467 116.107L200.284 115.671C199.638 114.459 199.024 113.216 198.447 111.932L197.602 112.312ZM199.467 116.107L200.369 115.896C199.898 113.884 199.082 111.877 198.367 109.98L197.5 110.307L196.633 110.634C197.375 112.603 198.129 114.457 198.564 116.318L199.467 116.107ZM197.5 110.307L197.846 111.167C197.933 111.132 198.087 111.097 198.309 111.081C198.523 111.066 198.757 111.072 198.979 111.092C199.203 111.112 199.392 111.144 199.512 111.173C199.576 111.188 199.596 111.197 199.584 111.192C199.581 111.191 199.539 111.174 199.483 111.136C199.46 111.12 199.259 110.991 199.158 110.714L200.03 110.398L200.901 110.082C200.793 109.785 200.574 109.637 200.52 109.601C200.434 109.542 200.35 109.504 200.295 109.481C200.181 109.434 200.058 109.398 199.948 109.372C199.721 109.317 199.439 109.272 199.143 109.246C198.59 109.197 197.788 109.193 197.155 109.448L197.5 110.307ZM200.03 110.398L199.157 110.71C200.076 113.278 200.452 113.919 201.204 116.366L202.089 116.094L202.975 115.821C202.215 113.347 201.755 112.468 200.902 110.085L200.03 110.398ZM202.089 116.094L203.002 115.935C202.64 113.846 202.484 113.109 201.952 111.5L201.072 111.79L200.192 112.08C200.684 113.57 200.822 114.209 201.177 116.252L202.089 116.094ZM201.072 111.79L201.953 111.502C202.037 111.759 201.961 111.95 201.956 111.964C201.941 112.002 201.934 112.003 201.963 111.963C202.016 111.887 202.124 111.766 202.281 111.628C202.617 111.334 202.982 111.133 203.193 111.091L203.012 110.182L202.831 109.274C202.156 109.408 201.498 109.85 201.06 110.235C200.83 110.436 200.612 110.664 200.45 110.892C200.371 111.004 200.284 111.146 200.223 111.307C200.171 111.444 200.081 111.74 200.192 112.078L201.072 111.79ZM203.012 110.182L202.139 110.493C202.619 111.841 202.864 112.666 203.499 114.975L204.393 114.729L205.286 114.483C204.648 112.163 204.388 111.285 203.885 109.871L203.012 110.182ZM204.393 114.729L205.312 114.609C204.968 111.985 204.88 111.344 204.016 107.485L203.111 107.687L202.207 107.89C203.06 111.697 203.138 112.284 203.474 114.849L204.393 114.729ZM203.111 107.687L204.016 107.487C204.049 107.634 204.031 107.749 204.022 107.797C204.011 107.85 203.997 107.882 203.995 107.886C203.992 107.894 204.002 107.869 204.044 107.81C204.124 107.695 204.259 107.538 204.427 107.378C204.595 107.219 204.767 107.085 204.912 106.999C204.983 106.956 205.033 106.935 205.06 106.925C205.091 106.915 205.064 106.93 204.996 106.926L205.044 106.001L205.093 105.076C204.638 105.052 204.228 105.25 203.965 105.406C203.67 105.581 203.389 105.809 203.151 106.034C202.914 106.26 202.692 106.51 202.525 106.748C202.443 106.865 202.358 107.003 202.294 107.15C202.249 107.255 202.131 107.545 202.207 107.888L203.111 107.687Z" fill="white" mask="url(#path-32-outside-3_1015_45302)"/>
<path fill-rule="evenodd" clip-rule="evenodd" d="M197.176 118.72L200.119 118.359C200.119 118.359 203.409 125.05 210.082 124.231C216.754 123.411 218.513 116.101 218.513 116.101L221.456 115.739C221.456 115.739 221.436 120.894 221.041 126.152C220.646 131.411 219.885 136.657 219.885 136.657L218.538 137.942C218.538 137.942 215.437 137.203 211.73 137.658C208.023 138.113 205.379 139.558 205.379 139.558L203.761 138.637C203.761 138.637 201.735 133.676 200.098 128.724C198.461 123.772 197.176 118.72 197.176 118.72Z" fill="#DB0007"/>
<path fill-rule="evenodd" clip-rule="evenodd" d="M212.223 126.208C211.394 126.31 210.785 127.465 210.506 129.189C209.818 127.584 208.948 126.61 208.119 126.712C206.662 126.891 205.915 130.577 206.451 134.945L207.624 134.801C207.126 130.745 207.379 127.377 208.188 127.277C208.998 127.178 210.027 130.133 210.486 133.877L211.659 133.733C211.199 129.989 211.483 126.873 212.292 126.773C213.102 126.674 214.162 129.881 214.66 133.937L215.832 133.794C215.296 129.426 213.68 126.029 212.223 126.208Z" fill="#FFBC0D"/>
<path fill-rule="evenodd" clip-rule="evenodd" d="M200.764 117.533C200.764 117.533 204.013 124.229 210.083 123.484C216.153 122.738 217.686 115.455 217.686 115.455C217.686 115.455 219.342 115.252 220.629 115.094C221.071 112.612 221.236 110.912 221.31 108.475C220.329 108.327 219.108 108.712 219.065 109.049C218.992 109.624 218.94 109.923 218.856 110.496C218.414 110.112 217.581 109.989 216.788 110.011C216.814 112.001 216.688 112.748 216.419 114.808C216.215 112.313 216.193 110.918 216.309 108.295C215.401 108.225 214.266 108.513 213.989 109.196C213.935 110.691 213.91 111.52 213.979 112.807C213.607 110.503 213.398 109.17 212.904 106.79C211.792 107.017 210.814 107.663 210.706 108.379C210.767 108.691 210.874 109.227 210.931 109.539C210.157 109.616 209.362 110.051 209.089 110.331C208.956 112.09 209.073 113.112 208.814 114.927C208.814 114.927 208.455 113.594 208.419 107.859C208.417 107.515 207.05 106.811 206.139 106.802C206.14 108.473 206.166 110.138 206.213 111.8C205.886 109.872 205.497 107.942 205.04 106C204.344 105.964 203.033 107.356 203.107 107.687C203.966 111.521 204.048 112.134 204.388 114.729C203.751 112.415 203.5 111.563 203.008 110.182C202.122 110.358 200.962 111.468 201.069 111.79C201.58 113.34 201.727 114.027 202.085 116.093C201.329 113.633 200.911 112.873 200.025 110.398C199.971 110.247 198.341 109.967 197.496 110.307C198.225 112.239 199.01 114.169 199.463 116.107C198.807 114.877 198.184 113.617 197.598 112.312C196.759 112.666 195.859 114.471 195.927 114.616C196.503 115.843 197.168 116.733 197.821 117.894L200.764 117.533Z" fill="#FFBC0D"/>
<circle cx="222.195" cy="95.0269" r="8.44596" transform="rotate(-7 222.195 95.0269)" fill="#FFBC0D"/>
<path d="M219.782 94.4122L219.593 92.8698C219.993 92.7449 220.37 92.5814 220.724 92.3792C221.084 92.176 221.4 91.9104 221.67 91.5822L223.134 91.4025L224.031 98.7124L222.086 98.9512L221.45 93.765C221.179 93.904 220.903 94.0287 220.622 94.1389C220.341 94.2491 220.06 94.3402 219.782 94.4122Z" fill="black"/>
<defs>
<linearGradient id="paint0_linear_1015_45302" x1="230.054" y1="91.7429" x2="186.997" y2="91.7429" gradientUnits="userSpaceOnUse">
<stop offset="0.000616698" stop-color="#910063"/>
<stop offset="0.0362" stop-color="#990059"/>
<stop offset="0.1727" stop-color="#B60035"/>
<stop offset="0.3012" stop-color="#CA001C"/>
<stop offset="0.4172" stop-color="#D7000C"/>
<stop offset="0.5101" stop-color="#DB0007"/>
<stop offset="1" stop-color="#E8720A"/>
</linearGradient>
</defs>
</svg>
