<svg width="375" height="225" viewBox="0 0 375 225" fill="none" xmlns="http://www.w3.org/2000/svg">
<ellipse cx="226.436" cy="205.526" rx="55.12" ry="5.36222" fill="#A0A09F" fill-opacity="0.15"/>
<path fill-rule="evenodd" clip-rule="evenodd" d="M199.582 122.271V150.225C199.582 150.997 200.215 151.623 200.995 151.623H220.782C221.562 151.623 222.195 150.997 222.195 150.225V122.271L219.934 123.657L217.672 122.271L215.411 123.657L213.15 122.271L210.888 123.657L208.627 122.271L206.366 123.657L204.105 122.271L201.843 123.657L199.582 122.271Z" fill="#C2945C"/>
<path fill-rule="evenodd" clip-rule="evenodd" d="M199.582 122.271V150.225C199.582 150.997 200.215 151.623 200.995 151.623H220.782C221.562 151.623 222.195 150.997 222.195 150.225V122.271L219.934 123.657L217.672 122.271L215.411 123.657L213.15 122.271L210.888 123.657L208.627 122.271L206.366 123.657L204.105 122.271L201.843 123.657L199.582 122.271Z" fill="#C2945C"/>
<path fill-rule="evenodd" clip-rule="evenodd" d="M222.195 145.979L222.195 150.238C222.195 151.003 221.562 151.623 220.782 151.623H200.996C200.216 151.623 199.582 151.003 199.582 150.238L199.582 145.979H222.195Z" fill="#DB0007"/>
<path fill-rule="evenodd" clip-rule="evenodd" d="M219.361 130.174C220.378 130.174 221.339 130.882 222.194 132.144L222.194 138.563C221.543 134.297 220.516 131.544 219.361 131.544C217.394 131.544 215.798 138.91 215.798 147.995H212.948C212.948 138.91 211.353 131.544 209.385 131.544C207.419 131.544 205.823 139.525 205.823 149.365H202.973C202.973 138.766 205.845 130.174 209.385 130.174C211.4 130.174 213.197 132.757 214.373 136.794C215.549 132.757 217.347 130.174 219.361 130.174Z" fill="#FFBC0D"/>
<path fill-rule="evenodd" clip-rule="evenodd" d="M199.582 122.271V150.225C199.582 150.997 200.215 151.623 200.995 151.623H220.782C221.562 151.623 222.195 150.997 222.195 150.225V122.271L219.934 123.657L217.672 122.271L215.411 123.657L213.15 122.271L210.888 123.657L208.627 122.271L206.366 123.657L204.105 122.271L201.843 123.657L199.582 122.271Z" fill="#C2945C"/>
<path fill-rule="evenodd" clip-rule="evenodd" d="M199.582 122.271V150.225C199.582 150.997 200.215 151.623 200.995 151.623H220.782C221.562 151.623 222.195 150.997 222.195 150.225V122.271L219.934 123.657L217.672 122.271L215.411 123.657L213.15 122.271L210.888 123.657L208.627 122.271L206.366 123.657L204.105 122.271L201.843 123.657L199.582 122.271Z" fill="#C2945C"/>
<path fill-rule="evenodd" clip-rule="evenodd" d="M222.195 145.979L222.195 150.238C222.195 151.003 221.562 151.623 220.782 151.623H200.996C200.216 151.623 199.582 151.003 199.582 150.238L199.582 145.979H222.195Z" fill="#DB0007"/>
<path fill-rule="evenodd" clip-rule="evenodd" d="M219.361 130.174C220.378 130.174 221.339 130.882 222.194 132.144L222.194 138.563C221.543 134.297 220.516 131.544 219.361 131.544C217.394 131.544 215.798 138.91 215.798 147.995H212.948C212.948 138.91 211.353 131.544 209.385 131.544C207.419 131.544 205.823 139.525 205.823 149.365H202.973C202.973 138.766 205.845 130.174 209.385 130.174C211.4 130.174 213.197 132.757 214.373 136.794C215.549 132.757 217.347 130.174 219.361 130.174Z" fill="#FFBC0D"/>
<path d="M241.209 180.41L213.152 180.41V176.46L243.68 176.459C242.716 177.677 241.885 179.001 241.209 180.41Z" fill="#6F6F6F"/>
<path d="M214.81 157.268V171.661C214.81 175.112 215.276 177.953 216.209 180.183C216.295 180.172 216.382 180.166 216.471 180.166L241.419 180.166C240.525 182 239.899 183.978 239.593 186.054L213.947 186.054C212.75 175.576 203.47 167.422 192.198 167.422C184.702 167.422 178.087 171.028 174.145 176.526C175.01 165.752 184.446 157.268 195.959 157.268H214.81Z" fill="#FFBC0D"/>
<path d="M250.23 135.29C255.796 141.806 260.504 147.874 264.352 153.493C267.577 158.203 270.414 162.913 272.863 167.623C273.275 168.416 273.072 169.348 272.426 169.923L272.426 170.763C269.129 168.866 265.266 167.776 261.137 167.776C254.93 167.776 249.325 170.24 245.336 174.201L248.161 164.152L243.706 137.577C243.539 136.586 244.186 135.635 245.204 135.375C245.204 135.375 246.855 134.954 247.681 134.743C247.822 134.707 248.231 134.897 248.231 134.897C248.737 134.768 249.136 134.567 249.583 134.788C249.828 134.909 250.049 135.078 250.23 135.29Z" fill="#FFBC0D"/>
<path d="M188.845 158.661V159.349C188.845 162.252 186.419 164.605 183.426 164.605L179.234 164.605C181.77 161.768 185.077 159.597 188.838 158.396C188.843 158.484 188.845 158.572 188.845 158.661Z" fill="#DB0007"/>
<path d="M234.978 134.689H251.249C252.376 134.689 253.289 135.574 253.289 136.665C253.289 137.756 252.376 138.641 251.249 138.641H234.978C233.851 138.641 232.938 137.756 232.938 136.665C232.938 135.574 233.851 134.689 234.978 134.689Z" fill="#292929"/>
<path d="M196.402 150.494H223.119C225.108 150.494 226.721 152.01 226.721 153.881C226.721 155.751 225.108 157.267 223.119 157.267H196.402C194.413 157.267 192.801 155.751 192.801 153.881C192.801 152.01 194.413 150.494 196.402 150.494Z" fill="#292929"/>
<ellipse cx="191.385" cy="188.03" rx="18.3733" ry="17.78" fill="#292929"/>
<ellipse cx="190.82" cy="187.748" rx="7.632" ry="7.33778" fill="#F1F1F1"/>
<path d="M196.499 182.104C198.047 183.471 199.017 185.429 199.017 187.603C199.017 191.736 195.516 195.086 191.197 195.086C188.924 195.086 186.878 194.158 185.449 192.677C186.559 193.21 187.813 193.511 189.139 193.511C193.685 193.511 197.371 189.984 197.371 185.634C197.371 184.378 197.063 183.19 196.516 182.136L196.499 182.104Z" fill="white"/>
<rect x="182.621" y="188.312" width="20.9173" height="2.25777" fill="#292929" fill-opacity="0.1"/>
<path d="M192.232 169.121C203.159 169.121 212.019 177.713 212.019 188.312H172.445C172.445 177.713 181.305 169.121 192.232 169.121Z" fill="#FFBC0D"/>
<ellipse cx="260.92" cy="188.03" rx="18.3733" ry="17.78" fill="#292929"/>
<ellipse cx="260.355" cy="187.748" rx="7.632" ry="7.33778" fill="#F1F1F1"/>
<path d="M266.034 182.104C267.583 183.471 268.552 185.429 268.552 187.603C268.552 191.736 265.051 195.086 260.732 195.086C258.459 195.086 256.413 194.158 254.984 192.677C256.094 193.21 257.348 193.511 258.674 193.511C263.221 193.511 266.906 189.984 266.906 185.634C266.906 184.378 266.598 183.19 266.051 182.136L266.034 182.104Z" fill="white"/>
<rect x="251.594" y="188.312" width="20.9173" height="2.25777" fill="#292929" fill-opacity="0.1"/>
<path d="M261.205 170.25C271.91 170.25 280.631 178.529 280.991 188.877H241.418C241.778 178.529 250.499 170.25 261.205 170.25Z" fill="#FFBC0D"/>
<path d="M192.468 31.6016V48.2962H159.23L159.234 31.6016H192.468Z" fill="#FFBC0D"/>
<path d="M112.524 45.8229H39.7031V31.6016H112.571L112.524 45.8229Z" fill="#FFBC0D"/>
<path d="M112.571 32.8398L112.552 38.4047H39.7031V32.8398H112.571Z" fill="black" fill-opacity="0.1"/>
<path d="M192.468 32.8398V38.4047H159.23L159.232 32.8398H192.468Z" fill="black" fill-opacity="0.1"/>
<path d="M159.23 48.2969H173.932V97.1442H159.23V48.2969Z" fill="#F9F9F9"/>
<path d="M174.57 48.2969H192.468V97.1442H174.57V48.2969Z" fill="#F9F9F9"/>
<path d="M112.568 26.6562L112.547 32.8388L37.6547 32.8395C37.0191 32.8395 36.5039 32.3412 36.5039 31.7266V27.7697C36.5039 27.1551 37.0191 26.6569 37.6547 26.6569L112.568 26.6562Z" fill="#FFBC0D"/>
<path d="M193.883 26.6569C194.514 26.6569 195.025 27.1551 195.025 27.7697V31.7266C195.025 32.3412 194.514 32.8395 193.883 32.8395L159.23 32.8388L159.232 26.6562L193.883 26.6569Z" fill="#FFBC0D"/>
<path d="M157.312 18L157.294 97.145H115.169L115.125 18L157.312 18Z" fill="#F1F1F1"/>
<path d="M28.7037 48.2969H146.574C147.208 48.2969 147.723 48.7952 147.723 49.4099V58.19H27.5547V49.4099C27.5547 48.7952 28.0691 48.2969 28.7037 48.2969Z" fill="#6F6F6F"/>
<path d="M115.125 58.1914H147.724V97.1456H115.125V58.1914Z" fill="#D8D8D8"/>
<path d="M60.1562 58.1914H78.0536V97.1456H60.1562V58.1914Z" fill="#F9F9F9"/>
<path d="M78.6914 58.1914H96.5888V97.1456H78.6914V58.1914Z" fill="#F9F9F9"/>
<path d="M97.2305 58.1914H115.128V97.1456H97.2305V58.1914Z" fill="#F9F9F9"/>
<path d="M129.828 66.8477H147.726V97.1454H129.828V66.8477Z" fill="#F9F9F9"/>
<path d="M27.5547 94.0547H60.1535V97.7646H27.5547V94.0547Z" fill="#A5835B"/>
<path d="M27.5547 90.3438H60.1535V94.0537H27.5547V90.3438Z" fill="#C2945C"/>
<path d="M27.5547 87.25H60.1535V90.9599H27.5547V87.25Z" fill="#A5835B"/>
<path d="M27.5547 84.1602H60.1535V87.8701H27.5547V84.1602Z" fill="#C2945C"/>
<path d="M27.5547 81.0703H60.1535V84.7802H27.5547V81.0703Z" fill="#A5835B"/>
<path d="M27.5547 77.3594H60.1535V81.0693H27.5547V77.3594Z" fill="#C2945C"/>
<path d="M27.5547 74.2656H60.1535V77.9755H27.5547V74.2656Z" fill="#A5835B"/>
<path d="M27.5547 71.1758H60.1535V74.8857H27.5547V71.1758Z" fill="#C2945C"/>
<path d="M27.5547 68.082H60.1535V71.792H27.5547V68.082Z" fill="#A5835B"/>
<path d="M27.5547 64.375H60.1535V68.0849H27.5547V64.375Z" fill="#C2945C"/>
<path d="M27.5547 61.2812H60.1535V64.9912H27.5547V61.2812Z" fill="#A5835B"/>
<path d="M27.5547 58.1914H60.1535V61.9013H27.5547V58.1914Z" fill="#C2945C"/>
<path d="M77.4141 58.1914H79.9708V97.1456H77.4141V58.1914Z" fill="#D8D8D8"/>
<path d="M173.293 48.2969H175.85V97.1442H173.293V48.2969Z" fill="#D8D8D8"/>
<path d="M189.91 48.2969H192.467V97.1442H189.91V48.2969Z" fill="#D8D8D8"/>
<path d="M95.9492 58.1914H98.506V97.1456H95.9492V58.1914Z" fill="#D8D8D8"/>
<path d="M129.828 66.8477H147.726V70.5576H129.828V66.8477Z" fill="#292929" fill-opacity="0.05"/>
<path d="M115.125 58.1914H147.724V60.0464H115.125V58.1914Z" fill="#292929" fill-opacity="0.1"/>
<path d="M95.9492 58.1914H98.506V61.9013H95.9492V58.1914Z" fill="#292929" fill-opacity="0.1"/>
<path d="M77.4141 58.1914H79.9708V61.9013H77.4141V58.1914Z" fill="#292929" fill-opacity="0.1"/>
<path d="M60.1562 58.1914H77.4144V61.283H60.1562V58.1914Z" fill="#292929" fill-opacity="0.05"/>
<path d="M79.9727 58.1914H95.9525V61.283H79.9727V58.1914Z" fill="#292929" fill-opacity="0.05"/>
<path d="M98.5078 58.1914H115.127V61.283H98.5078V58.1914Z" fill="#292929" fill-opacity="0.05"/>
<path fill-rule="evenodd" clip-rule="evenodd" d="M141.254 25.5971C143.239 25.5971 144.848 33.8231 144.848 43.9699H147.726C147.726 33.0417 144.828 24.1836 141.254 24.1836C139.22 24.1836 137.406 26.8464 136.22 31.0092C135.034 26.8464 133.22 24.1836 131.187 24.1836C127.614 24.1836 124.715 33.0417 124.715 43.9699H127.592C127.592 33.8231 129.202 25.5971 131.187 25.5971C133.172 25.5971 134.782 33.1901 134.782 42.5564H137.659C137.659 33.1901 139.268 25.5971 141.254 25.5971Z" fill="#FFBC0D"/>
<path d="M33.9487 98.9987L34.545 98.9952C39.2092 98.9379 42.8974 98.137 42.8974 93.5098C42.8974 88.687 38.8909 84.7773 33.9487 84.7773C29.0065 84.7773 25 88.687 25 93.5098C25 98.3326 29.0065 98.9987 33.9487 98.9987Z" fill="#9CC93A"/>
<path d="M53.7651 98.9987L54.3614 98.9952C59.0256 98.9379 62.7138 98.137 62.7138 93.5098C62.7138 88.687 58.7073 84.7773 53.7651 84.7773C48.8229 84.7773 44.8164 88.687 44.8164 93.5098C44.8164 98.3326 48.8229 98.9987 53.7651 98.9987Z" fill="#9CC93A"/>
<path d="M72.9409 98.9987L73.5371 98.9952C78.2014 98.9379 81.8896 98.137 81.8896 93.5098C81.8896 88.687 77.8831 84.7773 72.9409 84.7773C67.9987 84.7773 63.9922 88.687 63.9922 93.5098C63.9922 98.3326 67.9987 98.9987 72.9409 98.9987Z" fill="#9CC93A"/>
<path fill-rule="evenodd" clip-rule="evenodd" d="M147.47 95.6633C148.236 95.6319 148.882 96.2272 148.913 96.9929C148.944 97.7586 148.349 98.4048 147.583 98.4361C147.473 98.4407 147.39 98.4446 147.334 98.4473L147.273 98.4504L147.259 98.4512L147.256 98.4514C147.256 98.4514 147.256 98.4514 147.256 98.4514C146.491 98.495 145.835 97.9102 145.791 97.1451C145.748 96.38 146.332 95.7244 147.097 95.6807L147.106 95.6802L147.125 95.6792L147.198 95.6755C147.26 95.6724 147.352 95.6681 147.47 95.6633ZM153.209 97.0453C153.25 96.2801 153.904 95.6932 154.669 95.7345C154.903 95.7471 155.14 95.761 155.381 95.7761C156.146 95.8241 156.727 96.4831 156.679 97.2479C156.631 98.0128 155.972 98.5938 155.207 98.5458C154.975 98.5312 154.745 98.5179 154.519 98.5057C153.754 98.4644 153.167 97.8105 153.209 97.0453ZM160.955 97.7213C161.083 96.9657 161.799 96.4571 162.555 96.5852C162.792 96.6255 163.031 96.6675 163.269 96.7111C164.023 96.8491 164.522 97.572 164.384 98.3258C164.246 99.0796 163.523 99.5789 162.77 99.441C162.543 99.3996 162.317 99.3597 162.091 99.3213C161.335 99.1932 160.827 98.4769 160.955 97.7213ZM168.545 99.4143C168.815 98.6971 169.616 98.3345 170.333 98.6045C170.564 98.6917 170.794 98.7814 171.022 98.8739C171.733 99.1618 172.075 99.9709 171.787 100.681C171.499 101.391 170.69 101.734 169.98 101.446C169.774 101.362 169.566 101.281 169.355 101.202C168.638 100.932 168.275 100.131 168.545 99.4143ZM175.479 102.898C176.019 102.354 176.898 102.352 177.441 102.893C177.628 103.079 177.81 103.271 177.985 103.468C178.495 104.04 178.445 104.917 177.873 105.427C177.301 105.937 176.423 105.886 175.914 105.314C175.776 105.16 175.633 105.008 175.483 104.86C174.94 104.319 174.938 103.441 175.479 102.898ZM179.469 109.426C180.235 109.402 180.876 110.004 180.9 110.77C180.904 110.904 180.906 111.039 180.906 111.175C180.906 111.307 180.904 111.437 180.9 111.567C180.874 112.333 180.233 112.934 179.467 112.908C178.701 112.883 178.101 112.242 178.126 111.476C178.129 111.377 178.131 111.276 178.131 111.175C178.131 111.068 178.129 110.962 178.126 110.856C178.102 110.09 178.703 109.45 179.469 109.426ZM177.926 116.634C178.499 117.144 178.55 118.021 178.04 118.593C177.875 118.779 177.704 118.961 177.527 119.139C176.986 119.682 176.108 119.685 175.564 119.144C175.021 118.604 175.018 117.726 175.559 117.182C175.701 117.039 175.837 116.894 175.967 116.748C176.477 116.176 177.354 116.125 177.926 116.634ZM172.17 121.299C172.488 121.996 172.18 122.819 171.483 123.137C171.266 123.236 171.046 123.333 170.823 123.429C170.118 123.731 169.303 123.404 169.001 122.7C168.699 121.996 169.025 121.18 169.729 120.878C169.934 120.79 170.135 120.702 170.332 120.612C171.029 120.294 171.852 120.601 172.17 121.299ZM165.192 123.934C165.382 124.676 164.933 125.432 164.191 125.622C163.969 125.678 163.745 125.734 163.519 125.789C162.774 125.971 162.024 125.514 161.842 124.77C161.661 124.025 162.117 123.275 162.862 123.093C163.078 123.04 163.292 122.987 163.504 122.933C164.247 122.743 165.003 123.191 165.192 123.934ZM157.903 125.535C158.022 126.292 157.504 127.002 156.747 127.121C156.521 127.156 156.294 127.191 156.066 127.226C155.308 127.34 154.601 126.818 154.487 126.06C154.373 125.303 154.894 124.596 155.652 124.482C155.875 124.448 156.096 124.414 156.317 124.379C157.074 124.26 157.784 124.778 157.903 125.535ZM150.504 126.544C150.579 127.307 150.021 127.986 149.259 128.061C149.033 128.083 148.806 128.105 148.578 128.127C147.815 128.198 147.139 127.638 147.067 126.875C146.995 126.112 147.555 125.435 148.318 125.364C148.542 125.343 148.765 125.321 148.987 125.299C149.75 125.224 150.429 125.782 150.504 126.544ZM143.059 127.176C143.104 127.941 142.521 128.598 141.756 128.643C141.53 128.656 141.304 128.67 141.078 128.682C140.313 128.725 139.658 128.14 139.615 127.375C139.571 126.61 140.157 125.955 140.922 125.912C141.146 125.899 141.369 125.886 141.591 125.873C142.356 125.827 143.013 126.411 143.059 127.176ZM135.607 127.548C135.632 128.314 135.031 128.955 134.265 128.979C134.038 128.987 133.81 128.994 133.582 129C132.816 129.023 132.177 128.421 132.154 127.655C132.131 126.889 132.733 126.25 133.499 126.227C133.725 126.22 133.951 126.213 134.176 126.206C134.942 126.181 135.583 126.782 135.607 127.548ZM109.752 127.738C109.758 126.972 110.384 126.356 111.151 126.362L111.835 126.368C112.602 126.375 113.217 127.002 113.21 127.769C113.203 128.535 112.576 129.15 111.809 129.143L111.128 129.137C110.361 129.131 109.745 128.504 109.752 127.738ZM128.14 127.738C128.15 128.504 127.537 129.133 126.771 129.143C126.544 129.146 126.318 129.148 126.091 129.151C125.325 129.159 124.697 128.545 124.688 127.779C124.679 127.013 125.294 126.384 126.06 126.376C126.285 126.373 126.51 126.371 126.735 126.368C127.502 126.358 128.131 126.971 128.14 127.738ZM105.693 127.762C105.71 128.528 105.102 129.163 104.336 129.18C104.11 129.185 103.884 129.191 103.659 129.196C102.893 129.216 102.256 128.611 102.236 127.845C102.217 127.079 102.822 126.442 103.588 126.422C103.816 126.416 104.045 126.411 104.275 126.406C105.041 126.389 105.676 126.996 105.693 127.762ZM117.222 127.793C117.223 127.027 117.845 126.407 118.612 126.408C118.837 126.408 119.063 126.409 119.289 126.409C120.055 126.409 120.676 127.031 120.676 127.797C120.675 128.564 120.053 129.185 119.287 129.184C119.06 129.184 118.833 129.184 118.607 129.183C117.84 129.182 117.22 128.559 117.222 127.793ZM98.1904 128.024C98.2407 128.788 97.6616 129.449 96.897 129.499C96.6696 129.514 96.4431 129.53 96.2173 129.546C95.4529 129.6 94.7894 129.024 94.7355 128.259C94.6816 127.495 95.2576 126.831 96.022 126.777C96.2521 126.761 96.483 126.745 96.7146 126.73C97.4793 126.68 98.14 127.259 98.1904 128.024ZM90.707 128.645C90.8027 129.405 90.2638 130.099 89.5034 130.195C89.2776 130.223 89.0527 130.252 88.8289 130.282C88.0692 130.383 87.3718 129.848 87.2712 129.088C87.1706 128.329 87.705 127.631 88.4647 127.531C88.6945 127.5 88.9254 127.471 89.1571 127.441C89.9175 127.346 90.6114 127.885 90.707 128.645ZM83.2759 129.761C83.4353 130.511 82.9569 131.248 82.2073 131.407C81.9862 131.454 81.7665 131.502 81.5481 131.551C80.8001 131.717 80.0587 131.246 79.8922 130.498C79.7257 129.75 80.1971 129.008 80.9451 128.842C81.1722 128.791 81.4005 128.741 81.6301 128.693C82.3796 128.533 83.1165 129.012 83.2759 129.761ZM75.9857 131.583C76.2385 132.307 75.857 133.098 75.1335 133.351C74.9256 133.424 74.7195 133.497 74.5151 133.572C73.7954 133.835 72.9986 133.465 72.7354 132.745C72.4722 132.026 72.8423 131.229 73.5621 130.966C73.7791 130.886 73.9978 130.808 74.2181 130.731C74.9415 130.478 75.7329 130.86 75.9857 131.583ZM69.047 134.447C69.4384 135.105 69.2216 135.957 68.5627 136.348C68.3763 136.459 68.1924 136.571 68.011 136.685C67.3613 137.091 66.5051 136.894 66.0986 136.244C65.6921 135.595 65.8892 134.738 66.5388 134.332C66.7386 134.207 66.9408 134.084 67.1454 133.962C67.8042 133.571 68.6556 133.788 69.047 134.447ZM62.9662 138.826C63.5406 139.333 63.5948 140.21 63.0875 140.784C62.9464 140.944 62.8085 141.106 62.6737 141.269C62.1862 141.86 61.3116 141.944 60.7204 141.457C60.1292 140.969 60.0452 140.095 60.5328 139.503C60.6877 139.315 60.846 139.13 61.0076 138.947C61.515 138.373 62.3919 138.318 62.9662 138.826ZM314.902 144.117C315.666 144.062 316.33 144.638 316.385 145.402C316.394 145.526 316.402 145.65 316.41 145.773C316.457 146.538 315.875 147.196 315.11 147.243C314.345 147.291 313.687 146.709 313.64 145.944C313.633 145.83 313.625 145.715 313.617 145.6C313.562 144.835 314.138 144.171 314.902 144.117ZM58.7296 144.992C59.4531 145.245 59.835 146.036 59.5825 146.759C59.5126 146.96 59.4457 147.162 59.382 147.367C59.1544 148.099 58.3766 148.507 57.6449 148.28C56.9131 148.052 56.5045 147.274 56.7321 146.543C56.8052 146.308 56.8819 146.075 56.9623 145.845C57.2148 145.121 58.006 144.74 58.7296 144.992ZM314.934 151.377C315.689 151.508 316.195 152.227 316.063 152.982C316.021 153.227 315.975 153.471 315.926 153.712C315.772 154.463 315.039 154.948 314.289 154.795C313.538 154.641 313.053 153.908 313.206 153.158C313.25 152.943 313.291 152.726 313.329 152.506C313.461 151.751 314.179 151.246 314.934 151.377ZM57.0666 152.293C57.8329 152.302 58.4466 152.931 58.4373 153.697C58.436 153.807 58.4353 153.917 58.4353 154.028C58.4353 154.136 58.437 154.242 58.4403 154.348C58.4643 155.114 57.8628 155.755 57.0969 155.779C56.3309 155.803 55.6905 155.201 55.6665 154.435C55.6623 154.3 55.6602 154.165 55.6602 154.028C55.6602 153.906 55.6609 153.785 55.6623 153.664C55.6716 152.898 56.3003 152.284 57.0666 152.293ZM312.848 158.675C313.511 159.059 313.739 159.907 313.355 160.571C313.232 160.784 313.105 160.995 312.975 161.204C312.57 161.854 311.714 162.052 311.064 161.647C310.413 161.241 310.215 160.385 310.62 159.735C310.734 159.553 310.845 159.369 310.952 159.183C311.336 158.519 312.184 158.292 312.848 158.675ZM58.6221 159.857C59.2308 159.392 60.1017 159.508 60.5673 160.117C60.6949 160.283 60.8281 160.449 60.9667 160.613C61.4619 161.197 61.3891 162.073 60.8042 162.568C60.2193 163.063 59.3437 162.991 58.8486 162.406C58.6812 162.208 58.5192 162.007 58.363 161.803C57.8974 161.194 58.0134 160.323 58.6221 159.857ZM308.332 164.75C308.828 165.334 308.757 166.21 308.173 166.706C307.986 166.864 307.797 167.021 307.604 167.176C307.007 167.656 306.134 167.562 305.653 166.965C305.173 166.367 305.267 165.494 305.864 165.014C306.038 164.874 306.208 164.733 306.376 164.591C306.96 164.095 307.835 164.166 308.332 164.75ZM64.2384 165.251C64.6232 164.588 65.4724 164.363 66.1351 164.747C66.328 164.859 66.5238 164.97 66.7224 165.08C67.3936 165.45 67.6378 166.294 67.2679 166.965C66.8979 167.636 66.054 167.88 65.3828 167.51C65.1666 167.391 64.9529 167.27 64.7416 167.147C64.0789 166.763 63.8536 165.913 64.2384 165.251ZM71.2554 168.695C71.5115 167.972 72.3046 167.595 73.0269 167.851C73.244 167.928 73.4625 168.004 73.6824 168.079C74.4077 168.326 74.795 169.115 74.5476 169.84C74.3001 170.565 73.5116 170.953 72.7863 170.705C72.5562 170.627 72.3273 170.547 72.0996 170.466C71.3773 170.21 70.9994 169.417 71.2554 168.695ZM302.15 169.156C302.494 169.841 302.217 170.674 301.532 171.018C301.315 171.127 301.096 171.234 300.875 171.341C300.184 171.672 299.355 171.381 299.024 170.691C298.692 170 298.983 169.171 299.673 168.839C299.881 168.74 300.085 168.639 300.288 168.537C300.973 168.194 301.807 168.471 302.15 169.156ZM78.7306 171.026C78.9089 170.281 79.6576 169.821 80.4029 170C80.63 170.054 80.8577 170.107 81.0857 170.16C81.8323 170.333 82.2976 171.078 82.125 171.825C81.9524 172.571 81.2071 173.037 80.4605 172.864C80.2258 172.81 79.9914 172.755 79.7574 172.699C79.0121 172.52 78.5524 171.772 78.7306 171.026ZM295.195 172.192C295.433 172.921 295.035 173.704 294.306 173.941C294.081 174.015 293.854 174.087 293.626 174.159C292.895 174.389 292.116 173.982 291.886 173.251C291.657 172.52 292.063 171.741 292.794 171.512C293.013 171.443 293.23 171.373 293.446 171.303C294.174 171.065 294.958 171.464 295.195 172.192ZM86.3921 172.659C86.5174 171.903 87.2318 171.392 87.9879 171.517C88.2199 171.555 88.4517 171.593 88.683 171.63C89.4397 171.751 89.9549 172.463 89.8336 173.22C89.7124 173.976 89.0007 174.492 88.244 174.37C88.0079 174.332 87.7712 174.294 87.5342 174.255C86.7782 174.129 86.2668 173.415 86.3921 172.659ZM94.1438 173.8C94.2291 173.038 94.9156 172.49 95.6772 172.575C95.9107 172.601 96.143 172.627 96.3738 172.652C97.1357 172.734 97.6869 173.418 97.6048 174.18C97.5228 174.942 96.8386 175.493 96.0766 175.411C95.842 175.386 95.6059 175.36 95.3684 175.333C94.6069 175.248 94.0586 174.561 94.1438 173.8ZM287.873 174.306C288.04 175.054 287.568 175.796 286.82 175.962C286.597 176.011 286.373 176.06 286.147 176.109C285.398 176.27 284.66 175.793 284.499 175.044C284.338 174.295 284.815 173.557 285.564 173.396C285.783 173.348 286.001 173.301 286.218 173.253C286.966 173.086 287.707 173.558 287.873 174.306ZM101.936 174.557C101.987 173.792 102.649 173.214 103.414 173.266C103.656 173.282 103.893 173.297 104.127 173.312C104.892 173.361 105.472 174.02 105.424 174.785C105.375 175.55 104.716 176.13 103.951 176.082C103.714 176.067 103.473 176.051 103.227 176.035C102.463 175.983 101.884 175.321 101.936 174.557ZM109.776 174.976C109.788 174.21 110.418 173.598 111.184 173.61C111.287 173.611 111.365 173.612 111.417 173.613L111.475 173.613L111.492 173.613L111.51 173.613L111.878 173.625C112.644 173.649 113.246 174.29 113.221 175.056C113.197 175.822 112.556 176.423 111.79 176.399L111.457 176.388L111.452 176.388L111.388 176.388C111.332 176.387 111.25 176.386 111.143 176.384C110.377 176.373 109.765 175.742 109.776 174.976ZM117.399 175.192C117.424 174.426 118.066 173.825 118.832 173.851L119.521 173.874C120.287 173.899 120.887 174.541 120.862 175.307C120.836 176.073 120.194 176.673 119.429 176.647L118.74 176.624C117.974 176.599 117.374 175.957 117.399 175.192ZM124.987 175.447C125.014 174.681 125.656 174.081 126.422 174.108L127.119 174.132C127.885 174.158 128.484 174.801 128.458 175.567C128.431 176.333 127.789 176.932 127.023 176.905L126.326 176.881C125.56 176.855 124.961 176.213 124.987 175.447ZM132.586 175.712C132.613 174.946 133.256 174.347 134.022 174.374L134.705 174.399C135.471 174.426 136.07 175.069 136.043 175.835C136.015 176.601 135.372 177.2 134.606 177.172L133.923 177.148C133.157 177.121 132.558 176.478 132.586 175.712ZM280.43 175.784C280.548 176.542 280.029 177.251 279.271 177.368C279.173 177.383 279.075 177.398 278.976 177.413C278.842 177.434 278.708 177.454 278.573 177.474C277.815 177.588 277.109 177.066 276.995 176.308C276.881 175.55 277.404 174.843 278.162 174.73C278.391 174.695 278.619 174.661 278.847 174.625C279.604 174.508 280.313 175.027 280.43 175.784ZM140.209 175.986C140.237 175.22 140.88 174.622 141.646 174.65L142.337 174.675C143.103 174.703 143.701 175.346 143.673 176.112C143.645 176.878 143.002 177.476 142.236 177.448L141.545 177.423C140.779 177.395 140.181 176.751 140.209 175.986ZM147.786 176.263C147.815 175.498 148.458 174.9 149.224 174.928L149.923 174.954C150.689 174.982 151.287 175.626 151.258 176.392C151.23 177.158 150.586 177.756 149.82 177.727L149.122 177.701C148.356 177.673 147.758 177.029 147.786 176.263ZM155.396 176.546C155.424 175.78 156.068 175.182 156.834 175.21L157.517 175.236C158.283 175.264 158.881 175.908 158.853 176.674C158.824 177.44 158.18 178.038 157.414 178.009L156.731 177.984C155.965 177.955 155.367 177.311 155.396 176.546ZM163.016 176.828C163.044 176.063 163.688 175.465 164.454 175.493L165.144 175.518C165.91 175.547 166.508 176.19 166.479 176.956C166.451 177.722 165.808 178.32 165.042 178.292L164.351 178.266C163.585 178.238 162.987 177.594 163.016 176.828ZM272.864 176.833C272.946 177.595 272.395 178.279 271.633 178.361C271.494 178.376 271.355 178.391 271.216 178.405C271.122 178.415 271.028 178.425 270.935 178.435C270.172 178.514 269.49 177.961 269.411 177.199C269.331 176.436 269.885 175.754 270.647 175.675C270.877 175.651 271.107 175.626 271.335 175.602C272.097 175.52 272.782 176.071 272.864 176.833ZM170.601 177.107C170.628 176.341 171.272 175.743 172.038 175.77L172.735 175.796C173.501 175.823 174.1 176.467 174.072 177.232C174.044 177.998 173.401 178.597 172.635 178.569L171.937 178.544C171.171 178.516 170.573 177.873 170.601 177.107ZM178.188 177.379C178.214 176.613 178.857 176.014 179.623 176.041L180.303 176.064C181.069 176.091 181.668 176.733 181.641 177.499C181.615 178.265 180.972 178.864 180.206 178.838L179.526 178.814C178.76 178.787 178.161 178.145 178.188 177.379ZM265.301 177.56C265.357 178.324 264.783 178.989 264.019 179.045C263.793 179.062 263.566 179.078 263.338 179.095C262.574 179.149 261.91 178.573 261.856 177.809C261.801 177.045 262.377 176.381 263.141 176.326C263.299 176.315 263.456 176.304 263.613 176.292C263.681 176.288 263.748 176.283 263.815 176.278C264.579 176.221 265.244 176.795 265.301 177.56ZM185.819 177.641C185.844 176.875 186.485 176.275 187.251 176.3L187.937 176.323C188.703 176.348 189.304 176.989 189.279 177.755C189.253 178.521 188.612 179.122 187.846 179.097L187.16 179.074C186.394 179.049 185.793 178.407 185.819 177.641ZM193.426 177.887C193.449 177.121 194.089 176.519 194.855 176.542L195.547 176.563C196.313 176.586 196.915 177.226 196.892 177.992C196.869 178.758 196.23 179.36 195.464 179.337L194.771 179.316C194.005 179.293 193.403 178.653 193.426 177.887ZM257.724 178.052C257.761 178.818 257.171 179.468 256.405 179.505C256.177 179.516 255.948 179.527 255.719 179.537C254.954 179.573 254.304 178.981 254.269 178.215C254.234 177.45 254.825 176.801 255.591 176.765C255.819 176.755 256.045 176.744 256.272 176.733C257.037 176.696 257.688 177.287 257.724 178.052ZM201.015 178.11C201.036 177.344 201.673 176.739 202.439 176.76L203.137 176.779C203.903 176.799 204.508 177.437 204.488 178.203C204.467 178.969 203.83 179.573 203.064 179.553L202.365 179.534C201.599 179.514 200.994 178.876 201.015 178.11ZM208.591 178.304C208.608 177.537 209.243 176.93 210.009 176.947L210.713 176.963C211.479 176.98 212.087 177.614 212.07 178.38C212.053 179.147 211.419 179.754 210.653 179.737L209.947 179.722C209.181 179.705 208.574 179.07 208.591 178.304ZM250.129 178.368C250.151 179.134 249.547 179.773 248.781 179.794C248.552 179.801 248.323 179.807 248.093 179.814C247.327 179.834 246.689 179.23 246.668 178.464C246.648 177.698 247.252 177.06 248.018 177.039C248.246 177.033 248.475 177.027 248.702 177.02C249.468 176.999 250.107 177.602 250.129 178.368ZM216.217 178.461C216.23 177.695 216.861 177.084 217.628 177.096L218.306 177.107C219.073 177.12 219.684 177.751 219.672 178.517C219.66 179.283 219.028 179.894 218.262 179.882L217.582 179.871C216.815 179.858 216.205 179.227 216.217 178.461ZM242.524 178.546C242.534 179.312 241.921 179.941 241.155 179.951C240.926 179.955 240.696 179.957 240.466 179.96C239.7 179.969 239.071 179.356 239.062 178.589C239.053 177.823 239.666 177.194 240.433 177.185C240.662 177.182 240.89 177.18 241.118 177.177C241.884 177.166 242.513 177.779 242.524 178.546ZM223.838 178.57C223.845 177.804 224.472 177.188 225.239 177.195L225.921 177.201C226.687 177.207 227.303 177.834 227.296 178.6C227.29 179.366 226.664 179.982 225.897 179.976L225.213 179.97C224.447 179.963 223.831 179.336 223.838 178.57ZM233.527 180.005C233.299 180.005 233.07 180.005 232.84 180.005C232.074 180.005 231.452 179.384 231.452 178.618C231.452 177.852 232.073 177.23 232.84 177.23C233.068 177.23 233.296 177.23 233.524 177.23C234.29 177.229 234.912 177.849 234.913 178.615C234.914 179.382 234.293 180.004 233.527 180.005Z" fill="#FFBC0D"/>
<path fill-rule="evenodd" clip-rule="evenodd" d="M312.754 144.586C333.052 144.586 349.507 141.295 349.507 137.235C349.507 133.176 333.052 129.885 312.754 129.885C292.455 129.885 276 133.176 276 137.235C276 141.295 292.455 144.586 312.754 144.586Z" fill="#A0A09F" fill-opacity="0.15"/>
<path fill-rule="evenodd" clip-rule="evenodd" d="M312.754 137.235C315.381 137.235 349.507 109.669 349.507 74.6455C349.507 54.4067 333.052 38 312.754 38C292.455 38 276 54.4067 276 74.6455C276 109.669 310.126 137.235 312.754 137.235Z" fill="#DB0007"/>
<path fill-rule="evenodd" clip-rule="evenodd" d="M274.5 74.6455C274.5 53.5742 291.631 36.5 312.754 36.5C333.876 36.5 351.007 53.5742 351.007 74.6455C351.007 92.6338 342.255 108.604 333.295 120.001C328.804 125.714 324.227 130.32 320.594 133.508C318.779 135.101 317.185 136.352 315.942 137.214C315.324 137.644 314.77 137.992 314.306 138.24C314.074 138.363 313.842 138.475 313.618 138.559C313.426 138.631 313.109 138.735 312.754 138.735C312.398 138.735 312.081 138.631 311.889 138.559C311.666 138.475 311.433 138.363 311.202 138.24C310.737 137.992 310.183 137.644 309.565 137.214C308.322 136.352 306.728 135.101 304.913 133.508C301.28 130.32 296.703 125.714 292.212 120.001C283.252 108.604 274.5 92.6338 274.5 74.6455ZM312.754 39.5C293.279 39.5 277.5 55.2393 277.5 74.6455C277.5 91.6811 285.811 107.005 294.571 118.147C298.94 123.704 303.387 128.178 306.892 131.253C308.645 132.792 310.149 133.968 311.275 134.75C311.841 135.142 312.29 135.42 312.614 135.593C312.666 135.621 312.713 135.645 312.754 135.665C312.795 135.645 312.841 135.621 312.893 135.593C313.217 135.42 313.666 135.142 314.232 134.75C315.358 133.968 316.862 132.792 318.615 131.253C322.12 128.178 326.568 123.704 330.936 118.147C339.696 107.005 348.007 91.6811 348.007 74.6455C348.007 55.2393 332.228 39.5 312.754 39.5ZM312.527 135.762C312.527 135.762 312.532 135.76 312.541 135.758C312.531 135.761 312.526 135.763 312.527 135.762ZM312.966 135.758C312.975 135.76 312.98 135.762 312.98 135.762C312.98 135.763 312.976 135.761 312.966 135.758Z" fill="white"/>
<path d="M338.478 75.6748C338.478 89.8837 326.96 101.402 312.751 101.402C298.542 101.402 287.023 89.8837 287.023 75.6748C287.023 61.4659 298.542 49.9473 312.751 49.9473C326.96 49.9473 338.478 61.4659 338.478 75.6748Z" fill="white"/>
<path fill-rule="evenodd" clip-rule="evenodd" d="M312.753 52.7222C300.076 52.7222 289.8 62.9983 289.8 75.6746C289.8 88.3508 300.076 98.6269 312.753 98.6269C325.429 98.6269 335.705 88.3508 335.705 75.6746C335.705 62.9983 325.429 52.7222 312.753 52.7222ZM284.25 75.6746C284.25 59.933 297.011 47.1719 312.753 47.1719C328.494 47.1719 341.255 59.933 341.255 75.6746C341.255 91.4162 328.494 104.177 312.753 104.177C297.011 104.177 284.25 91.4162 284.25 75.6746Z" fill="white"/>
<path fill-rule="evenodd" clip-rule="evenodd" d="M294.742 94.4191C299.527 98.7447 305.824 101.399 312.751 101.399C319.676 101.399 325.973 98.7447 330.761 94.4191C327.603 87.6013 320.727 82.875 312.751 82.875C304.773 82.875 297.9 87.6041 294.742 94.4191Z" fill="#D8D8D8"/>
<path fill-rule="evenodd" clip-rule="evenodd" d="M298.746 72.6841C298.746 80.6375 305.018 87.0902 312.753 87.0902C320.489 87.0902 326.76 80.6375 326.76 72.6841C326.76 64.7281 320.489 58.2754 312.753 58.2754C305.018 58.2754 298.746 64.7281 298.746 72.6841Z" fill="#D8D8D8"/>
<path fill-rule="evenodd" clip-rule="evenodd" d="M301.521 72.6841C301.521 79.1791 306.624 84.315 312.753 84.315C318.883 84.315 323.985 79.1791 323.985 72.6841C323.985 66.1862 318.883 61.0506 312.753 61.0506C306.624 61.0506 301.521 66.1862 301.521 72.6841ZM312.753 87.0902C305.018 87.0902 298.746 80.6375 298.746 72.6841C298.746 64.7281 305.018 58.2754 312.753 58.2754C320.489 58.2754 326.76 64.7281 326.76 72.6841C326.76 80.6375 320.489 87.0902 312.753 87.0902Z" fill="white"/>
</svg>
