<svg width="136" height="136" viewBox="0 0 136 136" fill="none" xmlns="http://www.w3.org/2000/svg">
<path d="M98.2218 127.333C98.2218 130.462 84.6908 132.999 67.9996 132.999C51.3083 132.999 37.7773 130.462 37.7773 127.333C37.7773 124.203 51.3083 121.666 67.9996 121.666C84.6908 121.666 98.2218 124.203 98.2218 127.333Z" fill="#A0A09F" fill-opacity="0.15"/>
<path d="M64.2227 80.1113H71.7782V125.445C71.7782 125.445 70.8338 127.334 68.0004 127.334C65.1671 127.334 64.2227 125.445 64.2227 125.445V80.1113Z" fill="#CCCCCC"/>
<path fill-rule="evenodd" clip-rule="evenodd" d="M62.2227 78.1113H73.7782V125.917L73.5671 126.339L71.7782 125.445V80.1113H64.2227V125.445L62.4338 126.339L62.2227 125.917V78.1113ZM64.2227 125.445C64.2227 125.445 65.1671 127.334 68.0004 127.334C70.8338 127.334 71.7782 125.445 71.7782 125.445C73.5671 126.339 73.5665 126.34 73.566 126.341L73.5649 126.343L73.5627 126.348L73.5578 126.357L73.5468 126.379C73.5389 126.394 73.5297 126.411 73.5193 126.43C73.4986 126.467 73.4728 126.512 73.4417 126.564C73.3795 126.666 73.2953 126.795 73.1864 126.94C72.9692 127.229 72.6482 127.593 72.2012 127.951C71.2819 128.686 69.9029 129.334 68.0004 129.334C66.0979 129.334 64.719 128.686 63.7997 127.951C63.3527 127.593 63.0317 127.229 62.8145 126.94C62.7056 126.795 62.6214 126.666 62.5592 126.564C62.5281 126.512 62.5023 126.467 62.4815 126.43C62.4711 126.411 62.462 126.394 62.4541 126.379L62.4431 126.357L62.4382 126.348L62.436 126.343L62.4349 126.341C62.4343 126.34 62.4338 126.339 64.2227 125.445Z" fill="white"/>
<path d="M67.056 80.1113H64.2227V125.445C64.2227 125.445 64.953 126.905 67.056 127.258V80.1113Z" fill="#A0A09F"/>
<path d="M37.7773 6.77778C37.7773 4.69137 39.4687 3 41.5551 3H94.444C96.5304 3 98.2218 4.69137 98.2218 6.77778V82.3333C98.2218 84.4197 96.5304 86.1111 94.444 86.1111H41.5551C39.4687 86.1111 37.7773 84.4197 37.7773 82.3333V6.77778Z" fill="#FFBC0D"/>
<path fill-rule="evenodd" clip-rule="evenodd" d="M41.5551 1H94.444C97.635 1 100.222 3.5868 100.222 6.77778V82.3333C100.222 85.5243 97.635 88.1111 94.444 88.1111H41.5551C38.3641 88.1111 35.7773 85.5243 35.7773 82.3333V6.77778C35.7773 3.5868 38.3641 1 41.5551 1ZM41.5551 3C39.4687 3 37.7773 4.69137 37.7773 6.77778V82.3333C37.7773 84.4197 39.4687 86.1111 41.5551 86.1111H94.444C96.5304 86.1111 98.2218 84.4197 98.2218 82.3333V6.77778C98.2218 4.69137 96.5304 3 94.444 3H41.5551Z" fill="white"/>
<path d="M58.5547 37.0007L64.5459 14.334H71.4524L77.4436 37.0007H71.4108L70.4955 32.4335H65.2948L64.3795 37.0007H58.5547ZM66.0021 28.7798H69.7466L67.8743 19.4424L66.0021 28.7798Z" fill="white"/>
<path d="M74.2248 48.334H59.885C59.1502 48.334 58.5547 48.8159 58.5547 49.4106V75.5907C58.5547 76.1854 59.1504 76.6673 59.885 76.6673H74.2248C74.9596 76.6673 75.5551 76.1854 75.5551 75.5907V49.4106C75.5551 48.8159 74.9594 48.334 74.2248 48.334Z" fill="#292929"/>
<path fill-rule="evenodd" clip-rule="evenodd" d="M61.0562 72.8892H73.0572C73.3944 72.8892 73.6679 72.6492 73.6679 72.3532V50.7588C73.6679 50.4626 73.3944 50.2227 73.0572 50.2227H61.0562C60.7187 50.2227 60.4453 50.4628 60.4453 50.7588V72.353C60.4453 72.6492 60.7189 72.8892 61.0562 72.8892ZM65.55 75.9116H69.2127C69.5449 75.9116 69.8143 75.6574 69.8143 75.3437C69.8143 75.0302 69.5449 74.7758 69.2127 74.7758H65.55C65.2178 74.7758 64.9486 75.0302 64.9486 75.3437C64.9486 75.6574 65.2178 75.9116 65.55 75.9116Z" fill="#EAEAEA"/>
<path fill-rule="evenodd" clip-rule="evenodd" d="M58.0805 60.7574C58.0076 60.5031 58.0481 60.2674 58.2043 60.0371C58.3221 59.8632 58.47 59.7419 58.6512 59.668V61.5734C58.3967 61.3387 58.1665 61.0581 58.0805 60.7574ZM58.6502 65.6363C58.4269 65.5337 58.1872 65.4596 57.9494 65.4523C57.6569 65.4405 57.4137 65.5343 57.1921 65.7297C56.9773 65.9194 56.873 66.1393 56.8732 66.4018C56.8743 67.1858 57.8003 68.0483 57.9067 68.1449L58.6504 68.6491V65.6363H58.6502ZM58.4439 64.8045L58.4275 64.7952C58.4148 64.7885 57.1616 64.1226 56.9321 63.3203C56.8595 63.0657 56.8997 62.8301 57.0559 62.5997C57.2166 62.3625 57.4318 62.2211 57.7134 62.1679C57.8025 62.1511 57.8946 62.1434 57.988 62.1434C58.2086 62.1434 58.4358 62.1872 58.6506 62.248V64.9335L58.4439 64.8045ZM57.8328 70.0799C57.1005 70.0799 56.8351 70.4733 56.7399 70.7243C56.5354 71.2652 56.783 71.9372 57.2807 72.1916C57.8585 72.4874 58.2145 72.4951 58.6416 72.2222C58.9178 72.0455 59.4472 71.308 59.2843 70.7547C59.1765 70.3885 58.7701 70.1661 58.0764 70.0931C57.9904 70.0842 57.909 70.0799 57.8328 70.0799ZM67.9588 86.1123H78.8147L78.4009 82.1218C78.4009 82.1218 78.2308 78.625 78.9448 76.3061C79.6916 73.8872 79.2056 71.3395 78.8147 69.2925C78.6071 68.2048 78.4279 67.2654 78.4681 66.5366C78.516 65.6825 77.5577 61.8019 77.1269 60.154C76.8831 60.1331 76.4288 60.1445 76.0116 60.4168C74.4869 61.3787 74.7584 64.8204 74.8878 65.1913C74.9928 65.4485 75.591 69.2098 73.8169 71.6161C72.616 73.2469 71.955 75.4923 71.5999 76.6985L70.0756 76.668L61.6083 76.6985C62.1475 77.6943 63.2887 79.3112 64.0418 79.9667C65.2853 81.049 65.9461 82.2998 66.5291 83.4035L66.5292 83.4037C66.8883 84.0834 67.2162 84.7018 67.6244 85.1502L67.9588 86.1123Z" fill="#461E00"/>
<path d="M65.4963 72.8906C65.3672 71.9207 64.9336 68.6406 64.9336 68.6406C64.9336 68.6406 65.9825 68.6406 67.2817 68.6406C68.795 68.6406 69.1837 68.6445 69.1837 68.6445C69.1837 68.6445 68.7861 71.9519 68.6697 72.8906H65.4963Z" fill="#FFBC0D"/>
<path d="M69.2796 68.6393H64.8353C64.5545 68.6393 64.3718 68.3438 64.4974 68.0926L64.828 67.4315C64.892 67.3035 65.0228 67.2227 65.1659 67.2227H68.949C69.0921 67.2227 69.2229 67.3035 69.2869 67.4315L69.6175 68.0926C69.7431 68.3438 69.5604 68.6393 69.2796 68.6393Z" fill="#461E00"/>
<path d="M68.4616 68.5451H65.6514C65.4056 68.5451 65.2253 68.3142 65.2849 68.0757L65.5682 66.9424C65.6103 66.7742 65.7614 66.6562 65.9347 66.6562H68.1782C68.3516 66.6562 68.5027 66.7742 68.5447 66.9424L68.8281 68.0757C68.8877 68.3142 68.7073 68.5451 68.4616 68.5451Z" fill="#461E00"/>
<path d="M64.7891 58.9126C64.7891 58.2867 65.2965 57.7793 65.9224 57.7793H68.1892C68.8151 57.7793 69.3225 58.2867 69.3225 58.9126V60.4237C69.3225 61.0497 68.8151 61.5571 68.1892 61.5571H65.9224C65.2965 61.5571 64.7891 61.0497 64.7891 60.4237V58.9126Z" fill="#FFBC0D"/>
<path d="M65.5251 64.2007C66.0005 64.0389 66.3559 63.9414 67.0561 63.9414C67.7562 63.9414 68.1116 64.0389 68.587 64.2007L68.921 63.9419C69.4348 62.3061 69.8134 59.9677 69.8895 59.4785H69.2065C69.0836 59.7825 68.5079 60.9782 67.0561 60.9782C65.6044 60.9782 65.0285 59.7825 64.9056 59.4785H64.2227C64.2989 59.9677 64.6775 62.3064 65.1911 63.9419L65.5251 64.2007Z" fill="#DB0007"/>
<path d="M64.2266 50.2227H69.8934V52.1115H64.2266V50.2227Z" fill="#D87714"/>
<path d="M64.2266 54.1898C64.2266 54.607 64.5648 54.9453 64.9821 54.9453H69.1378C69.5551 54.9453 69.8934 54.607 69.8934 54.1898V53.0564H64.2266V54.1898Z" fill="#D87714"/>
<path d="M63.2812 52.1124C63.2812 51.5908 63.7041 51.168 64.2257 51.168H69.8925C70.4141 51.168 70.837 51.5908 70.837 52.1124C70.837 52.634 70.4141 53.0569 69.8925 53.0569H64.2257C63.7041 53.0569 63.2812 52.634 63.2812 52.1124Z" fill="#73371F"/>
</svg>
