<svg width="27" height="18" viewBox="0 0 27 18" fill="none" xmlns="http://www.w3.org/2000/svg">
<g clip-path="url(#clip0_109_43919)">
<path d="M0 9H27V18H0V9Z" fill="black"/>
<path d="M0 0H27V9H0V0Z" fill="#D80027"/>
<path d="M17.5135 7.13611L18.4346 6.68347L18.0451 5.68347L17.0609 6.00979L17.5135 7.13611ZM15.1135 4.18873L15.403 3.19926L14.3977 2.82031L13.9767 3.76768L15.1135 4.18873ZM16.6609 5.40979L17.303 4.60452L16.5188 3.87294L15.7714 4.58873L16.6609 5.40979ZM17.6819 9.03611L18.7083 8.994V7.87295L17.503 7.88347L17.6819 9.03611ZM17.0188 11.0414L18.0083 11.3308L18.3925 10.3308L17.4451 9.90979L17.0188 11.0414ZM15.4925 12.7466L16.2767 13.4151L17.0346 12.6572L16.3451 11.8835L15.4925 12.7466ZM13.0188 4.97295L13.5346 6.02031L14.6872 6.194L13.8504 7.00979L14.0398 8.16242L13.0083 7.61505L11.9714 8.1519L12.1714 6.99926L11.3398 6.18347L12.4977 6.02031L13.0188 4.97295Z" fill="#FFDA44"/>
<path d="M13.2017 3.22656L13.0596 4.18972C15.328 4.35814 17.1122 6.25288 17.1122 8.5634C17.1122 10.9845 15.1491 12.9266 12.7227 12.9529C11.1859 12.9687 10.0227 12.1739 9.19642 11.1792L8.46484 11.8266C9.25432 12.8266 10.6122 13.9266 12.7227 13.9266C15.6859 13.9266 18.0859 11.5266 18.0859 8.5634C18.0912 5.7634 15.9438 3.4634 13.2017 3.22656Z" fill="#FFDA44"/>
<path d="M15.3632 11.7578L14.7422 12.4947C14.7422 12.4947 17.4738 14.542 17.5633 14.621C17.6527 14.6999 17.8369 14.7262 18.0422 14.4789C18.2369 14.242 18.1896 14.0526 18.0896 13.9683C17.9843 13.8894 15.3632 11.7578 15.3632 11.7578Z" fill="black"/>
<path d="M10.8493 8.27344C10.4441 8.81554 10.4546 9.48923 10.9967 9.89976C10.9967 9.89976 18.1125 15.2419 18.202 15.3208C18.2914 15.3998 18.4757 15.4261 18.6809 15.1787C18.8757 14.9419 18.8283 14.7524 18.7283 14.6682C18.6283 14.5892 10.8493 8.27344 10.8493 8.27344ZM13.3599 13.4892L13.7441 14.4471L14.7704 14.1313L14.5178 13.1261L13.3599 13.4892ZM11.2336 13.2945L11.1283 14.3208L12.1862 14.5103L12.423 13.505L11.2336 13.2945ZM9.35461 12.1787L8.8125 13.0524L9.67566 13.6892L10.3336 12.8892L9.35461 12.1787Z" fill="#FFDA44"/>
</g>
<rect x="0.5" y="0.5" width="26" height="17" rx="0.5" stroke="black" stroke-opacity="0.2"/>
<defs>
<clipPath id="clip0_109_43919">
<rect width="27" height="18" rx="1" fill="white"/>
</clipPath>
</defs>
</svg>
