<svg width="136" height="136" viewBox="0 0 136 136" fill="none" xmlns="http://www.w3.org/2000/svg">
<g clip-path="url(#clip0_533_45129)">
<path d="M108.198 119.413C108.198 122.598 91.5409 125.181 70.9935 125.181C50.4461 125.181 33.7891 122.598 33.7891 119.413C33.7891 116.227 50.4461 113.645 70.9935 113.645C91.5409 113.645 108.198 116.227 108.198 119.413Z" fill="#A0A09F" fill-opacity="0.15"/>
<path fill-rule="evenodd" clip-rule="evenodd" d="M60.8046 24.7448C61.3911 24.048 61.639 23.0853 61.3854 22.1389C60.9732 20.6003 59.3917 19.6873 57.8532 20.0995C56.3146 20.5118 55.4016 22.0932 55.8138 23.6318C56.0675 24.5782 56.7635 25.288 57.6198 25.5981C56.5351 25.9747 55.4955 26.4279 54.5055 26.9499C53.819 26.2596 53.2981 25.386 53.0281 24.3782C52.2036 21.3011 54.0296 18.1382 57.1067 17.3137C60.1838 16.4892 63.3467 18.3153 64.1712 21.3924C64.4413 22.4002 64.427 23.4173 64.1775 24.3583C63.0592 24.4012 61.9323 24.5285 60.8046 24.7448ZM63.3616 26.1405C62.1269 26.2408 60.8838 26.4534 59.6446 26.7855C58.4055 27.1175 57.2227 27.5549 56.1033 28.0854C57.3027 28.6618 58.7063 28.8283 60.0925 28.4569C61.4788 28.0855 62.6111 27.2395 63.3616 26.1405Z" fill="#FFBC0D"/>
<path fill-rule="evenodd" clip-rule="evenodd" d="M58.9649 24.2452L59.4818 23.6312C59.7198 23.3485 59.8161 22.9647 59.715 22.5875C59.5501 21.9721 58.9176 21.6069 58.3022 21.7718C57.6867 21.9367 57.3215 22.5693 57.4864 23.1847C57.5875 23.5619 57.8628 23.8461 58.2102 23.9719L58.9649 24.2452ZM56.0969 24.3188C56.4407 24.9205 56.9869 25.3693 57.6209 25.5989C56.9338 25.8374 56.2648 26.1067 55.6151 26.4047C55.4949 26.4599 55.3753 26.516 55.2564 26.5731C55.0034 26.6946 54.7535 26.8205 54.5066 26.9507C54.5016 26.9457 54.4966 26.9406 54.4916 26.9356C53.8125 26.2477 53.2972 25.3795 53.0291 24.379C52.2046 21.3019 54.0307 18.139 57.1078 17.3145C60.1849 16.49 63.3478 18.3161 64.1723 21.3932C64.4404 22.3937 64.4283 23.4032 64.184 24.3385C64.1823 24.3454 64.1804 24.3522 64.1786 24.3591C63.8997 24.3698 63.6202 24.3857 63.3404 24.407C63.2089 24.417 63.0773 24.4282 62.9457 24.4405C62.234 24.5073 61.52 24.6086 60.8057 24.7456C61.24 24.2297 61.4886 23.568 61.4855 22.875C61.4844 22.6321 61.4523 22.3853 61.3865 22.1397C60.9743 20.6011 59.3928 19.6881 57.8543 20.1003C56.3157 20.5126 55.4027 22.094 55.8149 23.6326C55.8808 23.8782 55.9764 24.1079 56.0969 24.3188ZM56.1046 28.0857C56.1044 28.0858 56.1043 28.0859 56.1042 28.0859C55.8371 28.2125 55.5735 28.3444 55.3138 28.4813L54.182 29.0782L53.2797 28.171C53.1331 28.0236 52.9923 27.8698 52.8578 27.7098L52.0868 28.0752L55.3547 29.6458C56.913 30.3948 58.7407 30.6117 60.5415 30.1292C62.3423 29.6467 63.8167 28.5449 64.7917 27.1172L66.8364 24.1231L65.9861 24.1921C66.1721 23.1432 66.1366 22.0383 65.8438 20.9454C64.7719 16.9451 60.6602 14.5712 56.66 15.6431C52.6597 16.7149 50.2858 20.8267 51.3577 24.8269C51.6505 25.9199 52.1722 26.8944 52.8578 27.7098M59.6314 26.7328L59.2153 26.8772C59.3586 26.8549 59.5022 26.8247 59.6457 26.7863C59.6457 26.7862 59.6457 26.7862 59.6458 26.7862C59.7892 26.7478 59.9288 26.7022 60.0641 26.6498M63.3627 26.1413C62.128 26.2416 60.8849 26.4542 59.6458 26.7863C59.6458 26.7863 59.6457 26.7863 59.6457 26.7863C58.4066 27.1183 57.2237 27.5557 56.1044 28.0862C57.3037 28.6626 58.7074 28.8291 60.0936 28.4577C60.0936 28.4577 60.0936 28.4577 60.0936 28.4577C61.4799 28.0863 62.6122 27.2403 63.3627 26.1413Z" fill="white"/>
<path d="M44.9604 52.2179C41.9922 41.1403 48.5661 29.7539 59.6436 26.7857C70.7212 23.8175 82.1076 30.3914 85.0758 41.469L90.4502 61.5267L50.3348 72.2756L44.9604 52.2179Z" fill="#FFBC0D"/>
<path fill-rule="evenodd" clip-rule="evenodd" d="M92.5717 62.7512L49.1134 74.3959L43.2911 52.6667C40.0755 40.666 47.1972 28.3308 59.1979 25.1152C71.1986 21.8996 83.5338 29.0214 86.7494 41.022L92.5717 62.7512ZM59.6458 26.7867C48.5682 29.7549 41.9943 41.1412 44.9625 52.2188L50.337 72.2765L90.4524 61.5276L85.0779 41.4699C82.1097 30.3924 70.7234 23.8184 59.6458 26.7867Z" fill="white"/>
<path d="M45.633 83.6889C44.4787 79.3809 47.0352 74.9529 51.3432 73.7986L90.3443 63.3483C94.6522 62.194 99.0802 64.7505 100.235 69.0585L101.578 74.0729L46.9766 88.7033L45.633 83.6889Z" fill="#FFBC0D"/>
<path fill-rule="evenodd" clip-rule="evenodd" d="M103.696 75.2955L45.7513 90.8217L43.9598 84.1358C42.5581 78.9047 45.6625 73.5278 50.8936 72.1261L89.8947 61.6758C95.1257 60.2742 100.503 63.3785 101.904 68.6096L103.696 75.2955ZM51.3414 73.7976C47.0335 74.9519 44.477 79.3799 45.6313 83.6879L46.9749 88.7023L101.576 74.0719L100.233 69.0575C99.0785 64.7495 94.6505 62.193 90.3425 63.3473L51.3414 73.7976Z" fill="white"/>
<path d="M69.8874 84.4795C70.8768 88.1721 68.6855 91.9675 64.993 92.9569C61.3005 93.9463 57.505 91.755 56.5156 88.0625L69.8874 84.4795Z" fill="#FFBC0D"/>
<path fill-rule="evenodd" clip-rule="evenodd" d="M71.1093 82.3611L71.5572 84.0326C72.7939 88.6483 70.0548 93.3926 65.4391 94.6293C60.8235 95.8661 56.0792 93.127 54.8424 88.5113L54.3945 86.8398L71.1093 82.3611ZM57.1724 89.6785C56.8917 89.1811 56.6685 88.6406 56.5139 88.0634L69.8857 84.4805C70.0403 85.0576 70.1173 85.6373 70.1229 86.2084C70.1534 89.2909 68.1066 92.1231 64.9913 92.9579C61.8759 93.7926 58.6873 92.3633 57.1724 89.6785Z" fill="white"/>
<path fill-rule="evenodd" clip-rule="evenodd" d="M38.4161 87.1412C38.7504 87.1482 38.9041 87.5317 38.6727 87.78C37.4285 89.1161 34.3854 92.0188 33.4323 89.589C32.5172 87.2578 36.629 87.1021 38.4161 87.1412Z" fill="#FFBC0D"/>
<path fill-rule="evenodd" clip-rule="evenodd" d="M36.8496 87.1729C36.9335 87.1673 37.0168 87.1625 37.0992 87.1584C37.4124 87.1426 37.7119 87.1368 37.9818 87.1367C37.9819 87.1367 37.982 87.1367 37.9822 87.1367C38.1377 87.1366 38.2833 87.1385 38.4162 87.1414C38.7505 87.1484 38.9042 87.532 38.6728 87.7803C38.5886 87.8707 38.4961 87.9683 38.3966 88.071C38.3963 88.0713 38.3961 88.0715 38.3958 88.0718C38.2054 88.2682 37.9893 88.483 37.7559 88.7012C37.6951 88.7582 37.633 88.8153 37.5699 88.8725C36.1336 90.1732 34.1652 91.4574 33.4324 89.5892C32.7344 87.8112 34.9608 87.2987 36.8496 87.1729ZM31.8215 90.2211C31.3986 89.1436 31.4953 88.0093 32.2442 87.1103C32.8638 86.3664 33.7558 86.0072 34.4348 85.8128C35.8403 85.4105 37.5397 85.3914 38.454 85.4114C40.3839 85.4531 41.1188 87.693 39.9392 88.9596M31.8217 90.2215C32.2418 91.2923 33.0782 92.1052 34.2875 92.2394L31.8217 90.2215ZM34.2875 92.2394C35.2783 92.3493 36.1838 91.951 36.799 91.6011L34.2875 92.2394ZM36.799 91.6011C38.0811 90.8718 39.3049 89.6406 39.9388 88.9599L36.799 91.6011Z" fill="white"/>
<path fill-rule="evenodd" clip-rule="evenodd" d="M43.3476 94.9493C43.609 94.7407 43.9726 94.9371 43.9537 95.2759C43.8529 97.0988 43.3725 101.277 41.085 100.02C38.8899 98.8144 41.9495 96.063 43.3476 94.9493Z" fill="#FFBC0D"/>
<path fill-rule="evenodd" clip-rule="evenodd" d="M42.164 95.9753C42.2249 95.9173 42.2858 95.8603 42.3464 95.8044C42.5771 95.5918 42.8034 95.3957 43.0107 95.2229C43.0108 95.2228 43.0109 95.2227 43.011 95.2226C43.1305 95.123 43.2436 95.0312 43.3475 94.9484C43.6089 94.7399 43.9724 94.9362 43.9536 95.275C43.9468 95.3984 43.9382 95.5326 43.9274 95.6752C43.9274 95.6756 43.9274 95.676 43.9273 95.6764C43.9068 95.9491 43.8782 96.2525 43.8385 96.5695C43.8282 96.6522 43.8171 96.7359 43.8052 96.8202C43.5341 98.7388 42.8436 100.985 41.0849 100.019C39.4106 99.0996 40.7932 97.2808 42.164 95.9753ZM40.2515 101.536C39.237 100.978 38.5853 100.045 38.5853 98.8748C38.5853 97.9066 39.0408 97.0597 39.4381 96.4758C40.2605 95.2671 41.554 94.1647 42.2693 93.5949C43.7789 92.3918 45.7771 93.6426 45.6814 95.3707M40.252 101.536C41.2601 102.09 42.423 102.179 43.4381 101.508L40.252 101.536ZM43.4381 101.508C44.2697 100.958 44.7105 100.073 44.9592 99.4101L43.4381 101.508ZM44.9592 99.4101C45.4776 98.0291 45.6299 96.2999 45.6813 95.3712L44.9592 99.4101Z" fill="white"/>
<path fill-rule="evenodd" clip-rule="evenodd" d="M37.3111 77.7873C37.5205 78.048 37.3253 78.4122 36.9864 78.3944C35.1632 78.2992 30.9837 77.8319 32.2335 75.5406C33.432 73.3417 36.193 76.3927 37.3111 77.7873Z" fill="#FFBC0D"/>
<path fill-rule="evenodd" clip-rule="evenodd" d="M36.2816 76.6064C36.3398 76.6671 36.397 76.7279 36.4531 76.7883C36.6664 77.0182 36.8633 77.244 37.0367 77.4508C37.0368 77.4509 37.0369 77.451 37.037 77.4511C37.1369 77.5702 37.2291 77.683 37.3122 77.7867C37.5216 78.0474 37.3264 78.4116 36.9875 78.3938C36.8641 78.3873 36.7299 78.3792 36.5873 78.3689C36.5869 78.3689 36.5865 78.3688 36.5861 78.3688C36.3133 78.3491 36.0099 78.3215 35.6927 78.2828C35.6099 78.2727 35.5263 78.2619 35.4419 78.2502C33.5224 77.9852 31.2737 77.3017 32.2346 75.54C33.1488 73.8628 34.9718 75.2397 36.2816 76.6064ZM30.7155 74.7113C31.2696 73.6951 32.2009 73.0405 33.371 73.0368C34.3391 73.0337 35.1874 73.4866 35.7726 73.882C36.9839 74.7007 38.0903 75.9907 38.6623 76.7043C39.8702 78.21 38.6257 80.2122 36.8973 80.1219M30.7152 74.7118C30.1646 75.7216 30.0789 76.8849 30.753 77.8978L30.7152 74.7118ZM30.753 77.8978C31.3053 78.7277 32.1923 79.1657 32.8556 79.4124L30.753 77.8978ZM32.8556 79.4124C34.2382 79.9264 35.9679 80.0733 36.8968 80.1218L32.8556 79.4124Z" fill="white"/>
</g>
<defs>
<clipPath id="clip0_533_45129">
<rect width="136" height="136" fill="white"/>
</clipPath>
</defs>
</svg>
