<svg width="27" height="18" viewBox="0 0 27 18" fill="none" xmlns="http://www.w3.org/2000/svg">
<g clip-path="url(#clip0_109_43735)">
<path d="M0 0H27V18H0V0Z" fill="#CE1126"/>
<path d="M13.6572 13.0409C15.5195 13.0409 17.0292 11.5312 17.0292 9.66887C17.0292 7.80657 15.5195 6.29688 13.6572 6.29688C11.7949 6.29688 10.2852 7.80657 10.2852 9.66887C10.2852 11.5312 11.7949 13.0409 13.6572 13.0409Z" fill="#FCD116"/>
<path d="M15.2467 4.40234L13.8247 5.96234L15.5407 6.35234L15.2467 4.40234ZM12.1567 4.41434L11.8687 6.40034L13.5787 5.92034L12.1567 4.41434ZM17.8147 6.01634L15.7327 6.52634L16.9387 7.94833L17.8147 6.01634ZM9.51672 5.90834L10.4467 7.87033L11.6587 6.50834L9.51672 5.90834ZM19.0567 8.62633L16.9927 8.03233L17.3287 9.80233L19.0567 8.62633ZM8.13672 8.47033L10.0507 9.65833L10.3627 7.99633L8.13672 8.47033Z" fill="#FCD116"/>
<path d="M0 10.5H27V18H0V10.5Z" fill="#003F87"/>
<path d="M0 16.0216C0.9 16.0216 1.8 16.8016 2.7 16.8016C3.6 16.8016 4.5 16.0216 5.4 16.0216C6.3 16.0216 7.2 16.8016 8.1 16.8016C9 16.8016 9.9 16.0216 10.8 16.0216C11.7 16.0216 12.6 16.8016 13.5 16.8016C14.4 16.8016 15.3 16.0216 16.2 16.0216C17.1 16.0216 18 16.8016 18.9 16.8016C19.8 16.8016 20.7 16.0216 21.6 16.0216C22.5 16.0216 23.4 16.8016 24.3 16.8016C25.2 16.8016 26.1 16.0216 27 16.0216V14.7616C26.1 14.7616 25.2 15.5416 24.3 15.5416C23.4 15.5416 22.5 14.7616 21.6 14.7616C20.7 14.7616 19.8 15.5416 18.9 15.5416C18 15.5416 17.1 14.7616 16.2 14.7616C15.3 14.7616 14.4 15.5416 13.5 15.5416C12.6 15.5416 11.7 14.7616 10.8 14.7616C9.9 14.7616 9 15.5416 8.1 15.5416C7.2 15.5416 6.3 14.7616 5.4 14.7616C4.5 14.7616 3.6 15.5416 2.7 15.5416C1.8 15.5416 0.9 14.7616 0 14.7616V16.0216ZM0 13.4416C0.9 13.4416 1.8 14.2216 2.7 14.2216C3.6 14.2216 4.5 13.4416 5.4 13.4416C6.3 13.4416 7.2 14.2216 8.1 14.2216C9 14.2216 9.9 13.4416 10.8 13.4416C11.7 13.4416 12.6 14.2216 13.5 14.2216C14.4 14.2216 15.3 13.4416 16.2 13.4416C17.1 13.4416 18 14.2216 18.9 14.2216C19.8 14.2216 20.7 13.4416 21.6 13.4416C22.5 13.4416 23.4 14.2216 24.3 14.2216C25.2 14.2216 26.1 13.4416 27 13.4416V12.1816C26.1 12.1816 25.2 12.9616 24.3 12.9616C23.4 12.9616 22.5 12.1816 21.6 12.1816C20.7 12.1816 19.8 12.9616 18.9 12.9616C18 12.9616 17.1 12.1816 16.2 12.1816C15.3 12.1816 14.4 12.9616 13.5 12.9616C12.6 12.9616 11.7 12.1816 10.8 12.1816C9.9 12.1816 9 12.9616 8.1 12.9616C7.2 12.9616 6.3 12.1816 5.4 12.1816C4.5 12.1816 3.6 12.9616 2.7 12.9616C1.8 12.9616 0.9 12.1816 0 12.1816V13.4416ZM0 10.8616C0.9 10.8616 1.8 11.6416 2.7 11.6416C3.6 11.6416 4.5 10.8616 5.4 10.8616C6.3 10.8616 7.2 11.6416 8.1 11.6416C9 11.6416 9.9 10.8616 10.8 10.8616C11.7 10.8616 12.6 11.6416 13.5 11.6416C14.4 11.6416 15.3 10.8616 16.2 10.8616C17.1 10.8616 18 11.6416 18.9 11.6416C19.8 11.6416 20.7 10.8616 21.6 10.8616C22.5 10.8616 23.4 11.6416 24.3 11.6416C25.2 11.6416 26.1 10.8616 27 10.8616V9.60156C26.1 9.60156 25.2 10.3816 24.3 10.3816C23.4 10.3816 22.5 9.60156 21.6 9.60156C20.7 9.60156 19.8 10.3816 18.9 10.3816C18 10.3816 17.1 9.60156 16.2 9.60156C15.3 9.60156 14.4 10.3816 13.5 10.3816C12.6 10.3816 11.7 9.60156 10.8 9.60156C9.9 9.60156 9 10.3816 8.1 10.3816C7.2 10.3816 6.3 9.60156 5.4 9.60156C4.5 9.60156 3.6 10.3816 2.7 10.3816C1.8 10.3816 0.9 9.60156 0 9.60156V10.8616Z" fill="white"/>
<path fill-rule="evenodd" clip-rule="evenodd" d="M10.9906 2.89838L10.9246 2.58038L12.2686 2.35838C12.2686 2.35838 10.4626 1.93238 9.86863 1.71638C9.01063 1.41038 8.89062 0.990375 8.89062 0.990375C8.89062 0.990375 11.5726 1.65038 12.7786 1.65038C13.0366 1.65038 13.5466 2.29238 13.5466 2.29238C13.5466 2.29238 14.4346 1.39838 14.8606 1.36838C16.7866 1.23038 18.8566 0.984375 18.8566 0.984375C18.8566 0.984375 18.2566 1.38638 17.8966 1.49438C16.9246 1.78838 14.8606 2.19638 14.8606 2.19638L14.5726 2.64638H16.6186L15.7546 2.90438L16.1986 3.31838C16.1986 3.31838 15.7306 3.07238 15.1126 3.19238C14.6866 3.27038 14.1886 3.55238 13.7386 3.67238C12.6166 3.96038 11.9446 2.90438 11.9446 2.90438L10.9906 2.89838Z" fill="#FCD116"/>
</g>
<rect x="0.5" y="0.5" width="26" height="17" rx="0.5" stroke="black" stroke-opacity="0.2"/>
<defs>
<clipPath id="clip0_109_43735">
<rect width="27" height="18" rx="1" fill="white"/>
</clipPath>
</defs>
</svg>
