<svg width="375" height="176" viewBox="0 0 375 176" fill="none" xmlns="http://www.w3.org/2000/svg">
<g clip-path="url(#clip0_17_28633)">
<path d="M157.251 51.433L156.271 51.4696C152.517 51.6207 148.763 51.8984 145.009 52.3025L144.829 52.3246C142.567 52.6388 140.7 54.2462 140.041 56.4268L140.008 56.5392L132.194 56.5398C129.656 56.5398 127.489 58.3796 127.072 60.8897L126.045 67.0671L126.025 67.2015C125.847 68.6315 126.628 69.9623 127.861 70.5456L127.922 70.5732L127.955 71.0716C128.316 77.3084 128.716 83.5664 129.153 89.8179L129.419 93.5645C129.961 101.067 130.557 108.556 131.206 116.037C132.503 130.997 134.021 145.995 135.759 161.029C135.933 162.538 137.127 163.726 138.634 163.889C146.755 164.769 154.878 165.209 163 165.209L164.423 165.205C172.078 165.156 179.722 164.717 187.366 163.889C188.873 163.726 190.066 162.539 190.241 161.029C191.972 146.069 193.49 131.071 194.794 116.037L195.116 112.279C196.278 98.503 197.254 84.7579 198.047 71.0436L198.08 70.5719L198.134 70.5482C199.408 69.9482 200.202 68.55 199.955 67.0671L198.928 60.8897L198.898 60.7234C198.414 58.2988 196.288 56.5398 193.806 56.5398L185.991 56.5392L185.959 56.4268C185.283 54.1888 183.333 52.5546 180.991 52.3025L179.693 52.1678C176.664 51.8652 173.634 51.6449 170.604 51.5071L170.352 51.4961L176.926 4.61241C177.176 2.833 175.939 1.18777 174.164 0.937689L167.736 0.0320687C165.961 -0.21801 164.32 1.02174 164.07 2.80113L157.251 51.433Z" fill="white"/>
<path fill-rule="evenodd" clip-rule="evenodd" d="M130.73 71.1953C130.73 71.1953 146.821 72.5088 162.911 72.5088C179.002 72.5088 195.092 71.1953 195.092 71.1953C195.092 71.1953 193.784 93.7976 191.809 116.511C189.834 139.225 187.211 161.827 187.211 161.827C187.211 161.827 175.061 163.141 162.911 163.141C150.761 163.141 138.612 161.827 138.612 161.827C138.612 161.827 135.98 139.114 134.014 116.511C132.049 93.9091 130.73 71.1953 130.73 71.1953Z" fill="white"/>
<mask id="mask0_17_28633" style="mask-type:luminance" maskUnits="userSpaceOnUse" x="130" y="71" width="66" height="93">
<path fill-rule="evenodd" clip-rule="evenodd" d="M130.73 71.1953C130.73 71.1953 146.821 72.5088 162.911 72.5088C179.002 72.5088 195.092 71.1953 195.092 71.1953C195.092 71.1953 193.784 93.7976 191.809 116.511C189.834 139.225 187.211 161.827 187.211 161.827C187.211 161.827 175.061 163.141 162.911 163.141C150.761 163.141 138.612 161.827 138.612 161.827C138.612 161.827 135.98 139.114 134.014 116.511C132.049 93.9091 130.73 71.1953 130.73 71.1953Z" fill="white"/>
</mask>
<g mask="url(#mask0_17_28633)">
</g>
<path fill-rule="evenodd" clip-rule="evenodd" d="M144.614 112.195C141.538 101.365 137.103 93.79 132.047 91.5706C132.045 91.5552 132.045 91.5552 132.524 98.0595C136.952 105.107 140.141 124.905 140.141 148.225H149.089C149.089 119.002 154.096 95.3089 160.274 95.3089C166.451 95.3089 171.46 120.975 171.46 152.633H180.406C180.406 118.539 171.393 90.8984 160.274 90.8984C153.949 90.8984 148.307 99.2054 144.614 112.195Z" fill="#FFBC0D"/>
<path fill-rule="evenodd" clip-rule="evenodd" d="M195.095 71.1953C195.095 71.1953 193.786 93.7976 191.811 116.511C189.836 139.225 187.214 161.827 187.214 161.827C187.214 161.827 175.064 163.141 162.914 163.141C172.491 163.141 177.307 132.843 177.362 72.2456C187.214 71.8521 195.095 71.1953 195.095 71.1953Z" fill="#A0A09F" fill-opacity="0.15"/>
<path d="M167.246 2.9668L173.75 3.88082L166.227 57.4083L159.596 57.3994L167.246 2.9668Z" fill="#F1F1F1"/>
<path d="M170.496 3.42383L172.447 3.69804L164.899 57.4066L162.91 57.404L170.496 3.42383Z" fill="#EAEAEA"/>
<path fill-rule="evenodd" clip-rule="evenodd" d="M131.744 60.0312H194.082C195.045 60.0312 195.867 60.7276 196.025 61.6776L197.064 67.9123C185.68 68.788 174.297 69.2258 162.913 69.2258C151.529 69.2258 140.145 68.788 128.762 67.9123L129.801 61.6776C129.959 60.7276 130.781 60.0312 131.744 60.0312Z" fill="#F1F1F1"/>
<path fill-rule="evenodd" clip-rule="evenodd" d="M145.061 55.7359C151.012 55.0969 156.963 54.7773 162.914 54.7773C168.865 54.7773 174.816 55.0969 180.767 55.7359C181.874 55.8548 182.786 56.6589 183.042 57.7424L183.273 58.7178H142.555L142.786 57.7425C143.042 56.6589 143.954 55.8548 145.061 55.7359Z" fill="#F1F1F1"/>
<path d="M289.105 46.9521C288.98 45.6791 294.523 41.0717 297.111 41.5273C297.929 49.0012 298.5 56.4035 298.835 63.7666C299.423 57.5269 300.093 51.2839 300.856 45.0322C304.258 45.4847 309.05 48.7443 308.9 50.0332C306.401 71.5098 307.13 76.6621 307.13 76.6621C308.933 69.9886 308.967 66.1139 310.273 59.5908C311.424 58.6709 314.596 57.4083 317.529 57.4736C317.457 56.2824 317.305 54.2262 317.219 53.0293C317.95 50.4009 321.91 48.4336 326.172 48.0938C326.93 57.2252 327.097 62.3106 327.431 71.1016C327.763 66.2549 328.239 63.1653 329.128 57.5938C330.479 55.1658 334.858 54.6112 338.222 55.29C336.583 65.0495 336.027 70.2809 335.642 79.7119C337.596 72.1254 338.409 69.3876 339.227 61.9307C342.204 62.2139 345.264 63.0555 346.741 64.6973C347.318 62.5923 347.65 61.4966 348.188 59.376C348.504 58.1365 353.251 57.2584 356.853 58.2627C355.543 66.7772 354.233 72.8355 351.771 81.043L351.264 82.7148L350.519 85.5088H354.059C354.059 85.5088 351.616 104.789 347.723 124.282C343.83 143.776 338.571 163.056 338.571 163.056L332.94 167.247C332.94 167.247 321.677 163.056 307.598 163.056C293.519 163.056 282.959 167.247 282.959 167.247L277.328 163.056C277.328 163.056 272.027 143.562 268.177 124.282C264.326 105.003 261.841 85.5088 261.841 85.5088H265.906L264.636 82.7139C262.725 78.0681 260.645 74.4335 259.053 69.5762C258.865 69.0025 263.063 62.6627 266.363 61.7236C267.957 66.8754 269.712 71.8792 271.6 76.7793C270.796 69.3231 268.744 61.7411 266.905 54.1748C270.222 53.2932 276.194 55.0894 276.326 55.6777C278.505 65.3463 279.719 68.3814 281.418 77.9355C281.027 70.0395 280.792 67.3997 279.591 61.3662C279.341 60.1115 284.189 56.4931 287.586 56.2393C288.793 61.6327 289.342 64.9353 290.662 73.8877C290.581 64.0236 290.555 61.6887 289.105 46.9521Z" fill="white"/>
<path fill-rule="evenodd" clip-rule="evenodd" d="M261.84 85.5098H273.018C273.018 85.5098 282.254 112.057 307.597 112.057C332.939 112.057 342.88 85.5098 342.88 85.5098H354.057C354.057 85.5098 351.615 104.789 347.722 124.283C343.829 143.777 338.571 163.056 338.571 163.056L332.939 167.248C332.939 167.248 321.676 163.056 307.597 163.056C293.518 163.056 282.958 167.248 282.958 167.248L277.327 163.056C277.327 163.056 272.026 143.563 268.175 124.283C264.325 105.003 261.84 85.5098 261.84 85.5098Z" fill="#DB0007"/>
<path fill-rule="evenodd" clip-rule="evenodd" d="M314.695 120.439C311.547 120.439 308.739 124.482 306.901 130.802C305.065 124.482 302.256 120.439 299.107 120.439C293.574 120.439 289.086 133.89 289.086 150.48H293.54C293.54 135.075 296.034 122.586 299.107 122.586C302.182 122.586 304.675 134.115 304.675 148.335H309.128C309.128 134.115 311.621 122.586 314.695 122.586C317.77 122.586 320.263 135.075 320.263 150.48H324.715C324.715 133.89 320.23 120.439 314.695 120.439Z" fill="#FFBC0D"/>
<path fill-rule="evenodd" clip-rule="evenodd" d="M275.814 82.7146C275.814 82.7146 284.896 109.262 307.95 109.262C331.005 109.262 340.087 82.7146 340.087 82.7146C340.087 82.7146 346.374 82.7146 351.264 82.7146C354.059 73.6325 355.456 67.345 356.853 58.2629C353.252 57.2584 348.504 58.1368 348.189 59.3765C347.651 61.4972 347.319 62.5921 346.742 64.6971C345.264 63.0553 342.204 62.2139 339.227 61.9307C338.41 69.3877 337.597 72.1251 335.642 79.7116C336.027 70.2806 336.583 65.0501 338.222 55.2906C334.859 54.6116 330.479 55.166 329.128 57.5944C328.24 63.166 327.764 66.2551 327.431 71.1019C327.098 62.3108 326.931 57.2256 326.173 48.0942C321.91 48.434 317.951 50.4011 317.22 53.0296C317.306 54.2265 317.458 56.2823 317.53 57.4736C314.596 57.4081 311.424 58.6711 310.273 59.5911C308.967 66.1142 308.933 69.9887 307.13 76.6622C307.13 76.6622 306.401 71.5103 308.901 50.0336C309.051 48.7448 304.259 45.4846 300.857 45.0321C300.093 51.284 299.423 57.5271 298.835 63.767C298.5 56.4038 297.929 49.0016 297.111 41.5277C294.523 41.0721 288.98 45.679 289.105 46.952C290.555 61.6891 290.582 64.0237 290.663 73.8883C289.342 64.9356 288.793 61.6331 287.587 56.2396C284.19 56.4932 279.341 60.1115 279.591 61.3663C280.793 67.3998 281.028 70.0396 281.419 77.9358C279.72 68.3815 278.505 65.3465 276.327 55.6776C276.194 55.0892 270.222 53.2933 266.906 54.1749C268.745 61.7413 270.796 69.3235 271.6 76.7798C269.713 71.8796 267.958 66.8756 266.364 61.7237C263.063 62.6626 258.865 69.0032 259.053 69.5765C260.645 74.4339 262.725 78.0686 264.636 82.7146H275.814Z" fill="#FFBC0D"/>
<path d="M290.013 40.7852C292.668 38.8191 295.298 37.6621 297.717 38.0879C299.246 38.3572 300.415 39.6045 300.584 41.1484L300.626 41.5469L300.716 41.542C300.864 41.5362 301.015 41.5392 301.166 41.5527L301.317 41.5703C306.208 42.2208 312.83 46.4826 312.37 50.4375C312.267 51.3226 312.169 52.1871 312.075 53.0303L311.867 54.9336L312.062 54.8691C312.622 54.6864 313.202 54.5264 313.791 54.3945L313.814 54.3887L313.738 53.3262L313.727 53.0811C313.722 52.7479 313.765 52.4154 313.854 52.0938C315.047 47.809 320.172 45.0687 325.895 44.6123C327.813 44.4593 329.494 45.8876 329.653 47.8057C329.748 48.9514 329.835 50.0439 329.915 51.1006L330.019 52.5117L330.051 52.498C332.535 51.4488 335.653 51.2557 338.656 51.8174L338.913 51.8672C340.76 52.2401 341.979 54.0107 341.667 55.8691C341.574 56.4201 341.486 56.9567 341.4 57.4795L341.209 58.6592L341.73 58.7451C342.664 58.9104 343.553 59.125 344.385 59.3916L344.562 59.4492L344.676 59.0166L344.803 58.5186C345.821 54.5054 352.712 53.4813 357.792 54.8984C359.495 55.3736 360.575 57.0472 360.306 58.7949C358.974 67.4509 357.64 73.5545 355.305 81.4219L355.081 82.1689L355.15 82.1895C356.648 82.6811 357.682 84.1561 357.539 85.8066L357.524 85.9482C355.886 98.8839 353.76 111.89 351.148 124.967C348.537 138.042 345.468 151.045 341.941 163.976C341.736 164.729 341.284 165.392 340.657 165.858L335.026 170.05C334.076 170.757 332.832 170.935 331.722 170.521C324.62 167.878 316.583 166.549 307.598 166.549C298.632 166.549 290.853 167.872 284.249 170.494C283.123 170.941 281.846 170.773 280.874 170.05L275.242 165.858C274.615 165.391 274.162 164.727 273.957 163.973C270.402 150.901 267.334 137.898 264.751 124.967C262.168 112.033 260.043 99.0281 258.376 85.9512C258.164 84.2906 259.151 82.782 260.622 82.2344L260.631 82.2305L260.281 81.4482L259.959 80.7393L258.641 77.8799C257.433 75.2419 256.651 73.3687 255.943 71.2939L255.733 70.6641C255.046 68.5646 256.22 66.6293 258.687 63.5879L258.918 63.3057C260.615 61.2611 262.371 59.6778 264.201 58.8193L264.426 58.7178L263.512 55C263.063 53.1538 264.173 51.2879 266.009 50.7998C268.14 50.2333 270.796 50.3714 273.542 50.96C274.626 51.1923 275.663 51.4882 276.496 51.8018C276.968 51.9794 277.383 52.1657 277.746 52.3721C278.025 52.5308 278.282 52.7047 278.533 52.9238C279.092 53.4123 279.53 54.0027 279.734 54.9102L279.929 55.7676L280.255 55.541C282.128 54.2658 284.212 53.3003 286.171 52.915L286.099 52.1455L285.629 47.2949C285.39 44.8722 287.177 42.8844 290.013 40.7852ZM297.111 41.5283C294.524 41.0728 288.981 45.6785 289.105 46.9521C290.278 58.8743 290.519 62.6804 290.611 68.9219L290.662 73.8887C289.458 65.7214 288.895 62.2563 287.89 57.6162L287.587 56.2402C284.19 56.4938 279.341 60.1124 279.591 61.3672C280.672 66.7972 280.971 69.4786 281.305 75.7168L281.419 77.9365C279.791 68.7804 278.607 65.6114 276.594 56.8535L276.326 55.6777C276.191 55.0889 270.221 53.2944 266.905 54.1758C268.744 61.7421 270.796 69.3241 271.6 76.7803C269.712 71.8803 267.958 66.8763 266.364 61.7246C263.064 62.6635 258.865 69.0039 259.053 69.5771C260.561 74.1788 262.508 77.6829 264.333 81.9893L264.636 82.7148L265.905 85.5098H261.841C263.498 98.5055 265.61 111.43 268.177 124.283C270.744 137.136 273.794 150.061 277.328 163.057L282.96 167.248C289.999 164.454 298.212 163.057 307.598 163.057C316.984 163.057 325.432 164.454 332.94 167.248L338.572 163.057C342.078 150.204 345.128 137.279 347.724 124.283C350.319 111.288 352.43 98.3628 354.059 85.5098H350.519L351.265 82.7148L351.515 81.8975C354.144 73.2499 355.499 67.0704 356.854 58.2637C353.252 57.2592 348.504 58.1374 348.189 59.377C348.01 60.0838 347.853 60.6771 347.703 61.2314L346.741 64.6973C345.263 63.0557 342.204 62.2148 339.227 61.9316C338.565 67.968 337.906 70.9119 336.643 75.8389L335.642 79.7119C336.008 70.7413 336.53 65.571 337.99 56.6885L338.223 55.291C334.859 54.612 330.479 55.1665 329.128 57.5947C328.299 62.7949 327.828 65.8328 327.499 70.1553L327.431 71.1025C327.116 62.8139 326.95 57.8195 326.297 49.6221L326.173 48.0947C321.911 48.4345 317.951 50.4018 317.22 53.0303C317.286 53.9509 317.391 55.3796 317.469 56.5322L317.53 57.4746C314.596 57.4092 311.424 58.6718 310.273 59.5918C308.967 66.1148 308.933 69.9896 307.13 76.6631C307.13 76.6631 306.458 71.9148 308.616 52.5342L308.9 50.0342C309.05 48.7454 304.259 45.4847 300.856 45.0322C300.093 51.2841 299.423 57.5277 298.835 63.7676C298.5 56.4044 297.929 49.0022 297.111 41.5283Z" fill="white"/>
<path d="M266.17 162.323H195.406L181.164 129.676H280.411L266.17 162.323Z" fill="#C2945C"/>
<path d="M279.841 130.982L274.715 142.735H186.861L181.734 130.982H279.841Z" fill="#A5835B"/>
<path d="M193.086 91.8602C193.361 91.0473 194.123 90.5 194.981 90.5H266.599C267.457 90.5 268.219 91.0473 268.493 91.8602L282.134 132.26C282.572 133.557 281.607 134.9 280.239 134.9H181.341C179.973 134.9 179.008 133.557 179.446 132.26L193.086 91.8602Z" fill="#C2945C"/>
<mask id="path-18-outside-1_17_28633" maskUnits="userSpaceOnUse" x="175.34" y="87.5" width="110" height="78" fill="black">
<rect fill="white" x="175.34" y="87.5" width="110" height="78"/>
<path d="M266.599 90.5C267.457 90.5 268.22 91.0474 268.494 91.8604L282.135 132.26C282.573 133.556 281.608 134.9 280.239 134.9H278.136L266.173 162.323H195.408L183.445 134.9H181.342C179.973 134.9 179.009 133.556 179.446 132.26L193.087 91.8604C193.361 91.0476 194.124 90.5002 194.981 90.5H266.599Z"/>
</mask>
<path d="M268.494 91.8604L265.652 92.82L265.652 92.8201L268.494 91.8604ZM282.135 132.26L284.977 131.3L284.977 131.3L282.135 132.26ZM278.136 134.9V131.9H276.171L275.386 133.701L278.136 134.9ZM266.173 162.323V165.323H268.137L268.923 163.523L266.173 162.323ZM195.408 162.323L192.658 163.523L193.444 165.323H195.408V162.323ZM183.445 134.9L186.195 133.701L185.41 131.9H183.445V134.9ZM179.446 132.26L176.604 131.3L176.604 131.3L179.446 132.26ZM193.087 91.8604L195.929 92.8201L195.929 92.82L193.087 91.8604ZM194.981 90.5V87.5H194.981L194.981 90.5ZM266.599 90.5V93.5C266.17 93.5 265.789 93.2272 265.652 92.82L268.494 91.8604L271.337 90.9007C270.65 88.8677 268.743 87.5 266.599 87.5V90.5ZM268.494 91.8604L265.652 92.8201L279.292 133.219L282.135 132.26L284.977 131.3L271.336 90.9006L268.494 91.8604ZM282.135 132.26L279.292 133.219C279.074 132.571 279.555 131.9 280.239 131.9V134.9V137.9C283.66 137.9 286.071 134.541 284.977 131.3L282.135 132.26ZM280.239 134.9V131.9H278.136V134.9V137.9H280.239V134.9ZM278.136 134.9L275.386 133.701L263.423 161.124L266.173 162.323L268.923 163.523L280.885 136.1L278.136 134.9ZM266.173 162.323V159.323H195.408V162.323V165.323H266.173V162.323ZM195.408 162.323L198.158 161.124L186.195 133.701L183.445 134.9L180.696 136.1L192.658 163.523L195.408 162.323ZM183.445 134.9V131.9H181.342V134.9V137.9H183.445V134.9ZM181.342 134.9V131.9C182.026 131.9 182.508 132.571 182.289 133.219L179.446 132.26L176.604 131.3C175.51 134.541 177.921 137.9 181.342 137.9V134.9ZM179.446 132.26L182.289 133.219L195.929 92.8201L193.087 91.8604L190.245 90.9006L176.604 131.3L179.446 132.26ZM193.087 91.8604L195.929 92.82C195.792 93.2263 195.411 93.4999 194.982 93.5L194.981 90.5L194.981 87.5C192.836 87.5005 190.931 88.8689 190.245 90.9007L193.087 91.8604ZM194.981 90.5V93.5H266.599V90.5V87.5H194.981V90.5Z" fill="white" mask="url(#path-18-outside-1_17_28633)"/>
<path fill-rule="evenodd" clip-rule="evenodd" d="M258.538 105.423C261.241 105.423 263.435 116.284 263.435 129.676H267.353C267.353 115.251 263.406 103.559 258.538 103.559C255.77 103.559 253.298 107.073 251.683 112.568C250.066 107.073 247.596 103.559 244.826 103.559C239.96 103.559 236.012 115.251 236.012 129.676H239.93C239.93 116.284 242.123 105.423 244.826 105.423C247.531 105.423 249.724 115.448 249.724 127.811H253.641C253.641 115.448 255.835 105.423 258.538 105.423Z" fill="#FFBC0D"/>
<path d="M388.801 161.324V167.854C388.801 171.46 385.878 174.383 382.272 174.383H106.731C103.125 174.383 100.201 171.46 100.201 167.854V161.324C96.5952 161.324 93.6719 158.401 93.6719 154.795C93.6719 151.189 96.5952 148.266 100.201 148.266C107.413 148.266 113.26 154.112 113.26 161.324H375.742C375.742 154.112 381.589 148.266 388.801 148.266C392.407 148.266 395.331 151.189 395.331 154.795C395.331 158.401 392.407 161.324 388.801 161.324Z" fill="#DB0007" stroke="white" stroke-width="3"/>
</g>
<defs>
<clipPath id="clip0_17_28633">
<rect width="375" height="176" fill="white"/>
</clipPath>
</defs>
</svg>
