<svg width="375" height="225" viewBox="0 0 375 225" fill="none" xmlns="http://www.w3.org/2000/svg">
<ellipse cx="188" cy="210.5" rx="115.5" ry="9" fill="#A0A09F" fill-opacity="0.15"/>
<path d="M98.4095 194.798L61.0156 55.5559C60.4368 53.396 61.7345 51.1472 63.8873 50.5702L63.8883 50.5699L150.58 27.2866C152.736 26.7086 154.985 28.0057 155.563 30.1618L155.563 30.1628L192.958 169.406C193.536 171.565 192.239 173.812 190.086 174.389L190.085 174.39L103.392 197.673C101.236 198.251 98.9876 196.955 98.4098 194.799L98.4095 194.798Z" fill="white" stroke="white" stroke-width="4"/>
<path d="M98.4095 194.798L61.0156 55.5559C60.4368 53.396 61.7345 51.1472 63.8873 50.5702L63.8883 50.5699L150.58 27.2866C152.736 26.7086 154.985 28.0057 155.563 30.1618L155.563 30.1628L192.958 169.406C193.536 171.565 192.239 173.812 190.086 174.389L190.085 174.39L103.392 197.673C101.236 198.251 98.9876 196.955 98.4098 194.799L98.4095 194.798Z" fill="white" stroke="#D8D8D8" stroke-width="4"/>
<path d="M104.118 167.876C102.49 168.312 100.776 167.196 100.29 165.383C99.8041 163.57 100.73 161.746 102.358 161.31L170.586 143.027C172.214 142.591 173.928 143.708 174.414 145.521C174.9 147.334 173.974 149.158 172.346 149.594L104.118 167.876Z" fill="#F1F1F1"/>
<path d="M106.348 179.598C105.191 179.908 103.858 178.69 103.372 176.877C102.886 175.064 103.431 173.342 104.588 173.032L153.106 160.031C154.264 159.721 155.596 160.939 156.082 162.753C156.568 164.566 156.024 166.287 154.866 166.597L106.348 179.598Z" fill="#F1F1F1"/>
<g style="mix-blend-mode:multiply">
<ellipse cx="31.5058" cy="3.20381" rx="31.5058" ry="3.20381" transform="matrix(0.965924 -0.258826 0.258871 0.965912 97.7031 129.887)" fill="#F1F1F1"/>
</g>
<path fill-rule="evenodd" clip-rule="evenodd" d="M102.411 124.756C103.357 128.286 106.791 130.545 110.391 129.914C115.38 129.039 122.585 127.642 129.243 125.858C135.49 124.184 141.4 122.13 145.562 120.575C149.004 119.289 150.816 115.59 149.864 112.04L102.411 124.756Z" fill="#E89700"/>
<path d="M104.624 123.302L104.701 123.316C107.965 123.929 108.293 122.031 110.496 121.521C111.399 121.312 112.189 121.313 112.816 121.393L112.873 121.327C112.937 121.256 113.009 121.186 113.086 121.116L113.643 120.965L114.07 120.847C114.65 120.685 115.274 120.506 115.945 120.307L116.285 120.205L116.712 120.074C117.129 119.949 117.699 119.788 118.242 119.684L118.281 119.685C118.424 119.72 118.56 119.764 118.689 119.818C118.952 119.928 119.194 120.041 119.422 120.142C119.959 119.915 120.43 119.745 120.93 119.451C121.64 119.396 122.288 119.383 122.885 119.407C124.002 119.453 129.662 117.241 132.673 116.425L133.398 116.122C134.989 115.463 136.315 114.953 136.596 114.769L136.612 114.758C136.737 114.668 136.867 114.582 137.001 114.5L137.19 114.51L137.387 114.518C138.88 114.569 140.714 114.387 143.125 113.392C143.672 113.167 144.304 113.04 144.971 112.988C145.512 112.372 146.086 112.602 146.61 112.36C147.322 112.032 147.513 111.655 148.606 111.276C150.101 110.759 151.29 112.768 151.729 113.402C152.169 114.035 151.997 113.615 151.558 113.683C151.119 113.751 150.864 113.519 150.35 113.615C148.17 114.018 149.097 116.685 146.616 117.852C145.277 118.482 143.352 117.407 142.732 117.454C142.111 117.501 141.674 118.102 141.085 118.271C138.306 119.066 136.376 118.009 133.95 118.339L134.007 118.209C134.041 118.133 134.076 118.058 134.111 117.982C134.175 117.846 133.746 117.955 133.069 118.179L132.685 118.533C131.029 120.053 128.978 121.819 129.536 122.32C128.494 122.788 127.333 123.067 126.003 123.359C124.716 123.641 123.183 122.987 122.149 123.142C120.342 123.414 116.041 125.911 116.041 125.911C116.041 125.911 116.051 124.69 115.224 124.493C114.088 124.222 111.506 124.859 111.228 125.325C110.95 125.791 110.605 126.159 110.06 126.308C108.719 126.676 108.171 126.134 107.469 126.166C106.73 126.199 106.451 126.532 105.495 126.894C104.429 127.298 104.097 126.647 104.038 126.048L104.035 126.011C103.886 124.19 101.366 126.147 101.519 125.443C101.672 124.74 103.122 123.064 104.624 123.302Z" fill="#9CC93A"/>
<path fill-rule="evenodd" clip-rule="evenodd" d="M119.81 119.202C128.879 118.205 132.014 115.2 136.076 113.662C138.733 112.657 141.349 112.141 143.48 112.09C143.503 112.089 144.359 111.986 144.824 111.89C145.656 111.719 146.531 111.485 147.448 111.187C147.448 111.187 148.661 110.706 149.337 110.444C150.014 110.182 150.605 110.147 150.901 110.8C151.13 111.304 150.839 111.639 150.337 111.868C149.834 112.097 146.613 112.365 138.492 114.969C130.37 117.572 133.584 127.079 130.86 124.494C128.037 121.815 123.523 120.452 120.338 120.304C117.153 120.156 109.774 122.87 107.479 123.408C105.184 123.946 104.483 123.891 103.464 123.928C102.446 123.965 102.524 124.139 102.377 123.593C102.245 123.101 102.6 122.771 103.096 122.723C103.373 122.696 104.311 122.764 107.907 121.905C110.757 121.224 115.8 119.643 119.81 119.202Z" fill="#FFBC0D"/>
<path fill-rule="evenodd" clip-rule="evenodd" d="M146.205 105.274C147.584 104.904 149.002 105.725 149.373 107.106L149.751 108.655C149.751 108.655 148.649 109.515 144.74 110.447C140.83 111.378 138.345 111.067 135.692 112.068C131.637 113.598 130.473 115.588 122.442 116.982C114.412 118.376 102.526 121.63 102.526 121.63L101.919 119.822C101.549 118.44 102.367 117.021 103.746 116.651C113.231 113.567 120.403 111.371 125.262 110.063C130.121 108.755 136.919 107.214 146.205 105.274Z" fill="#73371F"/>
<path fill-rule="evenodd" clip-rule="evenodd" d="M100.394 112.071C100.274 111.621 100.541 111.158 100.991 111.037L147.048 98.6959C147.369 98.6098 147.699 98.8005 147.785 99.1217C148.621 102.241 146.712 105.434 143.571 106.183C137.998 107.512 129.767 109.499 125.446 110.656C121.062 111.831 112.769 114.279 107.277 115.915C104.309 116.8 101.196 115.062 100.394 112.071Z" fill="#E89700"/>
<path d="M114.071 106.012L114.316 105.921C117.449 104.728 117.003 103.928 118.664 103.456C119.416 103.242 120.047 103.349 120.632 103.583C121.769 102.331 123.022 101.223 124.763 100.795C126.14 100.457 127.882 101.332 128.996 101.153C130.942 100.838 134.109 98.7638 135.135 97.2014C135.21 97.088 135.369 97.2029 135.373 97.3738L135.382 97.7352C135.405 98.451 135.51 99.2828 136.42 99.5503C137.689 99.9225 139.288 99.4359 140.699 98.5575C140.954 97.9617 141.293 97.494 141.872 97.3126C143.3 96.8654 143.954 97.5753 144.718 97.549L144.803 97.5448C145.705 97.4904 146.851 97.029 147.773 98.4127C148.696 99.7964 151.081 98.3859 151.081 98.3859C151.081 98.3859 149.781 101.646 148.11 101.299L148.037 101.282C144.408 100.425 144.245 102.868 141.893 103.481C140.928 103.733 140.065 103.714 139.372 103.599C138.679 103.484 135.105 106.491 133.119 105.512L132.885 105.394C131.766 104.818 130.969 104.271 129.991 104.849C129.407 105.194 128.785 106.044 126.873 106.43C125.64 106.679 124.317 106.144 123.178 105.673C122.426 106.248 121.879 106.217 121.235 107.762L121.196 107.858C120.698 109.096 120.186 109.628 119.064 109.432L118.992 109.418C117.246 109.072 116.898 110.635 114.78 111.066C113.378 111.352 111.345 108.954 108.218 110.873C107.668 111.211 106.897 111.174 106.087 110.935C105.833 111.561 105.699 112.162 105.593 112.589C105.043 114.818 103.952 113.728 103.223 114.084L103.194 114.099C102.473 114.496 102.037 114.267 100.961 114.676L100.854 114.718C99.2756 115.355 97.838 115.112 97.2033 113.898C97.097 113.695 96.0686 111.978 96.6631 112.523C97.2575 113.068 97.9688 111.786 98.5206 111.674C100.86 111.197 98.6814 109.354 101.271 107.898C102.543 107.183 105.086 107.511 106.592 107.964L106.963 107.231C107.396 106.391 107.909 105.528 108.629 105.281C110.579 104.613 112.263 106.673 114.071 106.012Z" fill="#9CC93A"/>
<path fill-rule="evenodd" clip-rule="evenodd" d="M101.069 103.553C103.394 102.93 114.097 99.2331 121.143 97.3451C128.275 95.434 140.175 92.798 142.229 92.5239C144.283 92.2498 144.895 92.4666 145.269 93.8591C145.642 95.2517 145.341 94.1284 145.714 95.521C146.087 96.9135 145.131 97.8268 143.75 98.1971L101.216 109.595C99.8346 109.965 98.0361 108.251 98.2481 106.459C98.4601 104.667 98.7439 104.176 101.069 103.553Z" fill="#73371F"/>
<path d="M99.0444 109.076C99.4348 108.82 100.085 108.797 104.386 108.196C106.072 107.961 108.714 107.411 112.781 106.223C115.629 105.39 120.129 104.135 128.323 101.782C136.517 99.4296 140.265 98.6215 142.893 97.8783C145.522 97.1351 145.342 95.5675 146.987 96.5055C148.633 97.4436 146.009 97.9546 143.429 98.8379C140.85 99.7212 140.818 98.9791 132.172 101.578C123.527 104.178 120.122 106.142 116.126 107.257C108.596 109.358 105.756 108.105 101.54 110.062C97.3233 112.019 98.654 109.332 99.0444 109.076Z" fill="#EDC8A3"/>
<path fill-rule="evenodd" clip-rule="evenodd" d="M144.03 88.1706C144.317 89.2412 144.713 90.7196 143.174 91.1639C141.619 91.5488 128.618 93.6541 121.165 95.6805C114.012 97.5685 101.328 102.071 99.3322 102.914C97.3405 103.692 97.202 102.144 96.974 101.335C94.611 92.4791 105.902 83.878 117.414 80.6553C128.937 77.4344 141.726 79.5761 144.03 88.1706Z" fill="white"/>
<path d="M117.407 80.6558C128.93 77.4352 141.719 79.5777 144.023 88.1723C144.31 89.2429 144.707 90.7214 143.168 91.1658C141.613 91.5507 128.612 93.6558 121.16 95.6821C114.007 97.57 101.322 102.073 99.3262 102.916C97.3348 103.693 97.1956 102.145 96.9675 101.336C94.6047 92.48 105.896 83.8784 117.407 80.6558ZM99.5358 99.1643C99.1721 99.0006 98.7412 99.149 98.5739 99.4948C98.4071 99.8409 98.5669 100.254 98.9305 100.417C99.2945 100.581 100.789 100.72 100.88 100.532C100.968 100.342 99.8995 99.3282 99.5358 99.1643ZM129.867 89.7644C129.699 89.9245 130.399 91.3255 130.709 91.6185C131.018 91.9109 131.521 91.9107 131.831 91.618C132.14 91.325 132.14 90.8499 131.83 90.5575C131.521 90.2652 130.037 89.6067 129.867 89.7644ZM108.409 95.6164C108.224 95.2319 107.748 95.0674 107.347 95.2489C106.946 95.4307 106.771 95.8895 106.955 96.2739C107.141 96.6587 108.301 97.784 108.52 97.6865C108.738 97.5867 108.594 96.0019 108.409 95.6164ZM122.143 91.7252C121.78 91.5615 121.349 91.7098 121.181 92.0558C121.015 92.4019 121.174 92.8156 121.538 92.9792C121.903 93.1428 123.397 93.2807 123.488 93.0927C123.576 92.9033 122.507 91.8893 122.143 91.7252ZM116.448 92.9219C116.155 92.6122 115.68 92.6121 115.388 92.922C115.095 93.2326 114.436 94.7169 114.595 94.8856C114.755 95.0529 116.158 94.3535 116.45 94.0437C116.742 93.7339 116.741 93.2316 116.448 92.9219ZM139.649 86.1964C139.303 86.0296 138.889 86.1884 138.726 86.5519C138.562 86.9164 138.425 88.4082 138.612 88.5013C138.802 88.5899 139.816 87.5206 139.98 87.1571C140.144 86.7933 139.995 86.3636 139.649 86.1964ZM131.835 85.0978C131.646 85.0091 130.631 86.0782 130.467 86.4419C130.304 86.8056 130.452 87.2365 130.798 87.4038C131.144 87.5705 131.557 87.4109 131.721 87.0473C131.884 86.6837 132.022 85.1902 131.835 85.0978ZM101.316 93.4348C100.953 93.2718 100.522 93.4196 100.355 93.7652C100.188 94.1111 100.348 94.525 100.711 94.6889C101.075 94.8525 102.568 94.9908 102.661 94.8033C102.751 94.6152 101.68 93.5985 101.316 93.4348ZM123.965 85.5317C123.538 85.6463 123.28 86.0698 123.389 86.4766C123.499 86.8838 124.424 88.1713 124.656 88.1106C124.888 88.0478 125.045 86.4679 124.936 86.0611C124.827 85.6545 124.392 85.4173 123.965 85.5317ZM109.054 90.7473C108.69 90.5839 107.199 90.4455 107.105 90.6326C107.016 90.8218 108.086 91.8375 108.45 92.0011C108.813 92.1643 109.244 92.0164 109.411 91.6708C109.578 91.3246 109.418 90.911 109.054 90.7473ZM118.16 86.8196C117.934 86.7677 116.978 88.0813 116.857 88.4893C116.735 88.8972 116.972 89.3079 117.387 89.4068C117.801 89.5055 118.237 89.255 118.359 88.847C118.481 88.4387 118.385 86.8732 118.16 86.8196ZM127.792 81.3001C127.607 80.9158 127.131 80.751 126.73 80.9327C126.329 81.1145 126.154 81.5741 126.338 81.9586C126.524 82.3432 127.684 83.4673 127.903 83.3702C128.121 83.2715 127.977 81.6847 127.792 81.3001ZM109.776 85.1883C109.349 85.303 109.091 85.7256 109.2 86.1323C109.309 86.5393 110.235 87.8276 110.467 87.7672C110.699 87.705 110.856 86.125 110.747 85.7177C110.638 85.3109 110.203 85.0738 109.776 85.1883ZM116.353 82.4964C115.989 82.3328 115.559 82.4808 115.392 82.8268C115.225 83.1729 115.384 83.5868 115.748 83.7505C116.112 83.9141 117.606 84.0519 117.697 83.864C117.787 83.6754 116.717 82.6601 116.353 82.4964Z" fill="#E89700"/>
<path d="M235.431 172.748C235.43 177.188 231.81 180.818 227.366 180.818L227.367 180.819L137.597 180.865L137.596 180.865C133.156 180.865 129.528 177.243 129.527 172.8L129.453 28.6191L129.453 28.6182C129.453 24.1789 133.073 20.5475 137.517 20.5469L227.287 20.5L227.288 20.5C231.728 20.5002 235.357 24.1233 235.357 28.5664L235.431 172.747L235.431 172.748Z" fill="white" stroke="white" stroke-width="4"/>
<path d="M133.527 172.798L133.453 28.6182C133.453 26.382 135.289 24.546 137.518 24.5459L137.519 24.5459L227.288 24.5C229.521 24.5002 231.357 26.3353 231.357 28.5674L231.357 28.5684L231.431 172.749C231.43 174.985 229.595 176.819 227.366 176.819L227.365 176.819L137.595 176.864C135.362 176.864 133.528 175.03 133.527 172.799L133.527 172.798Z" fill="white" stroke="#D8D8D8" stroke-width="4"/>
<ellipse cx="179.831" cy="120.216" rx="25.5534" ry="3.73953" fill="#A0A09F" fill-opacity="0.15"/>
<mask id="path-20-outside-1_1584_44984" maskUnits="userSpaceOnUse" x="154.016" y="60.123" width="52" height="65" fill="black">
<rect fill="white" x="154.016" y="60.123" width="52" height="65"/>
<path d="M174.994 64.1377C175.359 67.4715 175.614 70.7732 175.764 74.0576C176.026 71.2744 176.324 68.4897 176.665 65.7012C178.183 65.903 180.32 67.3568 180.253 67.9316C179.142 77.475 179.461 79.792 179.464 79.8096C180.268 76.833 180.283 75.1047 180.865 72.1953C181.378 71.7849 182.794 71.2208 184.103 71.25C184.07 70.7187 184.002 69.8024 183.964 69.2686C184.29 68.0961 186.057 67.218 187.958 67.0664C188.296 71.1395 188.37 73.408 188.519 77.3291C188.667 75.1675 188.88 73.7897 189.276 71.3047C189.879 70.2215 191.833 69.9735 193.333 70.2764C192.602 74.6297 192.353 76.9631 192.182 81.1699C193.054 77.7859 193.416 76.5645 193.78 73.2383C195.108 73.3646 196.474 73.7403 197.133 74.4727C197.39 73.5338 197.538 73.0453 197.778 72.0996C197.919 71.5466 200.037 71.1544 201.644 71.6025C201.098 75.1473 200.553 77.7378 199.59 81.0439L199.15 82.5098L198.818 83.7559H200.396C200.396 83.7559 199.307 92.3564 197.57 101.052C195.834 109.747 193.488 118.347 193.488 118.347L190.977 120.217C190.977 120.217 185.952 118.347 179.672 118.347C173.392 118.347 168.682 120.217 168.682 120.217L166.17 118.347C166.17 118.347 163.805 109.652 162.088 101.052C160.37 92.4518 159.262 83.7559 159.262 83.7559H161.074L160.508 82.5098C159.656 80.4375 158.729 78.8159 158.019 76.6494C157.935 76.3937 159.807 73.5653 161.279 73.1465C161.99 75.4445 162.773 77.6766 163.615 79.8623C163.257 76.5364 162.341 73.1543 161.521 69.7793C163 69.386 165.665 70.1868 165.724 70.4492C166.695 74.7621 167.237 76.1161 167.995 80.3779C167.821 76.8557 167.716 75.6777 167.18 72.9863C167.069 72.4262 169.231 70.8133 170.746 70.7002C171.284 73.1059 171.529 74.579 172.118 78.5723C172.082 74.1723 172.071 73.1307 171.424 66.5576C171.368 65.9898 173.84 63.935 174.994 64.1377Z"/>
</mask>
<path d="M174.994 64.1377C175.359 67.4715 175.614 70.7732 175.764 74.0576C176.026 71.2744 176.324 68.4897 176.665 65.7012C178.183 65.903 180.32 67.3568 180.253 67.9316C179.142 77.475 179.461 79.792 179.464 79.8096C180.268 76.833 180.283 75.1047 180.865 72.1953C181.378 71.7849 182.794 71.2208 184.103 71.25C184.07 70.7187 184.002 69.8024 183.964 69.2686C184.29 68.0961 186.057 67.218 187.958 67.0664C188.296 71.1395 188.37 73.408 188.519 77.3291C188.667 75.1675 188.88 73.7897 189.276 71.3047C189.879 70.2215 191.833 69.9735 193.333 70.2764C192.602 74.6297 192.353 76.9631 192.182 81.1699C193.054 77.7859 193.416 76.5645 193.78 73.2383C195.108 73.3646 196.474 73.7403 197.133 74.4727C197.39 73.5338 197.538 73.0453 197.778 72.0996C197.919 71.5466 200.037 71.1544 201.644 71.6025C201.098 75.1473 200.553 77.7378 199.59 81.0439L199.15 82.5098L198.818 83.7559H200.396C200.396 83.7559 199.307 92.3564 197.57 101.052C195.834 109.747 193.488 118.347 193.488 118.347L190.977 120.217C190.977 120.217 185.952 118.347 179.672 118.347C173.392 118.347 168.682 120.217 168.682 120.217L166.17 118.347C166.17 118.347 163.805 109.652 162.088 101.052C160.37 92.4518 159.262 83.7559 159.262 83.7559H161.074L160.508 82.5098C159.656 80.4375 158.729 78.8159 158.019 76.6494C157.935 76.3937 159.807 73.5653 161.279 73.1465C161.99 75.4445 162.773 77.6766 163.615 79.8623C163.257 76.5364 162.341 73.1543 161.521 69.7793C163 69.386 165.665 70.1868 165.724 70.4492C166.695 74.7621 167.237 76.1161 167.995 80.3779C167.821 76.8557 167.716 75.6777 167.18 72.9863C167.069 72.4262 169.231 70.8133 170.746 70.7002C171.284 73.1059 171.529 74.579 172.118 78.5723C172.082 74.1723 172.071 73.1307 171.424 66.5576C171.368 65.9898 173.84 63.935 174.994 64.1377Z" fill="white"/>
<path d="M174.994 64.1377L178.97 63.7025C178.777 61.9339 177.438 60.5057 175.686 60.198L174.994 64.1377ZM175.764 74.0576L171.768 74.2395C171.863 76.3384 173.566 78.0056 175.667 78.0564C177.767 78.1073 179.549 76.5246 179.746 74.4328L175.764 74.0576ZM176.665 65.7012L177.192 61.7361C176.133 61.5953 175.062 61.8839 174.217 62.5376C173.372 63.1913 172.824 64.1558 172.695 65.2161L176.665 65.7012ZM180.253 67.9316L184.226 68.3941L184.226 68.3936L180.253 67.9316ZM179.464 79.8096L175.502 80.3621C175.765 82.2449 177.316 83.6827 179.213 83.8017C181.111 83.9207 182.83 82.688 183.325 80.8528L179.464 79.8096ZM180.865 72.1953L178.367 69.0712C177.632 69.6589 177.128 70.4871 176.943 71.4099L180.865 72.1953ZM184.103 71.25L184.013 75.249C185.132 75.2739 186.209 74.8295 186.985 74.0235C187.76 73.2175 188.163 72.1236 188.095 71.0071L184.103 71.25ZM183.964 69.2686L180.11 68.196C179.987 68.6383 179.941 69.0984 179.974 69.5563L183.964 69.2686ZM187.958 67.0664L191.944 66.7355C191.762 64.539 189.837 62.9039 187.64 63.0791L187.958 67.0664ZM188.519 77.3291L184.521 77.4807C184.602 79.6056 186.331 81.296 188.457 81.3286C190.583 81.3612 192.364 79.7245 192.509 77.6031L188.519 77.3291ZM189.276 71.3047L185.781 69.36C185.554 69.7683 185.4 70.2133 185.326 70.6748L189.276 71.3047ZM193.333 70.2764L197.278 70.9389C197.635 68.8106 196.24 66.7825 194.124 66.3555L193.333 70.2764ZM192.182 81.1699L188.185 81.0068C188.102 83.0509 189.574 84.8285 191.598 85.1271C193.622 85.4257 195.545 84.149 196.055 82.1679L192.182 81.1699ZM193.78 73.2383L194.159 69.2562C191.982 69.0492 190.042 70.6287 189.804 72.8025L193.78 73.2383ZM197.133 74.4727L194.16 77.1486C195.138 78.2356 196.632 78.7021 198.055 78.3649C199.478 78.0278 200.604 76.9409 200.99 75.5305L197.133 74.4727ZM197.778 72.0996L201.655 73.0835L201.656 73.0831L197.778 72.0996ZM201.644 71.6025L205.597 72.2108C205.905 70.2094 204.669 68.2937 202.718 67.7496L201.644 71.6025ZM199.59 81.0439L203.421 82.1926C203.424 82.1826 203.427 82.1725 203.43 82.1624L199.59 81.0439ZM199.15 82.5098L195.319 81.3611C195.307 81.4005 195.296 81.4401 195.285 81.4799L199.15 82.5098ZM198.818 83.7559L194.953 82.726C194.633 83.9266 194.89 85.2078 195.647 86.1931C196.404 87.1784 197.576 87.7559 198.818 87.7559V83.7559ZM200.396 83.7559L204.365 84.2586C204.509 83.1192 204.157 81.9728 203.397 81.1111C202.638 80.2495 201.545 79.7559 200.396 79.7559V83.7559ZM197.57 101.052L201.493 101.835V101.835L197.57 101.052ZM193.488 118.347L195.877 121.555C196.594 121.021 197.112 120.262 197.347 119.399L193.488 118.347ZM190.977 120.217L189.581 123.966C190.853 124.439 192.277 124.235 193.365 123.425L190.977 120.217ZM179.672 118.347V114.347H179.672L179.672 118.347ZM168.682 120.217L166.293 123.425C167.406 124.254 168.868 124.446 170.158 123.935L168.682 120.217ZM166.17 118.347L162.31 119.396C162.545 120.26 163.063 121.02 163.781 121.555L166.17 118.347ZM162.088 101.052L158.165 101.835L158.165 101.835L162.088 101.052ZM159.262 83.7559V79.7559C158.113 79.7559 157.019 80.25 156.26 81.1123C155.5 81.9747 155.149 83.1219 155.294 84.2617L159.262 83.7559ZM161.074 83.7559V87.7559C162.434 87.7559 163.701 87.0648 164.437 85.9214C165.174 84.778 165.278 83.3387 164.716 82.1006L161.074 83.7559ZM160.508 82.5098L156.808 84.0311C156.827 84.0761 156.846 84.1207 156.866 84.165L160.508 82.5098ZM158.019 76.6494L154.217 77.8946L154.218 77.8956L158.019 76.6494ZM161.279 73.1465L165.101 71.9644C164.458 69.888 162.275 68.7044 160.185 69.2991L161.279 73.1465ZM163.615 79.8623L159.883 81.3C160.604 83.1743 162.604 84.2226 164.556 83.75C166.509 83.2774 167.808 81.4304 167.592 79.4334L163.615 79.8623ZM161.521 69.7793L160.493 65.9136C158.39 66.4725 157.12 68.6097 157.634 70.7239L161.521 69.7793ZM165.724 70.4492L161.821 71.3269L161.821 71.3284L165.724 70.4492ZM167.995 80.3779L164.057 81.0782C164.426 83.1566 166.348 84.59 168.445 84.3525C170.543 84.115 172.095 82.2884 171.99 80.1799L167.995 80.3779ZM167.18 72.9863L163.255 73.76L163.257 73.7677L167.18 72.9863ZM170.746 70.7002L174.65 69.8268C174.216 67.8898 172.428 66.5635 170.448 66.7113L170.746 70.7002ZM172.118 78.5723L168.161 79.1558C168.468 81.2352 170.331 82.7226 172.427 82.5603C174.523 82.398 176.135 80.6414 176.118 78.5396L172.118 78.5723ZM171.424 66.5576L175.405 66.166L175.405 66.1655L171.424 66.5576ZM174.994 64.1377L171.018 64.5728C171.374 67.823 171.622 71.0403 171.768 74.2395L175.764 74.0576L179.76 73.8757C179.606 70.5062 179.344 67.12 178.97 63.7025L174.994 64.1377ZM175.764 74.0576L179.746 74.4328C180.005 71.6837 180.3 68.9358 180.636 66.1862L176.665 65.7012L172.695 65.2161C172.349 68.0437 172.047 70.8651 171.781 73.6824L175.764 74.0576ZM176.665 65.7012L176.138 69.6663C176.056 69.6554 176.119 69.6547 176.324 69.7409C176.51 69.8191 176.713 69.927 176.889 70.0402C177.085 70.1668 177.131 70.2239 177.069 70.1607C177.044 70.1348 176.887 69.9738 176.717 69.6807C176.628 69.5274 176.5 69.2753 176.401 68.9359C176.302 68.5966 176.208 68.0869 176.28 67.4697L180.253 67.9316L184.226 68.3936C184.38 67.0745 183.877 66.0812 183.643 65.6773C183.364 65.1939 183.038 64.8234 182.799 64.5773C182.308 64.0735 181.737 63.6468 181.218 63.3128C180.242 62.6847 178.759 61.9444 177.192 61.7361L176.665 65.7012ZM180.253 67.9316L176.28 67.4692C175.162 77.0716 175.426 79.8126 175.502 80.3621L179.464 79.8096L183.426 79.257C183.497 79.7714 183.122 77.8785 184.226 68.3941L180.253 67.9316ZM179.464 79.8096L183.325 80.8528C183.782 79.1619 184.014 77.8222 184.202 76.5767C184.393 75.3205 184.521 74.3133 184.787 72.9807L180.865 72.1953L176.943 71.4099C176.627 72.9867 176.456 74.2984 176.293 75.3778C176.128 76.468 175.95 77.4807 175.602 78.7664L179.464 79.8096ZM180.865 72.1953L183.363 75.3195C183.26 75.4019 183.188 75.4464 183.168 75.4587C183.143 75.4737 183.139 75.4743 183.16 75.464C183.205 75.4422 183.295 75.4031 183.42 75.3626C183.543 75.3227 183.67 75.291 183.787 75.2711C183.906 75.2509 183.983 75.2483 184.013 75.249L184.103 71.25L184.192 67.251C182.974 67.2238 181.836 67.4661 180.951 67.753C180.136 68.0175 179.149 68.4458 178.367 69.0712L180.865 72.1953ZM184.103 71.25L188.095 71.0071C188.061 70.4462 187.99 69.4935 187.954 68.9808L183.964 69.2686L179.974 69.5563C180.014 70.1112 180.079 70.9912 180.11 71.4929L184.103 71.25ZM183.964 69.2686L187.817 70.3411C187.682 70.8283 187.444 71.1172 187.334 71.231C187.226 71.3434 187.177 71.3543 187.256 71.312C187.328 71.2739 187.459 71.2162 187.65 71.163C187.839 71.1106 188.053 71.0716 188.276 71.0538L187.958 67.0664L187.64 63.0791C186.218 63.1924 184.754 63.5784 183.484 64.2572C182.326 64.8767 180.695 66.0957 180.11 68.196L183.964 69.2686ZM187.958 67.0664L183.972 67.3973C184.302 71.37 184.373 73.5559 184.521 77.4807L188.519 77.3291L192.516 77.1775C192.367 73.2601 192.291 70.909 191.944 66.7355L187.958 67.0664ZM188.519 77.3291L192.509 77.6031C192.644 75.6343 192.832 74.4088 193.226 71.9346L189.276 71.3047L185.326 70.6748C184.928 73.1705 184.69 74.7006 184.528 77.0551L188.519 77.3291ZM189.276 71.3047L192.772 73.2494C192.499 73.7397 192.151 73.9926 191.977 74.0949C191.81 74.1926 191.73 74.1981 191.799 74.1835C191.857 74.1712 191.971 74.1559 192.127 74.1569C192.281 74.1578 192.427 74.1742 192.542 74.1973L193.333 70.2764L194.124 66.3555C192.899 66.1081 191.48 66.0728 190.137 66.358C188.931 66.6142 186.91 67.3304 185.781 69.36L189.276 71.3047ZM193.333 70.2764L189.388 69.6139C188.631 74.1225 188.364 76.6229 188.185 81.0068L192.182 81.1699L196.178 81.3331C196.343 77.3034 196.573 75.1369 197.278 70.9389L193.333 70.2764ZM192.182 81.1699L196.055 82.1679C196.926 78.7897 197.357 77.3171 197.756 73.6741L193.78 73.2383L189.804 72.8025C189.474 75.8119 189.182 76.7821 188.308 80.1719L192.182 81.1699ZM193.78 73.2383L193.402 77.2203C193.847 77.2627 194.198 77.3396 194.415 77.4138C194.519 77.449 194.542 77.467 194.509 77.4478C194.479 77.4303 194.335 77.3433 194.16 77.1486L197.133 74.4727L200.106 71.7967C199.132 70.7143 197.903 70.151 196.999 69.8426C196.037 69.5143 195.042 69.3402 194.159 69.2562L193.78 73.2383ZM197.133 74.4727L200.99 75.5305C201.226 74.6727 201.403 74.0764 201.655 73.0835L197.778 72.0996L193.901 71.1157C193.673 72.0143 193.555 72.3949 193.275 73.4148L197.133 74.4727ZM197.778 72.0996L201.656 73.0831C201.393 74.1181 200.782 74.7188 200.496 74.9599C200.186 75.2211 199.923 75.3442 199.832 75.3846C199.643 75.468 199.595 75.4551 199.749 75.4322C200.061 75.3859 200.411 75.4115 200.569 75.4555L201.644 71.6025L202.718 67.7496C201.269 67.3455 199.758 67.3431 198.573 67.5191C197.979 67.6074 197.275 67.7682 196.599 68.0667C196.265 68.2146 195.8 68.4556 195.341 68.8423C194.906 69.209 194.199 69.9429 193.901 71.1162L197.778 72.0996ZM201.644 71.6025L197.69 70.9943C197.167 74.3957 196.656 76.8127 195.749 79.9255L199.59 81.0439L203.43 82.1624C204.449 78.6629 205.03 75.899 205.597 72.2108L201.644 71.6025ZM199.59 81.0439L195.758 79.8953L195.319 81.3611L199.15 82.5098L202.982 83.6585L203.421 82.1926L199.59 81.0439ZM199.15 82.5098L195.285 81.4799L194.953 82.726L198.818 83.7559L202.683 84.7858L203.016 83.5397L199.15 82.5098ZM198.818 83.7559V87.7559H200.396V83.7559V79.7559H198.818V83.7559ZM200.396 83.7559C196.428 83.2531 196.428 83.253 196.428 83.2529C196.428 83.2529 196.428 83.2529 196.428 83.2529C196.428 83.253 196.428 83.2532 196.428 83.2536C196.428 83.2542 196.428 83.2554 196.428 83.2571C196.427 83.2605 196.427 83.266 196.426 83.2735C196.424 83.2885 196.421 83.3116 196.417 83.3425C196.409 83.4045 196.397 83.4978 196.38 83.6205C196.348 83.8658 196.3 84.2284 196.236 84.6918C196.109 85.6186 195.921 86.9471 195.68 88.545C195.196 91.7462 194.499 96.0036 193.648 100.268L197.57 101.052L201.493 101.835C202.378 97.4045 203.095 93.014 203.59 89.7411C203.838 88.1019 204.031 86.7368 204.162 85.7793C204.228 85.3005 204.278 84.9233 204.312 84.6643C204.329 84.5349 204.342 84.4349 204.351 84.3666C204.355 84.3325 204.359 84.3062 204.361 84.2881C204.362 84.2791 204.363 84.2721 204.364 84.2671C204.364 84.2647 204.364 84.2627 204.364 84.2613C204.365 84.2606 204.365 84.26 204.365 84.2596C204.365 84.2593 204.365 84.2591 204.365 84.259C204.365 84.2588 204.365 84.2586 200.396 83.7559ZM197.57 101.052L193.648 100.268C192.796 104.534 191.791 108.793 190.996 111.996C190.599 113.595 190.256 114.925 190.013 115.853C189.891 116.316 189.794 116.68 189.729 116.925C189.696 117.048 189.67 117.142 189.654 117.204C189.645 117.235 189.639 117.258 189.635 117.273C189.633 117.281 189.631 117.287 189.63 117.29C189.63 117.292 189.63 117.293 189.629 117.294C189.629 117.294 189.629 117.294 189.629 117.294C189.629 117.294 189.629 117.294 189.629 117.294C189.629 117.294 189.629 117.294 193.488 118.347C197.347 119.399 197.347 119.399 197.347 119.399C197.347 119.399 197.348 119.398 197.348 119.398C197.348 119.398 197.348 119.397 197.348 119.397C197.348 119.395 197.349 119.393 197.35 119.391C197.351 119.386 197.353 119.379 197.355 119.37C197.36 119.352 197.367 119.326 197.376 119.292C197.395 119.224 197.422 119.124 197.456 118.995C197.525 118.737 197.626 118.36 197.751 117.882C198.002 116.925 198.354 115.561 198.76 113.924C199.572 110.653 200.608 106.265 201.493 101.835L197.57 101.052ZM193.488 118.347L191.099 115.138L188.588 117.008L190.977 120.217L193.365 123.425L195.877 121.555L193.488 118.347ZM190.977 120.217C192.372 116.468 192.371 116.468 192.37 116.467C192.37 116.467 192.369 116.467 192.369 116.467C192.367 116.466 192.366 116.466 192.365 116.465C192.362 116.464 192.359 116.463 192.356 116.462C192.35 116.46 192.342 116.457 192.333 116.454C192.315 116.447 192.292 116.439 192.264 116.429C192.209 116.409 192.135 116.383 192.042 116.351C191.856 116.288 191.597 116.202 191.271 116.102C190.62 115.901 189.701 115.641 188.572 115.383C186.329 114.869 183.193 114.347 179.672 114.347V118.347V122.347C182.431 122.347 184.947 122.76 186.786 123.181C187.699 123.39 188.428 123.597 188.916 123.747C189.159 123.822 189.341 123.883 189.455 123.922C189.512 123.941 189.551 123.955 189.573 123.963C189.583 123.966 189.59 123.969 189.591 123.969C189.592 123.969 189.591 123.969 189.59 123.969C189.589 123.968 189.588 123.968 189.586 123.967C189.586 123.967 189.585 123.967 189.584 123.967C189.584 123.966 189.583 123.966 189.583 123.966C189.582 123.966 189.581 123.966 190.977 120.217ZM179.672 118.347L179.672 114.347C176.146 114.347 173.08 114.87 170.895 115.391C169.798 115.652 168.909 115.916 168.28 116.12C167.965 116.223 167.714 116.31 167.533 116.376C167.443 116.409 167.37 116.436 167.315 116.457C167.287 116.467 167.265 116.476 167.246 116.483C167.237 116.487 167.229 116.49 167.222 116.492C167.219 116.494 167.216 116.495 167.213 116.496C167.212 116.497 167.21 116.497 167.209 116.498C167.209 116.498 167.208 116.498 167.207 116.498C167.207 116.499 167.206 116.499 168.682 120.217C170.158 123.935 170.157 123.935 170.156 123.935C170.156 123.935 170.155 123.936 170.154 123.936C170.154 123.936 170.153 123.936 170.152 123.937C170.15 123.937 170.149 123.938 170.148 123.938C170.145 123.939 170.144 123.94 170.144 123.94C170.144 123.94 170.149 123.938 170.157 123.935C170.175 123.928 170.209 123.915 170.259 123.897C170.361 123.86 170.527 123.802 170.752 123.729C171.202 123.583 171.883 123.379 172.749 123.173C174.489 122.758 176.918 122.347 179.672 122.347L179.672 118.347ZM168.682 120.217L171.07 117.008L168.559 115.138L166.17 118.347L163.781 121.555L166.293 123.425L168.682 120.217ZM166.17 118.347C170.03 117.297 170.03 117.297 170.03 117.297C170.03 117.297 170.03 117.297 170.03 117.297C170.03 117.297 170.03 117.297 170.03 117.296C170.029 117.296 170.029 117.294 170.029 117.293C170.028 117.289 170.026 117.284 170.024 117.276C170.02 117.261 170.014 117.237 170.005 117.206C169.988 117.143 169.963 117.048 169.929 116.924C169.863 116.675 169.766 116.309 169.643 115.841C169.398 114.905 169.053 113.566 168.655 111.961C167.857 108.745 166.853 104.486 166.01 100.268L162.088 101.052L158.165 101.835C159.041 106.218 160.077 110.606 160.891 113.887C161.298 115.531 161.652 116.903 161.904 117.866C162.03 118.348 162.131 118.728 162.201 118.989C162.235 119.119 162.262 119.22 162.281 119.288C162.29 119.323 162.297 119.349 162.302 119.367C162.305 119.376 162.306 119.383 162.308 119.388C162.308 119.39 162.309 119.392 162.309 119.394C162.31 119.394 162.31 119.395 162.31 119.395C162.31 119.396 162.31 119.396 162.31 119.396C162.31 119.396 162.31 119.396 166.17 118.347ZM162.088 101.052L166.01 100.268C165.168 96.0517 164.472 91.7944 163.986 88.5801C163.743 86.9759 163.553 85.638 163.424 84.7033C163.36 84.236 163.311 83.8698 163.278 83.6218C163.262 83.4979 163.249 83.4034 163.241 83.3407C163.237 83.3094 163.234 83.286 163.232 83.2708C163.231 83.2632 163.231 83.2576 163.23 83.2541C163.23 83.2524 163.23 83.2512 163.23 83.2505C163.23 83.2501 163.23 83.2499 163.23 83.2498C163.23 83.2498 163.23 83.2498 163.23 83.2498C163.23 83.2499 163.23 83.25 159.262 83.7559C155.294 84.2617 155.294 84.2619 155.294 84.2621C155.294 84.2622 155.294 84.2625 155.294 84.2627C155.294 84.2631 155.294 84.2637 155.294 84.2644C155.294 84.2658 155.295 84.2678 155.295 84.2703C155.296 84.2752 155.296 84.2823 155.298 84.2914C155.3 84.3096 155.303 84.336 155.308 84.3705C155.317 84.4394 155.33 84.5402 155.347 84.6708C155.382 84.9319 155.433 85.3123 155.499 85.7947C155.632 86.7592 155.827 88.1328 156.076 89.7776C156.573 93.0612 157.29 97.4518 158.165 101.835L162.088 101.052ZM159.262 83.7559V87.7559H161.074V83.7559V79.7559H159.262V83.7559ZM161.074 83.7559L164.716 82.1006L164.149 80.8546L160.508 82.5098L156.866 84.165L157.433 85.4111L161.074 83.7559ZM160.508 82.5098L164.207 80.9884C163.742 79.8582 163.234 78.7979 162.849 77.9536C162.443 77.0661 162.106 76.2764 161.819 75.4033L158.019 76.6494L154.218 77.8956C154.642 79.1889 155.122 80.2933 155.571 81.2762C156.04 82.3025 156.421 83.0891 156.808 84.0311L160.508 82.5098ZM158.019 76.6494L161.82 75.4043C161.944 75.7831 161.99 76.1161 162.006 76.3589C162.024 76.6054 162.015 76.814 162.001 76.9683C161.975 77.2668 161.919 77.4968 161.885 77.6211C161.818 77.8687 161.743 78.0369 161.724 78.0802C161.676 78.1859 161.657 78.2084 161.705 78.1286C161.79 77.9893 161.955 77.7462 162.173 77.4781C162.393 77.2061 162.597 76.9943 162.746 76.8666C162.817 76.8055 162.838 76.7958 162.807 76.8149C162.783 76.8293 162.635 76.9194 162.374 76.9939L161.279 73.1465L160.185 69.2991C158.998 69.6367 158.082 70.3256 157.528 70.8025C156.914 71.3309 156.379 71.9207 155.958 72.4401C155.534 72.9634 155.155 73.5016 154.866 73.9776C154.728 74.2054 154.564 74.4941 154.425 74.8051C154.359 74.951 154.251 75.2067 154.165 75.524C154.122 75.6832 154.06 75.9436 154.032 76.2678C154.007 76.5471 153.978 77.1646 154.217 77.8946L158.019 76.6494ZM161.279 73.1465L157.458 74.3286C158.198 76.7207 159.011 79.0382 159.883 81.3L163.615 79.8623L167.348 78.4247C166.535 76.3149 165.782 74.1682 165.101 71.9644L161.279 73.1465ZM163.615 79.8623L167.592 79.4334C167.198 75.7736 166.188 72.0475 165.407 68.8347L161.521 69.7793L157.634 70.7239C158.493 74.2612 159.316 77.2992 159.638 80.2912L163.615 79.8623ZM161.521 69.7793L162.548 73.645C162.361 73.6948 162.345 73.6633 162.585 73.6758C162.789 73.6864 163.048 73.7221 163.317 73.7797C163.592 73.8386 163.781 73.8995 163.841 73.9222C163.887 73.9395 163.786 73.9062 163.611 73.8069C163.532 73.7623 163.311 73.6329 163.052 73.4073C162.92 73.2915 162.71 73.0924 162.497 72.8048C162.293 72.5292 161.979 72.0308 161.821 71.3269L165.724 70.4492L169.626 69.5715C169.331 68.261 168.487 67.532 168.314 67.3809C168.009 67.1149 167.722 66.9418 167.563 66.851C167.225 66.6592 166.894 66.5234 166.659 66.4348C166.157 66.2458 165.575 66.0819 164.992 65.957C163.992 65.7428 162.182 65.4645 160.493 65.9136L161.521 69.7793ZM165.724 70.4492L161.821 71.3284C162.887 76.0561 163.31 76.8765 164.057 81.0782L167.995 80.3779L171.933 79.6777C171.165 75.3557 170.504 73.4682 169.626 69.57L165.724 70.4492ZM167.995 80.3779L171.99 80.1799C171.811 76.557 171.692 75.1639 171.103 72.205L167.18 72.9863L163.257 73.7677C163.739 76.1914 163.83 77.1544 164 80.5759L167.995 80.3779ZM167.18 72.9863L171.104 72.2127C171.234 72.8738 171.163 73.4304 171.076 73.7955C170.989 74.1606 170.864 74.4323 170.779 74.5939C170.616 74.9035 170.46 75.0748 170.436 75.1004C170.376 75.167 170.419 75.1083 170.604 74.9823C170.771 74.8689 170.951 74.7705 171.098 74.7079C171.273 74.6338 171.248 74.6738 171.044 74.6891L170.746 70.7002L170.448 66.7113C168.674 66.8437 167.062 67.7156 166.103 68.369C165.572 68.7304 165.001 69.187 164.518 69.717C164.284 69.9744 163.965 70.3645 163.699 70.8699C163.485 71.2768 162.98 72.363 163.255 73.76L167.18 72.9863ZM170.746 70.7002L166.843 71.5735C167.348 73.8313 167.576 75.1867 168.161 79.1558L172.118 78.5723L176.075 77.9887C175.483 73.9713 175.221 72.3805 174.65 69.8268L170.746 70.7002ZM172.118 78.5723L176.118 78.5396C176.081 74.015 176.063 72.8536 175.405 66.166L171.424 66.5576L167.443 66.9493C168.079 73.4079 168.083 74.3296 168.118 78.605L172.118 78.5723ZM171.424 66.5576L175.405 66.1655C175.474 66.8726 175.33 67.4195 175.239 67.6933C175.141 67.9888 175.027 68.198 174.966 68.3035C174.898 68.4183 174.842 68.4946 174.816 68.5294C174.801 68.549 174.79 68.563 174.783 68.5713C174.776 68.5797 174.772 68.584 174.772 68.5843C174.771 68.5846 174.774 68.5819 174.779 68.5764C174.784 68.5708 174.792 68.563 174.802 68.5532C174.822 68.5331 174.85 68.5073 174.884 68.4766C174.954 68.4143 175.04 68.3438 175.136 68.2731C175.347 68.1168 175.503 68.0333 175.552 68.0117C175.573 68.0024 175.499 68.0387 175.34 68.0725C175.198 68.1027 174.819 68.1682 174.302 68.0774L174.994 64.1377L175.686 60.198C174.201 59.9373 172.924 60.4281 172.33 60.6892C171.593 61.0136 170.919 61.4413 170.374 61.8443C169.83 62.2476 169.278 62.7283 168.82 63.2386C168.598 63.4861 168.312 63.8347 168.062 64.2611C167.914 64.5147 167.305 65.5509 167.443 66.9497L171.424 66.5576Z" fill="white" mask="url(#path-20-outside-1_1584_44984)"/>
<path fill-rule="evenodd" clip-rule="evenodd" d="M159.262 83.7559H164.248C164.248 83.7559 168.368 95.5977 179.672 95.5977C190.976 95.5977 195.41 83.7559 195.41 83.7559H200.397C200.397 83.7559 199.307 92.3558 197.57 101.051C195.834 109.747 193.488 118.347 193.488 118.347L190.976 120.216C190.976 120.216 185.952 118.347 179.672 118.347C173.392 118.347 168.682 120.216 168.682 120.216L166.17 118.347C166.17 118.347 163.805 109.651 162.088 101.051C160.37 92.4512 159.262 83.7559 159.262 83.7559Z" fill="#DB0007"/>
<path fill-rule="evenodd" clip-rule="evenodd" d="M182.841 99.3379C181.437 99.3379 180.185 101.141 179.365 103.96C178.546 101.141 177.293 99.3379 175.888 99.3379C173.42 99.3379 171.418 105.337 171.418 112.738H173.405C173.405 105.866 174.517 100.295 175.888 100.295C177.26 100.295 178.372 105.438 178.372 111.781H180.358C180.358 105.438 181.47 100.295 182.841 100.295C184.213 100.295 185.325 105.866 185.325 112.738H187.311C187.311 105.337 185.31 99.3379 182.841 99.3379Z" fill="#FFBC0D"/>
<path fill-rule="evenodd" clip-rule="evenodd" d="M165.495 82.5091C165.495 82.5091 169.546 94.3509 179.83 94.3509C190.113 94.3509 194.164 82.5091 194.164 82.5091C194.164 82.5091 196.969 82.5091 199.15 82.5091C200.397 78.4579 201.02 75.6533 201.643 71.6021C200.037 71.154 197.919 71.5459 197.779 72.0988C197.539 73.0448 197.39 73.5332 197.133 74.4721C196.474 73.7398 195.109 73.3645 193.781 73.2382C193.416 76.5645 193.054 77.7855 192.182 81.1696C192.354 76.9628 192.602 74.6296 193.333 70.2763C191.832 69.9734 189.879 70.2207 189.276 71.3039C188.88 73.7892 188.668 75.1671 188.519 77.3291C188.371 73.4077 188.296 71.1394 187.958 67.0662C186.057 67.2178 184.291 68.0952 183.964 69.2677C184.003 69.8016 184.071 70.7186 184.103 71.25C182.794 71.2208 181.379 71.7842 180.866 72.1946C180.283 75.1043 180.268 76.8325 179.464 79.8093C179.464 79.8093 179.139 77.5112 180.254 67.9313C180.321 67.3564 178.183 65.9022 176.666 65.7003C176.325 68.4891 176.026 71.2739 175.764 74.0573C175.614 70.7728 175.36 67.471 174.995 64.1371C173.84 63.9339 171.368 65.9889 171.424 66.5567C172.07 73.1304 172.082 74.1718 172.118 78.572C171.529 74.5785 171.284 73.1054 170.746 70.6996C169.231 70.8127 167.068 72.4267 167.18 72.9864C167.716 75.6777 167.82 76.8553 167.995 80.3774C167.237 76.1156 166.695 74.7618 165.723 70.4489C165.664 70.1864 163.001 69.3853 161.521 69.7786C162.341 73.1537 163.256 76.5358 163.615 79.8618C162.773 77.676 161.99 75.4439 161.279 73.1458C159.807 73.5646 157.935 76.3929 158.018 76.6487C158.729 78.8154 159.656 80.4367 160.509 82.5091H165.495Z" fill="#FFBC0D"/>
<path d="M146.017 148.273C144.331 148.273 142.965 146.751 142.965 144.874C142.965 142.997 144.331 141.475 146.017 141.475L216.652 141.475C218.337 141.475 219.704 142.997 219.704 144.874C219.704 146.751 218.337 148.273 216.652 148.273L146.017 148.273Z" fill="#F1F1F1"/>
<path d="M145.135 160.172C143.937 160.172 142.965 158.649 142.965 156.772C142.965 154.895 143.937 153.373 145.135 153.373L195.365 153.373C196.563 153.373 197.535 154.895 197.535 156.772C197.535 158.649 196.563 160.172 195.365 160.172L145.135 160.172Z" fill="#F1F1F1"/>
<path d="M280.943 197.003C279.633 201.051 275.34 203.428 271.182 202.314L271.183 202.315L184.466 179.121L184.465 179.121C180.177 177.971 177.609 173.532 178.759 169.24L216.011 29.9592L216.012 29.9582C217.161 25.6703 221.598 23.0997 225.89 24.2496L225.89 24.2487L312.606 47.4436L312.607 47.4438C316.895 48.5932 319.463 53.0326 318.313 57.3244L281.06 196.605L281.06 196.606L280.943 197.003Z" fill="white" stroke="white" stroke-width="4"/>
<path d="M182.623 170.274L219.875 30.9938C220.454 28.8339 222.703 27.5356 224.855 28.1126L224.856 28.1128L311.572 51.3075C313.728 51.8855 315.027 54.1336 314.449 56.2897L314.449 56.2907L277.196 195.572C276.617 197.731 274.37 199.028 272.218 198.451L272.216 198.451L185.5 175.256C183.344 174.677 182.045 172.431 182.623 170.275L182.623 170.274Z" fill="white" stroke="#D8D8D8" stroke-width="4"/>
<path d="M201.036 149.823C199.408 149.387 198.482 147.563 198.968 145.75C199.454 143.937 201.168 142.82 202.795 143.257L271.024 161.539C272.652 161.975 273.578 163.799 273.092 165.612C272.606 167.425 270.892 168.541 269.264 168.105L201.036 149.823Z" fill="#F1F1F1"/>
<path d="M197.102 161.087C195.944 160.777 195.4 159.055 195.886 157.242C196.372 155.429 197.704 154.21 198.862 154.521L247.38 167.522C248.537 167.832 249.082 169.553 248.596 171.366C248.11 173.18 246.777 174.398 245.62 174.088L197.102 161.087Z" fill="#F1F1F1"/>
<ellipse cx="246.02" cy="128.582" rx="19.2885" ry="3.6166" transform="rotate(15.1533 246.02 128.582)" fill="#A0A09F" fill-opacity="0.15"/>
<path d="M268.372 52.7279L271.295 53.9779C272.103 54.3231 272.478 55.2579 272.132 56.0652L263.036 77.3352L263.154 77.3721C264.569 77.8251 265.973 78.3173 267.367 78.8479L267.963 79.0773C269.038 79.4961 269.751 80.5167 269.784 81.6587L269.786 81.7158L273.48 82.7162C274.654 83.034 275.434 84.1358 275.353 85.3411L275.347 85.4244L275.044 88.4685C274.971 89.1994 274.417 89.7574 273.737 89.8772L273.709 89.8816L273.633 90.0997C271.506 96.4662 269.289 102.824 266.98 109.172L266.348 110.903C263.812 117.827 261.178 124.705 258.449 131.539C258.174 132.229 257.458 132.636 256.724 132.52C253.005 131.932 249.335 131.161 245.71 130.204L245.036 130.023C241.196 128.983 237.412 127.736 233.685 126.281C232.994 126.011 232.58 125.298 232.69 124.563C233.789 117.251 234.988 109.983 236.285 102.762C236.934 99.1506 237.609 95.5419 238.311 91.9342L238.663 90.1326C239.255 87.1284 239.865 84.1259 240.491 81.1384L240.539 80.8996L240.514 80.8785C240.005 80.4456 239.806 79.7179 240.072 79.0664L240.099 79.0049L241.373 76.2237C241.891 75.0934 243.151 74.5027 244.351 74.8274L248.046 75.8281L248.076 75.7797C248.666 74.8356 249.754 74.316 250.863 74.4574L250.951 74.47C252.777 74.7601 254.588 75.1096 256.382 75.519L256.851 75.6276L266.286 53.5652C266.631 52.758 267.565 52.3829 268.372 52.7279Z" fill="white"/>
<path fill-rule="evenodd" clip-rule="evenodd" d="M242.051 81.4512C246.953 83.2179 251.91 84.78 256.922 86.1375C261.935 87.495 267.003 88.6479 272.126 89.5962C269.812 96.527 267.389 103.447 264.857 110.356C262.325 117.266 259.698 124.13 256.974 130.95C253.078 130.334 249.238 129.514 245.453 128.489C241.668 127.464 237.938 126.234 234.264 124.8C235.36 117.502 236.556 110.249 237.85 103.042C239.145 95.8354 240.545 88.6383 242.051 81.4512Z" fill="white"/>
<path fill-rule="evenodd" clip-rule="evenodd" d="M272.124 89.5959C272.124 89.5959 268.652 99.9921 264.854 110.356C261.057 120.72 256.971 130.95 256.971 130.95C256.971 130.95 251.128 130.026 245.45 128.488C249.926 129.7 256.01 116.152 263.704 87.8426C268.358 88.9055 272.124 89.5959 272.124 89.5959Z" fill="#EAEAEA"/>
<path fill-rule="evenodd" clip-rule="evenodd" d="M243.349 102.366C243.283 96.9162 242.169 92.8153 240.087 91.1384C240.088 91.1309 240.088 91.1309 239.488 94.2308C240.666 98.0842 239.65 107.739 236.699 118.637L240.881 119.769C244.579 106.113 249.917 95.6755 252.804 96.4573C255.69 97.2391 254.783 109.866 250.777 124.66L254.957 125.792C259.271 109.86 258.558 95.8035 253.362 94.3963C250.406 93.5959 246.719 96.7636 243.349 102.366Z" fill="#FFBC0D"/>
<g style="mix-blend-mode:multiply" opacity="0.24">
<path d="M257.767 107.716C257.667 112.907 256.746 119.188 254.958 125.791L250.778 124.659C250.839 124.432 250.899 124.206 250.958 123.98C253.015 120.519 255.283 115.098 257.767 107.716Z" fill="#D8D8D8"/>
</g>
<path d="M267.746 54.1895L270.669 55.4396L260.38 79.5003L257.283 78.657L267.746 54.1895Z" fill="#A0A09F" fill-opacity="0.15"/>
<path d="M269.172 54.9473L270.049 55.3223L259.725 79.4644L258.796 79.2114L269.172 54.9473Z" fill="#EAEAEA"/>
<path fill-rule="evenodd" clip-rule="evenodd" d="M243.941 76.3618L273.07 84.2506C273.52 84.3725 273.816 84.8019 273.77 85.2659L273.466 88.3108C268.036 87.2794 262.661 86.0433 257.342 84.6027C252.022 83.1621 246.758 81.5169 241.55 79.6671L242.824 76.8852C243.018 76.4613 243.491 76.2399 243.941 76.3618Z" fill="#EAEAEA"/>
<path fill-rule="evenodd" clip-rule="evenodd" d="M250.706 76.0386C253.568 76.4931 256.389 77.0968 259.17 77.8499C261.951 78.603 264.691 79.5054 267.391 80.5571C267.893 80.7528 268.218 81.2439 268.2 81.7828L268.185 82.2678L249.158 77.1148L249.389 76.6883C249.646 76.2144 250.174 75.9541 250.706 76.0386Z" fill="#EAEAEA"/>
</svg>
