<svg width="140" height="140" viewBox="0 0 140 140" fill="none" xmlns="http://www.w3.org/2000/svg">
<g clip-path="url(#clip0_26_12542)">
<path d="M12.1267 139.999C12.1267 139.999 0 139.999 0 127.872V12.1267C0 12.1267 0 0 12.1267 0H127.872C127.872 0 139.999 0 139.999 12.1267V127.872C139.999 127.872 139.999 139.999 127.872 139.999H12.1267Z" fill="#264F36"/>
<path d="M90.3484 28.7709C82.1367 28.7709 74.8085 39.7131 70.0201 56.8189C65.2517 39.7131 57.8833 28.7709 49.6717 28.7709C35.2361 28.7709 23.5712 65.1811 23.5712 110.084H35.1358C35.1358 68.3734 41.6408 34.5733 49.6516 34.5733C57.6625 34.5733 64.2479 65.7935 64.2479 104.282H75.8124C75.8124 65.7935 82.3174 34.5833 90.3484 34.5833C98.3793 34.5833 104.874 68.3835 104.874 110.094H116.449C116.449 65.1811 104.774 28.7709 90.3484 28.7709Z" fill="#FFBC0D"/>
</g>
<defs>
<clipPath id="clip0_26_12542">
<rect width="139.46" height="139.46" fill="white" transform="scale(1.00387)"/>
</clipPath>
</defs>
</svg>
