<svg width="44" height="44" viewBox="0 0 44 44" fill="none" xmlns="http://www.w3.org/2000/svg">
<g clip-path="url(#clip0_17_28659)">
<path fill-rule="evenodd" clip-rule="evenodd" d="M18.6165 11.8457C19.0838 11.8457 19.4627 12.2245 19.4627 12.6919V14.3842C19.4627 14.8515 19.0838 15.2303 18.6165 15.2303C18.1492 15.2303 17.7704 14.8515 17.7704 14.3842V12.6919C17.7704 12.2245 18.1492 11.8457 18.6165 11.8457ZM23.4043 19.4622C24.4791 19.4819 25.4978 19.7378 26.4092 20.1805C27.0835 19.7265 27.8964 19.4609 28.7701 19.4609C31.1067 19.4609 33.0009 21.3551 33.0009 23.6917C33.0009 23.8082 32.9962 23.9236 32.9869 24.0379C34.4885 24.6876 35.5394 26.1816 35.5394 27.9225C35.5394 30.2591 33.6452 32.1532 31.3086 32.1532H16.924C14.5874 32.1532 12.6932 30.2591 12.6932 27.9225C12.6932 26.4159 13.4806 25.0933 14.6664 24.3438C13.9612 23.4719 13.5389 22.362 13.5389 21.1533C13.5389 18.3494 15.8119 16.0764 18.6158 16.0764C20.8268 16.0764 22.7076 17.4897 23.4043 19.4622ZM11.8471 21.9994C12.3144 21.9994 12.6932 21.6206 12.6932 21.1533C12.6932 20.686 12.3144 20.3071 11.8471 20.3071H10.1547C9.68743 20.3071 9.30859 20.686 9.30859 21.1533C9.30859 21.6206 9.68743 21.9994 10.1547 21.9994H11.8471ZM14.4279 16.965C14.0975 17.2955 13.5617 17.2955 13.2313 16.965L12.0346 15.7684C11.7042 15.4379 11.7042 14.9022 12.0346 14.5717C12.3651 14.2413 12.9008 14.2413 13.2313 14.5717L14.4279 15.7684C14.7583 16.0988 14.7583 16.6346 14.4279 16.965ZM24.0009 16.965C23.6704 17.2955 23.1347 17.2955 22.8042 16.965C22.4738 16.6346 22.4738 16.0988 22.8042 15.7684L24.0009 14.5717C24.3313 14.2413 24.8671 14.2413 25.1975 14.5717C25.528 14.9022 25.528 15.4379 25.1975 15.7684L24.0009 16.965Z" fill="white"/>
<path fill-rule="evenodd" clip-rule="evenodd" d="M18.6165 10.8457C19.6361 10.8457 20.4627 11.6723 20.4627 12.6919V14.3842C20.4627 14.714 20.3762 15.0236 20.2246 15.2916C20.719 15.427 21.1882 15.6233 21.6236 15.8718C21.7059 15.575 21.8637 15.2946 22.0971 15.0613L23.2938 13.8646C24.0147 13.1437 25.1836 13.1437 25.9046 13.8646C26.6256 14.5856 26.6256 15.7545 25.9046 16.4755L24.708 17.6721C24.4745 17.9056 24.1941 18.0634 23.8972 18.1457C23.9634 18.2618 24.026 18.3803 24.0846 18.5011C24.8749 18.5793 25.6335 18.77 26.3431 19.0573C27.069 18.6767 27.8957 18.4609 28.7701 18.4609C31.5725 18.4609 33.8601 20.6646 33.9946 23.4336C35.5176 24.3467 36.5394 26.0137 36.5394 27.9225C36.5394 30.8114 34.1975 33.1532 31.3086 33.1532H16.924C14.0351 33.1532 11.6932 30.8114 11.6932 27.9225C11.6932 26.4305 12.3183 25.085 13.3185 24.1329C13.0775 23.7053 12.8867 23.2454 12.7542 22.7615C12.4863 22.913 12.1768 22.9994 11.8471 22.9994H10.1547C9.13514 22.9994 8.30859 22.1729 8.30859 21.1533C8.30859 20.1337 9.13514 19.3071 10.1547 19.3071H11.8471C12.1767 19.3071 12.4862 19.3935 12.754 19.5449C12.8894 19.0504 13.0857 18.5811 13.3343 18.1455C13.0376 18.0632 12.7574 17.9054 12.5241 17.6721L11.3275 16.4755C10.6065 15.7545 10.6065 14.5856 11.3275 13.8646C12.0485 13.1437 13.2174 13.1437 13.9384 13.8646L15.135 15.0613C15.3683 15.2946 15.5261 15.5748 15.6084 15.8716C16.0441 15.6229 16.5136 15.4267 17.0082 15.2913C16.8568 15.0234 16.7704 14.7139 16.7704 14.3842V12.6919C16.7704 11.6723 17.5969 10.8457 18.6165 10.8457ZM18.1552 15.0936C18.2877 15.18 18.4459 15.2302 18.6158 15.2303C18.6161 15.2303 18.6163 15.2303 18.6165 15.2303C18.7866 15.2303 18.945 15.1801 19.0777 15.0937C19.3094 14.9428 19.4627 14.6814 19.4627 14.3842V12.6919C19.4627 12.2245 19.0838 11.8457 18.6165 11.8457C18.1492 11.8457 17.7704 12.2245 17.7704 12.6919V14.3842C17.7704 14.6813 17.9235 14.9427 18.1552 15.0936ZM17.9763 16.1163C17.0531 16.2323 16.207 16.5963 15.5068 17.1395C15.3377 17.2706 15.1772 17.4122 15.0261 17.5632C14.875 17.7143 14.7334 17.8749 14.6022 18.044C14.0592 18.7439 13.6952 19.5896 13.579 20.5125C13.5525 20.7224 13.5389 20.9362 13.5389 21.1533C13.5389 21.1533 13.5389 21.1533 13.5389 21.1533C13.5389 21.3704 13.5525 21.5842 13.579 21.7941C13.656 22.406 13.842 22.984 14.1169 23.5081C14.2727 23.8052 14.4571 24.085 14.6664 24.3438C14.3871 24.5203 14.1299 24.7286 13.8999 24.9637C13.1534 25.7266 12.6932 26.7708 12.6932 27.9225C12.6932 30.2591 14.5874 32.1532 16.924 32.1532H31.3086C33.6452 32.1532 35.5394 30.2591 35.5394 27.9225C35.5394 26.1816 34.4885 24.6876 32.9869 24.0379C32.9962 23.9236 33.0009 23.8082 33.0009 23.6917C33.0009 21.3551 31.1067 19.4609 28.7701 19.4609C27.8964 19.4609 27.0835 19.7265 26.4092 20.1805C25.4978 19.7378 24.4791 19.4819 23.4043 19.4622C23.2219 18.9459 22.9585 18.468 22.6292 18.0436C22.4982 17.8748 22.3567 17.7144 22.2058 17.5634C22.0549 17.4125 21.8945 17.271 21.7256 17.14C21.0255 16.5968 20.1795 16.2326 19.2563 16.1164C19.0468 16.0901 18.8332 16.0764 18.6165 16.0764C18.6163 16.0764 18.6161 16.0764 18.6158 16.0764C18.3992 16.0764 18.1858 16.09 17.9763 16.1163ZM14.6574 16.5424C14.7146 16.2718 14.6381 15.9785 14.4279 15.7684L13.2313 14.5717C12.9008 14.2413 12.3651 14.2413 12.0346 14.5717C11.7042 14.9022 11.7042 15.4379 12.0346 15.7684L13.2313 16.965C13.4414 17.1752 13.7346 17.2517 14.0052 17.1945C14.1601 17.1618 14.3076 17.0853 14.4279 16.965C14.5482 16.8447 14.6247 16.6973 14.6574 16.5424ZM12.5562 21.615C12.6428 21.4823 12.6932 21.3237 12.6932 21.1533C12.6932 21.1533 12.6932 21.1533 12.6932 21.1533C12.6932 20.9829 12.6428 20.8243 12.5562 20.6915C12.4052 20.4601 12.144 20.3071 11.8471 20.3071H10.1547C9.68743 20.3071 9.30859 20.686 9.30859 21.1533C9.30859 21.6206 9.68743 21.9994 10.1547 21.9994H11.8471C12.144 21.9994 12.4052 21.8465 12.5562 21.615ZM23.2261 17.1943C23.4969 17.2518 23.7905 17.1754 24.0009 16.965L25.1975 15.7684C25.528 15.4379 25.528 14.9022 25.1975 14.5717C24.8671 14.2413 24.3313 14.2413 24.0009 14.5717L22.8042 15.7684C22.5939 15.9787 22.5174 16.2722 22.5749 16.543C22.6077 16.6977 22.6841 16.8449 22.8042 16.965C22.9243 17.0851 23.0715 17.1615 23.2261 17.1943Z" fill="white"/>
<path d="M23.6929 21.1531C23.6929 23.957 21.4199 26.23 18.616 26.23C15.8121 26.23 13.5391 23.957 13.5391 21.1531C13.5391 18.3492 15.8121 16.0762 18.616 16.0762C21.4199 16.0762 23.6929 18.3492 23.6929 21.1531Z" fill="#FFBC0D"/>
<path fill-rule="evenodd" clip-rule="evenodd" d="M18.616 24.48C20.4534 24.48 21.9429 22.9905 21.9429 21.1531C21.9429 19.3157 20.4534 17.8262 18.616 17.8262C16.7786 17.8262 15.2891 19.3157 15.2891 21.1531C15.2891 22.9905 16.7786 24.48 18.616 24.48ZM18.616 26.23C21.4199 26.23 23.6929 23.957 23.6929 21.1531C23.6929 18.3492 21.4199 16.0762 18.616 16.0762C15.8121 16.0762 13.5391 18.3492 13.5391 21.1531C13.5391 23.957 15.8121 26.23 18.616 26.23Z" fill="#FFBC0D"/>
<path fill-rule="evenodd" clip-rule="evenodd" d="M18.6157 11.8457C19.083 11.8457 19.4618 12.2245 19.4618 12.6919V14.3842C19.4618 14.8515 19.083 15.2303 18.6157 15.2303C18.1484 15.2303 17.7695 14.8515 17.7695 14.3842V12.6919C17.7695 12.2245 18.1484 11.8457 18.6157 11.8457Z" fill="#FFBC0D"/>
<path fill-rule="evenodd" clip-rule="evenodd" d="M12.6914 21.1547C12.6914 21.6221 12.3126 22.0009 11.8453 22.0009L10.1529 22.0009C9.68563 22.0009 9.30679 21.6221 9.30679 21.1547C9.30679 20.6874 9.68563 20.3086 10.1529 20.3086L11.8453 20.3086C12.3126 20.3086 12.6914 20.6874 12.6914 21.1547Z" fill="#FFBC0D"/>
<path fill-rule="evenodd" clip-rule="evenodd" d="M14.429 16.9655C14.0986 17.296 13.5628 17.296 13.2324 16.9655L12.0357 15.7689C11.7053 15.4384 11.7053 14.9027 12.0357 14.5722C12.3662 14.2418 12.9019 14.2418 13.2324 14.5722L14.429 15.7689C14.7595 16.0993 14.7595 16.6351 14.429 16.9655Z" fill="#FFBC0D"/>
<path fill-rule="evenodd" clip-rule="evenodd" d="M22.8054 16.9655C23.1358 17.296 23.6716 17.296 24.002 16.9655L25.1986 15.7689C25.5291 15.4384 25.5291 14.9027 25.1986 14.5722C24.8682 14.2418 24.3324 14.2418 24.002 14.5722L22.8054 15.7689C22.4749 16.0993 22.4749 16.6351 22.8054 16.9655Z" fill="#FFBC0D"/>
<path fill-rule="evenodd" clip-rule="evenodd" d="M23.6909 21.1692C23.6909 21.1639 23.691 21.1586 23.691 21.1533C23.691 20.5604 23.5893 19.9912 23.4025 19.4622C24.4773 19.4819 25.496 19.7378 26.4074 20.1805C27.0817 19.7265 27.8946 19.4609 28.7683 19.4609C31.1049 19.4609 32.9991 21.3551 32.9991 23.6917C32.9991 23.8082 32.9944 23.9236 32.9851 24.0379C34.4867 24.6876 35.5376 26.1816 35.5376 27.9225C35.5376 30.2591 33.6434 32.1532 31.3068 32.1532H16.9222C14.5856 32.1532 12.6914 30.2591 12.6914 27.9225C12.6914 26.4159 13.4788 25.0933 14.6646 24.3437C15.05 24.8203 15.52 25.2257 16.0517 25.5372C15.0785 25.8924 14.3837 26.8263 14.3837 27.9225C14.3837 29.3244 15.5202 30.4609 16.9222 30.4609H31.3068C32.7087 30.4609 33.8453 29.3244 33.8453 27.9225C33.8453 26.7066 32.9895 25.6885 31.8468 25.4414L30.9664 25.251L31.2114 24.3842C31.2734 24.165 31.3068 23.933 31.3068 23.6917C31.3068 22.2898 30.1703 21.1532 28.7683 21.1532C28.1107 21.1532 27.5133 21.4022 27.0619 21.8124L26.5998 22.2323L26.0623 21.9146C25.358 21.4983 24.553 21.2346 23.6909 21.1692Z" fill="#FFBC0D"/>
</g>
<defs>
<clipPath id="clip0_17_28659">
<rect width="44" height="44" fill="white"/>
</clipPath>
</defs>
</svg>
