<svg width="27" height="18" viewBox="0 0 27 18" fill="none" xmlns="http://www.w3.org/2000/svg">
<g clip-path="url(#clip0_109_43871)">
<path d="M0 0H27V18H0V0Z" fill="#D01920"/>
<path d="M7.62891 4.69531H19.368V13.3042H7.62891V4.69531Z" fill="#017C3B"/>
<path d="M14.9485 11.545C13.5439 11.545 12.4051 10.4062 12.4051 9.00151C12.4051 7.59677 13.5438 6.45803 14.9485 6.45803C15.3865 6.45803 15.7986 6.56877 16.1584 6.76373C15.594 6.21176 14.8221 5.87109 13.9703 5.87109C12.2414 5.87109 10.8398 7.27261 10.8398 9.00151C10.8398 10.7304 12.2414 12.1319 13.9703 12.1319C14.8221 12.1319 15.594 11.7912 16.1584 11.2393C15.7987 11.4343 15.3866 11.545 14.9485 11.545Z" fill="white"/>
</g>
<rect x="0.5" y="0.5" width="26" height="17" rx="0.5" stroke="black" stroke-opacity="0.2"/>
<defs>
<clipPath id="clip0_109_43871">
<rect width="27" height="18" rx="1" fill="white"/>
</clipPath>
</defs>
</svg>
