<svg width="375" height="225" viewBox="0 0 375 225" fill="none" xmlns="http://www.w3.org/2000/svg">
<g clip-path="url(#clip0_102_69681)">
<path d="M184.5 4C262.096 4 325 66.904 325 144.5C325 163.443 321.249 181.51 314.453 198H54.5469C47.7506 181.51 44 163.443 44 144.5C44 66.904 106.904 4 184.5 4Z" fill="#DCEDF4"/>
<ellipse cx="184" cy="203" rx="153" ry="14" fill="#A0A09F" fill-opacity="0.15"/>
<path d="M316 97V124H264L264.005 97H316Z" fill="#FFBC0D"/>
<path d="M190.926 120H77V97H191L190.926 120Z" fill="#FFBC0D"/>
<path d="M191 99L190.97 108H77V99H191Z" fill="black" fill-opacity="0.1"/>
<path d="M316 99V108H264L264.002 99H316Z" fill="black" fill-opacity="0.1"/>
<path d="M264 124H287V203H264V124Z" fill="#F9F9F9"/>
<path d="M288 124H316V203H288V124Z" fill="#F9F9F9"/>
<path d="M191 89L190.967 98.999L73.8004 99C72.8061 99 72 98.1942 72 97.2002V90.8008C72 89.8068 72.8061 89.001 73.8004 89.001L191 89Z" fill="#FFBC0D"/>
<path d="M318.212 89.001C319.2 89.001 320 89.8068 320 90.8008V97.2002C320 98.1942 319.2 99 318.212 99L264 98.999L264.002 89L318.212 89.001Z" fill="#FFBC0D"/>
<path d="M260.5 74.5234L260.473 202.998H194.569L194.5 74.5234L260.5 74.5234Z" fill="#F1F1F1"/>
<path d="M59.8 124H244.443C245.437 124 246.243 124.806 246.243 125.8V140H58V125.8C58 124.806 58.8059 124 59.8 124Z" fill="#606060"/>
<path d="M195 140H246V203H195V140Z" fill="#D8D8D8"/>
<path d="M109 140H137V203H109V140Z" fill="#F9F9F9"/>
<path d="M138 140H166V203H138V140Z" fill="#F9F9F9"/>
<path d="M167 140H195V203H167V140Z" fill="#F9F9F9"/>
<path d="M218 154H246V203H218V154Z" fill="#F9F9F9"/>
<path d="M58 198H109V204H58V198Z" fill="#A5835B"/>
<path d="M58 192H109V198H58V192Z" fill="#C2945C"/>
<path d="M58 187H109V193H58V187Z" fill="#A5835B"/>
<path d="M58 182H109V188H58V182Z" fill="#C2945C"/>
<path d="M58 177H109V183H58V177Z" fill="#A5835B"/>
<path d="M58 171H109V177H58V171Z" fill="#C2945C"/>
<path d="M58 166H109V172H58V166Z" fill="#A5835B"/>
<path d="M58 161H109V167H58V161Z" fill="#C2945C"/>
<path d="M58 156H109V162H58V156Z" fill="#A5835B"/>
<path d="M58 150H109V156H58V150Z" fill="#C2945C"/>
<path d="M58 145H109V151H58V145Z" fill="#A5835B"/>
<path d="M58 140H109V146H58V140Z" fill="#C2945C"/>
<path d="M136 140H140V203H136V140Z" fill="#D8D8D8"/>
<path d="M286 124H290V203H286V124Z" fill="#D8D8D8"/>
<path d="M312 124H316V203H312V124Z" fill="#D8D8D8"/>
<path d="M165 140H169V203H165V140Z" fill="#D8D8D8"/>
<path d="M218 154H246V160H218V154Z" fill="#A0A09F" fill-opacity="0.15"/>
<path d="M195 140H246V143H195V140Z" fill="#292929" fill-opacity="0.1"/>
<path d="M165 140H169V146H165V140Z" fill="#292929" fill-opacity="0.1"/>
<path d="M136 140H140V146H136V140Z" fill="#292929" fill-opacity="0.1"/>
<path d="M109 140H136V145H109V140Z" fill="#A0A09F" fill-opacity="0.15"/>
<path d="M140 140H165V145H140V140Z" fill="#A0A09F" fill-opacity="0.15"/>
<path d="M169 140H195V145H169V140Z" fill="#A0A09F" fill-opacity="0.15"/>
<path fill-rule="evenodd" clip-rule="evenodd" d="M236.023 86.7959C239.143 86.7959 241.672 99.9528 241.672 116.182H246.195C246.195 98.703 241.64 84.5352 236.023 84.5352C232.826 84.5352 229.975 88.7942 228.111 95.4522C226.247 88.7942 223.396 84.5352 220.2 84.5352C214.584 84.5352 210.027 98.703 210.027 116.182H214.55C214.55 99.9528 217.08 86.7959 220.2 86.7959C223.32 86.7959 225.85 98.9404 225.85 113.921H230.372C230.372 98.9404 232.902 86.7959 236.023 86.7959Z" fill="#FFBC0D"/>
<rect x="63" y="33" width="6" height="170" fill="#F9F9F9"/>
<rect x="66" y="33" width="3" height="170" fill="#F1F1F1"/>
<path d="M66 26C68.2091 26 70 27.7909 70 30C70 31.195 69.4754 32.267 68.6445 33H63.3555C62.5246 32.267 62 31.195 62 30C62 27.7909 63.7909 26 66 26Z" fill="#FFBC0D"/>
<path opacity="0.5" d="M66 26C67.3598 26 68.5605 26.6789 69.2832 27.7158C68.6357 27.2648 67.8489 27 67 27C64.7909 27 63 28.7909 63 31C63 31.8496 63.2659 32.6366 63.7178 33.2842C62.6799 32.5616 62 31.3605 62 30C62 27.7909 63.7909 26 66 26Z" fill="#F9F9F9"/>
<g clip-path="url(#clip1_102_69681)">
<path d="M69 33H124.323V69.882H69V33Z" fill="#0052B4"/>
<path d="M96.6615 33V36.3067L91.7775 39.0191H96.6615V45.4273H90.2756L96.6615 48.9718V51.4464H93.7765L85.8346 47.0266V51.4464H79.8269V46.1945L70.3723 51.4464H69V48.1397L73.884 45.4273H69V39.0191H75.3859L69 35.4638V33H71.885L79.8269 37.409V33H85.8346V38.2519L95.2893 33H96.6615Z" fill="white"/>
<path d="M84.5596 33H81.1019V40.4888H69V43.9468H81.1019V51.4464H84.5596V43.9468H96.6615V40.4888H84.5596V33Z" fill="#D80027"/>
<path d="M85.8359 45.4258L96.6628 51.4449V49.7375L88.9046 45.4258H85.8359Z" fill="#0052B4"/>
<path d="M85.8359 45.4258L96.6628 51.4449V49.7375L88.9046 45.4258H85.8359Z" fill="white"/>
<path d="M85.8346 45.4258L96.6615 51.4449V49.7375L88.9033 45.4258H85.8346ZM76.7582 45.4258L69 49.7375V51.4449L79.8269 45.4258H76.7582Z" fill="#D80027"/>
<path d="M79.8269 39.0083L69 33V34.6966L76.7582 39.0083H79.8269Z" fill="#0052B4"/>
<path d="M79.8269 39.0083L69 33V34.6966L76.7582 39.0083H79.8269Z" fill="white"/>
<path d="M79.8269 39.0083L69 33V34.6966L76.7582 39.0083H79.8269ZM88.9033 39.0083L96.6615 34.6966V33L85.8346 39.0083H88.9033Z" fill="#D80027"/>
<path d="M102.734 53.9845V44.2588C102.734 43.3403 103.437 42.6055 104.355 42.6055H117.376C118.272 42.6055 118.996 43.3403 118.996 44.2588V53.9845C118.996 62.1109 110.871 65.3636 110.871 65.3636C110.871 65.3636 102.734 62.1109 102.734 53.9845Z" fill="#1F8BDE"/>
<path d="M102.734 53.9845V44.2588C102.734 43.3403 103.437 42.6055 104.355 42.6055H117.376C118.272 42.6055 118.996 43.3403 118.996 44.2588V53.9845C118.996 62.1109 110.871 65.3636 110.871 65.3636C110.871 65.3636 102.734 62.1109 102.734 53.9845ZM111.335 63.3104C112.189 62.8241 113.053 62.2298 113.842 61.5058C116.057 59.5066 117.365 57.0319 117.365 53.9737V44.248C117.365 44.2156 104.355 44.2156 104.355 44.2156V53.9737C104.355 57.0319 105.663 59.5066 107.878 61.5058C108.775 62.3162 109.779 63.0078 110.86 63.559C111.011 63.4941 111.162 63.4077 111.335 63.3104Z" fill="white"/>
<path d="M106.503 53.9008C106.222 53.0471 106.687 52.3555 107.595 52.3555H114.132C115.018 52.3555 115.515 53.0363 115.223 53.9008L114.629 55.6838C114.348 56.5375 113.667 56.678 112.922 56.1161C112.922 56.1161 113.203 55.5974 110.858 55.5974C108.513 55.5974 108.794 56.1161 108.794 56.1161C108.135 56.732 107.379 56.5483 107.087 55.6838C107.098 55.6946 106.503 53.9008 106.503 53.9008Z" fill="#187536"/>
<path d="M107.617 52.3531C108.493 52.526 109.541 50.7321 110.87 50.7321C112.285 50.7321 113.225 52.58 114.122 52.3531C114.922 52.1586 115.743 49.9541 115.743 49.1004C115.743 47.3065 113.56 45.8477 110.87 45.8477C108.179 45.8477 105.997 47.3065 105.997 49.1004C105.986 50.0189 106.71 52.1802 107.617 52.3531ZM107.466 62.2517C108.136 62.2949 108.817 62.0572 109.325 61.5493L110.297 60.5767C110.61 60.2633 111.107 60.2633 111.421 60.5767L112.393 61.5493C112.901 62.0572 113.582 62.2949 114.241 62.2517C114.814 62.2193 117.753 58.6316 117.018 58.7288C116.521 58.7937 116.035 59.0314 115.646 59.4096L115.635 59.4204L114.662 60.393C114.349 60.7064 113.852 60.7064 113.539 60.393L112.566 59.4204C111.626 58.4695 110.092 58.4695 109.141 59.4096L109.13 59.4204L108.158 60.393C107.844 60.7064 107.347 60.7064 107.034 60.393L106.061 59.4204C105.683 59.0422 105.219 58.8153 104.732 58.7396C104.008 58.6208 106.904 62.2193 107.466 62.2517ZM103.803 55.6922C104.116 55.3788 104.613 55.3788 104.927 55.6922L105.899 56.6648C106.85 57.605 108.374 57.605 109.325 56.6648L110.297 55.6922C110.61 55.3788 111.107 55.3788 111.421 55.6922L112.393 56.6648C113.344 57.605 114.868 57.605 115.819 56.6648L116.791 55.6922C117.104 55.3788 117.601 55.3788 117.915 55.6922C117.915 55.6922 118.509 54.0929 118.185 53.974C117.331 53.6606 116.326 53.8443 115.646 54.536L115.635 54.5468L114.662 55.5193C114.349 55.8327 113.852 55.8327 113.539 55.5193L112.566 54.5468C111.626 53.5958 110.092 53.5958 109.141 54.536L109.13 54.5468L108.158 55.5193C107.844 55.8327 107.347 55.8327 107.034 55.5193L106.061 54.5468C105.391 53.8768 104.43 53.6823 103.598 53.9524C103.263 54.0713 103.803 55.6922 103.803 55.6922Z" fill="white"/>
</g>
<path d="M67.8158 205.5L68.7364 205.494C75.9374 205.404 81.6316 204.137 81.6316 196.816C81.6316 189.186 75.446 183 67.8158 183C60.1855 183 54 189.186 54 196.816C54 204.446 60.1855 205.5 67.8158 205.5Z" fill="#9CC93A"/>
<path d="M98.8158 205.5L99.7364 205.494C106.937 205.404 112.632 204.137 112.632 196.816C112.632 189.186 106.446 183 98.8158 183C91.1855 183 85 189.186 85 196.816C85 204.446 91.1855 205.5 98.8158 205.5Z" fill="#9CC93A"/>
<path d="M128.816 205.5L129.736 205.494C136.937 205.404 142.632 204.137 142.632 196.816C142.632 189.186 136.446 183 128.816 183C121.186 183 115 189.186 115 196.816C115 204.446 121.186 205.5 128.816 205.5Z" fill="#9CC93A"/>
<path d="M253.561 29.8555C255.088 29.8555 256.327 31.0943 256.327 32.6221C256.327 34.0685 255.217 35.2538 253.802 35.376C254.09 36.0127 254.252 36.7186 254.252 37.4629C254.252 40.2639 251.982 42.5342 249.181 42.5342H257.94C260.741 42.5342 263.013 44.8055 263.013 47.6064H269.929C272.729 47.6066 275 49.8769 275 52.6777C275 55.4786 272.73 57.7498 269.929 57.75H262.332C261.455 59.2653 259.817 60.2852 257.94 60.2852H215.523C213.647 60.2852 212.009 59.2653 211.132 57.75H206.071C203.27 57.7498 201 55.4786 201 52.6777C201 49.8769 203.271 47.6066 206.071 47.6064H210.452C210.452 44.8055 212.722 42.5342 215.523 42.5342H221.748C221.748 39.7334 224.018 37.4629 226.819 37.4629H235.349C235.349 34.6619 237.62 32.3916 240.421 32.3916H249.181C249.746 32.3916 250.288 32.4849 250.796 32.6553C250.796 32.6442 250.795 32.6332 250.795 32.6221C250.795 31.0943 252.033 29.8556 253.561 29.8555Z" fill="white"/>
<path d="M140.047 2C143.684 2 146.634 4.94858 146.634 8.58594C146.634 8.65081 146.631 8.71586 146.629 8.78027H148.184C150.537 8.78048 152.445 10.6884 152.445 13.042H155.738C158.092 13.042 160 14.95 160 17.3037C160 19.6574 158.092 21.5654 155.738 21.5654H153.229C152.493 22.8389 151.116 23.6963 149.539 23.6963H133.461C131.884 23.6963 130.507 22.8389 129.771 21.5654H127.262C124.908 21.5654 123 19.6574 123 17.3037C123 14.95 124.908 13.042 127.262 13.042H127.843C127.843 10.6883 129.751 8.78037 132.104 8.78027H133.466C133.464 8.71585 133.461 8.65081 133.461 8.58594C133.461 4.94867 136.41 2.00015 140.047 2Z" fill="white"/>
</g>
<defs>
<clipPath id="clip0_102_69681">
<rect width="375" height="225" fill="white"/>
</clipPath>
<clipPath id="clip1_102_69681">
<rect width="55.3231" height="36.882" fill="white" transform="translate(69 33)"/>
</clipPath>
</defs>
</svg>
