<svg width="136" height="136" viewBox="0 0 136 136" fill="none" xmlns="http://www.w3.org/2000/svg">
<g clip-path="url(#clip0_1001_45091)">
<g clip-path="url(#clip1_1001_45091)">
<mask id="path-1-outside-1_1001_45091" maskUnits="userSpaceOnUse" x="25.5352" y="10.0898" width="79" height="119" fill="black">
<rect fill="white" x="25.5352" y="10.0898" width="79" height="119"/>
<path fill-rule="evenodd" clip-rule="evenodd" d="M78.9222 79.0622C78.9222 79.0622 78.8602 79.1998 78.7513 79.4529L78.7651 79.5684C78.0222 81.3174 75.2614 88.1405 73.8813 96.0006L73.8246 96.0075C73.8016 96.1413 73.7789 96.2755 73.7569 96.4102C73.4935 98.0194 73.3432 99.1727 73.2046 100.237L73.2046 100.237L73.1465 100.682L57.4823 102.628L45.3895 104.092C42.5344 104.438 39.9406 102.397 39.5962 99.5346L38.7174 92.2352C39.5717 90.7366 40.2376 88.4371 39.4875 86.5416C39.2226 85.8721 38.7198 85.1392 37.7977 84.5957L32.3471 39.3194C32.0384 39.327 31.7659 39.1001 31.7285 38.787L31.1613 34.0756C31.1239 33.7625 31.3344 33.4769 31.6361 33.4113L31.3431 30.9758C31.0344 30.984 30.762 30.7565 30.7245 30.4434L30.3948 27.7048C30.3573 27.3918 30.5678 27.1062 30.8695 27.0406L30.2667 22.0324C29.9217 19.1695 31.9565 16.5687 34.8116 16.2234L68.6449 12.1281C71.5 11.7822 74.0937 13.8225 74.4381 16.6854L75.2356 23.3105C75.2719 23.2988 75.3093 23.29 75.3485 23.2853C75.68 23.2455 75.9841 23.4841 76.0238 23.8165L76.7138 29.5476C76.7535 29.88 76.5155 30.1849 76.184 30.2248C76.1454 30.2294 76.1068 30.23 76.0688 30.2271L77.9276 45.6684C75.963 51.4282 77.6253 58.6661 78.3755 61.0886C79.0309 63.1524 81.1002 71.3348 78.9222 79.0622ZM98.759 118.815C98.4831 118.09 98.2346 117.432 98.0224 116.861C97.028 112.272 96.0203 104.892 97.197 96.6444C98.4297 88.0401 95.875 79.4564 93.8213 72.5599L93.8201 72.556L93.8201 72.5559C92.7297 68.8928 91.788 65.7289 91.5998 63.2076C91.3819 60.251 86.83 47.2573 84.8248 41.7498C84.077 41.7692 82.7065 41.9797 81.5594 43.0737C77.3513 46.9574 79.6364 58.6977 80.186 59.9254C80.6133 60.7702 84.0239 73.4884 79.6748 82.4364C76.7313 88.4993 75.6845 96.4745 75.1225 100.759C74.9488 102.084 73.9297 102.338 72.9755 102.338L46.2237 105.663C48.2799 108.887 51.068 112.878 53.6271 114.85C55.2244 116.081 56.579 117.426 57.7682 118.816C59.725 121.104 61.2311 123.515 62.6207 125.741C62.8868 126.167 63.1475 126.582 63.4071 126.991L101.855 126.989C100.94 124.528 100.087 122.294 99.3661 120.406L99.3659 120.406C99.1513 119.844 98.9484 119.312 98.759 118.815ZM32.7713 79.2095L35.2376 80.6653L33.9559 70.2972C33.2361 70.0281 32.4789 69.8633 31.7556 69.9284C30.8651 69.9976 30.1682 70.4121 29.58 71.1684C29.0105 71.9019 28.7877 72.6975 28.9005 73.601C29.2373 76.2967 32.4082 78.9169 32.7713 79.2095ZM33.4403 85.8874C33.6707 85.8586 33.9186 85.8428 34.1841 85.8416C36.3153 85.8316 37.6402 86.4437 38.1226 87.6638C38.8512 89.5066 37.5619 92.244 36.8006 92.9558C35.6236 94.0545 34.5425 94.1624 32.6668 93.3621C31.0518 92.6738 30.0157 90.4546 30.4051 88.5163C30.5858 87.6163 31.2231 86.1629 33.4403 85.8874ZM32.9223 67.4858L32.9755 67.5116L33.6561 67.8775L32.5142 58.6374C31.8383 58.509 31.1314 58.4439 30.463 58.5266C30.1801 58.5618 29.9041 58.6228 29.6415 58.7142C28.8118 59.0039 28.2201 59.5708 27.8342 60.4479C27.4594 61.2992 27.4372 62.1253 27.7658 62.9737C28.8037 65.6484 32.8814 67.4682 32.9223 67.4858ZM31.417 49.7596L32.2274 56.3168C31.3574 55.6044 30.5411 54.7255 30.1523 53.723C29.8237 52.8752 29.8459 52.0491 30.2207 51.1978C30.5037 50.5552 30.9002 50.0821 31.417 49.7596Z"/>
</mask>
<path d="M78.7513 79.4529L77.6408 78.9751L77.5124 79.2734L77.5509 79.596L78.7513 79.4529ZM78.9222 79.0622L80.0244 79.5588L80.0613 79.4768L80.0857 79.3902L78.9222 79.0622ZM78.7651 79.5684L79.8777 80.041L80.0035 79.7448L79.9654 79.4253L78.7651 79.5684ZM73.8813 96.0006L74.0279 97.2005L74.917 97.0919L75.0719 96.2096L73.8813 96.0006ZM73.8246 96.0075L73.678 94.8075L72.7857 94.9166L72.6332 95.8025L73.8246 96.0075ZM73.7569 96.4102L74.9499 96.6055L74.9499 96.6053L73.7569 96.4102ZM73.2046 100.237L74.4001 100.416L74.4018 100.405L74.4034 100.393L73.2046 100.237ZM73.2046 100.237L72.009 100.058L72.0073 100.069L72.0059 100.081L73.2046 100.237ZM73.1465 100.682L73.2956 101.882L74.224 101.766L74.3452 100.838L73.1465 100.682ZM57.4823 102.628L57.6275 103.829L57.6314 103.828L57.4823 102.628ZM45.3895 104.092L45.2442 102.892L45.2441 102.892L45.3895 104.092ZM39.5962 99.5346L40.7965 99.3901L40.7965 99.3901L39.5962 99.5346ZM38.7174 92.2352L37.6672 91.6365L37.4695 91.9833L37.5172 92.3797L38.7174 92.2352ZM39.4875 86.5416L38.3634 86.9863L38.3634 86.9865L39.4875 86.5416ZM37.7977 84.5957L36.5975 84.7402L36.6689 85.3336L37.1838 85.6371L37.7977 84.5957ZM32.3471 39.3194L33.5473 39.1749L33.4159 38.0838L32.3172 38.1109L32.3471 39.3194ZM31.7285 38.787L32.9288 38.6436L32.9287 38.6426L31.7285 38.787ZM31.1613 34.0756L29.961 34.219L29.9611 34.22L31.1613 34.0756ZM31.6361 33.4113L31.8932 34.5925L32.9676 34.3587L32.8363 33.2669L31.6361 33.4113ZM31.3431 30.9758L32.5434 30.8314L32.4119 29.7381L31.311 29.7673L31.3431 30.9758ZM30.7245 30.4434L31.9249 30.3L31.9248 30.2989L30.7245 30.4434ZM30.3948 27.7048L29.1944 27.8483L29.1945 27.8494L30.3948 27.7048ZM30.8695 27.0406L31.1266 28.2218L32.2012 27.9879L32.0698 26.8961L30.8695 27.0406ZM30.2667 22.0324L31.4669 21.8879L31.4669 21.8878L30.2667 22.0324ZM34.8116 16.2234L34.9568 17.4235L34.9569 17.4235L34.8116 16.2234ZM68.6449 12.1281L68.7901 13.3282L68.7903 13.3282L68.6449 12.1281ZM74.4381 16.6854L73.2379 16.8298L73.2379 16.8299L74.4381 16.6854ZM75.2356 23.3105L74.0354 23.455L74.2109 24.9126L75.6077 24.4607L75.2356 23.3105ZM75.3485 23.2853L75.4922 24.4856L75.4928 24.4856L75.3485 23.2853ZM76.0238 23.8165L74.8235 23.9601L74.8236 23.961L76.0238 23.8165ZM76.7138 29.5476L77.9141 29.404L77.914 29.4031L76.7138 29.5476ZM76.184 30.2248L76.0397 29.0245L76.0382 29.0247L76.184 30.2248ZM76.0688 30.2271L76.1618 29.0218L74.6925 28.9084L74.8686 30.3716L76.0688 30.2271ZM77.9276 45.6684L79.0718 46.0587L79.1608 45.7977L79.1278 45.5239L77.9276 45.6684ZM78.3755 61.0886L77.2207 61.4463L77.2233 61.4546L78.3755 61.0886ZM98.0224 116.861L96.841 117.117L96.8592 117.201L96.8891 117.281L98.0224 116.861ZM98.759 118.815L97.6292 119.245L97.6292 119.245L98.759 118.815ZM97.197 96.6444L96.0003 96.473L96.0002 96.4737L97.197 96.6444ZM93.8213 72.5599L92.6623 72.9036L92.6627 72.905L93.8213 72.5599ZM93.8201 72.556L92.6577 72.8881L92.6611 72.8997L93.8201 72.556ZM93.8201 72.5559L94.9825 72.2238L94.9787 72.211L93.8201 72.5559ZM91.5998 63.2076L90.3942 63.2965L90.3943 63.2975L91.5998 63.2076ZM84.8248 41.7498L85.9607 41.3362L85.6631 40.5188L84.7935 40.5413L84.8248 41.7498ZM81.5594 43.0737L82.3792 43.9621L82.3865 43.9554L82.3937 43.9486L81.5594 43.0737ZM80.186 59.9254L79.0826 60.4193L79.0943 60.4455L79.1073 60.4711L80.186 59.9254ZM79.6748 82.4364L78.5875 81.9079L78.5873 81.9084L79.6748 82.4364ZM75.1225 100.759L76.3211 100.916L75.1225 100.759ZM72.9755 102.338V101.129H72.9007L72.8264 101.138L72.9755 102.338ZM46.2237 105.663L46.0746 104.463L44.1753 104.699L45.2045 106.313L46.2237 105.663ZM53.6271 114.85L52.8893 115.808L52.8893 115.808L53.6271 114.85ZM57.7682 118.816L58.6869 118.03L58.6868 118.03L57.7682 118.816ZM62.6207 125.741L63.6463 125.101L63.6461 125.1L62.6207 125.741ZM63.4071 126.991L62.3871 127.639L62.7434 128.199L63.4071 128.199L63.4071 126.991ZM101.855 126.989L101.855 128.198L103.594 128.198L102.988 126.568L101.855 126.989ZM99.3661 120.406L98.2358 120.835L98.2368 120.838L99.3661 120.406ZM99.3659 120.406L100.496 119.977L100.495 119.974L99.3659 120.406ZM35.2376 80.6653L34.623 81.7063L36.7387 82.9551L36.4373 80.5169L35.2376 80.6653ZM32.7713 79.2095L32.0128 80.1508L32.0812 80.2059L32.1568 80.2505L32.7713 79.2095ZM33.9559 70.2972L35.1556 70.1489L35.0657 69.4215L34.3792 69.1648L33.9559 70.2972ZM31.7556 69.9284L31.8493 71.1336L31.8566 71.1331L31.864 71.1324L31.7556 69.9284ZM29.58 71.1684L28.6257 70.4263L28.6251 70.427L29.58 71.1684ZM28.9005 73.601L27.701 73.7508L27.701 73.7508L28.9005 73.601ZM34.1841 85.8416L34.1894 87.0505H34.1897L34.1841 85.8416ZM33.4403 85.8874L33.5894 87.087L33.5899 87.0869L33.4403 85.8874ZM38.1226 87.6638L39.2468 87.2194L39.2468 87.2194L38.1226 87.6638ZM36.8006 92.9558L37.6255 93.8395L37.6262 93.8388L36.8006 92.9558ZM32.6668 93.3621L33.1412 92.2502L33.1407 92.25L32.6668 93.3621ZM30.4051 88.5163L31.5903 88.7544L31.5904 88.7543L30.4051 88.5163ZM32.9755 67.5116L33.5479 66.4468L33.5257 66.4349L33.5029 66.4239L32.9755 67.5116ZM32.9223 67.4858L33.4497 66.3981L33.4249 66.386L33.3996 66.3752L32.9223 67.4858ZM33.6561 67.8775L33.0837 68.9423L35.1426 70.049L34.8559 67.7292L33.6561 67.8775ZM32.5142 58.6374L33.7139 58.4891L33.6058 57.6143L32.7398 57.4498L32.5142 58.6374ZM30.463 58.5266L30.3146 57.3269L30.3139 57.327L30.463 58.5266ZM29.6415 58.7142L29.2438 57.5726L29.2431 57.5729L29.6415 58.7142ZM27.8342 60.4479L28.9406 60.935L28.9407 60.9347L27.8342 60.4479ZM27.7658 62.9737L26.6385 63.4103L26.6388 63.411L27.7658 62.9737ZM32.2274 56.3168L31.4616 57.2521L33.7975 59.1646L33.4272 56.1685L32.2274 56.3168ZM31.417 49.7596L32.6168 49.6113L32.3844 47.7312L30.7772 48.7339L31.417 49.7596ZM30.1523 53.723L29.0251 54.1599L29.0252 54.1601L30.1523 53.723ZM30.2207 51.1978L29.1144 50.7105L29.1143 50.7107L30.2207 51.1978ZM78.7513 79.4529L79.8617 79.9307C79.9147 79.8076 79.956 79.7132 79.9837 79.6503C79.9976 79.6189 80.0081 79.5953 80.0149 79.5799C80.0184 79.5722 80.0209 79.5666 80.0225 79.563C80.0232 79.5613 80.0238 79.56 80.0241 79.5593C80.0243 79.559 80.0244 79.5588 80.0244 79.5587C80.0244 79.5586 80.0245 79.5586 80.0244 79.5586C80.0244 79.5586 80.0244 79.5587 80.0244 79.5587C80.0244 79.5587 80.0244 79.5587 80.0244 79.5587C80.0244 79.5587 80.0244 79.5588 80.0244 79.5588C80.0244 79.5588 80.0244 79.5588 78.9222 79.0622C77.82 78.5656 77.82 78.5656 77.82 78.5656C77.82 78.5657 77.82 78.5657 77.82 78.5657C77.82 78.5657 77.8199 78.5657 77.8199 78.5658C77.8199 78.5658 77.8199 78.5659 77.8198 78.566C77.8198 78.5661 77.8197 78.5663 77.8196 78.5665C77.8194 78.567 77.8191 78.5676 77.8188 78.5683C77.8182 78.5697 77.8173 78.5717 77.8162 78.5742C77.8139 78.5792 77.8107 78.5863 77.8067 78.5954C77.7985 78.6138 77.7866 78.6404 77.7714 78.675C77.7409 78.7441 77.6968 78.8451 77.6408 78.9751L78.7513 79.4529ZM78.7651 79.5684L79.9654 79.4253L79.9517 79.3098L78.7513 79.4529L77.5509 79.596L77.5647 79.7115L78.7651 79.5684ZM73.8813 96.0006L75.0719 96.2096C76.4289 88.4816 79.1494 81.7558 79.8777 80.041L78.7651 79.5684L77.6524 79.0958C76.895 80.8789 74.0939 87.7995 72.6906 95.7915L73.8813 96.0006ZM73.8246 96.0075L73.9713 97.2074L74.0279 97.2005L73.8813 96.0006L73.7346 94.8006L73.678 94.8075L73.8246 96.0075ZM73.7569 96.4102L74.9499 96.6053C74.9713 96.4747 74.9934 96.3439 75.016 96.2125L73.8246 96.0075L72.6332 95.8025C72.6098 95.9388 72.5866 96.0764 72.5639 96.215L73.7569 96.4102ZM73.2046 100.237L74.4034 100.393C74.5417 99.3311 74.6898 98.1942 74.9499 96.6055L73.7569 96.4102L72.5639 96.2149C72.2971 97.8447 72.1448 99.0143 72.0058 100.081L73.2046 100.237ZM73.2046 100.237L74.4001 100.417L74.4001 100.416L73.2046 100.237L72.0091 100.058L72.009 100.058L73.2046 100.237ZM73.1465 100.682L74.3452 100.838L74.4033 100.394L73.2046 100.237L72.0059 100.081L71.9478 100.525L73.1465 100.682ZM57.4823 102.628L57.6314 103.828L73.2956 101.882L73.1465 100.682L72.9974 99.4823L57.3332 101.429L57.4823 102.628ZM45.3895 104.092L45.5347 105.292L57.6275 103.829L57.4823 102.628L57.3371 101.428L45.2442 102.892L45.3895 104.092ZM39.5962 99.5346L38.396 99.679C38.8198 103.201 42.0135 105.719 45.5349 105.292L45.3895 104.092L45.2441 102.892C43.0552 103.157 41.0614 101.592 40.7965 99.3901L39.5962 99.5346ZM38.7174 92.2352L37.5172 92.3797L38.396 99.6791L39.5962 99.5346L40.7965 99.3901L39.9176 92.0907L38.7174 92.2352ZM39.4875 86.5416L38.3634 86.9865C38.9161 88.383 38.4451 90.2719 37.6672 91.6365L38.7174 92.2352L39.7677 92.8338C40.6983 91.2013 41.5592 88.4912 40.6115 86.0967L39.4875 86.5416ZM37.7977 84.5957L37.1838 85.6371C37.8436 86.026 38.1835 86.5317 38.3634 86.9863L39.4875 86.5416L40.6116 86.0969C40.2617 85.2124 39.596 84.2524 38.4115 83.5542L37.7977 84.5957ZM32.3471 39.3194L31.1469 39.4639L36.5975 84.7402L37.7977 84.5957L38.9979 84.4512L33.5473 39.1749L32.3471 39.3194ZM31.7285 38.787L30.5281 38.9305C30.6416 39.8798 31.4621 40.5505 32.3769 40.5279L32.3471 39.3194L32.3172 38.1109C32.6146 38.1035 32.8902 38.3205 32.9288 38.6436L31.7285 38.787ZM31.1613 34.0756L29.9611 34.22L30.5282 38.9315L31.7285 38.787L32.9287 38.6426L32.3615 33.9311L31.1613 34.0756ZM31.6361 33.4113L31.379 32.23C30.4818 32.4253 29.848 33.2738 29.961 34.219L31.1613 34.0756L32.3616 33.9321C32.3998 34.2511 32.187 34.5286 31.8932 34.5925L31.6361 33.4113ZM31.3431 30.9758L30.1429 31.1202L30.4358 33.5556L31.6361 33.4113L32.8363 33.2669L32.5434 30.8314L31.3431 30.9758ZM30.7245 30.4434L29.5242 30.5869C29.6374 31.5342 30.4567 32.2087 31.3753 32.1843L31.3431 30.9758L31.311 29.7673C31.6122 29.7593 31.8865 29.9789 31.9249 30.3L30.7245 30.4434ZM30.3948 27.7048L29.1945 27.8494L29.5243 30.588L30.7245 30.4434L31.9248 30.2989L31.595 27.5603L30.3948 27.7048ZM30.8695 27.0406L30.6124 25.8593C29.7152 26.0546 29.0814 26.9031 29.1944 27.8483L30.3948 27.7048L31.5951 27.5614C31.6332 27.8804 31.4204 28.1579 31.1266 28.2218L30.8695 27.0406ZM30.2667 22.0324L29.0665 22.1769L29.6693 27.185L30.8695 27.0406L32.0698 26.8961L31.4669 21.8879L30.2667 22.0324ZM34.8116 16.2234L34.6664 15.0232C31.1457 15.4491 28.642 18.6546 29.0665 22.177L30.2667 22.0324L31.4669 21.8878C31.2014 19.6845 32.7673 17.6883 34.9568 17.4235L34.8116 16.2234ZM68.6449 12.1281L68.4996 10.9279L34.6663 15.0232L34.8116 16.2234L34.9569 17.4235L68.7901 13.3282L68.6449 12.1281ZM74.4381 16.6854L75.6383 16.541C75.2145 13.0178 72.0207 10.5013 68.4995 10.928L68.6449 12.1281L68.7903 13.3282C70.9792 13.063 72.9729 14.6272 73.2379 16.8298L74.4381 16.6854ZM75.2356 23.3105L76.4359 23.1661L75.6383 16.5409L74.4381 16.6854L73.2379 16.8299L74.0354 23.455L75.2356 23.3105ZM75.3485 23.2853L75.2048 22.085C75.0779 22.1002 74.9637 22.1279 74.8636 22.1603L75.2356 23.3105L75.6077 24.4607C75.5801 24.4697 75.5407 24.4798 75.4922 24.4856L75.3485 23.2853ZM76.0238 23.8165L77.2241 23.6729C77.1051 22.6776 76.1991 21.9654 75.2041 22.0851L75.3485 23.2853L75.4928 24.4856C75.1609 24.5255 74.863 24.2906 74.8235 23.9601L76.0238 23.8165ZM76.7138 29.5476L77.914 29.4031L77.224 23.672L76.0238 23.8165L74.8236 23.961L75.5135 29.6921L76.7138 29.5476ZM76.184 30.2248L76.3284 31.425C77.3282 31.3048 78.0324 30.3933 77.9141 29.404L76.7138 29.5476L75.5134 29.6911C75.4746 29.3667 75.7029 29.065 76.0397 29.0245L76.184 30.2248ZM76.0688 30.2271L75.9759 31.4324C76.0887 31.4411 76.2074 31.4397 76.3299 31.4248L76.184 30.2248L76.0382 29.0247C76.0835 29.0192 76.125 29.0189 76.1618 29.0218L76.0688 30.2271ZM77.9276 45.6684L79.1278 45.5239L77.2691 30.0826L76.0688 30.2271L74.8686 30.3716L76.7274 45.8129L77.9276 45.6684ZM78.3755 61.0886L79.5303 60.7311C79.1757 59.5861 78.592 57.2538 78.3372 54.5179C78.0813 51.7702 78.1667 48.7122 79.0718 46.0587L77.9276 45.6684L76.7834 45.2782C75.7239 48.3845 75.6582 51.8253 75.9298 54.7421C76.2026 57.6707 76.8251 60.1686 77.2207 61.4462L78.3755 61.0886ZM78.9222 79.0622L80.0857 79.3902C82.3606 71.3193 80.2064 62.8597 79.5277 60.7227L78.3755 61.0886L77.2233 61.4546C77.8555 63.4451 79.8398 71.3503 77.7586 78.7342L78.9222 79.0622ZM98.0224 116.861L96.8891 117.281C97.103 117.858 97.3529 118.518 97.6292 119.245L98.759 118.815L99.8889 118.385C99.6133 117.661 99.3662 117.007 99.1557 116.44L98.0224 116.861ZM97.197 96.6444L96.0002 96.4737C94.7968 104.909 95.8277 112.441 96.841 117.117L98.0224 116.861L99.2039 116.605C98.2284 112.103 97.2438 104.876 98.3937 96.8152L97.197 96.6444ZM93.8213 72.5599L92.6627 72.905C94.7285 79.8418 97.1895 88.1725 96.0003 96.473L97.197 96.6444L98.3936 96.8159C99.67 87.9076 97.0216 79.0709 94.9799 72.2149L93.8213 72.5599ZM93.8201 72.556L92.6611 72.8997L92.6623 72.9036L93.8213 72.5599L94.9803 72.2163L94.9791 72.2123L93.8201 72.556ZM93.8201 72.5559L92.6577 72.888L92.6577 72.8881L93.8201 72.556L94.9825 72.2239L94.9825 72.2238L93.8201 72.5559ZM91.5998 63.2076L90.3943 63.2975C90.5944 65.979 91.5859 69.2876 92.6615 72.9008L93.8201 72.5559L94.9787 72.211C93.8735 68.498 92.9815 65.4788 92.8054 63.1177L91.5998 63.2076ZM84.8248 41.7498L83.6889 42.1634C84.6887 44.9095 86.3235 49.5222 87.7341 53.8128C88.4398 55.9591 89.0861 58.015 89.5684 59.7124C90.0628 61.4524 90.3503 62.7007 90.3942 63.2965L91.5998 63.2076L92.8055 63.1187C92.7404 62.2362 92.3772 60.7515 91.8941 59.0516C91.399 57.3089 90.7412 55.2179 90.031 53.0577C88.6099 48.7355 86.9661 44.0976 85.9607 41.3362L84.8248 41.7498ZM81.5594 43.0737L82.3937 43.9486C83.2401 43.1413 84.2678 42.9735 84.8561 42.9583L84.8248 41.7498L84.7935 40.5413C83.8862 40.5648 82.1729 40.8181 80.725 42.1989L81.5594 43.0737ZM80.186 59.9254L81.2894 59.4315C81.2911 59.4354 81.2849 59.4215 81.2713 59.3825C81.2585 59.3457 81.2424 59.2959 81.2234 59.232C81.1852 59.1037 81.1401 58.9346 81.0902 58.7265C80.9907 58.3108 80.878 57.7634 80.7689 57.1188C80.5506 55.8286 80.3518 54.1799 80.2969 52.457C80.2417 50.7276 80.3331 48.9668 80.6725 47.434C81.0155 45.8852 81.5835 44.6965 82.3792 43.9621L81.5594 43.0737L80.7395 42.1854C79.4312 43.3928 78.7068 45.1281 78.3119 46.9112C77.9135 48.7104 77.8215 50.6896 77.8803 52.5341C77.9393 54.3853 78.1519 56.1445 78.385 57.5223C78.5017 58.2117 78.6248 58.8132 78.739 59.2897C78.8455 59.7344 78.9629 60.1519 79.0826 60.4193L80.186 59.9254ZM79.6748 82.4364L80.7621 82.9649C83.0758 78.2044 83.2958 72.5314 82.9264 68.043C82.7403 65.7818 82.4011 63.781 82.0799 62.2868C81.9193 61.5395 81.762 60.9137 81.6287 60.4404C81.5086 60.0142 81.3801 59.6078 81.2647 59.3797L80.186 59.9254L79.1073 60.4711C79.0987 60.4542 79.1702 60.63 79.3015 61.096C79.4195 61.5149 79.5648 62.0912 79.7161 62.7949C80.0187 64.2025 80.3404 66.099 80.5167 68.2413C80.8722 72.5603 80.6228 77.7204 78.5875 81.9079L79.6748 82.4364ZM75.1225 100.759L76.3211 100.916C76.8878 96.5958 77.919 88.821 80.7623 82.9644L79.6748 82.4364L78.5873 81.9084C75.5437 88.1776 74.4812 96.3533 73.9239 100.602L75.1225 100.759ZM72.9755 102.338V103.546C73.5266 103.546 74.2762 103.48 74.9472 103.091C75.6947 102.659 76.1896 101.919 76.3211 100.916L75.1225 100.759L73.9239 100.602C73.8999 100.785 73.8548 100.874 73.8307 100.911C73.8084 100.946 73.7819 100.972 73.7361 100.999C73.6156 101.068 73.3786 101.129 72.9755 101.129V102.338ZM46.2237 105.663L46.3728 106.862L73.1246 103.537L72.9755 102.338L72.8264 101.138L46.0746 104.463L46.2237 105.663ZM53.6271 114.85L54.3649 113.892C51.9986 112.069 49.3138 108.26 47.2429 105.013L46.2237 105.663L45.2045 106.313C47.2459 109.514 50.1375 113.688 52.8893 115.808L53.6271 114.85ZM57.7682 118.816L58.6868 118.03C57.4528 116.588 56.0387 115.182 54.3649 113.892L53.6271 114.85L52.8893 115.808C54.41 116.979 55.7052 118.264 56.8496 119.602L57.7682 118.816ZM62.6207 125.741L63.6461 125.1C62.2614 122.883 60.711 120.397 58.6869 118.03L57.7682 118.816L56.8494 119.602C58.7391 121.811 60.2007 124.147 61.5953 126.381L62.6207 125.741ZM63.4071 126.991L64.4271 126.342C64.1702 125.938 63.9115 125.525 63.6463 125.101L62.6207 125.741L61.5952 126.381C61.862 126.808 62.1249 127.227 62.3871 127.639L63.4071 126.991ZM101.855 126.989L101.855 125.78L63.407 125.782L63.4071 126.991L63.4071 128.199L101.855 128.198L101.855 126.989ZM99.3661 120.406L98.2368 120.838C98.9577 122.726 99.8088 124.955 100.722 127.411L101.855 126.989L102.988 126.568C102.071 124.101 101.216 121.863 100.495 119.975L99.3661 120.406ZM99.3659 120.406L98.2356 120.834L98.2358 120.835L99.3661 120.406L100.496 119.978L100.496 119.977L99.3659 120.406ZM98.759 118.815L97.6292 119.245C97.8188 119.743 98.022 120.275 98.2365 120.837L99.3659 120.406L100.495 119.974C100.281 119.412 100.078 118.882 99.8889 118.385L98.759 118.815ZM35.2376 80.6653L35.8521 79.6242L33.3858 78.1684L32.7713 79.2095L32.1568 80.2505L34.623 81.7063L35.2376 80.6653ZM33.9559 70.2972L32.7561 70.4455L34.0378 80.8136L35.2376 80.6653L36.4373 80.5169L35.1556 70.1489L33.9559 70.2972ZM31.7556 69.9284L31.864 71.1324C32.3409 71.0895 32.9068 71.1956 33.5325 71.4295L33.9559 70.2972L34.3792 69.1648C33.5654 68.8605 32.617 68.6371 31.6473 68.7244L31.7556 69.9284ZM29.58 71.1684L30.5342 71.9106C30.9458 71.3813 31.3471 71.1726 31.8493 71.1336L31.7556 69.9284L31.662 68.7231C30.3831 68.8225 29.3905 69.4428 28.6257 70.4263L29.58 71.1684ZM28.9005 73.601L30.1001 73.4511C30.0279 72.8732 30.1568 72.3966 30.5348 71.9098L29.58 71.1684L28.6251 70.427C27.8641 71.4071 27.5475 72.5217 27.701 73.7508L28.9005 73.601ZM32.7713 79.2095L33.5297 78.2681C33.3762 78.1444 32.5564 77.4692 31.7445 76.5204C30.9025 75.5365 30.2229 74.4342 30.1001 73.4511L28.9005 73.601L27.701 73.7508C27.9149 75.4635 28.9891 77.0192 29.9075 78.0924C30.8561 79.2008 31.8033 79.982 32.0128 80.1508L32.7713 79.2095ZM34.1841 85.8416L34.1787 84.6327C33.8687 84.6341 33.5725 84.6526 33.2907 84.6878L33.4403 85.8874L33.5899 87.0869C33.7689 87.0646 33.9685 87.0515 34.1894 87.0505L34.1841 85.8416ZM38.1226 87.6638L39.2468 87.2194C38.4795 85.2785 36.4564 84.6221 34.1784 84.6327L34.1841 85.8416L34.1897 87.0505C36.1742 87.0412 36.801 87.609 36.9984 88.1083L38.1226 87.6638ZM36.8006 92.9558L37.6262 93.8388C38.2158 93.2876 38.8116 92.2097 39.1699 91.1078C39.5307 89.9984 39.7633 88.5257 39.2468 87.2194L38.1226 87.6638L36.9984 88.1083C37.2105 88.6447 37.1627 89.4621 36.8707 90.36C36.5762 91.2655 36.1467 91.9122 35.975 92.0727L36.8006 92.9558ZM32.6668 93.3621L32.1923 94.474C33.2027 94.9051 34.1648 95.1677 35.1143 95.0741C36.1084 94.9761 36.9095 94.5079 37.6255 93.8395L36.8006 92.9558L35.9757 92.0721C35.5147 92.5024 35.1867 92.6375 34.8771 92.668C34.5229 92.7029 34.0066 92.6194 33.1412 92.2502L32.6668 93.3621ZM30.4051 88.5163L29.2199 88.2782C28.9687 89.5287 29.1804 90.8299 29.6889 91.9193C30.1941 93.0016 31.0469 93.9858 32.1928 94.4742L32.6668 93.3621L33.1407 92.25C32.6716 92.05 32.199 91.5805 31.8797 90.8966C31.5638 90.2197 31.4521 89.4423 31.5903 88.7544L30.4051 88.5163ZM33.4403 85.8874L33.2912 84.6877C31.9168 84.8585 30.929 85.4159 30.2603 86.1592C29.6113 86.8806 29.3373 87.6934 29.2199 88.2784L30.4051 88.5163L31.5904 88.7543C31.6536 88.4393 31.7886 88.0754 32.0578 87.7762C32.3072 87.4989 32.7466 87.1918 33.5894 87.087L33.4403 85.8874ZM32.9755 67.5116L33.5029 66.4239L33.4497 66.3981L32.9223 67.4858L32.3949 68.5736L32.4481 68.5994L32.9755 67.5116ZM33.6561 67.8775L34.2285 66.8127L33.5479 66.4468L32.9755 67.5116L32.4031 68.5764L33.0837 68.9423L33.6561 67.8775ZM32.5142 58.6374L31.3144 58.7857L32.4563 68.0257L33.6561 67.8775L34.8559 67.7292L33.7139 58.4891L32.5142 58.6374ZM30.463 58.5266L30.6115 59.7264C31.1095 59.6647 31.6807 59.7096 32.2886 59.8251L32.5142 58.6374L32.7398 57.4498C31.9959 57.3084 31.1532 57.2231 30.3146 57.3269L30.463 58.5266ZM29.6415 58.7142L30.0393 59.8558C30.2113 59.7959 30.4027 59.7523 30.6122 59.7263L30.463 58.5266L30.3139 57.327C29.9574 57.3713 29.5969 57.4496 29.2438 57.5726L29.6415 58.7142ZM27.8342 60.4479L28.9407 60.9347C29.2049 60.3344 29.5567 60.0243 30.04 59.8556L29.6415 58.7142L29.2431 57.5729C28.067 57.9835 27.2354 58.8072 26.7277 59.9611L27.8342 60.4479ZM27.7658 62.9737L28.8931 62.537C28.6829 61.9944 28.6917 61.5004 28.9406 60.935L27.8342 60.4479L26.7278 59.9608C26.2272 61.098 26.1915 62.2562 26.6385 63.4103L27.7658 62.9737ZM32.9223 67.4858L33.3996 66.3752C33.4276 66.3872 32.4725 65.9635 31.4016 65.2292C30.2892 64.4664 29.2732 63.5166 28.8928 62.5364L27.7658 62.9737L26.6388 63.411C27.2963 65.1054 28.838 66.4029 30.0342 67.2232C31.2719 68.0718 32.3761 68.5669 32.445 68.5965L32.9223 67.4858ZM32.2274 56.3168L33.4272 56.1685L32.6168 49.6113L31.417 49.7596L30.2173 49.9079L31.0277 56.465L32.2274 56.3168ZM30.1523 53.723L29.0252 54.1601C29.5247 55.4479 30.5275 56.4873 31.4616 57.2521L32.2274 56.3168L32.9933 55.3814C32.1873 54.7215 31.5576 54.0032 31.2794 53.2859L30.1523 53.723ZM30.2207 51.1978L29.1143 50.7107C28.6137 51.8478 28.5779 53.0061 29.0251 54.1599L30.1523 53.723L31.2795 53.2861C31.0695 52.7443 31.0781 52.2504 31.3271 51.6849L30.2207 51.1978ZM31.417 49.7596L30.7772 48.7339C30.0276 49.2016 29.4818 49.8763 29.1144 50.7105L30.2207 51.1978L31.3271 51.685C31.5256 51.2341 31.7727 50.9626 32.0569 50.7853L31.417 49.7596Z" fill="white" mask="url(#path-1-outside-1_1001_45091)"/>
<path d="M71.498 18.6315C71.3094 17.0473 69.8874 15.9179 68.3227 16.109L35.9419 20.0664C34.3773 20.2574 33.2618 21.6972 33.4505 23.2813L42.2347 96.9576C42.4234 98.5418 43.8454 99.6712 45.41 99.4801L73.8792 96.0008C75.2593 88.1408 78.0202 81.3176 78.763 79.5687L71.498 18.6315Z" fill="white"/>
<path d="M98.7597 118.816C98.4838 118.09 98.2353 117.433 98.0231 116.862C97.0287 112.273 96.021 104.893 97.1977 96.6453C98.4304 88.0409 95.8757 79.4572 93.822 72.5608C92.7311 68.896 91.7887 65.7307 91.6006 63.2085C91.3826 60.2518 86.8307 47.2581 84.8255 41.7506C84.0777 41.77 82.7072 41.9805 81.5601 43.0746C77.352 46.9583 79.6371 58.6986 80.1867 59.9262C80.614 60.7711 84.0246 73.4892 79.6755 82.4373C76.732 88.5001 75.6852 96.4754 75.1232 100.76C74.9495 102.084 73.9304 102.338 72.9762 102.338L46.2244 105.663C48.2806 108.887 51.0687 112.879 53.6278 114.851C55.2251 116.081 56.5797 117.427 57.7689 118.817C59.7257 121.105 61.2318 123.516 62.6214 125.741C62.8875 126.168 63.1482 126.583 63.4078 126.991L101.856 126.99C100.668 123.795 99.5852 120.985 98.7597 118.816Z" fill="#73371F"/>
<path d="M64.5564 25.4991C66.2132 25.2967 67.722 26.4753 67.9264 28.1318L75.0992 86.258C75.3035 87.9146 74.126 89.4219 72.4692 89.6244L48.2808 92.5793C46.6241 92.7817 45.1154 91.603 44.9108 89.9466L37.7381 31.8204C37.5337 30.1638 38.7112 28.6565 40.368 28.454L64.5564 25.4991Z" fill="white"/>
<path d="M45.6568 99.0497C44.105 99.2373 42.6947 98.128 42.5076 96.572L33.7961 24.2046C33.609 22.6486 34.7153 21.2345 36.2671 21.0468L68.3819 17.1597C69.9337 16.9721 71.344 18.0813 71.5311 19.6374L78.7364 79.492C78.8557 79.2141 78.9241 79.0622 78.9241 79.0622C81.1021 71.3348 79.0328 63.1524 78.3774 61.0886C77.6272 58.6661 75.9649 51.4282 77.9295 45.6684L76.0707 30.2271C76.1087 30.23 76.1473 30.2294 76.1859 30.2247C76.5174 30.1849 76.7554 29.88 76.7156 29.5476L76.0257 23.8165C75.9859 23.4841 75.6819 23.2455 75.3504 23.2853C75.3112 23.29 75.2738 23.2988 75.2375 23.3105L74.44 16.6854C74.0956 13.8225 71.5018 11.7822 68.6467 12.1281L34.8135 16.2234C31.9584 16.5687 29.9236 19.1695 30.2686 22.0324L30.8714 27.0406C30.5697 27.1062 30.3592 27.3918 30.3966 27.7048L30.7264 30.4434C30.7638 30.7565 31.0363 30.984 31.345 30.9758L31.638 33.4113C31.3363 33.4769 31.1258 33.7625 31.1632 34.0756L31.7303 38.787C31.7678 39.1001 32.0402 39.327 32.349 39.3194L37.7996 84.5957C38.7216 85.1392 39.2245 85.872 39.4894 86.5416C40.2395 88.4371 39.5736 90.7366 38.7193 92.2351L39.5981 99.5346C39.9425 102.397 42.5362 104.438 45.3913 104.092L57.4842 102.628L73.1484 100.682C73.3051 99.4882 73.4583 98.2459 73.7588 96.4102C73.8015 96.1493 73.8465 95.8901 73.8921 95.6316L45.6568 99.0497Z" fill="#6F6F6F"/>
<path d="M32.7702 79.2094L35.2365 80.6651L33.9548 70.297C33.2351 70.0279 32.4779 69.8632 31.7546 69.9283C30.8641 69.9974 30.1671 70.412 29.5789 71.1683C29.0094 71.9017 28.7867 72.6973 28.8995 73.6008C29.2363 76.2966 32.4071 78.9168 32.7702 79.2094Z" fill="#73371F"/>
<path d="M34.1852 85.8419C33.9198 85.8431 33.6719 85.8589 33.4415 85.8876C31.2243 86.1632 30.587 87.6166 30.4063 88.5166C30.0169 90.4549 31.053 92.6741 32.6679 93.3624C34.5437 94.1627 35.6248 94.0548 36.8018 92.9561C37.5631 92.2443 38.8524 89.5069 38.1238 87.6641C37.6414 86.444 36.3165 85.8319 34.1852 85.8419Z" fill="#73371F"/>
<path d="M32.9223 67.4863L32.9755 67.5121L33.6561 67.8779L32.5142 58.6378C31.8383 58.5095 31.1314 58.4444 30.4631 58.527C30.1801 58.5622 29.9041 58.6232 29.6415 58.7147C28.8119 59.0043 28.2201 59.5712 27.8342 60.4483C27.4594 61.2996 27.4372 62.1257 27.7658 62.9741C28.8037 65.6488 32.8814 67.4687 32.9223 67.4863Z" fill="#73371F"/>
<path d="M32.2277 56.3169L31.4173 49.7598C30.9004 50.0822 30.504 50.5554 30.221 51.198C29.8462 52.0493 29.8239 52.8754 30.1525 53.7231C30.5414 54.7257 31.3576 55.6046 32.2277 56.3169Z" fill="#73371F"/>
<ellipse cx="56.2863" cy="55.332" rx="10.8707" ry="10.8707" transform="rotate(-7 56.2863 55.332)" fill="#00A2C4"/>
<g clip-path="url(#clip2_1001_45091)">
<path fill-rule="evenodd" clip-rule="evenodd" d="M60.5346 59.8443C59.601 60.7849 58.3571 61.4298 56.9399 61.6039C53.8247 61.9864 50.9693 59.9566 50.2475 56.9786L51.6329 58.0611L51.726 57.942C52.0342 57.5474 51.9643 56.9776 51.5697 56.6693L49.4298 54.9975L47.758 57.1373C47.4497 57.5319 47.5196 58.1017 47.9142 58.41L48.0333 58.503L49.1765 57.0398C49.946 60.6354 53.3495 63.1104 57.0688 62.6538C59.1102 62.4031 60.8463 61.3177 61.9756 59.7831L61.8539 59.6936C61.4507 59.3968 60.8874 59.4889 60.5346 59.8443Z" fill="white"/>
<path fill-rule="evenodd" clip-rule="evenodd" d="M51.856 51.2143C52.7897 50.2737 54.0335 49.6287 55.4508 49.4547C58.566 49.0722 61.4214 51.102 62.1432 54.08L60.7577 52.9975L60.6647 53.1166C60.3564 53.5112 60.4263 54.081 60.8209 54.3893L62.9608 56.0611L64.6327 53.9213C64.941 53.5267 64.871 52.9569 64.4764 52.6486L64.3573 52.5556L63.2141 54.0188C62.4446 50.4232 59.0411 47.9482 55.3219 48.4048C53.2804 48.6555 51.5444 49.7409 50.415 51.2755L50.5367 51.365C50.94 51.6618 51.5033 51.5697 51.856 51.2143Z" fill="white"/>
</g>
</g>
</g>
<defs>
<clipPath id="clip0_1001_45091">
<rect width="136" height="136" fill="white"/>
</clipPath>
<clipPath id="clip1_1001_45091">
<rect width="226.667" height="136" fill="white" transform="translate(-45)"/>
</clipPath>
<clipPath id="clip2_1001_45091">
<rect width="20.3534" height="20.3534" fill="white" transform="translate(45.4141 47.1094) rotate(-7)"/>
</clipPath>
</defs>
</svg>
