<svg width="375" height="225" viewBox="0 0 375 225" fill="none" xmlns="http://www.w3.org/2000/svg">
<g clip-path="url(#clip0_102_69646)">
<path d="M184.5 4C262.096 4 325 66.904 325 144.5C325 163.443 321.249 181.51 314.453 198H54.5469C47.7506 181.51 44 163.443 44 144.5C44 66.904 106.904 4 184.5 4Z" fill="#DCEDF4"/>
<ellipse cx="184" cy="203" rx="153" ry="14" fill="#A0A09F" fill-opacity="0.15"/>
<path d="M316 97V124H264L264.005 97H316Z" fill="#FFBC0D"/>
<path d="M190.926 120H77V97H191L190.926 120Z" fill="#FFBC0D"/>
<path d="M191 99L190.97 108H77V99H191Z" fill="black" fill-opacity="0.1"/>
<path d="M316 99V108H264L264.002 99H316Z" fill="black" fill-opacity="0.1"/>
<path d="M264 124H287V203H264V124Z" fill="#F9F9F9"/>
<path d="M288 124H316V203H288V124Z" fill="#F9F9F9"/>
<path d="M191 89L190.967 98.999L73.8004 99C72.8061 99 72 98.1942 72 97.2002V90.8008C72 89.8068 72.8061 89.001 73.8004 89.001L191 89Z" fill="#FFBC0D"/>
<path d="M318.212 89.001C319.2 89.001 320 89.8068 320 90.8008V97.2002C320 98.1942 319.2 99 318.212 99L264 98.999L264.002 89L318.212 89.001Z" fill="#FFBC0D"/>
<path d="M260.5 74.5234L260.473 202.998H194.569L194.5 74.5234L260.5 74.5234Z" fill="#F1F1F1"/>
<path d="M59.8 124H244.443C245.437 124 246.243 124.806 246.243 125.8V140H58V125.8C58 124.806 58.8059 124 59.8 124Z" fill="#606060"/>
<path d="M195 140H246V203H195V140Z" fill="#D8D8D8"/>
<path d="M109 140H137V203H109V140Z" fill="#F9F9F9"/>
<path d="M138 140H166V203H138V140Z" fill="#F9F9F9"/>
<path d="M167 140H195V203H167V140Z" fill="#F9F9F9"/>
<path d="M218 154H246V203H218V154Z" fill="#F9F9F9"/>
<path d="M58 198H109V204H58V198Z" fill="#A5835B"/>
<path d="M58 192H109V198H58V192Z" fill="#C2945C"/>
<path d="M58 187H109V193H58V187Z" fill="#A5835B"/>
<path d="M58 182H109V188H58V182Z" fill="#C2945C"/>
<path d="M58 177H109V183H58V177Z" fill="#A5835B"/>
<path d="M58 171H109V177H58V171Z" fill="#C2945C"/>
<path d="M58 166H109V172H58V166Z" fill="#A5835B"/>
<path d="M58 161H109V167H58V161Z" fill="#C2945C"/>
<path d="M58 156H109V162H58V156Z" fill="#A5835B"/>
<path d="M58 150H109V156H58V150Z" fill="#C2945C"/>
<path d="M58 145H109V151H58V145Z" fill="#A5835B"/>
<path d="M58 140H109V146H58V140Z" fill="#C2945C"/>
<path d="M136 140H140V203H136V140Z" fill="#D8D8D8"/>
<path d="M286 124H290V203H286V124Z" fill="#D8D8D8"/>
<path d="M312 124H316V203H312V124Z" fill="#D8D8D8"/>
<path d="M165 140H169V203H165V140Z" fill="#D8D8D8"/>
<path d="M218 154H246V160H218V154Z" fill="#A0A09F" fill-opacity="0.15"/>
<path d="M195 140H246V143H195V140Z" fill="#292929" fill-opacity="0.1"/>
<path d="M165 140H169V146H165V140Z" fill="#292929" fill-opacity="0.1"/>
<path d="M136 140H140V146H136V140Z" fill="#292929" fill-opacity="0.1"/>
<path d="M109 140H136V145H109V140Z" fill="#A0A09F" fill-opacity="0.15"/>
<path d="M140 140H165V145H140V140Z" fill="#A0A09F" fill-opacity="0.15"/>
<path d="M169 140H195V145H169V140Z" fill="#A0A09F" fill-opacity="0.15"/>
<path fill-rule="evenodd" clip-rule="evenodd" d="M236.023 86.7959C239.143 86.7959 241.672 99.9528 241.672 116.182H246.195C246.195 98.703 241.64 84.5352 236.023 84.5352C232.826 84.5352 229.975 88.7942 228.111 95.4522C226.247 88.7942 223.396 84.5352 220.2 84.5352C214.584 84.5352 210.027 98.703 210.027 116.182H214.55C214.55 99.9528 217.08 86.7959 220.2 86.7959C223.32 86.7959 225.85 98.9404 225.85 113.921H230.372C230.372 98.9404 232.902 86.7959 236.023 86.7959Z" fill="#FFBC0D"/>
<rect x="63" y="33" width="6" height="170" fill="#F9F9F9"/>
<rect x="66" y="33" width="3" height="170" fill="#F1F1F1"/>
<path d="M66 26C68.2091 26 70 27.7909 70 30C70 31.195 69.4754 32.267 68.6445 33H63.3555C62.5246 32.267 62 31.195 62 30C62 27.7909 63.7909 26 66 26Z" fill="#FFBC0D"/>
<path opacity="0.5" d="M66 26C67.3598 26 68.5605 26.6789 69.2832 27.7158C68.6357 27.2648 67.8489 27 67 27C64.7909 27 63 28.7909 63 31C63 31.8496 63.2659 32.6366 63.7178 33.2842C62.6799 32.5616 62 31.3605 62 30C62 27.7909 63.7909 26 66 26Z" fill="#F9F9F9"/>
<g clip-path="url(#clip1_102_69646)">
<path d="M69 32.9688H124.323V69.8832H69V32.9688Z" fill="white"/>
<path d="M118.92 54.3644C118.489 54.3644 117.41 53.8251 116.655 53.3938C115.469 52.7467 114.391 52.0997 113.302 52.0997C112.212 52.0997 111.145 52.7467 109.948 53.3938C109.193 53.8251 108.222 54.3644 107.791 54.3644C107.359 54.3644 106.281 53.8251 105.634 53.3938C104.448 52.7467 103.261 52.0997 102.172 52.0997C101.202 52.0997 100.015 52.7467 98.8184 53.3938C98.0635 53.8251 97.0929 54.3644 96.6615 54.3644C96.2302 54.3644 95.2596 53.8251 94.5047 53.3938C93.3184 52.7467 92.1322 52.0997 91.1508 52.0997C90.0724 52.0997 88.8861 52.7467 87.6891 53.3938C87.042 53.8251 85.9636 54.3644 85.5322 54.3644C85.1008 54.3644 84.1303 53.8251 83.3754 53.3938C82.1891 52.7467 81.1107 52.0997 80.0215 52.0997C78.9323 52.0997 77.8646 52.7467 76.6676 53.3938C75.9127 53.8251 74.8343 54.3644 74.4029 54.3644C73.9715 54.3644 73.0009 53.8251 72.2461 53.3938C71.1676 52.7467 70.0892 52.0997 69 52.0997V54.4722L71.049 55.5506C72.2353 56.1977 73.3137 56.8447 74.4029 56.8447C75.4921 56.8447 76.6676 56.1977 77.8646 55.5506C78.5117 55.1193 79.5901 54.4722 80.0215 54.4722C80.4528 54.4722 81.4234 55.1193 82.1783 55.5506C83.3646 56.1977 84.443 56.8447 85.5322 56.8447C86.6214 56.8447 87.6891 56.1977 88.8861 55.5506C89.641 55.1193 90.7194 54.4722 91.1508 54.4722C91.5822 54.4722 92.5527 55.1193 93.3076 55.5506C94.4939 56.1977 95.5723 56.8447 96.6615 56.8447C97.7507 56.8447 98.8184 56.1977 100.015 55.5506C100.77 55.1193 101.741 54.4722 102.172 54.4722C102.604 54.4722 103.682 55.1193 104.437 55.5506C105.623 56.1977 106.702 56.8447 107.791 56.8447C108.88 56.8447 109.948 56.1977 111.145 55.5506C111.9 55.1193 112.87 54.4722 113.302 54.4722C113.733 54.4722 114.811 55.1193 115.458 55.5506C116.645 56.1977 117.831 56.8447 118.92 56.8447C120.009 56.8447 121.077 56.1977 122.274 55.5506L124.323 54.4722V52.0997C123.245 52.0997 122.166 52.7467 121.077 53.3938C120.322 53.8251 119.352 54.3644 118.92 54.3644ZM69 36.4194L71.049 37.4978C72.2353 38.1449 73.3137 38.7919 74.4029 38.7919C75.4921 38.7919 76.6676 38.1449 77.8646 37.4978C78.5117 37.0665 79.5901 36.4194 80.0215 36.4194C80.4528 36.4194 81.4234 37.0665 82.1783 37.4978C83.3646 38.1449 84.443 38.7919 85.5322 38.7919C86.6214 38.7919 87.6891 38.1449 88.8861 37.4978C89.641 37.0665 90.7194 36.4194 91.1508 36.4194C91.5822 36.4194 92.5527 37.0665 93.3076 37.4978C94.4939 38.1449 95.5723 38.7919 96.6615 38.7919C97.7507 38.7919 98.8184 38.1449 100.015 37.4978C100.77 37.0665 101.741 36.4194 102.172 36.4194C102.604 36.4194 103.682 37.0665 104.437 37.4978C105.623 38.1449 106.702 38.7919 107.791 38.7919C108.88 38.7919 109.948 38.1449 111.145 37.4978C111.9 37.0665 112.87 36.4194 113.302 36.4194C113.733 36.4194 114.811 37.0665 115.458 37.4978C116.645 38.1449 117.831 38.7919 118.92 38.7919C120.009 38.7919 121.077 38.1449 122.274 37.4978L124.323 36.4194V34.0469C123.245 34.1547 122.166 34.6939 121.077 35.341C120.322 35.7724 119.352 36.3116 118.92 36.3116C118.489 36.3116 117.41 35.7724 116.655 35.341C115.469 34.6939 114.391 34.0469 113.302 34.0469C112.212 34.0469 111.145 34.6939 109.948 35.341C109.193 35.7724 108.222 36.3116 107.791 36.3116C107.359 36.3116 106.281 35.7724 105.634 35.341C104.448 34.6939 103.261 34.0469 102.172 34.0469C101.083 34.0469 100.015 34.6939 98.8184 35.341C98.0635 35.7724 97.0929 36.3116 96.6615 36.3116C96.2302 36.3116 95.2596 35.7724 94.5047 35.341C93.3184 34.6939 92.1322 34.0469 91.1508 34.0469C90.1694 34.0469 88.8861 34.6939 87.6891 35.341C87.042 35.7724 85.9636 36.3116 85.5322 36.3116C85.1008 36.3116 84.1303 35.7724 83.3754 35.341C82.1891 34.6939 81.1107 34.0469 80.0215 34.0469C78.9323 34.0469 77.8646 34.6939 76.6676 35.341C75.9127 35.7724 74.8343 36.3116 74.4029 36.3116C73.9715 36.3116 73.0009 35.7724 72.2461 35.341C71.1676 34.6939 70.0892 34.1547 69 34.0469V36.4194V36.4194ZM118.92 42.3723C118.489 42.3723 117.41 41.8331 116.655 41.4017C115.469 40.7547 114.391 40.1076 113.302 40.1076C112.212 40.1076 111.145 40.7547 109.948 41.4017C109.193 41.8331 108.222 42.3723 107.791 42.3723C107.359 42.3723 106.281 41.8331 105.634 41.4017C104.448 40.7547 103.261 40.1076 102.172 40.1076C101.202 40.1076 100.015 40.7547 98.8184 41.4017C98.0635 41.8331 97.0929 42.3723 96.6615 42.3723C96.2302 42.3723 95.2596 41.8331 94.5047 41.4017C93.3184 40.7547 92.1322 40.1076 91.1508 40.1076C90.0724 40.1076 88.8861 40.7547 87.6891 41.4017C87.042 41.8331 85.9636 42.3723 85.5322 42.3723C85.1008 42.3723 84.1303 41.8331 83.3754 41.4017C82.1891 40.7547 81.1107 40.1076 80.0215 40.1076C78.9323 40.1076 77.8646 40.7547 76.6676 41.4017C75.9127 41.8331 74.8343 42.3723 74.4029 42.3723C73.9715 42.3723 73.0009 41.8331 72.2461 41.4017C71.1676 40.7547 70.0892 40.1076 69 40.1076V42.4801L71.049 43.4507C72.2353 44.0978 73.3137 44.7448 74.4029 44.7448C75.4921 44.7448 76.6676 44.0978 77.8646 43.4507C78.5117 43.0194 79.5901 42.4801 80.0215 42.4801C80.4528 42.4801 81.4234 43.0194 82.1783 43.4507C83.3646 44.0978 84.443 44.7448 85.5322 44.7448C86.6214 44.7448 87.6891 44.0978 88.8861 43.4507C89.641 43.0194 90.7194 42.4801 91.1508 42.4801C91.5822 42.4801 92.5527 43.0194 93.3076 43.4507C94.4939 44.0978 95.5723 44.7448 96.6615 44.7448C97.7507 44.7448 98.8184 44.0978 100.015 43.4507C100.77 43.0194 101.741 42.4801 102.172 42.4801C102.604 42.4801 103.682 43.0194 104.437 43.4507C105.623 44.0978 106.702 44.7448 107.791 44.7448C108.88 44.7448 109.948 44.0978 111.145 43.4507C111.9 43.0194 112.87 42.4801 113.302 42.4801C113.733 42.4801 114.811 43.0194 115.458 43.4507C116.645 44.0978 117.831 44.7448 118.92 44.7448C120.009 44.7448 121.077 44.0978 122.274 43.4507L124.323 42.4801V40.1076C123.245 40.1076 122.166 40.7547 121.077 41.4017C120.322 41.8223 119.352 42.3723 118.92 42.3723ZM124.323 46.0389C123.245 46.1468 122.166 46.686 121.077 47.333C120.322 47.7644 119.352 48.4115 118.92 48.4115C118.489 48.4115 117.41 47.7644 116.655 47.333C115.469 46.686 114.391 46.0389 113.302 46.0389C112.212 46.0389 111.145 46.686 109.948 47.333C109.193 47.7644 108.222 48.4115 107.791 48.4115C107.359 48.4115 106.281 47.7644 105.634 47.333C104.448 46.686 103.261 46.0389 102.172 46.0389C101.083 46.0389 100.015 46.686 98.8184 47.333C98.0635 47.7644 97.0929 48.4115 96.6615 48.4115C96.2302 48.4115 95.2596 47.7644 94.5047 47.333C93.3184 46.686 92.1322 46.0389 91.1508 46.0389C90.1694 46.0389 88.8861 46.686 87.6891 47.333C87.042 47.7644 85.9636 48.4115 85.5322 48.4115C85.1008 48.4115 84.1303 47.7644 83.3754 47.333C82.1891 46.686 81.1107 46.0389 80.0215 46.0389C78.9323 46.0389 77.8646 46.686 76.6676 47.333C75.9127 47.7644 74.8343 48.4115 74.4029 48.4115C73.9715 48.4115 73.0009 47.7644 72.2461 47.333C71.1676 46.686 70.0892 46.1468 69 46.0389V48.5193C69.4314 48.6272 70.4019 49.0585 71.049 49.4899C72.2353 50.1369 73.3137 50.784 74.4029 50.784C75.4921 50.784 76.6676 50.1369 77.8646 49.4899C78.5117 49.0585 79.5901 48.5193 80.0215 48.5193C80.4528 48.5193 81.4234 49.0585 82.1783 49.4899C83.3646 50.1369 84.443 50.784 85.5322 50.784C86.6214 50.784 87.6891 50.1369 88.8861 49.4899C89.641 49.0585 90.7194 48.5193 91.1508 48.5193C91.5822 48.5193 92.5527 49.0585 93.3076 49.4899C94.4939 50.1369 95.5723 50.784 96.6615 50.784C97.7507 50.784 98.8184 50.1369 100.015 49.4899C100.77 49.0585 101.741 48.5193 102.172 48.5193C102.604 48.5193 103.682 49.0585 104.437 49.4899C105.623 50.1369 106.702 50.784 107.791 50.784C108.88 50.784 109.948 50.1369 111.145 49.4899C111.9 49.0585 112.87 48.5193 113.302 48.5193C113.733 48.5193 114.811 49.0585 115.458 49.4899C116.645 50.1369 117.831 50.784 118.92 50.784C120.009 50.784 121.077 50.1369 122.274 49.4899C122.921 49.0585 123.892 48.6272 124.323 48.5193V46.0389ZM118.92 60.4143C118.489 60.4143 117.41 59.8751 116.655 59.4437C115.469 58.7967 114.391 58.1496 113.302 58.1496C112.212 58.1496 111.145 58.7967 109.948 59.4437C109.193 59.8751 108.222 60.4143 107.791 60.4143C107.359 60.4143 106.281 59.8751 105.634 59.4437C104.448 58.7967 103.261 58.1496 102.172 58.1496C101.202 58.1496 100.015 58.7967 98.8184 59.4437C98.0635 59.8751 97.0929 60.4143 96.6615 60.4143C96.2302 60.4143 95.2596 59.8751 94.5047 59.4437C93.3184 58.7967 92.1322 58.1496 91.1508 58.1496C90.0724 58.1496 88.8861 58.7967 87.6891 59.4437C87.042 59.8751 85.9636 60.4143 85.5322 60.4143C85.1008 60.4143 84.1303 59.8751 83.3754 59.4437C82.1891 58.7967 81.1107 58.1496 80.0215 58.1496C78.9323 58.1496 77.8646 58.7967 76.6676 59.4437C75.9127 59.8751 74.8343 60.4143 74.4029 60.4143C73.9715 60.4143 73.0009 59.8751 72.2461 59.4437C71.1676 58.7967 70.0892 58.1496 69 58.1496V60.5222L71.049 61.4927C72.2353 62.1398 73.3137 62.7868 74.4029 62.7868C75.4921 62.7868 76.6676 62.1398 77.8646 61.4927C78.5117 61.0614 79.5901 60.5222 80.0215 60.5222C80.4528 60.5222 81.4234 61.0614 82.1783 61.4927C83.3646 62.1398 84.443 62.7868 85.5322 62.7868C86.6214 62.7868 87.6891 62.1398 88.8861 61.4927C89.641 61.0614 90.7194 60.5222 91.1508 60.5222C91.5822 60.5222 92.5527 61.0614 93.3076 61.4927C94.4939 62.1398 95.5723 62.7868 96.6615 62.7868C97.7507 62.7868 98.8184 62.1398 100.015 61.4927C100.77 61.0614 101.741 60.5222 102.172 60.5222C102.604 60.5222 103.682 61.0614 104.437 61.4927C105.623 62.1398 106.702 62.7868 107.791 62.7868C108.88 62.7868 109.948 62.1398 111.145 61.4927C111.9 61.0614 112.87 60.5222 113.302 60.5222C113.733 60.5222 114.811 61.0614 115.458 61.4927C116.645 62.1398 117.831 62.7868 118.92 62.7868C120.009 62.7868 121.077 62.1398 122.274 61.4927L124.323 60.5222V58.1496C123.245 58.1496 122.166 58.7967 121.077 59.4437C120.322 59.8751 119.352 60.4143 118.92 60.4143ZM124.323 64.0809C123.245 64.1888 122.166 64.728 121.077 65.3751C120.322 65.8064 119.352 66.4535 118.92 66.4535C118.489 66.4535 117.41 65.8064 116.655 65.3751C115.469 64.728 114.391 64.0809 113.302 64.0809C112.212 64.0809 111.145 64.728 109.948 65.3751C109.193 65.8064 108.222 66.4535 107.791 66.4535C107.359 66.4535 106.281 65.8064 105.634 65.3751C104.448 64.728 103.261 64.0809 102.172 64.0809C101.083 64.0809 100.015 64.728 98.8184 65.3751C98.0635 65.8064 97.0929 66.4535 96.6615 66.4535C96.2302 66.4535 95.2596 65.8064 94.5047 65.3751C93.3184 64.728 92.1322 64.0809 91.1508 64.0809C90.1694 64.0809 88.8861 64.728 87.6891 65.3751C87.042 65.8064 85.9636 66.4535 85.5322 66.4535C85.1008 66.4535 84.1303 65.8064 83.3754 65.3751C82.1891 64.728 81.1107 64.0809 80.0215 64.0809C78.9323 64.0809 77.8646 64.728 76.6676 65.3751C75.9127 65.8064 74.8343 66.4535 74.4029 66.4535C73.9715 66.4535 73.0009 65.8064 72.2461 65.3751C71.1676 64.728 70.0892 64.1888 69 64.0809V66.5613C69.4314 66.5613 70.4019 67.1005 71.049 67.5319C72.2353 68.179 73.3137 68.826 74.4029 68.826C75.4921 68.826 76.6676 68.179 77.8646 67.5319C78.5117 67.1005 79.5901 66.5613 80.0215 66.5613C80.4528 66.5613 81.4234 67.1005 82.1783 67.5319C83.3646 68.179 84.443 68.826 85.5322 68.826C86.6214 68.826 87.6891 68.179 88.8861 67.5319C89.641 67.1005 90.7194 66.5613 91.1508 66.5613C91.5822 66.5613 92.5527 67.1005 93.3076 67.5319C94.4939 68.179 95.5723 68.826 96.6615 68.826C97.7507 68.826 98.8184 68.179 100.015 67.5319C100.77 67.1005 101.741 66.5613 102.172 66.5613C102.604 66.5613 103.682 67.1005 104.437 67.5319C105.623 68.179 106.702 68.826 107.791 68.826C108.88 68.826 109.948 68.179 111.145 67.5319C111.9 67.1005 112.87 66.5613 113.302 66.5613C113.733 66.5613 114.811 67.1005 115.458 67.5319C116.645 68.179 117.831 68.826 118.92 68.826C120.009 68.826 121.077 68.179 122.274 67.5319C122.921 67.1005 123.892 66.5613 124.323 66.5613V64.0809Z" fill="#0052B4"/>
<path d="M69 32.9688H96.6076V51.4098H69V32.9688Z" fill="white"/>
<path d="M111.038 45.9297H113.001V54.4277H111.027L111.038 45.9297ZM111.038 58.6335H113.001V66.7325H111.027L111.038 58.6335Z" fill="#A2001D"/>
<path d="M84.5293 32.9688H81.0783V40.5177H69V43.9687H81.0783V51.4098H84.5293V43.9687H96.6076V40.5177H84.5293V32.9688Z" fill="#D80027"/>
<path d="M69 32.9688V34.5864L75.147 38.7922H77.6274L69 32.9688ZM96.6076 32.9688V34.5864L90.4606 38.7922H87.9802L96.6076 32.9688Z" fill="#D80027"/>
<path d="M69 32.9688V34.5864L75.147 38.7922H77.6274L69 32.9688ZM96.6076 32.9688V34.5864L90.4606 38.7922H87.9802L96.6076 32.9688ZM69 51.4098V49.7921L75.147 45.6941H77.6274L69 51.4098ZM96.6076 51.4098V49.7921L90.4606 45.6941H87.9802L96.6076 51.4098Z" fill="#D80027"/>
<path d="M69 35.4491V38.7922H73.9607L69 35.4491ZM79.3529 32.9688V38.253L71.4804 32.9688H79.3529ZM96.6076 35.4491V38.7922H91.6469L96.6076 35.4491ZM86.2548 32.9688V38.253L94.1272 32.9688H86.2548Z" fill="#2E52B2"/>
<path d="M69 35.4491V38.7922H73.9607L69 35.4491ZM79.3529 32.9688V38.253L71.4804 32.9688H79.3529ZM96.6076 35.4491V38.7922H91.6469L96.6076 35.4491ZM86.2548 32.9688V38.253L94.1272 32.9688H86.2548ZM69 48.9294V45.6941H73.9607L69 48.9294ZM79.3529 51.4098V46.1255L71.4804 51.4098H79.3529ZM96.6076 48.9294V45.6941H91.6469L96.6076 48.9294ZM86.2548 51.4098V46.1255L94.1272 51.4098H86.2548Z" fill="#2E52B2"/>
<path d="M118.91 42.8693H115.772L118.543 40.0977C119.028 39.6232 119.028 38.8683 118.543 38.3938L118.177 38.0272C117.702 37.5527 116.947 37.5527 116.473 38.0272L113.679 40.8203V37.035C113.679 36.3664 113.129 35.8164 112.461 35.8164H111.954C111.285 35.8164 110.735 36.3664 110.735 37.035V40.4536L108.201 37.887C107.694 37.3801 106.885 37.3801 106.379 37.887L105.99 38.2752C105.483 38.7821 105.483 39.6124 105.99 40.1301L108.686 42.8693H105.386C104.739 42.8693 104.211 43.3977 104.211 44.0448V44.5408C104.211 45.1879 104.739 45.7163 105.386 45.7163H108.794L106.562 47.9486C106.087 48.4231 106.087 49.178 106.562 49.6525L106.929 50.0192C107.403 50.4937 108.158 50.4937 108.632 50.0192L110.746 47.9055V51.0114C110.746 51.6692 111.296 52.2084 111.965 52.23H112.472C113.14 52.23 113.69 51.68 113.69 51.0114V47.9594L116.084 50.3967C116.591 50.9035 117.422 50.9035 117.928 50.3967L118.317 50.0084C118.824 49.5016 118.824 48.6712 118.317 48.1535L115.933 45.7271H118.91C119.546 45.7271 120.064 45.1987 120.085 44.5516V44.0555C120.085 43.3977 119.557 42.8693 118.91 42.8693Z" fill="#5DA51E"/>
<path fill-rule="evenodd" clip-rule="evenodd" d="M110.521 37.032C110.521 36.2442 111.167 35.5977 111.955 35.5977H112.462C113.249 35.5977 113.896 36.2442 113.896 37.032V40.2965L116.321 37.8716C116.88 37.3129 117.771 37.3129 118.33 37.8716L118.695 38.2366C118.695 38.2368 118.695 38.2371 118.696 38.2374C119.266 38.7963 119.266 39.6891 118.696 40.248C118.695 40.2483 118.695 40.2486 118.695 40.2489L116.293 42.6505H118.911C119.678 42.6505 120.302 43.2768 120.302 44.0525V44.5522L120.302 44.5557C120.277 45.311 119.671 45.9397 118.911 45.9397H116.448L118.472 47.9996C119.06 48.6002 119.062 49.5659 118.47 50.1579L118.082 50.5461C117.491 51.1372 116.524 51.1372 115.933 50.5461L115.932 50.5454L113.907 48.4837V51.0083C113.907 51.7961 113.26 52.4426 112.472 52.4426H111.962L111.959 52.4425C111.181 52.4174 110.531 51.7902 110.531 51.0083V48.4232L108.786 50.1687C108.227 50.7274 107.336 50.7274 106.777 50.1687L106.41 49.802C105.851 49.2433 105.851 48.3518 106.41 47.7931L108.274 45.9289H105.387C104.621 45.9289 103.996 45.304 103.996 44.5378V44.0417C103.996 43.2755 104.621 42.6505 105.387 42.6505H108.172L105.837 40.2783L105.837 40.2779C105.249 39.6773 105.247 38.7116 105.839 38.1196L106.227 37.7314C106.818 37.1403 107.763 37.1403 108.354 37.7314L108.355 37.7324L110.521 39.9251V37.032ZM111.955 36.029C111.405 36.029 110.952 36.4825 110.952 37.032V40.976L108.049 38.0364C108.049 38.0363 108.049 38.0361 108.049 38.036C107.626 37.6138 106.954 37.6139 106.532 38.0364L106.144 38.4247C105.722 38.8464 105.72 39.5413 106.145 39.976C106.145 39.976 106.145 39.9761 106.145 39.9761L109.202 43.0819H105.387C104.859 43.0819 104.427 43.5138 104.427 44.0417V44.5378C104.427 45.0657 104.859 45.4976 105.387 45.4976H109.316L106.715 48.0981C106.325 48.4884 106.325 49.1067 106.715 49.497L107.082 49.8637C107.472 50.2539 108.091 50.2539 108.481 49.8637L110.963 47.3818V51.0083C110.963 51.5411 111.411 51.9915 111.969 52.0112H112.472C113.022 52.0112 113.475 51.5578 113.475 51.0083V47.429L116.238 50.2411C116.238 50.2413 116.238 50.2415 116.238 50.2417C116.661 50.6637 117.354 50.6635 117.777 50.2411L118.165 49.8529C118.587 49.4312 118.589 48.7363 118.164 48.3016C118.164 48.3015 118.164 48.3015 118.163 48.3014L115.42 45.5084H118.911C119.422 45.5084 119.851 45.082 119.87 44.5448V44.0525C119.87 43.5125 119.437 43.0819 118.911 43.0819H115.252L118.392 39.9413L118.393 39.9405C118.792 39.5506 118.792 38.9349 118.393 38.545L118.392 38.5441L118.025 38.1766C117.635 37.7863 117.016 37.7863 116.626 38.1766L113.465 41.3379V37.032C113.465 36.4825 113.011 36.029 112.462 36.029H111.955Z" fill="#45602C"/>
<path d="M116.364 59.8629H107.758C107.758 59.8629 107.661 58.4178 107.111 57.5119C106.443 56.3904 105.612 54.4816 106.96 53.5541C108.675 52.3786 110.595 53.6404 112.158 53.6404C113.431 53.6512 115.059 52.1306 117.011 53.5541C118.327 54.5139 117.432 56.5952 116.871 57.5119C116.116 58.7521 116.364 59.8629 116.364 59.8629Z" fill="#E2DD24"/>
<path fill-rule="evenodd" clip-rule="evenodd" d="M112.158 53.8568C111.741 53.8567 111.308 53.7728 110.879 53.6724C110.737 53.6392 110.597 53.6045 110.457 53.5699C110.164 53.4974 109.874 53.4254 109.576 53.3691C108.708 53.2047 107.87 53.1932 107.083 53.7326C106.504 54.131 106.378 54.7382 106.493 55.4254C106.609 56.1186 106.967 56.8483 107.297 57.4015C107.591 57.8871 107.759 58.5043 107.853 58.9864C107.901 59.2301 107.931 59.4446 107.949 59.5984C107.951 59.6157 107.953 59.6322 107.955 59.648H116.119C116.109 59.5177 116.104 59.3436 116.12 59.1371C116.154 58.677 116.289 58.0549 116.687 57.4005L116.688 57.4001C116.96 56.9548 117.31 56.2316 117.433 55.5135C117.556 54.7942 117.446 54.1386 116.885 53.7291C115.976 53.0662 115.152 53.0868 114.382 53.2776C114.094 53.3491 113.82 53.4427 113.547 53.5357C113.447 53.5699 113.347 53.604 113.247 53.637C112.884 53.756 112.514 53.8597 112.158 53.8568ZM116.365 59.8636V60.0793H107.557L107.544 59.8782L107.544 59.8776L107.543 59.8751C107.543 59.8727 107.543 59.869 107.543 59.864C107.542 59.854 107.541 59.8389 107.539 59.8192C107.535 59.7797 107.53 59.7217 107.521 59.649C107.504 59.5035 107.475 59.3001 107.43 59.0694C107.338 58.6027 107.183 58.0448 106.927 57.6246L106.927 57.6239L106.927 57.6231C106.588 57.0548 106.197 56.2697 106.067 55.4966C105.937 54.7171 106.07 53.9063 106.839 53.3772L106.839 53.377C107.766 52.7411 108.745 52.7727 109.657 52.9453C109.966 53.0038 110.277 53.0807 110.576 53.1547C110.712 53.1886 110.847 53.2218 110.977 53.2524C111.401 53.3516 111.794 53.4255 112.159 53.4255H112.16L112.161 53.4255C112.44 53.4278 112.751 53.3455 113.112 53.2271C113.203 53.1974 113.296 53.1655 113.393 53.1325C113.67 53.0378 113.97 52.9353 114.279 52.8589C115.129 52.648 116.096 52.62 117.139 53.3806C117.893 53.9309 117.993 54.7959 117.858 55.5864C117.722 56.378 117.344 57.1538 117.056 57.6251C116.699 58.2108 116.58 58.7641 116.55 59.1693C116.535 59.3721 116.542 59.5376 116.552 59.6508C116.558 59.7073 116.564 59.7507 116.568 59.779C116.571 59.7932 116.573 59.8035 116.574 59.8099C116.574 59.8118 116.574 59.8133 116.575 59.8144C116.575 59.8153 116.575 59.8159 116.575 59.8164L116.575 59.8168C116.575 59.8167 116.575 59.8166 116.365 59.8636Z" fill="#525625"/>
</g>
<path d="M67.8158 205.5L68.7364 205.494C75.9374 205.404 81.6316 204.137 81.6316 196.816C81.6316 189.186 75.446 183 67.8158 183C60.1855 183 54 189.186 54 196.816C54 204.446 60.1855 205.5 67.8158 205.5Z" fill="#9CC93A"/>
<path d="M98.8158 205.5L99.7364 205.494C106.937 205.404 112.632 204.137 112.632 196.816C112.632 189.186 106.446 183 98.8158 183C91.1855 183 85 189.186 85 196.816C85 204.446 91.1855 205.5 98.8158 205.5Z" fill="#9CC93A"/>
<path d="M128.816 205.5L129.736 205.494C136.937 205.404 142.632 204.137 142.632 196.816C142.632 189.186 136.446 183 128.816 183C121.186 183 115 189.186 115 196.816C115 204.446 121.186 205.5 128.816 205.5Z" fill="#9CC93A"/>
<path d="M253.561 29.8555C255.088 29.8555 256.327 31.0943 256.327 32.6221C256.327 34.0685 255.217 35.2538 253.802 35.376C254.09 36.0127 254.252 36.7186 254.252 37.4629C254.252 40.2639 251.982 42.5342 249.181 42.5342H257.94C260.741 42.5342 263.013 44.8055 263.013 47.6064H269.929C272.729 47.6066 275 49.8769 275 52.6777C275 55.4786 272.73 57.7498 269.929 57.75H262.332C261.455 59.2653 259.817 60.2852 257.94 60.2852H215.523C213.647 60.2852 212.009 59.2653 211.132 57.75H206.071C203.27 57.7498 201 55.4786 201 52.6777C201 49.8769 203.271 47.6066 206.071 47.6064H210.452C210.452 44.8055 212.722 42.5342 215.523 42.5342H221.748C221.748 39.7334 224.018 37.4629 226.819 37.4629H235.349C235.349 34.6619 237.62 32.3916 240.421 32.3916H249.181C249.746 32.3916 250.288 32.4849 250.796 32.6553C250.796 32.6442 250.795 32.6332 250.795 32.6221C250.795 31.0943 252.033 29.8556 253.561 29.8555Z" fill="white"/>
<path d="M140.047 2C143.684 2 146.634 4.94858 146.634 8.58594C146.634 8.65081 146.631 8.71586 146.629 8.78027H148.184C150.537 8.78048 152.445 10.6884 152.445 13.042H155.738C158.092 13.042 160 14.95 160 17.3037C160 19.6574 158.092 21.5654 155.738 21.5654H153.229C152.493 22.8389 151.116 23.6963 149.539 23.6963H133.461C131.884 23.6963 130.507 22.8389 129.771 21.5654H127.262C124.908 21.5654 123 19.6574 123 17.3037C123 14.95 124.908 13.042 127.262 13.042H127.843C127.843 10.6883 129.751 8.78037 132.104 8.78027H133.466C133.464 8.71585 133.461 8.65081 133.461 8.58594C133.461 4.94867 136.41 2.00015 140.047 2Z" fill="white"/>
</g>
<defs>
<clipPath id="clip0_102_69646">
<rect width="375" height="225" fill="white"/>
</clipPath>
<clipPath id="clip1_102_69646">
<rect width="55.3231" height="36.882" fill="white" transform="translate(69 33)"/>
</clipPath>
</defs>
</svg>
