<svg width="136" height="136" viewBox="0 0 136 136" fill="none" xmlns="http://www.w3.org/2000/svg">
<path d="M123.543 103.652C123.543 106.018 113.316 107.936 100.699 107.936C88.0831 107.936 77.8555 106.018 77.8555 103.652C77.8555 101.287 88.0831 99.3691 100.699 99.3691C113.316 99.3691 123.543 101.287 123.543 103.652Z" fill="#A0A09F" fill-opacity="0.15"/>
<path d="M96.6879 39.7632L96.1192 39.7844C93.9412 39.8718 91.7634 40.0325 89.5857 40.2664L89.4816 40.2792C88.1695 40.461 87.0862 41.3912 86.7042 42.653L86.685 42.7181L82.1518 42.7184C80.6792 42.7184 79.4225 43.7831 79.1804 45.2356L78.5846 48.8103L78.5733 48.8881C78.4698 49.7156 78.9227 50.4857 79.638 50.8233L79.6736 50.8392L79.6928 51.1276C79.9022 54.7368 80.1341 58.3581 80.3876 61.9757L80.5421 64.1438C80.8567 68.4853 81.2021 72.8193 81.5785 77.1481C82.3313 85.8055 83.2118 94.4841 84.2198 103.184C84.321 104.058 85.0134 104.745 85.8877 104.839C90.599 105.349 95.3108 105.603 100.023 105.603L100.848 105.601C105.289 105.572 109.723 105.319 114.158 104.839C115.032 104.745 115.724 104.058 115.825 103.184C116.83 94.5269 117.71 85.8482 118.467 77.1481L118.653 74.9735C119.327 67.0016 119.894 59.0476 120.353 51.1115L120.373 50.8385L120.404 50.8248C121.143 50.4776 121.604 49.6685 121.461 48.8103L120.865 45.2356L120.847 45.1394C120.567 43.7363 119.333 42.7184 117.893 42.7184L113.36 42.7181L113.341 42.653C112.949 41.358 111.818 40.4123 110.46 40.2664L109.706 40.1884C107.949 40.0133 106.191 39.8859 104.434 39.8061L104.288 39.7998L108.101 12.6691C108.246 11.6394 107.529 10.6873 106.499 10.5426L102.77 10.0186C101.74 9.87384 100.788 10.5913 100.643 11.621L96.6879 39.7632Z" fill="white"/>
<path fill-rule="evenodd" clip-rule="evenodd" d="M81.5703 51.002C87.7207 51.504 93.8711 51.7551 100.022 51.7551C106.172 51.7551 112.322 51.504 118.473 51.002C117.973 59.6414 117.345 68.3022 116.59 76.9843C115.835 85.6664 114.956 94.3272 113.954 102.967C109.31 103.469 104.666 103.72 100.022 103.72C95.3773 103.72 90.7332 103.469 86.089 102.967C85.083 94.2845 84.2043 85.6237 83.4531 76.9843C82.7018 68.3448 82.0742 59.684 81.5703 51.002Z" fill="white"/>
<path fill-rule="evenodd" clip-rule="evenodd" d="M118.475 51.002C118.475 51.002 117.724 63.9611 116.592 76.9843C115.459 90.0074 113.956 102.967 113.956 102.967C113.956 102.967 106.99 103.72 100.023 103.72C105.515 103.72 108.276 86.3479 108.307 51.6041C113.956 51.3785 118.475 51.002 118.475 51.002Z" fill="#EAEAEA"/>
<path fill-rule="evenodd" clip-rule="evenodd" d="M89.5297 74.5092C87.7663 68.2999 85.2233 63.9568 82.3244 62.6842C82.3231 62.6754 82.3231 62.6754 82.5975 66.4047C85.1364 70.4452 86.9648 81.7969 86.9648 95.1677H92.0953C92.0953 78.4123 94.9664 64.8276 98.5084 64.8276C102.05 64.8276 104.922 79.5432 104.922 97.6951H110.051C110.051 78.1468 104.884 62.2988 98.5084 62.2988C94.8819 62.2988 91.6469 67.0617 89.5297 74.5092Z" fill="#FFBC0D"/>
<g style="mix-blend-mode:multiply" opacity="0.24">
<path fill-rule="evenodd" clip-rule="evenodd" d="M104.922 96.862C106.201 92.269 107.118 85.3691 107.672 76.1621C109.165 82.1278 110.053 89.5937 110.053 97.6951H104.924C104.924 97.4166 104.923 97.1389 104.922 96.862Z" fill="#ADADAD"/>
</g>
<path d="M102.508 11.8828L106.237 12.4069L101.923 43.0973L98.1216 43.0922L102.508 11.8828Z" fill="#A0A09F" fill-opacity="0.15"/>
<path d="M104.371 12.3066L105.49 12.4639L101.162 43.2581L100.021 43.2566L104.371 12.3066Z" fill="#EAEAEA"/>
<path fill-rule="evenodd" clip-rule="evenodd" d="M82.1515 44.5996H117.893C118.445 44.5996 118.917 44.9988 119.007 45.5436L119.603 49.1183C113.076 49.6203 106.549 49.8714 100.022 49.8714C93.4953 49.8714 86.9684 49.6203 80.4414 49.1183L81.0372 45.5436C81.128 44.9988 81.5993 44.5996 82.1515 44.5996Z" fill="#EAEAEA"/>
<path fill-rule="evenodd" clip-rule="evenodd" d="M89.7889 42.1375C93.2008 41.7711 96.6128 41.5879 100.025 41.5879C103.437 41.5879 106.849 41.7711 110.261 42.1375C110.896 42.2057 111.418 42.6667 111.566 43.288L111.698 43.8472H88.3516L88.484 43.288C88.6312 42.6667 89.154 42.2057 89.7889 42.1375Z" fill="#EAEAEA"/>
<path d="M71.4284 102.264C71.4284 104.629 58.3242 106.547 42.1595 106.547C25.9947 106.547 12.8906 104.629 12.8906 102.264C12.8906 99.8981 25.9947 97.9805 42.1595 97.9805C58.3242 97.9805 71.4284 99.8981 71.4284 102.264Z" fill="#A0A09F" fill-opacity="0.15"/>
<path fill-rule="evenodd" clip-rule="evenodd" d="M20.68 60.5026H18.6044C18.6044 60.5026 19.8741 70.4623 21.8413 80.3127C23.8086 90.163 26.5169 100.123 26.5169 100.123L29.3942 102.264C29.3942 102.264 34.7892 100.123 41.9824 100.123C49.1756 100.123 54.9302 102.264 54.9302 102.264L57.8075 100.123C57.8075 100.123 60.4941 90.2724 62.4831 80.3127C64.4722 70.353 65.7201 60.5026 65.7201 60.5026H63.9112L64.2919 59.0749L64.2915 59.0748C65.7193 54.4347 66.4331 51.2223 67.147 46.5821C65.307 46.0689 62.8809 46.5177 62.7203 47.1511C62.5324 47.8915 62.3937 48.3872 62.2305 48.97C62.1549 49.2401 62.0741 49.5289 61.9807 49.8695C61.2258 49.0306 59.6625 48.6008 58.1413 48.4561C57.7594 51.9403 57.3794 53.4078 56.5534 56.5979L56.5526 56.6008C56.4756 56.8982 56.3948 57.2104 56.3097 57.5407C56.5064 52.7222 56.7907 50.0498 57.6281 45.0635C55.9095 44.7166 53.6719 44.9999 52.9816 46.2406C52.5277 49.0872 52.2846 50.6655 52.1146 53.1418L52.0863 52.3921C51.9336 48.3477 51.8369 45.7865 51.4716 41.3867C49.2939 41.5603 47.2711 42.5654 46.8973 43.9083L46.921 44.2352L46.9211 44.2361C46.9655 44.8484 47.025 45.6688 47.056 46.1788C45.557 46.1454 43.9363 46.7907 43.3484 47.2607C43.0853 48.5743 42.9233 49.6776 42.767 50.7412L42.767 50.7412C42.5269 52.3761 42.3005 53.9169 41.7425 55.9827C41.7425 55.9827 41.37 53.3504 42.6472 42.3776C42.7238 41.7192 40.2756 40.0534 38.5374 39.8222C38.1472 43.0165 37.8046 46.2062 37.5043 49.3943C37.333 45.6323 37.0416 41.8503 36.6237 38.0318C35.3014 37.799 32.4692 40.1528 32.5333 40.8032C33.2741 48.3326 33.2876 49.5254 33.3288 54.5654C32.6543 49.9913 32.3739 48.304 31.7574 45.5483C30.0217 45.6779 27.5446 47.5266 27.6724 48.1677C28.2864 51.2503 28.4061 52.5991 28.6061 56.6334C28.0685 53.6104 27.6258 51.8648 27.1023 49.8005L27.1023 49.8004C26.7804 48.5314 26.4281 47.1419 26.0043 45.2612C25.9367 44.9606 22.8855 44.043 21.1911 44.4935C21.3286 45.0591 21.4683 45.6249 21.6081 46.1907L21.6082 46.1909L21.6082 46.1911L21.6082 46.1911C22.4237 49.4919 23.2387 52.7907 23.5893 56.0428C22.6251 53.5392 21.7284 50.9825 20.9142 48.3503C19.2278 48.83 17.0829 52.0696 17.1789 52.3624C17.6858 53.9087 18.2894 55.2124 18.9085 56.5497C19.283 57.3588 19.6633 58.1802 20.0313 59.0749L20.0311 59.075L20.68 60.5026Z" fill="white"/>
<path fill-rule="evenodd" clip-rule="evenodd" d="M18.6016 60.502H24.3126C24.3126 60.502 29.0318 74.0656 41.9796 74.0656C54.9274 74.0656 60.0063 60.502 60.0063 60.502H65.7173C65.7173 60.502 64.4694 70.3523 62.4803 80.312C60.4913 90.2717 57.8047 100.122 57.8047 100.122L54.9274 102.264C54.9274 102.264 49.1728 100.122 41.9796 100.122C34.7864 100.122 29.3914 102.264 29.3914 102.264L26.5141 100.122C26.5141 100.122 23.8057 90.1623 21.8385 80.312C19.8713 70.4616 18.6016 60.502 18.6016 60.502Z" fill="#D90007"/>
<path fill-rule="evenodd" clip-rule="evenodd" d="M45.6078 78.3496C43.9995 78.3496 42.5647 80.4149 41.6257 83.6442C40.6876 80.4149 39.2522 78.3496 37.6435 78.3496C34.8165 78.3496 32.5234 85.2215 32.5234 93.6979H34.7992C34.7992 85.827 36.0732 79.4461 37.6435 79.4461C39.2147 79.4461 40.4881 85.3366 40.4881 92.602H42.7636C42.7636 85.3366 44.0369 79.4461 45.6078 79.4461C47.1787 79.4461 48.4524 85.827 48.4524 93.6979H50.7272C50.7272 85.2215 48.4354 78.3496 45.6078 78.3496Z" fill="#FFBC0D"/>
<path fill-rule="evenodd" clip-rule="evenodd" d="M25.7423 59.0749C25.7423 59.0749 30.3825 72.6385 42.1614 72.6385C53.9403 72.6385 58.5805 59.0749 58.5805 59.0749C58.5805 59.0749 61.793 59.0749 64.2915 59.0749C65.7193 54.4347 66.4331 51.2223 67.147 46.5821C65.307 46.0689 62.8809 46.5177 62.7203 47.1511C62.4453 48.2346 62.2757 48.794 61.9807 49.8694C61.2258 49.0306 59.6625 48.6008 58.1413 48.4561C57.7237 52.266 57.3084 53.6646 56.3097 57.5407C56.5064 52.7222 56.7907 50.0498 57.6281 45.0635C55.9095 44.7166 53.6719 44.9998 52.9816 46.2406C52.5277 49.0872 52.2846 50.6655 52.1146 53.1418C51.9443 48.6503 51.859 46.0521 51.4716 41.3867C49.2939 41.5603 47.2711 42.5654 46.8973 43.9083C46.9414 44.5198 47.019 45.5702 47.056 46.1788C45.557 46.1454 43.9363 46.7907 43.3484 47.2607C42.681 50.5935 42.6636 52.573 41.7425 55.9826C41.7425 55.9826 41.37 53.3504 42.6472 42.3776C42.7238 41.7192 40.2756 40.0534 38.5374 39.8222C38.1472 43.0164 37.8046 46.2062 37.5043 49.3943C37.333 45.6323 37.0416 41.8503 36.6237 38.0318C35.3014 37.799 32.4692 40.1528 32.5333 40.8032C33.2741 48.3326 33.2876 49.5254 33.3288 54.5654C32.6543 49.9913 32.3739 48.304 31.7574 45.5483C30.0217 45.6779 27.5446 47.5266 27.6724 48.1677C28.2864 51.2503 28.4061 52.5991 28.6061 56.6334C27.7381 51.7519 27.1173 50.2012 26.0043 45.2612C25.9367 44.9606 22.8855 44.043 21.1911 44.4935C22.1306 48.3593 23.1785 52.2332 23.5893 56.0428C22.6251 53.5392 21.7284 50.9825 20.9142 48.3503C19.2278 48.83 17.0829 52.0695 17.1789 52.3624C17.9925 54.8442 19.0551 56.7012 20.0313 59.0749H25.7423Z" fill="#FFBC0D"/>
<path d="M105.696 121.717C105.696 124.082 89.0762 126 68.5746 126C48.073 126 31.4531 124.082 31.4531 121.717C31.4531 119.351 48.073 117.434 68.5746 117.434C89.0762 117.434 105.696 119.351 105.696 121.717Z" fill="#A0A09F" fill-opacity="0.15"/>
<path fill-rule="evenodd" clip-rule="evenodd" d="M69.4664 74.6016C87.6025 74.6016 101.234 81.6333 101.234 93.6977C101.234 94.6931 100.791 96.0798 99.9763 96.728L101.353 97.4163L101.442 97.3296L102.527 97.8937C102.647 97.9549 102.722 98.0824 102.722 98.2222V99.4627C102.722 99.6645 102.567 99.8282 102.375 99.8282C102.33 99.8282 102.285 99.8189 102.243 99.8009L101.769 99.5978C101.727 99.5799 101.684 99.5617 101.641 99.5433C101.503 99.7513 101.28 99.8986 101.021 99.9352C101.444 99.9934 101.769 100.357 101.769 100.795C101.769 101.285 101.455 101.717 100.994 101.87L100.921 101.891C101.659 102.543 102.126 103.51 102.126 104.589V106.204C102.126 107.54 101.409 108.367 100.35 108.759L100.342 108.757L100.342 110.684C100.946 110.715 101.412 110.93 101.412 111.555C101.412 111.928 101.28 112.1 101.056 112.193L101.055 114.963C101.055 118.246 98.5907 121.005 95.3287 121.374C87.0031 122.317 78.4418 122.788 69.6449 122.788C68.4132 122.788 67.1738 122.779 65.9267 122.76C65.7869 122.8 65.6473 122.796 65.5063 122.755C57.6993 122.625 49.5911 122.136 41.182 121.285C37.9268 120.956 35.4402 118.245 35.38 114.986L35.3789 114.865V112.08L37.9305 112.08C37.876 111.934 37.8617 111.76 37.896 111.555C37.9473 111.248 38.0654 111.041 38.2345 110.899L38.2343 108.762C37.1702 108.371 36.4497 107.544 36.4497 106.204V104.589C36.4497 103.368 37.0484 102.291 37.9604 101.651C37.5353 101.621 37.1956 101.281 37.1657 100.856L37.1636 100.795C37.1636 100.355 37.4893 99.9912 37.9136 99.9322C37.5504 99.8745 37.2604 99.5971 37.1836 99.2405L37.1636 99.2302L37.1635 96.5898C36.4832 95.9871 36.0928 94.9433 36.0928 94.0546C36.0928 81.9902 51.3304 74.6016 69.4664 74.6016Z" fill="white"/>
<path fill-rule="evenodd" clip-rule="evenodd" d="M37.163 96.5893C36.4827 95.9866 36.0923 94.9428 36.0923 94.0542C36.0923 81.9898 51.3299 74.6011 69.466 74.6011C87.602 74.6011 101.233 81.6328 101.233 93.6972C101.233 94.1588 101.138 94.7044 100.955 95.2216C100.82 95.6013 100.638 95.9656 100.411 96.27C100.386 96.3038 100.36 96.3368 100.334 96.369C100.224 96.504 100.105 96.625 99.9758 96.7275L101.353 97.4158L101.442 97.3291L102.527 97.8932C102.593 97.9269 102.645 97.9808 102.679 98.0457C102.685 98.0564 102.69 98.0674 102.694 98.0786C102.712 98.1231 102.722 98.1716 102.722 98.2217V99.4622C102.722 99.6641 102.566 99.8277 102.375 99.8277C102.329 99.8277 102.285 99.8184 102.243 99.8004L101.769 99.5974L101.64 99.5428C101.502 99.7508 101.279 99.8981 101.021 99.9348C101.164 99.9545 101.297 100.009 101.409 100.09C101.448 100.118 101.484 100.15 101.518 100.184C101.518 100.184 101.519 100.185 101.519 100.185C101.674 100.342 101.769 100.557 101.769 100.794C101.769 100.835 101.767 100.875 101.762 100.915C101.762 100.918 101.762 100.921 101.761 100.925C101.761 100.93 101.76 100.935 101.759 100.94C101.735 101.127 101.666 101.301 101.56 101.449C101.495 101.542 101.416 101.624 101.325 101.694C101.227 101.769 101.116 101.829 100.994 101.869L100.92 101.891C100.957 101.924 100.994 101.958 101.03 101.992C101.032 101.994 101.035 101.997 101.037 101.999C101.436 102.385 101.746 102.867 101.931 103.409C102.057 103.778 102.126 104.175 102.126 104.588V106.204C102.126 107.537 101.412 108.363 100.355 108.756C100.353 108.757 100.351 108.758 100.349 108.759L100.341 108.756L100.341 110.684C100.371 110.685 100.401 110.687 100.43 110.69C100.99 110.737 101.412 110.96 101.412 111.555C101.412 111.927 101.279 112.099 101.055 112.192L101.055 114.962C101.055 118.245 98.5902 121.005 95.3283 121.374C87.0026 122.316 78.4413 122.788 69.6444 122.788C68.4127 122.788 67.1733 122.778 65.9262 122.76C65.7864 122.799 65.6468 122.796 65.5058 122.754C57.6989 122.625 49.5906 122.135 41.1815 121.285C37.9264 120.955 35.4397 118.244 35.3796 114.986L35.3784 114.865V112.08L37.93 112.08C37.8756 111.934 37.8613 111.76 37.8955 111.555C37.9048 111.499 37.9164 111.446 37.9301 111.396C37.9916 111.174 38.0958 111.014 38.234 110.899L38.2339 108.761C37.1697 108.371 36.4492 107.543 36.4492 106.204V104.588C36.4492 104.063 36.5599 103.565 36.7586 103.117C37.022 102.522 37.4401 102.015 37.96 101.65C37.8506 101.643 37.747 101.615 37.6527 101.57C37.3806 101.44 37.1874 101.171 37.1653 100.855L37.1631 100.794C37.1631 100.713 37.1742 100.635 37.195 100.56C37.2868 100.231 37.5672 99.9799 37.9132 99.9318C37.5499 99.874 37.2599 99.5966 37.1831 99.24L37.1631 99.2298L37.163 96.5893ZM35.5219 99.9309C35.4288 99.7131 35.3784 99.4752 35.3784 99.2298L35.3784 97.2719C34.6571 96.3157 34.3076 95.1001 34.3076 94.0542C34.3076 87.1461 38.7002 81.7834 45.1154 78.2411C51.5248 74.702 60.1861 72.8164 69.466 72.8164C78.7315 72.8164 87.0105 74.6076 93.0409 78.0782C99.1162 81.5747 103.018 86.8678 103.018 93.6972C103.018 94.411 102.869 95.1978 102.6 95.9197L103.342 96.3055C103.344 96.3064 103.346 96.3074 103.348 96.3084C104.089 96.6918 104.507 97.4498 104.507 98.2217V99.4622C104.507 100.187 104.13 100.889 103.512 101.284C103.467 101.549 103.387 101.802 103.275 102.039C103.681 102.799 103.91 103.668 103.91 104.588V106.204C103.91 107.205 103.636 108.129 103.071 108.894C102.864 109.176 102.629 109.42 102.374 109.632C102.926 110.131 103.197 110.824 103.197 111.555C103.197 111.938 103.13 112.43 102.845 112.902C102.843 112.905 102.841 112.907 102.84 112.91L102.84 114.962C102.84 114.962 102.84 114.962 102.84 114.962C102.839 119.153 99.6931 122.676 95.529 123.147C87.1335 124.098 78.5051 124.572 69.6444 124.572C68.4642 124.572 67.2772 124.564 66.0833 124.547C65.8157 124.585 65.5525 124.579 65.3005 124.536C57.4938 124.401 49.3939 123.909 41.0019 123.06C36.8463 122.64 33.672 119.179 33.5952 115.019L33.5949 115.002L33.5938 114.881L33.5938 114.865V112.08C33.5938 111.606 33.7818 111.152 34.1166 110.817C34.4513 110.483 34.9054 110.295 35.3787 110.295L36.4493 110.295L36.4493 109.824C36.1009 109.574 35.7806 109.269 35.5079 108.9C34.9406 108.133 34.6646 107.208 34.6646 106.204V104.588C34.6646 103.511 34.9791 102.503 35.5233 101.659C35.449 101.444 35.4015 101.216 35.3849 100.98C35.3835 100.959 35.3824 100.939 35.3817 100.918L35.3795 100.857C35.3788 100.836 35.3784 100.815 35.3784 100.794C35.3784 100.492 35.4289 100.202 35.5219 99.9309ZM102.95 98.1616L102.946 98.1599C102.947 98.1604 102.948 98.161 102.95 98.1616Z" fill="white"/>
<path fill-rule="evenodd" clip-rule="evenodd" d="M35.3789 114.914C35.3789 118.183 37.8214 120.93 41.0756 121.241C47.6887 121.875 59.0468 122.787 69.6449 122.787C79.8495 122.787 89.6313 121.942 95.4928 121.313C98.6896 120.97 101.055 118.255 101.055 115.04V112.079H35.3789V114.914Z" fill="#EC9D47"/>
<path fill-rule="evenodd" clip-rule="evenodd" d="M98.669 101.034C100.578 101.034 102.126 102.625 102.126 104.588V106.203C102.126 107.539 101.409 108.366 100.349 108.758C100.173 108.709 99.9715 108.689 99.7566 108.689C99.7494 108.689 83.7075 108.831 81.5361 109.095C80.2813 109.167 79.4351 109.237 78.9974 109.305C66.9643 111.18 61.8844 108.347 56.1188 107.759C52.3459 107.375 48.7969 107.617 46.0321 108.298C46.0023 108.306 44.8638 108.471 44.231 108.508C43.0991 108.576 42.0662 108.707 40.7325 108.667C39.967 108.644 38.956 108.997 38.3767 108.81C37.2347 108.443 36.4492 107.602 36.4492 106.203V104.588C36.4492 102.625 37.9968 101.034 39.9059 101.034C53.2208 100.314 63.2417 99.951 69.9685 99.9435L70.1798 99.9434C76.5107 99.9434 86.0072 100.307 98.669 101.034Z" fill="#73371F"/>
<path fill-rule="evenodd" clip-rule="evenodd" d="M79.2781 111.286C79.7187 111.219 80.5707 111.15 81.834 111.079C84.0201 110.819 100.171 110.679 100.178 110.679C100.861 110.679 101.414 110.872 101.414 111.554C101.414 112.31 100.867 112.238 100.12 112.364C99.1236 112.532 98.0576 112.621 96.9218 112.631C95.4068 112.644 90.8594 112.544 83.2797 112.329C82.8708 112.317 82.0825 112.354 80.9146 112.439C80.3561 112.612 79.7114 112.769 78.9762 112.894C71.7822 114.112 69.5118 117.512 66.7804 121.952C64.1451 126.236 62.313 112.658 53.564 112.285C47.7313 112.037 42.9655 112.194 39.2664 112.756C39.1777 112.759 39.0889 112.753 39.0014 112.739C38.2697 112.617 37.7754 112.285 37.8974 111.554C38.0552 110.608 38.8449 110.614 39.803 110.552L40.6261 110.5C41.9198 110.567 43.1365 110.567 44.276 110.5C44.9131 110.463 46.0593 110.3 46.0893 110.293C48.8729 109.62 52.446 109.381 56.2444 109.76C62.0491 110.34 67.1634 113.138 79.2781 111.286Z" fill="#FFBC0D"/>
<path d="M82.7811 98.1582C87.4774 98.4527 92.8298 98.8745 98.8364 99.4238L98.9268 99.4321H99.0175C100.018 99.4321 100.861 99.0422 101.525 98.4179C101.688 98.579 101.789 98.8031 101.789 99.0506C101.789 99.5435 101.39 99.943 100.897 99.943H38.058C37.6267 99.943 37.2669 99.6372 37.1836 99.2307C37.5664 99.361 37.9782 99.4321 38.415 99.4321H38.4997L38.5841 99.4249C45.0285 98.8751 50.6755 98.4529 55.5226 98.1582L82.7811 98.1582Z" fill="#FFD90D"/>
<path d="M37.1641 100.788C37.1641 100.314 37.5328 99.9288 38.0063 99.9233C42.2013 99.8743 60.8394 99.6602 65.8975 99.6602C71.0002 99.6602 95.6219 99.8781 100.809 99.9245C101.351 99.9294 101.77 100.369 101.77 100.911C101.77 101.351 101.478 101.738 101.053 101.851C100.091 102.105 98.4169 102.516 97.6455 102.516C96.7708 102.516 95.8902 102.373 94.9976 102.193C94.1157 102.015 93.2221 101.802 92.3109 101.655C91.4494 101.516 44.8478 101.634 38.0004 101.653C37.5219 101.654 37.1641 101.266 37.1641 100.788Z" fill="#D90007"/>
<path d="M102.526 97.8941C102.645 97.9554 102.721 98.0829 102.721 98.2227V99.4631C102.721 99.665 102.565 99.8286 102.373 99.8286C102.328 99.8286 102.283 99.8194 102.242 99.8013C101.205 99.3544 99.4739 98.6249 98.4375 98.3438L98.8054 98.3793L98.8933 98.3877H98.9816C99.9644 98.3877 100.792 97.9805 101.441 97.3301C101.569 97.3949 102.394 97.8267 102.526 97.8941Z" fill="#EDC8A3"/>
<path d="M59.8458 99.5908C59.9683 99.6699 60.0303 99.8155 60.0024 99.9587L59.7681 101.164C59.7305 101.358 59.5431 101.484 59.3496 101.447C59.3111 101.439 59.2741 101.425 59.2401 101.406C56.9668 100.102 54.6368 99.0896 52.25 98.3692C54.0536 98.2477 55.7606 98.1416 57.3712 98.0508C58.1551 98.5179 58.9802 99.0312 59.8458 99.5908Z" fill="#FFEBB8"/>
<path d="M69.1379 97.8027C71.4558 97.8027 74.1238 97.8793 77.1413 98.0326C73.0548 99.7831 69.9699 100.658 67.8865 100.658C65.8554 100.658 62.8724 99.8264 58.9375 98.1629C63.0042 97.9227 66.405 97.8027 69.1379 97.8027Z" fill="#FFEBB8"/>
<path d="M58.549 97.9941C58.5458 98.9536 58.2917 99.9056 57.7607 100.757C56.1192 103.388 54.3552 106.215 49.1385 102.95C46.8332 101.507 45.8911 100.15 45.6992 98.8574C50.4181 98.4915 54.6204 98.2082 58.3047 98.0076L58.549 97.9941Z" fill="#E6E454"/>
<path d="M59.2657 97.957C59.2695 99.0517 58.9811 100.143 58.3681 101.12C58.2071 101.376 58.1348 101.491 58.0431 101.635C56.9251 103.384 56.0656 104.313 54.7923 104.806C53.1597 105.438 51.2047 105.047 48.7619 103.527C46.4219 102.071 45.2137 100.561 44.9883 98.9079C45.4758 98.8702 45.9576 98.8331 46.434 98.7968C46.6267 99.9416 47.5666 101.085 49.5279 102.306C51.6189 103.608 53.1222 103.908 54.2688 103.464C55.1696 103.115 55.8611 102.368 56.8237 100.862C56.9126 100.722 56.9834 100.61 57.1423 100.357C57.5896 99.6439 57.8085 98.8446 57.8188 98.0346C58.2811 98.0089 58.7354 97.9846 59.1817 97.9615L59.2657 97.957Z" fill="#66881E"/>
<path d="M76.25 97.8145C78.9334 97.9242 81.9081 98.0895 85.1734 98.3104C83.526 100.589 81.1607 100.008 78.9222 99.4586C77.8698 99.2002 76.9718 98.6301 76.2889 97.859L76.25 97.8145Z" fill="#E6E454"/>
<path d="M75.3242 97.7773C75.9653 97.8007 76.6237 97.8274 77.2996 97.8573C77.8135 98.2867 78.424 98.604 79.1082 98.7695C79.3951 98.8389 79.5227 98.8696 79.6815 98.9066C81.4006 99.3079 82.4055 99.3649 83.2845 99.007C83.6724 98.849 84.0293 98.6006 84.3545 98.248C84.9051 98.2831 85.4645 98.3203 86.0323 98.3592C85.4377 99.2967 84.708 99.9277 83.8361 100.283C82.5937 100.789 81.3447 100.718 79.3481 100.252C79.217 100.221 79.1075 100.195 78.92 100.15L78.7633 100.112C77.3457 99.769 76.1777 98.9433 75.369 97.8395L75.3242 97.7773Z" fill="#66881E"/>
<path fill-rule="evenodd" clip-rule="evenodd" d="M80.5469 98.0254C84.0724 98.2268 87.999 98.5069 92.3258 98.8658C91.707 99.2051 91.1175 99.6145 90.5597 100.108C88.0809 102.304 86.4519 105.237 85.6845 104.255C84.9171 103.273 84.9171 101.028 84.1273 99.968C83.5099 99.1392 82.5214 98.5171 80.6798 98.0579L80.5469 98.0254Z" fill="#FFBC0D"/>
<path fill-rule="evenodd" clip-rule="evenodd" d="M101.235 93.6977C101.235 95.0382 100.431 97.0886 98.9993 97.0886C98.9993 97.0886 79.4898 95.3039 69.1105 95.3039C59.326 95.3039 38.4138 97.0886 38.4138 97.0886C36.982 97.0886 36.0938 95.3951 36.0938 94.0546C36.0938 81.9902 51.3313 74.6016 69.4674 74.6016C87.6035 74.6016 101.235 81.6333 101.235 93.6977Z" fill="#EC9D47"/>
<path fill-rule="evenodd" clip-rule="evenodd" d="M66.59 86.9652C66.0886 86.6942 65.9246 86.0813 66.2235 85.5963C66.5225 85.1114 68.2124 83.7447 68.4847 83.8919C68.757 84.0391 68.3381 86.093 68.0391 86.578C67.7401 87.0629 67.0913 87.2363 66.59 86.9652Z" fill="white"/>
<path fill-rule="evenodd" clip-rule="evenodd" d="M66.29 77.7788C66.6256 77.3896 67.2327 77.3476 67.6458 77.6849C68.059 78.0222 69.0906 79.705 68.9083 79.9164C68.726 80.1278 66.8435 79.4315 66.4304 79.0942C66.0172 78.7569 65.9544 78.168 66.29 77.7788Z" fill="white"/>
<path fill-rule="evenodd" clip-rule="evenodd" d="M55.5108 87.1299C55.1752 87.5191 54.5681 87.5611 54.155 87.2238C53.7418 86.8865 52.7102 85.2037 52.8925 84.9923C53.0748 84.781 54.9573 85.4772 55.3705 85.8145C55.7836 86.1518 55.8465 86.7407 55.5108 87.1299Z" fill="white"/>
<path fill-rule="evenodd" clip-rule="evenodd" d="M51.605 89.9641C52.1864 89.8684 52.7436 90.2453 52.8495 90.806C52.9553 91.3667 52.5919 93.4655 52.2761 93.5175C51.9603 93.5695 50.85 91.7134 50.7441 91.1527C50.6382 90.5919 51.0236 90.0598 51.605 89.9641Z" fill="white"/>
<path fill-rule="evenodd" clip-rule="evenodd" d="M38.8095 93.4839C39.1452 93.0947 39.7522 93.0527 40.1654 93.39C40.5785 93.7273 41.6102 95.4101 41.4279 95.6215C41.2456 95.8328 39.363 95.1366 38.9499 94.7993C38.5367 94.462 38.4739 93.8731 38.8095 93.4839Z" fill="white"/>
<path fill-rule="evenodd" clip-rule="evenodd" d="M84.603 87.9483C84.2139 87.6127 84.1718 87.0056 84.5091 86.5925C84.8464 86.1793 86.5292 85.1477 86.7406 85.33C86.952 85.5123 86.2557 87.3948 85.9184 87.808C85.5811 88.2211 84.9922 88.284 84.603 87.9483Z" fill="white"/>
<path fill-rule="evenodd" clip-rule="evenodd" d="M81.5894 79.257C82.1708 79.1613 82.7279 79.5383 82.8338 80.099C82.9397 80.6597 82.5762 82.7585 82.2604 82.8105C81.9447 82.8625 80.8343 81.0063 80.7284 80.4456C80.6226 79.8849 81.008 79.3528 81.5894 79.257Z" fill="white"/>
<path fill-rule="evenodd" clip-rule="evenodd" d="M64.1625 90.1076C64.4336 90.6089 64.2602 91.2577 63.7752 91.5567C63.2903 91.8557 61.2364 92.2746 61.0892 92.0023C60.9419 91.73 62.3086 90.0401 62.7936 89.7411C63.2785 89.4421 63.8914 89.6062 64.1625 90.1076Z" fill="white"/>
<path fill-rule="evenodd" clip-rule="evenodd" d="M70.5752 90.6284C70.9108 90.2392 71.5178 90.1972 71.931 90.5345C72.3441 90.8718 73.3758 92.5546 73.1935 92.766C73.0112 92.9774 71.1287 92.2811 70.7155 91.9438C70.3023 91.6065 70.2395 91.0176 70.5752 90.6284Z" fill="white"/>
<path fill-rule="evenodd" clip-rule="evenodd" d="M76.4263 84.2383C77.0177 84.2383 77.4971 84.6949 77.4971 85.2581C77.4971 85.8213 76.7475 87.8077 76.4263 87.8077C76.1051 87.8077 75.3555 85.8213 75.3555 85.2581C75.3555 84.6949 75.8349 84.2383 76.4263 84.2383Z" fill="white"/>
<path fill-rule="evenodd" clip-rule="evenodd" d="M96.4502 88.3798C96.8394 88.7155 96.8815 89.3225 96.5442 89.7357C96.2069 90.1488 94.524 91.1805 94.3127 90.9982C94.1013 90.8159 94.7975 88.9334 95.1348 88.5202C95.4721 88.107 96.061 88.0442 96.4502 88.3798Z" fill="white"/>
<path fill-rule="evenodd" clip-rule="evenodd" d="M84.4789 93.7485C83.9775 94.0195 83.3287 93.8461 83.0298 93.3612C82.7308 92.8762 82.3119 90.8223 82.5842 90.6751C82.8565 90.5279 84.5464 91.8946 84.8453 92.3795C85.1443 92.8645 84.9803 93.4774 84.4789 93.7485Z" fill="white"/>
<path fill-rule="evenodd" clip-rule="evenodd" d="M58.2232 78.8848C58.8145 78.8848 59.294 79.3414 59.294 79.9046C59.294 80.4678 58.5444 82.4541 58.2232 82.4541C57.9019 82.4541 57.1523 80.4678 57.1523 79.9046C57.1523 79.3414 57.6318 78.8848 58.2232 78.8848Z" fill="white"/>
<path fill-rule="evenodd" clip-rule="evenodd" d="M43.0908 86.7026C43.4264 86.3135 44.0334 86.2714 44.4466 86.6087C44.8598 86.946 45.8914 88.6288 45.7091 88.8402C45.5268 89.0516 43.6443 88.3553 43.2311 88.018C42.818 87.6807 42.7551 87.0918 43.0908 86.7026Z" fill="white"/>
<path d="M85.5952 35.567C85.3691 35.2426 85.1882 34.8993 84.9328 34.5641C84.8716 34.483 84.8051 34.4046 84.7386 34.3316C83.6638 32.9637 81.9345 32.2121 79.8274 32.2149C77.6379 32.2149 75.2967 33.0286 73.2322 34.5046C68.9623 37.554 67.2197 42.5391 69.3188 45.6507C69.3214 45.6561 69.3241 45.6669 69.3267 45.6723C69.6194 46.1265 69.7072 46.2508 70.0185 46.7023C72.1468 49.776 77.3586 49.776 81.6605 46.6996C85.9624 43.6231 87.7236 38.6408 85.5952 35.567Z" fill="url(#paint0_linear_17_28619)"/>
<path d="M73.5819 35.0044C75.5427 33.6013 77.7614 32.8281 79.8286 32.8281C81.1482 32.8281 82.2975 33.1444 83.1994 33.7365C83.6836 34.0555 84.0959 34.4529 84.4232 34.926C85.3596 36.2804 85.5006 38.0917 84.8169 40.0301C84.1199 42.0063 82.654 43.8663 80.6932 45.2694C76.676 48.1432 71.8127 48.1783 69.852 45.3478C67.8913 42.5173 69.5647 37.8782 73.5819 35.0044Z" fill="white"/>
<path d="M80.0391 36.1382C80.4514 36.7113 77.5888 39.2119 73.7206 41.772L74.2793 42.5748C78.1635 40.0256 81.7045 38.4604 82.1089 39.0281C82.5106 39.5958 79.3208 42.2234 75.0721 44.9592L75.6148 45.754C80.2173 42.8235 83.4444 39.6796 82.7181 38.6577C82.3004 38.0738 80.792 38.2576 78.7913 39.0308C80.3051 37.5764 81.0607 36.3464 80.6377 35.7597C79.8874 34.7244 75.6015 36.2923 71.1719 39.3362L71.7412 40.1472C75.8702 37.3331 79.6267 35.5651 80.0391 36.1382Z" fill="#FFBC0D"/>
<path d="M39.3421 26.3741C38.1378 30.2456 34.0566 32.3927 30.2398 31.1611C26.4259 29.929 24.299 25.7776 25.5015 21.905C26.704 18.0323 30.787 15.8864 34.602 17.1168C38.4177 18.3501 40.5446 22.5014 39.3421 26.3741Z" fill="url(#paint1_linear_17_28619)"/>
<path d="M26.1889 22.1154C25.1046 25.6035 27.0195 29.344 30.4582 30.4527C33.897 31.5614 37.574 29.6285 38.6566 26.1393C39.7392 22.6501 37.826 18.9108 34.3873 17.8021C30.9485 16.6934 27.2732 18.6273 26.1889 22.1154Z" fill="white"/>
<path d="M29.3003 21.241C29.0855 21.9357 29.8036 22.8476 31.1002 23.7117C29.551 23.656 28.4501 23.9811 28.2335 24.6746C27.8551 25.8923 30.5759 27.8605 34.3107 29.0658L34.6156 28.0841C31.1484 26.9641 28.5061 25.5071 28.7175 24.8299C28.9271 24.1517 31.694 24.4421 34.8947 25.4751L35.1995 24.4934C31.9978 23.4622 29.5729 22.0735 29.7815 21.397C29.9912 20.7188 32.9744 21.0793 36.4416 22.1993L36.7454 21.2194C33.0127 20.0106 29.677 20.0222 29.3003 21.241Z" fill="#FFBC0D"/>
<path d="M25.6368 70.422C24.4769 68.0188 22.8992 65.9968 21.1912 64.729C19.5631 63.5179 17.9854 63.1232 16.6925 63.5774C16.5648 63.6044 16.4371 63.6369 16.3173 63.6882C16.0167 63.8153 14.9366 64.31 14.6599 64.4478C12.05 65.7481 11.9143 70.8978 14.3513 75.9502C16.7909 81.0025 20.8826 84.0464 23.4899 82.7461C23.8437 82.5704 24.6684 82.2406 25.0835 82.0298C25.1074 82.0189 25.134 82.0135 25.1579 82C26.5094 81.3269 27.2863 79.7212 27.3448 77.4802C27.4033 75.3311 26.7968 72.8225 25.6368 70.422Z" fill="url(#paint2_linear_17_28619)"/>
<path d="M24.9173 81.5071C23.8186 82.0559 22.3474 81.7126 20.775 80.5447C19.1256 79.3201 17.5932 77.3494 16.4598 75.0002C15.3265 72.651 14.7306 70.2153 14.7891 68.1391C14.8423 66.1603 15.4781 64.7681 16.5769 64.222C17.6757 63.6732 19.1469 64.0165 20.7192 65.1844C22.3686 66.409 23.901 68.3797 25.0344 70.7289C26.1278 72.997 26.7184 75.3435 26.7105 77.371C26.7105 77.444 26.7078 77.517 26.7078 77.59C26.6493 79.5688 26.0161 80.9583 24.9173 81.5071Z" fill="white"/>
<path d="M19.6876 67.1941C19.2061 67.4347 19.3764 68.8917 20.0335 70.9786C18.8123 69.1728 17.7828 68.1429 17.3012 68.3835C16.4525 68.8052 17.7641 73.2871 20.2303 78.3934L20.9114 78.0528C18.6235 73.3114 17.1496 69.2783 17.6205 69.0431C18.0914 68.8079 20.1851 72.168 22.2975 76.5444L22.9786 76.2038C20.8662 71.8274 19.536 68.0889 20.0069 67.8537C20.4778 67.6185 22.7152 71.2732 25.0032 76.0146L25.6842 75.674C23.2207 70.5677 20.5363 66.7724 19.6876 67.1941Z" fill="#FFBC0D"/>
<path d="M104.676 119.502C98.8466 121 92.9057 117.404 91.4282 111.48C89.9538 105.56 93.493 99.5199 99.3226 98.0186C105.152 96.5173 111.093 100.117 112.571 106.037C114.045 111.961 110.506 118 104.676 119.502Z" fill="url(#paint3_linear_17_28619)"/>
<path d="M99.5839 99.0878C94.3323 100.438 91.1424 105.878 92.4746 111.215C93.8068 116.551 99.1574 119.792 104.409 118.439C109.661 117.085 112.851 111.648 111.518 106.312C110.186 100.975 104.836 97.7373 99.5839 99.0878Z" fill="white"/>
<path d="M103.175 102.448C102.13 102.718 101.552 104.37 101.493 106.735C100.334 104.681 99.0513 103.509 98.0065 103.776C96.1736 104.247 95.8552 109.333 97.3018 115.131L98.7793 114.751C97.4378 109.367 97.1751 104.788 98.1951 104.527C99.2151 104.263 101.045 108.082 102.285 113.051L103.762 112.671C102.519 107.702 102.343 103.459 103.36 103.195C104.38 102.931 106.294 107.087 107.635 112.47L109.109 112.09C107.669 106.292 105.008 101.973 103.175 102.448Z" fill="#FFBC0D"/>
<defs>
<linearGradient id="paint0_linear_17_28619" x1="68.4297" y1="40.611" x2="86.4974" y2="40.611" gradientUnits="userSpaceOnUse">
<stop offset="0.000616698" stop-color="#910063"/>
<stop offset="0.0362" stop-color="#990059"/>
<stop offset="0.1727" stop-color="#B60035"/>
<stop offset="0.3012" stop-color="#CA001C"/>
<stop offset="0.4172" stop-color="#D7000C"/>
<stop offset="0.5101" stop-color="#DB0007"/>
<stop offset="1" stop-color="#E8720A"/>
</linearGradient>
<linearGradient id="paint1_linear_17_28619" x1="36.2357" y1="17.8806" x2="28.4218" y2="30.2811" gradientUnits="userSpaceOnUse">
<stop offset="0.000616698" stop-color="#910063"/>
<stop offset="0.0362" stop-color="#990059"/>
<stop offset="0.1727" stop-color="#B60035"/>
<stop offset="0.3012" stop-color="#CA001C"/>
<stop offset="0.4172" stop-color="#D7000C"/>
<stop offset="0.5101" stop-color="#DB0007"/>
<stop offset="1" stop-color="#E8720A"/>
</linearGradient>
<linearGradient id="paint2_linear_17_28619" x1="27.3487" y1="73.2204" x2="12.6094" y2="73.2204" gradientUnits="userSpaceOnUse">
<stop offset="0.000616698" stop-color="#910063"/>
<stop offset="0.0362" stop-color="#990059"/>
<stop offset="0.1727" stop-color="#B60035"/>
<stop offset="0.3012" stop-color="#CA001C"/>
<stop offset="0.4172" stop-color="#D7000C"/>
<stop offset="0.5101" stop-color="#DB0007"/>
<stop offset="1" stop-color="#E8720A"/>
</linearGradient>
<linearGradient id="paint3_linear_17_28619" x1="112.905" y1="108.76" x2="91.0937" y2="108.76" gradientUnits="userSpaceOnUse">
<stop offset="0.000616698" stop-color="#910063"/>
<stop offset="0.0362" stop-color="#990059"/>
<stop offset="0.1727" stop-color="#B60035"/>
<stop offset="0.3012" stop-color="#CA001C"/>
<stop offset="0.4172" stop-color="#D7000C"/>
<stop offset="0.5101" stop-color="#DB0007"/>
<stop offset="1" stop-color="#E8720A"/>
</linearGradient>
</defs>
</svg>
