<svg width="327" height="252" viewBox="0 0 327 252" fill="none" xmlns="http://www.w3.org/2000/svg">
<ellipse cx="164.5" cy="241.5" rx="73.5" ry="8.5" fill="#A0A09F" fill-opacity="0.15"/>
<path d="M179.478 109L176.605 110.925L173.732 109L170.859 110.925L167.986 109L165.112 110.925L162.239 109L159.366 110.925L156.493 109L153.62 110.925L150.746 109L147.873 110.925L145 109V156.151C145 158.277 146.715 160 148.831 160H181.394C183.51 160 185.225 158.277 185.225 156.151V109L182.352 110.925L179.478 109Z" fill="#C2945C"/>
<path d="M145 151.34H185.225V156.151C185.225 158.277 183.51 160 181.394 160H148.831C146.715 160 145 158.277 145 156.151V151.34Z" fill="#DB0007"/>
<path d="M185.226 124.258C181.546 124.258 178.561 139.03 178.561 157.248H173.232C173.232 139.03 170.252 124.258 166.568 124.258C162.892 124.258 159.908 140.257 159.908 159.998H154.578C154.578 138.739 159.946 121.508 166.568 121.508C170.337 121.508 173.701 126.687 175.897 134.787C178.097 126.687 181.457 121.508 185.226 121.508V124.258Z" fill="#FFBC0D"/>
<path d="M103 177H226V241C226 241.552 225.552 242 225 242H104C103.448 242 103 241.552 103 241V177Z" fill="#292929"/>
<rect x="103" y="177" width="123" height="11" fill="#A0A09F" fill-opacity="0.15"/>
<rect x="91" y="160" width="147" height="17" rx="1" fill="#D8D8D8"/>
<path d="M216 8C234.778 8 250 23.2223 250 42C250 60.7777 234.778 76 216 76H176.992C176.955 76.041 176.917 76.0817 176.878 76.1211L166.121 86.8779C164.95 88.0491 163.05 88.0491 161.879 86.8779L151.122 76.1211C151.083 76.0817 151.045 76.041 151.008 76H112C93.2223 76 78 60.7777 78 42C78 23.2223 93.2223 8 112 8H216Z" fill="#FFBC0D"/>
<path d="M122.709 54.0005L123.573 49.0405H121.461V45.4245H124.181L124.917 41.1365H122.389V37.5205H125.557L126.325 33.0725H130.613L129.845 37.5205H133.397L134.165 33.0725H138.453L137.685 37.5205H139.797V41.1365H137.045L136.309 45.4245H138.869V49.0405H135.701L134.837 54.0005H130.549L131.413 49.0405H127.861L126.997 54.0005H122.709ZM128.469 45.4245H132.021L132.757 41.1365H129.205L128.469 45.4245Z" fill="#292929"/>
<path d="M140.72 40.4005V35.9845C141.893 35.7712 143.013 35.4405 144.08 34.9925C145.168 34.5445 146.149 33.9045 147.024 33.0725H151.216V54.0005H145.648V39.1525C144.837 39.4512 144.016 39.7072 143.184 39.9205C142.352 40.1339 141.531 40.2939 140.72 40.4005Z" fill="#292929"/>
<path d="M163.364 54.5125C160.612 54.5125 158.49 53.5739 156.996 51.6965C155.524 49.7979 154.788 46.9925 154.788 43.2805C154.788 41.1685 155.098 39.3125 155.716 37.7125C156.335 36.0912 157.295 34.8325 158.596 33.9365C159.898 33.0192 161.583 32.5605 163.652 32.5605C165.551 32.5605 167.162 33.0299 168.484 33.9685C169.828 34.9072 170.66 36.2832 170.98 38.0965H165.38C165.274 37.4779 165.039 36.9979 164.676 36.6565C164.314 36.3152 163.866 36.1445 163.332 36.1445C162.372 36.1445 161.636 36.6139 161.124 37.5525C160.634 38.4699 160.346 39.9312 160.26 41.9365C161.37 40.7419 162.863 40.1445 164.74 40.1445C166.042 40.1445 167.194 40.4325 168.196 41.0085C169.199 41.5632 169.988 42.3632 170.564 43.4085C171.14 44.4325 171.428 45.6485 171.428 47.0565C171.428 48.5712 171.087 49.8939 170.404 51.0245C169.722 52.1339 168.772 52.9979 167.556 53.6165C166.34 54.2139 164.943 54.5125 163.364 54.5125ZM163.14 50.8965C164.015 50.8965 164.698 50.5872 165.188 49.9685C165.679 49.3285 165.924 48.4432 165.924 47.3125C165.924 46.1819 165.679 45.3072 165.188 44.6885C164.698 44.0485 164.015 43.7285 163.14 43.7285C162.266 43.7285 161.583 44.0485 161.092 44.6885C160.602 45.3072 160.356 46.1819 160.356 47.3125C160.356 48.4432 160.602 49.3285 161.092 49.9685C161.583 50.5872 162.266 50.8965 163.14 50.8965Z" fill="#292929"/>
<path d="M172.98 54.0005V53.2965C172.98 51.5045 173.374 49.9579 174.164 48.6565C174.974 47.3339 176.254 46.0432 178.004 44.7845L180.596 42.9285C181.513 42.2672 182.164 41.6592 182.548 41.1045C182.932 40.5285 183.124 39.8672 183.124 39.1205C183.124 38.2459 182.932 37.5739 182.548 37.1045C182.164 36.6352 181.609 36.4005 180.884 36.4005C180.073 36.4005 179.454 36.7205 179.028 37.3605C178.601 37.9792 178.334 38.9499 178.228 40.2725H172.916C173.044 37.8405 173.854 35.9525 175.348 34.6085C176.841 33.2432 178.804 32.5605 181.236 32.5605C182.75 32.5605 184.073 32.8272 185.204 33.3605C186.334 33.8725 187.209 34.6085 187.828 35.5685C188.468 36.5072 188.788 37.6165 188.788 38.8965C188.788 40.2192 188.468 41.4032 187.828 42.4485C187.209 43.4939 186.206 44.5072 184.82 45.4885L181.876 47.5685C181.193 48.0592 180.66 48.4752 180.276 48.8165C179.913 49.1579 179.678 49.5099 179.572 49.8725H188.884V54.0005H172.98Z" fill="#292929"/>
<path d="M190.219 50.0005V46.3525L200.075 33.1045H204.779V46.0005H207.275V50.0005H204.779V54.0005H199.659V50.0005H190.219ZM194.955 46.0005H199.659V39.6005L194.955 46.0005Z" fill="#292929"/>
</svg>
