<svg width="375" height="225" viewBox="0 0 375 225" fill="none" xmlns="http://www.w3.org/2000/svg">
<g clip-path="url(#clip0_102_69592)">
<path d="M184.5 4C262.096 4 325 66.904 325 144.5C325 163.443 321.249 181.51 314.453 198H54.5469C47.7506 181.51 44 163.443 44 144.5C44 66.904 106.904 4 184.5 4Z" fill="#DCEDF4"/>
<ellipse cx="184" cy="203" rx="153" ry="14" fill="#A0A09F" fill-opacity="0.15"/>
<path d="M316 97V124H264L264.005 97H316Z" fill="#FFBC0D"/>
<path d="M190.926 120H77V97H191L190.926 120Z" fill="#FFBC0D"/>
<path d="M191 99L190.97 108H77V99H191Z" fill="black" fill-opacity="0.1"/>
<path d="M316 99V108H264L264.002 99H316Z" fill="black" fill-opacity="0.1"/>
<path d="M264 124H287V203H264V124Z" fill="#F9F9F9"/>
<path d="M288 124H316V203H288V124Z" fill="#F9F9F9"/>
<path d="M191 89L190.967 98.999L73.8004 99C72.8061 99 72 98.1942 72 97.2002V90.8008C72 89.8068 72.8061 89.001 73.8004 89.001L191 89Z" fill="#FFBC0D"/>
<path d="M318.212 89.001C319.2 89.001 320 89.8068 320 90.8008V97.2002C320 98.1942 319.2 99 318.212 99L264 98.999L264.002 89L318.212 89.001Z" fill="#FFBC0D"/>
<path d="M260.5 74.5234L260.473 202.998H194.569L194.5 74.5234L260.5 74.5234Z" fill="#F1F1F1"/>
<path d="M59.8 124H244.443C245.437 124 246.243 124.806 246.243 125.8V140H58V125.8C58 124.806 58.8059 124 59.8 124Z" fill="#606060"/>
<path d="M195 140H246V203H195V140Z" fill="#D8D8D8"/>
<path d="M109 140H137V203H109V140Z" fill="#F9F9F9"/>
<path d="M138 140H166V203H138V140Z" fill="#F9F9F9"/>
<path d="M167 140H195V203H167V140Z" fill="#F9F9F9"/>
<path d="M218 154H246V203H218V154Z" fill="#F9F9F9"/>
<path d="M58 198H109V204H58V198Z" fill="#A5835B"/>
<path d="M58 192H109V198H58V192Z" fill="#C2945C"/>
<path d="M58 187H109V193H58V187Z" fill="#A5835B"/>
<path d="M58 182H109V188H58V182Z" fill="#C2945C"/>
<path d="M58 177H109V183H58V177Z" fill="#A5835B"/>
<path d="M58 171H109V177H58V171Z" fill="#C2945C"/>
<path d="M58 166H109V172H58V166Z" fill="#A5835B"/>
<path d="M58 161H109V167H58V161Z" fill="#C2945C"/>
<path d="M58 156H109V162H58V156Z" fill="#A5835B"/>
<path d="M58 150H109V156H58V150Z" fill="#C2945C"/>
<path d="M58 145H109V151H58V145Z" fill="#A5835B"/>
<path d="M58 140H109V146H58V140Z" fill="#C2945C"/>
<path d="M136 140H140V203H136V140Z" fill="#D8D8D8"/>
<path d="M286 124H290V203H286V124Z" fill="#D8D8D8"/>
<path d="M312 124H316V203H312V124Z" fill="#D8D8D8"/>
<path d="M165 140H169V203H165V140Z" fill="#D8D8D8"/>
<path d="M218 154H246V160H218V154Z" fill="#A0A09F" fill-opacity="0.15"/>
<path d="M195 140H246V143H195V140Z" fill="#292929" fill-opacity="0.1"/>
<path d="M165 140H169V146H165V140Z" fill="#292929" fill-opacity="0.1"/>
<path d="M136 140H140V146H136V140Z" fill="#292929" fill-opacity="0.1"/>
<path d="M109 140H136V145H109V140Z" fill="#A0A09F" fill-opacity="0.15"/>
<path d="M140 140H165V145H140V140Z" fill="#A0A09F" fill-opacity="0.15"/>
<path d="M169 140H195V145H169V140Z" fill="#A0A09F" fill-opacity="0.15"/>
<path fill-rule="evenodd" clip-rule="evenodd" d="M236.023 86.7959C239.143 86.7959 241.672 99.9528 241.672 116.182H246.195C246.195 98.703 241.64 84.5352 236.023 84.5352C232.826 84.5352 229.975 88.7942 228.111 95.4522C226.247 88.7942 223.396 84.5352 220.2 84.5352C214.584 84.5352 210.027 98.703 210.027 116.182H214.55C214.55 99.9528 217.08 86.7959 220.2 86.7959C223.32 86.7959 225.85 98.9404 225.85 113.921H230.372C230.372 98.9404 232.902 86.7959 236.023 86.7959Z" fill="#FFBC0D"/>
<rect x="63" y="33" width="6" height="170" fill="#F9F9F9"/>
<rect x="66" y="33" width="3" height="170" fill="#F1F1F1"/>
<path d="M66 26C68.2091 26 70 27.7909 70 30C70 31.195 69.4754 32.267 68.6445 33H63.3555C62.5246 32.267 62 31.195 62 30C62 27.7909 63.7909 26 66 26Z" fill="#FFBC0D"/>
<path opacity="0.5" d="M66 26C67.3598 26 68.5605 26.6789 69.2832 27.7158C68.6357 27.2648 67.8489 27 67 27C64.7909 27 63 28.7909 63 31C63 31.8496 63.2659 32.6366 63.7178 33.2842C62.6799 32.5616 62 31.3605 62 30C62 27.7909 63.7909 26 66 26Z" fill="#F9F9F9"/>
<g clip-path="url(#clip1_102_69592)">
<path d="M69 33H124.323V69.882H69V33Z" fill="#0052B4"/>
<path d="M124.215 49.0038V53.8028H99.0125V69.8065H94.2027V53.8028H69V49.0038H94.2027V33H99.0125V49.0038H124.215Z" fill="white"/>
<path d="M79.8925 36.8915C80.3454 36.8699 80.7875 36.8807 81.2405 36.913C81.8336 36.9562 82.2542 37.0856 82.2218 36.967C82.1679 36.7728 82.2111 36.7297 82.1356 36.7728C81.9954 36.8807 82.2111 36.7513 81.3375 37.2473C80.065 37.9699 79.515 38.5199 79.7954 39.512C80.0434 40.3856 80.6797 40.6228 82.2003 40.8601L82.4052 40.8924C83.0091 40.9895 83.2787 41.0434 83.462 41.1297C83.5052 41.1512 83.4297 41.0218 83.4513 40.9463C83.4297 41.011 83.0307 41.1728 82.0169 41.3669L81.5101 41.464C79.5581 41.863 78.5876 42.3806 78.4366 43.7287C78.2748 45.2061 79.8062 46.2414 81.7366 46.4894C83.6993 46.7482 85.414 46.1012 85.5865 44.5051C85.6944 43.4914 84.9934 42.8875 83.8718 42.661C83.1169 42.51 82.114 42.51 80.917 42.6287C79.5797 42.7689 78.2533 42.9953 76.9376 43.3081C76.5493 43.3836 76.3013 43.761 76.3768 44.1492C76.4523 44.5375 76.8297 44.7855 77.218 44.71C77.2395 44.71 77.2503 44.6992 77.2719 44.6992C78.5229 44.4081 79.7846 44.1924 81.0572 44.063C82.1248 43.9551 82.9983 43.9551 83.5807 44.0737C84.0552 44.1708 84.1522 44.2571 84.1414 44.3541C84.0875 44.9041 83.1816 45.2384 81.9091 45.0767C80.6581 44.9149 79.8062 44.3434 79.8493 43.8904C79.9032 43.4267 80.4209 43.1571 81.7797 42.8767L82.2758 42.7796C83.9473 42.4561 84.5512 42.2081 84.8101 41.3561C85.015 40.6552 84.6699 40.1052 84.0336 39.8248C83.6885 39.6738 83.3542 39.5983 82.6101 39.4905L82.416 39.4581C81.5532 39.3179 81.1866 39.1777 81.1758 39.1346C81.165 39.0914 81.3699 38.8865 82.0493 38.4983L82.5238 38.2287C82.6856 38.1424 82.8365 38.0346 82.9875 37.9375C83.4836 37.5709 83.764 37.1719 83.613 36.6111C83.4081 35.8238 82.6424 35.5866 81.3591 35.4895C80.8523 35.4572 80.3562 35.4464 79.8493 35.4572L79.6336 35.468C79.2346 35.4895 78.9327 35.8346 78.9542 36.2228C78.9758 36.6219 79.3209 36.9238 79.7091 36.9023L79.8925 36.8915ZM110.52 36.8915C110.973 36.8699 111.415 36.8807 111.868 36.913C112.461 36.9562 112.881 37.0856 112.849 36.967C112.795 36.7728 112.838 36.7297 112.763 36.7728C112.623 36.8807 112.838 36.7513 111.965 37.2473C110.692 37.9699 110.142 38.5199 110.423 39.512C110.671 40.3856 111.307 40.6228 112.827 40.8601L113.032 40.8924C113.636 40.9895 113.906 41.0434 114.089 41.1297C114.132 41.1512 114.057 41.0218 114.078 40.9463C114.057 41.011 113.658 41.1728 112.644 41.3669L112.137 41.464C110.185 41.863 109.215 42.3806 109.064 43.7287C108.902 45.2061 110.433 46.2414 112.364 46.4894C114.326 46.7482 116.041 46.1012 116.214 44.5051C116.322 43.4914 115.621 42.8875 114.499 42.661C113.744 42.51 112.741 42.51 111.544 42.6287C110.207 42.7689 108.88 42.9953 107.565 43.3081C107.177 43.3836 106.929 43.761 107.004 44.1492C107.079 44.5375 107.457 44.7855 107.845 44.71C107.867 44.71 107.878 44.6992 107.899 44.6992C109.15 44.4081 110.412 44.1924 111.684 44.063C112.752 43.9551 113.626 43.9551 114.208 44.0737C114.682 44.1708 114.779 44.2571 114.769 44.3541C114.715 44.9041 113.809 45.2384 112.536 45.0767C111.285 44.9149 110.433 44.3434 110.477 43.8904C110.53 43.4267 111.048 43.1571 112.407 42.8767L112.903 42.7796C114.575 42.4561 115.178 42.2081 115.437 41.3561C115.642 40.6552 115.297 40.1052 114.661 39.8248C114.316 39.6738 113.981 39.5983 113.237 39.4905L113.043 39.4581C112.18 39.3179 111.814 39.1777 111.803 39.1346C111.792 39.0914 111.997 38.8865 112.677 38.4983L113.151 38.2287C113.313 38.1424 113.464 38.0346 113.615 37.9375C114.111 37.5709 114.391 37.1719 114.24 36.6111C114.035 35.8238 113.27 35.5866 111.986 35.4895C111.479 35.4572 110.983 35.4464 110.477 35.4572L110.261 35.468C109.862 35.4895 109.56 35.8346 109.581 36.2228C109.603 36.6219 109.948 36.9238 110.336 36.9023L110.52 36.8915ZM109.937 58.352C110.39 58.3305 110.832 58.3413 111.285 58.3736C111.878 58.4167 112.299 58.5462 112.267 58.4275C112.213 58.2334 112.256 58.1903 112.18 58.2334C112.04 58.3413 112.256 58.2118 111.382 58.7079C110.11 59.4305 109.56 59.9805 109.84 60.9726C110.088 61.8461 110.725 62.0834 112.245 62.3206L112.45 62.353C113.054 62.45 113.324 62.504 113.507 62.5902C113.55 62.6118 113.475 62.4824 113.496 62.4069C113.475 62.4716 113.076 62.6334 112.062 62.8275L111.555 62.9245C109.603 63.3236 108.632 63.8412 108.481 65.1892C108.32 66.6667 109.851 67.7019 111.781 67.95C113.744 68.2088 115.459 67.5617 115.631 65.9657C115.739 64.952 115.038 64.3481 113.917 64.1216C113.162 63.9706 112.159 63.9706 110.962 64.0892C109.625 64.2294 108.298 64.4559 106.982 64.7686C106.594 64.8441 106.346 65.2216 106.422 65.6098C106.497 65.998 106.875 66.2461 107.263 66.1706C107.284 66.1706 107.295 66.1598 107.317 66.1598C108.568 65.8686 109.829 65.6529 111.102 65.5235C112.17 65.4157 113.043 65.4157 113.626 65.5343C114.1 65.6314 114.197 65.7176 114.186 65.8147C114.132 66.3647 113.226 66.699 111.954 66.5372C110.703 66.3755 109.851 65.8039 109.894 65.351C109.948 64.8873 110.466 64.6177 111.825 64.3373L112.321 64.2402C113.992 63.9167 114.596 63.6687 114.855 62.8167C115.06 62.1157 114.715 61.5657 114.078 61.2853C113.733 61.1344 113.399 61.0589 112.655 60.951L112.461 60.9187C111.598 60.7785 111.231 60.6383 111.221 60.5952C111.21 60.552 111.415 60.3471 112.094 59.9589L112.569 59.6893C112.73 59.603 112.881 59.4952 113.032 59.3981C113.528 59.0314 113.809 58.6324 113.658 58.0716C113.453 57.2844 112.687 57.0471 111.404 56.9501C110.897 56.9177 110.401 56.907 109.894 56.9177L109.678 56.9285C109.279 56.9501 108.978 57.2952 108.999 57.6834C109.021 58.0716 109.366 58.3844 109.754 58.3628L109.937 58.352ZM79.8925 58.352C80.3454 58.3305 80.7875 58.3413 81.2405 58.3736C81.8336 58.4167 82.2542 58.5462 82.2218 58.4275C82.1679 58.2334 82.2111 58.1903 82.1356 58.2334C81.9954 58.3413 82.2111 58.2118 81.3375 58.7079C80.065 59.4305 79.515 59.9805 79.7954 60.9726C80.0434 61.8461 80.6797 62.0834 82.2003 62.3206L82.4052 62.353C83.0091 62.45 83.2787 62.504 83.462 62.5902C83.5052 62.6118 83.4297 62.4824 83.4513 62.4069C83.4297 62.4716 83.0307 62.6334 82.0169 62.8275L81.5101 62.9245C79.5581 63.3236 78.5876 63.8412 78.4366 65.1892C78.2748 66.6667 79.8062 67.7019 81.7366 67.95C83.6993 68.2088 85.414 67.5617 85.5865 65.9657C85.6944 64.952 84.9934 64.3481 83.8718 64.1216C83.1169 63.9706 82.114 63.9706 80.917 64.0892C79.5797 64.2294 78.2533 64.4559 76.9376 64.7686C76.5493 64.8441 76.3013 65.2216 76.3768 65.6098C76.4523 65.998 76.8297 66.2461 77.218 66.1706C77.2395 66.1706 77.2503 66.1598 77.2719 66.1598C78.5229 65.8686 79.7846 65.6529 81.0572 65.5235C82.1248 65.4157 82.9983 65.4157 83.5807 65.5343C84.0552 65.6314 84.1522 65.7176 84.1414 65.8147C84.0875 66.3647 83.1816 66.699 81.9091 66.5372C80.6581 66.3755 79.8062 65.8039 79.8493 65.351C79.9032 64.8873 80.4209 64.6177 81.7797 64.3373L82.2758 64.2402C83.9473 63.9167 84.5512 63.6687 84.8101 62.8167C85.015 62.1157 84.6699 61.5657 84.0336 61.2853C83.6885 61.1344 83.3542 61.0589 82.6101 60.951L82.416 60.9187C81.5532 60.7785 81.1866 60.6383 81.1758 60.5952C81.165 60.552 81.3699 60.3471 82.0493 59.9589L82.5238 59.6893C82.6856 59.603 82.8365 59.4952 82.9875 59.3981C83.4836 59.0314 83.764 58.6324 83.613 58.0716C83.4081 57.2844 82.6424 57.0471 81.3591 56.9501C80.8523 56.9177 80.3562 56.907 79.8493 56.9177L79.6336 56.9285C79.2346 56.9501 78.9327 57.2952 78.9542 57.6834C78.9758 58.0824 79.3209 58.3844 79.7091 58.3628L79.8925 58.352Z" fill="white"/>
</g>
<path d="M67.8158 205.5L68.7364 205.494C75.9374 205.404 81.6316 204.137 81.6316 196.816C81.6316 189.186 75.446 183 67.8158 183C60.1855 183 54 189.186 54 196.816C54 204.446 60.1855 205.5 67.8158 205.5Z" fill="#9CC93A"/>
<path d="M98.8158 205.5L99.7364 205.494C106.937 205.404 112.632 204.137 112.632 196.816C112.632 189.186 106.446 183 98.8158 183C91.1855 183 85 189.186 85 196.816C85 204.446 91.1855 205.5 98.8158 205.5Z" fill="#9CC93A"/>
<path d="M128.816 205.5L129.736 205.494C136.937 205.404 142.632 204.137 142.632 196.816C142.632 189.186 136.446 183 128.816 183C121.186 183 115 189.186 115 196.816C115 204.446 121.186 205.5 128.816 205.5Z" fill="#9CC93A"/>
<path d="M253.561 29.8555C255.088 29.8555 256.327 31.0943 256.327 32.6221C256.327 34.0685 255.217 35.2538 253.802 35.376C254.09 36.0127 254.252 36.7186 254.252 37.4629C254.252 40.2639 251.982 42.5342 249.181 42.5342H257.94C260.741 42.5342 263.013 44.8055 263.013 47.6064H269.929C272.729 47.6066 275 49.8769 275 52.6777C275 55.4786 272.73 57.7498 269.929 57.75H262.332C261.455 59.2653 259.817 60.2852 257.94 60.2852H215.523C213.647 60.2852 212.009 59.2653 211.132 57.75H206.071C203.27 57.7498 201 55.4786 201 52.6777C201 49.8769 203.271 47.6066 206.071 47.6064H210.452C210.452 44.8055 212.722 42.5342 215.523 42.5342H221.748C221.748 39.7334 224.018 37.4629 226.819 37.4629H235.349C235.349 34.6619 237.62 32.3916 240.421 32.3916H249.181C249.746 32.3916 250.288 32.4849 250.796 32.6553C250.796 32.6442 250.795 32.6332 250.795 32.6221C250.795 31.0943 252.033 29.8556 253.561 29.8555Z" fill="white"/>
<path d="M140.047 2C143.684 2 146.634 4.94858 146.634 8.58594C146.634 8.65081 146.631 8.71586 146.629 8.78027H148.184C150.537 8.78048 152.445 10.6884 152.445 13.042H155.738C158.092 13.042 160 14.95 160 17.3037C160 19.6574 158.092 21.5654 155.738 21.5654H153.229C152.493 22.8389 151.116 23.6963 149.539 23.6963H133.461C131.884 23.6963 130.507 22.8389 129.771 21.5654H127.262C124.908 21.5654 123 19.6574 123 17.3037C123 14.95 124.908 13.042 127.262 13.042H127.843C127.843 10.6883 129.751 8.78037 132.104 8.78027H133.466C133.464 8.71585 133.461 8.65081 133.461 8.58594C133.461 4.94867 136.41 2.00015 140.047 2Z" fill="white"/>
</g>
<defs>
<clipPath id="clip0_102_69592">
<rect width="375" height="225" fill="white"/>
</clipPath>
<clipPath id="clip1_102_69592">
<rect width="55.3231" height="36.882" fill="white" transform="translate(69 33)"/>
</clipPath>
</defs>
</svg>
