<svg width="375" height="225" viewBox="0 0 375 225" fill="none" xmlns="http://www.w3.org/2000/svg">
<mask id="path-1-outside-1_17_28635" maskUnits="userSpaceOnUse" x="85" y="11" width="210" height="204" fill="black">
<rect fill="white" x="85" y="11" width="210" height="204"/>
<path d="M139.253 211.128H128.411V194.372H139.253V211.128ZM173.785 14C177.032 14.0002 179.665 16.6492 179.665 19.917V135.86C195.826 122.217 217.15 104.489 233.589 91.8887V87.998C233.198 87.9612 232.889 87.6337 232.889 87.2344V81.2256C232.889 80.8263 233.198 80.4987 233.589 80.4619V77.3564C233.198 77.3196 232.889 76.9921 232.889 76.5928V73.1006C232.889 72.7013 233.198 72.3741 233.589 72.3369V65.9502C233.589 62.2992 236.551 59.3398 240.205 59.3398H283.509C287.163 59.3398 290.125 62.2992 290.125 65.9502V74.3994C290.172 74.3902 290.221 74.3848 290.271 74.3848C290.694 74.3848 291.042 74.7315 291.042 75.1553V82.4639C291.042 82.8876 290.695 83.2344 290.271 83.2344C290.221 83.2343 290.172 83.2289 290.125 83.2197V164.795C290.125 168.445 287.163 171.405 283.509 171.405H240.205C236.551 171.405 233.589 168.445 233.589 164.795V148.94C216.996 153.384 194.489 159.593 179.665 163.598V184.513C179.665 187.781 177.032 190.43 173.785 190.43H93.8799C90.6326 190.43 88 187.781 88 184.513V19.917C88 16.6491 90.6326 14 93.8799 14H173.785Z"/>
</mask>
<path d="M139.253 211.128V214.128H142.253V211.128H139.253ZM128.411 211.128H125.411V214.128H128.411V211.128ZM128.411 194.372V191.372H125.411V194.372H128.411ZM139.253 194.372H142.253V191.372H139.253V194.372ZM173.785 14L173.785 11H173.785V14ZM179.665 19.917H182.665V19.9169L179.665 19.917ZM179.665 135.86H176.665V142.319L181.6 138.153L179.665 135.86ZM233.589 91.8887L235.414 94.2697L236.589 93.3691V91.8887H233.589ZM233.589 87.998H236.589V85.2676L233.87 85.0113L233.589 87.998ZM233.589 80.4619L233.87 83.4487L236.589 83.1923V80.4619H233.589ZM233.589 77.3564H236.589V74.626L233.87 74.3697L233.589 77.3564ZM233.589 72.3369L233.873 75.3234L236.589 75.0649V72.3369H233.589ZM290.125 74.3994H287.125V78.0367L290.696 77.3446L290.125 74.3994ZM290.271 74.3848V71.3848H290.268L290.271 74.3848ZM290.271 83.2344L290.268 86.2344H290.271V83.2344ZM290.125 83.2197L290.696 80.2745L287.125 79.5824V83.2197H290.125ZM290.125 164.795L293.125 164.795V164.795H290.125ZM233.589 164.795H230.589V164.795L233.589 164.795ZM233.589 148.94H236.589V145.031L232.813 146.043L233.589 148.94ZM179.665 163.598L178.883 160.701L176.665 161.301V163.598H179.665ZM173.785 190.43V193.43H173.785L173.785 190.43ZM88 19.917L85 19.9169V19.917H88ZM93.8799 14V11V14ZM139.253 211.128V208.128H128.411V211.128V214.128H139.253V211.128ZM128.411 211.128H131.411V194.372H128.411H125.411V211.128H128.411ZM128.411 194.372V197.372H139.253V194.372V191.372H128.411V194.372ZM139.253 194.372H136.253V211.128H139.253H142.253V194.372H139.253ZM173.785 14L173.785 17C175.358 17.0001 176.665 18.2884 176.665 19.917L179.665 19.917L182.665 19.9169C182.665 15.01 178.707 11.0002 173.785 11L173.785 14ZM179.665 19.917H176.665V135.86H179.665H182.665V19.917H179.665ZM179.665 135.86L181.6 138.153C197.758 124.511 219.036 106.823 235.414 94.2697L233.589 91.8887L231.764 89.5077C215.264 102.154 193.893 119.922 177.73 133.568L179.665 135.86ZM233.589 91.8887H236.589V87.998H233.589H230.589V91.8887H233.589ZM233.589 87.998L233.87 85.0113C234.976 85.1155 235.889 86.041 235.889 87.2344H232.889H229.889C229.889 89.2264 231.421 90.8069 233.307 90.9848L233.589 87.998ZM232.889 87.2344H235.889V81.2256H232.889H229.889V87.2344H232.889ZM232.889 81.2256H235.889C235.889 82.419 234.976 83.3444 233.87 83.4487L233.589 80.4619L233.307 77.4752C231.421 77.653 229.889 79.2336 229.889 81.2256H232.889ZM233.589 80.4619H236.589V77.3564H233.589H230.589V80.4619H233.589ZM233.589 77.3564L233.87 74.3697C234.976 74.4739 235.889 75.3994 235.889 76.5928H232.889H229.889C229.889 78.5848 231.421 80.1653 233.307 80.3432L233.589 77.3564ZM232.889 76.5928H235.889V73.1006H232.889H229.889V76.5928H232.889ZM232.889 73.1006H235.889C235.889 74.2962 234.974 75.2186 233.873 75.3234L233.589 72.3369L233.305 69.3504C231.423 69.5296 229.889 71.1064 229.889 73.1006H232.889ZM233.589 72.3369H236.589V65.9502H233.589H230.589V72.3369H233.589ZM233.589 65.9502H236.589C236.589 63.9585 238.205 62.3398 240.205 62.3398V59.3398V56.3398C234.897 56.3398 230.589 60.6398 230.589 65.9502H233.589ZM240.205 59.3398V62.3398H283.509V59.3398V56.3398H240.205V59.3398ZM283.509 59.3398V62.3398C285.508 62.3398 287.125 63.9587 287.125 65.9502H290.125H293.125C293.125 60.6397 288.817 56.3398 283.509 56.3398V59.3398ZM290.125 65.9502H287.125V74.3994H290.125H293.125V65.9502H290.125ZM290.125 74.3994L290.696 77.3446C290.585 77.3661 290.441 77.3846 290.273 77.3848L290.271 74.3848L290.268 71.3848C290 71.385 289.76 71.4144 289.554 71.4542L290.125 74.3994ZM290.271 74.3848V77.3848C289.042 77.3848 288.042 76.3933 288.042 75.1553H291.042H294.042C294.042 73.0698 292.346 71.3848 290.271 71.3848V74.3848ZM291.042 75.1553H288.042V82.4639H291.042H294.042V75.1553H291.042ZM291.042 82.4639H288.042C288.042 81.2267 289.042 80.2344 290.271 80.2344V83.2344V86.2344C292.347 86.2344 294.042 84.5485 294.042 82.4639H291.042ZM290.271 83.2344L290.273 80.2344C290.441 80.2345 290.585 80.2531 290.696 80.2745L290.125 83.2197L289.554 86.1649C289.76 86.2047 290 86.2342 290.268 86.2344L290.271 83.2344ZM290.125 83.2197H287.125V164.795H290.125H293.125V83.2197H290.125ZM290.125 164.795L287.125 164.795C287.125 166.786 285.508 168.405 283.509 168.405V171.405V174.405C288.817 174.405 293.125 170.105 293.125 164.795L290.125 164.795ZM283.509 171.405V168.405H240.205V171.405V174.405H283.509V171.405ZM240.205 171.405V168.405C238.206 168.405 236.589 166.786 236.589 164.795L233.589 164.795L230.589 164.795C230.589 170.105 234.896 174.405 240.205 174.405V171.405ZM233.589 164.795H236.589V148.94H233.589H230.589V164.795H233.589ZM233.589 148.94L232.813 146.043C216.229 150.484 193.669 156.707 178.883 160.701L179.665 163.598L180.447 166.494C195.309 162.479 217.764 156.284 234.365 151.838L233.589 148.94ZM179.665 163.598H176.665V184.513H179.665H182.665V163.598H179.665ZM179.665 184.513H176.665C176.665 186.141 175.358 187.43 173.785 187.43L173.785 190.43L173.785 193.43C178.707 193.429 182.665 189.42 182.665 184.513H179.665ZM173.785 190.43V187.43H93.8799V190.43V193.43H173.785V190.43ZM93.8799 190.43V187.43C92.3072 187.43 91 186.142 91 184.513H88H85C85 189.42 88.958 193.43 93.8799 193.43V190.43ZM88 184.513H91V19.917H88H85V184.513H88ZM88 19.917L91 19.917C91 18.2882 92.3072 17 93.8799 17V14V11C88.958 11 85.0001 15.0101 85 19.9169L88 19.917ZM93.8799 14V17H173.785V14V11H93.8799V14Z" fill="white" mask="url(#path-1-outside-1_17_28635)"/>
<g opacity="0.4">
<path fill-rule="evenodd" clip-rule="evenodd" d="M155.779 156.113C155.182 156.679 154.844 157.466 154.844 158.29L154.844 166.566C154.844 167.119 155.292 167.566 155.844 167.566H163.947C164.142 167.566 164.337 167.547 164.528 167.509L285.755 143.57V76.3945L239.411 76.7893L155.779 156.113Z" fill="url(#paint0_linear_17_28635)" style="mix-blend-mode:multiply"/>
</g>
<path d="M290.273 74.3851C290.223 74.3851 290.174 74.3907 290.127 74.3999V65.9502C290.127 62.2992 287.164 59.3398 283.51 59.3398H240.206C236.552 59.3398 233.59 62.2992 233.59 65.9502V72.3376C233.2 72.3748 232.891 72.7015 232.891 73.1008V76.5933C232.891 76.9925 233.2 77.3196 233.59 77.3564V80.4627C233.2 80.4995 232.891 80.8266 232.891 81.2259V87.2349C232.891 87.6342 233.2 87.9612 233.59 87.9981V164.795C233.59 168.446 236.552 171.405 240.206 171.405H283.51C287.165 171.405 290.127 168.446 290.127 164.795V83.2199C290.174 83.2291 290.223 83.2348 290.273 83.2348C290.697 83.2348 291.043 82.8882 291.043 82.4645V75.1553C291.043 74.7316 290.696 74.3851 290.273 74.3851Z" fill="#292929"/>
<path d="M264.867 63.5327H258.853C258.429 63.5327 258.082 63.1862 258.082 62.7625C258.082 62.3387 258.429 61.9922 258.853 61.9922H264.867C265.291 61.9922 265.638 62.3387 265.638 62.7625C265.638 63.1858 265.291 63.5327 264.867 63.5327Z" fill="white"/>
<path d="M286.009 161.513C286.009 163.498 284.399 165.107 282.412 165.107H241.308C239.321 165.107 237.711 163.498 237.711 161.513V69.2187C237.711 67.2339 239.321 65.625 241.308 65.625H282.413C284.399 65.625 286.009 67.2339 286.009 69.2187V161.513H286.009Z" fill="white"/>
<path fill-rule="evenodd" clip-rule="evenodd" d="M264.353 81.6777C265.293 81.6777 266.056 85.6441 266.056 90.5368H267.419C267.419 85.2674 266.046 80.9961 264.353 80.9961C263.389 80.9961 262.529 82.2801 261.967 84.2873C261.405 82.2801 260.546 80.9961 259.582 80.9961C257.889 80.9961 256.516 85.2674 256.516 90.5368H257.879C257.879 85.6441 258.642 81.6777 259.582 81.6777C260.523 81.6777 261.286 85.3389 261.286 89.8552H262.649C262.649 85.3389 263.412 81.6777 264.353 81.6777Z" fill="#FFBC0D"/>
<path d="M251.063 110.828H255.909C256.243 110.828 256.515 111.099 256.515 111.434V116.28C256.515 116.615 256.243 116.886 255.909 116.886H251.063C250.728 116.886 250.457 116.615 250.457 116.28V111.434C250.457 111.099 250.728 110.828 251.063 110.828Z" fill="#292929"/>
<path d="M268.02 110.828H272.866C273.2 110.828 273.472 111.099 273.472 111.434V116.28C273.472 116.615 273.2 116.886 272.866 116.886H268.02C267.685 116.886 267.414 116.615 267.414 116.28V111.434C267.414 111.099 267.685 110.828 268.02 110.828Z" fill="#292929"/>
<path d="M251.063 127.789H255.909C256.243 127.789 256.515 128.06 256.515 128.395V133.241C256.515 133.575 256.243 133.847 255.909 133.847H251.063C250.728 133.847 250.457 133.575 250.457 133.241V128.395C250.457 128.06 250.728 127.789 251.063 127.789Z" fill="#292929"/>
<path d="M267.416 123.549C267.751 123.549 268.022 123.82 268.022 124.155V127.789H272.868V124.155C272.868 123.82 273.139 123.549 273.474 123.549H277.108C277.443 123.549 277.714 123.82 277.714 124.155V127.789C277.714 128.124 277.443 128.395 277.108 128.395H273.474V133.241H277.108C277.443 133.241 277.714 133.512 277.714 133.847V137.481C277.714 137.816 277.443 138.087 277.108 138.087H273.474C273.139 138.087 272.868 137.816 272.868 137.481V133.847H268.022V137.481C268.022 137.816 267.751 138.087 267.416 138.087H263.782C263.447 138.087 263.176 137.816 263.176 137.481V133.847C263.176 133.512 263.447 133.241 263.782 133.241H267.416V128.395H263.782C263.447 128.395 263.176 128.124 263.176 127.789V124.155C263.176 123.82 263.447 123.549 263.782 123.549H267.416Z" fill="#292929"/>
<path d="M258.33 123.549C259.668 123.549 260.753 124.634 260.753 125.972V135.664C260.753 137.002 259.668 138.087 258.33 138.087H248.638C247.3 138.087 246.215 137.002 246.215 135.664V125.972C246.215 124.634 247.3 123.549 248.638 123.549H258.33ZM248.638 125.366C248.303 125.366 248.032 125.637 248.032 125.972V135.664C248.032 135.999 248.303 136.27 248.638 136.27H258.33C258.664 136.269 258.935 135.998 258.936 135.664V125.972C258.936 125.637 258.664 125.366 258.33 125.366H248.638Z" fill="#292929"/>
<path d="M258.33 106.588C259.668 106.588 260.753 107.673 260.753 109.011V118.703C260.753 120.041 259.668 121.126 258.33 121.126H248.638C247.3 121.126 246.215 120.041 246.215 118.703V109.011C246.215 107.673 247.3 106.588 248.638 106.588H258.33ZM248.638 108.405C248.303 108.405 248.032 108.676 248.032 109.011V118.703C248.032 119.038 248.303 119.309 248.638 119.309H258.33C258.664 119.308 258.936 119.038 258.936 118.703V109.011C258.935 108.676 258.664 108.405 258.33 108.405H248.638Z" fill="#292929"/>
<path d="M275.291 106.588C276.629 106.588 277.714 107.673 277.714 109.011V118.703C277.714 120.041 276.629 121.126 275.291 121.126H265.599C264.261 121.126 263.176 120.041 263.176 118.703V109.011C263.176 107.673 264.261 106.588 265.599 106.588H275.291ZM265.599 108.405C265.264 108.405 264.993 108.676 264.993 109.011V118.703C264.993 119.038 265.264 119.308 265.599 119.309H275.291C275.626 119.309 275.896 119.038 275.896 118.703V109.011C275.896 108.676 275.625 108.405 275.291 108.405H265.599Z" fill="#292929"/>
<path fill-rule="evenodd" clip-rule="evenodd" d="M93.8798 14H173.785C177.032 14 179.665 16.6492 179.665 19.9171V184.513C179.665 187.781 177.032 190.43 173.785 190.43H93.8798C90.6325 190.43 88 187.781 88 184.513V19.9171C88 16.6492 90.6325 14 93.8798 14Z" fill="#292929"/>
<rect x="93.9141" y="23.8555" width="79.8369" height="114.334" rx="3.94256" fill="#F9F9F9"/>
<path fill-rule="evenodd" clip-rule="evenodd" d="M137.862 75.3362C139.458 75.3362 140.752 82.3858 140.752 91.0813H143.065C143.065 81.7166 140.735 74.125 137.862 74.125C136.228 74.125 134.77 76.4066 133.816 79.9744C132.862 76.4066 131.404 74.125 129.769 74.125C126.896 74.125 124.566 81.7166 124.566 91.0813H126.879C126.879 82.3858 128.173 75.3362 129.769 75.3362C131.365 75.3362 132.66 81.8435 132.66 89.8701H134.972C134.972 81.8435 136.266 75.3362 137.862 75.3362Z" fill="#FFBC0D"/>
<path d="M139.252 194.373H128.41V211.129H139.252V194.373Z" fill="#6F6F6F"/>
<rect opacity="0.1" x="128.41" y="194.373" width="10.8421" height="9.85641" fill="#292929"/>
<rect x="151.082" y="144.105" width="22.6697" height="25.6267" fill="#292929"/>
<rect x="97.8555" y="117.492" width="33.5118" height="14.7846" fill="#D6D6D6"/>
<rect x="136.297" y="117.492" width="33.5118" height="14.7846" fill="#FFBC0D"/>
<rect x="156.008" y="148.047" width="12.8133" height="4.92821" fill="#6F6F6F"/>
<defs>
<linearGradient id="paint0_linear_17_28635" x1="146.146" y1="103.931" x2="262.412" y2="69.0327" gradientUnits="userSpaceOnUse">
<stop stop-color="#006BAE"/>
<stop offset="0.379077" stop-color="#006BAE"/>
<stop offset="1" stop-color="#7762C0" stop-opacity="0.03"/>
</linearGradient>
</defs>
</svg>
