<svg width="72" height="72" viewBox="0 0 72 72" fill="none" xmlns="http://www.w3.org/2000/svg">
<g clip-path="url(#clip0_17_28543)">
<g clip-path="url(#clip1_17_28543)">
<path d="M68.5604 64.5742C68.5604 66.0499 54.0915 67.2462 36.2431 67.2462C18.3947 67.2462 3.92578 66.0499 3.92578 64.5742C3.92578 63.0986 18.3947 61.9023 36.2431 61.9023C54.0915 61.9023 68.5604 63.0986 68.5604 64.5742Z" fill="#A0A09F" fill-opacity="0.15"/>
<path fill-rule="evenodd" clip-rule="evenodd" d="M23.5158 15.5898L23.5158 39.0008H5.70312V15.5898H23.5158Z" fill="white"/>
<path fill-rule="evenodd" clip-rule="evenodd" d="M31.662 57.3212C31.662 61.959 27.9024 65.7187 23.2646 65.7187C18.6268 65.7187 14.8672 61.959 14.8672 57.3212C14.8672 52.6835 18.6268 48.9238 23.2646 48.9238C27.9024 48.9238 31.662 52.6835 31.662 57.3212Z" fill="white"/>
<path fill-rule="evenodd" clip-rule="evenodd" d="M61.6894 57.3212C61.6894 61.959 57.9297 65.7187 53.2919 65.7187C48.6542 65.7187 44.8945 61.959 44.8945 57.3212C44.8945 52.6835 48.6542 48.9238 53.2919 48.9238C57.9297 48.9238 61.6894 52.6835 61.6894 57.3212Z" fill="white"/>
<path fill-rule="evenodd" clip-rule="evenodd" d="M32.9433 11.0114C32.7924 8.85535 34.414 6.9375 36.5695 6.9375H41.0207L40.6039 12.8931C40.5896 15.0133 38.9481 16.7981 36.8393 16.7981C34.731 16.7981 33.0896 15.0132 33.0752 12.8932L32.9433 11.0114Z" fill="white"/>
<path fill-rule="evenodd" clip-rule="evenodd" d="M32.0455 47.5929C31.9557 49.2211 32.3578 50.1253 32.9093 50.7469C33.4457 51.3512 34.1605 51.746 35.0259 52.2239C35.1202 52.2759 35.2162 52.3289 35.3139 52.3833C36.7484 49.1853 37.3871 46.8438 37.3706 45.1346C37.36 44.0467 37.0837 43.2555 36.6096 42.6534C36.2104 42.1461 35.6322 41.724 34.8398 41.3821C34.3194 42.0952 33.7163 43.0422 33.2013 44.0532C32.5618 45.3089 32.1015 46.5806 32.0455 47.5929ZM33.1773 56.7106H12.25L12.2456 55.9517C12.2103 49.8319 15.0413 45.3785 19.0254 42.4688H5.24254L5.05452 42.3486C4.39544 41.9273 3.90825 41.4335 3.5934 40.8307C3.28028 40.2312 3.16862 39.5831 3.16464 38.9033L3.16016 38.1354H22.7862C22.3986 28.0662 25.4482 20.5689 30.4778 17.033C31.9945 15.9665 33.6682 15.8273 35.257 16.5373C36.7996 17.2266 38.1979 18.6835 39.3519 20.6839C42.3782 25.93 47.1088 27.9644 49.9312 27.9265L50.7517 27.9155L50.6666 29.361C51.4316 29.1945 52.272 29.1007 53.1517 29.0957L53.9151 29.0914L53.954 35.8932L53.1906 35.8975C52.6977 35.9003 52.2172 35.8752 51.7554 35.825C52.8583 38.2234 54.077 41.4793 54.4109 44.7211C58.8707 45.4262 61.397 48.1346 62.7901 50.686C63.5144 52.0124 63.9366 53.3002 64.1783 54.2543C64.2994 54.7326 64.3759 55.1303 64.4226 55.4114C64.4459 55.552 64.4618 55.6637 64.472 55.7421C64.4771 55.7812 64.4808 55.8121 64.4833 55.8341C64.4845 55.8451 64.4855 55.8538 64.4862 55.8603L64.487 55.8683L64.4873 55.871L64.4874 55.872L64.5096 56.0956L64.4875 55.8728L64.5706 56.7115H36.3887L36.389 56.7111H33.1771L33.1773 56.7106ZM40.7855 51.8447C43.4517 50.1722 45.4209 47.895 46.5846 45.1484C47.8739 42.1053 48.194 38.4379 47.3159 34.3033C47.0272 34.3049 46.7219 34.3067 46.4329 34.3083C45.8638 34.3115 45.3575 34.3144 45.1639 34.3156C44.4867 34.3194 44.0306 33.811 43.8017 33.4476C43.5471 33.0435 43.3759 32.5235 43.373 32.0304L43.3685 31.2669L46.7534 31.2473C44.23 31.1347 42.2446 30.7091 40.6234 30.0012C38.8058 29.2076 37.4914 28.079 36.4058 26.7274C35.3331 28.3286 34.4553 29.7288 33.5701 31.6134C36.9738 32.6041 39.5686 33.7634 41.4035 35.1575C43.4147 36.6856 44.5262 38.5091 44.7605 40.6701C44.9906 42.7915 44.3633 45.1345 43.1294 47.7071C42.5059 49.0071 41.7181 50.3846 40.7855 51.8447Z" fill="white"/>
<path d="M22.7546 19.2949H6.46875V34.302H22.7546V19.2949Z" fill="#C2945C"/>
<path d="M22.7546 34.3008H6.46875V38.237H22.7546V34.3008Z" fill="#DB0007"/>
<path d="M22.7551 21.4985C22.7503 21.4985 22.7244 21.498 22.7196 21.498C21.0153 21.498 19.4946 23.7333 18.5003 27.2293C17.506 23.7333 15.9849 21.498 14.2806 21.498C11.2846 21.498 8.85547 29.063 8.85547 38.2385H11.2671C11.2671 29.7186 12.6166 22.6846 14.2806 22.6846C15.945 22.6846 17.2949 29.0607 17.2949 36.925H19.7053C19.7053 29.0607 21.0552 22.6846 22.7196 22.6846C22.7244 22.6846 22.7503 22.6855 22.7551 22.6855V21.4985Z" fill="#FFBC0D"/>
<path d="M22.7546 16.3535H6.46875V19.2943H22.7546V16.3535Z" fill="#C2945C"/>
<path opacity="0.5" d="M22.7546 16.3535H6.46875V19.2943H22.7546V16.3535Z" fill="#E5AF71"/>
<path d="M16.5889 20.5792H12.6382C12.4454 20.5792 12.2891 20.4253 12.2891 20.2357V16.3535H16.938V20.2357C16.938 20.4253 16.7817 20.5792 16.5889 20.5792Z" fill="#FFBC0D"/>
<path fill-rule="evenodd" clip-rule="evenodd" d="M23.2629 64.9555C27.4791 64.9555 30.8969 61.5377 30.8969 57.3215C30.8969 57.1506 30.8913 56.9809 30.8802 56.8128H15.6456C15.6345 56.9809 15.6289 57.1506 15.6289 57.3215C15.6289 61.5377 19.0468 64.9555 23.2629 64.9555ZM15.7344 56.0494C16.3401 52.4387 19.4802 49.6875 23.2629 49.6875C27.0456 49.6875 30.1858 52.4387 30.7914 56.0494H15.7344Z" fill="#292929"/>
<path fill-rule="evenodd" clip-rule="evenodd" d="M23.2623 61.1379C25.3704 61.1379 27.0793 59.429 27.0793 57.3209C27.0793 57.1485 27.0679 56.9787 27.0457 56.8123H19.4789C19.4567 56.9787 19.4453 57.1485 19.4453 57.3209C19.4453 59.429 21.1542 61.1379 23.2623 61.1379ZM19.6624 56.0489C20.1863 54.5662 21.6002 53.5039 23.2623 53.5039C24.9244 53.5039 26.3384 54.5662 26.8623 56.0489H19.6624Z" fill="white"/>
<path d="M60.9243 57.3215C60.9243 61.5377 57.5064 64.9555 53.2903 64.9555C49.0741 64.9555 45.6562 61.5377 45.6562 57.3215C45.6562 53.1054 49.0741 49.6875 53.2903 49.6875C57.5064 49.6875 60.9243 53.1054 60.9243 57.3215Z" fill="#292929"/>
<path d="M57.1067 57.3209C57.1067 59.429 55.3977 61.1379 53.2897 61.1379C51.1816 61.1379 49.4727 59.429 49.4727 57.3209C49.4727 55.2128 51.1816 53.5039 53.2897 53.5039C55.3977 53.5039 57.1067 55.2128 57.1067 57.3209Z" fill="white"/>
<path fill-rule="evenodd" clip-rule="evenodd" d="M36.516 7.70117C34.846 7.70117 33.5282 9.19987 33.6513 10.9584L33.785 12.8654C33.785 14.616 35.1286 16.0349 36.7858 16.0349C38.4435 16.0349 39.7871 14.616 39.7871 12.8654L40.1485 7.70117H36.516ZM53.2888 48.9252C49.0837 48.9252 45.6005 52.0161 44.9872 56.0499H37.8932C38.6082 55.0795 39.1845 54.2814 39.8017 53.378C46.7834 49.805 50.0597 42.651 47.9196 33.6382L45.1532 33.654C44.6152 33.657 44.1342 32.7957 44.1302 32.1277L47.6073 32.1075C47.8636 31.5043 48.5601 30.9729 49.5348 30.5895C41.8137 30.8738 38.6792 28.835 36.3683 25.5108C34.8504 27.7503 33.7044 29.4689 32.5014 32.2091C47.6647 36.3377 46.4867 43.1872 37.0079 56.0495H34.4254C39.3025 46.6227 39.1869 42.5102 35.1047 40.7695L36.2134 38.6083C36.3003 38.439 36.1773 38.2377 35.987 38.2377H23.544C23.1539 28.2885 26.1735 21.0896 30.9107 17.7592C33.5077 15.9333 36.4656 17.3207 38.6845 21.1671C41.8321 26.6235 46.8043 28.8337 49.9352 28.7916L49.8358 30.4822C50.7672 30.1624 51.9097 29.9679 53.1499 29.9609L53.1801 35.2359C52.176 35.2416 51.2342 35.1242 50.4149 34.9161C51.6889 37.4439 53.4324 41.5496 53.6962 45.4977C62.7763 46.5105 63.7216 56.0499 63.7216 56.0499H61.5903C60.977 52.0161 57.4939 48.9252 53.2888 48.9252ZM23.262 39.0006H3.92188C3.92888 40.1997 4.3144 41.0752 5.45954 41.8072H21.6598C16.7204 44.4804 12.963 49.1513 13.0028 56.049H15.1849L18.5485 56.0499L27.1353 56.049H30.4985H33.5449L34.9669 53.169C34.8624 53.1108 34.7578 53.0532 34.6533 52.9957L34.6481 52.9929L34.647 52.9922C32.8442 52 31.0905 51.0348 31.2771 47.6525C31.3707 45.9594 32.4098 43.8212 33.4409 42.1815L34.9852 39.3784C35.0786 39.2088 34.9559 39.0011 34.7623 39.0011H23.262V39.0006Z" fill="#DB0007"/>
</g>
</g>
<defs>
<clipPath id="clip0_17_28543">
<rect width="72" height="72" fill="white"/>
</clipPath>
<clipPath id="clip1_17_28543">
<rect width="72" height="72" fill="white"/>
</clipPath>
</defs>
</svg>
