<svg width="153" height="98" viewBox="0 0 153 98" fill="none" xmlns="http://www.w3.org/2000/svg">
<rect x="1.5" y="9" width="150" height="80" rx="40" fill="white"/>
<g clip-path="url(#clip0_1545_46298)">
<path d="M113.41 28.8086C109.608 28.8086 106.217 33.8748 103.996 41.7967C101.778 33.8748 98.3871 28.8086 94.5856 28.8086C87.9028 28.8086 82.4883 45.6715 82.4883 66.4569H87.8624C87.8624 47.1489 90.8721 31.4993 94.5856 31.4993C98.2991 31.4993 101.309 45.9465 101.309 63.7589H106.687C106.687 45.9391 109.696 31.4993 113.41 31.4993C117.123 31.4993 120.133 47.1489 120.133 66.4569H125.511C125.511 45.6642 120.093 28.8086 113.41 28.8086Z" fill="#FFBC0D"/>
<path d="M27.5977 37.246H32.3633L37.0886 51.3998L41.9385 37.246H46.5611V56.2058H42.9209V43.5659L38.5916 56.2058H35.5122L31.1572 43.5879V56.2021H27.5977V37.246ZM56.6789 56.631C54.4281 56.631 52.6966 55.9809 51.4844 54.6808C50.2722 53.3806 49.6612 51.5343 49.6515 49.1417C49.6375 48.0983 49.8036 47.0602 50.1427 46.0733C50.4419 45.2087 50.9217 44.4177 51.5504 43.7529C52.1669 43.1085 52.9179 42.6078 53.7499 42.2865C55.6301 41.617 57.6837 41.617 59.5639 42.2865C60.3964 42.6069 61.1475 43.1077 61.7634 43.7529C62.3912 44.4163 62.8677 45.208 63.1601 46.0733C63.8052 48.0818 63.8052 50.2419 63.1601 52.2503C62.859 53.126 62.3797 53.9299 61.7524 54.6111C61.1406 55.2699 60.389 55.7835 59.5529 56.1141C58.6361 56.4662 57.6609 56.6416 56.6789 56.631ZM56.6789 53.658C57.1438 53.6858 57.6079 53.591 58.0248 53.3832C58.4416 53.1755 58.7967 52.8619 59.0544 52.4739C59.5749 51.6894 59.8389 50.575 59.8389 49.1417C59.8389 47.7083 59.5749 46.6196 59.0544 45.8754C58.7641 45.5249 58.4 45.2427 57.9881 45.0491C57.5762 44.8554 57.1267 44.755 56.6716 44.755C56.2164 44.755 55.7669 44.8554 55.355 45.0491C54.9432 45.2427 54.5791 45.5249 54.2888 45.8754C53.7682 46.6086 53.5043 47.7083 53.5043 49.1417C53.5043 50.575 53.7609 51.7078 54.2778 52.4739C54.5369 52.8667 54.8959 53.1833 55.3178 53.3914C55.7398 53.5995 56.2096 53.6915 56.6789 53.658ZM78.7437 56.2058H75.3711V47.5214L69.6084 56.2058H66.4484V42.1839H69.7953V50.9196L75.5837 42.1802H78.7437V56.2058ZM70.7778 36.4102C70.8144 37.0847 71.0087 37.5539 71.3606 37.8178C71.7656 38.0979 72.2508 38.2382 72.7427 38.2174C73.2265 38.2371 73.7032 38.0967 74.099 37.8178C74.451 37.5539 74.6453 37.0847 74.6819 36.4102H77.336C77.336 37.791 76.9254 38.8223 76.1043 39.5041C75.2795 40.186 74.1614 40.5269 72.7427 40.5269C71.2763 40.5269 70.1216 40.186 69.3444 39.5041C68.5673 38.8223 68.175 37.7922 68.175 36.4102H70.7778Z" fill="url(#paint0_linear_1545_46298)"/>
</g>
<defs>
<linearGradient id="paint0_linear_1545_46298" x1="27.5977" y1="46.5133" x2="78.7437" y2="46.5133" gradientUnits="userSpaceOnUse">
<stop stop-color="#8B2A7B"/>
<stop offset="0.05" stop-color="#9B286D"/>
<stop offset="0.18" stop-color="#BF2350"/>
<stop offset="0.3" stop-color="#D81F3A"/>
<stop offset="0.41" stop-color="#E81D2D"/>
<stop offset="0.5" stop-color="#ED1C29"/>
<stop offset="1" stop-color="#F37021"/>
</linearGradient>
<clipPath id="clip0_1545_46298">
<rect width="100.414" height="47.0191" fill="white" transform="translate(25.8945 25.0938)"/>
</clipPath>
</defs>
</svg>
