<svg width="27" height="18" viewBox="0 0 27 18" fill="none" xmlns="http://www.w3.org/2000/svg">
<g clip-path="url(#clip0_109_43707)">
<path d="M0 0H27V18H0V0Z" fill="#FFC726"/>
<path d="M0 0H9V18H0V0ZM18 0H27V18H18V0Z" fill="#00267F"/>
<path d="M17.1424 5.31642L15.4597 5.96905C15.4239 6.0401 15.155 6.36589 15.0292 8.76168H14.1318V5.58168L13.4718 4.14062L12.8118 5.56168V8.76168H11.9139C11.7881 6.36536 11.5034 5.99957 11.4681 5.92799L9.80078 5.31589C9.80868 5.3322 10.6113 6.96536 10.6113 9.42168V10.0817H12.8118V13.8222H14.1318V10.0817H16.3324V9.42168C16.3324 8.15168 16.5518 7.10484 16.7366 6.4501C16.9376 5.73589 17.1418 5.31905 17.1439 5.31484L17.1424 5.31642Z" fill="black"/>
</g>
<rect x="0.5" y="0.5" width="26" height="17" rx="0.5" stroke="black" stroke-opacity="0.2"/>
<defs>
<clipPath id="clip0_109_43707">
<rect width="27" height="18" rx="1" fill="white"/>
</clipPath>
</defs>
</svg>
