<svg width="27" height="18" viewBox="0 0 27 18" fill="none" xmlns="http://www.w3.org/2000/svg">
<g clip-path="url(#clip0_109_43716)">
<path d="M0 0H27V18.0002H0V0Z" fill="black"/>
<path d="M0 0H27V17.9999" fill="#A2001D"/>
<path d="M10.7919 12.7183L10.9376 13.1668H11.4091L11.0276 13.4439L11.1734 13.8923L10.7919 13.6152L10.4105 13.8923L10.5561 13.4439L10.1747 13.1668H10.6462L10.7919 12.7183ZM9.58778 8.41406L9.83063 9.16141H10.6164L9.98066 9.62321L10.2235 10.3706L9.58778 9.90866L8.95207 10.3706L9.19497 9.62321L8.5592 9.16141H9.34499L9.58778 8.41406ZM9.58778 13.8923L9.83057 14.6397H10.6164L9.9806 15.1015L10.2235 15.8489L9.58778 15.387L8.95207 15.8489L9.19486 15.1015L8.5592 14.6397H9.34489L9.58778 13.8923ZM11.8852 10.3706L12.1281 11.1179H12.9139L12.2781 11.5798L12.521 12.3271L11.8852 11.8652L11.2496 12.3271L11.4924 11.5798L10.8567 11.1179H11.6425L11.8852 10.3706ZM7.2903 10.3706L7.5332 11.1179H8.31889L7.68323 11.5798L7.92596 12.3271L7.2903 11.8652L6.65459 12.3271L6.89743 11.5798L6.26172 11.1179H7.04746L7.2903 10.3706Z" fill="white"/>
<path d="M19.8568 6.26497C19.4545 5.86271 18.9319 5.62514 18.3703 5.58427L20.0514 4.27672C19.3818 3.6071 18.4845 3.30478 17.6088 3.36874C17.5008 2.97961 17.2937 2.62511 17.0079 2.33984L16.3438 3.66801C16.2993 3.58671 16.2434 3.51219 16.1778 3.44669C15.7957 3.06462 15.1763 3.06468 14.7943 3.44669C14.4124 3.82869 14.4123 4.44811 14.7943 4.83012C14.8599 4.89567 14.9344 4.95156 15.0157 4.99613L13.6875 5.66021C13.9729 5.94621 14.3275 6.15333 14.7168 6.26133C14.6526 7.13704 14.9547 8.03421 15.6243 8.70383L17.0932 6.81536C17.2027 6.70684 17.3507 6.64613 17.5049 6.6465C17.6617 6.6465 17.8091 6.70757 17.9199 6.81842C17.9746 6.87279 18.0179 6.93746 18.0474 7.0087C18.077 7.07994 18.092 7.15633 18.0918 7.23344C18.0918 7.39027 18.0308 7.53761 17.9199 7.64846L18.4733 8.20185C18.732 7.94319 18.8745 7.5992 18.8745 7.23344C18.8745 6.93417 18.779 6.64961 18.6027 6.41426C18.8678 6.48478 19.1096 6.62418 19.3034 6.81831C19.9137 7.42855 19.9137 8.4216 19.3034 9.03184L19.8568 9.58523C20.3003 9.14179 20.5444 8.55216 20.5444 7.9251C20.5444 7.29798 20.3002 6.70841 19.8568 6.26497Z" fill="#FFDA44"/>
</g>
<rect x="0.5" y="0.5" width="26" height="17" rx="0.5" stroke="black" stroke-opacity="0.2"/>
<defs>
<clipPath id="clip0_109_43716">
<rect width="27" height="18" rx="1" fill="white"/>
</clipPath>
</defs>
</svg>
