<svg width="27" height="18" viewBox="0 0 27 18" fill="none" xmlns="http://www.w3.org/2000/svg">
<g clip-path="url(#clip0_109_43869)">
<path d="M0 0H27V18H0V0Z" fill="#10338C"/>
<path d="M11.6968 8.98576C11.7126 8.96997 11.7231 8.95418 11.7389 8.93839C11.7284 8.95418 11.7126 8.96997 11.6968 8.98576ZM9.89679 11.191L10.4757 12.3963L11.7757 12.0963L11.1968 13.2963L12.2442 14.1279L10.9389 14.4226L10.9442 15.7594L9.89679 14.9226L8.85469 15.7594L8.85995 14.4226L7.55469 14.1279L8.60206 13.2963L8.01785 12.0963L9.32311 12.3963L9.89679 11.191ZM20.3126 12.691L20.5863 13.2647L21.2073 13.1226L20.9284 13.6963L21.4284 14.091L20.8073 14.2279V14.87L20.3126 14.47L19.8126 14.87L19.8178 14.2279L19.1968 14.091L19.6968 13.6963L19.4178 13.1226L20.0389 13.2647L20.3126 12.691ZM17.7547 6.58577L18.0284 7.15945L18.6494 7.01735L18.3705 7.59103L18.8705 7.98576L18.2494 8.12787V8.76471L17.7547 8.36471L17.2547 8.76471L17.26 8.12787L16.6336 7.98576L17.1336 7.59103L16.8547 7.01735L17.4757 7.15945L17.7547 6.58577ZM20.3126 3.10156L20.5863 3.67525L21.2073 3.53314L20.9284 4.10682L21.4284 4.50156L20.8073 4.64366V5.28051L20.3126 4.88051L19.8126 5.28051L19.8178 4.64366L19.1968 4.50156L19.6968 4.10682L19.4178 3.53314L20.0389 3.67525L20.3126 3.10156ZM22.5494 5.71735L22.8231 6.29103L23.4442 6.14893L23.1652 6.72261L23.6652 7.11734L23.0442 7.25419V7.89629L22.5494 7.49629L22.0494 7.89629V7.25419L21.4284 7.11734L21.9284 6.72261L21.6494 6.14893L22.2705 6.29103L22.5494 5.71735ZM20.9494 8.76471L21.1652 9.43313H21.8652L21.2968 9.84366L21.5178 10.5121L20.9494 10.0963L20.381 10.5121L20.5968 9.84366L20.0336 9.43313H20.7336L20.9494 8.76471Z" fill="white"/>
<path d="M13.4112 0V1.61053L11.0375 2.93158H13.4112V6.05263H10.3007L13.4112 7.77895V8.98421H12.0059L8.1375 6.83158V8.98421H5.21118V6.42632L0.611184 8.98421H-0.0625V7.37368L2.31645 6.05263H-0.0625V2.93158H3.04803L-0.0625 1.2V0H1.34276L5.21118 2.14737V0H8.1375V2.55789L12.7428 0H13.4112Z" fill="white"/>
<path d="M7.51645 0H5.83224V3.64737H-0.0625V5.33158H5.83224V8.98421H7.51645V5.33158H13.4112V3.64737H7.51645V0Z" fill="#D80027"/>
<path d="M8.13672 6.05469L13.4104 8.98627V8.15469L9.63146 6.05469H8.13672Z" fill="#0052B4"/>
<path d="M8.13672 6.05469L13.4104 8.98627V8.15469L9.63146 6.05469H8.13672Z" fill="white"/>
<path d="M8.1375 6.05469L13.4112 8.98627V8.15469L9.63223 6.05469H8.1375ZM3.72171 6.05469L-0.0625 8.15469V8.98627L5.21118 6.05469H3.72171Z" fill="#D80027"/>
<path d="M5.21118 2.93158L-0.0625 0V0.826316L3.72171 2.93158H5.21118Z" fill="#0052B4"/>
<path d="M5.21118 2.93158L-0.0625 0V0.826316L3.72171 2.93158H5.21118Z" fill="white"/>
<path d="M5.21118 2.93158L-0.0625 0V0.826316L3.72171 2.93158H5.21118ZM9.63223 2.93158L13.4112 0.826316V0L8.1375 2.93158H9.63223Z" fill="#D80027"/>
</g>
<rect x="0.5" y="0.5" width="26" height="17" rx="0.5" stroke="black" stroke-opacity="0.2"/>
<defs>
<clipPath id="clip0_109_43869">
<rect width="27" height="18" rx="1" fill="white"/>
</clipPath>
</defs>
</svg>
