<svg width="27" height="18" viewBox="0 0 27 18" fill="none" xmlns="http://www.w3.org/2000/svg">
<g clip-path="url(#clip0_109_43886)">
<path d="M0 0H27V18.0002H0V0Z" fill="#0052B4"/>
<path d="M0 0H27V5.99985H0V0Z" fill="#D80027"/>
<path d="M0 12H27V17.9999H0V12Z" fill="white"/>
<path d="M6.82812 5.08594V9.57553C6.82812 12.1294 10.1645 12.9119 10.1645 12.9119C10.1645 12.9119 13.5007 12.1293 13.5007 9.57553V5.08594H6.82812Z" fill="#D80027"/>
<path d="M8.20561 5.87122H12.1186V4.30601L11.3359 4.6973L10.162 3.52344L8.98819 4.6973L8.20561 4.30601V5.87122ZM12.7158 10.2032L10.1723 7.65981L7.62891 10.2032L8.459 11.0333L10.1723 9.31994L11.8857 11.0333L12.7158 10.2032Z" fill="#FFDA44"/>
<path d="M12.7158 7.82611H11.529C11.5982 7.70733 11.6346 7.57235 11.6346 7.43492C11.6346 7.00271 11.2841 6.65234 10.852 6.65234C10.5533 6.65234 10.294 6.81962 10.1621 7.06557C10.0301 6.81967 9.77071 6.65234 9.47213 6.65234C9.03997 6.65234 8.68955 7.00271 8.68955 7.43492C8.68955 7.57762 8.72837 7.71099 8.79507 7.82611H7.62891C7.62891 8.25832 8.00538 8.60869 8.43754 8.60869H8.41148C8.41148 9.0409 8.76185 9.39127 9.19406 9.39127C9.19406 9.77396 9.46886 10.0919 9.83183 10.1599L9.21516 11.5522C9.51908 11.6758 9.84412 11.7393 10.1722 11.7391C10.5003 11.7393 10.8254 11.6758 11.1293 11.5522L10.5126 10.1599C10.8756 10.0919 11.1504 9.77396 11.1504 9.39127C11.5826 9.39127 11.933 9.0409 11.933 8.60869H11.9069C12.3393 8.60869 12.7158 8.25832 12.7158 7.82611Z" fill="white"/>
</g>
<rect x="0.5" y="0.5" width="26" height="17" rx="0.5" stroke="black" stroke-opacity="0.2"/>
<defs>
<clipPath id="clip0_109_43886">
<rect width="27" height="18" rx="1" fill="white"/>
</clipPath>
</defs>
</svg>
