<svg width="27" height="18" viewBox="0 0 27 18" fill="none" xmlns="http://www.w3.org/2000/svg">
<g clip-path="url(#clip0_109_43766)">
<path d="M0 0H27V18H0V0Z" fill="white"/>
<path d="M0 0H27V5.98948H0V0Z" fill="#6DA544"/>
<path d="M0 11.9805H27V18.0015H0V11.9805Z" fill="#D80027"/>
<path d="M6.63158 8.98421L0 17.9632V0L6.63158 8.98421Z" fill="#0070C8"/>
<path fill-rule="evenodd" clip-rule="evenodd" d="M12.3037 7.30859H16.0773V9.46122C16.0773 9.93424 15.959 10.2908 15.7802 10.559C15.6014 10.8271 15.3633 11.0056 15.126 11.1242C14.8887 11.2428 14.6518 11.302 14.4744 11.3316C14.3857 11.3464 14.3117 11.3538 14.2597 11.3575C14.2338 11.3593 14.2133 11.3603 14.1993 11.3607C14.1922 11.361 14.1868 11.3611 14.1831 11.3612C14.1813 11.3612 14.1799 11.3612 14.1789 11.3612L14.1778 11.3612L14.1775 11.3612H14.1774C14.1774 11.3612 14.1773 11.3612 14.1773 11.3349C14.1773 11.3612 14.1773 11.3612 14.1773 11.3612H14.1772L14.1769 11.3612L14.1758 11.3612C14.1748 11.3612 14.1734 11.3612 14.1715 11.3612C14.1679 11.3611 14.1624 11.361 14.1554 11.3607C14.1414 11.3603 14.1209 11.3593 14.095 11.3575C14.043 11.3538 13.969 11.3464 13.8803 11.3316C13.7029 11.302 13.466 11.2428 13.2287 11.1242C12.9914 11.0056 12.7533 10.8271 12.5745 10.559C12.3957 10.2908 12.2773 9.93424 12.2773 9.46122V7.33491H12.3037V7.30859ZM12.33 7.36123V9.46122C12.33 9.92503 12.4459 10.2711 12.6183 10.5298C12.7909 10.7887 13.0212 10.9616 13.2523 11.0771C13.4835 11.1927 13.715 11.2507 13.8889 11.2797C13.9758 11.2941 14.0482 11.3014 14.0987 11.305C14.124 11.3068 14.1438 11.3077 14.1572 11.3081C14.1639 11.3084 14.169 11.3085 14.1724 11.3085C14.1741 11.3086 14.1754 11.3086 14.1762 11.3086L14.1771 11.3086L14.1773 11.3086H14.1774L14.1776 11.3086L14.1785 11.3086C14.1793 11.3086 14.1806 11.3086 14.1823 11.3085C14.1857 11.3085 14.1908 11.3084 14.1975 11.3081C14.2109 11.3077 14.2307 11.3068 14.256 11.305C14.3065 11.3014 14.3789 11.2941 14.4658 11.2797C14.6397 11.2507 14.8712 11.1927 15.1024 11.0771C15.3335 10.9616 15.5638 10.7887 15.7364 10.5298C15.9088 10.2711 16.0247 9.92503 16.0247 9.46122V7.36123H12.33Z" fill="black"/>
<path d="M13.9215 9.46484H14.4373L14.6478 10.8228H13.7109L13.9215 9.46484Z" fill="#786145"/>
<path d="M15.1155 8.52503C15.1155 8.00925 14.6945 7.74609 14.1787 7.74609C13.6629 7.74609 13.2419 8.00925 13.2419 8.52503C12.984 8.52503 12.7734 8.73556 12.7734 8.99345C12.7734 9.25134 12.984 9.46187 13.2419 9.46187H15.1155C15.3734 9.46187 15.584 9.25134 15.584 8.99345C15.584 8.73556 15.3734 8.52503 15.1155 8.52503Z" fill="#6DA544"/>
<path d="M12.1437 6.31641L12.2438 6.49009H12.4437L12.3438 6.66377L12.4437 6.8322H12.2438L12.1437 7.00588L12.0438 6.8322H11.8438L11.9437 6.66377L11.8438 6.49009H12.0438L12.1437 6.31641ZM12.949 6.31641L13.049 6.49009H13.2438L13.1437 6.66377L13.2438 6.8322H13.049L12.949 7.00588L12.849 6.8322H12.649L12.749 6.66377L12.649 6.49009H12.849L12.949 6.31641ZM13.7543 6.31641L13.8543 6.49009H14.049L13.949 6.66377L14.049 6.8322H13.8543L13.7543 7.00588L13.6543 6.8322H13.4543L13.5543 6.66377L13.4543 6.49009H13.6543L13.7543 6.31641ZM14.5859 6.31641L14.6859 6.49009H14.8859L14.7859 6.66377L14.8859 6.8322H14.6859L14.5859 7.00588L14.4859 6.8322H14.2911L14.3859 6.66377L14.2911 6.49009H14.4859L14.5859 6.31641ZM15.428 6.31641L15.528 6.49009H15.728L15.628 6.66377L15.728 6.8322H15.528L15.428 7.00588L15.328 6.8322H15.1332L15.228 6.66377L15.1332 6.49009H15.328L15.428 6.31641ZM16.2174 6.31641L16.3174 6.49009H16.5122L16.4122 6.66377L16.5122 6.8322H16.3174L16.2174 7.00588L16.1174 6.8322H15.9174L16.0174 6.66377L15.9174 6.49009H16.1174L16.2174 6.31641Z" fill="#FFDA00"/>
<path fill-rule="evenodd" clip-rule="evenodd" d="M12.9484 6.26172L13.0636 6.46183H13.2886L13.1736 6.66163L13.2893 6.85657H13.0636L12.9484 7.05668L12.8332 6.85657H12.6021L12.7179 6.66163L12.6029 6.46183H12.8332L12.9484 6.26172ZM14.5852 6.26172L14.7004 6.46183H14.9307L14.8157 6.66163L14.9314 6.85657H14.7004L14.5852 7.05668L14.47 6.85657H14.2455L14.3551 6.66163L14.2461 6.46183H14.47L14.5852 6.26172ZM15.4273 6.26172L15.5425 6.46183H15.7728L15.6578 6.66163L15.7735 6.85657H15.5425L15.4273 7.05668L15.3121 6.85657H15.0876L15.1972 6.66163L15.0883 6.46183H15.3121L15.4273 6.26172ZM16.2168 6.26172L16.332 6.46183H16.5571L16.442 6.66163L16.5578 6.85657H16.332L16.2168 7.05668L16.1016 6.85657H15.8706L15.9863 6.66163L15.8713 6.46183H16.1016L16.2168 6.26172ZM12.1431 6.26172L12.2583 6.46183H12.4886L12.3736 6.66163L12.4893 6.85657H12.2583L12.1431 7.05668L12.0279 6.85657H11.7969L11.9126 6.66163L11.7976 6.46183H12.0279L12.1431 6.26172ZM13.7536 6.26172L13.8688 6.46183H14.0939L13.9789 6.66163L14.0946 6.85657H13.8688L13.7536 7.05668L13.6384 6.85657H13.4074L13.5231 6.66163L13.4081 6.46183H13.6384L13.7536 6.26172ZM13.7536 6.3672L13.6688 6.51446H13.4992L13.5841 6.66204L13.4999 6.80394H13.6688L13.7536 6.9512L13.8384 6.80394H14.0021L13.9179 6.66204L14.0029 6.51446H13.8384L13.7536 6.3672ZM12.1431 6.3672L12.0583 6.51446H11.8886L11.9736 6.66204L11.8893 6.80394H12.0583L12.1431 6.9512L12.2279 6.80394H12.3969L12.3126 6.66204L12.3976 6.51446H12.2279L12.1431 6.3672ZM12.9484 6.3672L12.8636 6.51446H12.6939L12.7789 6.66204L12.6946 6.80394H12.8636L12.9484 6.9512L13.0332 6.80394H13.1969L13.1126 6.66204L13.1976 6.51446H13.0332L12.9484 6.3672ZM14.5852 6.3672L14.5004 6.51446H14.3348L14.4153 6.66203L14.3355 6.80394H14.5004L14.5852 6.9512L14.67 6.80394H14.839L14.7547 6.66204L14.8397 6.51446H14.67L14.5852 6.3672ZM15.4273 6.3672L15.3425 6.51446H15.1769L15.2574 6.66203L15.1776 6.80394H15.3425L15.4273 6.9512L15.5121 6.80394H15.6811L15.5968 6.66204L15.6818 6.51446H15.5121L15.4273 6.3672ZM16.2168 6.3672L16.132 6.51446H15.9623L16.0473 6.66204L15.963 6.80394H16.132L16.2168 6.9512L16.3016 6.80394H16.4653L16.381 6.66204L16.466 6.51446H16.3016L16.2168 6.3672Z" fill="black"/>
</g>
<rect x="0.5" y="0.5" width="26" height="17" rx="0.5" stroke="black" stroke-opacity="0.2"/>
<defs>
<clipPath id="clip0_109_43766">
<rect width="27" height="18" rx="1" fill="white"/>
</clipPath>
</defs>
</svg>
