<svg width="27" height="18" viewBox="0 0 27 18" fill="none" xmlns="http://www.w3.org/2000/svg">
<g clip-path="url(#clip0_109_43729)">
<path d="M0 0H27V18H0V0Z" fill="#D80027"/>
<path d="M0 0H27V9H0V0Z" fill="#0052B4"/>
<path d="M7.85757 5.16386C7.85757 4.42702 7.26283 3.83228 6.52599 3.83228C6.18388 3.83228 5.87336 3.95859 5.63651 4.16912V3.39017H6.07862V2.5007H5.63651V2.05859H4.7523V2.5007H4.3102V3.39017H4.7523V4.17438C4.51546 3.96386 4.20493 3.83754 3.86283 3.83754C3.12599 3.83754 2.53125 4.43228 2.53125 5.16912C2.53125 5.56386 2.70493 5.91649 2.97336 6.15859V6.9428H7.4102V6.15859C7.68914 5.91123 7.85757 5.55333 7.85757 5.16386Z" fill="#FFDA44"/>
</g>
<rect x="0.5" y="0.5" width="26" height="17" rx="0.5" stroke="black" stroke-opacity="0.2"/>
<defs>
<clipPath id="clip0_109_43729">
<rect width="27" height="18" rx="1" fill="white"/>
</clipPath>
</defs>
</svg>
