<svg width="136" height="136" viewBox="0 0 136 136" fill="none" xmlns="http://www.w3.org/2000/svg">
<path d="M116.021 125.148C116.021 128.932 95.4214 132 70.0105 132C44.5996 132 24 128.932 24 125.148C24 121.363 44.5996 118.295 70.0105 118.295C95.4214 118.295 116.021 121.363 116.021 125.148Z" fill="#F1F1F1"/>
<path d="M32.4844 20.4C32.4844 13.5517 38.036 8 44.8844 8H94.4844C101.333 8 106.884 13.5517 106.884 20.4V123.924C106.884 124.78 106.19 125.474 105.334 125.474H34.0344C33.1783 125.474 32.4844 124.78 32.4844 123.924V20.4Z" fill="#D8D8D8"/>
<path fill-rule="evenodd" clip-rule="evenodd" d="M69.6839 54.9902C70.0443 54.9902 70.3365 55.2824 70.3365 55.6429V71.306C70.3365 71.6665 70.0443 71.9587 69.6839 71.9587C69.3234 71.9587 69.0312 71.6665 69.0312 71.306V55.6429C69.0312 55.2824 69.3234 54.9902 69.6839 54.9902Z" fill="#A0A09F"/>
<path fill-rule="evenodd" clip-rule="evenodd" d="M72.9456 56.9473C73.306 56.9473 73.5982 57.2395 73.5982 57.5999V69.3473C73.5982 69.7077 73.306 69.9999 72.9456 69.9999C72.5852 69.9999 72.293 69.7077 72.293 69.3473V57.5999C72.293 57.2395 72.5852 56.9473 72.9456 56.9473Z" fill="#A0A09F"/>
<path fill-rule="evenodd" clip-rule="evenodd" d="M66.4183 56.9473C66.7787 56.9473 67.0709 57.2395 67.0709 57.5999V69.3473C67.0709 69.7077 66.7787 69.9999 66.4183 69.9999C66.0578 69.9999 65.7656 69.7077 65.7656 69.3473V57.5999C65.7656 57.2395 66.0578 56.9473 66.4183 56.9473Z" fill="#A0A09F"/>
<path fill-rule="evenodd" clip-rule="evenodd" d="M63.1565 60.2109C63.517 60.2109 63.8092 60.5031 63.8092 60.8636V66.0846C63.8092 66.4451 63.517 66.7373 63.1565 66.7373C62.7961 66.7373 62.5039 66.4451 62.5039 66.0846V60.8636C62.5039 60.5031 62.7961 60.2109 63.1565 60.2109Z" fill="#A0A09F"/>
<path fill-rule="evenodd" clip-rule="evenodd" d="M76.2073 60.2109C76.5678 60.2109 76.86 60.5031 76.86 60.8636V66.0846C76.86 66.4451 76.5678 66.7373 76.2073 66.7373C75.8469 66.7373 75.5547 66.4451 75.5547 66.0846V60.8636C75.5547 60.5031 75.8469 60.2109 76.2073 60.2109Z" fill="#A0A09F"/>
<path d="M45.5391 21.0527H95.1391V47.158H45.5391V21.0527Z" fill="white"/>
<path fill-rule="evenodd" clip-rule="evenodd" d="M42.2734 21.0522C42.2734 19.25 43.7344 17.7891 45.5366 17.7891H95.1366C96.9388 17.7891 98.3998 19.25 98.3998 21.0522V47.1575C98.3998 48.9597 96.9388 50.4206 95.1366 50.4206H45.5366C43.7344 50.4206 42.2734 48.9597 42.2734 47.1575V21.0522ZM45.5366 21.0522V47.1575H95.1366V21.0522H45.5366Z" fill="#292929"/>
<path fill-rule="evenodd" clip-rule="evenodd" d="M72.5376 29.1551C73.6637 29.1551 74.5763 34.0389 74.5763 40.0638H76.2089C76.2089 33.5762 74.5644 28.3164 72.5376 28.3164C71.3847 28.3164 70.3549 29.8967 69.6826 32.3687C69.0093 29.8967 67.9805 28.3164 66.8276 28.3164C64.7997 28.3164 63.1562 33.5762 63.1562 40.0638H64.7878C64.7878 34.0389 65.7014 29.1551 66.8276 29.1551C67.9537 29.1551 68.8673 33.664 68.8673 39.2241H70.4989C70.4989 33.664 71.4115 29.1551 72.5376 29.1551Z" fill="#FFBC0D"/>
</svg>
