<svg width="136" height="136" viewBox="0 0 136 136" fill="none" xmlns="http://www.w3.org/2000/svg">
<path d="M129.754 92.6578C129.754 95.4816 104.737 97.7708 73.8769 97.7708C43.0169 97.7708 18 95.4816 18 92.6578C18 89.8341 43.0169 87.5449 73.8769 87.5449C104.737 87.5449 129.754 89.8341 129.754 92.6578Z" fill="#A0A09F" fill-opacity="0.15"/>
<path d="M118.596 49.7949V60.3614H98.2461L98.2481 49.7949H118.596Z" fill="#FFBC0D"/>
<path d="M69.6478 58.796H25.0625V49.7949H69.6766L69.6478 58.796Z" fill="#FFBC0D"/>
<path d="M69.6766 50.5781L69.6649 54.1003H25.0625V50.5781H69.6766Z" fill="#292929" fill-opacity="0.15"/>
<path d="M118.596 50.5781V54.1003H98.2461L98.2469 50.5781H118.596Z" fill="#292929" fill-opacity="0.15"/>
<path d="M98.2461 60.3613H107.247V91.2781H98.2461V60.3613Z" fill="#F9F9F9"/>
<path d="M107.641 60.3613H118.598V91.2781H107.641V60.3613Z" fill="#F9F9F9"/>
<path d="M69.6803 46.6641L69.6673 50.5772L23.814 50.5776C23.4248 50.5776 23.1094 50.2622 23.1094 49.8732V47.3688C23.1094 46.9798 23.4248 46.6645 23.814 46.6645L69.6803 46.6641Z" fill="#FFBC0D"/>
<path d="M119.462 46.6645C119.849 46.6645 120.162 46.9798 120.162 47.3688V49.8732C120.162 50.2622 119.849 50.5776 119.462 50.5776L98.2461 50.5772L98.2469 46.6641L119.462 46.6645Z" fill="#FFBC0D"/>
<path d="M96.88 41L96.8693 91.279H71.0777L71.0508 41L96.88 41Z" fill="#F1F1F1"/>
<path d="M18.3333 60.3613H90.5938C90.9828 60.3613 91.2982 60.6767 91.2982 61.0658V66.623H17.6289V61.0658C17.6289 60.6767 17.9443 60.3613 18.3333 60.3613Z" fill="#606060"/>
<path d="M71.2422 66.623H91.2011V91.2782H71.2422V66.623Z" fill="#D8D8D8"/>
<path d="M37.5859 66.623H48.5438V91.2782H37.5859V66.623Z" fill="#F9F9F9"/>
<path d="M48.9375 66.623H59.8954V91.2782H48.9375V66.623Z" fill="#F9F9F9"/>
<path d="M60.2852 66.623H71.243V91.2782H60.2852V66.623Z" fill="#F9F9F9"/>
<path d="M80.2461 72.1035H91.2039V91.2798H80.2461V72.1035Z" fill="#F9F9F9"/>
<path d="M48.1523 66.623H49.7178V91.2782H48.1523V66.623Z" fill="#D8D8D8"/>
<path d="M106.855 60.3613H108.421V91.2781H106.855V60.3613Z" fill="#D8D8D8"/>
<path d="M117.031 60.3613H118.597V91.2781H117.031V60.3613Z" fill="#D8D8D8"/>
<path d="M59.5039 66.623H61.0693V91.2782H59.5039V66.623Z" fill="#D8D8D8"/>
<path d="M80.2461 72.1035H91.2039V74.4516H80.2461V72.1035Z" fill="#A0A09F" fill-opacity="0.15"/>
<path d="M71.2422 66.623H91.2011V67.7971H71.2422V66.623Z" fill="#292929" fill-opacity="0.15"/>
<path d="M59.5039 66.623H61.0693V68.9712H59.5039V66.623Z" fill="#292929" fill-opacity="0.15"/>
<path d="M48.1523 66.623H49.7178V68.9712H48.1523V66.623Z" fill="#292929" fill-opacity="0.15"/>
<path d="M37.5859 66.623H48.1524V68.5798H37.5859V66.623Z" fill="#A0A09F" fill-opacity="0.15"/>
<path d="M49.7188 66.623H59.5025V68.5798H49.7188V66.623Z" fill="#A0A09F" fill-opacity="0.15"/>
<path d="M61.0703 66.623H71.2455V68.5798H61.0703V66.623Z" fill="#A0A09F" fill-opacity="0.15"/>
<path fill-rule="evenodd" clip-rule="evenodd" d="M87.2983 45.8027C88.5196 45.8027 89.5092 50.9517 89.5092 57.3029H91.2792C91.2792 50.4626 89.4967 44.918 87.2983 44.918C86.0475 44.918 84.9316 46.5847 84.2021 49.1904C83.4726 46.5847 82.3567 44.918 81.1059 44.918C78.9081 44.918 77.125 50.4626 77.125 57.3029H78.895C78.895 50.9517 79.8851 45.8027 81.1059 45.8027C82.3272 45.8027 83.3174 50.5555 83.3174 56.4181H85.0868C85.0868 50.5555 86.077 45.8027 87.2983 45.8027Z" fill="#FFBC0D"/>
<path d="M31.4068 92.8054L31.7671 92.8032C34.5852 92.7677 36.8137 92.2719 36.8137 89.4068C36.8137 86.4207 34.393 84 31.4068 84C28.4207 84 26 86.4207 26 89.4068C26 92.393 28.4207 92.8054 31.4068 92.8054Z" fill="#9CC93A"/>
<path d="M33.6021 92.2566L33.9624 92.2544C36.7806 92.2189 39.009 91.7231 39.009 88.858C39.009 85.8719 36.5883 83.4512 33.6021 83.4512C30.616 83.4512 28.1953 85.8719 28.1953 88.858C28.1953 91.8441 30.616 92.2566 33.6021 92.2566Z" fill="#9CC93A"/>
<path d="M45.3443 92.2566L45.7046 92.2544C48.5227 92.2189 50.7512 91.7231 50.7512 88.858C50.7512 85.8719 48.3305 83.4512 45.3443 83.4512C42.3582 83.4512 39.9375 85.8719 39.9375 88.858C39.9375 91.8441 42.3582 92.2566 45.3443 92.2566Z" fill="#9CC93A"/>
<path d="M56 107.5C56 108.881 48.6127 110 39.5 110C30.3873 110 23 108.881 23 107.5C23 106.119 30.3873 105 39.5 105C48.6127 105 56 106.119 56 107.5Z" fill="#A0A09F" fill-opacity="0.15"/>
<path fill-rule="evenodd" clip-rule="evenodd" d="M39.3739 105.757C39.7364 106.068 40.2636 106.068 40.6261 105.757C44.4965 102.43 65 83.8561 65 63.7776C65 48.4716 53.8071 37 40 37C26.1929 37 15 48.4716 15 63.7776C15 83.8561 35.5035 102.43 39.3739 105.757Z" fill="#606060"/>
<path fill-rule="evenodd" clip-rule="evenodd" d="M14 63.7776C14 47.9721 25.5892 36 40 36C54.4108 36 66 47.9721 66 63.7776C66 74.1369 60.7233 84.0135 55.0678 91.6443C49.3962 99.2969 43.2415 104.827 41.278 106.515C40.5407 107.149 39.4593 107.149 38.722 106.515C36.7585 104.827 30.6038 99.2969 24.9322 91.6443C19.2768 84.0135 14 74.1369 14 63.7776ZM40 38C26.7965 38 16 48.9711 16 63.7776C16 73.4968 20.975 82.9461 26.539 90.4534C32.0619 97.9055 38.0651 103.311 40 104.976C41.9349 103.311 47.9381 97.9055 53.461 90.4534C59.025 82.9461 64 73.4967 64 63.7776C64 48.9711 53.2035 38 40 38Z" fill="white"/>
<path d="M47.5833 62.0186C47.5833 66.2703 44.1508 69.7169 39.9167 69.7169C35.6825 69.7169 32.25 66.2703 32.25 62.0186C32.25 57.767 35.6825 54.3203 39.9167 54.3203C44.1508 54.3203 47.5833 57.767 47.5833 62.0186Z" fill="white"/>
<path fill-rule="evenodd" clip-rule="evenodd" d="M54.0933 91.279C48.5313 98.7288 42.5416 104.11 40.6261 105.757C40.2636 106.068 39.7364 106.068 39.3739 105.757C35.5035 102.43 15 83.8561 15 63.7776C15 48.4716 26.1929 37 40 37C47.8256 37 54.8115 40.6852 59.3955 46.665L69.6794 46.6649L69.669 49.7957L69.6768 49.7957L69.6793 49.7957L69.6768 50.5784H69.6793L69.6676 54.1006H69.6655L69.6504 58.7968H64.592C64.6781 59.3126 64.751 59.8346 64.8103 60.3622H71.0601L71.0498 41H96.879L96.8683 91.279L54.0933 91.279ZM91.3459 93.279H55.0885C49.5828 100.474 43.8318 105.638 41.9298 107.273C40.8177 108.229 39.1823 108.229 38.0701 107.273C36.0783 105.561 29.8623 99.9759 24.1288 92.2397C18.4276 84.5473 13 74.457 13 63.7776C13 47.4726 24.9856 35 40 35C48.1288 35 55.4152 38.6766 60.3596 44.6649L69.0517 44.6649L69.0487 39H98.8794L98.8782 44.6649L119.464 44.6653C120.968 44.6653 122.164 45.8889 122.164 47.3696V49.874C122.164 50.9546 121.527 51.8982 120.598 52.3294V58.2553L120.598 93.279L91.3459 93.279ZM118.598 91.279V60.3622L118.598 50.5784L119.464 50.5784C119.85 50.5784 120.164 50.263 120.164 49.874V47.3696C120.164 46.9806 119.85 46.6653 119.464 46.6653L98.2488 46.6649L98.248 50.578V54.1006H98.2492L98.248 91.279H118.598Z" fill="white"/>
</svg>
