<svg width="72" height="72" viewBox="0 0 72 72" fill="none" xmlns="http://www.w3.org/2000/svg">
<path d="M70.1748 55.7758C70.1748 57.5569 54.6895 59.0008 35.5874 59.0008C16.4853 59.0008 1 57.5569 1 55.7758C1 53.9947 16.4853 52.5508 35.5874 52.5508C54.6895 52.5508 70.1748 53.9947 70.1748 55.7758Z" fill="#A0A09F" fill-opacity="0.15"/>
<path d="M63.655 44.6203H51.4405C49.8297 44.6203 48.2758 43.2755 49.2053 41.9599C49.5839 41.424 50.1959 40.9591 51.1758 40.7444C54.2825 40.0639 61.9752 40.7444 61.9752 40.7444L63.8837 23.8443C63.9547 23.2157 64.5558 22.7878 65.173 22.9266C66.6876 23.2671 67.7041 24.6919 67.5331 26.2349L65.6988 42.7905C65.5834 43.8321 64.703 44.6203 63.655 44.6203Z" fill="#292929"/>
<path d="M65.5559 54.7692C65.4671 54.0295 64.1357 44.6504 64.1357 44.6504H60.8811C60.8811 44.6504 63.3072 53.9704 63.5735 54.7692C63.8398 55.5681 64.1949 55.7752 64.6979 55.7752C65.2009 55.7752 65.6446 55.5089 65.5559 54.7692Z" fill="#6F6F6F"/>
<path d="M49.5309 54.7692C49.6197 54.0295 50.9511 44.6504 50.9511 44.6504H54.2057C54.2057 44.6504 51.7796 53.9704 51.5133 54.7692C51.247 55.5681 50.8919 55.7752 50.3889 55.7752C49.8859 55.7752 49.4422 55.5089 49.5309 54.7692Z" fill="#6F6F6F"/>
<path d="M64.4058 46.5735C64.2449 45.4374 64.1332 44.6504 64.1332 44.6504H60.8786C60.8786 44.6504 61.0834 45.4374 61.3806 46.5735H64.4058Z" fill="#292929"/>
<path d="M50.6758 46.5735C50.8367 45.4374 50.9484 44.6504 50.9484 44.6504H54.203C54.203 44.6504 53.9981 45.4374 53.7009 46.5735H50.6758Z" fill="#292929"/>
<path d="M7.54922 44.6203H19.7638C21.3746 44.6203 22.9284 43.2755 21.9989 41.9599C21.6203 41.424 21.0083 40.9591 20.0284 40.7444C16.9217 40.0639 9.22904 40.7444 9.22904 40.7444L7.32052 23.8443C7.24953 23.2157 6.64846 22.7878 6.03121 22.9266C4.51657 23.2671 3.50011 24.6919 3.67107 26.2349L5.50542 42.7905C5.62083 43.8321 6.50119 44.6203 7.54922 44.6203Z" fill="#292929"/>
<path d="M5.6481 54.7692C5.73687 54.0295 7.06829 44.6504 7.06829 44.6504H10.3229C10.3229 44.6504 7.89674 53.9704 7.63045 54.7692C7.36415 55.5681 7.00906 55.7752 6.50609 55.7752C6.00313 55.7752 5.55934 55.5089 5.6481 54.7692Z" fill="#6F6F6F"/>
<path d="M21.6731 54.7692C21.5843 54.0295 20.2529 44.6504 20.2529 44.6504H16.9983C16.9983 44.6504 19.4244 53.9704 19.6907 54.7692C19.957 55.5681 20.3121 55.7752 20.8151 55.7752C21.318 55.7752 21.7618 55.5089 21.6731 54.7692Z" fill="#6F6F6F"/>
<path d="M6.79688 46.5735C6.95775 45.4374 7.06948 44.6504 7.06948 44.6504H10.3241C10.3241 44.6504 10.1192 45.4374 9.82202 46.5735H6.79688Z" fill="#292929"/>
<path d="M20.5266 46.5735C20.3657 45.4374 20.254 44.6504 20.254 44.6504H16.9994C16.9994 44.6504 17.2042 45.4374 17.5014 46.5735H20.5266Z" fill="#292929"/>
<path d="M44.4296 15.1055C45.4989 15.1055 46.1816 15.8846 46.7512 17.7584L46.7645 17.8028L46.7725 17.8185L48.0068 20.4297C48.0324 20.4837 48.0433 20.5435 48.0386 20.603C47.9364 21.8967 47.7869 23.1988 47.5902 24.5093C47.3934 25.8196 47.152 27.1215 46.8659 28.4148C46.8321 28.5672 46.6998 28.6771 46.5446 28.6841L46.529 28.6844H37.8662C37.7041 28.6844 37.5639 28.5721 37.5292 28.4145C37.2406 27.1044 36.9992 25.8026 36.805 24.5093C36.6108 23.2158 36.4613 21.9138 36.3566 20.6033C36.3523 20.5503 36.3605 20.4971 36.3803 20.4479L36.3883 20.4297L37.6261 17.8114L37.6306 17.8026L37.6455 17.7533C38.2033 15.9208 38.9553 15.1519 39.9952 15.1069L40.0268 15.1058L40.0595 15.1055C40.9135 15.1055 41.6596 15.4298 42.216 16.6105L42.2445 16.6719L42.2558 16.6474C42.8016 15.4714 43.5328 15.1378 44.3713 15.1066L44.3981 15.1058L44.4296 15.1055Z" fill="white"/>
<path fill-rule="evenodd" clip-rule="evenodd" d="M37.9574 18.213H45.06L45.0458 18.1471C44.8474 17.2442 44.5893 16.6975 44.3068 16.6975C44.0121 16.6975 43.7438 17.2476 43.5422 18.1474L43.5278 18.213H40.8789L40.8647 18.1471C40.6663 17.2442 40.4081 16.6975 40.1258 16.6975C39.8274 16.6975 39.5563 17.2609 39.354 18.18L39.3468 18.213H37.9646C38.4572 16.5238 39.2321 15.4336 40.104 15.4336C40.9507 15.4336 41.7061 16.3871 42.1999 17.8781C42.694 16.3871 43.4492 15.4336 44.2959 15.4336C45.1591 15.4336 45.9272 16.5021 46.4203 18.1625L46.4352 18.213H46.4424L47.6264 20.7277C47.5289 21.9659 47.3864 23.2122 47.1988 24.4667C47.0113 25.7212 46.781 26.9675 46.5082 28.2057H37.8916C37.6163 26.9512 37.3861 25.7048 37.201 24.4667C37.0158 23.2285 36.8733 21.9822 36.7734 20.7277L37.9574 18.213Z" fill="white"/>
<path fill-rule="evenodd" clip-rule="evenodd" d="M37.9574 18.2129H46.4424L47.6264 20.7276C47.6264 20.7276 47.4802 22.5848 47.1988 24.4666C46.9175 26.3483 46.5082 28.2055 46.5082 28.2055H37.8916C37.8916 28.2055 37.4787 26.3238 37.201 24.4666C36.9233 22.6093 36.7734 20.7276 36.7734 20.7276L37.9574 18.2129Z" fill="#DB0007"/>
<path fill-rule="evenodd" clip-rule="evenodd" d="M42.2008 25.2945C40.6066 25.2945 39.2524 24.1413 38.7641 22.5377L38.3593 22.7228L38.1641 22.2964L39.2774 21.7871L39.4726 22.2136L39.1304 22.3701C39.4664 23.5733 40.7135 24.4667 42.2008 24.4667C43.6881 24.4667 44.9352 23.5733 45.2712 22.3701L44.929 22.2136L45.1242 21.7871L46.2376 22.2964L46.0423 22.7228L45.6375 22.5377C45.1492 24.1413 43.795 25.2945 42.2008 25.2945Z" fill="#FFBC0D"/>
<path fill-rule="evenodd" clip-rule="evenodd" d="M39.347 18.213C39.55 17.2744 39.8241 16.6975 40.126 16.6975C40.4152 16.6975 40.6789 17.2709 40.8792 18.213H43.528C43.7311 17.2744 44.0052 16.6975 44.3071 16.6975C44.5963 16.6975 44.86 17.2709 45.0602 18.213H46.4354C45.9429 16.5238 45.1681 15.4336 44.2962 15.4336C43.4495 15.4336 42.6942 16.3871 42.2001 17.8781C41.7063 16.3871 40.951 15.4336 40.1043 15.4336C39.2323 15.4336 38.4574 16.5238 37.9648 18.213H39.347Z" fill="#FFBC0D"/>
<path fill-rule="evenodd" clip-rule="evenodd" d="M39.347 18.213C39.55 17.2744 39.8241 16.6975 40.126 16.6975C40.4152 16.6975 40.6789 17.2709 40.8792 18.213H43.528C43.7311 17.2744 44.0052 16.6975 44.3071 16.6975C44.5963 16.6975 44.86 17.2709 45.0602 18.213H46.4354C45.9429 16.5238 45.1681 15.4336 44.2962 15.4336C43.4495 15.4336 42.6942 16.3871 42.2001 17.8781C41.7063 16.3871 40.951 15.4336 40.1043 15.4336C39.2323 15.4336 38.4574 16.5238 37.9648 18.213H39.347Z" fill="#FFBC0D"/>
<path fill-rule="evenodd" clip-rule="evenodd" d="M43.3792 17.9389C43.591 16.9933 43.8893 16.4922 44.3052 16.4922C44.7105 16.4922 44.9971 16.99 45.2059 17.9399L45.2634 18.2062H43.3203L43.3792 17.9389ZM44.8361 17.8123C44.6711 17.1555 44.4751 16.8331 44.3129 16.8232L44.3052 16.823C44.126 16.823 43.9147 17.1561 43.7419 17.8431L43.7339 17.8752H44.8515L44.8361 17.8123Z" fill="white"/>
<path fill-rule="evenodd" clip-rule="evenodd" d="M39.1917 17.9722C39.4044 17.0058 39.7051 16.4922 40.1251 16.4922C40.5205 16.4922 40.8031 16.9664 41.0105 17.872L41.0257 17.9399L41.0833 18.2062H39.1406L39.1917 17.9722ZM40.6558 17.8123C40.4908 17.1555 40.2949 16.8331 40.1327 16.8232L40.125 16.823C39.946 16.823 39.7346 17.1581 39.5617 17.844L39.5539 17.8752H40.6713L40.6558 17.8123Z" fill="white"/>
<path d="M30.6127 28.1715L31.7227 18.6309H24.6927L25.926 28.1715H30.6127Z" fill="#F9F9F9"/>
<path d="M25.9237 28.1715H26.8003L26.3281 19.7815L31.6172 18.9032L27.201 18.6309H24.6904L25.9237 28.1715Z" fill="#EBEBEB"/>
<path fill-rule="evenodd" clip-rule="evenodd" d="M30.697 27.43L31.3711 21.6362C31.2045 22.0228 31.0554 22.4898 30.9286 23.0208C30.5497 21.4307 29.9691 20.4141 29.3187 20.4141C28.176 20.4141 27.2496 23.7965 27.2496 27.9698H28.1693C28.1693 24.0945 28.6844 20.9539 29.3187 20.9539C29.9544 20.9539 30.4687 23.8536 30.4687 27.43H30.697Z" fill="#FFBC0D"/>
<path fill-rule="evenodd" clip-rule="evenodd" d="M27.4396 11.0668L27.9863 17.8837L28.457 17.8459L27.9103 11.029L27.4396 11.0668Z" fill="#D6D6D6"/>
<path d="M30.582 17.0671C30.582 16.8715 30.4235 16.7129 30.2279 16.7129H26.2139C26.0183 16.7129 25.8597 16.8715 25.8597 17.0671C25.8597 17.1323 25.9126 17.1851 25.9778 17.1851H30.464C30.5292 17.1851 30.582 17.1323 30.582 17.0671Z" fill="#EBEBEB"/>
<path fill-rule="evenodd" clip-rule="evenodd" d="M30.2304 16.5234H26.2164C25.9165 16.5234 25.6733 16.7666 25.6733 17.0665C25.6733 17.236 25.8107 17.3735 25.9803 17.3735H30.4665C30.636 17.3735 30.7734 17.236 30.7734 17.0665C30.7734 16.7666 30.5303 16.5234 30.2304 16.5234ZM30.2304 16.7123C30.426 16.7123 30.5845 16.8709 30.5845 17.0665C30.5845 17.1317 30.5317 17.1846 30.4665 17.1846H25.9803C25.9151 17.1846 25.8622 17.1317 25.8622 17.0665C25.8622 16.8709 26.0208 16.7123 26.2164 16.7123H30.2304Z" fill="white"/>
<path d="M31.9961 18.5259C31.9961 17.9 31.4887 17.3926 30.8627 17.3926H25.5737C24.9478 17.3926 24.4404 17.9 24.4404 18.5259C24.4404 18.7346 24.6095 18.9037 24.8182 18.9037H31.6183C31.827 18.9037 31.9961 18.7346 31.9961 18.5259Z" fill="#EBEBEB"/>
<path fill-rule="evenodd" clip-rule="evenodd" d="M30.8652 17.2031H25.5762C24.846 17.2031 24.254 17.7951 24.254 18.5254C24.254 18.8383 24.5077 19.0921 24.8207 19.0921H31.6208C31.9338 19.0921 32.1875 18.8383 32.1875 18.5254C32.1875 17.7951 31.5955 17.2031 30.8652 17.2031ZM30.8652 17.392C31.4912 17.392 31.9986 17.8994 31.9986 18.5254C31.9986 18.734 31.8295 18.9032 31.6208 18.9032H24.8207C24.612 18.9032 24.4429 18.734 24.4429 18.5254C24.4429 17.8994 24.9503 17.392 25.5762 17.392H30.8652Z" fill="white"/>
<path fill-rule="evenodd" clip-rule="evenodd" d="M39.4054 25.3168C39.4494 25.2528 39.5221 25.2145 39.5999 25.2145H40.1237C40.2992 25.2145 40.4134 25.0298 40.3349 24.8728L38.2098 20.6227C38.1698 20.5427 38.0881 20.4922 37.9986 20.4922H29.1651C29.0734 20.4922 28.9899 20.5453 28.9511 20.6285L26.9677 24.8785C26.8947 25.0351 27.009 25.2145 27.1817 25.2145H27.7063C27.7867 25.2145 27.8615 25.2554 27.9049 25.323L29.5855 27.9394C29.629 28.007 29.7038 28.0479 29.7842 28.0479H37.4016C37.4793 28.0479 37.5521 28.0097 37.5961 27.9457L39.4054 25.3168Z" fill="#BC9564"/>
<path fill-rule="evenodd" clip-rule="evenodd" d="M40.1218 25.4504H39.598L37.7888 28.0793C37.7006 28.2073 37.5552 28.2838 37.3997 28.2838H29.7823C29.6216 28.2838 29.4718 28.202 29.385 28.0668L27.7044 25.4504H27.1798C26.8343 25.4504 26.6058 25.0916 26.7519 24.7785L28.7353 20.5284C28.8129 20.3621 28.9797 20.2559 29.1632 20.2559H37.9967C38.1756 20.2559 38.3391 20.3569 38.4191 20.5169L40.5442 24.767C40.7012 25.081 40.4728 25.4504 40.1218 25.4504ZM39.598 25.2143C39.5203 25.2143 39.4475 25.2525 39.4035 25.3166L37.5943 27.9454C37.5502 28.0095 37.4775 28.0477 37.3997 28.0477H29.7823C29.7019 28.0477 29.6271 28.0068 29.5836 27.9392L27.9031 25.3228C27.8596 25.2552 27.7848 25.2143 27.7044 25.2143H27.1798C27.0071 25.2143 26.8928 25.0349 26.9659 24.8783L28.9492 20.6282C28.988 20.5451 29.0715 20.492 29.1632 20.492H37.9967C38.0862 20.492 38.1679 20.5425 38.2079 20.6225L40.333 24.8726C40.4115 25.0296 40.2973 25.2143 40.1218 25.2143H39.598Z" fill="white"/>
<path fill-rule="evenodd" clip-rule="evenodd" d="M36.3867 21.65C36.6864 21.65 36.9292 22.8876 36.9292 24.4143H37.3636C37.3636 22.7703 36.926 21.4375 36.3867 21.4375C36.08 21.4375 35.806 21.8379 35.6271 22.4644C35.448 21.8379 35.1742 21.4375 34.8675 21.4375C34.3279 21.4375 33.8906 22.7703 33.8906 24.4143H34.3247C34.3247 22.8876 34.5678 21.65 34.8675 21.65C35.1671 21.65 35.4102 22.7926 35.4102 24.2015H35.8443C35.8443 22.7926 36.0871 21.65 36.3867 21.65Z" fill="#FFBC0D"/>
<path d="M27.8711 25.2148H39.4852L38.8547 26.0599H28.3897L27.8711 25.2148Z" fill="#A5835B"/>
<path fill-rule="evenodd" clip-rule="evenodd" d="M49.6188 27.1978C49.8177 27.3475 49.8445 27.6146 49.6788 27.7943L48.3666 29.2173H22.8797L21.3365 27.8226C21.1535 27.6572 21.1535 27.3891 21.3365 27.2237C21.5195 27.0583 21.8162 27.0583 21.9993 27.2237L23.268 28.3702H47.9276L48.9587 27.252C49.1245 27.0723 49.42 27.048 49.6188 27.1978Z" fill="#DB0007"/>
<path fill-rule="evenodd" clip-rule="evenodd" d="M48.5145 29.3536C48.4766 29.3947 48.4233 29.418 48.3674 29.418H22.8805C22.831 29.418 22.7832 29.3996 22.7464 29.3664L21.2032 27.9718C20.9323 27.727 20.9323 27.3209 21.2032 27.0761C21.4623 26.8418 21.875 26.8418 22.1341 27.0761L23.3457 28.171H47.8408L48.8125 27.1172C49.0499 26.8598 49.4614 26.829 49.7399 27.0388C50.0301 27.2573 50.0752 27.661 49.8266 27.9306L48.5145 29.3536ZM47.9284 28.371H23.2688L22.0001 27.2244C21.817 27.059 21.5203 27.059 21.3373 27.2244C21.1542 27.3898 21.1542 27.658 21.3373 27.8234L22.8805 29.218H48.3674L49.6796 27.7951C49.8453 27.6154 49.8184 27.3483 49.6196 27.1986C49.4208 27.0488 49.1252 27.0731 48.9595 27.2528L47.9284 28.371Z" fill="white"/>
<path d="M14.0742 30.9149C14.0742 30.347 14.5345 29.8867 15.1024 29.8867H56.3025C56.8704 29.8867 57.3307 30.347 57.3307 30.9149V34.2434C57.3307 34.8113 56.8704 35.2716 56.3025 35.2716H15.1024C14.5345 35.2716 14.0742 34.8113 14.0742 34.2434V30.9149Z" fill="#FFBC0D"/>
<path d="M36.9185 36.1582H34.0781V55.5082C34.0782 55.7696 34.714 55.9816 35.4983 55.9816C36.2827 55.9816 36.9185 55.7696 36.9185 55.5082L36.9185 55.5067V36.1582Z" fill="#6F6F6F"/>
</svg>
