<svg width="375" height="225" viewBox="0 0 375 225" fill="none" xmlns="http://www.w3.org/2000/svg">
<path d="M153.652 65.5205C166.794 48.7539 185.78 35.6432 211.217 38.3564C241.863 41.6254 264.869 56.6095 277.676 77.6416C290.467 98.6477 292.863 125.328 283.021 151.575L282.41 153.202L280.79 153.833C268.981 158.425 259.329 156.875 250.251 152.467C249.452 152.079 248.657 151.668 247.866 151.239C237.129 165.067 225.519 170.382 213.279 170.441C200.948 170.501 188.265 165.213 175.638 158.801C171.599 156.75 167.571 154.588 163.544 152.426C157.655 149.265 151.765 146.106 145.844 143.293C143.995 145.745 141.498 148.479 138.599 151.132C132.352 156.847 123.929 162.482 115.771 163.946C107.793 165.378 100.391 164.358 94.7666 162.031C89.2804 159.762 84.9851 156.007 84.1963 151.611C83.202 146.069 86.0617 140.705 90.792 136.541C92.682 134.877 94.911 133.364 97.4062 132.055C97.5811 131.852 97.7996 131.682 98.0566 131.562L129.822 116.787C132.971 102.724 140.641 82.1208 153.652 65.5205ZM266.652 152.722C266.839 152.723 267.027 152.724 267.215 152.722C267.027 152.724 266.839 152.723 266.652 152.722ZM265.863 152.705C266.034 152.711 266.206 152.717 266.378 152.72C266.206 152.717 266.034 152.711 265.863 152.705ZM267.479 152.717C267.646 152.713 267.814 152.708 267.982 152.702C267.814 152.708 267.646 152.713 267.479 152.717ZM264.826 152.651C265.072 152.669 265.318 152.683 265.565 152.694C265.318 152.683 265.072 152.669 264.826 152.651ZM268.333 152.688C268.508 152.68 268.683 152.669 268.859 152.657C268.683 152.669 268.508 152.68 268.333 152.688ZM269.126 152.641C269.393 152.621 269.661 152.597 269.93 152.569C269.661 152.597 269.393 152.621 269.126 152.641ZM264.011 152.582C264.192 152.6 264.374 152.615 264.556 152.63C264.374 152.615 264.192 152.6 264.011 152.582ZM263.239 152.495C263.42 152.518 263.601 152.538 263.782 152.558C263.601 152.538 263.42 152.518 263.239 152.495ZM270.196 152.539C270.386 152.518 270.576 152.496 270.767 152.472C270.576 152.496 270.386 152.518 270.196 152.539ZM262.46 152.387C262.621 152.411 262.782 152.435 262.943 152.457C262.782 152.435 262.621 152.411 262.46 152.387ZM271.099 152.426C271.264 152.403 271.431 152.379 271.598 152.353C271.431 152.379 271.264 152.403 271.099 152.426ZM261.67 152.256C261.841 152.286 262.011 152.317 262.183 152.345C262.011 152.317 261.841 152.286 261.67 152.256ZM271.973 152.292C272.135 152.265 272.298 152.235 272.462 152.205C272.298 152.235 272.135 152.265 271.973 152.292ZM260.655 152.059C260.9 152.111 261.145 152.16 261.391 152.206C261.145 152.16 260.9 152.111 260.655 152.059ZM272.806 152.142C273.001 152.104 273.196 152.063 273.393 152.021C273.196 152.063 273.001 152.104 272.806 152.142ZM259.896 151.886C260.117 151.939 260.34 151.99 260.562 152.038C260.34 151.99 260.117 151.939 259.896 151.886ZM273.666 151.963C273.953 151.899 274.241 151.833 274.53 151.761C274.241 151.833 273.953 151.899 273.666 151.963ZM259.144 151.696C259.32 151.743 259.497 151.787 259.674 151.831C259.497 151.787 259.32 151.743 259.144 151.696ZM274.692 151.719C274.915 151.662 275.139 151.604 275.363 151.543C275.139 151.604 274.915 151.662 274.692 151.719ZM258.368 151.48C258.539 151.53 258.711 151.579 258.883 151.626C258.711 151.579 258.539 151.53 258.368 151.48ZM275.74 151.437C275.938 151.38 276.136 151.323 276.335 151.263C276.136 151.323 275.938 151.38 275.74 151.437ZM257.607 151.25C257.785 151.306 257.963 151.361 258.142 151.414C257.963 151.361 257.785 151.306 257.607 151.25ZM276.59 151.185C276.8 151.119 277.012 151.052 277.224 150.982C277.012 151.052 276.8 151.119 276.59 151.185ZM256.813 150.989C256.999 151.052 257.184 151.115 257.369 151.175C257.184 151.115 256.999 151.052 256.813 150.989ZM277.544 150.876C277.733 150.812 277.923 150.746 278.114 150.679C277.923 150.746 277.733 150.812 277.544 150.876ZM255.885 150.66C256.084 150.734 256.284 150.805 256.483 150.875C256.284 150.805 256.084 150.734 255.885 150.66ZM255.202 150.399C255.375 150.467 255.548 150.533 255.721 150.598C255.548 150.533 255.375 150.467 255.202 150.399ZM278.493 150.544C278.788 150.437 279.084 150.327 279.382 150.211C279.084 150.327 278.788 150.437 278.493 150.544ZM254.427 150.087C254.576 150.149 254.726 150.21 254.876 150.271C254.726 150.21 254.576 150.149 254.427 150.087ZM253.649 149.755C253.828 149.833 254.006 149.91 254.185 149.985C254.006 149.91 253.828 149.833 253.649 149.755ZM252.033 149.012C252.504 149.239 252.976 149.458 253.449 149.668C252.976 149.458 252.504 149.239 252.033 149.012ZM251.296 148.647C251.416 148.708 251.535 148.767 251.655 148.826C251.535 148.767 251.416 148.708 251.296 148.647ZM250.556 148.268C250.708 148.347 250.861 148.426 251.014 148.504C250.861 148.426 250.708 148.347 250.556 148.268ZM249.675 147.799C249.867 147.903 250.059 148.007 250.251 148.108C250.059 148.007 249.867 147.903 249.675 147.799ZM248.128 146.932C248.62 147.217 249.113 147.492 249.605 147.761C249.113 147.492 248.62 147.217 248.128 146.932ZM134.484 114.043C134.393 114.394 134.305 114.742 134.219 115.086C134.305 114.742 134.393 114.394 134.484 114.043ZM134.583 113.662C134.569 113.715 134.556 113.768 134.542 113.82C134.644 113.431 134.75 113.039 134.858 112.643C134.765 112.985 134.672 113.325 134.583 113.662ZM136.063 108.505C136.101 108.385 136.136 108.264 136.174 108.144C136.136 108.264 136.101 108.385 136.063 108.505ZM137.142 105.172C137.055 105.428 136.971 105.683 136.887 105.938C136.971 105.683 137.055 105.428 137.142 105.172ZM138.222 102.096C138.125 102.362 138.029 102.628 137.935 102.894C138.029 102.628 138.125 102.362 138.222 102.096ZM138.777 100.593C138.679 100.853 138.584 101.113 138.488 101.372C138.584 101.113 138.679 100.853 138.777 100.593ZM139.409 98.9482C139.303 99.2205 139.199 99.4926 139.095 99.7637C139.199 99.4926 139.303 99.2205 139.409 98.9482ZM139.992 97.4824C139.89 97.7348 139.789 97.9868 139.689 98.2383C139.789 97.9868 139.89 97.7348 139.992 97.4824ZM140.669 95.8369C140.569 96.0748 140.471 96.3125 140.373 96.5498C140.471 96.3125 140.569 96.0748 140.669 95.8369ZM141.4 94.1211C141.254 94.4572 141.11 94.7928 140.968 95.1279C141.11 94.7928 141.254 94.4572 141.4 94.1211ZM142.063 92.6172C141.938 92.897 141.814 93.1768 141.691 93.4561C141.814 93.1768 141.938 92.897 142.063 92.6172ZM142.759 91.0928C142.655 91.3167 142.551 91.54 142.449 91.7637C142.551 91.54 142.655 91.3167 142.759 91.0928ZM143.52 89.4766C143.408 89.7105 143.296 89.944 143.186 90.1777C143.296 89.944 143.408 89.7105 143.52 89.4766ZM144.326 87.8203C144.204 88.0659 144.083 88.3111 143.963 88.5566C144.083 88.3111 144.204 88.0659 144.326 87.8203ZM145.15 86.1855C145.012 86.4545 144.875 86.7231 144.739 86.9922C144.875 86.7231 145.012 86.4545 145.15 86.1855ZM145.92 84.71C145.811 84.9156 145.701 85.1204 145.594 85.3262C145.701 85.1204 145.811 84.9156 145.92 84.71ZM146.831 83.0176C146.707 83.2432 146.583 83.4684 146.461 83.6943C146.583 83.4684 146.707 83.2432 146.831 83.0176ZM147.851 81.1963C147.67 81.5127 147.489 81.8283 147.312 82.1455C147.489 81.8283 147.67 81.5127 147.851 81.1963ZM152.172 74.1934C152.117 74.2748 152.064 74.3569 152.01 74.4385C152.064 74.3569 152.117 74.2748 152.172 74.1934ZM154.296 71.1328C154.186 71.2856 154.076 71.4385 153.967 71.5918C154.076 71.4385 154.186 71.2856 154.296 71.1328ZM154.891 70.3164C154.782 70.4635 154.675 70.6111 154.567 70.7588C154.675 70.6111 154.782 70.4635 154.891 70.3164ZM155.494 69.5049C155.358 69.6858 155.223 69.867 155.088 70.0488C155.223 69.867 155.358 69.6858 155.494 69.5049ZM156.895 67.6836C156.849 67.7415 156.803 67.7994 156.758 67.8574C156.94 67.6256 157.123 67.3951 157.308 67.165L156.895 67.6836ZM157.723 66.6514C157.596 66.8068 157.47 66.9619 157.345 67.1182C157.47 66.9619 157.596 66.8068 157.723 66.6514ZM158.373 65.8594C158.249 66.0082 158.126 66.157 158.003 66.3066C158.126 66.157 158.249 66.0083 158.373 65.8594ZM161.096 62.7275C160.726 63.1328 160.36 63.5426 159.998 63.9551C160.36 63.5426 160.726 63.1328 161.096 62.7275ZM161.679 62.0957C161.684 62.0896 161.691 62.0842 161.696 62.0781L162.265 61.4746C162.069 61.6808 161.873 61.8874 161.679 62.0957ZM163.629 60.0742C163.479 60.2242 163.33 60.3751 163.182 60.5264C163.33 60.3751 163.479 60.2242 163.629 60.0742ZM164.283 59.4277C164.16 59.5481 164.037 59.6688 163.915 59.79C164.037 59.6688 164.16 59.5481 164.283 59.4277ZM164.982 58.751C164.841 58.8857 164.701 59.0214 164.561 59.1572C164.701 59.0214 164.841 58.8857 164.982 58.751ZM165.661 58.1113C165.516 58.2469 165.371 58.3838 165.227 58.5205C165.371 58.3838 165.516 58.2469 165.661 58.1113ZM166.313 57.5107C166.191 57.6223 166.069 57.7352 165.947 57.8477C166.069 57.7352 166.191 57.6223 166.313 57.5107ZM167.003 56.8916C166.893 56.9893 166.783 57.0881 166.674 57.1865C166.783 57.0881 166.893 56.9893 167.003 56.8916ZM168.436 55.6553C168.308 55.7623 168.181 55.8696 168.055 55.9775C168.181 55.8696 168.308 55.7623 168.436 55.6553ZM169.136 55.0742C169.011 55.1764 168.887 55.2797 168.763 55.3828C168.887 55.2797 169.011 55.1764 169.136 55.0742ZM170.555 53.9443C170.428 54.0427 170.301 54.141 170.175 54.2402C170.301 54.141 170.428 54.0427 170.555 53.9443ZM172.302 52.6357C172.089 52.79 171.875 52.9447 171.664 53.1016C171.875 52.9447 172.089 52.79 172.302 52.6357ZM177.114 49.4775C176.943 49.5785 176.773 49.6815 176.604 49.7842C176.773 49.6815 176.943 49.5785 177.114 49.4775ZM177.892 49.0273C177.679 49.1487 177.467 49.2716 177.256 49.3955C177.467 49.2716 177.679 49.1487 177.892 49.0273ZM178.679 48.5869C178.526 48.671 178.374 48.7564 178.222 48.8418C178.374 48.7564 178.526 48.671 178.679 48.5869ZM179.497 48.1455C179.358 48.2191 179.219 48.2935 179.081 48.3682C179.219 48.2935 179.358 48.2191 179.497 48.1455ZM180.335 47.7119C180.183 47.789 180.032 47.8669 179.881 47.9453C180.032 47.8669 180.183 47.789 180.335 47.7119ZM181.198 47.2812C181.029 47.3638 180.86 47.4481 180.691 47.5322C180.86 47.4481 181.029 47.3638 181.198 47.2812ZM182.002 46.8984C181.838 46.9748 181.675 47.052 181.513 47.1299C181.675 47.052 181.838 46.9748 182.002 46.8984ZM182.908 46.4854C182.734 46.5631 182.559 46.6412 182.386 46.7207C182.559 46.6412 182.734 46.5631 182.908 46.4854ZM183.769 46.1123C183.577 46.1935 183.386 46.2751 183.196 46.3584C183.386 46.2751 183.577 46.1935 183.769 46.1123ZM184.592 45.7705C184.421 45.8398 184.25 45.9085 184.08 45.9795C184.25 45.9085 184.421 45.8398 184.592 45.7705ZM185.496 45.4131C185.32 45.481 185.143 45.5485 184.968 45.6182C185.143 45.5485 185.32 45.481 185.496 45.4131ZM186.343 45.0947C186.171 45.1575 186 45.2208 185.829 45.2852C186 45.2208 186.171 45.1575 186.343 45.0947ZM187.311 44.752C187.118 44.8181 186.926 44.8839 186.734 44.9521C186.926 44.8839 187.118 44.8181 187.311 44.752ZM188.106 44.4854C187.937 44.5405 187.768 44.5955 187.6 44.6523C187.768 44.5955 187.937 44.5405 188.106 44.4854ZM190.103 43.8779C189.872 43.9431 189.642 44.009 189.413 44.0771C189.642 44.009 189.872 43.9431 190.103 43.8779ZM194.081 42.918C193.895 42.9552 193.71 42.995 193.524 43.0342C193.71 42.995 193.895 42.9552 194.081 42.918ZM195.041 42.7354C194.845 42.7707 194.65 42.8082 194.455 42.8457C194.65 42.8082 194.845 42.7707 195.041 42.7354ZM196.03 42.5664C195.824 42.5996 195.619 42.6354 195.414 42.6709C195.619 42.6354 195.824 42.5996 196.03 42.5664ZM196.961 42.4258C196.755 42.4551 196.55 42.4859 196.346 42.5176C196.55 42.4859 196.755 42.4551 196.961 42.4258ZM197.889 42.3018C197.749 42.3192 197.61 42.338 197.471 42.3564C197.569 42.3434 197.667 42.3309 197.766 42.3184C197.807 42.3131 197.848 42.3069 197.889 42.3018ZM198.47 42.2334C198.491 42.231 198.513 42.228 198.534 42.2256C198.549 42.2239 198.565 42.2214 198.58 42.2197C198.543 42.2238 198.507 42.2292 198.47 42.2334ZM199.928 42.0879C199.755 42.1027 199.582 42.1183 199.41 42.1348C199.582 42.1183 199.755 42.1027 199.928 42.0879ZM200.909 42.0127C200.732 42.0246 200.556 42.0372 200.38 42.0508C200.556 42.0372 200.732 42.0246 200.909 42.0127ZM201.918 41.9541C201.753 41.9622 201.588 41.9709 201.423 41.9805C201.588 41.9709 201.753 41.9622 201.918 41.9541Z" fill="#6F6F6F"/>
<path d="M133.486 119.535C174.519 111.556 200.551 125.275 244.261 149.795C234.34 162.201 224.006 166.618 213.372 166.67C202.056 166.725 190.105 161.847 177.509 155.45C173.644 153.487 169.71 151.376 165.731 149.241C156.909 144.507 147.861 139.651 138.829 136.02C129.788 132.384 120.558 129.878 111.263 129.872L133.486 119.535ZM100.368 135.084C112.503 132.016 124.843 134.584 137.379 139.625C139.035 140.291 140.688 140.996 142.337 141.734C140.708 143.8 138.571 146.105 136.086 148.379C130.05 153.902 122.288 158.963 115.196 160.235C107.926 161.54 101.279 160.588 96.3633 158.555C91.309 156.464 88.5688 153.468 88.1328 151.04C87.4711 147.353 89.2941 143.251 93.4717 139.573C95.367 137.905 97.6968 136.377 100.368 135.084Z" fill="#292929"/>
<path d="M274.945 202.635C274.945 208.359 233.186 212.998 181.673 212.998C130.161 212.998 88.4023 208.359 88.4023 202.635C88.4023 196.911 130.161 192.271 181.673 192.271C233.186 192.271 274.945 196.911 274.945 202.635Z" fill="#A0A09F" fill-opacity="0.15"/>
<path d="M204.454 42C162.633 42.0002 140.603 88.759 134 115.431C134.001 115.431 134.002 115.431 134.002 115.431C134.002 115.431 134.003 115.43 134.002 115.431C142.237 113.922 149.902 113.274 157.232 113.391C157.546 113.396 157.859 113.402 158.171 113.41C159.859 113.452 161.53 113.535 163.187 113.658C163.209 113.657 163.231 113.656 163.253 113.655C190.893 115.647 214.333 128.196 247.586 146.865C247.59 146.853 247.594 146.841 247.597 146.829C257.236 152.482 266.778 155.163 279.222 150.323C298.118 99.9337 269.828 48.7577 210.848 42.3557C210.781 42.3483 210.714 42.341 210.647 42.3338C208.536 42.1087 206.472 41.9999 204.454 42Z" fill="#6F6F6F"/>
<path d="M247.857 146.865C212.217 126.857 187.85 113.877 157.503 113.391C150.173 113.274 142.508 113.922 134.273 115.431C141.195 87.4723 165.067 37.4431 210.918 42.3338C257.033 47.2528 256.863 116.837 247.857 146.865Z" fill="#292929"/>
<path fill-rule="evenodd" clip-rule="evenodd" d="M222.237 84.2068C224.828 85.1209 223.074 96.7892 218.319 110.27L222.077 111.595C227.197 97.0791 227.563 83.9756 222.899 82.3303C220.245 81.3944 216.628 84.0943 213.13 89.0796C213.532 83.002 212.411 78.631 209.758 77.6951C205.091 76.049 197.157 86.4833 192.037 100.999L195.792 102.324C200.547 88.8432 206.504 78.6574 209.096 79.5716C211.687 80.4857 210.231 91.3159 205.843 103.756L209.598 105.081C213.986 92.6404 219.645 83.2926 222.237 84.2068Z" fill="#FFBC0D"/>
<path fill-rule="evenodd" clip-rule="evenodd" d="M284.747 155.512L281.877 156.628C269.164 161.572 258.64 159.875 248.94 155.165C248.849 155.122 248.759 155.077 248.669 155.033C237.865 168.056 225.968 173.38 213.293 173.441C200.179 173.505 186.93 167.9 174.279 161.476C170.209 159.409 166.156 157.233 162.139 155.077L162.124 155.069C156.945 152.289 151.825 149.541 146.7 147.034C144.973 149.097 142.909 151.252 140.622 153.344C134.214 159.208 125.281 165.287 116.301 166.898C107.776 168.428 99.7909 167.356 93.619 164.803L94.7657 162.031C100.391 164.358 107.792 165.377 115.771 163.945C123.928 162.482 132.351 156.847 138.597 151.131C141.497 148.477 143.996 145.745 145.846 143.292C151.766 146.104 157.655 149.265 163.543 152.426C167.57 154.588 171.598 156.75 175.637 158.801C188.264 165.213 200.947 170.501 213.278 170.441C225.518 170.382 237.13 165.068 247.867 151.24C248.657 151.669 249.451 152.079 250.25 152.467C259.329 156.875 268.98 158.425 280.79 153.832L282.409 153.202L283.02 151.575C292.862 125.328 290.466 98.647 277.675 77.6409C264.869 56.6088 241.862 41.625 211.216 38.3561C185.779 35.6428 166.793 48.7532 153.651 65.5198C140.64 82.1207 132.969 102.724 129.82 116.787L98.0553 131.562C97.7977 131.682 97.578 131.851 97.403 132.054C94.9085 133.364 92.6806 134.877 90.791 136.541C86.0606 140.705 83.2011 146.069 84.1957 151.611C84.9845 156.007 89.2794 159.761 94.7657 162.031L93.619 164.803C87.8048 162.398 82.3049 158.06 81.2428 152.141C79.9907 145.163 83.6557 138.825 88.8087 134.289C90.7933 132.542 93.0873 130.969 95.6143 129.608C95.9614 129.303 96.3556 129.044 96.7901 128.842L127.227 114.685C130.634 100.371 138.375 80.1467 151.29 63.6692C164.814 46.4151 184.714 32.5122 211.534 35.373C243.02 38.7315 266.9 54.1768 280.238 76.0806C293.547 97.9384 295.967 125.591 285.829 152.628L284.747 155.512Z" fill="white"/>
</svg>
