<svg width="153" height="98" viewBox="0 0 153 98" fill="none" xmlns="http://www.w3.org/2000/svg">
<rect x="1.5" y="9" width="150" height="80" rx="40" fill="white"/>
<g clip-path="url(#clip0_465_42152)">
<path d="M114.99 31.9844C111.435 31.9844 108.263 36.7227 106.186 44.1284C104.111 36.7227 100.94 31.9844 97.3846 31.9844C91.1343 31.9844 86.0703 47.7558 86.0703 67.1924H91.0966C91.0966 49.1375 93.9115 34.4975 97.3846 34.4975C100.858 34.4975 103.673 48.0095 103.673 64.6689H108.702C108.702 47.9992 111.517 34.4975 114.99 34.4975C118.463 34.4975 121.278 49.1375 121.278 67.1924H126.308C126.308 47.7489 121.241 31.9844 114.99 31.9844Z" fill="#FFBC0D"/>
<path d="M27.1758 57.6119L29.0409 40.9696H33.3849L36.8581 51.4267L40.3586 40.9696H44.7129L46.5746 57.6119H42.1175L41.1506 47.453L38.1952 56.3947H35.4524L32.4695 47.3536L31.4752 57.6119H27.1758ZM51.0455 43.6782C50.7363 43.6855 50.4287 43.631 50.1409 43.518C49.853 43.405 49.5905 43.2356 49.3689 43.0199C49.1533 42.8123 48.9818 42.5633 48.8647 42.2879C48.7476 42.0125 48.6872 41.7163 48.6872 41.417C48.6872 41.1177 48.7476 40.8215 48.8647 40.5461C48.9818 40.2707 49.1533 40.0218 49.3689 39.8142C49.8248 39.3913 50.4237 39.1562 51.0455 39.1562C51.6673 39.1562 52.2662 39.3913 52.7221 39.8142C52.9376 40.0218 53.1091 40.2707 53.2263 40.5461C53.3434 40.8215 53.4038 41.1177 53.4038 41.417C53.4038 41.7163 53.3434 42.0125 53.2263 42.2879C53.1091 42.5633 52.9376 42.8123 52.7221 43.0199C52.5004 43.2356 52.238 43.405 51.9501 43.518C51.6622 43.631 51.3547 43.6855 51.0455 43.6782ZM48.9335 57.6119V45.0942H53.1575V57.6119H48.9335ZM56.1335 57.6119V45.0942H59.9049L60.0283 47.0039C60.3445 46.3247 60.8599 45.7578 61.5061 45.3787C62.2345 44.9578 63.0651 44.7466 63.9061 44.7685C65.2455 44.7685 66.3015 45.1787 67.0741 45.9993C67.8466 46.8199 68.2318 47.925 68.2295 49.3147V57.6119H64.0089V49.9593C64.038 49.4023 63.8904 48.8503 63.5872 48.3822C63.4413 48.1876 63.2493 48.0324 63.0284 47.9306C62.8075 47.8289 62.5648 47.7837 62.3221 47.7993C62.0593 47.8025 61.8004 47.8631 61.5635 47.9768C61.3266 48.0905 61.1175 48.2546 60.9506 48.4576C60.5529 48.8965 60.3541 49.5879 60.3541 50.5319V57.6119H56.1335ZM82.7598 45.0942V57.6119H78.9883L78.8409 55.5719C78.5444 56.2722 78.0469 56.8688 77.4112 57.2862C76.6963 57.7436 75.8594 57.9732 75.0112 57.9444C74.4607 57.9666 73.9121 57.8679 73.4039 57.6552C72.8956 57.4426 72.4402 57.1212 72.0695 56.7136C71.3335 55.8953 70.9655 54.7902 70.9655 53.3982V45.0942H75.1861V52.7433C75.1574 53.2952 75.2909 53.8435 75.5701 54.3205C75.6947 54.5103 75.867 54.6641 76.0698 54.7664C76.2726 54.8687 76.4987 54.9159 76.7255 54.9033C76.9732 54.8978 77.2163 54.8356 77.4362 54.7214C77.6561 54.6073 77.8469 54.4444 77.9941 54.245C78.3575 53.8062 78.5392 53.1147 78.5392 52.1707V45.0942H82.7598Z" fill="url(#paint0_linear_465_42152)"/>
</g>
<defs>
<linearGradient id="paint0_linear_465_42152" x1="27.1758" y1="48.5518" x2="82.7564" y2="48.5518" gradientUnits="userSpaceOnUse">
<stop offset="0.000616698" stop-color="#910063"/>
<stop offset="0.0362" stop-color="#990059"/>
<stop offset="0.1727" stop-color="#B60035"/>
<stop offset="0.3012" stop-color="#CA001C"/>
<stop offset="0.4172" stop-color="#D7000C"/>
<stop offset="0.5101" stop-color="#DB0007"/>
<stop offset="1" stop-color="#E8720A"/>
</linearGradient>
<clipPath id="clip0_465_42152">
<rect width="100.414" height="47.0191" fill="white" transform="translate(25.8945 25.0938)"/>
</clipPath>
</defs>
</svg>
