<svg width="27" height="18" viewBox="0 0 27 18" fill="none" xmlns="http://www.w3.org/2000/svg">
<g clip-path="url(#clip0_109_43678)">
<path d="M0 0H27V17.9996H0V0Z" fill="#D80027"/>
<path d="M0 0H13.5V8.99981H0V0Z" fill="#0052B4"/>
<path d="M9.83104 4.50171L8.5719 5.09397L9.24236 6.31345L7.87512 6.05183L7.70183 7.43305L6.7495 6.41723L5.79712 7.43305L5.62389 6.05183L4.25664 6.3134L4.92711 5.09391L3.66797 4.50171L4.92711 3.90945L4.25664 2.68997L5.62389 2.95153L5.79717 1.57031L6.7495 2.58613L7.70188 1.57031L7.87512 2.95153L9.24241 2.68997L8.5719 3.90945L9.83104 4.50171Z" fill="white"/>
<path d="M6.74836 6.03188C7.59315 6.03188 8.27798 5.34705 8.27798 4.50227C8.27798 3.65749 7.59315 2.97266 6.74836 2.97266C5.90358 2.97266 5.21875 3.65749 5.21875 4.50227C5.21875 5.34705 5.90358 6.03188 6.74836 6.03188Z" fill="#0052B4"/>
<path d="M6.74913 5.52171C6.1853 5.52171 5.72656 5.06292 5.72656 4.49913C5.72656 3.9353 6.18535 3.47656 6.74913 3.47656C7.31297 3.47656 7.77171 3.93535 7.77171 4.49913C7.77171 5.06292 7.31297 5.52171 6.74913 5.52171Z" fill="white"/>
</g>
<rect x="0.5" y="0.5" width="26" height="17" rx="0.5" stroke="black" stroke-opacity="0.2"/>
<defs>
<clipPath id="clip0_109_43678">
<rect width="27" height="18" rx="1" fill="white"/>
</clipPath>
</defs>
</svg>
