<svg width="375" height="225" viewBox="0 0 375 225" fill="none" xmlns="http://www.w3.org/2000/svg">
<path d="M215.958 50.9981C218.308 49.6137 221.144 49.3164 223.73 50.1834L266.152 64.4039C268.019 65.0301 269.141 66.9352 268.783 68.872L260.654 112.868C260.158 115.55 258.524 117.886 256.174 119.271L166.498 172.093C164.975 172.99 163.012 172.483 162.115 170.96L125.149 108.204C124.252 106.68 124.76 104.718 126.283 103.821L215.958 50.9981ZM255.132 69.7232C252.61 65.4411 247.094 64.0145 242.812 66.5368C238.53 69.0591 237.103 74.5748 239.625 78.8569C242.148 83.139 247.664 84.5665 251.946 82.0443C256.228 79.5219 257.654 74.0054 255.132 69.7232Z" fill="#A0A09F"/>
<mask id="path-2-outside-1_611_44274" maskUnits="userSpaceOnUse" x="94.9244" y="10.921" width="192.582" height="148.354" fill="black">
<rect fill="white" x="94.9244" y="10.921" width="192.582" height="148.354"/>
<path d="M212.728 29.3802C215.625 28.3257 218.838 28.579 221.533 30.0753L265.757 54.6208C267.703 55.7016 268.558 58.0505 267.762 60.1296L249.662 107.358C248.559 110.237 246.26 112.496 243.363 113.551L132.806 153.79C130.928 154.474 128.851 153.505 128.167 151.627L100.007 74.2583C99.3237 72.3801 100.292 70.3032 102.17 69.6196L212.728 29.3802ZM238.429 58.5356C233.949 60.1662 231.64 65.12 233.27 69.6C234.901 74.08 239.854 76.3905 244.334 74.76C248.814 73.1294 251.124 68.1752 249.494 63.6952C247.863 59.2151 242.909 56.905 238.429 58.5356Z"/>
</mask>
<path d="M212.728 29.3802C215.625 28.3257 218.838 28.579 221.533 30.0753L265.757 54.6208C267.703 55.7016 268.558 58.0505 267.762 60.1296L249.662 107.358C248.559 110.237 246.26 112.496 243.363 113.551L132.806 153.79C130.928 154.474 128.851 153.505 128.167 151.627L100.007 74.2583C99.3237 72.3801 100.292 70.3032 102.17 69.6196L212.728 29.3802ZM238.429 58.5356C233.949 60.1662 231.64 65.12 233.27 69.6C234.901 74.08 239.854 76.3905 244.334 74.76C248.814 73.1294 251.124 68.1752 249.494 63.6952C247.863 59.2151 242.909 56.905 238.429 58.5356Z" fill="#D8D8D8"/>
<path d="M212.728 29.3802L211.702 26.5611L211.701 26.5611L212.728 29.3802ZM221.533 30.0753L222.989 27.4523L222.989 27.4523L221.533 30.0753ZM265.757 54.6208L267.213 51.998L267.213 51.9978L265.757 54.6208ZM267.762 60.1296L270.563 61.2032L270.563 61.2031L267.762 60.1296ZM249.662 107.358L246.861 106.284L246.861 106.284L249.662 107.358ZM243.363 113.551L244.389 116.37L244.389 116.37L243.363 113.551ZM100.007 74.2583L97.1883 75.2844L100.007 74.2583ZM102.17 69.6196L103.196 72.4387L102.17 69.6196ZM238.429 58.5356L237.403 55.7165L237.403 55.7165L238.429 58.5356ZM233.27 69.6L230.451 70.6261L230.451 70.6261L233.27 69.6ZM244.334 74.76L245.36 77.5791L245.36 77.579L244.334 74.76ZM249.494 63.6952L252.313 62.6691L252.313 62.6691L249.494 63.6952ZM212.728 29.3802L213.753 32.1993C215.835 31.4419 218.142 31.624 220.078 32.6984L221.533 30.0753L222.989 27.4523C219.533 25.5341 215.415 25.2095 211.702 26.5611L212.728 29.3802ZM221.533 30.0753L220.078 32.6984L264.301 57.2439L265.757 54.6208L267.213 51.9978L222.989 27.4523L221.533 30.0753ZM265.757 54.6208L264.301 57.2437C264.941 57.5994 265.222 58.3725 264.96 59.0561L267.762 60.1296L270.563 61.2031C271.895 57.7284 270.466 53.8037 267.213 51.998L265.757 54.6208ZM267.762 60.1296L264.96 59.056L246.861 106.284L249.662 107.358L252.463 108.431L270.563 61.2032L267.762 60.1296ZM249.662 107.358L246.861 106.284C246.068 108.352 244.418 109.974 242.337 110.732L243.363 113.551L244.389 116.37C248.103 115.018 251.049 112.122 252.463 108.431L249.662 107.358ZM243.363 113.551L242.337 110.732L131.78 150.971L132.806 153.79L133.832 156.609L244.389 116.37L243.363 113.551ZM132.806 153.79L131.78 150.971C131.459 151.088 131.103 150.922 130.986 150.601L128.167 151.627L125.348 152.653C126.599 156.088 130.397 157.859 133.832 156.609L132.806 153.79ZM128.167 151.627L130.986 150.601L102.826 73.2322L100.007 74.2583L97.1883 75.2844L125.348 152.653L128.167 151.627ZM100.007 74.2583L102.826 73.2322C102.709 72.911 102.875 72.5556 103.196 72.4387L102.17 69.6196L101.144 66.8005C97.7092 68.0508 95.938 71.8492 97.1883 75.2844L100.007 74.2583ZM102.17 69.6196L103.196 72.4387L213.754 32.1993L212.728 29.3802L211.701 26.5611L101.144 66.8005L102.17 69.6196ZM238.429 58.5356L237.403 55.7165C231.366 57.914 228.254 64.5895 230.451 70.6261L233.27 69.6L236.089 68.574C235.025 65.6505 236.532 62.4185 239.455 61.3546L238.429 58.5356ZM233.27 69.6L230.451 70.6261C232.648 76.6626 239.323 79.7763 245.36 77.5791L244.334 74.76L243.308 71.9409C240.385 73.0046 237.153 71.4974 236.089 68.574L233.27 69.6ZM244.334 74.76L245.36 77.579C251.397 75.3818 254.51 68.7061 252.313 62.6691L249.494 63.6952L246.675 64.7212C247.739 67.6444 246.231 70.877 243.308 71.9409L244.334 74.76ZM249.494 63.6952L252.313 62.6691C250.116 56.6321 243.44 53.5192 237.403 55.7165L238.429 58.5356L239.455 61.3547C242.378 60.2907 245.611 61.7981 246.675 64.7212L249.494 63.6952Z" fill="white" mask="url(#path-2-outside-1_611_44274)"/>
<path opacity="0.1" fill-rule="evenodd" clip-rule="evenodd" d="M230.266 70.6916C228.033 64.5538 231.198 57.7677 237.336 55.5344C243.474 53.3011 250.26 56.4663 252.493 62.6042C254.727 68.742 251.562 75.5281 245.424 77.7614C239.286 79.9947 232.5 76.8295 230.266 70.6916ZM249.492 63.6961C247.862 59.2156 242.909 56.9051 238.428 58.5354C233.948 60.1656 231.637 65.1193 233.267 69.5997C234.898 74.0802 239.851 76.3907 244.332 74.7605C248.812 73.1302 251.123 68.1765 249.492 63.6961Z" fill="#292929"/>
<path d="M191.028 84.9792C196.855 100.993 188.596 118.699 172.582 124.526C156.568 130.353 138.862 122.095 133.035 106.08C127.208 90.0661 135.466 72.3603 151.481 66.5334C167.495 60.7065 185.201 68.965 191.028 84.9792Z" fill="white"/>
<path fill-rule="evenodd" clip-rule="evenodd" d="M163.96 78.9106C161.05 79.9693 159.815 84.6534 160.244 91.119C156.419 85.889 152.462 83.0942 149.552 84.1531C144.437 86.014 144.817 99.9667 150.401 115.315L154.518 113.817C149.333 99.565 147.433 87.1722 150.274 86.1386C153.116 85.1044 159.301 94.9324 164.088 108.088L168.204 106.59C163.417 93.4345 161.84 81.9301 164.682 80.8961C167.524 79.862 174.032 90.5778 179.218 104.83L183.333 103.333C177.748 87.9839 169.075 77.0493 163.96 78.9106Z" fill="#D8D8D8"/>
<mask id="path-7-outside-2_611_44274" maskUnits="userSpaceOnUse" x="94.9283" y="10.9191" width="202.5" height="175.605" fill="black">
<rect fill="white" x="94.9283" y="10.9191" width="202.5" height="175.605"/>
<path d="M212.731 29.3782C215.629 28.3238 218.841 28.5771 221.537 30.0734L265.761 54.6189C267.707 55.6996 268.562 58.0485 267.766 60.1277L266.13 64.3936L266.155 64.4022C268.023 65.0282 269.145 66.9339 268.787 68.8709L260.657 112.867C260.162 115.55 258.528 117.886 256.177 119.27L166.502 172.092C164.978 172.989 163.016 172.482 162.119 170.958L148.616 148.035L132.81 153.788C130.932 154.472 128.855 153.503 128.171 151.625L100.011 74.2563C99.3276 72.3781 100.296 70.3013 102.174 69.6177L212.731 29.3782Z"/>
</mask>
<path d="M212.731 29.3782L211.808 26.841L211.808 26.8411L212.731 29.3782ZM221.537 30.0734L222.848 27.7126L222.848 27.7126L221.537 30.0734ZM265.761 54.6189L267.071 52.2583L267.071 52.2582L265.761 54.6189ZM267.766 60.1277L270.287 61.0943L270.287 61.0938L267.766 60.1277ZM266.13 64.3936L263.609 63.4269L262.608 66.037L265.251 66.9466L266.13 64.3936ZM266.155 64.4022L265.276 66.9552L265.286 66.9587L265.297 66.9622L266.155 64.4022ZM268.787 68.8709L271.442 69.3616L271.442 69.3615L268.787 68.8709ZM260.657 112.867L258.002 112.377L258.002 112.377L260.657 112.867ZM256.177 119.27L257.548 121.596L257.548 121.596L256.177 119.27ZM166.502 172.092L167.872 174.419L167.872 174.419L166.502 172.092ZM162.119 170.958L164.445 169.588L164.445 169.588L162.119 170.958ZM148.616 148.035L150.942 146.665L149.802 144.73L147.692 145.498L148.616 148.035ZM100.011 74.2563L97.4741 75.1798L100.011 74.2563ZM102.174 69.6177L103.098 72.1548L102.174 69.6177ZM212.731 29.3782L213.655 31.9154C215.818 31.1284 218.215 31.3175 220.227 32.4342L221.537 30.0734L222.848 27.7126C219.468 25.8366 215.44 25.5192 211.808 26.841L212.731 29.3782ZM221.537 30.0734L220.227 32.4341L264.45 56.9796L265.761 54.6189L267.071 52.2582L222.848 27.7126L221.537 30.0734ZM265.761 54.6189L264.45 56.9795C265.221 57.4077 265.56 58.3383 265.244 59.1615L267.766 60.1277L270.287 61.0938C271.565 57.7587 270.193 53.9916 267.071 52.2583L265.761 54.6189ZM267.766 60.1277L265.245 59.161L263.609 63.4269L266.13 64.3936L268.651 65.3602L270.287 61.0943L267.766 60.1277ZM266.13 64.3936L265.251 66.9466L265.276 66.9552L266.155 64.4022L267.033 61.8491L267.009 61.8406L266.13 64.3936ZM266.155 64.4022L265.297 66.9622C265.889 67.1609 266.246 67.766 266.132 68.3803L268.787 68.8709L271.442 69.3615C272.045 66.1018 270.156 62.8956 267.013 61.8422L266.155 64.4022ZM268.787 68.8709L266.132 68.3803L258.002 112.377L260.657 112.867L263.312 113.358L271.442 69.3616L268.787 68.8709ZM260.657 112.867L258.002 112.377C257.649 114.29 256.483 115.956 254.807 116.944L256.177 119.27L257.548 121.596C260.572 119.815 262.675 116.809 263.312 113.358L260.657 112.867ZM256.177 119.27L254.807 116.944L165.131 169.766L166.502 172.092L167.872 174.419L257.548 121.596L256.177 119.27ZM166.502 172.092L165.132 169.766C164.893 169.906 164.586 169.827 164.445 169.588L162.119 170.958L159.793 172.329C161.447 175.137 165.063 176.073 167.872 174.419L166.502 172.092ZM162.119 170.958L164.445 169.588L150.942 146.665L148.616 148.035L146.289 149.406L159.793 172.329L162.119 170.958ZM148.616 148.035L147.692 145.498L131.886 151.251L132.81 153.788L133.733 156.325L149.539 150.572L148.616 148.035ZM132.81 153.788L131.886 151.251C131.409 151.425 130.882 151.179 130.708 150.702L128.171 151.625L125.634 152.548C126.828 155.828 130.454 157.519 133.733 156.325L132.81 153.788ZM128.171 151.625L130.708 150.702L102.548 73.3329L100.011 74.2563L97.4741 75.1798L125.634 152.548L128.171 151.625ZM100.011 74.2563L102.548 73.3329C102.375 72.8559 102.621 72.3284 103.098 72.1548L102.174 69.6177L101.251 67.0805C97.9714 68.2741 96.2805 71.9003 97.4741 75.1798L100.011 74.2563ZM102.174 69.6177L103.098 72.1548L213.655 31.9154L212.731 29.3782L211.808 26.8411L101.251 67.0805L102.174 69.6177Z" fill="white" mask="url(#path-7-outside-2_611_44274)"/>
<ellipse cx="185.145" cy="201.618" rx="78.1452" ry="9.61787" fill="#A0A09F" fill-opacity="0.15"/>
</svg>
