<svg width="27" height="18" viewBox="0 0 27 18" fill="none" xmlns="http://www.w3.org/2000/svg">
<g clip-path="url(#clip0_4381_42051)">
<path d="M0 0H27V18H0V0Z" fill="#D8D8D8"/>
<path d="M16.1745 5.71718C15.5009 5.92939 14.7686 6.04615 13.997 6.04615C13.2254 6.04615 12.4932 5.92939 11.8195 5.7172C11.9528 5.2215 12.1145 4.77134 12.2981 4.37788C12.5975 3.73616 12.9213 3.30797 13.2329 3.04823C13.4832 3.0164 13.7383 3 13.9972 3C14.256 3 14.511 3.01638 14.7611 3.04817C15.0728 3.30792 15.3965 3.73612 15.696 4.37788C15.8796 4.77133 16.0413 5.22149 16.1745 5.71718Z" fill="#ADADAD"/>
<path d="M15.8186 3.28145C16.2111 3.85661 16.5413 4.61247 16.7832 5.49309C17.2902 5.27824 17.7561 5.00686 18.1712 4.68976C17.514 4.05322 16.7116 3.56564 15.8186 3.28145Z" fill="#ADADAD"/>
<path d="M9.38246 5.16517C8.55409 6.16092 8.0419 7.42902 8 8.81537H10.7674C10.7791 7.85781 10.8815 6.94866 11.057 6.12595C10.4444 5.87658 9.88094 5.55171 9.38246 5.16517Z" fill="#ADADAD"/>
<path d="M8.0147 9.46153C8.11192 10.7396 8.60957 11.9058 9.38246 12.8348C9.88094 12.4483 10.4444 12.1234 11.057 11.874C10.8985 11.131 10.7996 10.3175 10.7733 9.46153H8.0147Z" fill="#ADADAD"/>
<path d="M18.6118 12.835C19.3848 11.9059 19.8825 10.7397 19.9797 9.46153H17.2207C17.1944 10.3175 17.0955 11.1311 16.9371 11.8741C17.5497 12.1235 18.1133 12.4484 18.6118 12.835Z" fill="#ADADAD"/>
<path d="M19.9944 8.81537C19.9525 7.42893 19.4403 6.16075 18.6118 5.16498C18.1133 5.55159 17.5497 5.87652 16.9371 6.12593C17.1125 6.94864 17.215 7.8578 17.2267 8.81537H19.9944Z" fill="#ADADAD"/>
<path d="M18.1712 13.3102C17.514 13.9468 16.7116 14.4344 15.8186 14.7186C16.2111 14.1434 16.5413 13.3875 16.7832 12.5069C17.2902 12.7218 17.7561 12.9932 18.1712 13.3102Z" fill="#ADADAD"/>
<path d="M12.1754 14.7184C11.2824 14.4342 10.4802 13.9466 9.82308 13.3101C10.2381 12.993 10.7039 12.7217 11.2108 12.5069C11.4527 13.3875 11.7829 14.1433 12.1754 14.7184Z" fill="#ADADAD"/>
<path d="M14.7611 14.9518C14.511 14.9836 14.256 15 13.9972 15C13.7383 15 13.4832 14.9836 13.2329 14.9518C12.9213 14.692 12.5976 14.2638 12.2981 13.6221C12.1145 13.2286 11.9528 12.7785 11.8195 12.2828C12.4932 12.0706 13.2254 11.9539 13.997 11.9539C14.7686 11.9539 15.5009 12.0706 16.1745 12.2828C16.0413 12.7785 15.8796 13.2286 15.696 13.6221C15.3965 14.2639 15.0727 14.6921 14.7611 14.9518Z" fill="#ADADAD"/>
<path d="M12.1753 3.28159C11.2824 3.56583 10.4802 4.05342 9.82308 4.68994C10.2381 5.00697 10.7039 5.2783 11.2108 5.49311C11.4527 4.61255 11.7829 3.85675 12.1753 3.28159Z" fill="#ADADAD"/>
<path d="M11.6712 11.6547C11.5331 10.9819 11.4449 10.2433 11.4198 9.46153H16.5743C16.5492 10.2433 16.461 10.9819 16.3229 11.6547C15.5959 11.43 14.8129 11.3077 13.997 11.3077C13.1811 11.3077 12.3981 11.43 11.6712 11.6547Z" fill="#ADADAD"/>
<path d="M11.4136 8.81537H16.5805C16.5692 7.93097 16.4772 7.09706 16.3229 6.34531C15.5959 6.56997 14.813 6.69231 13.997 6.69231C13.1811 6.69231 12.3981 6.56998 11.6712 6.34532C11.5169 7.09707 11.4249 7.93098 11.4136 8.81537Z" fill="#ADADAD"/>
</g>
<rect x="0.5" y="0.5" width="26" height="17" rx="0.5" stroke="black" stroke-opacity="0.2"/>
<defs>
<clipPath id="clip0_4381_42051">
<rect width="27" height="18" rx="1" fill="white"/>
</clipPath>
</defs>
</svg>
