<svg width="153" height="98" viewBox="0 0 153 98" fill="none" xmlns="http://www.w3.org/2000/svg">
<rect x="1.5" y="9" width="150" height="80" rx="40" fill="white"/>
<g clip-path="url(#clip0_465_42155)">
<path d="M111.063 25.0938C106.274 25.0938 102.002 31.4216 99.2085 41.3162C96.4146 31.4216 92.1383 25.0938 87.3495 25.0938C78.9309 25.0938 72.1055 46.1468 72.1055 72.1128H78.8801C78.8801 48.0012 82.6714 28.45 87.3495 28.45C92.0275 28.45 95.8189 46.4948 95.8189 68.752H102.593C102.593 46.4948 106.385 28.45 111.063 28.45C115.741 28.45 119.532 47.9966 119.532 72.1128H126.307C126.307 46.1468 119.481 25.0938 111.063 25.0938Z" fill="#FFBC0D"/>
<path d="M25.8945 59.4618L28.4252 37.0352H34.3316L39.0558 51.1285L43.817 37.0352H49.7234L52.254 59.4618H46.2183L44.9022 45.7714L40.8845 57.8226H37.1393L33.0894 45.6386L31.7409 59.4618H25.8945ZM53.5748 66.0873L54.757 62.6074C55.4543 62.8959 56.1424 63.0424 56.8166 63.0424C57.3338 63.0424 57.8002 62.8867 58.2159 62.5754C58.6315 62.264 59.0517 61.6276 59.4812 60.666L60.1231 59.1917L53.5425 42.5892H59.4858L62.7276 53.2347L65.8679 42.5892H71.4372L64.21 60.8995C63.4019 62.9508 62.4552 64.471 61.3746 65.4508C60.294 66.4307 58.9871 66.9252 57.4585 66.9252C56.6688 66.9252 55.9484 66.8519 55.2973 66.7054C54.6462 66.5634 54.0689 66.3574 53.5748 66.0873Z" fill="url(#paint0_linear_465_42155)"/>
</g>
<defs>
<linearGradient id="paint0_linear_465_42155" x1="25.8945" y1="51.9801" x2="71.4344" y2="51.9801" gradientUnits="userSpaceOnUse">
<stop offset="0.000616698" stop-color="#910063"/>
<stop offset="0.0362" stop-color="#990059"/>
<stop offset="0.1727" stop-color="#B60035"/>
<stop offset="0.3012" stop-color="#CA001C"/>
<stop offset="0.4172" stop-color="#D7000C"/>
<stop offset="0.5101" stop-color="#DB0007"/>
<stop offset="1" stop-color="#E8720A"/>
</linearGradient>
<clipPath id="clip0_465_42155">
<rect width="100.414" height="47.0191" fill="white" transform="translate(25.8945 25.0938)"/>
</clipPath>
</defs>
</svg>
