<svg width="27" height="18" viewBox="0 0 27 18" fill="none" xmlns="http://www.w3.org/2000/svg">
<g clip-path="url(#clip0_109_43927)">
<path d="M0 0H27V18H0V0Z" fill="#DB3E00"/>
<path d="M17.4219 0H27.0008V18H17.4219V0Z" fill="#479900"/>
<path d="M0 0H9.56842V18H0V0Z" fill="black"/>
<path d="M13.4737 6.66797C12.4527 6.66797 11.6211 7.49955 11.6211 8.5206V11.2996H15.3264V8.5206C15.3264 7.49429 14.4948 6.66797 13.4737 6.66797Z" fill="white"/>
<path d="M13.4731 4.4375C10.9626 4.4375 8.92578 6.47434 8.92578 8.98487C8.92578 11.4954 10.9626 13.527 13.4731 13.527C15.9837 13.527 18.0205 11.4901 18.0205 8.97961C18.0205 6.46908 15.9837 4.4375 13.4731 4.4375ZM13.4731 12.7375C11.3995 12.7375 9.71525 11.0533 9.71525 8.97961C9.71525 6.90592 11.3995 5.22171 13.4731 5.22171C15.5468 5.22171 17.231 6.90592 17.231 8.97961C17.231 11.0586 15.5468 12.7375 13.4731 12.7375Z" fill="white"/>
</g>
<rect x="0.5" y="0.5" width="26" height="17" rx="0.5" stroke="black" stroke-opacity="0.2"/>
<defs>
<clipPath id="clip0_109_43927">
<rect width="27" height="18" rx="1" fill="white"/>
</clipPath>
</defs>
</svg>
