<svg width="27" height="18" viewBox="0 0 27 18" fill="none" xmlns="http://www.w3.org/2000/svg">
<g clip-path="url(#clip0_109_43929)">
<path d="M0 0H27V18H0V0Z" fill="#D80027"/>
<path d="M11.9376 12.5886L11.427 11.7675L10.4849 11.9991L11.1113 11.257L10.6007 10.4359L11.5007 10.7991L12.1218 10.057L12.0534 11.0254L12.9534 11.3886L12.0112 11.6202L11.9376 12.5886ZM15.2955 4.31489L14.7639 5.12541L15.3744 5.87805L14.4428 5.62541L13.9112 6.4412L13.8586 5.47278L12.927 5.22015L13.8323 4.87278L13.7797 3.90436L14.3902 4.65699L15.2955 4.31489ZM12.4323 1.33594L12.327 2.2991L13.2112 2.6991L12.2639 2.8991L12.1586 3.86225L11.6744 3.02015L10.7323 3.22015L11.3797 2.4991L10.8955 1.66225L11.7797 2.05699L12.4323 1.33594ZM15.4112 8.51489L14.627 9.08857L14.9323 10.0096L14.1481 9.44121L13.3639 10.0202L13.6586 9.09384L12.8744 8.53068L13.8428 8.52542L14.1376 7.5991L14.4428 8.52015L15.4112 8.51489ZM6.05336 2.43594L6.96389 5.25173H9.92178L7.53231 6.98331L8.44283 9.7991L6.05336 8.06226L3.65863 9.7991L4.57442 6.98331L2.17969 5.25173H5.14284L6.05336 2.43594Z" fill="#FFDA44"/>
</g>
<rect x="0.5" y="0.5" width="26" height="17" rx="0.5" stroke="black" stroke-opacity="0.2"/>
<defs>
<clipPath id="clip0_109_43929">
<rect width="27" height="18" rx="1" fill="white"/>
</clipPath>
</defs>
</svg>
