<svg width="120" height="200" viewBox="0 0 120 200" fill="none" xmlns="http://www.w3.org/2000/svg">
<g clip-path="url(#clip0_4417_43187)">
<g clip-path="url(#clip1_4417_43187)">
<rect x="6" y="4.5" width="95" height="63.6128" rx="3.48624" transform="rotate(-30 6 4.5)" fill="white"/>
<path fill-rule="evenodd" clip-rule="evenodd" d="M34.2934 8.27815L34.4052 8.47048C34.6996 8.96736 35.0778 9.51387 35.6215 9.52114L36.2706 10.6451C36.1519 10.9615 36.234 11.282 36.4891 11.7239L37.093 12.7699C37.1909 12.9393 37.3026 13.0761 37.4252 13.1834C37.2261 13.2727 37.0865 13.4543 36.9885 13.8667C36.8494 14.4528 37.0931 14.5478 37.557 14.4033C37.4993 14.6005 37.4863 14.8381 37.5432 15.1335L37.5564 15.1977C37.7235 15.9527 37.2147 16.4709 36.0301 16.7521C37.3654 17.3782 38.2548 17.4443 38.6983 16.9508L38.8256 17.1712C39.3289 18.0429 40.2967 18.4652 41.175 18.2691C40.7261 18.8142 40.6529 19.636 41.0499 20.3236L41.3725 20.8561L41.3612 20.8627L42.2009 22.3171C42.0841 22.4688 42.0503 22.6579 42.1455 22.9036C42.2579 23.1934 42.4701 23.2705 42.7256 23.2264L42.8427 23.4289C42.8656 23.9002 42.9827 24.3607 43.0316 24.6019L43.0505 24.6986C43.1231 25.0895 43.0289 24.8245 43.247 24.6622C43.481 24.4882 43.4847 24.2512 43.7664 24.0554L43.7985 24.0339L43.9787 24.346C44.8299 25.8204 46.5685 26.4732 48.0393 25.8803L48.0944 25.8574C51.8781 24.2444 55.6381 22.3593 59.3746 20.202C63.227 17.9778 67.1253 15.4235 71.0693 12.5387C72.3655 11.5908 72.7099 9.74817 71.8799 8.25158L71.8486 8.19627L71.328 7.29455L71.4198 7.24675C71.7445 7.08201 72.0399 6.97316 71.8611 6.85132C71.6494 6.70706 71.1569 6.59603 70.6503 6.63483C70.7081 6.56015 70.6719 6.50831 70.5684 6.32894C70.4211 6.07393 70.1763 6.03066 69.9546 6.14112L69.5377 5.41913L69.5466 5.4142L68.9454 4.21817C68.4631 3.38269 67.4619 3.04933 66.665 3.43928C67.093 2.82232 67.1675 1.96983 66.8007 1.21569C66.8269 1.20318 66.8544 1.19073 66.8829 1.17817L66.9517 1.14863C67.9655 0.728033 68.504 -0.0547275 68.2394 -0.945117L68.2004 -1.07237C68.105 -1.39694 67.8094 -2.44066 67.803 -1.94065C67.7957 -1.38523 66.8473 -1.6919 66.54 -1.48701C66.0742 -1.17587 65.7879 -1.22681 65.5257 -1.39788C66.5988 -2.12114 65.2841 -2.58925 65.0374 -2.54336L65.0186 -2.53938C64.9757 -2.52998 64.9319 -2.5153 64.8817 -2.49198C64.893 -3.11359 64.6494 -3.80556 64.1301 -4.23467L64.0093 -4.33331C63.656 -4.61783 63.3811 -4.79956 63.0941 -4.8663L62.4985 -5.89783C62.9274 -6.40734 62.4547 -7.01313 62.2279 -7.41698C59.0366 -12.9305 49.843 -11.975 43.0282 -8.23119L42.8193 -8.11509C35.9808 -4.2708 31.1698 2.86793 34.2934 8.27815Z" fill="white"/>
<path fill-rule="evenodd" clip-rule="evenodd" d="M42.5708 -9.05L42.3583 -8.93185C34.5906 -4.56517 30.2694 3.0593 33.5349 8.71528L33.6524 8.9171C33.8797 9.30097 34.0738 9.57697 34.3194 9.82278C34.5481 10.0519 34.801 10.2267 35.0787 10.3315L35.3268 10.7614L35.3233 10.8281C35.31 11.234 35.4427 11.6461 35.6953 12.0987L35.7306 12.161L36.2809 13.1141L36.2594 13.1638C36.2126 13.2763 36.1724 13.3984 36.1383 13.5302L36.1218 13.5969C35.9356 14.3807 36.1889 14.9539 36.6608 15.216L36.6717 15.2747L36.6878 15.3517C36.7004 15.4089 36.702 15.4243 36.6783 15.4522L36.6557 15.4763C36.5274 15.6071 36.2368 15.7441 35.7822 15.8521C34.9654 16.046 34.9117 17.2169 35.7024 17.5876C36.8014 18.103 37.7225 18.3161 38.442 18.1477L38.4516 18.1454L38.4926 18.1914C38.8837 18.6212 39.3722 18.932 39.8986 19.0983L39.9075 19.101L39.9049 19.1369C39.8715 19.6626 39.9874 20.2091 40.2604 20.7057L40.2913 20.7606L40.5408 21.1728L40.5488 21.1922C40.5592 21.2165 40.5706 21.2404 40.5832 21.2643L40.6027 21.2998L41.215 22.3605C41.1771 22.6117 41.2052 22.8788 41.3005 23.1478L41.3204 23.2017C41.4643 23.5731 41.7024 23.8395 41.9914 23.9954L42.0149 24.0075L42.0298 24.0991L42.0495 24.2092L42.0711 24.3216C42.091 24.4214 42.14 24.648 42.1541 24.7135C42.1564 24.7242 42.1577 24.7306 42.1579 24.7314L42.1751 24.8199C42.1815 24.8544 42.1866 24.8839 42.1914 24.914L42.2022 24.9809L42.2082 25.0151C42.2129 25.0401 42.2192 25.0678 42.2279 25.0994C42.2374 25.1337 42.2414 25.1481 42.2534 25.1779L42.296 25.2789C42.3252 25.3354 42.3341 25.3527 42.3667 25.3982L42.428 25.4812C42.539 25.6022 42.5573 25.6223 42.7131 25.706L42.8251 25.7651C43.1205 25.8346 43.1487 25.841 43.3601 25.7889L43.4335 25.7705L43.4336 25.7705C43.6018 25.6857 43.6315 25.6707 43.6926 25.6138L43.7378 25.5702L43.7637 25.5379L43.7823 25.5594C44.9508 26.8621 46.7614 27.3722 48.3508 26.7626L48.4118 26.7386L48.4742 26.7125C52.2886 25.0864 56.0782 23.1866 59.8427 21.0131C63.7212 18.7739 67.644 16.2032 71.6113 13.3017C73.264 12.093 73.7069 9.74158 72.6417 7.82089L72.6062 7.7581L72.5419 7.64674L72.5578 7.62934C72.9246 7.21258 72.9237 6.52941 72.3549 6.11477L72.3194 6.08964C72.0548 5.9093 71.684 5.78898 71.2832 5.73559L71.2186 5.72765C71.0083 5.44605 70.731 5.2683 70.4339 5.19702L70.4182 5.19353L70.3664 5.10376L70.3494 5.06418L70.3317 5.02703L69.7305 3.831C69.7218 3.81372 69.7125 3.79656 69.7029 3.77984C69.2987 3.07974 68.6515 2.61019 67.9476 2.43285L67.9234 2.42693L67.9264 2.32756C67.929 2.14599 67.9162 1.96295 67.8876 1.78055L67.8783 1.72464L67.9025 1.70985C68.9155 1.07411 69.4219 0.0456472 69.1045 -1.11512L69.0871 -1.17626L69.0513 -1.29263L68.9716 -1.56366L68.9224 -1.7255L68.8833 -1.84945C68.8063 -2.08941 68.7417 -2.26355 68.6691 -2.40428C68.6205 -2.49833 68.5682 -2.5811 68.4895 -2.66852C68.4025 -2.76504 68.2992 -2.8489 68.1596 -2.91269C67.9209 -3.022 67.645 -3.02981 67.4013 -2.90752C67.214 -2.81343 67.0946 -2.67327 67.0172 -2.51452L67.0091 -2.49686L66.8978 -2.49363C66.8639 -2.49272 66.835 -2.49161 66.8089 -2.4904L66.7374 -2.48612L66.6975 -2.48297L66.6642 -2.54407C66.5908 -2.67135 66.4933 -2.79408 66.3714 -2.90892L66.3358 -2.94161C66.1536 -3.10461 65.9176 -3.24104 65.6722 -3.33377L65.6611 -3.33797L65.6486 -3.38441C65.4863 -3.96574 65.1675 -4.50242 64.7092 -4.90072L64.6557 -4.94602L64.5298 -5.04884C64.2061 -5.30954 63.9401 -5.49229 63.674 -5.61592L63.6712 -5.61733L63.516 -5.88573L63.5186 -5.89479C63.6344 -6.32784 63.5473 -6.78986 63.3234 -7.25556L63.2989 -7.30547C63.2547 -7.39359 63.2151 -7.46595 63.1593 -7.56139L63.0596 -7.72871L62.9332 -7.94405C61.2149 -10.8304 57.9926 -12.2385 53.9294 -12.2182C50.306 -12.2002 46.1737 -11.0293 42.5708 -9.05ZM34.4047 8.46992L34.2929 8.27759C31.1693 2.86737 35.9803 -4.27139 42.8188 -8.11569L43.0277 -8.23179C49.8425 -11.9756 59.036 -12.9313 62.2274 -7.41754C62.2566 -7.36556 62.2897 -7.31046 62.3246 -7.25246C62.5608 -6.85965 62.8717 -6.34249 62.4979 -5.89855L63.0936 -4.86686C63.3806 -4.80012 63.6555 -4.61839 64.0088 -4.33387L64.1296 -4.23523C64.6489 -3.80628 64.8925 -3.11415 64.8812 -2.49254C64.9314 -2.51587 64.9752 -2.53055 65.0181 -2.53994L65.037 -2.54392C65.2836 -2.58981 66.5983 -2.12186 65.5252 -1.39844C65.7875 -1.22737 66.0737 -1.17643 66.5395 -1.48757C66.6542 -1.56416 66.8583 -1.56926 67.0694 -1.57468C67.4238 -1.58363 67.7979 -1.59316 67.8025 -1.94121L67.8042 -1.9883C67.8279 -2.34612 68.0754 -1.49887 68.1815 -1.13588L68.1892 -1.10959L68.2389 -0.945679C68.5036 -0.0552893 67.965 0.727471 66.9512 1.14807L66.8823 1.17745C66.8538 1.19001 66.8264 1.20262 66.8002 1.21513C67.167 1.96927 67.0925 2.82176 66.6645 3.43872C67.4614 3.04877 68.4625 3.38197 68.9448 4.21744L69.5461 5.41348L69.5372 5.41857L69.9541 6.14056C70.1758 6.0301 70.4206 6.07321 70.5679 6.32838C70.5738 6.33861 70.5794 6.34834 70.585 6.35791C70.6752 6.5136 70.7043 6.56387 70.6499 6.63426C71.1564 6.59547 71.649 6.7065 71.8605 6.8506C71.9891 6.93825 71.8726 7.01911 71.6764 7.11878L71.4192 7.24603L71.3276 7.29398L71.8481 8.1957L71.8793 8.25085C72.7094 9.74761 72.365 11.5902 71.0688 12.5381C67.1248 15.4228 63.2266 17.9773 59.3741 20.2015C55.6376 22.3587 51.8776 24.2439 48.0939 25.8568L48.0388 25.8797C46.5679 26.4725 44.8295 25.8199 43.9781 24.3453L43.798 24.0333L43.766 24.0549C43.6166 24.1586 43.5455 24.2739 43.4767 24.3853C43.4157 24.4841 43.3565 24.5798 43.2465 24.6617L43.2291 24.6754C43.1395 24.7501 43.1092 24.8409 43.096 24.8806C43.0877 24.9055 43.086 24.9106 43.0807 24.8801L43.05 24.6981L43.0312 24.6014C43.0227 24.5591 43.0119 24.5099 43 24.4553C42.9441 24.1982 42.8611 23.817 42.8423 23.4283L42.7252 23.2258C42.4696 23.2699 42.2573 23.1927 42.145 22.903C42.0498 22.6572 42.0836 22.4682 42.2004 22.3166L41.3607 20.8621L41.372 20.8554L41.0494 20.3229C40.6525 19.6355 40.7256 18.8137 41.1745 18.2684C40.2962 18.4645 39.3284 18.0423 38.8251 17.1707L38.6979 16.9502C38.2543 17.4438 37.3649 17.3777 36.0297 16.7515C37.2142 16.4704 37.723 15.9522 37.556 15.1972L37.5427 15.133C37.4858 14.8375 37.4988 14.5999 37.5566 14.4028C37.0926 14.5473 36.8488 14.4521 36.988 13.8662C37.086 13.4536 37.2255 13.2719 37.4246 13.1827C37.3021 13.0755 37.1904 12.9388 37.0926 12.7693L36.4887 11.7233C36.2336 11.2814 36.1514 10.9609 36.2701 10.6446L35.621 9.52058C35.1251 9.51385 34.7671 9.0591 34.4847 8.6021L34.4047 8.46992Z" fill="white"/>
<path fill-rule="evenodd" clip-rule="evenodd" d="M71.0693 12.5389C67.1252 15.4235 63.227 17.978 59.3745 20.2022C55.6381 22.3595 51.8781 24.2446 48.0944 25.8576C46.6119 26.4897 44.8406 25.8391 43.9786 24.3462L43.2217 23.0352L71.1172 6.92969L71.8486 8.19646C72.7182 9.70265 72.3814 11.5792 71.0693 12.5389Z" fill="#EC9D47"/>
<path d="M69.3984 7.24736L69.3698 7.29026C68.1743 9.14552 67.1012 8.34749 65.8456 9.13535C65.3306 9.45843 64.97 9.83375 64.7217 10.1708L64.6635 10.165C64.5998 10.1598 64.5331 10.1583 64.4636 10.1601L64.1354 10.3481L63.8825 10.4911C63.5382 10.6848 63.1656 10.8904 62.7622 11.1084L62.5568 11.2183L62.2979 11.3548C62.0459 11.49 61.7075 11.6793 61.4081 11.8848L61.3909 11.9036C61.3424 11.9887 61.3016 12.0755 61.2686 12.1638C61.2018 12.3439 61.1461 12.5148 61.0905 12.6739C60.7348 12.8144 60.4365 12.952 60.0649 13.0412C59.7135 13.3506 59.4104 13.6511 59.1489 13.9464C58.6599 14.4989 54.9948 16.0704 53.2205 17.0874L52.741 17.2789C51.6934 17.702 50.8384 18.0749 50.6207 18.1153L50.6078 18.1173C50.5064 18.1312 50.4053 18.1494 50.3043 18.1718L50.2227 18.2665L50.1364 18.3639C49.4779 19.0971 48.5504 19.8753 46.9635 20.5183C46.6033 20.6644 46.2527 20.8999 45.9217 21.1903C45.3754 21.1372 45.2244 21.5248 44.8669 21.6517C44.3814 21.8244 44.1106 21.7254 43.4263 22.0534C42.4912 22.5019 42.9238 24.0747 43.0305 24.6016C43.1375 25.1285 43.0118 24.836 43.2459 24.6619C43.4799 24.4878 43.4836 24.2509 43.7653 24.0551C44.9589 23.2244 45.831 25.0038 47.5339 24.4139C48.4528 24.0957 48.811 22.6434 49.1177 22.3728C49.4244 22.1024 49.9168 22.1969 50.2681 22.0025C51.9262 21.0844 52.2958 19.6388 53.5659 18.6545L53.4772 18.6163C53.4248 18.5944 53.3721 18.5729 53.3192 18.5517C53.2235 18.5137 53.4728 18.3647 53.8916 18.1563L54.2394 18.1527C55.7361 18.1309 57.5332 18.0461 57.5213 18.5622C58.2256 18.3032 58.8926 17.8934 59.6427 17.4097C60.369 16.9413 60.7526 15.8859 61.3015 15.4737C62.2603 14.7539 65.4421 13.9698 65.4421 13.9698C65.4421 13.9698 64.844 13.3612 65.1266 12.8699C65.5148 12.1956 67.006 11.2913 67.3597 11.3938C67.7133 11.4961 68.0503 11.5174 68.3718 11.3343C69.1645 10.8829 69.1518 10.3514 69.4883 10.0343C69.8425 9.70068 70.1322 9.73557 70.7455 9.46455C71.43 9.16198 71.2653 8.67812 71.0011 8.34868L70.9848 8.32866C70.1674 7.34291 72.2719 7.13168 71.8599 6.85081C71.4479 6.57009 69.9699 6.41507 69.3984 7.24736Z" fill="#9CC93A"/>
<path fill-rule="evenodd" clip-rule="evenodd" d="M60.456 12.3869C55.8214 16.1847 52.9258 16.1614 50.3201 17.3142C48.6151 18.0688 47.1676 19.0491 46.1675 20.0343C46.1568 20.0448 45.715 20.3985 45.4556 20.571C44.9914 20.8793 44.4771 21.1762 43.913 21.4616C43.913 21.4616 43.1242 21.7945 42.6872 21.9837C42.2502 22.1728 41.9632 22.4354 42.1447 22.9038C42.2848 23.2655 42.5808 23.2958 42.9219 23.1727C43.2631 23.0495 44.8679 21.6577 49.8497 19.1158C54.8315 16.5741 57.9823 22.8738 57.9721 20.2838C57.9617 17.5996 59.3648 14.775 60.7501 13.191C62.1354 11.6071 66.8317 9.47229 68.143 8.65461C69.4544 7.83709 69.7489 7.47745 70.233 7.01312C70.7171 6.5488 70.7657 6.67307 70.5673 6.32927C70.3884 6.01956 70.0659 6.02223 69.8153 6.23295C69.6755 6.35064 69.2798 6.82951 67.2165 8.10217C65.5813 9.11095 62.505 10.7078 60.456 12.3869Z" fill="#FFBC0D"/>
<path fill-rule="evenodd" clip-rule="evenodd" d="M41.6095 17.9013C40.7987 18.3694 40.5484 19.4539 41.0505 20.3236L41.6304 21.2811C41.6304 21.2811 42.5526 21.1908 44.7943 19.8057C47.0359 18.4204 48.0221 17.0863 49.7228 16.3313C52.322 15.1778 53.8217 15.6256 58.174 12.5196C62.5262 9.41363 69.5473 5.41433 69.5473 5.41433L68.946 4.21813C68.4438 3.34841 67.3795 3.02295 66.5687 3.49109C60.7292 6.43744 56.38 8.73377 53.5208 10.3799C50.6618 12.0263 46.8015 14.474 41.6095 17.9013Z" fill="#73371F"/>
<path fill-rule="evenodd" clip-rule="evenodd" d="M65.7656 -0.587463C65.662 -0.76683 65.4424 -0.833735 65.2749 -0.73705L37.9858 15.0183C37.8183 15.115 37.7665 15.3386 37.8701 15.518L38.1287 15.966C39.1338 17.7069 41.2828 18.328 42.88 17.3409C46.0701 15.3692 51.0817 12.2905 53.7232 10.7655C56.636 9.08375 62.6255 5.85077 65.7927 4.15013C66.9246 3.54248 67.292 2.05645 66.6042 0.865165L65.7656 -0.587463Z" fill="#EC9D47"/>
<path d="M56.6717 3.04009L56.5154 3.11025C54.502 3.99629 54.3173 3.38265 53.3277 3.93279C52.8794 4.18161 52.6428 4.53425 52.4888 4.92962C51.3601 4.83936 50.2481 4.87645 49.2434 5.48701C48.4489 5.96997 48.0771 7.2356 47.4802 7.67329C46.4372 8.4376 43.9792 8.89681 42.7503 8.59822C42.6613 8.57644 42.6439 8.70985 42.7252 8.79776L42.897 8.98336C43.2344 9.35387 43.5907 9.82148 43.3042 10.3875C42.9045 11.1758 41.9362 11.6894 40.8638 11.9168C40.4573 11.7386 40.0747 11.6645 39.7215 11.8478C38.8509 12.2999 38.8968 12.9666 38.5344 13.3154L38.4933 13.3538C38.0542 13.7539 37.3058 14.065 37.5561 15.1976C37.8065 16.3302 36.0298 16.7519 36.0298 16.7519C36.0298 16.7519 38.2089 17.7737 38.8047 16.8075L38.8305 16.7643C40.0741 14.6132 41.3361 15.7637 42.7108 14.9566C43.2744 14.6255 43.6605 14.2074 43.9215 13.821C44.1827 13.4348 47.2801 13.2511 47.7125 11.8178L47.7622 11.6478C47.9946 10.8277 48.0934 10.1751 48.8215 10.0021C49.2568 9.89817 49.9541 10.0308 51.0169 9.31825C51.7024 8.85888 52.0477 7.96328 52.3399 7.18661C52.9638 7.11881 53.1986 6.84385 54.244 7.31506L54.3092 7.34496C55.1382 7.73052 55.6316 7.7552 56.0494 7.12462L56.076 7.08351C56.7067 6.0822 57.6254 6.7023 58.8044 5.91492C59.5845 5.39398 59.3493 3.22541 61.713 2.70787C62.1293 2.61643 62.464 2.23251 62.7185 1.72865C63.1388 1.92231 63.4925 2.16094 63.7483 2.32535C65.0836 3.18432 65.0527 2.12 65.5596 1.95312L65.5805 1.94691C66.1031 1.80427 66.1909 1.48256 66.8825 1.17789L66.9513 1.14852C67.9835 0.720306 68.5231 -0.0833835 68.2237 -0.993979C68.1739 -1.14613 67.8097 -2.49637 67.8026 -1.94077C67.7953 -1.38533 66.8469 -1.69201 66.5396 -1.48712C65.2377 -0.617484 65.3385 -2.57638 63.4457 -2.08008C62.5162 -1.83645 61.5118 -0.466385 61.0433 0.475232L60.517 0.28307C59.9103 0.0660907 59.256 -0.124307 58.807 0.0929616C57.5896 0.681738 57.8208 2.51496 56.6717 3.04009Z" fill="#9CC93A"/>
<path fill-rule="evenodd" clip-rule="evenodd" d="M61.4265 -4.35864C60.0597 -3.56948 53.3652 -0.353737 49.2234 2.03757C45.0309 4.45812 38.304 8.77474 37.2307 9.61086C36.1575 10.4469 35.9828 10.846 36.4889 11.7225C36.9949 12.5991 36.5867 11.892 37.0928 12.7685C37.5988 13.6451 38.4801 13.651 39.2924 13.182L64.2957 -1.25365C65.1079 -1.72263 65.0979 -3.43614 64.1298 -4.236C63.1618 -5.03584 62.7934 -5.1478 61.4265 -4.35864Z" fill="#73371F"/>
<path d="M65.0354 -2.54377C64.7325 -2.48723 64.4236 -2.19055 62.1635 -0.453673C61.2773 0.22723 59.8016 1.20328 57.3627 2.53407C55.6548 3.46602 52.9855 4.96838 48.0924 7.67032C43.1992 10.3723 41.0913 11.7427 39.5272 12.6154C37.9629 13.488 37.2836 12.615 36.9865 13.8663C36.6893 15.1176 38.1384 14.1306 39.7483 13.3515C41.3581 12.5725 41.012 12.1845 46.2316 9.39242C51.451 6.60041 53.9641 5.97319 56.3347 4.63912C60.8019 2.1254 61.4923 0.149842 64.3729 -0.865504C67.2535 -1.88085 65.3385 -2.60014 65.0354 -2.54377Z" fill="#EDC8A3"/>
<path fill-rule="evenodd" clip-rule="evenodd" d="M34.291 8.27856C34.6801 8.95252 35.2174 9.88312 36.1378 9.37661C37.0362 8.83302 44.009 3.72734 48.4042 1.2125C52.595 -1.22982 60.5881 -4.98063 61.9108 -5.50343C63.2003 -6.05681 62.5115 -6.8999 62.2223 -7.41472C58.9988 -12.9841 49.6511 -11.9528 42.8169 -8.1147C35.9785 -4.27041 31.1674 2.86833 34.291 8.27856Z" fill="white"/>
<path fill-rule="evenodd" clip-rule="evenodd" d="M34.2949 8.27661L34.4122 8.47793C34.7916 9.11724 35.3104 9.8321 36.1417 9.37466L36.2028 9.33657C37.3179 8.62781 44.1008 3.67503 48.408 1.21054L48.664 1.06254C52.916 -1.38066 60.6184 -4.99311 61.9147 -5.5054C63.2042 -6.05878 62.5154 -6.90187 62.2262 -7.41669C59.0027 -12.9861 49.655 -11.9547 42.8208 -8.11664C35.9824 -4.27235 31.1713 2.86638 34.2949 8.27661ZM59.9949 -7.28889C60.0818 -7.54361 60.3507 -7.67331 60.5955 -7.57852C60.8402 -7.4839 60.9682 -7.20065 60.8812 -6.94594C60.7943 -6.69123 60.1775 -5.91306 60.0446 -5.96445C59.9117 -6.01584 59.908 -7.03418 59.9949 -7.28889ZM41.0328 3.69525C41.0324 3.4013 41.3913 2.3654 41.5457 2.36566C41.7 2.36575 42.0613 3.40268 42.0617 3.69637C42.062 3.99032 41.8321 4.22825 41.5479 4.22786C41.2637 4.22764 41.0332 3.98911 41.0328 3.69525ZM54.2091 -4.86544C54.1068 -5.14641 54.2445 -5.45445 54.5165 -5.55351C54.7886 -5.65259 55.0921 -5.50509 55.1943 -5.22412C55.2966 -4.94314 55.3123 -3.82678 55.1645 -3.77304C55.0167 -3.7193 54.3112 -4.58462 54.2091 -4.86544ZM46.0334 -0.310372C46.1202 -0.565038 46.3892 -0.694772 46.6339 -0.599956C46.8787 -0.50539 47.0067 -0.222152 46.9197 0.0326034C46.8329 0.28727 46.216 1.06543 46.0831 1.01406C45.9501 0.962696 45.9464 -0.0556161 46.0334 -0.310372ZM49.2209 -2.40884C49.2042 -2.70333 49.4215 -2.92813 49.706 -2.91122C49.9906 -2.89414 51.0147 -2.46086 51.0236 -2.30086C51.0327 -2.14094 50.0503 -1.82761 49.7658 -1.84477C49.4813 -1.86185 49.2373 -2.11425 49.2209 -2.40884ZM35.3345 5.21027C35.4117 4.96202 35.6783 4.84617 35.9301 4.95142C36.1818 5.05652 36.9717 5.74192 36.9299 5.87669C36.888 6.01145 35.9023 5.95504 35.6505 5.84979C35.3988 5.7447 35.2573 5.45826 35.3345 5.21027ZM38.3775 0.954595C38.4194 0.81983 39.4051 0.876403 39.6568 0.981495C39.9086 1.08675 40.0501 1.37303 39.9728 1.62127C39.8957 1.86926 39.629 1.98511 39.3773 1.87986C39.1256 1.77477 38.3357 1.08936 38.3775 0.954595ZM56.395 -9.32267C56.482 -9.57739 56.7508 -9.70709 56.9957 -9.61231C57.2404 -9.51768 57.3683 -9.23443 57.2814 -8.97972C57.1945 -8.72501 56.5776 -7.94684 56.4447 -7.99823C56.3118 -8.04962 56.3081 -9.06796 56.395 -9.32267ZM42.1895 -2.55779C42.4407 -2.70283 42.7642 -2.61277 42.9121 -2.35662C43.06 -2.10048 43.2631 -1.01334 43.1267 -0.934562C42.9902 -0.855786 42.1503 -1.5753 42.0024 -1.83145C41.8545 -2.08759 41.9383 -2.41276 42.1895 -2.55779ZM51.5475 -7.00552C51.6344 -7.26024 52.2512 -8.0384 52.3841 -7.98702C52.517 -7.93563 52.5207 -6.91729 52.4338 -6.66257C52.3469 -6.40786 52.078 -6.27816 51.8333 -6.37278C51.5885 -6.46757 51.4605 -6.75081 51.5475 -7.00552ZM45.4715 -4.66233C45.5484 -4.79616 46.625 -4.58899 46.8794 -4.44174C47.1336 -4.29441 47.225 -3.97552 47.0831 -3.72934C46.9413 -3.483 46.6203 -3.40285 46.3659 -3.55009C46.1116 -3.69718 45.3944 -4.52867 45.4715 -4.66233ZM38.3815 -2.8696C38.2792 -3.15067 38.4169 -3.45873 38.689 -3.55778C38.9611 -3.65683 39.2646 -3.50932 39.3668 -3.22832C39.469 -2.94731 39.4848 -1.83102 39.337 -1.77725C39.1891 -1.72349 38.4837 -2.58884 38.3815 -2.8696ZM48.5156 -9.45665C48.7668 -9.60168 49.0903 -9.51159 49.2382 -9.2555C49.3861 -8.99935 49.5892 -7.91221 49.4528 -7.83343C49.3163 -7.75466 48.4764 -8.47417 48.3285 -8.73032C48.1807 -8.98641 48.2644 -9.31161 48.5156 -9.45665ZM44.1977 -7.69126C44.2846 -7.94593 44.5535 -8.07568 44.7982 -7.98098C45.0431 -7.88636 45.171 -7.60314 45.084 -7.34839C44.9972 -7.09372 44.3804 -6.31552 44.2474 -6.36689C44.1145 -6.41826 44.1108 -7.43651 44.1977 -7.69126Z" fill="#EC9D47"/>
<path d="M60.306 16.4236C59.9093 16.0672 59.7727 15.5471 59.957 15.0868C59.9759 15.0487 59.9948 15.0105 60.0137 14.9724C59.7368 14.9417 59.4962 14.8084 59.3299 14.5913C57.9877 12.739 57.5129 9.01099 59.2935 5.76413C61.1453 2.38084 64.0757 -0.386392 68.5048 -2.94355C72.934 -5.50072 76.7956 -6.65485 80.6515 -6.56694C84.3596 -6.47532 87.5551 -4.76738 88.2297 -2.48877C88.2638 -2.35875 88.2818 -2.23303 88.2574 -2.11001C88.5247 -1.88321 88.7134 -1.55651 88.7557 -1.19978C88.9637 -1.17015 89.1587 -1.09218 89.3246 -0.970169C89.7005 -0.697121 89.8808 -0.243102 89.7976 0.226938C89.7818 0.317723 89.7542 0.388088 89.7223 0.474569C89.7561 0.509501 89.784 0.534227 89.8076 0.575064C90.0989 0.937798 90.3555 1.42945 90.6348 2.1258C90.6732 2.2397 90.7117 2.3536 90.7282 2.453C90.9453 2.54548 91.1288 2.69812 91.2322 2.92433C92.2533 5.07092 92.3295 6.71485 91.4798 7.81799C88.3959 11.831 83.2167 15.1206 80.5674 16.6502C79.6264 17.1935 79.0052 17.5113 78.9233 17.5586C71.5462 21.2461 68.5182 22.545 66.2438 22.4561C64.6533 22.3943 63.0233 20.327 62.1988 19.0878C62.031 18.8444 61.9977 18.5505 62.0918 18.2647C61.7038 17.8762 61.3313 17.3018 61.1479 16.7951C60.8387 16.7558 60.5411 16.6418 60.306 16.4236Z" fill="white"/>
<path d="M84.3462 -1.28103C83.6695 -0.917577 82.988 -0.279068 82.6019 0.256939C82.0643 1.00294 81.2624 1.57479 80.1194 1.74467C74.4876 2.57314 71.6131 3.78352 70.7606 5.73225C70.5283 6.27476 70.2632 7.06761 68.596 7.6762C67.5811 8.04436 67.43 7.5463 65.3916 8.76397C64.8247 9.1049 64.1869 8.8742 63.1537 10.2738C62.8011 10.7497 62.2047 11.0395 61.4625 11.9037C60.5715 12.9353 60.5486 13.0847 60.1537 14.007C59.1176 12.5904 58.5066 9.24064 60.1679 6.21238C61.9528 2.94941 64.8425 0.300889 68.9853 -2.09091C73.128 -4.48272 76.8725 -5.65087 80.5848 -5.57537C84.2182 -5.49506 86.7722 -3.81153 87.2658 -2.17711C86.1531 -2.12004 85.2479 -1.7744 84.3462 -1.28103Z" fill="#F3A14B"/>
<path d="M62.7498 15.7893C63.4394 15.3775 64.5168 14.456 65.2765 13.9765C65.3788 13.9175 65.4708 13.8643 65.5731 13.8053C66.6401 13.2437 67.2009 13.2466 67.9679 13.9609C67.9738 13.9711 67.9899 13.9754 67.9958 13.9856C68.1971 14.1689 68.4117 14.3989 68.6558 14.6799C68.8602 14.9158 69.1005 14.9541 69.2586 14.9445C69.4006 14.9305 69.541 14.8903 69.6842 14.8076C70.1752 14.5241 70.6648 13.8603 71.1895 13.1627C71.4052 12.8748 71.6106 12.5928 71.8089 12.3694C74.6055 9.03966 77.5823 7.77022 80.4611 6.54373C83.0461 5.44606 85.4863 4.40475 87.6345 2.00737C87.9175 1.69428 88.202 1.4075 88.4821 1.13685C88.612 1.00742 88.9152 1.03654 89.0241 1.17787C89.2874 1.51589 89.5118 1.99893 89.7098 2.48358C89.76 2.6179 89.8327 2.86183 89.6359 3.11157C88.726 4.18138 87.1261 5.5679 84.3647 7.25752C82.9357 8.13697 81.6677 8.96437 80.4406 9.76814C75.9601 12.7089 72.08 15.2485 63.7581 17.6302C63.5606 17.6897 63.3836 17.7375 63.227 17.7734C63.1464 17.7519 63.0819 17.7347 63.0379 17.7056C62.6797 17.4632 62.2159 16.7781 62.0927 16.3047C62.0778 16.2317 62.1053 16.1613 62.1667 16.1259C62.3304 16.0314 62.5409 15.9235 62.7498 15.7893Z" fill="#82310D"/>
<path d="M63.9022 18.2821C69.436 16.6935 73.025 15.0434 76.1244 13.2539C77.7508 12.3149 79.238 11.3474 80.7909 10.3283C82.018 9.52457 83.2861 8.69717 84.6945 7.82953C87.6547 6.01159 89.3537 4.51336 90.316 3.34525C90.5992 3.9304 91.5822 6.05816 90.6888 7.22737C86.5977 12.5433 78.49 16.6662 78.49 16.6662C71.3803 20.2264 68.3685 21.5297 66.3167 21.4484C65.1714 21.4017 63.6574 19.4172 63.0376 18.5091C63.3039 18.4506 63.5907 18.3803 63.9022 18.2821Z" fill="#F3A14B"/>
<path d="M75.0263 5.06631C74.7894 5.17581 74.0195 5.66117 73.7076 5.66428C73.1994 5.65819 72.984 5.59203 72.4526 5.64018C72.1261 5.66531 71.9184 5.73077 71.6773 5.8564C71.575 5.91545 71.5073 5.84559 71.5392 5.75911C72.2844 3.69537 76.7524 2.9535 80.3451 2.34938C80.9422 2.24968 81.3443 2.072 81.7373 1.83147C81.9214 1.72517 82.0756 1.82676 82.2366 2.22383C82.3431 2.50269 82.1624 2.75672 82.1274 2.79056C81.8723 3.12837 81.7205 3.24329 81.0682 3.48373C79.5927 4.02255 78.4738 3.97432 77.2536 4.27042C75.9866 4.57993 75.5774 4.81616 75.0263 5.06631Z" fill="#68813B"/>
<path d="M62.4557 14.7868C62.1814 15.0677 61.882 15.2814 61.0694 15.3149C60.6478 15.3405 61.0293 15.9778 61.4971 15.7486C61.7646 15.6214 62.0774 15.4544 62.4354 15.2477C63.0739 14.8655 64.2606 13.8264 64.8539 13.4838C66.6849 12.4267 67.5765 12.3884 69.1838 14.251C69.2235 14.2961 69.2499 14.2945 69.2558 14.3047C69.5618 14.2914 70.2525 13.3617 70.6634 12.7978C70.8834 12.4938 71.0991 12.2059 71.3018 11.9664C74.2018 8.50884 77.2561 7.20827 80.2124 5.95064C82.7199 4.88411 85.0928 3.86801 87.1478 1.59255C87.7035 0.972266 87.9436 0.561384 88.5754 0.332759C89.0155 0.173903 88.8507 -0.46599 88.2177 -0.168602C87.5847 0.128786 87.2009 0.0781424 86.5097 0.463614C85.9616 0.766406 85.8198 1.22944 85.1884 1.55316C84.6081 1.84734 84.2444 1.6898 83.9139 1.82613C83.2939 2.07518 83.0975 2.42 82.9519 2.64021C82.6563 3.09674 82.4527 3.50012 81.6809 3.86407C80.2702 4.5152 78.7885 4.5947 77.5082 4.85747C76.6405 5.03175 75.7164 5.41552 75.275 5.64314C74.5617 6.0141 73.9862 6.38726 73.6942 6.63749C73.3613 6.91136 73.2131 7.62313 72.6702 7.74595C72.5605 7.76847 72.2663 7.80221 71.9924 8.17816C71.5626 8.78023 71.2382 9.3759 70.6418 9.66578C69.4797 10.2278 69.0653 9.84087 68.6952 9.93206C68.2416 10.0442 68.2129 10.1833 67.8678 10.3417C67.5024 10.5118 67.0733 10.5009 66.6809 10.9316C66.4621 11.1669 65.9046 11.6657 65.6693 11.8016C64.5677 12.492 63.9585 12.4762 63.528 12.8881C63.3675 13.0352 63.3024 13.277 63.2402 13.4763C63.1086 13.9334 62.7752 14.4662 62.4557 14.7868ZM71.3908 7.84486C70.9152 8.74561 70.7677 8.84441 70.2019 9.11657C69.5792 9.40806 68.803 8.98497 68.229 9.38446C66.8326 10.3676 66.4523 9.66154 66.4128 9.26237C66.3932 9.11033 66.4237 8.6435 67.3051 8.61105C67.6375 8.59613 68.0399 8.51354 68.7932 8.28282C69.9253 7.92867 70.4463 7.4373 71.0766 6.82832C71.3714 6.53564 72.3785 6.03586 72.7138 6.42762C72.7873 6.50769 72.918 7.01757 72.3225 7.14359C71.8162 7.25891 71.5522 7.53387 71.3908 7.84486Z" fill="#FBB900"/>
<path d="M84.8642 1.03489C85.9359 0.55232 85.2486 0.0234415 87.1143 -0.359448C88.2377 -0.681368 87.7103 -1.54757 87.1876 -1.53164C84.858 -1.47985 83.5035 0.118962 83.1843 0.534656C82.1799 1.79515 82.9736 1.79974 83.2876 1.56401C84.1288 0.942218 84.4827 1.20075 84.8642 1.03489ZM65.7292 10.9799C64.2458 12.1903 63.1727 11.8433 62.7579 12.9676C62.281 14.2911 61.6093 14.8287 61.3333 14.6341C60.6359 14.1111 61.2521 12.8161 62.246 11.9155C63.5421 10.7588 63.5323 10.8598 63.9432 10.2959C64.6571 9.31196 65.5203 9.50783 65.7259 9.67498C66.4808 10.2737 65.7701 10.9563 65.7292 10.9799Z" fill="#DB0007"/>
<g clip-path="url(#clip2_4417_43187)">
<path d="M38.4952 49.8049C37.7665 48.5427 38.199 46.9288 39.4611 46.2001L94.3094 14.5334C95.5716 13.8047 97.1855 14.2372 97.9142 15.4993C98.6429 16.7615 98.2105 18.3754 96.9483 19.1041L42.1 50.7708C40.8379 51.4995 39.2239 51.067 38.4952 49.8049Z" fill="#F1F1F1"/>
</g>
<path d="M84.7685 -41.7787L84.9558 -41.8801C86.9078 -42.879 89.3212 -42.1821 90.43 -40.2617L119.286 9.71742C120.43 11.6997 119.751 14.2344 117.768 15.379L41.8086 59.2344C39.8263 60.3788 37.2916 59.6997 36.1471 57.7174L7.2916 7.73829C6.1472 5.75598 6.82637 3.22128 8.8086 2.07675L84.7685 -41.7787Z" stroke="#F1F1F1"/>
</g>
<rect x="5.31699" y="4.31699" width="96" height="64.6128" rx="3.98624" transform="rotate(-30 5.31699 4.31699)" stroke="#F1F1F1"/>
<rect x="106.832" y="179.143" width="95" height="63.6128" rx="3.48624" transform="rotate(-30 106.832 179.143)" fill="white"/>
<path d="M185.796 133.2L185.983 133.098C187.935 132.099 190.349 132.796 191.457 134.717L218.813 182.098C219.957 184.08 219.278 186.615 217.296 187.759L141.336 231.615C139.354 232.759 136.819 232.08 135.674 230.098L108.319 182.717C107.175 180.734 107.854 178.2 109.836 177.055L185.796 133.2Z" stroke="#F1F1F1"/>
<mask id="path-26-outside-1_4417_43187" maskUnits="userSpaceOnUse" x="72.966" y="74.4844" width="115.138" height="103.426" fill="black">
<rect fill="white" x="72.966" y="74.4844" width="115.138" height="103.426"/>
<path d="M75.5583 124.974C74.6049 123.323 75.1707 121.212 76.8219 120.258L152.317 76.671C153.968 75.7176 156.08 76.2834 157.033 77.9346L185.105 126.556C186.058 128.207 185.492 130.318 183.841 131.272L108.346 174.859C106.694 175.812 104.583 175.246 103.63 173.595L75.5583 124.974Z"/>
</mask>
<path d="M75.5583 124.974C74.6049 123.323 75.1707 121.212 76.8219 120.258L152.317 76.671C153.968 75.7176 156.08 76.2834 157.033 77.9346L185.105 126.556C186.058 128.207 185.492 130.318 183.841 131.272L108.346 174.859C106.694 175.812 104.583 175.246 103.63 173.595L75.5583 124.974Z" fill="white"/>
<path d="M73.832 121.984L155.307 74.9447L73.832 121.984ZM186.831 129.545L105.356 176.585L186.831 129.545ZM108.346 174.859C106.216 176.088 103.493 175.359 102.263 173.229L75.1922 126.34C73.9627 124.211 74.6924 121.488 76.8219 120.258C75.649 120.935 75.4709 122.823 76.4243 124.474L104.496 173.095C105.449 174.746 107.173 175.536 108.346 174.859ZM155.307 74.9447L186.831 129.545L155.307 74.9447Z" fill="#F1F1F1" mask="url(#path-26-outside-1_4417_43187)"/>
<g clip-path="url(#clip3_4417_43187)">
<path d="M137.294 92.5058C136.75 92.3601 136.283 92.409 136.106 92.4267C135.816 92.458 135.551 92.5609 135.29 92.7302L133.629 93.8511L133.609 93.8457C133.589 93.8403 133.568 93.8349 133.548 93.8295L130.967 93.225C130.156 93.0293 129.324 93.3937 128.91 94.1311C128.874 94.1866 126.368 98.5397 124.093 102.519C119.548 101.345 116.843 100.881 115.332 100.716C113.801 100.545 112.286 101.444 111.432 103.02L107.337 110.645C106.569 110.852 105.816 111.325 105.415 112.175C105.215 112.599 105.123 112.944 105.032 113.203C105.016 113.264 104.994 113.345 104.983 113.386C104.957 113.4 104.926 113.436 104.895 113.471C104.55 113.792 103.654 114.639 103.932 116.018C104.029 116.545 104.36 117.242 105.728 118.262L101.363 147.934C101.156 149.271 101.598 150.52 102.63 151.428C103.885 152.547 106.596 154.6 110.747 155.712C114.918 156.83 118.565 156.437 120.384 156.098C121.771 155.839 122.825 154.968 123.33 153.646L134.09 125.905C135.277 125.744 135.957 125.383 136.364 124.752C136.927 123.859 136.7 123.015 136.609 122.708C136.614 122.688 136.6 122.662 136.585 122.636C136.607 122.555 136.656 122.372 136.688 122.251C136.893 121.566 137.296 120.304 136.458 119.079C136.321 118.868 136.177 118.677 136.029 118.507L136.53 109.462C136.615 107.854 135.846 106.452 134.571 105.892C134.245 105.74 133.873 105.597 133.466 105.422L137.555 99.7535C137.836 99.3502 137.971 98.8429 137.884 98.3627C139.035 96.8876 139.462 95.697 139.234 94.6136C139.026 93.5356 138.301 92.7758 137.294 92.5058Z" fill="white"/>
<path d="M126.982 97.1571C126.954 96.858 126.768 95.2428 126.114 94.8197C125.461 94.3966 124.906 95.1049 124.906 95.1049L124.502 97.1579C124.502 97.1579 124.977 96.9804 125.278 97.2921C125.578 97.6039 125.42 98.3741 125.42 98.3741L123.603 98.3558L121.351 99.7533C121.351 99.7533 122.951 105.695 123.892 109.203C124.875 108.611 127.058 107.302 129.014 106.392L127.715 98.3839L127.135 98.5486C127.171 98.5277 127.028 97.4458 126.982 97.1571Z" fill="#D6D1CA"/>
<path d="M120.045 122.317C120.287 122.444 120.277 122.886 120.049 123.285C119.822 123.683 119.442 123.902 119.208 123.746C118.966 123.619 118.976 123.177 119.203 122.778C119.423 122.409 119.803 122.19 120.045 122.317ZM131.695 120.467C131.544 121.039 131.766 121.59 132.166 121.699C132.566 121.808 133.03 121.443 133.181 120.87C133.332 120.298 133.111 119.747 132.711 119.638C132.311 119.529 131.847 119.894 131.695 120.467Z" fill="#DB0007"/>
<path d="M122.08 120.244C122.198 120.031 122.56 119.991 122.852 120.163C123.144 120.334 123.304 120.654 123.168 120.878C123.051 121.091 122.688 121.131 122.397 120.959C122.105 120.788 121.944 120.468 122.08 120.244ZM120.338 126.782C120.736 127.012 121.21 126.957 121.379 126.666C121.548 126.374 121.361 125.924 120.944 125.704C120.546 125.473 120.072 125.528 119.903 125.82C119.734 126.111 119.922 126.561 120.338 126.782ZM134.98 118.013C135.543 117.736 135.824 117.137 135.59 116.69C135.356 116.243 134.719 116.101 134.149 116.406C133.586 116.683 133.305 117.281 133.539 117.728C133.763 118.157 134.417 118.289 134.98 118.013Z" fill="#FBB900"/>
<path d="M143.574 116.085C143.106 115.482 142.922 114.496 142.117 114.354C141.331 114.202 140.935 114.309 140.935 114.309L134.329 106.915C133.786 106.307 133.068 106.066 132.492 106.278C131.249 106.753 128.681 107.896 123.929 110.639C119.322 113.299 116.922 115.024 115.744 115.947C115.146 116.413 114.943 117.355 115.228 118.307L117.998 127.528C117.998 127.528 117.156 128.281 117.405 128.962C117.653 129.643 117.972 129.944 118.051 130.457C118.13 130.969 117.901 131.49 118.33 131.775C118.838 132.113 123 131.894 132.81 126.23C142.584 120.587 144.631 117.415 144.54 117.007C144.449 116.599 144.043 116.688 143.574 116.085ZM130.452 123.564C123.352 127.663 119.357 128.296 119.357 128.296C117.984 125.668 117.541 123.231 119.138 121.533C122.087 118.422 124.902 118.083 126.4 117.922L126.735 119.087C125.922 119.265 125.04 119.532 124.519 119.881C123 120.879 123.92 122.265 127.1 120.429L124.635 111.736L129.755 109.047L131.296 116.599C132.357 115.307 133.332 113.992 133.989 113.419C135.913 111.702 138.333 112.682 139.132 113.482C139.932 114.282 140.918 115.532 140.918 115.532C140.918 115.532 138.257 119.058 130.452 123.564Z" fill="#D6D1CA"/>
</g>
<path d="M105.707 166.32C105.155 165.363 105.73 163.997 106.992 163.268L161.841 131.602C163.103 130.873 164.574 131.058 165.126 132.014C165.678 132.971 165.103 134.337 163.841 135.066L108.992 166.733C107.73 167.461 106.259 167.277 105.707 166.32Z" fill="#F1F1F1"/>
<path d="M152.964 76.3346L153.151 76.2332C155.103 75.2342 157.517 75.9312 158.625 77.8516L185.981 125.233C187.125 127.215 186.446 129.75 184.464 130.894L108.504 174.75C106.522 175.894 103.987 175.215 102.842 173.233L75.4869 125.852C74.3425 123.869 75.0217 121.335 77.0039 120.19L152.964 76.3346Z" stroke="#F1F1F1"/>
<rect x="40" y="63.0391" width="94.0793" height="63.0474" rx="3.45245" transform="rotate(-30 40 63.0391)" fill="white"/>
<g clip-path="url(#clip4_4417_43187)">
<path d="M56.1833 83.649C55.8606 83.7355 55.5986 83.9806 55.4939 84.3031L55.4962 84.3117C54.8299 84.5087 54.3813 85.1443 54.4164 85.8528L54.4861 87.132L54.4521 87.1411C54.1294 87.2275 53.5826 87.5305 53.5863 88.5972C53.5872 88.9744 53.6576 89.3052 53.6607 89.3505C53.7318 89.718 54.0485 89.9829 54.4158 89.9949C54.4351 89.9989 54.4969 89.9916 54.5972 89.9923C55.7415 92.8704 60.1184 103.838 60.2706 104.202C60.5327 104.841 61.3162 105.183 62.6063 105.242C63.638 105.288 64.8536 105.137 66.0171 104.825C67.1635 104.518 68.3358 104.002 69.2504 103.407C70.3906 102.669 70.9064 101.978 70.8142 101.294C70.7418 100.752 69.1312 90.3595 68.4927 86.2782C68.6155 86.2269 68.6873 86.1893 68.6873 86.1893C69.0194 86.0359 69.2044 85.6733 69.1333 85.3058C69.0835 85.0522 68.8619 84.1912 68.2483 83.8034C67.9954 83.641 67.7107 83.5976 67.4367 83.6619C67.2519 83.38 67.0385 83.1611 66.852 83.0085C66.5808 82.7775 66.2329 82.6682 65.8841 82.7249L57.4691 84.0316L56.8592 83.7256C56.6734 83.6097 56.4211 83.5853 56.1833 83.649Z" fill="white"/>
<path d="M54.4459 89.1942C54.4459 89.1942 54.2163 88.0316 54.6664 87.911C55.125 87.7881 55.3203 87.7358 55.3203 87.7358L55.2123 85.8042C55.1944 85.4316 55.4465 85.1156 55.8039 85.0566L56.0995 85.005L56.2531 84.5589C56.2934 84.4377 56.4309 84.3732 56.5473 84.4341L57.3792 84.8554L66.0389 83.5107C66.1601 83.4875 66.2804 83.5289 66.3652 83.6074C66.5648 83.7748 66.896 84.1279 67.048 84.5934C67.048 84.5934 67.3453 84.5137 67.634 84.4363C67.9227 84.359 68.2552 84.8866 68.3731 85.4625C68.3731 85.4625 65.8625 86.623 61.4975 87.7926C56.088 89.2421 54.4459 89.1942 54.4459 89.1942Z" fill="#502C1D"/>
<path d="M55.3359 89.6562C55.3359 89.6562 60.8594 103.51 61.0162 103.892C61.2561 104.481 63.5068 104.66 65.8251 104.039C68.1435 103.418 70.1259 101.985 70.0459 101.38C69.9659 100.776 67.7176 86.3386 67.7176 86.3386C67.7176 86.3386 65.9312 87.213 61.5153 88.3963C57.7409 89.426 55.3359 89.6562 55.3359 89.6562Z" fill="#FBB900"/>
<path d="M65.7013 100.628C65.9175 100.552 66.3528 101.429 66.6681 102.606C66.7739 102.559 66.8712 102.515 66.977 102.468C66.6387 101.205 66.056 100.322 65.6576 100.465C65.4329 100.544 65.3119 100.908 65.3072 101.433C65.0425 100.989 64.7558 100.734 64.5196 100.77C64.1113 100.843 64.0401 101.902 64.3784 103.164C64.4934 103.152 64.5999 103.142 64.7149 103.129C64.3996 101.953 64.3295 100.977 64.5634 100.933C64.7888 100.891 65.2126 101.726 65.5025 102.808C65.6129 102.778 65.7148 102.751 65.8252 102.721C65.5353 101.639 65.4851 100.705 65.7013 100.628Z" fill="#F4A800"/>
<path d="M58.0388 54.8638C57.7161 54.9503 57.4541 55.1954 57.3494 55.518L57.3517 55.5266C56.6854 55.7235 56.2368 56.3592 56.2719 57.0677L56.3416 58.3468L56.3076 58.3559C55.9849 58.4424 55.4381 58.7454 55.4417 59.8121C55.4427 60.1892 55.5131 60.5201 55.5161 60.5653C55.5873 60.9328 55.904 61.1977 56.2713 61.2097C56.2906 61.2138 56.3524 61.2064 56.4527 61.2072C57.597 64.0852 61.9739 75.0528 62.1261 75.417C62.3882 76.0555 63.1716 76.3978 64.4618 76.4571C65.4935 76.5028 66.7091 76.352 67.8725 76.0402C69.019 75.7331 70.1912 75.2165 71.1059 74.6216C72.2461 73.8835 72.7619 73.193 72.6697 72.509C72.5972 71.967 70.9867 61.5743 70.3482 57.4931C70.471 57.4418 70.5428 57.4041 70.5428 57.4041C70.8749 57.2507 71.0599 56.8882 70.9887 56.5207C70.939 56.2671 70.7174 55.406 70.1037 55.0182C69.8509 54.8559 69.5662 54.8125 69.2922 54.8767C69.1074 54.5949 68.894 54.3759 68.7075 54.2234C68.4363 53.9923 68.0884 53.883 67.7395 53.9397L59.3245 55.2465L58.7146 54.9405C58.5289 54.8246 58.2765 54.8001 58.0388 54.8638Z" fill="white"/>
<path d="M56.3014 60.4091C56.3014 60.4091 56.0718 59.2464 56.5219 59.1258C56.9805 59.003 57.1758 58.9506 57.1758 58.9506L57.0678 57.0191C57.0499 56.6465 57.302 56.3304 57.6594 56.2715L57.955 56.2199L58.1085 55.7738C58.1488 55.6525 58.2863 55.5881 58.4027 55.6489L59.2347 56.0703L67.8944 54.7256C68.0156 54.7023 68.1359 54.7437 68.2206 54.8222C68.4202 54.9897 68.7515 55.3427 68.9035 55.8082C68.9035 55.8082 69.2007 55.7286 69.4895 55.6512C69.7782 55.5738 70.1107 56.1014 70.2286 56.6773C70.2286 56.6773 67.718 57.8378 63.353 59.0074C57.9435 60.4569 56.3014 60.4091 56.3014 60.4091Z" fill="#502C1D"/>
<path d="M57.1914 60.8711C57.1914 60.8711 62.7149 74.7253 62.8717 75.1067C63.1115 75.6959 65.3622 75.8752 67.6806 75.254C69.999 74.6328 71.9814 73.1996 71.9014 72.5952C71.8213 71.9907 69.573 57.5535 69.573 57.5535C69.573 57.5535 67.7867 58.4279 63.3708 59.6111C59.5963 60.6409 57.1914 60.8711 57.1914 60.8711Z" fill="#FBB900"/>
<path d="M67.5568 71.8431C67.773 71.7668 68.2083 72.6442 68.5236 73.8207C68.6294 73.774 68.7267 73.7295 68.8325 73.6827C68.4942 72.4203 67.9115 71.5364 67.513 71.68C67.2884 71.7586 67.1674 72.1223 67.1627 72.6483C66.8979 72.2037 66.6113 71.9492 66.3751 71.9849C65.9668 72.0575 65.8956 73.1166 66.2338 74.379C66.3488 74.3666 66.4554 74.3565 66.5704 74.3441C66.2551 73.1676 66.1849 72.1923 66.4188 72.148C66.6442 72.1061 67.0681 72.9405 67.358 74.0226C67.4684 73.993 67.5703 73.9657 67.6807 73.9361C67.3908 72.8541 67.3406 71.9195 67.5568 71.8431Z" fill="#F4A800"/>
<path d="M85.6247 66.649C85.302 66.7355 85.04 66.9806 84.9353 67.3031L84.9376 67.3117C84.2713 67.5087 83.8227 68.1443 83.8578 68.8528L83.9275 70.132L83.8935 70.1411C83.5708 70.2275 83.024 70.5305 83.0277 71.5972C83.0286 71.9744 83.099 72.3052 83.1021 72.3505C83.1732 72.718 83.49 72.9829 83.8573 72.9949C83.8765 72.9989 83.9383 72.9916 84.0386 72.9923C85.183 75.8704 89.5598 86.838 89.712 87.2022C89.9741 87.8407 90.7576 88.183 92.0477 88.2423C93.0794 88.288 94.295 88.1371 95.4585 87.8254C96.6049 87.5182 97.7772 87.0016 98.6918 86.4068C99.832 85.6687 100.348 84.9782 100.256 84.2942C100.183 83.7521 98.5726 73.3595 97.9341 69.2782C98.0569 69.2269 98.1287 69.1893 98.1287 69.1893C98.4608 69.0359 98.6458 68.6733 98.5747 68.3058C98.5249 68.0522 98.3033 67.1912 97.6897 66.8034C97.4368 66.641 97.1521 66.5976 96.8781 66.6619C96.6933 66.38 96.48 66.1611 96.2935 66.0085C96.0222 65.7775 95.6744 65.6682 95.3255 65.7249L86.9105 67.0316L86.3006 66.7256C86.1148 66.6097 85.8625 66.5853 85.6247 66.649Z" fill="white"/>
<path d="M83.8913 72.1942C83.8913 72.1942 83.6617 71.0316 84.1117 70.911C84.5703 70.7881 84.7656 70.7358 84.7656 70.7358L84.6577 68.8042C84.6397 68.4316 84.8918 68.1156 85.2492 68.0566L85.5448 68.005L85.6984 67.5589C85.7387 67.4377 85.8762 67.3732 85.9926 67.4341L86.8245 67.8554L95.4842 66.5107C95.6054 66.4875 95.7257 66.5289 95.8105 66.6074C96.0101 66.7748 96.3413 67.1279 96.4933 67.5934C96.4933 67.5934 96.7906 67.5137 97.0793 67.4363C97.368 67.359 97.7005 67.8866 97.8185 68.4625C97.8185 68.4625 95.3078 69.623 90.9428 70.7926C85.5333 72.2421 83.8913 72.1942 83.8913 72.1942Z" fill="#502C1D"/>
<path d="M84.7812 72.6562C84.7812 72.6562 90.3048 86.5105 90.4616 86.8919C90.7014 87.4811 92.9521 87.6604 95.2704 87.0392C97.5888 86.418 99.5713 84.9848 99.4912 84.3803C99.4112 83.7759 97.1629 69.3386 97.1629 69.3386C97.1629 69.3386 95.3765 70.213 90.9606 71.3963C87.1862 72.426 84.7812 72.6562 84.7812 72.6562Z" fill="#FBB900"/>
<path d="M95.1466 83.6283C95.3628 83.552 95.7982 84.4294 96.1134 85.6059C96.2192 85.5591 96.3165 85.5146 96.4223 85.4679C96.084 84.2055 95.5013 83.3216 95.1029 83.4651C94.8782 83.5437 94.7572 83.9075 94.7525 84.4334C94.4878 83.9889 94.2011 83.7344 93.9649 83.77C93.5566 83.8426 93.4854 84.9018 93.8237 86.1642C93.9387 86.1518 94.0452 86.1416 94.1602 86.1292C93.845 84.9527 93.7748 83.9775 94.0087 83.9332C94.2341 83.8912 94.6579 84.7257 94.9478 85.8077C95.0582 85.7782 95.1601 85.7508 95.2705 85.7213C94.9806 84.6392 94.9304 83.7046 95.1466 83.6283Z" fill="#F4A800"/>
<path d="M87.4841 37.8638C87.1614 37.9503 86.8994 38.1954 86.7947 38.518L86.797 38.5266C86.1307 38.7235 85.6821 39.3592 85.7172 40.0677L85.7869 41.3468L85.7529 41.3559C85.4302 41.4424 84.8834 41.7454 84.887 42.8121C84.888 43.1892 84.9584 43.5201 84.9614 43.5653C85.0326 43.9328 85.3493 44.1977 85.7166 44.2097C85.7359 44.2138 85.7977 44.2064 85.898 44.2072C87.0423 47.0852 91.4192 58.0528 91.5714 58.417C91.8335 59.0555 92.617 59.3978 93.9071 59.4571C94.9388 59.5028 96.1544 59.352 97.3179 59.0402C98.4643 58.7331 99.6365 58.2165 100.551 57.6216C101.691 56.8835 102.207 56.193 102.115 55.509C102.043 54.967 100.432 44.5743 99.7935 40.4931C99.9163 40.4418 99.9881 40.4041 99.9881 40.4041C100.32 40.2507 100.505 39.8882 100.434 39.5207C100.384 39.2671 100.163 38.406 99.549 38.0182C99.2962 37.8559 99.0115 37.8125 98.7375 37.8767C98.5527 37.5949 98.3393 37.3759 98.1528 37.2234C97.8816 36.9923 97.5337 36.883 97.1848 36.9397L88.7698 38.2465L88.16 37.9405C87.9742 37.8246 87.7219 37.8001 87.4841 37.8638Z" fill="white"/>
<path d="M85.7467 43.4091C85.7467 43.4091 85.5171 42.2464 85.9672 42.1258C86.4258 42.003 86.6211 41.9506 86.6211 41.9506L86.5131 40.0191C86.4952 39.6465 86.7473 39.3304 87.1047 39.2715L87.4003 39.2199L87.5538 38.7738C87.5942 38.6525 87.7316 38.5881 87.8481 38.6489L88.68 39.0703L97.3397 37.7256C97.4609 37.7023 97.5812 37.7437 97.6659 37.8222C97.8655 37.9897 98.1968 38.3427 98.3488 38.8082C98.3488 38.8082 98.646 38.7286 98.9348 38.6512C99.2235 38.5738 99.556 39.1014 99.6739 39.6773C99.6739 39.6773 97.1633 40.8378 92.7983 42.0074C87.3888 43.4569 85.7467 43.4091 85.7467 43.4091Z" fill="#502C1D"/>
<path d="M86.6367 43.8711C86.6367 43.8711 92.1602 57.7253 92.317 58.1067C92.5568 58.6959 94.8075 58.8752 97.1259 58.254C99.4443 57.6328 101.427 56.1996 101.347 55.5952C101.267 54.9907 99.0183 40.5534 99.0183 40.5534C99.0183 40.5534 97.232 41.4279 92.8161 42.6111C89.0416 43.6409 86.6367 43.8711 86.6367 43.8711Z" fill="#FBB900"/>
<path d="M97.0021 54.8431C97.2183 54.7668 97.6536 55.6442 97.9689 56.8207C98.0747 56.774 98.172 56.7295 98.2778 56.6827C97.9395 55.4203 97.3568 54.5364 96.9584 54.68C96.7337 54.7586 96.6127 55.1223 96.608 55.6483C96.3433 55.2037 96.0566 54.9492 95.8204 54.9849C95.4121 55.0575 95.3409 56.1166 95.6792 57.379C95.7942 57.3666 95.9007 57.3565 96.0157 57.3441C95.7004 56.1676 95.6302 55.1923 95.8641 55.148C96.0895 55.1061 96.5134 55.9405 96.8033 57.0226C96.9137 56.993 97.0156 56.9657 97.126 56.9361C96.8361 55.8541 96.7859 54.9195 97.0021 54.8431Z" fill="#F4A800"/>
<path d="M115.07 49.649C114.747 49.7355 114.485 49.9806 114.381 50.3031L114.383 50.3117C113.717 50.5087 113.268 51.1443 113.303 51.8528L113.373 53.132L113.339 53.1411C113.016 53.2275 112.469 53.5305 112.473 54.5972C112.474 54.9744 112.544 55.3052 112.547 55.3505C112.619 55.718 112.935 55.9829 113.303 55.9949C113.322 55.9989 113.384 55.9916 113.484 55.9923C114.628 58.8704 119.005 69.838 119.157 70.2022C119.419 70.8407 120.203 71.183 121.493 71.2423C122.525 71.288 123.74 71.1371 124.904 70.8254C126.05 70.5182 127.222 70.0016 128.137 69.4068C129.277 68.6687 129.793 67.9782 129.701 67.2942C129.628 66.7521 128.018 56.3595 127.379 52.2782C127.502 52.2269 127.574 52.1893 127.574 52.1893C127.906 52.0359 128.091 51.6733 128.02 51.3058C127.97 51.0522 127.749 50.1912 127.135 49.8034C126.882 49.641 126.597 49.5976 126.323 49.6619C126.139 49.38 125.925 49.1611 125.739 49.0085C125.468 48.7775 125.12 48.6682 124.771 48.7249L116.356 50.0316L115.746 49.7256C115.56 49.6097 115.308 49.5853 115.07 49.649Z" fill="white"/>
<path d="M113.337 55.1942C113.337 55.1942 113.107 54.0316 113.557 53.911C114.016 53.7881 114.211 53.7358 114.211 53.7358L114.103 51.8042C114.085 51.4316 114.337 51.1156 114.695 51.0566L114.99 51.005L115.144 50.5589C115.184 50.4377 115.321 50.3732 115.438 50.4341L116.27 50.8554L124.93 49.5107C125.051 49.4875 125.171 49.5289 125.256 49.6074C125.455 49.7748 125.787 50.1279 125.939 50.5934C125.939 50.5934 126.236 50.5137 126.525 50.4363C126.813 50.359 127.146 50.8866 127.264 51.4625C127.264 51.4625 124.753 52.623 120.388 53.7926C114.979 55.2421 113.337 55.1942 113.337 55.1942Z" fill="#502C1D"/>
<path d="M114.227 55.6562C114.227 55.6562 119.75 69.5105 119.907 69.8919C120.147 70.4811 122.397 70.6604 124.716 70.0392C127.034 69.418 129.017 67.9848 128.937 67.3803C128.856 66.7759 126.608 52.3386 126.608 52.3386C126.608 52.3386 124.822 53.213 120.406 54.3963C116.631 55.426 114.227 55.6562 114.227 55.6562Z" fill="#FBB900"/>
<path d="M116.925 20.8638C116.603 20.9503 116.341 21.1954 116.236 21.518L116.238 21.5266C115.572 21.7235 115.123 22.3592 115.159 23.0677L115.228 24.3468L115.194 24.3559C114.872 24.4424 114.325 24.7454 114.328 25.8121C114.329 26.1892 114.4 26.5201 114.403 26.5653C114.474 26.9328 114.791 27.1977 115.158 27.2097C115.177 27.2138 115.239 27.2064 115.339 27.2072C116.484 30.0852 120.861 41.0528 121.013 41.417C121.275 42.0555 122.058 42.3978 123.349 42.4571C124.38 42.5028 125.596 42.352 126.759 42.0402C127.906 41.7331 129.078 41.2165 129.993 40.6216C131.133 39.8835 131.649 39.193 131.556 38.509C131.484 37.967 129.873 27.5743 129.235 23.4931C129.358 23.4418 129.43 23.4041 129.43 23.4041C129.762 23.2507 129.947 22.8882 129.875 22.5207C129.826 22.2671 129.604 21.406 128.99 21.0182C128.738 20.8559 128.453 20.8125 128.179 20.8767C127.994 20.5949 127.781 20.3759 127.594 20.2234C127.323 19.9923 126.975 19.883 126.626 19.9397L118.211 21.2465L117.601 20.9405C117.416 20.8246 117.163 20.8001 116.925 20.8638Z" fill="white"/>
<path d="M115.192 26.4091C115.192 26.4091 114.962 25.2464 115.413 25.1258C115.871 25.003 116.066 24.9506 116.066 24.9506L115.958 23.0191C115.941 22.6465 116.193 22.3304 116.55 22.2715L116.846 22.2199L116.999 21.7738C117.039 21.6525 117.177 21.5881 117.293 21.6489L118.125 22.0703L126.785 20.7256C126.906 20.7023 127.026 20.7437 127.111 20.8222C127.311 20.9897 127.642 21.3427 127.794 21.8082C127.794 21.8082 128.091 21.7286 128.38 21.6512C128.669 21.5738 129.001 22.1014 129.119 22.6773C129.119 22.6773 126.609 23.8378 122.244 25.0074C116.834 26.4569 115.192 26.4091 115.192 26.4091Z" fill="#502C1D"/>
<path d="M116.082 26.8711C116.082 26.8711 121.606 40.7253 121.762 41.1067C122.002 41.6959 124.253 41.8752 126.571 41.254C128.89 40.6328 130.872 39.1996 130.792 38.5952C130.712 37.9907 128.464 23.5534 128.464 23.5534C128.464 23.5534 126.677 24.4279 122.261 25.6111C118.487 26.6409 116.082 26.8711 116.082 26.8711Z" fill="#FBB900"/>
</g>
<path d="M71.875 107.375C71.3227 106.418 71.6505 105.195 72.6071 104.643L128.562 72.337C129.518 71.7847 130.742 72.1125 131.294 73.0691C131.846 74.0257 131.518 75.2488 130.562 75.8011L74.6071 108.107C73.6505 108.659 72.4273 108.331 71.875 107.375Z" fill="#F1F1F1"/>
<path d="M119.155 17.4303L119.343 17.3289C121.295 16.3299 123.708 17.0269 124.817 18.9473L152.172 66.3283C153.317 68.3106 152.637 70.8453 150.655 71.9899L74.6953 115.845C72.713 116.99 70.1783 116.311 69.0338 114.328L41.6783 66.9473C40.5339 64.965 41.2131 62.4303 43.1953 61.2857L119.155 17.4303Z" stroke="#F1F1F1"/>
</g>
<defs>
<clipPath id="clip0_4417_43187">
<rect width="120" height="200" fill="white"/>
</clipPath>
<clipPath id="clip1_4417_43187">
<rect x="6" y="4.5" width="95" height="63.6128" rx="3.48624" transform="rotate(-30 6 4.5)" fill="white"/>
</clipPath>
<clipPath id="clip2_4417_43187">
<rect width="95" height="16.2581" fill="white" transform="translate(29.6758 45.5098) rotate(-30)"/>
</clipPath>
<clipPath id="clip3_4417_43187">
<rect width="94.0793" height="46.8958" fill="white" transform="translate(73.832 121.984) rotate(-30)"/>
</clipPath>
<clipPath id="clip4_4417_43187">
<rect width="94.0793" height="46.8958" fill="white" transform="translate(40 63.0391) rotate(-30)"/>
</clipPath>
</defs>
</svg>
