<svg width="27" height="18" viewBox="0 0 27 18" fill="none" xmlns="http://www.w3.org/2000/svg">
<g clip-path="url(#clip0_109_43722)">
<path d="M0 0H27V18.0002H0V0Z" fill="#FFDA44"/>
<path d="M0 0H13.5V8.9998H0V0Z" fill="white"/>
<path d="M7.59375 0H5.90625V3.65623H0V5.34373H5.90625V9.00001H7.59375V5.34373H13.5V3.65623H7.59375V0Z" fill="#D80027"/>
<path d="M0 0V0.795393L3.02574 2.81253H4.21875L0 0Z" fill="#D80027"/>
<path d="M0 1.19285V2.81243H2.42942L0 1.19285ZM5.0625 0V2.57939L1.19327 0H5.0625Z" fill="#2E52B2"/>
<path d="M13.5 0V0.795393L10.4743 2.81254H9.28125L13.5 0Z" fill="#D80027"/>
<path d="M13.5 1.19285V2.81243H11.0706L13.5 1.19285ZM8.4375 0V2.5794L12.3067 0H8.4375Z" fill="#2E52B2"/>
<path d="M0 0V0.795393L3.02574 2.81253H4.21875L0 0Z" fill="#D80027"/>
<path d="M0 1.19285V2.81243H2.42942L0 1.19285ZM5.0625 0V2.57939L1.19327 0H5.0625Z" fill="#2E52B2"/>
<path d="M13.5 0V0.795393L10.4743 2.81254H9.28125L13.5 0Z" fill="#D80027"/>
<path d="M13.5 1.19285V2.81243H11.0706L13.5 1.19285ZM8.4375 0V2.5794L12.3067 0H8.4375Z" fill="#2E52B2"/>
<path d="M0 9.00003V8.20469L3.02574 6.1875H4.21875L0 9.00003Z" fill="#D80027"/>
<path d="M0 7.80713V6.1875H2.42942L0 7.80713ZM5.0625 8.99987V6.42053L1.19327 8.99987H5.0625Z" fill="#2E52B2"/>
<path d="M13.5 9.00003V8.20469L10.4743 6.1875H9.28125L13.5 9.00003Z" fill="#D80027"/>
<path d="M13.5 7.80713V6.1875H11.0706L13.5 7.80713ZM8.4375 8.99987V6.42053L12.3067 8.99987H8.4375Z" fill="#2E52B2"/>
<path d="M6.75181 5.69114C7.41081 5.69114 7.94503 5.15691 7.94503 4.49791C7.94503 3.83891 7.41081 3.30469 6.75181 3.30469C6.09282 3.30469 5.55859 3.83891 5.55859 4.49791C5.55859 5.15691 6.09282 5.69114 6.75181 5.69114Z" fill="#2E52B2"/>
<path d="M6.75122 3.65476L6.96058 4.29928H7.63843L7.09009 4.69774L7.2995 5.34226L6.75122 4.9439L6.20289 5.34226L6.41235 4.69774L5.86402 4.29928H6.54181L6.75122 3.65476ZM6.75122 7.08987L6.87589 7.47367H7.27946L6.95304 7.71087L7.0777 8.09467L6.75122 7.85747L6.42474 8.09467L6.54941 7.71087L6.22298 7.47367H6.6265L6.75122 7.08987ZM6.75122 0.902344L6.87589 1.28614H7.27946L6.95304 1.52334L7.0777 1.90714L6.75122 1.66994L6.42474 1.90714L6.54941 1.52334L6.22298 1.28614H6.6265L6.75122 0.902344ZM10.439 3.99611L10.5637 4.37985H10.9673L10.6408 4.61711L10.7655 5.00096L10.439 4.76376L10.1125 5.00096L10.2372 4.61711L9.91075 4.37985H10.3143L10.439 3.99611ZM3.06345 3.99611L3.18811 4.37985H3.59169L3.26521 4.61711L3.38988 5.00096L3.06345 4.76376L2.73697 5.00096L2.86169 4.61711L2.53516 4.37985H2.93873L3.06345 3.99611Z" fill="#FFDA44"/>
</g>
<rect x="0.5" y="0.5" width="26" height="17" rx="0.5" stroke="black" stroke-opacity="0.2"/>
<defs>
<clipPath id="clip0_109_43722">
<rect width="27" height="18" rx="1" fill="white"/>
</clipPath>
</defs>
</svg>
