<svg width="375" height="225" viewBox="0 0 375 225" fill="none" xmlns="http://www.w3.org/2000/svg">
<g clip-path="url(#clip0_102_69593)">
<path d="M184.5 4C262.096 4 325 66.904 325 144.5C325 163.443 321.249 181.51 314.453 198H54.5469C47.7506 181.51 44 163.443 44 144.5C44 66.904 106.904 4 184.5 4Z" fill="#DCEDF4"/>
<ellipse cx="184" cy="203" rx="153" ry="14" fill="#A0A09F" fill-opacity="0.15"/>
<path d="M316 97V124H264L264.005 97H316Z" fill="#FFBC0D"/>
<path d="M190.926 120H77V97H191L190.926 120Z" fill="#FFBC0D"/>
<path d="M191 99L190.97 108H77V99H191Z" fill="black" fill-opacity="0.1"/>
<path d="M316 99V108H264L264.002 99H316Z" fill="black" fill-opacity="0.1"/>
<path d="M264 124H287V203H264V124Z" fill="#F9F9F9"/>
<path d="M288 124H316V203H288V124Z" fill="#F9F9F9"/>
<path d="M191 89L190.967 98.999L73.8004 99C72.8061 99 72 98.1942 72 97.2002V90.8008C72 89.8068 72.8061 89.001 73.8004 89.001L191 89Z" fill="#FFBC0D"/>
<path d="M318.212 89.001C319.2 89.001 320 89.8068 320 90.8008V97.2002C320 98.1942 319.2 99 318.212 99L264 98.999L264.002 89L318.212 89.001Z" fill="#FFBC0D"/>
<path d="M260.5 74.5234L260.473 202.998H194.569L194.5 74.5234L260.5 74.5234Z" fill="#F1F1F1"/>
<path d="M59.8 124H244.443C245.437 124 246.243 124.806 246.243 125.8V140H58V125.8C58 124.806 58.8059 124 59.8 124Z" fill="#606060"/>
<path d="M195 140H246V203H195V140Z" fill="#D8D8D8"/>
<path d="M109 140H137V203H109V140Z" fill="#F9F9F9"/>
<path d="M138 140H166V203H138V140Z" fill="#F9F9F9"/>
<path d="M167 140H195V203H167V140Z" fill="#F9F9F9"/>
<path d="M218 154H246V203H218V154Z" fill="#F9F9F9"/>
<path d="M58 198H109V204H58V198Z" fill="#A5835B"/>
<path d="M58 192H109V198H58V192Z" fill="#C2945C"/>
<path d="M58 187H109V193H58V187Z" fill="#A5835B"/>
<path d="M58 182H109V188H58V182Z" fill="#C2945C"/>
<path d="M58 177H109V183H58V177Z" fill="#A5835B"/>
<path d="M58 171H109V177H58V171Z" fill="#C2945C"/>
<path d="M58 166H109V172H58V166Z" fill="#A5835B"/>
<path d="M58 161H109V167H58V161Z" fill="#C2945C"/>
<path d="M58 156H109V162H58V156Z" fill="#A5835B"/>
<path d="M58 150H109V156H58V150Z" fill="#C2945C"/>
<path d="M58 145H109V151H58V145Z" fill="#A5835B"/>
<path d="M58 140H109V146H58V140Z" fill="#C2945C"/>
<path d="M136 140H140V203H136V140Z" fill="#D8D8D8"/>
<path d="M286 124H290V203H286V124Z" fill="#D8D8D8"/>
<path d="M312 124H316V203H312V124Z" fill="#D8D8D8"/>
<path d="M165 140H169V203H165V140Z" fill="#D8D8D8"/>
<path d="M218 154H246V160H218V154Z" fill="#A0A09F" fill-opacity="0.15"/>
<path d="M195 140H246V143H195V140Z" fill="#292929" fill-opacity="0.1"/>
<path d="M165 140H169V146H165V140Z" fill="#292929" fill-opacity="0.1"/>
<path d="M136 140H140V146H136V140Z" fill="#292929" fill-opacity="0.1"/>
<path d="M109 140H136V145H109V140Z" fill="#A0A09F" fill-opacity="0.15"/>
<path d="M140 140H165V145H140V140Z" fill="#A0A09F" fill-opacity="0.15"/>
<path d="M169 140H195V145H169V140Z" fill="#A0A09F" fill-opacity="0.15"/>
<path fill-rule="evenodd" clip-rule="evenodd" d="M236.023 86.7959C239.143 86.7959 241.672 99.9528 241.672 116.182H246.195C246.195 98.703 241.64 84.5352 236.023 84.5352C232.826 84.5352 229.975 88.7942 228.111 95.4522C226.247 88.7942 223.396 84.5352 220.2 84.5352C214.584 84.5352 210.027 98.703 210.027 116.182H214.55C214.55 99.9528 217.08 86.7959 220.2 86.7959C223.32 86.7959 225.85 98.9404 225.85 113.921H230.372C230.372 98.9404 232.902 86.7959 236.023 86.7959Z" fill="#FFBC0D"/>
<rect x="63" y="33" width="6" height="170" fill="#F9F9F9"/>
<rect x="66" y="33" width="3" height="170" fill="#F1F1F1"/>
<path d="M66 26C68.2091 26 70 27.7909 70 30C70 31.195 69.4754 32.267 68.6445 33H63.3555C62.5246 32.267 62 31.195 62 30C62 27.7909 63.7909 26 66 26Z" fill="#FFBC0D"/>
<path opacity="0.5" d="M66 26C67.3598 26 68.5605 26.6789 69.2832 27.7158C68.6357 27.2648 67.8489 27 67 27C64.7909 27 63 28.7909 63 31C63 31.8496 63.2659 32.6366 63.7178 33.2842C62.6799 32.5616 62 31.3605 62 30C62 27.7909 63.7909 26 66 26Z" fill="#F9F9F9"/>
<g clip-path="url(#clip1_102_69593)">
<path d="M69 33H124.323V69.882H69V33Z" fill="#0071BC"/>
<path d="M96.6594 67.6665C105.826 67.6665 113.256 60.2358 113.256 51.0696C113.256 41.9033 105.826 34.4727 96.6594 34.4727C87.4932 34.4727 80.0625 41.9033 80.0625 51.0696C80.0625 60.2358 87.4932 67.6665 96.6594 67.6665Z" fill="white"/>
<path fill-rule="evenodd" clip-rule="evenodd" d="M96.6603 34.576C87.5507 34.576 80.1658 41.9608 80.1658 51.0705C80.1658 60.1801 87.5507 67.5649 96.6603 67.5649C105.77 67.5649 113.155 60.1801 113.155 51.0705C113.155 41.9608 105.77 34.576 96.6603 34.576ZM79.9609 51.0705C79.9609 41.8477 87.4375 34.3711 96.6603 34.3711C105.883 34.3711 113.36 41.8477 113.36 51.0705C113.36 60.2933 105.883 67.7699 96.6603 67.7699C87.4375 67.7699 79.9609 60.2933 79.9609 51.0705Z" fill="black"/>
<path d="M96.6593 63.2406C103.381 63.2406 108.83 57.7914 108.83 51.0695C108.83 44.3476 103.381 38.8984 96.6593 38.8984C89.9375 38.8984 84.4883 44.3476 84.4883 51.0695C84.4883 57.7914 89.9375 63.2406 96.6593 63.2406Z" fill="#0071BC"/>
<path fill-rule="evenodd" clip-rule="evenodd" d="M96.6602 39.0018C89.9949 39.0018 84.5916 44.4051 84.5916 51.0704C84.5916 57.7357 89.9949 63.139 96.6602 63.139C103.326 63.139 108.729 57.7357 108.729 51.0704C108.729 44.4051 103.326 39.0018 96.6602 39.0018ZM84.3867 51.0704C84.3867 44.2919 89.8818 38.7969 96.6602 38.7969C103.439 38.7969 108.934 44.2919 108.934 51.0704C108.934 57.8489 103.439 63.3439 96.6602 63.3439C89.8818 63.3439 84.3867 57.8489 84.3867 51.0704Z" fill="black"/>
<path d="M101.805 66.1947C101.856 67.0061 101.229 67.67 100.418 67.67H92.8718C92.0604 67.67 91.4334 67.0061 91.4703 66.1947L92.7022 42.2214C92.7464 41.41 93.4398 40.7461 94.2512 40.7461H98.7803C99.5917 40.7461 100.292 41.41 100.344 42.2214L101.805 66.1947Z" fill="#8C8A8C"/>
<path fill-rule="evenodd" clip-rule="evenodd" d="M92.8054 42.2277C92.8054 42.2277 92.8053 42.2278 92.8053 42.2278L91.5735 66.2002C91.5735 66.2003 91.5735 66.2004 91.5735 66.2005C91.5394 66.9542 92.1206 67.5684 92.8727 67.5684H100.419C101.171 67.5684 101.751 66.9542 101.703 66.2021L101.703 66.2018L100.243 42.2288C100.243 42.2287 100.243 42.2287 100.243 42.2286C100.194 41.4706 99.5379 40.8494 98.7812 40.8494H94.2521C93.4959 40.8494 92.8468 41.47 92.8054 42.2277ZM92.6007 42.2167C92.6479 41.3516 93.3856 40.6445 94.2521 40.6445H98.7812C99.6473 40.6445 100.392 41.351 100.447 42.2158L100.447 42.216L101.908 66.1891C101.908 66.1891 101.908 66.1892 101.908 66.1892C101.963 67.0599 101.289 67.7733 100.419 67.7733H92.8727C92.0021 67.7733 91.3293 67.0599 91.3688 66.1909L91.3689 66.1903H91.3689L92.6007 42.217L92.6007 42.2167Z" fill="black"/>
<path d="M96.5165 41.4102L98.7294 48.2702H105.885L100.131 52.401L102.27 59.1873L96.5165 55.0565L90.7629 59.2611L92.9758 52.401L87.1484 48.1964H94.3036L96.5165 41.4102Z" fill="white"/>
<path fill-rule="evenodd" clip-rule="evenodd" d="M96.5151 41.3047C96.5619 41.3048 96.6032 41.3349 96.6176 41.3794L98.8064 48.1647H105.883C105.93 48.1647 105.971 48.195 105.986 48.2395C106 48.2841 105.984 48.3329 105.946 48.3602L100.256 52.4454L102.371 59.1572C102.385 59.2015 102.369 59.2498 102.332 59.277C102.294 59.3042 102.243 59.3043 102.206 59.2773L96.5155 55.192L90.825 59.3505C90.7873 59.3781 90.7361 59.3782 90.6982 59.3508C90.6603 59.3234 90.6444 59.2748 90.6587 59.2303L92.8476 52.4449L87.0838 48.2863C87.0459 48.2589 87.0299 48.2102 87.0443 48.1657C87.0587 48.1211 87.1001 48.091 87.1469 48.091H94.2238L96.4124 41.3791C96.4269 41.3347 96.4684 41.3046 96.5151 41.3047ZM96.5144 41.7621L94.4046 48.2323C94.3901 48.2766 94.3487 48.3067 94.302 48.3067H87.4807L93.0374 52.3159C93.0753 52.3433 93.0913 52.392 93.0769 52.4365L90.966 58.9803L96.4513 54.9718C96.489 54.9443 96.54 54.9441 96.5778 54.9713L102.068 58.9131L100.027 52.4358C100.013 52.3914 100.029 52.3429 100.067 52.3158L105.548 48.3804H98.7279C98.6811 48.3804 98.6396 48.3502 98.6252 48.3057L96.5144 41.7621Z" fill="black"/>
</g>
<path d="M67.8158 205.5L68.7364 205.494C75.9374 205.404 81.6316 204.137 81.6316 196.816C81.6316 189.186 75.446 183 67.8158 183C60.1855 183 54 189.186 54 196.816C54 204.446 60.1855 205.5 67.8158 205.5Z" fill="#9CC93A"/>
<path d="M98.8158 205.5L99.7364 205.494C106.937 205.404 112.632 204.137 112.632 196.816C112.632 189.186 106.446 183 98.8158 183C91.1855 183 85 189.186 85 196.816C85 204.446 91.1855 205.5 98.8158 205.5Z" fill="#9CC93A"/>
<path d="M128.816 205.5L129.736 205.494C136.937 205.404 142.632 204.137 142.632 196.816C142.632 189.186 136.446 183 128.816 183C121.186 183 115 189.186 115 196.816C115 204.446 121.186 205.5 128.816 205.5Z" fill="#9CC93A"/>
<path d="M253.561 29.8555C255.088 29.8555 256.327 31.0943 256.327 32.6221C256.327 34.0685 255.217 35.2538 253.802 35.376C254.09 36.0127 254.252 36.7186 254.252 37.4629C254.252 40.2639 251.982 42.5342 249.181 42.5342H257.94C260.741 42.5342 263.013 44.8055 263.013 47.6064H269.929C272.729 47.6066 275 49.8769 275 52.6777C275 55.4786 272.73 57.7498 269.929 57.75H262.332C261.455 59.2653 259.817 60.2852 257.94 60.2852H215.523C213.647 60.2852 212.009 59.2653 211.132 57.75H206.071C203.27 57.7498 201 55.4786 201 52.6777C201 49.8769 203.271 47.6066 206.071 47.6064H210.452C210.452 44.8055 212.722 42.5342 215.523 42.5342H221.748C221.748 39.7334 224.018 37.4629 226.819 37.4629H235.349C235.349 34.6619 237.62 32.3916 240.421 32.3916H249.181C249.746 32.3916 250.288 32.4849 250.796 32.6553C250.796 32.6442 250.795 32.6332 250.795 32.6221C250.795 31.0943 252.033 29.8556 253.561 29.8555Z" fill="white"/>
<path d="M140.047 2C143.684 2 146.634 4.94858 146.634 8.58594C146.634 8.65081 146.631 8.71586 146.629 8.78027H148.184C150.537 8.78048 152.445 10.6884 152.445 13.042H155.738C158.092 13.042 160 14.95 160 17.3037C160 19.6574 158.092 21.5654 155.738 21.5654H153.229C152.493 22.8389 151.116 23.6963 149.539 23.6963H133.461C131.884 23.6963 130.507 22.8389 129.771 21.5654H127.262C124.908 21.5654 123 19.6574 123 17.3037C123 14.95 124.908 13.042 127.262 13.042H127.843C127.843 10.6883 129.751 8.78037 132.104 8.78027H133.466C133.464 8.71585 133.461 8.65081 133.461 8.58594C133.461 4.94867 136.41 2.00015 140.047 2Z" fill="white"/>
</g>
<defs>
<clipPath id="clip0_102_69593">
<rect width="375" height="225" fill="white"/>
</clipPath>
<clipPath id="clip1_102_69593">
<rect width="55.3231" height="36.882" fill="white" transform="translate(69 33)"/>
</clipPath>
</defs>
</svg>
