<svg width="375" height="225" viewBox="0 0 375 225" fill="none" xmlns="http://www.w3.org/2000/svg">
<path d="M301.701 199.445C301.701 205.675 250.571 210.724 187.499 210.724C124.427 210.724 73.2969 205.675 73.2969 199.445C73.2969 193.216 124.427 188.166 187.499 188.166C250.571 188.166 301.701 193.216 301.701 199.445Z" fill="#A0A09F" fill-opacity="0.15"/>
<path fill-rule="evenodd" clip-rule="evenodd" d="M131.57 21.7969V81.7737C131.57 83.4305 132.886 84.7725 134.508 84.7725H175.63C177.251 84.7725 178.567 83.4305 178.567 81.7737V21.7969L173.867 24.7702L169.168 21.7969L164.468 24.7702L159.768 21.7969L155.069 24.7702L150.369 21.7969L145.669 24.7702L140.97 21.7969L136.27 24.7702L131.57 21.7969Z" fill="#C2945C"/>
<path fill-rule="evenodd" clip-rule="evenodd" d="M178.567 72.5527L178.568 81.773C178.568 83.4299 177.252 84.7719 175.63 84.7719H134.508C132.887 84.7719 131.571 83.4299 131.571 81.773L131.57 72.5527H178.567Z" fill="#DB0007"/>
<path fill-rule="evenodd" clip-rule="evenodd" d="M172.64 38.9355C174.767 38.9355 176.779 40.4358 178.566 43.1063L178.567 56.6976C177.205 47.6655 175.056 41.8367 172.64 41.8367C168.527 41.8367 165.188 57.4318 165.188 76.6668H159.226C159.226 57.4318 155.89 41.8367 151.773 41.8367C147.66 41.8367 144.322 58.7334 144.322 79.568H138.359C138.359 57.1263 144.367 38.9355 151.773 38.9355C155.988 38.9355 159.747 44.4038 162.208 52.9522C164.666 44.4038 168.427 38.9355 172.64 38.9355Z" fill="#FFBC0D"/>
<path d="M217.794 146.16L159.301 146.16V137.677L222.946 137.676C220.934 140.292 219.202 143.135 217.794 146.16Z" fill="#606060"/>
<path d="M162.924 96.6758V127.781C162.924 135.238 163.885 141.377 165.809 146.197C165.986 146.172 166.166 146.161 166.349 146.161L217.793 146.16C215.948 150.123 214.659 154.398 214.027 158.885L161.145 158.885C158.676 136.242 139.54 118.62 116.298 118.62C100.841 118.62 87.2007 126.413 79.0703 138.293C80.8553 115.011 100.312 96.6758 124.052 96.6758H162.924Z" fill="#FFBC0D"/>
<path d="M236.259 49.9043C247.712 63.9705 257.397 77.0695 265.315 89.2012C271.95 99.3689 277.788 109.537 282.827 119.705C283.676 121.418 283.257 123.429 281.929 124.671L281.929 126.483C275.144 122.389 267.196 120.034 258.7 120.034C245.929 120.034 234.397 125.355 226.19 133.905L232.003 112.212L222.835 54.8415C222.493 52.7016 223.823 50.6493 225.917 50.0884C225.917 50.0884 229.314 49.178 231.013 48.7228C231.304 48.645 232.146 49.0555 232.146 49.0555C233.187 48.7768 234.008 48.3434 234.928 48.821C235.432 49.0824 235.887 49.4472 236.259 49.9043Z" fill="#FFBC0D"/>
<path d="M109.951 99.4958V100.973C109.951 107.202 104.901 112.252 98.6719 112.252L89.9492 112.251C95.2274 106.164 102.109 101.504 109.936 98.9277C109.946 99.1161 109.951 99.3054 109.951 99.4958Z" fill="#DB0007"/>
<path d="M204.429 48.6055H238.243C240.586 48.6055 242.485 50.5045 242.485 52.847C242.485 55.1896 240.586 57.0886 238.243 57.0886H204.429C202.087 57.0886 200.188 55.1896 200.188 52.847C200.188 50.5045 202.087 48.6055 204.429 48.6055Z" fill="#606060"/>
<path d="M124.427 82.5371H179.487C183.587 82.5371 186.91 85.8604 186.91 89.9598C186.91 94.0593 183.587 97.3826 179.487 97.3826H124.427C120.327 97.3826 117.004 94.0593 117.004 89.9598C117.004 85.8604 120.327 82.5371 124.427 82.5371Z" fill="#606060"/>
<path d="M153.189 163.257C153.189 184.281 136.146 201.324 115.122 201.324C94.098 201.324 77.0547 184.281 77.0547 163.257C77.0547 142.233 94.098 125.189 115.122 125.189C136.146 125.189 153.189 142.233 153.189 163.257Z" fill="#606060"/>
<path d="M130.63 162.787C130.63 171.612 123.476 178.766 114.651 178.766C105.826 178.766 98.6719 171.612 98.6719 162.787C98.6719 153.963 105.826 146.809 114.651 146.809C123.476 146.809 130.63 153.963 130.63 162.787Z" fill="#F1F1F1"/>
<path d="M125.484 150.568C128.649 153.538 130.63 157.791 130.63 162.515C130.63 171.49 123.475 178.766 114.649 178.766C110.004 178.766 105.822 176.752 102.902 173.534C105.171 174.693 107.732 175.345 110.443 175.345C119.734 175.345 127.266 167.686 127.266 158.238C127.266 155.508 126.637 152.928 125.519 150.639L125.484 150.568Z" fill="white"/>
<path opacity="0.1" d="M96.793 163.727H140.03V168.426H96.793V163.727Z" fill="#606060"/>
<path d="M116.297 122.85C138.877 122.85 157.184 141.364 157.184 164.207H75.4102C75.4102 141.364 93.7173 122.85 116.297 122.85Z" fill="#FFBC0D"/>
<path d="M296.061 163.257C296.061 184.281 279.017 201.324 257.993 201.324C236.969 201.324 219.926 184.281 219.926 163.257C219.926 142.233 236.969 125.189 257.993 125.189C279.017 125.189 296.061 142.233 296.061 163.257Z" fill="#606060"/>
<path d="M273.501 162.787C273.501 171.612 266.347 178.766 257.522 178.766C248.697 178.766 241.543 171.612 241.543 162.787C241.543 153.963 248.697 146.809 257.522 146.809C266.347 146.809 273.501 153.963 273.501 162.787Z" fill="#F1F1F1"/>
<path d="M268.8 151C271.995 153.949 273.996 158.172 273.996 162.862C273.996 171.775 266.771 179 257.858 179C253.168 179 248.945 176.999 245.996 173.805C248.287 174.955 250.873 175.603 253.611 175.603C262.993 175.603 270.599 167.997 270.599 158.615C270.599 155.905 269.964 153.343 268.835 151.07L268.8 151Z" fill="white"/>
<path opacity="0.1" d="M238.723 163.727H281.96V168.426H238.723V163.727Z" fill="#606060"/>
<path d="M258.934 124.25C281.055 124.25 299.078 141.798 299.821 163.727H218.047C218.79 141.798 236.813 124.25 258.934 124.25Z" fill="#FFBC0D"/>
</svg>
