<svg width="44" height="44" viewBox="0 0 44 44" fill="none" xmlns="http://www.w3.org/2000/svg">
<path fill-rule="evenodd" clip-rule="evenodd" d="M28.8838 29.9435C27.932 29.9439 25.5973 29.9578 24.8137 30.0806C24.5066 30.1287 24.2095 30.2304 23.8466 30.3545C22.7416 30.7326 21.0272 31.3191 16.5679 31.2377C10.6442 31.1295 10.034 29.6913 9.92597 29.4155C9.88014 29.2985 9.81776 28.9886 9.80986 28.6578C9.8013 28.2993 9.47547 27.2805 9.2005 27.0503C8.3642 26.35 8.16135 25.3189 8.88646 24.5118C9.08332 24.2927 9.05069 23.8845 8.84678 23.6719C8.2553 23.0553 8.21446 22.0441 8.57287 21.3773C8.73884 21.0685 8.9224 20.148 8.8332 19.8089C8.55023 18.7335 8.91063 17.155 10.6373 17.163C10.6592 17.1631 10.6823 17.1656 10.7037 17.17C11.3576 17.3017 11.9182 17.426 12.3876 17.5301L12.3876 17.5301C13.1606 17.7016 13.6867 17.8183 13.9759 17.823C14.5286 17.8322 16.1595 17.6301 16.5243 17.2599C17.1546 16.6973 16.0513 15.0731 15.3593 14.0543C15.1918 13.8077 15.0484 13.5966 14.9595 13.4446C14.6967 12.9953 13.138 9.66596 14.72 8.63636C14.7883 8.59193 14.8735 8.57767 14.9516 8.6008C15.643 8.80552 16.1671 9.66182 16.847 10.7724C17.597 11.9978 18.5366 13.5328 20.0995 14.8438C21.6791 16.1688 22.6036 17.2836 23.3069 18.1317C24.0045 18.9729 24.4844 19.5516 25.1701 19.8128C26.2269 20.2153 28.0909 20.1582 28.9006 20.1099C29.1129 20.0972 29.2946 20.2651 29.2946 20.4777V20.4958H30.1507C30.3258 19.5605 31.1467 18.8526 32.1328 18.8526H35.0458L35.0458 31.1767H32.1329C31.2972 31.1767 30.5803 30.6685 30.2744 29.9443H28.8838V29.9435Z" fill="white"/>
<path fill-rule="evenodd" clip-rule="evenodd" d="M28.8837 29.9447V29.944C28.7791 29.944 28.6578 29.9442 28.5237 29.9447C28.4259 29.9451 28.3213 29.9456 28.2115 29.9463C27.1006 29.9535 25.4483 29.9815 24.8136 30.081C24.5065 30.1291 24.2094 30.2308 23.8465 30.355C22.7415 30.733 21.0271 31.3195 16.5678 31.2381C10.6441 31.13 10.0339 29.6917 9.92587 29.416C9.88003 29.2989 9.81765 28.989 9.80975 28.6582C9.80119 28.2997 9.47536 27.2809 9.2004 27.0507C8.36409 26.3505 8.16125 25.3193 8.88635 24.5122C9.08321 24.2931 9.05058 23.8849 8.84668 23.6724C8.25519 23.0557 8.21435 22.0445 8.57276 21.3777C8.73874 21.0689 8.9223 20.1484 8.83309 19.8093C8.55012 18.7339 8.91052 17.1555 10.6372 17.1635C10.6591 17.1636 10.6822 17.166 10.7036 17.1704C11.3575 17.3021 11.918 17.4264 12.3875 17.5306C13.1605 17.702 13.6866 17.8187 13.9758 17.8235C14.5284 17.8326 16.1594 17.6305 16.5241 17.2603C17.1545 16.6977 16.0512 15.0735 15.3592 14.0548C15.1917 13.8082 15.0483 13.597 14.9594 13.445C14.6966 12.9957 13.1379 9.66638 14.7199 8.63678C14.7882 8.59234 14.8733 8.57809 14.9515 8.60122C15.6429 8.80594 16.167 9.66224 16.8469 10.7728C17.5969 11.9982 18.5365 13.5332 20.0994 14.8442C21.679 16.1692 22.6035 17.284 23.3068 18.1321C24.0043 18.9733 24.4843 19.5521 25.17 19.8132C26.2268 20.2157 28.0907 20.1587 28.9005 20.1103C29.1128 20.0977 29.2945 20.2655 29.2945 20.4781V20.4962H30.1506C30.3257 19.5609 31.1466 18.853 32.1327 18.853H35.0457L35.0457 31.1771H32.1327C31.2971 31.1771 30.5802 30.6689 30.2743 29.9447H28.8837ZM29.8723 30.6169H28.8837C28.8731 30.6169 28.8626 30.6167 28.8522 30.6162C28.3743 30.6165 27.577 30.6203 26.8014 30.6386C25.9899 30.6577 25.2572 30.6919 24.9177 30.7451C24.6794 30.7825 24.4398 30.8624 24.0641 30.991C22.8907 31.3924 21.0986 31.9931 16.5556 31.9102C13.553 31.8554 11.8157 31.464 10.7903 31.003C10.2717 30.7699 9.92272 30.5134 9.68664 30.2625C9.44321 30.0038 9.34569 29.7779 9.29994 29.6611C9.21557 29.4457 9.14672 29.0508 9.13773 28.6743C9.13771 28.6738 9.13748 28.6678 9.13615 28.6554C9.13477 28.6426 9.13251 28.6257 9.12903 28.6044C9.122 28.5616 9.11113 28.5081 9.0961 28.4457C9.06597 28.3207 9.02277 28.1753 8.97171 28.0319C8.92017 27.8871 8.86506 27.757 8.81388 27.6585C8.7769 27.5873 8.7542 27.5566 8.75016 27.5503C8.2412 27.1178 7.88422 26.5508 7.79256 25.9179C7.70072 25.2836 7.88601 24.6478 8.34041 24.1154C7.53739 23.2559 7.51031 21.9345 7.98065 21.0594C8.0111 21.0028 8.08408 20.7827 8.13684 20.4868C8.16099 20.3514 8.17662 20.2234 8.18209 20.1189C8.18734 20.0185 8.18105 19.9763 8.18175 19.9761C8.18188 19.9761 8.18226 19.9776 8.183 19.9804C8.00914 19.3196 8.02135 18.4799 8.38326 17.7736C8.77172 17.0154 9.52885 16.4861 10.6403 16.4912C10.7082 16.4916 10.7747 16.499 10.8364 16.5114C11.4967 16.6444 12.0625 16.7699 12.5317 16.874C12.5321 16.8741 12.5327 16.8742 12.5331 16.8743C12.9228 16.9607 13.2375 17.0305 13.4909 17.0796C13.754 17.1305 13.9068 17.15 13.9869 17.1513C14.2052 17.1549 14.7046 17.1135 15.1994 17.0229C15.4433 16.9782 15.6652 16.9253 15.8375 16.8679C15.9535 16.8293 16.0145 16.799 16.0398 16.7859C16.0398 16.7733 16.039 16.7564 16.0367 16.7346C16.0226 16.5979 15.9587 16.3903 15.8291 16.1143C15.5724 15.5678 15.1564 14.9526 14.8031 14.4325L14.7905 14.4139C14.6333 14.1825 14.4796 13.9562 14.3791 13.7844C14.2177 13.5084 13.7335 12.4986 13.4915 11.4036C13.3703 10.8551 13.2984 10.2361 13.3888 9.65583C13.4812 9.06229 13.7537 8.46355 14.3533 8.07337C14.5769 7.92783 14.8647 7.87445 15.1423 7.95666C15.6864 8.11776 16.0975 8.5132 16.4287 8.92769C16.7575 9.33924 17.0769 9.86099 17.404 10.3954L17.4202 10.4219C18.1719 11.65 19.062 13.0966 20.5314 14.3292C22.1576 15.6933 23.113 16.8454 23.8227 17.7012L23.8242 17.703C24.5579 18.5877 24.9229 18.9998 25.4093 19.185C25.832 19.346 26.472 19.4299 27.1567 19.4592C27.8244 19.4879 28.4678 19.4627 28.8605 19.4393C29.1789 19.4203 29.4757 19.5472 29.6814 19.7635C30.1032 18.8302 31.0417 18.1808 32.1327 18.1808H35.0457C35.4169 18.1808 35.7179 18.4818 35.7179 18.853L35.7179 31.1771C35.7179 31.3554 35.6471 31.5264 35.521 31.6524C35.395 31.7785 35.224 31.8493 35.0457 31.8493H32.1327C31.1837 31.8493 30.3505 31.3577 29.8723 30.6169ZM16.0374 16.8174C16.0373 16.8173 16.0375 16.8155 16.0385 16.8123C16.038 16.816 16.0375 16.8175 16.0374 16.8174ZM8.36154 24.1377C8.36154 24.1377 8.36154 24.1377 8.36154 24.1377V24.1377Z" fill="white"/>
<path d="M14.9515 8.60122C14.8733 8.57809 14.7882 8.59234 14.7199 8.63678C13.1379 9.66638 14.6966 12.9957 14.9594 13.445C15.0483 13.597 15.1917 13.8082 15.3592 14.0548C16.0512 15.0735 17.1545 16.6977 16.5241 17.2603C16.1594 17.6305 14.5284 17.8326 13.9758 17.8235C13.6866 17.8187 13.1605 17.702 12.3875 17.5306C11.918 17.4264 11.3575 17.3021 10.7036 17.1704C10.6822 17.166 10.6591 17.1636 10.6372 17.1635C8.91052 17.1555 8.55012 18.7339 8.83309 19.8093C8.9223 20.1484 8.73874 21.0689 8.57276 21.3777C8.21435 22.0445 8.25519 23.0557 8.84668 23.6724C9.05058 23.8849 9.08321 24.2931 8.88635 24.5122C8.16125 25.3193 8.36409 26.3505 9.2004 27.0507C9.47536 27.2809 9.80119 28.2997 9.80975 28.6582C9.81765 28.989 9.88003 29.2989 9.92587 29.416C10.0339 29.6917 10.6441 31.13 16.5678 31.2381C21.0271 31.3195 22.7415 30.733 23.8465 30.355C24.2094 30.2308 24.5065 30.1291 24.8136 30.081C25.4483 29.9815 27.1006 29.9535 28.2115 29.9463C28.3213 29.9456 28.4259 29.9451 28.5237 29.9447C28.6578 29.9442 28.7791 29.944 28.8837 29.944V29.9447H30.2743C30.5802 30.6689 31.2971 31.1771 32.1327 31.1771H35.0457L35.0457 18.853H32.1327C31.1466 18.853 30.3257 19.5609 30.1506 20.4962H29.2945V20.4781C29.2945 20.2655 29.1128 20.0977 28.9005 20.1103C28.0907 20.1587 26.2268 20.2157 25.17 19.8132C24.4843 19.5521 24.0043 18.9733 23.3068 18.1321C22.6035 17.284 21.679 16.1692 20.0994 14.8442C18.5365 13.5332 17.5969 11.9982 16.8469 10.7728C16.167 9.66224 15.6429 8.80594 14.9515 8.60122ZM14.9515 8.60122L15.1423 7.95666M15.1423 7.95666C14.8647 7.87445 14.5769 7.92783 14.3533 8.07337C13.7537 8.46355 13.4812 9.06229 13.3888 9.65583C13.2984 10.2361 13.3703 10.8551 13.4915 11.4036C13.7335 12.4986 14.2177 13.5084 14.3791 13.7844C14.4796 13.9562 14.6333 14.1825 14.7905 14.4139L14.8031 14.4325C15.1564 14.9526 15.5724 15.5678 15.8291 16.1143C15.9587 16.3903 16.0226 16.5979 16.0367 16.7346C16.039 16.7564 16.0398 16.7733 16.0398 16.7859C16.0145 16.799 15.9535 16.8293 15.8375 16.8679C15.6652 16.9253 15.4433 16.9782 15.1994 17.0229C14.7046 17.1135 14.2052 17.1549 13.9869 17.1513C13.9068 17.15 13.754 17.1305 13.4909 17.0796C13.2375 17.0305 12.9228 16.9607 12.5331 16.8743C12.5327 16.8742 12.5321 16.8741 12.5317 16.874C12.0625 16.7699 11.4967 16.6444 10.8364 16.5114C10.7747 16.499 10.7082 16.4916 10.6403 16.4912C9.52885 16.4861 8.77172 17.0154 8.38326 17.7736C8.02135 18.4799 8.00914 19.3196 8.183 19.9804C8.18226 19.9776 8.18188 19.9761 8.18175 19.9761C8.18105 19.9763 8.18734 20.0185 8.18209 20.1189C8.17662 20.2234 8.16099 20.3514 8.13684 20.4868C8.08408 20.7827 8.0111 21.0028 7.98065 21.0594C7.51031 21.9345 7.53739 23.2559 8.34041 24.1154C7.88601 24.6478 7.70072 25.2836 7.79256 25.9179C7.88422 26.5508 8.2412 27.1178 8.75016 27.5503C8.7542 27.5566 8.7769 27.5873 8.81388 27.6585C8.86506 27.757 8.92017 27.8871 8.97171 28.0319C9.02277 28.1753 9.06597 28.3207 9.0961 28.4457C9.11113 28.5081 9.122 28.5616 9.12903 28.6044C9.13251 28.6257 9.13477 28.6426 9.13615 28.6554C9.13748 28.6678 9.13771 28.6738 9.13773 28.6743C9.14672 29.0508 9.21557 29.4457 9.29994 29.6611C9.34569 29.7779 9.44321 30.0038 9.68664 30.2625C9.92272 30.5134 10.2717 30.7699 10.7903 31.003C11.8157 31.464 13.553 31.8554 16.5556 31.9102C21.0986 31.9931 22.8907 31.3924 24.0641 30.991C24.4398 30.8624 24.6794 30.7825 24.9177 30.7451C25.2572 30.6919 25.9899 30.6577 26.8014 30.6386C27.577 30.6203 28.3743 30.6165 28.8522 30.6162C28.8626 30.6167 28.8731 30.6169 28.8837 30.6169H29.8723C30.3505 31.3577 31.1837 31.8493 32.1327 31.8493H35.0457C35.224 31.8493 35.395 31.7785 35.521 31.6524C35.6471 31.5264 35.7179 31.3554 35.7179 31.1771L35.7179 18.853C35.7179 18.4818 35.4169 18.1808 35.0457 18.1808H32.1327C31.0417 18.1808 30.1032 18.8302 29.6814 19.7635C29.4757 19.5472 29.1789 19.4203 28.8605 19.4393C28.4678 19.4627 27.8244 19.4879 27.1567 19.4592C26.472 19.4299 25.832 19.346 25.4093 19.185C24.9229 18.9998 24.5579 18.5877 23.8242 17.703L23.8227 17.7012C23.113 16.8454 22.1576 15.6933 20.5314 14.3292C19.062 13.0966 18.1719 11.65 17.4202 10.4219L17.404 10.3954C17.0769 9.86099 16.7575 9.33924 16.4287 8.92769C16.0975 8.5132 15.6864 8.11776 15.1423 7.95666ZM16.0374 16.8174C16.0373 16.8173 16.0375 16.8155 16.0385 16.8123C16.038 16.816 16.0375 16.8175 16.0374 16.8174ZM8.36154 24.1377C8.36154 24.1377 8.36154 24.1377 8.36154 24.1377Z" stroke="white" stroke-linejoin="round"/>
<path d="M24.8137 30.0923C25.6113 29.9673 28.0156 29.9528 28.9333 29.952C29.1334 29.9518 29.2946 29.7897 29.2946 29.5897V20.4894C29.2946 20.2768 29.1129 20.109 28.9006 20.1216C28.0909 20.1699 26.2269 20.227 25.1701 19.8245C23.7931 19.3001 23.2457 17.4946 20.0995 14.8555C17.1201 12.3564 16.4059 9.04312 14.9516 8.61252C14.8735 8.58939 14.7883 8.60364 14.72 8.64808C13.138 9.67768 14.6967 13.007 14.9595 13.4563C15.4156 14.2363 17.3072 16.5728 16.5243 17.2716C16.1595 17.6418 14.5286 17.8439 13.9759 17.8348C13.511 17.8271 12.4343 17.5303 10.7037 17.1817C10.6823 17.1773 10.6592 17.1749 10.6373 17.1748C8.91063 17.1668 8.55023 18.7452 8.8332 19.8206C8.9224 20.1597 8.73884 21.0802 8.57287 21.389C8.21446 22.0558 8.2553 23.067 8.84678 23.6837C9.05069 23.8962 9.08332 24.3044 8.88646 24.5235C8.16135 25.3306 8.3642 26.3618 9.2005 27.062C9.47547 27.2922 9.8013 28.311 9.80986 28.6695C9.81776 29.0003 9.88014 29.3102 9.92597 29.4273C10.034 29.703 10.6442 31.1413 16.5679 31.2494C22.4917 31.3575 23.5717 30.287 24.8137 30.0923Z" fill="#D87714"/>
<path d="M32.1338 31.1777C31.0201 31.1777 30.1172 30.2748 30.1172 29.1611L30.1172 20.8703C30.1172 19.7566 31.0201 18.8537 32.1338 18.8537L35.0468 18.8537L35.0468 31.1777L32.1338 31.1777Z" fill="#FFBC0D"/>
</svg>
