<svg width="72" height="72" viewBox="0 0 72 72" fill="none" xmlns="http://www.w3.org/2000/svg">
<path fill-rule="evenodd" clip-rule="evenodd" d="M22.6315 26.9858C23.24 28.4881 24.8745 29.2968 26.4252 28.8249C28.5617 28.1747 31.6331 27.1791 34.4443 26.0434C37.0815 24.9779 39.5512 23.7641 41.2878 22.8599C42.7332 22.1072 43.329 20.3813 42.7171 18.8707L22.6315 26.9858Z" fill="#EC9D47"/>
<path d="M23.7081 26.222L23.7424 26.223C25.2079 26.287 25.2642 25.466 26.21 25.1192C26.598 24.977 26.9458 24.9305 27.2255 24.9266L27.2477 24.8955C27.2726 24.8618 27.3007 24.8279 27.3317 24.7939L27.5697 24.6968L27.7523 24.6214C28.0002 24.5183 28.2665 24.4054 28.5524 24.2814L28.6974 24.218L28.8792 24.1373C29.0573 24.0594 29.3004 23.9578 29.535 23.8814L29.5521 23.8795C29.6166 23.8856 29.6786 23.8961 29.738 23.9112C29.8589 23.942 29.9704 23.9751 30.0758 24.0041C30.3015 23.8764 30.5008 23.7763 30.7072 23.6223C31.0173 23.5569 31.3021 23.5126 31.5662 23.4872C32.06 23.4398 34.4488 22.1681 35.7362 21.6438L36.0415 21.4724C36.711 21.0996 37.2714 20.805 37.3862 20.7107L37.3929 20.7049C37.4437 20.6593 37.4967 20.6152 37.5519 20.5726L37.6357 20.5657L37.7228 20.5573C38.3824 20.4895 39.1814 20.3034 40.1966 19.7394C40.427 19.6114 40.6991 19.5202 40.9907 19.4583C41.1999 19.1662 41.4633 19.2289 41.6828 19.0955C41.9811 18.9144 42.0477 18.7438 42.5113 18.5187C43.1451 18.2111 43.7619 18.9882 43.985 19.2295C44.2081 19.4707 44.1128 19.3037 43.9226 19.3586C43.7324 19.4135 43.6097 19.3308 43.3878 19.4018C42.4469 19.7022 42.9791 20.7727 41.9409 21.4137C41.3808 21.7595 40.4835 21.4207 40.2125 21.4775C39.9416 21.5344 39.7769 21.8143 39.5255 21.9205C38.339 22.4221 37.4403 22.0913 36.3876 22.3752L36.4066 22.3173C36.418 22.2833 36.4298 22.2493 36.4419 22.2153C36.4638 22.1538 36.2799 22.2253 35.9922 22.3604L35.8398 22.533C35.1813 23.2733 34.3604 24.1414 34.6295 24.3195C34.1923 24.5793 33.6944 24.7666 33.1227 24.969C32.569 25.1651 31.8637 24.9805 31.4156 25.1079C30.6328 25.3306 28.8556 26.6414 28.8556 26.6414C28.8556 26.6414 28.8033 26.1254 28.4299 26.0915C27.9173 26.0451 26.81 26.4681 26.7094 26.6814C26.6088 26.8947 26.4738 27.0707 26.2411 27.1661C25.6675 27.4014 25.4013 27.2055 25.0937 27.2607C24.77 27.3188 24.6625 27.4761 24.2586 27.686C23.8079 27.9203 23.6318 27.6654 23.5777 27.4158L23.5745 27.4006C23.4243 26.6405 22.4059 27.6172 22.4406 27.3111C22.4753 27.005 23.0355 26.2109 23.7081 26.222Z" fill="#9CC93A"/>
<path fill-rule="evenodd" clip-rule="evenodd" d="M30.182 23.5243C34.1329 22.572 35.3675 21.1002 37.0829 20.2054C38.2054 19.62 39.3335 19.2472 40.2712 19.1024C40.2813 19.1008 40.6536 19.007 40.8541 18.939C41.2127 18.8172 41.587 18.666 41.9769 18.4853C41.9769 18.4853 42.4878 18.2086 42.7734 18.057C43.0589 17.9053 43.3178 17.8564 43.4808 18.1194C43.6068 18.3227 43.495 18.4834 43.2847 18.6107C43.0743 18.7381 41.6667 19.0396 38.2131 20.627C34.7595 22.2143 36.6472 26.1115 35.3179 25.1587C33.9401 24.1712 31.8815 23.8467 30.4694 23.9671C29.0574 24.0875 25.9363 25.6795 24.9507 26.043C23.9652 26.4064 23.6532 26.4237 23.2057 26.4984C22.7581 26.5731 22.8012 26.6431 22.7096 26.4171C22.6271 26.2133 22.7673 26.0514 22.9837 26.0019C23.1045 25.9743 23.5214 25.9495 25.0651 25.3726C26.2885 24.9155 28.4352 23.9453 30.182 23.5243Z" fill="#FFBC0D"/>
<path fill-rule="evenodd" clip-rule="evenodd" d="M40.647 16.1821C41.2308 15.9462 41.9055 16.2523 42.154 16.8657L42.4163 17.5552C42.4163 17.5552 41.9849 18.0017 40.323 18.6171C38.6611 19.2326 37.5487 19.2112 36.4435 19.7975C34.7546 20.6935 34.3658 21.6592 30.92 22.6862C27.4742 23.7133 22.4474 25.7776 22.4474 25.7776L22.0685 24.9808C21.82 24.3674 22.0918 23.6789 22.6757 23.443C26.6566 21.5729 29.6753 20.2212 31.7315 19.3876C33.7878 18.5541 36.6826 17.5194 40.647 16.1821Z" fill="#73371F"/>
<path fill-rule="evenodd" clip-rule="evenodd" d="M21.2655 21.3917C21.1879 21.2002 21.2803 20.9822 21.4719 20.9048L40.9631 13.0298C41.0998 12.9746 41.2555 13.0406 41.3108 13.1773C41.8484 14.5043 41.1817 16.0121 39.8397 16.5113C37.4721 17.392 33.9859 18.6998 32.1603 19.4374C30.3083 20.1857 26.8197 21.6987 24.5043 22.7104C23.2461 23.2602 21.781 22.6644 21.2655 21.3917Z" fill="#EC9D47"/>
<path d="M26.5989 17.9031L26.7012 17.8499C28.009 17.1587 27.7695 16.8306 28.4717 16.5344C28.7894 16.4003 29.0718 16.4137 29.3413 16.4856C29.7708 15.8745 30.2592 15.3205 30.9989 15.0398C31.584 14.8178 32.3956 15.1099 32.8739 14.9716C33.7093 14.7299 34.984 13.649 35.3481 12.9073C35.3744 12.8536 35.4506 12.8956 35.4618 12.9705L35.4853 13.129C35.5346 13.4425 35.6262 13.8028 36.04 13.8719C36.6164 13.968 37.2907 13.669 37.8608 13.2076C37.9401 12.932 38.0632 12.7083 38.307 12.5977C38.9082 12.3251 39.2338 12.6024 39.5671 12.5502L39.6043 12.5438C39.9966 12.4719 40.4734 12.208 40.9537 12.7674C41.4339 13.3268 42.4018 12.5796 42.4018 12.5796C42.4018 12.5796 42.011 14.0822 41.2597 14.0186L41.2264 14.0153C39.5889 13.8313 39.6517 14.9143 38.6541 15.3092C38.245 15.4711 37.8658 15.5091 37.5558 15.4953C37.2458 15.4816 35.8439 16.9942 34.9199 16.6692L34.8111 16.6298C34.2888 16.4361 33.9094 16.238 33.5127 16.5441C33.2753 16.7269 33.0497 17.1337 32.2327 17.4053C31.7058 17.5806 31.0968 17.4158 30.5718 17.2692C30.2734 17.5622 30.0321 17.5774 29.8348 18.2911L29.8228 18.3357C29.6725 18.9062 29.477 19.1677 28.9746 19.141L28.9421 19.1389C28.158 19.0796 28.0911 19.7853 27.1864 20.0878C26.5877 20.2879 25.565 19.3417 24.3 20.3522C24.0771 20.5301 23.7373 20.5548 23.3692 20.4929C23.2921 20.7815 23.2663 21.0531 23.2434 21.2464C23.1244 22.2559 22.5868 21.8346 22.2866 22.0301L22.2746 22.0383C21.9803 22.2511 21.7768 22.1734 21.3275 22.4107L21.2832 22.4347C20.6261 22.7989 19.9827 22.7685 19.638 22.2687C19.5802 22.1852 19.0354 21.4848 19.3258 21.6927C19.6162 21.9006 19.8577 21.2992 20.0933 21.2203C21.0926 20.8863 20.0367 20.1917 21.092 19.4137C21.6102 19.0315 22.7428 19.0403 23.4275 19.1595L23.5502 18.8174C23.6939 18.4248 23.8715 18.018 24.1734 17.8713C24.9916 17.4736 25.8424 18.2901 26.5989 17.9031Z" fill="#9CC93A"/>
<path fill-rule="evenodd" clip-rule="evenodd" d="M20.9795 17.556C21.9691 17.1562 26.4841 14.9643 29.4827 13.7528C32.5179 12.5265 37.6089 10.7148 38.4964 10.4787C39.384 10.2427 39.6627 10.299 39.8931 10.8678C40.1235 11.4365 39.9376 10.9778 40.1681 11.5465C40.3985 12.1153 40.0232 12.5584 39.4351 12.796L21.3337 20.1094C20.7457 20.347 19.875 19.725 19.882 18.9528C19.889 18.1805 19.99 17.9558 20.9795 17.556Z" fill="#73371F"/>
<path d="M20.4375 20.322C20.5923 20.1833 20.8781 20.144 22.7372 19.6708C23.4661 19.4853 24.5953 19.1088 26.3103 18.3662C27.5113 17.8461 29.4128 17.0529 32.8707 15.5766C36.3285 14.1003 37.9287 13.5526 39.0389 13.0845C40.149 12.6164 39.9602 11.8785 40.7528 12.2531C41.5454 12.6277 40.4212 12.9851 39.3425 13.5177C38.2638 14.0503 38.198 13.6987 34.5578 15.3119C30.9177 16.9251 29.5492 18.008 27.8605 18.7126C24.6786 20.0402 23.3363 19.5677 21.609 20.6825C19.8816 21.7973 20.2828 20.4608 20.4375 20.322Z" fill="#E5AF71"/>
<path fill-rule="evenodd" clip-rule="evenodd" d="M38.9429 8.43773C39.1272 8.89253 39.3816 9.52056 38.7282 9.7992C38.0649 10.0525 32.4575 11.6819 29.2878 12.976C26.2423 14.1931 20.9042 16.8587 20.0716 17.3369C19.2373 17.7866 19.0926 17.1142 18.9484 16.771C17.4293 13.0084 21.9325 8.61778 26.8238 6.57817C31.7201 4.53873 37.4639 4.78667 38.9429 8.43773Z" fill="white"/>
<path d="M26.8237 6.57767C31.7206 4.53792 37.4662 4.78968 38.9475 8.44652C39.132 8.90201 39.3869 9.53085 38.7336 9.80948C38.0696 10.063 32.462 11.6917 29.2921 12.9858C26.2462 14.203 20.9076 16.8696 20.0749 17.3481C19.2406 17.7978 19.0958 17.1241 18.9515 16.7803C17.4301 13.0118 21.9319 8.6176 26.8237 6.57767ZM20.2704 15.9136C20.0916 15.8827 19.8861 15.9791 19.8116 16.1284C19.7377 16.2775 19.8221 16.4232 20.0006 16.4544C20.1795 16.4855 20.9048 16.4063 20.946 16.3252C20.9865 16.244 20.4494 15.9447 20.2704 15.9136ZM32.8677 10.0298C32.8146 10.1044 33.1796 10.6905 33.3188 10.8081C33.4579 10.9251 33.6509 10.9094 33.7493 10.7732C33.8477 10.6366 33.8146 10.4304 33.6757 10.3131C33.5366 10.196 32.9217 9.95594 32.8677 10.0298ZM23.1711 13.8379C23.003 13.9366 22.9447 14.1323 23.0401 14.2742C23.1365 14.4166 23.6844 14.7909 23.7757 14.7375C23.8665 14.6831 23.7439 14.0595 23.6487 13.9167C23.5533 13.7748 23.3391 13.7393 23.1711 13.8379ZM36.6422 8.10346C36.4927 8.02903 36.3463 8.11375 36.3152 8.29245C36.2846 8.47205 36.3646 9.19391 36.4457 9.23613C36.5271 9.27623 36.8264 8.74095 36.8575 8.56207C36.8884 8.38337 36.7917 8.17809 36.6422 8.10346ZM29.5046 11.2969C29.3258 11.2658 29.1202 11.3616 29.0455 11.5109C28.9711 11.6601 29.0554 11.8068 29.2339 11.8381C29.4126 11.8692 30.1367 11.7899 30.1793 11.7089C30.2198 11.6278 29.6837 11.3282 29.5046 11.2969ZM27.0983 12.2754C26.9615 12.1771 26.7562 12.2095 26.6389 12.3483C26.5217 12.4875 26.2817 13.1021 26.3559 13.1557C26.4306 13.2088 27.0168 12.8445 27.1344 12.7053C27.2516 12.5663 27.2351 12.3739 27.0983 12.2754ZM33.1386 8.00655C33.0573 7.96621 32.7588 8.5014 32.7277 8.68024C32.6967 8.85894 32.7926 9.06455 32.9421 9.13922C33.0916 9.21374 33.238 9.12888 33.269 8.95023C33.2999 8.77105 33.2198 8.04754 33.1386 8.00655ZM20.6262 13.0724C20.4473 13.0413 20.242 13.1378 20.1674 13.2873C20.0929 13.4367 20.177 13.5834 20.3558 13.6145C20.5347 13.6456 21.2594 13.5655 21.3009 13.4844C21.3414 13.4033 20.8053 13.1037 20.6262 13.0724ZM23.856 11.6896C23.677 11.6584 22.9514 11.7385 22.9109 11.8197C22.872 11.9012 23.406 12.1992 23.5853 12.2308C23.764 12.2618 23.9696 12.166 24.0444 12.0168C24.1189 11.8674 24.0348 11.7207 23.856 11.6896ZM29.9757 8.48292C29.7939 8.5564 29.6974 8.74267 29.7605 8.89847C29.8243 9.05467 30.277 9.51017 30.3757 9.4704C30.4743 9.43018 30.4826 8.78865 30.4197 8.63215C30.3566 8.47636 30.1575 8.4095 29.9757 8.48292ZM27.4423 9.42855C27.3519 9.41358 27.0772 10.0126 27.0588 10.1933C27.0406 10.374 27.1604 10.5452 27.3262 10.5751C27.4919 10.6047 27.6414 10.4819 27.6599 10.3012C27.6782 10.1201 27.5324 9.44507 27.4423 9.42855ZM30.9835 6.37999C30.8155 6.47871 30.7572 6.67432 30.8526 6.81628C30.9487 6.95851 31.4972 7.33386 31.5885 7.28045C31.6797 7.22679 31.5565 6.60138 31.4611 6.45877C31.3657 6.31681 31.1516 6.28131 30.9835 6.37999ZM23.5841 9.19259C23.4025 9.26601 23.3058 9.45152 23.3686 9.60724C23.4319 9.76318 23.8853 10.2199 23.9841 10.1801C24.0825 10.1388 24.0898 9.49717 24.0268 9.34129C23.9636 9.18588 23.7657 9.11942 23.5841 9.19259ZM26.663 7.39041C26.4841 7.35938 26.2788 7.45585 26.2043 7.60526C26.1299 7.75462 26.2147 7.90106 26.3936 7.93216C26.5732 7.96297 27.2954 7.88338 27.3378 7.80241C27.3783 7.72125 26.842 7.42159 26.663 7.39041Z" fill="#EC9D47"/>
<g style="mix-blend-mode:multiply">
<ellipse cx="36.3951" cy="67.3881" rx="19.8873" ry="2.66348" fill="#F1F1F1"/>
</g>
<path fill-rule="evenodd" clip-rule="evenodd" d="M18.9922 21.3984L21.1452 23.618L23.2982 21.3984L25.4511 23.618L27.6041 21.3984L29.7571 23.618L31.9101 21.3984L34.0631 23.618L36.216 21.3984L38.369 23.618L40.522 21.3984L42.675 23.618L44.828 21.3984L46.9809 23.618L49.1339 21.3984L51.2869 23.618L53.4399 21.3984V65.7898C53.4399 66.7705 52.649 67.5655 51.6733 67.5655H20.7587C19.7831 67.5655 18.9922 66.7705 18.9922 65.7898V21.3984Z" fill="#C2945C"/>
<path fill-rule="evenodd" clip-rule="evenodd" d="M18.9922 59.043H53.4399V65.7718C53.4399 66.7628 52.649 67.5661 51.6733 67.5661H20.7587C19.7831 67.5661 18.9922 66.7628 18.9922 65.7718V59.043Z" fill="#DB0007"/>
<path fill-rule="evenodd" clip-rule="evenodd" d="M53.4387 32.5016C53.1569 32.4397 52.8737 32.4082 52.5868 32.4082C48.9388 32.4082 45.6815 37.1397 43.5522 44.5364C41.4215 37.1397 38.1656 32.4082 34.5151 32.4082C28.1017 32.4082 22.8984 48.1481 22.8984 67.5662H28.0625C28.0625 49.5386 30.9531 34.9185 34.5151 34.9185C38.0808 34.9185 40.9701 48.4124 40.9701 65.0559H46.1329C46.1329 48.4124 49.0248 34.9185 52.5868 34.9185C52.8759 34.9185 53.1606 35.0147 53.4397 35.2013C53.4387 33.5138 53.4387 34.3983 53.4387 32.5016Z" fill="#FFBC0D"/>
</svg>
