<svg width="375" height="225" viewBox="0 0 375 225" fill="none" xmlns="http://www.w3.org/2000/svg">
<g clip-path="url(#clip0_1586_44806)">
<mask id="path-1-outside-1_1586_44806" maskUnits="userSpaceOnUse" x="112.5" y="10.5" width="136" height="205" fill="black">
<rect fill="white" x="112.5" y="10.5" width="136" height="205"/>
<path fill-rule="evenodd" clip-rule="evenodd" d="M204.722 129.783C204.722 129.783 204.615 130.022 204.425 130.461L204.449 130.662C203.16 133.698 198.366 145.545 195.97 159.192L195.872 159.204C195.832 159.437 195.792 159.67 195.754 159.904C195.296 162.698 195.036 164.701 194.795 166.549L194.791 166.574L194.734 167.014L194.694 167.321L167.497 170.7L146.5 173.241C141.543 173.842 137.039 170.298 136.441 165.328L134.916 152.655C136.399 150.053 137.555 146.06 136.253 142.769C135.793 141.607 134.92 140.334 133.319 139.39L123.855 60.7781C123.319 60.7914 122.846 60.3974 122.781 59.8538L121.796 51.6733C121.731 51.1297 122.097 50.634 122.62 50.52L122.112 46.2913C121.576 46.3055 121.103 45.9106 121.038 45.367L120.465 40.612C120.4 40.0684 120.766 39.5726 121.289 39.4586L120.243 30.7631C119.644 25.7923 123.177 21.2765 128.134 20.6769L186.878 13.5664C191.835 12.9658 196.339 16.5083 196.937 21.4791L198.321 32.9823C198.384 32.9619 198.449 32.9466 198.517 32.9385C199.093 32.8693 199.621 33.2836 199.69 33.8608L200.888 43.8115C200.957 44.3887 200.544 44.918 199.968 44.9873C199.901 44.9954 199.834 44.9964 199.768 44.9913L202.995 71.8018C199.584 81.8024 202.471 94.3694 203.773 98.5756C204.911 102.159 208.504 116.366 204.722 129.783ZM239.165 198.804C238.686 197.545 238.254 196.404 237.886 195.411C236.159 187.444 234.41 174.631 236.452 160.31C238.593 145.371 234.157 130.467 230.591 118.493L230.589 118.486C228.696 112.126 227.061 106.632 226.734 102.255C226.356 97.1211 218.453 74.5605 214.971 64.9979C213.673 65.0316 211.293 65.3971 209.301 67.2966C201.995 74.0398 205.963 94.4242 206.917 96.5558C207.659 98.0227 213.58 120.105 206.029 135.641C200.918 146.168 199.101 160.015 198.125 167.455C197.823 169.754 196.054 170.195 194.397 170.195L147.949 175.968C151.519 181.566 156.36 188.497 160.803 191.92C163.576 194.057 165.928 196.393 167.993 198.807C171.391 202.78 174.006 206.965 176.419 210.829C176.88 211.569 177.333 212.291 177.784 213L244.54 212.997C242.951 208.723 241.47 204.844 240.218 201.566C239.846 200.59 239.493 199.668 239.165 198.804ZM124.591 130.038L128.874 132.566L126.648 114.564C125.398 114.097 124.084 113.811 122.828 113.924C121.282 114.044 120.072 114.764 119.05 116.077C118.062 117.35 117.675 118.732 117.871 120.3C118.455 124.981 123.961 129.53 124.591 130.038ZM125.753 141.633C126.153 141.583 126.583 141.556 127.044 141.554C130.745 141.536 133.045 142.599 133.883 144.718C135.148 147.917 132.909 152.67 131.587 153.906C129.544 155.814 127.667 156.001 124.41 154.611C121.606 153.416 119.807 149.563 120.483 146.198C120.797 144.635 121.903 142.112 125.753 141.633ZM124.854 109.683L124.946 109.728L126.128 110.363L124.145 94.3196C122.971 94.0967 121.744 93.9837 120.584 94.1272C120.092 94.1883 119.613 94.2942 119.157 94.453C117.717 94.9558 116.689 95.9402 116.019 97.4631C115.369 98.9412 115.33 100.376 115.9 101.849C117.702 106.493 124.783 109.652 124.854 109.683ZM122.24 78.9052L123.647 90.2903C122.136 89.0534 120.719 87.5275 120.044 85.7868C119.474 84.3148 119.512 82.8804 120.163 81.4023C120.654 80.2866 121.343 79.4651 122.24 78.9052Z"/>
</mask>
<path d="M204.425 130.461L202.497 129.632L202.274 130.15L202.341 130.71L204.425 130.461ZM204.722 129.783L206.636 130.645L206.7 130.502L206.743 130.352L204.722 129.783ZM204.449 130.662L206.381 131.482L206.6 130.968L206.534 130.413L204.449 130.662ZM195.97 159.192L196.224 161.276L197.768 161.087L198.037 159.555L195.97 159.192ZM195.872 159.204L195.617 157.121L194.068 157.31L193.803 158.848L195.872 159.204ZM195.754 159.904L197.825 160.243L197.825 160.243L195.754 159.904ZM194.795 166.549L196.876 166.821L196.876 166.82L194.795 166.549ZM194.791 166.574L192.71 166.303L192.71 166.303L194.791 166.574ZM194.734 167.014L196.815 167.286L196.816 167.285L194.734 167.014ZM194.694 167.321L194.953 169.404L196.564 169.203L196.775 167.593L194.694 167.321ZM167.497 170.7L167.749 172.784L167.755 172.783L167.497 170.7ZM146.5 173.241L146.248 171.157L146.248 171.158L146.5 173.241ZM136.441 165.328L138.525 165.078L138.525 165.078L136.441 165.328ZM134.916 152.655L133.092 151.615L132.749 152.217L132.832 152.906L134.916 152.655ZM136.253 142.769L134.301 143.541L134.301 143.542L136.253 142.769ZM133.319 139.39L131.235 139.641L131.359 140.672L132.253 141.199L133.319 139.39ZM123.855 60.7781L125.939 60.5273L125.711 58.6327L123.803 58.6798L123.855 60.7781ZM122.781 59.8538L124.865 59.6047L124.865 59.603L122.781 59.8538ZM121.796 51.6733L119.712 51.9224L119.712 51.9242L121.796 51.6733ZM122.62 50.52L123.067 52.5709L124.932 52.1649L124.704 50.2693L122.62 50.52ZM122.112 46.2913L124.196 46.0406L123.967 44.1422L122.056 44.1931L122.112 46.2913ZM121.038 45.367L123.122 45.1179L123.122 45.116L121.038 45.367ZM120.465 40.612L118.381 40.8611L118.381 40.8629L120.465 40.612ZM121.289 39.4586L121.736 41.5096L123.602 41.1035L123.373 39.2078L121.289 39.4586ZM120.243 30.7631L122.327 30.5122L122.327 30.512L120.243 30.7631ZM128.134 20.6769L128.386 22.7607L128.386 22.7607L128.134 20.6769ZM186.878 13.5664L187.13 15.6501L187.13 15.6501L186.878 13.5664ZM196.937 21.4791L194.853 21.7298L194.853 21.73L196.937 21.4791ZM198.321 32.9823L196.237 33.2331L196.542 35.7638L198.967 34.9794L198.321 32.9823ZM198.517 32.9385L198.767 35.0226L198.768 35.0224L198.517 32.9385ZM199.69 33.8608L197.606 34.11L197.606 34.1117L199.69 33.8608ZM200.888 43.8115L202.972 43.5622L202.972 43.5606L200.888 43.8115ZM199.968 44.9873L199.717 42.9033L199.715 42.9036L199.968 44.9873ZM199.768 44.9913L199.929 42.8986L197.378 42.7018L197.684 45.2422L199.768 44.9913ZM202.995 71.8018L204.982 72.4794L205.137 72.0263L205.079 71.551L202.995 71.8018ZM203.773 98.5756L201.768 99.1965L201.77 99.2038L201.773 99.211L203.773 98.5756ZM237.886 195.411L235.834 195.856L235.866 196.002L235.918 196.142L237.886 195.411ZM239.165 198.804L237.203 199.551L237.203 199.551L239.165 198.804ZM236.452 160.31L234.375 160.013L234.375 160.014L236.452 160.31ZM230.591 118.493L228.579 119.09L228.58 119.092L230.591 118.493ZM230.589 118.486L232.602 117.889L232.601 117.887L230.589 118.486ZM226.734 102.255L224.641 102.409L224.641 102.411L226.734 102.255ZM214.971 64.9979L216.943 64.2798L216.427 62.8605L214.917 62.8997L214.971 64.9979ZM209.301 67.2966L210.725 68.8391L210.737 68.8274L210.75 68.8156L209.301 67.2966ZM206.917 96.5558L205.001 97.4134L205.021 97.4588L205.044 97.5033L206.917 96.5558ZM206.029 135.641L204.141 134.724L204.141 134.725L206.029 135.641ZM198.125 167.455L196.044 167.182V167.182L198.125 167.455ZM194.397 170.195V168.096H194.267L194.138 168.112L194.397 170.195ZM147.949 175.968L147.69 173.886L144.392 174.295L146.179 177.097L147.949 175.968ZM160.803 191.92L159.522 193.583L159.522 193.583L160.803 191.92ZM167.993 198.807L169.588 197.442L169.588 197.442L167.993 198.807ZM176.419 210.829L178.199 209.718L178.199 209.718L176.419 210.829ZM177.784 213L176.013 214.126L176.631 215.099L177.784 215.099L177.784 213ZM244.54 212.997L244.541 215.096L247.56 215.096L246.508 212.266L244.54 212.997ZM240.218 201.566L242.179 200.817V200.817L240.218 201.566ZM128.874 132.566L127.807 134.374L131.48 136.542L130.957 132.309L128.874 132.566ZM124.591 130.038L123.274 131.673L123.393 131.769L123.524 131.846L124.591 130.038ZM126.648 114.564L128.731 114.307L128.575 113.044L127.383 112.598L126.648 114.564ZM122.828 113.924L122.991 116.017L123.003 116.016L123.016 116.014L122.828 113.924ZM119.05 116.077L117.393 114.788L117.392 114.79L119.05 116.077ZM117.871 120.3L115.788 120.561L115.788 120.561L117.871 120.3ZM127.044 141.554L127.054 143.653H127.054L127.044 141.554ZM125.753 141.633L126.012 143.716L126.013 143.716L125.753 141.633ZM133.883 144.718L135.835 143.946L135.835 143.946L133.883 144.718ZM131.587 153.906L133.02 155.44L133.021 155.439L131.587 153.906ZM124.41 154.611L125.234 152.681L125.233 152.68L124.41 154.611ZM120.483 146.198L122.541 146.611L122.541 146.611L120.483 146.198ZM124.946 109.728L125.94 107.879L125.901 107.858L125.862 107.839L124.946 109.728ZM124.854 109.683L125.769 107.794L125.726 107.773L125.682 107.754L124.854 109.683ZM126.128 110.363L125.134 112.212L128.709 114.133L128.211 110.105L126.128 110.363ZM124.145 94.3196L126.228 94.0622L126.04 92.5432L124.537 92.2575L124.145 94.3196ZM120.584 94.1272L120.326 92.0441L120.325 92.0443L120.584 94.1272ZM119.157 94.453L118.467 92.4708L118.466 92.4713L119.157 94.453ZM116.019 97.4631L117.94 98.3089L117.941 98.3084L116.019 97.4631ZM115.9 101.849L113.943 102.607L113.944 102.608L115.9 101.849ZM123.647 90.2903L122.317 91.9143L126.373 95.235L125.73 90.0328L123.647 90.2903ZM122.24 78.9052L124.323 78.6478L123.92 75.3834L121.129 77.1244L122.24 78.9052ZM120.044 85.7868L118.087 86.5453L118.087 86.5457L120.044 85.7868ZM120.163 81.4023L118.242 80.5563L118.242 80.5566L120.163 81.4023ZM204.425 130.461L206.353 131.291C206.445 131.077 206.517 130.913 206.565 130.804C206.589 130.749 206.608 130.708 206.62 130.682C206.626 130.668 206.63 130.658 206.633 130.652C206.634 130.649 206.635 130.647 206.636 130.646C206.636 130.645 206.636 130.645 206.636 130.645C206.636 130.645 206.636 130.645 206.636 130.645C206.636 130.645 206.636 130.645 206.636 130.645C206.636 130.645 206.636 130.645 206.636 130.645C206.636 130.645 206.636 130.645 206.636 130.645C206.636 130.645 206.636 130.645 204.722 129.783C202.809 128.921 202.809 128.921 202.809 128.921C202.808 128.921 202.808 128.921 202.808 128.921C202.808 128.921 202.808 128.921 202.808 128.921C202.808 128.921 202.808 128.921 202.808 128.921C202.808 128.922 202.808 128.922 202.808 128.922C202.807 128.923 202.807 128.924 202.806 128.925C202.805 128.928 202.804 128.931 202.802 128.935C202.798 128.944 202.792 128.956 202.785 128.972C202.771 129.004 202.751 129.05 202.724 129.111C202.671 129.231 202.595 129.406 202.497 129.632L204.425 130.461ZM204.449 130.662L206.534 130.413L206.51 130.213L204.425 130.461L202.341 130.71L202.365 130.91L204.449 130.662ZM195.97 159.192L198.037 159.555C200.393 146.137 205.117 134.459 206.381 131.482L204.449 130.662L202.517 129.841C201.202 132.937 196.339 144.953 193.902 158.829L195.97 159.192ZM195.872 159.204L196.126 161.288L196.224 161.276L195.97 159.192L195.715 157.109L195.617 157.121L195.872 159.204ZM195.754 159.904L197.825 160.243C197.862 160.016 197.901 159.788 197.94 159.56L195.872 159.204L193.803 158.848C193.762 159.085 193.722 159.324 193.682 159.565L195.754 159.904ZM194.795 166.549L196.876 166.82C197.116 164.976 197.374 163.002 197.825 160.243L195.754 159.904L193.683 159.565C193.219 162.395 192.955 164.426 192.713 166.278L194.795 166.549ZM194.791 166.574L196.873 166.846L196.876 166.821L194.795 166.549L192.714 166.277L192.71 166.303L194.791 166.574ZM194.734 167.014L196.816 167.285L196.873 166.846L194.791 166.574L192.71 166.303L192.653 166.743L194.734 167.014ZM194.694 167.321L196.775 167.593L196.815 167.286L194.734 167.014L192.653 166.741L192.613 167.048L194.694 167.321ZM167.497 170.7L167.755 172.783L194.953 169.404L194.694 167.321L194.435 165.238L167.238 168.617L167.497 170.7ZM146.5 173.241L146.752 175.325L167.749 172.784L167.497 170.7L167.244 168.617L146.248 171.157L146.5 173.241ZM136.441 165.328L134.357 165.579C135.093 171.695 140.639 176.066 146.753 175.325L146.5 173.241L146.248 171.158C142.447 171.618 138.985 168.901 138.525 165.078L136.441 165.328ZM134.916 152.655L132.832 152.906L134.357 165.579L136.441 165.328L138.525 165.078L136.999 152.404L134.916 152.655ZM136.253 142.769L134.301 143.542C135.261 145.966 134.443 149.246 133.092 151.615L134.916 152.655L136.739 153.694C138.355 150.86 139.85 146.154 138.204 141.997L136.253 142.769ZM133.319 139.39L132.253 141.199C133.398 141.874 133.989 142.752 134.301 143.541L136.253 142.769L138.204 141.997C137.597 140.461 136.441 138.794 134.384 137.582L133.319 139.39ZM123.855 60.7781L121.771 61.029L131.235 139.641L133.319 139.39L135.403 139.14L125.939 60.5273L123.855 60.7781ZM122.781 59.8538L120.697 60.1029C120.894 61.7511 122.318 62.9157 123.907 62.8765L123.855 60.7781L123.803 58.6798C124.319 58.6671 124.798 59.0438 124.865 59.6047L122.781 59.8538ZM121.796 51.6733L119.712 51.9242L120.697 60.1047L122.781 59.8538L124.865 59.603L123.88 51.4225L121.796 51.6733ZM122.62 50.52L122.174 48.469C120.616 48.8081 119.516 50.2813 119.712 51.9224L121.796 51.6733L123.88 51.4242C123.946 51.9782 123.577 52.4599 123.067 52.5709L122.62 50.52ZM122.112 46.2913L120.028 46.5419L120.536 50.7706L122.62 50.52L124.704 50.2693L124.196 46.0406L122.112 46.2913ZM121.038 45.367L118.954 45.6161C119.15 47.2608 120.573 48.4319 122.168 48.3895L122.112 46.2913L122.056 44.1931C122.579 44.1792 123.055 44.5603 123.122 45.1179L121.038 45.367ZM120.465 40.612L118.381 40.8629L118.954 45.6179L121.038 45.367L123.122 45.116L122.549 40.3611L120.465 40.612ZM121.289 39.4586L120.843 37.4077C119.285 37.7467 118.185 39.22 118.381 40.8611L120.465 40.612L122.549 40.3629C122.615 40.9168 122.246 41.3986 121.736 41.5096L121.289 39.4586ZM120.243 30.7631L118.159 31.0139L119.206 39.7095L121.289 39.4586L123.373 39.2078L122.327 30.5122L120.243 30.7631ZM128.134 20.6769L127.882 18.5932C121.769 19.3325 117.422 24.8982 118.159 31.0142L120.243 30.7631L122.327 30.512C121.866 26.6864 124.585 23.2205 128.386 22.7607L128.134 20.6769ZM186.878 13.5664L186.626 11.4826L127.882 18.5932L128.134 20.6769L128.386 22.7607L187.13 15.6501L186.878 13.5664ZM196.937 21.4791L199.021 21.2284C198.285 15.1111 192.739 10.7419 186.625 11.4826L186.878 13.5664L187.13 15.6501C190.931 15.1896 194.393 17.9055 194.853 21.7298L196.937 21.4791ZM198.321 32.9823L200.405 32.7314L199.021 21.2282L196.937 21.4791L194.853 21.73L196.237 33.2331L198.321 32.9823ZM198.517 32.9385L198.268 30.8544C198.047 30.8808 197.849 30.9289 197.675 30.9852L198.321 32.9823L198.967 34.9794C198.919 34.9949 198.851 35.0125 198.767 35.0226L198.517 32.9385ZM199.69 33.8608L201.774 33.6115C201.567 31.8832 199.994 30.6468 198.267 30.8545L198.517 32.9385L198.768 35.0224C198.192 35.0917 197.674 34.6839 197.606 34.11L199.69 33.8608ZM200.888 43.8115L202.972 43.5606L201.774 33.6099L199.69 33.8608L197.606 34.1117L198.804 44.0624L200.888 43.8115ZM199.968 44.9873L200.219 47.0712C201.955 46.8625 203.177 45.28 202.972 43.5622L200.888 43.8115L198.804 44.0608C198.736 43.4974 199.133 42.9736 199.717 42.9033L199.968 44.9873ZM199.768 44.9913L199.607 47.0841C199.802 47.0992 200.009 47.0967 200.221 47.0709L199.968 44.9873L199.715 42.9036C199.793 42.8941 199.866 42.8937 199.929 42.8986L199.768 44.9913ZM202.995 71.8018L205.079 71.551L201.852 44.7405L199.768 44.9913L197.684 45.2422L200.911 72.0527L202.995 71.8018ZM203.773 98.5756L205.778 97.9548C205.162 95.9668 204.149 91.9173 203.707 87.167C203.262 82.3962 203.411 77.0866 204.982 72.4794L202.995 71.8018L201.009 71.1242C199.169 76.5176 199.055 82.4918 199.527 87.5562C200 92.6411 201.081 96.9782 201.768 99.1965L203.773 98.5756ZM204.722 129.783L206.743 130.352C210.692 116.339 206.952 101.651 205.774 97.9403L203.773 98.5756L201.773 99.211C202.87 102.667 206.316 116.393 202.702 129.213L204.722 129.783ZM237.886 195.411L235.918 196.142C236.289 197.142 236.723 198.29 237.203 199.551L239.165 198.804L241.126 198.058C240.648 196.8 240.219 195.665 239.853 194.681L237.886 195.411ZM236.452 160.31L234.375 160.014C232.285 174.66 234.075 187.737 235.834 195.856L237.886 195.411L239.937 194.967C238.243 187.151 236.534 174.602 238.53 160.607L236.452 160.31ZM230.591 118.493L228.58 119.092C232.166 131.136 236.44 145.601 234.375 160.013L236.452 160.31L238.53 160.608C240.746 145.141 236.148 129.798 232.603 117.894L230.591 118.493ZM230.589 118.486L228.577 119.083L228.579 119.09L230.591 118.493L232.604 117.896L232.602 117.889L230.589 118.486ZM226.734 102.255L224.641 102.411C224.989 107.067 226.71 112.811 228.578 119.085L230.589 118.486L232.601 117.887C230.682 111.44 229.133 106.198 228.827 102.099L226.734 102.255ZM214.971 64.9979L212.999 65.716C214.735 70.484 217.573 78.4929 220.022 85.9427C221.248 89.6692 222.37 93.239 223.207 96.186C224.066 99.2072 224.565 101.375 224.641 102.409L226.734 102.255L228.828 102.1C228.715 100.568 228.084 97.9903 227.245 95.0386C226.386 92.013 225.243 88.3823 224.01 84.6316C221.543 77.1271 218.689 69.0743 216.943 64.2798L214.971 64.9979ZM209.301 67.2966L210.75 68.8156C212.22 67.414 214.004 67.1226 215.025 67.0962L214.971 64.9979L214.917 62.8997C213.341 62.9405 210.367 63.3802 207.853 65.7777L209.301 67.2966ZM206.917 96.5558L208.832 95.6982C208.835 95.705 208.825 95.681 208.801 95.6133C208.779 95.5494 208.751 95.4629 208.718 95.3519C208.652 95.1292 208.573 94.8356 208.487 94.4742C208.314 93.7525 208.118 92.802 207.929 91.6828C207.55 89.4426 207.205 86.58 207.109 83.5887C207.013 80.5859 207.172 77.5286 207.761 74.8673C208.357 72.1781 209.343 70.1143 210.725 68.8391L209.301 67.2966L207.878 65.7542C205.606 67.8506 204.348 70.8636 203.663 73.9596C202.971 77.0835 202.811 80.5199 202.913 83.7225C203.016 86.9366 203.385 89.9912 203.79 92.3833C203.992 93.5803 204.206 94.6247 204.404 95.4521C204.589 96.2242 204.793 96.9491 205.001 97.4134L206.917 96.5558ZM206.029 135.641L207.917 136.559C211.934 128.293 212.316 118.443 211.675 110.65C211.352 106.724 210.763 103.25 210.205 100.656C209.926 99.3584 209.653 98.2717 209.422 97.4501C209.213 96.71 208.99 96.0044 208.79 95.6084L206.917 96.5558L205.044 97.5033C205.029 97.474 205.153 97.7793 205.381 98.5883C205.586 99.3157 205.838 100.316 206.101 101.538C206.626 103.982 207.185 107.275 207.491 110.995C208.108 118.493 207.675 127.453 204.141 134.724L206.029 135.641ZM198.125 167.455L200.206 167.728C201.19 160.226 202.981 146.727 207.917 136.558L206.029 135.641L204.141 134.725C198.856 145.61 197.012 159.805 196.044 167.182L198.125 167.455ZM194.397 170.195V172.294C195.354 172.294 196.656 172.178 197.821 171.504C199.119 170.753 199.978 169.469 200.206 167.728L198.125 167.455L196.044 167.182C196.002 167.5 195.924 167.654 195.882 167.719C195.843 167.779 195.797 167.825 195.718 167.871C195.509 167.992 195.097 168.096 194.397 168.096V170.195ZM147.949 175.968L148.208 178.051L194.656 172.278L194.397 170.195L194.138 168.112L147.69 173.886L147.949 175.968ZM160.803 191.92L162.084 190.258C157.975 187.092 153.314 180.477 149.718 174.84L147.949 175.968L146.179 177.097C149.724 182.655 154.744 189.902 159.522 193.583L160.803 191.92ZM167.993 198.807L169.588 197.442C167.446 194.938 164.99 192.497 162.084 190.258L160.803 191.92L159.522 193.583C162.162 195.617 164.411 197.849 166.398 200.171L167.993 198.807ZM176.419 210.829L178.199 209.718C175.795 205.867 173.103 201.552 169.588 197.442L167.993 198.807L166.398 200.171C169.679 204.007 172.217 208.063 174.638 211.941L176.419 210.829ZM177.784 213L179.555 211.873C179.109 211.172 178.66 210.456 178.199 209.718L176.419 210.829L174.638 211.941C175.101 212.683 175.558 213.411 176.013 214.126L177.784 213ZM244.54 212.997L244.54 210.898L177.784 210.901L177.784 213L177.784 215.099L244.541 215.096L244.54 212.997ZM240.218 201.566L238.257 202.315C239.509 205.593 240.987 209.464 242.573 213.729L244.54 212.997L246.508 212.266C244.915 207.981 243.431 204.095 242.179 200.817L240.218 201.566ZM239.165 198.804L237.203 199.551C237.532 200.416 237.885 201.339 238.257 202.315L240.218 201.566L242.179 200.817C241.806 199.841 241.455 198.92 241.126 198.058L239.165 198.804ZM128.874 132.566L129.94 130.759L125.658 128.231L124.591 130.038L123.524 131.846L127.807 134.374L128.874 132.566ZM126.648 114.564L124.565 114.822L126.79 132.824L128.874 132.566L130.957 132.309L128.731 114.307L126.648 114.564ZM122.828 113.924L123.016 116.014C123.844 115.94 124.827 116.124 125.913 116.53L126.648 114.564L127.383 112.598C125.97 112.07 124.323 111.682 122.64 111.833L122.828 113.924ZM119.05 116.077L120.707 117.365C121.422 116.447 122.119 116.084 122.991 116.017L122.828 113.924L122.665 111.831C120.445 112.004 118.721 113.081 117.393 114.788L119.05 116.077ZM117.871 120.3L119.953 120.04C119.828 119.037 120.052 118.209 120.708 117.364L119.05 116.077L117.392 114.79C116.071 116.491 115.521 118.427 115.788 120.561L117.871 120.3ZM124.591 130.038L125.908 128.404C125.642 128.189 124.218 127.017 122.809 125.37C121.347 123.661 120.167 121.747 119.953 120.04L117.871 120.3L115.788 120.561C116.159 123.534 118.025 126.235 119.619 128.099C121.266 130.023 122.911 131.38 123.274 131.673L124.591 130.038ZM127.044 141.554L127.035 139.455C126.497 139.457 125.982 139.489 125.493 139.55L125.753 141.633L126.013 143.716C126.324 143.677 126.67 143.654 127.054 143.653L127.044 141.554ZM133.883 144.718L135.835 143.946C134.502 140.576 130.99 139.436 127.035 139.455L127.044 141.554L127.054 143.653C130.5 143.637 131.588 144.622 131.931 145.489L133.883 144.718ZM131.587 153.906L133.021 155.439C134.045 154.482 135.079 152.61 135.701 150.697C136.328 148.771 136.732 146.214 135.835 143.946L133.883 144.718L131.931 145.489C132.299 146.421 132.216 147.84 131.709 149.399C131.198 150.971 130.452 152.094 130.154 152.373L131.587 153.906ZM124.41 154.611L123.586 156.542C125.34 157.29 127.011 157.746 128.66 157.584C130.386 157.414 131.777 156.601 133.02 155.44L131.587 153.906L130.155 152.372C129.355 153.119 128.785 153.353 128.248 153.406C127.633 153.467 126.736 153.322 125.234 152.681L124.41 154.611ZM120.483 146.198L118.425 145.784C117.989 147.955 118.357 150.215 119.239 152.106C120.117 153.985 121.597 155.694 123.587 156.542L124.41 154.611L125.233 152.68C124.418 152.333 123.598 151.518 123.043 150.331C122.495 149.155 122.301 147.805 122.541 146.611L120.483 146.198ZM125.753 141.633L125.494 139.55C123.108 139.847 121.393 140.814 120.232 142.105C119.105 143.358 118.629 144.769 118.425 145.785L120.483 146.198L122.541 146.611C122.651 146.064 122.885 145.432 123.353 144.913C123.786 144.431 124.549 143.898 126.012 143.716L125.753 141.633ZM124.946 109.728L125.862 107.839L125.769 107.794L124.854 109.683L123.938 111.572L124.03 111.616L124.946 109.728ZM126.128 110.363L127.121 108.514L125.94 107.879L124.946 109.728L123.952 111.576L125.134 112.212L126.128 110.363ZM124.145 94.3196L122.062 94.577L124.045 110.62L126.128 110.363L128.211 110.105L126.228 94.0622L124.145 94.3196ZM120.584 94.1272L120.841 96.2103C121.706 96.1033 122.698 96.1812 123.753 96.3817L124.145 94.3196L124.537 92.2575C123.245 92.0121 121.782 91.864 120.326 92.0441L120.584 94.1272ZM119.157 94.453L119.848 96.4351C120.146 96.331 120.479 96.2553 120.843 96.2101L120.584 94.1272L120.325 92.0443C119.706 92.1212 119.08 92.2573 118.467 92.4708L119.157 94.453ZM116.019 97.4631L117.941 98.3084C118.399 97.266 119.01 96.7276 119.849 96.4347L119.157 94.453L118.466 92.4713C116.423 93.1841 114.979 94.6144 114.098 96.6178L116.019 97.4631ZM115.9 101.849L117.858 101.09C117.493 100.148 117.508 99.2906 117.94 98.3089L116.019 97.4631L114.098 96.6174C113.229 98.5918 113.167 100.603 113.943 102.607L115.9 101.849ZM124.854 109.683L125.682 107.754C125.731 107.775 124.073 107.04 122.213 105.765C120.282 104.44 118.518 102.791 117.857 101.089L115.9 101.849L113.944 102.608C115.085 105.55 117.762 107.803 119.839 109.227C121.988 110.7 123.905 111.56 124.025 111.611L124.854 109.683ZM123.647 90.2903L125.73 90.0328L124.323 78.6478L122.24 78.9052L120.157 79.1627L121.564 90.5477L123.647 90.2903ZM120.044 85.7868L118.087 86.5457C118.954 88.7817 120.695 90.5864 122.317 91.9143L123.647 90.2903L124.977 88.6662C123.577 87.5205 122.484 86.2733 122.001 85.0278L120.044 85.7868ZM120.163 81.4023L118.242 80.5566C117.373 82.5308 117.311 84.5421 118.087 86.5453L120.044 85.7868L122.001 85.0282C121.637 84.0874 121.652 83.23 122.084 82.2481L120.163 81.4023ZM122.24 78.9052L121.129 77.1244C119.828 77.9363 118.88 79.1078 118.242 80.5563L120.163 81.4023L122.084 82.2483C122.429 81.4654 122.858 80.9939 123.351 80.6861L122.24 78.9052Z" fill="white" mask="url(#path-1-outside-1_1586_44806)"/>
<path d="M191.836 24.8578C191.508 22.1072 189.039 20.1463 186.322 20.478L130.1 27.3492C127.384 27.6809 125.447 30.1807 125.774 32.9312L141.026 160.854C141.354 163.604 143.823 165.565 146.539 165.234L195.97 159.193C198.366 145.545 203.16 133.698 204.45 130.662L191.836 24.8578Z" fill="white"/>
<path d="M239.162 198.806C238.682 197.547 238.251 196.406 237.883 195.413C236.156 187.446 234.406 174.633 236.449 160.312C238.59 145.373 234.154 130.469 230.588 118.495C228.694 112.132 227.058 106.636 226.731 102.256C226.353 97.1229 218.449 74.5622 214.968 64.9997C213.669 65.0333 211.29 65.3989 209.298 67.2984C201.992 74.0416 205.959 94.426 206.913 96.5576C207.656 98.0244 213.577 120.107 206.026 135.643C200.915 146.17 199.098 160.017 198.122 167.456C197.82 169.756 196.051 170.197 194.394 170.197L147.945 175.97C151.516 181.568 156.357 188.499 160.8 191.922C163.573 194.059 165.925 196.395 167.99 198.808C171.388 202.781 174.002 206.967 176.415 210.831C176.877 211.571 177.33 212.293 177.781 213.001L244.537 212.999C242.475 207.452 240.595 202.572 239.162 198.806Z" fill="#73371F"/>
<path d="M179.772 36.7816C182.649 36.4302 185.269 38.4775 185.623 41.3537L198.077 142.277C198.432 145.153 196.388 147.769 193.511 148.121L151.512 153.252C148.636 153.604 146.016 151.557 145.661 148.681L133.208 47.7569C132.853 44.8808 134.898 42.2644 137.774 41.913L179.772 36.7816Z" fill="white"/>
<path d="M146.96 164.487C144.266 164.812 141.817 162.886 141.492 160.185L126.367 34.5347C126.042 31.833 127.963 29.3776 130.657 29.0518L186.417 22.3027C189.112 21.9769 191.56 23.9029 191.885 26.6046L204.396 130.529C204.603 130.046 204.721 129.783 204.721 129.783C208.503 116.366 204.91 102.159 203.772 98.5756C202.47 94.3694 199.584 81.8024 202.995 71.8018L199.767 44.9913C199.833 44.9964 199.9 44.9954 199.967 44.9873C200.543 44.918 200.956 44.3887 200.887 43.8115L199.689 33.8608C199.62 33.2836 199.092 32.8693 198.517 32.9385C198.449 32.9466 198.384 32.9619 198.321 32.9823L196.936 21.4791C196.338 16.5083 191.834 12.9658 186.877 13.5664L128.133 20.6769C123.176 21.2765 119.643 25.7923 120.242 30.7631L121.289 39.4586C120.765 39.5726 120.399 40.0684 120.464 40.612L121.037 45.367C121.102 45.9106 121.575 46.3055 122.111 46.2913L122.62 50.52C122.096 50.634 121.73 51.1297 121.795 51.6733L122.78 59.8538C122.845 60.3974 123.318 60.7914 123.854 60.7781L133.318 139.39C134.919 140.334 135.792 141.607 136.252 142.769C137.554 146.06 136.398 150.053 134.915 152.655L136.441 165.328C137.039 170.298 141.542 173.842 146.499 173.241L167.496 170.7L194.693 167.321C194.965 165.248 195.231 163.091 195.753 159.904C195.827 159.451 195.905 159.001 195.985 158.552L146.96 164.487Z" fill="#292929"/>
<path d="M124.59 130.038L128.872 132.565L126.647 114.563C125.397 114.096 124.083 113.81 122.827 113.923C121.281 114.043 120.071 114.763 119.049 116.076C118.06 117.35 117.674 118.731 117.87 120.3C118.454 124.98 123.96 129.53 124.59 130.038Z" fill="#73371F"/>
<path d="M127.044 141.553C126.583 141.555 126.152 141.582 125.752 141.632C121.903 142.111 120.796 144.634 120.482 146.197C119.806 149.562 121.605 153.415 124.409 154.611C127.666 156 129.543 155.813 131.587 153.905C132.909 152.669 135.147 147.916 133.882 144.717C133.045 142.598 130.744 141.536 127.044 141.553Z" fill="#73371F"/>
<path d="M124.854 109.682L124.946 109.727L126.128 110.362L124.145 94.3188C122.971 94.0959 121.744 93.9829 120.584 94.1264C120.092 94.1875 119.613 94.2934 119.157 94.4522C117.717 94.955 116.689 95.9394 116.019 97.4623C115.369 98.9404 115.33 100.375 115.9 101.848C117.702 106.492 124.783 109.652 124.854 109.682Z" fill="#73371F"/>
<path d="M123.648 90.2894L122.241 78.9043C121.343 79.4642 120.655 80.2857 120.164 81.4014C119.513 82.8795 119.474 84.3138 120.045 85.7858C120.72 87.5266 122.137 89.0525 123.648 90.2894Z" fill="#73371F"/>
<path d="M196.858 102.288C197.076 104.068 184.749 107.042 169.325 108.93C153.902 110.818 141.222 110.906 141.004 109.127C140.786 107.347 153.113 104.374 168.536 102.485C183.96 100.597 196.64 100.509 196.858 102.288Z" fill="#A0A09F" fill-opacity="0.15"/>
<path fill-rule="evenodd" clip-rule="evenodd" d="M165.262 70.1787C178.906 68.5083 189.808 72.5428 190.92 81.619C191.011 82.3678 190.806 83.452 190.253 84.0146L191.352 84.4056L191.411 84.3321L192.279 84.6565C192.375 84.6917 192.443 84.7806 192.456 84.8857L192.571 85.819C192.589 85.9708 192.487 86.1083 192.343 86.1259C192.309 86.1301 192.274 86.1272 192.241 86.1175L191.866 86.0084C191.832 85.9988 191.799 85.9891 191.764 85.9793C191.679 86.1485 191.525 86.2798 191.334 86.3312C191.658 86.336 191.936 86.5792 191.976 86.9091C192.021 87.2777 191.824 87.6315 191.492 87.7891L191.439 87.8121C192.054 88.2345 192.495 88.9186 192.594 89.7303L192.743 90.9457C192.866 91.9506 192.403 92.6388 191.642 93.0314L191.635 93.0304L191.813 94.4804C192.271 94.448 192.641 94.5664 192.699 95.0371C192.733 95.3174 192.649 95.4587 192.489 95.5495L192.744 97.6335C193.046 100.103 191.446 102.406 189.026 102.984C182.85 104.46 176.452 105.603 169.834 106.414C168.908 106.527 167.974 106.634 167.034 106.735C166.933 106.778 166.828 106.788 166.718 106.77C160.832 107.391 154.687 107.77 148.283 107.905C145.804 107.957 143.683 106.146 143.338 103.7L143.326 103.609L143.069 101.514L144.989 101.279C144.934 101.174 144.908 101.045 144.914 100.887C144.925 100.651 144.995 100.485 145.109 100.363L144.912 98.7546C144.075 98.5589 143.457 98.0024 143.334 96.9949L143.185 95.7795C143.072 94.861 143.424 93.9955 144.051 93.4301C143.728 93.4468 143.441 93.2226 143.38 92.9052L143.372 92.8596C143.332 92.529 143.543 92.225 143.857 92.1415C143.579 92.1315 143.335 91.9495 143.244 91.6883L143.228 91.6825L142.985 89.696C142.418 89.3053 142.028 88.556 141.946 87.8874C140.835 78.8112 151.618 71.8491 165.262 70.1787Z" fill="white"/>
<path fill-rule="evenodd" clip-rule="evenodd" d="M142.988 89.6966C142.421 89.3058 142.031 88.5565 141.949 87.888C140.838 78.8117 151.621 71.8497 165.265 70.1792C178.909 68.5088 189.812 72.5433 190.923 81.6196C190.965 81.9668 190.944 82.386 190.854 82.792C190.787 83.0901 190.684 83.3809 190.541 83.6308C190.525 83.6585 190.509 83.6858 190.492 83.7124C190.422 83.8241 190.343 83.9261 190.256 84.0151L191.355 84.4061L191.414 84.3327L192.282 84.6571C192.335 84.6764 192.379 84.7121 192.411 84.7578C192.416 84.7653 192.421 84.7731 192.425 84.7811C192.443 84.8129 192.455 84.8486 192.459 84.8863L192.574 85.8195C192.592 85.9714 192.49 86.1088 192.346 86.1265C192.312 86.1306 192.277 86.1278 192.244 86.1181L191.869 86.009L191.767 85.9798C191.682 86.149 191.528 86.2803 191.337 86.3317C191.447 86.3333 191.552 86.3624 191.643 86.413C191.675 86.4306 191.706 86.4507 191.734 86.4732C191.734 86.4735 191.735 86.4738 191.735 86.4741C191.866 86.5778 191.957 86.731 191.979 86.9096C191.983 86.94 191.985 86.9704 191.986 87.0005C191.986 87.0031 191.986 87.0056 191.986 87.0082C191.986 87.0122 191.986 87.0162 191.986 87.0202C191.985 87.1627 191.948 87.3001 191.883 87.4215C191.842 87.497 191.79 87.5663 191.728 87.6268C191.661 87.6926 191.583 87.7479 191.495 87.7896L191.442 87.8126C191.473 87.8339 191.503 87.8559 191.534 87.8786C191.536 87.8801 191.538 87.8817 191.54 87.8832C191.875 88.1367 192.153 88.4708 192.342 88.8616C192.471 89.1276 192.559 89.4199 192.597 89.7308L192.746 90.9462C192.869 91.9492 192.408 92.6367 191.649 93.0297C191.648 93.0304 191.646 93.0312 191.645 93.0319L191.638 93.031L191.816 94.4809C191.839 94.4793 191.861 94.4781 191.883 94.4772C192.309 94.4611 192.647 94.5901 192.702 95.0376C192.736 95.3179 192.652 95.4593 192.492 95.55L192.747 97.634C193.049 100.104 191.449 102.407 189.029 102.985C182.853 104.461 176.455 105.604 169.837 106.414C168.911 106.528 167.977 106.635 167.038 106.736C166.936 106.778 166.831 106.789 166.721 106.77C160.836 107.392 154.691 107.771 148.286 107.905C145.807 107.957 143.686 106.147 143.341 103.701L143.329 103.61L143.072 101.514L144.992 101.28C144.937 101.175 144.911 101.045 144.918 100.888C144.919 100.845 144.923 100.804 144.929 100.765C144.955 100.592 145.019 100.463 145.112 100.363L144.915 98.7552C144.078 98.5594 143.46 98.003 143.337 96.9954L143.188 95.78C143.14 95.3851 143.177 95 143.285 94.6444C143.428 94.1728 143.696 93.753 144.054 93.4307C143.971 93.435 143.89 93.4233 143.815 93.3983C143.599 93.3259 143.429 93.1415 143.383 92.9058L143.376 92.8602C143.368 92.7991 143.369 92.7389 143.378 92.6809C143.417 92.4247 143.604 92.2101 143.86 92.142C143.582 92.132 143.338 91.9501 143.247 91.6889L143.231 91.683L142.988 89.6966ZM142.061 92.3617C141.971 92.2063 141.911 92.032 141.889 91.8474L141.708 90.3745C141.078 89.7215 140.703 88.8392 140.606 88.0523C139.97 82.8553 142.781 78.4163 147.281 75.1605C151.777 71.9077 158.119 69.6913 165.1 68.8366C172.071 67.9832 178.464 68.5682 183.321 70.6237C188.213 72.6946 191.636 76.3173 192.265 81.4552C192.331 81.9921 192.292 82.5978 192.155 83.1657L192.749 83.3875C192.751 83.3881 192.752 83.3887 192.754 83.3892C193.347 83.6094 193.731 84.1411 193.802 84.7219L193.916 85.6551C193.983 86.2002 193.764 86.7632 193.336 87.1176C193.327 87.3204 193.289 87.5185 193.227 87.707C193.602 88.2412 193.855 88.8743 193.94 89.5664L194.089 90.7818C194.181 91.5353 194.059 92.2551 193.705 92.8831C193.575 93.114 193.421 93.3198 193.249 93.5023C193.71 93.8273 193.977 94.3235 194.044 94.8733C194.08 95.1617 194.075 95.5375 193.904 95.9191C193.903 95.9212 193.902 95.9234 193.901 95.9255L194.09 97.4696C194.09 97.4696 194.09 97.4697 194.09 97.4696C194.476 100.622 192.433 103.562 189.344 104.301C183.115 105.789 176.668 106.941 170.002 107.757C169.114 107.866 168.22 107.969 167.32 108.066C167.123 108.119 166.924 108.139 166.73 108.129C160.845 108.747 154.706 109.123 148.314 109.257C145.149 109.324 142.442 107.013 142.001 103.89L142 103.878L141.988 103.787L141.986 103.774L141.73 101.679C141.686 101.323 141.786 100.964 142.007 100.681C142.228 100.399 142.552 100.215 142.908 100.172L143.714 100.073L143.67 99.7187C143.385 99.5629 143.116 99.3626 142.877 99.1105C142.379 98.586 142.087 97.9153 141.994 97.1598L141.845 95.9444C141.746 95.1339 141.89 94.3466 142.222 93.6617C142.146 93.5068 142.089 93.3399 142.055 93.1636C142.052 93.1481 142.049 93.1326 142.047 93.117L142.039 93.0713C142.037 93.0558 142.035 93.0402 142.033 93.0245C142.005 92.7971 142.016 92.5739 142.061 92.3617ZM192.625 84.8201L192.622 84.8191C192.623 84.8194 192.624 84.8198 192.625 84.8201Z" fill="white"/>
<path fill-rule="evenodd" clip-rule="evenodd" d="M143.333 103.647C143.635 106.107 145.725 107.948 148.202 107.883C153.235 107.75 161.864 107.39 169.837 106.414C177.514 105.474 184.796 103.937 189.147 102.925C191.521 102.372 193.05 100.112 192.754 97.6928L192.482 95.4653L143.072 101.514L143.333 103.647Z" fill="#EC9D47"/>
<path fill-rule="evenodd" clip-rule="evenodd" d="M189.667 87.3747C191.103 87.1989 192.414 88.2534 192.595 89.7302L192.744 90.9455C192.867 91.9505 192.404 92.6387 191.643 93.0312C191.506 93.0104 191.352 93.0142 191.19 93.034C191.185 93.0346 179.13 94.6189 177.52 95.0175C176.583 95.1869 175.953 95.3174 175.63 95.409C166.75 97.9281 162.667 96.2644 158.275 96.3535C155.402 96.412 152.754 96.9207 150.737 97.6881C150.715 97.6964 149.874 97.9253 149.401 98.012C148.556 98.167 147.791 98.3609 146.784 98.4537C146.206 98.5069 145.478 98.8652 145.025 98.7783C144.132 98.607 143.463 98.0468 143.334 96.9947L143.186 95.7794C143.005 94.3026 144.023 92.963 145.459 92.7872C155.409 91.0195 162.915 89.8231 167.975 89.1979L168.134 89.1784C172.897 88.5953 180.074 87.994 189.667 87.3747Z" fill="#73371F"/>
<path fill-rule="evenodd" clip-rule="evenodd" d="M176.021 96.8749C176.346 96.7837 176.981 96.6533 177.925 96.4838C179.546 96.0864 191.683 94.4934 191.688 94.4927C192.202 94.4299 192.636 94.5246 192.699 95.0373C192.768 95.6064 192.35 95.6027 191.8 95.766C191.066 95.9838 190.272 96.1488 189.419 96.2611C188.28 96.4108 184.85 96.7539 179.128 97.2905C178.819 97.3194 178.229 97.4197 177.358 97.5913C176.954 97.7731 176.484 97.9504 175.942 98.1118C170.642 99.6907 169.247 102.458 167.601 106.05C166.013 109.515 163.384 99.4693 156.768 99.9949C152.357 100.345 148.786 100.902 146.055 101.666C145.989 101.676 145.921 101.68 145.854 101.677C145.292 101.653 144.89 101.449 144.914 100.888C144.946 100.162 145.541 100.093 146.256 99.9586L146.87 99.8433C147.85 99.7743 148.765 99.6622 149.616 99.5071C150.092 99.4204 150.939 99.1924 150.961 99.1842C152.993 98.4215 155.659 97.9129 158.552 97.8484C162.972 97.7501 167.078 99.3837 176.021 96.8749Z" fill="#FFBC0D"/>
<path d="M177.448 86.6752C181.008 86.4642 185.074 86.2885 189.643 86.1485L189.712 86.1464L189.78 86.1381C190.533 86.046 191.131 85.6749 191.573 85.1442C191.711 85.2503 191.808 85.4096 191.83 85.5958C191.876 85.9666 191.612 86.304 191.241 86.3494L143.967 92.1372C143.642 92.1769 143.343 91.98 143.243 91.6819C143.543 91.7446 143.86 91.7602 144.188 91.7199L144.252 91.7121L144.315 91.6989C149.112 90.6917 153.322 89.854 156.941 89.1859L177.448 86.6752Z" fill="#FFD90D"/>
<path d="M143.373 92.8541C143.33 92.4978 143.572 92.174 143.927 92.1262C147.079 91.703 161.081 89.8252 164.886 89.3593C168.725 88.8893 187.268 86.7855 191.175 86.3427C191.583 86.2964 191.939 86.5889 191.988 86.9963C192.029 87.3276 191.845 87.6454 191.535 87.7693C190.836 88.0489 189.614 88.5123 189.034 88.5834C188.375 88.664 187.7 88.6375 187.012 88.5845C186.332 88.5321 185.64 88.4538 184.941 88.4271C184.28 88.4019 149.232 92.7834 144.082 93.4277C143.722 93.4728 143.417 93.2141 143.373 92.8541Z" fill="#DB0007"/>
<path d="M192.279 84.6572C192.375 84.6923 192.443 84.7812 192.456 84.8863L192.57 85.8193C192.589 85.9712 192.487 86.1086 192.343 86.1262C192.309 86.1304 192.274 86.1276 192.241 86.1178C191.42 85.8771 190.051 85.4878 189.246 85.3718L189.526 85.3647L189.593 85.3629L189.659 85.3548C190.398 85.2643 190.983 84.8818 191.411 84.3328C191.514 84.3697 192.174 84.6186 192.279 84.6572Z" fill="#EDC8A3"/>
<path d="M160.325 89.8652C160.424 89.9134 160.484 90.0173 160.477 90.1275L160.411 91.0561C160.401 91.2052 160.272 91.3175 160.123 91.307C160.093 91.3049 160.064 91.298 160.037 91.2865C158.206 90.5148 156.36 89.968 154.498 89.6458C155.844 89.3883 157.118 89.1512 158.321 88.9346C158.954 89.2138 159.622 89.524 160.325 89.8652Z" fill="#FFEBB8"/>
<path d="M167.15 87.664C168.894 87.4505 170.908 87.2624 173.193 87.0997C170.28 88.7931 168.039 89.7356 166.472 89.9275C164.944 90.1146 162.623 89.7636 159.51 88.8745C162.547 88.3192 165.094 87.9157 167.15 87.664Z" fill="#FFEBB8"/>
<path d="M159.202 88.7833C159.288 89.5054 159.185 90.2449 158.864 90.9341C157.871 93.0647 156.804 95.3542 152.579 93.3785C150.712 92.5054 149.878 91.5711 149.615 90.6162C153.131 89.9063 156.266 89.3062 159.02 88.8159L159.202 88.7833Z" fill="#E6E454"/>
<path d="M159.737 88.6889C159.841 89.5121 159.724 90.3593 159.353 91.1509C159.256 91.3588 159.212 91.4517 159.156 91.5682C158.476 92.9872 157.915 93.7654 157.003 94.2534C155.833 94.8792 154.326 94.7655 152.348 93.8467C150.454 92.9666 149.405 91.9418 149.084 90.7193C149.447 90.646 149.806 90.5737 150.161 90.5025C150.411 91.346 151.224 92.12 152.812 92.8577C154.505 93.6441 155.663 93.7316 156.485 93.2921C157.131 92.9469 157.582 92.3208 158.168 91.0989C158.222 90.9861 158.265 90.895 158.361 90.6898C158.632 90.1123 158.723 89.4908 158.656 88.8805C159.001 88.8186 159.341 88.7584 159.674 88.6999L159.737 88.6889Z" fill="#66881E"/>
<path d="M172.504 87.0176C174.533 86.853 176.786 86.7034 179.263 86.5688C178.233 88.4347 176.4 88.2156 174.666 88.0083C173.85 87.9109 173.122 87.5647 172.537 87.0475L172.504 87.0176Z" fill="#E6E454"/>
<path d="M171.805 87.0762C172.289 87.0347 172.787 86.9941 173.298 86.9544C173.724 87.2301 174.213 87.4125 174.743 87.4741C174.965 87.4999 175.064 87.5111 175.187 87.5244C176.517 87.6679 177.278 87.6183 177.907 87.268C178.184 87.1134 178.429 86.8937 178.642 86.5985C179.059 86.5742 179.483 86.5507 179.914 86.5276C179.553 87.2877 179.062 87.8296 178.439 88.1771C177.551 88.6722 176.605 88.7339 175.06 88.5672C174.958 88.5562 174.874 88.5467 174.728 88.5299L174.607 88.5158C173.509 88.3883 172.554 87.8747 171.844 87.1188L171.805 87.0762Z" fill="#66881E"/>
<path fill-rule="evenodd" clip-rule="evenodd" d="M175.754 86.7812C178.425 86.6081 181.405 86.4571 184.693 86.3286C184.258 86.6408 183.853 87.0031 183.479 87.4261C181.816 89.3059 180.861 91.6631 180.193 90.9947C179.525 90.3262 179.318 88.6378 178.626 87.9129C178.086 87.3463 177.285 86.9693 175.857 86.7934L175.754 86.7812Z" fill="#FFBC0D"/>
<path fill-rule="evenodd" clip-rule="evenodd" d="M190.922 81.6184C191.045 82.6268 190.629 84.2434 189.552 84.3753C189.552 84.3753 174.711 84.8296 166.902 85.7856C159.541 86.6868 143.973 89.9556 143.973 89.9556C142.896 90.0875 142.071 88.8952 141.948 87.8868C140.837 78.8105 151.62 71.8485 165.264 70.178C178.908 68.5076 189.81 72.5421 190.922 81.6184Z" fill="#EC9D47"/>
<path fill-rule="evenodd" clip-rule="evenodd" d="M164.238 79.7451C163.836 79.5874 163.656 79.1415 163.837 78.7492C164.017 78.3569 165.162 77.1733 165.38 77.259C165.599 77.3446 165.473 78.9281 165.293 79.3204C165.112 79.7127 164.64 79.9028 164.238 79.7451Z" fill="white"/>
<path fill-rule="evenodd" clip-rule="evenodd" d="M163.168 72.8608C163.385 72.5372 163.838 72.4497 164.18 72.6653C164.521 72.881 165.452 74.0517 165.335 74.2275C165.217 74.4033 163.737 74.0529 163.395 73.8373C163.053 73.6216 162.952 73.1845 163.168 72.8608Z" fill="white"/>
<path fill-rule="evenodd" clip-rule="evenodd" d="M155.916 80.8883C155.7 81.212 155.247 81.2995 154.905 81.0839C154.563 80.8682 153.633 79.6975 153.75 79.5217C153.868 79.3459 155.348 79.6962 155.69 79.9119C156.032 80.1275 156.133 80.5647 155.916 80.8883Z" fill="white"/>
<path fill-rule="evenodd" clip-rule="evenodd" d="M153.24 83.3814C153.669 83.2559 154.122 83.4881 154.254 83.9001C154.385 84.3121 154.305 85.9242 154.072 85.9924C153.839 86.0606 152.833 84.7667 152.702 84.3547C152.571 83.9427 152.812 83.507 153.24 83.3814Z" fill="white"/>
<path fill-rule="evenodd" clip-rule="evenodd" d="M143.938 87.2085C144.155 86.8849 144.607 86.7973 144.949 87.013C145.291 87.2286 146.222 88.3994 146.104 88.5752C145.987 88.7509 144.507 88.4006 144.165 88.185C143.823 87.9693 143.721 87.5321 143.938 87.2085Z" fill="white"/>
<path fill-rule="evenodd" clip-rule="evenodd" d="M177.88 78.827C177.556 78.6103 177.468 78.1576 177.684 77.8158C177.9 77.474 179.071 76.543 179.246 76.6607C179.422 76.7784 179.072 78.2584 178.856 78.6002C178.64 78.9421 178.203 79.0436 177.88 78.827Z" fill="white"/>
<path fill-rule="evenodd" clip-rule="evenodd" d="M174.811 72.565C175.239 72.4395 175.693 72.6717 175.824 73.0837C175.955 73.4957 175.875 75.1078 175.643 75.176C175.41 75.2442 174.404 73.9503 174.272 73.5383C174.141 73.1263 174.382 72.6906 174.811 72.565Z" fill="white"/>
<path fill-rule="evenodd" clip-rule="evenodd" d="M162.699 82.3344C162.95 82.6865 162.879 83.1905 162.542 83.46C162.204 83.7296 160.698 84.2338 160.562 84.0425C160.426 83.8513 161.299 82.4544 161.636 82.1848C161.973 81.9153 162.449 81.9822 162.699 82.3344Z" fill="white"/>
<path fill-rule="evenodd" clip-rule="evenodd" d="M167.571 82.1343C167.787 81.8106 168.24 81.7231 168.582 81.9388C168.924 82.1544 169.855 83.3252 169.737 83.5009C169.619 83.6767 168.139 83.3264 167.798 83.1107C167.456 82.8951 167.354 82.4579 167.571 82.1343Z" fill="white"/>
<path fill-rule="evenodd" clip-rule="evenodd" d="M171.387 76.7881C171.832 76.7337 172.235 77.0329 172.287 77.4566C172.339 77.8802 171.958 79.4433 171.716 79.4728C171.475 79.5024 170.728 78.0774 170.676 77.6538C170.624 77.2301 170.943 76.8426 171.387 76.7881Z" fill="white"/>
<path fill-rule="evenodd" clip-rule="evenodd" d="M186.833 78.0595C187.157 78.2761 187.244 78.7288 187.028 79.0707C186.813 79.4125 185.642 80.3434 185.466 80.2258C185.29 80.1081 185.641 78.628 185.856 78.2862C186.072 77.9444 186.509 77.8429 186.833 78.0595Z" fill="white"/>
<path fill-rule="evenodd" clip-rule="evenodd" d="M178.318 83.1999C177.966 83.4499 177.462 83.3793 177.193 83.042C176.923 82.7048 176.419 81.1985 176.61 81.0627C176.801 80.9269 178.198 81.7992 178.468 82.1365C178.737 82.4737 178.671 82.9498 178.318 83.1999Z" fill="white"/>
<path fill-rule="evenodd" clip-rule="evenodd" d="M157.2 74.4365C157.645 74.3821 158.047 74.6814 158.099 75.105C158.151 75.5286 157.77 77.0917 157.529 77.1213C157.287 77.1509 156.54 75.7259 156.488 75.3022C156.437 74.8786 156.755 74.491 157.2 74.4365Z" fill="white"/>
<path fill-rule="evenodd" clip-rule="evenodd" d="M146.536 81.7124C146.752 81.3888 147.205 81.3012 147.547 81.5169C147.889 81.7325 148.82 82.9033 148.702 83.0791C148.584 83.2549 147.104 82.9045 146.762 82.6889C146.421 82.4732 146.319 82.036 146.536 81.7124Z" fill="white"/>
<g clip-path="url(#clip1_1586_44806)">
<rect x="151.926" y="48.1523" width="30.6952" height="3.85065" transform="rotate(-51.8 151.926 48.1523)" fill="#FFBC0D"/>
<rect x="156.438" y="52.5449" width="30.6952" height="3.85065" transform="rotate(-51.8 156.438 52.5449)" fill="#FFBC0D"/>
<rect x="155.5" y="64.2188" width="48.1766" height="3.85065" transform="rotate(-51.8 155.5 64.2188)" fill="#FFBC0D"/>
<rect x="161.969" y="65.9395" width="48.1766" height="3.85065" transform="rotate(-51.8 161.969 65.9395)" fill="#FFBC0D"/>
<rect x="179.008" y="63.9082" width="48.1766" height="3.85065" transform="rotate(-51.8 179.008 63.9082)" fill="#FFBC0D"/>
<rect x="162.965" y="74.2969" width="48.1766" height="3.85065" transform="rotate(-51.8 162.965 74.2969)" fill="#FFBC0D"/>
<rect x="165.156" y="39.7285" width="15.3476" height="15.3476" rx="0.990168" transform="rotate(-6.8 165.156 39.7285)" fill="white"/>
<path d="M174.537 45.3397L174.448 44.5925C174.774 44.4805 175.107 44.3211 175.448 44.1143C175.788 43.9009 176.075 43.6573 176.308 43.3835L177.006 43.3002L177.773 49.7304L176.869 49.8383L176.235 44.529C175.977 44.6994 175.696 44.8591 175.395 45.0081C175.1 45.1497 174.814 45.2603 174.537 45.3397Z" fill="#585858"/>
<path d="M170.024 50.655L170.002 50.4682C169.94 49.9504 170.002 49.4943 170.188 49.0999C170.38 48.7047 170.699 48.3176 171.146 47.9385L172.177 47.0478C172.49 46.7778 172.703 46.5264 172.815 46.2937C172.926 46.0544 172.963 45.7807 172.926 45.4726C172.885 45.1252 172.744 44.8628 172.503 44.6854C172.263 44.508 171.952 44.442 171.572 44.4873C170.72 44.5889 170.314 45.1426 170.354 46.1483L169.459 46.255C169.418 45.5686 169.583 45.007 169.957 44.5703C170.33 44.1335 170.858 43.8745 171.539 43.7932C171.959 43.7432 172.335 43.7748 172.667 43.8881C173 44.0013 173.271 44.1817 173.48 44.4294C173.689 44.677 173.814 44.9778 173.857 45.3318C173.906 45.7447 173.851 46.1169 173.691 46.4485C173.531 46.78 173.252 47.119 172.855 47.4656L171.798 48.3893C171.479 48.6667 171.256 48.9127 171.128 49.1273C171.001 49.3419 170.945 49.568 170.96 49.8055L174.44 49.3905L174.527 50.1181L170.024 50.655Z" fill="#585858"/>
</g>
<rect x="147.5" y="134.42" width="50" height="4" rx="2" transform="rotate(-6.8 147.5 134.42)" fill="#D9D9D9"/>
<rect x="147.5" y="134.42" width="36" height="4" rx="2" transform="rotate(-6.8 147.5 134.42)" fill="#747474"/>
</g>
<defs>
<clipPath id="clip0_1586_44806">
<rect width="375" height="225" fill="white"/>
</clipPath>
<clipPath id="clip1_1586_44806">
<rect x="158.004" y="34.0996" width="27.7247" height="27.7247" rx="1.98034" transform="rotate(-6.8 158.004 34.0996)" fill="white"/>
</clipPath>
</defs>
</svg>
