<svg width="375" height="225" viewBox="0 0 375 225" fill="none" xmlns="http://www.w3.org/2000/svg">
<ellipse cx="196.202" cy="206.311" rx="73.948" ry="6.3384" fill="#A0A09F" fill-opacity="0.15"/>
<path d="M265.055 137.876C265.293 137.645 265.693 137.775 265.75 138.102L267.289 146.999C267.311 147.126 267.391 147.235 267.504 147.294L275.49 151.508C275.784 151.663 275.784 152.084 275.49 152.239L267.504 156.452C267.391 156.512 267.311 156.621 267.289 156.747L265.75 165.645C265.693 165.972 265.293 166.102 265.055 165.871L258.58 159.577C258.488 159.488 258.36 159.447 258.233 159.465L249.295 160.75C248.966 160.797 248.719 160.457 248.866 160.159L252.85 152.056C252.906 151.941 252.906 151.806 252.85 151.691L248.866 143.588C248.719 143.29 248.966 142.949 249.295 142.997L258.233 144.282C258.36 144.3 258.488 144.259 258.58 144.169L265.055 137.876Z" fill="#F1F1F1"/>
<path d="M235.204 150.304C235.288 150.138 235.523 150.134 235.612 150.296L238.042 154.713C238.076 154.776 238.138 154.819 238.208 154.83L243.19 155.602C243.373 155.631 243.45 155.853 243.323 155.988L239.873 159.664C239.824 159.716 239.802 159.788 239.813 159.859L240.618 164.835C240.648 165.018 240.46 165.159 240.292 165.08L235.73 162.935C235.666 162.905 235.59 162.906 235.527 162.939L231.043 165.242C230.878 165.327 230.685 165.192 230.708 165.008L231.339 160.007C231.348 159.936 231.323 159.864 231.272 159.814L227.697 156.261C227.565 156.13 227.634 155.906 227.816 155.871L232.767 154.925C232.838 154.911 232.898 154.866 232.93 154.802L235.204 150.304Z" fill="#F1F1F1"/>
<path fill-rule="evenodd" clip-rule="evenodd" d="M107.222 115.69L236 41.3396C237.796 40.3027 240.092 40.9181 241.129 42.7141L280.933 111.656C281.97 113.452 281.354 115.748 279.558 116.785L150.78 191.135C148.984 192.172 146.688 191.557 145.651 189.761L105.847 120.819C104.811 119.023 105.426 116.727 107.222 115.69Z" fill="#D8D8D8"/>
<path fill-rule="evenodd" clip-rule="evenodd" d="M241.129 42.7141L244.205 48.0434L205.214 130.451C204.552 131.85 203.1 132.7 201.556 132.591L108.883 126.077L105.847 120.819C104.811 119.023 105.426 116.726 107.222 115.69L236 41.3396C237.796 40.3027 240.092 40.9181 241.129 42.7141Z" fill="#A0A09F" fill-opacity="0.15"/>
<path fill-rule="evenodd" clip-rule="evenodd" d="M107.128 115.74L236.087 41.285C237.883 40.248 240.18 40.8634 241.217 42.6594C241.832 43.7253 241.886 45.0251 241.361 46.1383L203.189 127.098C202.527 128.501 201.071 129.352 199.524 129.242L108.737 122.737C106.668 122.589 105.112 120.792 105.26 118.723C105.349 117.48 106.049 116.363 107.128 115.74Z" fill="#F1F1F1"/>
<ellipse cx="201.22" cy="122.493" rx="19.5262" ry="19.5262" transform="rotate(-30 201.22 122.493)" fill="#A0A09F" fill-opacity="0.15"/>
<path fill-rule="evenodd" clip-rule="evenodd" d="M203.875 141.387C193.621 144.718 182.609 139.107 179.277 128.853C175.946 118.6 181.557 107.587 191.81 104.256C202.064 100.924 213.077 106.535 216.408 116.789C219.74 127.042 214.128 138.055 203.875 141.387Z" fill="#DB0007"/>
<path fill-rule="evenodd" clip-rule="evenodd" d="M199.538 113.011C201.393 112.408 205.437 119.74 208.572 129.387L211.26 128.514C207.884 118.124 202.44 110.582 199.101 111.667C197.201 112.284 196.329 115.366 196.507 119.684C194.113 116.086 191.595 114.105 189.695 114.723C186.357 115.807 186.385 125.109 189.761 135.5L192.449 134.626C189.315 124.979 188.278 116.669 190.132 116.067C191.987 115.464 195.837 122.194 198.73 131.099L201.418 130.226C198.524 121.321 197.683 113.613 199.538 113.011Z" fill="#FFBC0D"/>
<path d="M105.728 120.783C104.691 118.987 105.306 116.69 107.102 115.653L153.377 88.936L155.252 89.094C156.082 89.1642 156.494 90.1349 155.968 90.7805L141.669 108.324C141.466 108.573 141.389 108.903 141.462 109.215L146.625 131.252C146.815 132.063 146.018 132.756 145.241 132.455L124.138 124.276C123.838 124.16 123.502 124.189 123.227 124.356L111.788 131.278L105.728 120.783Z" fill="#A0A09F" fill-opacity="0.15"/>
<path d="M189.358 68.1647L194.087 70.01C194.342 70.1097 194.382 70.4548 194.155 70.6095L187.997 74.8134C187.91 74.873 187.854 74.9695 187.848 75.075L187.417 82.5197C187.401 82.7935 187.085 82.9378 186.867 82.7704L180.966 78.2121C180.883 78.1475 180.774 78.1246 180.671 78.1514L173.458 80.0411C173.193 80.1107 172.958 79.8546 173.05 79.5962L173.959 77.0554L189.358 68.1647Z" fill="#A0A09F" fill-opacity="0.15"/>
<path d="M108.041 53.6756C108.364 52.9078 109.415 52.8159 109.867 53.5159L122.133 72.5374C122.307 72.8074 122.596 72.9813 122.916 73.0083L145.47 74.9086C146.3 74.9786 146.712 75.9498 146.186 76.5955L131.886 94.1393C131.683 94.3883 131.607 94.7174 131.68 95.0301L136.842 117.067C137.032 117.878 136.236 118.57 135.459 118.269L114.355 110.091C114.056 109.974 113.719 110.004 113.445 110.17L94.0813 121.889C93.3687 122.321 92.4642 121.777 92.5105 120.946L93.7675 98.3471C93.7853 98.0263 93.6534 97.7155 93.4103 97.5055L76.281 82.7114C75.6506 82.1669 75.888 81.1388 76.6932 80.9258L98.5742 75.1379C98.8848 75.0558 99.1396 74.8342 99.2642 74.5381L108.041 53.6756Z" fill="#FFBC0D"/>
<path d="M181.082 54.5182C181.256 54.3059 181.597 54.3752 181.674 54.6386L183.769 61.7948C183.798 61.8964 183.873 61.9784 183.972 62.0169L190.918 64.7275C191.174 64.8273 191.213 65.1726 190.987 65.3273L184.828 69.5311C184.741 69.5908 184.686 69.6876 184.68 69.7932L184.248 77.2373C184.233 77.5113 183.916 77.6555 183.699 77.4877L177.798 72.9295C177.714 72.8648 177.605 72.8426 177.503 72.8694L170.29 74.7595C170.024 74.8291 169.789 74.5728 169.882 74.3144L172.393 67.2936C172.429 67.1939 172.416 67.0834 172.359 66.9943L168.333 60.7183C168.185 60.4874 168.356 60.1848 168.63 60.1929L176.083 60.412C176.189 60.4151 176.29 60.3689 176.358 60.2871L181.082 54.5182Z" fill="#FFBC0D"/>
<mask id="path-14-outside-1_17_28571" maskUnits="userSpaceOnUse" x="71.9219" y="36.8359" width="213" height="158" fill="black">
<rect fill="white" x="71.9219" y="36.8359" width="213" height="158"/>
<path d="M236.004 41.3398C237.8 40.3031 240.096 40.918 241.133 42.7139L280.937 111.655C281.973 113.451 281.358 115.748 279.562 116.785L150.784 191.135C148.988 192.172 146.691 191.557 145.654 189.761L105.852 120.819C104.815 119.023 105.43 116.726 107.226 115.689L115.889 110.687L114.355 110.093C114.056 109.977 113.72 110.006 113.445 110.172L94.082 121.892C93.3694 122.323 92.4645 121.779 92.5107 120.947L93.7676 98.3486C93.7854 98.028 93.6532 97.7168 93.4102 97.5068L76.2812 82.7129C75.6511 82.1684 75.8883 81.1409 76.6934 80.9277L98.5742 75.1396C98.8847 75.0575 99.1401 74.8361 99.2646 74.54L108.041 53.6777C108.364 52.9099 109.416 52.8175 109.867 53.5176L122.133 72.5391C122.307 72.809 122.597 72.9828 122.917 73.0098L145.471 74.9102C146.301 74.9803 146.713 75.9521 146.187 76.5977L131.887 94.1406C131.684 94.3896 131.607 94.7195 131.681 95.0322L133.029 100.791L179.291 74.082L177.8 72.9297C177.716 72.8651 177.607 72.8425 177.505 72.8691L170.292 74.7598C170.027 74.8293 169.791 74.5728 169.884 74.3145L172.396 67.2939C172.431 67.1943 172.418 67.0832 172.361 66.9941L168.335 60.7188C168.187 60.4878 168.358 60.1853 168.632 60.1934L176.085 60.4121C176.191 60.4152 176.292 60.369 176.359 60.2871L181.084 54.5186C181.258 54.3062 181.599 54.3753 181.676 54.6387L183.771 61.7949C183.8 61.8964 183.875 61.9781 183.974 62.0166L190.92 64.7275C191.176 64.8273 191.215 65.1724 190.988 65.3271L184.83 69.5312C184.743 69.5908 184.688 69.6875 184.682 69.793L184.61 71.0107L236.004 41.3398ZM265.058 137.878C265.296 137.646 265.696 137.776 265.753 138.104L267.292 147.001C267.314 147.127 267.394 147.236 267.507 147.296L275.492 151.509C275.786 151.664 275.786 152.085 275.492 152.24L267.507 156.454C267.393 156.514 267.314 156.623 267.292 156.749L265.753 165.646C265.696 165.973 265.296 166.104 265.058 165.872L258.582 159.579C258.49 159.49 258.362 159.448 258.235 159.466L249.298 160.751C248.969 160.798 248.722 160.458 248.868 160.16L252.853 152.057C252.909 151.942 252.909 151.807 252.853 151.692L248.868 143.59C248.722 143.292 248.969 142.951 249.298 142.998L258.235 144.283C258.362 144.301 258.49 144.26 258.582 144.171L265.058 137.878ZM235.205 150.304C235.289 150.138 235.524 150.134 235.613 150.297L238.043 154.713C238.077 154.775 238.138 154.819 238.209 154.83L243.19 155.603C243.374 155.631 243.45 155.853 243.323 155.988L239.874 159.664C239.825 159.716 239.803 159.789 239.814 159.859L240.619 164.835C240.649 165.018 240.461 165.16 240.293 165.081L235.731 162.936C235.667 162.905 235.591 162.907 235.527 162.939L231.044 165.242C230.879 165.327 230.686 165.192 230.709 165.008L231.34 160.007C231.349 159.936 231.324 159.865 231.273 159.814L227.697 156.262C227.566 156.131 227.634 155.906 227.816 155.871L232.768 154.925C232.838 154.911 232.898 154.867 232.931 154.803L235.205 150.304Z"/>
</mask>
<path d="M236.004 41.3398L234.504 38.7417L234.504 38.7417L236.004 41.3398ZM241.133 42.7139L243.731 41.2139L243.731 41.2138L241.133 42.7139ZM280.937 111.655L283.535 110.155L283.535 110.155L280.937 111.655ZM279.562 116.785L281.062 119.383L281.063 119.383L279.562 116.785ZM150.784 191.135L149.284 188.537H149.284L150.784 191.135ZM145.654 189.761L143.056 191.261L143.056 191.261L145.654 189.761ZM105.852 120.819L108.45 119.319L108.45 119.319L105.852 120.819ZM107.226 115.689L108.726 118.288L108.726 118.287L107.226 115.689ZM115.889 110.687L117.389 113.284L122.814 110.151L116.972 107.889L115.889 110.687ZM114.355 110.093L113.271 112.89L113.272 112.89L114.355 110.093ZM113.445 110.172L111.893 107.605L111.892 107.605L113.445 110.172ZM94.082 121.892L95.6354 124.458L95.6354 124.458L94.082 121.892ZM92.5107 120.947L95.5061 121.114V121.114L92.5107 120.947ZM93.7676 98.3486L96.7629 98.5152L96.763 98.5148L93.7676 98.3486ZM93.4102 97.5068L91.4492 99.7773L91.4492 99.7773L93.4102 97.5068ZM76.2812 82.7129L74.3199 84.9829L74.3203 84.9833L76.2812 82.7129ZM76.6934 80.9277L75.9262 78.0275L75.9256 78.0277L76.6934 80.9277ZM98.5742 75.1396L97.8071 72.2394L97.807 72.2394L98.5742 75.1396ZM99.2646 74.54L102.03 75.7037L102.03 75.7033L99.2646 74.54ZM108.041 53.6777L105.276 52.5144L105.276 52.5144L108.041 53.6777ZM109.867 53.5176L112.388 51.8918L112.388 51.8917L109.867 53.5176ZM122.133 72.5391L119.612 74.1649L119.612 74.1649L122.133 72.5391ZM122.917 73.0098L122.665 75.9992H122.665L122.917 73.0098ZM145.471 74.9102L145.723 71.9208L145.723 71.9207L145.471 74.9102ZM146.187 76.5977L148.512 78.4931L148.512 78.4931L146.187 76.5977ZM131.887 94.1406L129.561 92.2452L129.561 92.2452L131.887 94.1406ZM131.681 95.0322L134.602 94.3482L134.602 94.348L131.681 95.0322ZM133.029 100.791L130.108 101.475L131.03 105.41L134.529 103.389L133.029 100.791ZM179.291 74.082L180.791 76.6801L184.665 74.4435L181.125 71.7082L179.291 74.082ZM177.8 72.9297L179.634 70.5559L179.634 70.5555L177.8 72.9297ZM177.505 72.8691L176.748 69.9663L176.744 69.9672L177.505 72.8691ZM170.292 74.7598L171.052 77.6618L171.053 77.6617L170.292 74.7598ZM169.884 74.3145L167.059 73.3039L167.059 73.304L169.884 74.3145ZM172.396 67.2939L175.22 68.3045L175.22 68.3044L172.396 67.2939ZM172.361 66.9941L174.886 65.3741L174.886 65.3741L172.361 66.9941ZM168.335 60.7188L165.81 62.3387L165.81 62.3388L168.335 60.7188ZM168.632 60.1934L168.72 57.1947L168.72 57.1946L168.632 60.1934ZM176.085 60.4121L176.173 57.4134L176.173 57.4134L176.085 60.4121ZM176.359 60.2871L174.038 58.3862L174.038 58.3863L176.359 60.2871ZM181.084 54.5186L183.405 56.4194L183.405 56.4194L181.084 54.5186ZM181.676 54.6387L184.555 53.7959L184.555 53.7958L181.676 54.6387ZM183.771 61.7949L180.891 62.6377L180.891 62.6378L183.771 61.7949ZM183.974 62.0166L182.881 64.8104L182.883 64.8113L183.974 62.0166ZM190.92 64.7275L189.829 67.5222L189.829 67.5223L190.92 64.7275ZM190.988 65.3271L189.297 62.8493L189.297 62.8495L190.988 65.3271ZM184.83 69.5312L186.521 72.0091L186.522 72.0089L184.83 69.5312ZM184.682 69.793L181.687 69.6158L181.687 69.6176L184.682 69.793ZM184.61 71.0107L181.615 70.8354L181.29 76.3916L186.11 73.6088L184.61 71.0107ZM265.058 137.878L267.148 140.029L267.148 140.029L265.058 137.878ZM265.753 138.104L268.709 137.592L268.709 137.592L265.753 138.104ZM267.292 147.001L264.336 147.512L264.336 147.514L267.292 147.001ZM267.507 147.296L266.107 149.949L266.107 149.949L267.507 147.296ZM275.492 151.509L276.892 148.855L276.892 148.855L275.492 151.509ZM275.492 152.24L274.092 149.587L274.092 149.587L275.492 152.24ZM267.507 156.454L268.907 159.107L268.907 159.107L267.507 156.454ZM267.292 156.749L264.336 156.238L264.336 156.238L267.292 156.749ZM265.753 165.646L268.709 166.157L268.709 166.157L265.753 165.646ZM265.058 165.872L262.967 168.024L262.968 168.024L265.058 165.872ZM258.582 159.579L260.673 157.428L260.672 157.427L258.582 159.579ZM258.235 159.466L258.662 162.435L258.662 162.435L258.235 159.466ZM249.298 160.751L249.723 163.721L249.725 163.72L249.298 160.751ZM248.868 160.16L246.176 158.836L246.175 158.838L248.868 160.16ZM252.853 152.057L255.545 153.38L255.546 153.378L252.853 152.057ZM252.853 151.692L255.545 150.369L255.545 150.369L252.853 151.692ZM248.868 143.59L246.176 144.914L246.176 144.914L248.868 143.59ZM249.298 142.998L249.725 140.029L249.723 140.028L249.298 142.998ZM258.235 144.283L258.662 141.314L258.662 141.314L258.235 144.283ZM258.582 144.171L260.671 146.325L260.673 146.322L258.582 144.171ZM235.205 150.304L232.529 148.947L232.528 148.95L235.205 150.304ZM235.613 150.297L232.985 151.743L232.985 151.743L235.613 150.297ZM238.043 154.713L240.671 153.267L240.671 153.267L238.043 154.713ZM238.209 154.83L237.745 157.794L237.749 157.795L238.209 154.83ZM243.19 155.603L243.65 152.638L243.65 152.638L243.19 155.603ZM243.323 155.988L245.511 158.041L245.512 158.04L243.323 155.988ZM239.874 159.664L242.062 161.717L242.062 161.717L239.874 159.664ZM239.814 159.859L236.853 160.338L236.853 160.338L239.814 159.859ZM240.619 164.835L243.581 164.356L243.581 164.356L240.619 164.835ZM240.293 165.081L239.016 167.796L239.019 167.797L240.293 165.081ZM235.731 162.936L237.008 160.221L237.008 160.221L235.731 162.936ZM235.527 162.939L234.157 160.271L234.157 160.271L235.527 162.939ZM231.044 165.242L232.414 167.911L232.415 167.911L231.044 165.242ZM230.709 165.008L227.733 164.632L227.733 164.633L230.709 165.008ZM231.34 160.007L234.316 160.382L234.316 160.381L231.34 160.007ZM231.273 159.814L233.39 157.688L233.388 157.686L231.273 159.814ZM227.697 156.262L225.583 158.39L225.583 158.39L227.697 156.262ZM227.816 155.871L227.253 152.924L227.249 152.925L227.816 155.871ZM232.768 154.925L232.205 151.978L232.204 151.978L232.768 154.925ZM232.931 154.803L235.607 156.158L235.608 156.156L232.931 154.803ZM236.004 41.3398L237.504 43.938C237.865 43.7293 238.326 43.8532 238.535 44.214L241.133 42.7139L243.731 41.2138C241.865 37.9828 237.734 36.8768 234.504 38.7417L236.004 41.3398ZM241.133 42.7139L238.535 44.2139L278.338 113.155L280.937 111.655L283.535 110.155L243.731 41.2139L241.133 42.7139ZM280.937 111.655L278.338 113.155C278.547 113.517 278.423 113.979 278.062 114.187L279.562 116.785L281.063 119.383C284.294 117.517 285.4 113.386 283.535 110.155L280.937 111.655ZM279.562 116.785L278.063 114.187L149.284 188.537L150.784 191.135L152.284 193.733L281.062 119.383L279.562 116.785ZM150.784 191.135L149.284 188.537C148.922 188.746 148.461 188.621 148.252 188.261L145.654 189.761L143.056 191.261C144.922 194.492 149.054 195.598 152.284 193.733L150.784 191.135ZM145.654 189.761L148.252 188.261L108.45 119.319L105.852 120.819L103.253 122.319L143.056 191.261L145.654 189.761ZM105.852 120.819L108.45 119.319C108.241 118.958 108.365 118.496 108.726 118.288L107.226 115.689L105.726 113.091C102.494 114.957 101.388 119.089 103.253 122.319L105.852 120.819ZM107.226 115.689L108.726 118.287L117.389 113.284L115.889 110.687L114.388 108.089L105.725 113.092L107.226 115.689ZM115.889 110.687L116.972 107.889L115.439 107.295L114.355 110.093L113.272 112.89L114.805 113.484L115.889 110.687ZM114.355 110.093L115.44 107.295C114.275 106.844 112.965 106.956 111.893 107.605L113.445 110.172L114.998 112.739C114.475 113.055 113.837 113.109 113.271 112.89L114.355 110.093ZM113.445 110.172L111.892 107.605L92.5286 119.325L94.082 121.892L95.6354 124.458L114.999 112.738L113.445 110.172ZM94.082 121.892L92.5287 119.325C93.8806 118.507 95.5938 119.538 95.5061 121.114L92.5107 120.947L89.5154 120.781C89.3352 124.02 92.8582 126.139 95.6354 124.458L94.082 121.892ZM92.5107 120.947L95.5061 121.114L96.7629 98.5152L93.7676 98.3486L90.7722 98.182L89.5154 120.781L92.5107 120.947ZM93.7676 98.3486L96.763 98.5148C96.8323 97.2653 96.3179 96.0542 95.3711 95.2364L93.4102 97.5068L91.4492 99.7773C90.9885 99.3794 90.7385 98.7906 90.7722 98.1825L93.7676 98.3486ZM93.4102 97.5068L95.3711 95.2364L78.2422 80.4425L76.2812 82.7129L74.3203 84.9833L91.4492 99.7773L93.4102 97.5068ZM76.2812 82.7129L78.2426 80.4429C79.4373 81.4751 78.9875 83.4237 77.4612 83.8278L76.6934 80.9277L75.9256 78.0277C72.7892 78.858 71.865 82.8618 74.3199 84.9829L76.2812 82.7129ZM76.6934 80.9277L77.4606 83.828L99.3414 78.0399L98.5742 75.1396L97.807 72.2394L75.9262 78.0275L76.6934 80.9277ZM98.5742 75.1396L99.3414 78.0399C100.548 77.7206 101.543 76.8595 102.03 75.7037L99.2646 74.54L96.4995 73.3764C96.7368 72.8126 97.221 72.3944 97.8071 72.2394L98.5742 75.1396ZM99.2646 74.54L102.03 75.7033L110.806 54.841L108.041 53.6777L105.276 52.5144L96.4994 73.3767L99.2646 74.54ZM108.041 53.6777L110.806 54.8411C110.195 56.2946 108.203 56.4725 107.346 55.1434L109.867 53.5176L112.388 51.8917C110.628 49.1626 106.533 49.5253 105.276 52.5144L108.041 53.6777ZM109.867 53.5176L107.346 55.1434L119.612 74.1649L122.133 72.5391L124.654 70.9133L112.388 51.8918L109.867 53.5176ZM122.133 72.5391L119.612 74.1649C120.291 75.2191 121.421 75.8943 122.665 75.9992L122.917 73.0098L123.169 70.0204C123.773 70.0712 124.322 70.3989 124.654 70.9132L122.133 72.5391ZM122.917 73.0098L122.665 75.9992L145.219 77.8996L145.471 74.9102L145.723 71.9207L123.169 70.0204L122.917 73.0098ZM145.471 74.9102L145.218 77.8995C143.644 77.7664 142.864 75.9254 143.861 74.7022L146.187 76.5977L148.512 78.4931C150.561 75.9788 148.957 72.1942 145.723 71.9208L145.471 74.9102ZM146.187 76.5977L143.861 74.7022L129.561 92.2452L131.887 94.1406L134.212 96.0361L148.512 78.4931L146.187 76.5977ZM131.887 94.1406L129.561 92.2452C128.772 93.2141 128.474 94.4965 128.76 95.7164L131.681 95.0322L134.602 94.348C134.741 94.9424 134.596 95.5651 134.212 96.036L131.887 94.1406ZM131.681 95.0322L128.76 95.7163L130.108 101.475L133.029 100.791L135.95 100.107L134.602 94.3482L131.681 95.0322ZM133.029 100.791L134.529 103.389L180.791 76.6801L179.291 74.082L177.791 71.4839L131.529 98.1929L133.029 100.791ZM179.291 74.082L181.125 71.7082L179.634 70.5559L177.8 72.9297L175.965 75.3035L177.457 76.4559L179.291 74.082ZM177.8 72.9297L179.634 70.5555C178.821 69.9278 177.757 69.7031 176.748 69.9663L177.505 72.8691L178.262 75.772C177.458 75.9818 176.611 75.8024 175.966 75.3039L177.8 72.9297ZM177.505 72.8691L176.744 69.9672L169.531 71.8578L170.292 74.7598L171.053 77.6617L178.266 75.7711L177.505 72.8691ZM170.292 74.7598L169.532 71.8577C171.598 71.3164 173.429 73.3102 172.708 75.3249L169.884 74.3145L167.059 73.304C166.154 75.8355 168.456 78.3423 171.052 77.6618L170.292 74.7598ZM169.884 74.3145L172.708 75.325L175.22 68.3045L172.396 67.2939L169.571 66.2834L167.059 73.3039L169.884 74.3145ZM172.396 67.2939L175.22 68.3044C175.569 67.3285 175.446 66.2458 174.886 65.3741L172.361 66.9941L169.836 68.6141C169.391 67.9207 169.293 67.0601 169.571 66.2835L172.396 67.2939ZM172.361 66.9941L174.886 65.3741L170.86 59.0987L168.335 60.7188L165.81 62.3388L169.836 68.6142L172.361 66.9941ZM168.335 60.7188L170.86 59.0988C172.011 60.8934 170.686 63.2548 168.544 63.1921L168.632 60.1934L168.72 57.1946C166.029 57.1158 164.362 60.0821 165.81 62.3387L168.335 60.7188ZM168.632 60.1934L168.544 63.1921L175.997 63.4108L176.085 60.4121L176.173 57.4134L168.72 57.1947L168.632 60.1934ZM176.085 60.4121L175.997 63.4108C177.031 63.4412 178.023 62.9903 178.68 62.1879L176.359 60.2871L174.038 58.3863C174.561 57.7476 175.35 57.3892 176.173 57.4134L176.085 60.4121ZM176.359 60.2871L178.68 62.188L183.405 56.4194L181.084 54.5186L178.763 52.6177L174.038 58.3862L176.359 60.2871ZM181.084 54.5186L183.405 56.4194C182.054 58.0694 179.399 57.538 178.797 55.4815L181.676 54.6387L184.555 53.7958C183.799 51.2126 180.462 50.5431 178.763 52.6177L181.084 54.5186ZM181.676 54.6387L178.797 55.4814L180.891 62.6377L183.771 61.7949L186.65 60.9521L184.555 53.7959L181.676 54.6387ZM183.771 61.7949L180.891 62.6378C181.183 63.6338 181.919 64.4343 182.881 64.8104L183.974 62.0166L185.067 59.2228C185.831 59.5219 186.417 60.1589 186.65 60.952L183.771 61.7949ZM183.974 62.0166L182.883 64.8113L189.829 67.5222L190.92 64.7275L192.011 61.9328L185.064 59.2219L183.974 62.0166ZM190.92 64.7275L189.829 67.5223C187.839 66.7455 187.531 64.055 189.297 62.8493L190.988 65.3271L192.68 67.805C194.899 66.2899 194.513 62.9091 192.01 61.9328L190.92 64.7275ZM190.988 65.3271L189.297 62.8495L183.139 67.0536L184.83 69.5312L186.522 72.0089L192.68 67.8048L190.988 65.3271ZM184.83 69.5312L183.139 67.0534C182.287 67.6351 181.748 68.5801 181.687 69.6158L184.682 69.793L187.676 69.9701C187.628 70.7948 187.199 71.5466 186.521 72.0091L184.83 69.5312ZM184.682 69.793L181.687 69.6176L181.615 70.8354L184.61 71.0107L187.605 71.1861L187.677 69.9683L184.682 69.793ZM184.61 71.0107L186.11 73.6088L237.504 43.9379L236.004 41.3398L234.504 38.7417L183.11 68.4126L184.61 71.0107ZM265.058 137.878L267.148 140.029C265.66 141.476 263.152 140.669 262.797 138.615L265.753 138.104L268.709 137.592C268.24 134.883 264.931 133.817 262.967 135.727L265.058 137.878ZM265.753 138.104L262.797 138.615L264.336 147.512L267.292 147.001L270.248 146.49L268.709 137.592L265.753 138.104ZM267.292 147.001L264.336 147.514C264.518 148.562 265.177 149.459 266.107 149.949L267.507 147.296L268.907 144.643C269.61 145.014 270.11 145.692 270.248 146.488L267.292 147.001ZM267.507 147.296L266.107 149.949L274.092 154.162L275.492 151.509L276.892 148.855L268.907 144.643L267.507 147.296ZM275.492 151.509L274.092 154.162C272.253 153.192 272.253 150.557 274.092 149.587L275.492 152.24L276.892 154.894C279.319 153.613 279.319 150.136 276.892 148.855L275.492 151.509ZM275.492 152.24L274.092 149.587L266.107 153.801L267.507 156.454L268.907 159.107L276.892 154.893L275.492 152.24ZM267.507 156.454L266.107 153.801C265.178 154.291 264.518 155.187 264.336 156.238L267.292 156.749L270.248 157.26C270.11 158.059 269.609 158.737 268.907 159.107L267.507 156.454ZM267.292 156.749L264.336 156.238L262.797 165.134L265.753 165.646L268.709 166.157L270.248 157.26L267.292 156.749ZM265.753 165.646L262.797 165.134C263.15 163.092 265.651 162.266 267.148 163.72L265.058 165.872L262.968 168.024C264.941 169.941 268.242 168.854 268.709 166.157L265.753 165.646ZM265.058 165.872L267.148 163.721L260.673 157.428L258.582 159.579L256.491 161.731L262.967 168.024L265.058 165.872ZM258.582 159.579L260.672 157.427C259.922 156.698 258.867 156.344 257.808 156.496L258.235 159.466L258.662 162.435C257.857 162.551 257.058 162.281 256.492 161.731L258.582 159.579ZM258.235 159.466L257.808 156.496L248.871 157.782L249.298 160.751L249.725 163.72L258.662 162.435L258.235 159.466ZM249.298 160.751L248.873 157.781C250.926 157.487 252.479 159.612 251.561 161.482L248.868 160.16L246.175 158.838C244.965 161.304 247.013 164.109 249.723 163.721L249.298 160.751ZM248.868 160.16L251.56 161.484L255.545 153.38L252.853 152.057L250.16 150.733L246.176 158.836L248.868 160.16ZM252.853 152.057L255.546 153.378C256.01 152.431 256.013 151.32 255.545 150.369L252.853 151.692L250.16 153.016C249.806 152.294 249.808 151.452 250.159 150.735L252.853 152.057ZM252.853 151.692L255.545 150.369L251.56 142.266L248.868 143.59L246.176 144.914L250.16 153.016L252.853 151.692ZM248.868 143.59L251.56 142.266C252.478 144.133 250.93 146.262 248.873 145.968L249.298 142.998L249.723 140.028C247.009 139.64 244.965 142.45 246.176 144.914L248.868 143.59ZM249.298 142.998L248.871 145.968L257.808 147.253L258.235 144.283L258.662 141.314L249.725 140.029L249.298 142.998ZM258.235 144.283L257.808 147.253C258.853 147.403 259.91 147.062 260.671 146.325L258.582 144.171L256.494 142.017C257.07 141.458 257.872 141.2 258.662 141.314L258.235 144.283ZM258.582 144.171L260.673 146.322L267.148 140.029L265.058 137.878L262.967 135.726L256.491 142.019L258.582 144.171ZM235.205 150.304L237.881 151.66C236.874 153.645 234.057 153.692 232.985 151.743L235.613 150.297L238.242 148.851C236.991 146.577 233.703 146.632 232.529 148.947L235.205 150.304ZM235.613 150.297L232.985 151.743L235.415 156.159L238.043 154.713L240.671 153.267L238.242 148.851L235.613 150.297ZM238.043 154.713L235.414 156.159C235.887 157.018 236.737 157.636 237.745 157.794L238.209 154.83L238.673 151.866C239.54 152.002 240.268 152.533 240.671 153.267L238.043 154.713ZM238.209 154.83L237.749 157.795L242.731 158.567L243.19 155.603L243.65 152.638L238.669 151.866L238.209 154.83ZM243.19 155.603L242.731 158.567C240.527 158.225 239.615 155.558 241.135 153.936L243.323 155.988L245.512 158.04C247.285 156.148 246.22 153.037 243.65 152.638L243.19 155.603ZM243.323 155.988L241.136 153.935L237.686 157.611L239.874 159.664L242.062 161.717L245.511 158.041L243.323 155.988ZM239.874 159.664L237.687 157.611C236.998 158.345 236.694 159.354 236.853 160.338L239.814 159.859L242.776 159.381C242.912 160.224 242.652 161.088 242.062 161.717L239.874 159.664ZM239.814 159.859L236.853 160.338L237.658 165.314L240.619 164.835L243.581 164.356L242.776 159.38L239.814 159.859ZM240.619 164.835L237.658 165.314C237.302 163.117 239.552 161.42 241.567 162.365L240.293 165.081L239.019 167.797C241.37 168.9 243.995 166.919 243.581 164.356L240.619 164.835ZM240.293 165.081L241.57 162.366L237.008 160.221L235.731 162.936L234.455 165.65L239.016 167.796L240.293 165.081ZM235.731 162.936L237.008 160.221C236.092 159.79 235.038 159.818 234.157 160.271L235.527 162.939L236.898 165.608C236.144 165.995 235.242 166.02 234.455 165.65L235.731 162.936ZM235.527 162.939L234.157 160.271L229.673 162.574L231.044 165.242L232.415 167.911L236.898 165.608L235.527 162.939ZM231.044 165.242L229.673 162.574C231.651 161.558 233.964 163.17 233.685 165.383L230.709 165.008L227.733 164.633C227.407 167.214 230.107 169.096 232.414 167.911L231.044 165.242ZM230.709 165.008L233.685 165.383L234.316 160.382L231.34 160.007L228.363 159.631L227.733 164.632L230.709 165.008ZM231.34 160.007L234.316 160.381C234.442 159.382 234.094 158.389 233.39 157.688L231.273 159.814L229.157 161.941C228.554 161.341 228.255 160.49 228.363 159.633L231.34 160.007ZM231.273 159.814L233.388 157.686L229.812 154.133L227.697 156.262L225.583 158.39L229.159 161.943L231.273 159.814ZM227.697 156.262L229.812 154.134C231.392 155.703 230.566 158.396 228.384 158.817L227.816 155.871L227.249 152.925C224.703 153.416 223.74 156.559 225.583 158.39L227.697 156.262ZM227.816 155.871L228.38 158.818L233.331 157.871L232.768 154.925L232.204 151.978L227.253 152.924L227.816 155.871ZM232.768 154.925L233.331 157.872C234.295 157.687 235.147 157.068 235.607 156.158L232.931 154.803L230.254 153.448C230.65 152.665 231.381 152.136 232.205 151.978L232.768 154.925ZM232.931 154.803L235.608 156.156L237.882 151.657L235.205 150.304L232.528 148.95L230.253 153.449L232.931 154.803Z" fill="white" mask="url(#path-14-outside-1_17_28571)"/>
</svg>
