<svg width="170" height="170" viewBox="0 0 170 170" fill="none" xmlns="http://www.w3.org/2000/svg">
<path d="M19.3764 33.8649C22.3586 33.1945 25.2631 35.2612 25.6063 38.2989L32.059 95.4446C32.7972 95.3864 33.7993 95.3107 35.0047 95.2274C37.682 95.0425 41.3661 94.8204 45.3897 94.6724C53.3694 94.3787 62.9056 94.3643 68.4957 95.5887C72.2266 96.406 74.6676 98.2128 76.1991 100.381C77.1936 101.788 77.5766 103.295 77.3866 104.768C77.1997 106.217 76.4774 107.499 75.4964 108.536C74.2452 109.859 72.4962 110.869 70.5669 111.421C70.5808 111.519 70.5959 111.624 70.6116 111.734C70.7383 112.628 70.9196 113.908 71.1382 115.451C71.5754 118.537 72.1615 122.679 72.7573 126.901C73.9467 135.329 75.1798 144.118 75.336 145.419C75.5273 147.014 75.1648 148.384 74.1918 149.335C73.3204 150.187 72.1705 150.493 71.1283 150.528L70.9211 150.531C69.8395 150.531 68.7276 150.303 67.744 149.497C66.8014 148.724 66.1484 147.558 65.6466 146.052C64.9968 144.103 60.8567 128.355 58.3179 118.654H58.3108L58.0269 117.568C57.512 115.6 57.0769 113.934 56.7706 112.76C56.6843 112.43 56.6082 112.138 56.5434 111.89H35.723C35.6904 112.015 35.6547 112.151 35.6165 112.297C35.3848 113.186 35.0531 114.458 34.6519 115.993C33.8494 119.064 32.7694 123.187 31.6608 127.397C29.4554 135.773 27.1055 144.61 26.6248 146.052C26.123 147.558 25.4698 148.723 24.5274 149.496C23.6054 150.252 22.571 150.5 21.554 150.528L21.351 150.531C20.2566 150.531 19.01 150.244 18.0803 149.336C17.107 148.385 16.744 147.014 16.9354 145.419C17.1441 143.68 19.2944 128.455 20.6817 118.654H20.6753L20.9095 116.997C21.1882 115.029 21.4244 113.363 21.5909 112.189C21.6418 111.831 21.6859 111.519 21.723 111.257C18.8857 110.102 16.7847 107.47 16.4286 104.257L10.0738 46.9045C9.39998 40.823 13.4066 35.2069 19.3764 33.8649ZM23.2937 110.538C23.2937 110.538 22.9063 113.265 22.349 117.201H22.3554C20.9888 126.851 18.5968 143.772 18.3784 145.592C18.0709 148.155 19.6086 149.077 21.351 149.077C23.0933 149.077 24.3232 148.36 25.2457 145.592C26.1682 142.825 34.5731 110.538 34.5731 110.538H23.2937ZM57.6933 110.538C57.6933 110.538 58.4034 113.265 59.433 117.201H59.4394C61.9529 126.81 66.3712 143.629 67.0257 145.592C67.9482 148.36 69.1786 149.077 70.9211 149.077C72.6634 149.077 74.2005 148.155 73.893 145.592C73.5854 143.03 68.9734 110.538 68.9734 110.538H57.6933ZM24.1618 38.4622C23.9159 36.2844 21.8334 34.8024 19.6951 35.283C14.448 36.4626 10.9267 41.3987 11.5189 46.7441L17.8737 104.097C18.2737 107.706 21.3233 110.436 24.954 110.436H67.2684C72.8487 110.436 78.2314 105.777 75.0116 101.22C73.7 99.363 71.5797 97.7526 68.1848 97.009C57.4224 94.6516 30.7729 97.009 30.7729 97.009L24.1618 38.4622Z" fill="white"/>
<path d="M54.3359 63.5105C54.3359 61.5178 55.4343 59.9023 56.7891 59.9023H155.093C156.448 59.9023 157.546 61.5178 157.546 63.5105V75.1918C157.546 77.1845 156.448 78.7999 155.093 78.7999H56.7891C55.4343 78.7999 54.3359 77.1845 54.3359 75.1918V63.5105Z" fill="#FFBC0D"/>
<path d="M52.8828 75.1926V63.5108C52.8829 62.2617 53.2248 61.0662 53.8531 60.1421C54.4762 59.2258 55.4883 58.4493 56.7895 58.4492V59.9029C55.4348 59.903 54.3366 61.5182 54.3365 63.5108V75.1926L54.3393 75.3779C54.405 77.2843 55.477 78.8004 56.7895 78.8005H155.093L155.22 78.7955C156.474 78.7018 157.48 77.2228 157.544 75.3779L157.546 75.1926V63.5108C157.546 61.5806 156.516 60.0047 155.22 59.9078L155.093 59.9029V58.4492C156.395 58.4493 157.407 59.2258 158.03 60.1421C158.658 61.0662 159 62.2617 159 63.5108V75.1926C159 76.4416 158.658 77.6372 158.03 78.5613C157.407 79.4776 156.395 80.2541 155.093 80.2541H56.7895C55.4883 80.2541 54.4762 79.4776 53.8531 78.5613C53.2248 77.6372 52.8829 76.4416 52.8828 75.1926ZM155.093 58.4492V59.9029H56.7895V58.4492H155.093Z" fill="white"/>
<path d="M110.727 80.3926H100.887V147.426C100.887 148.332 103.09 149.066 105.807 149.066C108.524 149.066 110.727 148.332 110.727 147.426L110.727 147.421V80.3926Z" fill="#6F6F6F"/>
<path d="M100.887 80.3931V147.427C100.888 148.333 103.09 149.067 105.807 149.067C108.439 149.067 110.589 148.378 110.721 147.511L110.727 147.427V80.3931H100.887ZM112.181 147.427C112.181 148.29 111.655 148.88 111.24 149.207C110.809 149.547 110.275 149.789 109.746 149.965C108.671 150.323 107.278 150.52 105.807 150.52C104.336 150.52 102.944 150.323 101.869 149.965C101.339 149.789 100.805 149.547 100.374 149.207C99.9595 148.88 99.434 148.29 99.4336 147.428V78.9395H112.181V147.427Z" fill="white"/>
<path d="M24.953 110.435H67.2675C72.8478 110.435 78.2307 105.776 75.0108 101.219C73.6992 99.3623 71.5791 97.7517 68.1842 97.0081C57.4219 94.6506 30.7724 97.0081 30.7724 97.0081L24.1607 38.4615C23.9148 36.2836 21.8325 34.8015 19.6942 35.2822C14.4471 36.4618 10.9257 41.3978 11.518 46.7431L17.8727 104.096C18.2725 107.705 21.3223 110.435 24.953 110.435Z" fill="#292929"/>
<path d="M18.3754 145.592C18.6829 143.029 23.2953 110.537 23.2953 110.537H34.5701C34.5701 110.537 26.1653 142.824 25.2428 145.592C24.3203 148.359 23.0901 149.076 21.3477 149.076C19.6053 149.076 18.0679 148.154 18.3754 145.592Z" fill="#6F6F6F"/>
<path d="M73.8903 145.592C73.5828 143.029 68.9704 110.537 68.9704 110.537H57.6956C57.6956 110.537 66.1004 142.824 67.0229 145.592C67.9454 148.359 69.1756 149.076 70.918 149.076C72.6604 149.076 74.1978 148.154 73.8903 145.592Z" fill="#6F6F6F"/>
<path d="M22.3477 117.199C22.905 113.264 23.292 110.537 23.292 110.537H34.5668C34.5668 110.537 33.8572 113.263 32.8276 117.199H22.3477Z" fill="#292929"/>
<path d="M69.9111 117.199C69.3538 113.264 68.9667 110.537 68.9667 110.537H57.6919C57.6919 110.537 58.4016 113.263 59.4312 117.199H69.9111Z" fill="#292929"/>
<path d="M87.8181 30.8916L87.5953 30.8999C86.742 30.9343 85.8886 30.9974 85.0354 31.0892L84.9946 31.0943C84.4805 31.1657 84.0561 31.531 83.9064 32.0267L83.8989 32.0522L82.1227 32.0524C81.5457 32.0524 81.0533 32.4705 80.9585 33.0411L80.725 34.4451L80.7206 34.4757C80.6801 34.8007 80.8575 35.1032 81.1378 35.2358L81.1517 35.2421L81.1592 35.3553C81.2413 36.7729 81.3322 38.1953 81.4315 39.6163L81.492 40.4678C81.6153 42.1731 81.7506 43.8754 81.8981 45.5757C82.193 48.9761 82.538 52.385 82.933 55.8021C82.9726 56.1452 83.2439 56.4151 83.5865 56.4522C85.4324 56.6523 87.2786 56.7523 89.1247 56.7523L89.4482 56.7513C91.1881 56.7402 92.9256 56.6405 94.663 56.4522C95.0055 56.4151 95.2768 56.1453 95.3165 55.8022C95.71 52.4017 96.055 48.9929 96.3514 45.5757L96.4245 44.7215C96.6885 41.5903 96.9106 38.4662 97.0906 35.349L97.0982 35.2418L97.1104 35.2364C97.4001 35.1 97.5805 34.7822 97.5244 34.4451L97.291 33.0411L97.2841 33.0033C97.1742 32.4521 96.6909 32.0524 96.1267 32.0524L94.3504 32.0522L94.3431 32.0267C94.1895 31.518 93.7464 31.1465 93.2141 31.0892L92.919 31.0586C92.2304 30.9898 91.5418 30.9398 90.8531 30.9084L90.7959 30.906L92.2901 20.2495C92.3468 19.8451 92.0657 19.4711 91.6622 19.4143L90.2012 19.2085C89.7977 19.1516 89.4247 19.4334 89.368 19.8379L87.8181 30.8916Z" fill="white"/>
<path d="M90.2295 18.9977L91.6902 19.2035C92.2108 19.2769 92.5724 19.759 92.4994 20.2796L91.0372 30.7044C91.671 30.7361 92.305 30.783 92.9388 30.8463L93.2347 30.8775C93.8079 30.9393 94.2917 31.3146 94.501 31.8393H96.125C96.7915 31.8393 97.3616 32.3114 97.4914 32.9615L97.4921 32.9651L97.4992 33.0027L97.4999 33.0062L97.7334 34.4102C97.7989 34.8037 97.6132 35.1754 97.3005 35.3727C97.1655 37.7082 97.0077 40.0477 96.8256 42.3911L96.6354 44.7399L96.5623 45.5937C96.2657 49.0129 95.9204 52.4244 95.5267 55.8269C95.4756 56.2686 95.1261 56.6165 94.6841 56.6644C92.9397 56.8535 91.1951 56.9535 89.448 56.9647L89.1236 56.9661C87.2698 56.9661 85.4151 56.8653 83.5616 56.6644C83.1198 56.6164 82.7702 56.2685 82.7191 55.8269C82.3239 52.4078 81.9794 48.9969 81.6842 45.5945C81.6104 44.7438 81.5397 43.8924 81.472 43.0406L81.2775 40.4832L81.2172 39.6315C81.1179 38.2113 81.0267 36.7896 80.9446 35.3727C80.6427 35.1818 80.4602 34.8279 80.5074 34.4492L80.5081 34.445L80.5124 34.4145L80.7466 33.0062C80.8585 32.3333 81.4393 31.8395 82.1208 31.8393H83.7455C83.9491 31.3292 84.4111 30.96 84.9635 30.8832L84.967 30.8825L85.0075 30.8775H85.0111C85.8689 30.7852 86.7268 30.7212 87.5848 30.6866L87.6295 30.6845L89.1548 19.8083C89.2279 19.2876 89.7089 18.9243 90.2295 18.9977ZM90.1698 19.42C89.8836 19.3797 89.6183 19.5797 89.5779 19.8679L88.0028 31.0983L87.8247 31.1054L87.6018 31.1125L87.6025 31.1132C86.7549 31.1473 85.9069 31.2094 85.0593 31.3006L85.0189 31.3063L85.0181 31.3056C84.5895 31.3667 84.2348 31.6724 84.1089 32.0863L84.1018 32.1126L84.0571 32.2659H82.1208C81.6486 32.2661 81.2453 32.6086 81.1675 33.0765L80.934 34.4755L80.9304 34.5067C80.904 34.7345 81.0276 34.9465 81.2236 35.0412L81.2378 35.0476L81.3542 35.1001L81.3627 35.2279L81.3705 35.3415V35.3436C81.4525 36.7602 81.5431 38.1817 81.6424 39.6016L81.7034 40.4527C81.8266 42.1569 81.9613 43.8583 82.1087 45.5575C82.4035 48.956 82.7488 52.3628 83.1436 55.7779C83.1719 56.0223 83.3647 56.2143 83.6078 56.2407C85.4458 56.4399 87.284 56.5388 89.1222 56.5388L89.4451 56.5381C91.1778 56.527 92.9085 56.4282 94.6387 56.2407C94.8817 56.2142 95.0747 56.0222 95.1029 55.7779C95.4962 52.3795 95.8409 48.9727 96.1371 45.5575L96.2102 44.7037L96.4004 42.3585C96.5826 40.0141 96.7411 37.6737 96.876 35.3372V35.3344L96.8838 35.2272L96.893 35.0987L97.0109 35.0469L97.018 35.0433L97.0918 35.0015C97.2537 34.8898 97.3473 34.6901 97.3125 34.4805L97.079 33.0765L97.0733 33.0453L97.0527 32.9622C96.9333 32.5538 96.558 32.2659 96.125 32.2659H94.188L94.144 32.1112L94.1369 32.0885C94.0079 31.6616 93.6367 31.3497 93.1907 31.3013L92.8962 31.2708C92.3825 31.2195 91.8689 31.179 91.3552 31.1487L90.842 31.1217L90.7852 31.1196L90.5503 31.1089L92.0771 20.22C92.1174 19.9317 91.9169 19.6662 91.6306 19.6259L90.1698 19.42Z" fill="white"/>
<path fill-rule="evenodd" clip-rule="evenodd" d="M81.7891 35.3828C81.7891 35.3828 85.4463 35.6814 89.1036 35.6814C92.7609 35.6814 96.4182 35.3828 96.4182 35.3828C96.4182 35.3828 96.1207 40.5202 95.6718 45.6829C95.2229 50.8456 94.6268 55.983 94.6268 55.983C94.6268 55.983 91.8652 56.2815 89.1036 56.2815C86.342 56.2815 83.5804 55.983 83.5804 55.983C83.5804 55.983 82.9822 50.8203 82.5354 45.6829C82.0887 40.5455 81.7891 35.3828 81.7891 35.3828Z" fill="white"/>
<mask id="mask0_4480_42415" style="mask-type:luminance" maskUnits="userSpaceOnUse" x="81" y="35" width="16" height="22">
<path fill-rule="evenodd" clip-rule="evenodd" d="M81.7891 35.3828C81.7891 35.3828 85.4463 35.6814 89.1036 35.6814C92.7609 35.6814 96.4182 35.3828 96.4182 35.3828C96.4182 35.3828 96.1207 40.5202 95.6718 45.6829C95.2229 50.8456 94.6268 55.983 94.6268 55.983C94.6268 55.983 91.8652 56.2815 89.1036 56.2815C86.342 56.2815 83.5804 55.983 83.5804 55.983C83.5804 55.983 82.9822 50.8203 82.5354 45.6829C82.0887 40.5455 81.7891 35.3828 81.7891 35.3828Z" fill="white"/>
</mask>
<g mask="url(#mask0_4480_42415)">
</g>
<path fill-rule="evenodd" clip-rule="evenodd" d="M84.9424 44.7018C84.2433 42.2403 83.2352 40.5186 82.086 40.0141C82.0855 40.0106 82.0855 40.0106 82.1943 41.489C83.2008 43.0908 83.9256 47.5909 83.9256 52.8914H85.9595C85.9595 46.2491 87.0976 40.8638 88.5018 40.8638C89.9059 40.8638 91.0443 46.6975 91.0443 53.8933H93.0777C93.0777 46.1439 91.0292 39.8613 88.5018 39.8613C87.0642 39.8613 85.7817 41.7495 84.9424 44.7018Z" fill="#FFBC0D"/>
<path fill-rule="evenodd" clip-rule="evenodd" d="M96.4161 35.3828C96.4161 35.3828 96.1187 40.5202 95.6697 45.6829C95.2208 50.8456 94.6248 55.983 94.6248 55.983C94.6248 55.983 91.8632 56.2815 89.1016 56.2815C91.2784 56.2815 92.3731 49.3949 92.3855 35.6215C94.6248 35.5321 96.4161 35.3828 96.4161 35.3828Z" fill="#A0A09F" fill-opacity="0.15"/>
<path d="M90.0859 19.875L91.5642 20.0828L89.8543 32.2493L88.3471 32.2472L90.0859 19.875Z" fill="#F1F1F1"/>
<path d="M90.8242 19.9785L91.2677 20.0408L89.552 32.2485L89.0999 32.2479L90.8242 19.9785Z" fill="#EAEAEA"/>
<path fill-rule="evenodd" clip-rule="evenodd" d="M82.0178 32.8457H96.1867C96.4056 32.8457 96.5924 33.004 96.6284 33.2199L96.8646 34.637C94.2772 34.8361 91.6897 34.9356 89.1022 34.9356C86.5148 34.9356 83.9273 34.8361 81.3398 34.637L81.576 33.2199C81.612 33.004 81.7988 32.8457 82.0178 32.8457Z" fill="#F1F1F1"/>
<path fill-rule="evenodd" clip-rule="evenodd" d="M85.0424 31.8683C86.395 31.723 87.7476 31.6504 89.1002 31.6504C90.4528 31.6504 91.8054 31.723 93.158 31.8683C93.4097 31.8953 93.617 32.078 93.6753 32.3243L93.7278 32.546H84.4727L84.5252 32.3243C84.5835 32.0781 84.7908 31.8953 85.0424 31.8683Z" fill="#F1F1F1"/>
<path fill-rule="evenodd" clip-rule="evenodd" d="M119.857 33.429C119.81 32.946 120.166 32.5497 120.731 32.1313C121.26 31.7393 121.785 31.5088 122.267 31.5937C122.572 31.6474 122.805 31.8959 122.838 32.2037L122.847 32.2832L122.865 32.2822C122.894 32.281 122.924 32.2817 122.954 32.2844L122.985 32.2878C123.96 32.4175 125.28 33.2671 125.188 34.0555C125.167 34.2319 125.148 34.4041 125.129 34.5722L125.087 34.9517L125.126 34.9387C125.238 34.9023 125.354 34.8704 125.471 34.8442L125.476 34.843L125.461 34.6312L125.458 34.5824C125.457 34.516 125.466 34.4496 125.484 34.3855C125.721 33.5314 126.743 32.9852 127.884 32.8943C128.266 32.8638 128.601 33.1484 128.633 33.5308C128.652 33.7592 128.669 33.977 128.685 34.1876L128.706 34.4688L128.712 34.4662C129.207 34.257 129.829 34.2184 130.427 34.3304L130.479 34.3404C130.847 34.4147 131.09 34.7677 131.028 35.1382C131.009 35.248 130.991 35.3549 130.974 35.4591L130.936 35.6942L131.04 35.7115C131.226 35.7444 131.403 35.7871 131.569 35.8402L131.605 35.8518L131.627 35.7654L131.653 35.6661C131.856 34.8662 133.229 34.6622 134.242 34.9447C134.581 35.0394 134.797 35.3729 134.743 35.7212C134.478 37.4467 134.212 38.6634 133.746 40.2316L133.701 40.3805L133.715 40.3847C134.014 40.4827 134.22 40.7767 134.192 41.1057L134.189 41.134C133.862 43.7125 133.438 46.3051 132.918 48.9117C132.397 51.5179 131.785 54.1098 131.082 56.6874C131.041 56.8376 130.951 56.9697 130.826 57.0627L129.704 57.8982C129.514 58.0392 129.267 58.0746 129.045 57.9923C127.63 57.4654 126.028 57.2004 124.237 57.2004C122.449 57.2004 120.899 57.4642 119.582 57.9869C119.358 58.0759 119.103 58.0424 118.91 57.8982L117.787 57.0627C117.662 56.9696 117.572 56.8373 117.531 56.6869C116.822 54.0811 116.21 51.4894 115.696 48.9117C115.181 46.3336 114.757 43.7412 114.425 41.1345C114.383 40.8035 114.579 40.5028 114.873 40.3936L114.874 40.3929L114.805 40.2368L114.74 40.0955L114.478 39.5256C114.237 38.9998 114.081 38.6264 113.94 38.2128L113.898 38.0873C113.761 37.6688 113.995 37.283 114.487 36.6767L114.533 36.6205C114.871 36.2129 115.221 35.8973 115.586 35.7262L115.631 35.706L115.449 34.9649C115.359 34.5969 115.58 34.2249 115.946 34.1276C116.371 34.0146 116.9 34.0422 117.448 34.1595C117.664 34.2059 117.871 34.2649 118.037 34.3274C118.131 34.3628 118.214 34.3998 118.286 34.4409C118.342 34.4726 118.393 34.5073 118.443 34.551C118.554 34.6484 118.642 34.7661 118.682 34.947L118.721 35.1179L118.786 35.0726C119.16 34.8184 119.575 34.626 119.965 34.5492L119.951 34.3958L119.857 33.429ZM122.49 36.7124C122.423 35.2446 122.309 33.7691 122.146 32.2793C121.63 32.1885 120.525 33.1068 120.55 33.3606C120.784 35.7371 120.832 36.4956 120.851 37.7397L120.861 38.7299C120.621 37.1019 120.509 36.4112 120.308 35.4862L120.248 35.2119C119.57 35.2625 118.604 35.9837 118.654 36.2338C118.869 37.3163 118.929 37.8507 118.995 39.0942L119.018 39.5367C118.808 38.3573 118.636 37.6762 118.431 36.8709C118.32 36.4299 118.198 35.9518 118.056 35.3341L118.003 35.0999C117.977 34.9826 116.786 34.6246 116.125 34.8003C116.179 35.0211 116.233 35.2419 116.288 35.4627C116.606 36.7505 116.924 38.0375 117.061 39.3063C116.685 38.3295 116.335 37.332 116.017 36.3051C115.359 36.4922 114.522 37.7561 114.56 37.8704C114.758 38.4737 114.993 38.9823 115.235 39.5041C115.36 39.7756 115.488 40.0508 115.612 40.3447L115.673 40.4893L115.926 41.0463H115.116C115.446 43.6368 115.867 46.2131 116.379 48.7752C116.89 51.3372 117.498 53.9135 118.203 56.504L119.325 57.3396C120.729 56.7825 122.366 56.504 124.237 56.504C126.108 56.504 127.791 56.7825 129.288 57.3396L130.411 56.504C131.109 53.9419 131.718 51.3657 132.235 48.7752C132.752 46.1847 133.173 43.6084 133.498 41.0463H132.792L132.941 40.4893L132.991 40.3262C133.515 38.6024 133.785 37.3707 134.055 35.6152C133.337 35.415 132.39 35.5901 132.328 35.8372C132.292 35.9781 132.261 36.0963 132.231 36.2068L132.039 36.8978C131.745 36.5705 131.135 36.4028 130.541 36.3464C130.409 37.5497 130.278 38.1364 130.026 39.1186L129.827 39.8907C129.9 38.1025 130.004 37.0719 130.295 35.3012L130.341 35.0227C129.671 34.8874 128.798 34.9979 128.528 35.482C128.363 36.5185 128.269 37.1241 128.204 37.9857L128.19 38.1745C128.186 38.0746 128.182 37.9772 128.179 37.8819C128.123 36.3996 128.086 35.428 127.964 33.8927L127.939 33.5882C127.089 33.656 126.3 34.0481 126.154 34.5721C126.157 34.6106 126.16 34.6535 126.164 34.6995C126.176 34.8727 126.192 35.0886 126.204 35.2702L126.216 35.4579C125.632 35.4448 124.999 35.6966 124.77 35.88C124.667 36.3925 124.604 36.8229 124.543 37.2379C124.449 37.8757 124.361 38.4769 124.143 39.2828C124.143 39.2828 124.009 38.3364 124.439 34.4731L124.496 33.9748C124.526 33.718 123.571 33.0681 122.893 32.9779C122.741 34.2241 122.607 35.4685 122.49 36.7124Z" fill="white"/>
<path d="M120.478 31.7892C121.031 31.3805 121.679 31.0579 122.342 31.1745C122.742 31.245 123.066 31.524 123.201 31.8935C123.727 31.9951 124.296 32.2521 124.741 32.5827C124.989 32.7665 125.216 32.9858 125.377 33.2322C125.429 33.3115 125.475 33.3967 125.514 33.4863C125.689 33.2912 125.898 33.1246 126.128 32.988C126.621 32.6945 127.227 32.5197 127.85 32.4699C128.467 32.4207 129.008 32.8796 129.059 33.4962C129.071 33.6379 129.081 33.7756 129.092 33.9101C129.468 33.8349 129.867 33.825 130.257 33.8732L130.507 33.9115L130.51 33.9122L130.561 33.9221L130.564 33.9228C131.125 34.0361 131.505 34.5506 131.46 35.111C131.725 34.7694 132.15 34.578 132.548 34.485C133.117 34.352 133.787 34.3756 134.357 34.5347C134.905 34.6874 135.252 35.2249 135.166 35.7868C134.907 37.4642 134.646 38.6717 134.207 40.1768C134.484 40.4029 134.651 40.757 134.618 41.1429L134.617 41.1514L134.614 41.1798L134.613 41.1883C134.285 43.7771 133.86 46.3798 133.337 48.9961C132.815 51.6119 132.201 54.2134 131.495 56.8003C131.429 57.0425 131.284 57.2558 131.082 57.4057L129.96 58.2412C129.654 58.4685 129.254 58.5258 128.897 58.393C127.537 57.8868 125.987 57.6279 124.238 57.6279C122.491 57.6279 120.996 57.8861 119.74 58.3845C119.378 58.528 118.968 58.4736 118.656 58.2412L117.533 57.4057C117.331 57.2556 117.186 57.0421 117.12 56.7996C116.409 54.1848 115.795 51.5835 115.278 48.9961C114.762 46.4082 114.336 43.8056 114.002 41.189C113.955 40.82 114.092 40.4747 114.337 40.2386L114.091 39.7048L114.09 39.7041C113.846 39.1716 113.685 38.7837 113.537 38.3513L113.536 38.3491L113.494 38.2235L113.493 38.2206C113.384 37.8862 113.434 37.5725 113.57 37.2752C113.698 36.9966 113.911 36.7115 114.156 36.4085L114.158 36.4071L114.204 36.3503L114.205 36.3489C114.489 36.0075 114.799 35.7047 115.139 35.4894L115.035 35.0677V35.0663C114.891 34.4728 115.247 33.8732 115.838 33.7163C116.355 33.5789 116.959 33.6191 117.538 33.7433C117.771 33.793 117.998 33.8571 118.188 33.9285C118.295 33.969 118.4 34.0151 118.497 34.0705C118.573 34.1133 118.649 34.1642 118.725 34.2302C118.805 34.3004 118.88 34.3822 118.944 34.48C119.127 34.3821 119.316 34.298 119.507 34.233L119.434 33.4714L119.427 33.3351C119.431 32.6633 119.957 32.1749 120.478 31.7892ZM122.268 31.5947C121.786 31.5098 121.261 31.7401 120.732 32.132C120.167 32.5504 119.811 32.9467 119.858 33.4295L119.967 34.5503C119.576 34.6271 119.16 34.8192 118.787 35.0734L118.722 35.1188L118.683 34.9478C118.643 34.767 118.556 34.6491 118.444 34.5517C118.394 34.508 118.342 34.4733 118.287 34.4417C118.214 34.4006 118.131 34.3635 118.037 34.3281C117.872 34.2657 117.665 34.2069 117.449 34.1606C116.902 34.0433 116.372 34.0157 115.947 34.1287C115.581 34.226 115.36 34.5976 115.45 34.9655L115.632 35.7066L115.587 35.7271C115.222 35.8983 114.872 36.2139 114.534 36.6215L114.488 36.6776C113.996 37.2838 113.762 37.6694 113.899 38.0879L113.941 38.2136C114.082 38.6271 114.238 39.0008 114.479 39.5267L114.741 40.0966L114.806 40.2379L114.875 40.394L114.873 40.3948C114.58 40.504 114.384 40.8043 114.426 41.1351C114.758 43.7417 115.182 46.3343 115.697 48.9123C116.211 51.4899 116.823 54.0818 117.531 56.6874C117.572 56.8378 117.663 56.9705 117.788 57.0636L118.911 57.899C119.104 58.0432 119.359 58.0768 119.583 57.9878C120.9 57.4652 122.45 57.2013 124.238 57.2013C126.029 57.2013 127.631 57.4659 129.046 57.9927C129.268 58.075 129.516 58.04 129.705 57.899L130.827 57.0636C130.952 56.9706 131.043 56.8383 131.084 56.6881C131.786 54.1106 132.398 51.5185 132.918 48.9123C133.439 46.3058 133.863 43.7135 134.19 41.1351L134.192 41.1067C134.221 40.7777 134.015 40.4835 133.716 40.3855L133.703 40.3813L133.747 40.2322C134.212 38.664 134.478 37.4475 134.744 35.7222C134.798 35.3738 134.582 35.0404 134.243 34.9457C133.23 34.6632 131.856 34.8669 131.653 35.6668L131.629 35.7662L131.606 35.8528L131.57 35.8407C131.405 35.7876 131.227 35.7452 131.041 35.7122L130.937 35.6952L130.976 35.4595C130.993 35.3554 131.01 35.2484 131.029 35.1387C131.091 34.7684 130.848 34.4152 130.479 34.3409L130.428 34.331C129.83 34.219 129.208 34.2581 128.713 34.4672L128.706 34.4694L128.686 34.1883C128.67 33.9777 128.653 33.76 128.634 33.5317C128.602 33.1494 128.267 32.8646 127.884 32.8951C126.744 32.986 125.722 33.5323 125.485 34.3863C125.467 34.4504 125.458 34.5166 125.459 34.5829L125.461 34.6319L125.477 34.8442L125.472 34.8449C125.355 34.8711 125.239 34.9029 125.128 34.9393L125.089 34.9527L125.13 34.573C125.148 34.4049 125.168 34.2327 125.189 34.0563C125.28 33.2679 123.96 32.4185 122.985 32.2889L122.955 32.2853C122.925 32.2827 122.895 32.2821 122.866 32.2832L122.848 32.2839L122.839 32.2044C122.806 31.8967 122.573 31.6484 122.268 31.5947ZM120.552 33.3614C120.527 33.1076 121.631 32.1896 122.147 32.2804C122.31 33.7701 122.424 35.2454 122.491 36.713C122.608 35.4693 122.742 34.2249 122.894 32.9788C123.572 33.069 124.526 33.7183 124.497 33.9754L124.441 34.4736C124.01 38.3369 124.145 39.2839 124.145 39.2839C124.362 38.4781 124.45 37.8767 124.544 37.239C124.605 36.8241 124.668 36.3929 124.771 35.8805C125 35.6971 125.632 35.4458 126.217 35.4588L126.205 35.2707C126.193 35.0892 126.177 34.8732 126.165 34.7001C126.161 34.6542 126.158 34.6114 126.155 34.573C126.301 34.0491 127.09 33.657 127.94 33.5892L127.965 33.8937C128.087 35.4289 128.124 36.4006 128.18 37.8828C128.183 37.9781 128.187 38.0754 128.191 38.1752L128.205 37.9864C128.27 37.1249 128.364 36.5194 128.529 35.483C128.798 34.9989 129.671 34.8884 130.342 35.0237L130.296 35.302C130.004 37.0726 129.901 38.1033 129.828 39.8915L130.027 39.1193C130.279 38.1372 130.41 37.55 130.542 36.3468C131.135 36.4032 131.746 36.5711 132.04 36.8983L132.232 36.2077C132.262 36.0972 132.293 35.9788 132.328 35.8379C132.391 35.5908 133.338 35.4156 134.055 35.6157C133.785 37.3712 133.515 38.6036 132.991 40.3273L132.942 40.4899L132.793 41.0471H133.499C133.174 43.6091 132.753 46.1855 132.236 48.776C131.718 51.3665 131.11 53.943 130.411 56.505L129.289 57.3404C127.792 56.7834 126.108 56.505 124.238 56.505C122.367 56.505 120.73 56.7834 119.326 57.3404L118.204 56.505C117.499 53.9145 116.891 51.3381 116.379 48.776C115.868 46.214 115.447 43.6376 115.117 41.0471H115.927L115.674 40.4899L115.614 40.3458C115.489 40.0519 115.362 39.7763 115.236 39.5047C114.994 38.983 114.759 38.4746 114.561 37.8714C114.523 37.7572 115.36 36.4928 116.018 36.3056C116.336 37.3326 116.685 38.3306 117.062 39.3073C116.925 38.0387 116.607 36.7515 116.289 35.4638C116.234 35.243 116.18 35.0216 116.126 34.8009C116.787 34.6252 117.976 34.9828 118.004 35.1004L118.057 35.3346C118.199 35.9521 118.32 36.4305 118.432 36.8713C118.636 37.6767 118.809 38.358 119.019 39.5373L118.996 39.0951C118.93 37.8516 118.871 37.317 118.655 36.2346C118.605 35.9845 119.571 35.2631 120.248 35.2125L120.309 35.4872C120.509 36.4121 120.622 37.103 120.862 38.731L120.852 37.7408C120.833 36.4967 120.785 35.7378 120.552 33.3614ZM121.771 32.8028C121.652 32.8626 121.524 32.9428 121.4 33.0342C121.249 33.146 121.12 33.2632 121.035 33.3578C121.013 33.3824 120.998 33.404 120.985 33.4203C121.154 35.1389 121.224 36.0025 121.256 36.8472L121.278 37.7344V37.7359L121.288 38.726L120.439 38.7927C120.213 37.2587 120.101 36.5681 119.923 35.7314C119.759 35.7963 119.583 35.8906 119.419 36.0018C119.278 36.0982 119.169 36.192 119.104 36.2637C119.101 36.2665 119.098 36.2689 119.096 36.2716C119.245 37.0327 119.317 37.537 119.37 38.2398L119.422 39.0724L119.445 39.5153L118.599 39.6118C118.392 38.448 118.222 37.7786 118.019 36.9764C117.907 36.5353 117.785 36.0531 117.641 35.4304L117.629 35.3744C117.527 35.3371 117.381 35.2939 117.213 35.258C117.024 35.2175 116.832 35.1909 116.659 35.1827C116.674 35.2421 116.688 35.3014 116.703 35.3609C117.02 36.6431 117.345 37.9588 117.486 39.2612L116.663 39.4607C116.347 38.6396 116.051 37.8028 115.775 36.9466C115.633 37.0702 115.489 37.2251 115.36 37.3845C115.228 37.5477 115.118 37.7065 115.045 37.826C115.033 37.845 115.025 37.8631 115.016 37.8785C115.195 38.3946 115.4 38.8455 115.623 39.3258C115.685 39.4612 115.749 39.5992 115.814 39.741L116.006 40.179L116.007 40.1811L116.062 40.3138L116.316 40.8703L116.589 41.4736H115.603C115.922 43.8923 116.32 46.2985 116.798 48.6923C117.298 51.1975 117.891 53.7169 118.577 56.2502L119.393 56.8578C120.805 56.3347 122.422 56.0784 124.238 56.0784C126.061 56.0784 127.722 56.3372 129.217 56.8613L130.037 56.2502C130.717 53.7444 131.312 51.2252 131.817 48.6923C132.301 46.2734 132.698 43.8671 133.012 41.4736H132.238L132.529 40.3798L132.532 40.3728L132.534 40.3649L132.583 40.2024C133.059 38.6379 133.32 37.4876 133.567 35.9635C133.376 35.9483 133.181 35.9558 133.009 35.9812C132.877 36.0009 132.777 36.0299 132.712 36.0558C132.688 36.1514 132.666 36.2374 132.644 36.3191L132.643 36.3219L132.243 37.7621L131.723 37.1843C131.645 37.0971 131.495 37.0037 131.265 36.9253C131.157 36.8883 131.039 36.8567 130.915 36.8316C130.795 37.7819 130.664 38.3557 130.44 39.2257L130.241 39.998L129.401 39.8738C129.473 38.1251 129.574 37.0871 129.848 35.3985C129.684 35.395 129.521 35.407 129.374 35.4383C129.137 35.4885 129.001 35.5708 128.935 35.6448C128.779 36.6219 128.692 37.2012 128.63 38.0162L128.63 38.0169L128.616 38.2057L127.765 38.1915C127.761 38.0918 127.757 37.9943 127.753 37.8991C127.699 36.4673 127.662 35.5187 127.55 34.0797C127.339 34.1289 127.146 34.2005 126.985 34.2863C126.755 34.4092 126.637 34.5368 126.588 34.6341C126.589 34.6456 126.59 34.6575 126.591 34.6695L126.631 35.2423L126.643 35.4312L126.674 35.8954L126.208 35.8854C125.976 35.8802 125.72 35.9281 125.492 36.0018C125.351 36.0475 125.237 36.0986 125.155 36.1417C125.075 36.5661 125.02 36.9355 124.966 37.3008C124.873 37.9401 124.781 38.5626 124.556 39.3947L123.722 39.3435V39.3393L123.719 39.3194C123.717 39.3076 123.716 39.2914 123.714 39.2711C123.711 39.2307 123.707 39.1723 123.704 39.0923C123.697 38.932 123.694 38.6831 123.704 38.3158C123.725 37.5813 123.8 36.3663 124.016 34.4268L124.017 34.4254L124.061 34.0357C124.057 34.0316 124.053 34.0268 124.049 34.0222C123.982 33.954 123.873 33.8656 123.73 33.7738C123.581 33.6777 123.417 33.5912 123.259 33.5254C123.131 34.6021 123.017 35.6781 122.915 36.7535L122.064 36.7329C122.005 35.4307 121.906 34.1221 121.771 32.8028Z" fill="white"/>
<path d="M122.146 32.2797C122.309 33.7695 122.423 35.2453 122.49 36.7131C122.607 35.4692 122.741 34.2243 122.893 32.9781C123.571 33.0683 124.526 33.7185 124.496 33.9754C123.998 38.2563 124.143 39.2832 124.143 39.2832C124.503 37.953 124.51 37.1807 124.77 35.8805C125 35.6971 125.632 35.4451 126.217 35.4582C126.202 35.2207 126.171 34.8109 126.154 34.5723C126.3 34.0484 127.09 33.6563 127.939 33.5886C128.091 35.4086 128.124 36.4224 128.19 38.1745C128.256 37.2086 128.351 36.5928 128.529 35.4823C128.798 34.9984 129.671 34.8877 130.341 35.0231C130.015 36.9684 129.904 38.0111 129.827 39.8908C130.216 38.3788 130.379 37.8331 130.542 36.3468C131.135 36.4033 131.745 36.5711 132.039 36.8983C132.154 36.4788 132.221 36.2605 132.328 35.8379C132.391 35.5908 133.337 35.4155 134.055 35.6157C133.777 37.4259 133.498 38.6792 132.941 40.4892L132.792 41.0471H133.499C133.494 41.0848 133.007 44.9089 132.235 48.7753C131.461 52.6506 130.417 56.4837 130.411 56.5043L129.289 57.3397C129.289 57.3397 127.043 56.5043 124.237 56.5043C121.452 56.5043 119.358 57.3271 119.326 57.3397L118.203 56.5043C118.196 56.478 117.144 52.6054 116.379 48.7753C115.616 44.9532 115.122 41.089 115.116 41.0471H115.926L115.673 40.4892C115.292 39.5633 114.877 38.8388 114.56 37.8708C114.523 37.7558 115.359 36.493 116.017 36.3057C116.335 37.3326 116.685 38.3299 117.061 39.3067C116.901 37.8204 116.492 36.3091 116.126 34.8009C116.787 34.6253 117.977 34.9832 118.003 35.1004C118.437 37.0277 118.679 37.6329 119.018 39.5374C118.94 37.9634 118.893 37.4367 118.654 36.234C118.605 35.9836 119.57 35.2633 120.247 35.2126C120.488 36.2876 120.597 36.9458 120.861 38.7303C120.845 36.764 120.839 36.2983 120.55 33.3607C120.526 33.1066 121.63 32.1892 122.146 32.2797Z" fill="white"/>
<path fill-rule="evenodd" clip-rule="evenodd" d="M115.117 41.0469H117.345C117.345 41.0469 119.187 46.3387 124.238 46.3387C129.29 46.3387 131.271 41.0469 131.271 41.0469H133.499C133.499 41.0469 133.012 44.89 132.236 48.7757C131.46 52.6615 130.412 56.5046 130.412 56.5046L129.29 57.3401C129.29 57.3401 127.045 56.5046 124.238 56.5046C121.432 56.5046 119.327 57.3401 119.327 57.3401L118.204 56.5046C118.204 56.5046 117.148 52.6188 116.38 48.7757C115.613 44.9326 115.117 41.0469 115.117 41.0469Z" fill="#DB0007"/>
<path fill-rule="evenodd" clip-rule="evenodd" d="M125.652 48.0098C125.024 48.0098 124.464 48.8155 124.098 50.0754C123.732 48.8155 123.172 48.0098 122.544 48.0098C121.442 48.0098 120.547 50.6908 120.547 53.9979H121.435C121.435 50.9271 121.932 48.4376 122.544 48.4376C123.157 48.4376 123.654 50.7357 123.654 53.5703H124.542C124.542 50.7357 125.039 48.4376 125.652 48.4376C126.265 48.4376 126.762 50.9271 126.762 53.9979H127.649C127.649 50.6908 126.755 48.0098 125.652 48.0098Z" fill="#FFBC0D"/>
<path fill-rule="evenodd" clip-rule="evenodd" d="M117.901 40.4897C117.901 40.4897 119.711 45.7815 124.307 45.7815C128.902 45.7815 130.713 40.4897 130.713 40.4897C130.713 40.4897 131.966 40.4897 132.941 40.4897C133.498 38.6793 133.776 37.426 134.055 35.6156C133.337 35.4154 132.39 35.5905 132.328 35.8376C132.22 36.2603 132.154 36.4786 132.039 36.8982C131.745 36.5709 131.135 36.4032 130.541 36.3468C130.378 37.8332 130.216 38.3788 129.827 39.8911C129.903 38.0112 130.014 36.9686 130.341 35.0232C129.67 34.8878 128.797 34.9983 128.528 35.4824C128.351 36.593 128.256 37.2088 128.19 38.1749C128.123 36.4225 128.09 35.4089 127.939 33.5887C127.089 33.6564 126.3 34.0485 126.154 34.5725C126.172 34.811 126.202 35.2208 126.216 35.4583C125.631 35.4453 124.999 35.697 124.77 35.8804C124.509 37.1807 124.503 37.953 124.143 39.2832C124.143 39.2832 123.998 38.2563 124.496 33.9753C124.526 33.7184 123.571 33.0685 122.893 32.9783C122.741 34.2245 122.607 35.469 122.49 36.7128C122.423 35.2451 122.309 33.7695 122.146 32.2797C121.63 32.1889 120.525 33.1072 120.55 33.361C120.839 36.2986 120.845 36.764 120.861 38.7303C120.598 36.9457 120.488 36.2874 120.248 35.2123C119.57 35.2629 118.604 35.9841 118.654 36.2343C118.893 37.4369 118.94 37.9631 119.018 39.5371C118.679 37.6326 118.437 37.0276 118.003 35.1003C117.977 34.983 116.786 34.625 116.125 34.8008C116.492 36.309 116.901 37.8204 117.061 39.3067C116.685 38.3299 116.335 37.3325 116.017 36.3055C115.359 36.4927 114.522 37.7566 114.56 37.8708C114.877 38.8391 115.292 39.5636 115.673 40.4897H117.901Z" fill="#FFBC0D"/>
<path d="M113.963 56.4543H99.9168L97.0898 51.5703H116.79L113.963 56.4543Z" fill="white"/>
<path d="M118.27 50.7168L114.455 57.3073H99.4238L95.6094 50.7168H118.27ZM97.0893 51.57L113.963 56.4541L116.79 51.57H97.0893Z" fill="white"/>
<path d="M99.0962 40.9648H114.716C114.955 40.9648 115.166 41.1177 115.241 41.3439L117.812 49.136C118.055 49.8709 117.656 50.6634 116.921 50.9059C116.779 50.9527 116.631 50.9765 116.482 50.9765H97.331C96.5571 50.9765 95.9297 50.3491 95.9297 49.5752C95.9297 49.426 95.9535 49.2777 96.0003 49.136L98.572 41.3439C98.6467 41.1177 98.858 40.9648 99.0962 40.9648Z" fill="white"/>
<path d="M114.714 40.1113C115.321 40.1114 115.859 40.5001 116.049 41.0759L118.62 48.8681C119.011 50.0506 118.368 51.3255 117.186 51.7158C116.958 51.791 116.72 51.8293 116.48 51.8293H97.3285C96.0834 51.8292 95.0743 50.8202 95.0742 49.575C95.0742 49.3349 95.1125 49.0961 95.1878 48.8681L97.7594 41.0759L97.7991 40.9702C98.0171 40.453 98.5253 40.1114 99.0938 40.1113V40.9645C98.8557 40.9646 98.6446 41.1174 98.57 41.3435L95.9977 49.1357L95.9671 49.2429C95.9407 49.3514 95.9274 49.4631 95.9274 49.575L95.9345 49.7184C96.0064 50.4249 96.6031 50.9761 97.3285 50.9762H116.48L116.591 50.9719C116.665 50.966 116.739 50.954 116.811 50.9364L116.918 50.9059C117.607 50.6785 118.001 49.9676 117.848 49.2741L117.81 49.1357L115.238 41.3435C115.173 41.1455 115.003 41.0038 114.802 40.9716L114.714 40.9645V40.1113ZM114.714 40.1113V40.9645H99.0938V40.1113H114.714Z" fill="white"/>
<path d="M113.963 56.4543H99.9168L97.0898 51.5703H116.79L113.963 56.4543Z" fill="#C2945C"/>
<mask id="mask1_4480_42415" style="mask-type:luminance" maskUnits="userSpaceOnUse" x="97" y="51" width="20" height="6">
<path d="M113.963 56.4543H99.9168L97.0898 51.5703H116.79L113.963 56.4543Z" fill="white"/>
</mask>
<g mask="url(#mask1_4480_42415)">
</g>
<path d="M99.0962 40.9648H114.716C114.955 40.9648 115.166 41.1177 115.241 41.3439L117.812 49.136C118.055 49.8709 117.656 50.6634 116.921 50.9059C116.779 50.9527 116.631 50.9765 116.482 50.9765H97.331C96.5571 50.9765 95.9297 50.3491 95.9297 49.5752C95.9297 49.426 95.9535 49.2777 96.0003 49.136L98.572 41.3439C98.6467 41.1177 98.858 40.9648 99.0962 40.9648Z" fill="#C2945C"/>
<path fill-rule="evenodd" clip-rule="evenodd" d="M113.038 44.6719C112.542 44.6719 112.1 45.3135 111.811 46.3167C111.522 45.3135 111.08 44.6719 110.585 44.6719C109.714 44.6719 109.008 46.8067 109.008 49.44H109.709C109.709 46.9948 110.101 45.0125 110.585 45.0125C111.069 45.0125 111.461 46.8425 111.461 49.0996H112.162C112.162 46.8425 112.554 45.0125 113.038 45.0125C113.521 45.0125 113.914 46.9948 113.914 49.44H114.614C114.614 46.8067 113.909 44.6719 113.038 44.6719Z" fill="#FFBC0D"/>
<path d="M139.305 56.2254V57.6448C139.305 58.4287 138.621 59.0641 137.779 59.0641H73.3802C72.5374 59.0641 71.8542 58.4287 71.8542 57.6448V56.2254C71.0114 56.2254 70.3281 55.59 70.3281 54.8061C70.3281 54.0222 71.0114 53.3867 71.8542 53.3867C73.5398 53.3867 74.9062 54.6576 74.9062 56.2254H136.253C136.253 54.6576 137.619 53.3867 139.305 53.3867C140.147 53.3867 140.831 54.0222 140.831 54.8061C140.831 55.59 140.147 56.2254 139.305 56.2254Z" fill="#DB0007"/>
<path d="M140.405 54.8071C140.405 54.2875 139.942 53.8141 139.305 53.8141C137.826 53.8141 136.68 54.9226 136.68 56.226V56.6526H74.4805V56.226C74.4804 54.9226 73.3345 53.8141 71.855 53.8141C71.2182 53.8141 70.7555 54.2875 70.7555 54.8071C70.7557 55.3266 71.2183 55.7994 71.855 55.7994H72.2816V57.6456C72.2816 58.1652 72.7443 58.6379 73.3811 58.6379H137.779C138.416 58.6379 138.879 58.1652 138.879 57.6456V55.7994H139.305C139.942 55.7994 140.405 55.3266 140.405 54.8071ZM141.258 54.8071C141.258 55.7094 140.588 56.4238 139.732 56.6057V57.6456C139.732 58.6937 138.828 59.4918 137.779 59.4918H73.3811C72.3322 59.4918 71.4284 58.6937 71.4284 57.6456V56.6064C70.5728 56.4246 69.9025 55.7095 69.9023 54.8071C69.9023 53.759 70.8062 52.9609 71.855 52.9609C73.5969 52.961 75.08 54.1764 75.3039 55.7994H135.857C136.08 54.1764 137.564 52.961 139.305 52.9609C140.354 52.9609 141.258 53.759 141.258 54.8071Z" fill="white"/>
</svg>
