<svg width="375" height="225" viewBox="0 0 375 225" fill="none" xmlns="http://www.w3.org/2000/svg">
<mask id="mask0_17_28550" style="mask-type:alpha" maskUnits="userSpaceOnUse" x="65" y="69" width="112" height="131">
<path d="M65 90.998L147.096 69.0004L144.54 84.1791L154.343 96.0464L151.787 111.225L161.59 123.092L159.034 138.271L168.837 150.138L166.281 165.317L176.084 177.184L93.9877 199.182L65 90.998Z" fill="#C4C4C4"/>
</mask>
<g mask="url(#mask0_17_28550)">
<path d="M69.2611 103.043C67.6887 97.175 71.1711 91.1433 77.0392 89.571L217.098 52.0422C222.967 50.4698 228.998 53.9522 230.571 59.8204L253.347 144.822C254.919 150.69 251.437 156.722 245.569 158.294L105.509 195.823C99.6412 197.395 93.6095 193.913 92.0371 188.045L69.2611 103.043Z" fill="#FFBC0D"/>
<path d="M72.1094 113.668L233.419 70.4452L238.595 89.7637L77.2858 132.986L72.1094 113.668Z" fill="#606060"/>
<path d="M100.105 148.613L188.005 125.061L191.111 136.652L103.211 160.204L100.105 148.613Z" fill="#FBE4A7"/>
<path d="M106.316 171.795L194.216 148.242L195.251 152.106L107.352 175.659L106.316 171.795Z" fill="#FBE4A7"/>
</g>
<mask id="mask1_17_28550" style="mask-type:alpha" maskUnits="userSpaceOnUse" x="196" y="35" width="123" height="132">
<path d="M318.738 57.291L228.414 35.1426L216.339 46.5964L221.746 62.3369L209.671 73.7907L215.077 89.5313L203.002 100.985L208.409 116.726L196.334 128.179L201.741 143.92L292.065 166.068L318.738 57.291Z" fill="#C4C4C4"/>
</mask>
<g mask="url(#mask1_17_28550)">
<path d="M150.595 29.1776C152.042 23.2773 157.998 19.667 163.898 21.1138L304.726 55.6464C310.627 57.0932 314.237 63.0492 312.79 68.9496L291.832 154.418C290.386 160.318 284.43 163.928 278.529 162.481L137.701 127.949C131.801 126.502 128.191 120.546 129.637 114.646L150.595 29.1776Z" fill="#FFBC0D"/>
<path d="M147.977 39.8613L310.171 79.6333L305.408 99.0578L143.213 59.2859L147.977 39.8613Z" fill="#606060"/>
<path d="M155.691 83.9688L244.073 105.641L241.215 117.296L152.834 95.6235L155.691 83.9688Z" fill="#FBE4A7"/>
<path d="M149.977 107.277L238.358 128.949L237.406 132.834L149.024 111.162L149.977 107.277Z" fill="#FBE4A7"/>
<path d="M256.739 116.983C257.792 112.692 262.123 110.066 266.414 111.118L282.925 115.167C287.216 116.219 289.842 120.551 288.79 124.842C287.738 129.133 283.406 131.759 279.115 130.706L262.604 126.658C258.313 125.606 255.687 121.274 256.739 116.983Z" fill="#FBE4A7"/>
</g>
<path d="M174.641 59.7141H163C163.237 55.2083 164.822 51.6413 167.756 49.0129C170.737 46.3376 174.854 45 180.106 45C183.419 45 186.353 45.5398 188.908 46.6193C191.463 47.6518 193.451 49.1537 194.871 51.125C196.29 53.0493 197 55.3491 197 58.0244C197 60.7936 196.361 63.0465 195.084 64.783C193.806 66.4727 192.055 68.1154 189.831 69.7112L186.637 72.0345C185.454 72.8793 184.673 73.7476 184.294 74.6394C183.963 75.5311 183.797 76.5402 183.797 77.6667V78.3707H172.937V76.2586C172.937 74.1466 173.34 72.41 174.144 71.0489C174.949 69.6408 176.368 68.1389 178.403 66.5431L181.1 64.431C182.425 63.3985 183.301 62.4598 183.727 61.6149C184.2 60.7701 184.436 59.6437 184.436 58.2356C184.436 56.9215 184.034 55.795 183.23 54.8563C182.473 53.9176 181.36 53.4483 179.894 53.4483C178.379 53.4483 177.149 53.9646 176.203 54.9971C175.303 55.9828 174.783 57.5551 174.641 59.7141ZM178.332 81.3276C180.177 81.3276 181.715 81.9143 182.946 83.0876C184.176 84.261 184.791 85.7864 184.791 87.6638C184.791 89.4004 184.152 90.9023 182.875 92.1695C181.597 93.3898 180.083 94 178.332 94C176.534 94 175.019 93.3898 173.789 92.1695C172.559 90.9023 171.944 89.4004 171.944 87.6638C171.944 85.7864 172.559 84.261 173.789 83.0876C175.019 81.9143 176.534 81.3276 178.332 81.3276Z" fill="#DB0007"/>
</svg>
