<svg width="375" height="225" viewBox="0 0 375 225" fill="none" xmlns="http://www.w3.org/2000/svg">
<g clip-path="url(#clip0_102_69731)">
<path d="M184.5 4C262.096 4 325 66.904 325 144.5C325 163.443 321.249 181.51 314.453 198H54.5469C47.7506 181.51 44 163.443 44 144.5C44 66.904 106.904 4 184.5 4Z" fill="#DCEDF4"/>
<ellipse cx="184" cy="203" rx="153" ry="14" fill="#A0A09F" fill-opacity="0.15"/>
<path d="M316 97V124H264L264.005 97H316Z" fill="#FFBC0D"/>
<path d="M190.926 120H77V97H191L190.926 120Z" fill="#FFBC0D"/>
<path d="M191 99L190.97 108H77V99H191Z" fill="black" fill-opacity="0.1"/>
<path d="M316 99V108H264L264.002 99H316Z" fill="black" fill-opacity="0.1"/>
<path d="M264 124H287V203H264V124Z" fill="#F9F9F9"/>
<path d="M288 124H316V203H288V124Z" fill="#F9F9F9"/>
<path d="M191 89L190.967 98.999L73.8004 99C72.8061 99 72 98.1942 72 97.2002V90.8008C72 89.8068 72.8061 89.001 73.8004 89.001L191 89Z" fill="#FFBC0D"/>
<path d="M318.212 89.001C319.2 89.001 320 89.8068 320 90.8008V97.2002C320 98.1942 319.2 99 318.212 99L264 98.999L264.002 89L318.212 89.001Z" fill="#FFBC0D"/>
<path d="M260.5 74.5234L260.473 202.998H194.569L194.5 74.5234L260.5 74.5234Z" fill="#F1F1F1"/>
<path d="M59.8 124H244.443C245.437 124 246.243 124.806 246.243 125.8V140H58V125.8C58 124.806 58.8059 124 59.8 124Z" fill="#606060"/>
<path d="M195 140H246V203H195V140Z" fill="#D8D8D8"/>
<path d="M109 140H137V203H109V140Z" fill="#F9F9F9"/>
<path d="M138 140H166V203H138V140Z" fill="#F9F9F9"/>
<path d="M167 140H195V203H167V140Z" fill="#F9F9F9"/>
<path d="M218 154H246V203H218V154Z" fill="#F9F9F9"/>
<path d="M58 198H109V204H58V198Z" fill="#A5835B"/>
<path d="M58 192H109V198H58V192Z" fill="#C2945C"/>
<path d="M58 187H109V193H58V187Z" fill="#A5835B"/>
<path d="M58 182H109V188H58V182Z" fill="#C2945C"/>
<path d="M58 177H109V183H58V177Z" fill="#A5835B"/>
<path d="M58 171H109V177H58V171Z" fill="#C2945C"/>
<path d="M58 166H109V172H58V166Z" fill="#A5835B"/>
<path d="M58 161H109V167H58V161Z" fill="#C2945C"/>
<path d="M58 156H109V162H58V156Z" fill="#A5835B"/>
<path d="M58 150H109V156H58V150Z" fill="#C2945C"/>
<path d="M58 145H109V151H58V145Z" fill="#A5835B"/>
<path d="M58 140H109V146H58V140Z" fill="#C2945C"/>
<path d="M136 140H140V203H136V140Z" fill="#D8D8D8"/>
<path d="M286 124H290V203H286V124Z" fill="#D8D8D8"/>
<path d="M312 124H316V203H312V124Z" fill="#D8D8D8"/>
<path d="M165 140H169V203H165V140Z" fill="#D8D8D8"/>
<path d="M218 154H246V160H218V154Z" fill="#A0A09F" fill-opacity="0.15"/>
<path d="M195 140H246V143H195V140Z" fill="#292929" fill-opacity="0.1"/>
<path d="M165 140H169V146H165V140Z" fill="#292929" fill-opacity="0.1"/>
<path d="M136 140H140V146H136V140Z" fill="#292929" fill-opacity="0.1"/>
<path d="M109 140H136V145H109V140Z" fill="#A0A09F" fill-opacity="0.15"/>
<path d="M140 140H165V145H140V140Z" fill="#A0A09F" fill-opacity="0.15"/>
<path d="M169 140H195V145H169V140Z" fill="#A0A09F" fill-opacity="0.15"/>
<path fill-rule="evenodd" clip-rule="evenodd" d="M236.023 86.7959C239.143 86.7959 241.672 99.9528 241.672 116.182H246.195C246.195 98.703 241.64 84.5352 236.023 84.5352C232.826 84.5352 229.975 88.7942 228.111 95.4522C226.247 88.7942 223.396 84.5352 220.2 84.5352C214.584 84.5352 210.027 98.703 210.027 116.182H214.55C214.55 99.9528 217.08 86.7959 220.2 86.7959C223.32 86.7959 225.85 98.9404 225.85 113.921H230.372C230.372 98.9404 232.902 86.7959 236.023 86.7959Z" fill="#FFBC0D"/>
<rect x="63" y="33" width="6" height="170" fill="#F9F9F9"/>
<rect x="66" y="33" width="3" height="170" fill="#F1F1F1"/>
<path d="M66 26C68.2091 26 70 27.7909 70 30C70 31.195 69.4754 32.267 68.6445 33H63.3555C62.5246 32.267 62 31.195 62 30C62 27.7909 63.7909 26 66 26Z" fill="#FFBC0D"/>
<path opacity="0.5" d="M66 26C67.3598 26 68.5605 26.6789 69.2832 27.7158C68.6357 27.2648 67.8489 27 67 27C64.7909 27 63 28.7909 63 31C63 31.8496 63.2659 32.6366 63.7178 33.2842C62.6799 32.5616 62 31.3605 62 30C62 27.7909 63.7909 26 66 26Z" fill="#F9F9F9"/>
<g clip-path="url(#clip1_102_69731)">
<path d="M69 33H124.323V69.882H69V33Z" fill="#003893"/>
<path d="M69 52.6484H124.323V57.1131H69V52.6484Z" fill="#CF2027"/>
<path d="M69 48.1836H124.323V52.6483H69V48.1836ZM69 57.1129H124.323V61.5776H69V57.1129Z" fill="white"/>
<path d="M85.2192 40.5508L85.9633 42.8263H88.3574L86.4163 44.239L87.1604 46.5145L85.2192 45.1017L83.2889 46.5145L84.0222 44.239L82.0918 42.8263H84.4859L85.2192 40.5508ZM85.2192 63.1653L85.9633 65.4407H88.3574L86.4163 66.8427L87.1604 69.1289L85.2192 67.7162L83.2889 69.1289L84.0222 66.8427L82.0918 65.4407H84.4859L85.2192 63.1653ZM74.6938 55.5193L75.4379 57.7947H77.832L75.8909 59.1967L76.635 61.4829L74.6938 60.0702L72.7635 61.4829L73.4968 59.1967L71.5664 57.7947H73.9605L74.6938 55.5193ZM78.7163 42.8155L79.4605 45.0909H81.8546L79.9134 46.4929L80.6575 48.7791L78.7163 47.3664L76.786 48.7791L77.5193 46.4929L75.5781 45.0909H77.983L78.7163 42.8155ZM71.5664 50.4723H73.9605L74.6938 48.1968L75.4379 50.4723H77.832L75.8909 51.885L76.635 54.1605L74.6938 52.7585L72.7635 54.1605L73.4968 51.885L71.5664 50.4723ZM76.786 66.53L77.5193 64.2545L75.5781 62.8525H77.983L78.7163 60.5663L79.4605 62.8525H81.8546L79.9134 64.2545L80.6575 66.53L78.7163 65.128L76.786 66.53ZM95.7446 55.5193L95.0005 57.7947H92.6064L94.5476 59.1967L93.8035 61.4829L95.7446 60.0702L97.6858 61.4829L96.9417 59.1967L98.8828 57.7947H96.4887L95.7446 55.5193ZM91.7221 42.8155L90.9888 45.0909H88.5947L90.5251 46.4929L89.7917 48.7791L91.7221 47.3664L93.6633 48.7791L92.9192 46.4929L94.8603 45.0909H92.4662L91.7221 42.8155ZM98.8828 50.4723H96.4887L95.7446 48.1968L95.0005 50.4723H92.6064L94.5476 51.885L93.8035 54.1605L95.7446 52.7585L97.6858 54.1605L96.9417 51.885L98.8828 50.4723ZM93.6633 66.53L92.9192 64.2545L94.8603 62.8525H92.4662L91.7221 60.5663L90.9888 62.8525H88.5947L90.5251 64.2545L89.7917 66.53L91.7221 65.128L93.6633 66.53Z" fill="#F7D116"/>
<path fill-rule="evenodd" clip-rule="evenodd" d="M85.2208 40.375L86.0044 42.7712H88.5251L86.4817 44.2583L87.2654 46.655L85.2213 45.1673L83.1885 46.655L83.9609 44.2583L81.9288 42.7712H84.4486L85.2208 40.375ZM85.2215 40.7243L84.5271 42.879H82.2587L84.0874 44.2173L83.3931 46.3716L85.2211 45.0338L87.0593 46.3716L86.3548 44.2173L88.1936 42.879H85.9262L85.2215 40.7243ZM78.7179 42.6397L79.5015 45.0359H82.0232L79.9788 46.5124L80.7622 48.9194L78.7184 47.432L76.6859 48.9194L77.4579 46.5125L75.4133 45.0359H77.9457L78.7179 42.6397ZM91.7237 42.6397L92.5073 45.0359H95.029L92.9845 46.5124L93.768 48.9194L91.7241 47.432L89.6917 48.9194L90.4637 46.5124L88.4306 45.0359H90.9514L91.7237 42.6397ZM78.7187 42.9889L78.0242 45.1437H75.7468L77.5845 46.4709L76.8899 48.6365L78.7182 47.2985L80.5567 48.6365L79.8519 46.471L81.6897 45.1437H79.4233L78.7187 42.9889ZM91.7244 42.9889L91.03 45.1437H88.7626L90.5903 46.471L89.8957 48.6365L91.724 47.2985L93.5625 48.6365L92.8577 46.471L94.6955 45.1437H92.4291L91.7244 42.9889ZM74.6954 48.021L75.479 50.4172H77.9997L75.9563 51.9043L76.7397 54.3L74.6959 52.8239L72.6634 54.3L73.4355 51.9043L71.4034 50.4172H73.9232L74.6954 48.021ZM95.7466 48.0221L96.5298 50.4172H99.0505L97.007 51.9043L97.7905 54.3L95.7466 52.8239L93.7027 54.3L94.4861 51.9043L92.4426 50.4172H94.9634L95.7466 48.0221ZM74.6961 48.3703L74.0017 50.525H71.7333L73.562 51.8633L72.8674 54.0186L74.6957 52.6908L76.5342 54.0186L75.8294 51.8633L77.6683 50.525H75.4008L74.6961 48.3703ZM95.7466 48.3691L95.0415 50.525H92.7741L94.613 51.8633L93.9081 54.0186L95.7466 52.6908L97.585 54.0186L96.8802 51.8633L98.719 50.525H96.4516L95.7466 48.3691ZM74.6954 55.3435L75.479 57.7396H78.0007L75.9563 59.2162L76.7397 61.6232L74.6959 60.1358L72.6634 61.6232L73.4355 59.2162L71.4023 57.7396H73.9232L74.6954 55.3435ZM95.7466 55.3446L96.5298 57.7396H99.0515L97.007 59.2162L97.7905 61.6232L95.7466 60.1357L93.7027 61.6232L94.4861 59.2162L92.4416 57.7396H94.9634L95.7466 55.3446ZM74.6961 55.6927L74.0017 57.8475H71.7344L73.562 59.1748L72.8674 61.3403L74.6957 60.0023L76.5342 61.3403L75.8294 59.1748L77.6672 57.8475H75.4008L74.6961 55.6927ZM95.7466 55.6916L95.0415 57.8475H92.7751L94.613 59.1748L93.9081 61.3403L95.7466 60.0023L97.585 61.3403L96.8802 59.1748L98.718 57.8475H96.4516L95.7466 55.6916ZM78.7179 60.3897L79.5015 62.7974H82.0232L79.9788 64.274L80.7622 66.6695L78.7184 65.1934L76.6859 66.6695L77.4579 64.2741L75.4133 62.7974H77.9456L78.7179 60.3897ZM91.7237 60.3897L92.5073 62.7974H95.029L92.9846 64.274L93.768 66.6695L91.7241 65.1934L89.6917 66.6695L90.4637 64.274L88.4306 62.7974H90.9514L91.7237 60.3897ZM78.7187 60.7405L78.0243 62.9053H75.7468L77.5846 64.2325L76.8899 66.3881L78.7182 65.0603L80.5567 66.3881L79.8518 64.2326L81.6897 62.9053H79.4232L78.7187 60.7405ZM91.7244 60.7405L91.0301 62.9053H88.7626L90.5903 64.2326L89.8957 66.3881L91.724 65.0603L93.5625 66.3881L92.8576 64.2326L94.6955 62.9053H92.429L91.7244 60.7405ZM85.2208 62.9895L86.0044 65.3856H88.5261L86.4817 66.8622L87.2651 69.2692L85.2213 67.7818L83.1888 69.2692L83.9609 66.8622L81.9277 65.3856H84.4486L85.2208 62.9895ZM85.2215 63.3387L84.5271 65.4935H82.2597L84.0874 66.8208L83.3928 68.9863L85.2211 67.6483L87.0596 68.9863L86.3548 66.8208L88.1926 65.4935H85.9262L85.2215 63.3387Z" fill="black"/>
</g>
<path d="M67.8158 205.5L68.7364 205.494C75.9374 205.404 81.6316 204.137 81.6316 196.816C81.6316 189.186 75.446 183 67.8158 183C60.1855 183 54 189.186 54 196.816C54 204.446 60.1855 205.5 67.8158 205.5Z" fill="#9CC93A"/>
<path d="M98.8158 205.5L99.7364 205.494C106.937 205.404 112.632 204.137 112.632 196.816C112.632 189.186 106.446 183 98.8158 183C91.1855 183 85 189.186 85 196.816C85 204.446 91.1855 205.5 98.8158 205.5Z" fill="#9CC93A"/>
<path d="M128.816 205.5L129.736 205.494C136.937 205.404 142.632 204.137 142.632 196.816C142.632 189.186 136.446 183 128.816 183C121.186 183 115 189.186 115 196.816C115 204.446 121.186 205.5 128.816 205.5Z" fill="#9CC93A"/>
<path d="M253.561 29.8555C255.088 29.8555 256.327 31.0943 256.327 32.6221C256.327 34.0685 255.217 35.2538 253.802 35.376C254.09 36.0127 254.252 36.7186 254.252 37.4629C254.252 40.2639 251.982 42.5342 249.181 42.5342H257.94C260.741 42.5342 263.013 44.8055 263.013 47.6064H269.929C272.729 47.6066 275 49.8769 275 52.6777C275 55.4786 272.73 57.7498 269.929 57.75H262.332C261.455 59.2653 259.817 60.2852 257.94 60.2852H215.523C213.647 60.2852 212.009 59.2653 211.132 57.75H206.071C203.27 57.7498 201 55.4786 201 52.6777C201 49.8769 203.271 47.6066 206.071 47.6064H210.452C210.452 44.8055 212.722 42.5342 215.523 42.5342H221.748C221.748 39.7334 224.018 37.4629 226.819 37.4629H235.349C235.349 34.6619 237.62 32.3916 240.421 32.3916H249.181C249.746 32.3916 250.288 32.4849 250.796 32.6553C250.796 32.6442 250.795 32.6332 250.795 32.6221C250.795 31.0943 252.033 29.8556 253.561 29.8555Z" fill="white"/>
<path d="M140.047 2C143.684 2 146.634 4.94858 146.634 8.58594C146.634 8.65081 146.631 8.71586 146.629 8.78027H148.184C150.537 8.78048 152.445 10.6884 152.445 13.042H155.738C158.092 13.042 160 14.95 160 17.3037C160 19.6574 158.092 21.5654 155.738 21.5654H153.229C152.493 22.8389 151.116 23.6963 149.539 23.6963H133.461C131.884 23.6963 130.507 22.8389 129.771 21.5654H127.262C124.908 21.5654 123 19.6574 123 17.3037C123 14.95 124.908 13.042 127.262 13.042H127.843C127.843 10.6883 129.751 8.78037 132.104 8.78027H133.466C133.464 8.71585 133.461 8.65081 133.461 8.58594C133.461 4.94867 136.41 2.00015 140.047 2Z" fill="white"/>
</g>
<defs>
<clipPath id="clip0_102_69731">
<rect width="375" height="225" fill="white"/>
</clipPath>
<clipPath id="clip1_102_69731">
<rect width="55.3231" height="36.882" fill="white" transform="translate(69 33)"/>
</clipPath>
</defs>
</svg>
