<svg width="375" height="225" viewBox="0 0 375 225" fill="none" xmlns="http://www.w3.org/2000/svg">
<g clip-path="url(#clip0_102_69671)">
<path d="M184.5 4C262.096 4 325 66.904 325 144.5C325 163.443 321.249 181.51 314.453 198H54.5469C47.7506 181.51 44 163.443 44 144.5C44 66.904 106.904 4 184.5 4Z" fill="#DCEDF4"/>
<ellipse cx="184" cy="203" rx="153" ry="14" fill="#A0A09F" fill-opacity="0.15"/>
<path d="M316 97V124H264L264.005 97H316Z" fill="#FFBC0D"/>
<path d="M190.926 120H77V97H191L190.926 120Z" fill="#FFBC0D"/>
<path d="M191 99L190.97 108H77V99H191Z" fill="black" fill-opacity="0.1"/>
<path d="M316 99V108H264L264.002 99H316Z" fill="black" fill-opacity="0.1"/>
<path d="M264 124H287V203H264V124Z" fill="#F9F9F9"/>
<path d="M288 124H316V203H288V124Z" fill="#F9F9F9"/>
<path d="M191 89L190.967 98.999L73.8004 99C72.8061 99 72 98.1942 72 97.2002V90.8008C72 89.8068 72.8061 89.001 73.8004 89.001L191 89Z" fill="#FFBC0D"/>
<path d="M318.212 89.001C319.2 89.001 320 89.8068 320 90.8008V97.2002C320 98.1942 319.2 99 318.212 99L264 98.999L264.002 89L318.212 89.001Z" fill="#FFBC0D"/>
<path d="M260.5 74.5234L260.473 202.998H194.569L194.5 74.5234L260.5 74.5234Z" fill="#F1F1F1"/>
<path d="M59.8 124H244.443C245.437 124 246.243 124.806 246.243 125.8V140H58V125.8C58 124.806 58.8059 124 59.8 124Z" fill="#606060"/>
<path d="M195 140H246V203H195V140Z" fill="#D8D8D8"/>
<path d="M109 140H137V203H109V140Z" fill="#F9F9F9"/>
<path d="M138 140H166V203H138V140Z" fill="#F9F9F9"/>
<path d="M167 140H195V203H167V140Z" fill="#F9F9F9"/>
<path d="M218 154H246V203H218V154Z" fill="#F9F9F9"/>
<path d="M58 198H109V204H58V198Z" fill="#A5835B"/>
<path d="M58 192H109V198H58V192Z" fill="#C2945C"/>
<path d="M58 187H109V193H58V187Z" fill="#A5835B"/>
<path d="M58 182H109V188H58V182Z" fill="#C2945C"/>
<path d="M58 177H109V183H58V177Z" fill="#A5835B"/>
<path d="M58 171H109V177H58V171Z" fill="#C2945C"/>
<path d="M58 166H109V172H58V166Z" fill="#A5835B"/>
<path d="M58 161H109V167H58V161Z" fill="#C2945C"/>
<path d="M58 156H109V162H58V156Z" fill="#A5835B"/>
<path d="M58 150H109V156H58V150Z" fill="#C2945C"/>
<path d="M58 145H109V151H58V145Z" fill="#A5835B"/>
<path d="M58 140H109V146H58V140Z" fill="#C2945C"/>
<path d="M136 140H140V203H136V140Z" fill="#D8D8D8"/>
<path d="M286 124H290V203H286V124Z" fill="#D8D8D8"/>
<path d="M312 124H316V203H312V124Z" fill="#D8D8D8"/>
<path d="M165 140H169V203H165V140Z" fill="#D8D8D8"/>
<path d="M218 154H246V160H218V154Z" fill="#A0A09F" fill-opacity="0.15"/>
<path d="M195 140H246V143H195V140Z" fill="#292929" fill-opacity="0.1"/>
<path d="M165 140H169V146H165V140Z" fill="#292929" fill-opacity="0.1"/>
<path d="M136 140H140V146H136V140Z" fill="#292929" fill-opacity="0.1"/>
<path d="M109 140H136V145H109V140Z" fill="#A0A09F" fill-opacity="0.15"/>
<path d="M140 140H165V145H140V140Z" fill="#A0A09F" fill-opacity="0.15"/>
<path d="M169 140H195V145H169V140Z" fill="#A0A09F" fill-opacity="0.15"/>
<path fill-rule="evenodd" clip-rule="evenodd" d="M236.023 86.7959C239.143 86.7959 241.672 99.9528 241.672 116.182H246.195C246.195 98.703 241.64 84.5352 236.023 84.5352C232.826 84.5352 229.975 88.7942 228.111 95.4522C226.247 88.7942 223.396 84.5352 220.2 84.5352C214.584 84.5352 210.027 98.703 210.027 116.182H214.55C214.55 99.9528 217.08 86.7959 220.2 86.7959C223.32 86.7959 225.85 98.9404 225.85 113.921H230.372C230.372 98.9404 232.902 86.7959 236.023 86.7959Z" fill="#FFBC0D"/>
<rect x="63" y="33" width="6" height="170" fill="#F9F9F9"/>
<rect x="66" y="33" width="3" height="170" fill="#F1F1F1"/>
<path d="M66 26C68.2091 26 70 27.7909 70 30C70 31.195 69.4754 32.267 68.6445 33H63.3555C62.5246 32.267 62 31.195 62 30C62 27.7909 63.7909 26 66 26Z" fill="#FFBC0D"/>
<path opacity="0.5" d="M66 26C67.3598 26 68.5605 26.6789 69.2832 27.7158C68.6357 27.2648 67.8489 27 67 27C64.7909 27 63 28.7909 63 31C63 31.8496 63.2659 32.6366 63.7178 33.2842C62.6799 32.5616 62 31.3605 62 30C62 27.7909 63.7909 26 66 26Z" fill="#F9F9F9"/>
<g clip-path="url(#clip1_102_69671)">
<path d="M69 33H124.215V69.8065H69V33Z" fill="#D80027"/>
<path d="M70.1953 34.1953H123.006V68.6077H70.1953V34.1953Z" fill="#0052B4"/>
<path d="M96.6063 63.7673C96.6063 63.7673 104.845 58.235 104.845 51.4086C104.845 44.5821 96.6063 39.0391 96.6063 39.0391C96.6063 39.0391 88.3672 44.5714 88.3672 51.3978C88.3672 58.2242 96.6063 63.7673 96.6063 63.7673Z" fill="#7DBEF1"/>
<path d="M88.3906 52.4883H104.847L101.688 59.4872H91.421L88.3906 52.4883Z" fill="#1C8AE6"/>
<path d="M89.7383 55.2031C89.7383 55.2031 94.1059 59.3227 95.2382 59.3227C96.5755 59.3227 96.597 57.3384 97.9882 56.5727C100.167 55.3757 103.488 55.2031 103.488 55.2031L101.029 59.8188L96.6078 63.7658L91.5608 59.4845L89.7383 55.2031Z" fill="#FFF042"/>
<path d="M96.6091 49.9844L94.1826 51.6668L95.0346 48.8413L92.6836 47.0619L95.6385 47.008L96.6091 44.2148L97.5796 47.008L100.535 47.0619L98.1836 48.8521L99.0355 51.6775L96.6091 49.9844Z" fill="#259C7B"/>
<path d="M95.9296 48.5929C95.8325 49.585 95.7678 50.5772 95.7463 51.5693C95.7139 52.8526 95.7786 53.8016 95.962 54.3732C96.1992 55.085 96.7384 55.7644 97.4933 56.4114C98.0649 56.9075 98.6365 57.2849 99.0247 57.5006C99.359 57.684 99.7796 57.5653 99.9629 57.2418C100.146 56.9075 100.028 56.4869 99.7041 56.3036C99.2404 56.034 98.7982 55.7212 98.3884 55.3654C97.8061 54.8693 97.407 54.3732 97.2669 53.9311C97.1482 53.5644 97.0943 52.7124 97.1159 51.5909C97.1374 50.6311 97.2021 49.6713 97.2992 48.7223C97.3423 48.3448 97.062 48.0105 96.6845 47.9674C96.2963 47.935 95.962 48.2154 95.9296 48.5929Z" fill="#8E5715"/>
<path d="M92.4883 51.4102L95.2383 55.5297H92.4883V51.4102Z" fill="white"/>
<path fill-rule="evenodd" clip-rule="evenodd" d="M96.97 38.5006L96.6089 39.0374L96.2482 38.5002L96.6092 38.2578L96.97 38.5006ZM96.6089 63.7656C96.2477 64.3025 96.2475 64.3024 96.2473 64.3022L96.245 64.3007L96.2393 64.2968C96.2345 64.2936 96.2278 64.289 96.2191 64.2831C96.2073 64.275 96.1919 64.2643 96.1731 64.2512C96.1645 64.2453 96.1552 64.2387 96.1451 64.2317C96.0813 64.187 95.9891 64.1215 95.8727 64.0363C95.6398 63.8658 95.3094 63.6161 94.914 63.2955C94.1241 62.655 93.0696 61.7273 92.0131 60.5789C89.9214 58.3051 87.7227 55.0585 87.7227 51.3962C87.7227 47.7337 89.9215 44.4897 92.0133 42.2185C93.0699 41.0714 94.1244 40.1451 94.9144 39.5056C95.3098 39.1855 95.6402 38.9362 95.8731 38.766C95.9896 38.6809 96.0818 38.6155 96.1456 38.5709C96.1775 38.5486 96.2024 38.5315 96.2196 38.5197C96.2282 38.5137 96.235 38.5092 96.2398 38.5059L96.2454 38.5021L96.2478 38.5005C96.248 38.5004 96.2482 38.5002 96.6089 39.0374C96.97 38.5006 96.9702 38.5007 96.9704 38.5008L96.971 38.5012L96.9727 38.5024L96.9784 38.5063C96.9832 38.5095 96.9899 38.5141 96.9986 38.52C97.0158 38.5318 97.0407 38.549 97.0726 38.5714C97.1364 38.6161 97.2286 38.6816 97.3451 38.7668C97.5779 38.9373 97.9083 39.187 98.3038 39.5076C99.0936 40.1481 100.148 41.0757 101.205 42.2242C103.296 44.498 105.495 47.7446 105.495 51.4069C105.495 55.0694 103.296 58.3134 101.204 60.5846C100.148 61.7317 99.0933 62.658 98.3034 63.2975C97.9079 63.6176 97.5775 63.8669 97.3446 64.0371C97.2281 64.1222 97.136 64.1875 97.0721 64.2322C97.0402 64.2545 97.0154 64.2716 96.9981 64.2834C96.9895 64.2893 96.9827 64.2939 96.978 64.2972L96.9723 64.301L96.9705 64.3022L96.97 64.3026C96.9697 64.3027 96.9696 64.3028 96.6089 63.7656ZM96.6089 63.7656L96.2477 64.3025L96.6085 64.5453L96.9696 64.3028L96.6089 63.7656ZM96.6092 62.9716C96.8254 62.813 97.128 62.584 97.4891 62.2917C98.244 61.6805 99.2493 60.7971 100.252 59.7078C102.28 57.5063 104.201 54.5709 104.201 51.4069C104.201 48.2428 102.28 45.3047 100.252 43.1004C99.2489 42.0097 98.2437 41.125 97.4887 40.5128C97.1275 40.2199 96.8247 39.9903 96.6085 39.8315C96.3923 39.99 96.0897 40.2191 95.7286 40.5114C94.9737 41.1226 93.9685 42.006 92.9652 43.0952C90.9375 45.2968 89.0168 48.2322 89.0168 51.3962C89.0168 54.5603 90.9376 57.4984 92.9655 59.7027C93.9688 60.7933 94.9741 61.6781 95.729 62.2903C96.0902 62.5832 96.393 62.8127 96.6092 62.9716Z" fill="#D80027"/>
</g>
<path d="M67.8158 205.5L68.7364 205.494C75.9374 205.404 81.6316 204.137 81.6316 196.816C81.6316 189.186 75.446 183 67.8158 183C60.1855 183 54 189.186 54 196.816C54 204.446 60.1855 205.5 67.8158 205.5Z" fill="#9CC93A"/>
<path d="M98.8158 205.5L99.7364 205.494C106.937 205.404 112.632 204.137 112.632 196.816C112.632 189.186 106.446 183 98.8158 183C91.1855 183 85 189.186 85 196.816C85 204.446 91.1855 205.5 98.8158 205.5Z" fill="#9CC93A"/>
<path d="M128.816 205.5L129.736 205.494C136.937 205.404 142.632 204.137 142.632 196.816C142.632 189.186 136.446 183 128.816 183C121.186 183 115 189.186 115 196.816C115 204.446 121.186 205.5 128.816 205.5Z" fill="#9CC93A"/>
<path d="M253.561 29.8555C255.088 29.8555 256.327 31.0943 256.327 32.6221C256.327 34.0685 255.217 35.2538 253.802 35.376C254.09 36.0127 254.252 36.7186 254.252 37.4629C254.252 40.2639 251.982 42.5342 249.181 42.5342H257.94C260.741 42.5342 263.013 44.8055 263.013 47.6064H269.929C272.729 47.6066 275 49.8769 275 52.6777C275 55.4786 272.73 57.7498 269.929 57.75H262.332C261.455 59.2653 259.817 60.2852 257.94 60.2852H215.523C213.647 60.2852 212.009 59.2653 211.132 57.75H206.071C203.27 57.7498 201 55.4786 201 52.6777C201 49.8769 203.271 47.6066 206.071 47.6064H210.452C210.452 44.8055 212.722 42.5342 215.523 42.5342H221.748C221.748 39.7334 224.018 37.4629 226.819 37.4629H235.349C235.349 34.6619 237.62 32.3916 240.421 32.3916H249.181C249.746 32.3916 250.288 32.4849 250.796 32.6553C250.796 32.6442 250.795 32.6332 250.795 32.6221C250.795 31.0943 252.033 29.8556 253.561 29.8555Z" fill="white"/>
<path d="M140.047 2C143.684 2 146.634 4.94858 146.634 8.58594C146.634 8.65081 146.631 8.71586 146.629 8.78027H148.184C150.537 8.78048 152.445 10.6884 152.445 13.042H155.738C158.092 13.042 160 14.95 160 17.3037C160 19.6574 158.092 21.5654 155.738 21.5654H153.229C152.493 22.8389 151.116 23.6963 149.539 23.6963H133.461C131.884 23.6963 130.507 22.8389 129.771 21.5654H127.262C124.908 21.5654 123 19.6574 123 17.3037C123 14.95 124.908 13.042 127.262 13.042H127.843C127.843 10.6883 129.751 8.78037 132.104 8.78027H133.466C133.464 8.71585 133.461 8.65081 133.461 8.58594C133.461 4.94867 136.41 2.00015 140.047 2Z" fill="white"/>
</g>
<defs>
<clipPath id="clip0_102_69671">
<rect width="375" height="225" fill="white"/>
</clipPath>
<clipPath id="clip1_102_69671">
<rect width="55.3231" height="36.882" fill="white" transform="translate(69 33)"/>
</clipPath>
</defs>
</svg>
