<svg width="72" height="72" viewBox="0 0 72 72" fill="none" xmlns="http://www.w3.org/2000/svg">
<g clip-path="url(#clip0_17_28684)">
<g clip-path="url(#clip1_17_28684)">
<path d="M68.5604 64.5742C68.5604 66.0499 54.0915 67.2462 36.2431 67.2462C18.3947 67.2462 3.92578 66.0499 3.92578 64.5742C3.92578 63.0986 18.3947 61.9023 36.2431 61.9023C54.0915 61.9023 68.5604 63.0986 68.5604 64.5742Z" fill="#A0A09F" fill-opacity="0.15"/>
<path fill-rule="evenodd" clip-rule="evenodd" d="M23.5158 15.5898L23.5158 39.0008H5.70312V15.5898H23.5158Z" fill="white"/>
<path fill-rule="evenodd" clip-rule="evenodd" d="M31.662 57.3212C31.662 61.959 27.9024 65.7187 23.2646 65.7187C18.6268 65.7187 14.8672 61.959 14.8672 57.3212C14.8672 52.6835 18.6268 48.9238 23.2646 48.9238C27.9024 48.9238 31.662 52.6835 31.662 57.3212Z" fill="white"/>
<path fill-rule="evenodd" clip-rule="evenodd" d="M61.6894 57.3212C61.6894 61.959 57.9297 65.7187 53.2919 65.7187C48.6542 65.7187 44.8945 61.959 44.8945 57.3212C44.8945 52.6835 48.6542 48.9238 53.2919 48.9238C57.9297 48.9238 61.6894 52.6835 61.6894 57.3212Z" fill="white"/>
<path fill-rule="evenodd" clip-rule="evenodd" d="M32.9433 11.0114C32.7924 8.85535 34.414 6.9375 36.5695 6.9375H41.0207L40.6039 12.8931C40.5896 15.0133 38.9481 16.7981 36.8393 16.7981C34.731 16.7981 33.0896 15.0132 33.0752 12.8932L32.9433 11.0114Z" fill="white"/>
<path fill-rule="evenodd" clip-rule="evenodd" d="M32.0455 47.5929C31.9557 49.2211 32.3578 50.1253 32.9093 50.7469C33.4457 51.3512 34.1605 51.746 35.0259 52.2239C35.1202 52.2759 35.2162 52.3289 35.3139 52.3833C36.7484 49.1853 37.3871 46.8438 37.3706 45.1346C37.36 44.0467 37.0837 43.2555 36.6096 42.6534C36.2104 42.1461 35.6322 41.724 34.8398 41.3821C34.3194 42.0952 33.7163 43.0422 33.2013 44.0532C32.5618 45.3089 32.1015 46.5806 32.0455 47.5929ZM33.1773 56.7106H12.25L12.2456 55.9517C12.2103 49.8319 15.0413 45.3785 19.0254 42.4688H5.24254L5.05452 42.3486C4.39544 41.9273 3.90825 41.4335 3.5934 40.8307C3.28028 40.2312 3.16862 39.5831 3.16464 38.9033L3.16016 38.1355H22.7862C22.3986 28.0662 25.4482 20.5689 30.4778 17.033C31.9945 15.9665 33.6682 15.8273 35.257 16.5373C36.7996 17.2266 38.1979 18.6835 39.3519 20.6839C42.3782 25.93 47.1088 27.9644 49.9312 27.9265L50.7517 27.9155L50.6666 29.361C51.4316 29.1945 52.272 29.1007 53.1517 29.0957L53.9151 29.0914L53.954 35.8932L53.1906 35.8975C52.6977 35.9003 52.2172 35.8752 51.7554 35.825C52.8583 38.2234 54.077 41.4793 54.4109 44.7211C58.8707 45.4263 61.397 48.1346 62.7901 50.686C63.5144 52.0124 63.9366 53.3002 64.1783 54.2543C64.2994 54.7326 64.376 55.1303 64.4226 55.4114C64.4459 55.552 64.4618 55.6637 64.472 55.7421C64.4771 55.7812 64.4808 55.8121 64.4833 55.8341C64.4845 55.8451 64.4855 55.8538 64.4862 55.8603L64.487 55.8683L64.4873 55.871L64.4874 55.872L64.5096 56.0956L64.4875 55.8728L64.5706 56.7115H36.3887L36.389 56.7111H33.1771L33.1773 56.7106ZM40.7855 51.8447C43.4517 50.1722 45.4209 47.895 46.5846 45.1484C47.8739 42.1053 48.194 38.4379 47.3159 34.3033C47.0272 34.305 46.7219 34.3067 46.4329 34.3083C45.8638 34.3115 45.3575 34.3144 45.1639 34.3156C44.4867 34.3194 44.0306 33.811 43.8017 33.4476C43.5471 33.0435 43.3759 32.5235 43.373 32.0304L43.3685 31.2669L46.7534 31.2473C44.23 31.1347 42.2446 30.7091 40.6234 30.0012C38.8058 29.2076 37.4914 28.079 36.4058 26.7274C35.3331 28.3286 34.4553 29.7289 33.5701 31.6134C36.9738 32.6041 39.5686 33.7634 41.4035 35.1575C43.4147 36.6856 44.5262 38.5091 44.7605 40.6701C44.9906 42.7915 44.3633 45.1345 43.1295 47.7071C42.5059 49.0071 41.7181 50.3847 40.7855 51.8447Z" fill="white"/>
<path d="M22.7546 19.293H6.46875V34.3001H22.7546V19.293Z" fill="#A0A09F"/>
<path d="M22.7546 34.2988H6.46875V38.235H22.7546V34.2988Z" fill="#6F6F6F"/>
<path d="M22.7551 21.4965C22.7503 21.4965 22.7244 21.4961 22.7196 21.4961C21.0153 21.4961 19.4946 23.7313 18.5003 27.2273C17.506 23.7313 15.9849 21.4961 14.2806 21.4961C11.2846 21.4961 8.85547 29.0611 8.85547 38.2365H11.2671C11.2671 29.7166 12.6166 22.6827 14.2806 22.6827C15.945 22.6827 17.2949 29.0587 17.2949 36.923H19.7053C19.7053 29.0587 21.0552 22.6827 22.7196 22.6827C22.7244 22.6827 22.7503 22.6835 22.7551 22.6835V21.4965Z" fill="#F1F1F1"/>
<path d="M22.7546 16.3516H6.46875V19.2924H22.7546V16.3516Z" fill="#C2945C"/>
<path d="M22.7546 16.3516H6.46875V19.2924H22.7546V16.3516Z" fill="#D8D8D8"/>
<path d="M16.5889 20.5772H12.6382C12.4454 20.5772 12.2891 20.4234 12.2891 20.2337V16.3516H16.938V20.2337C16.938 20.4234 16.7817 20.5772 16.5889 20.5772Z" fill="#F1F1F1"/>
<path fill-rule="evenodd" clip-rule="evenodd" d="M23.2629 64.9555C27.4791 64.9555 30.8969 61.5377 30.8969 57.3215C30.8969 57.1506 30.8913 56.9809 30.8803 56.8128H15.6456C15.6345 56.9809 15.6289 57.1506 15.6289 57.3215C15.6289 61.5377 19.0468 64.9555 23.2629 64.9555ZM15.7344 56.0494C16.3401 52.4387 19.4802 49.6875 23.2629 49.6875C27.0456 49.6875 30.1858 52.4387 30.7914 56.0494H15.7344Z" fill="#292929"/>
<path fill-rule="evenodd" clip-rule="evenodd" d="M23.2623 61.1379C25.3704 61.1379 27.0793 59.429 27.0793 57.3209C27.0793 57.1485 27.0679 56.9787 27.0457 56.8123H19.4789C19.4567 56.9787 19.4453 57.1485 19.4453 57.3209C19.4453 59.429 21.1542 61.1379 23.2623 61.1379ZM19.6624 56.0489C20.1863 54.5662 21.6002 53.5039 23.2623 53.5039C24.9244 53.5039 26.3384 54.5662 26.8623 56.0489H19.6624Z" fill="white"/>
<path d="M60.9243 57.3215C60.9243 61.5377 57.5064 64.9555 53.2903 64.9555C49.0741 64.9555 45.6562 61.5377 45.6562 57.3215C45.6562 53.1054 49.0741 49.6875 53.2903 49.6875C57.5064 49.6875 60.9243 53.1054 60.9243 57.3215Z" fill="#292929"/>
<path d="M57.1067 57.3209C57.1067 59.429 55.3977 61.1379 53.2897 61.1379C51.1816 61.1379 49.4727 59.429 49.4727 57.3209C49.4727 55.2128 51.1816 53.5039 53.2897 53.5039C55.3977 53.5039 57.1067 55.2128 57.1067 57.3209Z" fill="white"/>
<path fill-rule="evenodd" clip-rule="evenodd" d="M36.5199 7.69922C34.8499 7.69922 33.5322 9.19792 33.6553 10.9564L33.7889 12.8634C33.7889 14.614 35.1325 16.033 36.7897 16.033C38.4474 16.033 39.791 14.614 39.791 12.8634L40.1524 7.69922H36.5199ZM53.2927 48.9232C49.0876 48.9232 45.6044 52.0141 44.9911 56.0479H37.8971C38.6121 55.0776 39.1884 54.2794 39.8056 53.3761C46.7873 49.803 50.0636 42.649 47.9235 33.6362L45.1571 33.652C44.6191 33.6551 44.1381 32.7938 44.1341 32.1257L47.6112 32.1055C47.8675 31.5023 48.564 30.9709 49.5387 30.5876C41.8176 30.8719 38.6831 28.833 36.3722 25.5088C34.8543 27.7483 33.7083 29.4669 32.5053 32.2072C47.6686 36.3357 46.4906 43.1852 37.0118 56.0475H34.4293C39.3064 46.6207 39.1908 42.5082 35.1086 40.7675L36.2173 38.6064C36.3042 38.437 36.1812 38.2357 35.9909 38.2357H23.5479C23.1578 28.2866 26.1774 21.0876 30.9146 17.7573C33.5116 15.9313 36.4695 17.3188 38.6884 21.1652C41.836 26.6216 46.8082 28.8317 49.9392 28.7897L49.8397 30.4802C50.7711 30.1604 51.9136 29.9659 53.1538 29.9589L53.184 35.2339C52.1799 35.2396 51.2381 35.1222 50.4188 34.9141C51.6928 37.4419 53.4364 41.5477 53.7001 45.4957C62.7802 46.5086 63.7256 56.0479 63.7256 56.0479H61.5943C60.981 52.0141 57.4978 48.9232 53.2927 48.9232ZM23.2659 38.9987H3.92578C3.93279 40.1977 4.3183 41.0732 5.46344 41.8053H21.6637C16.7243 44.4785 12.9669 49.1494 13.0068 56.0471H15.1888L18.5524 56.0479L27.1392 56.0471H30.5024H33.5488L34.9708 53.1671C34.8663 53.1089 34.7617 53.0513 34.6572 52.9937L34.652 52.9909L34.6509 52.9903C32.8481 51.998 31.0945 51.0328 31.281 47.6506C31.3746 45.9575 32.4137 43.8192 33.4448 42.1796L34.9891 39.3764C35.0825 39.2068 34.9598 38.9991 34.7662 38.9991H23.2659V38.9987Z" fill="#6F6F6F"/>
</g>
</g>
<defs>
<clipPath id="clip0_17_28684">
<rect width="72" height="72" fill="white"/>
</clipPath>
<clipPath id="clip1_17_28684">
<rect width="72" height="72" fill="white"/>
</clipPath>
</defs>
</svg>
