<svg width="27" height="18" viewBox="0 0 27 18" fill="none" xmlns="http://www.w3.org/2000/svg">
<g clip-path="url(#clip0_109_43714)">
<path d="M0 0H27V18.0002H0V0Z" fill="#0052B4"/>
<path d="M21.1286 7.09238L20.2481 7.38585L19.3677 7.09238L19.0742 6.35869L19.3677 5.625H21.1286L20.8351 6.35869L21.1286 7.09238Z" fill="#ACABB1"/>
<path d="M18.1953 7.09375V10.322C18.1953 11.8946 20.2497 12.3764 20.2497 12.3764C20.2497 12.3764 22.3041 11.8945 22.3041 10.322V7.09375H18.1953Z" fill="#338AF3"/>
<path d="M18.3789 11.0852C18.8839 12.0548 20.2481 12.3748 20.2481 12.3748C20.2481 12.3748 21.6123 12.0548 22.1173 11.0852L20.2481 7.97266L18.3789 11.0852Z" fill="#6DA544"/>
<path d="M22.3041 10.2894L20.2497 7.09375L18.1953 10.2894V10.322C18.1953 10.613 18.2658 10.8666 18.3805 11.0868L20.2497 8.17918L22.1189 11.0868C22.2336 10.8666 22.3041 10.6131 22.3041 10.322V10.2894Z" fill="#FFDA44"/>
<path d="M13.5 0V1.61119L11.1181 2.93477H13.5V6.06503H10.3832L13.5 7.79657V8.99981H12.093L8.21739 6.84687V8.99981H5.28261V6.43834L0.672047 8.99981H0V7.38856L2.38185 6.06503H0V2.93477H3.11676L0 1.20266V0H1.40695L5.28261 2.15288V0H8.21739V2.56141L12.828 0H13.5Z" fill="white"/>
<path d="M7.59375 0H5.90625V3.65618H0V5.34368H5.90625V8.99997H7.59375V5.34368H13.5V3.65618H7.59375V0Z" fill="#D80027"/>
<path d="M8.21875 6.06641L13.5014 9.00118V8.1713L9.71256 6.06641H8.21875Z" fill="#0052B4"/>
<path d="M8.21875 6.06641L13.5014 9.00118V8.1713L9.71256 6.06641H8.21875Z" fill="white"/>
<path d="M8.21739 6.06641L13.5 9.00118V8.1713L9.71119 6.06641H8.21739ZM3.78875 6.06641L0 8.1713V9.00118L5.28261 6.06641H3.78875Z" fill="#D80027"/>
<path d="M5.28261 2.93477L0 0V0.82988L3.78881 2.93477H5.28261Z" fill="#0052B4"/>
<path d="M5.28261 2.93477L0 0V0.82988L3.78881 2.93477H5.28261Z" fill="white"/>
<path d="M5.28261 2.93477L0 0V0.82988L3.78881 2.93477H5.28261ZM9.71125 2.93477L13.5 0.82988V0L8.21739 2.93477H9.71125Z" fill="#D80027"/>
</g>
<rect x="0.5" y="0.5" width="26" height="17" rx="0.5" stroke="black" stroke-opacity="0.2"/>
<defs>
<clipPath id="clip0_109_43714">
<rect width="27" height="18" rx="1" fill="white"/>
</clipPath>
</defs>
</svg>
