<svg width="136" height="136" viewBox="0 0 136 136" fill="none" xmlns="http://www.w3.org/2000/svg">
<path fill-rule="evenodd" clip-rule="evenodd" d="M121.744 26.0239V77.3898C121.744 78.7031 120.68 79.7678 119.366 79.7678H83.2201C81.9067 79.7678 80.842 78.7031 80.842 77.3898V26.0239C80.842 25.6857 80.9126 25.364 81.0399 25.0727H77.9884C76.9377 25.0727 76.0859 24.2209 76.0859 23.1703V18.4142C76.0859 17.3635 76.9377 16.5117 77.9884 16.5117H124.598C125.649 16.5117 126.501 17.3635 126.501 18.4142V23.1703C126.501 24.2209 125.649 25.0727 124.598 25.0727H121.547C121.674 25.364 121.744 25.6857 121.744 26.0239Z" fill="white"/>
<path d="M82.2695 26.4991C82.2695 25.7111 82.9083 25.0723 83.6964 25.0723H118.891C119.679 25.0723 120.318 25.7111 120.318 26.4991V39.3406C120.318 40.1286 119.679 40.7674 118.891 40.7674H83.6964C82.9083 40.7674 82.2695 40.1286 82.2695 39.3406V26.4991Z" fill="#EAEAEA"/>
<path fill-rule="evenodd" clip-rule="evenodd" d="M84.172 26.9747V76.4381H118.416V26.9747H84.172ZM83.2208 25.0723C82.6954 25.0723 82.2695 25.4981 82.2695 26.0235V77.3893C82.2695 77.9147 82.6954 78.3406 83.2207 78.3406H119.367C119.892 78.3406 120.318 77.9147 120.318 77.3893V26.0235C120.318 25.4981 119.892 25.0723 119.367 25.0723H83.2208Z" fill="#292929"/>
<path d="M77.5117 18.4151C77.5117 18.1524 77.7247 17.9395 77.9873 17.9395H124.597C124.86 17.9395 125.073 18.1524 125.073 18.4151V23.1712C125.073 23.4338 124.86 23.6468 124.597 23.6468H77.9873C77.7247 23.6468 77.5117 23.4338 77.5117 23.1712V18.4151Z" fill="#FFBC0D"/>
<path d="M84.1719 36.4883H118.416V42.1956H84.1719V36.4883Z" fill="#292929"/>
<path d="M100.344 40.7676H102.246V76.4383H100.344V40.7676Z" fill="#292929"/>
<path d="M130.306 118.531C130.306 121.289 102.518 123.525 68.2389 123.525C33.9603 123.525 6.17188 121.289 6.17188 118.531C6.17188 115.773 33.9603 113.537 68.2389 113.537C102.518 113.537 130.306 115.773 130.306 118.531Z" fill="#A0A09F" fill-opacity="0.15"/>
<path fill-rule="evenodd" clip-rule="evenodd" d="M23.6362 67.3062L23.6511 67.2874C24.3683 66.3769 24.8832 65.7214 25.1956 65.2502C25.1998 65.2438 25.204 65.2374 25.2081 65.2311C24.8252 64.6086 24.4682 63.8901 24.1762 63.2521C23.31 61.3593 24.7654 59.3919 26.6932 59.3847C28.112 59.3793 29.688 59.3694 31.3804 59.3589L31.5199 59.358C43.6351 59.2823 61.7905 59.1688 69.9584 60.4469C72.3685 60.824 75.0603 61.9227 77.7642 63.3784C80.4854 64.8433 83.3021 66.7156 85.9775 68.7162C91.2929 72.6908 96.1623 77.2561 98.715 80.3163C99.4264 80.4895 100.603 80.6496 102.251 80.8701L102.274 80.8732C105.489 81.3035 110.11 81.922 114.957 83.3124C120.801 84.9889 123.95 89.0187 125.605 93.0501C127.243 97.0386 127.452 101.087 127.452 103.073V106.473C127.452 108.798 125.567 110.683 123.243 110.683H119.574C117.693 116.214 112.457 120.195 106.288 120.195C100.118 120.195 94.8816 116.214 93.0009 110.683H43.9523C42.0716 116.214 36.835 120.195 30.6656 120.195C24.4961 120.195 19.2596 116.214 17.3789 110.683H14.1862C11.8613 110.683 9.97656 108.798 9.97656 106.473V103.073C9.97656 84.6456 19.4204 72.6577 23.6362 67.3062Z" fill="white"/>
<path fill-rule="evenodd" clip-rule="evenodd" d="M44.3533 103.073H92.5977C94.0057 96.8119 99.5999 92.1344 106.286 92.1344C112.973 92.1344 118.567 96.8119 119.975 103.073H126.024C126.024 99.2568 125.206 87.7377 114.562 84.6845C109.816 83.323 105.28 82.7158 102.06 82.2849L102.06 82.2849C100.386 82.0608 99.0679 81.8844 98.2616 81.6743C98.0143 81.6099 97.8108 81.4623 97.6474 81.2658C92.7397 75.3625 78.4578 63.2217 69.7368 61.8571C61.6832 60.597 43.5751 60.7101 31.3883 60.7862C29.6963 60.7968 28.1185 60.8067 26.6975 60.812C25.7293 60.8157 25.0697 61.7785 25.4726 62.6589C25.8561 63.497 26.3146 64.3846 26.7535 64.9798C27.0103 65.3281 26.1716 66.3928 24.7709 68.1709C20.5899 73.4782 11.4024 85.1408 11.4024 103.073H16.9758C18.3838 96.8119 23.9779 92.1344 30.6645 92.1344C37.3512 92.1344 42.9453 96.8119 44.3533 103.073ZM51.9388 67.0863L53.1163 82.2894C53.1724 83.0141 53.7767 83.5734 54.5035 83.5734H89.876C91.0357 83.5734 91.6855 82.2378 90.9586 81.3341C82.5918 70.9325 75.1817 64.6297 53.2597 65.5979C52.4809 65.6323 51.8786 66.309 51.9388 67.0863ZM43.6323 83.0676L25.2447 82.7061C24.4438 82.6903 23.8175 82.0013 23.9335 81.2087C25.0837 73.3458 30.1401 68.3203 32.7432 67.0076C34.8496 65.9454 40.1686 65.938 42.5746 65.9943C43.2724 66.0106 43.8319 66.5554 43.8882 67.2511L45.0465 81.5642C45.113 82.3851 44.4557 83.0838 43.6323 83.0676ZM120.317 106.165C120.317 107.227 120.199 108.262 119.975 109.256H120.173C123.405 109.256 126.024 106.637 126.024 103.405V103.073H119.975C120.199 104.068 120.317 105.103 120.317 106.165ZM44.3533 109.256H92.5977C92.374 108.262 92.256 107.227 92.256 106.165C92.256 105.103 92.374 104.068 92.5977 103.073H44.3533C44.577 104.068 44.695 105.103 44.695 106.165C44.695 107.227 44.577 108.262 44.3533 109.256ZM16.9743 109.25C13.8724 109.104 11.4023 106.543 11.4023 103.405V103.073H16.9757C16.7521 104.068 16.634 105.103 16.634 106.165C16.634 107.225 16.7515 108.257 16.9743 109.25Z" fill="#D90007"/>
<path d="M51.8281 92.1349C51.8281 90.5589 53.1058 89.2812 54.6818 89.2812H68.4745C68.4745 90.8573 67.1968 92.1349 65.6208 92.1349H51.8281Z" fill="white"/>
<path fill-rule="evenodd" clip-rule="evenodd" d="M121.101 93.4648C121.465 93.5377 121.731 93.136 121.545 92.7959C120.543 90.9661 117.997 86.9083 116.332 89.4579C114.733 91.9038 119.152 93.0771 121.101 93.4648Z" fill="white"/>
<path d="M60.5056 68.3535C57.6728 68.3535 55.4375 70.8339 55.6463 73.7443L55.873 76.9004C55.873 79.7978 58.1521 82.1462 60.9633 82.1462C63.7753 82.1462 66.0544 79.7978 66.0544 76.9004L66.6675 68.3535H60.5056Z" fill="#D90007"/>
<path d="M43.2698 106.164C43.2698 113.125 37.627 118.768 30.6662 118.768C23.7054 118.768 18.0625 113.125 18.0625 106.164C18.0625 99.2034 23.7054 93.5605 30.6662 93.5605C37.627 93.5605 43.2698 99.2034 43.2698 106.164Z" fill="#292929"/>
<path d="M36.1343 106.165C36.1343 109.186 33.6856 111.634 30.6648 111.634C27.6441 111.634 25.1953 109.186 25.1953 106.165C25.1953 103.144 27.6441 100.695 30.6648 100.695C33.6856 100.695 36.1343 103.144 36.1343 106.165Z" fill="white"/>
<path d="M118.891 106.164C118.891 113.125 113.248 118.768 106.287 118.768C99.3264 118.768 93.6836 113.125 93.6836 106.164C93.6836 99.2034 99.3264 93.5605 106.287 93.5605C113.248 93.5605 118.891 99.2034 118.891 106.164Z" fill="#292929"/>
<path d="M111.755 106.165C111.755 109.186 109.307 111.634 106.286 111.634C103.265 111.634 100.816 109.186 100.816 106.165C100.816 103.144 103.265 100.695 106.286 100.695C109.307 100.695 111.755 103.144 111.755 106.165Z" fill="white"/>
</svg>
