<svg width="139" height="139" viewBox="0 0 139 139" fill="none" xmlns="http://www.w3.org/2000/svg">
<path fill-rule="evenodd" clip-rule="evenodd" d="M69.3574 0C31.0522 0 0 31.0525 0 69.3574C0 107.663 31.0522 138.714 69.3574 138.714C107.663 138.714 138.715 107.663 138.715 69.3574C138.715 31.0525 107.663 0 69.3574 0Z" fill="#DB0007"/>
<path fill-rule="evenodd" clip-rule="evenodd" d="M40.5419 92.3828C37.3428 92.3828 34.75 94.9759 34.75 98.1745C34.75 101.373 37.3428 103.966 40.5419 103.966C43.7409 103.966 46.3333 101.373 46.3333 98.1745C46.3333 94.9759 43.7409 92.3828 40.5419 92.3828ZM40.5419 94.1014C42.7877 94.1014 44.6147 95.9287 44.6147 98.1745C44.6147 99.2626 44.1911 100.285 43.4221 101.055C42.6528 101.824 41.6296 102.247 40.5419 102.247C38.296 102.247 36.4686 100.42 36.4686 98.1745C36.4686 97.0868 36.8922 96.0636 37.6616 95.2947C38.4309 94.525 39.4541 94.1014 40.5419 94.1014Z" fill="white"/>
<path fill-rule="evenodd" clip-rule="evenodd" d="M104.251 98.1745C104.251 101.373 101.658 103.966 98.4592 103.966C95.2611 103.966 92.668 101.373 92.668 98.1745C92.668 94.9755 95.2611 92.3828 98.4592 92.3828C101.658 92.3828 104.251 94.9755 104.251 98.1745Z" fill="white"/>
<circle cx="89.7708" cy="106.861" r="2.89583" fill="white"/>
<circle cx="81.6615" cy="109.005" r="2.89583" fill="white"/>
<circle cx="73.5521" cy="109.759" r="2.89583" fill="white"/>
<circle cx="65.4466" cy="109.759" r="2.89583" fill="white"/>
<circle cx="57.3372" cy="109.005" r="2.89583" fill="white"/>
<circle cx="49.2279" cy="106.861" r="2.89583" fill="white"/>
<path fill-rule="evenodd" clip-rule="evenodd" d="M84.7033 32.8084C90.7007 32.8084 95.5619 56.8867 95.5619 86.5885H104.25C104.25 54.6017 95.4987 28.6719 84.7033 28.6719C78.5631 28.6719 73.0844 36.4648 69.5005 48.6513C65.9185 36.4648 60.438 28.6719 54.2974 28.6719C43.5031 28.6719 34.75 54.6017 34.75 86.5885H43.4388C43.4388 56.8867 48.3014 32.8084 54.2974 32.8084C60.2951 32.8084 65.1578 55.0356 65.1578 82.4521H73.8433C73.8433 55.0356 78.7074 32.8084 84.7033 32.8084Z" fill="#FFBC0D"/>
</svg>
