<svg width="27" height="18" viewBox="0 0 27 18" fill="none" xmlns="http://www.w3.org/2000/svg">
<g clip-path="url(#clip0_109_43704)">
<path d="M0 0H27V17.9996H0V0Z" fill="#338AF3"/>
<path d="M27 0V8.79029L0 9.00919V0H27Z" fill="white"/>
<path d="M17.0721 6.21094L13.4997 9.78338L9.92722 6.21094C9.44923 6.91943 9.19432 7.75481 9.19532 8.60946V9.78338C9.19532 11.6683 10.4133 13.274 12.1035 13.8552C11.878 14.2973 11.916 14.8491 12.2465 15.2616L13.5258 14.2365L14.805 15.2616C15.1394 14.8442 15.1747 14.2843 14.9402 13.8395C16.6073 13.2457 17.8041 11.6518 17.8041 9.78338V8.60946C17.805 7.7548 17.5501 6.91944 17.0721 6.21094Z" fill="#6DA544"/>
<path d="M13.5015 12.9114C11.7754 12.9114 10.3711 11.5071 10.3711 9.78095V8.60703C10.3711 6.88088 11.7754 5.47656 13.5015 5.47656C15.2276 5.47656 16.6319 6.88088 16.6319 8.60698V9.7809C16.6319 11.5071 15.2276 12.9114 13.5015 12.9114Z" fill="#FFDA44"/>
<path d="M15.456 9.78277V8.60885C15.456 7.53 14.5783 6.65234 13.4995 6.65234C12.4206 6.65234 11.543 7.53 11.543 8.60885V9.78277L13.4995 10.1741L15.456 9.78277Z" fill="#338AF3"/>
<path d="M11.543 9.78125C11.543 10.8601 12.4206 11.7377 13.4995 11.7377C14.5783 11.7377 15.456 10.8601 15.456 9.78125H11.543Z" fill="#6DA544"/>
<path d="M15.848 5.47747C15.848 4.8291 15.3224 4.30354 14.674 4.30354C14.3852 4.30316 14.1064 4.40971 13.8915 4.60265V3.9122H14.2828V3.12962H13.8915V2.73828H13.1089V3.12962H12.7176V3.9122H13.1089V4.60265C12.8939 4.40972 12.6151 4.30317 12.3263 4.30354C11.6779 4.30354 11.1523 4.8291 11.1523 5.47747C11.1523 5.82504 11.3035 6.13728 11.5437 6.35228V7.04273H15.4567V6.35228C15.6968 6.13728 15.848 5.82509 15.848 5.47747Z" fill="#FFDA44"/>
</g>
<rect x="0.5" y="0.5" width="26" height="17" rx="0.5" stroke="black" stroke-opacity="0.2"/>
<defs>
<clipPath id="clip0_109_43704">
<rect width="27" height="18" rx="1" fill="white"/>
</clipPath>
</defs>
</svg>
