<svg width="27" height="18" viewBox="0 0 27 18" fill="none" xmlns="http://www.w3.org/2000/svg">
<g clip-path="url(#clip0_109_43779)">
<path d="M0.960938 0H26.1609V18H0.960938V0Z" fill="white"/>
<path d="M11.76 7.2H0V10.8H11.76V18H15.36V10.8H27.12V7.2H15.36V0H11.76V7.2Z" fill="#EB000E"/>
<path d="M20.7581 3.24078L20.5181 1.80078H21.7181L21.4781 3.24078L22.9181 3.00078V4.20078L21.4781 3.96078L21.7181 5.40079H20.5181L20.7581 3.96078L19.3181 4.20078V3.00078L20.7581 3.24078ZM5.51812 3.24078L5.27812 1.80078H6.47812L6.23812 3.24078L7.67812 3.00078V4.20078L6.23812 3.96078L6.47812 5.40079H5.27812L5.51812 3.96078L4.07812 4.20078V3.00078L5.51812 3.24078ZM5.51812 14.0408L5.27812 12.6008H6.47812L6.23812 14.0408L7.67812 13.8008V15.0008L6.23812 14.7608L6.47812 16.2008H5.27812L5.51812 14.7608L4.07812 15.0008V13.8008L5.51812 14.0408ZM20.7581 14.0408L20.5181 12.6008H21.7181L21.4781 14.0408L22.9181 13.8008V15.0008L21.4781 14.7608L21.7181 16.2008H20.5181L20.7581 14.7608L19.3181 15.0008V13.8008L20.7581 14.0408Z" fill="#EB000E"/>
</g>
<rect x="0.5" y="0.5" width="26" height="17" rx="0.5" stroke="black" stroke-opacity="0.2"/>
<defs>
<clipPath id="clip0_109_43779">
<rect width="27" height="18" rx="1" fill="white"/>
</clipPath>
</defs>
</svg>
