<svg width="27" height="18" viewBox="0 0 27 18" fill="none" xmlns="http://www.w3.org/2000/svg">
<g clip-path="url(#clip0_109_43848)">
<path d="M0 0H27V18H0V0Z" fill="white"/>
<path d="M0 0H27V1.28421H0V0ZM0 2.57368H27V3.85789H0V2.57368ZM0 5.1421H27V6.42632H0V5.1421ZM0 7.71579H27V9H0V7.71579ZM0 10.2842H27V11.5684H0V10.2842ZM0 12.8579H27V14.1421H0V12.8579ZM0 15.4263H27V16.7105H0V15.4263Z" fill="#CC0000"/>
<path d="M0 0H13.5V10.2842H0V0Z" fill="#000066"/>
<path d="M8.06857 2.21554C6.45278 1.61554 4.65804 2.4366 4.05804 4.05239C3.45804 5.66817 4.2791 7.46291 5.89489 8.06291C6.59489 8.32607 7.36857 8.32607 8.07383 8.06291C6.45804 9.35239 4.10541 9.09449 2.81067 7.4787C1.51594 5.86291 1.77909 3.51028 3.39488 2.21554C4.76331 1.12607 6.70541 1.12607 8.06857 2.21554ZM9.47383 6.16291L8.38962 7.38923L8.67383 5.7787L7.04225 5.69449L8.4791 4.91028L7.52646 3.5787L9.03173 4.21028L9.47383 2.6366L9.91594 4.21028L11.4212 3.5787L10.4738 4.91554L11.9107 5.69975L10.2791 5.78396L10.5633 7.39449L9.47383 6.16291Z" fill="#FFCC00"/>
</g>
<rect x="0.5" y="0.5" width="26" height="17" rx="0.5" stroke="black" stroke-opacity="0.2"/>
<defs>
<clipPath id="clip0_109_43848">
<rect width="27" height="18" rx="1" fill="white"/>
</clipPath>
</defs>
</svg>
