<svg width="136" height="136" viewBox="0 0 136 136" fill="none" xmlns="http://www.w3.org/2000/svg">
<g clip-path="url(#clip0_17_28687)">
<path fill-rule="evenodd" clip-rule="evenodd" d="M79.2222 62.9899C82.8144 62.9899 85.7255 78.9683 85.7255 98.6796L90.9332 98.6796C90.9332 77.4543 85.6875 60.2461 79.2222 60.2461C75.5445 60.2461 72.2596 65.4162 70.115 73.504C67.9673 65.4162 64.6856 60.2461 61.0079 60.2461C54.5394 60.2461 49.2969 77.4543 49.2969 98.6796L54.5014 98.6796C54.5014 78.9683 57.4157 62.9899 61.0079 62.9899C64.6001 62.9899 67.5144 77.7417 67.5144 95.9325L72.7189 95.9325C72.7189 77.7417 75.63 62.9899 79.2222 62.9899Z" fill="#D8D8D8"/>
<path fill-rule="evenodd" clip-rule="evenodd" d="M100.323 99.7909C103.459 94.6093 105.263 88.5325 105.263 82.0342C105.263 63.0632 89.884 47.6841 70.913 47.6841C51.942 47.6841 36.563 63.0632 36.563 82.0342C36.563 88.5325 38.3674 94.6093 41.5026 99.7909L36.1422 99.7909C33.4165 94.4642 31.8789 88.4288 31.8789 82.0342C31.8789 60.4762 49.3551 43 70.913 43C92.4709 43 109.947 60.4762 109.947 82.0342C109.947 88.4288 108.409 94.4642 105.684 99.7909L100.323 99.7909Z" fill="#D8D8D8"/>
<path fill-rule="evenodd" clip-rule="evenodd" d="M117.755 100.923L21 100.923L21 95.6816L117.755 95.6816L117.755 100.923Z" fill="#D8D8D8"/>
</g>
<defs>
<clipPath id="clip0_17_28687">
<rect width="136" height="136" fill="white"/>
</clipPath>
</defs>
</svg>
