<svg width="136" height="136" viewBox="0 0 136 136" fill="none" xmlns="http://www.w3.org/2000/svg">
<path fill-rule="evenodd" clip-rule="evenodd" d="M33 20.0185C33 19.456 33.456 19 34.0185 19H102.257C102.82 19 103.276 19.456 103.276 20.0185V101.498C103.276 102.06 102.82 102.516 102.257 102.516H68.1379H34.0185C33.456 102.516 33 102.06 33 101.498V20.0185ZM40 38C40 39.1046 39.1046 40 38 40C36.8954 40 36 39.1046 36 38C36 36.8954 36.8954 36 38 36C39.1046 36 40 36.8954 40 38ZM38 48C39.1046 48 40 47.1046 40 46C40 44.8954 39.1046 44 38 44C36.8954 44 36 44.8954 36 46C36 47.1046 36.8954 48 38 48ZM40 78C40 79.1046 39.1046 80 38 80C36.8954 80 36 79.1046 36 78C36 76.8954 36.8954 76 38 76C39.1046 76 40 76.8954 40 78ZM38 87C39.1046 87 40 86.1046 40 85C40 83.8954 39.1046 83 38 83C36.8954 83 36 83.8954 36 85C36 86.1046 36.8954 87 38 87Z" fill="#F1F1F1"/>
<path d="M45.6953 46.4805C45.6953 45.9282 46.143 45.4805 46.6953 45.4805H88.4904C89.0427 45.4805 89.4904 45.9282 89.4904 46.4805V47.5359C89.4904 48.0882 89.0427 48.5359 88.4904 48.5359H46.6953C46.143 48.5359 45.6953 48.0882 45.6953 47.5359V46.4805Z" fill="#A0A09F"/>
<path d="M45.6953 28.6563C45.6953 28.104 46.143 27.6562 46.6953 27.6562H74.2315C74.7838 27.6562 75.2315 28.104 75.2315 28.6562V29.7117C75.2315 30.264 74.7838 30.7117 74.2315 30.7117H46.6953C46.143 30.7117 45.6953 30.264 45.6953 29.7117V28.6563Z" fill="#A0A09F"/>
<path d="M45.6953 51.5723C45.6953 51.02 46.143 50.5723 46.6953 50.5723H88.4904C89.0427 50.5723 89.4904 51.02 89.4904 51.5723V52.6277C89.4904 53.18 89.0427 53.6277 88.4904 53.6277H46.6953C46.143 53.6277 45.6953 53.18 45.6953 52.6277V51.5723Z" fill="#A0A09F"/>
<path d="M45.6953 63.2852C45.6953 62.7329 46.143 62.2852 46.6953 62.2852H79.324C79.8763 62.2852 80.324 62.7329 80.324 63.2852V64.3406C80.324 64.8929 79.8763 65.3406 79.324 65.3406H46.6953C46.143 65.3406 45.6953 64.8929 45.6953 64.3406V63.2852Z" fill="#A0A09F"/>
<path d="M45.6953 82.127C45.6953 81.5747 46.143 81.127 46.6953 81.127H79.324C79.8763 81.127 80.324 81.5747 80.324 82.127V83.1824C80.324 83.7347 79.8763 84.1824 79.324 84.1824H46.6953C46.143 84.1824 45.6953 83.7347 45.6953 83.1824V82.127Z" fill="#A0A09F"/>
<path d="M45.6953 68.8867C45.6953 68.3344 46.143 67.8867 46.6953 67.8867H85.9442C86.4964 67.8867 86.9442 68.3344 86.9442 68.8867V69.9422C86.9442 70.4945 86.4964 70.9422 85.9442 70.9422H46.6953C46.143 70.9422 45.6953 70.4945 45.6953 69.9422V68.8867Z" fill="#A0A09F"/>
<path d="M45.6953 87.7285C45.6953 87.1762 46.143 86.7285 46.6953 86.7285H65.5744C66.1266 86.7285 66.5744 87.1762 66.5744 87.7285V88.784C66.5744 89.3363 66.1266 89.784 65.5744 89.784H46.6953C46.143 89.784 45.6953 89.3363 45.6953 88.784V87.7285Z" fill="#A0A09F"/>
<path d="M45.6953 33.2402C45.6953 32.688 46.143 32.2402 46.6953 32.2402H65.5744C66.1266 32.2402 66.5744 32.6879 66.5744 33.2402V34.2957C66.5744 34.848 66.1266 35.2957 65.5744 35.2957H46.6953C46.143 35.2957 45.6953 34.848 45.6953 34.2957V33.2402Z" fill="#A0A09F"/>
<path d="M115.498 117.282C115.498 119.814 97.0299 121.866 74.2488 121.866C51.4677 121.866 33 119.814 33 117.282C33 114.751 51.4677 112.699 74.2488 112.699C97.0299 112.699 115.498 114.751 115.498 117.282Z" fill="#A0A09F" fill-opacity="0.15"/>
<g opacity="0.4">
<mask id="mask0_17_28621" style="mask-type:alpha" maskUnits="userSpaceOnUse" x="87" y="80" width="26" height="26">
<path d="M113 93C113 100.18 107.18 106 100 106C92.8203 106 87 100.18 87 93C87 85.8203 92.8203 80 100 80C107.18 80 113 85.8203 113 93Z" fill="#A0A09F" fill-opacity="0.15"/>
</mask>
<g mask="url(#mask0_17_28621)">
<path d="M33 20.0185C33 19.456 33.456 19 34.0185 19H102.257C102.82 19 103.276 19.456 103.276 20.0185V101.498C103.276 102.06 102.82 102.516 102.257 102.516H68.1379H34.0185C33.456 102.516 33 102.06 33 101.498V20.0185Z" fill="#292929"/>
</g>
</g>
<path d="M112 92C112 98.6274 106.627 104 100 104C93.3726 104 88 98.6274 88 92C88 85.3726 93.3726 80 100 80C106.627 80 112 85.3726 112 92Z" fill="#FFBC0D"/>
<path d="M102.779 90.5283V92.4512L99.2429 91.4245C98.3846 91.1747 97.7219 90.9031 97.2548 90.6098C96.7876 90.3164 96.4617 89.9796 96.277 89.5994C96.0923 89.2083 96 88.7629 96 88.2632C96 87.4049 96.3259 86.7259 96.9778 86.2262C97.6296 85.7264 98.5313 85.4766 99.6829 85.4766C100.834 85.4766 101.742 85.7156 102.404 86.1936C103.067 86.6716 103.447 87.356 103.545 88.2469H100.954C100.91 87.8014 100.753 87.4972 100.481 87.3343C100.21 87.1605 99.9327 87.0736 99.6503 87.0736C99.2918 87.0736 99.0202 87.1713 98.8355 87.3669C98.6508 87.5516 98.5584 87.8069 98.5584 88.1328C98.5584 88.4478 98.6345 88.7194 98.7866 88.9476C98.9495 89.1757 99.2537 89.3658 99.6992 89.5179L102.779 90.5283ZM96.7659 93.38V91.4571L100.302 92.4838C101.149 92.7336 101.807 93.0107 102.274 93.3149C102.752 93.6082 103.083 93.945 103.268 94.3252C103.453 94.7054 103.545 95.1454 103.545 95.6452C103.545 96.5143 103.219 97.1933 102.567 97.6821C101.915 98.1819 101.014 98.4318 99.8621 98.4318C98.6997 98.4318 97.7871 98.1927 97.1244 97.7147C96.4726 97.2367 96.0978 96.5523 96 95.6615H98.591C98.6345 96.1069 98.792 96.4165 99.0636 96.5903C99.3461 96.7533 99.6231 96.8348 99.8947 96.8348C100.253 96.8348 100.525 96.7424 100.709 96.5577C100.894 96.3622 100.987 96.1069 100.987 95.7918C100.987 95.4768 100.905 95.1997 100.742 94.9607C100.579 94.7217 100.28 94.5316 99.8458 94.3904L96.7659 93.38Z" fill="white"/>
<path fill-rule="evenodd" clip-rule="evenodd" d="M31 20.0185C31 18.3514 32.3514 17 34.0185 17H102.257C103.924 17 105.276 18.3514 105.276 20.0185V79.0288C110.392 81.1117 114 86.1323 114 92C114 99.732 107.732 106 100 106C97.7461 106 95.6118 105.466 93.7216 104.516H34.0185C32.3514 104.516 31 103.165 31 101.498V20.0185ZM94.2152 102.516C95.9308 103.462 97.9025 104 100 104C106.627 104 112 98.6274 112 92C112 86.5083 108.311 81.8782 103.276 80.4526V20.0185C103.276 19.456 102.82 19 102.257 19H34.0185C33.456 19 33 19.456 33 20.0185V101.498C33 102.06 33.456 102.516 34.0185 102.516H94.2152ZM38 40C39.1046 40 40 39.1046 40 38C40 36.8954 39.1046 36 38 36C36.8954 36 36 36.8954 36 38C36 39.1046 36.8954 40 38 40ZM40 46C40 47.1046 39.1046 48 38 48C36.8954 48 36 47.1046 36 46C36 44.8954 36.8954 44 38 44C39.1046 44 40 44.8954 40 46ZM38 80C39.1046 80 40 79.1046 40 78C40 76.8954 39.1046 76 38 76C36.8954 76 36 76.8954 36 78C36 79.1046 36.8954 80 38 80ZM40 85C40 86.1046 39.1046 87 38 87C36.8954 87 36 86.1046 36 85C36 83.8954 36.8954 83 38 83C39.1046 83 40 83.8954 40 85Z" fill="white"/>
</svg>
