<svg width="375" height="225" viewBox="0 0 375 225" fill="none" xmlns="http://www.w3.org/2000/svg">
<ellipse cx="184" cy="183" rx="153" ry="14" fill="#A0A09F" fill-opacity="0.15"/>
<mask id="path-2-outside-1_17_28632" maskUnits="userSpaceOnUse" x="51" y="51.5254" width="272" height="137" fill="black">
<rect fill="white" x="51" y="51.5254" width="272" height="137"/>
<path d="M260.475 183H195V183.001H140.173C137.842 184.961 134.061 185.441 129.736 185.495L128.815 185.501C124.109 185.501 119.954 185.099 117.459 183.001H110.173C109.815 183.302 109.423 183.566 109 183.801V184.001H108.616C106.316 185.133 103.201 185.451 99.7363 185.495L98.8154 185.501C94.9816 185.501 91.5127 185.234 89.0098 184.001H77.6162C75.3156 185.133 72.201 185.451 68.7363 185.495L67.8154 185.501C63.9816 185.501 60.5127 185.234 58.0098 184.001H58V183.995C55.5276 182.774 54 180.607 54 176.816C54 173.025 55.5275 169.591 58 167.095V105.801C58 104.807 58.8058 104.001 59.7998 104.001H194.528L194.502 54.5254H260.502L260.475 183ZM318.213 69.002C319.2 69.0022 320 69.8079 320 70.8018V77.2002C320 78.194 319.2 79.0007 318.213 79.001L316 79V183.001H264V104.001L264.003 88.001H264L264.002 79.001H264.005V78.999H264L264.002 69.001L318.213 69.002ZM190.974 77.001H191L190.993 79.001H191L190.97 88.001H190.965L190.926 100.001H77V79L73.8008 79.001C72.8065 79.001 72 78.1942 72 77.2002V70.8018C72 69.8077 72.8065 69.002 73.8008 69.002L191 69.001L190.974 77.001Z"/>
</mask>
<path d="M260.475 183V186H263.474L263.475 183.001L260.475 183ZM195 183V180H192V183H195ZM195 183.001V186.001H198V183.001H195ZM140.173 183.001V180.001H139.079L138.242 180.705L140.173 183.001ZM129.736 185.495L129.755 188.495L129.765 188.495L129.774 188.495L129.736 185.495ZM128.815 185.501L128.815 188.501H128.825L128.835 188.501L128.815 185.501ZM117.459 183.001L119.39 180.705L118.553 180.001H117.459V183.001ZM110.173 183.001V180.001H109.079L108.242 180.705L110.173 183.001ZM109 183.801L107.543 181.178L106 182.036V183.801H109ZM109 184.001V187.001H112V184.001H109ZM108.616 184.001V181.001H107.918L107.292 181.309L108.616 184.001ZM99.7363 185.495L99.7554 188.495L99.7648 188.495L99.7741 188.495L99.7363 185.495ZM98.8154 185.501L98.8154 188.501H98.825L98.8345 188.501L98.8154 185.501ZM89.0098 184.001L90.3353 181.31L89.7085 181.001H89.0098V184.001ZM77.6162 184.001V181.001H76.9184L76.2922 181.309L77.6162 184.001ZM68.7363 185.495L68.7554 188.495L68.7648 188.495L68.7741 188.495L68.7363 185.495ZM67.8154 185.501L67.8154 188.501H67.825L67.8345 188.501L67.8154 185.501ZM58.0098 184.001L59.3353 181.31L58.7085 181.001H58.0098V184.001ZM58 184.001H55V187.001H58V184.001ZM58 183.995H61V182.131L59.3289 181.306L58 183.995ZM54 176.816H51V176.816L54 176.816ZM58 167.095L60.1315 169.206L61 168.329V167.095H58ZM59.7998 104.001V101.001H59.7995L59.7998 104.001ZM194.528 104.001V107.001H197.53L197.528 103.999L194.528 104.001ZM194.502 54.5254V51.5254H191.5L191.502 54.527L194.502 54.5254ZM260.502 54.5254L263.502 54.526L263.503 51.5254H260.502V54.5254ZM318.213 69.002L318.214 66.002H318.213L318.213 69.002ZM318.213 79.001L318.212 82.001H318.214L318.213 79.001ZM316 79L316.001 76L313 75.9987V79H316ZM316 183.001V186.001H319V183.001H316ZM264 183.001H261V186.001H264V183.001ZM264 104.001L261 104V104.001H264ZM264.003 88.001L267.003 88.0015L267.003 85.001H264.003V88.001ZM264 88.001L261 88.0003L260.999 91.001H264V88.001ZM264.002 79.001V76.001H261.003L261.002 79.0003L264.002 79.001ZM264.005 79.001V82.001H267.005V79.001H264.005ZM264.005 78.999H267.005V75.999H264.005V78.999ZM264 78.999L261 78.9984L260.999 81.999H264V78.999ZM264.002 69.001L264.002 66.001L261.003 66.0009L261.002 69.0004L264.002 69.001ZM190.974 77.001L187.974 76.9911L187.964 80.001H190.974V77.001ZM191 77.001L194 77.0112L194.01 74.001H191V77.001ZM190.993 79.001L187.993 78.9907L187.983 82.001H190.993V79.001ZM191 79.001L194 79.0111L194.01 76.001H191V79.001ZM190.97 88.001V91.001H193.96L193.97 88.0111L190.97 88.001ZM190.965 88.001V85.001H187.975L187.965 87.9912L190.965 88.001ZM190.926 100.001V103.001H193.916L193.926 100.011L190.926 100.001ZM77 100.001H74V103.001H77V100.001ZM77 79H80V75.9991L76.9991 76L77 79ZM73.8008 79.001V82.001H73.8017L73.8008 79.001ZM73.8008 69.002V72.002H73.8008L73.8008 69.002ZM191 69.001L194 69.0109L194.01 66.001L191 66.001L191 69.001ZM260.475 183V180H195V183V186H260.475V183ZM195 183H192V183.001H195H198V183H195ZM195 183.001V180.001H140.173V183.001V186.001H195V183.001ZM140.173 183.001L138.242 180.705C137.592 181.251 136.591 181.712 135.088 182.026C133.59 182.34 131.787 182.469 129.699 182.495L129.736 185.495L129.774 188.495C132.011 188.467 134.261 188.329 136.317 187.899C138.368 187.47 140.423 186.71 142.104 185.297L140.173 183.001ZM129.736 185.495L129.717 182.495L128.796 182.501L128.815 185.501L128.835 188.501L129.755 188.495L129.736 185.495ZM128.815 185.501L128.815 182.501C126.518 182.501 124.523 182.4 122.86 182.089C121.187 181.776 120.088 181.292 119.39 180.705L117.459 183.001L115.528 185.297C117.325 186.808 119.551 187.574 121.756 187.986C123.971 188.401 126.406 188.501 128.815 188.501L128.815 185.501ZM117.459 183.001V180.001H110.173V183.001V186.001H117.459V183.001ZM110.173 183.001L108.242 180.705C108.05 180.867 107.82 181.024 107.543 181.178L109 183.801L110.457 186.423C111.025 186.107 111.581 185.737 112.104 185.297L110.173 183.001ZM109 183.801H106V184.001H109H112V183.801H109ZM109 184.001V181.001H108.616V184.001V187.001H109V184.001ZM108.616 184.001L107.292 181.309C105.645 182.119 103.13 182.452 99.6985 182.495L99.7363 185.495L99.7741 188.495C103.273 188.451 106.986 188.146 109.94 186.693L108.616 184.001ZM99.7363 185.495L99.7172 182.495L98.7963 182.501L98.8154 185.501L98.8345 188.501L99.7554 188.495L99.7363 185.495ZM98.8154 185.501L98.8154 182.501C94.9636 182.501 92.1446 182.201 90.3353 181.31L89.0098 184.001L87.6842 186.692C90.8809 188.267 94.9995 188.501 98.8154 188.501L98.8154 185.501ZM89.0098 184.001V181.001H77.6162V184.001V187.001H89.0098V184.001ZM77.6162 184.001L76.2922 181.309C74.6453 182.119 72.1296 182.452 68.6985 182.495L68.7363 185.495L68.7741 188.495C72.2725 188.451 75.9859 188.146 78.9402 186.693L77.6162 184.001ZM68.7363 185.495L68.7172 182.495L67.7963 182.501L67.8154 185.501L67.8345 188.501L68.7554 188.495L68.7363 185.495ZM67.8154 185.501L67.8154 182.501C63.9636 182.501 61.1446 182.201 59.3353 181.31L58.0098 184.001L56.6842 186.692C59.8809 188.267 63.9995 188.501 67.8154 188.501L67.8154 185.501ZM58.0098 184.001V181.001H58V184.001V187.001H58.0098V184.001ZM58 184.001H61V183.995H58H55V184.001H58ZM58 183.995L59.3289 181.306C58.5221 180.907 58.0014 180.428 57.655 179.842C57.299 179.24 57 178.309 57 176.816L54 176.816L51 176.816C51 179.114 51.4649 181.162 52.4908 182.897C53.5263 184.647 55.0055 185.862 56.6711 186.685L58 183.995ZM54 176.816H57C57 173.848 58.1924 171.164 60.1315 169.206L58 167.095L55.8685 164.984C52.8625 168.019 51 172.203 51 176.816H54ZM58 167.095H61V105.801H58H55V167.095H58ZM58 105.801H61C61 106.464 60.4624 107.001 59.8001 107.001L59.7998 104.001L59.7995 101.001C57.1492 101.001 55 103.15 55 105.801H58ZM59.7998 104.001V107.001H194.528V104.001V101.001H59.7998V104.001ZM194.528 104.001L197.528 103.999L197.502 54.5238L194.502 54.5254L191.502 54.527L191.528 104.003L194.528 104.001ZM194.502 54.5254V57.5254H260.502V54.5254V51.5254H194.502V54.5254ZM260.502 54.5254L257.502 54.5248L257.475 182.999L260.475 183L263.475 183.001L263.502 54.526L260.502 54.5254ZM318.213 69.002L318.212 72.002C317.523 72.0018 317 71.4452 317 70.8018H320H323C323 68.1706 320.876 66.0026 318.214 66.002L318.213 69.002ZM320 70.8018H317V77.2002H320H323V70.8018H320ZM320 77.2002H317C317 76.5589 317.521 76.0012 318.212 76.001L318.213 79.001L318.214 82.001C320.879 82.0003 323 79.8292 323 77.2002H320ZM318.213 79.001L318.214 76.001L316.001 76L316 79L315.999 82L318.212 82.001L318.213 79.001ZM316 79H313V183.001H316H319V79H316ZM316 183.001V180.001H264V183.001V186.001H316V183.001ZM264 183.001H267V104.001H264H261V183.001H264ZM264 104.001L267 104.002L267.003 88.0015L264.003 88.001L261.003 88.0004L261 104L264 104.001ZM264.003 88.001V85.001H264V88.001V91.001H264.003V88.001ZM264 88.001L267 88.0016L267.002 79.0016L264.002 79.001L261.002 79.0003L261 88.0003L264 88.001ZM264.002 79.001V82.001H264.005V79.001V76.001H264.002V79.001ZM264.005 79.001H267.005V78.999H264.005H261.005V79.001H264.005ZM264.005 78.999V75.999H264V78.999V81.999H264.005V78.999ZM264 78.999L267 78.9996L267.002 69.0016L264.002 69.001L261.002 69.0004L261 78.9984L264 78.999ZM264.002 69.001L264.002 72.001L318.213 72.002L318.213 69.002L318.213 66.002L264.002 66.001L264.002 69.001ZM190.974 77.001V80.001H191V77.001V74.001H190.974V77.001ZM191 77.001L188 76.9907L187.993 78.9907L190.993 79.001L193.993 79.0112L194 77.0112L191 77.001ZM190.993 79.001V82.001H191V79.001V76.001H190.993V79.001ZM191 79.001L188 78.9909L187.97 87.9909L190.97 88.001L193.97 88.0111L194 79.0111L191 79.001ZM190.97 88.001V85.001H190.965V88.001V91.001H190.97V88.001ZM190.965 88.001L187.965 87.9912L187.926 99.9912L190.926 100.001L193.926 100.011L193.965 88.0107L190.965 88.001ZM190.926 100.001V97.001H77V100.001V103.001H190.926V100.001ZM77 100.001H80V79H77H74V100.001H77ZM77 79L76.9991 76L73.7999 76.001L73.8008 79.001L73.8017 82.001L77.0009 82L77 79ZM73.8008 79.001V76.001C74.4636 76.001 75 76.5377 75 77.2002H72H69C69 79.8507 71.1493 82.001 73.8008 82.001V79.001ZM72 77.2002H75V70.8018H72H69V77.2002H72ZM72 70.8018H75C75 71.4664 74.4615 72.002 73.8008 72.002V69.002V66.002C71.1514 66.002 69 68.1491 69 70.8018H72ZM73.8008 69.002L73.8008 72.002L191 72.001L191 69.001L191 66.001L73.8008 66.002L73.8008 69.002ZM191 69.001L188 68.9911L187.974 76.9911L190.974 77.001L193.974 77.0109L194 69.0109L191 69.001Z" fill="white" mask="url(#path-2-outside-1_17_28632)"/>
<path d="M315.746 77.4531V104.427H263.797L263.802 77.4531H315.746Z" fill="#FFBC0D"/>
<path d="M190.792 100.431H76.9766V77.4531H190.866L190.792 100.431Z" fill="#FFBC0D"/>
<path d="M190.866 79.4512L190.836 88.4424H76.9766V79.4512H190.866Z" fill="#292929" fill-opacity="0.15"/>
<path d="M315.746 79.4512V88.4424H263.797L263.799 79.4512H315.746Z" fill="#292929" fill-opacity="0.15"/>
<path d="M263.797 104.428H286.775V183.351H263.797V104.428Z" fill="#F9F9F9"/>
<path d="M287.77 104.428H315.742V183.351H287.77V104.428Z" fill="#F9F9F9"/>
<path d="M190.869 69.4609L190.836 79.4502L73.783 79.4512C72.7897 79.4512 71.9844 78.6462 71.9844 77.6532V71.26C71.9844 70.267 72.7897 69.4619 73.783 69.4619L190.869 69.4609Z" fill="#FFBC0D"/>
<path d="M317.957 69.4619C318.943 69.4619 319.742 70.267 319.742 71.26V77.6532C319.742 78.6462 318.943 79.4512 317.957 79.4512L263.797 79.4502L263.799 69.4609L317.957 69.4619Z" fill="#FFBC0D"/>
<path d="M260.303 55L260.276 183.35H194.436L194.367 55L260.303 55Z" fill="#F1F1F1"/>
<path d="M59.7943 104.428H244.258C245.251 104.428 246.056 105.233 246.056 106.226V120.412H57.9961V106.226C57.9961 105.233 58.8012 104.428 59.7943 104.428Z" fill="#6F6F6F"/>
<path d="M194.863 120.41H245.814V183.349H194.863V120.41Z" fill="#D8D8D8"/>
<path d="M108.949 120.41H136.922V183.349H108.949V120.41Z" fill="#F9F9F9"/>
<path d="M137.918 120.41H165.891V183.349H137.918V120.41Z" fill="#F9F9F9"/>
<path d="M166.891 120.41H194.863V183.349H166.891V120.41Z" fill="#F9F9F9"/>
<path d="M217.84 134.398H245.813V183.351H217.84V134.398Z" fill="#F9F9F9"/>
<path d="M57.9961 178.355H108.947V184.35H57.9961V178.355Z" fill="#C2945C"/>
<path d="M57.9961 178.355H108.947V184.35H57.9961V178.355Z" fill="black" fill-opacity="0.15"/>
<path d="M57.9961 172.361H108.947V178.356H57.9961V172.361Z" fill="#C2945C"/>
<path d="M57.9961 167.367H108.947V173.361H57.9961V167.367Z" fill="#C2945C"/>
<path d="M57.9961 167.367H108.947V173.361H57.9961V167.367Z" fill="black" fill-opacity="0.15"/>
<path d="M57.9961 162.369H108.947V168.363H57.9961V162.369Z" fill="#C2945C"/>
<path d="M57.9961 157.375H108.947V163.369H57.9961V157.375Z" fill="#C2945C"/>
<path d="M57.9961 157.375H108.947V163.369H57.9961V157.375Z" fill="black" fill-opacity="0.15"/>
<path d="M57.9961 151.381H108.947V157.375H57.9961V151.381Z" fill="#C2945C"/>
<path d="M57.9961 146.387H108.947V152.381H57.9961V146.387Z" fill="#C2945C"/>
<path d="M57.9961 146.387H108.947V152.381H57.9961V146.387Z" fill="black" fill-opacity="0.15"/>
<path d="M57.9961 141.393H108.947V147.387H57.9961V141.393Z" fill="#C2945C"/>
<path d="M57.9961 136.396H108.947V142.391H57.9961V136.396Z" fill="#C2945C"/>
<path d="M57.9961 136.396H108.947V142.391H57.9961V136.396Z" fill="black" fill-opacity="0.15"/>
<path d="M57.9961 130.402H108.947V136.397H57.9961V130.402Z" fill="#C2945C"/>
<path d="M57.9961 125.406H108.947V131.4H57.9961V125.406Z" fill="#C2945C"/>
<path d="M57.9961 125.406H108.947V131.4H57.9961V125.406Z" fill="black" fill-opacity="0.15"/>
<path d="M57.9961 120.41H108.947V126.404H57.9961V120.41Z" fill="#C2945C"/>
<path d="M135.918 120.41H139.914V183.349H135.918V120.41Z" fill="#D8D8D8"/>
<path d="M285.773 104.428H289.77V183.351H285.773V104.428Z" fill="#D8D8D8"/>
<path d="M311.75 104.428H315.746V183.351H311.75V104.428Z" fill="#D8D8D8"/>
<path d="M164.895 120.41H168.891V183.349H164.895V120.41Z" fill="#D8D8D8"/>
<path d="M217.84 134.398H245.813V140.393H217.84V134.398Z" fill="#A0A09F" fill-opacity="0.15"/>
<path d="M194.863 120.41H245.814V123.407H194.863V120.41Z" fill="#A0A09F" fill-opacity="0.15"/>
<path d="M164.895 120.41H168.891V126.404H164.895V120.41Z" fill="#A0A09F" fill-opacity="0.15"/>
<path d="M135.918 120.41H139.914V126.404H135.918V120.41Z" fill="#A0A09F" fill-opacity="0.15"/>
<path d="M108.949 120.41H135.923V125.405H108.949V120.41Z" fill="#A0A09F" fill-opacity="0.15"/>
<path d="M139.918 120.41H164.894V125.405H139.918V120.41Z" fill="#A0A09F" fill-opacity="0.15"/>
<path d="M168.887 120.41H194.861V125.405H168.887V120.41Z" fill="#A0A09F" fill-opacity="0.15"/>
<path fill-rule="evenodd" clip-rule="evenodd" d="M235.845 67.2586C238.963 67.2586 241.489 80.4026 241.489 96.6158H246.007C246.007 79.1541 241.457 65 235.845 65C232.652 65 229.803 69.2549 227.941 75.9064C226.079 69.2549 223.23 65 220.037 65C214.427 65 209.875 79.1541 209.875 96.6158H214.393C214.393 80.4026 216.921 67.2586 220.037 67.2586C223.155 67.2586 225.683 79.3912 225.683 94.3572H230.2C230.2 79.3912 232.727 67.2586 235.845 67.2586Z" fill="#FFBC0D"/>
<path d="M67.8024 185.849L68.722 185.844C75.9161 185.753 81.6047 184.487 81.6047 177.173C81.6047 169.551 75.4252 163.371 67.8024 163.371C60.1795 163.371 54 169.551 54 177.173C54 184.796 60.1795 185.849 67.8024 185.849Z" fill="#9CC93A"/>
<path d="M98.7711 185.849L99.6908 185.844C106.885 185.753 112.573 184.487 112.573 177.173C112.573 169.551 106.394 163.371 98.7711 163.371C91.1483 163.371 84.9688 169.551 84.9688 177.173C84.9688 184.796 91.1483 185.849 98.7711 185.849Z" fill="#9CC93A"/>
<path d="M128.74 185.849L129.66 185.844C136.854 185.753 142.542 184.487 142.542 177.173C142.542 169.551 136.363 163.371 128.74 163.371C121.117 163.371 114.938 169.551 114.938 177.173C114.938 184.796 121.117 185.849 128.74 185.849Z" fill="#9CC93A"/>
</svg>
