<svg width="375" height="225" viewBox="0 0 375 225" fill="none" xmlns="http://www.w3.org/2000/svg">
<g clip-path="url(#clip0_102_69612)">
<path d="M184.5 4C262.096 4 325 66.904 325 144.5C325 163.443 321.249 181.51 314.453 198H54.5469C47.7506 181.51 44 163.443 44 144.5C44 66.904 106.904 4 184.5 4Z" fill="#DCEDF4"/>
<ellipse cx="184" cy="203" rx="153" ry="14" fill="#A0A09F" fill-opacity="0.15"/>
<path d="M316 97V124H264L264.005 97H316Z" fill="#FFBC0D"/>
<path d="M190.926 120H77V97H191L190.926 120Z" fill="#FFBC0D"/>
<path d="M191 99L190.97 108H77V99H191Z" fill="black" fill-opacity="0.1"/>
<path d="M316 99V108H264L264.002 99H316Z" fill="black" fill-opacity="0.1"/>
<path d="M264 124H287V203H264V124Z" fill="#F9F9F9"/>
<path d="M288 124H316V203H288V124Z" fill="#F9F9F9"/>
<path d="M191 89L190.967 98.999L73.8004 99C72.8061 99 72 98.1942 72 97.2002V90.8008C72 89.8068 72.8061 89.001 73.8004 89.001L191 89Z" fill="#FFBC0D"/>
<path d="M318.212 89.001C319.2 89.001 320 89.8068 320 90.8008V97.2002C320 98.1942 319.2 99 318.212 99L264 98.999L264.002 89L318.212 89.001Z" fill="#FFBC0D"/>
<path d="M260.5 74.5234L260.473 202.998H194.569L194.5 74.5234L260.5 74.5234Z" fill="#F1F1F1"/>
<path d="M59.8 124H244.443C245.437 124 246.243 124.806 246.243 125.8V140H58V125.8C58 124.806 58.8059 124 59.8 124Z" fill="#606060"/>
<path d="M195 140H246V203H195V140Z" fill="#D8D8D8"/>
<path d="M109 140H137V203H109V140Z" fill="#F9F9F9"/>
<path d="M138 140H166V203H138V140Z" fill="#F9F9F9"/>
<path d="M167 140H195V203H167V140Z" fill="#F9F9F9"/>
<path d="M218 154H246V203H218V154Z" fill="#F9F9F9"/>
<path d="M58 198H109V204H58V198Z" fill="#A5835B"/>
<path d="M58 192H109V198H58V192Z" fill="#C2945C"/>
<path d="M58 187H109V193H58V187Z" fill="#A5835B"/>
<path d="M58 182H109V188H58V182Z" fill="#C2945C"/>
<path d="M58 177H109V183H58V177Z" fill="#A5835B"/>
<path d="M58 171H109V177H58V171Z" fill="#C2945C"/>
<path d="M58 166H109V172H58V166Z" fill="#A5835B"/>
<path d="M58 161H109V167H58V161Z" fill="#C2945C"/>
<path d="M58 156H109V162H58V156Z" fill="#A5835B"/>
<path d="M58 150H109V156H58V150Z" fill="#C2945C"/>
<path d="M58 145H109V151H58V145Z" fill="#A5835B"/>
<path d="M58 140H109V146H58V140Z" fill="#C2945C"/>
<path d="M136 140H140V203H136V140Z" fill="#D8D8D8"/>
<path d="M286 124H290V203H286V124Z" fill="#D8D8D8"/>
<path d="M312 124H316V203H312V124Z" fill="#D8D8D8"/>
<path d="M165 140H169V203H165V140Z" fill="#D8D8D8"/>
<path d="M218 154H246V160H218V154Z" fill="#A0A09F" fill-opacity="0.15"/>
<path d="M195 140H246V143H195V140Z" fill="#292929" fill-opacity="0.1"/>
<path d="M165 140H169V146H165V140Z" fill="#292929" fill-opacity="0.1"/>
<path d="M136 140H140V146H136V140Z" fill="#292929" fill-opacity="0.1"/>
<path d="M109 140H136V145H109V140Z" fill="#A0A09F" fill-opacity="0.15"/>
<path d="M140 140H165V145H140V140Z" fill="#A0A09F" fill-opacity="0.15"/>
<path d="M169 140H195V145H169V140Z" fill="#A0A09F" fill-opacity="0.15"/>
<path fill-rule="evenodd" clip-rule="evenodd" d="M236.023 86.7959C239.143 86.7959 241.672 99.9528 241.672 116.182H246.195C246.195 98.703 241.64 84.5352 236.023 84.5352C232.826 84.5352 229.975 88.7942 228.111 95.4522C226.247 88.7942 223.396 84.5352 220.2 84.5352C214.584 84.5352 210.027 98.703 210.027 116.182H214.55C214.55 99.9528 217.08 86.7959 220.2 86.7959C223.32 86.7959 225.85 98.9404 225.85 113.921H230.372C230.372 98.9404 232.902 86.7959 236.023 86.7959Z" fill="#FFBC0D"/>
<rect x="63" y="33" width="6" height="170" fill="#F9F9F9"/>
<rect x="66" y="33" width="3" height="170" fill="#F1F1F1"/>
<path d="M66 26C68.2091 26 70 27.7909 70 30C70 31.195 69.4754 32.267 68.6445 33H63.3555C62.5246 32.267 62 31.195 62 30C62 27.7909 63.7909 26 66 26Z" fill="#FFBC0D"/>
<path opacity="0.5" d="M66 26C67.3598 26 68.5605 26.6789 69.2832 27.7158C68.6357 27.2648 67.8489 27 67 27C64.7909 27 63 28.7909 63 31C63 31.8496 63.2659 32.6366 63.7178 33.2842C62.6799 32.5616 62 31.3605 62 30C62 27.7909 63.7909 26 66 26Z" fill="#F9F9F9"/>
<g clip-path="url(#clip1_102_69612)">
<path d="M69 33H124.323V69.882H69V33Z" fill="#FFDA44"/>
<path d="M93.0039 35.4062H121.809V67.4138H93.0039V35.4062Z" fill="#A2001D"/>
<path d="M71.4062 35.4062H93.0071V67.4138H71.4062V35.4062Z" fill="#D80027"/>
<path d="M90.6016 33H93.0064V69.882H90.6016V33Z" fill="#FFDA44"/>
<path d="M71.4062 35.4062H81.0042V67.4138H71.4062V35.4062Z" fill="#6DA544"/>
<path d="M81.0039 35.4062H90.6019V67.4138H81.0039V35.4062Z" fill="#FF9811"/>
<path d="M108.707 49.9111C108.556 49.6954 108.707 45.8239 108.707 45.8239C108.804 45.0259 108.717 44.918 108.815 44.5945C108.912 44.2818 109.397 43.3435 109.397 43.3435C109.397 43.3435 108.75 43.0955 108.286 43.2788C107.822 43.4622 105.622 42.47 104.921 43.6455C104.447 44.4004 102.376 45.3925 102.269 45.1553C102.161 44.918 101.632 44.6161 101.524 44.8426C101.417 45.069 101.449 46.3416 101.524 46.568C101.611 46.8484 102.581 46.7837 102.851 46.9023C103.25 47.0965 104.167 47.7866 104.134 48.0562C104.102 48.3259 101.708 47.4092 101.524 47.571C101.373 47.7004 101.32 48.9945 101.481 49.1886C101.675 49.4151 104.005 49.7925 104.177 49.9974C104.35 50.2023 102.765 50.7954 102.851 52.6935C102.926 54.2787 103.714 54.5699 103.714 54.5699C103.714 54.5699 103.455 54.9581 102.872 54.9042C102.204 54.8395 99.9176 52.9954 99.9176 52.9954C99.9176 52.9954 99.5401 41.2406 100.306 39.9034C100.834 38.9867 97.8578 40.9926 97.8578 45.3818V49.2856C97.8578 49.9974 97.7068 51.7013 98.1382 52.9523C98.1382 52.9523 98.095 58.0101 98.2999 58.3012C98.5048 58.5924 99.6695 58.5385 99.896 58.3012C100.122 58.064 99.896 55.066 99.896 55.066C100.726 55.0875 101.87 56.9532 103.401 56.8346C105.622 56.662 106.496 55.767 107.1 56.2954C107.973 57.0611 107.693 58.7973 107.143 59.6924C106.906 60.0698 105.601 60.1993 105.45 60.512C105.299 60.8247 105.504 61.0943 105.504 61.0943H108.707C108.707 61.0943 108.858 58.8836 108.998 58.2797C109.138 57.665 108.933 57.1258 109.634 57.1581C112.168 57.2767 113.926 55.5081 114.541 56.2954C114.886 56.7375 115.145 59.5199 114.897 59.8865C114.66 60.2532 113.409 60.1885 113.258 60.6091C113.107 61.0404 113.344 61.0836 113.344 61.0836H116.547C116.547 61.0836 116.504 58.7973 116.816 58.0963C117.129 57.3954 117.345 56.9748 117.819 56.2415C118.294 55.5081 119.038 54.5483 119.038 52.3376C119.038 50.8062 118.164 49.8788 118.164 49.8788H113.969C112.449 49.9003 108.858 50.1268 108.707 49.9111ZM94.0402 36.4848C95.1941 35.3417 96.2186 36.1936 96.4343 36.7113C96.6392 37.2289 96.6607 37.5956 96.7362 38.1779C96.8333 38.922 97.2646 39.6877 97.2646 39.6877C97.2646 39.6877 96.499 39.2779 95.6794 39.2348C95.1725 39.2024 94.7088 39.1701 94.2127 38.9652C93.598 38.7171 92.951 37.574 94.0402 36.4848ZM120.828 36.474C121.982 37.6171 121.13 38.6524 120.612 38.8681C120.095 39.0838 119.728 39.0946 119.146 39.1701C118.402 39.2671 117.636 39.7093 117.636 39.7093C117.636 39.7093 118.035 38.9436 118.089 38.124C118.121 37.6171 118.154 37.1426 118.348 36.6573C118.585 36.0426 119.728 35.3848 120.828 36.474ZM120.839 66.3355C119.685 67.4786 118.661 66.6159 118.445 66.0982C118.24 65.5806 118.218 65.2139 118.154 64.6316C118.067 63.8875 117.625 63.111 117.625 63.111C117.625 63.111 118.38 63.5208 119.211 63.5747C119.717 63.6071 120.181 63.6394 120.677 63.8443C121.292 64.1031 121.939 65.2571 120.839 66.3355ZM94.0725 66.3247C92.9294 65.1708 93.7813 64.1463 94.299 63.9306C94.8166 63.7257 95.1833 63.7041 95.7656 63.6286C96.5098 63.5316 97.2754 63.1002 97.2754 63.1002C97.2754 63.1002 96.8656 63.8659 96.8225 64.6855C96.7901 65.1923 96.7578 65.6561 96.5529 66.1521C96.3049 66.7668 95.1617 67.4247 94.0725 66.3247Z" fill="#FFDA44"/>
<path fill-rule="evenodd" clip-rule="evenodd" d="M110.957 44.9023C110.725 45.1012 110.553 45.4222 110.553 45.9635C110.553 46.4283 110.837 46.847 111.402 47.1081C111.972 47.3713 112.812 47.4589 113.823 47.2229C114.916 46.9666 116.043 47.048 116.898 47.32C117.325 47.4557 117.702 47.6447 117.975 47.8797C118.245 48.1124 118.451 48.4267 118.425 48.8002C118.372 49.5896 118.123 50.0915 117.859 50.4018C117.729 50.5551 117.599 50.6565 117.497 50.7211C117.447 50.7533 117.403 50.7763 117.369 50.7922C117.352 50.8001 117.338 50.8062 117.327 50.8107C117.321 50.813 117.316 50.8149 117.312 50.8165C117.31 50.8172 117.308 50.8179 117.307 50.8185L117.304 50.8194L117.303 50.8197L117.303 50.8199C117.303 50.82 117.302 50.8201 117.196 50.5144C117.09 50.2087 117.09 50.2088 117.09 50.2089L117.09 50.209L117.089 50.2093L117.087 50.2098L117.085 50.2106C117.084 50.211 117.084 50.2111 117.084 50.211C117.085 50.2108 117.088 50.2094 117.093 50.2068C117.104 50.2016 117.125 50.1914 117.151 50.1746C117.204 50.1411 117.282 50.0814 117.366 49.9826C117.531 49.7889 117.735 49.4228 117.779 48.7566L117.78 48.7556C117.786 48.6656 117.741 48.5325 117.552 48.37C117.366 48.2097 117.076 48.0556 116.702 47.9366C115.955 47.699 114.947 47.624 113.97 47.8529L113.97 47.853C112.856 48.1131 111.863 48.0335 111.131 47.6955C110.394 47.3554 109.906 46.7388 109.906 45.9635C109.906 45.27 110.135 44.7552 110.535 44.4115C110.924 44.0775 111.433 43.9406 111.934 43.9071C112.927 43.8405 114.036 44.171 114.577 44.4593L114.578 44.46L114.578 44.46C114.799 44.579 115.076 44.7658 115.363 44.9595C115.418 44.9967 115.473 45.0341 115.529 45.0714C115.884 45.31 116.257 45.5524 116.612 45.731C116.977 45.9143 117.276 46.0054 117.492 45.993C117.592 45.9872 117.666 45.96 117.725 45.9153C117.785 45.8698 117.852 45.7895 117.908 45.6429L118.512 45.8743C118.423 46.1078 118.292 46.2974 118.116 46.4312C117.938 46.5658 117.735 46.6272 117.529 46.639C117.135 46.6616 116.708 46.5033 116.322 46.3091C115.926 46.1103 115.523 45.8472 115.168 45.6086C115.108 45.568 115.049 45.5284 114.992 45.49C114.704 45.2958 114.462 45.1322 114.272 45.0301C113.821 44.79 112.832 44.4953 111.977 44.5527C111.552 44.5812 111.199 44.6937 110.957 44.9023Z" fill="#FFDA44"/>
</g>
<path d="M67.8158 205.5L68.7364 205.494C75.9374 205.404 81.6316 204.137 81.6316 196.816C81.6316 189.186 75.446 183 67.8158 183C60.1855 183 54 189.186 54 196.816C54 204.446 60.1855 205.5 67.8158 205.5Z" fill="#9CC93A"/>
<path d="M98.8158 205.5L99.7364 205.494C106.937 205.404 112.632 204.137 112.632 196.816C112.632 189.186 106.446 183 98.8158 183C91.1855 183 85 189.186 85 196.816C85 204.446 91.1855 205.5 98.8158 205.5Z" fill="#9CC93A"/>
<path d="M128.816 205.5L129.736 205.494C136.937 205.404 142.632 204.137 142.632 196.816C142.632 189.186 136.446 183 128.816 183C121.186 183 115 189.186 115 196.816C115 204.446 121.186 205.5 128.816 205.5Z" fill="#9CC93A"/>
<path d="M253.561 29.8555C255.088 29.8555 256.327 31.0943 256.327 32.6221C256.327 34.0685 255.217 35.2538 253.802 35.376C254.09 36.0127 254.252 36.7186 254.252 37.4629C254.252 40.2639 251.982 42.5342 249.181 42.5342H257.94C260.741 42.5342 263.013 44.8055 263.013 47.6064H269.929C272.729 47.6066 275 49.8769 275 52.6777C275 55.4786 272.73 57.7498 269.929 57.75H262.332C261.455 59.2653 259.817 60.2852 257.94 60.2852H215.523C213.647 60.2852 212.009 59.2653 211.132 57.75H206.071C203.27 57.7498 201 55.4786 201 52.6777C201 49.8769 203.271 47.6066 206.071 47.6064H210.452C210.452 44.8055 212.722 42.5342 215.523 42.5342H221.748C221.748 39.7334 224.018 37.4629 226.819 37.4629H235.349C235.349 34.6619 237.62 32.3916 240.421 32.3916H249.181C249.746 32.3916 250.288 32.4849 250.796 32.6553C250.796 32.6442 250.795 32.6332 250.795 32.6221C250.795 31.0943 252.033 29.8556 253.561 29.8555Z" fill="white"/>
<path d="M140.047 2C143.684 2 146.634 4.94858 146.634 8.58594C146.634 8.65081 146.631 8.71586 146.629 8.78027H148.184C150.537 8.78048 152.445 10.6884 152.445 13.042H155.738C158.092 13.042 160 14.95 160 17.3037C160 19.6574 158.092 21.5654 155.738 21.5654H153.229C152.493 22.8389 151.116 23.6963 149.539 23.6963H133.461C131.884 23.6963 130.507 22.8389 129.771 21.5654H127.262C124.908 21.5654 123 19.6574 123 17.3037C123 14.95 124.908 13.042 127.262 13.042H127.843C127.843 10.6883 129.751 8.78037 132.104 8.78027H133.466C133.464 8.71585 133.461 8.65081 133.461 8.58594C133.461 4.94867 136.41 2.00015 140.047 2Z" fill="white"/>
</g>
<defs>
<clipPath id="clip0_102_69612">
<rect width="375" height="225" fill="white"/>
</clipPath>
<clipPath id="clip1_102_69612">
<rect width="55.3231" height="36.882" fill="white" transform="translate(69 33)"/>
</clipPath>
</defs>
</svg>
