<svg width="27" height="18" viewBox="0 0 27 18" fill="none" xmlns="http://www.w3.org/2000/svg">
<g clip-path="url(#clip0_109_43833)">
<path d="M0 0H27V18H0V0Z" fill="#41662E"/>
<path d="M13.5 0H27V18H13.5V0Z" fill="white"/>
<path d="M18.0084 5.55469L16.458 7.68536L13.9531 6.87318L15.5035 9.00385L13.9531 11.1345L16.458 10.3223L18.0084 12.453V9.81604L20.5133 8.99858L18.0084 8.18639V5.55469Z" fill="#D80027"/>
<path d="M16.3406 14.594C13.2557 14.594 10.7508 12.0889 10.7508 9.00359C10.7508 5.91834 13.2557 3.41321 16.3406 3.41321C17.3057 3.41321 18.2074 3.65581 18.9984 4.083C17.7592 2.86999 16.0611 2.12109 14.1891 2.12109C10.3922 2.12109 7.3125 5.20108 7.3125 8.99832C7.3125 12.7956 10.3922 15.8755 14.1891 15.8755C16.0611 15.8755 17.7592 15.1266 18.9984 13.9136C18.2127 14.3461 17.3057 14.594 16.3406 14.594Z" fill="#D80027"/>
</g>
<rect x="0.5" y="0.5" width="26" height="17" rx="0.5" stroke="black" stroke-opacity="0.2"/>
<defs>
<clipPath id="clip0_109_43833">
<rect width="27" height="18" rx="1" fill="white"/>
</clipPath>
</defs>
</svg>
