<svg width="27" height="18" viewBox="0 0 27 18" fill="none" xmlns="http://www.w3.org/2000/svg">
<g clip-path="url(#clip0_109_43682)">
<path d="M0 0H27V18H0V0Z" fill="#E30A17"/>
<path d="M13.6702 6.24142C12.9808 5.74142 12.1439 5.473 11.286 5.47827C9.13867 5.47827 7.40183 7.09932 7.40183 9.10458C7.40183 11.1098 9.14393 12.7309 11.286 12.7309C12.186 12.7309 13.0176 12.4467 13.6702 11.9677C12.0913 13.9993 9.15972 14.3677 7.12814 12.7835C5.09656 11.1993 4.72814 8.273 6.31235 6.24142C7.89656 4.20985 10.8229 3.84142 12.8545 5.42564C13.1597 5.66248 13.4334 5.94142 13.6702 6.24142ZM15.7703 9.70458L14.8176 10.8572L14.8808 9.36248L13.4913 8.81511L14.9281 8.41511L15.0229 6.92564L15.8439 8.173L17.2913 7.79932L16.3702 8.95721L17.1755 10.2151L15.7703 9.70458Z" fill="white"/>
</g>
<rect x="0.5" y="0.5" width="26" height="17" rx="0.5" stroke="black" stroke-opacity="0.2"/>
<defs>
<clipPath id="clip0_109_43682">
<rect width="27" height="18" rx="1" fill="white"/>
</clipPath>
</defs>
</svg>
