<svg width="72" height="72" viewBox="0 0 72 72" fill="none" xmlns="http://www.w3.org/2000/svg">
<path d="M63 62C63 63.6569 51.3594 65 37 65C22.6406 65 11 63.6569 11 62C11 60.3431 22.6406 59 37 59C51.3594 59 63 60.3431 63 62Z" fill="#F1F1F1"/>
<path d="M42.2264 15L41.2075 15.6792L40.1887 15L39.1698 15.6792L38.1509 15L37.1321 15.6792L36.1132 15L35.0943 15.6792L34.0755 15L33.0566 15.6792L32.0377 15L31.0189 15.6792L30 15V31.6415C30 32.3918 30.6082 33 31.3585 33H42.9056C43.6559 33 44.2641 32.3918 44.2641 31.6415V15L43.2453 15.6792L42.2264 15Z" fill="#A0A09F"/>
<path d="M30 29.9434H44.2641V31.6415C44.2641 32.3917 43.6559 33 42.9056 33H31.3585C30.6082 33 30 32.3917 30 31.6415V29.9434Z" fill="#6F6F6F"/>
<path d="M44.2663 20.3866C42.9615 20.3866 41.9032 25.6002 41.9032 32.0303H40.0132C40.0132 25.6002 38.9564 20.3866 37.65 20.3866C36.3467 20.3866 35.2884 26.0334 35.2884 33.0009H33.3984C33.3984 25.4975 35.302 19.416 37.65 19.416C38.9866 19.416 40.1795 21.2439 40.9582 24.1028C41.7384 21.2439 42.9298 19.416 44.2663 19.416V20.3866Z" fill="#D8D8D8"/>
<path d="M11 34C11 33.4477 11.4477 33 12 33H62C62.5523 33 63 33.4477 63 34V38C63 38.5523 62.5523 39 62 39H12C11.4477 39 11 38.5523 11 38V34Z" fill="#D8D8D8"/>
<path d="M15 39H59V61C59 61.5523 58.5523 62 58 62H16C15.4477 62 15 61.5523 15 61V39Z" fill="#6F6F6F"/>
<path d="M15 39H59V43H15V39Z" fill="#A0A09F" fill-opacity="0.15"/>
</svg>
