<svg width="375" height="225" viewBox="0 0 375 225" fill="none" xmlns="http://www.w3.org/2000/svg">
<g clip-path="url(#clip0_102_69767)">
<path d="M184.5 4C262.096 4 325 66.904 325 144.5C325 163.443 321.249 181.51 314.453 198H54.5469C47.7506 181.51 44 163.443 44 144.5C44 66.904 106.904 4 184.5 4Z" fill="#DCEDF4"/>
<ellipse cx="184" cy="203" rx="153" ry="14" fill="#A0A09F" fill-opacity="0.15"/>
<path d="M316 97V124H264L264.005 97H316Z" fill="#FFBC0D"/>
<path d="M190.926 120H77V97H191L190.926 120Z" fill="#FFBC0D"/>
<path d="M191 99L190.97 108H77V99H191Z" fill="black" fill-opacity="0.1"/>
<path d="M316 99V108H264L264.002 99H316Z" fill="black" fill-opacity="0.1"/>
<path d="M264 124H287V203H264V124Z" fill="#F9F9F9"/>
<path d="M288 124H316V203H288V124Z" fill="#F9F9F9"/>
<path d="M191 89L190.967 98.999L73.8004 99C72.8061 99 72 98.1942 72 97.2002V90.8008C72 89.8068 72.8061 89.001 73.8004 89.001L191 89Z" fill="#FFBC0D"/>
<path d="M318.212 89.001C319.2 89.001 320 89.8068 320 90.8008V97.2002C320 98.1942 319.2 99 318.212 99L264 98.999L264.002 89L318.212 89.001Z" fill="#FFBC0D"/>
<path d="M260.5 74.5234L260.473 202.998H194.569L194.5 74.5234L260.5 74.5234Z" fill="#F1F1F1"/>
<path d="M59.8 124H244.443C245.437 124 246.243 124.806 246.243 125.8V140H58V125.8C58 124.806 58.8059 124 59.8 124Z" fill="#606060"/>
<path d="M195 140H246V203H195V140Z" fill="#D8D8D8"/>
<path d="M109 140H137V203H109V140Z" fill="#F9F9F9"/>
<path d="M138 140H166V203H138V140Z" fill="#F9F9F9"/>
<path d="M167 140H195V203H167V140Z" fill="#F9F9F9"/>
<path d="M218 154H246V203H218V154Z" fill="#F9F9F9"/>
<path d="M58 198H109V204H58V198Z" fill="#A5835B"/>
<path d="M58 192H109V198H58V192Z" fill="#C2945C"/>
<path d="M58 187H109V193H58V187Z" fill="#A5835B"/>
<path d="M58 182H109V188H58V182Z" fill="#C2945C"/>
<path d="M58 177H109V183H58V177Z" fill="#A5835B"/>
<path d="M58 171H109V177H58V171Z" fill="#C2945C"/>
<path d="M58 166H109V172H58V166Z" fill="#A5835B"/>
<path d="M58 161H109V167H58V161Z" fill="#C2945C"/>
<path d="M58 156H109V162H58V156Z" fill="#A5835B"/>
<path d="M58 150H109V156H58V150Z" fill="#C2945C"/>
<path d="M58 145H109V151H58V145Z" fill="#A5835B"/>
<path d="M58 140H109V146H58V140Z" fill="#C2945C"/>
<path d="M136 140H140V203H136V140Z" fill="#D8D8D8"/>
<path d="M286 124H290V203H286V124Z" fill="#D8D8D8"/>
<path d="M312 124H316V203H312V124Z" fill="#D8D8D8"/>
<path d="M165 140H169V203H165V140Z" fill="#D8D8D8"/>
<path d="M218 154H246V160H218V154Z" fill="#A0A09F" fill-opacity="0.15"/>
<path d="M195 140H246V143H195V140Z" fill="#292929" fill-opacity="0.1"/>
<path d="M165 140H169V146H165V140Z" fill="#292929" fill-opacity="0.1"/>
<path d="M136 140H140V146H136V140Z" fill="#292929" fill-opacity="0.1"/>
<path d="M109 140H136V145H109V140Z" fill="#A0A09F" fill-opacity="0.15"/>
<path d="M140 140H165V145H140V140Z" fill="#A0A09F" fill-opacity="0.15"/>
<path d="M169 140H195V145H169V140Z" fill="#A0A09F" fill-opacity="0.15"/>
<path fill-rule="evenodd" clip-rule="evenodd" d="M236.023 86.7959C239.143 86.7959 241.672 99.9528 241.672 116.182H246.195C246.195 98.703 241.64 84.5352 236.023 84.5352C232.826 84.5352 229.975 88.7942 228.111 95.4522C226.247 88.7942 223.396 84.5352 220.2 84.5352C214.584 84.5352 210.027 98.703 210.027 116.182H214.55C214.55 99.9528 217.08 86.7959 220.2 86.7959C223.32 86.7959 225.85 98.9404 225.85 113.921H230.372C230.372 98.9404 232.902 86.7959 236.023 86.7959Z" fill="#FFBC0D"/>
<rect x="63" y="33" width="6" height="170" fill="#F9F9F9"/>
<rect x="66" y="33" width="3" height="170" fill="#F1F1F1"/>
<path d="M66 26C68.2091 26 70 27.7909 70 30C70 31.195 69.4754 32.267 68.6445 33H63.3555C62.5246 32.267 62 31.195 62 30C62 27.7909 63.7909 26 66 26Z" fill="#FFBC0D"/>
<path opacity="0.5" d="M66 26C67.3598 26 68.5605 26.6789 69.2832 27.7158C68.6357 27.2648 67.8489 27 67 27C64.7909 27 63 28.7909 63 31C63 31.8496 63.2659 32.6366 63.7178 33.2842C62.6799 32.5616 62 31.3605 62 30C62 27.7909 63.7909 26 66 26Z" fill="#F9F9F9"/>
<g clip-path="url(#clip1_102_69767)">
<path d="M69 33H124.323V69.882H69V33Z" fill="#00318B"/>
<path d="M118.048 61.6173C118.904 60.4386 119.476 59 119.476 57.2583V44.3097C118.356 45.1523 116.993 45.607 115.591 45.6049C113.473 45.6049 111.594 44.588 110.412 43.0156C109.231 44.588 107.35 45.6049 105.232 45.6049C103.774 45.6049 102.429 45.1229 101.348 44.3108V57.2583C101.348 59.0011 101.919 60.4397 102.775 61.6173H118.048Z" fill="white"/>
<path d="M102.457 61.1445C104.875 65.0247 110.413 66.3231 110.413 66.3231C110.413 66.3231 115.95 65.0247 118.368 61.1445H102.457Z" fill="#8DCCFF"/>
<path d="M111.778 51.5699C111.812 51.723 112.718 52.6666 113.672 53.7429C113.822 53.9122 112.729 55.1049 112.926 55.1006C113.439 55.0877 115.005 53.2393 115.012 55.8178C115.017 57.5368 111.777 58.7845 111.777 58.7845H113.661L113.731 60.3978C113.731 60.3978 114.267 58.9592 114.549 58.6109C115.423 57.5357 116.726 55.3681 118.28 55.6884C119.834 56.0086 116.807 54.1872 116.807 54.1872C116.807 54.1872 116.246 52.5491 115.013 52.3571C113.928 52.1878 113.472 52.0864 112.14 51.5699C111.959 51.4998 111.722 51.3197 111.778 51.5699Z" fill="#D87B00"/>
<path d="M107.789 54.4285C107.904 54.3217 108.27 53.0664 108.726 51.7022C108.798 51.4876 110.377 51.8392 110.273 51.6699C110.007 51.232 107.622 50.7985 109.853 49.5044C111.34 48.6417 114.039 50.8276 114.039 50.8276L113.099 49.1949L114.462 48.3289C114.462 48.3289 112.947 48.5823 112.506 48.5112C111.138 48.2912 108.609 48.2437 108.111 46.7372C107.613 45.2306 107.545 48.7635 107.545 48.7635C107.545 48.7635 106.406 50.0663 106.855 51.2309C107.249 52.2554 107.39 52.7019 107.606 54.1136C107.638 54.3066 107.6 54.6021 107.789 54.4285Z" fill="#D87B00"/>
<path d="M111.669 56.7109C111.519 56.6645 110.25 56.9794 108.842 57.2695C108.62 57.3148 108.131 55.7727 108.036 55.9474C107.791 56.3971 108.614 58.6769 106.374 57.3979C104.882 56.5448 105.416 53.1133 105.416 53.1133L104.476 54.746L103.043 54.0019C103.043 54.0019 104.023 55.1839 104.183 55.6023C104.679 56.8953 105.908 59.1061 104.856 60.2923C103.803 61.4797 106.892 59.7639 106.892 59.7639C106.892 59.7639 108.591 60.095 109.372 59.1212C110.06 58.2649 110.375 57.9198 111.487 57.0236C111.641 56.9029 111.915 56.7875 111.669 56.7109Z" fill="#D87B00"/>
<path d="M96.6615 33H94.1704L86.2548 38.2735V33H79.3529V38.2735L71.4372 33H69V35.448L73.9715 38.7588H69V45.6607H73.9715L69 48.9714V51.441H71.4372L79.3529 46.1352V51.441H86.2548V46.1352L94.1704 51.441H96.6615V48.9714L91.6361 45.6607H96.6615V38.7588H91.6361L96.6615 35.448V33Z" fill="white"/>
<path d="M84.5293 33H81.0783V40.4842H69V43.9352H81.0783V51.441H84.5293V43.9352H96.6615V40.4842H84.5293V33Z" fill="#D80027"/>
<path d="M69 51.442V50.2233L75.7401 45.6616H78.1774L69.7872 51.442H69ZM69.7872 33.0117L78.1774 38.7489H75.7401L69 34.198V33.0117H69.7872ZM96.6615 33.0117V34.198L89.8675 38.7597H87.4302L95.8204 33.0117H96.6615ZM95.8204 51.442L87.4302 45.6616H89.8675L96.6615 50.2233V51.442H95.8204Z" fill="#D80027"/>
</g>
<path d="M67.8158 205.5L68.7364 205.494C75.9374 205.404 81.6316 204.137 81.6316 196.816C81.6316 189.186 75.446 183 67.8158 183C60.1855 183 54 189.186 54 196.816C54 204.446 60.1855 205.5 67.8158 205.5Z" fill="#9CC93A"/>
<path d="M98.8158 205.5L99.7364 205.494C106.937 205.404 112.632 204.137 112.632 196.816C112.632 189.186 106.446 183 98.8158 183C91.1855 183 85 189.186 85 196.816C85 204.446 91.1855 205.5 98.8158 205.5Z" fill="#9CC93A"/>
<path d="M128.816 205.5L129.736 205.494C136.937 205.404 142.632 204.137 142.632 196.816C142.632 189.186 136.446 183 128.816 183C121.186 183 115 189.186 115 196.816C115 204.446 121.186 205.5 128.816 205.5Z" fill="#9CC93A"/>
<path d="M253.561 29.8555C255.088 29.8555 256.327 31.0943 256.327 32.6221C256.327 34.0685 255.217 35.2538 253.802 35.376C254.09 36.0127 254.252 36.7186 254.252 37.4629C254.252 40.2639 251.982 42.5342 249.181 42.5342H257.94C260.741 42.5342 263.013 44.8055 263.013 47.6064H269.929C272.729 47.6066 275 49.8769 275 52.6777C275 55.4786 272.73 57.7498 269.929 57.75H262.332C261.455 59.2653 259.817 60.2852 257.94 60.2852H215.523C213.647 60.2852 212.009 59.2653 211.132 57.75H206.071C203.27 57.7498 201 55.4786 201 52.6777C201 49.8769 203.271 47.6066 206.071 47.6064H210.452C210.452 44.8055 212.722 42.5342 215.523 42.5342H221.748C221.748 39.7334 224.018 37.4629 226.819 37.4629H235.349C235.349 34.6619 237.62 32.3916 240.421 32.3916H249.181C249.746 32.3916 250.288 32.4849 250.796 32.6553C250.796 32.6442 250.795 32.6332 250.795 32.6221C250.795 31.0943 252.033 29.8556 253.561 29.8555Z" fill="white"/>
<path d="M140.047 2C143.684 2 146.634 4.94858 146.634 8.58594C146.634 8.65081 146.631 8.71586 146.629 8.78027H148.184C150.537 8.78048 152.445 10.6884 152.445 13.042H155.738C158.092 13.042 160 14.95 160 17.3037C160 19.6574 158.092 21.5654 155.738 21.5654H153.229C152.493 22.8389 151.116 23.6963 149.539 23.6963H133.461C131.884 23.6963 130.507 22.8389 129.771 21.5654H127.262C124.908 21.5654 123 19.6574 123 17.3037C123 14.95 124.908 13.042 127.262 13.042H127.843C127.843 10.6883 129.751 8.78037 132.104 8.78027H133.466C133.464 8.71585 133.461 8.65081 133.461 8.58594C133.461 4.94867 136.41 2.00015 140.047 2Z" fill="white"/>
</g>
<defs>
<clipPath id="clip0_102_69767">
<rect width="375" height="225" fill="white"/>
</clipPath>
<clipPath id="clip1_102_69767">
<rect width="55.3231" height="36.882" fill="white" transform="translate(69 33)"/>
</clipPath>
</defs>
</svg>
