<svg width="27" height="18" viewBox="0 0 27 18" fill="none" xmlns="http://www.w3.org/2000/svg">
<g clip-path="url(#clip0_109_43842)">
<path d="M0 0H27V17.9996H0V0Z" fill="white"/>
<path d="M0 0H27V8.99981H0V0Z" fill="#D80027"/>
<path d="M4.40043 4.50085C4.40043 3.18961 5.32201 2.09421 6.55262 1.82542C6.35984 1.78315 6.16306 1.76179 5.96569 1.76172C4.45285 1.76172 3.22656 2.98801 3.22656 4.5008C3.22656 6.01359 4.4529 7.23993 5.96569 7.23993C6.16724 7.23993 6.36346 7.21752 6.55262 7.17623C5.32201 6.90755 4.40043 5.81215 4.40043 4.50085ZM7.92219 1.95742L8.11646 2.55527H8.74511L8.23648 2.92478L8.43076 3.52263L7.92219 3.15317L7.41356 3.52263L7.60789 2.92478L7.09927 2.55527H7.72791L7.92219 1.95742Z" fill="white"/>
<path d="M6.39714 3.13281L6.59136 3.73066H7.22001L6.71138 4.10017L6.90566 4.69802L6.39714 4.32856L5.88852 4.69802L6.08284 4.10017L5.57422 3.73066H6.20287L6.39714 3.13281ZM9.44698 3.13281L9.64125 3.73066H10.2699L9.76128 4.10017L9.95555 4.69802L9.44698 4.32856L8.93841 4.69802L9.13273 4.10017L8.62411 3.73066H9.25276L9.44698 3.13281ZM8.85999 4.89367L9.05427 5.49152H9.68291L9.17434 5.86103L9.36862 6.45888L8.85999 6.08942L8.35148 6.45888L8.54575 5.86103L8.03718 5.49152H8.66577L8.85999 4.89367ZM6.98407 4.89367L7.17829 5.49152H7.80694L7.29837 5.86103L7.49264 6.45888L6.98407 6.08942L6.4755 6.45888L6.66978 5.86103L6.16121 5.49152H6.7898L6.98407 4.89367Z" fill="white"/>
</g>
<rect x="0.5" y="0.5" width="26" height="17" rx="0.5" stroke="black" stroke-opacity="0.2"/>
<defs>
<clipPath id="clip0_109_43842">
<rect width="27" height="18" rx="1" fill="white"/>
</clipPath>
</defs>
</svg>
