<svg width="136" height="136" viewBox="0 0 136 136" fill="none" xmlns="http://www.w3.org/2000/svg">
<g clip-path="url(#clip0_1001_45087)">
<path d="M68.627 99.9766C53.9976 99.9766 41.5607 92.476 36.9971 82.0225L33.5313 82.0225L34.6348 61.3105L38.5781 61.3506C44.0445 52.4987 55.4456 46.4092 68.627 46.4092C82.1089 46.4092 93.7291 52.7791 99.041 61.96L101.387 61.9834L102.045 62.7744L103.137 82.0225L100.257 82.0225C95.6933 92.4761 83.2564 99.9765 68.627 99.9766Z" fill="#EAEAEA"/>
<mask id="mask0_1001_45087" style="mask-type:luminance" maskUnits="userSpaceOnUse" x="33" y="46" width="71" height="54">
<path d="M68.627 99.9766C53.9976 99.9765 41.5607 92.476 36.9971 82.0225L33.5313 82.0225L34.6348 61.3105L38.5781 61.3506C44.0445 52.4987 55.4456 46.4092 68.627 46.4092C82.1089 46.4092 93.7291 52.7791 99.041 61.96L101.387 61.9834L102.045 62.7744L103.137 82.0225L100.257 82.0225C95.6932 92.476 83.2563 99.9766 68.627 99.9766Z" fill="white"/>
</mask>
<g mask="url(#mask0_1001_45087)">
<path d="M67.663 115.236L67.663 45.0953L69.8047 45.0953L69.8047 115.236L67.663 115.236Z" fill="#FFBC0D"/>
<path d="M73.0184 115.236L73.0185 45.0953L75.1602 45.0953L75.1602 115.236L73.0184 115.236Z" fill="#FFBC0D"/>
<path d="M78.3739 115.236L78.3739 45.0953L80.5156 45.0953L80.5156 115.236L78.3739 115.236Z" fill="#FFBC0D"/>
<path d="M83.7255 115.236L83.7255 45.0953L85.8672 45.0953L85.8672 115.236L83.7255 115.236Z" fill="#FFBC0D"/>
<path d="M89.0809 115.236L89.081 45.0953L91.2227 45.0953L91.2227 115.236L89.0809 115.236Z" fill="#FFBC0D"/>
<path d="M94.4364 115.236L94.4364 45.0953L96.5781 45.0953L96.5781 115.236L94.4364 115.236Z" fill="#FFBC0D"/>
<path d="M99.7919 115.236L99.7919 45.0953L101.934 45.0953L101.934 115.236L99.7919 115.236Z" fill="#FFBC0D"/>
<path d="M35.538 115.236L35.538 45.0953L37.6797 45.0953L37.6797 115.236L35.538 115.236Z" fill="#FFBC0D"/>
<path d="M40.8934 115.236L40.8935 45.0953L43.0352 45.0953L43.0352 115.236L40.8934 115.236Z" fill="#FFBC0D"/>
<path d="M46.2489 115.236L46.2489 45.0953L48.3906 45.0953L48.3906 115.236L46.2489 115.236Z" fill="#FFBC0D"/>
<path d="M51.6005 115.236L51.6005 45.0953L53.7422 45.0953L53.7422 115.236L51.6005 115.236Z" fill="#FFBC0D"/>
<path d="M56.9559 115.236L56.956 45.0953L59.0977 45.0953L59.0977 115.236L56.9559 115.236Z" fill="#FFBC0D"/>
<path d="M62.3114 115.236L62.3114 45.0953L64.4531 45.0953L64.4531 115.236L62.3114 115.236Z" fill="#FFBC0D"/>
</g>
<path fill-rule="evenodd" clip-rule="evenodd" d="M68.2021 64.4638C55.8772 64.4638 45.4766 70.8796 42.2075 79.6563C39.682 79.7792 37.1563 79.9199 34.6305 80.0784C33.4529 80.1522 32.2909 79.9218 31.8922 78.9571C31.7734 78.6698 31.7383 78.3616 31.79 78.0597L42.1818 17.3176C42.3552 16.304 43.4443 15.6042 44.6144 15.7544C44.7263 15.7687 44.8367 15.7908 44.9446 15.8202C52.2072 17.8043 59.9386 18.7964 68.1389 18.7964C76.3703 18.7964 84.236 17.7968 91.736 15.7976C92.8665 15.4962 94.065 16.0459 94.4129 17.0252C94.4447 17.1147 94.4686 17.2062 94.4844 17.2988L104.879 78.0562C105.052 79.0698 104.244 80.0132 103.074 80.1634C102.889 80.1871 100.357 80.0402 98.0978 80.0784C96.0918 80.1122 94.3288 80.386 94.1905 79.6398C90.9146 70.8715 80.5193 64.4638 68.2021 64.4638Z" fill="#DB0007"/>
<path d="M61.8682 51.137C59.4244 51.137 57.4365 41.1212 57.4365 28.7651L53.8801 28.7651C53.8801 42.0572 57.5277 52.8407 61.8682 52.8407C64.3667 52.8407 66.61 49.6019 68.069 44.5284C69.4915 49.6206 71.7712 52.8594 74.288 52.8594C78.6103 52.8594 82.2578 42.0759 82.2578 28.7839L78.7197 28.7839C78.7197 41.1212 76.7865 51.137 74.288 51.137C71.7894 51.137 69.8563 41.8887 69.8563 30.5436L66.3182 30.5436C66.3182 41.9449 64.3303 51.137 61.8864 51.137" fill="#FFBC0D"/>
<mask id="path-18-outside-1_1001_45087" maskUnits="userSpaceOnUse" x="29.7656" y="13.7148" width="77" height="89" fill="black">
<rect fill="white" x="29.7656" y="13.7148" width="77" height="89"/>
<path d="M91.7344 15.7979C92.8649 15.4965 94.0633 16.0461 94.4111 17.0254C94.4429 17.1148 94.4666 17.2063 94.4824 17.2988L104.877 78.0557C105.05 79.0691 104.243 80.0127 103.073 80.1631C103.064 80.1642 103.05 80.1627 103.03 80.1631L103.136 82.0225H100.256C95.6922 92.4757 83.256 99.9764 68.627 99.9766C53.9977 99.9766 41.5608 92.4758 36.9971 82.0225H33.5303L33.6348 80.0537C32.8464 79.9563 32.1747 79.6442 31.8906 78.957C31.7719 78.6698 31.7365 78.3614 31.7881 78.0596L34.626 61.4707L34.6348 61.3105H34.6533L42.1807 17.3174C42.3541 16.3039 43.4433 15.6037 44.6133 15.7539C44.725 15.7683 44.8356 15.7909 44.9434 15.8203C52.2059 17.8043 59.9376 18.7959 68.1377 18.7959C76.3689 18.7959 84.2345 17.797 91.7344 15.7979Z"/>
</mask>
<path d="M91.7344 15.7979L92.2014 17.55L92.2014 17.55L91.7344 15.7979ZM94.4111 17.0254L96.12 16.4187L96.1199 16.4184L94.4111 17.0254ZM94.4824 17.2988L92.6951 17.6046V17.6046L94.4824 17.2988ZM104.877 78.0557L106.664 77.7499V77.7499L104.877 78.0557ZM103.073 80.1631L103.304 81.9617L103.304 81.9616L103.073 80.1631ZM103.03 80.1631L102.993 78.3501L101.113 78.3883L101.22 80.2658L103.03 80.1631ZM103.136 82.0225V83.8358H105.055L104.946 81.9198L103.136 82.0225ZM100.256 82.0225V80.2091H99.0689L98.594 81.2969L100.256 82.0225ZM68.627 99.9766V101.79H68.627L68.627 99.9766ZM36.9971 82.0225L38.6589 81.2969L38.184 80.2091H36.9971V82.0225ZM33.5303 82.0225L31.7195 81.9264L31.6181 83.8358H33.5303V82.0225ZM33.6348 80.0537L35.4455 80.1498L35.5352 78.4614L33.8572 78.2541L33.6348 80.0537ZM31.8906 78.957L30.2148 79.6497L30.2148 79.6498L31.8906 78.957ZM31.7881 78.0596L30.0007 77.7538L30.0007 77.7539L31.7881 78.0596ZM34.626 61.4707L36.4133 61.7765L36.4309 61.6739L36.4366 61.5701L34.626 61.4707ZM34.6348 61.3105V59.4972H32.9182L32.8242 61.2112L34.6348 61.3105ZM34.6533 61.3105V63.1239H36.1827L36.4407 61.6164L34.6533 61.3105ZM42.1807 17.3174L40.3933 17.0115L40.3933 17.0116L42.1807 17.3174ZM44.6133 15.7539L44.8445 13.9554L44.8442 13.9553L44.6133 15.7539ZM44.9434 15.8203L44.4655 17.5695L44.4655 17.5695L44.9434 15.8203ZM68.1377 18.7959V20.6092H68.1377L68.1377 18.7959ZM91.7344 15.7979L92.2014 17.55C92.351 17.5101 92.5013 17.5296 92.6104 17.5796C92.7209 17.6303 92.717 17.6733 92.7024 17.6324L94.4111 17.0254L96.1199 16.4184C95.3976 14.385 93.1324 13.5485 91.2673 14.0457L91.7344 15.7979ZM94.4111 17.0254L92.7023 17.6321C92.6988 17.6222 92.6965 17.613 92.6951 17.6046L94.4824 17.2988L96.2698 16.993C96.2367 16.7996 96.187 16.6074 96.12 16.4187L94.4111 17.0254ZM94.4824 17.2988L92.6951 17.6046L103.09 78.3615L104.877 78.0557L106.664 77.7499L96.2698 16.993L94.4824 17.2988ZM104.877 78.0557L103.09 78.3615C103.085 78.3331 103.087 78.3002 103.095 78.2731C103.102 78.2487 103.11 78.244 103.101 78.254C103.083 78.2756 103.006 78.3435 102.842 78.3646L103.073 80.1631L103.304 81.9616C105.242 81.7124 107.052 80.0158 106.664 77.7499L104.877 78.0557ZM103.073 80.1631L102.842 78.3645C102.897 78.3575 102.942 78.3543 102.974 78.3526C103.007 78.3508 103.034 78.3504 103.052 78.3502C103.069 78.3501 103.083 78.3503 103.091 78.3504C103.095 78.3505 103.098 78.3505 103.1 78.3506C103.102 78.3506 103.104 78.3507 103.104 78.3507C103.11 78.3508 103.055 78.3489 102.993 78.3501L103.03 80.1631L103.067 81.976C103.025 81.9769 102.987 81.9755 103.008 81.9761C103.011 81.9761 103.042 81.9771 103.079 81.9768C103.1 81.9766 103.13 81.9761 103.165 81.9742C103.2 81.9724 103.248 81.9689 103.304 81.9617L103.073 80.1631ZM103.03 80.1631L101.22 80.2658L101.325 82.1252L103.136 82.0225L104.946 81.9198L104.841 80.0604L103.03 80.1631ZM103.136 82.0225V80.2091H100.256V82.0225V83.8358H103.136V82.0225ZM100.256 82.0225L98.594 81.2969C94.3805 90.9482 82.7029 98.1631 68.6269 98.1632L68.627 99.9766L68.627 101.79C83.809 101.79 97.0039 94.0033 101.918 82.748L100.256 82.0225ZM68.627 99.9766V98.1632C54.5508 98.1632 42.8725 90.9483 38.6589 81.2969L36.9971 82.0225L35.3352 82.748C40.2491 94.0034 53.4447 101.79 68.627 101.79V99.9766ZM36.9971 82.0225V80.2091H33.5303V82.0225V83.8358H36.9971V82.0225ZM33.5303 82.0225L35.3411 82.1186L35.4455 80.1498L33.6348 80.0537L31.824 79.9576L31.7195 81.9264L33.5303 82.0225ZM33.6348 80.0537L33.8572 78.2541C33.7442 78.2401 33.657 78.221 33.5926 78.2016C33.5283 78.1822 33.4963 78.1655 33.4871 78.1601C33.4795 78.1557 33.4944 78.1632 33.517 78.1882C33.541 78.2148 33.5578 78.2435 33.5664 78.2642L31.8906 78.957L30.2148 79.6498C30.8658 81.2245 32.352 81.7223 33.4124 81.8534L33.6348 80.0537ZM31.8906 78.957L33.5664 78.2643C33.5704 78.274 33.5749 78.2887 33.5771 78.3076C33.5792 78.3267 33.5787 78.3464 33.5755 78.3652L31.7881 78.0596L30.0007 77.7539C29.8904 78.3989 29.9681 79.0529 30.2148 79.6497L31.8906 78.957ZM31.7881 78.0596L33.5755 78.3653L36.4133 61.7765L34.626 61.4707L32.8386 61.1649L30.0007 77.7538L31.7881 78.0596ZM34.626 61.4707L36.4366 61.5701L36.4454 61.4099L34.6348 61.3105L32.8242 61.2112L32.8154 61.3713L34.626 61.4707ZM34.6348 61.3105V63.1239H34.6533V61.3105V59.4972H34.6348V61.3105ZM34.6533 61.3105L36.4407 61.6164L43.968 17.6232L42.1807 17.3174L40.3933 17.0116L32.866 61.0047L34.6533 61.3105ZM42.1807 17.3174L43.968 17.6233C43.9566 17.6901 43.9263 17.6744 44.0037 17.6247C44.082 17.5744 44.2173 17.5313 44.3824 17.5525L44.6133 15.7539L44.8442 13.9553C42.9351 13.7102 40.7665 14.8311 40.3933 17.0115L42.1807 17.3174ZM44.6133 15.7539L44.3821 17.5524C44.4057 17.5555 44.4339 17.5609 44.4655 17.5695L44.9434 15.8203L45.4212 14.0711C45.2374 14.0208 45.0444 13.9811 44.8445 13.9554L44.6133 15.7539ZM44.9434 15.8203L44.4655 17.5695C51.897 19.5997 59.7905 20.6092 68.1377 20.6092V18.7959V16.9826C60.0847 16.9826 52.5147 16.0089 45.4212 14.0711L44.9434 15.8203ZM68.1377 18.7959L68.1377 20.6092C76.5169 20.6092 84.5402 19.5921 92.2014 17.55L91.7344 15.7979L91.2673 14.0457C83.9288 16.0018 76.2208 16.9825 68.1377 16.9826L68.1377 18.7959Z" fill="white" mask="url(#path-18-outside-1_1001_45087)"/>
<ellipse cx="68.6368" cy="123.791" rx="48.3555" ry="6.04444" fill="#A0A09F" fill-opacity="0.15"/>
</g>
<defs>
<clipPath id="clip0_1001_45087">
<rect width="136" height="136" fill="white"/>
</clipPath>
</defs>
</svg>
