<svg width="375" height="225" viewBox="0 0 375 225" fill="none" xmlns="http://www.w3.org/2000/svg">
<g clip-path="url(#clip0_102_69667)">
<path d="M184.5 4C262.096 4 325 66.904 325 144.5C325 163.443 321.249 181.51 314.453 198H54.5469C47.7506 181.51 44 163.443 44 144.5C44 66.904 106.904 4 184.5 4Z" fill="#DCEDF4"/>
<ellipse cx="184" cy="203" rx="153" ry="14" fill="#A0A09F" fill-opacity="0.15"/>
<path d="M316 97V124H264L264.005 97H316Z" fill="#FFBC0D"/>
<path d="M190.926 120H77V97H191L190.926 120Z" fill="#FFBC0D"/>
<path d="M191 99L190.97 108H77V99H191Z" fill="black" fill-opacity="0.1"/>
<path d="M316 99V108H264L264.002 99H316Z" fill="black" fill-opacity="0.1"/>
<path d="M264 124H287V203H264V124Z" fill="#F9F9F9"/>
<path d="M288 124H316V203H288V124Z" fill="#F9F9F9"/>
<path d="M191 89L190.967 98.999L73.8004 99C72.8061 99 72 98.1942 72 97.2002V90.8008C72 89.8068 72.8061 89.001 73.8004 89.001L191 89Z" fill="#FFBC0D"/>
<path d="M318.212 89.001C319.2 89.001 320 89.8068 320 90.8008V97.2002C320 98.1942 319.2 99 318.212 99L264 98.999L264.002 89L318.212 89.001Z" fill="#FFBC0D"/>
<path d="M260.5 74.5234L260.473 202.998H194.569L194.5 74.5234L260.5 74.5234Z" fill="#F1F1F1"/>
<path d="M59.8 124H244.443C245.437 124 246.243 124.806 246.243 125.8V140H58V125.8C58 124.806 58.8059 124 59.8 124Z" fill="#606060"/>
<path d="M195 140H246V203H195V140Z" fill="#D8D8D8"/>
<path d="M109 140H137V203H109V140Z" fill="#F9F9F9"/>
<path d="M138 140H166V203H138V140Z" fill="#F9F9F9"/>
<path d="M167 140H195V203H167V140Z" fill="#F9F9F9"/>
<path d="M218 154H246V203H218V154Z" fill="#F9F9F9"/>
<path d="M58 198H109V204H58V198Z" fill="#A5835B"/>
<path d="M58 192H109V198H58V192Z" fill="#C2945C"/>
<path d="M58 187H109V193H58V187Z" fill="#A5835B"/>
<path d="M58 182H109V188H58V182Z" fill="#C2945C"/>
<path d="M58 177H109V183H58V177Z" fill="#A5835B"/>
<path d="M58 171H109V177H58V171Z" fill="#C2945C"/>
<path d="M58 166H109V172H58V166Z" fill="#A5835B"/>
<path d="M58 161H109V167H58V161Z" fill="#C2945C"/>
<path d="M58 156H109V162H58V156Z" fill="#A5835B"/>
<path d="M58 150H109V156H58V150Z" fill="#C2945C"/>
<path d="M58 145H109V151H58V145Z" fill="#A5835B"/>
<path d="M58 140H109V146H58V140Z" fill="#C2945C"/>
<path d="M136 140H140V203H136V140Z" fill="#D8D8D8"/>
<path d="M286 124H290V203H286V124Z" fill="#D8D8D8"/>
<path d="M312 124H316V203H312V124Z" fill="#D8D8D8"/>
<path d="M165 140H169V203H165V140Z" fill="#D8D8D8"/>
<path d="M218 154H246V160H218V154Z" fill="#A0A09F" fill-opacity="0.15"/>
<path d="M195 140H246V143H195V140Z" fill="#292929" fill-opacity="0.1"/>
<path d="M165 140H169V146H165V140Z" fill="#292929" fill-opacity="0.1"/>
<path d="M136 140H140V146H136V140Z" fill="#292929" fill-opacity="0.1"/>
<path d="M109 140H136V145H109V140Z" fill="#A0A09F" fill-opacity="0.15"/>
<path d="M140 140H165V145H140V140Z" fill="#A0A09F" fill-opacity="0.15"/>
<path d="M169 140H195V145H169V140Z" fill="#A0A09F" fill-opacity="0.15"/>
<path fill-rule="evenodd" clip-rule="evenodd" d="M236.023 86.7959C239.143 86.7959 241.672 99.9528 241.672 116.182H246.195C246.195 98.703 241.64 84.5352 236.023 84.5352C232.826 84.5352 229.975 88.7942 228.111 95.4522C226.247 88.7942 223.396 84.5352 220.2 84.5352C214.584 84.5352 210.027 98.703 210.027 116.182H214.55C214.55 99.9528 217.08 86.7959 220.2 86.7959C223.32 86.7959 225.85 98.9404 225.85 113.921H230.372C230.372 98.9404 232.902 86.7959 236.023 86.7959Z" fill="#FFBC0D"/>
<rect x="63" y="33" width="6" height="170" fill="#F9F9F9"/>
<rect x="66" y="33" width="3" height="170" fill="#F1F1F1"/>
<path d="M66 26C68.2091 26 70 27.7909 70 30C70 31.195 69.4754 32.267 68.6445 33H63.3555C62.5246 32.267 62 31.195 62 30C62 27.7909 63.7909 26 66 26Z" fill="#FFBC0D"/>
<path opacity="0.5" d="M66 26C67.3598 26 68.5605 26.6789 69.2832 27.7158C68.6357 27.2648 67.8489 27 67 27C64.7909 27 63 28.7909 63 31C63 31.8496 63.2659 32.6366 63.7178 33.2842C62.6799 32.5616 62 31.3605 62 30C62 27.7909 63.7909 26 66 26Z" fill="#F9F9F9"/>
<g clip-path="url(#clip1_102_69667)">
<path d="M69 33H124.323V69.882H69V33Z" fill="white"/>
<path d="M115.473 57.3413C114.797 57.7716 115.473 58.4478 115.104 58.5093C114.735 58.5707 114.182 57.6487 114.981 56.9725C115.965 56.0505 118.546 56.9725 118.608 59.6157C118.608 60.9681 118.054 63.7957 114.182 63.7957C109.51 63.7957 107.174 60.2919 107.174 56.7881C107.174 53.8375 109.449 48.4896 111.17 47.8135C113.075 47.0758 115.288 45.662 115.35 44.74C115.35 44.4326 114.489 44.6785 113.321 45.2932C111.416 46.3382 109.264 46.83 109.264 46.1538C109.264 45.4776 111.047 44.2482 111.723 43.3262C112.461 42.3426 112.276 39.9453 113.567 39.9453C118.239 39.9453 119.653 44.6785 117.87 47.1373C116.702 48.7355 120.513 47.752 120.513 47.752C120.513 47.752 120.513 51.0099 118.546 52.2393C116.702 53.3458 115.596 54.6366 115.596 54.6366C115.596 54.6366 115.719 51.809 115.288 52.2393C114.92 52.6696 108.465 55.0055 108.957 59.6157C109.141 61.4598 111.723 62.9351 114.182 62.8122C116.641 62.6892 117.686 61.3369 117.747 59.8001C117.809 57.4028 115.903 57.0954 115.473 57.3413ZM75.5787 59.8001C75.6401 61.3369 76.6851 62.6892 79.1439 62.8122C81.6027 62.9351 84.1845 61.4598 84.3689 59.6157C84.8606 55.0055 78.4063 52.6696 78.0375 52.2393C77.6072 51.809 77.7301 54.6366 77.7301 54.6366C77.7301 54.6366 76.6236 53.3458 74.7795 52.2393C72.8125 51.0099 72.8125 47.752 72.8125 47.752C72.8125 47.752 76.6236 48.7355 75.4557 47.1373C73.6731 44.6785 75.0869 39.9453 79.7586 39.9453C81.0495 39.9453 80.8651 42.3426 81.6027 43.3262C82.2789 44.2482 84.0615 45.4776 84.0615 46.1538C84.0615 46.83 81.9101 46.3382 80.0045 45.2932C78.8366 44.6785 77.976 44.4326 77.976 44.74C78.0375 45.662 80.2504 47.0758 82.156 47.8135C83.8771 48.4896 86.1515 53.8375 86.1515 56.7881C86.1515 60.2919 83.8156 63.7957 79.1439 63.7957C75.2713 63.7957 74.7181 60.9681 74.7181 59.6157C74.7795 56.9725 77.3613 56.0505 78.3448 56.9725C79.0824 57.6487 78.5907 58.6322 78.2219 58.5093C77.853 58.4478 78.5907 57.7716 77.853 57.3413C77.4842 57.0954 75.5787 57.4028 75.5787 59.8001Z" fill="#ABABAB"/>
<path fill-rule="evenodd" clip-rule="evenodd" d="M75.1968 42.6268C74.484 44.1137 74.5765 45.9063 75.4645 47.1311C75.611 47.3317 75.681 47.4936 75.6888 47.6235C75.6966 47.7548 75.641 47.8518 75.5409 47.9205C75.4418 47.9886 75.2992 48.0288 75.1321 48.0493C74.9648 48.0698 74.7713 48.0708 74.5692 48.0592C74.1649 48.0361 73.7243 47.963 73.385 47.8957C73.2153 47.862 73.0708 47.8298 72.9688 47.806C72.9177 47.7941 72.8773 47.7843 72.8496 47.7775C72.8393 47.7749 72.8307 47.7728 72.824 47.7711C72.8241 47.7764 72.8242 47.7828 72.8243 47.7904C72.8248 47.8145 72.8257 47.85 72.8277 47.8956C72.8315 47.9869 72.8392 48.1187 72.8545 48.2808C72.8852 48.6049 72.9466 49.0498 73.0693 49.5331C73.3149 50.5001 73.8054 51.6176 74.7844 52.2296C75.7074 52.7833 76.4457 53.3832 76.9533 53.8447C77.2071 54.0754 77.4033 54.2716 77.536 54.4101C77.6024 54.4793 77.6529 54.5342 77.6868 54.5717C77.697 54.5831 77.7058 54.5928 77.713 54.6009C77.7122 54.5806 77.7112 54.5527 77.71 54.5182C77.7075 54.4417 77.7044 54.3328 77.702 54.2036C77.6972 53.9451 77.6953 53.6048 77.7068 53.2779C77.7183 52.9513 77.7433 52.637 77.7927 52.431C77.805 52.3794 77.819 52.3343 77.8348 52.2972C77.8505 52.2604 77.8685 52.2307 77.8893 52.2108C77.9104 52.1906 77.935 52.1802 77.9627 52.1837C77.9896 52.1872 78.0169 52.2036 78.0448 52.2315L78.0456 52.2323C78.0671 52.2574 78.1122 52.2908 78.1797 52.3327C78.2468 52.3744 78.3345 52.4236 78.4398 52.4806C78.533 52.531 78.6399 52.5874 78.7582 52.6499C78.7736 52.658 78.7892 52.6663 78.805 52.6746C78.9421 52.747 79.0934 52.8271 79.2558 52.915C79.9053 53.2667 80.732 53.7434 81.5319 54.3511C83.1311 55.5659 84.6268 57.3065 84.3801 59.6189M72.8104 47.7538L72.8137 47.7407L72.7969 47.7364L72.7969 47.7538H72.8104ZM79.996 45.3068C80.9497 45.8298 81.9651 46.2145 82.7426 46.3839C83.1311 46.4685 83.4615 46.4996 83.6953 46.4666C83.8122 46.4501 83.9064 46.4174 83.9715 46.3662C84.0373 46.3144 84.0729 46.2442 84.0729 46.1555C84.0729 46.0682 84.0441 45.9729 83.9935 45.8717C83.9429 45.7705 83.87 45.6626 83.7809 45.5498C83.6025 45.3242 83.358 45.0778 83.0929 44.8242C82.9812 44.7174 82.8659 44.6093 82.7504 44.501C82.3162 44.094 81.8777 43.6831 81.6114 43.32L81.6114 43.3198C81.4285 43.076 81.3022 42.7437 81.1957 42.3809C81.1425 42.1997 81.0943 42.0112 81.0464 41.8227L81.0398 41.7969C80.9941 41.6171 80.9485 41.4375 80.8989 41.265C80.7952 40.9036 80.6736 40.5712 80.4963 40.3291C80.3186 40.0862 80.0843 39.9336 79.7565 39.9336C77.4154 39.9336 75.8893 41.1199 75.1725 42.6152C74.4561 44.1097 74.548 45.913 75.4427 47.147C75.5881 47.346 75.6545 47.5029 75.6619 47.6251C75.6691 47.746 75.6187 47.8344 75.5257 47.8982C75.4318 47.9627 75.2943 48.0022 75.1288 48.0225C74.9637 48.0428 74.772 48.0438 74.5707 48.0323C74.1682 48.0093 73.729 47.9364 73.3902 47.8692C73.2209 47.8357 73.0767 47.8035 72.9749 47.7798C72.924 47.7679 72.8837 47.7581 72.8561 47.7513C72.8423 47.7479 72.8317 47.7453 72.8246 47.7435L72.8164 47.7414L72.8144 47.7409L72.8139 47.7408L72.8137 47.7407C72.8137 47.7407 72.8137 47.7407 72.8104 47.7538M81.5897 43.336C81.4038 43.088 81.2765 42.7519 81.1698 42.3885C81.1165 42.2067 81.0681 42.0178 81.0202 41.8293L81.0137 41.8036C80.968 41.6237 80.9225 41.4445 80.873 41.2724C80.7694 40.9115 80.6489 40.5831 80.4746 40.345C80.3008 40.1076 80.0741 39.9606 79.7565 39.9606C77.4259 39.9606 75.9092 41.1408 75.1968 42.6268M111.732 43.3359C111.918 43.088 112.045 42.7518 112.152 42.3885L111.732 43.3359ZM113.326 45.3068C112.372 45.8298 111.356 46.2145 110.579 46.3839C110.19 46.4685 109.86 46.4996 109.626 46.4666C109.509 46.4501 109.415 46.4174 109.35 46.3662C109.284 46.3144 109.249 46.2442 109.249 46.1555C109.249 46.0682 109.277 45.9729 109.328 45.8717C109.379 45.7705 109.451 45.6626 109.541 45.5498C109.719 45.3242 109.964 45.0778 110.229 44.8242C110.34 44.7174 110.456 44.6094 110.571 44.501C111.005 44.094 111.444 43.6831 111.71 43.32L111.71 43.3198C111.893 43.076 112.019 42.7437 112.126 42.3809C112.179 42.1997 112.227 42.0112 112.275 41.8227L112.282 41.797C112.327 41.6171 112.373 41.4375 112.423 41.265C112.526 40.9036 112.648 40.5712 112.825 40.3291C113.003 40.0862 113.237 39.9336 113.565 39.9336C115.906 39.9336 117.432 41.1199 118.149 42.6152C118.865 44.1097 118.773 45.913 117.879 47.147C117.733 47.346 117.667 47.5029 117.66 47.6251C117.652 47.746 117.703 47.8344 117.796 47.8982C117.89 47.9627 118.027 48.0022 118.193 48.0225C118.358 48.0428 118.55 48.0438 118.751 48.0323C119.153 48.0093 119.592 47.9364 119.931 47.8692C120.101 47.8357 120.245 47.8035 120.347 47.7798C120.398 47.7679 120.438 47.7581 120.465 47.7513C120.479 47.7479 120.49 47.7453 120.497 47.7435L120.505 47.7414L120.508 47.7407C120.508 47.7407 120.508 47.7407 120.511 47.7538C120.525 47.7538 120.525 47.7538 120.525 47.7538V47.7539L120.525 47.7544L120.525 47.7562L120.525 47.7633C120.525 47.7695 120.524 47.7788 120.524 47.7909C120.524 47.8152 120.523 47.8509 120.521 47.8967C120.517 47.9884 120.509 48.1207 120.494 48.2833C120.463 48.6084 120.401 49.0548 120.278 49.5397C120.032 50.509 119.539 51.635 118.551 52.2525L118.551 52.2526C117.63 52.8053 116.893 53.4041 116.386 53.8646C116.133 54.0949 115.937 54.2906 115.805 54.4287C115.739 54.4978 115.688 54.5525 115.655 54.5898C115.638 54.6085 115.625 54.6229 115.617 54.6325C115.612 54.6374 115.609 54.6411 115.607 54.6435L115.605 54.6463L115.604 54.647L115.604 54.6471C115.604 54.6471 115.604 54.6472 115.594 54.6384C115.58 54.6378 115.58 54.6378 115.58 54.6378L115.58 54.6358L115.58 54.6298C115.581 54.6244 115.581 54.6165 115.581 54.6062C115.582 54.5857 115.583 54.5555 115.585 54.5173C115.587 54.4409 115.59 54.3322 115.593 54.2031C115.597 53.9448 115.599 53.6051 115.588 53.2789C115.576 52.9523 115.551 52.6404 115.503 52.4373C115.49 52.3866 115.477 52.343 115.462 52.3078C115.447 52.2725 115.431 52.2466 115.414 52.2303C115.397 52.2143 115.38 52.2082 115.362 52.2105C115.344 52.2128 115.322 52.2246 115.296 52.2502C115.271 52.2788 115.223 52.314 115.156 52.3556C115.088 52.3977 115 52.4473 114.894 52.5043C114.801 52.5549 114.694 52.6113 114.576 52.6738L114.529 52.6984C114.392 52.7708 114.241 52.8509 114.079 52.9387C113.43 53.2901 112.604 53.7661 111.806 54.3725C110.209 55.5858 108.723 57.3182 108.968 59.616C109.06 60.5322 109.747 61.3589 110.721 61.9418C111.695 62.5244 112.952 62.8618 114.179 62.8005C115.406 62.7391 116.279 62.3711 116.852 61.8283C117.425 61.2856 117.701 60.5668 117.732 59.8015C117.762 58.6069 117.303 57.9354 116.785 57.5925C116.525 57.4208 116.251 57.3312 116.014 57.2998C115.778 57.2683 115.581 57.2954 115.478 57.3546M115.594 54.6384L115.58 54.6378L115.578 54.6768L115.604 54.6471L115.594 54.6384ZM115.609 54.6009C115.609 54.6004 115.61 54.5998 115.61 54.5992C115.617 54.5915 115.625 54.5823 115.635 54.5717C115.669 54.5342 115.719 54.4793 115.786 54.4101C115.918 54.2716 116.114 54.0754 116.368 53.8447C116.876 53.3832 117.614 52.7833 118.537 52.2295C119.516 51.6176 120.007 50.5001 120.252 49.5331C120.375 49.0498 120.436 48.6049 120.467 48.2808C120.482 48.1187 120.49 47.9869 120.494 47.8956C120.496 47.85 120.497 47.8145 120.497 47.7904C120.497 47.7828 120.497 47.7764 120.498 47.7711L120.494 47.772C120.488 47.7735 120.481 47.7754 120.472 47.7775C120.444 47.7843 120.404 47.7941 120.353 47.806C120.251 47.8298 120.106 47.862 119.937 47.8957C119.597 47.963 119.157 48.0361 118.752 48.0592C118.55 48.0708 118.357 48.0698 118.189 48.0493C118.022 48.0288 117.88 47.9886 117.781 47.9205C117.681 47.8518 117.625 47.7548 117.633 47.6235C117.641 47.4936 117.71 47.3317 117.857 47.1311C118.745 45.9063 118.837 44.1137 118.125 42.6268C117.412 41.1408 115.896 39.9606 113.565 39.9606C113.247 39.9606 113.021 40.1076 112.847 40.345C112.673 40.5831 112.552 40.9115 112.448 41.2724C112.399 41.4445 112.354 41.6236 112.308 41.8035L112.301 41.8293C112.253 42.0178 112.205 42.2067 112.152 42.3885M115.609 54.6009C115.609 54.5909 115.609 54.5791 115.61 54.5655C115.61 54.5515 115.611 54.5357 115.611 54.5182C115.614 54.4417 115.617 54.3328 115.62 54.2036C115.624 53.9451 115.626 53.6048 115.615 53.2779C115.603 52.9513 115.578 52.637 115.529 52.431C115.516 52.3794 115.503 52.3343 115.487 52.2972C115.471 52.2604 115.453 52.2307 115.432 52.2108C115.411 52.1906 115.386 52.1802 115.359 52.1837C115.332 52.1872 115.305 52.2036 115.277 52.2315L115.276 52.2323C115.254 52.2574 115.209 52.2908 115.142 52.3327C115.075 52.3744 114.987 52.4236 114.882 52.4806C114.788 52.5311 114.682 52.5875 114.563 52.65L114.516 52.6746C114.379 52.747 114.228 52.8271 114.066 52.915C113.416 53.2667 112.59 53.7434 111.79 54.3511C110.19 55.5659 108.695 57.3065 108.941 59.6189C109.034 60.5469 109.73 61.3798 110.707 61.9649C111.685 62.5502 112.948 62.889 114.18 62.8274C115.412 62.7658 116.291 62.3962 116.871 61.8479C117.45 61.2995 117.728 60.5737 117.758 59.8024L117.758 59.8022C117.789 58.5995 117.326 57.9187 116.8 57.57C116.537 57.396 116.258 57.305 116.018 57.2731C115.779 57.2412 115.575 57.2678 115.464 57.3314M120.511 47.7538L120.525 47.7538V47.7364L120.508 47.7407L120.511 47.7538Z" fill="#7F7F7F"/>
<path d="M88.0547 50.7021V59.3079C88.0547 60.4758 89.3456 60.2914 89.3456 60.2914H95.0623C95.7999 60.2914 96.6605 61.7052 96.6605 61.7052C96.6605 61.7052 97.5211 60.2914 98.1973 60.2914H104.098C104.098 60.2914 105.328 60.4144 105.328 59.185V50.6406H88.0547V50.7021Z" fill="#DE393A"/>
<path d="M88.0547 41.0508H105.266V50.7016H88.0547V41.0508Z" fill="#3951A3"/>
<path d="M99.7969 43.1406C99.551 44.6159 98.2601 45.7224 96.6619 45.7224C95.1251 45.7224 93.8343 44.6159 93.5269 43.1406C93.2196 43.6939 93.0352 44.3086 93.0352 44.9847C93.0352 47.0132 94.6334 48.6115 96.6619 48.6115C98.6904 48.6115 100.289 47.0132 100.289 44.9847C100.289 44.3086 100.104 43.6939 99.7969 43.1406Z" fill="white"/>
<path d="M93.0355 57.282C94.054 57.282 94.8796 56.4563 94.8796 55.4379C94.8796 54.4194 94.054 53.5938 93.0355 53.5938C92.017 53.5938 91.1914 54.4194 91.1914 55.4379C91.1914 56.4563 92.017 57.282 93.0355 57.282Z" fill="#FEE05F"/>
<path d="M100.289 57.282C101.308 57.282 102.134 56.4563 102.134 55.4379C102.134 54.4194 101.308 53.5938 100.289 53.5938C99.2709 53.5938 98.4453 54.4194 98.4453 55.4379C98.4453 56.4563 99.2709 57.282 100.289 57.282Z" fill="#FEE05F"/>
</g>
<path d="M67.8158 205.5L68.7364 205.494C75.9374 205.404 81.6316 204.137 81.6316 196.816C81.6316 189.186 75.446 183 67.8158 183C60.1855 183 54 189.186 54 196.816C54 204.446 60.1855 205.5 67.8158 205.5Z" fill="#9CC93A"/>
<path d="M98.8158 205.5L99.7364 205.494C106.937 205.404 112.632 204.137 112.632 196.816C112.632 189.186 106.446 183 98.8158 183C91.1855 183 85 189.186 85 196.816C85 204.446 91.1855 205.5 98.8158 205.5Z" fill="#9CC93A"/>
<path d="M128.816 205.5L129.736 205.494C136.937 205.404 142.632 204.137 142.632 196.816C142.632 189.186 136.446 183 128.816 183C121.186 183 115 189.186 115 196.816C115 204.446 121.186 205.5 128.816 205.5Z" fill="#9CC93A"/>
<path d="M253.561 29.8555C255.088 29.8555 256.327 31.0943 256.327 32.6221C256.327 34.0685 255.217 35.2538 253.802 35.376C254.09 36.0127 254.252 36.7186 254.252 37.4629C254.252 40.2639 251.982 42.5342 249.181 42.5342H257.94C260.741 42.5342 263.013 44.8055 263.013 47.6064H269.929C272.729 47.6066 275 49.8769 275 52.6777C275 55.4786 272.73 57.7498 269.929 57.75H262.332C261.455 59.2653 259.817 60.2852 257.94 60.2852H215.523C213.647 60.2852 212.009 59.2653 211.132 57.75H206.071C203.27 57.7498 201 55.4786 201 52.6777C201 49.8769 203.271 47.6066 206.071 47.6064H210.452C210.452 44.8055 212.722 42.5342 215.523 42.5342H221.748C221.748 39.7334 224.018 37.4629 226.819 37.4629H235.349C235.349 34.6619 237.62 32.3916 240.421 32.3916H249.181C249.746 32.3916 250.288 32.4849 250.796 32.6553C250.796 32.6442 250.795 32.6332 250.795 32.6221C250.795 31.0943 252.033 29.8556 253.561 29.8555Z" fill="white"/>
<path d="M140.047 2C143.684 2 146.634 4.94858 146.634 8.58594C146.634 8.65081 146.631 8.71586 146.629 8.78027H148.184C150.537 8.78048 152.445 10.6884 152.445 13.042H155.738C158.092 13.042 160 14.95 160 17.3037C160 19.6574 158.092 21.5654 155.738 21.5654H153.229C152.493 22.8389 151.116 23.6963 149.539 23.6963H133.461C131.884 23.6963 130.507 22.8389 129.771 21.5654H127.262C124.908 21.5654 123 19.6574 123 17.3037C123 14.95 124.908 13.042 127.262 13.042H127.843C127.843 10.6883 129.751 8.78037 132.104 8.78027H133.466C133.464 8.71585 133.461 8.65081 133.461 8.58594C133.461 4.94867 136.41 2.00015 140.047 2Z" fill="white"/>
</g>
<defs>
<clipPath id="clip0_102_69667">
<rect width="375" height="225" fill="white"/>
</clipPath>
<clipPath id="clip1_102_69667">
<rect width="55.3231" height="36.882" fill="white" transform="translate(69 33)"/>
</clipPath>
</defs>
</svg>
