<svg width="27" height="18" viewBox="0 0 27 18" fill="none" xmlns="http://www.w3.org/2000/svg">
<g clip-path="url(#clip0_109_43887)">
<path d="M0 12.3594H27V17.9994H0V12.3594Z" fill="#009543"/>
<path d="M0 5.56641H27V12.3707H0V5.56641Z" fill="#ED4135"/>
<path d="M0 0H27V5.62315H0V0Z" fill="#0035AD"/>
<path d="M10.1244 15.6344C13.7894 15.6344 16.7605 12.6636 16.7605 8.99886C16.7605 5.33413 13.7894 2.36328 10.1244 2.36328C6.45936 2.36328 3.48828 5.33413 3.48828 8.99886C3.48828 12.6636 6.45936 15.6344 10.1244 15.6344Z" fill="#FAE600"/>
<path fill-rule="evenodd" clip-rule="evenodd" d="M10.1232 2.50158C6.53524 2.50158 3.6266 5.40999 3.6266 8.9977C3.6266 12.5854 6.53524 15.4938 10.1232 15.4938C13.7112 15.4938 16.6198 12.5854 16.6198 8.9977C16.6198 5.40999 13.7112 2.50158 10.1232 2.50158ZM3.34766 8.9977C3.34766 5.25595 6.38118 2.22266 10.1232 2.22266C13.8653 2.22266 16.8988 5.25595 16.8988 8.9977C16.8988 12.7394 13.8653 15.7727 10.1232 15.7727C6.38118 15.7727 3.34766 12.7394 3.34766 8.9977Z" fill="black"/>
<path d="M12.9894 14.9553L11.6478 15.4615L10.1248 15.6387L8.53016 15.5374L7.01562 14.8836C7.01562 14.8836 8.22219 13.6476 8.73266 13.4704C9.09547 13.3438 9.67766 13.3143 9.67766 13.3143V5.14744L9.665 2.36328H10.378L10.3569 5.21072V13.2974C10.3569 13.2974 11.0023 13.3481 11.2892 13.4704C11.7659 13.6771 12.9894 14.9553 12.9894 14.9553Z" fill="black"/>
<path d="M8.97266 4.31756L10.7848 3.41406L11.0201 3.88598L9.20794 4.78944L8.97266 4.31756Z" fill="black"/>
<path d="M10.033 12.9506C10.4244 12.9506 10.7417 12.4501 10.7417 11.8327C10.7417 11.2153 10.4244 10.7148 10.033 10.7148C9.64154 10.7148 9.32422 11.2153 9.32422 11.8327C9.32422 12.4501 9.64154 12.9506 10.033 12.9506Z" fill="black"/>
<path d="M10.0145 6.93127C10.5015 6.93127 10.8962 6.53654 10.8962 6.04962C10.8962 5.5627 10.5015 5.16797 10.0145 5.16797C9.52757 5.16797 9.13281 5.5627 9.13281 6.04962C9.13281 6.53654 9.52757 6.93127 10.0145 6.93127Z" fill="black"/>
<path d="M10.0583 9.41539C10.5219 9.41539 10.8978 9.18686 10.8978 8.90496C10.8978 8.62306 10.5219 8.39453 10.0583 8.39453C9.59462 8.39453 9.21875 8.62306 9.21875 8.90496C9.21875 9.18686 9.59462 9.41539 10.0583 9.41539Z" fill="black"/>
<path d="M9.01953 7.46484H11.0023V7.88669H9.01953V7.46484ZM9.01953 9.86934H11.0023V10.2912H9.01953V9.86934Z" fill="black"/>
</g>
<rect x="0.5" y="0.5" width="26" height="17" rx="0.5" stroke="black" stroke-opacity="0.2"/>
<defs>
<clipPath id="clip0_109_43887">
<rect width="27" height="18" rx="1" fill="white"/>
</clipPath>
</defs>
</svg>
