<svg width="153" height="98" viewBox="0 0 153 98" fill="none" xmlns="http://www.w3.org/2000/svg">
<path d="M130.798 24.2852C126.044 24.2852 121.803 30.6214 119.024 40.5293C116.25 30.6214 112.009 24.2852 107.255 24.2852C98.8968 24.2852 92.125 45.3754 92.125 71.3669H98.8464C98.8464 47.2231 102.611 27.6504 107.255 27.6504C111.899 27.6504 115.664 45.7193 115.664 67.9971H122.39C122.39 45.7101 126.154 27.6504 130.798 27.6504C135.443 27.6504 139.207 47.2094 139.207 71.3669H145.933C145.933 45.3754 139.156 24.2852 130.798 24.2852Z" fill="#FFBC0D"/>
<path d="M6.26562 58.5517L8.7552 36.2969H14.5688L19.2178 50.2806L23.9035 36.2969H29.7125L32.2067 58.5517H26.2464L24.9626 44.9668L21.0105 56.9241H17.3426L13.34 44.8339L12.0104 58.5517H6.26562ZM39.4782 58.9827C38.1049 59.0426 36.7558 58.6065 35.6774 57.7539C35.1793 57.325 34.7867 56.7872 34.5299 56.1822C34.2731 55.5771 34.159 54.9211 34.1965 54.2649C34.1602 53.2073 34.4961 52.1706 35.1456 51.3352C35.8128 50.5293 36.6677 49.8996 37.6351 49.5012C38.7077 49.0415 39.8336 48.718 40.9867 48.5384C42.1459 48.3547 43.3161 48.249 44.4895 48.2221V47.8553C44.5362 47.0812 44.3442 46.3114 43.9393 45.65C43.7655 45.3952 43.5292 45.1894 43.253 45.0521C42.9769 44.9148 42.6701 44.8507 42.3621 44.8659C41.8231 44.8532 41.3003 45.0505 40.9041 45.4161C40.4755 45.8385 40.2052 46.3953 40.1385 46.9933H34.8292C34.9389 46.1752 35.2133 45.3878 35.6356 44.6786C36.058 43.9694 36.6196 43.3532 37.2867 42.867C38.6346 41.8797 40.3952 41.3876 42.5684 41.3906C45.0901 41.3906 46.9546 42.0157 48.1619 43.2658C49.3693 44.516 49.9729 46.3896 49.9729 48.8869V58.5517H44.9296L44.7921 56.3785C44.206 57.2066 43.4165 57.8698 42.4997 58.3041C41.5572 58.7571 40.5239 58.9891 39.4782 58.9827ZM41.7019 55.4936C42.0786 55.4966 42.4513 55.4159 42.793 55.2573C43.1347 55.0987 43.437 54.8662 43.678 54.5766C44.269 53.8285 44.5599 52.8869 44.4941 51.9358V50.6474C42.8343 50.6933 41.6423 50.9821 40.9225 51.5277C40.5924 51.7489 40.3216 52.0476 40.1337 52.3977C39.9459 52.7478 39.8468 53.1386 39.845 53.5359C39.824 53.8027 39.8587 54.071 39.9472 54.3236C40.0356 54.5762 40.1757 54.8076 40.3585 55.003C40.725 55.3359 41.2072 55.512 41.7019 55.4936ZM53.76 58.5517V41.8124H58.8034L58.9684 44.3708C59.3923 43.4621 60.0812 42.703 60.9445 42.193C61.919 41.6317 63.0297 41.3509 64.1539 41.3815C65.9511 41.3815 67.3633 41.9271 68.3903 43.0228C69.4173 44.1186 69.9354 45.5995 69.9354 47.4564V58.5517H64.2868V48.3229C64.3264 47.578 64.129 46.8397 63.7229 46.2139C63.5289 45.9522 63.2724 45.7433 62.9769 45.6064C62.6813 45.4694 62.3561 45.4087 62.0311 45.4299C61.6799 45.4351 61.334 45.5165 61.0174 45.6685C60.7007 45.8205 60.4209 46.0394 60.1971 46.3102C59.6653 46.897 59.3994 47.8216 59.3994 49.084V58.5517H53.76ZM80.5951 58.9827C78.2263 58.9827 76.3725 58.4906 75.0337 57.5064C74.3693 57.0067 73.8205 56.3696 73.4249 55.6385C73.0293 54.9074 72.7961 54.0995 72.7413 53.27H78.2431C78.3531 54.1869 78.6511 54.8059 79.1371 55.1452C79.5905 55.4787 80.1378 55.6601 80.7006 55.6633C81.2315 55.6962 81.7581 55.5492 82.1952 55.246C82.3577 55.1251 82.4891 54.9672 82.5784 54.7854C82.6677 54.6037 82.7123 54.4032 82.7087 54.2007C82.6959 53.8009 82.5321 53.4208 82.2502 53.137C81.7765 52.7133 81.1965 52.4264 80.5722 52.3071L77.78 51.5782C76.5275 51.2993 75.3673 50.7043 74.4102 49.8497C73.9967 49.428 73.6756 48.9249 73.4672 48.3724C73.2588 47.8198 73.1677 47.2299 73.1998 46.6403C73.1609 45.5775 73.5151 44.5378 74.1947 43.7197C74.9178 42.9064 75.8479 42.3043 76.886 41.9775C78.1178 41.5724 79.4086 41.3756 80.7052 41.3952C82.7867 41.3952 84.4357 41.8537 85.6522 42.7707C86.9076 43.7641 87.7292 45.2053 87.9446 46.7916H82.4887C82.4367 46.2291 82.2162 45.6954 81.8559 45.2602C81.6726 45.0659 81.4483 44.9148 81.1993 44.818C80.9502 44.7213 80.6828 44.6813 80.4163 44.7009C80.1754 44.6861 79.934 44.7189 79.7058 44.7976C79.4776 44.8763 79.2673 44.9992 79.0867 45.1594C78.9397 45.2974 78.8231 45.4644 78.7442 45.6499C78.6652 45.8354 78.6257 46.0352 78.6282 46.2368C78.6243 46.6245 78.7668 46.9994 79.0271 47.2867C79.4347 47.6589 79.9409 47.9056 80.4851 47.9974L82.8875 48.5843C84.7918 49.0703 86.1428 49.6953 86.9405 50.4595C87.3461 50.8643 87.6622 51.3497 87.8683 51.8844C88.0744 52.4191 88.166 52.9911 88.1372 53.5634C88.1715 54.3449 88.0064 55.1224 87.6575 55.8226C87.3086 56.5227 86.7874 57.1227 86.1428 57.566C84.8132 58.5104 82.964 58.9827 80.5951 58.9827Z" fill="url(#paint0_linear_465_41648)"/>
<defs>
<linearGradient id="paint0_linear_465_41648" x1="6.26562" y1="47.6425" x2="88.1374" y2="47.6425" gradientUnits="userSpaceOnUse">
<stop offset="0.000616698" stop-color="#910063"/>
<stop offset="0.0362" stop-color="#990059"/>
<stop offset="0.1727" stop-color="#B60035"/>
<stop offset="0.3012" stop-color="#CA001C"/>
<stop offset="0.4172" stop-color="#D7000C"/>
<stop offset="0.5101" stop-color="#DB0007"/>
<stop offset="1" stop-color="#E8720A"/>
</linearGradient>
</defs>
</svg>
