<svg width="375" height="225" viewBox="0 0 375 225" fill="none" xmlns="http://www.w3.org/2000/svg">
<ellipse cx="189.494" cy="203.305" rx="107.065" ry="8.85181" fill="#A0A09F" fill-opacity="0.15"/>
<path fill-rule="evenodd" clip-rule="evenodd" d="M147.344 41.0215L147.344 118.58H88.332V41.0215H147.344Z" fill="white"/>
<path fill-rule="evenodd" clip-rule="evenodd" d="M174.32 179.279C174.32 194.644 161.864 207.099 146.5 207.099C131.135 207.099 118.68 194.644 118.68 179.279C118.68 163.914 131.135 151.459 146.5 151.459C161.864 151.459 174.32 163.914 174.32 179.279Z" fill="white"/>
<path fill-rule="evenodd" clip-rule="evenodd" d="M273.8 179.279C273.8 194.644 261.345 207.099 245.98 207.099C230.616 207.099 218.16 194.644 218.16 179.279C218.16 163.914 230.616 151.459 245.98 151.459C261.345 151.459 273.8 163.914 273.8 179.279Z" fill="white"/>
<path fill-rule="evenodd" clip-rule="evenodd" d="M178.567 25.8559C178.067 18.7131 183.44 12.3594 190.581 12.3594H205.327L203.946 32.0899C203.899 39.1138 198.461 45.0266 191.475 45.0266C184.49 45.0266 179.052 39.1136 179.004 32.09L178.567 25.8559Z" fill="white"/>
<path fill-rule="evenodd" clip-rule="evenodd" d="M175.597 147.05C175.3 152.444 176.632 155.44 178.459 157.499C180.236 159.501 182.604 160.809 185.471 162.392C185.783 162.565 186.101 162.74 186.425 162.921C191.177 152.326 193.294 144.569 193.239 138.906C193.204 135.302 192.288 132.681 190.718 130.686C189.395 129.006 187.48 127.607 184.855 126.474C183.131 128.837 181.132 131.974 179.426 135.324C177.308 139.484 175.783 143.697 175.597 147.05ZM179.347 177.257H110.016L110.002 174.742C109.885 154.468 119.264 139.714 132.463 130.075H86.8011L86.1782 129.676C83.9947 128.281 82.3807 126.645 81.3377 124.648C80.3003 122.662 79.9304 120.514 79.9172 118.262L79.9023 115.718H144.922C143.638 82.3599 153.741 57.522 170.404 45.8076C175.428 42.2746 180.973 41.8135 186.237 44.1654C191.347 46.4491 195.98 51.2756 199.803 57.9028C209.829 75.2827 225.501 82.0226 234.851 81.897L237.569 81.8605L237.288 86.6495C239.822 86.0979 242.606 85.787 245.521 85.7705L248.049 85.7562L248.179 108.29L245.649 108.304C244.016 108.314 242.425 108.23 240.894 108.064C244.548 116.01 248.586 126.796 249.692 137.536C264.467 139.872 272.836 148.845 277.452 157.297C279.851 161.692 281.25 165.958 282.051 169.119C282.452 170.704 282.706 172.021 282.86 172.952C282.937 173.418 282.99 173.788 283.024 174.048C283.041 174.178 283.053 174.28 283.061 174.353C283.065 174.389 283.068 174.418 283.071 174.44L283.074 174.466L283.074 174.475L283.075 174.478L283.148 175.219L283.075 174.481L283.35 177.26H189.986L189.987 177.258H179.346L179.347 177.257ZM204.552 161.136C213.385 155.595 219.909 148.051 223.764 138.952C228.035 128.87 229.096 116.72 226.187 103.023C225.23 103.028 224.219 103.034 223.262 103.039C221.376 103.05 219.699 103.06 219.057 103.064C216.814 103.076 215.303 101.392 214.545 100.188C213.701 98.8492 213.134 97.1265 213.124 95.4929L213.11 92.9636L224.324 92.8986C215.964 92.5255 209.386 91.1155 204.015 88.7703C197.994 86.1411 193.639 82.4024 190.042 77.9245C186.489 83.2292 183.581 87.8681 180.648 94.1115C191.924 97.3937 200.521 101.234 206.6 105.853C213.263 110.915 216.945 116.956 217.721 124.115C218.483 131.143 216.405 138.906 212.318 147.429C210.252 151.735 207.642 156.299 204.552 161.136Z" fill="white"/>
<path d="M144.817 53.293H90.8633V103.01H144.817V53.293Z" fill="#C2945C"/>
<path d="M144.817 103.01H90.8633V116.05H144.817V103.01Z" fill="#D90007"/>
<path d="M144.818 60.5932C144.802 60.5932 144.716 60.5918 144.7 60.5918C139.054 60.5918 134.016 67.997 130.722 79.5789C127.428 67.997 122.389 60.5918 116.743 60.5918C106.817 60.5918 98.7695 85.654 98.7695 116.052H106.759C106.759 87.8258 111.23 64.5229 116.743 64.5229C122.257 64.5229 126.729 85.6461 126.729 111.7H134.714C134.714 85.6461 139.186 64.5229 144.7 64.5229C144.716 64.5229 144.802 64.5257 144.818 64.5257V60.5932Z" fill="#FFBC0D"/>
<path d="M144.817 43.5508H90.8633V53.2935H144.817V43.5508Z" fill="#C2945C"/>
<path opacity="0.5" d="M144.817 43.5508H90.8633V53.2935H144.817V43.5508Z" fill="#E5AF71"/>
<path d="M124.386 57.5501H111.297C110.659 57.5501 110.141 57.0404 110.141 56.4121V43.5508H125.542V56.4121C125.542 57.0404 125.024 57.5501 124.386 57.5501Z" fill="#FFBC0D"/>
<path fill-rule="evenodd" clip-rule="evenodd" d="M146.502 204.57C160.47 204.57 171.793 193.247 171.793 179.279C171.793 178.713 171.774 178.15 171.737 177.593H121.266C121.23 178.15 121.211 178.713 121.211 179.279C121.211 193.247 132.534 204.57 146.502 204.57ZM121.561 175.064C123.567 163.103 133.97 153.988 146.502 153.988C159.033 153.988 169.436 163.103 171.443 175.064H121.561Z" fill="#292929"/>
<path fill-rule="evenodd" clip-rule="evenodd" d="M146.501 191.924C153.485 191.924 159.146 186.262 159.146 179.278C159.146 178.707 159.108 178.144 159.035 177.592H133.967C133.893 178.144 133.855 178.707 133.855 179.278C133.855 186.262 139.517 191.924 146.501 191.924ZM134.575 175.063C136.311 170.152 140.995 166.633 146.501 166.633C152.007 166.633 156.691 170.152 158.427 175.063H134.575Z" fill="white"/>
<circle cx="245.978" cy="179.279" r="25.2909" fill="#292929"/>
<circle cx="245.977" cy="179.278" r="12.6454" fill="white"/>
<path fill-rule="evenodd" clip-rule="evenodd" d="M190.411 14.8887C184.879 14.8887 180.513 19.8537 180.921 25.6795L181.364 31.9972C181.364 37.7968 185.815 42.4977 191.305 42.4977C196.797 42.4977 201.248 37.7968 201.248 31.9972L202.446 14.8887H190.411ZM245.977 151.459C232.046 151.459 220.506 161.7 218.475 175.064H194.974C197.343 171.85 199.252 169.205 201.297 166.213C224.427 154.375 235.281 130.675 228.191 100.816C226.772 100.824 224.933 100.835 223.256 100.844C221.36 100.855 219.67 100.864 219.026 100.868C217.243 100.878 215.65 98.025 215.637 95.8117L227.156 95.745C228.005 93.7464 230.313 91.986 233.542 90.716C207.962 91.658 197.578 84.9034 189.922 73.8905C184.893 81.3098 181.097 87.0035 177.111 96.0817C227.346 109.759 223.444 132.451 192.041 175.063H183.486C199.644 143.831 199.26 130.207 185.733 124.44L189.407 117.28C189.695 116.719 189.287 116.052 188.657 116.052H147.436C146.144 83.0923 156.148 59.2433 171.842 48.2103C180.445 42.161 190.244 46.7575 197.595 59.5003C208.023 77.5769 224.496 84.899 234.868 84.7597L234.539 90.3604C237.624 89.301 241.41 88.6566 245.518 88.6333L245.618 106.109C242.292 106.128 239.172 105.739 236.458 105.05C240.678 113.424 246.454 127.026 247.328 140.106C277.41 143.461 280.542 175.064 280.542 175.064H273.48C271.449 161.7 259.909 151.459 245.977 151.459ZM146.5 118.581L82.4297 118.581C82.4529 122.554 83.7301 125.454 87.5238 127.879H141.194C124.83 136.735 112.382 152.21 112.514 175.061H119.743L130.887 175.064L159.334 175.061H170.476H180.568L185.279 165.52C184.928 165.324 184.576 165.13 184.224 164.937L184.22 164.934C178.247 161.647 172.437 158.45 173.055 147.244C173.366 141.634 176.81 134.548 180.227 129.115L180.221 129.119L185.338 119.831C185.647 119.269 185.241 118.581 184.599 118.581H146.5Z" fill="#D90007"/>
<circle cx="280.32" cy="56.8652" r="35" fill="#006BAE" stroke="white" stroke-width="3"/>
<path fill-rule="evenodd" clip-rule="evenodd" d="M278.668 41.0664C278.668 39.9618 279.563 39.0664 280.668 39.0664H282.073V56.6961L289.328 63.9506C290.109 64.7317 290.109 65.998 289.328 66.779L288.334 67.7726L278.668 58.1065V41.0664Z" fill="white"/>
</svg>
