<svg width="136" height="136" viewBox="0 0 136 136" fill="none" xmlns="http://www.w3.org/2000/svg">
<g clip-path="url(#clip0_17_28615)">
<path d="M117.792 121.526C117.792 123.597 98.2015 125.277 74.0349 125.277C49.8683 125.277 30.2773 123.597 30.2773 121.526C30.2773 119.455 49.8683 117.775 74.0349 117.775C98.2015 117.775 117.792 119.455 117.792 121.526Z" fill="#A0A09F" fill-opacity="0.15"/>
<path d="M114.779 81.0307C114.92 80.8937 115.157 80.9706 115.191 81.1644L116.102 86.4291C116.115 86.5039 116.161 86.5684 116.228 86.6037L120.954 89.097C121.128 89.1888 121.128 89.4378 120.954 89.5296L116.228 92.0228C116.161 92.0582 116.115 92.1227 116.102 92.1974L115.191 97.4622C115.157 97.656 114.92 97.7329 114.779 97.5959L110.948 93.872C110.893 93.8192 110.818 93.7946 110.742 93.8053L105.454 94.5659C105.259 94.5939 105.113 94.3924 105.2 94.2159L107.557 89.4212C107.591 89.3532 107.591 89.2734 107.557 89.2054L105.2 84.4107C105.113 84.2342 105.259 84.0327 105.454 84.0607L110.742 84.8212C110.818 84.832 110.893 84.8074 110.948 84.7546L114.779 81.0307Z" fill="#F1F1F1"/>
<path d="M97.1128 88.3842C97.1623 88.2862 97.3014 88.2838 97.3543 88.3799L98.792 90.9934C98.8124 91.0305 98.8489 91.056 98.8907 91.0625L101.838 91.5197C101.947 91.5365 101.992 91.668 101.917 91.748L99.8756 93.923C99.8467 93.9539 99.8337 93.9964 99.8404 94.0382L100.316 96.9828C100.334 97.0912 100.223 97.1749 100.124 97.1282L97.4243 95.8589C97.386 95.8409 97.3415 95.8417 97.3038 95.861L94.6505 97.2237C94.5528 97.2738 94.4389 97.1941 94.4526 97.0852L94.8256 94.1258C94.8309 94.0838 94.8164 94.0417 94.7864 94.0118L92.6705 91.9094C92.5926 91.8321 92.6333 91.6991 92.7411 91.6785L95.6709 91.1187C95.7125 91.1108 95.7481 91.084 95.7672 91.0462L97.1128 88.3842Z" fill="#F1F1F1"/>
<path fill-rule="evenodd" clip-rule="evenodd" d="M21.3848 67.9009L97.5871 23.9055C98.6498 23.2919 100.009 23.656 100.622 24.7188L124.175 65.5139C124.789 66.5767 124.425 67.9356 123.362 68.5492L47.1599 112.545C46.0971 113.158 44.7382 112.794 44.1246 111.731L20.5715 70.9362C19.9579 69.8734 20.322 68.5145 21.3848 67.9009Z" fill="#D8D8D8"/>
<path fill-rule="evenodd" clip-rule="evenodd" d="M100.622 24.7188L102.443 27.8723L79.3698 76.636C78.9782 77.4637 78.1189 77.9664 77.2055 77.9022L22.3674 74.0475L20.5715 70.9362C19.9579 69.8734 20.322 68.5144 21.3848 67.9009L97.587 23.9055C98.6498 23.2919 100.009 23.656 100.622 24.7188Z" fill="#A0A09F" fill-opacity="0.15"/>
<path fill-rule="evenodd" clip-rule="evenodd" d="M21.3298 67.9316L97.6395 23.8742C98.7023 23.2606 100.061 23.6248 100.675 24.6875C101.039 25.3183 101.071 26.0874 100.76 26.7461L78.1725 74.6525C77.781 75.4827 76.9194 75.9868 76.0039 75.9212L22.282 72.0722C21.058 71.9845 20.1368 70.9212 20.2245 69.6971C20.2772 68.9617 20.6913 68.3003 21.3298 67.9316Z" fill="#F1F1F1"/>
<path d="M87.0165 66.1512C90.2071 71.6776 88.3136 78.7441 82.7873 81.9348C77.2609 85.1254 70.1944 83.2319 67.0037 77.7056C63.8131 72.1792 65.7066 65.1127 71.2329 61.922C76.7593 58.7314 83.8258 60.6249 87.0165 66.1512Z" fill="#A0A09F" fill-opacity="0.15"/>
<path fill-rule="evenodd" clip-rule="evenodd" d="M78.577 83.1086C72.5097 85.08 65.993 81.7596 64.0216 75.6922C62.0502 69.6249 65.3706 63.1082 71.4379 61.1368C77.5053 59.1654 84.0219 62.4859 85.9933 68.5532C87.9647 74.6205 84.6443 81.1372 78.577 83.1086Z" fill="#DB0007"/>
<path fill-rule="evenodd" clip-rule="evenodd" d="M76.0116 66.3164C77.1094 65.9597 79.5026 70.2986 81.3574 76.0072L82.9483 75.4903C80.9506 69.3421 77.7292 64.8791 75.7533 65.5212C74.629 65.8865 74.1128 67.7104 74.2181 70.2655C72.8014 68.1365 71.3117 66.9643 70.1875 67.3296C68.212 67.9715 68.2286 73.4757 70.2263 79.6239L71.8171 79.107C69.9623 73.3985 69.3486 68.4813 70.4458 68.1248C71.5436 67.7681 73.8216 71.7508 75.5337 77.0202L77.1241 76.5035C75.4119 71.2341 74.9139 66.6731 76.0116 66.3164Z" fill="#FFBC0D"/>
<path fill-rule="evenodd" clip-rule="evenodd" d="M48.6989 52.0705L49.8077 52.1639C50.2989 52.2053 50.5428 52.78 50.2314 53.1621L41.7696 63.5433C41.6495 63.6907 41.6046 63.8854 41.6479 64.0705L44.7025 77.1105C44.8149 77.5904 44.3437 78 43.8841 77.8219L31.3961 72.9822C31.2189 72.9135 31.0198 72.931 30.8572 73.0294L24.0884 77.126L20.5027 70.9153C19.8891 69.8526 20.2532 68.4936 21.316 67.8801L48.6989 52.0705Z" fill="#A0A09F" fill-opacity="0.15"/>
<path fill-rule="evenodd" clip-rule="evenodd" d="M69.9889 39.7791L60.8769 45.04L60.3389 46.5439C60.2842 46.6968 60.4231 46.8484 60.5802 46.8073L64.8484 45.6888C64.909 45.673 64.9735 45.6861 65.0231 45.7244L68.515 48.4216C68.6435 48.5209 68.8307 48.4356 68.8401 48.2735L69.0953 43.8685C69.0989 43.806 69.1314 43.7487 69.1831 43.7134L72.8274 41.2259C72.9615 41.1344 72.9382 40.93 72.7869 40.871L69.9889 39.7791Z" fill="#A0A09F" fill-opacity="0.15"/>
<path d="M21.8678 31.2065C22.0589 30.7522 22.6809 30.6978 22.948 31.112L30.2063 42.3677C30.3094 42.5274 30.4806 42.6303 30.6701 42.6463L44.0158 43.7708C44.5069 43.8122 44.7509 44.3869 44.4395 44.769L35.9777 55.1503C35.8576 55.2976 35.8126 55.4923 35.856 55.6774L38.9105 68.7174C39.023 69.1973 38.5518 69.6069 38.0922 69.4288L25.6041 64.5892C25.4269 64.5205 25.2278 64.5379 25.0652 64.6363L13.6073 71.571C13.1856 71.8262 12.6505 71.5046 12.6778 71.0125L13.4216 57.6401C13.4322 57.4503 13.3541 57.2664 13.2102 57.1421L3.07429 48.388C2.70126 48.0658 2.84171 47.4574 3.31822 47.3314L16.2659 43.9065C16.4497 43.8579 16.6005 43.7268 16.6742 43.5516L21.8678 31.2065Z" fill="#FFBC0D"/>
<path fill-rule="evenodd" clip-rule="evenodd" d="M16.6749 43.5531C16.6012 43.7283 16.4504 43.8594 16.2666 43.908L3.31889 47.3329C2.84238 47.4589 2.70194 48.0673 3.07497 48.3895L13.2109 57.1436C13.3548 57.2679 13.4329 57.4518 13.4223 57.6416L12.6785 71.014C12.6511 71.5061 13.1863 71.8277 13.608 71.5725L25.0659 64.6378C25.2285 64.5394 25.4276 64.522 25.6048 64.5907L38.0929 69.4303C38.5524 69.6084 39.0236 69.1988 38.9112 68.7189L35.8566 55.6789C35.8133 55.4938 35.8583 55.2991 35.9783 55.1518L44.4402 44.7705C44.7516 44.3884 44.5076 43.8137 44.0165 43.7723L30.6707 42.6478C30.4813 42.6318 30.31 42.5289 30.207 42.3692L22.9487 31.1135C22.6815 30.6993 22.0596 30.7537 21.8684 31.208L16.6749 43.5531ZM31.5182 40.7121L24.6295 30.0296C23.4909 28.2639 20.8397 28.4958 20.0249 30.4325L15.0959 42.1489L2.80745 45.3994C0.776292 45.9367 0.177628 48.5298 1.76769 49.9031L11.3875 58.2115L10.6816 70.9029C10.5649 73.0007 12.8461 74.3714 14.6435 73.2835L25.518 66.702L37.3701 71.2952C39.3292 72.0544 41.3377 70.3084 40.8585 68.2628L37.9595 55.8867L45.9904 46.0341C47.3178 44.4055 46.278 41.9558 44.1844 41.7794L31.5182 40.7121Z" fill="white"/>
<path d="M65.0896 31.7048C65.1925 31.5792 65.394 31.6202 65.4397 31.776L66.6793 36.0106C66.6969 36.0707 66.7413 36.1193 66.7997 36.142L70.9101 37.746C71.0614 37.805 71.0847 38.0094 70.9506 38.1009L67.3063 40.5884C67.2546 40.6237 67.2221 40.681 67.2185 40.7436L66.9633 45.1485C66.9539 45.3106 66.7667 45.3959 66.6382 45.2966L63.1463 42.5994C63.0967 42.5611 63.0322 42.548 62.9716 42.5638L58.7034 43.6823C58.5463 43.7234 58.4074 43.5718 58.4621 43.4189L59.9482 39.2644C59.9693 39.2054 59.9619 39.14 59.9281 39.0873L57.5454 35.3736C57.4577 35.237 57.559 35.0579 57.7213 35.0627L62.1318 35.1923C62.1943 35.1942 62.2543 35.1669 62.2939 35.1184L65.0896 31.7048Z" fill="#FFBC0D"/>
<path fill-rule="evenodd" clip-rule="evenodd" d="M62.2945 35.118C62.2548 35.1665 62.1949 35.1938 62.1323 35.1919L57.7219 35.0623C57.5595 35.0575 57.4583 35.2366 57.5459 35.3732L59.9286 39.0869C59.9624 39.1396 59.9699 39.205 59.9488 39.264L58.4626 43.4185C58.4079 43.5714 58.5469 43.723 58.7039 43.6819L62.9722 42.5635C63.0327 42.5476 63.0972 42.5607 63.1468 42.599L66.6387 45.2962C66.7672 45.3955 66.9544 45.3102 66.9638 45.1481L67.219 40.7432C67.2227 40.6806 67.2551 40.6233 67.3068 40.588L70.9511 38.1005C71.0852 38.009 71.0619 37.8046 70.9107 37.7456L66.8002 36.1416C66.7419 36.1189 66.6974 36.0703 66.6798 36.0102L65.4402 31.7756C65.3946 31.6198 65.193 31.5788 65.0901 31.7044L62.2945 35.118ZM68.3509 34.5998L67.3596 31.2137C66.8622 29.5145 64.6646 29.0674 63.5428 30.4372L61.3073 33.1668L57.7806 33.0632C56.0109 33.0111 54.9065 34.9631 55.8626 36.4532L57.7678 39.4228L56.5795 42.7449C55.9831 44.4119 57.4982 46.0654 59.2109 45.6166L62.6239 44.7222L65.4161 46.879C66.8173 47.9613 68.858 47.0313 68.9604 45.2638L69.1645 41.7415L72.0786 39.7524C73.5409 38.7543 73.2871 36.526 71.6377 35.8824L68.3509 34.5998Z" fill="white"/>
<path fill-rule="evenodd" clip-rule="evenodd" d="M43.8153 45.5352L35.9782 55.1501C35.8581 55.2974 35.8131 55.4922 35.8565 55.6772L36.6548 59.0853L64.0296 43.2805L63.1467 42.5985C63.0971 42.5602 63.0326 42.5471 62.972 42.563L58.7038 43.6814C58.5467 43.7226 58.4078 43.5709 58.4625 43.418L59.9487 39.2635C59.9698 39.2046 59.9623 39.1392 59.9285 39.0865L57.5458 35.3728C57.4582 35.2361 57.5594 35.0571 57.7218 35.0618L62.1322 35.1915C62.1948 35.1933 62.2547 35.166 62.2943 35.1176L65.09 31.7039C65.1929 31.5783 65.3945 31.6193 65.4401 31.7752L66.6797 36.0098C66.6973 36.0699 66.7418 36.1184 66.8001 36.1412L70.9106 37.7451C71.0618 37.8042 71.0851 38.0085 70.951 38.1001L67.3067 40.5876C67.255 40.6229 67.2225 40.6802 67.2189 40.7427L67.1772 41.4632L68.3151 40.8062L97.5879 23.9056C98.6506 23.292 100.01 23.6561 100.623 24.7189L124.176 65.514C124.79 66.5768 124.426 67.9357 123.363 68.5493L47.1607 112.545C46.0979 113.158 44.739 112.794 44.1254 111.731L20.5723 70.9363C20.3303 70.5171 20.2404 70.0518 20.2855 69.6043C20.3547 68.9174 20.742 68.2725 21.3856 67.901L26.5126 64.9409L25.6047 64.589C25.4274 64.5203 25.2283 64.5377 25.0657 64.6362L13.6078 71.5708C13.1861 71.826 12.651 71.5045 12.6784 71.0123L13.4221 57.64C13.4327 57.4502 13.3546 57.2662 13.2108 57.142L3.07481 48.3878C2.70178 48.0656 2.84222 47.4573 3.31873 47.3312L4.18531 47.102L4.27336 47.0787L4.2746 47.0784L16.2665 43.9063C16.4502 43.8577 16.601 43.7266 16.6747 43.5514L21.8683 31.2064C22.0594 30.752 22.6814 30.6976 22.9485 31.1119L23.4343 31.8652L30.2069 42.3675C30.3099 42.5273 30.4812 42.6302 30.6706 42.6461L44.0163 43.7707C44.5075 43.8121 44.7514 44.3868 44.44 44.7688L43.8161 45.5342L43.8153 45.5352ZM43.064 43.6472L43.0629 43.6486L43.064 43.6472ZM18.5813 70.6357L14.527 73.0895C12.8842 74.0838 10.7992 72.8311 10.9059 70.9138L11.6179 58.112L1.91447 49.7313C0.461196 48.4761 1.00836 46.1061 2.86477 45.6151L15.26 42.3363L20.232 30.518C20.9766 28.748 23.3997 28.536 24.4404 30.1498L31.3891 40.9252L44.1654 42.0017C46.0788 42.163 47.0292 44.402 45.816 45.8904L37.7152 55.8287L37.8379 56.3524L57.4302 45.0408C56.8052 44.5458 56.4816 43.685 56.791 42.8201L58.0166 39.394L56.0517 36.3314C55.1933 34.9934 56.1848 33.2407 57.7739 33.2874L61.4111 33.3943L63.7166 30.5792C64.7239 29.3492 66.6971 29.7507 67.1438 31.2764L68.1661 34.7686L71.5559 36.0914C71.8125 36.1915 72.0315 36.3344 72.2114 36.5069L96.7003 22.3682C98.6121 21.2644 101.057 21.9195 102.161 23.8313L125.714 64.6264C126.817 66.5383 126.162 68.9829 124.251 70.0867L48.0483 114.082C46.1365 115.186 43.6918 114.531 42.588 112.619L19.0349 71.8239C18.8156 71.444 18.6657 71.043 18.5813 70.6357ZM37.3542 56.2717L37.3555 56.2701L37.3542 56.2717ZM116.102 86.4289C116.115 86.5036 116.162 86.5681 116.229 86.6035L120.955 89.0968C121.129 89.1885 121.129 89.4376 120.955 89.5293L116.229 92.0226C116.162 92.058 116.115 92.1225 116.102 92.1972L115.192 97.462C115.158 97.6557 114.921 97.7327 114.78 97.5956L110.949 93.8718C110.894 93.8189 110.818 93.7943 110.743 93.8051L105.455 94.5657C105.26 94.5936 105.114 94.3921 105.2 94.2157L107.558 89.421C107.592 89.3529 107.592 89.2732 107.558 89.2051L105.2 84.4104C105.114 84.234 105.26 84.0325 105.455 84.0605L105.809 84.1114L110.743 84.821C110.818 84.8318 110.894 84.8072 110.949 84.7543L114.78 81.0305C114.921 80.8934 115.158 80.9704 115.192 81.1641L115.252 81.5165L116.102 86.4289ZM116.015 82.3054L116.017 82.3035L116.015 82.3054ZM105.202 85.8176L105.205 85.818L105.202 85.8176ZM106.794 94.999L106.795 94.996C106.794 94.997 106.794 94.998 106.794 94.999ZM96.3358 96.3588L94.6529 97.223C94.5552 97.2732 94.4413 97.1934 94.455 97.0845L94.828 94.1251C94.8333 94.0831 94.8188 94.041 94.7888 94.0112L92.6729 91.9088C92.595 91.8314 92.6357 91.6984 92.7435 91.6778L95.6733 91.1181C95.7149 91.1101 95.7504 91.0833 95.7695 91.0456L97.0251 88.5617L97.1152 88.3835C97.1647 88.2856 97.3037 88.2831 97.3567 88.3793L98.7944 90.9928C98.8148 91.0299 98.8513 91.0554 98.8931 91.0619M95.8013 89.235L95.8032 89.2385C95.8026 89.2373 95.8019 89.2362 95.8013 89.235ZM98.414 96.3225L97.4267 95.8583C97.3884 95.8402 97.3439 95.841 97.3062 95.8604L96.3358 96.3588M98.6454 96.4313L98.414 96.3225L98.6454 96.4313ZM98.6454 96.4313L100.126 97.1275C100.225 97.1742 100.336 97.0905 100.319 96.9822L102.071 96.6989C102.317 98.2161 100.762 99.3882 99.3706 98.734L97.4005 97.8076L95.4638 98.8022C94.0964 99.5044 92.5016 98.3875 92.6938 96.8625L92.966 94.7026L91.4217 93.1681C90.3313 92.0846 90.9005 90.2226 92.4104 89.9342L94.5488 89.5256L95.5309 87.5827C96.2244 86.2108 98.1712 86.1769 98.9121 87.5237L99.9614 89.4311L102.113 89.7648C103.632 90.0004 104.266 91.8415 103.214 92.9622L101.724 94.5497L102.071 96.6989L100.319 96.9822L99.8428 94.0376C99.8361 93.9958 99.8491 93.9532 99.878 93.9224L101.919 91.7474C101.994 91.6674 101.949 91.5359 101.841 91.5191L99.9712 91.2291M95.3402 89.3744L95.3372 89.375C95.3383 89.3748 95.3391 89.3746 95.3402 89.3744ZM113.543 79.7575C114.707 78.6256 116.664 79.2613 116.941 80.8615L117.723 85.3846L121.783 87.5267C123.22 88.2845 123.22 90.3416 121.783 91.0994L117.723 93.2415L116.941 97.7646C116.664 99.3648 114.707 100.001 113.543 98.8686L110.251 95.6694L105.707 96.3228C104.1 96.554 102.891 94.8897 103.607 93.4324L105.633 89.313L103.607 85.1937C102.891 83.7364 104.1 82.0721 105.707 82.3033L110.251 82.9567L113.543 79.7575Z" fill="white"/>
</g>
<defs>
<clipPath id="clip0_17_28615">
<rect width="136" height="136" fill="white"/>
</clipPath>
</defs>
</svg>
