<svg width="136" height="136" viewBox="0 0 136 136" fill="none" xmlns="http://www.w3.org/2000/svg">
<g clip-path="url(#clip0_17_28536)">
<path d="M126.463 113.465C126.463 116.687 100.068 119.299 67.5088 119.299C34.9494 119.299 8.55469 116.687 8.55469 113.465C8.55469 110.243 34.9494 107.631 67.5088 107.631C100.068 107.631 126.463 110.243 126.463 113.465Z" fill="#A0A09F" fill-opacity="0.15"/>
<path d="M83.1489 85.902L52.9531 85.9022V81.5143L85.8083 81.5137C84.77 82.8668 83.8758 84.3373 83.1489 85.902Z" fill="#606060"/>
<path d="M54.8225 60.3066V76.3956C54.8225 80.2532 55.3189 83.4285 56.3119 85.9215C56.4031 85.9088 56.4962 85.9028 56.5907 85.9028L83.1474 85.9024C82.1951 87.9522 81.5297 90.1636 81.2033 92.4845L53.9042 92.4844C52.6295 80.7721 42.7512 71.6574 30.7528 71.6574C22.7738 71.6574 15.7323 75.6883 11.5352 81.8334C12.4566 69.7905 22.5009 60.3066 34.7559 60.3066H54.8225Z" fill="#FFBC0D"/>
<path d="M92.6804 36.1142C98.5926 43.39 103.592 50.1654 107.68 56.4406C111.105 61.6999 114.119 66.9592 116.72 72.2185C117.158 73.1047 116.942 74.145 116.256 74.7876L116.256 75.7248C112.753 73.6071 108.651 72.3891 104.265 72.3891C97.6719 72.3891 91.7192 75.1411 87.4822 79.5637L90.483 68.3428L85.7503 38.6679C85.5737 37.5611 86.2607 36.4995 87.3412 36.2094C87.3412 36.2094 89.0952 35.7385 89.9722 35.503C90.1221 35.4628 90.5572 35.6751 90.5572 35.6751C91.0942 35.531 91.5183 35.3068 91.9933 35.5538C92.2534 35.6891 92.4882 35.8777 92.6804 36.1142Z" fill="#FFBC0D"/>
<path d="M27.4779 61.7665V62.5305C27.4779 65.7527 24.871 68.3647 21.6552 68.3647L17.1523 68.3642C19.8771 65.2154 23.4293 62.805 27.47 61.4727C27.4754 61.5701 27.4779 61.668 27.4779 61.7665Z" fill="#DB0007"/>
<path fill-rule="evenodd" clip-rule="evenodd" d="M38.6367 21.5762V51.6469C38.6367 52.4776 39.316 53.1505 40.153 53.1505H61.3814C62.2184 53.1505 62.8977 52.4776 62.8977 51.6469V21.5762L60.4716 23.0669L58.0455 21.5762L55.6194 23.0669L53.1933 21.5762L50.7672 23.0669L48.3411 21.5762L45.915 23.0669L43.4889 21.5762L41.0628 23.0669L38.6367 21.5762Z" fill="#C2945C"/>
<path fill-rule="evenodd" clip-rule="evenodd" d="M62.8977 47.0234L62.898 51.6463C62.898 52.477 62.2187 53.1498 61.3817 53.1498H40.1534C39.3164 53.1498 38.6371 52.477 38.6371 51.6463L38.6367 47.0234H62.8977Z" fill="#DB0007"/>
<path fill-rule="evenodd" clip-rule="evenodd" d="M59.837 30.1699C60.9353 30.1699 61.9739 30.9221 62.8966 32.261L62.8966 39.0753C62.1937 34.5469 61.0845 31.6245 59.837 31.6245C57.7138 31.6245 55.9901 39.4434 55.9901 49.0874H52.9127C52.9127 39.4434 51.1904 31.6245 49.065 31.6245C46.9418 31.6245 45.2188 40.096 45.2188 50.5419H42.1406C42.1406 39.2903 45.2421 30.1699 49.065 30.1699C51.2409 30.1699 53.1817 32.9115 54.4517 37.1975C55.721 32.9115 57.6625 30.1699 59.837 30.1699Z" fill="#FFBC0D"/>
<path d="M76.2482 35.4414H93.7039C94.9131 35.4414 95.8935 36.4237 95.8935 37.6354C95.8935 38.847 94.9131 39.8293 93.7039 39.8293H76.2482C75.0389 39.8293 74.0586 38.847 74.0586 37.6354C74.0586 36.4237 75.0389 35.4414 76.2482 35.4414Z" fill="#606060"/>
<path d="M34.949 52.9941H63.3727C65.4889 52.9941 67.2045 54.7131 67.2045 56.8336C67.2045 58.954 65.4889 60.673 63.3727 60.673H34.949C32.8327 60.673 31.1172 58.954 31.1172 56.8336C31.1172 54.7131 32.8327 52.9941 34.949 52.9941Z" fill="#606060"/>
<path d="M49.7988 94.7471C49.7988 105.622 41.0006 114.438 30.1475 114.438C19.2943 114.438 10.4961 105.622 10.4961 94.7471C10.4961 83.8723 19.2943 75.0566 30.1475 75.0566C41.0006 75.0566 49.7988 83.8723 49.7988 94.7471Z" fill="#606060"/>
<path d="M38.1537 94.5034C38.1537 99.0681 34.4606 102.769 29.905 102.769C25.3493 102.769 21.6562 99.0681 21.6562 94.5034C21.6562 89.9387 25.3493 86.2383 29.905 86.2383C34.4606 86.2383 38.1537 89.9387 38.1537 94.5034Z" fill="#F1F1F1"/>
<path d="M35.4973 88.1836C37.1308 89.7195 38.1538 91.9194 38.1538 94.3628C38.1538 99.0055 34.4601 102.769 29.9037 102.769C27.506 102.769 25.3472 101.727 23.8398 100.063C25.0108 100.662 26.3331 100.999 27.7327 100.999C32.5289 100.999 36.417 97.0376 36.417 92.1506C36.417 90.7388 36.0925 89.4042 35.5153 88.22L35.4973 88.1836Z" fill="white"/>
<path d="M20.6836 94.9902H43.0037V97.4212H20.6836V94.9902Z" fill="#292929" fill-opacity="0.15"/>
<path d="M30.7555 73.8457C42.4119 73.8457 51.8625 83.4226 51.8625 95.2378H9.64844C9.64844 83.4226 19.0991 73.8457 30.7555 73.8457Z" fill="#FFBC0D"/>
<path d="M123.553 94.7471C123.553 105.622 114.755 114.438 103.901 114.438C93.0482 114.438 84.25 105.622 84.25 94.7471C84.25 83.8723 93.0482 75.0566 103.901 75.0566C114.755 75.0566 123.553 83.8723 123.553 94.7471Z" fill="#606060"/>
<path d="M111.908 94.5034C111.908 99.0681 108.215 102.769 103.659 102.769C99.1032 102.769 95.4102 99.0681 95.4102 94.5034C95.4102 89.9387 99.1032 86.2383 103.659 86.2383C108.215 86.2383 111.908 89.9387 111.908 94.5034Z" fill="#F1F1F1"/>
<path d="M109.691 88.1836C111.352 89.7195 112.393 91.9194 112.393 94.3628C112.393 99.0055 108.636 102.769 104.003 102.769C101.564 102.769 99.3689 101.727 97.8359 100.063C99.0268 100.662 100.371 100.999 101.795 100.999C106.672 100.999 110.626 97.0376 110.626 92.1506C110.626 90.7388 110.296 89.4042 109.709 88.22L109.691 88.1836Z" fill="white"/>
<path d="M93.9531 94.9902H116.273V97.4212H93.9531V94.9902Z" fill="#292929" fill-opacity="0.15"/>
<path d="M104.384 74.5703C115.804 74.5703 125.108 83.6468 125.491 94.99H83.2773C83.6612 83.6468 92.9649 74.5703 104.384 74.5703Z" fill="#FFBC0D"/>
</g>
<defs>
<clipPath id="clip0_17_28536">
<rect width="136" height="136" fill="white"/>
</clipPath>
</defs>
</svg>
