<svg width="375" height="225" viewBox="0 0 375 225" fill="none" xmlns="http://www.w3.org/2000/svg">
<g clip-path="url(#clip0_17_28608)">
<path d="M140.951 93C142.456 93 143.94 93.0902 145.398 93.2607L146.241 99.4023C149.272 99.927 152.156 100.878 154.83 102.191L159.173 97.6631C161.905 99.1644 164.43 100.994 166.698 103.097L163.718 108.658C165.813 110.82 167.607 113.275 169.029 115.958L175.276 114.834C176.574 117.605 177.547 120.557 178.145 123.645L172.423 126.412C172.631 127.887 172.741 129.394 172.741 130.927C172.741 132.459 172.631 133.966 172.423 135.44L178.131 138.2C177.527 141.288 176.549 144.241 175.244 147.011L169.029 145.894C167.607 148.576 165.813 151.032 163.718 153.193L166.672 158.704C164.397 160.809 161.864 162.638 159.125 164.139L154.83 159.661C152.156 160.974 149.272 161.926 146.241 162.45L145.409 168.514C143.947 168.685 142.46 168.776 140.951 168.776C139.299 168.776 137.671 168.669 136.074 168.464L135.25 162.45C132.219 161.925 129.335 160.975 126.66 159.661L122.508 163.989C119.762 162.456 117.226 160.592 114.955 158.449L117.772 153.194C115.677 151.033 113.885 148.576 112.462 145.894L106.625 146.942C105.311 144.138 104.331 141.146 103.735 138.018L109.067 135.44C108.859 133.966 108.75 132.459 108.75 130.927C108.75 129.394 108.859 127.887 109.067 126.412L103.723 123.827C104.312 120.699 105.285 117.708 106.593 114.902L112.462 115.958C113.885 113.275 115.678 110.82 117.773 108.658L114.929 103.352C117.193 101.211 119.722 99.3468 122.461 97.8125L126.661 102.191C129.335 100.878 132.22 99.927 135.25 99.4023L136.085 93.3096C137.678 93.1053 139.302 93 140.951 93ZM140.745 120.262C134.855 120.262 130.08 125.037 130.08 130.927C130.08 136.817 134.855 141.592 140.745 141.592C146.635 141.592 151.41 136.817 151.41 130.927C151.41 125.037 146.635 120.262 140.745 120.262Z" fill="#FFBC0D"/>
<path d="M167.894 42.2303C169.36 42.6703 170.765 43.2182 172.102 43.8611L171.524 48.4651C174.13 49.9011 176.403 51.7788 178.274 53.972L182.595 52.5025C184.361 54.8664 185.754 57.4924 186.723 60.2806L183.16 63.048C183.961 65.8167 184.277 68.7479 184.041 71.7147L188.024 73.6762C187.823 75.0821 187.515 76.4912 187.095 77.8929C186.651 79.3728 186.096 80.7891 185.445 82.1379L181.079 81.5885C179.643 84.1951 177.765 86.4676 175.572 88.3377L176.979 92.475C174.611 94.2689 171.977 95.6866 169.176 96.6755L166.497 93.2249C163.728 94.0266 160.797 94.3427 157.83 94.1066L155.885 98.054C154.401 97.8547 152.913 97.5385 151.433 97.0945C150.032 96.674 148.686 96.1549 147.402 95.5486L147.957 91.1433C145.35 89.7072 143.076 87.8306 141.206 85.6373L136.934 87.089C135.14 84.7448 133.715 82.1358 132.714 79.3598L136.319 76.5611C135.518 73.7929 135.203 70.8621 135.439 67.8958L131.275 65.8441C131.475 64.3734 131.791 62.8991 132.231 61.4326C132.647 60.044 133.161 58.7103 133.76 57.4369L138.401 58.0218C139.837 55.4151 141.714 53.1415 143.907 51.2714L142.391 46.8149C144.732 45.0481 147.333 43.6476 150.097 42.6658L152.983 46.3844C155.752 45.5828 158.683 45.2677 161.649 45.5037L163.716 41.3073C165.109 41.5081 166.505 41.8137 167.894 42.2303ZM162.075 62.0228C157.777 60.7335 153.248 63.1729 151.959 67.4706C150.669 71.7682 153.108 76.2972 157.405 77.5865C161.703 78.8758 166.232 76.4372 167.521 72.1397C168.811 67.8421 166.372 63.3123 162.075 62.0228Z" fill="#A0A09F"/>
<path d="M242.648 80C244.684 80 246.691 80.1204 248.663 80.3545L249.452 87.1758C252.662 87.6727 255.756 88.5187 258.695 89.6738L262.779 84.1729C266.42 85.7571 269.837 87.758 272.972 90.1152L270.243 96.4199C272.708 98.4208 274.951 100.684 276.929 103.168L283.229 100.44C285.569 103.595 287.552 107.032 289.114 110.691L283.571 114.808C284.677 117.707 285.484 120.754 285.952 123.911L292.819 124.704C293.037 126.606 293.148 128.54 293.148 130.5C293.148 132.545 293.025 134.562 292.789 136.543L285.874 137.343C285.375 140.461 284.547 143.468 283.426 146.329L289.034 150.493C287.454 154.155 285.454 157.592 283.093 160.744L276.637 157.949C274.688 160.344 272.492 162.527 270.086 164.462L272.892 170.945C269.74 173.306 266.303 175.306 262.642 176.886L258.412 171.189C255.575 172.282 252.596 173.088 249.51 173.57L248.692 180.641C246.711 180.877 244.694 181 242.648 181C240.689 181 238.755 180.888 236.854 180.671L236.035 173.591C232.938 173.116 229.949 172.314 227.103 171.226L222.84 176.966C219.181 175.404 215.744 173.422 212.589 171.081L215.423 164.535C212.995 162.593 210.778 160.398 208.813 157.989L202.264 160.823C199.906 157.689 197.905 154.271 196.32 150.63L202.019 146.4C200.881 143.514 200.045 140.477 199.542 137.328L192.503 136.515C192.269 134.542 192.148 132.535 192.148 130.5C192.148 128.55 192.259 126.626 192.474 124.733L199.465 123.926C199.936 120.737 200.753 117.661 201.874 114.736L196.241 110.554C197.807 106.915 199.788 103.497 202.125 100.36L208.521 103.129C210.516 100.63 212.778 98.355 215.266 96.3467L212.508 89.9775C215.645 87.6402 219.063 85.6589 222.702 84.0928L226.819 89.6377C229.768 88.4866 232.873 87.6451 236.093 87.1562L236.882 80.3252C238.774 80.1101 240.698 80 242.648 80ZM242.648 118.097C235.798 118.097 230.245 123.65 230.245 130.5C230.245 137.35 235.798 142.903 242.648 142.903C249.499 142.903 255.052 137.35 255.052 130.5C255.052 123.65 249.499 118.097 242.648 118.097Z" fill="#EAEAEA"/>
<ellipse cx="188" cy="203" rx="80" ry="10" fill="#A0A09F" fill-opacity="0.15"/>
<path d="M196 191.368C196 192.172 195.92 192.957 195.77 193.717L192.368 194.688C192.042 195.51 191.599 196.271 191.059 196.953L191.918 200.381C190.743 201.414 189.364 202.22 187.85 202.733L185.308 200.274C184.881 200.337 184.444 200.368 184 200.368C183.556 200.368 183.119 200.337 182.692 200.274L180.151 202.733C178.636 202.221 177.259 201.414 176.083 200.381L176.941 196.953C176.401 196.271 175.958 195.51 175.632 194.688L172.231 193.717C172.081 192.957 172 192.172 172 191.368C172 190.564 172.081 189.778 172.231 189.019L175.632 188.049C175.958 187.228 176.401 186.466 176.941 185.784L176.082 182.354C177.257 181.321 178.637 180.517 180.151 180.004L182.692 182.463C183.119 182.401 183.556 182.368 184 182.368C184.444 182.368 184.881 182.401 185.308 182.463L187.85 180.004C189.364 180.517 190.744 181.321 191.919 182.354L191.059 185.784C191.599 186.466 192.042 187.228 192.368 188.049L195.77 189.019C195.92 189.778 196 190.564 196 191.368ZM188 191.368C188 189.159 186.209 187.368 184 187.368C181.791 187.368 180 189.159 180 191.368C180 193.577 181.791 195.368 184 195.368C186.209 195.368 188 193.577 188 191.368Z" fill="#DB0007"/>
<mask id="path-6-outside-1_17_28608" maskUnits="userSpaceOnUse" x="99.7227" y="37.3086" width="197" height="169" fill="black">
<rect fill="white" x="99.7227" y="37.3086" width="197" height="169"/>
<path d="M187.851 180.003C189.365 180.516 190.745 181.32 191.92 182.354L191.06 185.783C191.6 186.465 192.043 187.227 192.369 188.048L195.771 189.018C195.921 189.777 196.001 190.563 196.001 191.367C196.001 192.171 195.921 192.956 195.771 193.716L192.369 194.688C192.043 195.509 191.6 196.271 191.06 196.952L191.919 200.38C190.744 201.413 189.365 202.219 187.851 202.732L185.309 200.273C184.882 200.336 184.445 200.367 184.001 200.367C183.557 200.367 183.12 200.336 182.693 200.273L180.152 202.732C178.637 202.22 177.259 201.413 176.084 200.38L176.942 196.952C176.402 196.271 175.959 195.509 175.633 194.688L172.232 193.716C172.082 192.956 172.001 192.171 172.001 191.367C172.001 190.563 172.082 189.777 172.232 189.018L175.633 188.048C175.959 187.227 176.402 186.465 176.942 185.783L176.083 182.354C177.258 181.32 178.638 180.516 180.152 180.003L182.693 182.462C183.12 182.4 183.557 182.367 184.001 182.367C184.445 182.367 184.882 182.4 185.309 182.462L187.851 180.003ZM184.001 187.367C181.792 187.367 180.001 189.158 180.001 191.367C180.001 193.576 181.792 195.367 184.001 195.367C186.21 195.367 188.001 193.576 188.001 191.367C188.001 189.158 186.21 187.367 184.001 187.367ZM242.647 79.999C244.683 79.999 246.69 80.1195 248.662 80.3535L249.451 87.1748C252.661 87.6717 255.755 88.5178 258.694 89.6729L262.778 84.1719C266.419 85.7561 269.836 87.7571 272.971 90.1143L270.242 96.4189C272.707 98.4197 274.95 100.683 276.928 103.167L283.228 100.439C285.568 103.594 287.551 107.031 289.113 110.69L283.57 114.807C284.676 117.706 285.483 120.753 285.951 123.91L292.818 124.703C293.036 126.605 293.147 128.539 293.147 130.499C293.147 132.544 293.024 134.561 292.788 136.542L285.873 137.342C285.374 140.459 284.546 143.467 283.425 146.328L289.033 150.492C287.453 154.154 285.453 157.591 283.092 160.743L276.636 157.948C274.688 160.343 272.491 162.526 270.085 164.461L272.891 170.944C269.739 173.305 266.302 175.305 262.641 176.885L258.411 171.188C255.574 172.281 252.595 173.087 249.509 173.569L248.691 180.64C246.71 180.876 244.693 180.999 242.647 180.999C240.688 180.999 238.754 180.887 236.853 180.67L236.034 173.59C232.937 173.115 229.948 172.313 227.102 171.225L222.839 176.965C219.18 175.403 215.743 173.421 212.588 171.08L215.422 164.534C212.994 162.592 210.777 160.397 208.812 157.988L202.263 160.822C199.905 157.688 197.904 154.27 196.319 150.629L202.018 146.399C200.88 143.513 200.044 140.476 199.541 137.327L192.502 136.514C192.268 134.542 192.147 132.534 192.147 130.499C192.147 128.549 192.258 126.625 192.473 124.732L199.464 123.925C199.936 120.737 200.752 117.66 201.873 114.735L196.24 110.553C197.806 106.914 199.787 103.496 202.124 100.359L208.521 103.128C210.515 100.629 212.777 98.354 215.265 96.3457L212.507 89.9766C215.644 87.6393 219.062 85.6579 222.701 84.0918L226.818 89.6367C229.767 88.4857 232.872 87.6441 236.092 87.1553L236.881 80.3242C238.773 80.1091 240.698 79.999 242.647 79.999ZM140.951 92.999C142.456 92.999 143.94 93.0892 145.398 93.2598L146.241 99.4014C149.272 99.926 152.156 100.877 154.83 102.19L159.173 97.6621C161.904 99.1634 164.43 100.993 166.698 103.096L163.718 108.657C165.813 110.819 167.607 113.274 169.029 115.957L175.276 114.833C176.574 117.603 177.547 120.556 178.145 123.644L172.423 126.411C172.631 127.886 172.741 129.394 172.741 130.926C172.741 132.458 172.631 133.965 172.423 135.439L178.131 138.199C177.527 141.287 176.549 144.24 175.244 147.01L169.029 145.893C167.607 148.575 165.813 151.031 163.718 153.192L166.672 158.703C164.397 160.808 161.864 162.637 159.125 164.138L154.83 159.66C152.156 160.973 149.272 161.925 146.241 162.449L145.409 168.513C143.947 168.684 142.46 168.775 140.951 168.775C139.299 168.775 137.671 168.668 136.074 168.463L135.25 162.449C132.219 161.925 129.335 160.974 126.66 159.66L122.508 163.988C119.762 162.455 117.226 160.591 114.955 158.448L117.772 153.193C115.677 151.032 113.885 148.575 112.462 145.893L106.625 146.941C105.311 144.137 104.331 141.145 103.735 138.017L109.067 135.439C108.859 133.965 108.75 132.458 108.75 130.926C108.75 129.394 108.859 127.886 109.067 126.411L103.723 123.826C104.312 120.698 105.285 117.707 106.593 114.901L112.462 115.957C113.885 113.274 115.678 110.818 117.773 108.657L114.929 103.351C117.193 101.21 119.722 99.3458 122.461 97.8115L126.661 102.19C129.335 100.877 132.22 99.926 135.25 99.4014L136.085 93.3086C137.678 93.1043 139.302 92.999 140.951 92.999ZM242.647 118.096C235.797 118.096 230.244 123.649 230.244 130.499C230.244 137.349 235.797 142.902 242.647 142.902C249.498 142.902 255.051 137.349 255.051 130.499C255.051 123.649 249.498 118.096 242.647 118.096ZM140.745 120.261C134.855 120.261 130.08 125.036 130.08 130.926C130.08 136.816 134.855 141.591 140.745 141.591C146.635 141.591 151.41 136.816 151.41 130.926C151.41 125.036 146.635 120.261 140.745 120.261ZM163.716 41.3086C165.109 41.5095 166.505 41.8148 167.894 42.2314C169.36 42.6714 170.765 43.2194 172.103 43.8623L171.523 48.4658C174.13 49.9018 176.403 51.7796 178.273 53.9727L182.595 52.5039C184.361 54.8678 185.754 57.4932 186.724 60.2812L183.16 63.0488C183.962 65.8175 184.277 68.749 184.041 71.7158L188.023 73.6768C187.823 75.0826 187.515 76.492 187.095 77.8936C186.651 79.3734 186.096 80.79 185.445 82.1387L181.079 81.5898C179.643 84.1964 177.765 86.4688 175.572 88.3389L176.979 92.4756C174.611 94.2695 171.977 95.6878 169.176 96.6768L166.497 93.2256C163.728 94.0272 160.797 94.3435 157.83 94.1074L155.886 98.0547C154.402 97.8554 152.913 97.5396 151.434 97.0957C150.032 96.6752 148.686 96.1561 147.401 95.5498L147.957 91.1445C145.35 89.7084 143.076 87.832 141.206 85.6387L136.935 87.0898C135.14 84.7456 133.715 82.1363 132.714 79.3604L136.319 76.5625C135.518 73.7943 135.203 70.8627 135.439 67.8965L131.275 65.8447C131.475 64.3742 131.791 62.9 132.23 61.4336C132.647 60.045 133.161 58.711 133.76 57.4375L138.4 58.0225C139.836 55.4158 141.714 53.1425 143.907 51.2725L142.391 46.8154C144.732 45.0487 147.333 43.6488 150.097 42.667L152.983 46.3857C155.752 45.5842 158.683 45.2689 161.649 45.5049L163.716 41.3086ZM162.074 62.0234C157.777 60.7344 153.248 63.1742 151.959 67.4717C150.67 71.7693 153.108 76.2985 157.405 77.5879C161.703 78.8771 166.232 76.4381 167.521 72.1406C168.811 67.843 166.372 63.3129 162.074 62.0234Z"/>
</mask>
<path d="M187.851 180.003L188.813 177.161C187.749 176.801 186.572 177.066 185.765 177.847L187.851 180.003ZM191.92 182.354L194.83 183.083C195.103 181.994 194.745 180.842 193.901 180.1L191.92 182.354ZM191.06 185.783L188.15 185.053C187.923 185.957 188.129 186.915 188.708 187.646L191.06 185.783ZM192.369 188.048L189.581 189.155C189.925 190.021 190.651 190.678 191.547 190.933L192.369 188.048ZM195.771 189.018L198.713 188.433C198.494 187.329 197.675 186.441 196.593 186.133L195.771 189.018ZM196.001 191.367H199.001V191.367L196.001 191.367ZM195.771 193.716L196.595 196.6C197.676 196.291 198.494 195.403 198.713 194.3L195.771 193.716ZM192.369 194.688L191.545 191.803C190.65 192.059 189.924 192.715 189.581 193.58L192.369 194.688ZM191.06 196.952L188.708 195.089C188.129 195.82 187.923 196.778 188.15 197.682L191.06 196.952ZM191.919 200.38L193.9 202.633C194.744 201.891 195.102 200.74 194.829 199.65L191.919 200.38ZM187.851 202.732L185.765 204.889C186.572 205.67 187.749 205.934 188.813 205.574L187.851 202.732ZM185.309 200.273L187.394 198.117C186.726 197.471 185.796 197.171 184.877 197.305L185.309 200.273ZM184.001 200.367V203.367V200.367ZM182.693 200.273L183.125 197.305C182.205 197.171 181.275 197.471 180.607 198.118L182.693 200.273ZM180.152 202.732L179.19 205.574C180.255 205.934 181.431 205.67 182.239 204.888L180.152 202.732ZM176.084 200.38L173.174 199.651C172.901 200.741 173.26 201.891 174.103 202.633L176.084 200.38ZM176.942 196.952L179.853 197.681C180.079 196.777 179.872 195.82 179.294 195.089L176.942 196.952ZM175.633 194.688L178.421 193.58C178.078 192.715 177.352 192.059 176.457 191.803L175.633 194.688ZM172.232 193.716L169.29 194.3C169.509 195.403 170.327 196.291 171.408 196.6L172.232 193.716ZM172.001 191.367L169.001 191.367V191.367H172.001ZM172.232 189.018L171.41 186.133C170.327 186.441 169.509 187.33 169.29 188.433L172.232 189.018ZM175.633 188.048L176.456 190.933C177.351 190.677 178.077 190.021 178.421 189.155L175.633 188.048ZM176.942 185.783L179.294 187.646C179.873 186.916 180.079 185.958 179.852 185.054L176.942 185.783ZM176.083 182.354L174.102 180.1C173.259 180.842 172.9 181.993 173.173 183.083L176.083 182.354ZM180.152 180.003L182.239 177.847C181.431 177.066 180.255 176.801 179.19 177.161L180.152 180.003ZM182.693 182.462L180.607 184.618C181.275 185.264 182.205 185.565 183.125 185.431L182.693 182.462ZM184.001 182.367V179.367V182.367ZM185.309 182.462L184.876 185.431C185.796 185.565 186.726 185.264 187.394 184.618L185.309 182.462ZM184.001 187.367V184.367V187.367ZM180.001 191.367L177.001 191.367V191.367H180.001ZM184.001 195.367V198.367V195.367ZM188.001 191.367H191.001V191.367L188.001 191.367ZM242.647 79.999V76.999V79.999ZM248.662 80.3535L251.642 80.0088C251.483 78.6283 250.396 77.5382 249.016 77.3744L248.662 80.3535ZM249.451 87.1748L246.471 87.5195C246.626 88.8607 247.658 89.9329 248.992 90.1395L249.451 87.1748ZM258.694 89.6729L257.597 92.4649C258.858 92.9607 260.295 92.5492 261.103 91.4611L258.694 89.6729ZM262.778 84.1719L263.975 81.421C262.696 80.8643 261.201 81.2632 260.37 82.3836L262.778 84.1719ZM272.971 90.1143L275.724 91.3058C276.275 90.0336 275.882 88.5498 274.774 87.7166L272.971 90.1143ZM270.242 96.4189L267.489 95.2274C266.955 96.4616 267.307 97.9005 268.351 98.7481L270.242 96.4189ZM276.928 103.167L274.581 105.036C275.425 106.096 276.876 106.459 278.12 105.92L276.928 103.167ZM283.228 100.439L285.637 98.6519C284.806 97.5326 283.315 97.1327 282.036 97.6864L283.228 100.439ZM289.113 110.69L290.902 113.099C292.016 112.272 292.417 110.789 291.872 109.513L289.113 110.69ZM283.57 114.807L281.782 112.398C280.703 113.199 280.288 114.62 280.767 115.875L283.57 114.807ZM285.951 123.91L282.984 124.35C283.183 125.693 284.259 126.735 285.607 126.89L285.951 123.91ZM292.818 124.703L295.799 124.363C295.641 122.977 294.548 121.883 293.162 121.723L292.818 124.703ZM293.147 130.499H296.147V130.499L293.147 130.499ZM292.788 136.542L293.133 139.522C294.513 139.363 295.603 138.277 295.767 136.897L292.788 136.542ZM285.873 137.342L285.528 134.362C284.193 134.516 283.123 135.54 282.911 136.868L285.873 137.342ZM283.425 146.328L280.632 145.233C280.137 146.494 280.549 147.93 281.636 148.737L283.425 146.328ZM289.033 150.492L291.788 151.681C292.339 150.403 291.939 148.913 290.822 148.084L289.033 150.492ZM283.092 160.743L281.9 163.496C283.174 164.048 284.661 163.653 285.493 162.542L283.092 160.743ZM276.636 157.948L277.828 155.195C276.594 154.661 275.157 155.013 274.309 156.055L276.636 157.948ZM270.085 164.461L268.205 162.123C267.153 162.969 266.796 164.414 267.332 165.652L270.085 164.461ZM272.891 170.944L274.689 173.346C275.8 172.513 276.195 171.027 275.644 169.753L272.891 170.944ZM262.641 176.885L260.232 178.673C261.062 179.791 262.551 180.191 263.829 179.639L262.641 176.885ZM258.411 171.188L260.82 169.4C260.017 168.318 258.591 167.905 257.333 168.389L258.411 171.188ZM249.509 173.569L249.046 170.605C247.713 170.813 246.684 171.885 246.529 173.225L249.509 173.569ZM248.691 180.64L249.047 183.619C250.426 183.454 251.512 182.364 251.672 180.984L248.691 180.64ZM242.647 180.999V183.999V180.999ZM236.853 180.67L233.872 181.014C234.033 182.4 235.126 183.492 236.512 183.651L236.853 180.67ZM236.034 173.59L239.014 173.245C238.859 171.902 237.825 170.829 236.488 170.624L236.034 173.59ZM227.102 171.225L228.173 168.422C226.917 167.942 225.495 168.356 224.693 169.436L227.102 171.225ZM222.839 176.965L221.661 179.724C222.937 180.269 224.42 179.867 225.247 178.753L222.839 176.965ZM212.588 171.08L209.835 169.888C209.281 171.167 209.681 172.659 210.8 173.489L212.588 171.08ZM215.422 164.534L218.175 165.726C218.712 164.484 218.352 163.037 217.296 162.191L215.422 164.534ZM208.812 157.988L211.137 156.092C210.289 155.052 208.853 154.702 207.621 155.235L208.812 157.988ZM202.263 160.822L199.865 162.625C200.698 163.733 202.182 164.126 203.454 163.576L202.263 160.822ZM196.319 150.629L194.531 148.22C193.411 149.052 193.012 150.546 193.568 151.826L196.319 150.629ZM202.018 146.399L203.806 148.808C204.895 148 205.306 146.561 204.809 145.3L202.018 146.399ZM199.541 137.327L202.503 136.854C202.291 135.526 201.221 134.501 199.885 134.347L199.541 137.327ZM192.502 136.514L189.523 136.867C189.687 138.247 190.777 139.334 192.158 139.494L192.502 136.514ZM192.147 130.499L189.147 130.499V130.499H192.147ZM192.473 124.732L192.128 121.752C190.742 121.912 189.649 123.007 189.492 124.394L192.473 124.732ZM199.464 123.925L199.808 126.905C201.157 126.749 202.233 125.707 202.432 124.364L199.464 123.925ZM201.873 114.735L204.674 115.809C205.156 114.552 204.742 113.129 203.662 112.327L201.873 114.735ZM196.24 110.553L193.485 109.367C192.935 110.644 193.335 112.132 194.452 112.961L196.24 110.553ZM202.124 100.359L203.316 97.6062C202.039 97.0535 200.549 97.4513 199.718 98.5671L202.124 100.359ZM208.521 103.128L207.329 105.881C208.572 106.419 210.021 106.058 210.865 104.999L208.521 103.128ZM215.265 96.3457L217.149 98.6798C218.198 97.833 218.553 96.3906 218.018 95.1537L215.265 96.3457ZM212.507 89.9766L210.715 87.5708C209.599 88.4021 209.201 89.8917 209.754 91.1686L212.507 89.9766ZM222.701 84.0918L225.11 82.3034C224.281 81.1867 222.793 80.7863 221.515 81.3362L222.701 84.0918ZM226.818 89.6367L224.41 91.4252C225.216 92.5111 226.649 92.9232 227.909 92.4314L226.818 89.6367ZM236.092 87.1553L236.542 90.1213C237.88 89.9181 238.917 88.8441 239.072 87.4995L236.092 87.1553ZM236.881 80.3242L236.542 77.3434C235.156 77.501 234.061 78.5938 233.901 79.98L236.881 80.3242ZM140.951 92.999L140.951 89.999H140.951V92.999ZM145.398 93.2598L148.371 92.8519C148.185 91.4967 147.105 90.4389 145.747 90.2801L145.398 93.2598ZM146.241 99.4014L143.269 99.8092C143.447 101.104 144.442 102.134 145.729 102.357L146.241 99.4014ZM154.83 102.19L153.508 104.883C154.68 105.459 156.091 105.21 156.995 104.267L154.83 102.19ZM159.173 97.6621L160.618 95.033C159.428 94.3791 157.947 94.6057 157.008 95.5856L159.173 97.6621ZM166.698 103.096L169.342 104.513C169.987 103.31 169.739 101.823 168.738 100.895L166.698 103.096ZM163.718 108.657L161.074 107.24C160.457 108.391 160.655 109.808 161.564 110.745L163.718 108.657ZM169.029 115.957L166.379 117.363C166.99 118.515 168.276 119.141 169.561 118.91L169.029 115.957ZM175.276 114.833L177.993 113.56C177.416 112.329 176.083 111.64 174.745 111.88L175.276 114.833ZM178.145 123.644L179.451 126.344C180.676 125.752 181.348 124.409 181.09 123.073L178.145 123.644ZM172.423 126.411L171.117 123.71C169.943 124.278 169.27 125.539 169.452 126.831L172.423 126.411ZM172.741 130.926L175.741 130.926V130.926L172.741 130.926ZM172.423 135.439L169.452 135.02C169.27 136.311 169.943 137.573 171.117 138.14L172.423 135.439ZM178.131 138.199L181.075 138.775C181.337 137.437 180.664 136.092 179.437 135.498L178.131 138.199ZM175.244 147.01L174.713 149.962C176.049 150.203 177.38 149.516 177.958 148.288L175.244 147.01ZM169.029 145.893L169.56 142.94C168.276 142.709 166.99 143.335 166.379 144.487L169.029 145.893ZM163.718 153.192L161.564 151.104C160.655 152.042 160.457 153.459 161.074 154.61L163.718 153.192ZM166.672 158.703L168.709 160.905C169.712 159.978 169.961 158.49 169.316 157.286L166.672 158.703ZM159.125 164.138L156.96 166.214C157.899 167.193 159.377 167.42 160.566 166.769L159.125 164.138ZM154.83 159.66L156.995 157.583C156.091 156.641 154.68 156.391 153.508 156.967L154.83 159.66ZM146.241 162.449L145.729 159.493C144.442 159.716 143.447 160.747 143.269 162.041L146.241 162.449ZM145.409 168.513L145.758 171.492C147.117 171.333 148.195 170.275 148.381 168.921L145.409 168.513ZM140.951 168.775V171.775H140.951L140.951 168.775ZM136.074 168.463L133.102 168.87C133.286 170.213 134.348 171.266 135.692 171.438L136.074 168.463ZM135.25 162.449L138.222 162.042C138.045 160.747 137.049 159.716 135.762 159.493L135.25 162.449ZM126.66 159.66L127.983 156.967C126.81 156.392 125.4 156.641 124.495 157.583L126.66 159.66ZM122.508 163.988L121.045 166.608C122.237 167.273 123.728 167.05 124.673 166.065L122.508 163.988ZM114.955 158.448L112.311 157.031C111.671 158.225 111.911 159.7 112.896 160.63L114.955 158.448ZM117.772 153.193L120.416 154.611C121.033 153.46 120.835 152.043 119.926 151.105L117.772 153.193ZM112.462 145.893L115.112 144.487C114.501 143.335 113.215 142.709 111.931 142.94L112.462 145.893ZM106.625 146.941L103.908 148.214C104.485 149.445 105.818 150.135 107.156 149.894L106.625 146.941ZM103.735 138.017L102.43 135.316C101.208 135.906 100.534 137.244 100.788 138.578L103.735 138.017ZM109.067 135.439L110.373 138.141C111.547 137.573 112.22 136.312 112.038 135.02L109.067 135.439ZM108.75 130.926L105.75 130.926V130.926L108.75 130.926ZM109.067 126.411L112.038 126.831C112.22 125.539 111.548 124.278 110.374 123.71L109.067 126.411ZM103.723 123.826L100.775 123.27C100.524 124.602 101.196 125.937 102.416 126.527L103.723 123.826ZM106.593 114.901L107.124 111.949C105.783 111.708 104.449 112.4 103.874 113.634L106.593 114.901ZM112.462 115.957L111.931 118.91C113.215 119.141 114.501 118.515 115.112 117.363L112.462 115.957ZM117.773 108.657L119.927 110.745C120.836 109.808 121.034 108.391 120.417 107.24L117.773 108.657ZM114.929 103.351L112.868 101.171C111.884 102.101 111.645 103.575 112.285 104.768L114.929 103.351ZM122.461 97.8115L124.626 95.7348C123.68 94.7486 122.187 94.5263 120.995 95.1943L122.461 97.8115ZM126.661 102.19L124.496 104.267C125.4 105.21 126.811 105.459 127.983 104.883L126.661 102.19ZM135.25 99.4014L135.762 102.357C137.05 102.134 138.045 101.104 138.222 99.8087L135.25 99.4014ZM136.085 93.3086L135.703 90.333C134.359 90.5054 133.297 91.5581 133.113 92.9013L136.085 93.3086ZM242.647 118.096V115.096H242.647L242.647 118.096ZM230.244 130.499L227.244 130.499V130.499L230.244 130.499ZM242.647 142.902L242.647 145.902H242.647V142.902ZM255.051 130.499L258.051 130.499V130.499L255.051 130.499ZM140.745 120.261V117.261H140.745L140.745 120.261ZM130.08 130.926L127.08 130.926V130.926H130.08ZM140.745 141.591L140.745 144.591H140.745V141.591ZM151.41 130.926H154.41V130.926L151.41 130.926ZM163.716 41.3086L164.144 38.3393C162.858 38.1538 161.599 38.8175 161.024 39.9833L163.716 41.3086ZM167.894 42.2314L168.756 39.358L168.756 39.358L167.894 42.2314ZM172.103 43.8623L175.079 44.2367C175.24 42.9568 174.565 41.7172 173.402 41.1584L172.103 43.8623ZM171.523 48.4658L168.547 48.0914C168.394 49.3108 168.999 50.5004 170.076 51.0935L171.523 48.4658ZM178.273 53.9727L175.991 55.9192C176.788 56.8544 178.075 57.2086 179.239 56.8131L178.273 53.9727ZM182.595 52.5039L184.998 50.7084C184.22 49.6671 182.86 49.2452 181.629 49.6635L182.595 52.5039ZM186.724 60.2812L188.564 62.6506C189.58 61.8613 189.98 60.5117 189.557 59.2962L186.724 60.2812ZM183.16 63.0488L181.32 60.6795C180.349 61.4333 179.937 62.7028 180.279 63.8832L183.16 63.0488ZM184.041 71.7158L181.05 71.4779C180.953 72.7033 181.613 73.8642 182.716 74.4072L184.041 71.7158ZM188.023 73.6768L190.993 74.1008C191.177 72.8159 190.513 71.5587 189.349 70.9853L188.023 73.6768ZM187.095 77.8936L189.968 78.7557L189.968 78.7556L187.095 77.8936ZM185.445 82.1387L185.071 85.1152C186.349 85.2759 187.588 84.6025 188.147 83.442L185.445 82.1387ZM181.079 81.5898L181.453 78.6133C180.234 78.46 179.044 79.0658 178.451 80.1422L181.079 81.5898ZM175.572 88.3389L173.626 86.0561C172.691 86.8535 172.336 88.1408 172.732 89.3044L175.572 88.3389ZM176.979 92.4756L178.79 94.8666C179.82 94.0861 180.235 92.7336 179.819 91.51L176.979 92.4756ZM169.176 96.6768L166.806 98.5162C167.598 99.5373 168.956 99.9359 170.175 99.5056L169.176 96.6768ZM166.497 93.2256L168.867 91.3861C168.113 90.4151 166.843 90.0021 165.663 90.3439L166.497 93.2256ZM157.83 94.1074L158.068 91.1169C156.843 91.0194 155.682 91.6792 155.139 92.7818L157.83 94.1074ZM155.886 98.0547L155.486 101.028C156.764 101.2 158.008 100.536 158.577 99.3803L155.886 98.0547ZM151.434 97.0957L150.572 99.9692L150.572 99.9692L151.434 97.0957ZM147.401 95.5498L144.425 95.1744C144.263 96.4622 144.947 97.7085 146.121 98.2626L147.401 95.5498ZM147.957 91.1445L150.933 91.52C151.087 90.3003 150.481 89.1102 149.405 88.5169L147.957 91.1445ZM141.206 85.6387L143.489 83.6922C142.692 82.7571 141.405 82.4028 140.241 82.7981L141.206 85.6387ZM136.935 87.0898L134.552 88.9132C135.334 89.9351 136.681 90.3443 137.9 89.9304L136.935 87.0898ZM132.714 79.3604L130.875 76.9903C129.848 77.7873 129.451 79.1553 129.892 80.3783L132.714 79.3604ZM136.319 76.5625L138.159 78.9326C139.13 78.179 139.543 76.9092 139.201 75.7284L136.319 76.5625ZM135.439 67.8965L138.43 68.1344C138.527 66.9093 137.868 65.7486 136.765 65.2054L135.439 67.8965ZM131.275 65.8447L128.303 65.4411C128.129 66.7194 128.792 67.9656 129.949 68.5358L131.275 65.8447ZM132.23 61.4336L129.357 60.5715L129.357 60.5715L132.23 61.4336ZM133.76 57.4375L134.135 54.4611C132.846 54.2985 131.598 54.9846 131.045 56.1604L133.76 57.4375ZM138.4 58.0225L138.025 60.9989C139.245 61.1526 140.435 60.5468 141.028 59.4701L138.4 58.0225ZM143.907 51.2725L145.854 53.5553C146.789 52.7576 147.143 51.4699 146.747 50.3061L143.907 51.2725ZM142.391 46.8154L140.583 44.4208C139.55 45.2009 139.133 46.556 139.551 47.7818L142.391 46.8154ZM150.097 42.667L152.466 40.8274C151.673 39.8048 150.312 39.4067 149.092 39.8401L150.097 42.667ZM152.983 46.3857L150.614 48.2253C151.367 49.1963 152.637 49.6092 153.818 49.2674L152.983 46.3857ZM161.649 45.5049L161.412 48.4954C162.637 48.5929 163.798 47.933 164.341 46.8302L161.649 45.5049ZM162.074 62.0234L162.936 59.15L162.936 59.1499L162.074 62.0234ZM151.959 67.4717L149.086 66.6096L149.085 66.6097L151.959 67.4717ZM157.405 77.5879L156.543 80.4614L156.543 80.4614L157.405 77.5879ZM167.521 72.1406L170.395 73.0028L170.395 73.0027L167.521 72.1406ZM187.851 180.003L186.888 182.844C188.024 183.229 189.058 183.832 189.939 184.607L191.92 182.354L193.901 180.1C192.431 178.808 190.706 177.803 188.813 177.161L187.851 180.003ZM191.92 182.354L189.01 181.624L188.15 185.053L191.06 185.783L193.969 186.513L194.83 183.083L191.92 182.354ZM191.06 185.783L188.708 187.646C189.069 188.102 189.364 188.61 189.581 189.155L192.369 188.048L195.157 186.941C194.722 185.844 194.13 184.828 193.411 183.92L191.06 185.783ZM192.369 188.048L191.547 190.933L194.948 191.903L195.771 189.018L196.593 186.133L193.192 185.163L192.369 188.048ZM195.771 189.018L192.828 189.602C192.941 190.171 193.001 190.762 193.001 191.367L196.001 191.367L199.001 191.367C199.001 190.365 198.902 189.383 198.713 188.433L195.771 189.018ZM196.001 191.367H193.001C193.001 191.972 192.941 192.562 192.828 193.132L195.771 193.716L198.713 194.3C198.901 193.351 199.001 192.37 199.001 191.367H196.001ZM195.771 193.716L194.946 190.831L191.545 191.803L192.369 194.688L193.193 197.572L196.595 196.6L195.771 193.716ZM192.369 194.688L189.581 193.58C189.364 194.126 189.069 194.634 188.708 195.089L191.06 196.952L193.411 198.815C194.13 197.907 194.722 196.891 195.157 195.795L192.369 194.688ZM191.06 196.952L188.15 197.682L189.009 201.109L191.919 200.38L194.829 199.65L193.97 196.223L191.06 196.952ZM191.919 200.38L189.938 198.127C189.055 198.903 188.022 199.507 186.888 199.891L187.851 202.732L188.813 205.574C190.709 204.932 192.432 203.923 193.9 202.633L191.919 200.38ZM187.851 202.732L189.936 200.576L187.394 198.117L185.309 200.273L183.223 202.43L185.765 204.889L187.851 202.732ZM185.309 200.273L184.877 197.305C184.595 197.346 184.303 197.367 184.001 197.367V200.367V203.367C184.588 203.367 185.169 203.325 185.741 203.242L185.309 200.273ZM184.001 200.367V197.367C183.699 197.367 183.407 197.346 183.125 197.305L182.693 200.273L182.261 203.242C182.833 203.325 183.414 203.367 184.001 203.367V200.367ZM182.693 200.273L180.607 198.118L178.066 200.577L180.152 202.732L182.239 204.888L184.78 202.429L182.693 200.273ZM180.152 202.732L181.114 199.891C179.981 199.507 178.948 198.904 178.065 198.127L176.084 200.38L174.103 202.633C175.571 203.923 177.293 204.932 179.19 205.574L180.152 202.732ZM176.084 200.38L178.994 201.109L179.853 197.681L176.942 196.952L174.032 196.223L173.174 199.651L176.084 200.38ZM176.942 196.952L179.294 195.089C178.933 194.634 178.638 194.126 178.421 193.58L175.633 194.688L172.845 195.795C173.28 196.891 173.872 197.907 174.591 198.815L176.942 196.952ZM175.633 194.688L176.457 191.803L173.057 190.831L172.232 193.716L171.408 196.6L174.809 197.572L175.633 194.688ZM172.232 193.716L175.175 193.132C175.061 192.559 175.001 191.969 175.001 191.367H172.001H169.001C169.001 192.372 169.102 193.353 169.29 194.3L172.232 193.716ZM172.001 191.367L175.001 191.367C175.001 190.764 175.061 190.174 175.175 189.602L172.232 189.018L169.29 188.433C169.102 189.381 169.001 190.362 169.001 191.367L172.001 191.367ZM172.232 189.018L173.055 191.903L176.456 190.933L175.633 188.048L174.81 185.163L171.41 186.133L172.232 189.018ZM175.633 188.048L178.421 189.155C178.638 188.61 178.933 188.102 179.294 187.646L176.942 185.783L174.591 183.92C173.872 184.828 173.28 185.844 172.845 186.941L175.633 188.048ZM176.942 185.783L179.852 185.054L178.993 181.624L176.083 182.354L173.173 183.083L174.032 186.512L176.942 185.783ZM176.083 182.354L178.064 184.607C178.945 183.832 179.979 183.229 181.114 182.845L180.152 180.003L179.19 177.161C177.296 177.803 175.572 178.809 174.102 180.1L176.083 182.354ZM180.152 180.003L178.066 182.159L180.607 184.618L182.693 182.462L184.78 180.306L182.239 177.847L180.152 180.003ZM182.693 182.462L183.125 185.431C183.412 185.389 183.704 185.367 184.001 185.367V182.367V179.367C183.41 179.367 182.829 179.411 182.261 179.493L182.693 182.462ZM184.001 182.367V185.367C184.298 185.367 184.59 185.389 184.876 185.431L185.309 182.462L185.741 179.493C185.173 179.411 184.592 179.367 184.001 179.367V182.367ZM185.309 182.462L187.394 184.618L189.936 182.159L187.851 180.003L185.765 177.847L183.223 180.306L185.309 182.462ZM184.001 187.367V184.367C180.135 184.367 177.002 187.502 177.001 191.367L180.001 191.367L183.001 191.368C183.001 190.815 183.449 190.367 184.001 190.367V187.367ZM180.001 191.367H177.001C177.001 195.233 180.135 198.367 184.001 198.367V195.367V192.367C183.449 192.367 183.001 191.919 183.001 191.367H180.001ZM184.001 195.367V198.367C187.867 198.367 191.001 195.233 191.001 191.367H188.001H185.001C185.001 191.919 184.553 192.367 184.001 192.367V195.367ZM188.001 191.367L191.001 191.367C191 187.502 187.867 184.367 184.001 184.367V187.367V190.367C184.553 190.367 185.001 190.815 185.001 191.368L188.001 191.367ZM242.647 79.999V82.999C244.564 82.999 246.453 83.1124 248.309 83.3326L248.662 80.3535L249.016 77.3744C246.926 77.1265 244.801 76.999 242.647 76.999V79.999ZM248.662 80.3535L245.682 80.6982L246.471 87.5195L249.451 87.1748L252.431 86.8301L251.642 80.0088L248.662 80.3535ZM249.451 87.1748L248.992 90.1395C251.981 90.6021 254.861 91.3898 257.597 92.4649L258.694 89.6729L259.792 86.8808C256.65 85.6458 253.341 84.7412 249.91 84.2101L249.451 87.1748ZM258.694 89.6729L261.103 91.4611L265.187 85.9602L262.778 84.1719L260.37 82.3836L256.286 87.8846L258.694 89.6729ZM262.778 84.1719L261.581 86.9227C265.004 88.4122 268.219 90.2941 271.168 92.5119L272.971 90.1143L274.774 87.7166C271.454 85.2201 267.834 83.1 263.975 81.421L262.778 84.1719ZM272.971 90.1143L270.217 88.9227L267.489 95.2274L270.242 96.4189L272.995 97.6105L275.724 91.3058L272.971 90.1143ZM270.242 96.4189L268.351 98.7481C270.648 100.613 272.738 102.722 274.581 105.036L276.928 103.167L279.275 101.298C277.162 98.6445 274.765 96.2269 272.133 94.0898L270.242 96.4189ZM276.928 103.167L278.12 105.92L284.419 103.192L283.228 100.439L282.036 97.6864L275.736 100.414L276.928 103.167ZM283.228 100.439L280.818 102.227C283.021 105.196 284.886 108.428 286.354 111.868L289.113 110.69L291.872 109.513C290.217 105.634 288.116 101.993 285.637 98.6519L283.228 100.439ZM289.113 110.69L287.325 108.282L281.782 112.398L283.57 114.807L285.359 117.215L290.902 113.099L289.113 110.69ZM283.57 114.807L280.767 115.875C281.796 118.575 282.548 121.411 282.984 124.35L285.951 123.91L288.919 123.47C288.418 120.095 287.555 116.837 286.373 113.738L283.57 114.807ZM285.951 123.91L285.607 126.89L292.474 127.683L292.818 124.703L293.162 121.723L286.295 120.93L285.951 123.91ZM292.818 124.703L289.838 125.044C290.042 126.833 290.147 128.653 290.147 130.499L293.147 130.499L296.147 130.499C296.147 128.425 296.029 126.377 295.799 124.363L292.818 124.703ZM293.147 130.499H290.147C290.147 132.423 290.032 134.322 289.809 136.187L292.788 136.542L295.767 136.897C296.017 134.8 296.147 132.664 296.147 130.499H293.147ZM292.788 136.542L292.443 133.562L285.528 134.362L285.873 137.342L286.218 140.322L293.133 139.522L292.788 136.542ZM285.873 137.342L282.911 136.868C282.446 139.771 281.675 142.571 280.632 145.233L283.425 146.328L286.218 147.423C287.417 144.364 288.302 141.148 288.835 137.816L285.873 137.342ZM283.425 146.328L281.636 148.737L287.245 152.901L289.033 150.492L290.822 148.084L285.213 143.919L283.425 146.328ZM289.033 150.492L286.279 149.303C284.793 152.746 282.912 155.979 280.691 158.945L283.092 160.743L285.493 162.542C287.994 159.203 290.113 155.561 291.788 151.681L289.033 150.492ZM283.092 160.743L284.284 157.99L277.828 155.195L276.636 157.948L275.444 160.701L281.9 163.496L283.092 160.743ZM276.636 157.948L274.309 156.055C272.494 158.286 270.447 160.32 268.205 162.123L270.085 164.461L271.965 166.799C274.535 164.732 276.881 162.4 278.963 159.842L276.636 157.948ZM270.085 164.461L267.332 165.652L270.137 172.136L272.891 170.944L275.644 169.753L272.838 163.269L270.085 164.461ZM272.891 170.944L271.092 168.543C268.127 170.764 264.894 172.645 261.452 174.13L262.641 176.885L263.829 179.639C267.709 177.965 271.35 175.846 274.689 173.346L272.891 170.944ZM262.641 176.885L265.049 175.096L260.82 169.4L258.411 171.188L256.002 172.977L260.232 178.673L262.641 176.885ZM258.411 171.188L257.333 168.389C254.692 169.406 251.919 170.157 249.046 170.605L249.509 173.569L249.972 176.533C253.272 176.018 256.457 175.156 259.489 173.988L258.411 171.188ZM249.509 173.569L246.529 173.225L245.711 180.295L248.691 180.64L251.672 180.984L252.489 173.914L249.509 173.569ZM248.691 180.64L248.336 177.661C246.471 177.883 244.572 177.999 242.647 177.999V180.999V183.999C244.813 183.999 246.949 183.869 249.047 183.619L248.691 180.64ZM242.647 180.999V177.999C240.802 177.999 238.982 177.894 237.193 177.689L236.853 180.67L236.512 183.651C238.526 183.881 240.573 183.999 242.647 183.999V180.999ZM236.853 180.67L239.833 180.325L239.014 173.245L236.034 173.59L233.054 173.934L233.872 181.014L236.853 180.67ZM236.034 173.59L236.488 170.624C233.607 170.183 230.825 169.436 228.173 168.422L227.102 171.225L226.03 174.027C229.072 175.19 232.268 176.048 235.58 176.555L236.034 173.59ZM227.102 171.225L224.693 169.436L220.43 175.176L222.839 176.965L225.247 178.753L229.51 173.013L227.102 171.225ZM222.839 176.965L224.017 174.206C220.576 172.737 217.344 170.873 214.375 168.671L212.588 171.08L210.8 173.489C214.142 175.968 217.783 178.069 221.661 179.724L222.839 176.965ZM212.588 171.08L215.341 172.272L218.175 165.726L215.422 164.534L212.669 163.342L209.835 169.888L212.588 171.08ZM215.422 164.534L217.296 162.191C215.033 160.382 212.968 158.336 211.137 156.092L208.812 157.988L206.488 159.884C208.587 162.458 210.955 164.803 213.548 166.877L215.422 164.534ZM208.812 157.988L207.621 155.235L201.071 158.069L202.263 160.822L203.454 163.576L210.004 160.742L208.812 157.988ZM202.263 160.822L204.66 159.019C202.442 156.07 200.56 152.855 199.07 149.432L196.319 150.629L193.568 151.826C195.248 155.685 197.368 159.306 199.865 162.625L202.263 160.822ZM196.319 150.629L198.107 153.038L203.806 148.808L202.018 146.399L200.23 143.99L194.531 148.22L196.319 150.629ZM202.018 146.399L204.809 145.3C203.751 142.615 202.972 139.787 202.503 136.854L199.541 137.327L196.579 137.8C197.116 141.164 198.01 144.412 199.226 147.499L202.018 146.399ZM199.541 137.327L199.885 134.347L192.846 133.534L192.502 136.514L192.158 139.494L199.197 140.307L199.541 137.327ZM192.502 136.514L195.481 136.16C195.261 134.305 195.147 132.416 195.147 130.499H192.147H189.147C189.147 132.653 189.275 134.778 189.523 136.867L192.502 136.514ZM192.147 130.499L195.147 130.499C195.147 128.662 195.251 126.851 195.453 125.071L192.473 124.732L189.492 124.394C189.264 126.399 189.147 128.436 189.147 130.499L192.147 130.499ZM192.473 124.732L192.817 127.713L199.808 126.905L199.464 123.925L199.12 120.945L192.128 121.752L192.473 124.732ZM199.464 123.925L202.432 124.364C202.871 121.395 203.631 118.532 204.674 115.809L201.873 114.735L199.072 113.662C197.873 116.789 197 120.078 196.496 123.486L199.464 123.925ZM201.873 114.735L203.662 112.327L198.029 108.144L196.24 110.553L194.452 112.961L200.085 117.144L201.873 114.735ZM196.24 110.553L198.996 111.739C200.468 108.318 202.331 105.103 204.53 102.152L202.124 100.359L199.718 98.5671C197.243 101.89 195.144 105.511 193.485 109.367L196.24 110.553ZM202.124 100.359L200.932 103.113L207.329 105.881L208.521 103.128L209.712 100.375L203.316 97.6062L202.124 100.359ZM208.521 103.128L210.865 104.999C212.723 102.671 214.832 100.551 217.149 98.6798L215.265 96.3457L213.38 94.0116C210.723 96.1568 208.306 98.587 206.176 101.257L208.521 103.128ZM215.265 96.3457L218.018 95.1537L215.26 88.7845L212.507 89.9766L209.754 91.1686L212.512 97.5377L215.265 96.3457ZM212.507 89.9766L214.299 92.3823C217.251 90.1834 220.466 88.32 223.887 86.8474L222.701 84.0918L221.515 81.3362C217.659 82.9958 214.038 85.0951 210.715 87.5708L212.507 89.9766ZM222.701 84.0918L220.293 85.8802L224.41 91.4252L226.818 89.6367L229.227 87.8483L225.11 82.3034L222.701 84.0918ZM226.818 89.6367L227.909 92.4314C230.655 91.3597 233.545 90.5764 236.542 90.1213L236.092 87.1553L235.641 84.1893C232.199 84.7119 228.88 85.6117 225.728 86.8421L226.818 89.6367ZM236.092 87.1553L239.072 87.4995L239.861 80.6685L236.881 80.3242L233.901 79.98L233.112 86.811L236.092 87.1553ZM236.881 80.3242L237.22 83.305C238.999 83.1027 240.81 82.999 242.647 82.999V79.999V76.999C240.585 76.999 238.547 77.1155 236.542 77.3434L236.881 80.3242ZM140.951 92.999L140.951 95.999C142.336 95.999 143.703 96.082 145.05 96.2395L145.398 93.2598L145.747 90.2801C144.176 90.0964 142.576 89.999 140.951 89.999L140.951 92.999ZM145.398 93.2598L142.426 93.6676L143.269 99.8092L146.241 99.4014L149.213 98.9935L148.371 92.8519L145.398 93.2598ZM146.241 99.4014L145.729 102.357C148.474 102.832 151.085 103.694 153.508 104.883L154.83 102.19L156.152 99.4976C153.226 98.0606 150.069 97.0195 146.753 96.4453L146.241 99.4014ZM154.83 102.19L156.995 104.267L161.338 99.7386L159.173 97.6621L157.008 95.5856L152.665 100.114L154.83 102.19ZM159.173 97.6621L157.728 100.291C160.242 101.673 162.568 103.358 164.659 105.296L166.698 103.096L168.738 100.895C166.291 98.6282 163.567 96.6539 160.618 95.033L159.173 97.6621ZM166.698 103.096L164.054 101.679L161.074 107.24L163.718 108.657L166.362 110.074L169.342 104.513L166.698 103.096ZM163.718 108.657L161.564 110.745C163.464 112.706 165.09 114.932 166.379 117.363L169.029 115.957L171.68 114.551C170.123 111.617 168.162 108.931 165.872 106.569L163.718 108.657ZM169.029 115.957L169.561 118.91L175.808 117.786L175.276 114.833L174.745 111.88L168.498 113.004L169.029 115.957ZM175.276 114.833L172.56 116.106C173.754 118.656 174.649 121.373 175.199 124.214L178.145 123.644L181.09 123.073C180.444 119.74 179.394 116.551 177.993 113.56L175.276 114.833ZM178.145 123.644L176.838 120.943L171.117 123.71L172.423 126.411L173.729 129.112L179.451 126.344L178.145 123.644ZM172.423 126.411L169.452 126.831C169.641 128.17 169.741 129.537 169.741 130.926L172.741 130.926L175.741 130.926C175.741 129.25 175.621 127.602 175.393 125.992L172.423 126.411ZM172.741 130.926L169.741 130.926C169.741 132.314 169.641 133.681 169.452 135.02L172.423 135.439L175.393 135.859C175.621 134.249 175.741 132.602 175.741 130.926L172.741 130.926ZM172.423 135.439L171.117 138.14L176.825 140.9L178.131 138.199L179.437 135.498L173.729 132.739L172.423 135.439ZM178.131 138.199L175.187 137.624C174.631 140.465 173.731 143.182 172.53 145.732L175.244 147.01L177.958 148.288C179.367 145.297 180.423 142.109 181.075 138.775L178.131 138.199ZM175.244 147.01L175.775 144.057L169.56 142.94L169.029 145.893L168.499 148.845L174.713 149.962L175.244 147.01ZM169.029 145.893L166.379 144.487C165.09 146.917 163.464 149.144 161.564 151.104L163.718 153.192L165.872 155.281C168.162 152.918 170.123 150.233 171.68 147.298L169.029 145.893ZM163.718 153.192L161.074 154.61L164.028 160.121L166.672 158.703L169.316 157.286L166.362 151.775L163.718 153.192ZM166.672 158.703L164.635 156.501C162.538 158.441 160.205 160.125 157.684 161.507L159.125 164.138L160.566 166.769C163.523 165.149 166.256 163.175 168.709 160.905L166.672 158.703ZM159.125 164.138L161.29 162.061L156.995 157.583L154.83 159.66L152.665 161.737L156.96 166.214L159.125 164.138ZM154.83 159.66L153.508 156.967C151.085 158.157 148.474 159.018 145.729 159.493L146.241 162.449L146.753 165.405C150.069 164.831 153.226 163.79 156.152 162.353L154.83 159.66ZM146.241 162.449L143.269 162.041L142.437 168.105L145.409 168.513L148.381 168.921L149.213 162.857L146.241 162.449ZM145.409 168.513L145.06 165.533C143.709 165.691 142.338 165.775 140.951 165.775L140.951 168.775L140.951 171.775C142.581 171.775 144.185 171.677 145.758 171.492L145.409 168.513ZM140.951 168.775V165.775C139.429 165.775 137.929 165.677 136.457 165.487L136.074 168.463L135.692 171.438C137.413 171.66 139.169 171.775 140.951 171.775V168.775ZM136.074 168.463L139.046 168.056L138.222 162.042L135.25 162.449L132.278 162.857L133.102 168.87L136.074 168.463ZM135.25 162.449L135.762 159.493C133.017 159.018 130.405 158.157 127.983 156.967L126.66 159.66L125.338 162.353C128.265 163.79 131.422 164.831 134.738 165.405L135.25 162.449ZM126.66 159.66L124.495 157.583L120.343 161.911L122.508 163.988L124.673 166.065L128.825 161.737L126.66 159.66ZM122.508 163.988L123.97 161.369C121.441 159.957 119.106 158.24 117.014 156.266L114.955 158.448L112.896 160.63C115.346 162.942 118.082 164.953 121.045 166.608L122.508 163.988ZM114.955 158.448L117.599 159.866L120.416 154.611L117.772 153.193L115.128 151.776L112.311 157.031L114.955 158.448ZM117.772 153.193L119.926 151.105C118.026 149.145 116.402 146.918 115.112 144.487L112.462 145.893L109.811 147.298C111.368 150.233 113.328 152.919 115.619 155.282L117.772 153.193ZM112.462 145.893L111.931 142.94L106.094 143.989L106.625 146.941L107.156 149.894L112.992 148.845L112.462 145.893ZM106.625 146.941L109.342 145.669C108.132 143.088 107.231 140.335 106.682 137.455L103.735 138.017L100.788 138.578C101.431 141.955 102.49 145.186 103.908 148.214L106.625 146.941ZM103.735 138.017L105.041 140.718L110.373 138.141L109.067 135.439L107.762 132.738L102.43 135.316L103.735 138.017ZM109.067 135.439L112.038 135.02C111.849 133.682 111.75 132.315 111.75 130.926L108.75 130.926L105.75 130.926C105.75 132.6 105.869 134.248 106.097 135.859L109.067 135.439ZM108.75 130.926L111.75 130.926C111.75 129.536 111.849 128.169 112.038 126.831L109.067 126.411L106.097 125.992C105.869 127.603 105.75 129.251 105.75 130.926L108.75 130.926ZM109.067 126.411L110.374 123.71L105.029 121.125L103.723 123.826L102.416 126.527L107.761 129.112L109.067 126.411ZM103.723 123.826L106.671 124.382C107.213 121.503 108.109 118.75 109.312 116.169L106.593 114.901L103.874 113.634C102.462 116.663 101.411 119.894 100.775 123.27L103.723 123.826ZM106.593 114.901L106.062 117.854L111.931 118.91L112.462 115.957L112.993 113.004L107.124 111.949L106.593 114.901ZM112.462 115.957L115.112 117.363C116.401 114.932 118.027 112.706 119.927 110.745L117.773 108.657L115.62 106.569C113.329 108.931 111.368 111.617 109.812 114.551L112.462 115.957ZM117.773 108.657L120.417 107.24L117.573 101.933L114.929 103.351L112.285 104.768L115.129 110.075L117.773 108.657ZM114.929 103.351L116.99 105.531C119.076 103.558 121.405 101.842 123.927 100.429L122.461 97.8115L120.995 95.1943C118.039 96.85 115.311 98.861 112.868 101.171L114.929 103.351ZM122.461 97.8115L120.296 99.8882L124.496 104.267L126.661 102.19L128.826 100.114L124.626 95.7348L122.461 97.8115ZM126.661 102.19L127.983 104.883C130.406 103.694 133.017 102.832 135.762 102.357L135.25 99.4014L134.738 96.4453C131.422 97.0195 128.265 98.0607 125.339 99.4976L126.661 102.19ZM135.25 99.4014L138.222 99.8087L139.057 93.7159L136.085 93.3086L133.113 92.9013L132.278 98.994L135.25 99.4014ZM136.085 93.3086L136.466 96.2842C137.933 96.0962 139.43 95.999 140.951 95.999V92.999V89.999C139.175 89.999 137.423 90.1125 135.703 90.333L136.085 93.3086ZM242.647 118.096L242.647 115.096C234.14 115.096 227.244 121.992 227.244 130.499L230.244 130.499L233.244 130.499C233.244 125.306 237.454 121.096 242.647 121.096L242.647 118.096ZM230.244 130.499L227.244 130.499C227.244 139.006 234.14 145.902 242.647 145.902L242.647 142.902L242.647 139.902C237.454 139.902 233.244 135.692 233.244 130.499L230.244 130.499ZM242.647 142.902V145.902C251.155 145.902 258.051 139.006 258.051 130.499L255.051 130.499L252.051 130.499C252.051 135.692 247.841 139.902 242.647 139.902V142.902ZM255.051 130.499L258.051 130.499C258.051 121.992 251.155 115.096 242.647 115.096V118.096V121.096C247.841 121.096 252.051 125.306 252.051 130.499L255.051 130.499ZM140.745 120.261L140.745 117.261C133.198 117.261 127.08 123.379 127.08 130.926L130.08 130.926L133.08 130.926C133.08 126.693 136.512 123.261 140.745 123.261L140.745 120.261ZM130.08 130.926H127.08C127.08 138.473 133.198 144.591 140.745 144.591L140.745 141.591L140.745 138.591C136.512 138.591 133.08 135.159 133.08 130.926H130.08ZM140.745 141.591V144.591C148.292 144.591 154.41 138.473 154.41 130.926H151.41H148.41C148.41 135.159 144.979 138.591 140.745 138.591V141.591ZM151.41 130.926L154.41 130.926C154.41 123.379 148.292 117.261 140.745 117.261V120.261V123.261C144.978 123.261 148.41 126.692 148.41 130.926L151.41 130.926ZM163.716 41.3086L163.288 44.2779C164.536 44.4578 165.787 44.7314 167.031 45.1049L167.894 42.2314L168.756 39.358C167.223 38.8982 165.682 38.5611 164.144 38.3393L163.716 41.3086ZM167.894 42.2314L167.031 45.1049C168.346 45.4993 169.605 45.9903 170.803 46.5662L172.103 43.8623L173.402 41.1584C171.925 40.4484 170.374 39.8435 168.756 39.358L167.894 42.2314ZM172.103 43.8623L169.126 43.4879L168.547 48.0914L171.523 48.4658L174.5 48.8403L175.079 44.2367L172.103 43.8623ZM171.523 48.4658L170.076 51.0935C172.359 52.3513 174.351 53.9964 175.991 55.9192L178.273 53.9727L180.556 52.0261C178.456 49.5628 175.901 47.4523 172.971 45.8382L171.523 48.4658ZM178.273 53.9727L179.239 56.8131L183.56 55.3443L182.595 52.5039L181.629 49.6635L177.308 51.1322L178.273 53.9727ZM182.595 52.5039L180.191 54.2994C181.773 56.4166 183.022 58.7687 183.89 61.2663L186.724 60.2812L189.557 59.2962C188.487 56.2177 186.948 53.3189 184.998 50.7084L182.595 52.5039ZM186.724 60.2812L184.883 57.9119L181.32 60.6795L183.16 63.0488L185 65.4182L188.564 62.6506L186.724 60.2812ZM183.16 63.0488L180.279 63.8832C180.981 66.31 181.257 68.8784 181.05 71.4779L184.041 71.7158L187.032 71.9537C187.297 68.6196 186.942 65.325 186.042 62.2145L183.16 63.0488ZM184.041 71.7158L182.716 74.4072L186.698 76.3682L188.023 73.6768L189.349 70.9853L185.366 69.0244L184.041 71.7158ZM188.023 73.6768L185.054 73.2527C184.874 74.5118 184.598 75.7747 184.221 77.0315L187.095 77.8936L189.968 78.7556C190.432 77.2093 190.772 75.6534 190.993 74.1008L188.023 73.6768ZM187.095 77.8936L184.221 77.0314C183.824 78.3568 183.327 79.626 182.743 80.8353L185.445 82.1387L188.147 83.442C188.865 81.954 189.478 80.39 189.968 78.7557L187.095 77.8936ZM185.445 82.1387L185.819 79.1621L181.453 78.6133L181.079 81.5898L180.705 84.5664L185.071 85.1152L185.445 82.1387ZM181.079 81.5898L178.451 80.1422C177.194 82.4251 175.549 84.4163 173.626 86.0561L175.572 88.3389L177.519 90.6217C179.982 88.5214 182.092 85.9676 183.707 83.0375L181.079 81.5898ZM175.572 88.3389L172.732 89.3044L174.138 93.4412L176.979 92.4756L179.819 91.51L178.413 87.3733L175.572 88.3389ZM176.979 92.4756L175.167 90.0845C173.046 91.6914 170.686 92.962 168.177 93.8479L169.176 96.6768L170.175 99.5056C173.267 98.4136 176.176 96.8477 178.79 94.8666L176.979 92.4756ZM169.176 96.6768L171.546 94.8373L168.867 91.3861L166.497 93.2256L164.127 95.065L166.806 98.5162L169.176 96.6768ZM166.497 93.2256L165.663 90.3439C163.235 91.0468 160.667 91.3237 158.068 91.1169L157.83 94.1074L157.592 97.098C160.927 97.3633 164.221 97.0077 167.331 96.1072L166.497 93.2256ZM157.83 94.1074L155.139 92.7818L153.195 96.729L155.886 98.0547L158.577 99.3803L160.521 95.4331L157.83 94.1074ZM155.886 98.0547L156.285 95.0814C154.953 94.9025 153.62 94.6195 152.296 94.2222L151.434 97.0957L150.572 99.9692C152.207 100.46 153.85 100.808 155.486 101.028L155.886 98.0547ZM151.434 97.0957L152.296 94.2222C151.038 93.8451 149.832 93.3799 148.682 92.837L147.401 95.5498L146.121 98.2626C147.539 98.9324 149.025 99.5053 150.572 99.9692L151.434 97.0957ZM147.401 95.5498L150.378 95.9252L150.933 91.52L147.957 91.1445L144.981 90.7691L144.425 95.1744L147.401 95.5498ZM147.957 91.1445L149.405 88.5169C147.12 87.2584 145.128 85.6143 143.489 83.6922L141.206 85.6387L138.923 87.5851C141.024 90.0496 143.58 92.1584 146.509 93.7721L147.957 91.1445ZM141.206 85.6387L140.241 82.7981L135.97 84.2493L136.935 87.0898L137.9 89.9304L142.171 88.4792L141.206 85.6387ZM136.935 87.0898L139.317 85.2664C137.709 83.1663 136.433 80.8286 135.536 78.3424L132.714 79.3604L129.892 80.3783C130.998 83.4441 132.571 86.3249 134.552 88.9132L136.935 87.0898ZM132.714 79.3604L134.553 81.7304L138.159 78.9326L136.319 76.5625L134.48 74.1924L130.875 76.9903L132.714 79.3604ZM136.319 76.5625L139.201 75.7284C138.499 73.3024 138.223 70.7338 138.43 68.1344L135.439 67.8965L132.449 67.6586C132.184 70.9916 132.537 74.2862 133.438 77.3966L136.319 76.5625ZM135.439 67.8965L136.765 65.2054L132.601 63.1537L131.275 65.8447L129.949 68.5358L134.113 70.5875L135.439 67.8965ZM131.275 65.8447L134.248 66.2483C134.427 64.9307 134.71 63.6098 135.104 62.2956L132.23 61.4336L129.357 60.5715C128.871 62.1901 128.523 63.8177 128.303 65.4411L131.275 65.8447ZM132.23 61.4336L135.104 62.2957C135.477 61.0507 135.938 59.8553 136.474 58.7146L133.76 57.4375L131.045 56.1604C130.384 57.5666 129.817 59.0392 129.357 60.5715L132.23 61.4336ZM133.76 57.4375L133.385 60.4139L138.025 60.9989L138.4 58.0225L138.776 55.046L134.135 54.4611L133.76 57.4375ZM138.4 58.0225L141.028 59.4701C142.286 57.1867 143.931 55.1948 145.854 53.5553L143.907 51.2725L141.961 48.9897C139.497 51.0903 137.387 53.645 135.773 56.5748L138.4 58.0225ZM143.907 51.2725L146.747 50.3061L145.231 45.849L142.391 46.8154L139.551 47.7818L141.067 52.2389L143.907 51.2725ZM142.391 46.8154L144.198 49.21C146.294 47.6277 148.625 46.3736 151.101 45.4939L150.097 42.667L149.092 39.8401C146.041 40.9241 143.169 42.4696 140.583 44.4208L142.391 46.8154ZM150.097 42.667L147.727 44.5066L150.614 48.2253L152.983 46.3857L155.353 44.5462L152.466 40.8274L150.097 42.667ZM152.983 46.3857L153.818 49.2674C156.244 48.5648 158.812 48.2887 161.412 48.4954L161.649 45.5049L161.887 42.5143C158.553 42.2491 155.259 42.6036 152.149 43.5041L152.983 46.3857ZM161.649 45.5049L164.341 46.8302L166.407 42.6339L163.716 41.3086L161.024 39.9833L158.958 44.1796L161.649 45.5049ZM162.074 62.0234L162.936 59.1499C157.051 57.3847 150.851 60.726 149.086 66.6096L151.959 67.4717L154.832 68.3338C155.646 65.6224 158.503 64.0842 161.212 64.897L162.074 62.0234ZM151.959 67.4717L149.085 66.6097C147.32 72.4937 150.658 78.6957 156.543 80.4614L157.405 77.5879L158.267 74.7144C155.557 73.9013 154.019 71.0449 154.832 68.3337L151.959 67.4717ZM157.405 77.5879L156.543 80.4614C162.428 82.2267 168.629 78.887 170.395 73.0028L167.521 72.1406L164.648 71.2785C163.835 73.9892 160.978 75.5275 158.267 74.7144L157.405 77.5879ZM167.521 72.1406L170.395 73.0027C172.16 67.1182 168.821 60.9156 162.936 59.15L162.074 62.0234L161.212 64.8969C163.923 65.7101 165.461 68.5678 164.648 71.2786L167.521 72.1406Z" fill="white" mask="url(#path-6-outside-1_17_28608)"/>
</g>
<defs>
<clipPath id="clip0_17_28608">
<rect width="375" height="225" fill="white"/>
</clipPath>
</defs>
</svg>
