<svg width="375" height="225" viewBox="0 0 375 225" fill="none" xmlns="http://www.w3.org/2000/svg">
<ellipse cx="186.133" cy="205" rx="75" ry="10" fill="#A0A09F" fill-opacity="0.15"/>
<path d="M202.071 36C215.546 36 226.632 46.6068 226.632 59.8906V81.4756H228.79C232.656 81.4756 235.79 84.6096 235.79 88.4756V146.957C235.79 150.823 232.656 153.957 228.79 153.957H191.485L197.854 157.613L200.499 177.731L177.126 182.919L171.233 172.192L159.372 172.472L153.686 162.119L141.824 162.398L138.741 156.786L129.037 162.416C127.223 163.469 124.981 163.476 123.16 162.431L101.938 150.25C100.115 149.203 98.9902 147.259 99 145.152L99.1152 120.547C99.125 118.465 100.241 116.551 102.036 115.51L123.411 103.107C125.225 102.055 127.467 102.047 129.288 103.093L137.185 107.625V88.4756C137.185 84.6096 140.319 81.4756 144.185 81.4756H145.209V59.8906C145.209 46.6069 156.294 36.0001 169.769 36H202.071ZM117.686 125.503C116.748 124.965 115.499 125.279 114.923 126.271C114.352 127.254 114.696 128.462 115.623 128.994C116.561 129.533 117.809 129.217 118.386 128.225C118.956 127.242 118.613 126.035 117.686 125.503ZM169.769 53.1191C165.765 53.1193 162.685 56.2387 162.685 59.8906V81.4756H209.155V59.8906C209.155 56.2386 206.075 53.1191 202.071 53.1191H169.769Z" fill="white"/>
<path d="M169.768 50.1196C164.198 50.1196 159.684 54.4935 159.684 59.8909V115.998C159.684 121.396 164.198 125.769 169.768 125.769H202.07C207.641 125.769 212.155 121.396 212.155 115.998C212.155 112.927 214.724 110.438 217.893 110.438C221.062 110.438 223.63 112.927 223.63 115.998C223.63 127.537 213.979 136.889 202.07 136.889H169.768C163.673 136.889 165.169 131.439 161.248 127.5C157.508 123.743 152.683 112 148.208 107.998V59.8909C148.208 48.3523 157.86 39 169.768 39H202.07C213.979 39 223.63 48.3523 223.63 59.8909V94.9554C223.63 98.0259 221.062 100.515 217.893 100.515C214.724 100.515 212.155 98.0259 212.155 94.9554V59.8909C212.155 54.4935 207.641 50.1196 202.07 50.1196H169.768Z" fill="#A0A09F"/>
<path d="M144.184 84.4753C141.974 84.4753 140.184 86.2662 140.184 88.4753V108.928L150.693 114.961C152.517 116.007 153.642 117.951 153.632 120.058L153.577 131.778L186.989 150.957H228.789C230.998 150.957 232.789 149.166 232.789 146.957V88.4753C232.789 86.2662 230.998 84.4753 228.789 84.4753H144.184Z" fill="#A0A09F"/>
<path fill-rule="evenodd" clip-rule="evenodd" d="M127.795 105.694C126.904 105.183 125.806 105.186 124.917 105.702L103.542 118.104C102.663 118.614 102.12 119.548 102.115 120.56L102 145.165C101.995 146.189 102.542 147.136 103.432 147.647L124.654 159.828C125.544 160.339 126.642 160.336 127.531 159.82L139.892 152.649L143.576 159.356L155.437 159.076L161.124 169.428L172.985 169.149L178.672 179.501L197.166 175.397L195.073 159.475L150.385 133.823L150.448 120.357C150.453 119.333 149.907 118.386 149.016 117.875L127.795 105.694ZM119.179 122.9C121.568 124.271 122.375 127.33 120.981 129.731C119.586 132.132 116.519 132.966 114.13 131.595C111.741 130.224 110.935 127.165 112.329 124.764C113.723 122.363 116.79 121.529 119.179 122.9ZM189.678 161.6C190.237 161.92 190.415 162.655 190.075 163.243C189.735 163.831 189.006 164.049 188.447 163.729L149.113 141.26C148.554 140.941 148.376 140.205 148.716 139.617C149.056 139.03 149.785 138.812 150.344 139.132L189.678 161.6Z" fill="#FFBC0D"/>
<path d="M171.168 114.279C171.168 122.085 177.649 128.359 185.644 128.359C193.638 128.359 200.119 122.085 200.119 114.354C200.119 113.009 198.955 111.926 197.558 111.926C196.122 111.926 194.958 113.009 194.958 114.354C194.958 119.358 190.805 123.392 185.644 123.392C180.443 123.392 176.291 119.358 176.291 114.354C176.291 109.722 179.977 105.913 184.635 105.651C184.984 105.651 185.372 105.614 185.682 105.651L183.315 107.93C183.005 108.303 182.772 108.826 182.772 109.349C182.772 110.693 183.82 111.627 185.178 111.627C185.76 111.627 186.42 111.328 186.808 110.955L192.901 105.091C193.832 104.195 193.793 102.626 192.901 101.767L186.885 95.9035C186.459 95.4179 185.838 95.1191 185.1 95.1191C183.703 95.1191 182.772 96.1649 182.772 97.3227C182.772 97.995 183.043 98.5179 183.393 98.8913L185.139 100.647C184.906 100.647 184.596 100.609 184.324 100.647C177.3 101.02 171.168 106.884 171.168 114.279Z" fill="white"/>
</svg>
