<svg width="153" height="98" viewBox="0 0 153 98" fill="none" xmlns="http://www.w3.org/2000/svg">
<path d="M129.893 25.2617C125.228 25.2617 121.068 31.4975 118.342 41.2481C115.621 31.4975 111.46 25.2617 106.796 25.2617C98.5965 25.2617 91.9531 46.0175 91.9531 71.6012H98.547C98.547 47.8358 102.24 28.5736 106.796 28.5736C111.352 28.5736 115.045 46.3559 115.045 68.2802H121.644C121.644 46.3468 125.336 28.5736 129.893 28.5736C134.449 28.5736 138.142 47.8358 138.142 71.6012H144.74C144.74 46.0084 138.092 25.2617 129.893 25.2617Z" fill="#FFBC0D"/>
<path d="M6.8125 58.9871L9.25484 37.0898H14.9581L19.519 50.8518L24.1158 37.0898H29.8146L32.2614 58.9871H26.4142L25.1413 45.6223L21.2641 57.3853H17.6659L13.7572 45.4914L12.4528 58.9871H6.8125ZM39.395 59.4158C38.0481 59.4723 36.7254 59.0434 35.6663 58.2066C35.1782 57.784 34.7934 57.2546 34.5415 56.6593C34.2896 56.064 34.1774 55.4186 34.2135 54.7728C34.1719 53.7229 34.5017 52.6921 35.1446 51.8625C35.7976 51.0678 36.6367 50.4477 37.5869 50.0577C38.6423 49.6102 39.7502 49.2993 40.8838 49.1327C42.0211 48.9519 43.1691 48.8479 44.3202 48.8213V48.4649C44.3661 47.7016 44.1777 46.9426 43.7805 46.29C43.6091 46.0405 43.377 45.8391 43.1062 45.7048C42.8354 45.5706 42.5349 45.508 42.2332 45.523C41.704 45.5108 41.1903 45.703 40.7984 46.0599C40.3819 46.4779 40.1188 47.025 40.0517 47.6121H34.8342C34.9414 46.8068 35.2103 46.0317 35.6247 45.3337C36.039 44.6357 36.5903 44.0293 37.2451 43.5512C38.5674 42.5826 40.2946 42.0968 42.4266 42.0938C44.9004 42.0938 46.7296 42.7104 47.914 43.9437C49.0969 45.171 49.7132 47.021 49.7132 49.4801V58.9917H44.7655L44.6351 56.8349C44.0613 57.651 43.2865 58.3039 42.3861 58.73C41.4557 59.1883 40.4316 59.4231 39.395 59.4158ZM41.5765 55.9821C41.9461 55.985 42.3117 55.9056 42.6469 55.7495C42.9822 55.5934 43.2787 55.3647 43.5151 55.0797C44.0949 54.3434 44.3804 53.4167 44.3157 52.4807V51.2037C42.6875 51.2489 41.5195 51.5376 40.8119 52.0701C40.4883 52.289 40.2228 52.5838 40.0386 52.929C39.8544 53.2743 39.757 53.6593 39.7549 54.0509C39.7332 54.3149 39.7668 54.5806 39.8536 54.8308C39.9403 55.081 40.0783 55.3102 40.2586 55.5038C40.6188 55.8297 41.0918 56.0014 41.5765 55.9821ZM53.4059 58.9871V42.5134H58.3536L58.5155 45.0312C58.9302 44.1373 59.6064 43.3913 60.4541 42.8924C61.4088 42.3365 62.4991 42.0584 63.6026 42.0893C65.3657 42.0893 66.7511 42.6307 67.7586 43.7091C68.7661 44.7875 69.2744 46.2404 69.2744 48.0723V58.9871H63.733V48.9206C63.7712 48.1876 63.5776 47.4611 63.1798 46.845C62.9884 46.589 62.7364 46.3847 62.4467 46.2508C62.1569 46.1169 61.8384 46.0575 61.5201 46.078C61.1754 46.0822 60.8357 46.1619 60.525 46.3115C60.2142 46.4612 59.9398 46.6771 59.7209 46.9443C59.1992 47.5219 58.9383 48.4243 58.9383 49.6516V58.9646L53.4059 58.9871ZM80.4516 59.4158C78.8597 59.4592 77.2866 59.0627 75.9042 58.2697C74.6577 57.535 73.6417 56.4641 72.9716 55.1789C72.2971 53.8007 71.9463 52.2857 71.9463 50.7503C71.9463 49.2149 72.2971 47.6999 72.9716 46.3216C73.6431 45.0387 74.6589 43.9697 75.9042 43.2354C77.3018 42.483 78.8632 42.0892 80.4493 42.0892C82.0354 42.0892 83.5969 42.483 84.9944 43.2354C86.2397 43.9697 87.2555 45.0387 87.927 46.3216C88.6016 47.6999 88.9523 49.2149 88.9523 50.7503C88.9523 52.2857 88.6016 53.8007 87.927 55.1789C87.257 56.4641 86.2409 57.535 84.9944 58.2697C83.6174 59.0597 82.0509 59.4561 80.4651 59.4158H80.4516ZM80.4516 55.8061C80.8844 55.8007 81.3064 55.67 81.667 55.4299C82.0276 55.1898 82.3115 54.8504 82.4846 54.4525C83.4622 52.0771 83.4622 49.4099 82.4846 47.0346C82.3159 46.6328 82.0329 46.2899 81.6708 46.0488C81.3088 45.8077 80.8839 45.6791 80.4493 45.6791C80.0148 45.6791 79.5899 45.8077 79.2278 46.0488C78.8658 46.2899 78.5827 46.6328 78.414 47.0346C77.4364 49.4099 77.4364 52.0771 78.414 54.4525C78.5864 54.8558 78.8722 55.1999 79.2364 55.4427C79.6007 55.6855 80.0277 55.8165 80.4651 55.8196L80.4516 55.8061Z" fill="url(#paint0_linear_465_41645)"/>
<defs>
<linearGradient id="paint0_linear_465_41645" x1="6.8125" y1="48.2553" x2="88.9473" y2="48.2553" gradientUnits="userSpaceOnUse">
<stop offset="0.000616698" stop-color="#910063"/>
<stop offset="0.0362" stop-color="#990059"/>
<stop offset="0.1727" stop-color="#B60035"/>
<stop offset="0.3012" stop-color="#CA001C"/>
<stop offset="0.4172" stop-color="#D7000C"/>
<stop offset="0.5101" stop-color="#DB0007"/>
<stop offset="1" stop-color="#E8720A"/>
</linearGradient>
</defs>
</svg>
