<svg width="44" height="44" viewBox="0 0 44 44" fill="none" xmlns="http://www.w3.org/2000/svg">
<g clip-path="url(#clip0_17_28653)">
<path fill-rule="evenodd" clip-rule="evenodd" d="M19.8842 12.6914C15.4446 12.6914 11.8457 16.2903 11.8457 20.7299C11.8457 21.8411 12.0712 22.8997 12.4789 23.8624C11.5736 24.6383 11 25.7902 11 27.076C11 29.4126 12.8942 31.3068 15.2308 31.3068H29.6154C31.952 31.3068 33.8462 29.4126 33.8462 27.076C33.8462 25.3351 32.7953 23.8411 31.2937 23.1915C31.303 23.0772 31.3077 22.9617 31.3077 22.8453C31.3077 20.5087 29.4135 18.6145 27.0769 18.6145C26.2032 18.6145 25.3903 18.88 24.716 19.3341C23.7668 18.873 22.7011 18.6145 21.5769 18.6145C20.2081 18.6145 18.929 18.9968 17.8402 19.6602C18.1479 17.3875 19.4175 15.5939 21.0123 14.8137C21.4228 14.6129 21.7292 14.2168 21.7186 13.7599L21.7166 13.6737C21.7059 13.2168 21.3876 12.8187 20.9344 12.7595C20.5904 12.7146 20.2398 12.6914 19.8842 12.6914Z" fill="white"/>
<path fill-rule="evenodd" clip-rule="evenodd" d="M10.8457 20.7299C10.8457 15.7381 14.8924 11.6914 19.8842 11.6914C20.2833 11.6914 20.6771 11.7174 21.064 11.7679C22.0648 11.8987 22.6957 12.7617 22.7163 13.6505L22.7183 13.7367C22.7402 14.6791 22.1182 15.3859 21.4517 15.7119C20.6387 16.1097 19.8878 16.874 19.3882 17.9104C20.0853 17.7175 20.8194 17.6145 21.5769 17.6145C22.6612 17.6145 23.6994 17.8261 24.6499 18.2109C25.3758 17.8302 26.2025 17.6145 27.0769 17.6145C29.8793 17.6145 32.1669 19.8182 32.3014 22.5872C33.8244 23.5003 34.8462 25.1673 34.8462 27.076C34.8462 29.9649 32.5043 32.3068 29.6154 32.3068H15.2308C12.3419 32.3068 10 29.9649 10 27.076C10 25.7459 10.4973 24.5312 11.3142 23.6089C11.0102 22.7036 10.8457 21.7351 10.8457 20.7299ZM12.4789 23.8624C12.0712 22.8997 11.8457 21.8411 11.8457 20.7299C11.8457 16.2903 15.4446 12.6914 19.8842 12.6914C20.2398 12.6914 20.5904 12.7146 20.9344 12.7595C21.3876 12.8187 21.7059 13.2168 21.7166 13.6737L21.7186 13.7599C21.7292 14.2168 21.4228 14.6129 21.0123 14.8137C19.7327 15.4397 18.6625 16.718 18.1305 18.3728C17.9994 18.7805 17.901 19.211 17.8402 19.6602C18.195 19.444 18.57 19.2577 18.9617 19.1047C19.7721 18.7882 20.6541 18.6145 21.5769 18.6145C22.7011 18.6145 23.7668 18.873 24.716 19.3341C25.3903 18.88 26.2032 18.6145 27.0769 18.6145C29.4135 18.6145 31.3077 20.5087 31.3077 22.8453C31.3077 22.9617 31.303 23.0772 31.2937 23.1915C32.7953 23.8411 33.8462 25.3351 33.8462 27.076C33.8462 29.4126 31.952 31.3068 29.6154 31.3068H15.2308C12.8942 31.3068 11 29.4126 11 27.076C11 25.7902 11.5736 24.6383 12.4789 23.8624Z" fill="white"/>
<path fill-rule="evenodd" clip-rule="evenodd" d="M13.1917 23.3689C11.8851 24.089 11 25.4795 11 27.0768C11 29.4134 12.8942 31.3075 15.2308 31.3075H29.6154C31.952 31.3075 33.8462 29.4134 33.8462 27.0768C33.8462 25.3359 32.7953 23.8419 31.2937 23.1922C31.303 23.0779 31.3077 22.9625 31.3077 22.846C31.3077 20.5094 29.4135 18.6152 27.0769 18.6152C26.2032 18.6152 25.3903 18.8808 24.716 19.3348C23.7668 18.8737 22.7011 18.6152 21.5769 18.6152C19.8062 18.6152 18.1856 19.255 16.9329 20.3155C16.9264 20.4529 16.9232 20.5913 16.9232 20.7306C16.9232 21.3708 16.992 21.9914 17.1213 22.5821C18.1211 21.2034 19.745 20.3075 21.5769 20.3075C22.5985 20.3075 23.5527 20.5853 24.3709 21.0689L24.9084 21.3866L25.3705 20.9667C25.8219 20.5565 26.4193 20.3075 27.0769 20.3075C28.4789 20.3075 29.6154 21.444 29.6154 22.846C29.6154 23.0873 29.582 23.3193 29.52 23.5385L29.275 24.4053L30.1554 24.5957C31.2981 24.8428 32.1538 25.8609 32.1538 27.0768C32.1538 28.4787 31.0173 29.6152 29.6154 29.6152H15.2308C13.8288 29.6152 12.6923 28.4787 12.6923 27.0768C12.6923 26.1236 13.2176 25.2932 13.9946 24.8591C13.6715 24.3991 13.401 23.8994 13.1917 23.3689Z" fill="#FFBC0D"/>
<path fill-rule="evenodd" clip-rule="evenodd" d="M18.5331 14.5283C15.6782 15.1482 13.54 17.6893 13.54 20.7299C13.54 23.7704 15.6782 26.3115 18.5331 26.9315C17.0109 25.4355 16.0784 23.1788 16.0784 20.7299C16.0784 18.2809 17.0109 16.0242 18.5331 14.5283ZM11.8477 20.7299C11.8477 16.2903 15.4466 12.6914 19.8861 12.6914C20.2418 12.6914 20.5924 12.7146 20.9364 12.7595C21.3895 12.8187 21.7079 13.2168 21.7185 13.6737L21.7205 13.7599C21.7311 14.2168 21.4247 14.6129 21.0142 14.8137C19.1766 15.7127 17.7707 17.9572 17.7707 20.7299C17.7707 23.5026 19.1766 25.747 21.0142 26.6461C21.4247 26.8469 21.7311 27.2429 21.7205 27.6998L21.7185 27.786C21.7079 28.2429 21.3895 28.641 20.9364 28.7002C20.5924 28.7452 20.2418 28.7683 19.8861 28.7683C15.4466 28.7683 11.8477 25.1694 11.8477 20.7299Z" fill="#FFBC0D"/>
</g>
<defs>
<clipPath id="clip0_17_28653">
<rect width="44" height="44" fill="white"/>
</clipPath>
</defs>
</svg>
