<svg width="27" height="18" viewBox="0 0 27 18" fill="none" xmlns="http://www.w3.org/2000/svg">
<g clip-path="url(#clip0_109_43697)">
<path d="M0 0H27V17.9996H0V0Z" fill="white"/>
<path d="M0 0H27V5.99985H0V0ZM0 11.9998H27V17.9996H0V11.9998Z" fill="#0052B4"/>
<path d="M12.0547 9.3129L13.5006 6.80859L14.9464 9.3129H12.0547Z" fill="#FFDA44"/>
<path d="M15.3775 10.1388L13.4993 11.078L11.6211 10.1388V8.88672H15.3775V10.1388Z" fill="#6DA544"/>
<path d="M15.2712 6.91797L14.6071 7.582C14.8903 7.86529 15.0656 8.25652 15.0656 8.68879C15.0656 9.55321 14.3648 10.2539 13.5004 10.2539C12.636 10.2539 11.9352 9.55315 11.9352 8.68879C11.9352 8.25663 12.1104 7.86529 12.3937 7.582L11.7296 6.91797C11.2764 7.37117 10.9961 7.99723 10.9961 8.68873C10.9961 10.0718 12.1173 11.193 13.5004 11.193C14.8835 11.193 16.0047 10.0718 16.0047 8.68873C16.0047 7.99718 15.7244 7.37106 15.2712 6.91797Z" fill="#FFDA44"/>
</g>
<rect x="0.5" y="0.5" width="26" height="17" rx="0.5" stroke="black" stroke-opacity="0.2"/>
<defs>
<clipPath id="clip0_109_43697">
<rect width="27" height="18" rx="1" fill="white"/>
</clipPath>
</defs>
</svg>
