<svg width="27" height="18" viewBox="0 0 27 18" fill="none" xmlns="http://www.w3.org/2000/svg">
<g clip-path="url(#clip0_109_43744)">
<path d="M0 0H27V18H0V0Z" fill="white"/>
<path d="M4.45312 5.67188L6.94927 1.92765L4.45312 5.67188ZM5.38918 6.29591L7.88533 2.55168L5.38918 6.29591ZM6.32524 6.91995L8.82138 3.17572L6.32524 6.91995ZM18.182 14.8244L20.6781 11.0802L18.182 14.8244ZM19.118 15.4484L21.6142 11.7042L19.118 15.4484ZM20.0541 16.0725L22.5502 12.3282L20.0541 16.0725Z" fill="black"/>
<path fill-rule="evenodd" clip-rule="evenodd" d="M3.90625 5.30859L6.4024 1.56437L9.36931 3.54231L6.87317 7.28653L3.90625 5.30859ZM17.6351 14.4611L20.1312 10.7169L23.0981 12.6948L20.602 16.4391L17.6351 14.4611Z" fill="black"/>
<path fill-rule="evenodd" clip-rule="evenodd" d="M21.7413 14.8926L18.6211 12.8125L18.986 12.2651L22.1062 14.3452L21.7413 14.8926Z" fill="white"/>
<path d="M17.2463 11.4981C18.6249 9.43019 18.0661 6.63627 15.9982 5.25769C13.9303 3.87911 11.1364 4.43789 9.75786 6.50577C8.37928 8.57365 8.93806 11.3676 11.0059 12.7461C13.0738 14.1247 15.8677 13.5659 17.2463 11.4981Z" fill="#CA163A"/>
<path d="M9.75787 6.50577C9.06893 7.53918 9.3485 8.93702 10.3819 9.62596C11.4153 10.3149 12.8132 10.0353 13.5021 9.00192C14.191 7.96851 15.5889 7.68894 16.6223 8.37788C17.6557 9.06681 17.9353 10.4647 17.2463 11.4981C15.8685 13.5649 13.0728 14.124 11.006 12.7462C8.93913 11.3683 8.37999 8.57258 9.75787 6.50577Z" fill="#0E4896"/>
<path d="M6.94537 16.0707L4.44922 12.3264L6.94537 16.0707ZM7.88137 15.4466L5.38522 11.7024L7.88137 15.4466ZM8.81742 14.8226L6.32128 11.0783L8.81742 14.8226ZM20.6742 6.91808L18.178 3.17387L20.6742 6.91808ZM21.6103 6.29405L19.1141 2.54984L21.6103 6.29405ZM22.5463 5.67002L20.0501 1.92578L22.5463 5.67002Z" fill="black"/>
<path fill-rule="evenodd" clip-rule="evenodd" d="M20.5981 1.5625L23.0942 5.30674L21.0634 6.66064L20.1273 7.28466L17.6312 3.54046L20.5981 1.5625ZM6.86921 10.715L9.36536 14.4593L7.49327 15.7073L6.39849 16.4372L3.90234 12.693L4.83836 12.069L5.77441 11.4449L6.86921 10.715Z" fill="black"/>
<path d="M6.16797 13.885L7.10403 13.261L6.16797 13.885ZM18.8035 5.46131L19.8968 4.73243L18.8035 5.46131ZM20.8328 4.1084L21.7689 3.48438L20.8328 4.1084Z" fill="black"/>
<path fill-rule="evenodd" clip-rule="evenodd" d="M21.9502 3.75834L21.0142 4.38237L20.6492 3.83497L21.5853 3.21094L21.9502 3.75834ZM20.0781 5.0064L18.9848 5.73528L18.6199 5.18788L19.7132 4.459L20.0781 5.0064ZM7.28535 13.5349L6.34929 14.1589L5.98438 13.6115L6.92044 12.9875L7.28535 13.5349Z" fill="white"/>
</g>
<rect x="0.5" y="0.5" width="26" height="17" rx="0.5" stroke="black" stroke-opacity="0.2"/>
<defs>
<clipPath id="clip0_109_43744">
<rect width="27" height="18" rx="1" fill="white"/>
</clipPath>
</defs>
</svg>
