<svg width="375" height="225" viewBox="0 0 375 225" fill="none" xmlns="http://www.w3.org/2000/svg">
<g clip-path="url(#clip0_102_69673)">
<path d="M184.5 4C262.096 4 325 66.904 325 144.5C325 163.443 321.249 181.51 314.453 198H54.5469C47.7506 181.51 44 163.443 44 144.5C44 66.904 106.904 4 184.5 4Z" fill="#DCEDF4"/>
<ellipse cx="184" cy="203" rx="153" ry="14" fill="#A0A09F" fill-opacity="0.15"/>
<path d="M316 97V124H264L264.005 97H316Z" fill="#FFBC0D"/>
<path d="M190.926 120H77V97H191L190.926 120Z" fill="#FFBC0D"/>
<path d="M191 99L190.97 108H77V99H191Z" fill="black" fill-opacity="0.1"/>
<path d="M316 99V108H264L264.002 99H316Z" fill="black" fill-opacity="0.1"/>
<path d="M264 124H287V203H264V124Z" fill="#F9F9F9"/>
<path d="M288 124H316V203H288V124Z" fill="#F9F9F9"/>
<path d="M191 89L190.967 98.999L73.8004 99C72.8061 99 72 98.1942 72 97.2002V90.8008C72 89.8068 72.8061 89.001 73.8004 89.001L191 89Z" fill="#FFBC0D"/>
<path d="M318.212 89.001C319.2 89.001 320 89.8068 320 90.8008V97.2002C320 98.1942 319.2 99 318.212 99L264 98.999L264.002 89L318.212 89.001Z" fill="#FFBC0D"/>
<path d="M260.5 74.5234L260.473 202.998H194.569L194.5 74.5234L260.5 74.5234Z" fill="#F1F1F1"/>
<path d="M59.8 124H244.443C245.437 124 246.243 124.806 246.243 125.8V140H58V125.8C58 124.806 58.8059 124 59.8 124Z" fill="#606060"/>
<path d="M195 140H246V203H195V140Z" fill="#D8D8D8"/>
<path d="M109 140H137V203H109V140Z" fill="#F9F9F9"/>
<path d="M138 140H166V203H138V140Z" fill="#F9F9F9"/>
<path d="M167 140H195V203H167V140Z" fill="#F9F9F9"/>
<path d="M218 154H246V203H218V154Z" fill="#F9F9F9"/>
<path d="M58 198H109V204H58V198Z" fill="#A5835B"/>
<path d="M58 192H109V198H58V192Z" fill="#C2945C"/>
<path d="M58 187H109V193H58V187Z" fill="#A5835B"/>
<path d="M58 182H109V188H58V182Z" fill="#C2945C"/>
<path d="M58 177H109V183H58V177Z" fill="#A5835B"/>
<path d="M58 171H109V177H58V171Z" fill="#C2945C"/>
<path d="M58 166H109V172H58V166Z" fill="#A5835B"/>
<path d="M58 161H109V167H58V161Z" fill="#C2945C"/>
<path d="M58 156H109V162H58V156Z" fill="#A5835B"/>
<path d="M58 150H109V156H58V150Z" fill="#C2945C"/>
<path d="M58 145H109V151H58V145Z" fill="#A5835B"/>
<path d="M58 140H109V146H58V140Z" fill="#C2945C"/>
<path d="M136 140H140V203H136V140Z" fill="#D8D8D8"/>
<path d="M286 124H290V203H286V124Z" fill="#D8D8D8"/>
<path d="M312 124H316V203H312V124Z" fill="#D8D8D8"/>
<path d="M165 140H169V203H165V140Z" fill="#D8D8D8"/>
<path d="M218 154H246V160H218V154Z" fill="#A0A09F" fill-opacity="0.15"/>
<path d="M195 140H246V143H195V140Z" fill="#292929" fill-opacity="0.1"/>
<path d="M165 140H169V146H165V140Z" fill="#292929" fill-opacity="0.1"/>
<path d="M136 140H140V146H136V140Z" fill="#292929" fill-opacity="0.1"/>
<path d="M109 140H136V145H109V140Z" fill="#A0A09F" fill-opacity="0.15"/>
<path d="M140 140H165V145H140V140Z" fill="#A0A09F" fill-opacity="0.15"/>
<path d="M169 140H195V145H169V140Z" fill="#A0A09F" fill-opacity="0.15"/>
<path fill-rule="evenodd" clip-rule="evenodd" d="M236.023 86.7959C239.143 86.7959 241.672 99.9528 241.672 116.182H246.195C246.195 98.703 241.64 84.5352 236.023 84.5352C232.826 84.5352 229.975 88.7942 228.111 95.4522C226.247 88.7942 223.396 84.5352 220.2 84.5352C214.584 84.5352 210.027 98.703 210.027 116.182H214.55C214.55 99.9528 217.08 86.7959 220.2 86.7959C223.32 86.7959 225.85 98.9404 225.85 113.921H230.372C230.372 98.9404 232.902 86.7959 236.023 86.7959Z" fill="#FFBC0D"/>
<rect x="63" y="33" width="6" height="170" fill="#F9F9F9"/>
<rect x="66" y="33" width="3" height="170" fill="#F1F1F1"/>
<path d="M66 26C68.2091 26 70 27.7909 70 30C70 31.195 69.4754 32.267 68.6445 33H63.3555C62.5246 32.267 62 31.195 62 30C62 27.7909 63.7909 26 66 26Z" fill="#FFBC0D"/>
<path opacity="0.5" d="M66 26C67.3598 26 68.5605 26.6789 69.2832 27.7158C68.6357 27.2648 67.8489 27 67 27C64.7909 27 63 28.7909 63 31C63 31.8496 63.2659 32.6366 63.7178 33.2842C62.6799 32.5616 62 31.3605 62 30C62 27.7909 63.7909 26 66 26Z" fill="#F9F9F9"/>
<g clip-path="url(#clip1_102_69673)">
<path d="M69 33H124.323V69.882H69V33Z" fill="#0052B4"/>
<path d="M96.6615 33V45.6866H91.6803L96.6615 49.0042V51.4464H94.2195L86.2885 46.1621V51.4464H79.3731V46.1621L71.442 51.4464H69V49.0042L73.9812 45.6866H69V38.7706H73.9812L69 35.453V33H71.442L79.3731 38.2843V33H86.2885V38.2843L94.2195 33H96.6615Z" fill="white"/>
<path d="M84.5596 33H81.1019V40.4996H69V43.9576H81.1019V51.4464H84.5596V43.9576H96.6615V40.4996H84.5596V33Z" fill="#D80027"/>
<path d="M96.6609 35.4531V38.7707H91.6797L96.6609 35.4531Z" fill="#2E52B2"/>
<path d="M69 51.4473V50.2586L75.7533 45.6875H78.1953L69.7888 51.4473H69ZM69.7888 33.0117L78.1953 38.7607H75.7533L69 34.2004V33.0117H69.7888ZM96.6615 33.0117V34.2004L89.9082 38.7715H87.4662L95.8728 33.0117H96.6615ZM95.8728 51.4473L87.4662 45.6875H89.9082L96.6615 50.2586V51.4473H95.8728Z" fill="#D80027"/>
<path d="M116.911 62.9445C118.641 62.9445 120.044 60.8399 120.044 58.2437C120.044 55.6476 118.641 53.543 116.911 53.543C115.18 53.543 113.777 55.6476 113.777 58.2437C113.777 60.8399 115.18 62.9445 116.911 62.9445Z" fill="white"/>
<path d="M112.967 68.3342C114.28 68.3342 115.344 67.8842 115.344 67.3292C115.344 66.7742 114.28 66.3242 112.967 66.3242C111.654 66.3242 110.59 66.7742 110.59 67.3292C110.59 67.8842 111.654 68.3342 112.967 68.3342Z" fill="#FFCE00"/>
<path d="M108.33 68.3342C109.643 68.3342 110.707 67.8842 110.707 67.3292C110.707 66.7742 109.643 66.3242 108.33 66.3242C107.017 66.3242 105.953 66.7742 105.953 67.3292C105.953 67.8842 107.017 68.3342 108.33 68.3342Z" fill="#FFCE00"/>
<path d="M105.953 53.543L110.643 62.9337L115.343 53.543H105.953Z" fill="#39B200"/>
<path d="M104.387 62.9445C106.118 62.9445 107.521 60.8399 107.521 58.2437C107.521 55.6476 106.118 53.543 104.387 53.543C102.657 53.543 101.254 55.6476 101.254 58.2437C101.254 60.8399 102.657 62.9445 104.387 62.9445Z" fill="#9B9B9B"/>
<path d="M109.089 51.9752L107.523 53.5421H113.779L112.212 51.9752L113.779 47.2745C113.779 47.2745 112.374 44.1406 110.645 44.1406C108.916 44.1406 107.512 47.2745 107.512 47.2745L109.089 51.9752Z" fill="#757575"/>
<path d="M110.645 43.3731C112.376 43.3731 113.779 41.9701 113.779 40.2393C113.779 38.5085 112.376 37.1055 110.645 37.1055C108.915 37.1055 107.512 38.5085 107.512 40.2393C107.512 41.9701 108.915 43.3731 110.645 43.3731Z" fill="#C6B56F"/>
<path d="M110.708 45.7169C112.438 45.7169 113.841 44.3138 113.841 42.5831C113.841 40.8523 112.438 39.4492 110.708 39.4492C108.977 39.4492 107.574 40.8523 107.574 42.5831C107.574 44.3138 108.977 45.7169 110.708 45.7169Z" fill="#A54A00"/>
<path d="M116.911 48.8536C118.641 48.8536 120.044 47.4505 120.044 45.7198C120.044 43.989 118.641 42.5859 116.911 42.5859C115.18 42.5859 113.777 43.989 113.777 45.7198C113.777 47.4505 115.18 48.8536 116.911 48.8536Z" fill="white"/>
<path d="M105.977 51.9864C107.708 51.9864 109.111 50.5834 109.111 48.8526C109.111 47.1218 107.708 45.7188 105.977 45.7188C104.247 45.7188 102.844 47.1218 102.844 48.8526C102.844 50.5834 104.247 51.9864 105.977 51.9864Z" fill="#0049FF"/>
<path d="M115.442 51.9864C117.173 51.9864 118.576 50.5834 118.576 48.8526C118.576 47.1218 117.173 45.7188 115.442 45.7188C113.712 45.7188 112.309 47.1218 112.309 48.8526C112.309 50.5834 113.712 51.9864 115.442 51.9864Z" fill="#0041F9"/>
<path d="M110.708 61.377C112.438 61.377 113.841 59.974 113.841 58.2432C113.841 56.5124 112.438 55.1094 110.708 55.1094C108.977 55.1094 107.574 56.5124 107.574 58.2432C107.574 59.974 108.977 61.377 110.708 61.377Z" fill="#F7D71E"/>
<path d="M118.477 56.6739C120.208 56.6739 121.611 55.2709 121.611 53.5401C121.611 51.8093 120.208 50.4062 118.477 50.4062C116.747 50.4062 115.344 51.8093 115.344 53.5401C115.344 55.2709 116.747 56.6739 118.477 56.6739Z" fill="#CEC851"/>
<path d="M110.645 67.4161C112.376 67.4161 113.779 66.013 113.779 64.2823C113.779 62.5515 112.376 61.1484 110.645 61.1484C108.915 61.1484 107.512 62.5515 107.512 64.2823C107.512 66.013 108.915 67.4161 110.645 67.4161Z" fill="white"/>
<path d="M109.086 47.6634L110.653 47.2852L112.219 47.6634C112.219 48.4739 110.653 48.8521 110.653 48.8521C110.653 48.8521 109.086 48.4739 109.086 47.6634Z" fill="#7C0B29"/>
<path d="M104.387 48.8185C106.118 48.8185 107.521 47.4154 107.521 45.6846C107.521 43.9538 106.118 42.5508 104.387 42.5508C102.657 42.5508 101.254 43.9538 101.254 45.6846C101.254 47.4154 102.657 48.8185 104.387 48.8185Z" fill="white"/>
</g>
<path d="M67.8158 205.5L68.7364 205.494C75.9374 205.404 81.6316 204.137 81.6316 196.816C81.6316 189.186 75.446 183 67.8158 183C60.1855 183 54 189.186 54 196.816C54 204.446 60.1855 205.5 67.8158 205.5Z" fill="#9CC93A"/>
<path d="M98.8158 205.5L99.7364 205.494C106.937 205.404 112.632 204.137 112.632 196.816C112.632 189.186 106.446 183 98.8158 183C91.1855 183 85 189.186 85 196.816C85 204.446 91.1855 205.5 98.8158 205.5Z" fill="#9CC93A"/>
<path d="M128.816 205.5L129.736 205.494C136.937 205.404 142.632 204.137 142.632 196.816C142.632 189.186 136.446 183 128.816 183C121.186 183 115 189.186 115 196.816C115 204.446 121.186 205.5 128.816 205.5Z" fill="#9CC93A"/>
<path d="M253.561 29.8555C255.088 29.8555 256.327 31.0943 256.327 32.6221C256.327 34.0685 255.217 35.2538 253.802 35.376C254.09 36.0127 254.252 36.7186 254.252 37.4629C254.252 40.2639 251.982 42.5342 249.181 42.5342H257.94C260.741 42.5342 263.013 44.8055 263.013 47.6064H269.929C272.729 47.6066 275 49.8769 275 52.6777C275 55.4786 272.73 57.7498 269.929 57.75H262.332C261.455 59.2653 259.817 60.2852 257.94 60.2852H215.523C213.647 60.2852 212.009 59.2653 211.132 57.75H206.071C203.27 57.7498 201 55.4786 201 52.6777C201 49.8769 203.271 47.6066 206.071 47.6064H210.452C210.452 44.8055 212.722 42.5342 215.523 42.5342H221.748C221.748 39.7334 224.018 37.4629 226.819 37.4629H235.349C235.349 34.6619 237.62 32.3916 240.421 32.3916H249.181C249.746 32.3916 250.288 32.4849 250.796 32.6553C250.796 32.6442 250.795 32.6332 250.795 32.6221C250.795 31.0943 252.033 29.8556 253.561 29.8555Z" fill="white"/>
<path d="M140.047 2C143.684 2 146.634 4.94858 146.634 8.58594C146.634 8.65081 146.631 8.71586 146.629 8.78027H148.184C150.537 8.78048 152.445 10.6884 152.445 13.042H155.738C158.092 13.042 160 14.95 160 17.3037C160 19.6574 158.092 21.5654 155.738 21.5654H153.229C152.493 22.8389 151.116 23.6963 149.539 23.6963H133.461C131.884 23.6963 130.507 22.8389 129.771 21.5654H127.262C124.908 21.5654 123 19.6574 123 17.3037C123 14.95 124.908 13.042 127.262 13.042H127.843C127.843 10.6883 129.751 8.78037 132.104 8.78027H133.466C133.464 8.71585 133.461 8.65081 133.461 8.58594C133.461 4.94867 136.41 2.00015 140.047 2Z" fill="white"/>
</g>
<defs>
<clipPath id="clip0_102_69673">
<rect width="375" height="225" fill="white"/>
</clipPath>
<clipPath id="clip1_102_69673">
<rect width="55.3231" height="36.882" fill="white" transform="translate(69 33)"/>
</clipPath>
</defs>
</svg>
