<svg width="136" height="136" viewBox="0 0 136 136" fill="none" xmlns="http://www.w3.org/2000/svg">
<g clip-path="url(#clip0_17_28559)">
<path d="M64.6899 118.464C64.6899 121.427 52.4472 123.828 37.345 123.828C22.2428 123.828 10 121.427 10 118.464C10 115.501 22.2428 113.1 37.345 113.1C52.4472 113.1 64.6899 115.501 64.6899 118.464Z" fill="#A0A09F" fill-opacity="0.15"/>
<path d="M33.5629 42.5382L32.9176 42.5633C30.4463 42.6672 27.9752 42.8579 25.5042 43.1355L25.3862 43.1507C23.8973 43.3666 22.6681 44.4708 22.2347 45.9688L22.213 46.046L17.0693 46.0465C15.3984 46.0465 13.9724 47.3104 13.6977 49.0348L13.0217 53.2785L13.0088 53.3708C12.8915 54.3532 13.4053 55.2674 14.217 55.6681L14.2573 55.687L14.2791 56.0294C14.5167 60.314 14.7799 64.613 15.0675 68.9076L15.2428 71.4815C15.5997 76.6354 15.9917 81.7805 16.4188 86.9194C17.273 97.1969 18.272 107.5 19.4158 117.828C19.5306 118.865 20.3163 119.68 21.3083 119.793C26.654 120.397 32.0003 120.7 37.3467 120.7L38.2834 120.697C43.3221 120.663 48.3539 120.362 53.3851 119.793C54.377 119.68 55.1626 118.865 55.2776 117.828C56.4172 107.55 57.4163 97.2476 58.2747 86.9194L58.4863 84.3378C59.251 74.8741 59.8941 65.4316 60.4154 56.0102L60.4374 55.6861L60.4728 55.6699C61.3118 55.2577 61.834 54.2972 61.6717 53.2785L60.9957 49.0348L60.9757 48.9205C60.6575 47.2548 59.2579 46.0465 57.6241 46.0465L52.48 46.046L52.4587 45.9688C52.0139 44.4314 50.7308 43.3088 49.1892 43.1355L48.3346 43.043C46.3405 42.8351 44.3463 42.6838 42.352 42.5891L42.1863 42.5816L46.5133 10.3737C46.6775 9.15128 45.8634 8.02105 44.6951 7.84925L40.464 7.22711C39.2956 7.05531 38.2154 7.90699 38.0511 9.12939L33.5629 42.5382Z" fill="white"/>
<path d="M40.1666 9.44141L44.3977 10.0635L39.7405 44.7341C42.814 44.8052 45.8875 45.0135 48.961 45.3588C49.6814 45.4398 50.2746 45.987 50.4416 46.7246L50.5919 47.3885L50.7342 48.2825L57.6241 48.2825C58.2507 48.2825 58.7854 48.7565 58.8884 49.4031L59.5645 53.6468L58.4292 53.7353L58.2827 55.882C57.7151 66.1382 57.003 76.4198 56.1463 86.7267C55.2897 97.0336 54.2928 107.315 53.1555 117.571C48.1959 118.132 43.2362 118.429 38.2766 118.462L37.3467 118.465C32.0771 118.465 26.8075 118.167 21.5379 117.571C20.3964 107.265 19.3995 96.9829 18.547 86.7267C18.1208 81.5985 17.7297 76.4641 17.3736 71.3233L17.1985 68.7524C16.9116 64.4666 16.6489 60.1765 16.4107 55.882L16.2743 53.7366L15.1289 53.6468L15.8049 49.4031C15.9079 48.7565 16.4427 48.2825 17.0693 48.2825L23.9306 48.2825L24.1015 47.3885L24.2518 46.7246C24.4187 45.987 25.012 45.4398 25.7323 45.3588C28.9638 44.9957 32.1953 44.7842 35.4268 44.7242L40.1666 9.44141Z" fill="white"/>
<path fill-rule="evenodd" clip-rule="evenodd" d="M16.4102 55.8809C23.3888 56.4769 30.3675 56.7749 37.3461 56.7749C44.3248 56.7749 51.3035 56.4769 58.2821 55.8809C57.7145 66.1371 57.0024 76.4187 56.1458 86.7256C55.2892 97.0324 54.2922 107.314 53.1549 117.57C47.8853 118.166 42.6157 118.464 37.3461 118.464C32.0765 118.464 26.8069 118.166 21.5373 117.57C20.3959 107.263 19.3989 96.9818 18.5465 86.7256C17.6941 76.4693 16.9819 66.1877 16.4102 55.8809Z" fill="white"/>
<path fill-rule="evenodd" clip-rule="evenodd" d="M25.4414 83.7864C23.4405 76.4151 20.5551 71.2592 17.2658 69.7485C17.2644 69.738 17.2644 69.738 17.5757 74.1653C20.4566 78.9619 22.5311 92.438 22.5311 108.311H28.3526C28.3526 88.42 31.6103 72.293 35.6292 72.293C39.6481 72.293 42.9067 89.7625 42.9067 111.311H48.7265C48.7265 88.1048 42.8633 69.291 35.6292 69.291C31.5145 69.291 27.8438 74.9452 25.4414 83.7864Z" fill="#FFBC0D"/>
<path fill-rule="evenodd" clip-rule="evenodd" d="M58.2797 55.8809C58.2797 55.8809 57.4284 71.2653 56.1434 86.7256C54.8585 102.186 53.1526 117.57 53.1526 117.57C53.1526 117.57 45.2482 118.464 37.3438 118.464C43.5744 118.464 46.7076 97.8415 46.7433 56.5957C53.1526 56.3279 58.2797 55.8809 58.2797 55.8809Z" fill="#EAEAEA"/>
<path d="M40.1641 9.43945L44.3951 10.0616L39.501 46.4955L35.1872 46.4895L40.1641 9.43945Z" fill="#F1F1F1"/>
<path d="M42.2813 9.75L43.5506 9.93664L38.6399 46.4938L37.3458 46.492L42.2813 9.75Z" fill="#EAEAEA"/>
<path fill-rule="evenodd" clip-rule="evenodd" d="M17.0693 48.2812H57.6241C58.2507 48.2812 58.7854 48.7552 58.8884 49.4019L59.5645 53.6455C52.1585 54.2416 44.7526 54.5396 37.3467 54.5396C29.9408 54.5396 22.5348 54.2416 15.1289 53.6455L15.8049 49.4019C15.9079 48.7552 16.4427 48.2812 17.0693 48.2812Z" fill="#EAEAEA"/>
<path fill-rule="evenodd" clip-rule="evenodd" d="M25.7324 45.3576C29.6039 44.9226 33.4753 44.7051 37.3468 44.7051C41.2182 44.7051 45.0897 44.9226 48.9611 45.3576C49.6815 45.4385 50.2747 45.9858 50.4417 46.7233L50.592 47.3872H24.1016L24.2518 46.7233C24.4188 45.9858 25.0121 45.4385 25.7324 45.3576Z" fill="#EAEAEA"/>
<path d="M146 115.808C146 118.935 135.703 121.47 123 121.47C110.297 121.47 100 118.935 100 115.808C100 112.681 110.297 110.146 123 110.146C135.703 110.146 146 112.681 146 115.808Z" fill="#A0A09F" fill-opacity="0.15"/>
<path d="M113.557 42.8398C111.346 42.8398 108.941 44.979 108.213 45.8247C107.727 46.3719 107.071 47.2674 107.168 48.3867C107.265 49.4812 107.362 50.4513 107.435 51.3218C106.415 51.5706 105.346 52.0929 104.447 52.6899C104.447 52.665 104.423 52.6153 104.423 52.5904C104.107 51.1477 102.747 50.6751 101.508 50.3269C100.876 50.1528 99.6128 49.8543 98.2767 49.8543C97.6451 49.8543 97.062 49.9289 96.5276 50.0533C95.3858 50.3766 94.6813 51.5706 94.9728 52.7396C95.1185 53.3615 95.2643 54.0082 95.4344 54.6301C92.9321 55.8986 91.0373 59.381 91.013 59.4058C90.8186 59.7541 90.3813 60.5998 90.6972 61.5947C91.4017 63.8334 92.1548 65.6243 92.9321 67.5396C92.9807 67.664 93.0293 67.7883 93.0779 67.9127L92.3248 68.7833C91.8875 69.2808 91.7175 69.9275 91.7904 70.5991C92.422 75.0764 95.8231 98.1593 100.439 114.253C100.56 114.676 100.803 115.049 101.143 115.347L104.107 117.859C104.496 118.208 105.006 118.382 105.492 118.382C105.735 118.382 106.002 118.332 106.245 118.257C110.108 116.815 113.096 115.869 119.072 115.869C125.048 115.869 128.036 116.815 131.899 118.257C132.142 118.357 132.385 118.382 132.652 118.382C133.162 118.382 133.648 118.208 134.036 117.859L137 115.347C137.34 115.074 137.583 114.676 137.705 114.253C142.32 98.1593 145.722 75.0515 146.353 70.5991C146.45 69.9772 146.28 69.3554 145.892 68.8579L145.114 67.8629C145.187 67.6639 145.236 67.4401 145.309 67.2411C146.596 63.2115 147.811 59.4058 148.831 55.028C149.098 53.8838 148.442 52.7148 147.349 52.3665C146.62 52.1427 145.794 52.0183 144.871 52.0183C143.487 52.0183 140.183 52.267 139.624 54.5803C139.6 54.6549 139.575 54.7296 139.575 54.8042C139.211 54.6798 138.822 54.5803 138.385 54.5057C138.458 54.0828 138.531 53.6351 138.604 53.1874C138.798 51.9934 138.045 50.8741 136.879 50.6254C136.247 50.501 135.591 50.4264 134.935 50.4264C133.915 50.4264 132.968 50.5756 132.166 50.8741C132.117 50.1528 132.044 49.3817 131.996 48.5608C131.899 47.3918 130.951 46.4963 129.809 46.4963C129.761 46.4963 129.688 46.4963 129.639 46.4963C126.748 46.7202 123.517 48.1877 122.764 50.9238C122.691 51.1726 122.667 51.4213 122.691 51.6949L122.716 52.0681C122.716 52.0929 122.716 52.0929 122.716 52.1178C122.546 52.1676 122.376 52.2173 122.23 52.267C122.303 51.5954 122.376 50.8741 122.473 50.1279C122.619 48.8096 121.817 47.5908 119.995 46.3968C119.388 45.9988 117.809 45.0536 116.157 44.8298C116.108 44.8298 116.035 44.8049 115.987 44.8049C115.865 43.8099 115.136 43.0388 114.189 42.8647C113.946 42.8647 113.752 42.8398 113.557 42.8398Z" fill="white"/>
<path d="M105.518 116.192C109.72 114.625 112.878 113.679 119.073 113.679C125.268 113.679 128.426 114.625 132.629 116.192L135.593 113.679C140.136 97.785 143.512 75.0751 144.168 70.3242H138.119C137.026 73.2842 131.924 84.9003 119.049 84.9003C106.174 84.9003 101.072 73.2842 99.9787 70.3242H93.9297C94.6099 75.0751 97.9624 97.785 102.505 113.679L105.518 116.192Z" fill="#DB0007"/>
<path d="M95.6304 68.3847H100.489C100.829 68.3847 101.121 68.6085 101.218 68.907C101.679 70.3497 106.174 82.9359 119.025 82.9359C131.852 82.9359 136.346 70.3497 136.832 68.907C136.929 68.5836 137.221 68.3847 137.561 68.3847H142.687C144.169 63.6586 145.578 59.4798 146.744 54.5548C144.946 54.0076 141.934 54.505 141.763 55.2015C141.472 56.3954 141.278 57.0173 140.962 58.2112C140.136 57.2909 138.654 56.8183 137.026 56.6442C136.565 60.8479 136.127 62.4149 135.059 66.6932C135.277 61.3702 135.569 58.4102 136.492 52.8882C134.646 52.5151 132.216 52.8136 131.487 54.1817C131.002 57.3407 130.734 59.0818 130.54 61.818C130.346 56.8432 130.273 53.9827 129.835 48.8089C127.479 49.0079 125.293 50.1024 124.904 51.5948C124.952 52.2664 125.025 53.4355 125.074 54.1071C123.446 54.0822 121.697 54.7786 121.066 55.301C120.337 58.9823 120.337 61.1712 119.341 64.952C119.341 64.952 118.928 62.0418 120.312 49.9034C120.385 49.182 117.762 47.3414 115.867 47.0677C115.454 50.5998 115.065 54.1319 114.749 57.664C114.555 53.5101 114.239 49.3064 113.802 45.1027C112.369 44.854 109.308 47.4409 109.38 48.1622C110.182 56.4949 110.206 57.8132 110.231 63.385C109.502 58.3356 109.21 56.4701 108.53 53.4106C106.66 53.5598 103.987 55.5995 104.133 56.296C104.789 59.7037 104.935 61.1961 105.129 65.6734C104.182 60.2758 103.526 58.5595 102.311 53.0872C102.238 52.7639 98.9343 51.744 97.1123 52.2415C98.1327 56.5198 99.2502 60.7981 99.7117 65.0267C98.6671 62.2657 97.6954 59.43 96.8208 56.5198C94.9988 57.0422 92.691 60.624 92.7881 60.9474C93.6627 63.7084 94.5858 65.748 95.6304 68.3847Z" fill="#FFBC0D"/>
<path d="M123.372 89.627C121.623 89.627 120.068 92.0148 119.048 95.721C118.027 91.99 116.472 89.627 114.723 89.627C111.662 89.627 109.16 97.5369 109.16 107.312H111.638C111.638 98.2333 113.023 90.8955 114.723 90.8955C116.424 90.8955 117.809 97.6861 117.809 106.069H120.287C120.287 97.6861 121.671 90.8955 123.372 90.8955C125.072 90.8955 126.457 98.2582 126.457 107.312H128.935C128.911 97.5617 126.433 89.627 123.372 89.627Z" fill="#FFBC0D"/>
<path d="M108.15 129.771C108.15 132.649 91.5512 134.983 71.0752 134.983C50.5991 134.983 34 132.649 34 129.771C34 126.892 50.5991 124.559 71.0752 124.559C91.5512 124.559 108.15 126.892 108.15 129.771Z" fill="#A0A09F" fill-opacity="0.15"/>
<path fill-rule="evenodd" clip-rule="evenodd" d="M36.6748 102.649C36.6218 102.869 36.6514 103.095 36.7481 103.287L36.748 103.287L36.4523 106.468C36.0921 107.162 35.8878 107.959 35.8878 108.804V110.594C35.8878 110.637 35.8883 110.679 35.8893 110.722C35.879 110.9 35.9194 111.079 36.0088 111.236H36.009L36.4523 106.468C36.5285 106.322 36.6117 106.179 36.7015 106.042L36.5298 116.2H35.6154C35.1353 116.2 34.7461 116.604 34.7461 117.103V120.189L34.7461 120.197L34.7473 120.331L34.7474 120.339C34.8197 124.405 37.8058 127.788 41.7148 128.199C50.6672 129.14 59.3035 129.683 67.6227 129.829C67.8331 129.876 68.0527 129.882 68.2749 129.839C69.5738 129.859 70.865 129.868 72.1482 129.868C81.558 129.868 90.7183 129.345 99.6288 128.296C103.546 127.836 106.506 124.392 106.506 120.296L106.506 117.675C106.562 117.61 106.613 117.538 106.66 117.458C106.835 117.158 106.886 116.828 106.886 116.521C106.886 116.056 106.748 115.618 106.437 115.276C106.34 115.17 106.235 115.082 106.126 115.009V113.768C107.06 113.094 107.647 112.024 107.647 110.594V108.804C107.647 107.751 107.33 106.774 106.79 105.977C106.878 105.866 106.956 105.747 107.021 105.62H107.043C107.769 105.62 108.283 104.99 108.283 104.312V102.938C108.283 102.463 108.036 102.003 107.606 101.772L107.603 101.77L106.697 101.28C106.58 101.177 106.439 101.108 106.288 101.08C106.287 101.08 106.287 101.08 106.287 101.08C106.287 101.08 106.286 101.08 106.286 101.08L105.844 100.621C106.059 100.265 106.228 99.8804 106.355 99.5028C106.577 98.8484 106.696 98.1489 106.696 97.5301C106.696 90.4444 102.822 84.8928 96.5768 81.1582C90.3533 77.4366 81.7221 75.4727 71.9579 75.4727C62.1869 75.4727 53.1367 77.5383 46.4961 81.348C39.8527 85.1597 35.5072 90.7998 35.5072 97.9255C35.5072 98.6554 35.6875 99.4363 36.0147 100.122C36.2422 100.599 36.5579 101.064 36.9673 101.434L36.6748 102.649ZM36.7172 105.111C36.7726 105.313 36.8599 105.5 36.9732 105.668C36.8771 105.788 36.7864 105.913 36.7015 106.042L36.7172 105.111ZM36.7172 105.111C36.6838 104.989 36.6621 104.863 36.6532 104.732C36.6526 104.721 36.652 104.711 36.6516 104.7L36.6494 104.633C36.6491 104.623 36.6489 104.612 36.6489 104.602C36.6489 104.401 36.6793 104.208 36.7356 104.027L36.7172 105.111ZM36.7356 104.027L36.748 103.287L36.7481 103.287C36.7891 103.411 36.842 103.528 36.9055 103.639C36.8354 103.76 36.7781 103.89 36.7356 104.027Z" fill="white"/>
<path d="M36.7481 103.287L37.8663 103.306C37.8693 103.125 37.8283 102.946 37.7468 102.784L36.7481 103.287ZM36.6748 102.649L35.5875 102.387L35.5874 102.387L36.6748 102.649ZM35.8893 110.722L37.0058 110.786C37.0076 110.756 37.0081 110.725 37.0074 110.695L35.8893 110.722ZM36.0088 111.236L35.0363 111.788C35.2351 112.138 35.6064 112.354 36.0088 112.354V111.236ZM36.009 111.236V112.354C36.5865 112.354 37.0691 111.915 37.1225 111.34L36.009 111.236ZM36.5298 116.2V117.318C37.1401 117.318 37.6378 116.829 37.6481 116.219L36.5298 116.2ZM34.7461 120.189H33.6277L33.6277 120.194L34.7461 120.189ZM34.7461 120.197L33.6278 120.202L33.6278 120.207L34.7461 120.197ZM34.7473 120.331L33.629 120.341L33.629 120.346L34.7473 120.331ZM34.7474 120.339L33.6291 120.355L33.6292 120.359L34.7474 120.339ZM41.7148 128.199L41.8318 127.086H41.8317L41.7148 128.199ZM67.6227 129.829L67.8648 128.737C67.7917 128.721 67.7172 128.712 67.6423 128.711L67.6227 129.829ZM68.2749 129.839L68.292 128.721C68.2142 128.719 68.1365 128.726 68.0601 128.741L68.2749 129.839ZM99.6288 128.296L99.4982 127.186L99.4982 127.186L99.6288 128.296ZM106.506 120.296L105.387 120.296V120.296H106.506ZM106.506 117.675L105.661 116.942C105.485 117.145 105.388 117.405 105.388 117.674L106.506 117.675ZM106.66 117.458L107.626 118.022L107.627 118.021L106.66 117.458ZM106.437 115.276L107.264 114.524L107.263 114.523L106.437 115.276ZM106.126 115.009H105.007C105.007 115.384 105.194 115.733 105.506 115.94L106.126 115.009ZM106.126 113.768L105.472 112.861C105.18 113.071 105.007 113.408 105.007 113.768H106.126ZM106.79 105.977L105.915 105.282C105.611 105.664 105.59 106.2 105.865 106.605L106.79 105.977ZM107.021 105.62V104.501C106.603 104.501 106.219 104.735 106.027 105.107L107.021 105.62ZM107.606 101.772L107.036 102.734C107.05 102.742 107.063 102.75 107.077 102.757L107.606 101.772ZM107.603 101.77L108.172 100.807C108.16 100.8 108.148 100.793 108.135 100.786L107.603 101.77ZM106.697 101.28L105.96 102.121C106.023 102.176 106.091 102.224 106.165 102.264L106.697 101.28ZM106.288 101.08L105.481 101.855C105.644 102.025 105.855 102.138 106.086 102.181L106.288 101.08ZM106.287 101.08L105.868 102.117L105.876 102.12L106.287 101.08ZM106.286 101.08L105.48 101.855C105.565 101.943 105.663 102.016 105.77 102.072L106.286 101.08ZM105.844 100.621L104.886 100.044C104.625 100.477 104.688 101.032 105.039 101.396L105.844 100.621ZM106.355 99.5028L105.296 99.1442L105.295 99.145L106.355 99.5028ZM96.5768 81.1582L96.0028 82.1181L96.0029 82.1181L96.5768 81.1582ZM46.4961 81.348L45.9395 80.3779L45.9395 80.378L46.4961 81.348ZM36.0147 100.122L37.0242 99.6407L37.024 99.6403L36.0147 100.122ZM36.9673 101.434L38.0546 101.695C38.1505 101.297 38.0208 100.878 37.7164 100.603L36.9673 101.434ZM36.9732 105.668L37.8461 106.367C38.1526 105.984 38.1741 105.446 37.8991 105.04L36.9732 105.668ZM36.6532 104.732L35.5371 104.804L35.5374 104.807L36.6532 104.732ZM36.6516 104.7L35.5339 104.738L35.534 104.74L36.6516 104.7ZM36.6494 104.633L35.5316 104.669L35.5316 104.671L36.6494 104.633ZM36.7481 103.287L37.8094 102.935C37.6425 102.432 37.1464 102.116 36.6206 102.176C36.0948 102.236 35.6833 102.657 35.6345 103.184L36.7481 103.287ZM36.9055 103.639L37.8731 104.2C38.0732 103.855 38.0742 103.429 37.8757 103.083L36.9055 103.639ZM36.7481 103.287L37.7468 102.784C37.7671 102.824 37.7722 102.869 37.7622 102.911L36.6748 102.649L35.5874 102.387C35.4714 102.87 35.5358 103.367 35.7493 103.79L36.7481 103.287ZM36.748 103.287L37.8663 103.306L37.8663 103.306L36.7481 103.287L35.6298 103.269L35.6298 103.269L36.748 103.287ZM36.4523 106.468L37.5659 106.572L37.8616 103.391L36.748 103.287L35.6345 103.184L35.3387 106.365L36.4523 106.468ZM36.4523 106.468L35.4597 105.953C35.0178 106.804 34.7694 107.777 34.7694 108.804H35.8878H37.0061C37.0061 108.14 37.1664 107.52 37.4448 106.984L36.4523 106.468ZM35.8878 108.804H34.7694V110.594H35.8878H37.0061V108.804H35.8878ZM35.8878 110.594H34.7694C34.7694 110.646 34.77 110.698 34.7713 110.749L35.8893 110.722L37.0074 110.695C37.0066 110.661 37.0061 110.627 37.0061 110.594H35.8878ZM35.8893 110.722L34.7728 110.657C34.7503 111.046 34.8383 111.44 35.0363 111.788L36.0088 111.236L36.9812 110.684C37.0005 110.718 37.0077 110.753 37.0058 110.786L35.8893 110.722ZM36.0088 111.236V112.354H36.009V111.236V110.118H36.0088V111.236ZM36.009 111.236L37.1225 111.34L37.5659 106.572L36.4523 106.468L35.3387 106.365L34.8954 111.133L36.009 111.236ZM36.7015 106.042L35.7658 105.43C35.6554 105.598 35.5532 105.773 35.4597 105.953L36.4523 106.468L37.4448 106.984C37.5038 106.87 37.568 106.76 37.6372 106.655L36.7015 106.042ZM36.5298 116.2L37.6481 116.219L37.8197 106.061L36.7015 106.042L35.5833 106.023L35.4116 116.181L36.5298 116.2ZM35.6154 116.2V117.318H36.5298V116.2V115.081H35.6154V116.2ZM34.7461 117.103H35.8645C35.8645 117.181 35.7926 117.318 35.6154 117.318V116.2V115.081C34.4779 115.081 33.6277 116.027 33.6277 117.103H34.7461ZM34.7461 120.189H35.8645V117.103H34.7461H33.6277V120.189H34.7461ZM34.7461 120.197L35.8645 120.192L35.8645 120.183L34.7461 120.189L33.6277 120.194L33.6278 120.202L34.7461 120.197ZM34.7473 120.331L35.8657 120.321L35.8645 120.187L34.7461 120.197L33.6278 120.207L33.629 120.341L34.7473 120.331ZM34.7474 120.339L35.8657 120.324L35.8656 120.315L34.7473 120.331L33.629 120.346L33.6291 120.355L34.7474 120.339ZM41.7148 128.199L41.8317 127.086C38.5182 126.738 35.9285 123.855 35.8656 120.319L34.7474 120.339L33.6292 120.359C33.7109 124.955 37.0933 128.838 41.5979 129.311L41.7148 128.199ZM67.6227 129.829L67.6423 128.711C59.3581 128.565 50.7544 128.024 41.8318 127.086L41.7148 128.199L41.5979 129.311C50.5801 130.255 59.2488 130.801 67.603 130.948L67.6227 129.829ZM68.2749 129.839L68.0601 128.741C67.9973 128.754 67.9335 128.753 67.8648 128.737L67.6227 129.829L67.3806 130.921C67.7328 130.999 68.1081 131.011 68.4897 130.936L68.2749 129.839ZM72.1482 129.868V128.75C70.8705 128.75 69.5849 128.74 68.292 128.721L68.2749 129.839L68.2579 130.957C69.5626 130.977 70.8595 130.986 72.1482 130.986V129.868ZM99.6288 128.296L99.4982 127.186C90.6331 128.228 81.5165 128.75 72.1482 128.75V129.868V130.986C81.5995 130.986 90.8035 130.461 99.7595 129.407L99.6288 128.296ZM106.506 120.296H105.387C105.387 123.859 102.819 126.795 99.4982 127.186L99.6288 128.296L99.7595 129.407C104.273 128.876 107.624 124.926 107.624 120.296H106.506ZM106.506 117.675L105.388 117.674L105.387 120.296L106.506 120.296L107.624 120.297L107.625 117.675L106.506 117.675ZM106.66 117.458L105.694 116.895C105.682 116.916 105.67 116.931 105.661 116.942L106.506 117.675L107.351 118.407C107.453 118.29 107.545 118.161 107.626 118.022L106.66 117.458ZM106.886 116.521H105.768C105.768 116.711 105.735 116.825 105.694 116.896L106.66 117.458L107.627 118.021C107.935 117.491 108.005 116.944 108.005 116.521H106.886ZM106.437 115.276L105.61 116.029C105.699 116.128 105.768 116.279 105.768 116.521H106.886H108.005C108.005 115.834 107.797 115.109 107.264 114.524L106.437 115.276ZM106.126 115.009L105.506 115.94C105.544 115.966 105.579 115.995 105.611 116.03L106.437 115.276L107.263 114.523C107.101 114.345 106.926 114.199 106.746 114.079L106.126 115.009ZM106.126 113.768H105.007V115.009H106.126H107.244V113.768H106.126ZM107.647 110.594H106.529C106.529 111.685 106.099 112.409 105.472 112.861L106.126 113.768L106.78 114.675C108.022 113.78 108.766 112.363 108.766 110.594H107.647ZM107.647 108.804H106.529V110.594H107.647H108.766V108.804H107.647ZM106.79 105.977L105.865 106.605C106.28 107.218 106.529 107.977 106.529 108.804H107.647H108.766C108.766 107.525 108.38 106.33 107.716 105.35L106.79 105.977ZM107.021 105.62L106.027 105.107C105.996 105.169 105.958 105.227 105.915 105.282L106.79 105.977L107.666 106.673C107.799 106.505 107.916 106.324 108.015 106.132L107.021 105.62ZM107.043 105.62V104.501H107.021V105.62V106.738H107.043V105.62ZM108.283 104.312H107.165C107.165 104.373 107.14 104.433 107.106 104.47C107.092 104.486 107.08 104.493 107.073 104.496C107.068 104.498 107.06 104.501 107.043 104.501V105.62V106.738C108.489 106.738 109.402 105.501 109.402 104.312H108.283ZM108.283 102.938H107.165V104.312H108.283H109.402V102.938H108.283ZM107.606 101.772L107.077 102.757C107.095 102.767 107.116 102.784 107.134 102.816C107.153 102.85 107.165 102.893 107.165 102.938H108.283H109.402C109.402 102.09 108.961 101.23 108.134 100.786L107.606 101.772ZM107.603 101.77L107.034 102.733L107.036 102.734L107.606 101.772L108.175 100.809L108.172 100.807L107.603 101.77ZM106.697 101.28L106.165 102.264L107.071 102.754L107.603 101.77L108.135 100.786L107.229 100.296L106.697 101.28ZM106.288 101.08L106.086 102.181C106.033 102.171 105.99 102.148 105.96 102.121L106.697 101.28L107.435 100.439C107.17 100.207 106.845 100.045 106.489 99.9804L106.288 101.08ZM106.287 101.08L105.876 102.12C105.876 102.12 105.875 102.12 105.875 102.12C105.875 102.12 105.874 102.119 105.874 102.119C105.873 102.119 105.871 102.118 105.868 102.117C105.863 102.115 105.855 102.112 105.845 102.107C105.825 102.099 105.791 102.084 105.751 102.061C105.659 102.011 105.566 101.944 105.481 101.855L106.288 101.08L107.094 100.305C107.009 100.217 106.916 100.149 106.824 100.099C106.783 100.077 106.749 100.061 106.729 100.053C106.719 100.048 106.711 100.045 106.706 100.043C106.703 100.042 106.701 100.041 106.7 100.041C106.699 100.04 106.698 100.04 106.698 100.04L106.287 101.08ZM106.286 101.08L105.77 102.072C105.824 102.1 105.872 102.118 105.868 102.117L106.287 101.08L106.706 100.043C106.702 100.041 106.748 100.059 106.802 100.087L106.286 101.08ZM105.844 100.621L105.039 101.396L105.48 101.855L106.286 101.08L107.092 100.304L106.65 99.845L105.844 100.621ZM106.355 99.5028L105.295 99.145C105.189 99.4593 105.052 99.768 104.886 100.044L105.844 100.621L106.802 101.197C107.065 100.761 107.266 100.301 107.415 99.8605L106.355 99.5028ZM106.696 97.5301H105.578C105.578 98.0159 105.482 98.5944 105.296 99.1442L106.355 99.5028L107.414 99.8613C107.671 99.1023 107.814 98.2818 107.814 97.5301H106.696ZM96.5768 81.1582L96.0029 82.1181C101.991 85.6988 105.578 90.923 105.578 97.5301H106.696H107.814C107.814 89.9657 103.654 84.0869 97.1508 80.1984L96.5768 81.1582ZM71.9579 75.4727V76.591C81.5922 76.591 90.0058 78.5319 96.0028 82.1181L96.5768 81.1582L97.1508 80.1984C90.7008 76.3413 81.8519 74.3543 71.9579 74.3543V75.4727ZM46.4961 81.348L47.0526 82.3181C53.4809 78.6301 62.3259 76.591 71.9579 76.591V75.4727V74.3543C62.0479 74.3543 52.7924 76.4464 45.9395 80.3779L46.4961 81.348ZM35.5072 97.9255H36.6256C36.6256 91.3274 40.6305 86.0029 47.0526 82.3181L46.4961 81.348L45.9395 80.378C39.0749 84.3166 34.3888 90.2722 34.3888 97.9255H35.5072ZM36.0147 100.122L37.024 99.6403C36.7657 99.099 36.6256 98.4821 36.6256 97.9255H35.5072H34.3888C34.3888 98.8287 34.6093 99.7737 35.0054 100.604L36.0147 100.122ZM36.9673 101.434L37.7164 100.603C37.4382 100.352 37.203 100.016 37.0242 99.6407L36.0147 100.122L35.0052 100.603C35.2814 101.183 35.6777 101.776 36.2181 102.264L36.9673 101.434ZM36.6748 102.649L37.7621 102.911L38.0546 101.695L36.9673 101.434L35.8799 101.172L35.5875 102.387L36.6748 102.649ZM36.7172 105.111L35.6388 105.407C35.7268 105.728 35.866 106.027 36.0473 106.295L36.9732 105.668L37.8991 105.04C37.8539 104.974 37.8184 104.898 37.7957 104.815L36.7172 105.111ZM36.9732 105.668L36.1003 104.968C35.9818 105.116 35.8701 105.27 35.7658 105.43L36.7015 106.042L37.6372 106.655C37.7026 106.555 37.7723 106.459 37.8461 106.367L36.9732 105.668ZM36.7015 106.042L37.8197 106.061L37.8355 105.13L36.7172 105.111L35.599 105.092L35.5833 106.023L36.7015 106.042ZM36.6532 104.732L35.5374 104.807C35.5513 105.013 35.5856 105.214 35.6388 105.407L36.7172 105.111L37.7957 104.815C37.782 104.765 37.7728 104.712 37.7691 104.657L36.6532 104.732ZM36.6516 104.7L35.534 104.74C35.5348 104.763 35.5359 104.784 35.5372 104.804L36.6532 104.732L37.7693 104.66L37.7693 104.661L36.6516 104.7ZM36.6494 104.633L35.5316 104.671L35.5339 104.738L36.6516 104.7L37.7694 104.663L37.7672 104.596L36.6494 104.633ZM36.6489 104.602H35.5305C35.5305 104.625 35.5309 104.648 35.5316 104.669L36.6494 104.633L37.7672 104.597C37.7672 104.597 37.7672 104.598 37.7672 104.602H36.6489ZM36.7356 104.027L35.6676 103.695C35.5781 103.982 35.5305 104.287 35.5305 104.602H36.6489H37.7672C37.7672 104.514 37.7804 104.433 37.8035 104.359L36.7356 104.027ZM36.7172 105.111L37.8355 105.13L37.8538 104.046L36.7356 104.027L35.6173 104.008L35.599 105.092L36.7172 105.111ZM36.7356 104.027L37.8538 104.046L37.8663 103.306L36.748 103.287L35.6298 103.269L35.6173 104.008L36.7356 104.027ZM36.748 103.287L37.8617 103.391L37.8617 103.39L36.7481 103.287L35.6345 103.184L35.6344 103.184L36.748 103.287ZM36.7481 103.287L35.6867 103.64C35.7514 103.834 35.8349 104.02 35.9352 104.195L36.9055 103.639L37.8757 103.083C37.8491 103.036 37.8267 102.987 37.8094 102.935L36.7481 103.287ZM36.9055 103.639L35.9379 103.078C35.8262 103.271 35.7351 103.477 35.6676 103.695L36.7356 104.027L37.8035 104.359C37.821 104.302 37.8445 104.249 37.8731 104.2L36.9055 103.639Z" fill="white"/>
<path fill-rule="evenodd" clip-rule="evenodd" d="M35.6172 120.244C35.6172 123.866 38.2213 126.908 41.6907 127.254C48.7413 127.955 60.8507 128.966 72.15 128.966C83.0295 128.966 93.4585 128.029 99.7079 127.333C103.116 126.953 105.638 123.945 105.638 120.384V117.104H35.6172V120.244Z" fill="#EC9D47"/>
<path fill-rule="evenodd" clip-rule="evenodd" d="M103.094 104.866C105.129 104.866 106.779 106.629 106.779 108.803V110.593C106.779 112.073 106.015 112.989 104.885 113.423C104.698 113.369 104.482 113.347 104.253 113.347C104.246 113.347 87.1423 113.504 84.8274 113.796C83.4897 113.876 82.5874 113.953 82.1205 114.029C69.2914 116.106 63.8754 112.967 57.7284 112.316C53.7061 111.891 49.9223 112.159 46.9746 112.914C46.9428 112.922 45.7291 113.104 45.0543 113.146C43.8476 113.221 42.7464 113.367 41.3244 113.322C40.5083 113.297 39.4305 113.687 38.8128 113.481C37.5953 113.074 36.7578 112.142 36.7578 110.593V108.803C36.7578 106.629 38.4078 104.866 40.4431 104.866C54.6389 104.069 65.3227 103.667 72.4945 103.658H72.7198C79.4696 103.658 89.5941 104.061 103.094 104.866Z" fill="#73371F"/>
<path fill-rule="evenodd" clip-rule="evenodd" d="M82.4151 116.225C82.885 116.15 83.7934 116.074 85.1402 115.995C87.471 115.707 104.69 115.551 104.698 115.551C105.425 115.551 106.015 115.766 106.015 116.521C106.015 117.359 105.432 117.279 104.636 117.418C103.574 117.604 102.437 117.702 101.226 117.714C99.611 117.728 94.7628 117.617 86.6814 117.379C86.2457 117.366 85.405 117.407 84.1599 117.501C83.5647 117.693 82.8774 117.867 82.0935 118.005C74.4235 119.354 72.0028 123.121 69.0909 128.039C66.2812 132.785 64.3279 117.744 55 117.331C48.7815 117.056 43.7004 117.23 39.7566 117.852C39.662 117.856 39.5674 117.849 39.474 117.833C38.694 117.698 38.1671 117.33 38.297 116.521C38.4653 115.473 39.3072 115.479 40.3287 115.411L41.2062 115.353C42.5856 115.427 43.8827 115.427 45.0976 115.353C45.7769 115.312 46.9989 115.132 47.0309 115.123C49.9986 114.378 53.808 114.113 57.8578 114.534C64.0463 115.176 69.4992 118.276 82.4151 116.225Z" fill="#FFBC0D"/>
<path d="M74.3594 104.711C77.2245 104.717 80.404 104.788 83.8971 104.925C82.3125 108.381 79.751 107.662 77.3269 106.981C76.1872 106.661 75.1886 105.872 74.4043 104.774L74.3594 104.711Z" fill="#E6E454"/>
<path d="M73.5781 104.763C74.2624 104.758 74.9652 104.757 75.6868 104.759C76.264 105.323 76.9361 105.726 77.6763 105.915C77.9864 105.995 78.1246 106.03 78.2962 106.072C80.1544 106.527 81.2283 106.548 82.139 106.002C82.5412 105.76 82.9039 105.396 83.2254 104.89C83.8142 104.907 84.4124 104.926 85.0197 104.947C84.452 106.278 83.719 107.192 82.8156 107.734C81.5278 108.506 80.1932 108.48 78.0351 107.951C77.8932 107.917 77.7748 107.887 77.572 107.835L77.4027 107.792C75.8694 107.4 74.5683 106.326 73.6303 104.846L73.5781 104.763Z" fill="#66881E"/>
<path fill-rule="evenodd" clip-rule="evenodd" d="M86.4336 104.303C90.1923 104.526 94.3787 104.837 98.9917 105.234C98.3319 105.61 97.7032 106.063 97.1088 106.61C94.4659 109.042 92.729 112.292 91.9109 111.204C91.0927 110.116 91.0927 107.629 90.2505 106.455C89.5925 105.537 88.5388 104.848 86.5752 104.339L86.4336 104.303Z" fill="#FFBC0D"/>
<path d="M86.1529 101.682C91.1598 102.008 96.8665 102.475 103.27 103.083L103.367 103.093H103.463C104.53 103.093 105.429 102.661 106.137 101.969C106.311 102.148 106.419 102.396 106.419 102.67C106.419 103.216 105.992 103.659 105.467 103.659H38.4713C38.0115 103.659 37.6279 103.32 37.5391 102.869C37.9472 103.014 38.3862 103.093 38.852 103.093H38.9423L39.0322 103.085C45.9029 102.476 51.9235 102.008 57.0912 101.682H86.1529Z" fill="#FFD90D"/>
<path d="M37.5195 104.595C37.5195 104.07 37.9126 103.643 38.4175 103.637C42.89 103.583 62.761 103.346 68.1538 103.346C73.5942 103.346 99.8445 103.587 105.375 103.639C105.952 103.644 106.399 104.131 106.399 104.731C106.399 105.219 106.089 105.648 105.635 105.772C104.61 106.054 102.825 106.509 102.002 106.509C101.069 106.509 100.131 106.35 99.1789 106.152C98.2386 105.955 97.2861 105.718 96.3145 105.555C95.3959 105.401 45.7116 105.533 38.4112 105.553C37.9011 105.554 37.5195 105.125 37.5195 104.595Z" fill="#DB0007"/>
<path d="M107.206 102.574C107.334 102.642 107.414 102.783 107.414 102.938V104.312C107.414 104.536 107.248 104.717 107.044 104.717C106.996 104.717 106.948 104.707 106.904 104.687C105.798 104.192 103.953 103.384 102.848 103.072L103.24 103.112L103.334 103.121H103.428C104.476 103.121 105.358 102.67 106.049 101.949C106.187 102.021 107.066 102.5 107.206 102.574Z" fill="#FFEBB8"/>
<path d="M71.6058 101.287C74.0767 101.287 77.3019 101.513 80.5191 101.683C76.1622 103.622 72.4929 104.45 70.2716 104.45C68.1059 104.45 64.9257 103.529 60.7305 101.686C65.0661 101.42 68.692 101.287 71.6058 101.287Z" fill="#FFEBB8"/>
<path d="M60.8128 103.43C60.7473 104.491 60.4155 105.527 59.7956 106.432C57.8788 109.231 55.819 112.239 50.4781 108.279C48.118 106.529 47.203 104.965 47.0822 103.523C52.1277 103.435 56.618 103.404 60.5517 103.429L60.8128 103.43Z" fill="#E6E454"/>
<path d="M61.576 103.437C61.5091 104.647 61.1319 105.834 60.4165 106.874C60.2286 107.147 60.1441 107.269 60.0374 107.421C58.7345 109.281 57.7601 110.251 56.3732 110.71C54.5949 111.299 52.5396 110.736 50.0382 108.891C47.642 107.124 46.4536 105.373 46.3204 103.531C46.8416 103.522 47.3568 103.513 47.8661 103.505C47.9973 104.783 48.9237 106.111 50.9321 107.593C53.0734 109.172 54.6538 109.605 55.9026 109.191C56.8837 108.866 57.6678 108.086 58.7895 106.485C58.8933 106.337 58.9759 106.217 59.1612 105.948C59.6834 105.19 59.968 104.321 60.0308 103.426C60.5248 103.428 61.0097 103.432 61.4862 103.436L61.576 103.437Z" fill="#66881E"/>
<path fill-rule="evenodd" clip-rule="evenodd" d="M105.825 97.5293C105.825 99.0145 104.968 101.286 103.442 101.286C103.442 101.286 82.6419 99.3086 71.5759 99.3086C61.1442 99.3086 38.8486 101.286 38.8486 101.286C37.3221 101.286 36.375 99.4099 36.375 97.9247C36.375 84.5599 52.6206 76.375 71.9564 76.375C91.2922 76.375 105.825 84.1645 105.825 97.5293Z" fill="#EC9D47"/>
<path fill-rule="evenodd" clip-rule="evenodd" d="M68.8937 90.073C68.359 89.7728 68.1843 89.0939 68.5028 88.5566C68.8217 88.0192 70.6233 86.5052 70.9136 86.6685C71.204 86.8314 70.7572 89.107 70.4387 89.6439C70.1198 90.1813 69.4283 90.3735 68.8937 90.073Z" fill="white"/>
<path fill-rule="evenodd" clip-rule="evenodd" d="M68.574 79.8954C68.9317 79.4645 69.579 79.4178 70.0193 79.7915C70.46 80.1651 71.5598 82.0295 71.3653 82.2635C71.1709 82.4976 69.1639 81.7266 68.7236 81.3529C68.2829 80.9793 68.2159 80.3268 68.574 79.8954Z" fill="white"/>
<path fill-rule="evenodd" clip-rule="evenodd" d="M57.0761 90.2533C56.7182 90.6843 56.071 90.731 55.6306 90.3573C55.19 89.9836 54.0902 88.1193 54.2845 87.8852C54.4789 87.6511 56.4859 88.4222 56.9264 88.7958C57.367 89.1695 57.434 89.8219 57.0761 90.2533Z" fill="white"/>
<path fill-rule="evenodd" clip-rule="evenodd" d="M52.917 93.3954C53.5369 93.2891 54.1309 93.707 54.2438 94.3278C54.3567 94.949 53.9692 97.274 53.6325 97.3317C53.2958 97.3895 52.112 95.3329 51.9991 94.7121C51.8863 94.091 52.2972 93.5014 52.917 93.3954Z" fill="white"/>
<path fill-rule="evenodd" clip-rule="evenodd" d="M39.2691 97.2939C39.627 96.8629 40.2741 96.8162 40.7146 97.1899C41.1552 97.5636 42.255 99.4279 42.0607 99.662C41.8663 99.8961 39.8593 99.125 39.4188 98.7514C38.9783 98.3777 38.9113 97.7253 39.2691 97.2939Z" fill="white"/>
<path fill-rule="evenodd" clip-rule="evenodd" d="M88.093 91.1623C87.6782 90.7906 87.6333 90.118 87.9929 89.6606C88.3525 89.2027 90.1468 88.0599 90.3721 88.262C90.5974 88.464 89.8553 90.5494 89.4957 91.0069C89.1361 91.4648 88.5082 91.5344 88.093 91.1623Z" fill="white"/>
<path fill-rule="evenodd" clip-rule="evenodd" d="M84.8819 81.5322C85.5018 81.4258 86.0959 81.8437 86.2089 82.4645C86.3215 83.0857 85.9341 85.4107 85.5973 85.4684C85.2605 85.5262 84.077 83.4697 83.964 82.8489C83.851 82.2277 84.262 81.6381 84.8819 81.5322Z" fill="white"/>
<path fill-rule="evenodd" clip-rule="evenodd" d="M66.3039 93.5538C66.5932 94.1094 66.4082 94.8278 65.8911 95.1592C65.3743 95.4901 63.1842 95.9543 63.0274 95.6526C62.8702 95.3509 64.3274 93.4791 64.8445 93.1477C65.3617 92.8168 66.0151 92.9983 66.3039 93.5538Z" fill="white"/>
<path fill-rule="evenodd" clip-rule="evenodd" d="M73.1404 94.1298C73.4981 93.6988 74.1454 93.6522 74.5857 94.0258C75.0264 94.3995 76.1262 96.2638 75.9317 96.4979C75.7373 96.732 73.7303 95.961 73.29 95.5873C72.8493 95.2136 72.7823 94.5612 73.1404 94.1298Z" fill="white"/>
<path fill-rule="evenodd" clip-rule="evenodd" d="M79.3799 87.0508C80.0105 87.0508 80.5216 87.5565 80.5216 88.1805C80.5216 88.8044 79.7224 91.0049 79.3799 91.0049C79.0374 91.0049 78.2383 88.8044 78.2383 88.1805C78.2383 87.5565 78.7494 87.0508 79.3799 87.0508Z" fill="white"/>
<path fill-rule="evenodd" clip-rule="evenodd" d="M100.727 91.6396C101.142 92.0113 101.187 92.6839 100.827 93.1414C100.468 93.5993 98.6733 94.742 98.448 94.5399C98.2228 94.3379 98.9648 92.2525 99.3244 91.795C99.6841 91.3371 100.312 91.2676 100.727 91.6396Z" fill="white"/>
<path fill-rule="evenodd" clip-rule="evenodd" d="M87.9615 97.5866C87.4268 97.8871 86.7354 97.695 86.4165 97.1576C86.098 96.6207 85.6512 94.3451 85.9416 94.1822C86.2319 94.0189 88.0334 95.5329 88.3523 96.0702C88.6709 96.6076 88.4962 97.2865 87.9615 97.5866Z" fill="white"/>
<path fill-rule="evenodd" clip-rule="evenodd" d="M59.9698 81.1211C60.6003 81.1211 61.1114 81.6268 61.1114 82.2508C61.1114 82.8747 60.3123 85.0752 59.9698 85.0752C59.6273 85.0752 58.8281 82.8747 58.8281 82.2508C58.8281 81.6268 59.3392 81.1211 59.9698 81.1211Z" fill="white"/>
<path fill-rule="evenodd" clip-rule="evenodd" d="M43.8355 89.7802C44.1934 89.3492 44.8405 89.3026 45.281 89.6762C45.7216 90.0499 46.8214 91.9142 46.6271 92.1483C46.4327 92.3824 44.4257 91.6113 43.9852 91.2377C43.5447 90.864 43.4777 90.2116 43.8355 89.7802Z" fill="white"/>
<path d="M61.6998 103.267C61.8303 103.355 61.8965 103.516 61.8668 103.674L61.6168 105.01C61.5769 105.224 61.3771 105.364 61.1708 105.323C61.1297 105.315 61.0905 105.299 61.054 105.278C58.6303 103.833 56.1462 102.712 53.6016 101.914C55.5245 101.779 56.9269 101.682 59.2102 101.682C60.0459 102.199 60.7769 102.647 61.6998 103.267Z" fill="#FFEBB8"/>
</g>
<defs>
<clipPath id="clip0_17_28559">
<rect width="136" height="136" fill="white"/>
</clipPath>
</defs>
</svg>
