<svg width="375" height="225" viewBox="0 0 375 225" fill="none" xmlns="http://www.w3.org/2000/svg">
<ellipse cx="187.5" cy="204.5" rx="62" ry="10" fill="#A0A09F" fill-opacity="0.15"/>
<path fill-rule="evenodd" clip-rule="evenodd" d="M234.519 40.3044V28.5895C234.519 20.2521 227.755 13.5 219.42 13.5H146.773C138.437 13.5 131.674 20.2522 131.674 28.5895V37.2671C130.943 38.1674 130.5 39.3164 130.5 40.5853V46.4442C130.5 47.7119 130.943 48.8615 131.674 49.7624V50.8976C130.943 51.7985 130.5 52.9481 130.5 54.2159V64.2965C130.5 65.5642 130.943 66.7138 131.674 67.6147V194.41C131.674 202.747 138.437 209.5 146.773 209.5H219.42C227.756 209.5 234.519 202.747 234.519 194.41V60.0216C235.469 59.0651 236.057 57.748 236.057 56.2938V44.032C236.057 42.5775 235.469 41.2607 234.519 40.3044ZM231.016 42.7647C230.934 42.7483 230.85 42.7398 230.763 42.7398C230.68 42.7398 230.598 42.7493 230.519 42.7647V28.5895C230.519 22.4646 225.549 17.5 219.42 17.5H146.773C140.643 17.5 135.674 22.4646 135.674 28.5895V39.3049C135.019 39.3673 134.5 39.9154 134.5 40.5853V46.4442C134.5 47.114 135.019 47.6628 135.674 47.7245V52.9355C135.019 52.9973 134.5 53.546 134.5 54.2159V64.2965C134.5 64.9663 135.019 65.515 135.674 65.5768V194.41C135.674 200.535 140.643 205.5 146.773 205.5H219.42C225.55 205.5 230.519 200.535 230.519 194.41V57.561C230.598 57.5765 230.68 57.586 230.763 57.586C230.85 57.586 230.934 57.5774 231.016 57.561C231.608 57.4428 232.057 56.9182 232.057 56.2938V44.032C232.057 43.4075 231.607 42.8829 231.016 42.7647Z" fill="white"/>
<rect x="141.969" y="35.5098" width="84.3364" height="107.178" rx="16" fill="white"/>
<path d="M162.24 54.5664H171.971C172.643 54.5664 173.187 55.111 173.187 55.7828V65.5137C173.187 66.1855 172.643 66.7301 171.971 66.7301H162.24C161.568 66.7301 161.023 66.1855 161.023 65.5137V55.7828C161.023 55.111 161.568 54.5664 162.24 54.5664Z" fill="#292929"/>
<path d="M196.298 54.5664H206.029C206.701 54.5664 207.246 55.111 207.246 55.7828V65.5137C207.246 66.1855 206.701 66.7301 206.029 66.7301H196.298C195.627 66.7301 195.082 66.1855 195.082 65.5137V55.7828C195.082 55.111 195.627 54.5664 196.298 54.5664Z" fill="#292929"/>
<path d="M162.24 88.623H171.971C172.643 88.623 173.187 89.1676 173.187 89.8394V99.5704C173.187 100.242 172.643 100.787 171.971 100.787H162.24C161.568 100.787 161.023 100.242 161.023 99.5704V89.8394C161.023 89.1676 161.568 88.623 162.24 88.623Z" fill="#292929"/>
<path d="M195.081 80.1094C195.753 80.1094 196.297 80.654 196.297 81.3257V88.624H206.028V81.3257C206.028 80.654 206.573 80.1094 207.245 80.1094H214.543C215.215 80.1094 215.759 80.654 215.759 81.3257V88.624C215.759 89.2957 215.215 89.8403 214.543 89.8403H207.245V99.5713H214.543C215.215 99.5713 215.759 100.116 215.759 100.788V108.086C215.759 108.758 215.215 109.302 214.543 109.302H207.245C206.573 109.302 206.028 108.758 206.028 108.086V100.788H196.297V108.086C196.297 108.758 195.753 109.302 195.081 109.302H187.783C187.111 109.302 186.566 108.758 186.566 108.086V100.788C186.566 100.116 187.111 99.5713 187.783 99.5713H195.081V89.8403H187.783C187.111 89.8403 186.566 89.2957 186.566 88.624V81.3257C186.566 80.654 187.111 80.1094 187.783 80.1094H195.081Z" fill="#292929"/>
<path d="M176.835 80.1094C179.522 80.1094 181.7 82.2876 181.7 84.9746V104.437C181.7 107.124 179.522 109.302 176.835 109.302H157.373C154.686 109.302 152.508 107.124 152.508 104.437V84.9746C152.508 82.2877 154.686 80.1095 157.373 80.1094H176.835ZM157.373 83.7578C156.701 83.7578 156.156 84.3028 156.156 84.9746V104.437C156.156 105.108 156.701 105.653 157.373 105.653H176.835C177.507 105.653 178.051 105.108 178.051 104.437V84.9746C178.051 84.3029 177.507 83.7579 176.835 83.7578H157.373Z" fill="#292929"/>
<path d="M176.835 46.0508C179.522 46.0508 181.7 48.229 181.7 50.916V70.3779C181.7 73.0651 179.522 75.2432 176.835 75.2432H157.373C154.686 75.243 152.508 73.065 152.508 70.3779V50.916C152.508 48.2291 154.686 46.0509 157.373 46.0508H176.835ZM157.373 49.7002C156.701 49.7002 156.156 50.2452 156.156 50.917V70.3789C156.157 71.0505 156.701 71.5947 157.373 71.5947H176.835C177.507 71.5947 178.051 71.0504 178.051 70.3789V50.917C178.051 50.2452 177.507 49.7002 176.835 49.7002H157.373Z" fill="#292929"/>
<path d="M210.894 46.0508C213.581 46.0508 215.759 48.229 215.759 50.916V70.3779C215.759 73.0651 213.581 75.2432 210.894 75.2432H191.432C188.745 75.243 186.566 73.065 186.566 70.3779V50.916C186.567 48.2291 188.745 46.0509 191.432 46.0508H210.894ZM191.432 49.7002C190.76 49.7004 190.216 50.2444 190.216 50.916V70.3779C190.216 71.0496 190.76 71.5945 191.432 71.5947H210.894C211.565 71.5947 212.11 71.0497 212.11 70.3779V50.916C212.11 50.2443 211.565 49.7002 210.894 49.7002H191.432Z" fill="#292929"/>
<path d="M230.763 42.7398C230.68 42.7398 230.598 42.7493 230.519 42.7647V28.5895C230.519 22.4646 225.549 17.5 219.42 17.5H146.773C140.643 17.5 135.674 22.4646 135.674 28.5895V39.3049C135.019 39.3673 134.5 39.9154 134.5 40.5853V46.4442C134.5 47.114 135.019 47.6628 135.674 47.7245V52.9355C135.019 52.9973 134.5 53.546 134.5 54.2159V64.2965C134.5 64.9663 135.019 65.515 135.674 65.5768V194.41C135.674 200.535 140.643 205.5 146.773 205.5H219.42C225.55 205.5 230.519 200.535 230.519 194.41V57.561C230.598 57.5765 230.68 57.586 230.763 57.586C231.475 57.586 232.057 57.0046 232.057 56.2938V44.032C232.057 43.3211 231.474 42.7398 230.763 42.7398Z" fill="#292929"/>
<path d="M188.14 24.5336H178.051C177.34 24.5336 176.758 23.9523 176.758 23.2414C176.758 22.5306 177.34 21.9492 178.051 21.9492H188.14C188.852 21.9492 189.434 22.5306 189.434 23.2414C189.434 23.9517 188.852 24.5336 188.14 24.5336Z" fill="white"/>
<path d="M223.607 188.904C223.607 192.234 220.905 194.933 217.573 194.933H148.616C145.283 194.933 142.582 192.233 142.582 188.904V34.0717C142.582 30.742 145.283 28.043 148.616 28.043H217.573C220.906 28.043 223.607 30.742 223.607 34.0717V188.904H223.607Z" fill="white"/>
<rect x="153.5" y="59.5" width="59" height="58" rx="2" fill="white"/>
<path d="M166.192 70.2305H173.884C174.415 70.2305 174.846 70.661 174.846 71.192V78.8841C174.846 79.4152 174.415 79.8457 173.884 79.8457H166.192C165.661 79.8457 165.23 79.4152 165.23 78.8841V71.192C165.23 70.661 165.661 70.2305 166.192 70.2305Z" fill="#292929"/>
<path d="M193.114 70.2305H200.806C201.337 70.2305 201.768 70.661 201.768 71.192V78.8841C201.768 79.4152 201.337 79.8457 200.806 79.8457H193.114C192.583 79.8457 192.152 79.4152 192.152 78.8841V71.192C192.152 70.661 192.583 70.2305 193.114 70.2305Z" fill="#292929"/>
<path d="M166.192 97.1523H173.884C174.415 97.1523 174.846 97.5828 174.846 98.1139V105.806C174.846 106.337 174.415 106.768 173.884 106.768H166.192C165.661 106.768 165.23 106.337 165.23 105.806V98.1139C165.23 97.5828 165.661 97.1523 166.192 97.1523Z" fill="#292929"/>
<path d="M192.153 90.4219C192.684 90.4219 193.114 90.8524 193.114 91.3834V97.1525H200.806V91.3834C200.806 90.8524 201.237 90.4219 201.768 90.4219H207.537C208.068 90.4219 208.498 90.8524 208.498 91.3834V97.1525C208.498 97.6835 208.068 98.114 207.537 98.114H201.768V105.806H207.537C208.068 105.806 208.498 106.237 208.498 106.768V112.537C208.498 113.068 208.068 113.498 207.537 113.498H201.768C201.237 113.498 200.806 113.068 200.806 112.537V106.768H193.114V112.537C193.114 113.068 192.684 113.498 192.153 113.498H186.383C185.852 113.498 185.422 113.068 185.422 112.537V106.768C185.422 106.237 185.852 105.806 186.383 105.806H192.153V98.114H186.383C185.852 98.114 185.422 97.6835 185.422 97.1525V91.3834C185.422 90.8524 185.852 90.4219 186.383 90.4219H192.153Z" fill="#292929"/>
<path d="M177.73 90.4219C179.854 90.4219 181.576 92.1436 181.576 94.2676V109.652C181.576 111.776 179.855 113.498 177.73 113.498H162.346C160.222 113.498 158.5 111.776 158.5 109.652V94.2676C158.5 92.1437 160.222 90.4221 162.346 90.4219H177.73ZM162.346 93.3066C161.815 93.3066 161.384 93.7366 161.384 94.2676V109.652C161.384 110.183 161.815 110.613 162.346 110.613H177.729C178.26 110.613 178.691 110.183 178.691 109.652V94.2676C178.691 93.7366 178.26 93.3066 177.729 93.3066H162.346Z" fill="#292929"/>
<path d="M177.73 63.5C179.854 63.5 181.576 65.2218 181.576 67.3457V82.7305C181.576 84.8545 179.855 86.5761 177.73 86.5762H162.346C160.222 86.576 158.5 84.8544 158.5 82.7305V67.3457C158.5 65.2219 160.222 63.5002 162.346 63.5H177.73ZM162.346 66.3848C161.815 66.3848 161.384 66.8148 161.384 67.3457V82.7305C161.384 83.2614 161.815 83.6914 162.346 83.6914H177.729C178.26 83.6914 178.691 83.2614 178.691 82.7305V67.3457C178.691 66.8148 178.26 66.3848 177.729 66.3848H162.346Z" fill="#292929"/>
<path d="M204.652 63.5C206.776 63.5 208.498 65.2218 208.498 67.3457V82.7305C208.498 84.8545 206.776 86.5761 204.652 86.5762H189.268C187.144 86.576 185.422 84.8544 185.422 82.7305V67.3457C185.422 65.2219 187.144 63.5002 189.268 63.5H204.652ZM189.269 66.3848C188.738 66.3848 188.307 66.8148 188.307 67.3457V82.7305C188.307 83.2614 188.738 83.6914 189.269 83.6914H204.652C205.183 83.6914 205.614 83.2614 205.614 82.7305V67.3457C205.614 66.8148 205.183 66.3848 204.652 66.3848H189.269Z" fill="#292929"/>
<path d="M156.965 134.708L157.884 126.5H160.027L161.742 131.657L163.47 126.5H165.613L166.532 134.708H164.339L163.862 129.697L162.404 134.107H161.044L159.574 129.648L159.084 134.708H156.965Z" fill="#292929"/>
<path d="M175.285 130.604C175.285 132.053 174.11 133.229 172.66 133.229C171.21 133.229 170.035 132.053 170.035 130.604C170.035 129.154 171.21 127.979 172.66 127.979C174.11 127.979 175.285 129.154 175.285 130.604Z" fill="#292929"/>
<path d="M182.285 130.604C182.285 132.053 181.11 133.229 179.66 133.229C178.21 133.229 177.035 132.053 177.035 130.604C177.035 129.154 178.21 127.979 179.66 127.979C181.11 127.979 182.285 129.154 182.285 130.604Z" fill="#292929"/>
<path d="M189.285 130.604C189.285 132.053 188.11 133.229 186.66 133.229C185.21 133.229 184.035 132.053 184.035 130.604C184.035 129.154 185.21 127.979 186.66 127.979C188.11 127.979 189.285 129.154 189.285 130.604Z" fill="#292929"/>
<path d="M198.035 130.604C198.035 132.053 196.86 133.229 195.41 133.229C193.96 133.229 192.785 132.053 192.785 130.604C192.785 129.154 193.96 127.979 195.41 127.979C196.86 127.979 198.035 129.154 198.035 130.604Z" fill="#292929"/>
<path d="M205.035 130.604C205.035 132.053 203.86 133.229 202.41 133.229C200.96 133.229 199.785 132.053 199.785 130.604C199.785 129.154 200.96 127.979 202.41 127.979C203.86 127.979 205.035 129.154 205.035 130.604Z" fill="#292929"/>
<path d="M212.035 130.604C212.035 132.053 210.86 133.229 209.41 133.229C207.96 133.229 206.785 132.053 206.785 130.604C206.785 129.154 207.96 127.979 209.41 127.979C210.86 127.979 212.035 129.154 212.035 130.604Z" fill="#292929"/>
<path fill-rule="evenodd" clip-rule="evenodd" d="M186.821 35.5716C188.301 35.5716 189.499 41.8077 189.499 49.5H191.643C191.643 41.2154 189.484 34.5 186.821 34.5C185.306 34.5 183.955 36.5187 183.071 39.6745C182.188 36.5187 180.836 34.5 179.321 34.5C176.66 34.5 174.5 41.2154 174.5 49.5H176.644C176.644 41.8077 177.843 35.5716 179.321 35.5716C180.801 35.5716 182 41.3279 182 48.4284H184.143C184.143 41.3279 185.342 35.5716 186.821 35.5716Z" fill="#FFBC0D"/>
<path d="M187 147.111C218.756 147.111 244.5 141.833 244.5 131.806C244.5 121.778 218.756 116.5 187 116.5C155.244 116.5 129.5 122.306 129.5 134.972C129.5 144.472 148.318 153.444 191.705 154.5" stroke="#DB0007" stroke-width="6"/>
</svg>
