<svg width="375" height="225" viewBox="0 0 375 225" fill="none" xmlns="http://www.w3.org/2000/svg">
<path d="M246.981 49.6439C249.273 49.2191 251.475 50.733 251.9 53.0248L261.846 106.69L251.468 112.647C249.645 113.694 248.52 115.638 248.529 117.745L248.584 129.465L204.123 154.986L203.828 157.226L100.487 176.381C98.1955 176.805 95.9937 175.292 95.5689 173L79.2622 85.0215C78.8376 82.7297 80.3514 80.5272 82.6431 80.1023L246.981 49.6439Z" fill="#EAEAEA"/>
<path fill-rule="evenodd" clip-rule="evenodd" d="M251.9 53.0256L253.16 59.8262L180.928 132.509C179.702 133.743 177.845 134.098 176.25 133.404L80.5058 91.7316L79.2628 85.022C78.8381 82.73 80.3517 80.5277 82.6436 80.1029L246.981 49.6448C249.273 49.22 251.475 50.7336 251.9 53.0256Z" fill="#A0A09F" fill-opacity="0.15"/>
<path fill-rule="evenodd" clip-rule="evenodd" d="M82.5257 80.1239L247.095 49.6229C249.387 49.1981 251.589 50.7117 252.014 53.0037C252.266 54.3639 251.835 55.7613 250.862 56.7439L180.042 128.199C178.815 129.438 176.953 129.794 175.355 129.096L81.6053 88.1415C79.4692 87.2084 78.494 84.7203 79.4272 82.5843C79.9878 81.3009 81.1486 80.3792 82.5257 80.1239Z" fill="#F1F1F1"/>
<ellipse cx="179.685" cy="122.582" rx="21.9472" ry="21.9472" transform="rotate(-10.5 179.685 122.582)" fill="#A0A09F" fill-opacity="0.15"/>
<path fill-rule="evenodd" clip-rule="evenodd" d="M175.409 143.599C163.295 143.281 153.732 133.204 154.05 121.09C154.367 108.977 164.444 99.4139 176.558 99.7311C188.671 100.048 198.234 110.126 197.917 122.239C197.6 134.353 187.523 143.916 175.409 143.599Z" fill="#DB0007"/>
<path fill-rule="evenodd" clip-rule="evenodd" d="M181.461 111.904C183.652 111.961 185.186 121.247 184.888 132.645L188.064 132.728C188.385 120.453 185.447 110.419 181.502 110.316C179.258 110.257 177.177 113.196 175.745 117.837C174.559 113.127 172.635 110.084 170.39 110.025C166.446 109.922 162.986 119.788 162.664 132.063L165.84 132.146C166.139 120.749 168.158 111.555 170.348 111.613C172.54 111.67 174.094 120.245 173.818 130.766L176.993 130.849C177.269 120.329 179.269 111.846 181.461 111.904Z" fill="#FFBC0D"/>
<ellipse cx="194.908" cy="204.45" rx="82.2126" ry="10.1117" fill="#A0A09F" fill-opacity="0.15"/>
<path fill-rule="evenodd" clip-rule="evenodd" d="M274.372 103.381C275.262 102.87 276.36 102.873 277.249 103.389L298.625 115.791C299.504 116.301 300.046 117.236 300.051 118.248L300.166 142.853C300.171 143.876 299.625 144.823 298.734 145.334L277.513 157.516C276.622 158.027 275.524 158.024 274.635 157.508L262.275 150.336L258.591 157.043L246.73 156.764L241.042 167.116L229.181 166.837L223.494 177.189L205 173.084L207.093 157.162L251.781 131.511L251.718 118.044C251.713 117.021 252.26 116.074 253.15 115.563L274.372 103.381ZM282.987 120.588C280.598 121.959 279.792 125.017 281.186 127.418C282.58 129.819 285.647 130.654 288.036 129.282C290.425 127.911 291.232 124.853 289.838 122.452C288.443 120.051 285.376 119.216 282.987 120.588ZM212.489 159.288C211.929 159.607 211.752 160.343 212.091 160.931C212.431 161.518 213.16 161.736 213.719 161.417L253.053 138.948C253.612 138.628 253.79 137.893 253.45 137.305C253.111 136.717 252.382 136.5 251.822 136.819L212.489 159.288Z" fill="#FFBC0D"/>
<mask id="path-9-outside-1_17_28590" maskUnits="userSpaceOnUse" x="75.1953" y="45.5742" width="228" height="136" fill="black">
<rect fill="white" x="75.1953" y="45.5742" width="228" height="136"/>
<path d="M274.372 103.382C275.262 102.871 276.361 102.874 277.25 103.39L298.625 115.792C299.504 116.302 300.047 117.236 300.052 118.248L300.167 142.854C300.172 143.877 299.625 144.824 298.735 145.335L277.514 157.517C276.623 158.028 275.525 158.025 274.636 157.509L262.275 150.337L258.591 157.044L246.73 156.765L241.043 167.117L229.182 166.838L223.494 177.189L205 173.085L207.094 157.163L251.781 131.512L251.719 118.045C251.714 117.021 252.26 116.075 253.15 115.563L274.372 103.382ZM246.984 49.6455C249.276 49.2207 251.479 50.7346 251.904 53.0264L261.85 106.69L251.472 112.648C249.649 113.695 248.523 115.639 248.533 117.746L248.588 129.466L204.127 154.986L203.832 157.228L100.491 176.382C98.1996 176.806 95.9983 175.293 95.5732 173.002L79.2666 85.0225C78.8421 82.7308 80.3558 80.5284 82.6475 80.1035L246.984 49.6455ZM253.451 137.306C253.111 136.718 252.382 136.501 251.823 136.82L212.489 159.289C211.93 159.609 211.752 160.344 212.092 160.932C212.432 161.519 213.161 161.736 213.72 161.417L253.054 138.948C253.613 138.629 253.791 137.893 253.451 137.306ZM289.838 122.453C288.444 120.052 285.376 119.218 282.987 120.589C280.599 121.96 279.792 125.018 281.187 127.419C282.581 129.82 285.648 130.655 288.037 129.283C290.426 127.912 291.232 124.854 289.838 122.453Z"/>
</mask>
<path d="M274.372 103.382L272.879 100.78L272.879 100.78L274.372 103.382ZM277.25 103.39L278.756 100.795L278.755 100.795L277.25 103.39ZM298.625 115.792L297.119 118.387H297.119L298.625 115.792ZM300.052 118.248L303.052 118.234V118.234L300.052 118.248ZM300.167 142.854L297.167 142.868V142.868L300.167 142.854ZM298.735 145.335L300.229 147.937L300.229 147.936L298.735 145.335ZM277.514 157.517L279.007 160.118L279.007 160.118L277.514 157.517ZM274.636 157.509L273.13 160.104L273.13 160.104L274.636 157.509ZM262.275 150.337L263.781 147.742L261.125 146.201L259.646 148.892L262.275 150.337ZM258.591 157.044L258.52 160.043L260.343 160.086L261.22 158.488L258.591 157.044ZM246.73 156.765L246.801 153.765L244.979 153.723L244.101 155.32L246.73 156.765ZM241.043 167.117L240.972 170.116L242.795 170.159L243.672 168.562L241.043 167.117ZM229.182 166.838L229.252 163.839L227.43 163.796L226.552 165.393L229.182 166.838ZM223.494 177.189L222.844 180.118L225.04 180.606L226.123 178.634L223.494 177.189ZM205 173.085L202.026 172.694L201.667 175.418L204.35 176.014L205 173.085ZM207.094 157.163L205.6 154.561L204.313 155.3L204.119 156.772L207.094 157.163ZM251.781 131.512L253.275 134.114L254.789 133.244L254.781 131.498L251.781 131.512ZM251.719 118.045L248.719 118.059V118.059L251.719 118.045ZM253.15 115.563L251.657 112.962L251.657 112.962L253.15 115.563ZM246.984 49.6455L247.531 52.5953V52.5953L246.984 49.6455ZM251.904 53.0264L254.854 52.4797L254.854 52.4794L251.904 53.0264ZM261.85 106.69L263.343 109.292L265.187 108.234L264.799 106.144L261.85 106.69ZM251.472 112.648L249.978 110.047V110.047L251.472 112.648ZM248.533 117.746L251.533 117.732V117.732L248.533 117.746ZM248.588 129.466L250.081 132.068L251.596 131.198L251.588 129.452L248.588 129.466ZM204.127 154.986L202.633 152.384L201.346 153.123L201.153 154.595L204.127 154.986ZM203.832 157.228L204.379 160.177L206.522 159.78L206.806 157.619L203.832 157.228ZM100.491 176.382L101.038 179.332L101.038 179.332L100.491 176.382ZM95.5732 173.002L92.6235 173.549L92.6236 173.549L95.5732 173.002ZM79.2666 85.0225L76.3168 85.5689L76.3168 85.5692L79.2666 85.0225ZM82.6475 80.1035L82.1008 77.1538L82.1006 77.1538L82.6475 80.1035ZM253.451 137.306L256.048 135.804L256.048 135.804L253.451 137.306ZM251.823 136.82L250.335 134.215L250.335 134.215L251.823 136.82ZM212.489 159.289L211.001 156.684L211.001 156.684L212.489 159.289ZM212.092 160.932L209.495 162.433L209.495 162.433L212.092 160.932ZM213.72 161.417L212.232 158.812L212.232 158.812L213.72 161.417ZM253.054 138.948L254.542 141.553L254.542 141.553L253.054 138.948ZM289.838 122.453L292.432 120.947L292.432 120.947L289.838 122.453ZM282.987 120.589L281.494 117.987L281.494 117.987L282.987 120.589ZM281.187 127.419L278.592 128.925L278.592 128.925L281.187 127.419ZM288.037 129.283L289.531 131.885L289.531 131.885L288.037 129.283ZM274.372 103.382L275.866 105.984C275.825 106.007 275.78 106.005 275.745 105.985L277.25 103.39L278.755 100.795C276.941 99.7421 274.7 99.7347 272.879 100.78L274.372 103.382ZM277.25 103.39L275.744 105.984L297.119 118.387L298.625 115.792L300.131 113.197L278.756 100.795L277.25 103.39ZM298.625 115.792L297.119 118.387C297.083 118.366 297.052 118.321 297.052 118.263L300.052 118.248L303.052 118.234C303.042 116.151 301.925 114.238 300.131 113.197L298.625 115.792ZM300.052 118.248L297.052 118.262L297.167 142.868L300.167 142.854L303.167 142.839L303.052 118.234L300.052 118.248ZM300.167 142.854L297.167 142.868C297.167 142.808 297.199 142.758 297.241 142.733L298.735 145.335L300.229 147.936C302.052 146.89 303.177 144.946 303.167 142.839L300.167 142.854ZM298.735 145.335L297.242 142.733L276.02 154.915L277.514 157.517L279.007 160.118L300.229 147.937L298.735 145.335ZM277.514 157.517L276.02 154.915C276.061 154.892 276.105 154.893 276.141 154.914L274.636 157.509L273.13 160.104C274.945 161.156 277.186 161.164 279.007 160.118L277.514 157.517ZM274.636 157.509L276.141 154.914L263.781 147.742L262.275 150.337L260.77 152.932L273.13 160.104L274.636 157.509ZM262.275 150.337L259.646 148.892L255.961 155.599L258.591 157.044L261.22 158.488L264.905 151.781L262.275 150.337ZM258.591 157.044L258.661 154.045L246.801 153.765L246.73 156.765L246.66 159.764L258.52 160.043L258.591 157.044ZM246.73 156.765L244.101 155.32L238.414 165.673L241.043 167.117L243.672 168.562L249.36 158.209L246.73 156.765ZM241.043 167.117L241.114 164.118L229.252 163.839L229.182 166.838L229.111 169.837L240.972 170.116L241.043 167.117ZM229.182 166.838L226.552 165.393L220.865 175.745L223.494 177.189L226.123 178.634L231.811 168.283L229.182 166.838ZM223.494 177.189L224.144 174.261L205.65 170.156L205 173.085L204.35 176.014L222.844 180.118L223.494 177.189ZM205 173.085L207.974 173.476L210.068 157.554L207.094 157.163L204.119 156.772L202.026 172.694L205 173.085ZM207.094 157.163L208.587 159.765L253.275 134.114L251.781 131.512L250.288 128.91L205.6 154.561L207.094 157.163ZM251.781 131.512L254.781 131.498L254.719 118.031L251.719 118.045L248.719 118.059L248.781 131.526L251.781 131.512ZM251.719 118.045L254.719 118.031C254.719 118.09 254.687 118.141 254.644 118.165L253.15 115.563L251.657 112.962C249.833 114.009 248.709 115.953 248.719 118.059L251.719 118.045ZM253.15 115.563L254.644 118.165L275.866 105.984L274.372 103.382L272.879 100.78L251.657 112.962L253.15 115.563ZM246.984 49.6455L247.531 52.5953C248.194 52.4724 248.832 52.9108 248.955 53.5733L251.904 53.0264L254.854 52.4794C254.127 48.5585 250.358 45.9691 246.438 46.6957L246.984 49.6455ZM251.904 53.0264L248.955 53.573L258.9 107.237L261.85 106.69L264.799 106.144L254.854 52.4797L251.904 53.0264ZM261.85 106.69L260.356 104.089L249.978 110.047L251.472 112.648L252.965 115.25L263.343 109.292L261.85 106.69ZM251.472 112.648L249.978 110.047C247.223 111.629 245.518 114.569 245.533 117.76L248.533 117.746L251.533 117.732C251.528 116.709 252.075 115.761 252.965 115.25L251.472 112.648ZM248.533 117.746L245.533 117.76L245.588 129.48L248.588 129.466L251.588 129.452L251.533 117.732L248.533 117.746ZM248.588 129.466L247.094 126.864L202.633 152.384L204.127 154.986L205.62 157.588L250.081 132.068L248.588 129.466ZM204.127 154.986L201.153 154.595L200.858 156.836L203.832 157.228L206.806 157.619L207.101 155.378L204.127 154.986ZM203.832 157.228L203.285 154.278L99.9445 173.432L100.491 176.382L101.038 179.332L204.379 160.177L203.832 157.228ZM100.491 176.382L99.9448 173.432C99.2821 173.555 98.6458 173.118 98.5229 172.455L95.5732 173.002L92.6236 173.549C93.3507 177.469 97.1172 180.058 101.038 179.332L100.491 176.382ZM95.5732 173.002L98.523 172.455L82.2164 84.4757L79.2666 85.0225L76.3168 85.5692L92.6235 173.549L95.5732 173.002ZM79.2666 85.0225L82.2164 84.476C82.0937 83.8133 82.5316 83.1761 83.1944 83.0532L82.6475 80.1035L82.1006 77.1538C78.18 77.8807 75.5905 81.6482 76.3168 85.5689L79.2666 85.0225ZM82.6475 80.1035L83.1942 83.0533L247.531 52.5953L246.984 49.6455L246.438 46.6957L82.1008 77.1538L82.6475 80.1035ZM253.451 137.306L256.048 135.804C254.956 133.915 252.453 133.006 250.335 134.215L251.823 136.82L253.311 139.425C252.312 139.996 251.267 139.521 250.854 138.807L253.451 137.306ZM251.823 136.82L250.335 134.215L211.001 156.684L212.489 159.289L213.977 161.894L253.311 139.425L251.823 136.82ZM212.489 159.289L211.001 156.684C208.87 157.901 208.398 160.537 209.495 162.433L212.092 160.932L214.689 159.43C215.106 160.151 214.99 161.316 213.977 161.894L212.489 159.289ZM212.092 160.932L209.495 162.433C210.587 164.322 213.09 165.232 215.208 164.022L213.72 161.417L212.232 158.812C213.231 158.241 214.276 158.717 214.689 159.43L212.092 160.932ZM213.72 161.417L215.208 164.022L254.542 141.553L253.054 138.948L251.566 136.343L212.232 158.812L213.72 161.417ZM253.054 138.948L254.542 141.553C256.672 140.336 257.145 137.701 256.048 135.804L253.451 137.306L250.854 138.807C250.437 138.086 250.553 136.922 251.565 136.344L253.054 138.948ZM289.838 122.453L292.432 120.947C290.22 117.137 285.334 115.783 281.494 117.987L282.987 120.589L284.481 123.191C285.419 122.652 286.667 122.967 287.244 123.96L289.838 122.453ZM282.987 120.589L281.494 117.987C277.644 120.198 276.374 125.106 278.592 128.925L281.187 127.419L283.781 125.912C283.21 124.93 283.554 123.723 284.481 123.191L282.987 120.589ZM281.187 127.419L278.592 128.925C280.805 132.735 285.691 134.089 289.531 131.885L288.037 129.283L286.544 126.681C285.605 127.22 284.357 126.905 283.781 125.912L281.187 127.419ZM288.037 129.283L289.531 131.885C293.381 129.674 294.65 124.766 292.432 120.947L289.838 122.453L287.244 123.96C287.814 124.942 287.471 126.149 286.543 126.681L288.037 129.283Z" fill="white" mask="url(#path-9-outside-1_17_28590)"/>
</svg>
