<svg width="27" height="18" viewBox="0 0 27 18" fill="none" xmlns="http://www.w3.org/2000/svg">
<g clip-path="url(#clip0_109_43801)">
<path d="M0 0H27V18H0V0Z" fill="#C60A0A"/>
<path d="M13.501 9.00338L2.34766 15.6538V2.34766L13.501 9.00338Z" fill="#3E8446"/>
<path d="M13.501 9.00338L24.6543 15.6538H2.34766L13.501 9.00338ZM24.6543 2.34766L13.501 9.00338L2.34766 2.34766H24.6543Z" fill="#FFDA44"/>
<path d="M24.6533 2.34766V15.6538L13.5 9.00338L24.6533 2.34766Z" fill="#3E8446"/>
<path d="M13.4986 0.546875L13.6727 1.08482H14.2369L13.7834 1.41708L13.9574 1.95502L13.4986 1.62276L13.0398 1.95502L13.2139 1.41708L12.7604 1.08482H13.3246L13.4986 0.546875ZM8.96875 0.546875L9.14277 1.08482H9.70703L9.25352 1.41708L9.42754 1.95502L8.96875 1.62276L8.50996 1.95502L8.68398 1.41708L8.23047 1.08482H8.79473L8.96875 0.546875ZM18.0285 0.546875L18.2025 1.08482H18.7721L18.3133 1.41708L18.4873 1.95502L18.0285 1.62276L17.5697 1.95502L17.7437 1.41708L17.2902 1.08482H17.8545L18.0285 0.546875ZM13.4986 16.0418L13.6727 16.5797H14.2369L13.7834 16.912L13.9574 17.4499L13.4986 17.1176L13.0398 17.4499L13.2139 16.912L12.7604 16.5797H13.3246L13.4986 16.0418ZM8.96875 16.0418L9.14277 16.5797H9.70703L9.25352 16.912L9.42754 17.4499L8.96875 17.1176L8.50996 17.4499L8.68398 16.912L8.23047 16.5797H8.79473L8.96875 16.0418ZM18.0285 16.0418L18.2025 16.5797H18.7721L18.3133 16.912L18.4873 17.4499L18.0285 17.1176L17.5697 17.4499L17.7437 16.912L17.2902 16.5797H17.8545L18.0285 16.0418Z" fill="#FFDA44"/>
<path d="M12.8934 13.0219C15.1126 13.0219 16.9117 11.2226 16.9117 9.00313C16.9117 6.78363 15.1126 4.98438 12.8934 4.98438C10.6741 4.98438 8.875 6.78363 8.875 9.00313C8.875 11.2226 10.6741 13.0219 12.8934 13.0219Z" fill="#C60A0A"/>
<path d="M12.8952 5.80469L13.6124 8.0092H15.9327L14.0554 9.36988L14.7726 11.5744L12.8952 10.2137L11.0232 11.5744L11.7403 9.36988L9.863 8.0092H12.1833L12.8952 5.80469ZM5.68116 8.84776C5.91319 9.21166 5.80245 9.69686 5.43858 9.92892C5.07471 10.161 4.58955 10.0502 4.35752 9.68632C3.94092 9.02707 4.1835 7.94591 4.1835 7.94591C4.1835 7.94591 5.25928 8.18851 5.68116 8.84776Z" fill="#FFDA44"/>
<path d="M5.22617 9.99539C5.44169 9.99539 5.61641 9.82066 5.61641 9.60512C5.61641 9.38958 5.44169 9.21484 5.22617 9.21484C5.01065 9.21484 4.83594 9.38958 4.83594 9.60512C4.83594 9.82066 5.01065 9.99539 5.22617 9.99539Z" fill="#A2001D"/>
</g>
<rect x="0.5" y="0.5" width="26" height="17" rx="0.5" stroke="black" stroke-opacity="0.2"/>
<defs>
<clipPath id="clip0_109_43801">
<rect width="27" height="18" rx="1" fill="white"/>
</clipPath>
</defs>
</svg>
