<svg width="153" height="98" viewBox="0 0 153 98" fill="none" xmlns="http://www.w3.org/2000/svg">
<g clip-path="url(#clip0_1590_46578)">
<path d="M120.872 19C114.863 19 109.503 26.9402 105.997 39.3561C102.492 26.9402 97.1257 19 91.1166 19C80.5529 19 71.9883 45.4176 71.9883 78H80.4891C80.4891 47.7445 85.2466 23.2114 91.1166 23.2114C96.9866 23.2114 101.744 45.8542 101.744 73.7828H110.245C110.245 45.8542 115.002 23.2114 120.872 23.2114C126.742 23.2114 131.5 47.7387 131.5 78H140.001C140.001 45.4176 131.436 19 120.872 19Z" fill="#FFBC0D"/>
<path d="M14 62.1256L17.1755 33.9844H24.5869L30.5149 51.6689L36.4892 33.9844H43.9007L47.0762 62.1256H39.5025L37.851 44.9467L32.8096 60.0687H28.1101L23.0281 44.7801L21.3361 62.1256H14ZM48.7334 70.4392L50.2169 66.0727C51.0919 66.4347 51.9553 66.6185 52.8013 66.6185C53.4503 66.6185 54.0356 66.4232 54.5571 66.0325C55.0786 65.6418 55.606 64.8432 56.1449 63.6366L56.9503 61.7866L48.6929 40.9536H56.1507L60.2185 54.3118L64.1589 40.9536H71.1474L62.0786 63.9296C61.0646 66.5036 59.8767 68.4111 58.5207 69.6406C57.1647 70.8701 55.5248 71.4907 53.6068 71.4907C52.6159 71.4907 51.7119 71.3987 50.8949 71.2149C50.0778 71.0368 49.3535 70.7782 48.7334 70.4392Z" fill="url(#paint0_linear_1590_46578)"/>
</g>
<defs>
<linearGradient id="paint0_linear_1590_46578" x1="14" y1="52.7375" x2="71.1439" y2="52.7375" gradientUnits="userSpaceOnUse">
<stop offset="0.000616698" stop-color="#910063"/>
<stop offset="0.0362" stop-color="#990059"/>
<stop offset="0.1727" stop-color="#B60035"/>
<stop offset="0.3012" stop-color="#CA001C"/>
<stop offset="0.4172" stop-color="#D7000C"/>
<stop offset="0.5101" stop-color="#DB0007"/>
<stop offset="1" stop-color="#E8720A"/>
</linearGradient>
<clipPath id="clip0_1590_46578">
<rect width="126" height="59" fill="white" transform="translate(14 19)"/>
</clipPath>
</defs>
</svg>
