<svg width="136" height="136" viewBox="0 0 136 136" fill="none" xmlns="http://www.w3.org/2000/svg">
<path d="M123.14 114.086C123.14 116.563 98.846 118.572 68.8784 118.572C38.9107 118.572 14.6172 116.563 14.6172 114.086C14.6172 111.608 38.9107 109.6 68.8784 109.6C98.846 109.6 123.14 111.608 123.14 114.086Z" fill="#A0A09F" fill-opacity="0.15"/>
<path fill-rule="evenodd" clip-rule="evenodd" d="M47.5171 31.8418L47.517 71.1491H17.6094V31.8418H47.5171Z" fill="white"/>
<path fill-rule="evenodd" clip-rule="evenodd" d="M61.187 101.91C61.187 109.697 54.8745 116.009 47.0876 116.009C39.3008 116.009 32.9883 109.697 32.9883 101.91C32.9883 94.123 39.3008 87.8105 47.0876 87.8105C54.8745 87.8105 61.187 94.123 61.187 101.91Z" fill="white"/>
<path fill-rule="evenodd" clip-rule="evenodd" d="M111.605 101.91C111.605 109.697 105.292 116.009 97.5056 116.009C89.7187 116.009 83.4062 109.697 83.4062 101.91C83.4062 94.123 89.7187 87.8105 97.5056 87.8105C105.292 87.8105 111.605 94.123 111.605 101.91Z" fill="white"/>
<path fill-rule="evenodd" clip-rule="evenodd" d="M63.3406 24.1546C63.0872 20.5345 65.8099 17.3145 69.4289 17.3145H76.9026L76.2028 27.314C76.1787 30.8738 73.4226 33.8704 69.882 33.8704C66.342 33.8704 63.5861 30.8737 63.5619 27.3141L63.3406 24.1546Z" fill="white"/>
<path fill-rule="evenodd" clip-rule="evenodd" d="M61.8348 85.5762C61.684 88.31 62.3591 89.8282 63.2852 90.8718C64.1857 91.8865 65.386 92.5493 66.839 93.3517C66.9972 93.4391 67.1584 93.5281 67.3225 93.6194C69.731 88.2499 70.8034 84.3184 70.7756 81.4487C70.7579 79.6221 70.2939 78.2937 69.4981 77.2827C68.8276 76.431 67.8568 75.7222 66.5264 75.1482C65.6528 76.3456 64.64 77.9356 63.7755 79.6331C62.7017 81.7414 61.9288 83.8765 61.8348 85.5762ZM63.7352 100.885H28.5979L28.5905 99.6107C28.5312 89.3355 33.2846 81.8583 39.9738 76.9729H16.8323L16.5166 76.771C15.41 76.0636 14.592 75.2345 14.0634 74.2224C13.5376 73.2158 13.3501 72.1276 13.3435 70.9863L13.3359 69.697H46.2883C45.6375 52.7907 50.7578 40.2027 59.2026 34.2657C61.7492 32.4751 64.5592 32.2415 67.2269 33.4335C69.817 34.5908 72.1647 37.0369 74.1023 40.3957C79.1835 49.2039 87.1263 52.6197 91.865 52.5561L93.2427 52.5376L93.0999 54.9647C94.3844 54.6851 95.7953 54.5275 97.2724 54.5192L98.554 54.512L98.6195 65.9322L97.3377 65.9395C96.5101 65.9442 95.7033 65.902 94.9279 65.8178C96.7797 69.8446 98.826 75.3114 99.3866 80.7545C106.875 81.9384 111.116 86.4857 113.455 90.7695C114.671 92.9965 115.38 95.1588 115.786 96.7609C115.989 97.5639 116.118 98.2316 116.196 98.7035C116.235 98.9396 116.262 99.1272 116.279 99.2588C116.288 99.3245 116.294 99.3763 116.298 99.4132C116.3 99.4317 116.302 99.4464 116.303 99.4573L116.305 99.4707L116.305 99.4753L116.305 99.477L116.342 99.8523L116.305 99.4783L116.445 100.887H69.1271L69.1276 100.886H63.7348L63.7352 100.885ZM76.5093 92.7151C80.986 89.9069 84.2923 86.0834 86.2461 81.4719C88.4108 76.3624 88.9484 70.2048 87.474 63.2628C86.9892 63.2656 86.4767 63.2685 85.9914 63.2712C85.0359 63.2767 84.1859 63.2815 83.8607 63.2834C82.7237 63.2899 81.9579 62.4362 81.5735 61.8261C81.1461 61.1476 80.8587 60.2745 80.8538 59.4466L80.8463 58.1647L86.5296 58.1317C82.2927 57.9427 78.9593 57.2281 76.2372 56.0395C73.1854 54.707 70.9786 52.8122 69.1557 50.5428C67.3547 53.2312 65.8809 55.5823 64.3946 58.7465C70.1094 60.4099 74.4661 62.3563 77.547 64.6971C80.9238 67.2628 82.79 70.3244 83.1835 73.9527C83.5698 77.5145 82.5166 81.4485 80.4449 85.7679C79.398 87.9507 78.0753 90.2636 76.5093 92.7151Z" fill="white"/>
<path d="M46.2348 38.0605H18.8906V63.2577H46.2348V38.0605Z" fill="#C2945C"/>
<path d="M46.2348 63.2578H18.8906V69.8668H46.2348V63.2578Z" fill="#D90007"/>
<path d="M46.236 41.7605C46.228 41.7605 46.1846 41.7598 46.1765 41.7598C43.315 41.7598 40.7616 45.5128 39.0922 51.3826C37.4229 45.5128 34.8688 41.7598 32.0073 41.7598C26.977 41.7598 22.8984 54.4615 22.8984 69.8672H26.9476C26.9476 55.5622 29.2134 43.7521 32.0073 43.7521C34.8018 43.7521 37.0684 54.4575 37.0684 67.6618H41.1154C41.1154 54.4575 43.3819 43.7521 46.1765 43.7521C46.1846 43.7521 46.228 43.7535 46.236 43.7535V41.7605Z" fill="#FFBC0D"/>
<path d="M46.2348 33.123H18.8906V38.0607H46.2348V33.123Z" fill="#C2945C"/>
<path opacity="0.5" d="M46.2348 33.123H18.8906V38.0607H46.2348V33.123Z" fill="#E5AF71"/>
<path d="M35.8797 40.218H29.2463C28.9227 40.218 28.6602 39.9597 28.6602 39.6412V33.123H36.4658V39.6412C36.4658 39.9597 36.2033 40.218 35.8797 40.218Z" fill="#FFBC0D"/>
<path fill-rule="evenodd" clip-rule="evenodd" d="M47.0871 114.729C54.1661 114.729 59.9047 108.99 59.9047 101.911C59.9047 101.624 59.8953 101.339 59.8767 101.057H34.2975C34.279 101.339 34.2695 101.624 34.2695 101.911C34.2695 108.99 40.0082 114.729 47.0871 114.729ZM34.4467 99.7753C35.4637 93.7131 40.7359 89.0938 47.0871 89.0938C53.4383 89.0938 58.7106 93.7131 59.7276 99.7753H34.4467Z" fill="#292929"/>
<path fill-rule="evenodd" clip-rule="evenodd" d="M47.0885 108.32C50.628 108.32 53.4973 105.45 53.4973 101.911C53.4973 101.621 53.4781 101.336 53.4409 101.057H40.7361C40.6989 101.336 40.6797 101.621 40.6797 101.911C40.6797 105.45 43.549 108.32 47.0885 108.32ZM41.0442 99.7748C41.9239 97.2855 44.2979 95.502 47.0885 95.502C49.879 95.502 52.253 97.2855 53.1327 99.7748H41.0442Z" fill="white"/>
<path d="M110.323 101.911C110.323 108.99 104.584 114.729 97.5051 114.729C90.4261 114.729 84.6875 108.99 84.6875 101.911C84.6875 94.8324 90.4261 89.0938 97.5051 89.0938C104.584 89.0938 110.323 94.8324 110.323 101.911Z" fill="#292929"/>
<path d="M103.915 101.911C103.915 105.45 101.046 108.32 97.5065 108.32C93.967 108.32 91.0977 105.45 91.0977 101.911C91.0977 98.3713 93.967 95.502 97.5065 95.502C101.046 95.502 103.915 98.3713 103.915 101.911Z" fill="white"/>
<path fill-rule="evenodd" clip-rule="evenodd" d="M69.3431 18.5957C66.5392 18.5957 64.3267 21.112 64.5333 24.0646L64.7577 27.2664C64.7577 30.2057 67.0136 32.5882 69.7962 32.5882C72.5794 32.5882 74.8354 30.2057 74.8354 27.2664L75.4422 18.5957H69.3431ZM97.5045 87.8112C90.444 87.8112 84.5957 93.0009 83.566 99.7738H71.6555C72.8559 98.1446 73.8235 96.8044 74.8599 95.2877C86.5823 89.2885 92.0831 77.2768 88.49 62.1443L85.99 62.1585L83.845 62.1707C82.9418 62.1759 82.1341 60.7298 82.1275 59.6081L87.9655 59.5742C88.3958 58.5614 89.5653 57.6691 91.2019 57.0255C78.238 57.5029 72.9752 54.0796 69.0952 48.4982C66.5465 52.2584 64.6223 55.144 62.6025 59.7449C88.0619 66.6768 86.084 78.1772 70.1691 99.7731H65.833C74.0221 83.9448 73.8275 77.0399 66.9726 74.1174L68.8342 70.4889C68.98 70.2046 68.7736 69.8666 68.454 69.8666H47.563C46.908 53.162 51.978 41.075 59.9318 35.4833C64.2921 32.4175 69.2585 34.747 72.984 41.2052C78.2689 50.3665 86.6173 54.0774 91.8742 54.0068L91.7072 56.8453C93.271 56.3084 95.1893 55.9818 97.2716 55.97L97.3224 64.8268C95.6365 64.8364 94.0551 64.6393 92.6796 64.2899C94.8186 68.534 97.746 75.4277 98.1889 82.0565C113.434 83.7571 115.022 99.7738 115.022 99.7738H111.443C110.413 93.0009 104.565 87.8112 97.5045 87.8112ZM47.0886 71.1479H14.6172C14.629 73.1611 15.2762 74.6311 17.1989 75.8602H44.3993C36.1061 80.3485 29.7973 88.191 29.8643 99.7723H33.528L39.1755 99.7738L53.5929 99.7723H59.2396H64.3545L66.7421 94.9368C66.5632 94.8371 66.384 94.7385 66.205 94.64C63.1781 92.974 60.2337 91.3534 60.5469 85.6745C60.7042 82.8314 62.4492 79.2407 64.1807 76.4876L64.1788 76.489L66.772 71.7818C66.9288 71.497 66.7228 71.1484 66.3977 71.1484H47.0886V71.1479Z" fill="#D90007"/>
</svg>
