<svg width="44" height="44" viewBox="0 0 44 44" fill="none" xmlns="http://www.w3.org/2000/svg">
<g clip-path="url(#clip0_17_28565)">
<path d="M42.7009 41.5852C42.7009 42.9191 33.3291 44.0005 21.7684 44.0005C10.2077 44.0005 0.835938 42.9191 0.835938 41.5852C0.835938 40.2513 10.2077 39.1699 21.7684 39.1699C33.3291 39.1699 42.7009 40.2513 42.7009 41.5852Z" fill="#A0A09F" fill-opacity="0.15"/>
<path d="M17.9255 3.74609L17.1052 4.29295L16.2849 3.74609L15.4646 4.29295L14.6443 3.74609L13.824 4.29295L13.0037 3.74609L12.1835 4.29295L11.3632 3.74609L10.5429 4.29295L9.7226 3.74609L8.90232 4.29295L8.08203 3.74609V17.1441C8.08203 17.7481 8.5717 18.2378 9.17575 18.2378H18.4723C19.0764 18.2378 19.566 17.7481 19.566 17.1441V3.74609L18.7457 4.29295L17.9255 3.74609Z" fill="#A0A09F"/>
<path d="M8.08203 15.7773H19.566V17.1445C19.566 17.7485 19.0764 18.2382 18.4723 18.2382H9.17575C8.5717 18.2382 8.08203 17.7485 8.08203 17.1445V15.7773Z" fill="#606060"/>
<path d="M19.5661 8.08218C18.5156 8.08218 17.6635 12.2796 17.6635 17.4565H16.1419C16.1419 12.2796 15.2911 8.08218 14.2394 8.08218C13.1901 8.08218 12.338 12.6284 12.338 18.2379H10.8164C10.8164 12.197 12.3489 7.30078 14.2394 7.30078C15.3154 7.30078 16.2758 8.77243 16.9027 11.0741C17.5308 8.77243 18.4901 7.30078 19.5661 7.30078V8.08218Z" fill="#D8D8D8"/>
<path fill-rule="evenodd" clip-rule="evenodd" d="M33.5713 12.0119L33.5444 12.178L32.8729 12.0693L32.8554 12.259L31.733 12.1558L31.7377 12.1054L31.4243 12.1321L31.4264 12.144L30.3156 12.3353L30.3135 12.3234L29.632 12.5021L29.6144 12.4349L28.9487 12.6569L27.4712 8.22682L28.4276 7.90786L28.2433 7.20488L29.3336 6.91906L29.5596 7.78091L30.6151 7.5991L30.5397 6.71133L31.6628 6.61592L31.9411 9.89208L32.2302 6.7468L33.2666 6.84206L33.3875 6.09542L34.5001 6.27558L34.2914 7.56462L34.552 6.28738L35.6563 6.51268L35.5075 7.24221L36.533 7.4005L36.1849 9.65643L36.652 7.41403L37.7554 7.64389L36.9733 11.3985L35.9489 11.1851L35.8578 11.7755L34.7438 11.6036L35.1357 9.06499L34.496 12.2006L33.5713 12.0119Z" fill="#D8D8D8"/>
<path d="M29.1826 9.38086H27.4062L29.3687 19.042H35.9101L37.8725 9.38086H36.0899C35.8553 10.6541 34.3984 11.6345 32.6363 11.6345C30.8741 11.6345 29.4173 10.6541 29.1826 9.38086Z" fill="#606060"/>
<path fill-rule="evenodd" clip-rule="evenodd" d="M29.4502 9.05859L29.4988 9.32226C29.6948 10.3855 30.9624 11.3122 32.6358 11.3122C34.3092 11.3122 35.5768 10.3855 35.7727 9.32226L35.8213 9.05859H38.266L36.1728 19.3638H29.105L27.0117 9.05859H29.4502ZM27.4057 9.38063L29.3682 19.0418H35.9096L37.872 9.38063H36.0894C35.8548 10.6538 34.3979 11.6343 32.6358 11.6343C30.8736 11.6343 29.4168 10.6538 29.1821 9.38063H27.4057Z" fill="white"/>
<path fill-rule="evenodd" clip-rule="evenodd" d="M33.5352 12.7996C33.8887 12.7996 34.1752 14.2599 34.1752 16.0613H34.6878C34.6878 14.1215 34.1715 12.5488 33.5352 12.5488C33.1732 12.5488 32.8499 13.0213 32.6388 13.7605C32.4274 13.0213 32.1044 12.5488 31.7425 12.5488C31.1058 12.5488 30.5898 14.1215 30.5898 16.0613H31.1021C31.1021 14.2599 31.3889 12.7996 31.7425 12.7996C32.096 12.7996 32.3828 14.1478 32.3828 15.8103H32.8951C32.8951 14.1478 33.1816 12.7996 33.5352 12.7996Z" fill="#D8D8D8"/>
<path d="M24.3173 18.4512L25.5 8.28516H18.0093L19.3234 18.4512H24.3173Z" fill="#F1F1F1"/>
<path d="M24.9077 13.3761C24.6833 11.7827 24.3365 10.7607 23.9469 10.7607C23.2711 10.7607 22.7222 14.1073 22.7222 18.2365H21.7422C21.7422 13.7897 22.7293 10.1855 23.9469 10.1855C24.3868 10.1855 24.7966 10.6219 25.1406 11.3738L24.9077 13.3761Z" fill="#A0A09F"/>
<path d="M19.324 18.4512H21.2201L20.9626 9.38042L25.3906 8.57532L20.685 8.28516H18.0098L19.324 18.4512Z" fill="#F1F1F1"/>
<path fill-rule="evenodd" clip-rule="evenodd" d="M20.7831 -0.265951L21.3656 6.99774L22.1681 6.93338L21.5856 -0.33031L20.7831 -0.265951Z" fill="#D8D8D8"/>
<path d="M24.1836 6.76398C24.1836 6.4305 23.9133 6.16016 23.5798 6.16016H19.9568C19.6234 6.16016 19.353 6.4305 19.353 6.76398C19.353 6.87514 19.4431 6.96525 19.5543 6.96525H23.9823C24.0935 6.96525 24.1836 6.87514 24.1836 6.76398Z" fill="#F1F1F1"/>
<path d="M25.793 8.17249C25.793 7.50552 25.2523 6.96484 24.5853 6.96484H18.9497C18.2827 6.96484 17.742 7.50552 17.742 8.17249C17.742 8.39481 17.9222 8.57504 18.1446 8.57504H25.3904C25.6127 8.57504 25.793 8.39481 25.793 8.17249Z" fill="#F1F1F1"/>
<path d="M0.835938 19.8465C0.835938 18.9572 1.55685 18.2363 2.44613 18.2363H41.0907C41.98 18.2363 42.7009 18.9572 42.7009 19.8465V21.4567C42.7009 22.346 41.98 23.0669 41.0907 23.0669H2.44613C1.55684 23.0669 0.835938 22.346 0.835938 21.4567V19.8465Z" fill="#D8D8D8"/>
<path d="M4.05469 23.0684H39.4789V40.7805C39.4789 41.2251 39.1185 41.5856 38.6738 41.5856H4.85978C4.41514 41.5856 4.05469 41.2251 4.05469 40.7805V23.0684Z" fill="#D8D8D8"/>
<path d="M4.05469 23.0684H39.4789V26.2887H4.05469V23.0684Z" fill="#A0A09F"/>
</g>
<defs>
<clipPath id="clip0_17_28565">
<rect width="44" height="44" fill="white"/>
</clipPath>
</defs>
</svg>
