<svg width="27" height="18" viewBox="0 0 27 18" fill="none" xmlns="http://www.w3.org/2000/svg">
<g clip-path="url(#clip0_109_43798)">
<path d="M0 0H27V18.0002H0V0Z" fill="#D80027"/>
<path d="M0 0H13.5V8.99981H0V0Z" fill="#0052B4"/>
<path d="M8.7274 5.08816L8.87316 5.53662H9.34455L8.96318 5.81368L9.10888 6.26208L8.7274 5.98496L8.34597 6.26208L8.49168 5.81368L8.11025 5.53662H8.5817L8.7274 5.08816ZM6.35942 1.56641L6.60231 2.31381H7.38805L6.75234 2.7756L6.99518 3.5229L6.35942 3.06106L5.72376 3.5229L5.9666 2.7756L5.33083 2.31381H6.11663L6.35942 1.56641ZM8.70726 2.34904L8.95015 3.09639H9.73589L9.10018 3.55818L9.34297 4.30559L8.70726 3.84363L8.0716 4.30559L8.31439 3.55818L7.67867 3.09639H8.46442L8.70726 2.34904ZM6.85143 5.4795L7.09432 6.22686H7.88007L7.24435 6.6887L7.48714 7.436L6.85143 6.9741L6.21577 7.436L6.45856 6.6887L5.82285 6.22686H6.60859L6.85143 5.4795ZM4.79426 3.5229L5.0371 4.27031H5.82285L5.18713 4.7321L5.42992 5.4795L4.79426 5.01755L4.15855 5.4795L4.40134 4.7321L3.76562 4.27031H4.55137L4.79426 3.5229Z" fill="white"/>
</g>
<rect x="0.5" y="0.5" width="26" height="17" rx="0.5" stroke="black" stroke-opacity="0.2"/>
<defs>
<clipPath id="clip0_109_43798">
<rect width="27" height="18" rx="1" fill="white"/>
</clipPath>
</defs>
</svg>
