<svg width="375" height="225" viewBox="0 0 375 225" fill="none" xmlns="http://www.w3.org/2000/svg">
<g clip-path="url(#clip0_102_69768)">
<path d="M184.5 4C262.096 4 325 66.904 325 144.5C325 163.443 321.249 181.51 314.453 198H54.5469C47.7506 181.51 44 163.443 44 144.5C44 66.904 106.904 4 184.5 4Z" fill="#DCEDF4"/>
<ellipse cx="184" cy="203" rx="153" ry="14" fill="#A0A09F" fill-opacity="0.15"/>
<path d="M316 97V124H264L264.005 97H316Z" fill="#FFBC0D"/>
<path d="M190.926 120H77V97H191L190.926 120Z" fill="#FFBC0D"/>
<path d="M191 99L190.97 108H77V99H191Z" fill="black" fill-opacity="0.1"/>
<path d="M316 99V108H264L264.002 99H316Z" fill="black" fill-opacity="0.1"/>
<path d="M264 124H287V203H264V124Z" fill="#F9F9F9"/>
<path d="M288 124H316V203H288V124Z" fill="#F9F9F9"/>
<path d="M191 89L190.967 98.999L73.8004 99C72.8061 99 72 98.1942 72 97.2002V90.8008C72 89.8068 72.8061 89.001 73.8004 89.001L191 89Z" fill="#FFBC0D"/>
<path d="M318.212 89.001C319.2 89.001 320 89.8068 320 90.8008V97.2002C320 98.1942 319.2 99 318.212 99L264 98.999L264.002 89L318.212 89.001Z" fill="#FFBC0D"/>
<path d="M260.5 74.5234L260.473 202.998H194.569L194.5 74.5234L260.5 74.5234Z" fill="#F1F1F1"/>
<path d="M59.8 124H244.443C245.437 124 246.243 124.806 246.243 125.8V140H58V125.8C58 124.806 58.8059 124 59.8 124Z" fill="#606060"/>
<path d="M195 140H246V203H195V140Z" fill="#D8D8D8"/>
<path d="M109 140H137V203H109V140Z" fill="#F9F9F9"/>
<path d="M138 140H166V203H138V140Z" fill="#F9F9F9"/>
<path d="M167 140H195V203H167V140Z" fill="#F9F9F9"/>
<path d="M218 154H246V203H218V154Z" fill="#F9F9F9"/>
<path d="M58 198H109V204H58V198Z" fill="#A5835B"/>
<path d="M58 192H109V198H58V192Z" fill="#C2945C"/>
<path d="M58 187H109V193H58V187Z" fill="#A5835B"/>
<path d="M58 182H109V188H58V182Z" fill="#C2945C"/>
<path d="M58 177H109V183H58V177Z" fill="#A5835B"/>
<path d="M58 171H109V177H58V171Z" fill="#C2945C"/>
<path d="M58 166H109V172H58V166Z" fill="#A5835B"/>
<path d="M58 161H109V167H58V161Z" fill="#C2945C"/>
<path d="M58 156H109V162H58V156Z" fill="#A5835B"/>
<path d="M58 150H109V156H58V150Z" fill="#C2945C"/>
<path d="M58 145H109V151H58V145Z" fill="#A5835B"/>
<path d="M58 140H109V146H58V140Z" fill="#C2945C"/>
<path d="M136 140H140V203H136V140Z" fill="#D8D8D8"/>
<path d="M286 124H290V203H286V124Z" fill="#D8D8D8"/>
<path d="M312 124H316V203H312V124Z" fill="#D8D8D8"/>
<path d="M165 140H169V203H165V140Z" fill="#D8D8D8"/>
<path d="M218 154H246V160H218V154Z" fill="#A0A09F" fill-opacity="0.15"/>
<path d="M195 140H246V143H195V140Z" fill="#292929" fill-opacity="0.1"/>
<path d="M165 140H169V146H165V140Z" fill="#292929" fill-opacity="0.1"/>
<path d="M136 140H140V146H136V140Z" fill="#292929" fill-opacity="0.1"/>
<path d="M109 140H136V145H109V140Z" fill="#A0A09F" fill-opacity="0.15"/>
<path d="M140 140H165V145H140V140Z" fill="#A0A09F" fill-opacity="0.15"/>
<path d="M169 140H195V145H169V140Z" fill="#A0A09F" fill-opacity="0.15"/>
<path fill-rule="evenodd" clip-rule="evenodd" d="M236.023 86.7959C239.143 86.7959 241.672 99.9528 241.672 116.182H246.195C246.195 98.703 241.64 84.5352 236.023 84.5352C232.826 84.5352 229.975 88.7942 228.111 95.4522C226.247 88.7942 223.396 84.5352 220.2 84.5352C214.584 84.5352 210.027 98.703 210.027 116.182H214.55C214.55 99.9528 217.08 86.7959 220.2 86.7959C223.32 86.7959 225.85 98.9404 225.85 113.921H230.372C230.372 98.9404 232.902 86.7959 236.023 86.7959Z" fill="#FFBC0D"/>
<rect x="63" y="33" width="6" height="170" fill="#F9F9F9"/>
<rect x="66" y="33" width="3" height="170" fill="#F1F1F1"/>
<path d="M66 26C68.2091 26 70 27.7909 70 30C70 31.195 69.4754 32.267 68.6445 33H63.3555C62.5246 32.267 62 31.195 62 30C62 27.7909 63.7909 26 66 26Z" fill="#FFBC0D"/>
<path opacity="0.5" d="M66 26C67.3598 26 68.5605 26.6789 69.2832 27.7158C68.6357 27.2648 67.8489 27 67 27C64.7909 27 63 28.7909 63 31C63 31.8496 63.2659 32.6366 63.7178 33.2842C62.6799 32.5616 62 31.3605 62 30C62 27.7909 63.7909 26 66 26Z" fill="#F9F9F9"/>
<g clip-path="url(#clip1_102_69768)">
<path d="M69 33H124.323V69.882H69V33Z" fill="#FFDA44"/>
<path d="M69 53.9328L124.323 67.6761V56.15L69 43.4883V53.9328Z" fill="black"/>
<path d="M124.323 58.3144V48.9493L69 35.207V44.5721" fill="white"/>
<path d="M102.11 47.481C102.542 48.2779 102.767 49.1701 102.766 50.0764C102.766 52.405 101.306 54.3921 99.252 55.1755V48.7452C99.8679 48.6166 100.333 48.0569 100.333 47.3848C101.078 47.3848 101.683 46.7635 101.683 45.9963H101.638C102.383 45.9963 103.033 45.375 103.033 44.6078H99.252V41.2754L97.6323 38.2812L96.0115 41.2754V44.6078H92.2308C92.2308 45.375 92.8801 45.9963 93.6257 45.9963H93.5803C93.5803 46.7635 94.1854 47.3848 94.931 47.3848C94.931 48.0569 95.3945 48.6166 96.0104 48.7452V55.3764C93.6236 54.794 91.8526 52.6427 91.8526 50.0764C91.8526 49.1363 92.0903 48.2525 92.5084 47.481C91.3242 48.6922 90.5938 50.3476 90.5938 52.1748C90.5938 55.8832 93.5998 58.8904 97.3092 58.8904C101.019 58.8904 104.025 55.8832 104.025 52.1748C104.025 50.3476 103.293 48.6912 102.11 47.481Z" fill="#D80027"/>
<path fill-rule="evenodd" clip-rule="evenodd" d="M97.6301 37.9414L99.4115 41.2345V44.4461H103.192V44.6078C103.192 45.3972 102.581 46.0447 101.836 46.1447C101.768 46.8765 101.202 47.4642 100.485 47.5386C100.424 48.171 99.9917 48.6937 99.4115 48.8706V54.935C101.289 54.1205 102.602 52.2518 102.602 50.0764V50.0762C102.603 49.1969 102.384 48.3312 101.965 47.558L102.108 47.481L102.223 47.3679C103.435 48.607 104.184 50.3036 104.184 52.1749C104.184 55.9726 101.106 59.0522 97.3069 59.0522C93.5081 59.0522 90.4297 55.9726 90.4297 52.1749C90.4297 50.3036 91.1779 48.6081 92.3905 47.3679L93.2005 46.5394L92.6484 47.5581C92.2427 48.3065 92.012 49.164 92.012 50.0764C92.012 52.4942 93.6321 54.5327 95.8464 55.1663V48.8706C95.2662 48.6937 94.835 48.1708 94.7743 47.5386C94.0565 47.4642 93.4911 46.8765 93.4231 46.1447C92.6782 46.0448 92.0667 45.3972 92.0667 44.6078V44.4461H95.8475V41.2345L97.6301 37.9414ZM93.6234 45.8346V45.9963H93.7398C93.7398 46.6784 94.2766 47.2231 94.9287 47.2231H95.0905V47.3848C95.0905 47.9819 95.5018 48.4743 96.0412 48.5869L96.1699 48.6137V55.5825L95.9698 55.5336C93.5122 54.934 91.6885 52.719 91.6885 50.0764C91.6885 49.4993 91.7756 48.9425 91.9372 48.4186C91.1911 49.4824 90.7532 50.777 90.7532 52.1749C90.7532 55.7939 93.6868 58.7286 97.3069 58.7286C100.927 58.7286 103.861 55.7939 103.861 52.1749C103.861 50.7772 103.422 49.482 102.676 48.4185C102.842 48.9536 102.926 49.5125 102.925 50.0767C102.925 52.4745 101.422 54.5202 99.3074 55.3267L99.088 55.4103V48.6137L99.2167 48.5869C99.7563 48.4742 100.168 47.9817 100.168 47.3848V47.2231H100.33C100.982 47.2231 101.519 46.6784 101.519 45.9963H101.636V45.8346C102.241 45.8346 102.775 45.369 102.858 44.7696H99.088V41.3164L97.63 38.6212L96.171 41.3164V44.7696H92.4013C92.484 45.369 93.0181 45.8346 93.6234 45.8346Z" fill="#231F20"/>
<path d="M90.4443 57.5077C90.4443 57.5077 92.6799 60.5019 97.6298 60.5019C102.58 60.5019 104.815 57.5077 104.815 57.5077L106.271 60.5732C106.271 60.5732 103.998 63.5674 97.6298 63.5674C91.2611 63.5674 88.9888 60.5732 88.9888 60.5732L90.4443 57.5077ZM82.9648 47.3906H85.221L87.9147 50.3362V58.2727H85.0751V50.8851L82.9648 47.3906ZM112.221 47.3906H109.965L107.271 50.3362V58.2727H110.11V50.8851L112.221 47.3906Z" fill="#D80027"/>
<path fill-rule="evenodd" clip-rule="evenodd" d="M82.6797 47.2305H85.2938L88.078 50.275V58.4361H84.9149V50.9318L82.6797 47.2305ZM83.253 47.554L85.2384 50.8416V58.1126H87.7545V50.4006L85.1512 47.554H83.253ZM109.895 47.2305H112.509L110.273 50.9318V58.4361H107.111V50.275L109.895 47.2305ZM110.038 47.554L107.435 50.4006V58.1126H109.95V50.8416L111.936 47.554H110.038ZM104.848 57.1974L106.461 60.5943L106.401 60.6726L106.272 60.5748C106.401 60.6726 106.401 60.6727 106.401 60.6728L106.401 60.6731L106.4 60.6738L106.398 60.6761C106.397 60.678 106.395 60.6806 106.392 60.6839C106.387 60.6905 106.38 60.6998 106.37 60.7117C106.35 60.7355 106.321 60.7696 106.282 60.8124C106.204 60.898 106.086 61.0188 105.926 61.163C105.605 61.4513 105.112 61.833 104.418 62.2137C103.029 62.9757 100.842 63.7307 97.6313 63.7307C94.4204 63.7307 92.2333 62.9757 90.8447 62.2137C90.1509 61.833 89.6578 61.4513 89.3368 61.163C89.1763 61.0188 89.0588 60.898 88.9808 60.8124C88.9418 60.7696 88.9126 60.7355 88.8929 60.7117C88.883 60.6998 88.8755 60.6905 88.8703 60.6839C88.8687 60.682 88.8674 60.6802 88.8662 60.6788C88.8654 60.6778 88.8648 60.6769 88.8642 60.6761L88.8624 60.6738L88.8618 60.6731L88.8616 60.6728C88.8615 60.6727 88.8614 60.6726 88.9903 60.5748L88.8614 60.6726L88.802 60.5943L90.2996 57.4399L90.4458 57.5093C90.5754 57.4125 90.5753 57.4125 90.5753 57.4124L90.5754 57.4125L90.5762 57.4136C90.5766 57.4142 90.5772 57.415 90.578 57.416C90.5786 57.4168 90.5794 57.4178 90.5803 57.4189C90.5826 57.422 90.5858 57.426 90.5898 57.4311C90.5923 57.4343 90.5951 57.4378 90.5983 57.4418C90.6147 57.4622 90.6398 57.4928 90.6739 57.5322C90.7419 57.6109 90.8455 57.7245 90.9855 57.8615C91.2656 58.1355 91.691 58.5025 92.2691 58.8699C93.4242 59.6041 95.1909 60.3417 97.6313 60.3417C100.072 60.3417 101.838 59.6041 102.993 58.8699C103.572 58.5025 103.997 58.1355 104.277 57.8615C104.417 57.7245 104.521 57.6109 104.589 57.5322C104.623 57.4928 104.648 57.4622 104.664 57.4418C104.672 57.4315 104.678 57.4239 104.682 57.4189C104.684 57.4165 104.686 57.4147 104.686 57.4136L104.687 57.4125L104.687 57.4124L104.848 57.1974ZM104.779 57.806C104.709 57.8838 104.617 57.9812 104.503 58.0928C104.209 58.3802 103.767 58.7618 103.167 59.1429C101.967 59.9058 100.141 60.6653 97.6313 60.6653C95.1218 60.6653 93.2957 59.9058 92.0955 59.1429C91.4959 58.7618 91.0531 58.3802 90.7593 58.0928C90.6453 57.9812 90.5536 57.8838 90.484 57.806L89.1808 60.5507C89.1922 60.5638 89.2053 60.5784 89.22 60.5945C89.2911 60.6726 89.4009 60.7857 89.5529 60.9223C89.857 61.1954 90.33 61.5622 91.0004 61.9301C92.3401 62.6652 94.4735 63.4072 97.6313 63.4072C100.789 63.4072 102.922 62.6652 104.262 61.9301C104.933 61.5622 105.406 61.1954 105.71 60.9223C105.862 60.7857 105.971 60.6726 106.043 60.5945C106.057 60.5784 106.07 60.5638 106.082 60.5507L104.779 57.806Z" fill="#231F20"/>
</g>
<path d="M67.8158 205.5L68.7364 205.494C75.9374 205.404 81.6316 204.137 81.6316 196.816C81.6316 189.186 75.446 183 67.8158 183C60.1855 183 54 189.186 54 196.816C54 204.446 60.1855 205.5 67.8158 205.5Z" fill="#9CC93A"/>
<path d="M98.8158 205.5L99.7364 205.494C106.937 205.404 112.632 204.137 112.632 196.816C112.632 189.186 106.446 183 98.8158 183C91.1855 183 85 189.186 85 196.816C85 204.446 91.1855 205.5 98.8158 205.5Z" fill="#9CC93A"/>
<path d="M128.816 205.5L129.736 205.494C136.937 205.404 142.632 204.137 142.632 196.816C142.632 189.186 136.446 183 128.816 183C121.186 183 115 189.186 115 196.816C115 204.446 121.186 205.5 128.816 205.5Z" fill="#9CC93A"/>
<path d="M253.561 29.8555C255.088 29.8555 256.327 31.0943 256.327 32.6221C256.327 34.0685 255.217 35.2538 253.802 35.376C254.09 36.0127 254.252 36.7186 254.252 37.4629C254.252 40.2639 251.982 42.5342 249.181 42.5342H257.94C260.741 42.5342 263.013 44.8055 263.013 47.6064H269.929C272.729 47.6066 275 49.8769 275 52.6777C275 55.4786 272.73 57.7498 269.929 57.75H262.332C261.455 59.2653 259.817 60.2852 257.94 60.2852H215.523C213.647 60.2852 212.009 59.2653 211.132 57.75H206.071C203.27 57.7498 201 55.4786 201 52.6777C201 49.8769 203.271 47.6066 206.071 47.6064H210.452C210.452 44.8055 212.722 42.5342 215.523 42.5342H221.748C221.748 39.7334 224.018 37.4629 226.819 37.4629H235.349C235.349 34.6619 237.62 32.3916 240.421 32.3916H249.181C249.746 32.3916 250.288 32.4849 250.796 32.6553C250.796 32.6442 250.795 32.6332 250.795 32.6221C250.795 31.0943 252.033 29.8556 253.561 29.8555Z" fill="white"/>
<path d="M140.047 2C143.684 2 146.634 4.94858 146.634 8.58594C146.634 8.65081 146.631 8.71586 146.629 8.78027H148.184C150.537 8.78048 152.445 10.6884 152.445 13.042H155.738C158.092 13.042 160 14.95 160 17.3037C160 19.6574 158.092 21.5654 155.738 21.5654H153.229C152.493 22.8389 151.116 23.6963 149.539 23.6963H133.461C131.884 23.6963 130.507 22.8389 129.771 21.5654H127.262C124.908 21.5654 123 19.6574 123 17.3037C123 14.95 124.908 13.042 127.262 13.042H127.843C127.843 10.6883 129.751 8.78037 132.104 8.78027H133.466C133.464 8.71585 133.461 8.65081 133.461 8.58594C133.461 4.94867 136.41 2.00015 140.047 2Z" fill="white"/>
</g>
<defs>
<clipPath id="clip0_102_69768">
<rect width="375" height="225" fill="white"/>
</clipPath>
<clipPath id="clip1_102_69768">
<rect width="55.3231" height="36.882" fill="white" transform="translate(69 33)"/>
</clipPath>
</defs>
</svg>
