<svg width="136" height="136" viewBox="0 0 136 136" fill="none" xmlns="http://www.w3.org/2000/svg">
<path d="M104.927 111.093C104.927 114.29 83.8699 116.882 57.895 116.882C31.9201 116.882 10.8633 114.29 10.8633 111.093C10.8633 107.896 31.9201 105.305 57.895 105.305C83.8699 105.305 104.927 107.896 104.927 111.093Z" fill="#A0A09F" fill-opacity="0.15"/>
<path d="M91.8398 50.8965C94.354 52.8221 96.723 55.4601 98.6619 58.6467C101.809 63.4 103.427 68.5126 103.49 72.8384L101.491 73.7533C101.754 69.6752 100.325 64.5164 97.2147 59.6376C95.6282 57.1296 93.7801 55.0048 91.8515 53.3418L91.8398 50.8965Z" fill="#A0A09F"/>
<path fill-rule="evenodd" clip-rule="evenodd" d="M123.278 65.2622L132.783 86.611C132.85 86.7686 133.69 88.875 131.539 89.8329L110.19 99.3379C110.032 99.4044 107.926 100.245 106.968 98.0936L97.4582 76.7332C97.3646 76.5049 96.598 74.4617 98.7074 73.5226L120.068 64.0128C120.296 63.9193 122.339 63.1527 123.278 65.2622ZM99.7837 76.7016C99.7837 77.9604 100.804 78.9809 102.063 78.9809C103.322 78.9809 104.342 77.9604 104.342 76.7016C104.342 75.4429 103.322 74.4224 102.063 74.4224C100.804 74.4224 99.7837 75.4429 99.7837 76.7016Z" fill="#DB0007"/>
<path fill-rule="evenodd" clip-rule="evenodd" d="M114.887 73.6121C113.372 74.2863 112.92 76.9052 113.441 80.4533C111.153 77.6918 108.904 76.2757 107.39 76.9499C104.729 78.1348 105.559 85.8087 109.246 94.0889L111.388 93.1351C107.965 85.4462 106.388 78.6791 107.867 78.021C109.345 77.3626 113.106 82.5829 116.266 89.6802L118.408 88.7267C115.248 81.6293 113.885 75.3415 115.364 74.6832C116.842 74.0249 120.817 79.7242 124.24 87.4131L126.381 86.4597C122.695 78.1794 117.548 72.4271 114.887 73.6121Z" fill="#FFBC0D"/>
<path fill-rule="evenodd" clip-rule="evenodd" d="M71.1161 28.3668C70.2777 27.8804 69.2425 27.8776 68.4031 28.3594L48.3955 39.8439C47.5561 40.3258 47.0409 41.2185 47.0454 42.1836L47.1047 54.8795L4.97321 79.0639L3 94.0748L20.4361 97.9446L25.798 88.1847L36.9804 88.448L42.3423 78.6881L53.5248 78.9514L56.9981 72.6283L68.6514 79.3896C69.4898 79.8761 70.525 79.8789 71.3644 79.397L91.372 67.9125C92.2114 67.4307 92.7266 66.5379 92.7221 65.5728L92.6133 42.3753C92.6088 41.4213 92.0971 40.5401 91.2684 40.0593L71.1161 28.3668ZM74.8277 51.0209C73.5131 48.7572 74.2734 45.874 76.5259 44.5811C78.7783 43.2882 81.6699 44.0752 82.9844 46.3389C84.299 48.6026 83.5387 51.4858 81.2863 52.7787C79.0338 54.0716 76.1422 53.2846 74.8277 51.0209ZM11.361 81.2205C10.8338 81.5217 10.6662 82.2151 10.9866 82.7692C11.307 83.3234 11.9941 83.5285 12.5214 83.2273L49.605 62.0438C50.1322 61.7426 50.2999 61.0492 49.9794 60.495C49.659 59.9409 48.9719 59.7358 48.4446 60.037L11.361 81.2205Z" fill="#FFBC0D"/>
<path d="M82.617 47.4199C82.8002 48.0306 82.8544 48.6606 82.7892 49.2732C81.5104 49.2732 80.3453 49.5863 79.3672 50.2433C74.6005 53.2155 74.9412 62.2687 80.332 70.5031C85.6097 78.6265 93.783 82.6215 98.1799 79.6682C99.5958 78.7854 100.561 77.366 101.077 75.5909C101.204 75.568 101.334 75.5565 101.468 75.5565C102.074 75.5565 102.625 75.7932 103.033 76.1791C102.452 78.305 101.319 80.0284 99.627 81.1154C93.718 84.9566 84.4987 80.4514 78.8848 71.4678C72.8175 62.5452 72.4327 52.3223 77.9201 48.7961C79.2791 47.9126 80.8133 47.4707 82.4385 47.4232L82.617 47.4199Z" fill="#A0A09F"/>
<path fill-rule="evenodd" clip-rule="evenodd" d="M4.97499 79.0648L47.1065 54.8804L47.0472 42.1845C47.0427 41.2194 47.5578 40.3267 48.3973 39.8448L68.4049 28.3603C69.2443 27.8784 70.2795 27.8813 71.1179 28.3677L91.2702 40.0601C92.0989 40.541 92.6106 41.4221 92.6151 42.3761L92.6581 51.5518C94.2115 52.8544 95.6957 54.4296 97.0407 56.2373C97.6084 57.0003 98.1513 57.8048 98.6641 58.6476C98.6747 58.6637 98.6853 58.6797 98.6959 58.6958C98.697 58.6975 98.6981 58.6991 98.6993 58.7008C99.3609 59.7043 99.9544 60.7235 100.48 61.7478C101.829 64.3798 102.728 67.0451 103.171 69.5611C103.282 70.1935 103.365 70.8164 103.419 71.4271L120.069 64.0142C120.298 63.9206 122.341 63.1541 123.28 65.2635L132.785 86.6124C132.851 86.77 133.692 88.8764 131.541 89.8342L110.192 99.3392C110.034 99.4057 107.927 100.246 106.97 98.0949L99.4583 81.2234C98.9378 81.5444 98.3926 81.8022 97.8274 81.9994C92.8246 83.7453 86.2497 80.7461 81.2782 74.778C81.1425 74.6151 81.008 74.45 80.8747 74.2827C80.8124 74.2045 80.7504 74.1259 80.6887 74.0467L71.3662 79.3979C70.5268 79.8798 69.4916 79.8769 68.6532 79.3905L56.9999 72.6291L53.5266 78.9523L42.3441 78.689L36.9822 88.4489L25.7997 88.1856L20.4379 97.9455L3.00178 94.0757L4.97499 79.0648ZM26.854 90.0165L21.3684 100.002L0.996094 95.48L3.30127 77.9436L45.296 53.8377L45.2417 42.1929C45.2341 40.5758 46.0976 39.083 47.4985 38.2789L67.506 26.7944C68.9057 25.9909 70.6289 25.9965 72.024 26.806L92.1763 38.4984C93.5562 39.299 94.4131 40.7696 94.4206 42.3677L94.4598 50.724C96.5762 52.6169 98.5348 54.9678 100.189 57.6796C102.584 61.3056 104.158 65.1627 104.867 68.8059L119.36 62.3537L119.385 62.3434C119.595 62.2574 120.486 61.9148 121.573 62.0148C122.816 62.129 124.169 62.8203 124.929 64.5291L134.442 85.8942L134.448 85.9105C134.52 86.0811 134.878 86.9655 134.795 88.0597C134.751 88.635 134.583 89.3066 134.155 89.9492C133.722 90.6 133.089 91.1212 132.275 91.4837L110.91 100.996L110.894 101.003C110.723 101.075 109.838 101.432 108.744 101.349C108.169 101.306 107.497 101.137 106.855 100.709C106.204 100.276 105.683 99.6435 105.32 98.8293L98.5643 83.6546C95.7128 84.6985 92.5334 84.4133 89.5128 83.2259C86.2317 81.9359 83.0101 79.5457 80.2636 76.3726L72.2651 80.9638C70.8654 81.7672 69.1422 81.7617 67.7471 80.9522L57.6925 75.1185L54.5809 80.7831L43.3984 80.5199L38.0365 90.2798L26.854 90.0165ZM98.8685 62.5628C98.3841 61.5841 97.8336 60.6058 97.217 59.6385C97.2121 59.6308 97.2073 59.6231 97.2024 59.6154C97.1904 59.5966 97.1785 59.5777 97.1665 59.5589C96.6683 58.7767 96.1447 58.0321 95.6013 57.3275C95.2373 56.8556 94.8645 56.4017 94.4844 55.9664C93.8949 55.2915 93.288 54.6614 92.67 54.0789L92.7239 65.5737C92.7284 66.5388 92.2132 67.4315 91.3738 67.9134L82.2632 73.1429C82.3934 73.3016 82.5247 73.4581 82.657 73.6123C82.9267 73.9268 83.2005 74.232 83.4778 74.5276C88.4735 79.8553 94.5883 82.0818 98.1814 79.6685C98.3261 79.5783 98.4715 79.4639 98.6159 79.3312L97.4599 76.7346C97.3663 76.5063 96.5997 74.4631 98.7091 73.5239L101.516 72.2743C101.424 69.3229 100.54 65.9405 98.8685 62.5628ZM99.6287 71.1381L97.9748 71.8745C96.2659 72.6353 95.5746 73.9879 95.4604 75.2307C95.3605 76.3184 95.703 77.2091 95.7891 77.4192L95.7994 77.4442L96.3107 78.5927C95.0876 79.0077 93.4215 78.916 91.3926 78.0826C89.3563 77.246 87.1505 75.7263 85.09 73.6022L92.2726 69.4793C93.6735 68.6752 94.537 67.1824 94.5294 65.5653L94.498 58.8619C94.9093 59.4171 95.308 59.9981 95.6911 60.6037L95.6945 60.609C98.0023 64.2295 99.2917 67.952 99.6287 71.1381ZM103.034 76.1794C102.986 76.3568 102.934 76.5314 102.877 76.703C102.663 77.359 102.392 77.972 102.065 78.5346C101.979 78.6821 101.889 78.8261 101.796 78.9665C101.884 78.9769 101.974 78.9822 102.065 78.9822C103.323 78.9822 104.344 77.9618 104.344 76.703C104.344 76.6466 104.342 76.5908 104.338 76.5354C104.304 76.0725 104.132 75.6479 103.863 75.3028C103.446 74.7678 102.796 74.4238 102.065 74.4238C101.859 74.4238 101.659 74.4511 101.469 74.5024C101.275 74.5546 101.092 74.6318 100.922 74.7302C100.693 74.8636 100.488 75.036 100.318 75.2385C99.9856 75.6346 99.7854 76.1454 99.7854 76.703C99.7854 77.0239 99.8517 77.3293 99.9714 77.6063C100.17 77.2923 100.35 76.9823 100.505 76.703C100.858 76.0674 101.079 75.5912 101.079 75.5912C101.205 75.5682 101.336 75.5568 101.469 75.5568C101.675 75.5568 101.875 75.5841 102.065 75.6354C102.433 75.7349 102.765 75.9246 103.034 76.1794ZM79.3687 50.2435C80.0763 49.7682 80.8817 49.4729 81.7573 49.3459C82.092 49.2974 82.437 49.2734 82.7907 49.2734C82.8258 48.9435 82.8263 48.6086 82.7907 48.2744C82.7619 48.0046 82.7096 47.7351 82.6329 47.4692C82.6282 47.4528 82.6234 47.4365 82.6185 47.4202L82.44 47.4234C82.1407 47.4322 81.8445 47.4543 81.5519 47.4901C80.2557 47.6487 79.0304 48.0756 77.9216 48.7964C77.347 49.1656 76.8369 49.6082 76.3909 50.1151C75.9731 50.5898 75.6116 51.121 75.3062 51.7009C75.1309 51.4922 74.971 51.2655 74.8295 51.0218C74.6054 50.636 74.4417 50.2322 74.3353 49.8213C73.8174 47.8215 74.6591 45.6545 76.5276 44.582C78.5205 43.4381 81.0138 43.9223 82.4724 45.617C82.5117 45.6627 82.5503 45.7092 82.588 45.7566C82.7328 45.9384 82.8661 46.1329 82.9862 46.3397C83.1468 46.6162 83.2764 46.9019 83.3761 47.1928C83.6195 47.9031 83.6848 48.6444 83.5874 49.3583C83.5048 49.9635 83.3053 50.549 82.9983 51.079C82.6012 51.7643 82.0243 52.3569 81.288 52.7795C80.5043 53.2294 79.6431 53.4275 78.7979 53.3991C78.1716 53.3781 77.5541 53.2327 76.9834 52.9734C77.258 52.4034 77.5918 51.8865 77.9848 51.4315C78.3848 50.9684 78.846 50.5694 79.3687 50.2435ZM79.9264 45.965C79.1285 45.657 78.2101 45.6981 77.4265 46.1479C76.7379 46.5431 76.2736 47.1852 76.085 47.905C76.3556 47.682 76.641 47.4733 76.9414 47.2801C77.8802 46.6703 78.8835 46.2368 79.9264 45.965ZM49.9812 60.4959C49.6608 59.9417 48.9737 59.7367 48.4464 60.0378L11.3628 81.2214C10.8356 81.5225 10.6679 82.2159 10.9884 82.7701C11.3088 83.3242 11.9959 83.5293 12.5232 83.2282L49.6068 62.0446C50.134 61.7435 50.3016 61.0501 49.9812 60.4959Z" fill="white"/>
</svg>
