<svg width="375" height="225" viewBox="0 0 375 225" fill="none" xmlns="http://www.w3.org/2000/svg">
<ellipse cx="193.262" cy="199.216" rx="51.0584" ry="11.7827" fill="#A0A09F" fill-opacity="0.15"/>
<path fill-rule="evenodd" clip-rule="evenodd" d="M227.839 105.871L220.746 110.308L213.654 105.871L206.561 110.308L199.469 105.871L192.376 110.308L185.284 105.871L178.191 110.308L171.099 105.871L164.007 110.308L156.914 105.871V195.371C156.914 197.844 158.9 199.846 161.347 199.846H223.406C225.855 199.846 227.839 197.844 227.839 195.371V105.871Z" fill="#C2945C"/>
<path fill-rule="evenodd" clip-rule="evenodd" d="M227.835 183.002L227.836 195.372C227.836 197.844 225.852 199.847 223.403 199.847H161.344C158.897 199.847 156.911 197.844 156.911 195.372L156.91 183.002H227.835Z" fill="#DB0007"/>
<path fill-rule="evenodd" clip-rule="evenodd" d="M220.051 130.693C222.811 130.693 225.441 132.345 227.837 135.336L227.838 150.679C225.82 140.97 223.075 134.998 220.051 134.998C213.858 134.998 208.831 158.136 208.831 186.675H199.855C199.855 158.136 194.832 134.998 188.633 134.998C182.441 134.998 177.415 160.067 177.415 190.979H168.438C168.438 157.683 177.483 130.693 188.633 130.693C194.98 130.693 200.64 138.807 204.344 151.49C208.046 138.807 213.709 130.693 220.051 130.693Z" fill="#FFBC0D"/>
<path d="M217.199 27.2066C218.172 24.6956 219.056 22.772 219.854 21.4358C220.651 20.0996 221.931 18.3964 223.692 16.3262L229.611 19.6324C228.134 21.2254 226.855 22.9286 225.773 24.742C224.691 26.5554 223.806 28.479 223.118 30.5128L217.199 27.2066Z" fill="#DB0007"/>
<path d="M152.857 79.2734C155.279 80.4411 157.12 81.467 158.38 82.3509C159.64 83.2348 161.22 84.6082 163.119 86.4712L159.195 91.6853C157.746 90.138 156.167 88.7646 154.457 87.565C152.746 86.3654 150.905 85.3396 148.934 84.4876L152.857 79.2734Z" fill="#DB0007"/>
<path d="M126.541 200.517C123.913 201.088 121.831 201.413 120.294 201.492C118.757 201.572 116.667 201.462 114.024 201.163L113.905 194.638C115.999 194.966 118.09 195.076 120.176 194.968C122.262 194.86 124.344 194.535 126.423 193.993L126.541 200.517Z" fill="#DB0007"/>
<path d="M243.293 199.915C245.897 200.453 245.652 201.321 249.489 201.684C253.326 202.048 258.327 201.605 260.958 201.273L261.157 194.745C259.071 195.099 251.761 195.239 249.688 195.157C247.616 195.075 245.551 193.904 243.492 193.387L243.293 199.915Z" fill="#DB0007"/>
<path d="M227.836 80.4019C228.808 77.8909 229.693 75.9673 230.49 74.6311C231.288 73.2949 232.567 71.5917 234.329 69.5215L240.248 72.8277C238.771 74.4207 237.492 76.1239 236.409 77.9373C235.327 79.7507 234.442 81.6743 233.755 83.7081L227.836 80.4019Z" fill="#DB0007"/>
<path d="M193.262 33.4136C192.289 30.9026 191.405 28.979 190.607 27.6428C189.81 26.3066 188.53 24.6034 186.769 22.5332L180.85 25.8394C182.327 27.4324 183.606 29.1356 184.688 30.949C185.77 32.7624 186.655 34.686 187.343 36.7198L193.262 33.4136Z" fill="#DB0007"/>
<path d="M177.488 63.2681C178.034 60.5764 178.588 58.4924 179.149 57.0163C179.711 55.5402 180.681 53.6176 182.059 51.2484L188.303 53.6674C187.125 55.5095 186.155 57.4321 185.393 59.4354C184.631 61.4387 184.077 63.5226 183.732 65.6872L177.488 63.2681Z" fill="#DB0007"/>
<path d="M194.128 68.6348C196.862 68.8966 198.993 69.2295 200.519 69.6335C202.046 70.0375 204.06 70.8013 206.56 71.9247L204.807 78.3869C202.852 77.4078 200.838 76.6441 198.766 76.0957C196.694 75.5474 194.564 75.2145 192.375 75.097L194.128 68.6348Z" fill="#DB0007"/>
<path d="M134.302 38.0216C135.937 40.2286 137.115 42.0346 137.836 43.4395C138.558 44.8444 139.337 46.8518 140.176 49.4616L134.2 52.4828C133.62 50.3747 132.84 48.3674 131.861 46.4607C130.882 44.554 129.704 42.7481 128.327 41.0428L134.302 38.0216Z" fill="#DB0007"/>
<path d="M249.512 32.0165C250.696 34.4949 251.508 36.4924 251.948 38.0092C252.388 39.5259 252.77 41.6452 253.095 44.367L246.653 46.1925C246.485 44.0124 246.103 41.8931 245.506 39.8347C244.909 37.7763 244.097 35.7787 243.07 33.842L249.512 32.0165Z" fill="#DB0007"/>
<path d="M147.754 189.748L147.183 196.27C147.183 196.27 145.204 196.645 143.787 196.521C142.37 196.397 141.001 195.729 141.001 195.729L141.572 189.207C141.572 189.207 143.456 189.92 144.873 190.044C146.29 190.168 147.754 189.748 147.754 189.748Z" fill="#DB0007"/>
<path d="M165.004 51.6738L159.171 48.7016C159.171 48.7016 159.565 46.7259 160.211 45.4588C160.856 44.1916 161.988 43.1721 161.988 43.1721L167.821 46.1443C167.821 46.1443 166.455 47.6246 165.809 48.8918C165.163 50.159 165.004 51.6738 165.004 51.6738Z" fill="#DB0007"/>
<path d="M209.18 103.031L202.669 102.347C202.669 102.347 202.329 100.361 202.477 98.9468C202.626 97.5324 203.317 96.175 203.317 96.175L209.828 96.8593C209.828 96.8593 209.083 98.731 208.934 100.145C208.786 101.56 209.18 103.031 209.18 103.031Z" fill="#DB0007"/>
<mask id="path-18-outside-1_17_28567" maskUnits="userSpaceOnUse" x="109.906" y="12.3262" width="155" height="193" fill="black">
<rect fill="white" x="109.906" y="12.3262" width="155" height="193"/>
<path d="M243.494 193.388C245.553 193.904 247.618 195.076 249.69 195.157C251.763 195.239 259.072 195.099 261.158 194.745L260.96 201.272C258.329 201.605 253.328 202.048 249.491 201.685C245.654 201.321 245.899 200.453 243.295 199.915L243.494 193.388ZM126.542 200.517C123.915 201.087 121.832 201.413 120.295 201.492C118.758 201.571 116.668 201.461 114.024 201.162L113.906 194.638C116 194.965 118.091 195.075 120.177 194.968C122.263 194.86 124.346 194.535 126.424 193.992L126.542 200.517ZM227.84 135.335L227.841 135.337V150.68C227.84 150.678 227.84 150.676 227.84 150.675V195.371C227.84 197.843 225.856 199.846 223.407 199.846H161.348C161.195 199.846 161.044 199.837 160.896 199.822C160.002 199.731 159.186 199.371 158.529 198.824C158.31 198.642 158.109 198.439 157.928 198.218C157.295 197.444 156.915 196.453 156.915 195.371L156.914 183.001H156.915V105.87L164.008 110.308L171.101 105.87L178.192 110.308L185.285 105.87L192.378 110.308L199.471 105.87L206.562 110.308L213.655 105.87L220.748 110.308L227.84 105.87V135.335ZM141.575 189.207C141.575 189.207 143.46 189.92 144.877 190.044C146.294 190.168 147.758 189.748 147.758 189.748L147.188 196.27C147.188 196.27 145.208 196.644 143.791 196.521C142.386 196.398 141.027 195.74 141.005 195.729L141.575 189.207ZM209.832 96.8594C209.832 96.8594 209.087 98.7311 208.938 100.146C208.791 101.55 209.178 103.012 209.184 103.031L202.673 102.347C202.667 102.315 202.334 100.35 202.481 98.9473C202.63 97.5329 203.321 96.1748 203.321 96.1748L209.832 96.8594ZM152.86 79.2734C155.282 80.4411 157.123 81.4676 158.383 82.3516C159.643 83.2355 161.222 84.6088 163.121 86.4717L159.197 91.6855C157.749 90.1384 156.169 88.765 154.459 87.5654C152.749 86.3659 150.908 85.3402 148.937 84.4883L152.86 79.2734ZM240.252 72.8281C238.775 74.421 237.496 76.1242 236.414 77.9375C235.332 79.7509 234.446 81.6742 233.759 83.708L227.84 80.4023C228.812 77.8913 229.698 75.9671 230.495 74.6309C231.292 73.2947 232.572 71.5915 234.333 69.5215L240.252 72.8281ZM194.131 68.6348C196.865 68.8966 198.996 69.2298 200.522 69.6338C202.049 70.0378 204.062 70.8015 206.562 71.9248L204.81 78.3867C202.855 77.4076 200.84 76.644 198.769 76.0957C196.697 75.5475 194.567 75.2142 192.378 75.0967L194.131 68.6348ZM188.305 53.667C187.127 55.5089 186.156 57.4314 185.395 59.4346C184.633 61.4379 184.079 63.522 183.733 65.6865L177.49 63.2676C178.036 60.5758 178.59 58.4917 179.151 57.0156C179.713 55.5396 180.683 53.6171 182.062 51.248L188.305 53.667ZM134.307 38.0215C135.942 40.2285 137.12 42.0346 137.841 43.4395C138.562 44.8444 139.342 46.8521 140.18 49.4619L134.204 52.4824C133.624 50.3746 132.844 48.3674 131.865 46.4609C130.886 44.5544 129.708 42.7482 128.331 41.043L134.307 38.0215ZM167.825 46.1445C167.808 46.1635 166.455 47.6327 165.813 48.8916C165.172 50.1503 165.01 51.6537 165.008 51.6738L159.175 48.7021C159.175 48.7021 159.569 46.7262 160.215 45.459C160.861 44.1918 161.992 43.1719 161.992 43.1719L167.825 46.1445ZM249.515 32.0156C250.698 34.4939 251.51 36.4921 251.95 38.0088C252.39 39.5255 252.772 41.6447 253.097 44.3662L246.655 46.1914C246.488 44.0114 246.105 41.8923 245.508 39.834C244.911 37.7756 244.099 35.7775 243.072 33.8408L249.515 32.0156ZM186.771 22.5342C188.533 24.6043 189.813 26.3074 190.61 27.6436C191.408 28.9797 192.292 30.9033 193.265 33.4141L187.346 36.7207C186.658 34.6869 185.774 32.7626 184.691 30.9492C183.609 29.1359 182.329 27.4328 180.853 25.8398L186.771 22.5342ZM229.613 19.6328C228.137 21.2257 226.857 22.9289 225.775 24.7422C224.693 26.5556 223.808 28.4789 223.12 30.5127L217.201 27.207C218.174 24.696 219.059 22.7717 219.856 21.4355C220.654 20.0994 221.933 18.3962 223.694 16.3262L229.613 19.6328Z"/>
</mask>
<path d="M243.494 193.388L244.224 190.478L240.609 189.571L240.496 193.296L243.494 193.388ZM249.69 195.157L249.572 198.155H249.573L249.69 195.157ZM261.158 194.745L264.157 194.836L264.268 191.175L260.657 191.787L261.158 194.745ZM260.96 201.272L261.336 204.249L263.881 203.928L263.959 201.364L260.96 201.272ZM249.491 201.685L249.208 204.671H249.208L249.491 201.685ZM243.295 199.915L240.296 199.824L240.219 202.343L242.688 202.853L243.295 199.915ZM126.542 200.517L127.179 203.448L129.586 202.925L129.542 200.462L126.542 200.517ZM120.295 201.492L120.449 204.488H120.449L120.295 201.492ZM114.024 201.162L111.025 201.216L111.073 203.847L113.687 204.143L114.024 201.162ZM113.906 194.638L114.37 191.674L110.842 191.122L110.907 194.692L113.906 194.638ZM120.177 194.968L120.331 197.964H120.331L120.177 194.968ZM126.424 193.992L129.423 193.938L129.354 190.127L125.666 191.089L126.424 193.992ZM227.84 135.335H224.84V136.043L225.157 136.677L227.84 135.335ZM227.841 135.337H230.841V134.629L230.524 133.995L227.841 135.337ZM227.841 150.68L224.904 151.29L230.841 150.68H227.841ZM227.84 150.675L230.777 150.064L224.84 150.675H227.84ZM227.84 195.371L230.84 195.371V195.371H227.84ZM161.348 199.846L161.347 202.846H161.348V199.846ZM160.896 199.822L160.59 202.807L160.59 202.807L160.896 199.822ZM158.529 198.824L160.449 196.519L160.449 196.519L158.529 198.824ZM157.928 198.218L155.605 200.117L155.605 200.117L157.928 198.218ZM156.915 195.371L153.915 195.371V195.371L156.915 195.371ZM156.914 183.001V180.001H153.914L153.914 183.001L156.914 183.001ZM156.915 183.001V186.001H159.915V183.001H156.915ZM156.915 105.87L158.506 103.327L153.915 100.454V105.87H156.915ZM164.008 110.308L162.417 112.851L164.008 113.846L165.599 112.851L164.008 110.308ZM171.101 105.87L172.692 103.327L171.101 102.331L169.509 103.327L171.101 105.87ZM178.192 110.308L176.601 112.851L178.192 113.846L179.784 112.851L178.192 110.308ZM185.285 105.87L186.876 103.327L185.285 102.331L183.694 103.327L185.285 105.87ZM192.378 110.308L190.787 112.851L192.378 113.846L193.969 112.851L192.378 110.308ZM199.471 105.87L201.062 103.327L199.471 102.331L197.88 103.327L199.471 105.87ZM206.562 110.308L204.971 112.851L206.562 113.846L208.154 112.851L206.562 110.308ZM213.655 105.87L215.246 103.327L213.655 102.331L212.064 103.327L213.655 105.87ZM220.748 110.308L219.157 112.851L220.748 113.846L222.339 112.851L220.748 110.308ZM227.84 105.87H230.84V100.454L226.249 103.327L227.84 105.87ZM141.575 189.207L142.637 186.401L138.932 185L138.587 188.946L141.575 189.207ZM144.877 190.044L144.615 193.033L144.616 193.033L144.877 190.044ZM147.758 189.748L150.746 190.009L151.127 185.661L146.931 186.864L147.758 189.748ZM147.188 196.27L147.746 199.217L149.978 198.794L150.176 196.531L147.188 196.27ZM143.791 196.521L143.53 199.509L143.53 199.509L143.791 196.521ZM141.005 195.729L138.016 195.468L137.836 197.526L139.694 198.428L141.005 195.729ZM209.832 96.8594L212.619 97.9686L214.083 94.2898L210.146 93.8758L209.832 96.8594ZM208.938 100.146L205.955 99.8318L205.955 99.8319L208.938 100.146ZM209.184 103.031L208.87 106.015L213.205 106.471L212.082 102.259L209.184 103.031ZM202.673 102.347L199.715 102.85L200.097 105.092L202.359 105.33L202.673 102.347ZM202.481 98.9473L199.498 98.6337L199.498 98.6338L202.481 98.9473ZM203.321 96.1748L203.635 93.1913L201.583 92.9755L200.648 94.8141L203.321 96.1748ZM152.86 79.2734L154.163 76.5711L151.944 75.5012L150.463 77.4697L152.86 79.2734ZM158.383 82.3516L160.106 79.8955L158.383 82.3516ZM163.121 86.4717L165.518 88.2756L167.1 86.1732L165.222 84.3303L163.121 86.4717ZM159.197 91.6855L157.007 93.7359L159.447 96.3422L161.594 93.4895L159.197 91.6855ZM154.459 87.5654L156.182 85.1094L156.182 85.1094L154.459 87.5654ZM148.937 84.4883L146.539 82.6845L144.248 85.7302L147.747 87.2422L148.937 84.4883ZM240.252 72.8281L242.452 74.8676L245.046 72.0698L241.715 70.2091L240.252 72.8281ZM236.414 77.9375L233.838 76.4002L236.414 77.9375ZM233.759 83.708L232.296 86.3272L235.445 88.0862L236.601 84.6688L233.759 83.708ZM227.84 80.4023L225.042 79.3191L224.101 81.7503L226.377 83.0215L227.84 80.4023ZM230.495 74.6309L227.919 73.0935L227.919 73.0935L230.495 74.6309ZM234.333 69.5215L235.796 66.9025L233.645 65.7007L232.048 67.5774L234.333 69.5215ZM194.131 68.6348L194.417 65.6484L191.898 65.4072L191.235 67.8493L194.131 68.6348ZM200.522 69.6338L201.29 66.7336L201.29 66.7336L200.522 69.6338ZM206.562 71.9248L209.458 72.7102L210.128 70.2381L207.792 69.1883L206.562 71.9248ZM204.81 78.3867L203.466 81.0691L206.745 82.7112L207.705 79.1721L204.81 78.3867ZM198.769 76.0957L199.536 73.1955L199.536 73.1955L198.769 76.0957ZM192.378 75.0967L189.483 74.3113L188.511 77.8934L192.217 78.0924L192.378 75.0967ZM188.305 53.667L190.832 55.2834L192.808 52.1944L189.389 50.8696L188.305 53.667ZM185.395 59.4346L182.59 58.3681V58.3681L185.395 59.4346ZM183.733 65.6865L182.65 68.4839L186.111 69.8249L186.696 66.1596L183.733 65.6865ZM177.49 63.2676L174.55 62.671L174.047 65.1508L176.406 66.0649L177.49 63.2676ZM179.151 57.0156L176.347 55.9492L176.347 55.9492L179.151 57.0156ZM182.062 51.248L183.145 48.4507L180.757 47.5252L179.469 49.7392L182.062 51.248ZM134.307 38.0215L136.717 36.2357L135.211 34.2025L132.953 35.3443L134.307 38.0215ZM137.841 43.4395L140.51 42.0692L140.51 42.0692L137.841 43.4395ZM140.18 49.4619L141.533 52.1393L143.819 50.9836L143.036 48.5446L140.18 49.4619ZM134.204 52.4824L131.312 53.279L132.285 56.8138L135.557 55.1598L134.204 52.4824ZM131.865 46.4609L134.534 45.0907L134.534 45.0907L131.865 46.4609ZM128.331 41.043L126.977 38.3658L123.665 40.0405L125.997 42.9279L128.331 41.043ZM167.825 46.1445L170.031 48.1781L172.713 45.2686L169.187 43.4716L167.825 46.1445ZM165.813 48.8916L163.141 47.5294L163.14 47.5296L165.813 48.8916ZM165.008 51.6738L163.646 54.3469L167.53 56.3254L167.991 51.9914L165.008 51.6738ZM159.175 48.7021L156.233 48.115L155.788 50.3436L157.813 51.3752L159.175 48.7021ZM160.215 45.459L157.542 44.097L157.542 44.097L160.215 45.459ZM161.992 43.1719L163.354 40.499L161.516 39.5622L159.984 40.9434L161.992 43.1719ZM249.515 32.0156L252.222 30.7227L251.131 28.4395L248.697 29.1292L249.515 32.0156ZM251.95 38.0088L254.831 37.1731L254.831 37.173L251.95 38.0088ZM253.097 44.3662L253.915 47.2526L256.379 46.5542L256.076 44.0107L253.097 44.3662ZM246.655 46.1914L243.664 46.4215L243.945 50.0774L247.473 49.0778L246.655 46.1914ZM245.508 39.834L248.389 38.9982L248.389 38.9982L245.508 39.834ZM243.072 33.8408L242.255 30.9544L238.683 31.9662L240.422 35.2459L243.072 33.8408ZM186.771 22.5342L189.056 20.5901L187.46 18.7137L185.309 19.915L186.771 22.5342ZM190.61 27.6436L193.187 26.1063L193.187 26.1062L190.61 27.6436ZM193.265 33.4141L194.728 36.0331L197.004 34.7617L196.062 32.3308L193.265 33.4141ZM187.346 36.7207L184.504 37.6815L185.659 41.0993L188.809 39.3397L187.346 36.7207ZM184.691 30.9492L187.268 29.4119L187.268 29.4119L184.691 30.9492ZM180.853 25.8398L179.39 23.2206L176.058 25.0811L178.652 27.8794L180.853 25.8398ZM229.613 19.6328L231.813 21.6723L234.407 18.8745L231.076 17.0138L229.613 19.6328ZM225.775 24.7422L223.199 23.2049L225.775 24.7422ZM223.12 30.5127L221.657 33.1319L224.807 34.8909L225.962 31.4735L223.12 30.5127ZM217.201 27.207L214.404 26.1237L213.462 28.555L215.738 29.8262L217.201 27.207ZM219.856 21.4355L217.28 19.8982L217.28 19.8982L219.856 21.4355ZM223.694 16.3262L225.157 13.7072L223.006 12.5054L221.41 14.382L223.694 16.3262ZM243.494 193.388L242.764 196.297C243.607 196.509 244.364 196.829 245.581 197.262C246.655 197.644 248.053 198.095 249.572 198.155L249.69 195.157L249.808 192.16C249.256 192.138 248.585 191.962 247.593 191.609C246.745 191.307 245.44 190.783 244.224 190.478L243.494 193.388ZM249.69 195.157L249.573 198.155C250.717 198.2 253.148 198.182 255.507 198.113C257.8 198.046 260.371 197.921 261.66 197.703L261.158 194.745L260.657 191.787C259.859 191.923 257.733 192.045 255.331 192.116C252.996 192.184 250.736 192.196 249.808 192.16L249.69 195.157ZM261.158 194.745L258.16 194.654L257.961 201.181L260.96 201.272L263.959 201.364L264.157 194.836L261.158 194.745ZM260.96 201.272L260.584 198.296C258.003 198.622 253.27 199.029 249.774 198.698L249.491 201.685L249.208 204.671C253.386 205.067 258.655 204.587 261.336 204.249L260.96 201.272ZM249.491 201.685L249.774 198.698C248.144 198.544 247.565 198.308 247.146 198.123C246.568 197.866 245.603 197.329 243.902 196.977L243.295 199.915L242.688 202.853C243.591 203.04 243.806 203.205 244.715 203.608C245.785 204.082 247.002 204.462 249.208 204.671L249.491 201.685ZM243.295 199.915L246.294 200.007L246.493 193.479L243.494 193.388L240.496 193.296L240.296 199.824L243.295 199.915ZM126.542 200.517L125.905 197.585C123.338 198.143 121.438 198.429 120.14 198.496L120.295 201.492L120.449 204.488C122.226 204.397 124.492 204.032 127.179 203.448L126.542 200.517ZM120.295 201.492L120.14 198.496C118.844 198.563 116.941 198.473 114.362 198.181L114.024 201.162L113.687 204.143C116.394 204.449 118.672 204.58 120.449 204.488L120.295 201.492ZM114.024 201.162L117.024 201.108L116.906 194.583L113.906 194.638L110.907 194.692L111.025 201.216L114.024 201.162ZM113.906 194.638L113.443 197.602C115.738 197.96 118.035 198.082 120.331 197.964L120.177 194.968L120.022 191.972C118.146 192.069 116.263 191.97 114.37 191.674L113.906 194.638ZM120.177 194.968L120.331 197.964C122.627 197.845 124.912 197.487 127.182 196.895L126.424 193.992L125.666 191.089C123.779 191.582 121.899 191.875 120.022 191.972L120.177 194.968ZM126.424 193.992L123.424 194.047L123.542 200.571L126.542 200.517L129.542 200.462L129.423 193.938L126.424 193.992ZM227.84 135.335L225.157 136.677L225.158 136.679L227.841 135.337L230.524 133.995L230.523 133.993L227.84 135.335ZM227.841 135.337H224.841V150.68H227.841H230.841V135.337H227.841ZM227.841 150.68L230.778 150.069C230.78 150.08 230.782 150.088 230.783 150.093C230.784 150.097 230.785 150.101 230.784 150.1C230.784 150.1 230.784 150.099 230.784 150.097C230.783 150.096 230.783 150.093 230.782 150.09C230.781 150.085 230.779 150.075 230.777 150.064L227.84 150.675L224.903 151.285C224.9 151.275 224.899 151.267 224.898 151.262C224.897 151.257 224.896 151.253 224.896 151.254C224.896 151.254 224.897 151.256 224.897 151.257C224.897 151.259 224.898 151.261 224.898 151.264C224.899 151.27 224.901 151.279 224.904 151.29L227.841 150.68ZM227.84 150.675H224.84V195.371H227.84H230.84V150.675H227.84ZM227.84 195.371L224.84 195.371C224.84 196.213 224.173 196.846 223.407 196.846V199.846V202.846C227.54 202.846 230.839 199.473 230.84 195.371L227.84 195.371ZM223.407 199.846V196.846H161.348V199.846V202.846H223.407V199.846ZM161.348 199.846L161.348 196.846C161.303 196.846 161.254 196.843 161.201 196.838L160.896 199.822L160.59 202.807C160.835 202.832 161.087 202.846 161.347 202.846L161.348 199.846ZM160.896 199.822L161.201 196.838C160.922 196.809 160.664 196.698 160.449 196.519L158.529 198.824L156.61 201.13C157.709 202.045 159.082 202.652 160.59 202.807L160.896 199.822ZM158.529 198.824L160.449 196.519C160.375 196.457 160.308 196.39 160.25 196.319L157.928 198.218L155.605 200.117C155.909 200.488 156.246 200.827 156.61 201.13L158.529 198.824ZM157.928 198.218L160.25 196.319C160.041 196.064 159.915 195.738 159.915 195.371L156.915 195.371L153.915 195.371C153.915 197.167 154.549 198.825 155.605 200.117L157.928 198.218ZM156.915 195.371L159.915 195.371L159.914 183.001L156.914 183.001L153.914 183.001L153.915 195.371L156.915 195.371ZM156.914 183.001V186.001H156.915V183.001V180.001H156.914V183.001ZM156.915 183.001H159.915V105.87H156.915H153.915V183.001H156.915ZM156.915 105.87L155.324 108.413L162.417 112.851L164.008 110.308L165.599 107.764L158.506 103.327L156.915 105.87ZM164.008 110.308L165.599 112.851L172.692 108.413L171.101 105.87L169.509 103.327L162.417 107.764L164.008 110.308ZM171.101 105.87L169.509 108.413L176.601 112.851L178.192 110.308L179.784 107.764L172.692 103.327L171.101 105.87ZM178.192 110.308L179.784 112.851L186.876 108.413L185.285 105.87L183.694 103.327L176.601 107.764L178.192 110.308ZM185.285 105.87L183.694 108.413L190.787 112.851L192.378 110.308L193.969 107.764L186.876 103.327L185.285 105.87ZM192.378 110.308L193.969 112.851L201.062 108.413L199.471 105.87L197.88 103.327L190.787 107.764L192.378 110.308ZM199.471 105.87L197.879 108.413L204.971 112.851L206.562 110.308L208.154 107.764L201.062 103.327L199.471 105.87ZM206.562 110.308L208.154 112.851L215.246 108.413L213.655 105.87L212.064 103.327L204.971 107.764L206.562 110.308ZM213.655 105.87L212.064 108.413L219.157 112.851L220.748 110.308L222.339 107.764L215.246 103.327L213.655 105.87ZM220.748 110.308L222.339 112.851L229.431 108.413L227.84 105.87L226.249 103.327L219.157 107.764L220.748 110.308ZM227.84 105.87H224.84V135.335H227.84H230.84V105.87H227.84ZM141.575 189.207C140.514 192.013 140.514 192.013 140.514 192.013C140.515 192.013 140.515 192.013 140.515 192.013C140.515 192.014 140.516 192.014 140.516 192.014C140.517 192.014 140.518 192.015 140.519 192.015C140.522 192.016 140.525 192.017 140.528 192.018C140.534 192.021 140.543 192.024 140.553 192.028C140.573 192.035 140.6 192.045 140.634 192.057C140.702 192.082 140.796 192.116 140.911 192.156C141.141 192.235 141.462 192.342 141.836 192.453C142.538 192.663 143.597 192.943 144.615 193.033L144.877 190.044L145.138 187.055C144.74 187.02 144.148 186.882 143.554 186.705C143.279 186.622 143.04 186.543 142.872 186.485C142.789 186.456 142.725 186.433 142.684 186.418C142.663 186.411 142.649 186.406 142.641 186.403C142.636 186.401 142.634 186.4 142.633 186.4C142.633 186.4 142.633 186.4 142.634 186.4C142.634 186.4 142.634 186.4 142.635 186.4C142.635 186.4 142.635 186.401 142.636 186.401C142.636 186.401 142.636 186.401 142.636 186.401C142.636 186.401 142.637 186.401 141.575 189.207ZM144.877 190.044L144.616 193.033C145.671 193.125 146.665 193.013 147.336 192.903C147.685 192.845 147.979 192.782 148.192 192.732C148.3 192.707 148.388 192.685 148.454 192.668C148.487 192.659 148.515 192.651 148.536 192.645C148.547 192.642 148.557 192.64 148.565 192.637C148.569 192.636 148.573 192.635 148.576 192.634C148.577 192.634 148.579 192.633 148.58 192.633C148.581 192.633 148.582 192.633 148.583 192.632C148.583 192.632 148.583 192.632 148.584 192.632C148.584 192.632 148.585 192.632 147.758 189.748C146.931 186.864 146.932 186.864 146.932 186.864C146.932 186.864 146.933 186.864 146.933 186.864C146.934 186.864 146.934 186.863 146.935 186.863C146.936 186.863 146.937 186.863 146.938 186.862C146.94 186.862 146.941 186.861 146.942 186.861C146.945 186.86 146.946 186.86 146.946 186.86C146.945 186.86 146.94 186.862 146.93 186.864C146.911 186.869 146.874 186.879 146.821 186.891C146.716 186.916 146.555 186.95 146.361 186.982C145.946 187.051 145.5 187.087 145.138 187.055L144.877 190.044ZM147.758 189.748L144.769 189.487L144.199 196.008L147.188 196.27L150.176 196.531L150.746 190.009L147.758 189.748ZM147.188 196.27C146.629 193.322 146.63 193.322 146.63 193.322C146.63 193.322 146.63 193.322 146.63 193.322C146.631 193.322 146.631 193.322 146.631 193.322C146.632 193.321 146.632 193.321 146.632 193.321C146.633 193.321 146.633 193.321 146.633 193.321C146.632 193.321 146.629 193.322 146.625 193.323C146.617 193.324 146.601 193.327 146.58 193.331C146.537 193.338 146.47 193.35 146.382 193.364C146.207 193.392 145.959 193.428 145.674 193.462C145.057 193.533 144.451 193.567 144.052 193.532L143.791 196.521L143.53 199.509C144.548 199.598 145.64 199.506 146.367 199.421C146.754 199.376 147.089 199.327 147.33 199.289C147.45 199.269 147.549 199.252 147.619 199.24C147.655 199.234 147.683 199.229 147.705 199.225C147.715 199.223 147.724 199.221 147.731 199.22C147.734 199.219 147.737 199.219 147.74 199.218C147.741 199.218 147.742 199.218 147.743 199.218C147.744 199.218 147.744 199.217 147.744 199.217C147.745 199.217 147.745 199.217 147.745 199.217C147.745 199.217 147.746 199.217 147.188 196.27ZM143.791 196.521L144.052 193.532C143.694 193.501 143.264 193.389 142.869 193.251C142.492 193.119 142.258 193.003 142.316 193.031L141.005 195.729L139.694 198.428C139.758 198.459 141.539 199.335 143.53 199.509L143.791 196.521ZM141.005 195.729L143.993 195.991L144.564 189.468L141.575 189.207L138.587 188.946L138.016 195.468L141.005 195.729ZM209.832 96.8594C207.045 95.7502 207.045 95.7504 207.044 95.7507C207.044 95.7508 207.044 95.7511 207.044 95.7513C207.044 95.7517 207.044 95.7521 207.044 95.7526C207.043 95.7535 207.043 95.7546 207.042 95.7557C207.041 95.758 207.04 95.7608 207.039 95.7641C207.037 95.7705 207.033 95.7788 207.029 95.7889C207.022 95.809 207.011 95.8361 206.998 95.8697C206.972 95.9368 206.937 96.0301 206.895 96.1448C206.812 96.3732 206.7 96.6925 206.582 97.0638C206.36 97.762 206.062 98.8159 205.955 99.8318L208.938 100.146L211.922 100.459C211.964 100.061 212.112 99.4716 212.3 98.8803C212.387 98.6068 212.47 98.3698 212.531 98.203C212.562 98.1202 212.586 98.0562 212.601 98.0154C212.609 97.9951 212.615 97.9806 212.618 97.9726C212.619 97.9686 212.62 97.9662 212.621 97.9655C212.621 97.9652 212.621 97.9652 212.621 97.9658C212.62 97.966 212.62 97.9664 212.62 97.9669C212.62 97.9671 212.62 97.9673 212.62 97.9676C212.62 97.9678 212.62 97.968 212.62 97.9681C212.62 97.9683 212.619 97.9686 209.832 96.8594ZM208.938 100.146L205.955 99.8319C205.746 101.822 206.268 103.74 206.285 103.804L209.184 103.031L212.082 102.259C212.099 102.322 212.03 102.071 211.972 101.676C211.912 101.261 211.884 100.817 211.922 100.459L208.938 100.146ZM209.184 103.031L209.497 100.048L202.987 99.3631L202.673 102.347L202.359 105.33L208.87 106.015L209.184 103.031ZM202.673 102.347L205.63 101.843C205.634 101.867 205.562 101.443 205.506 100.869C205.446 100.255 205.424 99.6549 205.465 99.2607L202.481 98.9473L199.498 98.6338C199.392 99.6425 199.463 100.726 199.534 101.453C199.609 102.22 199.706 102.795 199.715 102.85L202.673 102.347ZM202.481 98.9473L205.465 99.2608C205.503 98.8997 205.624 98.468 205.77 98.0733C205.839 97.8887 205.903 97.7376 205.948 97.6384C205.97 97.5894 205.986 97.5545 205.995 97.5363C205.999 97.5272 206.002 97.5224 206.002 97.5221C206.002 97.522 206.001 97.523 206 97.5253C206 97.5264 205.999 97.5278 205.998 97.5295C205.998 97.5304 205.997 97.5313 205.997 97.5323C205.996 97.5328 205.996 97.5333 205.996 97.5339C205.996 97.5341 205.995 97.5346 205.995 97.5347C205.995 97.5351 205.995 97.5356 203.321 96.1748C200.648 94.8141 200.647 94.8145 200.647 94.8149C200.647 94.8151 200.647 94.8156 200.647 94.8159C200.646 94.8165 200.646 94.8171 200.646 94.8178C200.645 94.8192 200.644 94.8206 200.644 94.8221C200.642 94.8251 200.64 94.8285 200.638 94.8322C200.635 94.8397 200.63 94.8485 200.625 94.8587C200.615 94.879 200.603 94.9047 200.588 94.9356C200.558 94.9971 200.519 95.0794 200.474 95.1798C200.385 95.3794 200.267 95.6563 200.144 95.988C199.908 96.6259 199.609 97.5804 199.498 98.6337L202.481 98.9473ZM203.321 96.1748L203.008 99.1584L209.518 99.8429L209.832 96.8594L210.146 93.8758L203.635 93.1913L203.321 96.1748ZM152.86 79.2734L151.557 81.9757C153.923 83.1162 155.595 84.0607 156.66 84.8076L158.383 82.3516L160.106 79.8955C158.65 78.8746 156.642 77.7661 154.163 76.5711L152.86 79.2734ZM158.383 82.3516L156.66 84.8076C157.723 85.5534 159.167 86.7954 161.02 88.6131L163.121 86.4717L165.222 84.3303C163.277 82.4221 161.563 80.9176 160.106 79.8955L158.383 82.3516ZM163.121 86.4717L160.724 84.6677L156.8 89.8816L159.197 91.6855L161.594 93.4895L165.518 88.2756L163.121 86.4717ZM159.197 91.6855L161.387 89.6352C159.799 87.9391 158.064 86.4294 156.182 85.1094L154.459 87.5654L152.736 90.0214C154.275 91.1006 155.698 92.3376 157.007 93.7359L159.197 91.6855ZM154.459 87.5654L156.182 85.1094C154.3 83.7895 152.28 82.665 150.127 81.7344L148.937 84.4883L147.747 87.2422C149.536 88.0155 151.198 88.9424 152.736 90.0215L154.459 87.5654ZM148.937 84.4883L151.334 86.292L155.258 81.0772L152.86 79.2734L150.463 77.4697L146.539 82.6845L148.937 84.4883ZM240.252 72.8281L238.052 70.7886C236.437 72.531 235.03 74.4019 233.838 76.4002L236.414 77.9375L238.99 79.4748C239.962 77.8465 241.114 76.311 242.452 74.8676L240.252 72.8281ZM236.414 77.9375L233.838 76.4002C232.646 78.3982 231.671 80.515 230.917 82.7472L233.759 83.708L236.601 84.6688C237.221 82.8334 238.018 81.1036 238.99 79.4748L236.414 77.9375ZM233.759 83.708L235.222 81.0888L229.303 77.7831L227.84 80.4023L226.377 83.0215L232.296 86.3272L233.759 83.708ZM227.84 80.4023L230.637 81.4856C231.586 79.0364 232.4 77.2923 233.071 76.1682L230.495 74.6309L227.919 73.0935C226.995 74.6418 226.039 76.7462 225.042 79.3191L227.84 80.4023ZM230.495 74.6309L233.071 76.1682C233.743 75.0431 234.898 73.4871 236.618 71.4656L234.333 69.5215L232.048 67.5774C230.246 69.6959 228.842 71.5463 227.919 73.0935L230.495 74.6309ZM234.333 69.5215L232.87 72.1405L238.789 75.4471L240.252 72.8281L241.715 70.2091L235.796 66.9025L234.333 69.5215ZM194.131 68.6348L193.845 71.6211C196.516 71.8769 198.46 72.1913 199.755 72.534L200.522 69.6338L201.29 66.7336C199.531 66.2682 197.214 65.9162 194.417 65.6484L194.131 68.6348ZM200.522 69.6338L199.755 72.5339C201.049 72.8765 202.891 73.5639 205.333 74.6613L206.562 71.9248L207.792 69.1883C205.234 68.0391 203.049 67.1991 201.29 66.7336L200.522 69.6338ZM206.562 71.9248L203.667 71.1394L201.914 77.6013L204.81 78.3867L207.705 79.1721L209.458 72.7102L206.562 71.9248ZM204.81 78.3867L206.153 75.7043C204.017 74.6348 201.811 73.7975 199.536 73.1955L198.769 76.0957L198.001 78.9959C199.87 79.4906 201.692 80.1804 203.466 81.0691L204.81 78.3867ZM198.769 76.0957L199.536 73.1955C197.262 72.5937 194.928 72.2293 192.539 72.101L192.378 75.0967L192.217 78.0924C194.205 78.1991 196.132 78.5012 198.001 78.9959L198.769 76.0957ZM192.378 75.0967L195.273 75.8821L197.026 69.4202L194.131 68.6348L191.235 67.8493L189.483 74.3113L192.378 75.0967ZM188.305 53.667L185.777 52.0506C184.491 54.0621 183.427 56.1685 182.59 58.3681L185.395 59.4346L188.199 60.501C188.886 58.6943 189.762 56.9557 190.832 55.2834L188.305 53.667ZM185.395 59.4346L182.59 58.3681C181.754 60.5678 181.148 62.851 180.771 65.2134L183.733 65.6865L186.696 66.1596C187.01 64.1929 187.511 62.3079 188.199 60.501L185.395 59.4346ZM183.733 65.6865L184.817 62.8892L178.574 60.4702L177.49 63.2676L176.406 66.0649L182.65 68.4839L183.733 65.6865ZM177.49 63.2676L180.43 63.8641C180.964 61.2337 181.479 59.3337 181.955 58.0821L179.151 57.0156L176.347 55.9492C175.701 57.6497 175.109 59.918 174.55 62.671L177.49 63.2676ZM179.151 57.0156L181.955 58.0821C182.431 56.8307 183.308 55.0715 184.654 52.7569L182.062 51.248L179.469 49.7392C178.058 52.1628 176.994 54.2484 176.347 55.9492L179.151 57.0156ZM182.062 51.248L180.978 54.0454L187.221 56.4644L188.305 53.667L189.389 50.8696L183.145 48.4507L182.062 51.248ZM134.307 38.0215L131.896 39.8072C133.493 41.9636 134.56 43.6181 135.172 44.8097L137.841 43.4395L140.51 42.0692C139.679 40.451 138.39 38.4934 136.717 36.2357L134.307 38.0215ZM137.841 43.4395L135.172 44.8097C135.783 46.0006 136.504 47.8292 137.323 50.3792L140.18 49.4619L143.036 48.5446C142.179 45.875 141.341 43.6881 140.51 42.0692L137.841 43.4395ZM140.18 49.4619L138.826 46.7845L132.851 49.805L134.204 52.4824L135.557 55.1598L141.533 52.1393L140.18 49.4619ZM134.204 52.4824L137.096 51.6858C136.462 49.3838 135.609 47.184 134.534 45.0907L131.865 46.4609L129.196 47.8311C130.079 49.5508 130.785 51.3654 131.312 53.279L134.204 52.4824ZM131.865 46.4609L134.534 45.0907C133.459 42.9976 132.168 41.0193 130.665 39.158L128.331 41.043L125.997 42.9279C127.248 44.477 128.313 46.1112 129.196 47.8312L131.865 46.4609ZM128.331 41.043L129.685 43.7202L135.66 40.6987L134.307 38.0215L132.953 35.3443L126.977 38.3658L128.331 41.043ZM167.825 46.1445L165.62 44.111C165.583 44.1505 165.189 44.5796 164.708 45.182C164.253 45.7533 163.602 46.6247 163.141 47.5294L165.813 48.8916L168.486 50.2538C168.667 49.8996 169.013 49.407 169.398 48.9243C169.759 48.4726 170.05 48.1575 170.031 48.1781L167.825 46.1445ZM165.813 48.8916L163.14 47.5296C162.232 49.3121 162.032 51.2894 162.025 51.3562L165.008 51.6738L167.991 51.9914C167.984 52.0575 168.009 51.7976 168.097 51.4081C168.19 50.999 168.323 50.5747 168.486 50.2536L165.813 48.8916ZM165.008 51.6738L166.37 49.0007L160.537 46.0291L159.175 48.7021L157.813 51.3752L163.646 54.3469L165.008 51.6738ZM159.175 48.7021C162.117 49.2893 162.117 49.2896 162.117 49.2899C162.117 49.2899 162.117 49.2902 162.117 49.2903C162.117 49.2906 162.116 49.2909 162.116 49.2912C162.116 49.2917 162.116 49.2921 162.116 49.2923C162.116 49.2929 162.116 49.2929 162.116 49.2926C162.116 49.2919 162.117 49.2894 162.118 49.2851C162.119 49.2767 162.123 49.2615 162.127 49.2402C162.136 49.1975 162.151 49.1306 162.17 49.0447C162.21 48.8717 162.269 48.6275 162.345 48.3508C162.51 47.7525 162.706 47.1777 162.888 46.821L160.215 45.459L157.542 44.097C157.078 45.0075 156.754 46.0543 156.56 46.7607C156.457 47.1365 156.377 47.4654 156.323 47.7025C156.295 47.8216 156.274 47.919 156.259 47.9893C156.251 48.0245 156.245 48.053 156.241 48.0742C156.239 48.0847 156.237 48.0935 156.236 48.1003C156.235 48.1037 156.234 48.1066 156.234 48.1091C156.234 48.1103 156.234 48.1114 156.233 48.1124C156.233 48.1129 156.233 48.1134 156.233 48.1138C156.233 48.114 156.233 48.1143 156.233 48.1144C156.233 48.1147 156.233 48.115 159.175 48.7021ZM160.215 45.459L162.888 46.821C163.053 46.4973 163.32 46.1376 163.598 45.8217C163.728 45.6739 163.842 45.556 163.92 45.4794C163.958 45.4415 163.986 45.4149 164 45.401C164.008 45.3941 164.012 45.3904 164.012 45.3903C164.012 45.3902 164.011 45.3909 164.009 45.3926C164.008 45.3935 164.007 45.3945 164.006 45.3958C164.005 45.3965 164.004 45.3972 164.003 45.3979C164.003 45.3983 164.002 45.3987 164.002 45.3991C164.002 45.3993 164.001 45.3996 164.001 45.3997C164.001 45.4 164.001 45.4004 161.992 43.1719C159.984 40.9434 159.983 40.9437 159.983 40.9441C159.983 40.9442 159.982 40.9445 159.982 40.9447C159.982 40.9452 159.981 40.9457 159.981 40.9462C159.98 40.9472 159.978 40.9483 159.977 40.9494C159.975 40.9517 159.972 40.9543 159.969 40.9571C159.963 40.9627 159.955 40.9693 159.947 40.977C159.93 40.9924 159.909 41.0119 159.884 41.0354C159.835 41.0822 159.769 41.1452 159.691 41.2227C159.536 41.377 159.327 41.5932 159.093 41.8588C158.644 42.3696 158.023 43.1535 157.542 44.097L160.215 45.459ZM161.992 43.1719L160.63 45.8448L166.463 48.8174L167.825 46.1445L169.187 43.4716L163.354 40.499L161.992 43.1719ZM249.515 32.0156L246.808 33.3086C247.964 35.73 248.696 37.5582 249.069 38.8446L251.95 38.0088L254.831 37.173C254.325 35.426 253.433 33.2579 252.222 30.7227L249.515 32.0156ZM251.95 38.0088L249.069 38.8445C249.442 40.1302 249.8 42.0624 250.118 44.7217L253.097 44.3662L256.076 44.0107C255.743 41.227 255.338 38.9208 254.831 37.1731L251.95 38.0088ZM253.097 44.3662L252.279 41.4798L245.837 43.305L246.655 46.1914L247.473 49.0778L253.915 47.2526L253.097 44.3662ZM246.655 46.1914L249.646 45.9614C249.463 43.5801 249.044 41.2578 248.389 38.9982L245.508 39.834L242.627 40.6698C243.165 42.5268 243.512 44.4428 243.664 46.4215L246.655 46.1914ZM245.508 39.834L248.389 38.9982C247.733 36.7384 246.844 34.5499 245.723 32.4358L243.072 33.8408L240.422 35.2459C241.354 37.0052 242.088 38.8127 242.627 40.6698L245.508 39.834ZM243.072 33.8408L243.89 36.7272L250.332 34.902L249.515 32.0156L248.697 29.1292L242.255 30.9544L243.072 33.8408ZM186.771 22.5342L184.487 24.4783C186.208 26.5007 187.363 28.0563 188.034 29.1809L190.61 27.6436L193.187 26.1062C192.263 24.5585 190.858 22.7079 189.056 20.5901L186.771 22.5342ZM190.61 27.6436L188.034 29.1808C188.705 30.3046 189.519 32.0479 190.467 34.4974L193.265 33.4141L196.062 32.3308C195.066 29.7586 194.111 27.6548 193.187 26.1063L190.61 27.6436ZM193.265 33.4141L191.802 30.795L185.883 34.1017L187.346 36.7207L188.809 39.3397L194.728 36.0331L193.265 33.4141ZM187.346 36.7207L190.188 35.7599C189.433 33.5289 188.461 31.411 187.268 29.4119L184.691 30.9492L182.115 32.4865C183.087 34.1143 183.883 35.8449 184.504 37.6815L187.346 36.7207ZM184.691 30.9492L187.268 29.4119C186.075 27.4129 184.667 25.5423 183.053 23.8003L180.853 25.8398L178.652 27.8794C179.991 29.3233 181.144 30.8588 182.115 32.4866L184.691 30.9492ZM180.853 25.8398L182.315 28.459L188.234 25.1534L186.771 22.5342L185.309 19.915L179.39 23.2206L180.853 25.8398ZM229.613 19.6328L227.413 17.5933C225.798 19.3357 224.392 21.2066 223.199 23.2049L225.775 24.7422L228.352 26.2795C229.323 24.6512 230.475 23.1157 231.813 21.6723L229.613 19.6328ZM225.775 24.7422L223.199 23.2049C222.007 25.2029 221.033 27.3197 220.278 29.5519L223.12 30.5127L225.962 31.4735C226.583 29.6381 227.38 27.9083 228.352 26.2795L225.775 24.7422ZM223.12 30.5127L224.583 27.8935L218.664 24.5878L217.201 27.207L215.738 29.8262L221.657 33.1319L223.12 30.5127ZM217.201 27.207L219.999 28.2903C220.947 25.8411 221.762 24.097 222.433 22.9729L219.856 21.4355L217.28 19.8982C216.356 21.4465 215.4 23.5509 214.404 26.1237L217.201 27.207ZM219.856 21.4355L222.433 22.9729C223.104 21.8478 224.259 20.2918 225.979 18.2703L223.694 16.3262L221.41 14.382C219.607 16.5006 218.204 18.351 217.28 19.8982L219.856 21.4355ZM223.694 16.3262L222.231 18.9452L228.15 22.2518L229.613 19.6328L231.076 17.0138L225.157 13.7072L223.694 16.3262Z" fill="white" mask="url(#path-18-outside-1_17_28567)"/>
</svg>
