<svg width="27" height="18" viewBox="0 0 27 18" fill="none" xmlns="http://www.w3.org/2000/svg">
<g clip-path="url(#clip0_109_43924)">
<path d="M0 0H27V18H0V0Z" fill="white"/>
<path d="M20.9733 8.77033L18.2838 13.923C18.2258 14.0285 18.268 14.1603 18.3787 14.2183C18.4842 14.2763 18.6161 14.2341 18.6741 14.1234L21.3635 8.97074C21.4162 8.85999 21.3688 8.72814 21.258 8.68068C21.1526 8.63321 21.0313 8.67013 20.9733 8.77033Z" fill="#1583C4"/>
<path d="M21.3519 9.91365L18.3038 13.8902C18.2353 13.9904 18.2616 14.1275 18.3618 14.1961C18.4515 14.2594 18.578 14.2436 18.6519 14.1592L21.6999 10.1826C21.7737 10.0877 21.7579 9.95056 21.6577 9.87673C21.5628 9.79762 21.4257 9.81872 21.3519 9.91365Z" fill="#1583C4"/>
<path d="M19.9861 9.56015L18.2722 13.9428C18.2301 14.0536 18.2828 14.1854 18.3988 14.2276C18.5095 14.2698 18.6414 14.217 18.6836 14.101L20.3974 9.71837C20.4344 9.60234 20.3763 9.48104 20.2603 9.43885C20.1496 9.4072 20.0336 9.45994 19.9861 9.56015Z" fill="#1583C4"/>
<path d="M6.43842 9.06717C6.45952 9.15682 6.50171 9.31504 6.55444 9.51545C6.64409 9.85298 6.74428 10.1905 6.84975 10.5017C6.97104 10.8656 7.62495 12.1577 7.91499 12.5638C8.27885 13.0754 8.65854 13.5817 9.04878 14.0721C9.13315 14.1724 9.28608 14.1829 9.38628 14.0985C9.4812 14.0141 9.49702 13.8717 9.42319 13.7715C9.03823 13.2863 8.66382 12.7906 8.30522 12.2843C8.08374 11.9784 7.39819 10.6441 7.30327 10.3487C7.15034 9.8899 7.0185 9.42052 6.90249 8.95114C6.87612 8.82456 6.74956 8.74018 6.623 8.76655C6.49643 8.79292 6.41206 8.9195 6.43842 9.04607C6.43315 9.05662 6.43842 9.06189 6.43842 9.06717Z" fill="#409347"/>
<path d="M15.6654 6.06101C15.6654 6.06101 14.7373 2.25849 13.7617 2.25849C13.3979 2.25849 13.1342 2.22685 12.9496 2.59602C12.9021 2.68568 11.858 2.51164 11.9424 3.69301C11.9688 4.05691 12.0004 3.17616 12.7281 3.51369C13.0604 3.67191 11.8633 6.05574 11.8633 6.05574H15.6654V6.06101Z" fill="#FFD836"/>
<path fill-rule="evenodd" clip-rule="evenodd" d="M13.6825 2.23081C13.7084 2.23099 13.7347 2.23117 13.7614 2.23117C13.8922 2.23117 14.0193 2.29487 14.1406 2.40108C14.2621 2.5074 14.3799 2.65828 14.4927 2.83762C14.7184 3.19639 14.9266 3.67368 15.1038 4.14957C15.2811 4.62573 15.4278 5.10174 15.5302 5.45861C15.5813 5.63707 15.6215 5.7858 15.6488 5.88994C15.6625 5.94201 15.6729 5.98293 15.68 6.01086C15.6816 6.01744 15.6831 6.0233 15.6844 6.02842H15.6914V6.2788L15.6432 6.08105H11.8203L11.8395 6.04292L11.863 6.05473C11.8395 6.04292 11.8395 6.04294 11.8395 6.04292L11.8395 6.04282L11.8429 6.03613C11.8451 6.03163 11.8484 6.02495 11.8528 6.01622C11.8614 5.99876 11.8741 5.97312 11.8901 5.94042C11.9222 5.87501 11.9676 5.78138 12.021 5.66852C12.128 5.44277 12.2671 5.14024 12.3957 4.83288C12.5245 4.52528 12.6424 4.2138 12.7074 3.96985C12.74 3.84764 12.7588 3.74406 12.7597 3.66704C12.7602 3.6285 12.7561 3.5983 12.7481 3.57629C12.7403 3.55473 12.7294 3.54264 12.7166 3.5365C12.5388 3.45407 12.407 3.44753 12.3088 3.47484C12.2104 3.50222 12.1418 3.56476 12.0928 3.62831C12.0683 3.66008 12.0489 3.69183 12.0332 3.71924C12.0285 3.72748 12.024 3.73566 12.0197 3.74344C12.0103 3.76027 12.002 3.77524 11.9953 3.785C11.9926 3.78885 11.9896 3.79288 11.9861 3.79638C11.9831 3.7995 11.9776 3.8044 11.9698 3.80681C11.96 3.80983 11.9495 3.80802 11.9413 3.80156C11.9346 3.79639 11.9312 3.78961 11.9293 3.78517C11.9254 3.77599 11.9231 3.76359 11.9212 3.74981C11.9192 3.73536 11.9175 3.71683 11.9158 3.69391C11.8945 3.3948 11.9444 3.17859 12.0344 3.02172C12.1245 2.86469 12.2534 2.76955 12.3855 2.71012C12.5172 2.65087 12.6525 2.6269 12.7563 2.61207C12.7739 2.60956 12.7904 2.60733 12.8058 2.60526C12.8364 2.60111 12.8626 2.59757 12.8841 2.59357C12.9001 2.59059 12.9119 2.58764 12.9198 2.58458C12.9239 2.58299 12.926 2.58177 12.9268 2.58123C13.0218 2.39223 13.139 2.30285 13.2809 2.2625C13.3993 2.22886 13.5343 2.22979 13.6825 2.23081ZM11.9055 6.02842H15.6301C15.6297 6.0269 15.6294 6.02535 15.6289 6.02375C15.6219 5.99597 15.6115 5.9552 15.5979 5.9033C15.5706 5.79949 15.5306 5.65115 15.4796 5.47312C15.3774 5.11702 15.2311 4.6424 15.0545 4.16793C14.8777 3.69319 14.6709 3.21985 14.4482 2.86565C14.3368 2.68851 14.222 2.54232 14.106 2.44068C13.9898 2.33895 13.8745 2.28381 13.7614 2.28381C13.7338 2.28381 13.7069 2.28364 13.6807 2.28347C13.532 2.28253 13.4058 2.28173 13.2953 2.31313C13.1688 2.34911 13.0622 2.42801 12.9728 2.60679L12.9726 2.60734C12.9649 2.62186 12.9501 2.62933 12.9387 2.6337C12.9262 2.63852 12.9107 2.64217 12.8938 2.64532C12.871 2.64956 12.8426 2.65339 12.811 2.65767C12.7959 2.65971 12.7801 2.66185 12.7638 2.66418C12.6611 2.67885 12.5318 2.70201 12.407 2.75813C12.2827 2.81407 12.1634 2.90253 12.08 3.04792C11.9965 3.19348 11.9475 3.39855 11.9683 3.69012C11.9692 3.70251 11.9701 3.71329 11.971 3.72261C11.9713 3.7222 11.9715 3.7218 11.9717 3.72139C11.9763 3.71313 11.9815 3.70373 11.9875 3.69314C12.0038 3.66474 12.0245 3.63065 12.0511 3.59617C12.1043 3.5272 12.1817 3.45559 12.2947 3.42413C12.4079 3.39262 12.5529 3.40254 12.7389 3.48882L12.7391 3.48893C12.7678 3.50258 12.7865 3.52765 12.7976 3.55834C12.8086 3.58863 12.8128 3.62587 12.8124 3.66765C12.8114 3.75128 12.7912 3.85989 12.7583 3.98341C12.6923 4.23093 12.5732 4.54508 12.4443 4.85321C12.3152 5.16158 12.1757 5.4649 12.0686 5.69106C12.015 5.80415 11.9695 5.898 11.9374 5.96357C11.9245 5.98996 11.9137 6.01177 11.9055 6.02842ZM11.9486 3.75947C11.9484 3.75969 11.9484 3.75971 11.9486 3.75947V3.75947Z" fill="#231F20"/>
<path d="M24.58 2.55248L19.7865 3.71275C15.8156 4.67788 17.5663 6.05438 17.5663 6.05438L13.7642 6.68726L9.96205 6.05438C9.96205 6.05438 11.7128 4.67788 7.74194 3.71275L2.94838 2.55248C2.27338 2.38898 2.00971 2.73179 2.3894 3.32247C2.3894 3.32247 8.01088 8.80738 9.07611 9.2293C10.1413 9.65649 11.2277 9.2293 11.2277 9.2293C11.2277 9.2293 10.4419 9.68813 9.96205 10.4951C9.4769 11.302 9.71947 12.3251 7.91069 12.6152C7.62065 12.9633 7.64701 13.3535 8.06361 13.6647C8.48022 13.9706 11.8658 11.1279 11.8658 11.1279C11.8658 11.1279 10.6001 12.4148 10.6001 13.0318C10.6001 13.3008 12.9257 15.8692 13.7695 15.8692C14.6132 15.8692 16.9388 13.3008 16.9388 13.0318C16.9388 12.4148 15.6732 11.1279 15.6732 11.1279C15.6732 11.1279 19.0587 13.9706 19.4753 13.6647C19.8919 13.3588 20.0765 12.6468 19.623 12.6152C18.1464 12.5202 18.0568 11.302 17.5716 10.4951C17.0865 9.68813 16.306 9.2293 16.306 9.2293C16.306 9.2293 17.3923 9.65649 18.4576 9.2293C19.5228 8.80211 25.139 3.32247 25.139 3.32247C25.5187 2.73179 25.2603 2.38898 24.58 2.55248Z" fill="#FFD836"/>
<path fill-rule="evenodd" clip-rule="evenodd" d="M2.95354 2.52587C2.95354 2.52587 2.95354 2.52587 2.95354 2.52587L7.74709 3.68614C8.74122 3.92776 9.37975 4.19568 9.77769 4.46292C10.1759 4.73036 10.3356 4.99883 10.3662 5.24116C10.3966 5.48272 10.298 5.69157 10.194 5.83841C10.1419 5.91203 10.0879 5.97074 10.047 6.01107C10.0373 6.02059 10.0284 6.0291 10.0203 6.03654L13.7632 6.65955L17.506 6.03654C17.498 6.0291 17.489 6.02059 17.4794 6.01107C17.4384 5.97074 17.3845 5.91203 17.3323 5.83841C17.2283 5.69157 17.1297 5.48272 17.1602 5.24116C17.1908 4.99883 17.3504 4.73036 17.7487 4.46292C18.1466 4.19568 18.7851 3.92777 19.7792 3.68615L24.5728 2.52587C24.745 2.48449 24.8924 2.47464 25.0109 2.49374C25.1295 2.51287 25.2209 2.5614 25.2772 2.63805C25.3335 2.71479 25.3518 2.81564 25.3324 2.93322C25.3131 3.05057 25.2562 3.18615 25.1601 3.33568L25.1585 3.3382L25.1564 3.34029L25.138 3.32145C25.1564 3.34029 25.1563 3.34031 25.1563 3.34035L25.1561 3.34054L25.1402 3.35603C25.1295 3.36642 25.1137 3.38184 25.093 3.40196C25.0516 3.44221 24.9907 3.5013 24.9129 3.57665C24.7572 3.72734 24.5336 3.94309 24.262 4.20332C23.7188 4.72377 22.9833 5.42219 22.2146 6.13397C21.4459 6.84572 20.6437 7.57102 19.9669 8.14518C19.6286 8.43224 19.3213 8.68172 19.0652 8.8729C18.8098 9.06352 18.6031 9.19787 18.4663 9.2527C17.9281 9.46854 17.3853 9.46831 16.9778 9.41456C16.774 9.38767 16.6037 9.34733 16.4842 9.31368C16.483 9.31335 16.4819 9.31302 16.4807 9.31269C16.5588 9.36765 16.6599 9.44328 16.7728 9.53843C17.0299 9.75515 17.3486 10.0737 17.5931 10.4805C17.7078 10.6712 17.8005 10.8845 17.8935 11.0987C17.8998 11.1131 17.906 11.1275 17.9123 11.1419C18.012 11.3712 18.1141 11.6002 18.2466 11.8069C18.379 12.0132 18.5412 12.1964 18.7607 12.334C18.9801 12.4715 19.2582 12.5644 19.6236 12.5879L19.6238 12.5879C19.7452 12.5964 19.8274 12.6512 19.8721 12.7362C19.9159 12.8194 19.9216 12.9277 19.9003 13.0409C19.8575 13.2675 19.7037 13.5279 19.4899 13.6849C19.4565 13.7094 19.4113 13.7161 19.3607 13.7118C19.3098 13.7075 19.2496 13.6918 19.1823 13.6672C19.0475 13.6179 18.8795 13.531 18.691 13.419C18.3138 13.1948 17.8507 12.8674 17.4012 12.5311C16.9517 12.1946 16.5152 11.8486 16.1911 11.5868C16.1066 11.5184 16.0297 11.4558 15.9622 11.4006C16.0693 11.5207 16.1974 11.6696 16.3256 11.8311C16.4842 12.031 16.6433 12.2509 16.7629 12.4599C16.8819 12.6679 16.9641 12.8692 16.9641 13.0308C16.9641 13.0546 16.9521 13.0854 16.9349 13.119C16.9169 13.1539 16.8909 13.1963 16.858 13.2447C16.7921 13.3417 16.6973 13.4648 16.5815 13.6044C16.3496 13.8838 16.032 14.2307 15.688 14.5691C15.344 14.9075 14.9732 15.2379 14.6351 15.4839C14.466 15.6069 14.3046 15.7093 14.1585 15.7809C14.0128 15.8523 13.8798 15.8945 13.7684 15.8945C13.657 15.8945 13.5241 15.8523 13.3784 15.7809C13.2322 15.7093 13.0708 15.6069 12.9018 15.4839C12.5637 15.2379 12.1928 14.9075 11.8489 14.5691C11.5049 14.2307 11.1872 13.8838 10.9554 13.6044C10.8395 13.4648 10.7448 13.3417 10.6789 13.2447C10.646 13.1963 10.6199 13.1539 10.602 13.119C10.5848 13.0854 10.5728 13.0546 10.5728 13.0308C10.5728 12.8692 10.655 12.6679 10.774 12.4599C10.8936 12.2509 11.0527 12.031 11.2113 11.8311C11.3394 11.6696 11.4675 11.5207 11.5747 11.4006C11.5072 11.4558 11.4303 11.5184 11.3458 11.5868C11.0217 11.8486 10.5852 12.1946 10.1356 12.5311C9.68622 12.8674 9.22307 13.1948 8.84587 13.419C8.6574 13.531 8.48934 13.6179 8.35461 13.6672C8.2873 13.6918 8.2271 13.7075 8.17614 13.7118C8.12561 13.7161 8.08043 13.7094 8.04701 13.6849L8.04684 13.6848C7.83462 13.5262 7.71856 13.3451 7.69501 13.156C7.67147 12.9669 7.74113 12.7753 7.88944 12.5973L7.89575 12.5897L7.90549 12.5882C8.3553 12.516 8.67569 12.3986 8.9111 12.2517C9.14618 12.1049 9.29772 11.928 9.40889 11.7348C9.51692 11.547 9.58682 11.3441 9.65828 11.1367C9.66062 11.1299 9.66296 11.1231 9.6653 11.1163C9.73896 10.9027 9.81554 10.6849 9.93841 10.4805C9.93843 10.4805 9.93845 10.4805 9.93847 10.4805L9.96096 10.494L9.93841 10.4805C9.93841 10.4806 9.93842 10.4805 9.93841 10.4805C10.1804 10.0737 10.4991 9.75513 10.7569 9.53841C10.8697 9.44352 10.9711 9.36803 11.0494 9.31311C11.1082 9.29651 11.1546 9.28156 11.1864 9.2707C11.2025 9.26521 11.2149 9.26076 11.2233 9.25766C11.2275 9.25612 11.2307 9.25491 11.2329 9.25408L11.2354 9.25312L11.236 9.25287L11.2362 9.2528L11.2362 9.25277C11.2363 9.25277 11.2363 9.25276 11.2266 9.22827C11.2134 9.20554 11.2134 9.20555 11.2134 9.20555L11.2132 9.20565L11.2127 9.20593L11.2109 9.20699C11.2094 9.20792 11.2071 9.20929 11.2041 9.21111C11.1981 9.21474 11.1893 9.22015 11.1779 9.22729C11.1552 9.24158 11.1224 9.26284 11.0815 9.29086C11.0713 9.29786 11.0606 9.30527 11.0494 9.31311C11.0487 9.3133 11.0481 9.31349 11.0474 9.31368C10.9279 9.34733 10.7576 9.38767 10.5538 9.41456C10.1464 9.46831 9.60356 9.46854 9.06537 9.25273C9.06536 9.25273 9.06538 9.25273 9.06537 9.25273L9.07508 9.22827L9.06529 9.2527C9.06532 9.25271 9.06534 9.25272 9.06537 9.25273C8.92859 9.19855 8.72172 9.06468 8.46621 8.87444C8.20992 8.68361 7.90248 8.43435 7.56387 8.14741C6.88663 7.5735 6.08375 6.84803 5.31439 6.13596C4.54498 5.42384 3.80889 4.72493 3.26516 4.20406C2.99329 3.94362 2.76951 3.72769 2.61369 3.57686C2.53578 3.50145 2.47486 3.44231 2.43341 3.40202C2.41269 3.38188 2.39684 3.36645 2.38616 3.35605L2.37005 3.34035C2.37001 3.34031 2.36999 3.34028 2.38836 3.32145L2.4105 3.30721C2.40996 3.30638 2.40942 3.30554 2.40889 3.3047L2.42288 3.31834C2.43354 3.32872 2.44939 3.34414 2.4701 3.36428C2.51152 3.40454 2.57241 3.46365 2.65029 3.53904C2.80606 3.68981 3.02978 3.90568 3.30157 4.16605C3.84516 4.68679 4.58102 5.38548 5.35013 6.09732C6.11929 6.80921 6.92152 7.53408 7.5979 8.10725C7.93611 8.39386 8.24261 8.64233 8.49764 8.83222C8.75343 9.02267 8.95525 9.1525 9.08477 9.2038L9.08488 9.20384C9.61189 9.41519 10.1448 9.41542 10.5469 9.36237C10.7478 9.33587 10.9156 9.29611 11.0331 9.26301C11.0919 9.24646 11.138 9.23159 11.1694 9.22088C11.1851 9.21553 11.1971 9.21122 11.2051 9.20827C11.2091 9.20679 11.2121 9.20565 11.2141 9.20489L11.2164 9.20403L11.217 9.20378L11.2399 9.25097L11.2398 9.25106L11.2394 9.25128L11.2378 9.25223C11.2369 9.25279 11.2356 9.25354 11.2341 9.25448C11.2332 9.25498 11.2323 9.25553 11.2313 9.25613C11.2256 9.25961 11.217 9.26486 11.206 9.27183C11.1838 9.28579 11.1515 9.30668 11.1112 9.33428C11.0307 9.3895 10.9182 9.47155 10.7907 9.5787C10.5357 9.79312 10.2216 10.1074 9.98364 10.5075L9.98357 10.5076C9.8639 10.7066 9.78888 10.9193 9.71506 11.1335L9.70746 11.1556C9.63646 11.3617 9.5651 11.5688 9.45451 11.761C9.33958 11.9607 9.18229 12.1444 8.93897 12.2963C8.69773 12.4469 8.37312 12.5655 7.92363 12.6385C7.92569 12.636 7.92777 12.6335 7.92987 12.631L7.90965 12.6141L7.91382 12.6401C7.9171 12.6396 7.92037 12.6391 7.92363 12.6385C7.78632 12.8063 7.72628 12.9812 7.74724 13.1495C7.76852 13.3203 7.87389 13.4898 8.07819 13.6425C8.07818 13.6425 8.0782 13.6425 8.07819 13.6425L8.06258 13.6637L8.07833 13.6426C8.07828 13.6425 8.07824 13.6425 8.07819 13.6425C8.09685 13.6562 8.12692 13.6631 8.17173 13.6594C8.21613 13.6556 8.27139 13.6416 8.33652 13.6178C8.46668 13.5702 8.63146 13.4852 8.81898 13.3737C9.19373 13.151 9.65508 12.825 10.1041 12.4889C10.553 12.153 10.9889 11.8074 11.3127 11.5458C11.4746 11.415 11.6084 11.3052 11.7017 11.2281C11.7483 11.1896 11.7849 11.1592 11.8098 11.1385C11.8222 11.1282 11.8317 11.1202 11.8381 11.1149L11.8472 11.1072L11.8477 11.1069L11.8478 11.1068C11.8478 11.1067 11.8478 11.1067 11.8647 11.1269C11.8835 11.1453 11.8835 11.1454 11.8835 11.1454L11.8826 11.1462L11.8799 11.149C11.8776 11.1514 11.874 11.155 11.8694 11.1598C11.8602 11.1693 11.8467 11.1834 11.8294 11.2015C11.7949 11.2378 11.7456 11.2903 11.6864 11.3553C11.568 11.4853 11.4103 11.665 11.2525 11.8638C11.0947 12.0627 10.9374 12.2803 10.8197 12.4861C10.7014 12.6929 10.6254 12.8839 10.6254 13.0308C10.6254 13.0406 10.6316 13.0614 10.6488 13.095C10.6654 13.1272 10.6901 13.1676 10.7224 13.2151C10.787 13.3101 10.8806 13.4318 10.9959 13.5708C11.2265 13.8487 11.543 14.1943 11.8858 14.5316C12.2288 14.869 12.5975 15.1974 12.9328 15.4414C13.1004 15.5634 13.2591 15.6638 13.4016 15.7337C13.5446 15.8037 13.6689 15.8419 13.7684 15.8419C13.868 15.8419 13.9923 15.8037 14.1353 15.7337C14.2778 15.6638 14.4365 15.5634 14.6041 15.4414C14.9394 15.1974 15.3081 14.869 15.6511 14.5316C15.9939 14.1943 16.3104 13.8487 16.541 13.5708C16.6563 13.4318 16.7499 13.3101 16.8144 13.2151C16.8468 13.1676 16.8715 13.1272 16.888 13.095C16.9053 13.0614 16.9115 13.0406 16.9115 13.0308C16.9115 12.8839 16.8355 12.6929 16.7172 12.4861C16.5995 12.2803 16.4422 12.0627 16.2844 11.8638C16.1266 11.665 15.9688 11.4853 15.8505 11.3553C15.7913 11.2903 15.742 11.2378 15.7075 11.2015C15.7011 11.1949 15.6953 11.1888 15.69 11.1832C15.6809 11.1737 15.6733 11.1658 15.6675 11.1598C15.6629 11.155 15.6593 11.1514 15.657 11.149L15.6543 11.1462L15.6534 11.1454C15.6534 11.1454 15.6534 11.1454 15.6561 11.1427L15.6534 11.1454L15.6891 11.1067L15.6879 11.1082C15.6891 11.1068 15.6891 11.1067 15.6891 11.1067L15.6892 11.1069L15.6897 11.1072L15.6988 11.1149C15.7052 11.1202 15.7147 11.1282 15.7271 11.1385C15.752 11.1592 15.7885 11.1896 15.8352 11.2281C15.9285 11.3052 16.0623 11.415 16.2242 11.5458C16.548 11.8074 16.9839 12.153 17.4328 12.4889C17.8818 12.825 18.3432 13.151 18.7179 13.3737C18.9054 13.4852 19.0702 13.5702 19.2004 13.6178C19.2655 13.6416 19.3208 13.6556 19.3652 13.6594C19.41 13.6631 19.4401 13.6561 19.4587 13.6424C19.6615 13.4935 19.8082 13.245 19.8486 13.0312C19.8687 12.9243 19.8617 12.8295 19.8255 12.7607C19.7903 12.6938 19.7255 12.6478 19.6202 12.6404C19.2474 12.6164 18.9606 12.5214 18.7328 12.3786C18.505 12.2358 18.3376 12.0462 18.2023 11.8353C18.0672 11.6246 17.9637 11.3919 17.864 11.1629C17.8579 11.1488 17.8518 11.1347 17.8457 11.1206C17.7522 10.9055 17.6609 10.6952 17.548 10.5076C17.3074 10.1074 16.9933 9.7931 16.7389 9.57868C16.6118 9.47152 16.4997 9.38947 16.4196 9.33425C16.3795 9.30664 16.3474 9.28575 16.3254 9.27179C16.319 9.26773 16.3134 9.26426 16.3087 9.26138C16.3054 9.25931 16.3025 9.25755 16.3002 9.25609C16.2973 9.25435 16.2951 9.25305 16.2937 9.25219L16.2921 9.25124L16.2917 9.25102L16.2916 9.25097L16.3146 9.20382L16.3147 9.20383L16.3153 9.20403L16.3175 9.20489C16.3195 9.20565 16.3225 9.20679 16.3265 9.20827C16.3345 9.21122 16.3465 9.21553 16.3622 9.22088C16.3936 9.23159 16.4397 9.24646 16.4985 9.26301C16.616 9.29611 16.7838 9.33587 16.9847 9.36237C17.3868 9.41542 17.9197 9.41519 18.4467 9.20384C18.5763 9.15188 18.7781 9.02153 19.0337 8.83072C19.2886 8.64047 19.5949 8.39177 19.9329 8.10504C20.6088 7.53161 21.4103 6.80691 22.1788 6.09535C22.9473 5.38383 23.6825 4.68564 24.2256 4.16531C24.4971 3.90515 24.7206 3.68946 24.8763 3.53882C24.9541 3.4635 25.0149 3.40444 25.0563 3.36422C25.077 3.3441 25.0928 3.3287 25.1035 3.31832L25.1175 3.3047C25.2102 3.15992 25.2628 3.03201 25.2805 2.92468C25.2982 2.81697 25.2806 2.73157 25.2348 2.66921C25.1889 2.60677 25.1118 2.56333 25.0025 2.54571C24.8931 2.52806 24.7531 2.53668 24.5852 2.57703M24.5852 2.57703L19.7917 3.73729C18.8003 3.97824 18.1686 4.24431 17.778 4.50661C17.3877 4.76871 17.2405 5.02532 17.2124 5.24776C17.1842 5.47097 17.2751 5.66657 17.3753 5.80798C17.4252 5.87849 17.477 5.93486 17.5163 5.97357C17.5359 5.99291 17.5524 6.0078 17.5639 6.01781C17.5696 6.02281 17.5741 6.02658 17.5772 6.02908C17.5787 6.03032 17.5798 6.03125 17.5806 6.03185L17.5814 6.0325L17.5816 6.03265L17.6285 6.06952L13.7632 6.71291L9.89787 6.06952L9.94475 6.03267L9.94495 6.0325L9.94577 6.03185C9.94652 6.03125 9.94766 6.03032 9.94917 6.02908C9.95219 6.02658 9.95669 6.02281 9.96244 6.01781C9.97393 6.0078 9.99039 5.99291 10.01 5.97357C10.0493 5.93486 10.1011 5.87849 10.1511 5.80798C10.2512 5.66657 10.3421 5.47097 10.3139 5.24776C10.2859 5.02532 10.1386 4.76871 9.74835 4.50661C9.35775 4.24431 8.72603 3.97824 7.73471 3.7373M7.73471 3.7373L2.94116 2.57703C2.77456 2.53668 2.63522 2.52806 2.52604 2.54571C2.41701 2.56333 2.33972 2.60677 2.29351 2.66928C2.24737 2.73169 2.22926 2.81711 2.24658 2.92477C2.26385 3.03206 2.31618 3.15995 2.40889 3.3047L2.4068 3.30267C2.40676 3.30263 2.40674 3.30261 2.38836 3.32145L2.36999 3.34028L2.36784 3.3382L2.36623 3.33568C2.27009 3.18612 2.21351 3.05051 2.19462 2.93313C2.17569 2.81549 2.19449 2.71467 2.25119 2.63799C2.30781 2.5614 2.39926 2.51287 2.51765 2.49374C2.63589 2.47463 2.78264 2.48448 2.95354 2.52587M11.8647 11.1269L11.8835 11.1454L11.8478 11.1068L11.8647 11.1269Z" fill="#231F20"/>
<path d="M10.6172 5.89453V10.1295C10.6172 12.5397 13.7654 13.2781 13.7654 13.2781C13.7654 13.2781 16.9137 12.5397 16.9137 10.1295V5.89453H10.6172Z" fill="white"/>
<path fill-rule="evenodd" clip-rule="evenodd" d="M10.6162 5.87109H16.939V10.1324C16.939 11.3508 16.1428 12.145 15.3523 12.6329C14.9568 12.877 14.5616 13.0454 14.2653 13.1527C14.1171 13.2063 13.9936 13.2448 13.907 13.2698C13.8637 13.2823 13.8297 13.2915 13.8064 13.2975C13.7947 13.3006 13.7858 13.3028 13.7797 13.3043C13.7767 13.3051 13.7744 13.3056 13.7728 13.306L13.7711 13.3064L13.7706 13.3065L13.7705 13.3066C13.7704 13.3066 13.7704 13.3066 13.7644 13.2809C13.7584 13.3066 13.7584 13.3066 13.7583 13.3066L13.7582 13.3065L13.7577 13.3064L13.756 13.306C13.7544 13.3056 13.7521 13.3051 13.7491 13.3043C13.743 13.3028 13.7341 13.3006 13.7224 13.2975C13.6991 13.2915 13.6651 13.2823 13.6218 13.2698C13.5353 13.2448 13.4117 13.2063 13.2635 13.1527C12.9672 13.0454 12.572 12.877 12.1765 12.6329C11.3861 12.145 10.5898 11.3508 10.5898 10.1324V5.89741H10.6162V5.87109ZM10.6425 5.92373V10.1324C10.6425 11.3242 11.4204 12.1043 12.2041 12.5881C12.5957 12.8298 12.9874 12.9967 13.2814 13.1032C13.4284 13.1564 13.5508 13.1945 13.6364 13.2192C13.6792 13.2316 13.7128 13.2407 13.7357 13.2466C13.7471 13.2496 13.7558 13.2518 13.7617 13.2532C13.7627 13.2534 13.7636 13.2537 13.7644 13.2539C13.7652 13.2537 13.7661 13.2534 13.7671 13.2532C13.773 13.2518 13.7817 13.2496 13.7931 13.2466C13.816 13.2407 13.8496 13.2316 13.8924 13.2192C13.978 13.1945 14.1004 13.1564 14.2474 13.1032C14.5414 12.9967 14.9331 12.8298 15.3247 12.5881C16.1084 12.1043 16.8863 11.3242 16.8863 10.1324V5.92373H10.6425ZM13.7644 13.2809L13.7584 13.3066L13.7644 13.308L13.7704 13.3066L13.7644 13.2809Z" fill="#231F20"/>
<path d="M11.875 7.26172V12.3933C12.3074 12.7097 12.7715 12.9312 13.1354 13.0736V7.26172H11.875ZM15.6508 7.26172V12.3933C15.2184 12.7097 14.7543 12.9312 14.3904 13.0736V7.26172H15.6508Z" fill="#D80027"/>
<path d="M10.6172 5.89453H16.9137V7.89336H10.6172V5.89453Z" fill="#0052B4"/>
<path d="M3.16953 11.1023L2.01465 8.03809H0.828125L2.50508 12.2994H3.83398L5.49511 8.03809H4.30859L3.16953 11.1023ZM23.8098 8.01172H24.8064V12.3205H23.8098V8.01172Z" fill="#1583C4"/>
</g>
<rect x="0.5" y="0.5" width="26" height="17" rx="0.5" stroke="black" stroke-opacity="0.2"/>
<defs>
<clipPath id="clip0_109_43924">
<rect width="27" height="18" rx="1" fill="white"/>
</clipPath>
</defs>
</svg>
