<svg width="27" height="18" viewBox="0 0 27 18" fill="none" xmlns="http://www.w3.org/2000/svg">
<g clip-path="url(#clip0_109_43841)">
<path d="M0 0H27V18H0V0Z" fill="#496E2D"/>
<path d="M0 5.83984V12.1686H27V5.83984H0Z" fill="black"/>
<path d="M0 5.83984H27V7.94942H0V5.83984Z" fill="#FFDA44"/>
<path d="M0 10.0586H27V12.1682H0V10.0586Z" fill="white"/>
<path d="M10.3359 0H16.6641V18H10.3359V0Z" fill="black"/>
<path d="M10.3359 0H12.4453V18H10.3359V0Z" fill="#FFDA44"/>
<path d="M14.4844 0H16.5938V18H14.4844V0Z" fill="white"/>
<path d="M13.4994 15.4962C17.0846 15.4962 19.991 12.5895 19.991 9.00395C19.991 5.41839 17.0846 2.51172 13.4994 2.51172C9.9142 2.51172 7.00781 5.41839 7.00781 9.00395C7.00781 12.5895 9.9142 15.4962 13.4994 15.4962Z" fill="#D80027"/>
<path d="M13.5004 3.08984L13.743 3.83875H14.534L13.8959 4.30813L14.1385 5.05703L13.5004 4.59292L12.8623 5.05703L13.1049 4.30813L12.4668 3.83875H13.2578L13.5004 3.08984ZM10.0252 4.21847L10.6686 4.68258L11.3066 4.21847L11.0641 4.97265L11.7021 5.43675H10.9111L10.6686 6.18566L10.4207 5.43675H9.62969L10.2678 4.97265L10.0252 4.21847ZM7.87891 7.17188H8.66992L8.9125 6.42298L9.16035 7.17188H9.95137L9.30801 7.63599L9.55586 8.39017L8.9125 7.92606L8.27441 8.39017L8.51699 7.63599L7.87891 7.17188ZM7.87891 10.8267L8.51699 10.3626L8.27441 9.60845L8.9125 10.0726L9.55586 9.60845L9.30801 10.3626L9.95137 10.8267H9.16035L8.9125 11.5809L8.66992 10.8267H7.87891ZM10.0252 13.7854L10.2678 13.0312L9.62969 12.5671H10.4207L10.6686 11.813L10.9111 12.5671H11.7021L11.0641 13.0312L11.3066 13.7854L10.6686 13.316L10.0252 13.7854ZM13.5004 14.914L13.2578 14.1599H12.4668L13.1049 13.6958L12.8623 12.9416L13.5004 13.4057L14.1385 12.9416L13.8959 13.6958L14.534 14.1599H13.743L13.5004 14.914ZM16.9756 13.7854L16.3322 13.316L15.6941 13.7854L15.9367 13.0312L15.2986 12.5671H16.0897L16.3322 11.813L16.5801 12.5671H17.3711L16.733 13.0312L16.9756 13.7854ZM19.1219 10.8267H18.3309L18.0883 11.5809L17.8404 10.8267H17.0494L17.6928 10.3626L17.4449 9.60845L18.0883 10.0726L18.7264 9.60845L18.4838 10.3626L19.1219 10.8267ZM19.1219 7.17188L18.4838 7.63599L18.7264 8.39017L18.0883 7.92606L17.4449 8.39017L17.6928 7.63599L17.0494 7.17188H17.8404L18.0883 6.42298L18.3309 7.17188H19.1219ZM16.9756 4.21847L16.733 4.97265L17.3711 5.43675H16.5801L16.3322 6.18566L16.0897 5.43675H15.2986L15.9367 4.97265L15.6941 4.21847L16.3322 4.68258L16.9756 4.21847Z" fill="#496E2D"/>
<path d="M14.7303 8.89775C14.1502 7.78495 13.9656 7.57399 13.9656 7.57399C13.9656 7.57399 13.9867 7.06242 13.9867 6.75125C13.9867 6.28715 13.5965 5.91797 13.1166 5.91797C12.6631 5.91797 12.2887 6.07091 12.2465 6.4981C12.025 6.54557 11.793 6.71433 11.793 7.06242C11.793 7.31556 11.8457 7.44741 12.0672 7.55289C12.1779 7.31029 12.2939 7.29974 12.5576 7.21536C12.5998 7.247 12.6473 7.37358 12.6947 7.39467L12.7105 7.44741C12.7105 7.44741 12.0092 7.79549 12.0092 9.07706C12.0092 10.6329 13.1693 11.4714 13.1693 11.4714L13.0744 11.4873L12.9742 11.8617H14.1344V11.482L14.7145 12.4049C14.7303 12.3891 15.2523 9.89452 14.7303 8.89775Z" fill="#496E2D"/>
</g>
<rect x="0.5" y="0.5" width="26" height="17" rx="0.5" stroke="black" stroke-opacity="0.2"/>
<defs>
<clipPath id="clip0_109_43841">
<rect width="27" height="18" rx="1" fill="white"/>
</clipPath>
</defs>
</svg>
