<svg width="375" height="225" viewBox="0 0 375 225" fill="none" xmlns="http://www.w3.org/2000/svg">
<mask id="path-1-outside-1_17_28642" maskUnits="userSpaceOnUse" x="252" y="21" width="63" height="84" fill="black">
<rect fill="white" x="252" y="21" width="63" height="84"/>
<path d="M283.146 24C298.691 24 311.293 36.8622 311.293 54.0234C311.293 76.8029 287.658 97.8552 283.704 101.218C283.372 101.5 282.921 101.5 282.589 101.218C278.635 97.8552 255 76.8029 255 54.0234C255 36.8621 267.602 24 283.146 24ZM283.053 43.4209C278.286 43.4209 274.421 47.2856 274.421 52.0527C274.421 56.8198 278.286 60.6846 283.053 60.6846C287.82 60.6845 291.685 56.8198 291.685 52.0527C291.685 47.2857 287.82 43.421 283.053 43.4209Z"/>
</mask>
<path d="M283.146 24C298.691 24 311.293 36.8622 311.293 54.0234C311.293 76.8029 287.658 97.8552 283.704 101.218C283.372 101.5 282.921 101.5 282.589 101.218C278.635 97.8552 255 76.8029 255 54.0234C255 36.8621 267.602 24 283.146 24ZM283.053 43.4209C278.286 43.4209 274.421 47.2856 274.421 52.0527C274.421 56.8198 278.286 60.6846 283.053 60.6846C287.82 60.6845 291.685 56.8198 291.685 52.0527C291.685 47.2857 287.82 43.421 283.053 43.4209Z" fill="#6F6F6F"/>
<path d="M283.146 24L283.146 21H283.146V24ZM311.293 54.0234H314.293V54.0234L311.293 54.0234ZM283.704 101.218L285.647 103.504L285.648 103.503L283.704 101.218ZM282.589 101.218L280.645 103.503L280.646 103.504L282.589 101.218ZM255 54.0234L252 54.0234V54.0234H255ZM283.053 43.4209L283.053 40.4209H283.053V43.4209ZM274.421 52.0527H271.421V52.0527L274.421 52.0527ZM283.053 60.6846V63.6846H283.053L283.053 60.6846ZM291.685 52.0527L294.685 52.0527V52.0527H291.685ZM283.146 24L283.146 27C296.892 27 308.293 38.3726 308.293 54.0235L311.293 54.0234L314.293 54.0234C314.293 35.3517 300.491 21 283.146 21L283.146 24ZM311.293 54.0234H308.293C308.293 64.4395 302.849 74.7507 296.582 83.1011C290.366 91.3827 283.653 97.3229 281.761 98.9324L283.704 101.218L285.648 103.503C287.709 101.75 294.791 95.4828 301.381 86.7028C307.919 77.9915 314.293 66.3868 314.293 54.0234H311.293ZM283.704 101.218L281.761 98.9319C282.118 98.6288 282.605 98.4294 283.147 98.4294C283.688 98.4294 284.175 98.6289 284.532 98.9319L282.589 101.218L280.646 103.504C282.098 104.738 284.195 104.738 285.647 103.504L283.704 101.218ZM282.589 101.218L284.532 98.9324C282.64 97.3229 275.927 91.3827 269.711 83.1011C263.444 74.7507 258 64.4395 258 54.0234H255H252C252 66.3868 258.374 77.9915 264.912 86.7028C271.502 95.4828 278.584 101.75 280.645 103.503L282.589 101.218ZM255 54.0234L258 54.0235C258 38.3726 269.401 27 283.146 27V24V21C265.802 21 252 35.3517 252 54.0234L255 54.0234ZM283.053 43.4209V40.4209C276.629 40.4209 271.421 45.6288 271.421 52.0527H274.421H277.421C277.421 48.9425 279.942 46.4209 283.053 46.4209V43.4209ZM274.421 52.0527L271.421 52.0527C271.421 58.4767 276.629 63.6846 283.053 63.6846V60.6846V57.6846C279.943 57.6846 277.421 55.163 277.421 52.0527L274.421 52.0527ZM283.053 60.6846L283.053 63.6846C289.477 63.6845 294.685 58.4767 294.685 52.0527L291.685 52.0527L288.685 52.0527C288.685 55.1629 286.163 57.6845 283.053 57.6846L283.053 60.6846ZM291.685 52.0527H294.685C294.685 45.6288 289.477 40.421 283.053 40.4209L283.053 43.4209L283.053 46.4209C286.163 46.4209 288.685 48.9426 288.685 52.0527H291.685Z" fill="white" mask="url(#path-1-outside-1_17_28642)"/>
<ellipse cx="189.494" cy="203.305" rx="107.065" ry="8.85181" fill="#A0A09F" fill-opacity="0.15"/>
<path fill-rule="evenodd" clip-rule="evenodd" d="M147.344 41.0215L147.344 118.58H88.332V41.0215H147.344Z" fill="white"/>
<path fill-rule="evenodd" clip-rule="evenodd" d="M174.32 179.279C174.32 194.644 161.864 207.099 146.5 207.099C131.135 207.099 118.68 194.644 118.68 179.279C118.68 163.914 131.135 151.459 146.5 151.459C161.864 151.459 174.32 163.914 174.32 179.279Z" fill="white"/>
<path fill-rule="evenodd" clip-rule="evenodd" d="M273.8 179.279C273.8 194.644 261.345 207.099 245.98 207.099C230.616 207.099 218.16 194.644 218.16 179.279C218.16 163.914 230.616 151.459 245.98 151.459C261.345 151.459 273.8 163.914 273.8 179.279Z" fill="white"/>
<path fill-rule="evenodd" clip-rule="evenodd" d="M178.567 25.8559C178.067 18.7131 183.44 12.3594 190.581 12.3594H205.327L203.946 32.0899C203.899 39.1138 198.461 45.0266 191.475 45.0266C184.49 45.0266 179.052 39.1136 179.004 32.09L178.567 25.8559Z" fill="white"/>
<path fill-rule="evenodd" clip-rule="evenodd" d="M175.597 147.05C175.3 152.444 176.632 155.44 178.459 157.499C180.236 159.501 182.604 160.809 185.471 162.392C185.783 162.565 186.101 162.74 186.425 162.921C191.177 152.326 193.294 144.569 193.239 138.906C193.204 135.302 192.288 132.681 190.718 130.686C189.395 129.006 187.48 127.607 184.855 126.474C183.131 128.837 181.132 131.974 179.426 135.324C177.308 139.484 175.783 143.697 175.597 147.05ZM179.347 177.257H110.016L110.002 174.742C109.885 154.468 119.264 139.714 132.463 130.075H86.8011L86.1782 129.676C83.9947 128.281 82.3807 126.645 81.3377 124.648C80.3003 122.662 79.9304 120.514 79.9172 118.262L79.9023 115.718H144.922C143.638 82.3599 153.741 57.522 170.404 45.8076C175.428 42.2746 180.973 41.8135 186.237 44.1654C191.347 46.4491 195.98 51.2756 199.803 57.9028C209.829 75.2827 225.501 82.0226 234.851 81.897L237.569 81.8605L237.288 86.6495C239.822 86.0979 242.606 85.787 245.521 85.7705L248.049 85.7562L248.179 108.29L245.649 108.304C244.016 108.314 242.425 108.23 240.894 108.064C244.548 116.01 248.586 126.796 249.692 137.536C264.467 139.872 272.836 148.845 277.452 157.297C279.851 161.692 281.25 165.958 282.051 169.119C282.452 170.704 282.706 172.021 282.86 172.952C282.937 173.418 282.99 173.788 283.024 174.048C283.041 174.178 283.053 174.28 283.061 174.353C283.065 174.389 283.068 174.418 283.071 174.44L283.074 174.466L283.074 174.475L283.075 174.478L283.148 175.219L283.075 174.481L283.35 177.26H189.986L189.987 177.258H179.346L179.347 177.257ZM204.552 161.136C213.385 155.595 219.909 148.051 223.764 138.952C228.035 128.87 229.096 116.72 226.187 103.023C225.23 103.028 224.219 103.034 223.262 103.039C221.376 103.05 219.699 103.06 219.057 103.064C216.814 103.076 215.303 101.392 214.545 100.188C213.701 98.8492 213.134 97.1265 213.124 95.4929L213.11 92.9636L224.324 92.8986C215.964 92.5255 209.386 91.1155 204.015 88.7703C197.994 86.1411 193.639 82.4024 190.042 77.9245C186.489 83.2292 183.581 87.8681 180.648 94.1115C191.924 97.3937 200.521 101.234 206.6 105.853C213.263 110.915 216.945 116.956 217.721 124.115C218.483 131.143 216.405 138.906 212.318 147.429C210.252 151.735 207.642 156.299 204.552 161.136Z" fill="white"/>
<path d="M144.817 53.293H90.8633V103.01H144.817V53.293Z" fill="#C2945C"/>
<path d="M144.817 103.01H90.8633V116.05H144.817V103.01Z" fill="#D90007"/>
<path d="M144.818 60.5932C144.802 60.5932 144.716 60.5918 144.7 60.5918C139.054 60.5918 134.016 67.997 130.722 79.5789C127.428 67.997 122.389 60.5918 116.743 60.5918C106.817 60.5918 98.7695 85.654 98.7695 116.052H106.759C106.759 87.8258 111.23 64.5229 116.743 64.5229C122.257 64.5229 126.729 85.6461 126.729 111.7H134.714C134.714 85.6461 139.186 64.5229 144.7 64.5229C144.716 64.5229 144.802 64.5257 144.818 64.5257V60.5932Z" fill="#FFBC0D"/>
<path d="M144.817 43.5508H90.8633V53.2935H144.817V43.5508Z" fill="#C2945C"/>
<path opacity="0.5" d="M144.817 43.5508H90.8633V53.2935H144.817V43.5508Z" fill="#E5AF71"/>
<path d="M124.386 57.5501H111.297C110.659 57.5501 110.141 57.0404 110.141 56.4121V43.5508H125.542V56.4121C125.542 57.0404 125.024 57.5501 124.386 57.5501Z" fill="#FFBC0D"/>
<path d="M171.735 177.593C171.772 178.15 171.793 178.713 171.793 179.279C171.793 193.247 160.47 204.57 146.502 204.57C132.534 204.57 121.211 193.247 121.211 179.279C121.211 178.713 121.232 178.15 121.269 177.593H171.735ZM146.502 153.988C159.033 153.988 169.433 163.103 171.44 175.063H121.562C123.57 163.103 133.971 153.988 146.502 153.988Z" fill="#292929"/>
<path d="M159.034 177.592C159.108 178.144 159.146 178.706 159.146 179.278C159.146 186.262 153.485 191.924 146.501 191.924C139.517 191.924 133.856 186.262 133.855 179.278C133.855 178.706 133.894 178.144 133.968 177.592H159.034ZM146.501 166.633C152.007 166.633 156.69 170.152 158.426 175.062H134.576C136.312 170.152 140.995 166.633 146.501 166.633Z" fill="white"/>
<circle cx="245.978" cy="179.279" r="25.2909" fill="#292929"/>
<circle cx="245.977" cy="179.278" r="12.6454" fill="white"/>
<path d="M184.6 118.581C185.241 118.581 185.647 119.269 185.338 119.831L180.221 129.119L180.229 129.112C176.811 134.545 173.366 141.633 173.056 147.244C172.401 159.112 178.957 161.998 185.279 165.521L180.568 175.062H159.334L130.887 175.064L119.743 175.062H112.515C112.383 152.21 124.831 136.735 141.194 127.879H87.5234C83.73 125.454 82.4529 122.553 82.4297 118.581H184.6ZM171.842 48.21C180.445 42.161 190.245 46.7574 197.596 59.5C208.023 77.5764 224.496 84.899 234.868 84.7598L234.539 90.3604C237.625 89.3009 241.41 88.657 245.519 88.6338L245.618 106.109C242.292 106.128 239.172 105.739 236.458 105.05C240.678 113.424 246.454 127.026 247.328 140.105C277.41 143.461 280.542 175.064 280.542 175.064H273.479C271.448 161.7 259.909 151.459 245.978 151.459C232.046 151.459 220.506 161.7 218.475 175.064H194.975C197.343 171.85 199.252 169.205 201.297 166.213C224.427 154.376 235.28 130.675 228.19 100.816C225.167 100.834 220.24 100.861 219.025 100.868C217.243 100.878 215.65 98.0247 215.637 95.8115L227.156 95.7451C228.005 93.7466 230.313 91.9858 233.542 90.7158C207.962 91.6577 197.578 84.9035 189.922 73.8906C184.893 81.3098 181.097 87.0039 177.111 96.082C227.346 109.76 223.443 132.451 192.041 175.062H183.485C199.644 143.83 199.259 130.208 185.731 124.442L189.407 117.28C189.695 116.719 189.288 116.053 188.657 116.053H147.438C146.146 83.0924 156.148 59.2431 171.842 48.21ZM201.248 31.9971C201.248 37.7966 196.797 42.4979 191.306 42.498C185.815 42.498 181.364 37.7967 181.364 31.9971L180.921 25.6797C180.513 19.854 184.879 14.8888 190.411 14.8887H202.445L201.248 31.9971Z" fill="#D90007"/>
<path fill-rule="evenodd" clip-rule="evenodd" d="M248.5 94.4997L323.5 19.4997L326.328 22.3281L251.328 97.3281L248.5 94.4997Z" fill="#DB0007"/>
<path fill-rule="evenodd" clip-rule="evenodd" d="M252.501 96.2115L323.212 25.5008L325.086 27.375L254.375 98.0857L252.501 96.2115Z" fill="white"/>
</svg>
