<svg width="72" height="72" viewBox="0 0 72 72" fill="none" xmlns="http://www.w3.org/2000/svg">
<path d="M68.4081 62.4822C68.4081 64.111 54.6238 65.4313 37.6201 65.4313C20.6163 65.4313 6.83203 64.111 6.83203 62.4822C6.83203 60.8535 20.6163 59.5332 37.6201 59.5332C54.6238 59.5332 68.4081 60.8535 68.4081 62.4822Z" fill="#A0A09F" fill-opacity="0.15"/>
<path fill-rule="evenodd" clip-rule="evenodd" d="M23.4964 13.4531L23.4964 36.3252H6.09375V13.4531H23.4964Z" fill="white"/>
<path fill-rule="evenodd" clip-rule="evenodd" d="M31.4551 54.2236C31.4551 58.7547 27.782 62.4278 23.251 62.4278C18.72 62.4278 15.0469 58.7547 15.0469 54.2236C15.0469 49.6926 18.72 46.0195 23.251 46.0195C27.782 46.0195 31.4551 49.6926 31.4551 54.2236Z" fill="white"/>
<path fill-rule="evenodd" clip-rule="evenodd" d="M60.7871 54.2236C60.7871 58.7547 57.114 62.4278 52.583 62.4278C48.052 62.4278 44.3789 58.7547 44.3789 54.2236C44.3789 49.6926 48.052 46.0195 52.583 46.0195C57.114 46.0195 60.7871 49.6926 60.7871 54.2236Z" fill="white"/>
<path fill-rule="evenodd" clip-rule="evenodd" d="M32.7087 8.98012C32.5613 6.8737 34.1456 5 36.2514 5H40.6002L40.193 10.8185C40.179 12.8899 38.5753 14.6336 36.5151 14.6336C34.4552 14.6336 32.8516 12.8898 32.8375 10.8186L32.7087 8.98012Z" fill="white"/>
<path fill-rule="evenodd" clip-rule="evenodd" d="M31.8298 44.7195C31.7421 46.3102 32.1349 47.1936 32.6738 47.8008C33.1978 48.3913 33.8962 48.777 34.7417 49.2439C34.8337 49.2947 34.9275 49.3465 35.023 49.3996C36.4244 46.2752 37.0485 43.9876 37.0323 42.3178C37.022 41.2549 36.752 40.4819 36.2889 39.8936C35.8988 39.3981 35.3339 38.9857 34.5598 38.6516C34.0514 39.3484 33.4621 40.2736 32.9591 41.2613C32.3343 42.4881 31.8845 43.7305 31.8298 44.7195ZM32.9356 53.6273H12.49L12.4857 52.8858C12.4511 46.907 15.2171 42.5561 19.1094 39.7134H5.64383L5.46013 39.5959C4.81622 39.1843 4.34025 38.7019 4.03265 38.1129C3.72673 37.5272 3.61764 36.894 3.61376 36.2299L3.60938 35.4797H22.7837C22.4049 25.6423 25.3843 18.3176 30.2982 14.863C31.78 13.8211 33.4151 13.6851 34.9674 14.3787C36.4745 15.0522 37.8406 16.4755 38.968 18.4299C41.9246 23.5552 46.5464 25.5428 49.3038 25.5058L50.1054 25.495L50.0223 26.9073C50.7697 26.7446 51.5907 26.6529 52.4502 26.6481L53.196 26.6439L53.234 33.2891L52.4882 33.2933C52.0066 33.296 51.5372 33.2715 51.086 33.2225C52.1635 35.5656 53.3542 38.7466 53.6804 41.9138C58.0375 42.6027 60.5057 45.2487 61.8667 47.7414C62.5743 49.0372 62.9868 50.2954 63.2229 51.2276C63.3413 51.6948 63.4161 52.0833 63.4616 52.358C63.4844 52.4954 63.4999 52.6045 63.5099 52.6811C63.5149 52.7193 63.5185 52.7495 63.5209 52.7709C63.5222 52.7817 63.5231 52.7903 63.5238 52.7966L63.5246 52.8044L63.5249 52.807L63.525 52.808L63.5466 53.0265L63.525 52.8088L63.6062 53.6282H36.073L36.0734 53.6278H32.9354L32.9356 53.6273ZM40.3686 48.8734C42.9735 47.2394 44.8974 45.0146 46.0342 42.3313C47.2938 39.3582 47.6066 35.7752 46.7487 31.7358C46.4666 31.7374 46.1684 31.7391 45.886 31.7407C45.33 31.7438 44.8354 31.7466 44.6462 31.7478C43.9846 31.7515 43.539 31.2548 43.3154 30.8998C43.0667 30.505 42.8994 29.997 42.8966 29.5152L42.8922 28.7693L46.1992 28.7501C43.7338 28.6401 41.7942 28.2243 40.2103 27.5327C38.4345 26.7573 37.1504 25.6548 36.0897 24.3343C35.0417 25.8986 34.1841 27.2666 33.3193 29.1078C36.6447 30.0757 39.1797 31.2083 40.9724 32.5704C42.9373 34.0633 44.0232 35.8448 44.2522 37.956C44.4769 40.0286 43.8641 42.3176 42.6586 44.831C42.0494 46.1011 41.2798 47.447 40.3686 48.8734Z" fill="white"/>
<path d="M22.7547 17.0723H6.84375V31.7339H22.7547V17.0723Z" fill="#C2945C"/>
<path d="M22.7547 31.7344H6.84375V35.58H22.7547V31.7344Z" fill="#D90007"/>
<path d="M22.7554 19.225C22.7507 19.225 22.7255 19.2246 22.7208 19.2246C21.0557 19.2246 19.57 21.4084 18.5986 24.8239C17.6272 21.4084 16.1411 19.2246 14.476 19.2246C11.549 19.2246 9.17578 26.6154 9.17578 35.5797H11.5319C11.5319 27.2559 12.8503 20.3839 14.476 20.3839C16.1021 20.3839 17.421 26.6131 17.421 34.2964H19.7758C19.7758 26.6131 21.0947 20.3839 22.7208 20.3839C22.7255 20.3839 22.7507 20.3847 22.7554 20.3847V19.225Z" fill="#FFBC0D"/>
<path d="M22.7547 14.1992H6.84375V17.0723H22.7547V14.1992Z" fill="#C2945C"/>
<path opacity="0.5" d="M22.7547 14.1992H6.84375V17.0723H22.7547V14.1992Z" fill="#E5AF71"/>
<path d="M16.7322 18.3276H12.8723C12.684 18.3276 12.5312 18.1773 12.5312 17.992V14.1992H17.0732V17.992C17.0732 18.1773 16.9204 18.3276 16.7322 18.3276Z" fill="#FFBC0D"/>
<path fill-rule="evenodd" clip-rule="evenodd" d="M23.2474 61.6822C27.3664 61.6822 30.7056 58.343 30.7056 54.2239C30.7056 54.0568 30.7001 53.891 30.6893 53.7267H15.8054C15.7946 53.891 15.7891 54.0568 15.7891 54.2239C15.7891 58.343 19.1283 61.6822 23.2474 61.6822ZM15.8922 52.9808C16.484 49.4534 19.5518 46.7656 23.2474 46.7656C26.9429 46.7656 30.0107 49.4534 30.6025 52.9808H15.8922Z" fill="#292929"/>
<path fill-rule="evenodd" clip-rule="evenodd" d="M23.2448 57.9524C25.3043 57.9524 26.9739 56.2828 26.9739 54.2233C26.9739 54.0547 26.9627 53.8887 26.9411 53.7261H19.5485C19.5268 53.8887 19.5156 54.0547 19.5156 54.2233C19.5156 56.2828 21.1852 57.9524 23.2448 57.9524ZM19.7278 52.9802C20.2397 51.5318 21.6211 50.4941 23.2448 50.4941C24.8685 50.4941 26.2498 51.5318 26.7617 52.9802H19.7278Z" fill="white"/>
<circle cx="52.5833" cy="54.2239" r="7.45829" fill="#292929"/>
<circle cx="52.5846" cy="54.2233" r="3.72914" fill="white"/>
<path fill-rule="evenodd" clip-rule="evenodd" d="M36.2071 5.74609C34.5756 5.74609 33.2882 7.2103 33.4084 8.9283L33.539 10.7914C33.539 12.5017 34.8516 13.888 36.4707 13.888C38.0903 13.888 39.4029 12.5017 39.4029 10.7914L39.756 5.74609H36.2071ZM52.5944 46.0208C48.486 46.0208 45.0829 49.0408 44.4839 52.9819H37.5527C38.2512 52.0339 38.8142 51.2541 39.4172 50.3715C46.2382 46.8807 49.439 39.8914 47.3483 31.0861L44.6455 31.1015C44.1199 31.1045 43.65 30.263 43.6461 29.6103L47.0431 29.5906C47.2935 29.0013 47.974 28.4821 48.9263 28.1076C41.3829 28.3854 38.3205 26.3934 36.0629 23.1457C34.5798 25.3337 33.4602 27.0128 32.2849 29.6899C47.0992 33.7234 45.9483 40.4153 36.6877 52.9815H34.1647C38.9299 43.771 38.8165 39.7532 34.8274 38.0528L35.5344 36.6748C35.7912 36.1742 35.4277 35.5792 34.8651 35.5792H23.5338C23.1527 25.8593 26.1028 18.8263 30.7309 15.5726C33.268 13.7887 36.1579 15.1442 38.3257 18.9021C41.4008 24.2329 46.2586 26.3921 49.3175 26.3511L49.2203 28.0027C50.1302 27.6903 51.2465 27.5003 52.4581 27.4934L52.4877 32.647C51.5067 32.6526 50.5865 32.5379 49.7861 32.3346C51.0308 34.8041 52.7342 38.8154 52.9918 42.6726C61.8629 43.6621 62.7865 52.9819 62.7865 52.9819H60.705C60.106 49.0408 56.7029 46.0208 52.5944 46.0208ZM23.5693 36.325C23.5693 36.325 23.5693 36.3251 23.5693 36.3251H4.36328C4.37013 37.4965 4.74677 38.3519 5.86555 39.0671H21.6929C16.8672 41.6787 13.1963 46.2421 13.2352 52.981H15.3671L18.6532 52.9819L27.0424 52.981H30.3281H33.3044L34.6937 50.1673C34.5896 50.1093 34.4853 50.0519 34.3811 49.9946C32.6199 49.0252 30.9066 48.0822 31.0888 44.7778C31.1803 43.1231 32.1961 41.0332 33.2039 39.4311L33.2018 39.4326L34.2994 37.4402C34.5756 36.9389 34.2129 36.325 33.6406 36.325H23.5693Z" fill="#D90007"/>
</svg>
