<svg width="27" height="18" viewBox="0 0 27 18" fill="none" xmlns="http://www.w3.org/2000/svg">
<g clip-path="url(#clip0_109_43914)">
<path d="M0 0H27V18H0V0Z" fill="#1B4991"/>
<path d="M16.7461 5.61719V11.2225C16.7461 13.954 20.3145 14.7909 20.3145 14.7909C20.3145 14.7909 23.8829 13.954 23.8829 11.2225V5.61719H16.7461Z" fill="#00A2B8"/>
<path fill-rule="evenodd" clip-rule="evenodd" d="M16.668 5.53516H23.9627V11.2194C23.9627 12.6252 23.0432 13.5383 22.141 14.0951C21.6891 14.3741 21.2377 14.5662 20.8998 14.6886C20.7307 14.7498 20.5896 14.7937 20.4906 14.8223C20.4411 14.8367 20.4021 14.8472 20.3753 14.8541C20.3619 14.8576 20.3516 14.8602 20.3445 14.862C20.341 14.8628 20.3383 14.8635 20.3364 14.8639L20.3342 14.8645L20.3335 14.8646C20.3334 14.8646 20.3334 14.8647 20.3153 14.7878C20.2973 14.8647 20.2973 14.8646 20.2972 14.8646L20.2964 14.8645L20.2943 14.8639C20.2924 14.8635 20.2897 14.8628 20.2862 14.862C20.2791 14.8602 20.2688 14.8576 20.2554 14.8541C20.2286 14.8472 20.1896 14.8367 20.1401 14.8223C20.0411 14.7937 19.9 14.7498 19.7309 14.6886C19.3929 14.5662 18.9416 14.3741 18.4897 14.0951C17.5875 13.5383 16.668 12.6252 16.668 11.2194V5.53516ZM20.3153 14.7878L20.2973 14.8647L20.3153 14.8689L20.3334 14.8647L20.3153 14.7878ZM20.3153 14.7065C20.3209 14.7051 20.3276 14.7034 20.3355 14.7013C20.361 14.6947 20.3987 14.6846 20.4467 14.6707C20.5429 14.6429 20.6806 14.6 20.846 14.5401C21.1771 14.4202 21.6179 14.2324 22.0581 13.9607C22.9401 13.4163 23.8048 12.5452 23.8048 11.2194V5.69305H16.8259V11.2194C16.8259 12.5452 17.6905 13.4163 18.5726 13.9607C19.0127 14.2324 19.4535 14.4202 19.7846 14.5401C19.9501 14.6 20.0878 14.6429 20.1839 14.6707C20.232 14.6846 20.2696 14.6947 20.2951 14.7013C20.3031 14.7034 20.3098 14.7051 20.3153 14.7065Z" fill="white"/>
<path d="M16.8281 11.1953C16.8281 13.869 20.3176 14.6848 20.3176 14.6848C20.3176 14.6848 23.8071 13.8637 23.8071 11.1953H16.8281Z" fill="#A35023"/>
<path d="M21.847 8.16168H20.8259V7.14062H19.8049V8.16168H18.7891V9.18274H19.8049V12.2406H20.8259V9.18274H21.847V8.16168Z" fill="black"/>
<path d="M13.4737 0V1.61053L11.0947 2.93158H13.4737V6.05263H10.3632L13.4737 7.77895V8.98421H12.0684L8.2 6.83158V8.98421H5.27368V6.42632L0.668421 8.98421H0V7.37368L2.37895 6.05263H0V2.93158H3.11053L0 1.2V0H1.40526L5.27368 2.14737V0H8.2V2.55789L12.8053 0H13.4737Z" fill="white"/>
<path d="M7.57895 0H5.89474V3.64737H0V5.33158H5.89474V8.98421H7.57895V5.33158H13.4737V3.64737H7.57895V0Z" fill="#D80027"/>
<path d="M8.19922 6.05469L13.4729 8.98627V8.15469L9.69396 6.05469H8.19922Z" fill="#0052B4"/>
<path d="M8.19922 6.05469L13.4729 8.98627V8.15469L9.69396 6.05469H8.19922Z" fill="white"/>
<path d="M8.2 6.05469L13.4737 8.98627V8.15469L9.69474 6.05469H8.2ZM3.77895 6.05469L0 8.15469V8.98627L5.27368 6.05469H3.77895Z" fill="#D80027"/>
<path d="M5.27368 2.92632L0 0V0.826316L3.77895 2.92632H5.27368Z" fill="#0052B4"/>
<path d="M5.27368 2.92632L0 0V0.826316L3.77895 2.92632H5.27368Z" fill="white"/>
<path d="M5.27368 2.92632L0 0V0.826316L3.77895 2.92632H5.27368ZM9.69474 2.92632L13.4737 0.826316V0L8.2 2.92632H9.69474Z" fill="#D80027"/>
</g>
<rect x="0.5" y="0.5" width="26" height="17" rx="0.5" stroke="black" stroke-opacity="0.2"/>
<defs>
<clipPath id="clip0_109_43914">
<rect width="27" height="18" rx="1" fill="white"/>
</clipPath>
</defs>
</svg>
