<svg width="27" height="18" viewBox="0 0 27 18" fill="none" xmlns="http://www.w3.org/2000/svg">
<g clip-path="url(#clip0_109_43771)">
<path d="M0 0H26.9474V17.9632H0V0Z" fill="#D80027"/>
<path d="M0.585938 0.585938H26.3596V17.3807H0.585938V0.585938Z" fill="#0052B4"/>
<path d="M13.4742 15.0137C13.4742 15.0137 17.4952 12.3137 17.4952 8.98215C17.4952 5.65058 13.4742 2.94531 13.4742 2.94531C13.4742 2.94531 9.45312 5.64531 9.45312 8.97689C9.45312 12.3085 13.4742 15.0137 13.4742 15.0137Z" fill="#7DBEF1"/>
<path d="M9.46484 9.51172H17.4964L15.9543 12.9275H10.9438L9.46484 9.51172Z" fill="#1C8AE6"/>
<path d="M10.1211 10.8359C10.1211 10.8359 12.2527 12.8465 12.8053 12.8465C13.4579 12.8465 13.4685 11.878 14.1474 11.5044C15.2106 10.9201 16.8316 10.8359 16.8316 10.8359L15.6316 13.0886L13.4737 15.0149L11.0106 12.9254L10.1211 10.8359Z" fill="#FFF042"/>
<path d="M13.4744 8.28846L12.2902 9.10951L12.706 7.73056L11.5586 6.86214L13.0007 6.83582L13.4744 5.47266L13.9481 6.83582L15.3902 6.86214L14.2428 7.73582L14.6586 9.11478L13.4744 8.28846Z" fill="#259C7B"/>
<path d="M13.1402 7.61119C13.0929 8.0954 13.0613 8.57961 13.0508 9.06382C13.035 9.69014 13.0666 10.1533 13.156 10.4322C13.2718 10.7796 13.535 11.1112 13.9034 11.427C14.1824 11.6691 14.4613 11.8533 14.6508 11.9586C14.8139 12.048 15.0192 11.9901 15.1087 11.8322C15.1982 11.6691 15.1403 11.4638 14.9824 11.3743C14.756 11.2428 14.5403 11.0901 14.3403 10.9165C14.056 10.6743 13.8613 10.4322 13.7929 10.2165C13.735 10.0375 13.7087 9.62172 13.7192 9.07435C13.7297 8.60593 13.7613 8.13751 13.8087 7.67435C13.8297 7.49014 13.6929 7.32698 13.5087 7.30593C13.3192 7.29014 13.156 7.42698 13.1402 7.61119Z" fill="#8E5715"/>
<path d="M11.4648 8.98438L12.8069 10.9949H11.4648V8.98438Z" fill="white"/>
<path fill-rule="evenodd" clip-rule="evenodd" d="M13.6498 2.68488L13.4736 2.9469L13.2975 2.68473L13.4737 2.56641L13.6498 2.68488ZM13.4736 15.0153C13.2973 15.2773 13.2972 15.2773 13.2971 15.2772L13.296 15.2764L13.2932 15.2746C13.2909 15.273 13.2876 15.2707 13.2834 15.2678C13.2776 15.2639 13.2701 15.2587 13.2609 15.2523C13.2567 15.2494 13.2521 15.2462 13.2472 15.2428C13.2161 15.221 13.1711 15.189 13.1143 15.1474C13.0006 15.0642 12.8394 14.9423 12.6464 14.7859C12.2609 14.4733 11.7462 14.0205 11.2306 13.46C10.2098 12.3503 9.13672 10.7658 9.13672 8.97848C9.13672 7.19104 10.2099 5.60783 11.2308 4.49941C11.7464 3.93955 12.2611 3.48748 12.6466 3.17539C12.8396 3.01914 13.0008 2.89748 13.1145 2.81444C13.1713 2.7729 13.2163 2.741 13.2475 2.71922C13.263 2.70832 13.2752 2.69996 13.2836 2.69419C13.2878 2.69131 13.2911 2.68907 13.2934 2.68749L13.2962 2.68561L13.2973 2.68485C13.2974 2.68478 13.2975 2.68473 13.4736 2.9469C13.6498 2.68488 13.6499 2.68494 13.65 2.68501L13.6503 2.68521L13.6512 2.68577L13.6539 2.68766C13.6563 2.68924 13.6595 2.69148 13.6638 2.69437C13.6722 2.70015 13.6843 2.70852 13.6999 2.71943C13.731 2.74125 13.776 2.77322 13.8329 2.81482C13.9465 2.89801 14.1078 3.01988 14.3007 3.17636C14.6862 3.48895 15.2009 3.94168 15.7165 4.50218C16.7373 5.61187 17.8104 7.19638 17.8104 8.98374C17.8104 10.7712 16.7373 12.3544 15.7164 13.4628C15.2007 14.0227 14.6861 14.4747 14.3005 14.7868C14.1076 14.9431 13.9463 15.0647 13.8326 15.1478C13.7758 15.1893 13.7308 15.2212 13.6997 15.243C13.6841 15.2539 13.6719 15.2623 13.6635 15.268C13.6593 15.2709 13.656 15.2731 13.6537 15.2747L13.6509 15.2766L13.6501 15.2772L13.6498 15.2774C13.6497 15.2774 13.6496 15.2775 13.4736 15.0153ZM13.4736 15.0153L13.2973 15.2773L13.4734 15.3958L13.6496 15.2775L13.4736 15.0153ZM13.4737 14.6278C13.5792 14.5504 13.7269 14.4386 13.9032 14.2959C14.2716 13.9977 14.7622 13.5665 15.2518 13.0349C16.2414 11.9605 17.1788 10.5279 17.1788 8.98374C17.1788 7.43952 16.2414 6.0056 15.2517 4.92977C14.762 4.39751 14.2714 3.9657 13.903 3.66693C13.7267 3.52399 13.5789 3.41196 13.4734 3.33442C13.3679 3.41181 13.2202 3.52361 13.044 3.66627C12.6755 3.96454 12.1849 4.39569 11.6953 4.92728C10.7057 6.00175 9.7683 7.43433 9.7683 8.97848C9.7683 10.5227 10.7058 11.9566 11.6954 13.0324C12.1851 13.5647 12.6757 13.9965 13.0442 14.2953C13.2205 14.4382 13.3682 14.5503 13.4737 14.6278Z" fill="#D80027"/>
</g>
<rect x="0.5" y="0.5" width="26" height="17" rx="0.5" stroke="black" stroke-opacity="0.2"/>
<defs>
<clipPath id="clip0_109_43771">
<rect width="27" height="18" rx="1" fill="white"/>
</clipPath>
</defs>
</svg>
