<svg width="27" height="18" viewBox="0 0 27 18" fill="none" xmlns="http://www.w3.org/2000/svg">
<g clip-path="url(#clip0_109_43687)">
<path d="M0 0H27V17.9996H0V0Z" fill="#0052B4"/>
<path d="M11.1101 4.69697L11.3044 5.29487H11.9329L11.4244 5.66433L11.6187 6.26218L11.1101 5.89267L10.6016 6.26218L10.7958 5.66433L10.2872 5.29487H10.9159L11.1101 4.69697ZM6.15842 10.3709L6.40126 11.1182H7.18701L6.55129 11.58L6.79419 12.3274L6.15842 11.8655L5.52271 12.3274L5.7655 11.58L5.12984 11.1182H5.91553L6.15842 10.3709ZM7.62866 1.8125L7.87145 2.55985H8.65724L8.02147 3.0217L8.26437 3.769L7.62866 3.3071L6.99289 3.769L7.23579 3.0217L6.60007 2.55985H7.38582L7.62866 1.8125ZM3.6653 4.74728L3.90809 5.49463H4.69383L4.05812 5.95648L4.30101 6.70378L3.6653 6.24193L3.02954 6.70378L3.27243 5.95648L2.63672 5.49463H3.42246L3.6653 4.74728Z" fill="white"/>
<path d="M25.4908 14.194H6.21195C6.21195 14.194 11.9723 9.52373 22.5909 2.54297C22.5909 2.54297 17.9269 9.34227 25.4908 14.194ZM6.21195 14.805C5.62253 14.805 5.62159 15.721 6.21195 15.721H25.4908C26.0802 15.721 26.0812 14.805 25.4908 14.805H6.21195Z" fill="#FFDA44"/>
</g>
<rect x="0.5" y="0.5" width="26" height="17" rx="0.5" stroke="black" stroke-opacity="0.2"/>
<defs>
<clipPath id="clip0_109_43687">
<rect width="27" height="18" rx="1" fill="white"/>
</clipPath>
</defs>
</svg>
