<svg width="27" height="18" viewBox="0 0 27 18" fill="none" xmlns="http://www.w3.org/2000/svg">
<g clip-path="url(#clip0_109_43745)">
<path d="M0 0H27.0527V18H0V0Z" fill="#D80027"/>
<path d="M13.5018 17.9684C18.4733 17.9684 22.5035 13.9461 22.5035 8.98421C22.5035 4.02237 18.4733 0 13.5018 0C8.53022 0 4.5 4.02237 4.5 8.98421C4.5 13.9461 8.53022 17.9684 13.5018 17.9684Z" fill="#D80027"/>
<path d="M20.1672 8.98393L17.4461 10.2629L18.8963 12.8945L15.9379 12.3313L15.5635 15.3102L13.5016 13.1155L11.4396 15.3102L11.0652 12.3313L8.10684 12.8945L9.55703 10.2629L6.83594 8.98393L9.55703 7.70498L8.10684 5.06813L11.0652 5.63656L11.4396 2.65234L13.5016 4.84708L15.5635 2.65234L15.9379 5.63656L18.8963 5.06813L17.4461 7.70498L20.1672 8.98393Z" fill="#FFDA44"/>
<path d="M13.5727 12.7517C15.658 12.7517 17.3484 11.0645 17.3484 8.98326C17.3484 6.90202 15.658 5.21484 13.5727 5.21484C11.4873 5.21484 9.79688 6.90202 9.79688 8.98326C9.79688 11.0645 11.4873 12.7517 13.5727 12.7517Z" fill="#D80027"/>
<path d="M11.2957 8.98281C11.185 8.98281 11.0795 8.98808 10.9688 8.9986C10.974 9.63018 11.2008 10.2039 11.5805 10.6565C11.7809 10.1144 12.0814 9.62492 12.4611 9.1986C12.0973 9.0565 11.707 8.98281 11.2957 8.98281ZM12.6984 11.4302C12.9727 11.5302 13.268 11.5828 13.5738 11.5828C13.8797 11.5828 14.175 11.5302 14.4492 11.4302C14.3016 10.846 13.9904 10.3249 13.5738 9.91439C13.1572 10.3249 12.8461 10.846 12.6984 11.4302ZM15.8309 7.68281C15.3826 6.90386 14.5389 6.38281 13.5738 6.38281C12.6088 6.38281 11.7703 6.90386 11.3168 7.68281C12.1395 7.68808 12.9094 7.90913 13.5738 8.29334C14.2383 7.90913 15.0082 7.68281 15.8309 7.68281ZM14.6865 9.1986C15.0662 9.61965 15.3668 10.1144 15.5672 10.6565C15.9469 10.2091 16.1736 9.63018 16.1789 8.9986C16.0734 8.98808 15.9627 8.98281 15.852 8.98281C15.4459 8.98281 15.0504 9.0565 14.6865 9.1986Z" fill="#FFDA44"/>
</g>
<rect x="0.5" y="0.5" width="26" height="17" rx="0.5" stroke="black" stroke-opacity="0.2"/>
<defs>
<clipPath id="clip0_109_43745">
<rect width="27" height="18" rx="1" fill="white"/>
</clipPath>
</defs>
</svg>
