<svg width="136" height="136" viewBox="0 0 136 136" fill="none" xmlns="http://www.w3.org/2000/svg">
<path d="M104.919 109.191C104.919 112.399 83.7899 115 57.7253 115C31.6608 115 10.5312 112.399 10.5312 109.191C10.5312 105.983 31.6608 103.383 57.7253 103.383C83.7899 103.383 104.919 105.983 104.919 109.191Z" fill="#A0A09F" fill-opacity="0.15"/>
<path d="M91.7891 48.7871C94.3119 50.7194 96.689 53.3665 98.6346 56.5641C101.793 61.3338 103.416 66.4641 103.48 70.8047L101.474 71.7228C101.737 67.6307 100.303 62.4541 97.1825 57.5584C95.5905 55.0418 93.736 52.9096 91.8008 51.2409L91.7891 48.7871Z" fill="#A0A09F"/>
<path fill-rule="evenodd" clip-rule="evenodd" d="M123.333 63.2028L132.871 84.6253C132.937 84.7834 133.781 86.8971 131.622 87.8583L110.199 97.3961C110.041 97.4628 107.927 98.3063 106.966 96.1475L97.4237 74.7134C97.3299 74.4843 96.5606 72.4341 98.6773 71.4917L120.111 61.9491C120.34 61.8552 122.39 61.0861 123.333 63.2028ZM99.7573 74.6817C99.7573 75.9448 100.781 76.9688 102.044 76.9688C103.308 76.9688 104.332 75.9448 104.332 74.6817C104.332 73.4186 103.308 72.3946 102.044 72.3946C100.781 72.3946 99.7573 73.4186 99.7573 74.6817Z" fill="#DB0007"/>
<path fill-rule="evenodd" clip-rule="evenodd" d="M114.914 71.5795C113.394 72.256 112.94 74.884 113.463 78.4443C111.167 75.6733 108.91 74.2523 107.391 74.9288C104.72 76.1178 105.554 83.8181 109.253 92.127L111.403 91.1699C107.968 83.4545 106.386 76.664 107.869 76.0036C109.353 75.343 113.127 80.5812 116.298 87.7031L118.447 86.7462C115.276 79.6244 113.908 73.3149 115.392 72.6543C116.876 71.9937 120.864 77.7127 124.299 85.4281L126.448 84.4714C122.748 76.1626 117.584 70.3904 114.914 71.5795Z" fill="#FFBC0D"/>
<path fill-rule="evenodd" clip-rule="evenodd" d="M70.9918 26.1806C70.1506 25.6925 69.1118 25.6896 68.2694 26.1732L48.1928 37.6973C47.3505 38.1808 46.8335 39.0767 46.8381 40.0451L46.8975 52.7848L4.62064 77.0526L2.64062 92.1154L20.1369 95.9985L25.5173 86.2049L36.7383 86.4691L42.1187 76.6755L53.3398 76.9397L56.8251 70.5948L68.5186 77.3795C69.3599 77.8676 70.3987 77.8704 71.241 77.3869L91.3176 65.8628C92.16 65.3792 92.6769 64.4834 92.6723 63.515L92.5632 40.2374C92.5587 39.2801 92.0453 38.3959 91.2136 37.9134L70.9918 26.1806ZM74.7162 48.9129C73.3971 46.6414 74.16 43.7482 76.4202 42.4508C78.6804 41.1535 81.582 41.9432 82.9011 44.2147C84.2202 46.4862 83.4573 49.3793 81.1971 50.6767C78.9369 51.974 76.0353 51.1844 74.7162 48.9129ZM11.0305 79.2166C10.5015 79.5188 10.3332 80.2146 10.6548 80.7706C10.9763 81.3267 11.6658 81.5325 12.1949 81.2303L49.4064 59.9737C49.9355 59.6714 50.1037 58.9757 49.7822 58.4196C49.4607 57.8635 48.7711 57.6577 48.2421 57.9599L11.0305 79.2166Z" fill="#FFBC0D"/>
<path d="M82.5332 45.2988C82.7171 45.9117 82.7715 46.5437 82.706 47.1585C81.4228 47.1585 80.2538 47.4727 79.2723 48.1319C74.4891 51.1144 74.831 60.1989 80.2403 68.4617C85.5363 76.6131 93.7378 80.6219 98.1499 77.6584C99.5706 76.7725 100.539 75.3483 101.057 73.5671C101.184 73.544 101.315 73.5325 101.449 73.5325C102.057 73.5325 102.61 73.77 103.02 74.1573C102.437 76.2905 101.299 78.0198 99.602 79.1106C93.6726 82.965 84.4215 78.4443 78.7882 69.4297C72.7 60.4764 72.3139 50.2181 77.8201 46.6798C79.1839 45.7932 80.7234 45.3498 82.3541 45.3021L82.5332 45.2988Z" fill="#A0A09F"/>
<path fill-rule="evenodd" clip-rule="evenodd" d="M4.62153 77.0519L46.8984 52.7841L46.839 40.0443C46.8344 39.0759 47.3514 38.1801 48.1937 37.6966L68.2703 26.1724C69.1127 25.6889 70.1515 25.6918 70.9927 26.1799L91.2145 37.9127C92.0462 38.3952 92.5596 39.2794 92.5641 40.2367L92.6073 49.4437C94.166 50.7508 95.6554 52.3315 97.005 54.1455C97.5747 54.9112 98.1195 55.7184 98.6341 56.5642C98.6448 56.5803 98.6554 56.5964 98.666 56.6125C98.6671 56.6142 98.6683 56.6158 98.6694 56.6175C99.3334 57.6246 99.929 58.6475 100.456 59.6755C101.81 62.3165 102.712 64.9908 103.157 67.5153C103.268 68.1499 103.351 68.775 103.405 69.3878L120.113 61.9493C120.342 61.8554 122.392 61.0862 123.335 63.2029L132.873 84.6254C132.939 84.7836 133.783 86.8973 131.624 87.8584L110.201 97.3962C110.043 97.463 107.929 98.3065 106.968 96.1476L99.4311 79.2179C98.9088 79.54 98.3617 79.7987 97.7945 79.9966C92.7746 81.7484 86.1771 78.7391 81.1884 72.7506C81.0522 72.587 80.9171 72.4212 80.7833 72.2533C80.7208 72.1748 80.6586 72.0959 80.5967 72.0165L71.2419 77.3862C70.3996 77.8697 69.3608 77.8669 68.5195 77.3788L56.8259 70.5941L53.3407 76.939L42.1196 76.6748L36.7392 86.4684L25.5182 86.2042L20.1378 95.9978L2.64152 92.1146L4.62153 77.0519ZM26.576 88.0414L21.0715 98.0609L0.628906 93.5238L2.94204 75.9269L45.0817 51.7378L45.0272 40.0528C45.0196 38.4301 45.886 36.9322 47.2918 36.1253L67.3684 24.6011C68.7729 23.7949 70.502 23.8005 71.902 24.6128L92.1238 36.3455C93.5085 37.1489 94.3683 38.6246 94.3759 40.2282L94.4152 48.6131C96.5389 50.5125 98.5043 52.8716 100.164 55.5928C102.568 59.2314 104.147 63.1017 104.859 66.7575L119.401 60.2831L119.426 60.2728C119.637 60.1864 120.531 59.8426 121.622 59.943C122.869 60.0576 124.227 60.7513 124.99 62.466L134.535 83.9047L134.542 83.9211C134.614 84.0924 134.973 84.9798 134.89 86.0777C134.846 86.6551 134.677 87.329 134.248 87.9738C133.813 88.6269 133.178 89.1499 132.361 89.5136L110.922 99.0586L110.906 99.0655C110.735 99.1377 109.847 99.4963 108.749 99.4131C108.172 99.3694 107.498 99.2003 106.853 98.7712C106.2 98.3366 105.677 97.7016 105.313 96.8846L98.534 81.6574C95.6726 82.705 92.4822 82.4188 89.4513 81.2273C86.1588 79.9329 82.9261 77.5344 80.1701 74.3504L72.1439 78.9575C70.7394 79.7637 69.0102 79.7582 67.6102 78.9459L57.521 73.092L54.3987 78.7762L43.1775 78.512L37.7971 88.3056L26.576 88.0414ZM98.8392 60.493C98.3532 59.5108 97.8007 58.5291 97.182 57.5584C97.1771 57.5507 97.1722 57.543 97.1673 57.5353C97.1553 57.5164 97.1433 57.4975 97.1313 57.4786C96.6314 56.6936 96.106 55.9464 95.5606 55.2393C95.1954 54.7659 94.8213 54.3103 94.4398 53.8736C93.8484 53.1963 93.2394 52.564 92.6192 51.9795L92.6732 63.5143C92.6778 64.4827 92.1608 65.3785 91.3185 65.862L82.1766 71.1096C82.3074 71.2689 82.4393 71.426 82.5721 71.5809C82.8426 71.8963 83.1173 72.2025 83.3954 72.499C88.4084 77.8451 94.5443 80.0793 98.1497 77.6576C98.2949 77.5671 98.4408 77.4523 98.5858 77.3192L97.4257 74.7136C97.3319 74.4845 96.5626 72.4343 98.6793 71.4918L101.496 70.2379C101.403 67.2764 100.517 63.8823 98.8392 60.493ZM99.6021 69.0978L97.9424 69.8367C96.2276 70.6002 95.5339 71.9575 95.4194 73.2045C95.3191 74.296 95.6628 75.1897 95.7492 75.4005L95.7595 75.4256L96.2726 76.5781C95.0453 76.9945 93.3734 76.9025 91.3376 76.0662C89.2941 75.2268 87.0808 73.7018 85.0132 71.5704L92.2204 67.4334C93.6261 66.6265 94.4926 65.1285 94.485 63.5058L94.4535 56.7791C94.8662 57.3362 95.2664 57.9192 95.6508 58.527L95.6542 58.5323C97.97 62.1653 99.2639 65.9007 99.6021 69.0978ZM103.019 74.1565C102.971 74.3345 102.918 74.5097 102.862 74.6819C102.647 75.3401 102.375 75.9553 102.046 76.5198C101.96 76.6678 101.87 76.8123 101.776 76.9532C101.865 76.9636 101.955 76.969 102.046 76.969C103.31 76.969 104.333 75.945 104.333 74.6819C104.333 74.6253 104.331 74.5693 104.327 74.5137C104.294 74.0492 104.121 73.6231 103.851 73.2768C103.433 72.74 102.78 72.3948 102.046 72.3948C101.84 72.3948 101.639 72.4222 101.449 72.4737C101.254 72.5261 101.07 72.6035 100.9 72.7023C100.67 72.8361 100.464 73.0092 100.294 73.2123C99.9602 73.6098 99.7593 74.1224 99.7593 74.6819C99.7593 75.0039 99.8258 75.3103 99.9459 75.5883C100.145 75.2733 100.326 74.9621 100.481 74.6819C100.835 74.0441 101.057 73.5662 101.057 73.5662C101.184 73.5432 101.315 73.5317 101.449 73.5317C101.656 73.5317 101.856 73.5592 102.046 73.6106C102.416 73.7105 102.749 73.9008 103.019 74.1565ZM79.2721 48.1311C79.9822 47.6542 80.7903 47.3579 81.6689 47.2304C82.0048 47.1817 82.351 47.1577 82.7059 47.1577C82.7412 46.8266 82.7417 46.4906 82.7059 46.1552C82.677 45.8844 82.6245 45.6141 82.5476 45.3472C82.5428 45.3308 82.538 45.3144 82.5331 45.298L82.354 45.3013C82.0536 45.3101 81.7564 45.3323 81.4627 45.3682C80.1621 45.5274 78.9326 45.9557 77.82 46.679C77.2434 47.0495 76.7315 47.4937 76.2839 48.0023C75.8647 48.4787 75.5019 49.0117 75.1955 49.5937C75.0196 49.3842 74.8592 49.1568 74.7171 48.9121C74.4923 48.525 74.328 48.1198 74.2212 47.7076C73.7016 45.7009 74.5461 43.5264 76.4211 42.4501C78.4209 41.3023 80.9227 41.7882 82.3863 43.4886C82.4258 43.5345 82.4646 43.5813 82.5026 43.629C82.6478 43.8113 82.7815 44.0064 82.902 44.2139C83.0631 44.4913 83.1931 44.778 83.2932 45.0699C83.5375 45.7826 83.603 46.5265 83.5053 47.2428C83.4224 47.8501 83.2222 48.4376 82.9141 48.9694C82.5157 49.6572 81.9368 50.2518 81.198 50.676C80.4115 51.1274 79.5474 51.3261 78.6993 51.2977C78.0708 51.2766 77.4512 51.1308 76.8785 50.8705C77.1541 50.2985 77.489 49.7799 77.8834 49.3233C78.2847 48.8586 78.7476 48.4582 79.2721 48.1311ZM79.8315 43.8379C79.0309 43.5288 78.1093 43.5701 77.3231 44.0215C76.6321 44.4181 76.1662 45.0623 75.977 45.7846C76.2486 45.5608 76.5351 45.3513 76.8366 45.1573C77.7785 44.5456 78.7851 44.1106 79.8315 43.8379ZM10.6557 80.7699C10.9772 81.326 11.6667 81.5318 12.1957 81.2296L49.4073 59.9729C49.9364 59.6707 50.1046 58.9749 49.7831 58.4189C49.4616 57.8628 48.772 57.657 48.243 57.9592L11.0314 79.2158C10.5024 79.5181 10.3341 80.2138 10.6557 80.7699Z" fill="white"/>
</svg>
