<svg width="375" height="225" viewBox="0 0 375 225" fill="none" xmlns="http://www.w3.org/2000/svg">
<path d="M143.497 65.9702C140.696 74.9745 131.204 79.9681 122.327 77.1039C113.457 74.2381 108.51 64.5829 111.307 55.576C114.104 46.5691 123.6 41.5782 132.473 44.4398C141.347 47.3081 146.294 56.9633 143.497 65.9702Z" fill="url(#paint0_linear_1584_44981)"/>
<path d="M112.899 56.0657C110.377 64.1782 114.831 72.8776 122.829 75.4562C130.826 78.0348 139.378 73.5394 141.896 65.4242C144.414 57.3091 139.964 48.6123 131.967 46.0337C123.969 43.4551 115.421 47.9531 112.899 56.0657Z" fill="white"/>
<path d="M120.141 54.0306C119.641 55.6461 121.311 57.767 124.327 59.7768C120.724 59.6471 118.163 60.4032 117.66 62.0163C116.78 64.8484 123.108 69.426 131.794 72.2292L132.503 69.946C124.439 67.3411 118.294 63.9524 118.785 62.3775C119.273 60.8 125.708 61.4756 133.152 63.8781L133.861 61.5949C126.415 59.1965 120.775 55.9667 121.26 54.3933C121.748 52.8159 128.686 53.6544 136.75 56.2593L137.457 53.9803C128.775 51.1689 121.017 51.1958 120.141 54.0306Z" fill="#FFBC0D"/>
<g style="mix-blend-mode:multiply">
<path fill-rule="evenodd" clip-rule="evenodd" d="M187.5 219.5C220.637 219.5 247.5 214.127 247.5 207.5C247.5 200.873 220.637 195.5 187.5 195.5C154.363 195.5 127.5 200.873 127.5 207.5C127.5 214.127 154.363 219.5 187.5 219.5Z" fill="#A0A09F" fill-opacity="0.15"/>
</g>
<path d="M234.227 49.337C234.145 49.337 234.065 49.3463 233.986 49.3615V35.4126C233.986 29.3854 229.096 24.5 223.064 24.5H151.577C145.545 24.5 140.655 29.3854 140.655 35.4126V45.957C140.011 46.0183 139.5 46.5577 139.5 47.2169V52.9823C139.5 53.6415 140.011 54.1814 140.655 54.2422V59.3701C140.011 59.4309 139.5 59.9708 139.5 60.63V70.5497C139.5 71.2089 140.011 71.7488 140.655 71.8096V198.587C140.655 204.614 145.545 209.5 151.577 209.5H223.064C229.097 209.5 233.986 204.614 233.986 198.587V63.9218C234.065 63.9369 234.145 63.9463 234.227 63.9463C234.927 63.9463 235.5 63.3742 235.5 62.6747V50.6086C235.5 49.9091 234.927 49.337 234.227 49.337Z" fill="#292929"/>
<path fill-rule="evenodd" clip-rule="evenodd" d="M236.986 47.349V35.4126C236.986 27.726 230.751 21.5 223.064 21.5H151.577C143.89 21.5 137.655 27.7261 137.655 35.4126V44.3026C136.942 45.0593 136.5 46.0789 136.5 47.2169V52.9823C136.5 54.1194 136.942 55.1395 137.655 55.8969V57.7154C136.942 58.4728 136.5 59.4929 136.5 60.63V70.5497C136.5 71.6868 136.942 72.7069 137.655 73.4642V198.587C137.655 206.273 143.89 212.5 151.577 212.5H223.064C230.751 212.5 236.986 206.273 236.986 198.587V65.9345C237.912 65.1509 238.5 63.9812 238.5 62.6747V50.6086C238.5 49.3019 237.911 48.1325 236.986 47.349ZM234.476 49.3615C234.395 49.3454 234.312 49.337 234.227 49.337C234.145 49.337 234.065 49.3463 233.986 49.3615V35.4126C233.986 29.3854 229.096 24.5 223.064 24.5H151.577C145.545 24.5 140.655 29.3854 140.655 35.4126V45.957C140.011 46.0183 139.5 46.5577 139.5 47.2169V52.9823C139.5 53.6415 140.011 54.1814 140.655 54.2422V59.3701C140.011 59.4309 139.5 59.9708 139.5 60.63V70.5497C139.5 71.2089 140.011 71.7488 140.655 71.8096V198.587C140.655 204.614 145.545 209.5 151.577 209.5H223.064C229.097 209.5 233.986 204.614 233.986 198.587V63.9218C234.065 63.9369 234.145 63.9463 234.227 63.9463C234.312 63.9463 234.396 63.9379 234.476 63.9218C235.058 63.8054 235.5 63.2892 235.5 62.6747V50.6086C235.5 49.9941 235.058 49.4779 234.476 49.3615Z" fill="white"/>
<path d="M192.287 31.4221H182.359C181.659 31.4221 181.086 30.85 181.086 30.1505C181.086 29.451 181.659 28.8789 182.359 28.8789H192.287C192.987 28.8789 193.56 29.451 193.56 30.1505C193.56 30.8494 192.987 31.4221 192.287 31.4221Z" fill="white"/>
<path d="M227.185 193.169C227.185 196.446 224.527 199.102 221.247 199.102H153.391C150.111 199.102 147.453 196.445 147.453 193.169V40.8075C147.453 37.531 150.111 34.875 153.391 34.875H221.248C224.527 34.875 227.185 37.531 227.185 40.8075V193.169H227.185Z" fill="white"/>
<path fill-rule="evenodd" clip-rule="evenodd" d="M193.324 46.6962C194.976 46.6962 196.314 53.6575 196.314 62.2443H198.707C198.707 52.9962 196.297 45.5 193.324 45.5C191.633 45.5 190.125 47.7535 189.138 51.2762C188.152 47.7535 186.644 45.5 184.952 45.5C181.981 45.5 179.57 52.9962 179.57 62.2443H181.963C181.963 53.6575 183.302 46.6962 184.952 46.6962C186.604 46.6962 187.942 53.1219 187.942 61.0481H190.335C190.335 53.1219 191.673 46.6962 193.324 46.6962Z" fill="#FFBC0D"/>
<path d="M170.005 97.8594H178.51C179.097 97.8594 179.573 98.3354 179.573 98.9225V107.428C179.573 108.015 179.097 108.491 178.51 108.491H170.005C169.417 108.491 168.941 108.015 168.941 107.428V98.9225C168.941 98.3354 169.417 97.8594 170.005 97.8594Z" fill="#292929"/>
<path d="M199.77 97.8594H208.275C208.862 97.8594 209.338 98.3354 209.338 98.9225V107.428C209.338 108.015 208.862 108.491 208.275 108.491H199.77C199.183 108.491 198.707 108.015 198.707 107.428V98.9225C198.707 98.3354 199.183 97.8594 199.77 97.8594Z" fill="#292929"/>
<path d="M170.005 127.627H178.51C179.097 127.627 179.573 128.103 179.573 128.69V137.195C179.573 137.782 179.097 138.258 178.51 138.258H170.005C169.417 138.258 168.941 137.782 168.941 137.195V128.69C168.941 128.103 169.417 127.627 170.005 127.627Z" fill="#292929"/>
<path d="M198.711 120.186C199.299 120.186 199.775 120.662 199.775 121.249V127.627H208.28V121.249C208.28 120.662 208.756 120.186 209.343 120.186H215.722C216.309 120.186 216.785 120.662 216.785 121.249V127.627C216.785 128.215 216.309 128.691 215.722 128.691H209.343V137.196H215.722C216.309 137.196 216.785 137.672 216.785 138.259V144.638C216.785 145.225 216.309 145.701 215.722 145.701H209.343C208.756 145.701 208.28 145.225 208.28 144.638V138.259H199.775V144.638C199.775 145.225 199.299 145.701 198.711 145.701H192.333C191.746 145.701 191.27 145.225 191.27 144.638V138.259C191.27 137.672 191.746 137.196 192.333 137.196H198.711V128.691H192.333C191.746 128.691 191.27 128.215 191.27 127.627V121.249C191.27 120.662 191.746 120.186 192.333 120.186H198.711Z" fill="#292929"/>
<path d="M182.763 120.186C185.111 120.186 187.015 122.09 187.015 124.438V141.448C187.015 143.797 185.111 145.7 182.763 145.7H165.753C163.404 145.7 161.5 143.797 161.5 141.448V124.438C161.5 122.09 163.404 120.186 165.753 120.186H182.763ZM165.752 123.375C165.165 123.375 164.689 123.85 164.688 124.438V141.448C164.689 142.035 165.165 142.511 165.752 142.511H182.762C183.349 142.511 183.825 142.035 183.825 141.448V124.438C183.825 123.85 183.349 123.375 182.762 123.375H165.752Z" fill="#292929"/>
<path d="M182.763 90.418C185.111 90.418 187.015 92.3223 187.015 94.6709V111.681C187.015 114.029 185.111 115.933 182.763 115.933H165.753C163.404 115.933 161.5 114.029 161.5 111.681V94.6709C161.5 92.3223 163.404 90.418 165.753 90.418H182.763ZM165.752 93.6074C165.165 93.6074 164.688 94.0837 164.688 94.6709V111.681C164.689 112.268 165.165 112.744 165.752 112.744H182.762C183.349 112.744 183.825 112.268 183.825 111.681V94.6709C183.825 94.0837 183.349 93.6074 182.762 93.6074H165.752Z" fill="#292929"/>
<path d="M212.532 90.418C214.881 90.418 216.784 92.3223 216.784 94.6709V111.681C216.784 114.029 214.881 115.933 212.532 115.933H195.522C193.174 115.933 191.27 114.029 191.27 111.681V94.6709C191.27 92.3223 193.174 90.418 195.522 90.418H212.532ZM195.522 93.6074C194.935 93.6074 194.459 94.083 194.459 94.6699V111.681C194.459 112.268 194.935 112.743 195.522 112.743H212.532C213.119 112.743 213.596 112.268 213.596 111.681V94.6699C213.595 94.083 213.119 93.6074 212.532 93.6074H195.522Z" fill="#292929"/>
<path d="M260.017 18.3889C259.417 17.5287 258.938 16.6183 258.26 15.7294C258.098 15.5143 257.922 15.3064 257.745 15.1129C254.895 11.4857 250.31 9.49285 244.723 9.50002C238.917 9.50002 232.709 11.6577 227.235 15.5717C215.912 23.6577 211.292 36.8762 216.858 45.1271C216.865 45.1414 216.872 45.1701 216.879 45.1844C217.655 46.3887 217.887 46.7185 218.713 47.9156C224.356 56.0661 238.176 56.0661 249.583 47.9084C260.991 39.7508 265.661 26.5394 260.017 18.3889Z" fill="url(#paint1_linear_1584_44981)"/>
<path d="M228.161 16.8957C233.36 13.1752 239.243 11.125 244.725 11.125C248.224 11.125 251.271 11.9637 253.663 13.5337C254.946 14.3795 256.04 15.4333 256.908 16.6878C259.391 20.2793 259.765 25.0823 257.952 30.2222C256.103 35.4624 252.216 40.3944 247.017 44.1149C236.365 51.7351 223.469 51.8283 218.27 44.3228C213.071 36.8173 217.508 24.5159 228.161 16.8957Z" fill="white"/>
<path d="M245.282 19.9043C246.376 21.424 238.785 28.0546 228.528 34.843L230.009 36.972C240.309 30.2123 249.698 26.0619 250.771 27.5672C251.836 29.0725 243.377 36.0401 232.111 43.2944L233.551 45.4019C245.755 37.6315 254.312 29.2948 252.386 26.5851C251.279 25.0368 247.279 25.5242 241.974 27.5744C245.988 23.7178 247.991 20.4563 246.869 18.9007C244.88 16.1553 233.515 20.3129 221.77 28.3844L223.279 30.5349C234.228 23.0727 244.189 18.3846 245.282 19.9043Z" fill="#FFBC0D"/>
<path d="M309.402 73.7441C307.098 81.1516 299.289 85.2595 291.987 82.9033C284.689 80.5457 280.62 72.6029 282.921 65.1933C285.221 57.7837 293.034 53.6779 300.333 56.032C307.633 58.3917 311.703 66.3345 309.402 73.7441Z" fill="url(#paint2_linear_1584_44981)"/>
<path d="M284.228 65.5962C282.153 72.27 285.817 79.4266 292.397 81.5479C298.976 83.6692 306.011 79.971 308.083 73.2951C310.154 66.6191 306.494 59.4646 299.914 57.3433C293.335 55.222 286.303 58.9223 284.228 65.5962Z" fill="white"/>
<path d="M290.19 63.9219C289.779 65.251 291.153 66.9958 293.634 68.6491C290.67 68.5424 288.563 69.1645 288.149 70.4914C287.425 72.8213 292.631 76.5871 299.777 78.8931L300.36 77.0149C293.726 74.8719 288.671 72.0842 289.075 70.7886C289.476 69.4909 294.77 70.0466 300.894 72.0231L301.477 70.1448C295.351 68.1717 290.712 65.5147 291.111 64.2204C291.512 62.9227 297.22 63.6125 303.854 65.7554L304.435 63.8806C297.293 61.5678 290.911 61.5899 290.19 63.9219Z" fill="#FFBC0D"/>
<path d="M68.3367 84.0556C65.7691 78.736 62.277 74.2602 58.4963 71.4538C54.8922 68.7731 51.4001 67.8995 48.5381 68.9048C48.2554 68.9646 47.9727 69.0364 47.7077 69.1501C47.0423 69.4313 44.6514 70.5264 44.0389 70.8315C38.2619 73.7097 37.9615 85.1087 43.3558 96.2923C48.756 107.476 57.8132 114.214 63.5843 111.335C64.3676 110.946 66.1931 110.216 67.1118 109.75C67.1648 109.726 67.2237 109.714 67.2767 109.684C70.2683 108.194 71.9878 104.64 72.1174 99.6791C72.247 94.922 70.9043 89.3691 68.3367 84.0556Z" fill="url(#paint3_linear_1584_44981)"/>
<path d="M66.7482 108.592C64.3161 109.806 61.0595 109.046 57.5791 106.461C53.928 103.751 50.536 99.3884 48.0273 94.1884C45.5186 88.9884 44.1995 83.5969 44.329 79.0012C44.4468 74.621 45.8543 71.5392 48.2864 70.3305C50.7185 69.1158 53.9751 69.8757 57.4555 72.4608C61.1066 75.1715 64.4986 79.5338 67.0073 84.7338C69.4277 89.7543 70.735 94.9484 70.7174 99.4363C70.7174 99.5979 70.7115 99.7594 70.7115 99.921C70.5819 104.301 69.1804 107.377 66.7482 108.592Z" fill="white"/>
<path d="M55.1626 76.9126C54.0967 77.4452 54.4736 80.6703 55.9282 85.2897C53.2252 81.2926 50.9461 79.0129 49.8802 79.5454C48.0017 80.4788 50.9049 90.3996 56.364 101.703L57.8715 100.949C52.8071 90.4535 49.5446 81.526 50.5869 81.0054C51.6293 80.4848 56.2639 87.9224 60.9397 97.6099L62.4472 96.8559C57.7714 87.1685 54.827 78.8932 55.8693 78.3726C56.9116 77.8521 61.8642 85.9419 66.9287 96.4371L68.4363 95.6831C62.9831 84.3801 57.0412 75.9792 55.1626 76.9126Z" fill="#FFBC0D"/>
<path d="M125.197 164.05C125.519 159.71 124.939 155.567 123.561 152.383C122.249 149.345 120.342 147.501 118.146 147.088C117.943 147.022 117.736 146.964 117.525 146.939C116.997 146.873 115.068 146.691 114.565 146.66C109.818 146.368 105.427 153.531 104.749 162.655C104.074 171.781 107.372 179.417 112.115 179.707C112.758 179.747 114.192 179.954 114.95 179.994C114.992 179.999 115.034 180.013 115.079 180.013C117.537 180.165 119.944 178.53 121.854 175.412C123.689 172.425 124.878 168.387 125.197 164.05Z" fill="url(#paint4_linear_1584_44981)"/>
<path d="M115.144 179.122C113.145 179.001 111.347 177.316 110.078 174.385C108.747 171.31 108.19 167.277 108.505 163.034C108.819 158.792 109.964 154.865 111.74 151.981C113.429 149.229 115.462 147.781 117.459 147.906C119.459 148.026 121.257 149.711 122.525 152.643C123.857 155.718 124.414 159.751 124.099 163.994C123.794 168.089 122.715 171.885 121.05 174.742C120.99 174.845 120.927 174.946 120.868 175.049C119.171 177.797 117.144 179.243 115.144 179.122Z" fill="white"/>
<path d="M119.424 154.639C118.548 154.587 117.6 156.783 116.827 160.267C116.574 156.721 115.96 154.426 115.084 154.373C113.541 154.277 111.739 161.677 111.058 170.901L112.298 170.975C112.933 162.412 114.14 155.513 114.997 155.565C115.854 155.617 116.071 162.071 115.486 169.975L116.725 170.049C117.311 162.145 118.48 155.78 119.337 155.831C120.194 155.883 120.374 162.87 119.739 171.433L120.979 171.507C121.663 162.286 120.967 154.736 119.424 154.639Z" fill="#FFBC0D"/>
<path d="M243.014 202.528C229.917 205.894 216.571 197.815 213.251 184.508C209.939 171.207 217.89 157.638 230.986 154.266C244.083 150.893 257.429 158.979 260.749 172.28C264.061 185.587 256.11 199.156 243.014 202.528Z" fill="url(#paint5_linear_1584_44981)"/>
<path d="M231.577 156.667C219.779 159.701 212.613 171.922 215.606 183.911C218.599 195.899 230.619 203.181 242.417 200.14C254.215 197.099 261.381 184.884 258.388 172.896C255.395 160.908 243.375 153.633 231.577 156.667Z" fill="white"/>
<path d="M239.638 164.217C237.291 164.824 235.993 168.535 235.861 173.848C233.257 169.234 230.375 166.602 228.028 167.201C223.91 168.26 223.195 179.684 226.444 192.709L229.764 191.855C226.75 179.761 226.16 169.473 228.451 168.888C230.743 168.295 234.854 176.875 237.638 188.038L240.958 187.184C238.166 176.022 237.77 166.489 240.055 165.896C242.346 165.303 246.645 174.639 249.658 186.733L252.971 185.879C249.735 172.853 243.756 163.151 239.638 164.217Z" fill="#FFBC0D"/>
<defs>
<linearGradient id="paint0_linear_1584_44981" x1="136.273" y1="46.2163" x2="118.099" y2="75.0572" gradientUnits="userSpaceOnUse">
<stop offset="0.000616698" stop-color="#910063"/>
<stop offset="0.0362" stop-color="#990059"/>
<stop offset="0.1727" stop-color="#B60035"/>
<stop offset="0.3012" stop-color="#CA001C"/>
<stop offset="0.4172" stop-color="#D7000C"/>
<stop offset="0.5101" stop-color="#DB0007"/>
<stop offset="1" stop-color="#E8720A"/>
</linearGradient>
<linearGradient id="paint1_linear_1584_44981" x1="214.5" y1="31.7637" x2="262.409" y2="31.7637" gradientUnits="userSpaceOnUse">
<stop offset="0.000616698" stop-color="#910063"/>
<stop offset="0.0362" stop-color="#990059"/>
<stop offset="0.1727" stop-color="#B60035"/>
<stop offset="0.3012" stop-color="#CA001C"/>
<stop offset="0.4172" stop-color="#D7000C"/>
<stop offset="0.5101" stop-color="#DB0007"/>
<stop offset="1" stop-color="#E8720A"/>
</linearGradient>
<linearGradient id="paint2_linear_1584_44981" x1="303.459" y1="57.4934" x2="288.508" y2="81.2196" gradientUnits="userSpaceOnUse">
<stop offset="0.000616698" stop-color="#910063"/>
<stop offset="0.0362" stop-color="#990059"/>
<stop offset="0.1727" stop-color="#B60035"/>
<stop offset="0.3012" stop-color="#CA001C"/>
<stop offset="0.4172" stop-color="#D7000C"/>
<stop offset="0.5101" stop-color="#DB0007"/>
<stop offset="1" stop-color="#E8720A"/>
</linearGradient>
<linearGradient id="paint3_linear_1584_44981" x1="72.126" y1="90.25" x2="39.5" y2="90.25" gradientUnits="userSpaceOnUse">
<stop offset="0.000616698" stop-color="#910063"/>
<stop offset="0.0362" stop-color="#990059"/>
<stop offset="0.1727" stop-color="#B60035"/>
<stop offset="0.3012" stop-color="#CA001C"/>
<stop offset="0.4172" stop-color="#D7000C"/>
<stop offset="0.5101" stop-color="#DB0007"/>
<stop offset="1" stop-color="#E8720A"/>
</linearGradient>
<linearGradient id="paint4_linear_1584_44981" x1="125.333" y1="169.399" x2="104.514" y2="157.379" gradientUnits="userSpaceOnUse">
<stop offset="0.000616698" stop-color="#910063"/>
<stop offset="0.0362" stop-color="#990059"/>
<stop offset="0.1727" stop-color="#B60035"/>
<stop offset="0.3012" stop-color="#CA001C"/>
<stop offset="0.4172" stop-color="#D7000C"/>
<stop offset="0.5101" stop-color="#DB0007"/>
<stop offset="1" stop-color="#E8720A"/>
</linearGradient>
<linearGradient id="paint5_linear_1584_44981" x1="261.5" y1="178.396" x2="212.5" y2="178.396" gradientUnits="userSpaceOnUse">
<stop offset="0.000616698" stop-color="#910063"/>
<stop offset="0.0362" stop-color="#990059"/>
<stop offset="0.1727" stop-color="#B60035"/>
<stop offset="0.3012" stop-color="#CA001C"/>
<stop offset="0.4172" stop-color="#D7000C"/>
<stop offset="0.5101" stop-color="#DB0007"/>
<stop offset="1" stop-color="#E8720A"/>
</linearGradient>
</defs>
</svg>
