<svg width="375" height="225" viewBox="0 0 375 225" fill="none" xmlns="http://www.w3.org/2000/svg">
<g clip-path="url(#clip0_17_28661)">
<mask id="path-1-outside-1_17_28661" maskUnits="userSpaceOnUse" x="118" y="17" width="128" height="196" fill="black">
<rect fill="white" x="118" y="17" width="128" height="196"/>
<path fill-rule="evenodd" clip-rule="evenodd" d="M205.015 130.8C205.015 130.8 204.913 131.028 204.733 131.446L204.755 131.637C203.526 134.531 198.959 145.819 196.676 158.823L196.582 158.834C196.544 159.056 196.506 159.278 196.47 159.501C196.034 162.163 195.785 164.072 195.556 165.833C195.524 166.08 195.492 166.325 195.46 166.568L169.545 169.788L149.538 172.209C144.815 172.782 140.524 169.405 139.954 164.67L138.5 152.593C139.913 150.114 141.015 146.31 139.774 143.174C139.336 142.066 138.504 140.854 136.978 139.955L127.961 65.0489C127.45 65.0615 126.999 64.6861 126.937 64.1682L125.999 56.3734C125.937 55.8555 126.285 55.3831 126.785 55.2744L126.3 51.2451C125.789 51.2587 125.338 50.8824 125.277 50.3644L124.731 45.8336C124.669 45.3157 125.017 44.8433 125.516 44.7346L124.519 36.4491C123.948 31.7127 127.315 27.4099 132.038 26.8385L188.012 20.0632C192.736 19.491 197.027 22.8665 197.597 27.6029L198.916 38.5636C198.976 38.5442 199.038 38.5297 199.103 38.5219C199.651 38.456 200.154 38.8508 200.22 39.4007L201.362 48.8823C201.427 49.4323 201.034 49.9366 200.485 50.0026C200.421 50.0104 200.358 50.0113 200.295 50.0065L203.37 75.5528C200.12 85.0819 202.87 97.0563 204.111 101.064C205.195 104.479 208.619 118.016 205.015 130.8ZM237.834 196.567C237.377 195.367 236.966 194.28 236.615 193.334C234.97 185.742 233.303 173.534 235.249 159.888C237.289 145.653 233.062 131.452 229.665 120.042L229.663 120.036L229.663 120.036C227.859 113.975 226.301 108.741 225.989 104.57C225.629 99.6784 218.098 78.1814 214.781 69.0698C213.544 69.1018 211.276 69.4501 209.378 71.2601C202.417 77.6853 206.197 97.1086 207.106 99.1397C207.813 100.537 213.456 121.578 206.26 136.382C201.391 146.413 199.659 159.607 198.729 166.696C198.442 168.887 196.756 169.307 195.177 169.307L150.919 174.808C154.32 180.142 158.933 186.746 163.167 190.008C165.809 192.044 168.051 194.27 170.018 196.569C173.255 200.355 175.747 204.343 178.046 208.025C178.486 208.73 178.918 209.418 179.347 210.093L242.956 210.091C241.442 206.018 240.03 202.323 238.838 199.199L238.837 199.198L238.828 199.175L238.819 199.151C238.471 198.239 238.142 197.376 237.834 196.567ZM128.663 131.044L132.743 133.452L130.623 116.299C129.432 115.854 128.179 115.581 126.982 115.689C125.509 115.803 124.356 116.489 123.383 117.74C122.441 118.954 122.072 120.27 122.259 121.765C122.816 126.225 128.062 130.56 128.663 131.044ZM129.77 142.091C130.151 142.044 130.561 142.018 131 142.016C134.526 141.999 136.718 143.012 137.516 145.031C138.721 148.079 136.588 152.608 135.329 153.786C133.382 155.603 131.593 155.782 128.49 154.458C125.818 153.319 124.104 149.648 124.748 146.441C125.047 144.952 126.101 142.547 129.77 142.091ZM128.913 111.648L129.001 111.69L130.127 112.296L128.237 97.0089C127.119 96.7964 125.95 96.6888 124.844 96.8255C124.376 96.8837 123.919 96.9846 123.485 97.1359C122.112 97.6151 121.133 98.5531 120.495 100.004C119.875 101.413 119.838 102.779 120.382 104.183C122.099 108.608 128.845 111.619 128.913 111.648ZM126.422 82.3213L127.763 93.1695C126.324 91.991 124.973 90.537 124.33 88.8783C123.786 87.4758 123.823 86.1091 124.443 84.7006C124.911 83.6376 125.567 82.8548 126.422 82.3213Z"/>
</mask>
<path d="M204.733 131.446L202.895 130.656L202.683 131.149L202.747 131.683L204.733 131.446ZM205.015 130.8L206.839 131.621L206.9 131.486L206.94 131.342L205.015 130.8ZM204.755 131.637L206.596 132.419L206.804 131.929L206.741 131.401L204.755 131.637ZM196.676 158.823L196.918 160.808L198.389 160.628L198.645 159.169L196.676 158.823ZM196.582 158.834L196.339 156.849L194.863 157.029L194.611 158.495L196.582 158.834ZM196.47 159.501L198.444 159.824L198.444 159.824L196.47 159.501ZM195.556 165.833L197.539 166.091L195.556 165.833ZM195.46 166.568L195.707 168.553L197.242 168.362L197.443 166.828L195.46 166.568ZM169.545 169.788L169.785 171.774L169.792 171.773L169.545 169.788ZM149.538 172.209L149.298 170.224L149.298 170.224L149.538 172.209ZM139.954 164.67L141.94 164.431L141.94 164.431L139.954 164.67ZM138.5 152.593L136.763 151.603L136.435 152.177L136.514 152.832L138.5 152.593ZM139.774 143.174L137.914 143.91L137.914 143.91L139.774 143.174ZM136.978 139.955L134.993 140.194L135.111 141.175L135.963 141.678L136.978 139.955ZM127.961 65.0489L129.947 64.8099L129.729 63.0047L127.912 63.0495L127.961 65.0489ZM126.937 64.1682L128.923 63.9308L128.923 63.9291L126.937 64.1682ZM125.999 56.3734L124.013 56.6108L124.013 56.6125L125.999 56.3734ZM126.785 55.2744L127.21 57.2287L128.988 56.8418L128.77 55.0356L126.785 55.2744ZM126.3 51.2451L128.286 51.0063L128.068 49.1974L126.247 49.2458L126.3 51.2451ZM125.277 50.3644L127.262 50.127L127.262 50.1253L125.277 50.3644ZM124.731 45.8336L122.745 46.071L122.745 46.0727L124.731 45.8336ZM125.516 44.7346L125.942 46.6889L127.72 46.302L127.502 44.4956L125.516 44.7346ZM124.519 36.4491L126.505 36.2101L126.505 36.2098L124.519 36.4491ZM132.038 26.8385L132.278 28.8241L132.279 28.824L132.038 26.8385ZM188.012 20.0632L188.253 22.0487L188.253 22.0487L188.012 20.0632ZM197.597 27.6029L195.611 27.8418L195.611 27.8419L197.597 27.6029ZM198.916 38.5636L196.931 38.8027L197.221 41.2141L199.532 40.4666L198.916 38.5636ZM199.103 38.5219L199.341 40.5077L199.342 40.5076L199.103 38.5219ZM200.22 39.4007L198.234 39.6382L198.235 39.6398L200.22 39.4007ZM201.362 48.8823L203.348 48.6448L203.347 48.6432L201.362 48.8823ZM200.485 50.0026L200.246 48.0169L200.244 48.0172L200.485 50.0026ZM200.295 50.0065L200.449 48.0124L198.018 47.8249L198.309 50.2455L200.295 50.0065ZM203.37 75.5528L205.263 76.1985L205.41 75.7667L205.356 75.3138L203.37 75.5528ZM204.111 101.064L202.2 101.656L202.202 101.663L202.205 101.67L204.111 101.064ZM236.615 193.334L234.66 193.758L234.691 193.897L234.74 194.03L236.615 193.334ZM237.834 196.567L235.964 197.278L235.964 197.278L237.834 196.567ZM235.249 159.888L233.27 159.604L233.269 159.606L235.249 159.888ZM229.665 120.042L231.581 119.472L231.581 119.47L229.665 120.042ZM229.663 120.036L227.74 120.586L227.743 120.597L227.746 120.608L229.663 120.036ZM229.663 120.036L231.586 119.486L231.583 119.476L231.58 119.465L229.663 120.036ZM225.989 104.57L223.995 104.717L223.995 104.719L225.989 104.57ZM214.781 69.0698L216.66 68.3855L216.168 67.0332L214.729 67.0704L214.781 69.0698ZM209.378 71.2601L210.735 72.7298L210.747 72.7187L210.759 72.7074L209.378 71.2601ZM207.106 99.1397L205.281 99.9568L205.3 100L205.322 100.042L207.106 99.1397ZM206.26 136.382L204.462 135.508L204.461 135.509L206.26 136.382ZM198.729 166.696L200.712 166.956L198.729 166.696ZM195.177 169.307V167.307H195.053L194.93 167.322L195.177 169.307ZM150.919 174.808L150.672 172.823L147.53 173.214L149.232 175.883L150.919 174.808ZM163.167 190.008L161.946 191.592L161.946 191.592L163.167 190.008ZM170.018 196.569L171.538 195.269L171.538 195.269L170.018 196.569ZM178.046 208.025L179.743 206.966L179.742 206.966L178.046 208.025ZM179.347 210.093L177.659 211.167L178.249 212.093L179.347 212.093L179.347 210.093ZM242.956 210.091L242.956 212.091L245.833 212.091L244.831 209.394L242.956 210.091ZM238.838 199.199L236.968 199.909L236.969 199.913L238.838 199.199ZM238.837 199.198L240.707 198.489L240.706 198.485L238.837 199.198ZM238.828 199.175L240.697 198.462L240.697 198.462L238.828 199.175ZM238.819 199.151L240.688 198.437L240.688 198.437L238.819 199.151ZM132.743 133.452L131.726 135.174L135.226 137.24L134.728 133.207L132.743 133.452ZM128.663 131.044L127.408 132.601L127.521 132.692L127.646 132.766L128.663 131.044ZM130.623 116.299L132.607 116.054L132.459 114.85L131.323 114.426L130.623 116.299ZM126.982 115.689L127.137 117.683L127.15 117.682L127.162 117.681L126.982 115.689ZM123.383 117.74L121.804 116.512L121.803 116.514L123.383 117.74ZM122.259 121.765L120.274 122.013L120.274 122.013L122.259 121.765ZM131 142.016L131.009 144.016H131.009L131 142.016ZM129.77 142.091L130.016 144.076L130.017 144.076L129.77 142.091ZM137.516 145.031L139.376 144.295L139.376 144.295L137.516 145.031ZM135.329 153.786L136.694 155.248L136.695 155.247L135.329 153.786ZM128.49 154.458L129.275 152.618L129.274 152.618L128.49 154.458ZM124.748 146.441L126.709 146.835L126.709 146.835L124.748 146.441ZM129.001 111.69L129.948 109.929L129.911 109.909L129.873 109.891L129.001 111.69ZM128.913 111.648L129.785 109.848L129.744 109.828L129.702 109.81L128.913 111.648ZM130.127 112.296L129.18 114.057L132.586 115.888L132.111 112.05L130.127 112.296ZM128.237 97.0089L130.222 96.7636L130.043 95.3162L128.611 95.044L128.237 97.0089ZM124.844 96.8255L124.598 94.8407L124.597 94.8408L124.844 96.8255ZM123.485 97.1359L122.827 95.2473L122.826 95.2477L123.485 97.1359ZM120.495 100.004L122.325 100.81L122.325 100.81L120.495 100.004ZM120.382 104.183L118.517 104.905L118.517 104.906L120.382 104.183ZM127.763 93.1695L126.496 94.717L130.361 97.8811L129.748 92.9242L127.763 93.1695ZM126.422 82.3213L128.407 82.076L128.023 78.9655L125.364 80.6244L126.422 82.3213ZM124.33 88.8783L122.465 89.6012L122.465 89.6015L124.33 88.8783ZM124.443 84.7006L122.613 83.8945L122.613 83.8948L124.443 84.7006ZM204.733 131.446L206.57 132.237C206.657 132.033 206.726 131.877 206.772 131.773C206.795 131.721 206.812 131.682 206.823 131.656C206.829 131.644 206.833 131.634 206.836 131.628C206.837 131.625 206.838 131.623 206.838 131.622C206.839 131.622 206.839 131.621 206.839 131.621C206.839 131.621 206.839 131.621 206.839 131.621C206.839 131.621 206.839 131.621 206.839 131.621C206.839 131.621 206.839 131.621 206.839 131.621C206.839 131.621 206.839 131.621 206.839 131.621C206.839 131.621 206.839 131.621 205.015 130.8C203.192 129.978 203.192 129.978 203.192 129.978C203.192 129.979 203.192 129.979 203.192 129.979C203.192 129.979 203.192 129.979 203.192 129.979C203.192 129.979 203.192 129.979 203.192 129.979C203.191 129.979 203.191 129.98 203.191 129.98C203.191 129.981 203.19 129.982 203.19 129.983C203.189 129.985 203.187 129.988 203.185 129.993C203.182 130.001 203.177 130.013 203.17 130.028C203.156 130.058 203.137 130.102 203.111 130.159C203.061 130.274 202.988 130.441 202.895 130.656L204.733 131.446ZM204.755 131.637L206.741 131.401L206.719 131.209L204.733 131.446L202.747 131.683L202.769 131.874L204.755 131.637ZM196.676 158.823L198.645 159.169C200.89 146.383 205.391 135.256 206.596 132.419L204.755 131.637L202.915 130.856C201.662 133.805 197.027 145.255 194.706 158.477L196.676 158.823ZM196.582 158.834L196.824 160.82L196.918 160.808L196.676 158.823L196.433 156.838L196.339 156.849L196.582 158.834ZM196.47 159.501L198.444 159.824C198.479 159.607 198.516 159.391 198.553 159.173L196.582 158.834L194.611 158.495C194.572 158.721 194.534 158.948 194.496 159.178L196.47 159.501ZM195.556 165.833L197.539 166.091C197.768 164.334 198.013 162.453 198.444 159.824L196.47 159.501L194.496 159.177C194.055 161.874 193.803 163.81 193.573 165.574L195.556 165.833ZM195.46 166.568L197.443 166.828C197.475 166.584 197.507 166.338 197.539 166.091L195.556 165.833L193.573 165.574C193.54 165.822 193.509 166.065 193.477 166.308L195.46 166.568ZM169.545 169.788L169.792 171.773L195.707 168.553L195.46 166.568L195.213 164.583L169.298 167.803L169.545 169.788ZM149.538 172.209L149.779 174.195L169.785 171.774L169.545 169.788L169.305 167.803L149.298 170.224L149.538 172.209ZM139.954 164.67L137.968 164.909C138.669 170.736 143.953 174.901 149.779 174.195L149.538 172.209L149.298 170.224C145.677 170.662 142.378 168.074 141.94 164.431L139.954 164.67ZM138.5 152.593L136.514 152.832L137.968 164.909L139.954 164.67L141.94 164.431L140.486 152.354L138.5 152.593ZM139.774 143.174L137.914 143.91C138.829 146.22 138.049 149.345 136.763 151.603L138.5 152.593L140.238 153.584C141.777 150.883 143.202 146.399 141.634 142.438L139.774 143.174ZM136.978 139.955L135.963 141.678C137.054 142.321 137.617 143.158 137.914 143.91L139.774 143.174L141.634 142.438C141.055 140.975 139.954 139.387 137.994 138.232L136.978 139.955ZM127.961 65.0489L125.975 65.288L134.993 140.194L136.978 139.955L138.964 139.715L129.947 64.8099L127.961 65.0489ZM126.937 64.1682L124.952 64.4055C125.139 65.976 126.497 67.0857 128.01 67.0483L127.961 65.0489L127.912 63.0495C128.404 63.0374 128.859 63.3963 128.923 63.9308L126.937 64.1682ZM125.999 56.3734L124.013 56.6125L124.952 64.4072L126.937 64.1682L128.923 63.9291L127.985 56.1344L125.999 56.3734ZM126.785 55.2744L126.359 53.3202C124.875 53.6433 123.826 55.047 124.013 56.6108L125.999 56.3734L127.985 56.1361C128.048 56.6639 127.696 57.1229 127.21 57.2287L126.785 55.2744ZM126.3 51.2451L124.314 51.484L124.799 55.5133L126.785 55.2744L128.77 55.0356L128.286 51.0063L126.3 51.2451ZM125.277 50.3644L123.291 50.6018C123.478 52.1689 124.833 53.2848 126.353 53.2444L126.3 51.2451L126.247 49.2458C126.745 49.2326 127.199 49.5958 127.262 50.127L125.277 50.3644ZM124.731 45.8336L122.745 46.0727L123.291 50.6035L125.277 50.3644L127.262 50.1253L126.717 45.5945L124.731 45.8336ZM125.516 44.7346L125.091 42.7804C123.607 43.1035 122.558 44.5073 122.745 46.071L124.731 45.8336L126.717 45.5963C126.78 46.1241 126.428 46.5831 125.942 46.6889L125.516 44.7346ZM124.519 36.4491L122.533 36.6881L123.531 44.9737L125.516 44.7346L127.502 44.4956L126.505 36.2101L124.519 36.4491ZM132.038 26.8385L131.798 24.853C125.973 25.5575 121.831 30.8607 122.533 36.6884L124.519 36.4491L126.505 36.2098C126.066 32.5646 128.656 29.2622 132.278 28.8241L132.038 26.8385ZM188.012 20.0632L187.772 18.0777L131.798 24.853L132.038 26.8385L132.279 28.824L188.253 22.0487L188.012 20.0632ZM197.597 27.6029L199.582 27.364C198.881 21.5351 193.597 17.372 187.772 18.0778L188.012 20.0632L188.253 22.0487C191.874 21.61 195.173 24.1978 195.611 27.8418L197.597 27.6029ZM198.916 38.5636L200.902 38.3246L199.582 27.3639L197.597 27.6029L195.611 27.8419L196.931 38.8027L198.916 38.5636ZM199.103 38.5219L198.865 36.5361C198.655 36.5613 198.466 36.6071 198.301 36.6607L198.916 38.5636L199.532 40.4666C199.486 40.4814 199.421 40.4981 199.341 40.5077L199.103 38.5219ZM200.22 39.4007L202.206 39.1632C202.009 37.5164 200.51 36.3383 198.864 36.5362L199.103 38.5219L199.342 40.5076C198.793 40.5737 198.3 40.1851 198.234 39.6382L200.22 39.4007ZM201.362 48.8823L203.347 48.6432L202.206 39.1617L200.22 39.4007L198.235 39.6398L199.376 49.1213L201.362 48.8823ZM200.485 50.0026L200.724 51.9883C202.378 51.7894 203.543 50.2815 203.348 48.6448L201.362 48.8823L199.376 49.1198C199.312 48.583 199.689 48.0839 200.246 48.0169L200.485 50.0026ZM200.295 50.0065L200.141 52.0006C200.328 52.015 200.524 52.0126 200.727 51.988L200.485 50.0026L200.244 48.0172C200.319 48.0081 200.388 48.0077 200.449 48.0124L200.295 50.0065ZM203.37 75.5528L205.356 75.3138L202.28 49.7675L200.295 50.0065L198.309 50.2455L201.384 75.7918L203.37 75.5528ZM204.111 101.064L206.021 100.473C205.435 98.5784 204.469 94.7198 204.047 90.1935C203.624 85.6476 203.765 80.5884 205.263 76.1985L203.37 75.5528L201.477 74.9072C199.724 80.0463 199.615 85.7388 200.065 90.5644C200.516 95.4095 201.546 99.5421 202.2 101.656L204.111 101.064ZM205.015 130.8L206.94 131.342C210.704 117.99 207.14 103.994 206.017 100.459L204.111 101.064L202.205 101.67C203.251 104.963 206.534 118.041 203.09 130.257L205.015 130.8ZM236.615 193.334L234.74 194.03C235.094 194.984 235.507 196.077 235.964 197.278L237.834 196.567L239.703 195.856C239.247 194.658 238.838 193.576 238.49 192.638L236.615 193.334ZM235.249 159.888L233.269 159.606C231.279 173.561 232.984 186.022 234.66 193.758L236.615 193.334L238.57 192.911C236.956 185.463 235.327 173.506 237.229 160.171L235.249 159.888ZM229.665 120.042L227.748 120.613C231.165 132.09 235.237 145.872 233.27 159.604L235.249 159.888L237.229 160.172C239.341 145.434 234.959 130.814 231.581 119.472L229.665 120.042ZM229.663 120.036L227.746 120.608L227.748 120.615L229.665 120.042L231.581 119.47L231.579 119.464L229.663 120.036ZM229.663 120.036L227.74 120.585L227.74 120.586L229.663 120.036L231.586 119.487L231.586 119.486L229.663 120.036ZM225.989 104.57L223.995 104.719C224.326 109.155 225.966 114.629 227.746 120.606L229.663 120.036L231.58 119.465C229.751 113.322 228.275 108.327 227.984 104.421L225.989 104.57ZM214.781 69.0698L212.901 69.754C214.556 74.2972 217.26 81.9285 219.594 89.027C220.761 92.5778 221.831 95.9792 222.629 98.7873C223.447 101.666 223.922 103.731 223.995 104.717L225.989 104.57L227.984 104.423C227.876 102.963 227.275 100.507 226.476 97.694C225.657 94.811 224.569 91.3516 223.394 87.7777C221.043 80.627 218.323 72.954 216.66 68.3855L214.781 69.0698ZM209.378 71.2601L210.759 72.7074C212.159 71.3719 213.859 71.0943 214.833 71.0691L214.781 69.0698L214.729 67.0704C213.228 67.1093 210.393 67.5283 207.998 69.8128L209.378 71.2601ZM207.106 99.1397L208.932 98.3225C208.935 98.329 208.924 98.3061 208.902 98.2416C208.881 98.1807 208.854 98.0983 208.822 97.9925C208.759 97.7803 208.685 97.5006 208.602 97.1562C208.437 96.4685 208.251 95.5628 208.071 94.4965C207.709 92.3619 207.381 89.6342 207.29 86.784C207.198 83.9227 207.35 81.0096 207.911 78.4738C208.479 75.9114 209.418 73.9449 210.735 72.7298L209.378 71.2601L208.022 69.7904C205.857 71.788 204.659 74.6589 204.006 77.6089C203.347 80.5855 203.194 83.8599 203.292 86.9115C203.389 89.9741 203.741 92.8846 204.127 95.1639C204.32 96.3045 204.523 97.2996 204.712 98.088C204.888 98.8237 205.083 99.5144 205.281 99.9568L207.106 99.1397ZM206.26 136.382L208.059 137.256C211.887 129.381 212.251 119.995 211.64 112.57C211.332 108.829 210.771 105.518 210.239 103.046C209.974 101.81 209.714 100.775 209.493 99.9918C209.294 99.2866 209.082 98.6143 208.891 98.2369L207.106 99.1397L205.322 100.042C205.307 100.015 205.426 100.305 205.643 101.076C205.838 101.769 206.079 102.723 206.329 103.887C206.829 106.216 207.362 109.353 207.653 112.898C208.241 120.043 207.829 128.58 204.462 135.508L206.26 136.382ZM198.729 166.696L200.712 166.956C201.65 159.808 203.356 146.945 208.06 137.256L206.26 136.382L204.461 135.509C199.426 145.88 197.668 159.407 196.746 166.435L198.729 166.696ZM195.177 169.307V171.307C196.089 171.307 197.329 171.196 198.439 170.554C199.676 169.838 200.494 168.615 200.712 166.956L198.729 166.696L196.746 166.435C196.706 166.738 196.632 166.885 196.592 166.947C196.555 167.005 196.511 167.048 196.435 167.092C196.236 167.207 195.844 167.307 195.177 167.307V169.307ZM150.919 174.808L151.165 176.793L195.424 171.292L195.177 169.307L194.93 167.322L150.672 172.823L150.919 174.808ZM163.167 190.008L164.387 188.423C160.473 185.407 156.031 179.104 152.605 173.732L150.919 174.808L149.232 175.883C152.61 181.179 157.394 188.085 161.946 191.592L163.167 190.008ZM170.018 196.569L171.538 195.269C169.496 192.883 167.157 190.557 164.387 188.423L163.167 190.008L161.946 191.592C164.462 193.53 166.605 195.656 168.498 197.869L170.018 196.569ZM178.046 208.025L179.742 206.966C177.452 203.297 174.887 199.185 171.538 195.269L170.018 196.569L168.498 197.869C171.624 201.525 174.042 205.389 176.35 209.084L178.046 208.025ZM179.347 210.093L181.034 209.02C180.609 208.351 180.181 207.669 179.743 206.966L178.046 208.025L176.349 209.084C176.791 209.791 177.226 210.485 177.659 211.167L179.347 210.093ZM242.956 210.091L242.956 208.091L179.347 208.093L179.347 210.093L179.347 212.093L242.956 212.091L242.956 210.091ZM238.838 199.199L236.969 199.913C238.162 203.037 239.57 206.725 241.081 210.788L242.956 210.091L244.831 209.394C243.313 205.312 241.899 201.609 240.706 198.486L238.838 199.199ZM238.837 199.198L236.967 199.907L236.968 199.909L238.838 199.199L240.708 198.49L240.707 198.489L238.837 199.198ZM238.828 199.175L236.96 199.888L236.969 199.911L238.837 199.198L240.706 198.485L240.697 198.462L238.828 199.175ZM238.819 199.151L236.951 199.864L236.96 199.888L238.828 199.175L240.697 198.462L240.688 198.437L238.819 199.151ZM237.834 196.567L235.964 197.278C236.273 198.089 236.603 198.952 236.951 199.864L238.819 199.151L240.688 198.437C240.339 197.525 240.01 196.663 239.703 195.856L237.834 196.567ZM132.743 133.452L133.76 131.73L129.679 129.321L128.663 131.044L127.646 132.766L131.726 135.174L132.743 133.452ZM130.623 116.299L128.638 116.544L130.758 133.697L132.743 133.452L134.728 133.207L132.607 116.054L130.623 116.299ZM126.982 115.689L127.162 117.681C127.951 117.61 128.887 117.785 129.922 118.172L130.623 116.299L131.323 114.426C129.976 113.922 128.407 113.552 126.803 113.697L126.982 115.689ZM123.383 117.74L124.962 118.968C125.643 118.093 126.307 117.747 127.137 117.683L126.982 115.689L126.828 113.695C124.712 113.859 123.07 114.885 121.804 116.512L123.383 117.74ZM122.259 121.765L124.243 121.517C124.124 120.561 124.337 119.772 124.963 118.967L123.383 117.74L121.803 116.514C120.544 118.135 120.02 119.979 120.274 122.013L122.259 121.765ZM128.663 131.044L129.918 129.486C129.663 129.281 128.307 128.164 126.964 126.595C125.571 124.967 124.447 123.143 124.243 121.517L122.259 121.765L120.274 122.013C120.628 124.846 122.405 127.42 123.925 129.195C125.494 131.029 127.061 132.322 127.408 132.601L128.663 131.044ZM131 142.016L130.991 140.016C130.478 140.018 129.988 140.049 129.522 140.107L129.77 142.091L130.017 144.076C130.313 144.039 130.643 144.017 131.009 144.016L131 142.016ZM137.516 145.031L139.376 144.295C138.106 141.084 134.759 139.998 130.991 140.016L131 142.016L131.009 144.016C134.293 144 135.33 144.94 135.656 145.766L137.516 145.031ZM135.329 153.786L136.695 155.247C137.67 154.334 138.656 152.551 139.249 150.728C139.846 148.893 140.23 146.456 139.376 144.295L137.516 145.031L135.656 145.766C136.007 146.653 135.928 148.006 135.445 149.491C134.958 150.989 134.247 152.059 133.963 152.325L135.329 153.786ZM128.49 154.458L127.705 156.297C129.376 157.01 130.968 157.445 132.539 157.29C134.184 157.128 135.509 156.353 136.694 155.248L135.329 153.786L133.964 152.324C133.201 153.036 132.659 153.259 132.147 153.309C131.561 153.367 130.706 153.229 129.275 152.618L128.49 154.458ZM124.748 146.441L122.787 146.047C122.372 148.116 122.722 150.269 123.563 152.071C124.399 153.861 125.81 155.49 127.706 156.298L128.49 154.458L129.274 152.618C128.498 152.287 127.716 151.51 127.188 150.379C126.665 149.259 126.48 147.973 126.709 146.835L124.748 146.441ZM129.77 142.091L129.523 140.107C127.249 140.389 125.615 141.311 124.508 142.541C123.435 143.735 122.982 145.079 122.787 146.047L124.748 146.441L126.709 146.835C126.814 146.313 127.037 145.711 127.482 145.216C127.895 144.758 128.622 144.25 130.016 144.076L129.77 142.091ZM129.001 111.69L129.873 109.891L129.785 109.848L128.913 111.648L128.04 113.447L128.128 113.49L129.001 111.69ZM130.127 112.296L131.074 110.534L129.948 109.929L129.001 111.69L128.054 113.452L129.18 114.057L130.127 112.296ZM128.237 97.0089L126.252 97.2542L128.142 112.541L130.127 112.296L132.111 112.05L130.222 96.7636L128.237 97.0089ZM124.844 96.8255L125.089 98.8104C125.914 98.7085 126.858 98.7827 127.864 98.9737L128.237 97.0089L128.611 95.044C127.38 94.8102 125.986 94.6691 124.598 94.8407L124.844 96.8255ZM123.485 97.1359L124.143 99.0246C124.427 98.9255 124.744 98.8533 125.091 98.8103L124.844 96.8255L124.597 94.8408C124.007 94.9141 123.411 95.0438 122.827 95.2473L123.485 97.1359ZM120.495 100.004L122.325 100.81C122.762 99.8164 123.345 99.3033 124.144 99.0242L123.485 97.1359L122.826 95.2477C120.88 95.9269 119.504 97.2898 118.664 99.1987L120.495 100.004ZM120.382 104.183L122.247 103.46C121.899 102.563 121.913 101.745 122.325 100.81L120.495 100.004L118.664 99.1983C117.836 101.08 117.777 102.996 118.517 104.905L120.382 104.183ZM128.913 111.648L129.702 109.81C129.749 109.83 128.168 109.129 126.397 107.914C124.556 106.652 122.875 105.081 122.246 103.459L120.382 104.183L118.517 104.906C119.605 107.71 122.156 109.856 124.135 111.213C126.182 112.617 128.009 113.436 128.123 113.485L128.913 111.648ZM127.763 93.1695L129.748 92.9242L128.407 82.076L126.422 82.3213L124.437 82.5666L125.778 93.4148L127.763 93.1695ZM124.33 88.8783L122.465 89.6015C123.291 91.7321 124.95 93.4517 126.496 94.717L127.763 93.1695L129.03 91.622C127.697 90.5304 126.655 89.342 126.195 88.1552L124.33 88.8783ZM124.443 84.7006L122.613 83.8948C121.784 85.776 121.725 87.6924 122.465 89.6012L124.33 88.8783L126.195 88.1555C125.847 87.2592 125.862 86.4421 126.273 85.5065L124.443 84.7006ZM126.422 82.3213L125.364 80.6244C124.124 81.3981 123.221 82.5143 122.613 83.8945L124.443 84.7006L126.273 85.5068C126.602 84.7608 127.011 84.3115 127.481 84.0182L126.422 82.3213Z" fill="white" mask="url(#path-1-outside-1_17_28661)"/>
<path d="M192.739 30.8214C192.426 28.2005 190.074 26.3321 187.485 26.6481L133.914 33.1954C131.325 33.5114 129.48 35.8933 129.792 38.5142L144.325 160.405C144.637 163.026 146.99 164.894 149.578 164.578L196.678 158.822C198.961 145.818 203.529 134.53 204.758 131.637L192.739 30.8214Z" fill="white"/>
<path d="M237.833 196.565C237.377 195.366 236.966 194.278 236.615 193.333C234.97 185.741 233.302 173.532 235.249 159.887C237.289 145.651 233.062 131.45 229.664 120.041C227.86 113.978 226.3 108.741 225.989 104.568C225.629 99.6767 218.098 78.1798 214.78 69.0682C213.543 69.1002 211.276 69.4485 209.378 71.2585C202.416 77.6837 206.197 97.107 207.106 99.1381C207.813 100.536 213.455 121.577 206.26 136.381C201.391 146.411 199.659 159.605 198.729 166.694C198.441 168.885 196.755 169.305 195.177 169.305L150.918 174.806C154.32 180.14 158.933 186.744 163.167 190.006C165.809 192.042 168.05 194.268 170.018 196.568C173.255 200.353 175.747 204.342 178.046 208.024C178.486 208.729 178.917 209.416 179.347 210.091L242.956 210.089C240.99 204.804 239.199 200.154 237.833 196.565Z" fill="#73371F"/>
<path d="M181.247 42.1831C183.988 41.8482 186.483 43.7979 186.822 46.5384L198.688 142.704C199.026 145.444 197.079 147.938 194.338 148.272L154.319 153.161C151.578 153.496 149.082 151.546 148.744 148.805L136.878 52.6407C136.539 49.9001 138.487 47.4072 141.228 47.0722L181.247 42.1831Z" fill="white"/>
<path d="M149.979 163.867C147.411 164.178 145.078 162.343 144.768 159.768L130.356 40.0429C130.047 37.4685 131.877 35.129 134.444 34.8186L187.575 28.3876C190.142 28.0772 192.476 29.9124 192.785 32.4867L204.706 131.511C204.903 131.051 205.016 130.8 205.016 130.8C208.62 118.016 205.196 104.479 204.112 101.064C202.871 97.0563 200.121 85.0819 203.371 75.5528L200.296 50.0065C200.359 50.0113 200.422 50.0104 200.486 50.0026C201.035 49.9366 201.428 49.4323 201.363 48.8823L200.221 39.4007C200.155 38.8508 199.652 38.456 199.104 38.5219C199.039 38.5297 198.977 38.5442 198.917 38.5636L197.598 27.6029C197.028 22.8665 192.737 19.491 188.013 20.0632L132.039 26.8385C127.316 27.4099 123.949 31.7127 124.52 36.4491L125.517 44.7346C125.018 44.8433 124.67 45.3157 124.732 45.8336L125.278 50.3644C125.339 50.8824 125.79 51.2587 126.301 51.2451L126.786 55.2744C126.286 55.3831 125.938 55.8555 126 56.3734L126.938 64.1682C127 64.6861 127.451 65.0615 127.962 65.0489L136.979 139.955C138.505 140.854 139.337 142.066 139.775 143.174C141.016 146.31 139.914 150.114 138.501 152.593L139.955 164.67C140.525 169.405 144.816 172.782 149.539 172.209L169.546 169.788L195.461 166.568C195.72 164.593 195.974 162.538 196.471 159.501C196.541 159.069 196.616 158.64 196.691 158.212L149.979 163.867Z" fill="#6F6F6F"/>
<path d="M128.662 131.044L132.742 133.453L130.622 116.3C129.431 115.854 128.178 115.582 126.981 115.69C125.508 115.804 124.355 116.49 123.382 117.741C122.44 118.954 122.071 120.271 122.258 121.765C122.815 126.225 128.061 130.56 128.662 131.044Z" fill="#73371F"/>
<path d="M131.001 142.016C130.562 142.018 130.152 142.044 129.771 142.091C126.102 142.547 125.048 144.952 124.749 146.441C124.105 149.648 125.819 153.319 128.491 154.458C131.594 155.782 133.383 155.603 135.33 153.786C136.589 152.608 138.722 148.079 137.517 145.031C136.719 143.012 134.527 141.999 131.001 142.016Z" fill="#73371F"/>
<path d="M128.913 111.647L129.001 111.689L130.127 112.295L128.237 97.0079C127.119 96.7955 125.95 96.6878 124.844 96.8246C124.376 96.8828 123.919 96.9836 123.485 97.135C122.112 97.6141 121.133 98.5521 120.495 100.003C119.875 101.412 119.838 102.778 120.382 104.182C122.099 108.607 128.845 111.618 128.913 111.647Z" fill="#73371F"/>
<path d="M127.764 93.1686L126.423 82.3203C125.568 82.8538 124.912 83.6366 124.444 84.6997C123.824 86.1081 123.787 87.4748 124.331 88.8774C124.974 90.536 126.325 91.99 127.764 93.1686Z" fill="#73371F"/>
<ellipse cx="167.566" cy="91.5435" rx="17.9846" ry="17.9846" transform="rotate(-7 167.566 91.5435)" fill="#00A2C4"/>
<g clip-path="url(#clip1_17_28661)">
<path fill-rule="evenodd" clip-rule="evenodd" d="M174.596 99.0041C173.051 100.56 170.993 101.627 168.648 101.915C163.495 102.548 158.771 99.1899 157.576 94.2631L159.869 96.0539L160.022 95.8569C160.533 95.2041 160.417 94.2614 159.764 93.7514L156.224 90.9854L153.458 94.5257C152.948 95.1785 153.063 96.1212 153.716 96.6312L153.913 96.7851L155.805 94.3643C157.078 100.313 162.709 104.408 168.862 103.652C172.239 103.237 175.111 101.442 176.98 98.9029L176.778 98.7547C176.111 98.2637 175.179 98.4161 174.596 99.0041Z" fill="white"/>
<path fill-rule="evenodd" clip-rule="evenodd" d="M160.236 84.7283C161.781 83.1721 163.839 82.1052 166.184 81.8173C171.337 81.1845 176.061 84.5425 177.256 89.4693L174.963 87.6785L174.81 87.8755C174.3 88.5284 174.415 89.471 175.068 89.9811L178.608 92.747L181.374 89.2067C181.884 88.5539 181.769 87.6113 181.116 87.1012L180.919 86.9473L179.027 89.3681C177.754 83.4196 172.123 79.3248 165.97 80.0803C162.593 80.495 159.721 82.2907 157.852 84.8295L158.054 84.9777C158.721 85.4687 159.653 85.3163 160.236 84.7283Z" fill="white"/>
</g>
</g>
<defs>
<clipPath id="clip0_17_28661">
<rect width="375" height="225" fill="white"/>
</clipPath>
<clipPath id="clip1_17_28661">
<rect width="33.673" height="33.673" fill="white" transform="translate(149.578 77.9355) rotate(-7)"/>
</clipPath>
</defs>
</svg>
