<svg width="27" height="18" viewBox="0 0 27 18" fill="none" xmlns="http://www.w3.org/2000/svg">
<g clip-path="url(#clip0_109_43746)">
<path d="M0 0H27V18H0V0Z" fill="white"/>
<path d="M15.8842 9L27 1.58947V0H24.6158L13.5 7.41053L2.38421 0H0V1.58947L11.1158 9L0 16.4105V18H2.38421L13.5 10.5895L24.6158 18H27V16.4105L15.8842 9Z" fill="#D80027"/>
<path d="M12.3004 2.34576L13.4741 2.6405L14.6477 2.34576L14.8583 1.24576L14.0741 1.58787L13.4741 0.777344L12.8741 1.58787L12.0898 1.24576L12.3004 2.34576Z" fill="#FFDA44"/>
<path d="M12.3004 2.3491C12.3004 2.3491 12.0898 3.02804 12.0898 3.92278C12.0898 5.3912 13.4741 6.09646 13.4741 6.09646C13.4741 6.09646 14.8583 5.28067 14.8583 3.92278C14.8583 3.11225 14.6477 2.3491 14.6477 2.3491C14.6477 2.3491 14.2214 2.08594 13.4741 2.08594C12.7267 2.08594 12.3004 2.3491 12.3004 2.3491Z" fill="#D80027"/>
</g>
<rect x="0.5" y="0.5" width="26" height="17" rx="0.5" stroke="black" stroke-opacity="0.2"/>
<defs>
<clipPath id="clip0_109_43746">
<rect width="27" height="18" rx="1" fill="white"/>
</clipPath>
</defs>
</svg>
