<svg width="375" height="225" viewBox="0 0 375 225" fill="none" xmlns="http://www.w3.org/2000/svg">
<mask id="path-1-outside-1_1586_44809" maskUnits="userSpaceOnUse" x="85" y="11" width="210" height="204" fill="black">
<rect fill="white" x="85" y="11" width="210" height="204"/>
<path d="M139.253 211.128H128.411V194.372H139.253V211.128ZM173.785 14C177.032 14.0002 179.665 16.6492 179.665 19.917V135.86C195.826 122.217 217.15 104.489 233.589 91.8887V87.998C233.198 87.9612 232.889 87.6337 232.889 87.2344V81.2256C232.889 80.8263 233.198 80.4987 233.589 80.4619V77.3564C233.198 77.3196 232.889 76.9921 232.889 76.5928V73.1006C232.889 72.7013 233.198 72.3741 233.589 72.3369V65.9502C233.589 62.2992 236.551 59.3398 240.205 59.3398H283.509C287.163 59.3398 290.125 62.2992 290.125 65.9502V74.3994C290.172 74.3902 290.221 74.3848 290.271 74.3848C290.694 74.3848 291.042 74.7315 291.042 75.1553V82.4639C291.042 82.8876 290.695 83.2344 290.271 83.2344C290.221 83.2343 290.172 83.2289 290.125 83.2197V164.794C290.125 168.445 287.163 171.405 283.509 171.405H240.205C236.551 171.405 233.589 168.445 233.589 164.794V148.94C216.996 153.384 194.489 159.593 179.665 163.598V184.513C179.665 187.781 177.032 190.43 173.785 190.43H93.8799C90.6326 190.43 88 187.781 88 184.513V19.917C88 16.6491 90.6326 14 93.8799 14H173.785Z"/>
</mask>
<path d="M139.253 211.128V214.128H142.253V211.128H139.253ZM128.411 211.128H125.411V214.128H128.411V211.128ZM128.411 194.372V191.372H125.411V194.372H128.411ZM139.253 194.372H142.253V191.372H139.253V194.372ZM173.785 14L173.785 11H173.785V14ZM179.665 19.917H182.665V19.9169L179.665 19.917ZM179.665 135.86H176.665V142.319L181.6 138.153L179.665 135.86ZM233.589 91.8887L235.414 94.2697L236.589 93.3691V91.8887H233.589ZM233.589 87.998H236.589V85.2676L233.87 85.0113L233.589 87.998ZM233.589 80.4619L233.87 83.4487L236.589 83.1923V80.4619H233.589ZM233.589 77.3564H236.589V74.626L233.87 74.3697L233.589 77.3564ZM233.589 72.3369L233.873 75.3234L236.589 75.0649V72.3369H233.589ZM290.125 74.3994H287.125V78.0367L290.696 77.3446L290.125 74.3994ZM290.271 74.3848V71.3848H290.268L290.271 74.3848ZM290.271 83.2344L290.268 86.2344H290.271V83.2344ZM290.125 83.2197L290.696 80.2745L287.125 79.5824V83.2197H290.125ZM233.589 148.94H236.589V145.031L232.813 146.043L233.589 148.94ZM179.665 163.598L178.883 160.701L176.665 161.301V163.598H179.665ZM173.785 190.43V193.43H173.785L173.785 190.43ZM88 19.917L85 19.9169V19.917H88ZM93.8799 14V11V14ZM139.253 211.128V208.128H128.411V211.128V214.128H139.253V211.128ZM128.411 211.128H131.411V194.372H128.411H125.411V211.128H128.411ZM128.411 194.372V197.372H139.253V194.372V191.372H128.411V194.372ZM139.253 194.372H136.253V211.128H139.253H142.253V194.372H139.253ZM173.785 14L173.785 17C175.358 17.0001 176.665 18.2884 176.665 19.917L179.665 19.917L182.665 19.9169C182.665 15.01 178.707 11.0002 173.785 11L173.785 14ZM179.665 19.917H176.665V135.86H179.665H182.665V19.917H179.665ZM179.665 135.86L181.6 138.153C197.758 124.511 219.036 106.823 235.414 94.2697L233.589 91.8887L231.764 89.5077C215.264 102.154 193.893 119.922 177.73 133.568L179.665 135.86ZM233.589 91.8887H236.589V87.998H233.589H230.589V91.8887H233.589ZM233.589 87.998L233.87 85.0113C234.976 85.1155 235.889 86.041 235.889 87.2344H232.889H229.889C229.889 89.2264 231.421 90.8069 233.307 90.9848L233.589 87.998ZM232.889 87.2344H235.889V81.2256H232.889H229.889V87.2344H232.889ZM232.889 81.2256H235.889C235.889 82.419 234.976 83.3444 233.87 83.4487L233.589 80.4619L233.307 77.4752C231.421 77.653 229.889 79.2336 229.889 81.2256H232.889ZM233.589 80.4619H236.589V77.3564H233.589H230.589V80.4619H233.589ZM233.589 77.3564L233.87 74.3697C234.976 74.4739 235.889 75.3994 235.889 76.5928H232.889H229.889C229.889 78.5848 231.421 80.1653 233.307 80.3432L233.589 77.3564ZM232.889 76.5928H235.889V73.1006H232.889H229.889V76.5928H232.889ZM232.889 73.1006H235.889C235.889 74.2962 234.974 75.2186 233.873 75.3234L233.589 72.3369L233.305 69.3504C231.423 69.5296 229.889 71.1064 229.889 73.1006H232.889ZM233.589 72.3369H236.589V65.9502H233.589H230.589V72.3369H233.589ZM233.589 65.9502H236.589C236.589 63.9585 238.205 62.3398 240.205 62.3398V59.3398V56.3398C234.897 56.3398 230.589 60.6398 230.589 65.9502H233.589ZM240.205 59.3398V62.3398H283.509V59.3398V56.3398H240.205V59.3398ZM283.509 59.3398V62.3398C285.508 62.3398 287.125 63.9587 287.125 65.9502H290.125H293.125C293.125 60.6397 288.817 56.3398 283.509 56.3398V59.3398ZM290.125 65.9502H287.125V74.3994H290.125H293.125V65.9502H290.125ZM290.125 74.3994L290.696 77.3446C290.585 77.3661 290.441 77.3846 290.273 77.3848L290.271 74.3848L290.268 71.3848C290 71.385 289.76 71.4144 289.554 71.4542L290.125 74.3994ZM290.271 74.3848V77.3848C289.042 77.3848 288.042 76.3933 288.042 75.1553H291.042H294.042C294.042 73.0698 292.346 71.3848 290.271 71.3848V74.3848ZM291.042 75.1553H288.042V82.4639H291.042H294.042V75.1553H291.042ZM291.042 82.4639H288.042C288.042 81.2267 289.042 80.2344 290.271 80.2344V83.2344V86.2344C292.347 86.2344 294.042 84.5485 294.042 82.4639H291.042ZM290.271 83.2344L290.273 80.2344C290.441 80.2345 290.585 80.2531 290.696 80.2745L290.125 83.2197L289.554 86.1649C289.76 86.2047 290 86.2342 290.268 86.2344L290.271 83.2344ZM290.125 83.2197H287.125V164.794H290.125H293.125V83.2197H290.125ZM290.125 164.794H287.125C287.125 166.786 285.508 168.405 283.509 168.405V171.405V174.405C288.818 174.405 293.125 170.103 293.125 164.794H290.125ZM283.509 171.405V168.405H240.205V171.405V174.405H283.509V171.405ZM240.205 171.405V168.405C238.206 168.405 236.589 166.786 236.589 164.794H233.589H230.589C230.589 170.103 234.896 174.405 240.205 174.405V171.405ZM233.589 164.794H236.589V148.94H233.589H230.589V164.794H233.589ZM233.589 148.94L232.813 146.043C216.229 150.484 193.669 156.707 178.883 160.701L179.665 163.598L180.447 166.494C195.309 162.479 217.764 156.284 234.365 151.838L233.589 148.94ZM179.665 163.598H176.665V184.513H179.665H182.665V163.598H179.665ZM179.665 184.513H176.665C176.665 186.141 175.358 187.43 173.785 187.43L173.785 190.43L173.785 193.43C178.707 193.429 182.665 189.42 182.665 184.513H179.665ZM173.785 190.43V187.43H93.8799V190.43V193.43H173.785V190.43ZM93.8799 190.43V187.43C92.3072 187.43 91 186.142 91 184.513H88H85C85 189.42 88.958 193.43 93.8799 193.43V190.43ZM88 184.513H91V19.917H88H85V184.513H88ZM88 19.917L91 19.917C91 18.2882 92.3072 17 93.8799 17V14V11C88.958 11 85.0001 15.0101 85 19.9169L88 19.917ZM93.8799 14V17H173.785V14V11H93.8799V14Z" fill="white" mask="url(#path-1-outside-1_1586_44809)"/>
<g opacity="0.4">
<path fill-rule="evenodd" clip-rule="evenodd" d="M155.779 156.113C155.182 156.679 154.844 157.466 154.844 158.29L154.844 166.566C154.844 167.119 155.292 167.566 155.844 167.566H163.947C164.142 167.566 164.337 167.547 164.528 167.509L285.755 143.57V76.3945L239.411 76.7893L155.779 156.113Z" fill="url(#paint0_linear_1586_44809)" style="mix-blend-mode:multiply"/>
</g>
<path d="M290.273 74.3851C290.223 74.3851 290.174 74.3907 290.127 74.3999V65.9502C290.127 62.2992 287.164 59.3398 283.51 59.3398H240.206C236.552 59.3398 233.59 62.2992 233.59 65.9502V72.3376C233.2 72.3748 232.891 72.7015 232.891 73.1008V76.5932C232.891 76.9925 233.2 77.3196 233.59 77.3564V80.4627C233.2 80.4995 232.891 80.8266 232.891 81.2259V87.2349C232.891 87.6342 233.2 87.9612 233.59 87.9981V164.795C233.59 168.445 236.552 171.405 240.206 171.405H283.51C287.165 171.405 290.127 168.445 290.127 164.795V83.2199C290.174 83.2291 290.223 83.2348 290.273 83.2348C290.697 83.2348 291.043 82.8882 291.043 82.4645V75.1553C291.043 74.7316 290.696 74.3851 290.273 74.3851Z" fill="#292929"/>
<path d="M264.867 63.5327H258.853C258.429 63.5327 258.082 63.1862 258.082 62.7625C258.082 62.3387 258.429 61.9922 258.853 61.9922H264.867C265.291 61.9922 265.638 62.3387 265.638 62.7625C265.638 63.1858 265.291 63.5327 264.867 63.5327Z" fill="white"/>
<path d="M286.009 161.513C286.009 163.498 284.399 165.107 282.412 165.107H241.308C239.321 165.107 237.711 163.498 237.711 161.513V69.2187C237.711 67.2339 239.321 65.625 241.308 65.625H282.413C284.399 65.625 286.009 67.2339 286.009 69.2187V161.513H286.009Z" fill="white"/>
<mask id="path-7-outside-2_1586_44809" maskUnits="userSpaceOnUse" x="247.477" y="125.5" width="28" height="35" fill="black">
<rect fill="white" x="247.477" y="125.5" width="28" height="35"/>
<path d="M258.447 128.507C258.64 130.268 258.775 132.013 258.854 133.748C258.992 132.278 259.15 130.806 259.33 129.333C260.132 129.44 261.261 130.208 261.226 130.512C260.637 135.573 260.808 136.787 260.808 136.787C261.232 135.214 261.241 134.301 261.549 132.764C261.82 132.547 262.567 132.249 263.259 132.265C263.242 131.984 263.206 131.5 263.186 131.218C263.358 130.598 264.291 130.135 265.296 130.055C265.475 132.206 265.513 133.405 265.592 135.477C265.67 134.334 265.783 133.606 265.992 132.293C266.311 131.721 267.342 131.59 268.135 131.75C267.749 134.05 267.618 135.283 267.527 137.505C267.988 135.718 268.179 135.072 268.372 133.315C269.074 133.382 269.794 133.58 270.143 133.967C270.279 133.471 270.358 133.213 270.484 132.713C270.559 132.421 271.677 132.215 272.525 132.451C272.237 134.324 271.949 135.692 271.44 137.438L271.209 138.213L271.033 138.872H271.868C271.862 138.923 271.287 143.441 270.375 148.009C269.462 152.58 268.23 157.101 268.218 157.146L266.891 158.134C266.853 158.12 264.213 157.146 260.919 157.146C257.625 157.146 255.149 158.12 255.113 158.134L253.786 157.146C253.774 157.101 252.532 152.53 251.629 148.009C250.727 143.491 250.142 138.923 250.136 138.872H251.094L250.794 138.213C250.344 137.118 249.854 136.262 249.479 135.117C249.434 134.982 250.423 133.488 251.201 133.267C251.577 134.481 251.991 135.66 252.436 136.814C252.246 135.057 251.762 133.27 251.329 131.487C252.111 131.28 253.518 131.703 253.549 131.842C254.062 134.12 254.349 134.835 254.749 137.087C254.657 135.226 254.602 134.603 254.318 133.182C254.261 132.886 255.402 132.034 256.202 131.974C256.487 133.245 256.617 134.023 256.928 136.133C256.909 133.808 256.902 133.258 256.561 129.785C256.531 129.485 257.837 128.399 258.447 128.507Z"/>
</mask>
<path d="M258.447 128.507C258.64 130.268 258.775 132.013 258.854 133.748C258.992 132.278 259.15 130.806 259.33 129.333C260.132 129.44 261.261 130.208 261.226 130.512C260.637 135.573 260.808 136.787 260.808 136.787C261.232 135.214 261.241 134.301 261.549 132.764C261.82 132.547 262.567 132.249 263.259 132.265C263.242 131.984 263.206 131.5 263.186 131.218C263.358 130.598 264.291 130.135 265.296 130.055C265.475 132.206 265.513 133.405 265.592 135.477C265.67 134.334 265.783 133.606 265.992 132.293C266.311 131.721 267.342 131.59 268.135 131.75C267.749 134.05 267.618 135.283 267.527 137.505C267.988 135.718 268.179 135.072 268.372 133.315C269.074 133.382 269.794 133.58 270.143 133.967C270.279 133.471 270.358 133.213 270.484 132.713C270.559 132.421 271.677 132.215 272.525 132.451C272.237 134.324 271.949 135.692 271.44 137.438L271.209 138.213L271.033 138.872H271.868C271.862 138.923 271.287 143.441 270.375 148.009C269.462 152.58 268.23 157.101 268.218 157.146L266.891 158.134C266.853 158.12 264.213 157.146 260.919 157.146C257.625 157.146 255.149 158.12 255.113 158.134L253.786 157.146C253.774 157.101 252.532 152.53 251.629 148.009C250.727 143.491 250.142 138.923 250.136 138.872H251.094L250.794 138.213C250.344 137.118 249.854 136.262 249.479 135.117C249.434 134.982 250.423 133.488 251.201 133.267C251.577 134.481 251.991 135.66 252.436 136.814C252.246 135.057 251.762 133.27 251.329 131.487C252.111 131.28 253.518 131.703 253.549 131.842C254.062 134.12 254.349 134.835 254.749 137.087C254.657 135.226 254.602 134.603 254.318 133.182C254.261 132.886 255.402 132.034 256.202 131.974C256.487 133.245 256.617 134.023 256.928 136.133C256.909 133.808 256.902 133.258 256.561 129.785C256.531 129.485 257.837 128.399 258.447 128.507Z" fill="white"/>
<path d="M258.447 128.507L260.435 128.289C260.339 127.405 259.67 126.691 258.794 126.537L258.447 128.507ZM258.854 133.748L256.856 133.839C256.903 134.888 257.755 135.722 258.805 135.747C259.855 135.773 260.746 134.982 260.845 133.936L258.854 133.748ZM259.33 129.333L259.594 127.351C259.065 127.28 258.529 127.424 258.106 127.751C257.684 128.078 257.41 128.56 257.345 129.09L259.33 129.333ZM261.226 130.512L263.212 130.743L263.212 130.743L261.226 130.512ZM260.808 136.787L258.827 137.066C258.96 138.007 259.736 138.724 260.684 138.783C261.632 138.842 262.491 138.226 262.738 137.309L260.808 136.787ZM261.549 132.764L260.3 131.201C259.932 131.495 259.68 131.909 259.588 132.371L261.549 132.764ZM263.259 132.265L263.214 134.264C263.773 134.277 264.312 134.054 264.7 133.651C265.088 133.248 265.289 132.701 265.255 132.143L263.259 132.265ZM263.186 131.218L261.259 130.681C261.197 130.903 261.174 131.133 261.191 131.362L263.186 131.218ZM265.296 130.055L267.289 129.889C267.198 128.791 266.235 127.973 265.137 128.061L265.296 130.055ZM265.592 135.477L263.593 135.552C263.634 136.615 264.498 137.46 265.561 137.476C266.624 137.493 267.514 136.674 267.587 135.614L265.592 135.477ZM265.992 132.293L264.245 131.32C264.131 131.524 264.054 131.747 264.017 131.978L265.992 132.293ZM268.135 131.75L270.107 132.081C270.286 131.017 269.588 130.003 268.53 129.789L268.135 131.75ZM267.527 137.505L265.529 137.423C265.487 138.445 266.223 139.334 267.235 139.483C268.247 139.633 269.209 138.994 269.464 138.004L267.527 137.505ZM268.372 133.315L268.561 131.324C267.473 131.221 266.503 132.011 266.384 133.098L268.372 133.315ZM270.143 133.967L268.656 135.305C269.146 135.849 269.892 136.082 270.604 135.913C271.315 135.744 271.878 135.201 272.071 134.496L270.143 133.967ZM270.484 132.713L268.547 132.215L268.546 132.221L270.484 132.713ZM272.525 132.451L274.502 132.755C274.656 131.755 274.038 130.797 273.063 130.525L272.525 132.451ZM271.44 137.438L273.357 138.011L273.361 137.998L271.44 137.438ZM271.209 138.213L269.293 137.64C269.287 137.659 269.282 137.678 269.277 137.698L271.209 138.213ZM271.033 138.872L269.101 138.357C268.941 138.957 269.069 139.598 269.447 140.091C269.826 140.583 270.412 140.872 271.033 140.872V138.872ZM271.868 138.872L273.852 139.124C273.925 138.554 273.748 137.981 273.369 137.55C272.989 137.119 272.442 136.872 271.868 136.872V138.872ZM270.375 148.009L272.336 148.4H272.336L270.375 148.009ZM268.218 157.146L269.412 158.75C269.771 158.483 270.03 158.103 270.147 157.671L268.218 157.146ZM266.891 158.134L266.196 160.009C266.831 160.245 267.542 160.142 268.085 159.738L266.891 158.134ZM260.919 157.146V155.146H260.919L260.919 157.146ZM255.113 158.134L253.919 159.738C254.474 160.151 255.204 160.248 255.848 159.994L255.113 158.134ZM253.786 157.146L251.856 157.67C251.974 158.102 252.233 158.482 252.592 158.75L253.786 157.146ZM251.629 148.009L249.668 148.4H249.668L251.629 148.009ZM250.136 138.872V136.872C249.561 136.872 249.014 137.119 248.635 137.55C248.255 137.982 248.079 138.555 248.152 139.125L250.136 138.872ZM251.094 138.872V140.872C251.774 140.872 252.407 140.526 252.775 139.955C253.144 139.383 253.196 138.663 252.914 138.044L251.094 138.872ZM250.794 138.213L248.944 138.974C248.954 138.996 248.963 139.019 248.973 139.041L250.794 138.213ZM249.479 135.117L247.578 135.74L247.578 135.74L249.479 135.117ZM251.201 133.267L253.112 132.676C252.791 131.637 251.699 131.045 250.654 131.343L251.201 133.267ZM252.436 136.814L250.569 137.533C250.93 138.47 251.93 138.995 252.906 138.758C253.882 138.522 254.532 137.598 254.424 136.6L252.436 136.814ZM251.329 131.487L250.816 129.554C249.764 129.834 249.129 130.902 249.386 131.96L251.329 131.487ZM253.549 131.842L251.598 132.281L251.598 132.281L253.549 131.842ZM254.749 137.087L252.78 137.437C252.965 138.476 253.925 139.193 254.974 139.074C256.023 138.955 256.799 138.042 256.747 136.988L254.749 137.087ZM254.318 133.182L252.355 133.564L252.357 133.572L254.318 133.182ZM256.202 131.974L258.154 131.537C257.937 130.568 257.043 129.905 256.053 129.979L256.202 131.974ZM256.928 136.133L254.949 136.425C255.102 137.464 256.034 138.208 257.082 138.127C258.13 138.046 258.936 137.167 258.928 136.116L256.928 136.133ZM256.561 129.785L254.57 129.979L254.57 129.981L256.561 129.785ZM258.447 128.507L256.459 128.724C256.647 130.444 256.779 132.146 256.856 133.839L258.854 133.748L260.851 133.657C260.771 131.88 260.633 130.093 260.435 128.289L258.447 128.507ZM258.854 133.748L260.845 133.936C260.982 132.483 261.138 131.03 261.315 129.576L259.33 129.333L257.345 129.09C257.163 130.583 257.003 132.073 256.862 133.56L258.854 133.748ZM259.33 129.333L259.066 131.316C259.036 131.311 259.079 131.315 259.194 131.363C259.298 131.407 259.411 131.467 259.509 131.53C259.618 131.6 259.649 131.636 259.625 131.61C259.615 131.6 259.539 131.523 259.456 131.379C259.412 131.304 259.348 131.179 259.299 131.01C259.25 130.842 259.203 130.588 259.239 130.281L261.226 130.512L263.212 130.743C263.289 130.081 263.037 129.582 262.919 129.377C262.778 129.133 262.612 128.945 262.49 128.819C262.238 128.561 261.944 128.34 261.674 128.167C261.166 127.84 260.399 127.458 259.594 127.351L259.33 129.333ZM261.226 130.512L259.239 130.28C258.94 132.848 258.83 134.474 258.797 135.481C258.78 135.986 258.783 136.342 258.791 136.589C258.796 136.713 258.802 136.811 258.808 136.888C258.811 136.927 258.815 136.961 258.818 136.99C258.819 137.005 258.821 137.018 258.823 137.031C258.823 137.037 258.824 137.043 258.825 137.049C258.825 137.052 258.826 137.055 258.826 137.058C258.826 137.059 258.826 137.061 258.827 137.062C258.827 137.063 258.827 137.064 258.827 137.064C258.827 137.065 258.827 137.066 260.808 136.787C262.788 136.508 262.788 136.509 262.788 136.51C262.788 136.51 262.789 136.511 262.789 136.512C262.789 136.513 262.789 136.515 262.789 136.516C262.789 136.518 262.79 136.521 262.79 136.523C262.791 136.528 262.791 136.532 262.792 136.536C262.793 136.544 262.793 136.55 262.794 136.555C262.795 136.564 262.795 136.566 262.795 136.562C262.794 136.553 262.791 136.517 262.789 136.447C262.784 136.308 262.78 136.045 262.795 135.613C262.823 134.748 262.922 133.237 263.212 130.743L261.226 130.512ZM260.808 136.787L262.738 137.309C262.978 136.421 263.1 135.718 263.199 135.062C263.3 134.401 263.368 133.864 263.51 133.156L261.549 132.764L259.588 132.371C259.422 133.2 259.332 133.889 259.245 134.462C259.157 135.04 259.062 135.58 258.877 136.266L260.808 136.787ZM261.549 132.764L262.798 134.326C262.748 134.366 262.714 134.386 262.706 134.391C262.696 134.397 262.697 134.396 262.711 134.389C262.74 134.375 262.792 134.353 262.863 134.33C262.933 134.307 263.005 134.289 263.073 134.277C263.142 134.266 263.19 134.264 263.214 134.264L263.259 132.265L263.303 130.265C262.676 130.251 262.088 130.376 261.63 130.525C261.206 130.662 260.699 130.883 260.3 131.201L261.549 132.764ZM263.259 132.265L265.255 132.143C265.237 131.848 265.2 131.346 265.18 131.074L263.186 131.218L261.191 131.362C261.212 131.654 261.246 132.12 261.262 132.386L263.259 132.265ZM263.186 131.218L265.112 131.754C265.047 131.99 264.933 132.126 264.885 132.176C264.837 132.225 264.822 132.224 264.871 132.198C264.917 132.173 264.995 132.14 265.103 132.11C265.209 132.08 265.33 132.058 265.455 132.048L265.296 130.055L265.137 128.061C264.399 128.12 263.641 128.32 262.986 128.67C262.386 128.99 261.556 129.614 261.259 130.681L263.186 131.218ZM265.296 130.055L263.303 130.22C263.477 132.322 263.515 133.479 263.593 135.552L265.592 135.477L267.59 135.401C267.512 133.331 267.472 132.091 267.289 129.889L265.296 130.055ZM265.592 135.477L267.587 135.614C267.659 134.568 267.759 133.915 267.967 132.608L265.992 132.293L264.017 131.978C263.807 133.297 263.682 134.101 263.596 135.34L265.592 135.477ZM265.992 132.293L267.74 133.266C267.607 133.503 267.44 133.624 267.361 133.67C267.286 133.714 267.256 133.713 267.301 133.703C267.341 133.695 267.409 133.686 267.499 133.687C267.587 133.687 267.672 133.697 267.739 133.711L268.135 131.75L268.53 129.789C267.897 129.662 267.163 129.644 266.47 129.791C265.846 129.923 264.818 130.29 264.245 131.32L265.992 132.293ZM268.135 131.75L266.162 131.419C265.763 133.797 265.623 135.113 265.529 137.423L267.527 137.505L269.526 137.586C269.613 135.452 269.734 134.303 270.107 132.081L268.135 131.75ZM267.527 137.505L269.464 138.004C269.924 136.22 270.15 135.449 270.36 133.533L268.372 133.315L266.384 133.098C266.209 134.696 266.052 135.215 265.591 137.006L267.527 137.505ZM268.372 133.315L268.183 135.306C268.425 135.329 268.619 135.371 268.744 135.414C268.804 135.435 268.824 135.447 268.814 135.441C268.806 135.436 268.739 135.397 268.656 135.305L270.143 133.967L271.629 132.628C271.132 132.077 270.503 131.788 270.035 131.628C269.538 131.459 269.021 131.368 268.561 131.324L268.372 133.315ZM270.143 133.967L272.071 134.496C272.195 134.046 272.29 133.727 272.423 133.205L270.484 132.713L268.546 132.221C268.425 132.698 268.362 132.896 268.214 133.438L270.143 133.967ZM270.484 132.713L272.421 133.211C272.289 133.724 271.986 134.021 271.846 134.139C271.693 134.267 271.565 134.327 271.523 134.346C271.435 134.384 271.421 134.375 271.508 134.362C271.685 134.336 271.886 134.349 271.988 134.378L272.525 132.451L273.063 130.525C272.316 130.317 271.535 130.315 270.922 130.405C270.614 130.451 270.253 130.534 269.909 130.686C269.738 130.761 269.503 130.883 269.272 131.077C269.053 131.262 268.698 131.629 268.547 132.215L270.484 132.713ZM272.525 132.451L270.549 132.147C270.272 133.948 270.001 135.229 269.52 136.879L271.44 137.438L273.361 137.998C273.897 136.155 274.203 134.7 274.502 132.755L272.525 132.451ZM271.44 137.438L269.524 136.866L269.293 137.64L271.209 138.213L273.125 138.786L273.357 138.011L271.44 137.438ZM271.209 138.213L269.277 137.698L269.101 138.357L271.033 138.872L272.966 139.387L273.141 138.728L271.209 138.213ZM271.033 138.872V140.872H271.868V138.872V136.872H271.033V138.872ZM271.868 138.872L269.884 138.62C269.879 138.659 269.312 143.121 268.414 147.617L270.375 148.009L272.336 148.4C273.263 143.761 273.844 139.187 273.852 139.124L271.868 138.872ZM270.375 148.009L268.414 147.617C267.515 152.118 266.298 156.585 266.288 156.62L268.218 157.146L270.147 157.671C270.162 157.618 271.409 153.042 272.336 148.4L270.375 148.009ZM268.218 157.146L267.023 155.541L265.696 156.53L266.891 158.134L268.085 159.738L269.412 158.75L268.218 157.146ZM266.891 158.134L267.585 156.258C267.46 156.212 264.56 155.146 260.919 155.146V157.146V159.146C263.866 159.146 266.247 160.028 266.196 160.009L266.891 158.134ZM260.919 157.146L260.919 155.146C257.267 155.146 254.522 156.217 254.378 156.274L255.113 158.134L255.848 159.994C255.775 160.023 257.983 159.146 260.919 159.146L260.919 157.146ZM255.113 158.134L256.308 156.53L254.981 155.541L253.786 157.146L252.592 158.75L253.919 159.738L255.113 158.134ZM253.786 157.146L255.716 156.621C255.706 156.585 254.479 152.068 253.59 147.617L251.629 148.009L249.668 148.4C250.585 152.992 251.842 157.617 251.856 157.67L253.786 157.146ZM251.629 148.009L253.59 147.617C252.702 143.17 252.125 138.659 252.12 138.619L250.136 138.872L248.152 139.125C248.16 139.187 248.751 143.811 249.668 148.4L251.629 148.009ZM250.136 138.872V140.872H251.094V138.872V136.872H250.136V138.872ZM251.094 138.872L252.914 138.044L252.614 137.385L250.794 138.213L248.973 139.041L249.273 139.7L251.094 138.872ZM250.794 138.213L252.644 137.452C252.399 136.858 252.132 136.301 251.927 135.853C251.713 135.383 251.532 134.961 251.379 134.494L249.479 135.117L247.578 135.74C247.8 136.418 248.052 136.997 248.289 137.515C248.535 138.054 248.739 138.474 248.944 138.974L250.794 138.213ZM249.479 135.117L251.379 134.495C251.441 134.684 251.464 134.85 251.472 134.972C251.481 135.095 251.476 135.199 251.47 135.276C251.457 135.425 251.429 135.539 251.412 135.601C251.379 135.724 251.342 135.807 251.333 135.827C251.31 135.877 251.302 135.884 251.329 135.84C251.377 135.762 251.467 135.629 251.585 135.484C251.704 135.337 251.817 135.219 251.902 135.146C251.943 135.111 251.959 135.102 251.949 135.108C251.943 135.112 251.874 135.154 251.749 135.19L251.201 133.267L250.654 131.343C250.05 131.515 249.581 131.866 249.293 132.114C248.975 132.388 248.698 132.694 248.478 132.965C248.257 133.238 248.06 133.518 247.91 133.764C247.838 133.883 247.754 134.031 247.683 134.189C247.65 134.264 247.595 134.393 247.552 134.552C247.53 134.632 247.499 134.763 247.485 134.925C247.473 135.065 247.458 135.375 247.578 135.74L249.479 135.117ZM251.201 133.267L249.29 133.858C249.681 135.119 250.11 136.341 250.569 137.533L252.436 136.814L254.302 136.096C253.872 134.979 253.473 133.842 253.112 132.676L251.201 133.267ZM252.436 136.814L254.424 136.6C254.217 134.676 253.686 132.717 253.273 131.015L251.329 131.487L249.386 131.96C249.839 133.823 250.276 135.439 250.447 137.029L252.436 136.814ZM251.329 131.487L251.843 133.42C251.76 133.442 251.764 133.426 251.897 133.433C252.012 133.439 252.154 133.459 252.301 133.49C252.45 133.522 252.556 133.556 252.594 133.57C252.62 133.58 252.573 133.565 252.488 133.517C252.45 133.495 252.34 133.431 252.211 133.319C252.145 133.261 252.041 133.162 251.935 133.018C251.833 132.881 251.677 132.632 251.598 132.281L253.549 131.842L255.5 131.403C255.353 130.748 254.93 130.383 254.843 130.307C254.69 130.173 254.546 130.086 254.465 130.04C254.294 129.942 254.126 129.873 254.004 129.827C253.745 129.73 253.444 129.644 253.14 129.579C252.615 129.467 251.681 129.324 250.816 129.554L251.329 131.487ZM253.549 131.842L251.598 132.281C252.158 134.768 252.385 135.215 252.78 137.437L254.749 137.087L256.718 136.737C256.312 134.455 255.966 133.473 255.5 131.402L253.549 131.842ZM254.749 137.087L256.747 136.988C256.652 135.077 256.59 134.347 256.28 132.791L254.318 133.182L252.357 133.572C252.613 134.86 252.662 135.375 252.751 137.186L254.749 137.087ZM254.318 133.182L256.281 132.799C256.346 133.128 256.31 133.405 256.266 133.585C256.223 133.766 256.161 133.9 256.12 133.979C256.04 134.131 255.964 134.213 255.955 134.222C255.931 134.249 255.962 134.212 256.064 134.142C256.158 134.079 256.259 134.023 256.345 133.987C256.443 133.945 256.443 133.961 256.352 133.968L256.202 131.974L256.053 129.979C255.145 130.047 254.313 130.495 253.813 130.836C253.537 131.024 253.243 131.259 252.996 131.531C252.876 131.662 252.715 131.86 252.58 132.115C252.472 132.321 252.219 132.865 252.355 133.564L254.318 133.182ZM256.202 131.974L254.25 132.41C254.518 133.608 254.64 134.328 254.949 136.425L256.928 136.133L258.906 135.841C258.593 133.718 258.455 132.881 258.154 131.537L256.202 131.974ZM256.928 136.133L258.928 136.116C258.908 133.729 258.898 133.119 258.551 129.589L256.561 129.785L254.57 129.981C254.906 133.397 254.909 133.887 254.928 136.149L256.928 136.133ZM256.561 129.785L258.551 129.592C258.585 129.944 258.513 130.215 258.468 130.351C258.42 130.497 258.364 130.6 258.334 130.651C258.275 130.751 258.232 130.795 258.245 130.78C258.265 130.759 258.338 130.687 258.454 130.601C258.571 130.514 258.661 130.466 258.696 130.45C258.712 130.443 258.68 130.459 258.606 130.475C258.54 130.489 258.355 130.521 258.101 130.477L258.447 128.507L258.794 126.537C258.043 126.405 257.394 126.653 257.086 126.788C256.706 126.955 256.357 127.176 256.074 127.386C255.791 127.595 255.506 127.844 255.27 128.107C255.155 128.234 255.009 128.412 254.883 128.628C254.807 128.758 254.502 129.278 254.57 129.979L256.561 129.785Z" fill="white" mask="url(#path-7-outside-2_1586_44809)"/>
<ellipse cx="261" cy="158.134" rx="13.5" ry="1.97561" fill="#A0A09F" fill-opacity="0.15"/>
<path fill-rule="evenodd" clip-rule="evenodd" d="M250.133 138.871H252.767C252.767 138.871 254.944 145.127 260.916 145.127C266.888 145.127 269.23 138.871 269.23 138.871H271.865C271.865 138.871 271.289 143.414 270.372 148.008C269.454 152.602 268.215 157.145 268.215 157.145L266.888 158.133C266.888 158.133 264.234 157.145 260.916 157.145C257.598 157.145 255.11 158.133 255.11 158.133L253.782 157.145C253.782 157.145 252.533 152.552 251.626 148.008C250.718 143.465 250.133 138.871 250.133 138.871Z" fill="#DB0007"/>
<path fill-rule="evenodd" clip-rule="evenodd" d="M262.59 147.104C261.848 147.104 261.186 148.056 260.753 149.546C260.32 148.056 259.658 147.104 258.916 147.104C257.612 147.104 256.555 150.273 256.555 154.183H257.604C257.604 150.552 258.192 147.609 258.916 147.609C259.641 147.609 260.228 150.326 260.228 153.677H261.278C261.278 150.326 261.865 147.609 262.59 147.609C263.314 147.609 263.902 150.552 263.902 154.183H264.951C264.951 150.273 263.894 147.104 262.59 147.104Z" fill="#FFBC0D"/>
<path fill-rule="evenodd" clip-rule="evenodd" d="M253.428 138.213C253.428 138.213 255.568 144.47 261.001 144.47C266.434 144.47 268.574 138.213 268.574 138.213C268.574 138.213 270.056 138.213 271.208 138.213C271.867 136.073 272.196 134.591 272.525 132.451C271.677 132.214 270.558 132.422 270.484 132.714C270.357 133.213 270.278 133.471 270.142 133.967C269.794 133.581 269.073 133.382 268.372 133.316C268.179 135.073 267.987 135.718 267.527 137.506C267.617 135.283 267.749 134.051 268.135 131.751C267.342 131.591 266.31 131.721 265.992 132.294C265.782 133.607 265.67 134.335 265.592 135.477C265.513 133.405 265.474 132.207 265.295 130.055C264.291 130.135 263.358 130.599 263.185 131.218C263.206 131.5 263.241 131.984 263.259 132.265C262.567 132.25 261.82 132.547 261.548 132.764C261.241 134.301 261.233 135.214 260.808 136.787C260.808 136.787 260.636 135.573 261.225 130.512C261.26 130.208 260.131 129.44 259.329 129.333C259.149 130.807 258.991 132.278 258.853 133.748C258.774 132.013 258.639 130.269 258.447 128.507C257.837 128.4 256.531 129.486 256.56 129.786C256.902 133.259 256.908 133.809 256.927 136.133C256.616 134.024 256.487 133.245 256.202 131.974C255.402 132.034 254.259 132.887 254.318 133.183C254.601 134.604 254.656 135.226 254.749 137.087C254.348 134.836 254.062 134.121 253.549 131.842C253.517 131.703 252.11 131.28 251.329 131.488C251.762 133.271 252.245 135.058 252.435 136.815C251.99 135.66 251.576 134.481 251.201 133.267C250.423 133.488 249.434 134.982 249.478 135.117C249.853 136.262 250.343 137.119 250.794 138.213H253.428Z" fill="#FFBC0D"/>
<path fill-rule="evenodd" clip-rule="evenodd" d="M264.353 72.1816C265.293 72.1816 266.056 76.1481 266.056 81.0407H267.419C267.419 75.7713 266.046 71.5 264.353 71.5C263.389 71.5 262.529 72.784 261.967 74.7912C261.405 72.784 260.546 71.5 259.582 71.5C257.889 71.5 256.516 75.7713 256.516 81.0407H257.879C257.879 76.1481 258.642 72.1816 259.582 72.1816C260.523 72.1816 261.286 75.8428 261.286 80.3591H262.649C262.649 75.8428 263.412 72.1816 264.353 72.1816Z" fill="#FFBC0D"/>
<path d="M251.067 94.7402H255.913C256.247 94.7402 256.519 95.0114 256.519 95.346V100.192C256.519 100.527 256.247 100.798 255.913 100.798H251.067C250.732 100.798 250.461 100.527 250.461 100.192V95.346C250.461 95.0114 250.732 94.7402 251.067 94.7402Z" fill="#292929"/>
<path d="M268.028 94.7402H272.874C273.208 94.7402 273.479 95.0114 273.479 95.346V100.192C273.479 100.527 273.208 100.798 272.874 100.798H268.028C267.693 100.798 267.422 100.527 267.422 100.192V95.346C267.422 95.0114 267.693 94.7402 268.028 94.7402Z" fill="#292929"/>
<path d="M251.067 111.701H255.913C256.247 111.701 256.519 111.972 256.519 112.307V117.153C256.519 117.488 256.247 117.759 255.913 117.759H251.067C250.732 117.759 250.461 117.488 250.461 117.153V112.307C250.461 111.972 250.732 111.701 251.067 111.701Z" fill="#292929"/>
<path d="M267.42 107.461C267.755 107.461 268.026 107.732 268.026 108.067V111.701H272.872V108.067C272.872 107.732 273.143 107.461 273.478 107.461H277.112C277.447 107.461 277.718 107.732 277.718 108.067V111.701C277.718 112.036 277.447 112.307 277.112 112.307H273.478V117.153H277.112C277.447 117.153 277.718 117.424 277.718 117.759V121.393C277.718 121.728 277.447 121.999 277.112 121.999H273.478C273.143 121.999 272.872 121.728 272.872 121.393V117.759H268.026V121.393C268.026 121.728 267.755 121.999 267.42 121.999H263.785C263.451 121.999 263.18 121.728 263.18 121.393V117.759C263.18 117.424 263.451 117.153 263.785 117.153H267.42V112.307H263.785C263.451 112.307 263.18 112.036 263.18 111.701V108.067C263.18 107.732 263.451 107.461 263.785 107.461H267.42Z" fill="#292929"/>
<path d="M258.334 107.461C259.672 107.461 260.757 108.546 260.757 109.884V119.576C260.757 120.914 259.672 121.999 258.334 121.999H248.642C247.304 121.999 246.219 120.914 246.219 119.576V109.884C246.219 108.546 247.304 107.461 248.642 107.461H258.334ZM248.642 109.278C248.307 109.278 248.036 109.549 248.036 109.884V119.576C248.036 119.911 248.307 120.182 248.642 120.182H258.334C258.668 120.181 258.939 119.911 258.939 119.576V109.884C258.939 109.549 258.668 109.278 258.334 109.278H248.642Z" fill="#292929"/>
<path d="M258.334 90.5C259.672 90.5 260.757 91.5848 260.757 92.9229V102.615C260.757 103.953 259.672 105.038 258.334 105.038H248.642C247.304 105.038 246.219 103.953 246.219 102.615V92.9229C246.219 91.5848 247.304 90.5001 248.642 90.5H258.334ZM248.642 92.3174C248.307 92.3174 248.036 92.5884 248.036 92.9229V102.615C248.036 102.95 248.307 103.221 248.642 103.221H258.334C258.668 103.221 258.939 102.95 258.939 102.615V92.9229C258.939 92.5885 258.668 92.3176 258.334 92.3174H248.642Z" fill="#292929"/>
<path d="M275.295 90.5C276.633 90.5 277.718 91.5848 277.718 92.9229V102.615C277.718 103.953 276.633 105.038 275.295 105.038H265.603C264.264 105.038 263.18 103.953 263.18 102.615V92.9229C263.18 91.5848 264.264 90.5001 265.603 90.5H275.295ZM265.603 92.3174C265.268 92.3175 264.997 92.5884 264.997 92.9229V102.615C264.997 102.95 265.268 103.221 265.603 103.221H275.295C275.629 103.221 275.9 102.95 275.9 102.615V92.9229C275.9 92.5884 275.629 92.3174 275.295 92.3174H265.603Z" fill="#292929"/>
<path fill-rule="evenodd" clip-rule="evenodd" d="M93.8798 14H173.785C177.032 14 179.665 16.6492 179.665 19.9171V184.513C179.665 187.781 177.032 190.43 173.785 190.43H93.8798C90.6325 190.43 88 187.781 88 184.513V19.9171C88 16.6492 90.6325 14 93.8798 14Z" fill="#292929"/>
<rect x="93.9141" y="23.8555" width="79.8369" height="114.334" rx="3.94256" fill="#F9F9F9"/>
<path fill-rule="evenodd" clip-rule="evenodd" d="M137.862 75.3362C139.458 75.3362 140.752 82.3858 140.752 91.0813H143.065C143.065 81.7166 140.735 74.125 137.862 74.125C136.228 74.125 134.77 76.4066 133.816 79.9744C132.862 76.4066 131.404 74.125 129.769 74.125C126.896 74.125 124.566 81.7166 124.566 91.0813H126.879C126.879 82.3858 128.173 75.3362 129.769 75.3362C131.365 75.3362 132.66 81.8435 132.66 89.8701H134.972C134.972 81.8435 136.266 75.3362 137.862 75.3362Z" fill="#FFBC0D"/>
<path d="M139.252 194.373H128.41V211.129H139.252V194.373Z" fill="#6F6F6F"/>
<rect opacity="0.1" x="128.41" y="194.373" width="10.8421" height="9.85641" fill="#292929"/>
<rect x="151.082" y="144.105" width="22.6697" height="25.6267" fill="#6F6F6F"/>
<rect x="97.8555" y="117.492" width="33.5118" height="14.7846" fill="#D8D8D8"/>
<rect x="136.297" y="117.492" width="33.5118" height="14.7846" fill="#FFBC0D"/>
<rect x="156.008" y="148.047" width="12.8133" height="4.92821" fill="#A0A09F"/>
<defs>
<linearGradient id="paint0_linear_1586_44809" x1="146.146" y1="103.931" x2="262.412" y2="69.0327" gradientUnits="userSpaceOnUse">
<stop stop-color="#006BAE"/>
<stop offset="0.379077" stop-color="#006BAE"/>
<stop offset="1" stop-color="#7762C0" stop-opacity="0.03"/>
</linearGradient>
</defs>
</svg>
