<svg width="375" height="225" viewBox="0 0 375 225" fill="none" xmlns="http://www.w3.org/2000/svg">
<g clip-path="url(#clip0_17_28641)">
<path d="M133.869 59.5333C131.918 65.8071 125.304 69.2864 119.119 67.2908C112.938 65.294 109.492 58.5667 111.44 52.291C113.389 46.0154 120.006 42.5379 126.188 44.5317C132.371 46.5303 135.818 53.2576 133.869 59.5333Z" fill="url(#paint0_linear_17_28641)"/>
<path d="M112.548 52.6325C110.791 58.285 113.894 64.3464 119.466 66.1431C125.039 67.9397 130.998 64.8075 132.752 59.1532C134.506 53.4989 131.406 47.4393 125.834 45.6426C120.261 43.8459 114.305 46.98 112.548 52.6325Z" fill="white"/>
<path d="M117.596 51.2143C117.248 52.34 118.411 53.8177 120.513 55.218C118.002 55.1277 116.218 55.6545 115.867 56.7784C115.254 58.7518 119.663 61.9413 125.715 63.8944L126.209 62.3035C120.591 60.4885 116.309 58.1274 116.651 57.0301C116.991 55.931 121.475 56.4017 126.662 58.0757L127.156 56.4848C121.967 54.8137 118.038 52.5633 118.376 51.4671C118.715 50.368 123.55 50.9522 129.168 52.7672L129.661 51.1792C123.612 49.2204 118.206 49.2391 117.596 51.2143Z" fill="#FFBC0D"/>
<ellipse cx="248.292" cy="167.763" rx="37.0189" ry="6.94105" fill="#A0A09F" fill-opacity="0.15"/>
<path d="M248.203 18.627C248.438 16.9585 249.98 15.796 251.648 16.0303L257.691 16.8799C259.36 17.1144 260.522 18.6567 260.288 20.3252L254.108 64.291L254.345 64.3018C257.193 64.431 260.042 64.6371 262.89 64.9209L264.11 65.0469C266.312 65.2835 268.144 66.8165 268.779 68.915L268.81 69.0205H276.156C278.49 69.0205 280.489 70.6706 280.943 72.9443L280.972 73.0996L281.938 78.8926C282.169 80.2832 281.423 81.5945 280.225 82.1572L280.175 82.1797L280.143 82.6221C279.398 95.4826 278.48 108.373 277.388 121.291L277.086 124.814C275.86 138.913 274.433 152.977 272.806 167.007C272.641 168.422 271.519 169.535 270.103 169.688C262.917 170.465 255.73 170.876 248.534 170.922L247.196 170.927C239.561 170.927 231.926 170.514 224.291 169.688C222.874 169.535 221.752 168.421 221.588 167.006C219.954 152.908 218.528 138.844 217.308 124.814C216.698 117.8 216.138 110.776 215.628 103.741L215.378 100.228C214.967 94.3652 214.591 88.497 214.252 82.6484L214.221 82.1807L214.163 82.1553C213.004 81.6083 212.27 80.3596 212.438 79.0186L212.456 78.8926L213.422 73.0996C213.814 70.746 215.851 69.0205 218.237 69.0205H225.583L225.614 68.915C226.233 66.8702 227.989 65.363 230.115 65.0684L230.283 65.0469C233.812 64.6679 237.342 64.4083 240.871 64.2666L241.793 64.2324L248.203 18.627Z" fill="white"/>
<path fill-rule="evenodd" clip-rule="evenodd" d="M217.297 82.4453C227.264 83.2589 237.23 83.6657 247.197 83.6657C257.164 83.6657 267.131 83.2589 277.098 82.4453C276.287 96.4457 275.27 110.481 274.047 124.55C272.823 138.619 271.399 152.654 269.775 166.655C262.249 167.468 254.723 167.875 247.197 167.875C239.671 167.875 232.145 167.468 224.619 166.655C222.989 152.585 221.565 138.55 220.348 124.55C219.131 110.55 218.113 96.5147 217.297 82.4453Z" fill="white"/>
<path fill-rule="evenodd" clip-rule="evenodd" d="M277.096 82.4453C277.096 82.4453 275.88 103.446 274.045 124.55C272.21 145.654 269.773 166.655 269.773 166.655C269.773 166.655 258.484 167.875 247.195 167.875C256.094 167.875 260.569 139.724 260.62 83.4212C269.773 83.0555 277.096 82.4453 277.096 82.4453Z" fill="#EAEAEA"/>
<path fill-rule="evenodd" clip-rule="evenodd" d="M230.192 120.539C227.335 110.477 223.214 103.439 218.516 101.377C218.514 101.362 218.514 101.362 218.959 107.406C223.073 113.953 226.036 132.349 226.036 154.016H234.35C234.35 126.864 239.002 104.85 244.742 104.85C250.482 104.85 255.136 128.697 255.136 158.112H263.448C263.448 126.434 255.074 100.752 244.742 100.752C238.866 100.752 233.623 108.47 230.192 120.539Z" fill="#FFBC0D"/>
<g style="mix-blend-mode:multiply" opacity="0.24">
<path d="M259.587 123.219C262.007 132.886 263.447 144.984 263.447 158.112H255.135C255.135 157.663 255.131 157.216 255.129 156.77C257.203 149.327 258.688 138.143 259.587 123.219Z" fill="#ADADAD"/>
</g>
<path d="M251.223 19.0508L257.265 19.9L250.276 69.6343L244.115 69.626L251.223 19.0508Z" fill="#A0A09F" fill-opacity="0.15"/>
<path d="M254.242 19.7383L256.055 19.9931L249.042 69.8955L247.193 69.893L254.242 19.7383Z" fill="#EAEAEA"/>
<path fill-rule="evenodd" clip-rule="evenodd" d="M218.236 72.0703H276.156C277.051 72.0703 277.814 72.7173 277.961 73.6L278.927 79.3929C268.35 80.2065 257.773 80.6133 247.196 80.6133C236.619 80.6133 226.042 80.2065 215.465 79.3929L216.43 73.6C216.577 72.7173 217.341 72.0703 218.236 72.0703Z" fill="#EAEAEA"/>
<path fill-rule="evenodd" clip-rule="evenodd" d="M230.61 68.0801C236.14 67.4863 241.669 67.1895 247.198 67.1895C252.727 67.1895 258.256 67.4863 263.785 68.0801C264.814 68.1906 265.661 68.9377 265.9 69.9445L266.114 70.8507H228.281L228.496 69.9445C228.734 68.9377 229.582 68.1906 230.61 68.0801Z" fill="#EAEAEA"/>
<ellipse cx="121.431" cy="165.515" rx="47.4305" ry="6.94105" fill="#A0A09F" fill-opacity="0.15"/>
<mask id="path-15-outside-1_17_28641" maskUnits="userSpaceOnUse" x="77.9414" y="58.3984" width="87" height="111" fill="black">
<rect fill="white" x="77.9414" y="58.3984" width="87" height="111"/>
<path d="M112.457 61.4248C113.134 67.6128 113.606 73.7416 113.884 79.8379C114.371 74.6716 114.926 69.5024 115.559 64.3262C118.375 64.701 122.341 67.3997 122.218 68.4668C120.148 86.2484 120.752 90.5146 120.752 90.5146C122.245 84.9893 122.273 81.7807 123.354 76.3799C124.307 75.6182 126.933 74.5729 129.362 74.627C129.302 73.6407 129.177 71.9382 129.105 70.9473C129.711 68.7712 132.99 67.1427 136.519 66.8613C137.146 74.4216 137.285 78.6319 137.561 85.9102C137.836 81.8976 138.229 79.3394 138.965 74.7266C140.084 72.7162 143.71 72.2572 146.495 72.8193C145.138 80.8997 144.677 85.2307 144.358 93.0391C145.977 86.7578 146.649 84.4913 147.326 78.3174C149.791 78.5518 152.324 79.2484 153.548 80.6074C154.026 78.8647 154.302 77.9579 154.747 76.2021C155.008 75.176 158.939 74.4489 161.92 75.2803C160.835 82.3298 159.752 87.3462 157.714 94.1416L157.293 95.5254L156.676 97.8389H159.607C159.604 97.8662 157.583 113.815 154.362 129.941C151.139 146.081 146.785 162.044 146.785 162.044L142.122 165.514C142.057 165.49 132.756 162.044 121.141 162.044C109.528 162.044 100.807 165.488 100.741 165.514L96.0781 162.044C96.0781 162.044 91.6889 145.904 88.501 129.941C85.3159 113.993 83.2596 97.8679 83.2559 97.8389H86.6201L85.5684 95.5254L85.2705 94.8135C83.7731 91.2986 82.1823 88.4178 80.9463 84.6475C80.7917 84.1718 84.2675 78.9228 87 78.1455C88.3194 82.411 89.7724 86.5543 91.335 90.6113C90.6692 84.4379 88.9706 78.1601 87.4482 71.8955C90.1934 71.1658 95.136 72.6521 95.248 73.1396C97.0516 81.1448 98.0573 83.6582 99.4639 91.5684C99.1399 85.031 98.9461 82.845 97.9512 77.8496C97.745 76.8104 101.759 73.8154 104.571 73.6055C105.57 78.0709 106.024 80.8055 107.117 88.2178C107.05 80.0505 107.029 78.1173 105.828 65.916C105.724 64.862 110.314 61.0476 112.457 61.4248Z"/>
</mask>
<path d="M112.457 61.4248C113.134 67.6128 113.606 73.7416 113.884 79.8379C114.371 74.6716 114.926 69.5024 115.559 64.3262C118.375 64.701 122.341 67.3997 122.218 68.4668C120.148 86.2484 120.752 90.5146 120.752 90.5146C122.245 84.9893 122.273 81.7807 123.354 76.3799C124.307 75.6182 126.933 74.5729 129.362 74.627C129.302 73.6407 129.177 71.9382 129.105 70.9473C129.711 68.7712 132.99 67.1427 136.519 66.8613C137.146 74.4216 137.285 78.6319 137.561 85.9102C137.836 81.8976 138.229 79.3394 138.965 74.7266C140.084 72.7162 143.71 72.2572 146.495 72.8193C145.138 80.8997 144.677 85.2307 144.358 93.0391C145.977 86.7578 146.649 84.4913 147.326 78.3174C149.791 78.5518 152.324 79.2484 153.548 80.6074C154.026 78.8647 154.302 77.9579 154.747 76.2021C155.008 75.176 158.939 74.4489 161.92 75.2803C160.835 82.3298 159.752 87.3462 157.714 94.1416L157.293 95.5254L156.676 97.8389H159.607C159.604 97.8662 157.583 113.815 154.362 129.941C151.139 146.081 146.785 162.044 146.785 162.044L142.122 165.514C142.057 165.49 132.756 162.044 121.141 162.044C109.528 162.044 100.807 165.488 100.741 165.514L96.0781 162.044C96.0781 162.044 91.6889 145.904 88.501 129.941C85.3159 113.993 83.2596 97.8679 83.2559 97.8389H86.6201L85.5684 95.5254L85.2705 94.8135C83.7731 91.2986 82.1823 88.4178 80.9463 84.6475C80.7917 84.1718 84.2675 78.9228 87 78.1455C88.3194 82.411 89.7724 86.5543 91.335 90.6113C90.6692 84.4379 88.9706 78.1601 87.4482 71.8955C90.1934 71.1658 95.136 72.6521 95.248 73.1396C97.0516 81.1448 98.0573 83.6582 99.4639 91.5684C99.1399 85.031 98.9461 82.845 97.9512 77.8496C97.745 76.8104 101.759 73.8154 104.571 73.6055C105.57 78.0709 106.024 80.8055 107.117 88.2178C107.05 80.0505 107.029 78.1173 105.828 65.916C105.724 64.862 110.314 61.0476 112.457 61.4248Z" fill="white"/>
<path d="M112.457 61.4248L115.332 61.1102C115.192 59.8319 114.225 58.7995 112.958 58.5765L112.457 61.4248ZM113.884 79.8379L110.995 79.9694C111.064 81.4869 112.295 82.6924 113.814 82.7291C115.332 82.7659 116.621 81.6216 116.763 80.1092L113.884 79.8379ZM115.559 64.3262L115.94 61.4593C115.174 61.3575 114.4 61.5661 113.789 62.0387C113.178 62.5114 112.781 63.2088 112.688 63.9755L115.559 64.3262ZM122.218 68.4668L125.09 68.8012L125.091 68.7994L122.218 68.4668ZM120.752 90.5146L117.888 90.92C118.081 92.2798 119.203 93.3167 120.574 93.4013C121.945 93.4858 123.186 92.5947 123.544 91.2689L120.752 90.5146ZM123.354 76.3799L121.549 74.1209C121.017 74.5458 120.652 75.1447 120.519 75.812L123.354 76.3799ZM129.362 74.627L129.298 77.5183C130.106 77.5363 130.886 77.215 131.446 76.6322C132.007 76.0495 132.298 75.2586 132.249 74.4513L129.362 74.627ZM129.105 70.9473L126.319 70.1714C126.23 70.4913 126.197 70.8241 126.221 71.1553L129.105 70.9473ZM136.519 66.8613L139.401 66.6221C139.269 65.0339 137.877 63.8517 136.289 63.9784L136.519 66.8613ZM137.561 85.9102L134.671 86.0197C134.729 87.5561 135.979 88.7784 137.516 88.8019C139.054 88.8255 140.341 87.6421 140.446 86.1082L137.561 85.9102ZM138.965 74.7266L136.438 73.3203C136.273 73.6156 136.162 73.9374 136.109 74.2711L138.965 74.7266ZM146.495 72.8193L149.347 73.2983C149.606 71.7595 148.597 70.2932 147.067 69.9844L146.495 72.8193ZM144.358 93.0391L141.469 92.9211C141.408 94.399 142.473 95.6843 143.936 95.9002C145.4 96.1161 146.79 95.193 147.159 93.7607L144.358 93.0391ZM147.326 78.3174L147.6 75.4383C146.026 75.2886 144.624 76.4306 144.451 78.0023L147.326 78.3174ZM153.548 80.6074L151.399 82.5425C152.106 83.3283 153.186 83.6654 154.215 83.4216C155.244 83.1778 156.057 82.392 156.337 81.3723L153.548 80.6074ZM154.747 76.2021L151.944 75.4884L151.944 75.4908L154.747 76.2021ZM161.92 75.2803L164.778 75.72C165.001 74.273 164.107 72.8878 162.697 72.4945L161.92 75.2803ZM157.714 94.1416L160.481 94.9832L160.484 94.9723L157.714 94.1416ZM157.293 95.5254L154.526 94.6838C154.516 94.7157 154.507 94.7477 154.499 94.7799L157.293 95.5254ZM156.676 97.8389L153.881 97.0934C153.65 97.9616 153.835 98.8881 154.382 99.6007C154.93 100.313 155.777 100.731 156.676 100.731V97.8389ZM159.607 97.8389L162.477 98.2024C162.581 97.3786 162.326 96.5497 161.777 95.9267C161.228 95.3037 160.438 94.9468 159.607 94.9468V97.8389ZM154.362 129.941L157.198 130.508L154.362 129.941ZM146.785 162.044L148.512 164.364C149.031 163.978 149.405 163.429 149.575 162.805L146.785 162.044ZM142.122 165.514L141.115 168.225C142.034 168.566 143.062 168.419 143.849 167.834L142.122 165.514ZM121.141 162.044L121.141 159.152H121.141V162.044ZM100.741 165.514L99.0147 167.834C99.8185 168.432 100.874 168.571 101.806 168.203L100.741 165.514ZM96.0781 162.044L93.2874 162.803C93.4573 163.428 93.8321 163.978 94.3517 164.364L96.0781 162.044ZM88.501 129.941L85.6649 130.508H85.6649L88.501 129.941ZM83.2559 97.8389V94.9468C82.4251 94.9468 81.6344 95.304 81.0853 95.9276C80.5363 96.5511 80.2819 97.3806 80.387 98.2047L83.2559 97.8389ZM86.6201 97.8389V100.731C87.6035 100.731 88.5194 100.231 89.0518 99.4045C89.5841 98.5777 89.6599 97.5371 89.2529 96.6419L86.6201 97.8389ZM85.5684 95.5254L82.9004 96.6416C82.9117 96.6687 82.9234 96.6956 82.9356 96.7223L85.5684 95.5254ZM85.2705 94.8135L87.9385 93.6972C87.9361 93.6915 87.9337 93.6857 87.9312 93.6799L85.2705 94.8135ZM80.9463 84.6475L78.1958 85.5414L78.1981 85.5484L80.9463 84.6475ZM87 78.1455L89.7629 77.2908C89.2985 75.7895 87.7203 74.9338 86.2087 75.3638L87 78.1455ZM91.335 90.6113L88.6361 91.6508C89.1581 93.006 90.604 93.7639 92.0155 93.4222C93.4269 93.0805 94.3661 91.7451 94.2104 90.3012L91.335 90.6113ZM87.4482 71.8955L86.7053 69.1005C85.1849 69.5046 84.2664 71.0498 84.6379 72.5785L87.4482 71.8955ZM95.248 73.1396L98.0695 72.504L98.0666 72.4917L95.248 73.1396ZM99.4639 91.5684L96.6164 92.0747C96.8836 93.5774 98.2726 94.6138 99.7893 94.4421C101.306 94.2704 102.428 92.9496 102.352 91.4252L99.4639 91.5684ZM97.9512 77.8496L95.1143 78.4123L95.1148 78.4145L97.9512 77.8496ZM104.571 73.6055L107.394 72.974C107.08 71.5734 105.787 70.6145 104.356 70.7214L104.571 73.6055ZM107.117 88.2178L104.256 88.6397C104.478 90.1432 105.825 91.2186 107.34 91.1012C108.856 90.9839 110.022 89.7138 110.009 88.1941L107.117 88.2178ZM105.828 65.916L108.706 65.6328L108.706 65.6325L105.828 65.916ZM112.457 61.4248L109.582 61.7394C110.253 67.8664 110.72 73.9342 110.995 79.9694L113.884 79.8379L116.773 79.7064C116.493 73.5491 116.016 67.3591 115.332 61.1102L112.457 61.4248ZM113.884 79.8379L116.763 80.1092C117.248 74.9681 117.8 69.8255 118.429 64.6769L115.559 64.3262L112.688 63.9755C112.052 69.1793 111.494 74.375 111.004 79.5666L113.884 79.8379ZM115.559 64.3262L115.177 67.193C116.001 67.3027 117.285 67.835 118.425 68.5687C118.973 68.9212 119.355 69.2367 119.554 69.4407C119.658 69.5469 119.639 69.5493 119.579 69.4454C119.552 69.399 119.256 68.9021 119.345 68.1342L122.218 68.4668L125.091 68.7994C125.21 67.7647 124.818 66.9501 124.586 66.5504C124.322 66.0932 123.992 65.7067 123.697 65.404C123.099 64.7901 122.337 64.2074 121.556 63.705C120.04 62.7289 117.933 61.7245 115.94 61.4593L115.559 64.3262ZM122.218 68.4668L119.345 68.1324C118.304 77.0767 117.929 82.6722 117.818 86.0641C117.763 87.7615 117.773 88.9178 117.8 89.6737C117.813 90.0523 117.831 90.3333 117.848 90.534C117.856 90.6345 117.864 90.7154 117.871 90.7789C117.874 90.8106 117.878 90.838 117.881 90.8614C117.882 90.8731 117.883 90.8839 117.885 90.8936C117.885 90.8985 117.886 90.9031 117.887 90.9075C117.887 90.9097 117.887 90.9118 117.888 90.9139C117.888 90.915 117.888 90.9165 117.888 90.917C117.888 90.9185 117.888 90.92 120.752 90.5146C123.616 90.1093 123.616 90.1108 123.616 90.1122C123.616 90.1127 123.616 90.1141 123.616 90.115C123.617 90.1168 123.617 90.1186 123.617 90.1202C123.617 90.1236 123.618 90.1266 123.618 90.1294C123.619 90.1349 123.62 90.1392 123.62 90.1423C123.621 90.1485 123.621 90.1498 123.62 90.1459C123.62 90.1382 123.617 90.1101 123.612 90.0592C123.604 89.9571 123.591 89.7659 123.58 89.4667C123.559 88.8671 123.547 87.8454 123.599 86.2535C123.704 83.0669 124.062 77.6385 125.09 68.8012L122.218 68.4668ZM120.752 90.5146L123.544 91.2689C124.33 88.36 124.729 86.0584 125.067 83.8343C125.405 81.6025 125.667 79.5601 126.19 76.9478L123.354 76.3799L120.519 75.812C119.96 78.6005 119.667 80.8628 119.348 82.9668C119.028 85.0786 118.667 87.144 117.96 89.7604L120.752 90.5146ZM123.354 76.3799L125.16 78.6389C125.158 78.6404 125.195 78.6118 125.282 78.5589C125.367 78.5079 125.48 78.4454 125.623 78.3757C125.91 78.2353 126.277 78.0847 126.697 77.9487C127.557 77.6699 128.49 77.5004 129.298 77.5183L129.362 74.627L129.427 71.7356C127.806 71.6995 126.211 72.0255 124.913 72.4463C123.665 72.8508 122.405 73.436 121.549 74.1209L123.354 76.3799ZM129.362 74.627L132.249 74.4513C132.188 73.4438 132.061 71.7167 131.99 70.7392L129.105 70.9473L126.221 71.1553C126.293 72.1598 126.417 73.8375 126.476 74.8026L129.362 74.627ZM129.105 70.9473L131.892 71.7231C131.89 71.7297 132.06 71.2892 133.079 70.7444C134.018 70.2425 135.325 69.8578 136.748 69.7443L136.519 66.8613L136.289 63.9784C134.184 64.1462 132.086 64.7165 130.353 65.6431C128.699 66.5269 126.927 67.9887 126.319 70.1714L129.105 70.9473ZM136.519 66.8613L133.636 67.1006C134.258 74.5885 134.394 78.7395 134.671 86.0197L137.561 85.9102L140.451 85.8006C140.175 78.5242 140.034 74.2546 139.401 66.6221L136.519 66.8613ZM137.561 85.9102L140.446 86.1082C140.712 82.2342 141.087 79.7852 141.821 75.182L138.965 74.7266L136.109 74.2711C135.372 78.8937 134.96 81.5609 134.675 85.7121L137.561 85.9102ZM138.965 74.7266L141.492 76.1329C141.452 76.2039 141.639 75.8635 142.705 75.6374C143.672 75.4324 144.874 75.4425 145.923 75.6543L146.495 72.8193L147.067 69.9844C145.332 69.6341 143.327 69.5926 141.505 69.9791C139.782 70.3446 137.596 71.2388 136.438 73.3203L138.965 74.7266ZM146.495 72.8193L143.643 72.3403C142.267 80.5331 141.793 84.9848 141.469 92.9211L144.358 93.0391L147.248 93.157C147.562 85.4766 148.009 81.2663 149.347 73.2983L146.495 72.8193ZM144.358 93.0391L147.159 93.7607C148.776 87.4839 149.499 85.0356 150.201 78.6325L147.326 78.3174L144.451 78.0023C143.8 83.947 143.177 86.0316 141.558 92.3175L144.358 93.0391ZM147.326 78.3174L147.052 81.1965C148.127 81.2987 149.144 81.4964 149.969 81.7779C150.836 82.0738 151.253 82.3807 151.399 82.5425L153.548 80.6074L155.697 78.6723C154.619 77.4751 153.158 76.7542 151.836 76.3034C150.473 75.8383 148.99 75.5705 147.6 75.4383L147.326 78.3174ZM153.548 80.6074L156.337 81.3723C156.798 79.6909 157.096 78.703 157.55 76.9135L154.747 76.2021L151.944 75.4908C151.507 77.2128 151.253 78.0385 150.759 79.8426L153.548 80.6074ZM154.747 76.2021L157.55 76.9159C157.379 77.5849 156.993 77.9431 156.871 78.046C156.731 78.1636 156.655 78.1857 156.727 78.154C156.866 78.0925 157.204 77.9848 157.738 77.9054C158.811 77.7461 160.119 77.7805 161.143 78.0661L161.92 75.2803L162.697 72.4945C160.74 71.9486 158.592 71.9309 156.889 72.1839C156.035 72.3106 155.155 72.5252 154.391 72.8626C154.011 73.0304 153.561 73.2712 153.145 73.6216C152.746 73.9575 152.18 74.5628 151.944 75.4884L154.747 76.2021ZM161.92 75.2803L159.061 74.8405C157.995 81.7735 156.939 86.6579 154.944 93.3109L157.714 94.1416L160.484 94.9723C162.565 88.0345 163.676 82.8861 164.778 75.72L161.92 75.2803ZM157.714 94.1416L154.947 93.3L154.526 94.6838L157.293 95.5254L160.06 96.367L160.481 94.9832L157.714 94.1416ZM157.293 95.5254L154.499 94.7799L153.881 97.0934L156.676 97.8389L159.47 98.5843L160.087 96.2709L157.293 95.5254ZM156.676 97.8389V100.731H159.607V97.8389V94.9468H156.676V97.8389ZM159.607 97.8389L156.738 97.4753C156.737 97.4858 154.726 113.353 151.526 129.375L154.362 129.941L157.198 130.508C160.44 114.278 162.471 98.2466 162.477 98.2024L159.607 97.8389ZM154.362 129.941L151.526 129.375C149.926 137.385 148.043 145.364 146.558 151.348C145.816 154.338 145.174 156.826 144.718 158.564C144.49 159.433 144.309 160.115 144.185 160.578C144.123 160.81 144.075 160.987 144.043 161.106C144.027 161.165 144.015 161.21 144.007 161.24C144.003 161.255 144 161.266 143.998 161.273C143.997 161.276 143.996 161.279 143.996 161.281C143.995 161.282 143.995 161.282 143.995 161.283C143.995 161.283 143.995 161.283 143.995 161.283C143.995 161.283 143.995 161.283 146.785 162.044C149.575 162.805 149.575 162.805 149.575 162.805C149.575 162.804 149.576 162.804 149.576 162.804C149.576 162.803 149.576 162.802 149.576 162.801C149.577 162.799 149.578 162.796 149.579 162.792C149.581 162.784 149.584 162.771 149.589 162.756C149.597 162.724 149.61 162.677 149.627 162.616C149.66 162.493 149.709 162.311 149.772 162.075C149.899 161.602 150.083 160.911 150.313 160.031C150.775 158.272 151.423 155.76 152.172 152.742C153.669 146.71 155.575 138.637 157.198 130.508L154.362 129.941ZM146.785 162.044L145.059 159.724L140.396 163.193L142.122 165.514L143.849 167.834L148.512 164.364L146.785 162.044ZM142.122 165.514L143.129 162.802C142.936 162.731 133.259 159.152 121.141 159.152L121.141 162.044L121.141 164.936C132.253 164.936 141.179 168.248 141.115 168.225L142.122 165.514ZM121.141 162.044V159.152C109.009 159.152 99.8995 162.736 99.6765 162.825L100.741 165.514L101.806 168.203C101.714 168.239 110.047 164.936 121.141 164.936V162.044ZM100.741 165.514L102.468 163.193L97.8046 159.724L96.0781 162.044L94.3517 164.364L99.0147 167.834L100.741 165.514ZM96.0781 162.044C98.8689 161.285 98.8689 161.285 98.8689 161.285C98.8688 161.285 98.8688 161.285 98.8688 161.285C98.8687 161.284 98.8685 161.284 98.8683 161.283C98.8678 161.281 98.8671 161.278 98.8661 161.275C98.8641 161.267 98.8611 161.256 98.857 161.241C98.8489 161.211 98.8366 161.166 98.8204 161.106C98.7881 160.986 98.7399 160.807 98.6774 160.573C98.5523 160.105 98.3697 159.417 98.1404 158.54C97.6817 156.788 97.0365 154.284 96.2921 151.282C94.802 145.275 92.9191 137.297 91.3371 129.375L88.501 129.941L85.6649 130.508C87.2708 138.549 89.1764 146.621 90.678 152.675C91.4293 155.704 92.0807 158.232 92.5446 160.005C92.7766 160.891 92.9618 161.589 93.0892 162.066C93.1529 162.304 93.2022 162.488 93.2357 162.612C93.2524 162.674 93.2652 162.721 93.2739 162.753C93.2782 162.769 93.2815 162.781 93.2838 162.79C93.2849 162.794 93.2858 162.797 93.2864 162.799C93.2867 162.8 93.2869 162.801 93.2871 162.802C93.2872 162.802 93.2872 162.802 93.2873 162.803C93.2873 162.803 93.2874 162.803 96.0781 162.044ZM88.501 129.941L91.3371 129.375C88.1727 113.53 86.1265 97.4871 86.1247 97.473L83.2559 97.8389L80.387 98.2047C80.3926 98.2486 82.4592 114.456 85.6649 130.508L88.501 129.941ZM83.2559 97.8389V100.731H86.6201V97.8389V94.9468H83.2559V97.8389ZM86.6201 97.8389L89.2529 96.6419L88.2012 94.3285L85.5684 95.5254L82.9356 96.7223L83.9873 99.0358L86.6201 97.8389ZM85.5684 95.5254L88.2364 94.4091L87.9385 93.6972L85.2705 94.8135L82.6025 95.9297L82.9004 96.6416L85.5684 95.5254ZM85.2705 94.8135L87.9312 93.6799C86.2903 89.8284 84.8862 87.3817 83.6945 83.7465L80.9463 84.6475L78.1981 85.5484C79.4784 89.4539 81.2558 92.7688 82.6098 95.947L85.2705 94.8135ZM80.9463 84.6475L83.6968 83.7536C83.8612 84.2594 83.838 84.6771 83.823 84.8453C83.8052 85.0459 83.7683 85.1944 83.7493 85.2643C83.7115 85.4033 83.6761 85.4751 83.6882 85.4482C83.7062 85.4081 83.7738 85.2733 83.9147 85.0412C84.1877 84.5918 84.616 83.9734 85.1368 83.3312C85.6599 82.6862 86.2263 82.0789 86.7657 81.6149C87.3484 81.1136 87.7001 80.9532 87.7913 80.9273L87 78.1455L86.2087 75.3638C84.9337 75.7264 83.8262 76.5136 82.9935 77.23C82.1175 77.9836 81.3123 78.8641 80.6442 79.6879C79.9738 80.5146 79.3914 81.3462 78.9707 82.039C78.7648 82.3781 78.5648 82.7375 78.4117 83.0786C78.3382 83.2422 78.2414 83.4763 78.1682 83.7449C78.1316 83.8795 78.0836 84.0846 78.0616 84.333C78.0423 84.549 78.0218 85.0058 78.1958 85.5414L80.9463 84.6475ZM87 78.1455L84.2371 79.0002C85.5775 83.3334 87.0522 87.5384 88.6361 91.6508L91.335 90.6113L94.0338 89.5719C92.4926 85.5701 91.0614 81.4886 89.7629 77.2908L87 78.1455ZM91.335 90.6113L94.2104 90.3012C93.5186 83.8865 91.7526 77.3605 90.2586 71.2126L87.4482 71.8955L84.6379 72.5785C86.1887 78.9596 87.8198 84.9894 88.4595 90.9214L91.335 90.6113ZM87.4482 71.8955L88.1912 74.6906C88.4748 74.6152 88.9662 74.5656 89.6588 74.6017C90.3256 74.6364 91.0491 74.7432 91.7296 74.889C92.4146 75.0358 92.9869 75.2072 93.3492 75.3436C93.5418 75.4161 93.5989 75.4503 93.5653 75.4312C93.5548 75.4253 93.432 75.3571 93.2723 75.2178C93.207 75.161 92.6359 74.6858 92.4295 73.7876L95.248 73.1396L98.0666 72.4917C97.8462 71.5326 97.2233 70.9886 97.072 70.8568C96.8262 70.6426 96.583 70.4931 96.4214 70.4013C96.0853 70.2105 95.7164 70.0543 95.3869 69.9303C94.7053 69.6737 93.8493 69.4277 92.9415 69.2332C91.2459 68.8699 88.7646 68.5531 86.7053 69.1005L87.4482 71.8955ZM95.248 73.1396L92.4267 73.7753C94.2978 82.0801 95.2176 84.2081 96.6164 92.0747L99.4639 91.5684L102.311 91.062C100.897 83.1083 99.8055 80.2096 98.0694 72.504L95.248 73.1396ZM99.4639 91.5684L102.352 91.4252C102.025 84.8155 101.821 82.4738 100.788 77.2847L97.9512 77.8496L95.1148 78.4145C96.0711 83.2162 96.2549 85.2465 96.5753 91.7115L99.4639 91.5684ZM97.9512 77.8496L100.788 77.2869C100.953 78.1175 100.643 78.6811 100.621 78.7229C100.562 78.8361 100.54 78.8362 100.643 78.7235C100.838 78.5091 101.217 78.1746 101.757 77.8073C102.91 77.0224 104.115 76.5397 104.787 76.4895L104.571 73.6055L104.356 70.7214C102.215 70.8812 100.007 72.001 98.5018 73.0258C97.7121 73.5634 96.9511 74.1856 96.3636 74.8317C96.0748 75.1491 95.7515 75.5553 95.501 76.0321C95.288 76.4374 94.8981 77.3219 95.1143 78.4123L97.9512 77.8496ZM104.571 73.6055L101.749 74.2369C102.724 78.5951 103.166 81.2443 104.256 88.6397L107.117 88.2178L109.978 87.7959C108.883 80.3667 108.417 77.5467 107.394 72.974L104.571 73.6055ZM107.117 88.2178L110.009 88.1941C109.942 79.9367 109.915 77.9168 108.706 65.6328L105.828 65.916L102.95 66.1992C104.142 78.3178 104.159 80.1643 104.225 88.2414L107.117 88.2178ZM105.828 65.916L108.706 65.6325C108.753 66.1038 108.655 66.4525 108.607 66.5982C108.553 66.7595 108.499 66.8529 108.491 66.8668C108.477 66.891 108.519 66.818 108.67 66.6495C108.963 66.3238 109.44 65.8879 110.021 65.4581C110.602 65.0282 111.186 64.6782 111.667 64.4666C111.905 64.3619 112.067 64.3136 112.154 64.2951C112.253 64.274 112.166 64.3101 111.956 64.2731L112.457 61.4248L112.958 58.5765C111.558 58.3299 110.213 58.7871 109.338 59.1718C108.36 59.6023 107.401 60.201 106.579 60.8093C105.757 61.4177 104.973 62.1095 104.367 62.7836C104.07 63.1151 103.754 63.51 103.5 63.9431C103.319 64.2512 102.842 65.1074 102.95 66.1995L105.828 65.916Z" fill="white" mask="url(#path-15-outside-1_17_28641)"/>
<path fill-rule="evenodd" clip-rule="evenodd" d="M83.2539 97.8398H92.5086C92.5086 97.8398 100.156 119.82 121.138 119.82C142.12 119.82 150.351 97.8398 150.351 97.8398H159.605C159.605 97.8398 157.583 113.802 154.36 129.942C151.137 146.082 146.783 162.045 146.783 162.045L142.12 165.515C142.12 165.515 132.795 162.045 121.138 162.045C109.482 162.045 100.739 165.515 100.739 165.515L96.0763 162.045C96.0763 162.045 91.6873 145.905 88.4994 129.942C85.3115 113.98 83.2539 97.8398 83.2539 97.8398Z" fill="#D90007"/>
<path fill-rule="evenodd" clip-rule="evenodd" d="M127.02 126.76C124.413 126.76 122.088 130.107 120.567 135.34C119.047 130.107 116.72 126.76 114.114 126.76C109.532 126.76 105.816 137.896 105.816 151.632H109.504C109.504 138.877 111.569 128.537 114.114 128.537C116.66 128.537 118.723 138.082 118.723 149.856H122.411C122.411 138.082 124.474 128.537 127.02 128.537C129.565 128.537 131.629 138.877 131.629 151.632H135.316C135.316 137.896 131.602 126.76 127.02 126.76Z" fill="#FFBC0D"/>
<path fill-rule="evenodd" clip-rule="evenodd" d="M94.8235 95.5253C94.8235 95.5253 102.343 117.505 121.431 117.505C140.519 117.505 148.038 95.5253 148.038 95.5253C148.038 95.5253 153.244 95.5253 157.293 95.5253C159.607 88.0058 160.763 82.8 161.92 75.2805C158.939 74.4488 155.007 75.1761 154.747 76.2025C154.301 77.9583 154.026 78.8649 153.548 80.6077C152.325 79.2484 149.792 78.5518 147.326 78.3173C146.65 84.4913 145.977 86.7577 144.358 93.039C144.677 85.2306 145.138 80.9 146.495 72.8196C143.71 72.2574 140.084 72.7164 138.965 74.727C138.23 79.3401 137.836 81.8977 137.56 85.9105C137.284 78.632 137.146 74.4217 136.518 66.8613C132.989 67.1427 129.711 68.7713 129.105 70.9476C129.177 71.9386 129.303 73.6407 129.363 74.627C126.933 74.5728 124.307 75.6185 123.354 76.3802C122.273 81.781 122.245 84.9889 120.752 90.5142C120.752 90.5142 120.148 86.2487 122.218 68.4671C122.342 67.4 118.375 64.7007 115.558 64.3261C114.926 69.5023 114.371 74.6713 113.884 79.8376C113.606 73.7413 113.134 67.6126 112.457 61.4246C110.314 61.0474 105.725 64.8617 105.828 65.9157C107.029 78.1172 107.051 80.0502 107.118 88.2176C106.025 80.8051 105.57 78.0709 104.571 73.6053C101.758 73.8153 97.7441 76.8111 97.9513 77.85C98.9462 82.8454 99.1403 85.0311 99.4643 91.5687C98.0577 83.6582 97.0518 81.1454 95.2482 73.14C95.1386 72.6529 90.1941 71.1659 87.4483 71.8959C88.9707 78.1605 90.6689 84.4382 91.3347 90.6116C89.7721 86.5545 88.319 82.4114 86.9996 78.1459C84.2667 78.9232 80.791 84.173 80.9464 84.6476C82.2649 88.6693 83.9869 91.6786 85.5688 95.5253H94.8235Z" fill="#FFBC0D"/>
<ellipse cx="180.234" cy="197.039" rx="60.1558" ry="6.94105" fill="#A0A09F" fill-opacity="0.15"/>
<path d="M181.681 119.241C196.535 119.241 209.679 122.117 219.163 127.575C228.684 133.054 234.606 141.212 234.606 151.633C234.606 152.632 234.388 153.773 233.985 154.819C233.826 155.234 233.626 155.654 233.387 156.059L233.42 156.075C233.672 156.062 233.93 156.113 234.165 156.235L235.923 157.149H235.922C236.619 157.51 237.019 158.227 237.019 158.965V160.976C237.018 161.889 236.396 162.746 235.465 162.961C235.468 163.018 235.474 163.076 235.474 163.134C235.474 163.886 235.216 164.588 234.777 165.15C235.581 166.323 236.052 167.749 236.052 169.282V171.9C236.052 173.253 235.684 174.439 234.975 175.401C234.482 176.069 233.856 176.582 233.16 176.967V177.991C233.374 178.075 233.584 178.183 233.783 178.323C234.517 178.842 234.895 179.645 234.896 180.571C234.896 181.033 234.815 181.541 234.534 182.006C234.468 182.115 234.393 182.212 234.316 182.302V186.094C234.316 192.149 229.77 197.239 223.753 197.92C210.205 199.454 196.277 200.221 181.97 200.221C180.021 200.221 178.062 200.204 176.09 200.176C175.746 200.238 175.407 200.229 175.082 200.162C162.436 199.948 149.308 199.154 135.7 197.777C129.696 197.17 125.108 192.169 124.997 186.158V186.145L124.995 185.949V181.422C124.995 181.038 125.148 180.671 125.419 180.399C125.69 180.128 126.058 179.976 126.441 179.976H129.172C129.268 179.61 129.416 179.273 129.623 178.972V176.967C128.929 176.583 128.305 176.073 127.813 175.409C127.1 174.445 126.731 173.257 126.73 171.9V169.282C126.73 167.54 127.339 165.937 128.353 164.687C128.094 164.293 127.929 163.832 127.895 163.334C127.893 163.317 127.892 163.3 127.892 163.283L127.889 163.185L127.888 163.134C127.888 162.622 128.023 162.143 128.259 161.728C128.174 161.577 128.103 161.417 128.046 161.251C127.945 161.052 127.888 160.83 127.888 160.599V156.91C126.742 155.609 126.152 153.779 126.152 152.212C126.152 141.727 132.798 133.441 142.919 127.853C153.036 122.266 166.814 119.241 181.681 119.241Z" fill="white" stroke="white" stroke-width="2.8921" stroke-linejoin="round"/>
<path fill-rule="evenodd" clip-rule="evenodd" d="M126.441 186.015C126.441 191.313 130.399 195.763 135.673 196.269C146.39 197.296 164.795 198.773 181.97 198.773C198.506 198.773 214.358 197.403 223.857 196.385C229.037 195.829 232.871 191.429 232.871 186.219V181.421H126.441V186.015Z" fill="#EC9D47"/>
<path fill-rule="evenodd" clip-rule="evenodd" d="M229.004 163.523C232.097 163.523 234.605 166.102 234.605 169.282V171.9C234.605 174.065 233.444 175.405 231.727 176.041C231.442 175.961 231.114 175.929 230.766 175.929C230.754 175.929 204.758 176.159 201.24 176.587C199.206 176.703 197.835 176.816 197.126 176.926C177.626 179.965 169.394 175.374 160.05 174.422C153.937 173.799 148.185 174.191 143.705 175.295C143.657 175.307 141.812 175.574 140.786 175.636C138.952 175.745 137.278 175.958 135.117 175.893C133.876 175.856 132.238 176.427 131.299 176.125C129.449 175.529 128.176 174.167 128.176 171.9V169.282C128.176 166.102 130.684 163.523 133.777 163.523C155.354 162.357 171.593 161.768 182.494 161.756L182.837 161.756C193.096 161.756 208.485 162.345 229.004 163.523Z" fill="#73371F"/>
<path fill-rule="evenodd" clip-rule="evenodd" d="M197.58 180.138C198.294 180.029 199.675 179.917 201.722 179.803C205.265 179.381 231.437 179.154 231.449 179.154C232.555 179.154 233.451 179.467 233.451 180.572C233.451 181.798 232.565 181.681 231.355 181.885C229.74 182.156 228.012 182.3 226.172 182.317C223.717 182.338 216.348 182.175 204.065 181.827C203.402 181.809 202.125 181.868 200.232 182.006C199.327 182.287 198.282 182.541 197.091 182.743C185.433 184.716 181.754 190.227 177.327 197.422C173.057 204.364 170.088 182.361 155.91 181.757C146.458 181.355 138.735 181.609 132.741 182.52C132.597 182.525 132.453 182.515 132.311 182.492C131.125 182.294 130.325 181.756 130.522 180.572C130.778 179.039 132.058 179.048 133.61 178.949L134.944 178.864C137.041 178.972 139.012 178.972 140.859 178.864C141.891 178.803 143.749 178.539 143.797 178.528C148.308 177.437 154.098 177.051 160.254 177.665C169.66 178.605 177.948 183.139 197.58 180.138Z" fill="#FFBC0D"/>
<path d="M203.255 158.863C210.865 159.34 219.539 160.024 229.272 160.914L229.419 160.928H229.566C231.187 160.928 232.553 160.296 233.629 159.284C233.894 159.545 234.057 159.908 234.057 160.309C234.057 161.108 233.41 161.756 232.611 161.756H130.78C130.081 161.756 129.498 161.26 129.363 160.601C129.984 160.812 130.651 160.928 131.359 160.928H131.496L131.633 160.916C142.076 160.025 151.227 159.341 159.082 158.863L203.255 158.863Z" fill="#FFD90D"/>
<path d="M129.332 163.124C129.332 162.357 129.93 161.732 130.697 161.723C137.495 161.644 167.698 161.297 175.895 161.297C184.164 161.297 224.064 161.65 232.47 161.725C233.347 161.733 234.026 162.446 234.026 163.324C234.026 164.037 233.554 164.664 232.864 164.847C231.306 165.258 228.593 165.924 227.343 165.924C225.925 165.924 224.498 165.693 223.052 165.401C221.623 165.113 220.175 164.767 218.698 164.529C217.302 164.304 141.784 164.496 130.687 164.526C129.912 164.528 129.332 163.9 129.332 163.124Z" fill="#D90007"/>
<path d="M235.254 158.434C235.447 158.533 235.57 158.74 235.57 158.966V160.976C235.57 161.303 235.318 161.568 235.007 161.568C234.934 161.568 234.861 161.553 234.794 161.524C233.114 160.8 230.308 159.618 228.629 159.162L229.225 159.22L229.368 159.233H229.511C231.103 159.233 232.444 158.573 233.495 157.52C233.704 157.625 235.041 158.324 235.254 158.434Z" fill="#EDC8A3"/>
<path d="M181.147 158.285C184.903 158.285 189.227 158.409 194.117 158.658C187.494 161.494 182.495 162.913 179.119 162.913C175.828 162.913 170.994 161.565 164.617 158.869C171.207 158.48 176.718 158.285 181.147 158.285Z" fill="#FFEBB8"/>
<path d="M164.3 161.398C164.206 162.95 163.706 164.466 162.767 165.793C159.866 169.897 156.749 174.307 148.614 168.538C145.019 165.989 143.621 163.705 143.431 161.596C151.1 161.444 157.925 161.378 163.904 161.397L164.3 161.398Z" fill="#E6E454"/>
<path d="M165.458 161.404C165.362 163.175 164.794 164.913 163.711 166.437C163.426 166.837 163.299 167.016 163.137 167.239C161.165 169.965 159.688 171.388 157.582 172.067C154.882 172.937 151.755 172.123 147.945 169.435C144.295 166.861 142.481 164.305 142.271 161.611C143.063 161.595 143.846 161.58 144.62 161.566C144.825 163.436 146.239 165.374 149.298 167.532C152.56 169.832 154.964 170.458 156.86 169.847C158.35 169.367 159.538 168.222 161.236 165.875C161.393 165.658 161.518 165.483 161.799 165.088C162.589 163.977 163.018 162.704 163.11 161.394C163.86 161.396 164.597 161.399 165.321 161.403L165.458 161.404Z" fill="#66881E"/>
<path d="M192.672 158.305C197.02 158.483 201.841 158.75 207.132 159.108C204.463 162.801 200.63 161.86 197.002 160.969C195.297 160.55 193.842 159.627 192.735 158.377L192.672 158.305Z" fill="#E6E454"/>
<path d="M191.172 158.244C192.211 158.282 193.278 158.325 194.373 158.374C195.206 159.07 196.195 159.584 197.304 159.852C197.769 159.964 197.976 160.014 198.233 160.074C201.019 160.724 202.647 160.817 204.072 160.237C204.7 159.981 205.279 159.578 205.806 159.007C206.698 159.064 207.604 159.124 208.525 159.187C207.561 160.706 206.378 161.729 204.965 162.304C202.952 163.124 200.928 163.009 197.693 162.254C197.48 162.205 197.303 162.162 196.999 162.089L196.745 162.028C194.448 161.472 192.555 160.134 191.245 158.345L191.172 158.244Z" fill="#66881E"/>
<path fill-rule="evenodd" clip-rule="evenodd" d="M199.633 158.648C205.346 158.975 211.709 159.429 218.721 160.01C217.718 160.56 216.763 161.224 215.859 162.024C211.842 165.581 209.202 170.336 207.958 168.744C206.715 167.152 206.715 163.515 205.435 161.796C204.434 160.453 202.833 159.445 199.848 158.701L199.633 158.648Z" fill="#FFBC0D"/>
<path fill-rule="evenodd" clip-rule="evenodd" d="M233.159 151.633C233.159 153.805 231.857 157.128 229.537 157.128C229.537 157.128 197.921 154.236 181.102 154.236C165.246 154.236 131.357 157.128 131.357 157.128C129.037 157.128 127.598 154.384 127.598 152.211C127.598 132.661 152.29 120.688 181.68 120.688C211.07 120.688 233.159 132.082 233.159 151.633Z" fill="#EC9D47"/>
<path fill-rule="evenodd" clip-rule="evenodd" d="M177.019 140.725C176.207 140.286 175.941 139.292 176.426 138.506C176.91 137.721 179.649 135.506 180.09 135.744C180.531 135.983 179.852 139.311 179.368 140.097C178.883 140.883 177.832 141.164 177.019 140.725Z" fill="white"/>
<path fill-rule="evenodd" clip-rule="evenodd" d="M176.533 125.836C177.077 125.205 178.061 125.137 178.73 125.684C179.4 126.23 181.072 128.957 180.776 129.3C180.481 129.642 177.43 128.514 176.761 127.968C176.091 127.421 175.989 126.467 176.533 125.836Z" fill="white"/>
<path fill-rule="evenodd" clip-rule="evenodd" d="M159.059 140.988C158.515 141.619 157.531 141.687 156.862 141.141C156.192 140.594 154.52 137.867 154.816 137.524C155.111 137.182 158.162 138.31 158.831 138.857C159.501 139.403 159.603 140.358 159.059 140.988Z" fill="white"/>
<path fill-rule="evenodd" clip-rule="evenodd" d="M152.736 145.585C153.678 145.429 154.581 146.04 154.753 146.949C154.924 147.858 154.335 151.259 153.823 151.343C153.312 151.427 151.512 148.419 151.341 147.511C151.169 146.602 151.794 145.74 152.736 145.585Z" fill="white"/>
<path fill-rule="evenodd" clip-rule="evenodd" d="M131.998 151.287C132.542 150.656 133.526 150.588 134.195 151.135C134.865 151.681 136.537 154.408 136.241 154.751C135.946 155.094 132.895 153.965 132.226 153.419C131.556 152.872 131.454 151.918 131.998 151.287Z" fill="white"/>
<path fill-rule="evenodd" clip-rule="evenodd" d="M206.205 142.319C205.574 141.775 205.506 140.791 206.053 140.122C206.599 139.452 209.326 137.78 209.669 138.076C210.012 138.371 208.883 141.422 208.337 142.091C207.79 142.761 206.836 142.863 206.205 142.319Z" fill="white"/>
<path fill-rule="evenodd" clip-rule="evenodd" d="M201.326 128.231C202.268 128.076 203.171 128.687 203.343 129.595C203.514 130.504 202.925 133.905 202.413 133.99C201.902 134.074 200.102 131.066 199.931 130.157C199.759 129.249 200.384 128.386 201.326 128.231Z" fill="white"/>
<path fill-rule="evenodd" clip-rule="evenodd" d="M173.084 145.816C173.524 146.629 173.243 147.68 172.457 148.165C171.671 148.649 168.342 149.328 168.104 148.887C167.865 148.445 170.08 145.707 170.866 145.222C171.652 144.738 172.645 145.004 173.084 145.816Z" fill="white"/>
<path fill-rule="evenodd" clip-rule="evenodd" d="M183.475 146.66C184.019 146.029 185.002 145.961 185.672 146.508C186.341 147.054 188.013 149.782 187.718 150.124C187.422 150.467 184.372 149.338 183.702 148.792C183.033 148.245 182.931 147.291 183.475 146.66Z" fill="white"/>
<path fill-rule="evenodd" clip-rule="evenodd" d="M192.958 136.305C193.916 136.305 194.693 137.045 194.693 137.957C194.693 138.87 193.478 142.089 192.958 142.089C192.437 142.089 191.223 138.87 191.223 137.957C191.223 137.045 192 136.305 192.958 136.305Z" fill="white"/>
<path fill-rule="evenodd" clip-rule="evenodd" d="M225.406 143.018C226.037 143.562 226.105 144.545 225.559 145.215C225.012 145.884 222.285 147.556 221.942 147.261C221.6 146.965 222.728 143.915 223.275 143.245C223.821 142.576 224.776 142.474 225.406 143.018Z" fill="white"/>
<path fill-rule="evenodd" clip-rule="evenodd" d="M206.006 151.715C205.194 152.154 204.142 151.873 203.658 151.087C203.173 150.302 202.494 146.973 202.936 146.735C203.377 146.496 206.115 148.711 206.6 149.497C207.084 150.283 206.819 151.276 206.006 151.715Z" fill="white"/>
<path fill-rule="evenodd" clip-rule="evenodd" d="M163.462 127.629C164.42 127.629 165.197 128.369 165.197 129.282C165.197 130.194 163.982 133.413 163.462 133.413C162.941 133.413 161.727 130.194 161.727 129.282C161.727 128.369 162.503 127.629 163.462 127.629Z" fill="white"/>
<path fill-rule="evenodd" clip-rule="evenodd" d="M138.936 140.297C139.48 139.666 140.463 139.598 141.133 140.145C141.802 140.691 143.474 143.418 143.179 143.761C142.883 144.103 139.833 142.975 139.163 142.428C138.494 141.882 138.392 140.927 138.936 140.297Z" fill="white"/>
<path d="M166.086 161.183C166.285 161.311 166.385 161.547 166.34 161.779L165.96 163.733C165.9 164.047 165.596 164.251 165.282 164.19C165.22 164.178 165.16 164.156 165.105 164.124C161.421 162.011 157.645 160.371 153.777 159.203C156.7 159.007 159.466 158.835 162.076 158.688C163.347 159.445 164.684 160.276 166.086 161.183Z" fill="#FFEBB8"/>
<path d="M202.25 77.4934C201.812 76.865 201.462 76.1999 200.967 75.5506C200.849 75.3935 200.72 75.2416 200.591 75.1002C198.509 72.4505 195.159 70.9948 191.078 71C186.837 71 182.302 72.5762 178.303 75.4354C170.032 81.3422 166.656 90.9984 170.722 97.0257C170.727 97.0362 170.732 97.0572 170.738 97.0676C171.304 97.9474 171.475 98.1882 172.078 99.0628C176.2 105.017 186.296 105.017 194.629 99.0575C202.962 93.0983 206.373 83.4473 202.25 77.4934Z" fill="url(#paint1_linear_17_28641)"/>
<path d="M178.979 76.403C182.777 73.6852 187.075 72.1875 191.079 72.1875C193.635 72.1875 195.861 72.8002 197.608 73.947C198.546 74.565 199.345 75.3348 199.979 76.2512C201.793 78.8748 202.066 82.3833 200.741 86.1381C199.391 89.9661 196.552 93.5689 192.754 96.2868C184.972 101.853 175.552 101.921 171.754 96.4386C167.956 90.9558 171.197 81.9696 178.979 76.403Z" fill="white"/>
<path d="M191.485 78.6017C192.283 79.7118 186.738 84.5555 179.245 89.5145L180.328 91.0697C187.852 86.1317 194.711 83.0998 195.494 84.1995C196.272 85.2991 190.093 90.389 181.863 95.6883L182.915 97.2278C191.83 91.5514 198.081 85.4614 196.674 83.4821C195.865 82.351 192.943 82.7071 189.068 84.2047C192 81.3875 193.464 79.0049 192.644 77.8686C191.191 75.863 182.889 78.9002 174.309 84.7964L175.411 86.3674C183.409 80.9162 190.686 77.4915 191.485 78.6017Z" fill="#FFBC0D"/>
<path d="M291.869 48.5333C289.918 54.8071 283.304 58.2864 277.119 56.2908C270.938 54.294 267.492 47.5667 269.44 41.291C271.389 35.0154 278.006 31.5379 284.188 33.5317C290.371 35.5303 293.818 42.2576 291.869 48.5333Z" fill="url(#paint2_linear_17_28641)"/>
<path d="M270.548 41.6325C268.791 47.285 271.894 53.3464 277.466 55.1431C283.039 56.9397 288.998 53.8075 290.752 48.1532C292.506 42.4989 289.406 36.4393 283.834 34.6426C278.261 32.8459 272.305 35.98 270.548 41.6325Z" fill="white"/>
<path d="M275.596 40.2143C275.248 41.34 276.411 42.8177 278.513 44.218C276.002 44.1277 274.218 44.6545 273.867 45.7784C273.254 47.7518 277.663 50.9413 283.715 52.8944L284.209 51.3035C278.591 49.4885 274.309 47.1274 274.651 46.0301C274.991 44.931 279.475 45.4017 284.662 47.0757L285.156 45.4848C279.967 43.8137 276.038 41.5633 276.376 40.4671C276.715 39.368 281.55 39.9522 287.168 41.7672L287.661 40.1792C281.612 38.2204 276.206 38.2391 275.596 40.2143Z" fill="#FFBC0D"/>
<path d="M71.1111 90.3881C69.2314 86.4937 66.6748 83.217 63.907 81.1625C61.2685 79.2 58.712 78.5604 56.6167 79.2963C56.4098 79.3401 56.2028 79.3927 56.0088 79.4759C55.5216 79.6818 53.7713 80.4835 53.3229 80.7069C49.0936 82.814 48.8737 91.1591 52.8228 99.3465C56.7762 107.534 63.4069 112.467 67.6319 110.359C68.2053 110.075 69.5418 109.54 70.2144 109.199C70.2532 109.181 70.2963 109.172 70.3351 109.15C72.5252 108.06 73.7841 105.458 73.8789 101.826C73.9738 98.3434 72.9908 94.2781 71.1111 90.3881Z" fill="url(#paint3_linear_17_28641)"/>
<path d="M69.9466 108.35C68.1661 109.239 65.782 108.683 63.234 106.79C60.5611 104.806 58.0778 101.612 56.2412 97.8055C54.4046 93.9986 53.4389 90.0515 53.5337 86.6871C53.6199 83.4803 54.6503 81.2242 56.4309 80.3393C58.2114 79.45 60.5955 80.0064 63.1435 81.8989C65.8165 83.8834 68.2997 87.077 70.1363 90.8839C71.9083 94.5593 72.8654 98.3619 72.8524 101.647C72.8524 101.766 72.8481 101.884 72.8481 102.002C72.7533 105.209 71.7272 107.461 69.9466 108.35Z" fill="white"/>
<path d="M61.4654 85.1593C60.685 85.5491 60.961 87.9103 62.0258 91.292C60.047 88.3658 58.3785 86.6968 57.5982 87.0867C56.2229 87.7701 58.3483 95.033 62.3449 103.308L63.4486 102.756C59.7409 95.0724 57.3525 88.5367 58.1155 88.1556C58.8786 87.7745 62.2716 93.2195 65.6947 100.312L66.7984 99.7596C63.3753 92.6675 61.2196 86.6092 61.9827 86.2281C62.7458 85.847 66.3716 91.7695 70.0792 99.453L71.1829 98.901C67.1907 90.6262 62.8407 84.4759 61.4654 85.1593Z" fill="#FFBC0D"/>
<path d="M241.011 186.366C231.564 188.794 221.936 182.966 219.542 173.367C217.153 163.773 222.888 153.985 232.335 151.552C241.782 149.119 251.409 154.952 253.804 164.546C256.193 174.146 250.458 183.933 241.011 186.366Z" fill="url(#paint4_linear_17_28641)"/>
<path d="M232.761 153.286C224.251 155.474 219.082 164.29 221.241 172.938C223.399 181.585 232.07 186.838 240.58 184.644C249.091 182.45 254.26 173.64 252.101 164.992C249.942 156.345 241.272 151.097 232.761 153.286Z" fill="white"/>
<path d="M238.577 158.73C236.884 159.167 235.947 161.845 235.852 165.677C233.974 162.348 231.895 160.45 230.202 160.883C227.232 161.646 226.716 169.886 229.06 179.282L231.454 178.666C229.28 169.942 228.855 162.521 230.508 162.099C232.161 161.671 235.126 167.861 237.135 175.913L239.529 175.297C237.515 167.245 237.23 160.368 238.878 159.941C240.531 159.513 243.631 166.247 245.805 174.971L248.195 174.355C245.86 164.96 241.548 157.961 238.577 158.73Z" fill="#FFBC0D"/>
</g>
<defs>
<linearGradient id="paint0_linear_17_28641" x1="128.835" y1="45.7695" x2="116.173" y2="65.8647" gradientUnits="userSpaceOnUse">
<stop offset="0.000616698" stop-color="#910063"/>
<stop offset="0.0362" stop-color="#990059"/>
<stop offset="0.1727" stop-color="#B60035"/>
<stop offset="0.3012" stop-color="#CA001C"/>
<stop offset="0.4172" stop-color="#D7000C"/>
<stop offset="0.5101" stop-color="#DB0007"/>
<stop offset="1" stop-color="#E8720A"/>
</linearGradient>
<linearGradient id="paint1_linear_17_28641" x1="169" y1="87.2637" x2="203.998" y2="87.2637" gradientUnits="userSpaceOnUse">
<stop offset="0.000616698" stop-color="#910063"/>
<stop offset="0.0362" stop-color="#990059"/>
<stop offset="0.1727" stop-color="#B60035"/>
<stop offset="0.3012" stop-color="#CA001C"/>
<stop offset="0.4172" stop-color="#D7000C"/>
<stop offset="0.5101" stop-color="#DB0007"/>
<stop offset="1" stop-color="#E8720A"/>
</linearGradient>
<linearGradient id="paint2_linear_17_28641" x1="286.835" y1="34.7695" x2="274.173" y2="54.8647" gradientUnits="userSpaceOnUse">
<stop offset="0.000616698" stop-color="#910063"/>
<stop offset="0.0362" stop-color="#990059"/>
<stop offset="0.1727" stop-color="#B60035"/>
<stop offset="0.3012" stop-color="#CA001C"/>
<stop offset="0.4172" stop-color="#D7000C"/>
<stop offset="0.5101" stop-color="#DB0007"/>
<stop offset="1" stop-color="#E8720A"/>
</linearGradient>
<linearGradient id="paint3_linear_17_28641" x1="73.8852" y1="94.923" x2="50" y2="94.923" gradientUnits="userSpaceOnUse">
<stop offset="0.000616698" stop-color="#910063"/>
<stop offset="0.0362" stop-color="#990059"/>
<stop offset="0.1727" stop-color="#B60035"/>
<stop offset="0.3012" stop-color="#CA001C"/>
<stop offset="0.4172" stop-color="#D7000C"/>
<stop offset="0.5101" stop-color="#DB0007"/>
<stop offset="1" stop-color="#E8720A"/>
</linearGradient>
<linearGradient id="paint4_linear_17_28641" x1="254.346" y1="168.958" x2="219" y2="168.958" gradientUnits="userSpaceOnUse">
<stop offset="0.000616698" stop-color="#910063"/>
<stop offset="0.0362" stop-color="#990059"/>
<stop offset="0.1727" stop-color="#B60035"/>
<stop offset="0.3012" stop-color="#CA001C"/>
<stop offset="0.4172" stop-color="#D7000C"/>
<stop offset="0.5101" stop-color="#DB0007"/>
<stop offset="1" stop-color="#E8720A"/>
</linearGradient>
<clipPath id="clip0_17_28641">
<rect width="375" height="225" fill="white"/>
</clipPath>
</defs>
</svg>
