<svg width="375" height="225" viewBox="0 0 375 225" fill="none" xmlns="http://www.w3.org/2000/svg">
<path d="M215.958 50.9981C218.308 49.6137 221.144 49.3164 223.73 50.1834L266.151 64.4033C268.018 65.0293 269.141 66.935 268.783 68.872L260.654 112.868C260.158 115.55 258.524 117.887 256.173 119.271L166.498 172.093C164.975 172.991 163.012 172.483 162.115 170.96L125.149 108.204C124.252 106.68 124.76 104.718 126.283 103.821L215.958 50.9981ZM255.132 69.7232C252.61 65.441 247.093 64.0147 242.811 66.5371C238.529 69.0596 237.102 74.5752 239.624 78.8572C242.147 83.1394 247.664 84.5666 251.946 82.0443C256.228 79.5219 257.654 74.0054 255.132 69.7232Z" fill="#D8D8D8"/>
<mask id="path-2-outside-1_17_28666" maskUnits="userSpaceOnUse" x="94.9244" y="10.921" width="192.582" height="148.354" fill="black">
<rect fill="white" x="94.9244" y="10.921" width="192.582" height="148.354"/>
<path d="M212.728 29.3802C215.625 28.3257 218.838 28.579 221.533 30.0753L265.757 54.6208C267.703 55.7016 268.558 58.0505 267.762 60.1296L249.662 107.358C248.559 110.237 246.26 112.496 243.363 113.551L132.806 153.79C130.928 154.474 128.851 153.505 128.167 151.627L100.007 74.2583C99.3237 72.3801 100.292 70.3032 102.17 69.6196L212.728 29.3802ZM238.429 58.5356C233.949 60.1662 231.639 65.1203 233.269 69.6004C234.9 74.0804 239.854 76.3905 244.334 74.76C248.814 73.1294 251.124 68.1752 249.494 63.6952C247.863 59.2151 242.909 56.905 238.429 58.5356Z"/>
</mask>
<path d="M212.728 29.3802C215.625 28.3257 218.838 28.579 221.533 30.0753L265.757 54.6208C267.703 55.7016 268.558 58.0505 267.762 60.1296L249.662 107.358C248.559 110.237 246.26 112.496 243.363 113.551L132.806 153.79C130.928 154.474 128.851 153.505 128.167 151.627L100.007 74.2583C99.3237 72.3801 100.292 70.3032 102.17 69.6196L212.728 29.3802ZM238.429 58.5356C233.949 60.1662 231.639 65.1203 233.269 69.6004C234.9 74.0804 239.854 76.3905 244.334 74.76C248.814 73.1294 251.124 68.1752 249.494 63.6952C247.863 59.2151 242.909 56.905 238.429 58.5356Z" fill="#FFBC0D"/>
<path d="M212.728 29.3802L211.702 26.5611L211.701 26.5611L212.728 29.3802ZM221.533 30.0753L222.989 27.4523L222.989 27.4523L221.533 30.0753ZM265.757 54.6208L267.213 51.998L267.213 51.9978L265.757 54.6208ZM267.762 60.1296L270.563 61.2032L270.563 61.2031L267.762 60.1296ZM249.662 107.358L246.861 106.284L246.861 106.284L249.662 107.358ZM243.363 113.551L244.389 116.37L244.389 116.37L243.363 113.551ZM128.167 151.627L130.986 150.601L128.167 151.627ZM100.007 74.2583L97.1883 75.2844L100.007 74.2583ZM102.17 69.6196L103.196 72.4387L102.17 69.6196ZM238.429 58.5356L237.403 55.7165L237.403 55.7165L238.429 58.5356ZM233.269 69.6004L230.45 70.6264L230.45 70.6264L233.269 69.6004ZM244.334 74.76L245.36 77.5791L245.36 77.579L244.334 74.76ZM249.494 63.6952L252.313 62.6691L252.313 62.6691L249.494 63.6952ZM212.728 29.3802L213.753 32.1993C215.835 31.4419 218.142 31.624 220.078 32.6984L221.533 30.0753L222.989 27.4523C219.533 25.5341 215.415 25.2095 211.702 26.5611L212.728 29.3802ZM221.533 30.0753L220.078 32.6984L264.301 57.2439L265.757 54.6208L267.213 51.9978L222.989 27.4523L221.533 30.0753ZM265.757 54.6208L264.301 57.2437C264.941 57.5994 265.222 58.3725 264.96 59.0561L267.762 60.1296L270.563 61.2031C271.895 57.7284 270.466 53.8037 267.213 51.998L265.757 54.6208ZM267.762 60.1296L264.96 59.056L246.861 106.284L249.662 107.358L252.463 108.431L270.563 61.2032L267.762 60.1296ZM249.662 107.358L246.861 106.284C246.068 108.352 244.418 109.974 242.337 110.732L243.363 113.551L244.389 116.37C248.103 115.018 251.049 112.122 252.463 108.431L249.662 107.358ZM243.363 113.551L242.337 110.732L131.78 150.971L132.806 153.79L133.832 156.609L244.389 116.37L243.363 113.551ZM132.806 153.79L131.78 150.971C131.459 151.088 131.103 150.922 130.986 150.601L128.167 151.627L125.348 152.653C126.599 156.088 130.397 157.859 133.832 156.609L132.806 153.79ZM128.167 151.627L130.986 150.601L102.826 73.2322L100.007 74.2583L97.1883 75.2844L125.348 152.653L128.167 151.627ZM100.007 74.2583L102.826 73.2322C102.709 72.911 102.875 72.5556 103.196 72.4387L102.17 69.6196L101.144 66.8005C97.7092 68.0508 95.938 71.8492 97.1883 75.2844L100.007 74.2583ZM102.17 69.6196L103.196 72.4387L213.754 32.1993L212.728 29.3802L211.701 26.5611L101.144 66.8005L102.17 69.6196ZM238.429 58.5356L237.403 55.7165C231.366 57.9139 228.253 64.5894 230.45 70.6264L233.269 69.6004L236.088 68.5743C235.025 65.6513 236.532 62.4186 239.455 61.3546L238.429 58.5356ZM233.269 69.6004L230.45 70.6264C232.648 76.6634 239.323 79.7762 245.36 77.5791L244.334 74.76L243.308 71.9409C240.385 73.0047 237.152 71.4973 236.088 68.5743L233.269 69.6004ZM244.334 74.76L245.36 77.579C251.397 75.3818 254.51 68.7061 252.313 62.6691L249.494 63.6952L246.675 64.7212C247.739 67.6444 246.231 70.877 243.308 71.9409L244.334 74.76ZM249.494 63.6952L252.313 62.6691C250.116 56.6321 243.44 53.5192 237.403 55.7165L238.429 58.5356L239.455 61.3547C242.378 60.2907 245.611 61.7981 246.675 64.7212L249.494 63.6952Z" fill="white" mask="url(#path-2-outside-1_17_28666)"/>
<path opacity="0.1" fill-rule="evenodd" clip-rule="evenodd" d="M230.266 70.6916C228.033 64.5538 231.198 57.7677 237.336 55.5344C243.474 53.3011 250.26 56.4663 252.493 62.6042C254.727 68.742 251.562 75.5281 245.424 77.7614C239.286 79.9947 232.5 76.8295 230.266 70.6916ZM249.492 63.6961C247.862 59.2156 242.909 56.9051 238.428 58.5354C233.948 60.1656 231.637 65.1193 233.267 69.5997C234.898 74.0802 239.851 76.3907 244.332 74.7605C248.812 73.1302 251.123 68.1765 249.492 63.6961Z" fill="#292929"/>
<path d="M191.028 84.9792C196.855 100.993 188.596 118.699 172.582 124.526C156.568 130.353 138.862 122.095 133.035 106.08C127.208 90.0661 135.466 72.3603 151.481 66.5334C167.495 60.7065 185.201 68.965 191.028 84.9792Z" fill="white"/>
<path fill-rule="evenodd" clip-rule="evenodd" d="M163.96 78.9106C161.05 79.9693 159.815 84.6534 160.244 91.119C156.419 85.889 152.462 83.0942 149.552 84.1531C144.437 86.014 144.817 99.9667 150.401 115.315L154.518 113.817C149.333 99.565 147.433 87.1722 150.274 86.1386C153.116 85.1044 159.301 94.9324 164.088 108.088L168.204 106.59C163.417 93.4345 161.84 81.9301 164.682 80.8961C167.524 79.862 174.032 90.5778 179.218 104.83L183.333 103.332C177.748 87.9839 169.075 77.0493 163.96 78.9106Z" fill="#FFBC0D"/>
<mask id="path-7-outside-2_17_28666" maskUnits="userSpaceOnUse" x="94.9283" y="10.9191" width="202.5" height="175.605" fill="black">
<rect fill="white" x="94.9283" y="10.9191" width="202.5" height="175.605"/>
<path d="M212.731 29.3782C215.629 28.3238 218.841 28.5771 221.537 30.0734L265.761 54.6189C267.707 55.6996 268.562 58.0485 267.766 60.1277L266.13 64.3936L266.155 64.4022C268.023 65.0282 269.145 66.9339 268.787 68.8709L260.657 112.867C260.162 115.55 258.528 117.886 256.177 119.27L166.502 172.092C164.978 172.989 163.016 172.482 162.119 170.958L148.616 148.035L132.81 153.788C130.932 154.472 128.855 153.503 128.171 151.625L100.011 74.2563C99.3276 72.3781 100.296 70.3013 102.174 69.6177L212.731 29.3782Z"/>
</mask>
<path d="M212.731 29.3782L211.705 26.5591L211.705 26.5591L212.731 29.3782ZM221.537 30.0734L222.993 27.4503L222.993 27.4503L221.537 30.0734ZM265.761 54.6189L267.217 51.996L267.216 51.9958L265.761 54.6189ZM267.766 60.1277L270.567 61.2017L270.567 61.2012L267.766 60.1277ZM266.13 64.3936L263.329 63.3195L262.217 66.2196L265.154 67.2303L266.13 64.3936ZM266.155 64.4022L265.179 67.2389L265.19 67.2428L265.201 67.2466L266.155 64.4022ZM268.787 68.8709L271.737 69.4161L271.737 69.416L268.787 68.8709ZM260.657 112.867L257.707 112.322L257.707 112.322L260.657 112.867ZM256.177 119.27L257.7 121.855L257.7 121.855L256.177 119.27ZM166.502 172.092L168.024 174.677L168.024 174.677L166.502 172.092ZM162.119 170.958L164.704 169.436L164.704 169.436L162.119 170.958ZM148.616 148.035L151.201 146.513L149.934 144.363L147.59 145.216L148.616 148.035ZM100.011 74.2563L97.1922 75.2824L100.011 74.2563ZM102.174 69.6177L103.2 72.4367L102.174 69.6177ZM212.731 29.3782L213.757 32.1973C215.839 31.44 218.146 31.622 220.082 32.6965L221.537 30.0734L222.993 27.4503C219.537 25.5321 215.419 25.2076 211.705 26.5591L212.731 29.3782ZM221.537 30.0734L220.081 32.6964L264.305 57.2419L265.761 54.6189L267.216 51.9958L222.993 27.4503L221.537 30.0734ZM265.761 54.6189L264.304 57.2418C264.945 57.5975 265.226 58.3705 264.964 59.0541L267.766 60.1277L270.567 61.2012C271.899 57.7265 270.469 53.8018 267.217 51.996L265.761 54.6189ZM267.766 60.1277L264.964 59.0536L263.329 63.3195L266.13 64.3936L268.931 65.4677L270.567 61.2017L267.766 60.1277ZM266.13 64.3936L265.154 67.2303L265.179 67.2389L266.155 64.4022L267.131 61.5655L267.106 61.5569L266.13 64.3936ZM266.155 64.4022L265.201 67.2466C265.652 67.3978 265.924 67.8584 265.837 68.3258L268.787 68.8709L271.737 69.416C272.367 66.0093 270.393 62.6587 267.108 61.5577L266.155 64.4022ZM268.787 68.8709L265.837 68.3258L257.707 112.322L260.657 112.867L263.607 113.413L271.737 69.4161L268.787 68.8709ZM260.657 112.867L257.707 112.322C257.369 114.15 256.256 115.742 254.655 116.685L256.177 119.27L257.7 121.855C260.8 120.029 262.954 116.949 263.607 113.412L260.657 112.867ZM256.177 119.27L254.655 116.685L164.979 169.507L166.502 172.092L168.024 174.677L257.7 121.855L256.177 119.27ZM166.502 172.092L164.979 169.507C164.884 169.564 164.761 169.532 164.704 169.436L162.119 170.958L159.534 172.481C161.272 175.432 165.073 176.415 168.024 174.677L166.502 172.092ZM162.119 170.958L164.704 169.436L151.201 146.513L148.616 148.035L146.031 149.558L159.534 172.481L162.119 170.958ZM148.616 148.035L147.59 145.216L131.784 150.969L132.81 153.788L133.836 156.607L149.642 150.854L148.616 148.035ZM132.81 153.788L131.784 150.969C131.463 151.086 131.107 150.92 130.99 150.599L128.171 151.625L125.352 152.651C126.602 156.086 130.401 157.857 133.836 156.607L132.81 153.788ZM128.171 151.625L130.99 150.599L102.83 73.2303L100.011 74.2563L97.1922 75.2824L125.352 152.651L128.171 151.625ZM100.011 74.2563L102.83 73.2303C102.713 72.909 102.879 72.5537 103.2 72.4367L102.174 69.6177L101.148 66.7986C97.7131 68.0489 95.9419 71.8473 97.1922 75.2824L100.011 74.2563ZM102.174 69.6177L103.2 72.4367L213.757 32.1973L212.731 29.3782L211.705 26.5591L101.148 66.7986L102.174 69.6177Z" fill="white" mask="url(#path-7-outside-2_17_28666)"/>
<ellipse cx="185.145" cy="201.618" rx="78.1452" ry="9.61787" fill="#A0A09F" fill-opacity="0.15"/>
</svg>
