<svg width="137" height="136" viewBox="0 0 137 136" fill="none" xmlns="http://www.w3.org/2000/svg">
<path d="M105.513 117.125C105.513 120.861 88.7565 123.889 68.0865 123.889C47.4165 123.889 30.6602 120.861 30.6602 117.125C30.6602 113.39 47.4165 110.361 68.0865 110.361C88.7565 110.361 105.513 113.39 105.513 117.125Z" fill="#A0A09F" fill-opacity="0.15"/>
<path fill-rule="evenodd" clip-rule="evenodd" d="M105.16 52.7167C105.16 82.2248 75.3034 109.541 69.1725 114.839C68.5314 115.393 67.6289 115.393 66.9878 114.839C60.857 109.541 31 82.2248 31 52.7167C31 30.0148 47.6014 13 68.0802 13C88.559 13 105.16 30.0148 105.16 52.7167ZM67.4665 60.2846C73.7466 60.2846 78.8377 55.1725 78.8377 48.8664C78.8377 42.5603 73.7466 37.4482 67.4665 37.4482C61.1863 37.4482 56.0952 42.5603 56.0952 48.8664C56.0952 55.1725 61.1863 60.2846 67.4665 60.2846Z" fill="#FFBC0D"/>
<path fill-rule="evenodd" clip-rule="evenodd" d="M30 52.7167C30 29.5153 46.9977 12 68.0802 12C89.1626 12 106.16 29.5153 106.16 52.7167C106.16 67.7883 98.5476 82.207 90.2708 93.4496C81.9785 104.713 72.9203 112.922 69.8264 115.596C68.8098 116.474 67.3506 116.474 66.334 115.596C63.2401 112.922 54.1819 104.713 45.8896 93.4496C37.6128 82.207 30 67.7883 30 52.7167ZM68.0802 14C48.205 14 32 30.5143 32 52.7167C32 67.1531 39.3157 81.1467 47.5002 92.2639C55.669 103.36 64.6048 111.458 67.6417 114.083C67.9073 114.312 68.2531 114.312 68.5187 114.083C71.5556 111.458 80.4914 103.36 88.6602 92.2639C96.8447 81.1467 104.16 67.1531 104.16 52.7167C104.16 30.5143 87.9554 14 68.0802 14ZM67.4665 38.4482C61.7425 38.4482 57.0952 43.1087 57.0952 48.8664C57.0952 54.6241 61.7425 59.2846 67.4665 59.2846C73.1905 59.2846 77.8377 54.6241 77.8377 48.8664C77.8377 43.1087 73.1905 38.4482 67.4665 38.4482ZM55.0952 48.8664C55.0952 42.0119 60.6301 36.4482 67.4665 36.4482C74.3028 36.4482 79.8377 42.0119 79.8377 48.8664C79.8377 55.7209 74.3028 61.2846 67.4665 61.2846C60.6301 61.2846 55.0952 55.7209 55.0952 48.8664Z" fill="white"/>
</svg>
