<svg width="27" height="18" viewBox="0 0 27 18" fill="none" xmlns="http://www.w3.org/2000/svg">
<g clip-path="url(#clip0_109_43715)">
<path d="M0 0H27V18H0V0Z" fill="#D80027"/>
<path d="M7.26172 0H27.1038V6H7.26172V0Z" fill="white"/>
<path d="M7.26172 12.1055H27.1038V18.1055H7.26172V12.1055Z" fill="#4A7C3A"/>
<path fill-rule="evenodd" clip-rule="evenodd" d="M1.91406 2.01332C1.91404 2.01329 1.91402 2.01326 2.12224 1.85233C2.33045 1.6914 2.33045 1.6914 2.33045 1.69141L2.33578 1.69828C2.3394 1.70294 2.34482 1.70992 2.35195 1.71908C2.36622 1.73739 2.38732 1.7644 2.41447 1.79897C2.4688 1.86811 2.54733 1.96742 2.64386 2.08772C2.83703 2.32848 3.10174 2.65261 3.38845 2.98694C3.67567 3.32187 3.98247 3.6641 4.26021 3.94232C4.54781 4.23042 4.77537 4.41973 4.90872 4.483C5.25926 4.64931 5.46629 4.71652 5.57749 4.7431C5.63266 4.75628 5.6612 4.75873 5.6698 4.75916C5.6716 4.75925 5.67236 4.75924 5.67216 4.75924C5.67191 4.75924 5.67003 4.75925 5.66671 4.75951C5.66374 4.75973 5.65959 4.76016 5.65438 4.76094C5.65177 4.76134 5.6489 4.76183 5.64577 4.76243C5.64421 4.76273 5.64258 4.76305 5.64089 4.76341L5.63831 4.76398L5.63699 4.76428L5.63632 4.76443C5.63598 4.76451 5.63565 4.76459 5.69592 5.02075C5.75619 5.27692 5.75585 5.277 5.75551 5.27708L5.75483 5.27723L5.75346 5.27754L5.75068 5.27815C5.74882 5.27855 5.74692 5.27893 5.745 5.2793C5.74115 5.28004 5.73718 5.28072 5.73309 5.28134C5.72491 5.28258 5.71621 5.28357 5.70694 5.28428C5.68845 5.2857 5.66749 5.28601 5.64359 5.28482C5.5961 5.28245 5.53484 5.27404 5.45514 5.25499C5.2966 5.2171 5.05364 5.1343 4.68312 4.95851C4.45594 4.85072 4.16904 4.59596 3.88772 4.31416C3.59654 4.02247 3.27999 3.66898 2.98892 3.32956C2.69734 2.98955 2.42882 2.66072 2.23335 2.41711C2.13555 2.29522 2.0559 2.19449 2.00062 2.12414C1.97298 2.08896 1.95142 2.06136 1.93673 2.0425C1.92939 2.03307 1.92376 2.02582 1.91994 2.0209L1.91406 2.01332Z" fill="white"/>
<path fill-rule="evenodd" clip-rule="evenodd" d="M1.82276 5.0222L1.8458 5.28435L1.64453 4.82858L2.86935 3.70115H2.72276V3.17483H3.44113L3.4596 3.15783V1.85378H3.98592V2.67336L5.08664 1.66016L5.46864 2.02029L5.26486 1.85378C5.46864 2.02029 5.46866 2.02027 5.46864 2.02029L5.4463 2.04757C5.43178 2.06528 5.41045 2.09126 5.38315 2.12442C5.32854 2.19075 5.25003 2.28585 5.15426 2.40109C4.98082 2.60978 4.75055 2.88481 4.50301 3.17483H4.7175V3.70115H4.04807C3.89284 3.87809 3.73971 4.04951 3.59771 4.20363C3.34745 4.47528 3.11309 4.71415 2.96201 4.82431C2.68135 5.02896 2.40777 5.1432 2.20316 5.2065C2.10069 5.2382 2.01485 5.25733 1.95306 5.26869C1.92213 5.27437 1.89713 5.27813 1.87898 5.28054C1.8699 5.28174 1.86252 5.28262 1.85695 5.28323C1.85417 5.28353 1.85184 5.28377 1.84998 5.28395L1.84753 5.28419L1.84658 5.28428L1.84598 5.28433C1.84589 5.28434 1.8458 5.28435 1.82276 5.0222Z" fill="white"/>
</g>
<rect x="0.5" y="0.5" width="26" height="17" rx="0.5" stroke="black" stroke-opacity="0.2"/>
<defs>
<clipPath id="clip0_109_43715">
<rect width="27" height="18" rx="1" fill="white"/>
</clipPath>
</defs>
</svg>
