<svg width="376" height="226" viewBox="0 0 376 226" fill="none" xmlns="http://www.w3.org/2000/svg">
<ellipse cx="188.493" cy="195.046" rx="50.6608" ry="10.1322" fill="#A0A09F" fill-opacity="0.15"/>
<path d="M228.644 58.331C228.573 58.331 228.502 58.3411 228.437 58.3512V46.2491C228.437 41.0218 224.215 36.7833 219.009 36.7833H157.29C152.084 36.7833 147.858 41.0218 147.858 46.2491V55.3954C147.303 55.4512 146.863 55.9227 146.863 56.4905V61.4947C146.863 62.0676 147.303 62.534 147.858 62.5898V67.0413C147.303 67.0869 146.863 67.5584 146.863 68.1313V76.7352C146.863 77.3081 147.303 77.7746 147.858 77.8303V187.82C147.858 193.047 152.079 197.286 157.285 197.286H219.004C224.21 197.286 228.432 193.047 228.432 187.82V70.9858C228.497 71.001 228.568 71.006 228.639 71.006C229.245 71.006 229.74 70.5092 229.74 69.9008V59.4362C229.745 58.8278 229.25 58.331 228.644 58.331Z" fill="#6F6F6F"/>
<path d="M222.566 183.121C222.566 185.965 220.268 188.267 217.44 188.267H158.857C156.024 188.267 153.732 185.96 153.732 183.121V50.9296C153.732 48.0853 156.029 45.7835 158.857 45.7835H217.44C220.273 45.7835 222.566 48.0904 222.566 50.9296V183.121Z" fill="white"/>
<path d="M192.433 42.786H183.859C183.253 42.786 182.759 42.2891 182.759 41.6807C182.759 41.0723 183.253 40.5754 183.859 40.5754H192.433C193.039 40.5754 193.534 41.0723 193.534 41.6807C193.534 42.2891 193.039 42.786 192.433 42.786Z" fill="white"/>
<rect x="154.557" y="57.8406" width="67.5478" height="122.43" rx="3" fill="white"/>
<path fill-rule="evenodd" clip-rule="evenodd" d="M192.255 61.582C193.638 61.582 194.758 67.41 194.758 74.5988H196.761C196.761 66.8564 194.744 60.5806 192.255 60.5806C190.839 60.5806 189.576 62.4671 188.751 65.4164C187.925 62.4671 186.662 60.5806 185.246 60.5806C182.759 60.5806 180.74 66.8564 180.74 74.5988H182.744C182.744 67.41 183.864 61.582 185.246 61.582C186.629 61.582 187.749 66.9615 187.749 73.5973H189.752C189.752 66.9615 190.873 61.582 192.255 61.582Z" fill="#FFBC0D"/>
<path fill-rule="evenodd" clip-rule="evenodd" d="M242.942 93.263L238.602 99.8613C238.515 99.9931 238.316 99.9735 238.259 99.8266C237.913 98.9392 236.995 96.5833 236.536 95.4071C235.964 93.9404 235.261 92.5492 235.261 92.5492L227.742 90.3885C227.597 90.3469 227.552 90.1647 227.663 90.0625C228.165 89.5981 229.356 88.5133 230.563 87.525C232.153 86.224 233.818 85.0528 233.818 85.0528L233.45 77.1535C233.443 76.9991 233.61 76.8983 233.743 76.9774C234.601 77.4889 237.02 78.9334 238.035 79.5841C239.28 80.3823 240.394 81.256 240.394 81.256L247.788 78.4617C247.935 78.4064 248.083 78.5383 248.046 78.6903L246.164 86.2546C246.164 86.2546 246.554 86.9798 248.103 88.9137C249.29 90.3955 250.477 91.8773 250.967 92.4892C251.066 92.6123 250.984 92.7943 250.826 92.8035L242.942 93.263Z" fill="#FFBC0D"/>
<path d="M228.644 58.331C228.573 58.331 228.502 58.3411 228.437 58.3512V46.2491C228.437 41.0218 224.215 36.7833 219.009 36.7833H157.29C152.084 36.7833 147.858 41.0218 147.858 46.2491V55.3954C147.303 55.4512 146.863 55.9227 146.863 56.4905V61.4947C146.863 62.0676 147.303 62.534 147.858 62.5898V67.0413C147.303 67.0869 146.863 67.5584 146.863 68.1313V76.7352C146.863 77.3081 147.303 77.7746 147.858 77.8303V187.82C147.858 193.047 152.079 197.286 157.285 197.286H219.004C224.21 197.286 228.432 193.047 228.432 187.82V70.9858C228.497 71.001 228.568 71.006 228.639 71.006C229.245 71.006 229.74 70.5092 229.74 69.9008V59.4362C229.745 58.8278 229.25 58.331 228.644 58.331Z" fill="#292929"/>
<path d="M222.566 183.121C222.566 185.965 220.268 188.267 217.44 188.267H158.857C156.024 188.267 153.732 185.96 153.732 183.121V50.9296C153.732 48.0853 156.029 45.7835 158.857 45.7835H217.44C220.273 45.7835 222.566 48.0904 222.566 50.9296V183.121Z" fill="white"/>
<path d="M192.433 42.786H183.859C183.253 42.786 182.759 42.2891 182.759 41.6807C182.759 41.0723 183.253 40.5754 183.859 40.5754H192.433C193.039 40.5754 193.534 41.0723 193.534 41.6807C193.534 42.2891 193.039 42.786 192.433 42.786Z" fill="white"/>
<mask id="mask0_17_28654" style="mask-type:alpha" maskUnits="userSpaceOnUse" x="196" y="19" width="57" height="59">
<path fill-rule="evenodd" clip-rule="evenodd" d="M231.881 63.1544L218.511 76.5933C218.244 76.8617 217.786 76.7206 217.722 76.3475C217.333 74.0945 216.302 68.1135 215.787 65.1276C215.145 61.4039 214.159 57.7952 214.159 57.7952L197.508 49.1104C197.188 48.9432 197.17 48.4932 197.479 48.3058C198.883 47.4544 202.203 45.4735 205.517 43.7277C209.879 41.4294 214.355 39.4726 214.355 39.4726L217.275 20.7181C217.333 20.3513 217.773 20.1942 218.048 20.444C219.823 22.0586 224.819 26.6147 226.894 28.6314C229.44 31.1051 231.641 33.6939 231.641 33.6939L250.371 30.6653C250.743 30.6052 251.029 30.9867 250.867 31.3262L242.817 48.215C242.817 48.215 243.386 50.1073 246.103 55.3981C248.185 59.452 250.267 63.5059 251.127 65.1799C251.3 65.5167 251.019 65.9054 250.644 65.8515L231.881 63.1544Z" fill="#F1F1F1" stroke="white" stroke-width="2" stroke-linecap="round" stroke-linejoin="round"/>
</mask>
<g mask="url(#mask0_17_28654)">
<path d="M228.476 59.0956C228.405 59.0956 228.334 59.1058 228.269 59.1159V47.0137C228.269 41.7865 224.047 37.548 218.841 37.548H157.122C151.916 37.548 147.69 41.7865 147.69 47.0137V56.1601C147.134 56.2159 146.695 56.6874 146.695 57.2552V62.2593C146.695 62.8323 147.134 63.2987 147.69 63.3545V67.806C147.134 67.8516 146.695 68.3231 146.695 68.896V77.4999C146.695 78.0728 147.134 78.5392 147.69 78.595V188.584C147.69 193.812 151.911 198.05 157.117 198.05H218.836C224.042 198.05 228.264 193.812 228.264 188.584V71.7505C228.329 71.7657 228.4 71.7707 228.471 71.7707C229.076 71.7707 229.571 71.2739 229.571 70.6655V60.2009C229.576 59.5925 229.082 59.0956 228.476 59.0956Z" fill="#A0A09F" fill-opacity="0.15"/>
</g>
<path fill-rule="evenodd" clip-rule="evenodd" d="M232.882 56.1451L219.513 69.584C219.246 69.8524 218.788 69.7112 218.723 69.3381C218.335 67.0852 217.303 61.1042 216.788 58.1183C216.146 54.3946 215.16 50.7859 215.16 50.7859L198.51 42.1011C198.189 41.9339 198.171 41.4839 198.48 41.2965C199.885 40.445 203.204 38.4642 206.518 36.7184C210.88 34.4201 215.356 32.4633 215.356 32.4633L218.277 13.7087C218.334 13.342 218.774 13.1849 219.049 13.4346C220.824 15.0493 225.82 19.6054 227.895 21.6221C230.441 24.0958 232.643 26.6845 232.643 26.6845L251.373 23.6559C251.744 23.5959 252.03 23.9774 251.868 24.3168L243.818 41.2057C243.818 41.2057 244.387 43.0979 247.104 48.3888C249.186 52.4427 251.268 56.4966 252.128 58.1706C252.301 58.5074 252.02 58.896 251.645 58.8422L232.882 56.1451Z" fill="#FFBC0D" stroke="white" stroke-width="2" stroke-linecap="round" stroke-linejoin="round"/>
<path fill-rule="evenodd" clip-rule="evenodd" d="M176.106 35.7838L164.83 38.1115C164.605 38.158 164.42 37.9331 164.513 37.7225C165.071 36.4511 166.553 33.0757 167.292 31.3906C168.215 29.2892 168.924 27.1307 168.924 27.1307L163.4 17.1519C163.294 16.9598 163.435 16.7259 163.655 16.7345C164.652 16.7739 166.997 16.8828 169.26 17.1088C172.24 17.4062 175.163 17.9149 175.163 17.9149L182.927 9.39328C183.079 9.22663 183.355 9.29469 183.41 9.51322C183.768 10.926 184.772 14.9079 185.148 16.6249C185.609 18.731 185.856 20.7801 185.856 20.7801L196.359 25.5222C196.567 25.6162 196.584 25.9052 196.389 26.0229L186.652 31.8807C186.652 31.8807 186.306 33.0298 185.909 36.6205C185.605 39.3717 185.302 42.1229 185.176 43.259C185.151 43.4875 184.879 43.5903 184.707 43.4374L176.106 35.7838Z" fill="#FFBC0D" stroke="white" stroke-width="2" stroke-linecap="round" stroke-linejoin="round"/>
<ellipse cx="189.252" cy="134.054" rx="23.5313" ry="2.71515" fill="#F1F1F1"/>
<path fill-rule="evenodd" clip-rule="evenodd" d="M168.208 129.741C168.208 131.813 169.756 133.554 171.819 133.752C176.011 134.153 183.211 134.731 189.929 134.731C196.398 134.731 202.599 134.195 206.314 133.797C208.341 133.58 209.84 131.859 209.84 129.821V127.944H168.208V129.741Z" fill="#EC9D47"/>
<path fill-rule="evenodd" clip-rule="evenodd" d="M208.33 120.943C209.54 120.943 210.521 121.952 210.521 123.196V124.22C210.521 125.067 210.067 125.591 209.395 125.839C209.284 125.808 209.155 125.796 209.019 125.796C209.015 125.796 198.846 125.886 197.469 126.053C196.674 126.099 196.137 126.143 195.86 126.186C188.232 127.375 185.012 125.579 181.357 125.206C178.966 124.963 176.716 125.116 174.963 125.548C174.944 125.553 174.223 125.657 173.821 125.681C173.104 125.724 172.449 125.807 171.604 125.782C171.119 125.767 170.478 125.991 170.11 125.873C169.387 125.639 168.889 125.106 168.889 124.22V123.196C168.889 121.952 169.87 120.943 171.08 120.943C179.52 120.487 185.872 120.256 190.136 120.252H190.27C194.284 120.252 200.303 120.482 208.33 120.943Z" fill="#73371F"/>
<path fill-rule="evenodd" clip-rule="evenodd" d="M196.035 127.441C196.314 127.399 196.855 127.355 197.655 127.31C199.041 127.145 209.279 127.056 209.284 127.056C209.716 127.056 210.067 127.179 210.067 127.611C210.067 128.09 209.72 128.045 209.247 128.124C208.615 128.23 207.939 128.287 207.219 128.293C206.259 128.302 203.377 128.238 198.572 128.102C198.313 128.094 197.813 128.118 197.072 128.172C196.719 128.282 196.31 128.381 195.844 128.46C191.283 129.232 189.844 131.388 188.113 134.202C186.442 136.918 185.281 128.311 179.735 128.074C176.038 127.917 173.017 128.016 170.672 128.373C170.615 128.375 170.559 128.371 170.504 128.362C170.04 128.285 169.727 128.074 169.804 127.611C169.904 127.011 170.404 127.015 171.012 126.976L171.534 126.943C172.354 126.985 173.125 126.985 173.847 126.943C174.251 126.919 174.978 126.816 174.997 126.811C176.761 126.385 179.026 126.233 181.434 126.474C185.114 126.841 188.356 128.615 196.035 127.441Z" fill="#FFBC0D"/>
<path d="M183.041 120.211C182.996 120.818 182.794 121.408 182.42 121.923C181.266 123.514 180.025 125.224 176.871 122.929C175.477 121.914 174.941 121.015 174.877 120.189C177.877 120.166 180.547 120.172 182.886 120.209L183.041 120.211Z" fill="#E6E454"/>
<path d="M183.498 120.218C183.452 120.91 183.221 121.587 182.79 122.178C182.677 122.333 182.626 122.402 182.562 122.489C181.778 123.546 181.193 124.095 180.366 124.351C179.306 124.678 178.087 124.345 176.609 123.275C175.194 122.251 174.497 121.243 174.427 120.188C174.737 120.185 175.044 120.183 175.346 120.181C175.418 120.914 175.961 121.679 177.148 122.537C178.412 123.453 179.35 123.709 180.094 123.479C180.679 123.299 181.15 122.856 181.825 121.946C181.888 121.862 181.937 121.794 182.049 121.641C182.363 121.21 182.537 120.715 182.579 120.203C182.873 120.207 183.161 120.212 183.444 120.217L183.498 120.218Z" fill="#9CC93A"/>
<path d="M191.247 120.854C192.95 120.858 194.84 120.898 196.917 120.976C195.975 122.954 194.452 122.543 193.011 122.153C192.333 121.97 191.74 121.519 191.273 120.89L191.247 120.854Z" fill="#E6E454"/>
<path d="M190.781 120.882C191.188 120.88 191.606 120.879 192.035 120.88C192.378 121.203 192.778 121.434 193.218 121.542C193.402 121.587 193.484 121.607 193.586 121.631C194.691 121.892 195.33 121.904 195.871 121.591C196.11 121.453 196.326 121.245 196.517 120.955C196.867 120.965 197.223 120.976 197.584 120.988C197.246 121.749 196.81 122.273 196.273 122.583C195.508 123.024 194.714 123.009 193.431 122.707C193.347 122.687 193.276 122.67 193.156 122.64L193.055 122.616C192.143 122.391 191.37 121.777 190.812 120.93L190.781 120.882Z" fill="#9CC93A"/>
<path fill-rule="evenodd" clip-rule="evenodd" d="M198.424 120.619C200.659 120.747 203.148 120.925 205.891 121.152C205.498 121.367 205.125 121.627 204.771 121.94C203.2 123.331 202.167 125.191 201.681 124.568C201.194 123.946 201.194 122.523 200.693 121.851C200.302 121.326 199.676 120.931 198.508 120.64L198.424 120.619Z" fill="#FFBC0D"/>
<path d="M198.254 119.119C201.231 119.306 204.624 119.573 208.432 119.922L208.489 119.927H208.547C209.181 119.927 209.715 119.68 210.136 119.284C210.24 119.386 210.304 119.528 210.304 119.685C210.304 119.997 210.05 120.251 209.738 120.251H169.904C169.631 120.251 169.403 120.057 169.35 119.799C169.593 119.882 169.854 119.927 170.131 119.927H170.184L170.238 119.922C174.323 119.574 177.903 119.306 180.975 119.119H198.254Z" fill="#FFD90D"/>
<path d="M169.342 120.787C169.342 120.486 169.576 120.242 169.876 120.239C172.535 120.208 184.35 120.072 187.557 120.072C190.791 120.072 206.399 120.21 209.687 120.239C210.03 120.242 210.296 120.521 210.296 120.865C210.296 121.144 210.111 121.389 209.841 121.46C209.232 121.621 208.171 121.882 207.682 121.882C207.127 121.882 206.569 121.791 206.003 121.677C205.444 121.565 204.878 121.429 204.3 121.336C203.754 121.248 174.213 121.323 169.873 121.335C169.569 121.336 169.342 121.09 169.342 120.787Z" fill="#DB0007"/>
<path d="M210.774 119.63C210.85 119.668 210.898 119.749 210.898 119.838V120.624C210.898 120.752 210.8 120.856 210.678 120.856C210.649 120.856 210.621 120.85 210.595 120.839C209.938 120.555 208.84 120.093 208.183 119.914L208.416 119.937L208.472 119.942H208.528C209.151 119.942 209.676 119.684 210.087 119.272C210.168 119.313 210.691 119.587 210.774 119.63Z" fill="#EDC8A3"/>
<path d="M183.717 120.027C183.795 120.077 183.834 120.169 183.816 120.26L183.668 121.024C183.644 121.147 183.525 121.227 183.402 121.203C183.378 121.198 183.355 121.189 183.333 121.177C181.892 120.35 180.415 119.709 178.902 119.252C180.045 119.175 180.879 119.119 182.237 119.119C182.734 119.416 183.168 119.672 183.717 120.027Z" fill="#EDC8A3"/>
<path d="M189.608 118.894C191.077 118.894 192.995 119.024 194.908 119.121C192.317 120.23 190.136 120.705 188.815 120.705C187.527 120.705 185.636 120.177 183.142 119.123C185.72 118.97 187.876 118.894 189.608 118.894Z" fill="#EDC8A3"/>
<path fill-rule="evenodd" clip-rule="evenodd" d="M209.955 116.744C209.955 117.594 209.445 118.894 208.538 118.894C208.538 118.894 196.171 117.762 189.591 117.762C183.389 117.762 170.132 118.894 170.132 118.894C169.225 118.894 168.662 117.82 168.662 116.97C168.662 109.323 178.321 104.639 189.817 104.639C201.314 104.639 209.955 109.097 209.955 116.744Z" fill="#EC9D47"/>
<path fill-rule="evenodd" clip-rule="evenodd" d="M187.994 112.477C187.677 112.305 187.573 111.917 187.762 111.609C187.952 111.302 189.023 110.436 189.195 110.529C189.368 110.622 189.102 111.924 188.913 112.232C188.724 112.539 188.312 112.649 187.994 112.477Z" fill="white"/>
<path fill-rule="evenodd" clip-rule="evenodd" d="M187.804 106.652C188.017 106.405 188.402 106.379 188.664 106.593C188.926 106.806 189.58 107.873 189.464 108.007C189.348 108.141 188.155 107.7 187.893 107.486C187.631 107.272 187.592 106.899 187.804 106.652Z" fill="white"/>
<path fill-rule="evenodd" clip-rule="evenodd" d="M180.97 112.581C180.758 112.827 180.373 112.854 180.111 112.64C179.849 112.426 179.195 111.359 179.311 111.225C179.426 111.092 180.619 111.533 180.881 111.747C181.143 111.96 181.183 112.334 180.97 112.581Z" fill="white"/>
<path fill-rule="evenodd" clip-rule="evenodd" d="M178.497 114.378C178.865 114.317 179.218 114.557 179.285 114.912C179.353 115.267 179.122 116.598 178.922 116.631C178.722 116.664 178.018 115.487 177.951 115.132C177.884 114.776 178.128 114.439 178.497 114.378Z" fill="white"/>
<path fill-rule="evenodd" clip-rule="evenodd" d="M170.383 116.609C170.595 116.362 170.98 116.335 171.242 116.549C171.504 116.763 172.158 117.83 172.042 117.964C171.927 118.098 170.734 117.657 170.472 117.443C170.21 117.229 170.17 116.856 170.383 116.609Z" fill="white"/>
<path fill-rule="evenodd" clip-rule="evenodd" d="M199.41 113.101C199.164 112.888 199.137 112.503 199.351 112.241C199.565 111.979 200.631 111.325 200.765 111.441C200.899 111.557 200.458 112.75 200.244 113.012C200.03 113.274 199.657 113.314 199.41 113.101Z" fill="white"/>
<path fill-rule="evenodd" clip-rule="evenodd" d="M197.502 107.59C197.871 107.529 198.224 107.768 198.291 108.124C198.358 108.479 198.128 109.809 197.928 109.842C197.727 109.875 197.024 108.699 196.957 108.343C196.889 107.988 197.134 107.651 197.502 107.59Z" fill="white"/>
<path fill-rule="evenodd" clip-rule="evenodd" d="M186.454 114.469C186.626 114.787 186.516 115.198 186.209 115.388C185.902 115.577 184.599 115.843 184.506 115.67C184.413 115.497 185.279 114.426 185.587 114.237C185.894 114.047 186.283 114.151 186.454 114.469Z" fill="white"/>
<path fill-rule="evenodd" clip-rule="evenodd" d="M190.519 114.798C190.732 114.551 191.117 114.524 191.378 114.738C191.64 114.952 192.294 116.019 192.179 116.153C192.063 116.287 190.87 115.846 190.608 115.632C190.346 115.418 190.306 115.045 190.519 114.798Z" fill="white"/>
<path fill-rule="evenodd" clip-rule="evenodd" d="M194.229 110.749C194.604 110.749 194.908 111.038 194.908 111.395C194.908 111.752 194.433 113.011 194.229 113.011C194.026 113.011 193.55 111.752 193.55 111.395C193.55 111.038 193.854 110.749 194.229 110.749Z" fill="white"/>
<path fill-rule="evenodd" clip-rule="evenodd" d="M206.923 113.373C207.169 113.586 207.196 113.971 206.982 114.233C206.768 114.495 205.702 115.149 205.568 115.033C205.434 114.917 205.875 113.724 206.089 113.462C206.303 113.2 206.676 113.161 206.923 113.373Z" fill="white"/>
<path fill-rule="evenodd" clip-rule="evenodd" d="M199.333 116.776C199.015 116.948 198.604 116.838 198.414 116.53C198.225 116.223 197.959 114.921 198.132 114.828C198.304 114.734 199.375 115.601 199.565 115.908C199.754 116.216 199.651 116.604 199.333 116.776Z" fill="white"/>
<path fill-rule="evenodd" clip-rule="evenodd" d="M182.69 107.354C183.065 107.354 183.369 107.643 183.369 108C183.369 108.357 182.894 109.616 182.69 109.616C182.487 109.616 182.012 108.357 182.012 108C182.012 107.643 182.315 107.354 182.69 107.354Z" fill="white"/>
<path fill-rule="evenodd" clip-rule="evenodd" d="M173.097 112.31C173.31 112.063 173.695 112.037 173.957 112.251C174.219 112.464 174.873 113.531 174.757 113.665C174.641 113.799 173.448 113.358 173.186 113.144C172.924 112.93 172.884 112.557 173.097 112.31Z" fill="white"/>
<rect x="159.712" y="169.726" width="57.0759" height="11.0146" rx="2" fill="#D8D8D8"/>
<mask id="path-45-outside-1_17_28654" maskUnits="userSpaceOnUse" x="144.861" y="6.29548" width="110.146" height="193.257" fill="black">
<rect fill="white" x="144.861" y="6.29548" width="110.146" height="193.257"/>
<path d="M182.927 9.39237C183.079 9.22573 183.355 9.29412 183.41 9.51265C183.768 10.9254 184.772 14.9065 185.148 16.6237C185.608 18.7298 185.857 20.7796 185.857 20.7796L196.359 25.5212C196.567 25.6152 196.584 25.904 196.389 26.0219L186.652 31.8803C186.644 31.9039 186.302 33.0664 185.909 36.62C185.903 36.6741 185.898 36.7282 185.892 36.7823H206.399C206.439 36.7614 206.478 36.7396 206.518 36.7188C210.864 34.4287 215.324 32.4771 215.356 32.4631L218.277 13.7087C218.334 13.3421 218.775 13.1851 219.049 13.4349C220.824 15.0495 225.82 19.6058 227.895 21.6225C230.44 24.0962 232.642 26.6849 232.642 26.6849L251.372 23.6565C251.744 23.5964 252.03 23.9781 251.868 24.3175L243.818 41.2062C243.827 41.2358 244.408 43.1397 247.104 48.3886C249.186 52.4425 251.269 56.4971 252.128 58.1711C252.301 58.5078 252.02 58.8958 251.645 58.8419L232.882 56.145L229.733 59.3093C229.738 59.3504 229.739 59.3922 229.739 59.4345V69.8996C229.739 70.5079 229.245 71.0044 228.639 71.0046C228.568 71.0046 228.497 70.9993 228.432 70.984V89.362C229.016 88.8371 229.786 88.1608 230.563 87.5246C232.153 86.2236 233.818 85.0526 233.818 85.0526L233.45 77.1534C233.443 76.9989 233.61 76.8982 233.742 76.9774C234.602 77.489 237.02 78.9327 238.035 79.5834C239.275 80.3784 240.385 81.2488 240.394 81.2555L247.788 78.4618C247.935 78.4064 248.083 78.5377 248.046 78.6896L246.164 86.2543C246.172 86.2695 246.57 86.9995 248.103 88.9132C249.29 90.3949 250.477 91.8773 250.968 92.4892C251.066 92.6122 250.984 92.7936 250.827 92.8031L242.942 93.2627L238.601 99.8613C238.515 99.9926 238.316 99.9729 238.259 99.8261C237.913 98.9388 236.995 96.5834 236.536 95.4071C235.964 93.9404 235.261 92.5489 235.261 92.5489L228.432 90.5853V187.818C228.432 193.045 224.21 197.284 219.004 197.284H157.285C152.079 197.284 147.858 193.045 147.858 187.818V77.8291C147.302 77.7732 146.863 77.3067 146.863 76.7339V68.1297C146.863 67.557 147.303 67.0861 147.858 67.0403V62.5881C147.302 62.5322 146.863 62.0657 146.863 61.4929V56.4892C146.863 55.9214 147.302 55.4499 147.858 55.394V46.248C147.858 41.0209 152.084 36.7824 157.29 36.7823H164.925C165.613 35.2152 166.694 32.7506 167.292 31.3894C168.214 29.288 168.925 27.1298 168.925 27.1298L163.4 17.1507C163.294 16.9587 163.436 16.7255 163.655 16.7342C164.652 16.7735 166.997 16.8818 169.26 17.1077C172.24 17.4052 175.164 17.9144 175.164 17.9144L182.927 9.39237ZM171.266 36.7823H177.229L176.105 35.7829L171.266 36.7823Z"/>
</mask>
<path d="M182.927 9.39237L181.446 8.04362L181.446 8.04372L182.927 9.39237ZM183.41 9.51265L185.351 9.02051V9.02051L183.41 9.51265ZM185.148 16.6237L187.104 16.1958L187.104 16.1958L185.148 16.6237ZM185.857 20.7796L183.868 21.0205C183.953 21.7158 184.394 22.3166 185.032 22.6048L185.857 20.7796ZM196.359 25.5212L197.183 23.696L197.183 23.696L196.359 25.5212ZM196.389 26.0219L197.422 27.7379L197.424 27.7362L196.389 26.0219ZM186.652 31.8803L185.619 30.1642C185.191 30.4217 184.875 30.8298 184.732 31.3084L186.652 31.8803ZM185.909 36.62L183.919 36.4002L185.909 36.62ZM185.892 36.7823L183.901 36.5625C183.839 37.1285 184.02 37.6943 184.4 38.1185C184.78 38.5426 185.322 38.785 185.892 38.785V36.7823ZM206.399 36.7823V38.785C206.726 38.785 207.047 38.7053 207.335 38.5529L206.399 36.7823ZM206.518 36.7188L205.584 34.947V34.947L206.518 36.7188ZM215.356 32.4631L216.158 34.298C216.785 34.0236 217.229 33.4478 217.335 32.7713L215.356 32.4631ZM218.277 13.7087L216.298 13.3996L216.298 13.4005L218.277 13.7087ZM219.049 13.4349L220.397 11.9534V11.9534L219.049 13.4349ZM227.895 21.6225L229.291 20.1863V20.1863L227.895 21.6225ZM232.642 26.6849L231.117 27.9824C231.571 28.516 232.27 28.7737 232.962 28.6619L232.642 26.6849ZM251.372 23.6565L251.692 25.6334L251.692 25.6334L251.372 23.6565ZM251.868 24.3175L250.06 23.4558V23.4558L251.868 24.3175ZM243.818 41.2062L242.011 40.3445C241.796 40.7949 241.757 41.3092 241.902 41.7868L243.818 41.2062ZM247.104 48.3886L245.323 49.3035V49.3035L247.104 48.3886ZM252.128 58.1711L253.91 57.2577L253.91 57.2562L252.128 58.1711ZM251.645 58.8419L251.93 56.8596L251.93 56.8596L251.645 58.8419ZM232.882 56.145L233.167 54.1627C232.541 54.0727 231.909 54.2839 231.462 54.7324L232.882 56.145ZM229.733 59.3093L228.314 57.8968C227.888 58.3244 227.678 58.9211 227.742 59.521L229.733 59.3093ZM229.739 59.4345L227.736 59.4186C227.736 59.4239 227.736 59.4292 227.736 59.4345H229.739ZM229.739 69.8996L231.742 69.8998V69.8996H229.739ZM228.639 71.0046V73.0072H228.639L228.639 71.0046ZM228.432 70.984L228.884 69.0331C228.289 68.8952 227.664 69.0363 227.186 69.4162C226.708 69.7962 226.429 70.3734 226.429 70.984H228.432ZM228.432 89.362H226.429C226.429 90.1526 226.894 90.8692 227.616 91.1911C228.338 91.513 229.182 91.3801 229.77 90.8517L228.432 89.362ZM230.563 87.5246L229.295 85.9748L230.563 87.5246ZM233.818 85.0526L234.97 86.6906C235.53 86.2965 235.85 85.6436 235.818 84.9594L233.818 85.0526ZM233.45 77.1534L231.45 77.2465L231.45 77.2465L233.45 77.1534ZM233.742 76.9774L234.767 75.2567L233.742 76.9774ZM238.035 79.5834L239.116 77.8974L239.116 77.8974L238.035 79.5834ZM240.394 81.2555L239.158 82.8316C239.71 83.2637 240.446 83.3765 241.102 83.1289L240.394 81.2555ZM247.788 78.4618L248.496 80.3352L248.496 80.3351L247.788 78.4618ZM248.046 78.6896L249.989 79.173L249.99 79.1701L248.046 78.6896ZM246.164 86.2543L244.221 85.771C244.1 86.2557 244.165 86.7679 244.403 87.2072L246.164 86.2543ZM248.103 88.9132L246.54 90.1653L248.103 88.9132ZM250.968 92.4892L252.533 91.2398L252.53 91.2371L250.968 92.4892ZM250.827 92.8031L250.943 94.8024L250.947 94.8021L250.827 92.8031ZM242.942 93.2627L242.826 91.2634C242.194 91.3002 241.617 91.6334 241.269 92.1621L242.942 93.2627ZM238.601 99.8613L240.272 100.966L240.275 100.962L238.601 99.8613ZM238.259 99.8261L240.125 99.0986L238.259 99.8261ZM236.536 95.4071L238.402 94.6797L236.536 95.4071ZM235.261 92.5489L237.048 91.6455C236.797 91.1482 236.35 90.7781 235.814 90.6242L235.261 92.5489ZM228.432 90.5853L228.985 88.6606C228.381 88.4868 227.73 88.6071 227.227 88.9855C226.725 89.3638 226.429 89.9563 226.429 90.5853H228.432ZM147.858 77.8291H149.86C149.86 76.8007 149.081 75.9394 148.058 75.8365L147.858 77.8291ZM146.863 68.1297L144.861 68.129V68.1297H146.863ZM147.858 67.0403L148.022 69.0362C149.061 68.9506 149.86 68.0826 149.86 67.0403H147.858ZM147.858 62.5881H149.86C149.86 61.5597 149.082 60.6985 148.058 60.5955L147.858 62.5881ZM146.863 56.4892L144.861 56.4891V56.4892H146.863ZM147.858 55.394L148.058 57.3866C149.081 57.2836 149.86 56.4224 149.86 55.394H147.858ZM157.29 36.7823V34.7796H157.29L157.29 36.7823ZM164.925 36.7823V38.785C165.72 38.785 166.44 38.315 166.759 37.5873L164.925 36.7823ZM167.292 31.3894L169.126 32.1944L169.126 32.1943L167.292 31.3894ZM168.925 27.1298L170.827 27.7561C171.001 27.2263 170.947 26.6478 170.677 26.1598L168.925 27.1298ZM163.4 17.1507L161.646 18.1182L161.648 18.1208L163.4 17.1507ZM163.655 16.7342L163.734 14.7331L163.734 14.7331L163.655 16.7342ZM169.26 17.1077L169.459 15.115L169.459 15.115L169.26 17.1077ZM175.164 17.9144L174.82 19.8874C175.495 20.005 176.183 19.7695 176.644 19.2631L175.164 17.9144ZM171.266 36.7823L170.861 34.821C169.855 35.0288 169.169 35.964 169.274 36.9859C169.378 38.0078 170.239 38.785 171.266 38.785V36.7823ZM177.229 36.7823V38.785C178.06 38.785 178.805 38.2714 179.101 37.4943C179.396 36.7173 179.181 35.8385 178.56 35.2859L177.229 36.7823ZM176.105 35.7829L177.436 34.2866C176.964 33.8661 176.32 33.6937 175.7 33.8217L176.105 35.7829ZM182.927 9.39237L184.407 10.7411C183.491 11.7471 181.808 11.3418 181.469 10.0048L183.41 9.51265L185.351 9.02051C184.901 7.24645 182.667 6.70436 181.446 8.04362L182.927 9.39237ZM183.41 9.51265L181.469 10.0048C181.83 11.432 182.824 15.3745 183.191 17.0516L185.148 16.6237L187.104 16.1958C186.72 14.4384 185.706 10.4187 185.351 9.02051L183.41 9.51265ZM185.148 16.6237L183.191 17.0515C183.41 18.0503 183.58 19.0454 183.696 19.7967C183.753 20.1707 183.797 20.4804 183.826 20.6951C183.84 20.8024 183.851 20.8858 183.858 20.9413C183.862 20.9691 183.865 20.9899 183.866 21.0033C183.867 21.0099 183.868 21.0147 183.868 21.0176C183.868 21.0191 183.868 21.02 183.868 21.0205C183.868 21.0208 183.868 21.0209 183.868 21.0209C183.868 21.0209 183.868 21.0208 183.868 21.0208C183.868 21.0207 183.868 21.0207 183.868 21.0206C183.868 21.0206 183.868 21.0205 185.857 20.7796C187.845 20.5387 187.845 20.5386 187.845 20.5385C187.845 20.5384 187.845 20.5383 187.845 20.5382C187.845 20.538 187.845 20.5378 187.845 20.5376C187.844 20.5371 187.844 20.5364 187.844 20.5357C187.844 20.5342 187.844 20.5321 187.844 20.5296C187.843 20.5246 187.842 20.5177 187.841 20.5088C187.839 20.4911 187.836 20.4659 187.831 20.4335C187.823 20.3687 187.811 20.2754 187.795 20.1576C187.763 19.9222 187.716 19.5878 187.654 19.1861C187.531 18.386 187.346 17.3031 187.104 16.1958L185.148 16.6237ZM185.857 20.7796L185.032 22.6048L195.535 27.3465L196.359 25.5212L197.183 23.696L186.681 18.9543L185.857 20.7796ZM196.359 25.5212L195.535 27.3465C194.277 26.7786 194.163 25.0267 195.354 24.3076L196.389 26.0219L197.424 27.7362C199.005 26.7814 198.857 24.4517 197.183 23.696L196.359 25.5212ZM196.389 26.0219L195.357 24.3059L185.619 30.1642L186.652 31.8803L187.684 33.5963L197.421 27.7379L196.389 26.0219ZM186.652 31.8803L184.732 31.3084C184.679 31.4886 184.318 32.7801 183.919 36.4002L185.909 36.62L187.9 36.8398C188.285 33.3528 188.61 32.3193 188.571 32.4522L186.652 31.8803ZM185.909 36.62L183.919 36.4002C183.915 36.4307 183.912 36.4606 183.909 36.4872C183.906 36.5147 183.904 36.5389 183.901 36.5625L185.892 36.7823L187.882 37.0021C187.886 36.9716 187.889 36.9417 187.892 36.9151C187.895 36.8876 187.897 36.8634 187.9 36.8398L185.909 36.62ZM185.892 36.7823V38.785H206.399V36.7823V34.7796H185.892V36.7823ZM206.399 36.7823L207.335 38.5529C207.366 38.5366 207.395 38.5207 207.413 38.5112C207.434 38.4999 207.443 38.4947 207.451 38.4905L206.518 36.7188L205.584 34.947C205.553 34.9637 205.523 34.9798 205.504 34.9898C205.483 35.0016 205.472 35.0071 205.464 35.0117L206.399 36.7823ZM206.518 36.7188L207.451 38.4905C209.586 37.3658 211.756 36.3203 213.402 35.5521C214.223 35.1687 214.911 34.8557 215.394 34.6382C215.636 34.5295 215.826 34.4447 215.957 34.3869C216.022 34.358 216.072 34.3359 216.106 34.3209C216.123 34.3134 216.136 34.3077 216.145 34.3039C216.149 34.302 216.152 34.3005 216.155 34.2995C216.157 34.2985 216.158 34.298 216.158 34.298L215.356 32.4631L214.553 30.6282C214.511 30.6469 209.997 32.622 205.584 34.947L206.518 36.7188ZM215.356 32.4631L217.335 32.7713L220.255 14.0168L218.277 13.7087L216.298 13.4005L213.377 32.1549L215.356 32.4631ZM218.277 13.7087L220.255 14.0177C220.068 15.2146 218.616 15.7485 217.702 14.9163L219.049 13.4349L220.397 11.9534C218.933 10.6218 216.599 11.4695 216.298 13.3996L218.277 13.7087ZM219.049 13.4349L217.702 14.9163C219.488 16.5409 224.453 21.0706 226.499 23.0587L227.895 21.6225L229.291 20.1863C227.186 18.1409 222.161 13.5582 220.397 11.9534L219.049 13.4349ZM227.895 21.6225L226.499 23.0587C227.732 24.2568 228.889 25.4898 229.741 26.4278C230.166 26.8956 230.512 27.2872 230.751 27.5606C230.871 27.6973 230.964 27.8043 231.026 27.8764C231.057 27.9124 231.08 27.9397 231.096 27.9576C231.103 27.9666 231.109 27.9732 231.113 27.9773C231.114 27.9794 231.116 27.9809 231.116 27.9817C231.117 27.9822 231.117 27.9824 231.117 27.9826C231.117 27.9826 231.117 27.9826 231.117 27.9826C231.117 27.9826 231.117 27.9826 231.117 27.9826C231.117 27.9825 231.117 27.9824 232.642 26.6849C234.168 25.3874 234.168 25.3873 234.168 25.3872C234.168 25.3871 234.168 25.387 234.167 25.3869C234.167 25.3868 234.167 25.3865 234.167 25.3863C234.166 25.3858 234.166 25.3851 234.165 25.3843C234.164 25.3826 234.162 25.3804 234.159 25.3775C234.154 25.3717 234.147 25.3634 234.138 25.3528C234.12 25.3316 234.094 25.3009 234.06 25.2613C233.991 25.1821 233.892 25.0676 233.766 24.9229C233.513 24.6337 233.149 24.2235 232.706 23.7349C231.82 22.7602 230.603 21.4619 229.291 20.1863L227.895 21.6225ZM232.642 26.6849L232.962 28.6619L251.692 25.6334L251.372 23.6565L251.053 21.6795L232.323 24.7079L232.642 26.6849ZM251.372 23.6565L251.692 25.6334C250.471 25.8308 249.526 24.5766 250.06 23.4558L251.868 24.3175L253.676 25.1792C254.534 23.3796 253.016 21.362 251.053 21.6795L251.372 23.6565ZM251.868 24.3175L250.06 23.4558L242.011 40.3445L243.818 41.2062L245.626 42.0678L253.676 25.1792L251.868 24.3175ZM243.818 41.2062L241.902 41.7868C241.958 41.9733 242.596 43.9947 245.323 49.3035L247.104 48.3886L248.885 47.4736C246.22 42.2846 245.696 40.4983 245.735 40.6255L243.818 41.2062ZM247.104 48.3886L245.323 49.3035C247.399 53.3472 249.492 57.4222 250.347 59.086L252.128 58.1711L253.91 57.2562C253.045 55.572 250.973 51.5377 248.885 47.4736L247.104 48.3886ZM252.128 58.1711L250.346 59.0845C249.764 57.9482 250.726 56.6865 251.93 56.8596L251.645 58.8419L251.36 60.8242C253.314 61.1051 254.838 59.0674 253.91 57.2577L252.128 58.1711ZM251.645 58.8419L251.93 56.8596L233.167 54.1627L232.882 56.145L232.597 58.1273L251.36 60.8242L251.645 58.8419ZM232.882 56.145L231.462 54.7324L228.314 57.8968L229.733 59.3093L231.153 60.7219L234.302 57.5576L232.882 56.145ZM229.733 59.3093L227.742 59.521C227.737 59.4791 227.736 59.4444 227.736 59.4186L229.739 59.4345L231.742 59.4504C231.743 59.34 231.738 59.2218 231.725 59.0976L229.733 59.3093ZM229.739 59.4345H227.736V69.8996H229.739H231.742V59.4345H229.739ZM229.739 69.8996L227.736 69.8994C227.736 69.4102 228.13 69.002 228.639 69.0019L228.639 71.0046L228.639 73.0072C230.359 73.0069 231.742 71.6056 231.742 69.8998L229.739 69.8996ZM228.639 71.0046V69.0019C228.653 69.0019 228.68 69.0024 228.719 69.0059C228.757 69.0095 228.813 69.0168 228.884 69.0331L228.432 70.984L227.98 72.935C228.244 72.9962 228.478 73.0072 228.639 73.0072V71.0046ZM228.432 70.984H226.429V89.362H228.432H230.434V70.984H228.432ZM228.432 89.362L229.77 90.8517C230.342 90.3377 231.087 89.6837 231.832 89.0743L230.563 87.5246L229.295 85.9748C228.485 86.6379 227.69 87.3365 227.093 87.8723L228.432 89.362ZM230.563 87.5246L231.832 89.0743C232.593 88.4516 233.378 87.8545 233.979 87.4101C234.277 87.1887 234.528 87.0072 234.702 86.8817C234.789 86.819 234.858 86.7703 234.903 86.7378C234.926 86.7215 234.944 86.7093 234.955 86.7013C234.96 86.6973 234.964 86.6944 234.967 86.6926C234.968 86.6917 234.969 86.6911 234.97 86.6908C234.97 86.6906 234.97 86.6905 234.97 86.6905C234.97 86.6904 234.97 86.6904 234.97 86.6905C234.97 86.6905 234.97 86.6905 234.97 86.6905C234.97 86.6905 234.97 86.6906 233.818 85.0526C232.666 83.4145 232.665 83.4146 232.665 83.4146C232.665 83.4147 232.665 83.4147 232.665 83.4148C232.665 83.4149 232.665 83.415 232.665 83.4151C232.664 83.4153 232.664 83.4157 232.663 83.4161C232.662 83.4169 232.661 83.4179 232.659 83.4193C232.655 83.422 232.65 83.4258 232.643 83.4307C232.629 83.4406 232.609 83.4548 232.583 83.4731C232.531 83.5096 232.457 83.5626 232.363 83.63C232.176 83.7647 231.911 83.9573 231.595 84.1913C230.965 84.6576 230.124 85.2966 229.295 85.9748L230.563 87.5246ZM233.818 85.0526L235.818 84.9594L235.451 77.0603L233.45 77.1534L231.45 77.2465L231.817 85.1457L233.818 85.0526ZM233.45 77.1534L235.451 77.0603C235.517 78.4867 233.967 79.4419 232.718 78.698L233.742 76.9774L234.767 75.2567C233.252 74.3546 231.369 75.5111 231.45 77.2465L233.45 77.1534ZM233.742 76.9774L232.718 78.698C233.59 79.2177 235.974 80.6409 236.954 81.2693L238.035 79.5834L239.116 77.8974C238.066 77.2245 235.613 75.7602 234.767 75.2567L233.742 76.9774ZM238.035 79.5834L236.954 81.2693C237.528 81.6368 238.079 82.0271 238.492 82.3302C238.698 82.4808 238.866 82.6076 238.982 82.6962C239.04 82.7404 239.085 82.775 239.115 82.7982C239.13 82.8097 239.141 82.8184 239.149 82.824C239.152 82.8268 239.155 82.8288 239.156 82.83C239.157 82.8307 239.158 82.8311 239.158 82.8313C239.158 82.8315 239.158 82.8315 239.158 82.8316L240.394 81.2555L241.629 79.6794C241.629 79.6794 241.629 79.6792 241.629 79.6789C241.628 79.6786 241.628 79.6783 241.627 79.6778C241.626 79.677 241.625 79.676 241.623 79.6747C241.62 79.6722 241.616 79.6689 241.611 79.6647C241.6 79.6564 241.585 79.645 241.567 79.6305C241.529 79.6017 241.476 79.561 241.41 79.5102C241.277 79.4089 241.089 79.2671 240.86 79.0999C240.407 78.7674 239.783 78.325 239.116 77.8974L238.035 79.5834ZM240.394 81.2555L241.102 83.1289L248.496 80.3352L247.788 78.4618L247.081 76.5883L239.686 79.3821L240.394 81.2555ZM247.788 78.4618L248.496 80.3351C247.139 80.8482 245.751 79.6294 246.101 78.2091L248.046 78.6896L249.99 79.1701C250.416 77.4461 248.731 75.9647 247.081 76.5884L247.788 78.4618ZM248.046 78.6896L246.102 78.2062L244.221 85.771L246.164 86.2543L248.108 86.7377L249.989 79.173L248.046 78.6896ZM246.164 86.2543L244.403 87.2072C244.489 87.3661 244.966 88.1996 246.54 90.1653L248.103 88.9132L249.666 87.661C248.175 85.7994 247.856 85.1728 247.926 85.3015L246.164 86.2543ZM248.103 88.9132L246.54 90.1653C247.134 90.906 247.727 91.647 248.234 92.2792C248.74 92.9114 249.159 93.4352 249.405 93.7413L250.968 92.4892L252.53 91.2371C252.286 90.9313 251.866 90.408 251.36 89.7755C250.854 89.1432 250.26 88.402 249.666 87.661L248.103 88.9132ZM250.968 92.4892L249.402 93.7386C248.473 92.5747 249.267 90.8908 250.706 90.8041L250.827 92.8031L250.947 94.8021C252.7 94.6964 253.658 92.6497 252.533 91.2398L250.968 92.4892ZM250.827 92.8031L250.71 90.8038L242.826 91.2634L242.942 93.2627L243.059 95.262L250.943 94.8024L250.827 92.8031ZM242.942 93.2627L241.269 92.1621L236.928 98.7607L238.601 99.8613L240.275 100.962L244.615 94.3633L242.942 93.2627ZM238.601 99.8613L236.931 98.7562C237.724 97.5586 239.582 97.7046 240.125 99.0986L238.259 99.8261L236.393 100.554C237.051 102.241 239.305 102.427 240.272 100.966L238.601 99.8613ZM238.259 99.8261L240.125 99.0986C239.8 98.2639 238.84 95.8032 238.402 94.6797L236.536 95.4071L234.67 96.1346C235.15 97.3636 236.027 99.6137 236.393 100.554L238.259 99.8261ZM236.536 95.4071L238.402 94.6797C238.095 93.8924 237.757 93.136 237.5 92.5828C237.37 92.3044 237.259 92.0734 237.18 91.9107C237.14 91.8293 237.108 91.7648 237.086 91.7198C237.074 91.6973 237.066 91.6796 237.059 91.6671C237.056 91.6609 237.054 91.6559 237.052 91.6523C237.051 91.6505 237.05 91.649 237.05 91.6479C237.049 91.6474 237.049 91.6469 237.049 91.6465C237.049 91.6463 237.049 91.6461 237.049 91.6459C237.049 91.6459 237.049 91.6458 237.049 91.6457C237.049 91.6456 237.048 91.6455 235.261 92.5489C233.474 93.4522 233.474 93.4521 233.474 93.452C233.474 93.452 233.474 93.4519 233.474 93.4519C233.474 93.4518 233.474 93.4518 233.474 93.4517C233.473 93.4517 233.473 93.4517 233.474 93.4518C233.474 93.452 233.474 93.4526 233.474 93.4535C233.475 93.4552 233.477 93.4582 233.479 93.4626C233.483 93.4712 233.49 93.4848 233.499 93.5033C233.518 93.5401 233.545 93.5957 233.58 93.6677C233.651 93.8118 233.751 94.0203 233.869 94.2732C234.106 94.7824 234.405 95.4551 234.67 96.1346L236.536 95.4071ZM235.261 92.5489L235.814 90.6242L228.985 88.6606L228.432 90.5853L227.878 92.51L234.708 94.4735L235.261 92.5489ZM228.432 90.5853H226.429V187.818H228.432H230.434V90.5853H228.432ZM228.432 187.818H226.429C226.429 191.947 223.096 195.281 219.004 195.281V197.284V199.286C225.324 199.286 230.434 194.144 230.434 187.818H228.432ZM219.004 197.284V195.281H157.285V197.284V199.286H219.004V197.284ZM157.285 197.284V195.281C153.193 195.281 149.86 191.947 149.86 187.818H147.858H145.855C145.855 194.144 150.966 199.286 157.285 199.286V197.284ZM147.858 187.818H149.86V77.8291H147.858H145.855V187.818H147.858ZM147.858 77.8291L148.058 75.8365C148.499 75.8809 148.866 76.2517 148.866 76.7339H146.863H144.861C144.861 78.3617 146.105 79.6655 147.657 79.8217L147.858 77.8291ZM146.863 76.7339H148.866V68.1297H146.863H144.861V76.7339H146.863ZM146.863 68.1297L148.866 68.1303C148.866 68.5948 148.51 68.996 148.022 69.0362L147.858 67.0403L147.693 65.0444C146.095 65.1762 144.861 66.5192 144.861 68.129L146.863 68.1297ZM147.858 67.0403H149.86V62.5881H147.858H145.855V67.0403H147.858ZM147.858 62.5881L148.058 60.5955C148.499 60.6399 148.866 61.0106 148.866 61.4929H146.863H144.861C144.861 63.1208 146.105 64.4245 147.657 64.5807L147.858 62.5881ZM146.863 61.4929H148.866V56.4892H146.863H144.861V61.4929H146.863ZM146.863 56.4892L148.866 56.4893C148.866 56.9706 148.505 57.3416 148.058 57.3866L147.858 55.394L147.657 53.4014C146.099 53.5581 144.861 54.8723 144.861 56.4891L146.863 56.4892ZM147.858 55.394H149.86V46.248H147.858H145.855V55.394H147.858ZM147.858 46.248H149.86C149.86 42.1207 153.197 38.785 157.29 38.785L157.29 36.7823L157.29 34.7796C150.972 34.7797 145.855 39.921 145.855 46.248H147.858ZM157.29 36.7823V38.785H164.925V36.7823V34.7796H157.29V36.7823ZM164.925 36.7823L166.759 37.5873C167.103 36.8035 167.546 35.7954 167.976 34.8132C168.407 33.8309 168.827 32.8747 169.126 32.1944L167.292 31.3894L165.458 30.5844C165.159 31.2652 164.739 32.2219 164.309 33.204C163.878 34.1862 163.435 35.194 163.092 35.9774L164.925 36.7823ZM167.292 31.3894L169.126 32.1943C169.61 31.0911 170.034 29.9834 170.335 29.1586C170.487 28.7443 170.608 28.3972 170.693 28.1523C170.735 28.0298 170.768 27.9326 170.791 27.8652C170.802 27.8315 170.811 27.8052 170.817 27.7868C170.82 27.7776 170.822 27.7704 170.824 27.7653C170.825 27.7627 170.826 27.7607 170.826 27.7592C170.826 27.7584 170.826 27.7578 170.827 27.7573C170.827 27.757 170.827 27.7568 170.827 27.7566C170.827 27.7565 170.827 27.7564 170.827 27.7564C170.827 27.7562 170.827 27.7561 168.925 27.1298C167.023 26.5035 167.023 26.5034 167.023 26.5033C167.023 26.5033 167.023 26.5033 167.023 26.5032C167.023 26.5032 167.023 26.5032 167.023 26.5032C167.023 26.5032 167.023 26.5034 167.023 26.5036C167.022 26.5042 167.022 26.5053 167.022 26.5068C167.02 26.51 167.019 26.5152 167.016 26.5223C167.012 26.5366 167.004 26.5587 166.994 26.5881C166.975 26.6469 166.945 26.7348 166.906 26.8474C166.828 27.0729 166.715 27.3967 166.573 27.7846C166.288 28.5642 165.896 29.5863 165.458 30.5844L167.292 31.3894ZM168.925 27.1298L170.677 26.1598L165.152 16.1807L163.4 17.1507L161.648 18.1208L167.173 28.0999L168.925 27.1298ZM163.4 17.1507L165.153 16.1833C165.789 17.3357 164.939 18.789 163.576 18.7353L163.655 16.7342L163.734 14.7331C161.933 14.662 160.799 16.5817 161.646 18.1182L163.4 17.1507ZM163.655 16.7342L163.576 18.7353C164.56 18.7741 166.858 18.8806 169.061 19.1005L169.26 17.1077L169.459 15.115C167.136 14.883 164.744 14.7729 163.734 14.7331L163.655 16.7342ZM169.26 17.1077L169.061 19.1005C170.508 19.2448 171.949 19.4416 173.034 19.6034C173.575 19.6841 174.024 19.7555 174.337 19.8067C174.494 19.8322 174.616 19.8527 174.698 19.8666C174.739 19.8736 174.77 19.8789 174.791 19.8824C174.801 19.8842 174.809 19.8855 174.814 19.8863C174.816 19.8867 174.818 19.887 174.819 19.8872C174.819 19.8873 174.82 19.8874 174.82 19.8874C174.82 19.8874 174.82 19.8874 174.82 19.8874C174.82 19.8874 174.82 19.8874 174.82 19.8874C174.82 19.8874 174.82 19.8874 175.164 17.9144C175.507 15.9415 175.507 15.9415 175.507 15.9415C175.507 15.9415 175.507 15.9414 175.507 15.9414C175.507 15.9414 175.506 15.9414 175.506 15.9413C175.506 15.9412 175.505 15.9411 175.504 15.9409C175.502 15.9406 175.5 15.9402 175.497 15.9396C175.49 15.9385 175.481 15.9369 175.469 15.9349C175.445 15.9308 175.411 15.9249 175.366 15.9174C175.277 15.9023 175.147 15.8806 174.983 15.8538C174.655 15.8001 174.187 15.7257 173.625 15.6419C172.503 15.4746 170.993 15.268 169.459 15.115L169.26 17.1077ZM175.164 17.9144L176.644 19.2631L184.407 10.741L182.927 9.39237L181.446 8.04372L173.683 16.5658L175.164 17.9144ZM171.266 36.7823V38.785H177.229V36.7823V34.7796H171.266V36.7823ZM177.229 36.7823L178.56 35.2859L177.436 34.2866L176.105 35.7829L174.774 37.2793L175.898 38.2787L177.229 36.7823ZM176.105 35.7829L175.7 33.8217L170.861 34.821L171.266 36.7823L171.671 38.7436L176.51 37.7442L176.105 35.7829Z" fill="white" mask="url(#path-45-outside-1_17_28654)"/>
</svg>
