<svg width="375" height="225" viewBox="0 0 375 225" fill="none" xmlns="http://www.w3.org/2000/svg">
<ellipse cx="184.5" cy="186" rx="53" ry="4.5" fill="#A0A09F" fill-opacity="0.15"/>
<rect x="175.5" y="39.5" width="24" height="17" rx="4" fill="#FFBC0D" stroke="white" stroke-width="4"/>
<rect x="169.5" y="32.5" width="36" height="17" rx="4" fill="#FFBC0D" stroke="white" stroke-width="4"/>
<circle cx="186" cy="115" r="68" fill="white" stroke="white" stroke-width="5"/>
<circle cx="185" cy="116" r="60.5" fill="white" stroke="#FFBC0D" stroke-width="10"/>
<rect x="177.5" y="41.5" width="20" height="13" rx="2" fill="#FFBC0D"/>
<rect x="171.5" y="34.5" width="32" height="13" rx="2" fill="#FFBC0D"/>
<rect x="232.094" y="56.1445" width="20" height="13" rx="2" transform="rotate(43.0143 232.094 56.1445)" fill="#FFBC0D"/>
<rect x="232.48" y="46.9336" width="32" height="13" rx="2" transform="rotate(43.0143 232.48 46.9336)" fill="#FFBC0D"/>
<path d="M191.194 124.552C186.393 127.323 180.263 125.693 177.501 120.91C174.74 116.127 176.393 110.003 181.194 107.231C185.995 104.459 229.162 87.389 230.762 90.1603C232.362 92.9315 195.995 121.78 191.194 124.552Z" fill="#DB0007"/>
</svg>
