<svg width="27" height="18" viewBox="0 0 27 18" fill="none" xmlns="http://www.w3.org/2000/svg">
<g clip-path="url(#clip0_109_43852)">
<path d="M18 0H0V17.9632H27V0H18Z" fill="#DC2339"/>
<path d="M0 0H9V18H0V0Z" fill="#11865D"/>
<path d="M9 0H18V18H9V0Z" fill="white"/>
<path d="M10.3047 9.01184C10.3047 10.1487 10.91 11.2066 11.8994 11.775C12.2047 11.9539 12.5942 11.8487 12.7731 11.5434C12.9521 11.2382 12.8468 10.8487 12.5415 10.6697C11.9468 10.3276 11.5836 9.69605 11.5836 9.01184C11.5836 8.65921 11.2994 8.375 10.9468 8.375C10.5942 8.375 10.3047 8.65921 10.3047 9.01184ZM15.2205 11.7013C16.1415 11.1171 16.6942 10.1013 16.6942 9.01184C16.6942 8.65921 16.41 8.375 16.0573 8.375C15.7047 8.375 15.4205 8.65921 15.4205 9.01184C15.4205 9.66447 15.0889 10.275 14.5363 10.6276C14.2363 10.8118 14.1415 11.2013 14.3205 11.5066C14.4994 11.8118 14.8942 11.9013 15.1994 11.7224C15.1994 11.7118 15.21 11.7066 15.2205 11.7013Z" fill="#8C9157"/>
<path d="M13.5016 10.2886C14.2079 10.2886 14.7806 9.43087 14.7806 8.37281C14.7806 7.31476 14.2079 6.45703 13.5016 6.45703C12.7953 6.45703 12.2227 7.31476 12.2227 8.37281C12.2227 9.43087 12.7953 10.2886 13.5016 10.2886Z" fill="#C59262"/>
</g>
<rect x="0.5" y="0.5" width="26" height="17" rx="0.5" stroke="black" stroke-opacity="0.2"/>
<defs>
<clipPath id="clip0_109_43852">
<rect width="27" height="18" rx="1" fill="white"/>
</clipPath>
</defs>
</svg>
