<svg width="27" height="18" viewBox="0 0 27 18" fill="none" xmlns="http://www.w3.org/2000/svg">
<g clip-path="url(#clip0_109_43810)">
<path d="M0 0H27V18.0002H0V0Z" fill="#496E2D"/>
<path d="M0 18V0H27" fill="#0052B4"/>
<path d="M0 16.4091V18H2.38649L27 1.591V0H24.6135L0 16.4091Z" fill="#FFDA44"/>
<path d="M4.5187 1.23828L4.7887 2.06916H5.6623L4.9555 2.58264L5.2255 3.41357L4.5187 2.90005L3.8118 3.41357L4.0818 2.58264L3.375 2.06916H4.24865L4.5187 1.23828ZM8.9813 1.23828L9.25135 2.06916H10.125L9.4182 2.58264L9.6882 3.41357L8.9813 2.90005L8.2745 3.41357L8.5445 2.58264L7.8377 2.06916H8.7113L8.9813 1.23828ZM4.5187 5.58897L4.7887 6.41986H5.6623L4.9555 6.93338L5.2255 7.76432L4.5187 7.25074L3.8118 7.76432L4.0818 6.93338L3.375 6.41986H4.24865L4.5187 5.58897ZM8.9813 5.58897L9.25135 6.41986H10.125L9.4182 6.93338L9.6882 7.76432L8.9813 7.25074L8.2745 7.76432L8.5445 6.93338L7.8377 6.41986H8.7113L8.9813 5.58897ZM6.75 3.41357L7.02 4.24446H7.8937L7.1868 4.75799L7.4568 5.58897L6.75 5.07539L6.0432 5.58897L6.3132 4.75799L5.6063 4.24446H6.48L6.75 3.41357Z" fill="white"/>
</g>
<rect x="0.5" y="0.5" width="26" height="17" rx="0.5" stroke="black" stroke-opacity="0.2"/>
<defs>
<clipPath id="clip0_109_43810">
<rect width="27" height="18" rx="1" fill="white"/>
</clipPath>
</defs>
</svg>
