<svg width="376" height="226" viewBox="0 0 376 226" fill="none" xmlns="http://www.w3.org/2000/svg">
<ellipse cx="109.646" cy="166.722" rx="22.0293" ry="4.00533" fill="#A0A09F" fill-opacity="0.15"/>
<path d="M105.096 50.3591C104.987 51.0613 105.099 51.6854 105.36 52.2068L105.394 52.2703L105.154 52.4474C104.914 52.6267 104.684 52.8057 104.46 52.9879C101.134 55.6957 98.4988 60.2622 98.0722 65.0648L98.0477 65.384C97.8619 68.1484 98.3658 70.8401 99.6258 73.2826L99.7325 73.4844L99.2103 73.7556C98.9571 73.886 98.7068 74.022 98.4596 74.1633C92.9609 77.3084 89.4417 82.8491 88.8533 89.0028L88.8207 89.3958C88.6588 91.6238 88.8872 93.8619 89.5053 96.0184L89.635 96.4469C89.9789 97.5465 90.4239 98.6177 90.9672 99.6496L91.1589 100.004L91.3812 100.532L91.2681 100.61C86.4098 104.137 83.3422 109.549 82.7225 115.453L82.6916 115.77C82.3155 120.039 83.2393 124.332 85.4165 128.121L85.4805 128.228C86.2388 129.457 87.4161 129.84 88.5068 129.657L88.581 129.644L88.7877 130.653L88.8221 130.809C89.2017 132.404 90.3363 133.666 91.7974 134.247L91.8624 134.271L95.3218 162.528C95.627 165.022 97.5714 166.999 100.06 167.346L101.835 167.588C106.164 168.163 109.23 168.459 111.108 168.474L111.388 168.475L111.735 168.469C113.714 168.421 116.785 168.11 121.04 167.539L122.442 167.347C124.937 166.999 126.882 165.022 127.187 162.528L130.653 134.208L130.702 134.189C132.141 133.564 133.24 132.269 133.571 130.653L136.121 118.183C136.196 117.813 136.223 117.434 136.2 117.058L136.188 116.9C136.173 116.743 136.149 116.589 136.118 116.438L136.094 116.336L136.199 116.191C137.807 113.916 138.667 111.069 138.666 108.105L138.664 107.81L138.653 107.499C138.531 104.594 137.601 101.808 135.935 99.5096L135.81 99.3413L135.697 99.1738C135.461 98.8372 135.213 98.5189 134.951 98.2195L134.88 98.1401L134.93 98.0134C135.566 96.3341 135.972 94.5709 136.133 92.7758C136.148 92.6036 136.16 92.4381 136.17 92.2723L136.185 92.0128C136.447 86.5651 134.354 81.286 129.007 77.9127L128.821 77.7971L128.922 77.5268C129.167 76.8508 129.374 76.1618 129.544 75.4626C129.751 74.6154 129.9 73.7397 129.98 72.8468L130 72.5903C130.37 67.4672 128.437 62.769 123.564 59.4661L123.428 59.376L122.315 58.5191L122.434 58.1798C122.85 56.952 123.109 55.7178 123.215 54.493C123.686 48.8469 120.738 43.7463 116.289 42.0907C111.132 40.1714 106.401 43.5333 105.118 50.2343L105.096 50.3591Z" fill="white"/>
<path d="M127.236 133.977L120.635 133.98C119.756 148.792 118.06 159.048 115.551 164.749C113.715 164.946 111.998 165.095 110.948 165.095C108.917 165.094 104.384 164.546 101.334 164.144C99.5421 163.908 98.1506 162.483 97.931 160.689L94.6249 133.678H127.273L127.236 133.977ZM130.492 115.801C131.811 115.73 132.845 116.926 132.581 118.22L130.422 128.773C130.137 130.171 128.906 131.175 127.479 131.175H94.2396C92.8125 131.175 91.5821 130.171 91.2962 128.773L89.404 119.516C89.0064 117.572 90.5677 115.775 92.5498 115.879C96.7128 116.097 103.634 116.391 110.627 116.391C118.488 116.391 126.492 116.019 130.492 115.801Z" fill="#E5AF71"/>
<path d="M130.813 116.14C132.132 116.068 133.166 117.264 132.901 118.558L131.268 126.538C130.673 126.838 130.088 127.145 129.515 127.461C127.318 128.675 125.272 130.028 123.416 131.514H94.5603C93.1332 131.514 91.9028 130.509 91.6169 129.111L89.7248 119.855C89.3272 117.91 90.8885 116.113 92.8706 116.217C97.0335 116.435 103.954 116.729 110.947 116.729C118.809 116.729 126.813 116.357 130.813 116.14ZM129.755 130.787C129.509 130.998 129.231 131.167 128.929 131.29C129.201 131.12 129.476 130.953 129.755 130.787Z" fill="#E5AF71"/>
<path fill-rule="evenodd" clip-rule="evenodd" d="M116.416 117.962C118.972 117.962 121.084 123.86 121.42 131.514L119.192 131.514C118.993 124.481 117.826 119.082 116.416 119.082C114.938 119.082 113.727 124.562 113.618 131.513H111.358C111.249 124.562 110.038 119.082 108.56 119.082C107.151 119.082 105.983 124.481 105.784 131.514L103.556 131.514C103.891 123.86 106.005 117.962 108.56 117.962C110.147 117.962 111.563 120.073 112.488 123.374C113.414 120.073 114.83 117.962 116.416 117.962Z" fill="#EC9D47"/>
<path d="M132.168 116.068C131.864 116.324 129.405 116.507 124.789 116.618C124.423 116.978 124.288 117.482 124.318 118.354C124.45 122.207 125.144 126.351 125.144 127.012C125.144 128.477 124.097 129.664 122.805 129.664C122.739 129.664 122.673 129.661 122.607 129.655C122.542 129.661 122.476 129.664 122.409 129.664C121.118 129.664 120.07 128.477 120.07 127.012C120.07 126.351 120.764 122.207 120.897 118.354C120.924 117.541 120.809 117.048 120.497 116.693C117.192 116.733 113.186 116.75 108.48 116.743C110.727 115.793 112.589 114.999 113.372 114.602C117.272 112.624 121.38 110.417 125.697 107.983C125.928 107.853 126.155 107.718 126.38 107.578C129.173 105.846 131.411 103.47 132.968 100.712C136.798 105.26 136.333 112.559 132.168 116.068Z" fill="#F1F1F1"/>
<g style="mix-blend-mode:multiply" opacity="0.5">
<path d="M135.573 107.608C135.707 110.852 134.537 114.074 132.169 116.069C131.883 116.311 129.679 116.485 125.558 116.597C127.106 115.959 132.338 113.451 135.573 107.608Z" fill="#EAEAEA"/>
</g>
<path d="M127.153 80.3842C132.565 83.6742 133.289 88.9988 133.098 92.0808C133.089 92.2207 133.079 92.3604 133.067 92.5C132.874 94.6599 132.259 96.7697 131.255 98.6988L131.267 98.707C129.939 101.269 127.925 103.515 125.296 105.136C125.102 105.256 124.906 105.372 124.708 105.483C120.396 107.902 116.295 110.093 112.407 112.055C108.226 114.165 104.719 115.12 101.024 116.657C100.997 116.657 100.97 116.657 100.944 116.657C98.8859 117.516 96.7686 118.561 94.4427 120.088C88.731 123.839 88.1498 125.583 88.0942 126.323L88.0935 126.33C88.0844 126.429 88.0851 126.511 88.0857 126.578L88.0891 126.585C86.1824 123.267 85.449 119.589 85.7618 116.039C86.2157 111.002 88.7758 106.226 93.0795 103.101L93.0876 103.116L95.1442 101.75L95.161 101.741C95.3994 101.599 95.6368 101.458 95.8731 101.317L95.8442 101.287C100.489 98.228 104.911 95.8884 113.17 91.9098C113.922 91.5473 114.971 90.956 116.283 90.1716C116.4 90.1018 116.518 90.0307 116.638 89.9583C117.852 89.2261 120.304 87.6935 120.097 87.8151L120.088 87.8205L120.319 87.6773C123.232 85.8431 125.56 83.3235 127.153 80.3842Z" fill="#F1F1F1"/>
<g style="mix-blend-mode:multiply" opacity="0.5">
<path d="M133.098 92.2461C133.09 92.3854 133.079 92.5244 133.067 92.6633C132.875 94.8128 132.265 96.9126 131.267 98.8325L131.278 98.8407C129.959 101.391 127.957 103.625 125.344 105.239C125.152 105.358 124.957 105.473 124.759 105.584C120.474 107.992 116.398 110.172 112.533 112.125C108.378 114.225 104.892 115.176 101.22 116.705L101.14 116.705C99.0952 117.56 96.9908 118.6 94.6792 120.12C89.0023 123.852 88.4247 125.588 88.3694 126.325L88.3688 126.331C88.3597 126.43 88.3604 126.512 88.361 126.579L88.3644 126.585C88.2934 126.462 88.224 126.338 88.1563 126.213C88.5308 120.962 92.1577 116.153 98.4021 112.997C103.929 110.203 109.545 107.869 114.136 105.612C118.341 103.545 129.39 99.2407 132.925 89.009C133.131 90.2113 133.155 91.3286 133.098 92.2461Z" fill="#EAEAEA"/>
</g>
<path d="M120.93 61.4092L120.916 61.4374C126.294 64.5729 127.211 69.1078 126.91 72.5718C126.84 73.3578 126.707 74.0882 126.55 74.7338C126.194 76.1964 125.643 77.6121 124.905 78.9388L124.918 78.9451C123.524 81.4649 121.461 83.6656 118.801 85.2604C118.596 85.3832 114.054 88.2474 112.109 89.1715C105.849 92.145 99.8227 95.0728 94.0291 98.865L94.0482 98.8527C94.0425 98.8455 94.0368 98.8382 94.031 98.831L94.036 98.8268L94.0323 98.8292C92.2833 95.8282 91.6187 92.5018 91.9179 89.2952C92.3981 84.2738 95.2421 79.5503 99.9874 76.8362C100.195 76.7172 100.406 76.6029 100.619 76.4932C101.446 76.0672 102.255 75.6423 103.046 75.2185L102.839 75.2954L102.841 75.2941L103.669 74.9896C105.198 74.4275 109.986 71.8669 112.831 70.1743C116.062 68.2525 119.083 64.7837 120.998 61.2885L120.93 61.4092Z" fill="#F1F1F1"/>
<g style="mix-blend-mode:multiply" opacity="0.5">
<path d="M126.057 67.4491L126.162 67.4817C126.92 69.3266 127.052 71.1942 126.908 72.8228C126.837 73.6017 126.704 74.3255 126.546 74.9652C126.187 76.4146 125.631 77.8174 124.889 79.1321L124.902 79.1383C123.498 81.6353 121.42 83.816 118.741 85.3964C118.535 85.5181 113.961 88.3562 112.001 89.272C105.971 92.0904 100.156 94.8674 94.5552 98.3922L93.8121 98.8654C93.8063 98.8583 93.8005 98.8511 93.7948 98.8438L93.7998 98.8397L93.796 98.8421L93.6949 98.6674C95.0878 94.2529 99.4233 90.3689 104.344 87.5722C112.133 83.1446 122.955 81.4888 126.057 67.4491Z" fill="#EAEAEA"/>
</g>
<path d="M108.144 50.8136C110.226 39.9459 120.92 44.9795 120.148 54.2278C120.049 55.3672 119.778 56.5645 119.298 57.7962C119.015 58.5222 118.632 59.3249 118.163 60.1579L118.178 60.163C116.627 62.9297 114.132 66.038 111.226 67.7846C109.034 69.1018 104.089 71.8317 102.618 72.3774L102.648 72.3666C102.639 72.3441 102.63 72.3217 102.621 72.2991L102.635 72.3366L102.622 72.3416C101.325 70.096 100.941 67.6608 101.141 65.3373C101.535 60.9097 104.153 57.2106 106.406 55.3765C109.372 52.9622 113.665 51.2428 113.817 49.3961C113.835 49.2278 113.822 49.0608 113.774 48.8951C113.171 46.7824 111.185 47.4655 108.758 49.8928C108.451 50.1998 108.144 50.8136 108.144 50.8136Z" fill="#F1F1F1"/>
<g style="mix-blend-mode:multiply" opacity="0.5">
<path d="M120.147 54.0253C120.047 55.1781 119.772 56.3896 119.283 57.6359C118.995 58.3704 118.605 59.1826 118.129 60.0255L118.143 60.0306C116.566 62.83 114.028 65.9749 111.072 67.7422C108.893 69.0447 104.039 71.7122 102.423 72.3481L102.346 72.3776L102.333 72.3477L102.324 72.3515L102.324 71.7927C102.718 69.2175 103.762 67.5647 105.457 66.8342C111.341 64.2986 117.92 56.8964 119.067 48.3534C119.885 49.9167 120.329 51.8565 120.147 54.0253Z" fill="#EAEAEA"/>
</g>
<path d="M184.746 172.73C215.162 172.73 239.819 175.644 239.819 179.238C239.819 182.63 217.871 185.414 189.846 185.718C211.22 187.141 225.8 189.982 225.8 193.257C225.8 197.958 195.763 201.768 158.711 201.768C121.659 201.768 91.6218 197.958 91.6218 193.257C91.6218 188.691 119.961 184.965 155.543 184.755C140.005 183.605 129.672 181.565 129.672 179.238C129.672 175.644 154.33 172.73 184.746 172.73ZM247.83 159.712C266.079 159.712 280.873 161.851 280.874 164.49C280.874 167.129 266.079 169.268 247.83 169.268C229.58 169.268 214.786 167.129 214.786 164.49C214.786 161.851 229.58 159.712 247.83 159.712Z" fill="#A0A09F" fill-opacity="0.15"/>
<path d="M250.967 16.1034C251.197 14.4634 252.714 13.3207 254.354 13.5512L260.292 14.3863C261.932 14.6168 263.075 16.1327 262.845 17.7727L256.771 60.9854L257.004 60.9962C259.803 61.1232 262.603 61.3255 265.402 61.6044L266.602 61.7286C268.766 61.9611 270.566 63.4679 271.191 65.5305L271.221 65.6342H278.442C280.735 65.6342 282.699 67.256 283.146 69.4908L283.174 69.6434L284.123 75.3375C284.351 76.7043 283.618 77.9928 282.44 78.5459L282.391 78.5674L282.36 79.0025C281.628 91.6429 280.726 104.312 279.652 117.009L279.355 120.473C278.15 134.33 276.748 148.153 275.148 161.942C274.987 163.333 273.884 164.428 272.491 164.578C265.429 165.342 258.365 165.746 251.292 165.791L249.978 165.795C242.473 165.795 234.968 165.389 227.465 164.578C226.072 164.428 224.969 163.333 224.808 161.942C223.202 148.085 221.8 134.262 220.601 120.473C220.001 113.578 219.45 106.675 218.949 99.7596L218.704 96.3068C218.3 90.5448 217.931 84.7764 217.597 79.0279L217.567 78.5693L217.51 78.5439C216.371 78.0063 215.65 76.7788 215.814 75.4607L215.832 75.3375L216.781 69.6434C217.167 67.33 219.169 65.6342 221.514 65.6342H228.734L228.764 65.5305C229.373 63.5208 231.098 62.0389 233.188 61.7491L233.354 61.7286C236.823 61.3561 240.292 61.1003 243.761 60.9609L244.666 60.9277L250.967 16.1034ZM247.283 63.8593C242.747 63.9399 238.21 64.2239 233.674 64.7111C232.663 64.8198 231.83 65.5542 231.596 66.5436L231.385 67.4344L231.145 68.6333H221.514C220.635 68.6333 219.884 69.2696 219.739 70.1372L218.79 75.8303L220.398 75.9516L220.589 78.8294C220.924 84.5913 221.292 90.3474 221.695 96.0975L221.942 99.5464C222.441 106.444 222.99 113.332 223.588 120.213C224.785 133.973 226.184 147.768 227.786 161.597C235.183 162.396 242.581 162.797 249.978 162.797L251.283 162.792C258.245 162.747 265.208 162.349 272.17 161.597C273.766 147.836 275.165 134.041 276.368 120.213C277.57 106.384 278.57 92.5899 279.367 78.8294L279.572 75.9496L281.166 75.8303L280.216 70.1372C280.072 69.2696 279.321 68.6333 278.442 68.6333H268.77L268.57 67.4344L268.36 66.5436C268.125 65.554 267.292 64.8196 266.281 64.7111C261.967 64.2478 257.652 63.9685 253.338 63.873L259.876 17.3561L253.936 16.521L247.283 63.8593Z" fill="white"/>
<path fill-rule="evenodd" clip-rule="evenodd" d="M220.59 78.8294C230.386 79.6291 240.182 80.029 249.979 80.029C259.775 80.029 269.571 79.6291 279.367 78.8294C278.57 92.59 277.571 106.385 276.368 120.213C275.166 134.042 273.766 147.836 272.17 161.597C264.773 162.396 257.376 162.796 249.979 162.796C242.582 162.796 235.184 162.396 227.787 161.597C226.185 147.768 224.786 133.974 223.589 120.213C222.392 106.452 221.393 92.6579 220.59 78.8294Z" fill="white"/>
<path fill-rule="evenodd" clip-rule="evenodd" d="M233.268 116.27C230.459 106.38 226.409 99.4628 221.791 97.436C221.789 97.4219 221.789 97.4219 222.226 103.362C226.27 109.797 229.182 127.878 229.182 149.174H237.354C237.354 122.487 241.927 100.85 247.568 100.85C253.21 100.85 257.784 124.288 257.784 153.2H265.954C265.954 122.064 257.723 96.8221 247.568 96.8221C241.792 96.8221 236.64 104.408 233.268 116.27Z" fill="#FFBC0D"/>
<path d="M269.358 67.5899L280.373 69.0919L282.375 77.1025L280.373 83.6112H224.298V69.0919L229.305 68.0905L231.308 65.0866L267.356 63.5846L269.358 67.5899Z" fill="white"/>
<path fill-rule="evenodd" clip-rule="evenodd" d="M279.365 78.8294C279.365 78.8294 278.17 99.4703 276.367 120.213C274.563 140.956 272.168 161.597 272.168 161.597C272.168 161.597 261.073 162.796 249.977 162.796C258.723 162.796 263.121 135.127 263.171 79.7886C272.168 79.4292 279.365 78.8294 279.365 78.8294Z" fill="#EAEAEA"/>
<path d="M253.935 16.52L259.875 17.3547L253.005 66.2373L246.949 66.2291L253.935 16.52Z" fill="#F1F1F1"/>
<path d="M256.904 16.9385L258.686 17.189L251.793 66.2368L249.976 66.2344L256.904 16.9385Z" fill="#EAEAEA"/>
<path fill-rule="evenodd" clip-rule="evenodd" d="M221.515 68.6323H278.443C279.322 68.6323 280.073 69.2682 280.217 70.1358L281.166 75.8294C270.77 76.6291 260.374 77.029 249.979 77.029C239.583 77.029 229.187 76.6291 218.791 75.8294L219.74 70.1358C219.884 69.2682 220.635 68.6323 221.515 68.6323Z" fill="#EAEAEA"/>
<path fill-rule="evenodd" clip-rule="evenodd" d="M233.675 64.7103C239.11 64.1267 244.544 63.8349 249.978 63.8349C255.413 63.8349 260.847 64.1267 266.282 64.7103C267.293 64.8189 268.126 65.5532 268.36 66.5427L268.571 67.4335H231.386L231.597 66.5427C231.831 65.5532 232.664 64.8189 233.675 64.7103Z" fill="#EAEAEA"/>
<path d="M217.687 36.1355L162.598 36.7202C160.37 36.739 158.24 37.6416 156.677 39.2297C155.114 40.8178 154.246 42.9615 154.263 45.1896L154.345 53.2864C154.103 53.3131 153.88 53.4281 153.718 53.6092C153.556 53.7903 153.466 54.0249 153.466 54.2679L153.509 58.7032C153.514 58.9458 153.609 59.1781 153.775 59.3548C153.941 59.5315 154.167 59.64 154.409 59.6594L154.443 63.6015C154.201 63.6263 153.977 63.7406 153.814 63.9222C153.652 64.1037 153.563 64.3394 153.565 64.583L153.64 72.2048C153.647 72.4468 153.742 72.6779 153.908 72.8542C154.074 73.0305 154.299 73.1397 154.54 73.161L155.506 170.595C155.518 171.698 155.748 172.788 156.181 173.802C156.615 174.816 157.244 175.735 158.032 176.506C158.821 177.277 159.754 177.886 160.778 178.296C161.801 178.707 162.896 178.911 163.999 178.899L219.065 178.345C221.293 178.327 223.422 177.424 224.985 175.836C226.548 174.248 227.417 172.104 227.4 169.876L226.366 66.3587L226.549 66.3312C226.677 66.3303 226.804 66.304 226.923 66.254C227.041 66.2039 227.148 66.131 227.239 66.0394C227.329 65.9478 227.4 65.8393 227.448 65.7202C227.497 65.601 227.521 65.4735 227.52 65.345L227.422 56.0282C227.418 55.768 227.31 55.5201 227.124 55.3385C226.938 55.1569 226.687 55.0563 226.427 55.0584L226.244 55.0859L226.141 44.3702C226.099 42.1615 225.187 40.0585 223.605 38.5171C222.022 36.9756 219.896 36.1199 217.687 36.1355Z" fill="black"/>
<path d="M222.123 165.744C222.12 166.95 221.645 168.106 220.799 168.966C219.954 169.826 218.805 170.321 217.6 170.345L165.329 170.869C164.12 170.87 162.96 170.398 162.096 169.553C161.232 168.707 160.734 167.557 160.71 166.349L159.543 49.2552C159.544 48.048 160.018 46.8892 160.863 46.0274C161.709 45.1655 162.858 44.6694 164.065 44.6453L216.337 44.1304C217.544 44.129 218.703 44.6005 219.566 45.4438C220.43 46.2871 220.928 47.435 220.955 48.6415L222.123 165.744Z" fill="white"/>
<path d="M194.001 41.6928L186.352 41.7724C186.223 41.775 186.095 41.7521 185.974 41.7049C185.854 41.6577 185.745 41.5872 185.652 41.4974C185.559 41.4076 185.485 41.3003 185.434 41.1818C185.383 41.0632 185.355 40.9357 185.354 40.8066C185.352 40.6775 185.376 40.5493 185.424 40.4295C185.473 40.3097 185.544 40.2007 185.635 40.1086C185.725 40.0166 185.833 39.9434 185.952 39.8932C186.071 39.843 186.199 39.817 186.328 39.8164L193.968 39.7382C194.228 39.736 194.479 39.8367 194.665 40.0183C194.851 40.1999 194.959 40.4478 194.963 40.708C194.965 40.836 194.942 40.9631 194.895 41.0821C194.847 41.201 194.777 41.3094 194.687 41.401C194.598 41.4925 194.491 41.5655 194.374 41.6156C194.256 41.6656 194.129 41.6919 194.001 41.6928Z" fill="white"/>
<path d="M155.606 38.1758C157.448 36.3049 159.957 35.2421 162.581 35.219L162.582 35.2179L217.671 34.6334L217.676 34.6337C220.28 34.6154 222.787 35.624 224.653 37.441C226.518 39.2581 227.592 41.7372 227.643 44.341L227.643 44.3488L227.643 44.3558L227.735 53.9253C227.823 53.979 227.908 54.0362 227.989 54.1007L228.173 54.2629L228.339 54.4425C228.706 54.8778 228.914 55.428 228.924 56.0018L228.924 56.0127L229.022 65.3293L229.022 65.3322C229.025 65.6583 228.963 65.982 228.841 66.2841C228.719 66.5861 228.538 66.8609 228.309 67.0931C228.179 67.2249 228.034 67.3394 227.879 67.4388L228.902 169.861L228.902 169.865C228.922 172.491 227.898 175.018 226.056 176.89C224.214 178.761 221.705 179.824 219.079 179.847L164.014 180.401L164.014 180.4C162.714 180.414 161.424 180.174 160.218 179.69C159.011 179.206 157.911 178.489 156.982 177.58C156.052 176.671 155.31 175.588 154.8 174.392C154.289 173.197 154.019 171.912 154.004 170.612L154.004 170.61L153.046 74.0969C152.965 74.0304 152.887 73.9606 152.814 73.8837C152.396 73.4393 152.156 72.856 152.139 72.2459L152.138 72.2332L152.138 72.2194L152.063 64.5984L152.063 64.5963C152.058 63.9786 152.283 63.3812 152.695 62.9209L152.857 62.756C152.882 62.7332 152.908 62.7119 152.933 62.6902L152.915 60.5994C152.833 60.5325 152.754 60.4618 152.681 60.3844C152.26 59.9363 152.019 59.3469 152.007 58.7317L152.007 58.7178L151.964 54.2822L151.964 54.2684C151.963 53.6555 152.19 53.0639 152.598 52.6073C152.671 52.526 152.75 52.4516 152.832 52.3812L152.761 45.2045L152.761 45.2006C152.741 42.5746 153.764 40.0476 155.606 38.1758Z" fill="#292929" stroke="white" stroke-width="3"/>
<path d="M222.123 165.744C222.12 166.95 221.645 168.106 220.799 168.966C219.954 169.826 218.805 170.321 217.6 170.345L165.329 170.869C164.12 170.87 162.96 170.398 162.096 169.553C161.232 168.707 160.734 167.557 160.71 166.349L159.543 49.2552C159.544 48.048 160.018 46.8892 160.863 46.0274C161.709 45.1655 162.858 44.6694 164.065 44.6453L216.337 44.1304C217.544 44.129 218.703 44.6005 219.566 45.4438C220.43 46.2871 220.928 47.435 220.955 48.6415L222.123 165.744Z" fill="white"/>
<path d="M194.001 41.6908L186.352 41.7704C186.223 41.7731 186.095 41.7501 185.974 41.7029C185.854 41.6557 185.745 41.5852 185.652 41.4954C185.559 41.4056 185.485 41.2984 185.434 41.1798C185.383 41.0612 185.355 40.9337 185.354 40.8046C185.352 40.6755 185.376 40.5474 185.424 40.4276C185.473 40.3078 185.544 40.1987 185.635 40.1067C185.725 40.0146 185.833 39.9414 185.952 39.8912C186.071 39.8411 186.199 39.815 186.328 39.8145L193.968 39.7362C194.228 39.7341 194.479 39.8348 194.665 40.0164C194.851 40.198 194.959 40.4458 194.963 40.706C194.965 40.834 194.942 40.9612 194.895 41.0801C194.847 41.199 194.777 41.3074 194.687 41.399C194.598 41.4906 194.491 41.5635 194.374 41.6136C194.256 41.6637 194.129 41.6899 194.001 41.6908Z" fill="white"/>
<path fill-rule="evenodd" clip-rule="evenodd" d="M192.073 50.2334C192.952 50.2334 193.665 54.1179 193.665 58.9095H194.939C194.939 53.7492 193.656 49.5659 192.073 49.5659C191.171 49.5659 190.368 50.8233 189.843 52.7894C189.317 50.8233 188.513 49.5659 187.613 49.5659C186.03 49.5659 184.746 53.7492 184.746 58.9095H186.02C186.02 54.1179 186.733 50.2334 187.613 50.2334C188.492 50.2334 189.206 53.8192 189.206 58.242H190.479C190.479 53.8192 191.193 50.2334 192.073 50.2334Z" fill="#FFBC0D"/>
<path d="M182.991 96.5442L183.15 96.6734L183.528 96.9909C183.659 97.0988 183.789 97.1902 183.928 97.2887L184.335 97.5772L184.763 97.8376L185.197 98.0806C185.342 98.1615 185.494 98.2332 185.654 98.3037C185.814 98.3743 185.949 98.4399 186.099 98.5034C186.25 98.5668 186.426 98.6269 186.593 98.6881C186.76 98.7494 186.892 98.7986 187.049 98.8445C187.206 98.8904 187.405 98.9389 187.579 98.9908C187.754 99.0427 187.882 99.0673 188.045 99.0956C188.208 99.124 188.44 99.1681 188.636 99.1921C188.831 99.216 188.919 99.246 189.071 99.259C189.224 99.2721 189.629 99.3013 189.914 99.3048L190.12 99.2772L190.293 99.254C190.58 99.2154 190.877 99.2425 191.166 99.212C191.305 99.1933 191.437 99.1756 191.569 99.1579L192.202 99.0729L192.629 99.0155C192.826 98.989 193.024 98.9625 193.204 98.8713L193.628 98.7306L194.164 98.5415L194.566 98.3619C194.741 98.2883 194.914 98.2064 195.078 98.1175C195.211 98.0539 195.341 97.9833 195.468 97.9061L195.949 97.6239L196.308 97.3747C196.47 97.2693 196.614 97.1578 196.766 97.0453L197.098 96.7748C197.157 96.7166 197.227 96.6738 197.287 96.6239C198.918 95.1905 200.074 93.2954 200.603 91.19C201.131 89.0845 201.008 86.868 200.248 84.8344C199.488 82.8008 198.128 81.0462 196.349 79.8031C194.569 78.56 192.453 77.8872 190.283 77.8739C188.112 77.8605 185.988 78.5073 184.193 79.7285C182.398 80.9496 181.017 82.6874 180.233 84.7115C179.448 86.7356 179.297 88.9504 179.8 91.0622C180.303 93.1741 181.436 95.0832 183.048 96.5364L182.991 96.5442Z" fill="#D8D8D8"/>
<path d="M200.076 97.6202C198.811 99.0101 197.267 100.118 195.546 100.873C193.824 101.627 191.963 102.011 190.084 101.999C188.205 101.987 186.349 101.579 184.637 100.803C182.925 100.027 181.396 98.8993 180.149 97.4934C176.418 99.0657 173.995 101.525 173.998 104.287C173.967 109.103 181.141 113.044 190.02 113.098C198.898 113.152 206.109 109.263 206.145 104.488C206.158 101.716 203.782 99.2313 200.076 97.6202Z" fill="#D8D8D8"/>
<path fill-rule="evenodd" clip-rule="evenodd" d="M111.392 157.917C111.316 158.219 111.359 158.529 111.496 158.792L111.496 158.793L111.075 163.153C110.562 164.104 110.271 165.196 110.271 166.355V168.808C110.271 168.868 110.272 168.926 110.273 168.984C110.258 169.228 110.316 169.474 110.443 169.689H110.443L111.075 163.153C111.183 162.952 111.302 162.757 111.43 162.569L111.185 176.494H109.883C109.199 176.494 108.644 177.048 108.644 177.732V181.962L108.645 181.974L108.646 182.157L108.646 182.169C108.749 187.743 113.003 192.38 118.571 192.944C131.323 194.234 143.625 194.978 155.475 195.179C155.775 195.243 156.088 195.252 156.404 195.192C158.255 195.219 160.094 195.232 161.922 195.232C175.325 195.232 188.374 194.514 201.066 193.077C206.646 192.446 210.862 187.726 210.862 182.11L210.863 178.516C210.942 178.428 211.015 178.329 211.082 178.219C211.331 177.808 211.404 177.355 211.404 176.935C211.404 176.298 211.207 175.697 210.764 175.228C210.626 175.083 210.476 174.962 210.321 174.862V173.16C211.652 172.236 212.488 170.769 212.488 168.808V166.355C212.488 164.912 212.037 163.572 211.267 162.48C211.393 162.328 211.503 162.164 211.597 161.99H211.628C212.662 161.99 213.394 161.127 213.394 160.196V158.313C213.394 157.662 213.042 157.031 212.429 156.714L212.425 156.712L211.135 156.04C210.968 155.899 210.767 155.805 210.551 155.767C210.551 155.766 210.551 155.766 210.55 155.766C210.55 155.766 210.55 155.766 210.549 155.766L209.92 155.136C210.225 154.648 210.466 154.121 210.647 153.604C210.963 152.707 211.133 151.748 211.133 150.899C211.133 141.185 205.615 133.575 196.719 128.455C187.854 123.353 175.559 120.66 161.651 120.66C147.732 120.66 134.841 123.492 125.382 128.715C115.918 133.941 109.729 141.673 109.729 151.441C109.729 152.442 109.985 153.513 110.452 154.453C110.776 155.107 111.225 155.744 111.808 156.251L111.392 157.917ZM111.452 161.292C111.531 161.569 111.656 161.826 111.817 162.055C111.68 162.22 111.551 162.391 111.43 162.569L111.452 161.292ZM111.452 161.292C111.405 161.126 111.374 160.952 111.361 160.773C111.36 160.758 111.359 160.744 111.359 160.729L111.356 160.637C111.355 160.623 111.355 160.608 111.355 160.594C111.355 160.319 111.398 160.054 111.478 159.806L111.452 161.292ZM111.478 159.806L111.496 158.793L111.496 158.792C111.555 158.961 111.63 159.123 111.72 159.275C111.621 159.44 111.539 159.618 111.478 159.806Z" fill="white"/>
<path d="M111.496 158.792L112.734 158.814C112.738 158.606 112.689 158.401 112.593 158.218L111.496 158.792ZM111.392 157.917L110.191 157.617L110.19 157.617L111.392 157.917ZM110.273 168.984L111.509 169.059C111.511 169.023 111.512 168.988 111.511 168.953L110.273 168.984ZM110.443 169.689L109.377 170.319C109.599 170.696 110.005 170.928 110.443 170.928V169.689ZM110.443 169.689V170.928C111.081 170.928 111.615 170.443 111.676 169.808L110.443 169.689ZM111.185 176.494V177.732C111.861 177.732 112.412 177.191 112.423 176.516L111.185 176.494ZM108.644 181.962H107.406L107.406 181.968L108.644 181.962ZM108.645 181.974L107.406 181.98L107.406 181.985L108.645 181.974ZM108.646 182.157L107.408 182.169L107.408 182.175L108.646 182.157ZM108.646 182.169L107.408 182.186L107.408 182.192L108.646 182.169ZM118.571 192.944L118.696 191.712L118.696 191.712L118.571 192.944ZM155.475 195.179L155.734 193.968C155.656 193.951 155.576 193.942 155.496 193.941L155.475 195.179ZM156.404 195.192L156.423 193.954C156.34 193.953 156.257 193.96 156.175 193.975L156.404 195.192ZM201.066 193.077L200.927 191.847L200.927 191.847L201.066 193.077ZM210.862 182.11L209.624 182.11V182.11H210.862ZM210.863 178.516L209.943 177.687C209.738 177.914 209.624 178.209 209.624 178.516L210.863 178.516ZM211.082 178.219L212.141 178.861L212.142 178.86L211.082 178.219ZM210.764 175.228L211.664 174.377L211.663 174.376L210.764 175.228ZM210.321 174.862H209.082C209.082 175.284 209.297 175.677 209.652 175.905L210.321 174.862ZM210.321 173.16L209.615 172.143C209.281 172.374 209.082 172.754 209.082 173.16H210.321ZM211.267 162.48L210.312 161.692C209.957 162.122 209.934 162.737 210.255 163.193L211.267 162.48ZM211.597 161.99V160.751C211.14 160.751 210.721 161.002 210.505 161.405L211.597 161.99ZM212.429 156.714L211.815 157.79C211.83 157.798 211.845 157.807 211.86 157.814L212.429 156.714ZM212.425 156.712L213.038 155.636C213.025 155.629 213.011 155.621 212.997 155.614L212.425 156.712ZM211.135 156.04L210.336 156.987C210.406 157.046 210.482 157.097 210.563 157.139L211.135 156.04ZM210.551 155.767L209.676 156.642C209.856 156.822 210.086 156.942 210.336 156.986L210.551 155.767ZM210.55 155.766L210.098 156.919C210.103 156.921 210.108 156.923 210.113 156.925L210.55 155.766ZM210.549 155.766L209.674 156.641C209.768 156.735 209.876 156.814 209.995 156.873L210.549 155.766ZM209.92 155.136L208.87 154.48C208.564 154.969 208.636 155.604 209.044 156.012L209.92 155.136ZM210.647 153.604L209.479 153.193L209.479 153.194L210.647 153.604ZM196.719 128.455L196.101 129.528L196.101 129.528L196.719 128.455ZM125.382 128.715L124.783 127.631L124.783 127.631L125.382 128.715ZM110.452 154.453L111.561 153.903L111.561 153.903L110.452 154.453ZM111.808 156.251L113.01 156.551C113.123 156.099 112.972 155.621 112.62 155.316L111.808 156.251ZM111.817 162.055L112.769 162.848C113.127 162.417 113.152 161.8 112.83 161.343L111.817 162.055ZM111.361 160.773L110.126 160.855L110.126 160.859L111.361 160.773ZM111.359 160.729L110.121 160.772L110.121 160.775L111.359 160.729ZM111.356 160.637L110.118 160.679L110.118 160.68L111.356 160.637ZM111.496 158.792L112.667 158.388C112.477 157.838 111.929 157.494 111.35 157.562C110.772 157.631 110.32 158.093 110.264 158.673L111.496 158.792ZM111.72 159.275L112.781 159.913C113.017 159.522 113.018 159.033 112.784 158.641L111.72 159.275ZM111.496 158.792L112.593 158.218L112.593 158.217L111.392 157.917L110.19 157.617C110.04 158.221 110.124 158.841 110.399 159.366L111.496 158.792ZM111.496 158.793L112.734 158.815L112.734 158.814L111.496 158.792L110.258 158.77L110.258 158.771L111.496 158.793ZM111.075 163.153L112.307 163.272L112.729 158.912L111.496 158.793L110.264 158.674L109.842 163.034L111.075 163.153ZM111.075 163.153L109.985 162.565C109.377 163.693 109.033 164.987 109.033 166.355H110.271H111.509C111.509 165.406 111.747 164.515 112.165 163.741L111.075 163.153ZM110.271 166.355H109.033V168.808H110.271H111.509V166.355H110.271ZM110.271 168.808H109.033C109.033 168.878 109.033 168.947 109.035 169.015L110.273 168.984L111.511 168.953C111.51 168.905 111.509 168.857 111.509 168.808H110.271ZM110.273 168.984L109.037 168.91C109.008 169.397 109.123 169.888 109.377 170.319L110.443 169.689L111.51 169.06C111.509 169.059 111.509 169.059 111.509 169.059L110.273 168.984ZM110.443 169.689V170.928H110.443V169.689V168.451H110.443V169.689ZM110.443 169.689L111.676 169.808L112.307 163.272L111.075 163.153L109.842 163.034L109.211 169.57L110.443 169.689ZM111.43 162.569L110.406 161.873C110.254 162.096 110.114 162.327 109.985 162.565L111.075 163.153L112.165 163.741C112.253 163.577 112.35 163.419 112.454 163.266L111.43 162.569ZM111.185 176.494L112.423 176.516L112.668 162.591L111.43 162.569L110.192 162.547L109.947 176.472L111.185 176.494ZM109.883 176.494V177.732H111.185V176.494V175.256H109.883V176.494ZM108.644 177.732H109.883L109.883 177.732V176.494V175.256C108.515 175.256 107.406 176.364 107.406 177.732H108.644ZM108.644 181.962H109.883V177.732H108.644H107.406V181.962H108.644ZM108.645 181.974L109.883 181.968L109.883 181.956L108.644 181.962L107.406 181.968L107.406 181.98L108.645 181.974ZM108.646 182.157L109.884 182.146L109.883 181.962L108.645 181.974L107.406 181.985L107.408 182.169L108.646 182.157ZM108.646 182.169L109.885 182.151L109.884 182.14L108.646 182.157L107.408 182.175L107.408 182.186L108.646 182.169ZM118.571 192.944L118.696 191.712C113.752 191.212 109.976 187.094 109.884 182.146L108.646 182.169L107.408 182.192C107.523 188.391 112.253 193.549 118.446 194.176L118.571 192.944ZM155.475 195.179L155.496 193.941C143.683 193.741 131.416 192.998 118.696 191.712L118.571 192.944L118.446 194.176C131.23 195.469 143.567 196.216 155.454 196.417L155.475 195.179ZM156.404 195.192L156.175 193.975C156.029 194.003 155.882 194 155.734 193.968L155.475 195.179L155.217 196.39C155.668 196.486 156.147 196.501 156.634 196.409L156.404 195.192ZM161.922 195.232V193.994C160.1 193.994 158.266 193.981 156.423 193.954L156.404 195.192L156.386 196.43C158.243 196.457 160.088 196.47 161.922 196.47V195.232ZM201.066 193.077L200.927 191.847C188.283 193.279 175.281 193.994 161.922 193.994V195.232V196.47C175.37 196.47 188.464 195.75 201.206 194.308L201.066 193.077ZM210.862 182.11H209.624C209.624 187.096 205.881 191.286 200.927 191.847L201.066 193.077L201.206 194.308C207.411 193.605 212.1 188.356 212.1 182.11H210.862ZM210.863 178.516L209.624 178.516L209.624 182.11L210.862 182.11L212.1 182.11L212.101 178.516L210.863 178.516ZM211.082 178.219L210.023 177.578C209.996 177.622 209.969 177.658 209.943 177.687L210.863 178.516L211.782 179.345C211.915 179.198 212.035 179.037 212.141 178.861L211.082 178.219ZM211.404 176.935H210.166C210.166 177.219 210.115 177.425 210.023 177.578L211.082 178.219L212.142 178.86C212.547 178.191 212.642 177.491 212.642 176.935H211.404ZM210.764 175.228L209.864 176.079C210.054 176.28 210.166 176.557 210.166 176.935H211.404H212.642C212.642 176.038 212.361 175.114 211.664 174.377L210.764 175.228ZM210.321 174.862L209.652 175.905C209.73 175.954 209.801 176.012 209.865 176.08L210.764 175.228L211.663 174.376C211.451 174.153 211.223 173.97 210.989 173.82L210.321 174.862ZM210.321 173.16H209.082V174.862H210.321H211.559V173.16H210.321ZM212.488 168.808H211.25C211.25 170.374 210.604 171.456 209.615 172.143L210.321 173.16L211.026 174.177C212.7 173.017 213.727 171.165 213.727 168.808H212.488ZM212.488 166.355H211.25V168.808H212.488H213.727V166.355H212.488ZM211.267 162.48L210.255 163.193C210.881 164.081 211.25 165.173 211.25 166.355H212.488H213.727C213.727 164.651 213.193 163.063 212.28 161.767L211.267 162.48ZM211.597 161.99L210.505 161.405C210.451 161.506 210.386 161.602 210.312 161.692L211.267 162.48L212.223 163.268C212.399 163.054 212.556 162.822 212.688 162.574L211.597 161.99ZM211.628 161.99V160.751H211.597V161.99V163.228H211.628V161.99ZM213.394 160.196H212.156C212.156 160.515 211.908 160.751 211.628 160.751V161.99V163.228C213.416 163.228 214.632 161.738 214.632 160.196H213.394ZM213.394 158.313H212.156V160.196H213.394H214.632V158.313H213.394ZM212.429 156.714L211.86 157.814C212.039 157.907 212.156 158.099 212.156 158.313H213.394H214.632C214.632 157.224 214.044 156.155 212.997 155.614L212.429 156.714ZM212.425 156.712L211.811 157.788L211.815 157.79L212.429 156.714L213.042 155.639L213.038 155.636L212.425 156.712ZM211.135 156.04L210.563 157.139L211.853 157.81L212.425 156.712L212.997 155.614L211.706 154.942L211.135 156.04ZM210.551 155.767L210.336 156.986L210.336 156.987L211.135 156.04L211.933 155.094C211.601 154.814 211.199 154.624 210.766 154.547L210.551 155.767ZM210.55 155.766L210.113 156.925C210.13 156.931 210.058 156.906 209.981 156.866C209.882 156.814 209.776 156.742 209.676 156.642L210.551 155.767L211.427 154.891C211.327 154.791 211.22 154.719 211.121 154.667C211.043 154.627 210.971 154.601 210.987 154.607L210.55 155.766ZM210.549 155.766L209.995 156.873C210.052 156.901 210.1 156.919 210.098 156.919L210.55 155.766L211.002 154.613C211 154.612 211.048 154.63 211.103 154.658L210.549 155.766ZM209.92 155.136L209.044 156.012L209.674 156.641L210.549 155.766L211.425 154.89L210.796 154.261L209.92 155.136ZM210.647 153.604L209.479 153.194C209.323 153.639 209.119 154.081 208.87 154.48L209.92 155.136L210.97 155.793C211.331 155.216 211.609 154.604 211.816 154.014L210.647 153.604ZM211.133 150.899H209.895C209.895 151.595 209.753 152.415 209.479 153.193L210.647 153.604L211.816 154.015C212.173 152.999 212.371 151.901 212.371 150.899H211.133ZM196.719 128.455L196.101 129.528C204.72 134.488 209.895 141.739 209.895 150.899H211.133H212.371C212.371 140.632 206.51 132.661 197.336 127.382L196.719 128.455ZM161.651 120.66V121.899C175.422 121.899 187.483 124.568 196.101 129.528L196.719 128.455L197.336 127.382C188.225 122.138 175.696 119.422 161.651 119.422V120.66ZM125.382 128.715L125.98 129.799C135.208 124.704 147.879 121.899 161.651 121.899V120.66V119.422C147.585 119.422 134.473 122.281 124.783 127.631L125.382 128.715ZM109.729 151.441H110.967C110.967 142.281 116.751 134.895 125.98 129.799L125.382 128.715L124.783 127.631C115.086 132.986 108.49 141.064 108.49 151.441H109.729ZM110.452 154.453L111.561 153.903C111.175 153.125 110.967 152.242 110.967 151.441H109.729H108.49C108.49 152.642 108.795 153.9 109.342 155.003L110.452 154.453ZM111.808 156.251L112.62 155.316C112.185 154.938 111.828 154.441 111.561 153.903L110.452 154.453L109.342 155.002C109.723 155.772 110.266 156.551 110.997 157.186L111.808 156.251ZM111.392 157.917L112.593 158.217L113.01 156.551L111.808 156.251L110.607 155.95L110.191 157.617L111.392 157.917ZM111.452 161.292L110.261 161.632C110.379 162.044 110.565 162.427 110.804 162.768L111.817 162.055L112.83 161.343C112.747 161.225 112.683 161.093 112.643 160.953L111.452 161.292ZM111.817 162.055L110.865 161.263C110.703 161.459 110.549 161.662 110.406 161.873L111.43 162.569L112.454 163.266C112.552 163.121 112.657 162.981 112.769 162.848L111.817 162.055ZM111.43 162.569L112.668 162.591L112.69 161.314L111.452 161.292L110.214 161.271L110.192 162.547L111.43 162.569ZM111.361 160.773L110.126 160.859C110.145 161.125 110.191 161.383 110.261 161.632L111.452 161.292L112.643 160.953C112.619 160.868 112.603 160.779 112.596 160.686L111.361 160.773ZM111.359 160.729L110.121 160.775C110.123 160.804 110.124 160.83 110.126 160.855L111.361 160.773L112.597 160.69C112.596 160.686 112.596 160.684 112.596 160.684L111.359 160.729ZM111.356 160.637L110.118 160.68L110.121 160.772L111.359 160.729L112.596 160.687L112.593 160.594L111.356 160.637ZM111.355 160.594H110.117C110.117 160.624 110.117 160.652 110.118 160.679L111.356 160.637L112.593 160.596C112.593 160.593 112.593 160.593 112.593 160.594H111.355ZM111.478 159.806L110.3 159.425C110.181 159.795 110.117 160.188 110.117 160.594H111.355H112.593C112.593 160.449 112.616 160.313 112.657 160.187L111.478 159.806ZM111.452 161.292L112.69 161.314L112.716 159.828L111.478 159.806L110.24 159.784L110.214 161.271L111.452 161.292ZM111.478 159.806L112.716 159.828L112.734 158.815L111.496 158.793L110.258 158.771L110.24 159.784L111.478 159.806ZM111.496 158.793L112.729 158.912L112.729 158.911L111.496 158.792L110.264 158.673L110.264 158.674L111.496 158.793ZM111.496 158.792L110.326 159.196C110.412 159.446 110.523 159.685 110.657 159.908L111.72 159.275L112.784 158.641C112.737 158.561 112.697 158.476 112.667 158.388L111.496 158.792ZM111.72 159.275L110.66 158.636C110.512 158.882 110.39 159.146 110.3 159.425L111.478 159.806L112.657 160.187C112.688 160.091 112.73 159.999 112.781 159.913L111.72 159.275Z" fill="white"/>
<path fill-rule="evenodd" clip-rule="evenodd" d="M109.884 182.038C109.884 187.003 113.594 191.174 118.536 191.647C128.579 192.61 145.828 193.995 161.923 193.995C177.421 193.995 192.276 192.71 201.178 191.756C206.033 191.235 209.626 187.112 209.626 182.229V177.732H109.884V182.038Z" fill="#EC9D47"/>
<path fill-rule="evenodd" clip-rule="evenodd" d="M205.999 160.958C208.898 160.958 211.249 163.374 211.249 166.355V168.809C211.249 170.838 210.16 172.093 208.551 172.689C208.284 172.614 207.977 172.584 207.651 172.584C207.64 172.584 183.277 172.8 179.98 173.2C178.075 173.309 176.789 173.415 176.124 173.519C157.85 176.367 150.135 172.064 141.379 171.171C135.65 170.588 130.26 170.955 126.061 171.99C126.016 172.001 124.287 172.252 123.326 172.309C121.607 172.412 120.038 172.611 118.013 172.55C116.85 172.515 115.315 173.051 114.435 172.768C112.701 172.209 111.508 170.932 111.508 168.809V166.355C111.508 163.374 113.858 160.958 116.757 160.958C136.978 159.865 152.197 159.313 162.413 159.302H162.733C172.348 159.302 186.77 159.854 205.999 160.958Z" fill="#73371F"/>
<path fill-rule="evenodd" clip-rule="evenodd" d="M176.55 176.528C177.22 176.426 178.514 176.321 180.432 176.214C183.752 175.818 208.28 175.605 208.291 175.605C209.327 175.605 210.167 175.899 210.167 176.934C210.167 178.083 209.337 177.974 208.202 178.165C206.689 178.419 205.07 178.554 203.345 178.57C201.045 178.59 194.139 178.437 182.627 178.111C182.007 178.093 180.809 178.149 179.036 178.279C178.188 178.541 177.209 178.78 176.092 178.969C165.167 180.819 161.719 185.982 157.571 192.725C153.568 199.231 150.786 178.611 137.499 178.045C128.641 177.668 121.403 177.906 115.786 178.76C115.651 178.764 115.516 178.756 115.383 178.733C114.272 178.549 113.521 178.044 113.707 176.934C113.946 175.498 115.145 175.506 116.601 175.413L117.85 175.333C119.815 175.435 121.663 175.435 123.394 175.333C124.361 175.277 126.102 175.03 126.147 175.019C130.375 173.997 135.801 173.634 141.57 174.21C150.385 175.091 158.152 179.34 176.55 176.528Z" fill="#FFBC0D"/>
<path d="M165.071 160.743C169.152 160.752 173.681 160.849 178.657 161.036C176.4 165.775 172.751 164.789 169.298 163.855C167.675 163.416 166.252 162.335 165.135 160.83L165.071 160.743Z" fill="#E6E454"/>
<path d="M163.96 160.815C164.935 160.808 165.936 160.806 166.964 160.809C167.786 161.582 168.743 162.135 169.798 162.395C170.24 162.504 170.436 162.551 170.681 162.609C173.328 163.233 174.857 163.261 176.155 162.513C176.728 162.182 177.244 161.683 177.702 160.989C178.541 161.012 179.393 161.038 180.258 161.067C179.449 162.891 178.405 164.145 177.118 164.888C175.284 165.946 173.383 165.911 170.309 165.186C170.107 165.138 169.938 165.097 169.649 165.026L169.408 164.967C167.224 164.43 165.371 162.957 164.034 160.928L163.96 160.815Z" fill="#66881E"/>
<path fill-rule="evenodd" clip-rule="evenodd" d="M182.27 160.184C187.624 160.49 193.587 160.916 200.158 161.46C199.218 161.975 198.323 162.597 197.476 163.347C193.711 166.681 191.237 171.137 190.072 169.644C188.906 168.153 188.906 164.744 187.707 163.134C186.769 161.876 185.268 160.931 182.471 160.233L182.27 160.184Z" fill="#FFBC0D"/>
<path d="M181.87 156.591C189.002 157.038 197.131 157.679 206.253 158.513L206.39 158.526H206.528C208.047 158.526 209.328 157.933 210.336 156.985C210.584 157.23 210.738 157.57 210.738 157.946C210.738 158.695 210.13 159.301 209.382 159.301H113.95C113.295 159.301 112.749 158.837 112.622 158.219C113.204 158.417 113.829 158.526 114.493 158.526H114.621L114.749 158.514C124.536 157.68 133.112 157.038 140.473 156.591H181.87Z" fill="#FFD90D"/>
<path d="M112.591 160.584C112.591 159.864 113.151 159.28 113.87 159.271C120.241 159.197 148.546 158.871 156.228 158.871C163.977 158.871 201.369 159.203 209.247 159.273C210.07 159.28 210.706 159.949 210.706 160.771C210.706 161.44 210.264 162.027 209.617 162.198C208.157 162.584 205.614 163.208 204.443 163.208C203.114 163.208 201.777 162.991 200.421 162.718C199.082 162.448 197.725 162.124 196.341 161.901C195.033 161.69 124.26 161.87 113.861 161.897C113.135 161.899 112.591 161.311 112.591 160.584Z" fill="#DB0007"/>
<path d="M211.861 157.814C212.042 157.906 212.157 158.1 212.157 158.312V160.196C212.157 160.503 211.921 160.751 211.63 160.751C211.561 160.751 211.493 160.737 211.43 160.71C209.856 160.031 207.227 158.923 205.652 158.496L206.211 158.55L206.345 158.563H206.478C207.971 158.563 209.228 157.944 210.213 156.957C210.409 157.055 211.661 157.711 211.861 157.814Z" fill="#FFEBB8"/>
<path d="M147.036 158.765C147.222 158.885 147.316 159.106 147.274 159.323L146.918 161.154C146.861 161.448 146.576 161.64 146.282 161.583C146.224 161.572 146.168 161.55 146.116 161.521C142.664 159.54 139.125 158.004 135.5 156.909C138.24 156.725 140.237 156.591 143.49 156.591C144.68 157.301 145.721 157.915 147.036 158.765Z" fill="#FFEBB8"/>
<path d="M145.059 156.348C145.049 157.805 144.659 159.25 143.849 160.54C141.344 164.528 138.652 168.814 130.745 163.832C127.25 161.63 125.826 159.564 125.54 157.601C132.708 157.066 139.091 156.655 144.687 156.367L145.059 156.348Z" fill="#E6E454"/>
<path d="M161.15 156.049C164.67 156.049 169.264 156.359 173.846 156.591C167.64 159.25 162.413 160.386 159.249 160.386C156.164 160.386 151.634 159.123 145.659 156.596C151.834 156.231 156.999 156.049 161.15 156.049Z" fill="#FFEBB8"/>
<path d="M146.147 156.295C146.147 157.958 145.704 159.613 144.769 161.095C144.523 161.483 144.413 161.657 144.273 161.875C142.567 164.527 141.258 165.934 139.322 166.676C136.839 167.628 133.872 167.027 130.169 164.706C126.622 162.484 124.794 160.185 124.459 157.674C125.2 157.619 125.932 157.565 126.656 157.512C126.943 159.251 128.365 160.993 131.338 162.856C134.508 164.842 136.789 165.305 138.533 164.636C139.902 164.11 140.956 162.978 142.425 160.695C142.56 160.484 142.669 160.314 142.911 159.93C143.594 158.85 143.93 157.637 143.948 156.407C144.651 156.37 145.341 156.335 146.019 156.302L146.147 156.295Z" fill="#66881E"/>
<path fill-rule="evenodd" clip-rule="evenodd" d="M209.896 150.899C209.896 152.935 208.675 156.049 206.501 156.049C206.501 156.049 176.872 153.339 161.11 153.339C146.25 153.339 114.491 156.049 114.491 156.049C112.317 156.049 110.968 153.477 110.968 151.441C110.968 133.119 134.109 121.898 161.652 121.898C189.194 121.898 209.896 132.577 209.896 150.899Z" fill="#EC9D47"/>
<path fill-rule="evenodd" clip-rule="evenodd" d="M157.284 140.677C156.523 140.266 156.274 139.335 156.728 138.599C157.182 137.862 159.748 135.786 160.162 136.01C160.575 136.233 159.939 139.353 159.485 140.089C159.031 140.826 158.046 141.089 157.284 140.677Z" fill="white"/>
<path fill-rule="evenodd" clip-rule="evenodd" d="M156.829 126.723C157.339 126.132 158.261 126.068 158.888 126.58C159.516 127.093 161.082 129.648 160.805 129.969C160.528 130.29 157.669 129.233 157.042 128.721C156.414 128.209 156.319 127.314 156.829 126.723Z" fill="white"/>
<path fill-rule="evenodd" clip-rule="evenodd" d="M140.452 140.925C139.942 141.515 139.02 141.579 138.393 141.067C137.765 140.555 136.199 137.999 136.476 137.678C136.753 137.357 139.611 138.414 140.239 138.926C140.866 139.439 140.962 140.333 140.452 140.925Z" fill="white"/>
<path fill-rule="evenodd" clip-rule="evenodd" d="M134.527 145.229C135.41 145.084 136.256 145.657 136.417 146.508C136.578 147.359 136.026 150.547 135.546 150.626C135.066 150.705 133.38 147.886 133.219 147.035C133.059 146.183 133.644 145.375 134.527 145.229Z" fill="white"/>
<path fill-rule="evenodd" clip-rule="evenodd" d="M115.09 150.575C115.599 149.984 116.521 149.92 117.149 150.432C117.776 150.945 119.343 153.5 119.066 153.821C118.789 154.142 115.93 153.085 115.303 152.573C114.675 152.061 114.58 151.166 115.09 150.575Z" fill="white"/>
<path fill-rule="evenodd" clip-rule="evenodd" d="M184.636 142.169C184.045 141.659 183.981 140.737 184.493 140.11C185.005 139.482 187.561 137.916 187.882 138.193C188.203 138.47 187.146 141.329 186.634 141.956C186.122 142.584 185.227 142.679 184.636 142.169Z" fill="white"/>
<path fill-rule="evenodd" clip-rule="evenodd" d="M180.06 128.968C180.943 128.822 181.789 129.395 181.95 130.246C182.111 131.097 181.559 134.285 181.079 134.364C180.599 134.443 178.914 131.624 178.753 130.773C178.592 129.921 179.177 129.113 180.06 128.968Z" fill="white"/>
<path fill-rule="evenodd" clip-rule="evenodd" d="M153.597 145.448C154.009 146.21 153.745 147.195 153.009 147.649C152.273 148.103 149.153 148.739 148.93 148.326C148.706 147.912 150.781 145.346 151.518 144.892C152.255 144.438 153.185 144.687 153.597 145.448Z" fill="white"/>
<path fill-rule="evenodd" clip-rule="evenodd" d="M163.334 146.239C163.843 145.648 164.765 145.584 165.393 146.096C166.02 146.609 167.587 149.165 167.31 149.485C167.033 149.806 164.174 148.749 163.547 148.237C162.919 147.725 162.824 146.83 163.334 146.239Z" fill="white"/>
<path fill-rule="evenodd" clip-rule="evenodd" d="M172.22 136.535C173.118 136.535 173.846 137.228 173.846 138.084C173.846 138.939 172.708 141.956 172.22 141.956C171.732 141.956 170.594 138.939 170.594 138.084C170.594 137.228 171.322 136.535 172.22 136.535Z" fill="white"/>
<path fill-rule="evenodd" clip-rule="evenodd" d="M202.63 142.826C203.221 143.336 203.284 144.258 202.772 144.885C202.26 145.513 199.704 147.079 199.383 146.802C199.062 146.525 200.119 143.666 200.632 143.039C201.144 142.411 202.038 142.316 202.63 142.826Z" fill="white"/>
<path fill-rule="evenodd" clip-rule="evenodd" d="M184.448 150.976C183.686 151.388 182.701 151.125 182.247 150.388C181.793 149.652 181.157 146.532 181.57 146.309C181.984 146.085 184.55 148.161 185.004 148.897C185.458 149.634 185.209 150.565 184.448 150.976Z" fill="white"/>
<path fill-rule="evenodd" clip-rule="evenodd" d="M144.574 128.403C145.472 128.403 146.2 129.096 146.2 129.952C146.2 130.807 145.062 133.824 144.574 133.824C144.086 133.824 142.948 130.807 142.948 129.952C142.948 129.096 143.676 128.403 144.574 128.403Z" fill="white"/>
<path fill-rule="evenodd" clip-rule="evenodd" d="M121.594 140.276C122.104 139.685 123.026 139.621 123.653 140.133C124.281 140.646 125.848 143.202 125.571 143.522C125.294 143.843 122.435 142.786 121.808 142.274C121.18 141.762 121.085 140.867 121.594 140.276Z" fill="white"/>
</svg>
