<svg width="27" height="18" viewBox="0 0 27 18" fill="none" xmlns="http://www.w3.org/2000/svg">
<g clip-path="url(#clip0_109_43805)">
<path d="M0 0H27V18H0V0Z" fill="#2E52B2"/>
<path d="M13.5 0V1.19191L11.0689 2.81102H13.5V6.18635H11.0689L13.5 7.80545V9.00264H12.3082L8.4375 6.4184V9.00264H5.0625V6.4184L1.1918 9.00264H0V7.80545L2.43105 6.18635H0V2.81102H2.43105L0 1.19191V0H1.1918L5.0625 2.57896V0H8.4375V2.57896L12.3082 0H13.5Z" fill="white"/>
<path d="M7.59375 0H5.90625V3.65485H0V5.34251H5.90625V9.00264H7.59375V5.34251H13.5V3.65485H7.59375V0Z" fill="#D80027"/>
<path d="M0 0V0.796366L3.02695 2.81101H4.21875L0 0ZM13.5 0V0.796366L10.473 2.81101H9.28125L13.5 0Z" fill="#D80027"/>
<path d="M0 0V0.796367L3.02695 2.81102H4.21875L0 0ZM13.5 0V0.796367L10.473 2.81102H9.28125L13.5 0ZM0 9.00264V8.20627L3.02695 6.18635H4.21875L0 9.00264ZM13.5 9.00264V8.20627L10.473 6.18635H9.28125L13.5 9.00264Z" fill="#D80027"/>
<path d="M16.1953 6.70266V11.5547C16.1953 14.8034 20.4404 15.8002 20.4404 15.8002C20.4404 15.8002 24.6803 14.7982 24.6803 11.5494V6.69738L20.4352 5.48438L16.1953 6.70266Z" fill="#F3F3F3"/>
<path d="M24.6803 7.00311V5.18359H16.1953V7.00311H19.834V10.6421H16.1953V11.8551H19.834V15.6102C20.1979 15.742 20.4404 15.7948 20.4404 15.7948C20.4404 15.7948 20.683 15.7368 21.0469 15.6102V11.8551H24.6855V10.6421H21.0469V7.00311H24.6803Z" fill="#D80027"/>
</g>
<rect x="0.5" y="0.5" width="26" height="17" rx="0.5" stroke="black" stroke-opacity="0.2"/>
<defs>
<clipPath id="clip0_109_43805">
<rect width="27" height="18" rx="1" fill="white"/>
</clipPath>
</defs>
</svg>
