<svg width="375" height="225" viewBox="0 0 375 225" fill="none" xmlns="http://www.w3.org/2000/svg">
<path d="M96.8281 60.7383C96.8281 54.6632 101.753 49.7383 107.828 49.7383L252.828 49.7383C258.903 49.7383 263.828 54.6631 263.828 60.7383V148.738C263.828 154.813 258.903 159.738 252.828 159.738H107.828C101.753 159.738 96.8281 154.813 96.8281 148.738V60.7383Z" fill="#FFBC0D"/>
<path d="M96.8281 71.7383H263.828V91.7383H96.8281V71.7383Z" fill="#606060"/>
<path d="M114.828 112.738H205.828V124.738H114.828V112.738Z" fill="#FBE4A7"/>
<path d="M114.828 136.738H205.828V140.738H114.828V136.738Z" fill="#FBE4A7"/>
<path d="M220.828 120.738C220.828 116.32 224.41 112.738 228.828 112.738H245.828C250.246 112.738 253.828 116.32 253.828 120.738C253.828 125.157 250.246 128.738 245.828 128.738H228.828C224.41 128.738 220.828 125.157 220.828 120.738Z" fill="#FBE4A7"/>
<mask id="mask0_17_28548" style="mask-type:alpha" maskUnits="userSpaceOnUse" x="169" y="67" width="115" height="115">
<path d="M284 124.5C284 156.256 258.256 182 226.5 182C194.744 182 169 156.256 169 124.5C169 92.7436 194.744 67 226.5 67C258.256 67 284 92.7436 284 124.5Z" fill="#FBE4A7"/>
</mask>
<g mask="url(#mask0_17_28548)">
<path d="M5.9375 25C5.9375 18.9249 10.8624 14 16.9375 14L256.065 14C262.14 14 267.065 18.9249 267.065 25V175C267.065 181.075 262.14 186 256.065 186H16.9375C10.8624 186 5.9375 181.075 5.9375 175L5.9375 25Z" fill="#FFBC0D"/>
<path d="M3.9375 57.4004L265.065 57.4004V88.6731H3.9375L3.9375 57.4004Z" fill="#606060"/>
<path d="M32.082 112.51H174.373V131.273H32.082V112.51Z" fill="#FBE4A7"/>
<path d="M39.082 150.037H181.373V156.292H39.082V150.037Z" fill="#FBE4A7"/>
<path d="M196 124C196 115.716 202.716 109 211 109H243C251.284 109 258 115.716 258 124C258 132.284 251.284 139 243 139H211C202.716 139 196 132.284 196 124Z" fill="#FBE4A7"/>
<path d="M208.836 122.225V119.051C209.679 118.898 210.484 118.66 211.251 118.338C212.033 118.016 212.738 117.556 213.367 116.958H216.38V132H212.378V121.328C211.795 121.543 211.205 121.727 210.607 121.88C210.009 122.033 209.419 122.148 208.836 122.225Z" fill="#606060"/>
<path d="M218.833 132V131.494C218.833 130.206 219.116 129.094 219.684 128.159C220.266 127.208 221.186 126.281 222.444 125.376L224.307 124.042C224.966 123.567 225.434 123.13 225.71 122.731C225.986 122.317 226.124 121.842 226.124 121.305C226.124 120.676 225.986 120.193 225.71 119.856C225.434 119.519 225.035 119.35 224.514 119.35C223.931 119.35 223.486 119.58 223.18 120.04C222.873 120.485 222.681 121.182 222.605 122.133H218.787C218.879 120.385 219.461 119.028 220.535 118.062C221.608 117.081 223.019 116.59 224.767 116.59C225.855 116.59 226.806 116.782 227.619 117.165C228.431 117.533 229.06 118.062 229.505 118.752C229.965 119.427 230.195 120.224 230.195 121.144C230.195 122.095 229.965 122.946 229.505 123.697C229.06 124.448 228.339 125.177 227.343 125.882L225.227 127.377C224.736 127.73 224.353 128.029 224.077 128.274C223.816 128.519 223.647 128.772 223.571 129.033H230.264V132H218.833Z" fill="#606060"/>
<path d="M237.225 132.368C235.247 132.368 233.752 131.9 232.74 130.965C231.728 130.014 231.153 128.765 231.015 127.216H234.787C234.849 128.075 235.079 128.696 235.477 129.079C235.891 129.462 236.42 129.654 237.064 129.654C237.708 129.654 238.207 129.478 238.559 129.125C238.927 128.757 239.111 128.22 239.111 127.515C239.111 126.856 238.889 126.311 238.444 125.882C238.015 125.453 237.187 125.238 235.96 125.238H235.431V122.823H235.937C236.903 122.823 237.578 122.662 237.961 122.34C238.36 122.018 238.559 121.589 238.559 121.052C238.559 120.531 238.414 120.109 238.122 119.787C237.846 119.465 237.448 119.304 236.926 119.304C235.914 119.304 235.339 119.841 235.201 120.914H231.452C231.621 119.58 232.173 118.53 233.108 117.763C234.059 116.981 235.37 116.59 237.041 116.59C238.145 116.59 239.111 116.759 239.939 117.096C240.767 117.433 241.411 117.916 241.871 118.545C242.347 119.158 242.584 119.91 242.584 120.799C242.584 121.443 242.431 122.056 242.124 122.639C241.818 123.222 241.266 123.697 240.468 124.065C241.174 124.341 241.718 124.678 242.101 125.077C242.5 125.476 242.768 125.905 242.906 126.365C243.06 126.825 243.136 127.277 243.136 127.722C243.136 128.703 242.891 129.539 242.4 130.229C241.91 130.919 241.22 131.448 240.33 131.816C239.456 132.184 238.421 132.368 237.225 132.368Z" fill="#606060"/>
<path fill-rule="evenodd" clip-rule="evenodd" d="M226.5 174C253.838 174 276 151.838 276 124.5C276 97.1619 253.838 75 226.5 75C199.162 75 177 97.1619 177 124.5C177 151.838 199.162 174 226.5 174ZM226.5 182C258.256 182 284 156.256 284 124.5C284 92.7436 258.256 67 226.5 67C194.744 67 169 92.7436 169 124.5C169 156.256 194.744 182 226.5 182Z" fill="#DB0007"/>
</g>
<path fill-rule="evenodd" clip-rule="evenodd" d="M262.697 159.697C265.626 156.768 270.374 156.768 273.303 159.697L290.303 176.697C293.232 179.626 293.232 184.374 290.303 187.303C287.374 190.232 282.626 190.232 279.697 187.303L262.697 170.303C259.768 167.374 259.768 162.626 262.697 159.697Z" fill="#DB0007"/>
</svg>
