<svg width="136" height="136" viewBox="0 0 136 136" fill="none" xmlns="http://www.w3.org/2000/svg">
<path d="M118.279 122.309C118.279 126.557 95.607 130.001 67.6396 130.001C39.6721 130.001 17 126.557 17 122.309C17 118.061 39.6721 114.617 67.6396 114.617C95.607 114.617 118.279 118.061 118.279 122.309Z" fill="#F1F1F1"/>
<path fill-rule="evenodd" clip-rule="evenodd" d="M27.2812 31.5039C27.2812 31.5039 27.2812 62.3238 27.2812 77.7338C27.2812 91.22 28.4953 118.192 28.4953 118.192C28.4953 120.587 30.7388 122.527 33.5031 122.527H101.185C103.95 122.527 106.193 120.587 106.193 118.192C106.193 118.192 107.407 92.5522 107.407 79.732C107.407 63.656 107.407 31.5039 107.407 31.5039H91.382H75.3568H59.3316H43.3064H27.2812Z" fill="#C2945C"/>
<mask id="mask0_17_28540" style="mask-type:luminance" maskUnits="userSpaceOnUse" x="27" y="31" width="81" height="92">
<path fill-rule="evenodd" clip-rule="evenodd" d="M27.2812 31.502C27.2812 31.502 27.2812 62.3219 27.2812 77.7318C27.2812 91.218 28.4953 118.191 28.4953 118.191C28.4953 120.585 30.7388 122.525 33.5031 122.525H101.185C103.95 122.525 106.193 120.585 106.193 118.191C106.193 118.191 107.407 92.5502 107.407 79.73C107.407 63.654 107.407 31.502 107.407 31.502H91.382H75.3568H59.3316H43.3064H27.2812Z" fill="white"/>
</mask>
<g mask="url(#mask0_17_28540)">
<path d="M24.2461 106.729H110.392V125.535H24.2461V106.729Z" fill="#DB0007"/>
<path fill-rule="evenodd" clip-rule="evenodd" d="M97.0713 59.4236C104.101 59.4236 109.804 87.7696 109.804 122.722H119.992C119.992 85.0736 109.729 54.5566 97.0713 54.5566C89.8743 54.5566 83.4481 63.7302 79.2472 78.071C75.0437 63.7302 68.6201 54.5566 61.4181 54.5566C48.7654 54.5566 38.5 85.0736 38.5 122.722H48.688C48.688 87.7696 54.3907 59.4236 61.4181 59.4236C68.4529 59.4236 74.1532 85.5861 74.1532 117.855H84.3387C84.3387 85.5861 90.0439 59.4236 97.0713 59.4236Z" fill="#FFBC0D"/>
</g>
<path d="M27.2539 37.4102L107.38 37.4102V45.7432L27.2539 47.6663V37.4102Z" fill="#292929" fill-opacity="0.15"/>
<path fill-rule="evenodd" clip-rule="evenodd" d="M27.0761 18.1348L65.9506 17.5566L107.622 18.1363C108.535 18.149 109.284 18.8623 109.341 19.7734L110.337 35.5708C110.397 36.5338 109.666 37.3637 108.703 37.4244L108.648 37.427L26.1066 37.4279C25.1416 37.4279 24.3594 36.6456 24.3594 35.6807L24.3628 35.5708L25.3584 19.7719C25.4157 18.8614 26.1639 18.1483 27.0761 18.1348Z" fill="#C2945C"/>
<path fill-rule="evenodd" clip-rule="evenodd" d="M57.4641 48.7126L52.3398 17.5566L53.705 17.4302C58.3078 17.0138 61.8823 16.7929 64.4284 16.7677L77.3335 16.7652L81.8362 45.19C82.0335 46.4351 81.2177 47.6069 79.9988 47.8659L79.8348 47.8948L60.1198 50.6656C58.8511 50.8439 57.672 49.9768 57.4641 48.7126Z" fill="#F1F1F1"/>
<mask id="mask1_17_28540" style="mask-type:luminance" maskUnits="userSpaceOnUse" x="52" y="16" width="30" height="35">
<path fill-rule="evenodd" clip-rule="evenodd" d="M57.4641 48.7126L52.3398 17.5566L53.705 17.4302C58.3078 17.0138 61.8823 16.7929 64.4284 16.7677L77.3335 16.7652L81.8362 45.19C82.0335 46.4351 81.2177 47.6069 79.9988 47.8659L79.8348 47.8948L60.1198 50.6656C58.8511 50.8439 57.672 49.9768 57.4641 48.7126Z" fill="white"/>
</mask>
<g mask="url(#mask1_17_28540)">
<mask id="mask2_17_28540" style="mask-type:luminance" maskUnits="userSpaceOnUse" x="57" y="24" width="23" height="24">
<path fill-rule="evenodd" clip-rule="evenodd" d="M57.1836 27.5469L76.7559 24.7962L79.5066 44.3684L59.9343 47.1191L57.1836 27.5469Z" fill="white"/>
</mask>
<g mask="url(#mask2_17_28540)">
<path fill-rule="evenodd" clip-rule="evenodd" d="M66.9697 26.1715C61.565 26.9311 57.7994 31.9283 58.5589 37.333C59.3185 42.7378 64.3157 46.5033 69.7204 45.7437C75.1252 44.9842 78.8909 39.9871 78.1313 34.5823C77.3717 29.1776 72.3745 25.4119 66.9697 26.1715Z" fill="#DB0007"/>
<path d="M66.6559 41.5906C66.6876 41.8163 66.5304 42.0249 66.3047 42.0566C66.079 42.0884 65.8704 41.9311 65.8387 41.7055C65.807 41.4798 65.9642 41.2712 66.1898 41.2395C66.4155 41.2077 66.6241 41.365 66.6559 41.5906Z" fill="white"/>
<path d="M72.3746 40.7898C72.4063 41.0155 72.2491 41.2241 72.0234 41.2559C71.7978 41.2876 71.5891 41.1303 71.5574 40.9047C71.5257 40.679 71.6829 40.4704 71.9086 40.4387C72.1343 40.407 72.3429 40.5642 72.3746 40.7898Z" fill="white"/>
<path d="M71.273 41.2527C71.3048 41.4784 71.1475 41.687 70.9219 41.7187C70.6962 41.7505 70.4876 41.5932 70.4559 41.3676C70.4241 41.1419 70.5814 40.9333 70.807 40.9016C71.0327 40.8698 71.2413 41.0271 71.273 41.2527Z" fill="white"/>
<path d="M70.1441 41.5184C70.1759 41.744 70.0186 41.9527 69.793 41.9844C69.5673 42.0161 69.3587 41.8589 69.327 41.6332C69.2952 41.4075 69.4525 41.1989 69.6781 41.1672C69.9038 41.1355 70.1124 41.2927 70.1441 41.5184Z" fill="white"/>
<path d="M68.9996 41.6805C69.0313 41.9061 68.8741 42.1148 68.6484 42.1465C68.4228 42.1782 68.2141 42.021 68.1824 41.7953C68.1507 41.5697 68.3079 41.361 68.5336 41.3293C68.7593 41.2976 68.9679 41.4548 68.9996 41.6805Z" fill="white"/>
<path d="M67.8434 41.7352C67.8751 41.9608 67.7179 42.1695 67.4922 42.2012C67.2665 42.2329 67.0579 42.0757 67.0262 41.85C66.9945 41.6243 67.1517 41.4157 67.3773 41.384C67.603 41.3523 67.8116 41.5095 67.8434 41.7352Z" fill="white"/>
<path fill-rule="evenodd" clip-rule="evenodd" d="M64.7352 39.7758C64.2838 39.8392 63.9694 40.2565 64.0328 40.7078C64.0962 41.1591 64.5135 41.4736 64.9649 41.4101C65.4163 41.3467 65.7306 40.9294 65.6672 40.4781C65.6038 40.0268 65.1866 39.7123 64.7352 39.7758ZM64.7689 40.0182C65.0858 39.9737 65.3798 40.1953 65.4244 40.5122C65.4459 40.6657 65.4064 40.8183 65.3132 40.9422C65.2199 41.0659 65.0839 41.146 64.9305 41.1676C64.6136 41.2121 64.3195 40.9906 64.275 40.6737C64.2534 40.5202 64.2929 40.3675 64.3862 40.2437C64.4795 40.1198 64.6154 40.0398 64.7689 40.0182Z" fill="white"/>
<path fill-rule="evenodd" clip-rule="evenodd" d="M73.8391 39.3316C73.9025 39.783 73.588 40.2002 73.1367 40.2637C72.6854 40.3271 72.2681 40.0126 72.2047 39.5613C72.1413 39.11 72.4557 38.6927 72.907 38.6293C73.3583 38.5659 73.7756 38.8803 73.8391 39.3316Z" fill="white"/>
</g>
<path fill-rule="evenodd" clip-rule="evenodd" d="M69.7235 30.08C70.569 29.9611 71.7559 33.4319 72.3743 37.8317L73.5992 37.6596C72.9332 32.9211 71.1594 29.2532 69.6374 29.4671C68.7715 29.5888 68.1612 30.8519 67.9097 32.7282C67.1508 30.9939 66.2158 29.948 65.35 30.0697C63.828 30.2836 63.1336 34.2984 63.7996 39.0368L65.0247 38.8647C64.4064 34.4648 64.5908 30.8013 65.4361 30.6825C66.2817 30.5637 67.4303 33.76 68.0011 37.8214L69.2257 37.6493C68.6549 33.5879 68.8779 30.1988 69.7235 30.08Z" fill="#FFBC0D"/>
<path d="M26.0907 37.6288L106.777 37.6288L106.777 39.4488L26.0907 39.4488L26.0907 37.6288Z" fill="#292929" fill-opacity="0.15"/>
</g>
</svg>
