<svg width="153" height="98" viewBox="0 0 153 98" fill="none" xmlns="http://www.w3.org/2000/svg">
<rect x="1.5" y="9" width="150" height="80" rx="40" fill="white"/>
<g clip-path="url(#clip0_1593_43862)">
<path d="M117.265 20.9336C111.651 20.9336 106.645 28.3506 103.37 39.9484C100.095 28.3506 95.0826 20.9336 89.4695 20.9336C79.6018 20.9336 71.6016 45.6105 71.6016 76.046H79.5423C79.5423 47.784 83.9862 24.8675 89.4695 24.8675C94.9527 24.8675 99.3967 46.0183 99.3967 72.1067H107.337C107.337 46.0183 111.781 24.8675 117.265 24.8675C122.748 24.8675 127.192 47.7787 127.192 76.046H135.133C135.133 45.6105 127.132 20.9336 117.265 20.9336Z" fill="#FFBC0D"/>
<path d="M17.4336 61.2166L20.3999 34.9297H27.3229L32.8603 51.4489L38.441 34.9297H45.3641L48.3303 61.2166H41.2557L39.713 45.1697L35.0038 59.2953H30.614L25.8669 45.014L24.2863 61.2166H17.4336ZM49.8784 68.9825L51.2641 64.9037C52.0814 65.2418 52.888 65.4135 53.6782 65.4135C54.2845 65.4135 54.8312 65.231 55.3183 64.8661C55.8055 64.5011 56.2981 63.7551 56.8015 62.6281L57.5539 60.9L49.8405 41.4397H56.8069L60.6067 53.9177L64.2875 41.4397H70.8154L62.3443 62.9018C61.397 65.3062 60.2874 67.088 59.0208 68.2365C57.7541 69.385 56.2223 69.9646 54.4306 69.9646C53.505 69.9646 52.6606 69.8787 51.8974 69.707C51.1342 69.5406 50.4576 69.2991 49.8784 68.9825Z" fill="url(#paint0_linear_1593_43862)"/>
</g>
<defs>
<linearGradient id="paint0_linear_1593_43862" x1="17.4336" y1="52.4471" x2="70.8122" y2="52.4471" gradientUnits="userSpaceOnUse">
<stop offset="0.000616698" stop-color="#910063"/>
<stop offset="0.0362" stop-color="#990059"/>
<stop offset="0.1727" stop-color="#B60035"/>
<stop offset="0.3012" stop-color="#CA001C"/>
<stop offset="0.4172" stop-color="#D7000C"/>
<stop offset="0.5101" stop-color="#DB0007"/>
<stop offset="1" stop-color="#E8720A"/>
</linearGradient>
<clipPath id="clip0_1593_43862">
<rect width="117.698" height="55.1124" fill="white" transform="translate(17.4336 20.9336)"/>
</clipPath>
</defs>
</svg>
