<svg width="153" height="98" viewBox="0 0 153 98" fill="none" xmlns="http://www.w3.org/2000/svg">
<g clip-path="url(#clip0_465_41653)">
<g clip-path="url(#clip1_465_41653)">
<path d="M127.944 13.1953C120.817 13.1953 114.459 22.6723 110.301 37.4913C106.143 22.6723 99.779 13.1953 92.6519 13.1953C80.1228 13.1953 69.9648 44.726 69.9648 83.6147H80.0472C80.0472 47.5032 85.6898 18.2218 92.6519 18.2218C99.614 18.2218 105.257 45.2471 105.257 78.5813H115.339C115.339 45.2471 120.982 18.2218 127.944 18.2218C134.906 18.2218 140.548 47.4964 140.548 83.6147H150.631C150.631 44.726 140.473 13.1953 127.944 13.1953Z" fill="#FFBC0D"/>
<path d="M1.1875 64.666L4.95379 31.0781H13.7441L20.7749 52.1854L27.8608 31.0781H36.6511L40.4174 64.666H31.4346L29.4759 44.1622L23.4966 62.211H17.9227L11.8953 43.9633L9.88845 64.666H1.1875ZM42.383 74.5888L44.1424 69.3771C45.1802 69.8091 46.2043 70.0285 47.2077 70.0285C47.9774 70.0285 48.6716 69.7954 49.2901 69.3291C49.9087 68.8628 50.5341 67.9096 51.1733 66.4695L52.1286 64.2614L42.3349 39.3962H51.1801L56.0048 55.3398L60.6783 39.3962H68.9669L58.211 66.8193C57.0083 69.8914 55.5993 72.1681 53.9911 73.6356C52.3829 75.1031 50.4379 75.8437 48.163 75.8437C46.9877 75.8437 45.9156 75.734 44.9465 75.5145C43.9775 75.3019 43.1184 74.9934 42.383 74.5888Z" fill="url(#paint0_linear_465_41653)"/>
</g>
</g>
<defs>
<linearGradient id="paint0_linear_465_41653" x1="1.1875" y1="53.4608" x2="68.9628" y2="53.4608" gradientUnits="userSpaceOnUse">
<stop offset="0.000616698" stop-color="#910063"/>
<stop offset="0.0362" stop-color="#990059"/>
<stop offset="0.1727" stop-color="#B60035"/>
<stop offset="0.3012" stop-color="#CA001C"/>
<stop offset="0.4172" stop-color="#D7000C"/>
<stop offset="0.5101" stop-color="#DB0007"/>
<stop offset="1" stop-color="#E8720A"/>
</linearGradient>
<clipPath id="clip0_465_41653">
<rect width="153" height="98" fill="white"/>
</clipPath>
<clipPath id="clip1_465_41653">
<rect width="149.442" height="70.4194" fill="white" transform="translate(1.1875 13.1953)"/>
</clipPath>
</defs>
</svg>
