<svg width="44" height="44" viewBox="0 0 44 44" fill="none" xmlns="http://www.w3.org/2000/svg">
<g clip-path="url(#clip0_17_28640)">
<path fill-rule="evenodd" clip-rule="evenodd" d="M39.3891 8.41927V25.0376C39.3891 25.4625 39.0446 25.807 38.6197 25.807H26.9253C26.5004 25.807 26.1559 25.4625 26.1559 25.0376V8.41927C26.1559 8.30985 26.1788 8.20577 26.2199 8.11152H25.2327C24.8928 8.11152 24.6172 7.83596 24.6172 7.49603V5.95729C24.6172 5.61736 24.8928 5.3418 25.2327 5.3418H40.3123C40.6522 5.3418 40.9278 5.61736 40.9278 5.95729V7.49603C40.9278 7.83596 40.6522 8.11152 40.3123 8.11152H39.325C39.3662 8.20577 39.3891 8.30985 39.3891 8.41927Z" fill="white"/>
<path d="M26.6172 8.57295C26.6172 8.318 26.8239 8.11133 27.0788 8.11133H38.4655C38.7204 8.11133 38.9271 8.318 38.9271 8.57295V12.7275C38.9271 12.9825 38.7204 13.1892 38.4655 13.1892H27.0788C26.8239 13.1892 26.6172 12.9825 26.6172 12.7275V8.57295Z" fill="#EAEAEA"/>
<path fill-rule="evenodd" clip-rule="evenodd" d="M27.2327 8.72682V24.7297H38.3116V8.72682H27.2327ZM26.9249 8.11133C26.755 8.11133 26.6172 8.24911 26.6172 8.41908V25.0374C26.6172 25.2074 26.755 25.3452 26.9249 25.3452H38.6193C38.7893 25.3452 38.9271 25.2074 38.9271 25.0374V8.41908C38.9271 8.24911 38.7893 8.11133 38.6193 8.11133H26.9249Z" fill="#6F6F6F"/>
<path d="M25.0781 5.95661C25.0781 5.87163 25.147 5.80273 25.232 5.80273H40.3116C40.3966 5.80273 40.4655 5.87163 40.4655 5.95661V7.49535C40.4655 7.58033 40.3966 7.64922 40.3116 7.64922H25.232C25.147 7.64922 25.0781 7.58033 25.0781 7.49535V5.95661Z" fill="#A0A09F"/>
<path d="M27.2344 11.8047H38.3133V13.6512H27.2344V11.8047Z" fill="#6F6F6F"/>
<path d="M32.4648 13.1895H33.0803V24.73H32.4648V13.1895Z" fill="#6F6F6F"/>
<path d="M42.1571 38.3461C42.1571 39.2385 33.1668 39.9618 22.0766 39.9618C10.9865 39.9618 1.99609 39.2385 1.99609 38.3461C1.99609 37.4538 10.9865 36.7305 22.0766 36.7305C33.1668 36.7305 42.1571 37.4538 42.1571 38.3461Z" fill="#A0A09F" fill-opacity="0.15"/>
<path fill-rule="evenodd" clip-rule="evenodd" d="M7.64586 21.7744L7.65066 21.7683C7.88272 21.4737 8.04929 21.2617 8.15036 21.1092C8.15173 21.1071 8.15309 21.1051 8.15443 21.103C8.03055 20.9016 7.91502 20.6692 7.82056 20.4628C7.54033 19.8504 8.01119 19.2139 8.63488 19.2115C9.09391 19.2098 9.60378 19.2066 10.1513 19.2032L10.1965 19.2029C14.1161 19.1784 19.9899 19.1417 22.6324 19.5552C23.4122 19.6772 24.2831 20.0327 25.1579 20.5036C26.0383 20.9776 26.9495 21.5833 27.8151 22.2306C29.5348 23.5164 31.1102 24.9935 31.9361 25.9835C32.1662 26.0396 32.5468 26.0914 33.0799 26.1627L33.0875 26.1637C34.1276 26.3029 35.6227 26.503 37.1907 26.9529C39.0814 27.4952 40.1003 28.799 40.6359 30.1033C41.1658 31.3937 41.2334 32.7036 41.2334 33.3459V34.446C41.2334 35.1982 40.6236 35.8079 39.8714 35.8079H38.6846C38.0762 37.5975 36.382 38.8854 34.386 38.8854C32.39 38.8854 30.6958 37.5975 30.0874 35.8079H14.2187C13.6102 37.5975 11.9161 38.8854 9.92007 38.8854C7.92408 38.8854 6.22991 37.5975 5.62144 35.8079H4.58851C3.83633 35.8079 3.22656 35.1982 3.22656 34.446V33.3459C3.22656 27.3842 6.28193 23.5058 7.64586 21.7744Z" fill="white"/>
<path fill-rule="evenodd" clip-rule="evenodd" d="M29.9565 33.3471H29.9567C30.4122 31.3213 32.222 29.8079 34.3854 29.8079C36.5487 29.8079 38.3586 31.3212 38.8141 33.347H38.814C38.8863 33.6688 38.9245 34.0036 38.9245 34.3473C38.9245 34.6909 38.8864 35.0256 38.814 35.3474H38.8781C39.9235 35.3474 40.7711 34.4998 40.7711 33.4544V33.3471H40.7715C40.7715 32.1123 40.5066 28.3856 37.0631 27.3977C35.5276 26.9573 34.06 26.7608 33.0184 26.6214C32.4767 26.5489 32.0503 26.4918 31.7894 26.4239C31.7094 26.403 31.6436 26.3553 31.5907 26.2917C30.0029 24.3818 25.3823 20.4539 22.5608 20.0124C19.9552 19.6047 14.0967 19.6413 10.1539 19.666C9.60652 19.6694 9.09605 19.6726 8.63633 19.6743C8.32309 19.6755 8.10968 19.987 8.24003 20.2718C8.36411 20.543 8.51245 20.8301 8.65445 21.0227C8.73754 21.1354 8.46616 21.4799 8.013 22.0551C6.66033 23.7722 3.68793 27.5453 3.6879 33.347H3.6875V33.4544C3.6875 34.4695 4.48655 35.298 5.49 35.3452C5.41796 35.0241 5.37995 34.6901 5.37995 34.3473C5.37995 34.0036 5.41813 33.6689 5.4905 33.3471H5.49062C5.94613 31.3213 7.75601 29.8079 9.91936 29.8079C12.0827 29.8079 13.8925 31.3212 14.3481 33.347H14.3479C14.4203 33.6688 14.4585 34.0036 14.4585 34.3473C14.4585 34.6909 14.4203 35.0256 14.348 35.3474H29.9565C29.8842 35.0256 29.846 34.6909 29.846 34.3473C29.846 34.0036 29.8842 33.6689 29.9565 33.3471ZM16.8023 21.704L17.1832 26.6226C17.2014 26.8571 17.3969 27.038 17.632 27.038H29.0761C29.4513 27.038 29.6615 26.6059 29.4263 26.3136C26.7194 22.9483 24.322 20.9092 17.2296 21.2224C16.9777 21.2335 16.7828 21.4525 16.8023 21.704ZM14.1149 26.8744L8.16594 26.7574C7.90685 26.7523 7.70422 26.5294 7.74173 26.273C8.11386 23.7291 9.74974 22.1032 10.592 21.6785C11.2734 21.3349 12.9943 21.3325 13.7727 21.3507C13.9984 21.356 14.1795 21.5322 14.1977 21.7573L14.5724 26.388C14.5939 26.6536 14.3813 26.8796 14.1149 26.8744Z" fill="#A0A09F"/>
<path d="M16.7656 29.808C16.7656 29.2981 17.179 28.8848 17.6889 28.8848H22.1512C22.1512 29.3947 21.7379 29.808 21.228 29.808H16.7656Z" fill="white"/>
<path fill-rule="evenodd" clip-rule="evenodd" d="M39.1783 30.2376C39.2962 30.2612 39.3824 30.1312 39.3221 30.0212C38.9979 29.4292 38.1742 28.1164 37.6354 28.9412C37.1182 29.7325 38.548 30.1121 39.1783 30.2376Z" fill="white"/>
<path d="M19.5726 22.1133C18.6561 22.1133 17.9329 22.9158 18.0005 23.8574L18.0738 24.8785C18.0738 25.8158 18.8112 26.5756 19.7207 26.5756C20.6304 26.5756 21.3678 25.8158 21.3678 24.8785L21.5661 22.1133H19.5726Z" fill="#A0A09F"/>
<path d="M13.9991 34.3472C13.9991 36.5992 12.1734 38.4248 9.9214 38.4248C7.66938 38.4248 5.84375 36.5992 5.84375 34.3472C5.84375 32.0952 7.66938 30.2695 9.9214 30.2695C12.1734 30.2695 13.9991 32.0952 13.9991 34.3472Z" fill="#606060"/>
<path d="M11.6914 34.3477C11.6914 35.325 10.8992 36.1172 9.92189 36.1172C8.9446 36.1172 8.15234 35.325 8.15234 34.3477C8.15234 33.3704 8.9446 32.5781 9.92189 32.5781C10.8992 32.5781 11.6914 33.3704 11.6914 34.3477Z" fill="white"/>
<path d="M38.4639 34.3472C38.4639 36.5992 36.6383 38.4248 34.3862 38.4248C32.1342 38.4248 30.3086 36.5992 30.3086 34.3472C30.3086 32.0952 32.1342 30.2695 34.3862 30.2695C36.6383 30.2695 38.4639 32.0952 38.4639 34.3472Z" fill="#606060"/>
<path d="M36.1563 34.3477C36.1563 35.325 35.364 36.1172 34.3867 36.1172C33.4094 36.1172 32.6172 35.325 32.6172 34.3477C32.6172 33.3704 33.4094 32.5781 34.3867 32.5781C35.364 32.5781 36.1563 33.3704 36.1563 34.3477Z" fill="white"/>
</g>
<defs>
<clipPath id="clip0_17_28640">
<rect width="44" height="44" fill="white"/>
</clipPath>
</defs>
</svg>
