<svg width="375" height="225" viewBox="0 0 375 225" fill="none" xmlns="http://www.w3.org/2000/svg">
<ellipse cx="186.137" cy="205" rx="75" ry="10" fill="#A0A09F" fill-opacity="0.15"/>
<path d="M202.071 42C215.546 42 226.632 52.6068 226.632 65.8906V87.4756H228.79C232.656 87.4756 235.79 90.6096 235.79 94.4756V152.957C235.79 156.823 232.656 159.957 228.79 159.957H191.485L197.854 163.613L200.499 183.73L177.126 188.918L171.233 178.192L159.373 178.472L153.686 168.119L141.824 168.398L138.741 162.786L129.037 168.416C127.223 169.469 124.981 169.476 123.16 168.431L101.938 156.25C100.115 155.203 98.9902 153.259 99 151.152L99.1152 126.547C99.125 124.465 100.242 122.551 102.036 121.51L123.412 109.107C125.226 108.055 127.467 108.048 129.288 109.093L137.185 113.625V94.4756C137.185 90.6097 140.319 87.4757 144.185 87.4756H145.209V65.8906C145.209 52.607 156.294 42.0002 169.769 42H202.071ZM117.686 131.503C116.748 130.965 115.499 131.279 114.923 132.271C114.352 133.254 114.697 134.462 115.624 134.994C116.562 135.532 117.81 135.217 118.387 134.225C118.957 133.242 118.613 132.035 117.686 131.503ZM169.769 59.1191C165.766 59.1194 162.685 62.2387 162.685 65.8906V87.4756H209.156V65.8906C209.156 62.2386 206.075 59.1191 202.071 59.1191H169.769Z" fill="white"/>
<path d="M169.768 56.1196C164.198 56.1196 159.684 60.4935 159.684 65.8909V121.998C159.684 127.396 164.198 131.769 169.768 131.769H202.07C207.641 131.769 212.155 127.396 212.155 121.998C212.155 118.927 214.724 116.438 217.893 116.438C221.062 116.438 223.63 118.927 223.63 121.998C223.63 133.537 213.979 142.889 202.07 142.889H169.768C163.673 142.889 165.169 137.439 161.248 133.5C157.508 129.743 152.683 118 148.208 113.998V65.8909C148.208 54.3523 157.86 45 169.768 45H202.07C213.979 45 223.63 54.3523 223.63 65.8909V100.955C223.63 104.026 221.062 106.515 217.893 106.515C214.724 106.515 212.155 104.026 212.155 100.955V65.8909C212.155 60.4935 207.641 56.1196 202.07 56.1196H169.768Z" fill="#A0A09F"/>
<path d="M144.184 90.4753C141.974 90.4753 140.184 92.2662 140.184 94.4753V114.928L150.693 120.961C152.517 122.007 153.642 123.951 153.632 126.058L153.577 137.778L186.989 156.957H228.789C230.998 156.957 232.789 155.166 232.789 152.957V94.4753C232.789 92.2662 230.998 90.4753 228.789 90.4753H144.184Z" fill="#A0A09F"/>
<path fill-rule="evenodd" clip-rule="evenodd" d="M127.795 111.696C126.904 111.185 125.806 111.188 124.917 111.704L103.542 124.105C102.663 124.615 102.12 125.55 102.115 126.562L102 151.167C101.995 152.191 102.542 153.138 103.432 153.649L124.654 165.83C125.544 166.341 126.642 166.338 127.531 165.822L139.892 158.651L143.576 165.358L155.437 165.078L161.124 175.43L172.985 175.151L178.672 185.503L197.166 181.399L195.074 165.477L150.385 139.825L150.448 126.359C150.453 125.335 149.907 124.388 149.016 123.877L127.795 111.696ZM119.179 128.902C121.568 130.273 122.375 133.331 120.981 135.733C119.586 138.134 116.519 138.968 114.13 137.597C111.741 136.226 110.935 133.167 112.329 130.766C113.723 128.365 116.79 127.531 119.179 128.902ZM189.678 167.602C190.237 167.922 190.415 168.657 190.075 169.245C189.735 169.833 189.006 170.05 188.447 169.731L149.113 147.262C148.554 146.943 148.376 146.207 148.716 145.619C149.056 145.032 149.785 144.814 150.344 145.133L189.678 167.602Z" fill="#FFBC0D"/>
</svg>
