<svg width="27" height="18" viewBox="0 0 27 18" fill="none" xmlns="http://www.w3.org/2000/svg">
<g clip-path="url(#clip0_109_43858)">
<path d="M0 0H27V18.0002H0V0Z" fill="#00745A"/>
<path d="M15.0637 8.62342C14.8427 8.62342 14.6331 8.66751 14.4382 8.73754C14.5449 8.49976 14.6164 8.23514 14.6164 7.95259C14.6164 6.83457 13.4984 5.99609 13.4984 5.99609C13.4984 5.99609 12.3804 6.83462 12.3804 7.95259C12.3804 8.23509 12.4519 8.49971 12.5585 8.73754C12.3638 8.66751 12.154 8.62342 11.9331 8.62342C10.815 8.62342 9.97656 9.74144 9.97656 9.74144C9.97656 9.74144 10.8151 10.8595 11.9331 10.8595C12.5885 10.8595 13.1476 10.4752 13.4983 10.1573C13.849 10.4753 14.408 10.8595 15.0636 10.8595C16.1816 10.8595 17.0201 9.74144 17.0201 9.74144C17.0201 9.74144 16.1817 8.62342 15.0637 8.62342Z" fill="white"/>
<path d="M13.5002 3.52344L13.7312 4.23409H14.4785L13.874 4.67347L14.1047 5.38412L13.5002 4.94484L12.8958 5.38412L13.1265 4.67347L12.522 4.23409H13.2693L13.5002 3.52344ZM10.6585 4.76649L11.1028 5.16648L11.6205 4.86764L11.3774 5.4137L11.8216 5.81385L11.2271 5.75136L10.9839 6.29742L10.8596 5.71271L10.265 5.65021L10.7827 5.35126L10.6585 4.76649ZM8.57812 6.84681L9.16295 6.97116L9.46185 6.45341L9.52439 7.04794L10.1092 7.17229L9.56299 7.41539L9.62554 8.00992L9.22544 7.56574L8.67927 7.80884L8.97822 7.2911L8.57812 6.84681ZM16.342 4.76649L15.8978 5.16648L15.38 4.86764L15.6232 5.4137L15.1789 5.81385L15.7735 5.75136L16.0166 6.29742L16.141 5.71271L16.7356 5.65021L16.2178 5.35126L16.342 4.76649ZM18.4224 6.84681L17.8376 6.97116L17.5386 6.45341L17.4761 7.04794L16.8914 7.17229L17.4376 7.41539L17.3751 8.00992L17.7751 7.56574L18.3213 7.80884L18.0223 7.2911L18.4224 6.84681Z" fill="#FFDA44"/>
<path d="M13.5012 13.9924C14.3893 13.9924 15.2079 13.6961 15.8646 13.1975H11.138C11.7946 13.6961 12.6132 13.9924 13.5012 13.9924ZM9.91406 11.6445C10.0377 11.927 10.1944 12.1938 10.3808 12.4394H16.6216C16.808 12.1938 16.9646 11.927 17.0883 11.6445H9.91406Z" fill="white"/>
</g>
<rect x="0.5" y="0.5" width="26" height="17" rx="0.5" stroke="black" stroke-opacity="0.2"/>
<defs>
<clipPath id="clip0_109_43858">
<rect width="27" height="18" rx="1" fill="white"/>
</clipPath>
</defs>
</svg>
