<svg width="375" height="225" viewBox="0 0 375 225" fill="none" xmlns="http://www.w3.org/2000/svg">
<path d="M305.879 188.001C305.879 197.409 252.74 205.035 187.189 205.035C121.639 205.035 68.5 197.409 68.5 188.001C68.5 178.593 121.639 170.967 187.189 170.967C252.74 170.967 305.879 178.593 305.879 188.001Z" fill="#A0A09F" fill-opacity="0.15"/>
<path d="M97.4004 30.6741C101.503 29.7519 105.5 32.5953 105.972 36.7747L114.85 115.398C115.865 115.318 117.244 115.213 118.902 115.099C122.586 114.845 127.655 114.539 133.19 114.335C144.169 113.931 157.289 113.911 164.98 115.596C170.114 116.72 173.472 119.206 175.579 122.189C176.947 124.126 177.474 126.199 177.213 128.226C176.956 130.218 175.962 131.983 174.612 133.409C172.891 135.229 170.484 136.619 167.83 137.378C167.849 137.514 167.87 137.658 167.892 137.81C168.066 139.039 168.315 140.8 168.616 142.923C169.218 147.169 170.024 152.868 170.844 158.676C172.48 170.273 174.177 182.364 174.392 184.155C174.655 186.348 174.156 188.234 172.817 189.542C171.618 190.714 170.036 191.135 168.603 191.183L168.317 191.188C166.829 191.188 165.299 190.875 163.946 189.765C162.649 188.702 161.751 187.097 161.061 185.026C160.167 182.344 154.47 160.677 150.978 147.33H150.968L150.577 145.836C149.869 143.128 149.27 140.836 148.849 139.221C148.73 138.766 148.625 138.365 148.536 138.024H119.891C119.846 138.196 119.797 138.383 119.744 138.584C119.425 139.807 118.969 141.557 118.417 143.669C117.313 147.894 115.827 153.567 114.302 159.36C111.267 170.883 108.034 183.042 107.373 185.026C106.683 187.097 105.784 188.701 104.487 189.764C103.219 190.804 101.796 191.145 100.396 191.184L100.117 191.188C98.6113 191.188 96.8963 190.793 95.6172 189.543C94.278 188.235 93.7787 186.349 94.042 184.155C94.3291 181.762 97.2875 160.814 99.1963 147.33H99.1875L99.5097 145.05C99.8931 142.343 100.218 140.051 100.447 138.436C100.517 137.943 100.578 137.513 100.629 137.154C96.7253 135.564 93.8346 131.942 93.3447 127.523L84.6015 48.6146C83.6745 40.2475 89.187 32.5206 97.4004 30.6741ZM102.79 136.163C102.79 136.163 102.257 139.915 101.49 145.33H101.499C99.6187 158.608 96.3278 181.889 96.0273 184.393C95.6043 187.918 97.7199 189.188 100.117 189.188C102.514 189.188 104.206 188.2 105.476 184.393C106.745 180.585 118.309 136.163 118.309 136.163H102.79ZM150.118 136.163C150.118 136.163 151.095 139.915 152.512 145.33H152.52C155.979 158.551 162.058 181.691 162.958 184.393C164.227 188.2 165.92 189.188 168.317 189.188C170.715 189.188 172.829 187.918 172.406 184.393C171.983 180.867 165.638 136.163 165.638 136.163H150.118ZM103.984 36.9993C103.646 34.003 100.781 31.964 97.8388 32.6253C90.6197 34.2482 85.775 41.0395 86.5898 48.3939L95.333 127.302C95.8832 132.267 100.079 136.024 105.074 136.024H163.292C170.969 136.024 178.375 129.614 173.945 123.343C172.141 120.789 169.224 118.573 164.553 117.55C149.745 114.307 113.08 117.55 113.08 117.55L103.984 36.9993Z" fill="white"/>
<path d="M145.5 71.4643C145.5 68.7226 147.011 66.5 148.875 66.5H284.125C285.989 66.5 287.5 68.7226 287.5 71.4643V87.5357C287.5 90.2774 285.989 92.5 284.125 92.5H148.875C147.011 92.5 145.5 90.2774 145.5 87.5357V71.4643Z" fill="#FFBC0D"/>
<path d="M143.5 87.5361V71.4639C143.5 69.7454 143.971 68.1005 144.835 66.8291C145.692 65.5684 147.085 64.5001 148.875 64.5V66.5C147.011 66.5001 145.5 68.7224 145.5 71.4639V87.5361L145.504 87.791C145.594 90.414 147.069 92.4999 148.875 92.5H284.125L284.299 92.4932C286.025 92.3643 287.409 90.3293 287.496 87.791L287.5 87.5361V71.4639C287.5 68.8082 286.082 66.64 284.299 66.5068L284.125 66.5V64.5C285.915 64.5001 287.308 65.5684 288.165 66.8291C289.029 68.1005 289.5 69.7454 289.5 71.4639V87.5361C289.5 89.2546 289.029 90.8995 288.165 92.1709C287.308 93.4316 285.915 94.4999 284.125 94.5H148.875C147.085 94.4999 145.692 93.4316 144.835 92.1709C143.971 90.8995 143.5 89.2546 143.5 87.5361ZM284.125 64.5V66.5H148.875V64.5H284.125Z" fill="white"/>
<path d="M223.085 94.6914H209.547V186.919C209.547 188.165 212.578 189.175 216.316 189.175C220.054 189.175 223.085 188.165 223.085 186.919L223.085 186.912V94.6914Z" fill="#6F6F6F"/>
<path d="M209.547 94.6914V186.919C209.547 188.165 212.578 189.175 216.315 189.175C219.937 189.175 222.894 188.227 223.076 187.035L223.085 186.919V94.6914H209.547ZM225.085 186.919C225.085 188.106 224.361 188.919 223.791 189.368C223.198 189.835 222.463 190.168 221.734 190.411C220.256 190.904 218.34 191.175 216.315 191.175C214.291 191.175 212.376 190.904 210.897 190.411C210.169 190.168 209.434 189.835 208.841 189.368C208.27 188.919 207.547 188.106 207.547 186.92V92.6914H225.085V186.919Z" fill="white"/>
<path d="M105.074 136.023H163.291C170.969 136.023 178.375 129.613 173.945 123.343C172.14 120.789 169.224 118.573 164.553 117.55C149.746 114.306 113.08 117.55 113.08 117.55L103.984 36.9991C103.645 34.0027 100.78 31.9635 97.8383 32.6249C90.6192 34.2478 85.7744 41.0389 86.5893 48.3933L95.3323 127.302C95.8824 132.267 100.078 136.023 105.074 136.023Z" fill="#292929"/>
<path d="M96.0269 184.393C96.45 180.868 102.796 136.164 102.796 136.164H118.308C118.308 136.164 106.745 180.586 105.475 184.393C104.206 188.201 102.514 189.188 100.116 189.188C97.7191 189.188 95.6039 187.919 96.0269 184.393Z" fill="#6F6F6F"/>
<path d="M172.406 184.393C171.983 180.868 165.637 136.164 165.637 136.164H150.125C150.125 136.164 161.689 180.586 162.958 184.393C164.227 188.201 165.92 189.188 168.317 189.188C170.714 189.188 172.829 187.919 172.406 184.393Z" fill="#6F6F6F"/>
<path d="M101.492 145.33C102.259 139.915 102.791 136.164 102.791 136.164H118.304C118.304 136.164 117.327 139.915 115.911 145.33H101.492Z" fill="#292929"/>
<path d="M166.932 145.33C166.165 139.915 165.632 136.164 165.632 136.164H150.12C150.12 136.164 151.097 139.915 152.513 145.33H166.932Z" fill="#292929"/>
<path d="M191.562 26.5841L191.255 26.5955C190.081 26.6428 188.907 26.7296 187.733 26.856L187.677 26.8629C186.97 26.9612 186.386 27.4639 186.18 28.1458L186.17 28.1809L183.726 28.1811C182.932 28.1811 182.255 28.7565 182.124 29.5414L181.803 31.4732L181.797 31.5152C181.741 31.9624 181.985 32.3786 182.371 32.561L182.39 32.5696L182.4 32.7255C182.513 34.6759 182.638 36.6328 182.775 38.5878L182.858 39.7595C183.028 42.1056 183.214 44.4477 183.417 46.787C183.823 51.4655 184.297 56.1554 184.841 60.8569C184.895 61.3289 185.269 61.7003 185.74 61.7513C188.28 62.0266 190.82 62.1642 193.36 62.1642L193.805 62.1628C196.199 62.1475 198.589 62.0104 200.979 61.7513C201.451 61.7003 201.824 61.329 201.879 60.857C202.42 56.1785 202.895 51.4885 203.302 46.787L203.403 45.6118C203.766 41.3038 204.072 37.0055 204.319 32.7167L204.33 32.5692L204.347 32.5618C204.745 32.3742 204.993 31.9369 204.916 31.4732L204.595 29.5414L204.586 29.4894C204.434 28.7312 203.77 28.1811 202.993 28.1811L200.549 28.1809L200.539 28.1458C200.328 27.4459 199.718 26.9349 198.986 26.856L198.58 26.8139C197.633 26.7193 196.685 26.6504 195.738 26.6073L195.659 26.6039L197.715 11.9424C197.793 11.3859 197.406 10.8714 196.851 10.7932L194.841 10.51C194.286 10.4318 193.772 10.8195 193.694 11.376L191.562 26.5841Z" fill="white"/>
<path d="M194.882 10.22L196.892 10.5032C197.608 10.6041 198.106 11.2674 198.005 11.9837L195.994 26.3264C196.866 26.3701 197.738 26.4347 198.61 26.5217L199.017 26.5647C199.806 26.6497 200.471 27.1661 200.759 27.888H202.994C203.911 27.888 204.695 28.5375 204.873 29.4319L204.874 29.4368L204.884 29.4885L204.885 29.4934L205.206 31.4251C205.296 31.9664 205.041 32.4778 204.611 32.7493C204.425 35.9626 204.208 39.1814 203.957 42.4055L203.696 45.637L203.595 46.8118C203.187 51.516 202.712 56.2097 202.17 60.8909C202.1 61.4986 201.619 61.9773 201.011 62.0432C198.611 62.3033 196.211 62.441 193.807 62.4563L193.361 62.4583C190.81 62.4583 188.258 62.3196 185.708 62.0432C185.101 61.9772 184.619 61.4985 184.549 60.8909C184.006 56.1867 183.531 51.494 183.125 46.8128C183.024 45.6424 182.927 44.4711 182.833 43.2991L182.566 39.7805L182.483 38.6087C182.346 36.6547 182.221 34.6987 182.108 32.7493C181.692 32.4867 181.441 31.9998 181.506 31.4788L181.507 31.4729L181.513 31.4309L181.835 29.4934C181.989 28.5676 182.788 27.8882 183.726 27.888H185.961C186.241 27.1861 186.877 26.6782 187.637 26.5725L187.642 26.5715L187.698 26.5647H187.703C188.883 26.4377 190.063 26.3495 191.244 26.302L191.305 26.2991L193.404 11.3352C193.504 10.6189 194.166 10.1191 194.882 10.22ZM194.8 10.801C194.406 10.7456 194.041 11.0208 193.986 11.4172L191.819 26.8684L191.574 26.8782L191.267 26.888L191.268 26.8889C190.102 26.9359 188.935 27.0213 187.769 27.1467L187.713 27.1546L187.712 27.1536C187.123 27.2377 186.634 27.6583 186.461 28.2278L186.452 28.2639L186.39 28.4749H183.726C183.076 28.4751 182.521 28.9464 182.414 29.5901L182.093 31.5149L182.088 31.5579C182.052 31.8712 182.222 32.1629 182.492 32.2932L182.511 32.302L182.671 32.3743L182.683 32.5501L182.694 32.7063V32.7092C182.807 34.6583 182.931 36.614 183.068 38.5676L183.152 39.7385C183.321 42.0833 183.507 44.4241 183.709 46.762C184.115 51.4376 184.59 56.1248 185.133 60.8235C185.172 61.1598 185.437 61.4239 185.772 61.4602C188.301 61.7343 190.83 61.8703 193.359 61.8704L193.803 61.8694C196.187 61.8542 198.568 61.7182 200.949 61.4602C201.283 61.4238 201.548 61.1597 201.587 60.8235C202.128 56.1479 202.603 51.4607 203.01 46.762L203.111 45.5872L203.372 42.3606C203.623 39.1351 203.841 35.9151 204.027 32.7005V32.6965L204.038 32.5491L204.05 32.3723L204.212 32.301L204.222 32.2962L204.324 32.2385C204.547 32.0849 204.675 31.8102 204.627 31.5217L204.306 29.5901L204.298 29.5471L204.27 29.4329C204.106 28.8709 203.589 28.4749 202.994 28.4749H200.329L200.268 28.262L200.258 28.2307C200.081 27.6435 199.57 27.2144 198.956 27.1477L198.551 27.1057C197.845 27.0351 197.138 26.9795 196.431 26.9378L195.725 26.9006L195.647 26.8977L195.324 26.8831L197.424 11.9016C197.48 11.5051 197.204 11.1397 196.81 11.0842L194.8 10.801Z" fill="white"/>
<path fill-rule="evenodd" clip-rule="evenodd" d="M183.27 32.7637C183.27 32.7637 188.301 33.1744 193.333 33.1744C198.365 33.1744 203.397 32.7637 203.397 32.7637C203.397 32.7637 202.988 39.8319 202.37 46.9349C201.752 54.038 200.932 61.1061 200.932 61.1061C200.932 61.1061 197.133 61.5169 193.333 61.5169C189.534 61.5169 185.734 61.1061 185.734 61.1061C185.734 61.1061 184.911 54.0031 184.296 46.9349C183.682 39.8667 183.27 32.7637 183.27 32.7637Z" fill="white"/>
<mask id="mask0_4421_42775" style="mask-type:luminance" maskUnits="userSpaceOnUse" x="183" y="32" width="21" height="30">
<path fill-rule="evenodd" clip-rule="evenodd" d="M183.27 32.7637C183.27 32.7637 188.301 33.1744 193.333 33.1744C198.365 33.1744 203.397 32.7637 203.397 32.7637C203.397 32.7637 202.988 39.8319 202.37 46.9349C201.752 54.038 200.932 61.1061 200.932 61.1061C200.932 61.1061 197.133 61.5169 193.333 61.5169C189.534 61.5169 185.734 61.1061 185.734 61.1061C185.734 61.1061 184.911 54.0031 184.296 46.9349C183.682 39.8667 183.27 32.7637 183.27 32.7637Z" fill="white"/>
</mask>
<g mask="url(#mask0_4421_42775)">
</g>
<path fill-rule="evenodd" clip-rule="evenodd" d="M187.61 45.5855C186.648 42.1989 185.261 39.83 183.68 39.136C183.679 39.1312 183.679 39.1312 183.829 41.1652C185.214 43.369 186.211 49.5604 186.211 56.8531H189.009C189.009 47.7144 190.575 40.305 192.507 40.305C194.439 40.305 196.005 48.3312 196.005 58.2315H198.803C198.803 47.5696 195.984 38.9258 192.507 38.9258C190.529 38.9258 188.764 41.5235 187.61 45.5855Z" fill="#FFBC0D"/>
<path fill-rule="evenodd" clip-rule="evenodd" d="M203.396 32.7637C203.396 32.7637 202.986 39.8319 202.369 46.9349C201.751 54.038 200.931 61.1061 200.931 61.1061C200.931 61.1061 197.132 61.5169 193.332 61.5169C196.327 61.5169 197.833 52.042 197.85 33.0921C200.931 32.9691 203.396 32.7637 203.396 32.7637Z" fill="#A0A09F" fill-opacity="0.15"/>
<path d="M194.688 11.4277L196.721 11.7136L194.369 28.4527L192.295 28.4499L194.688 11.4277Z" fill="#F1F1F1"/>
<path d="M195.703 11.5703L196.313 11.6561L193.953 28.4518L193.331 28.451L195.703 11.5703Z" fill="#EAEAEA"/>
<path fill-rule="evenodd" clip-rule="evenodd" d="M183.585 29.2715H203.079C203.38 29.2715 203.637 29.4892 203.687 29.7863L204.012 31.736C200.452 32.0099 196.892 32.1468 193.332 32.1468C189.772 32.1468 186.212 32.0099 182.652 31.736L182.977 29.7863C183.027 29.4892 183.284 29.2715 183.585 29.2715Z" fill="#F1F1F1"/>
<path fill-rule="evenodd" clip-rule="evenodd" d="M187.749 27.9287C189.61 27.7288 191.471 27.6289 193.332 27.6289C195.193 27.6289 197.054 27.7288 198.914 27.9287C199.261 27.9659 199.546 28.2173 199.626 28.5562L199.698 28.8612H186.965L187.037 28.5562C187.117 28.2173 187.403 27.9659 187.749 27.9287Z" fill="#F1F1F1"/>
<path fill-rule="evenodd" clip-rule="evenodd" d="M235.643 30.0765C235.577 29.4121 236.067 28.8668 236.845 28.291C237.573 27.7518 238.294 27.4347 238.958 27.5515C239.377 27.6253 239.698 27.9673 239.744 28.3907L239.756 28.5001L239.78 28.4987C239.821 28.4971 239.862 28.4981 239.904 28.5018L239.945 28.5064C241.287 28.6848 243.103 29.8538 242.977 30.9385C242.948 31.1812 242.921 31.4182 242.896 31.6494L242.839 32.1715L242.892 32.1537C243.046 32.1035 243.205 32.0597 243.366 32.0235L243.373 32.022L243.352 31.7305L243.349 31.6634C243.347 31.572 243.359 31.4808 243.384 31.3925C243.711 30.2174 245.116 29.466 246.686 29.3409C247.212 29.2989 247.673 29.6905 247.717 30.2166C247.743 30.5308 247.767 30.8305 247.788 31.1203L247.817 31.5072L247.826 31.5035C248.507 31.2157 249.362 31.1626 250.186 31.3167L250.256 31.3304C250.763 31.4327 251.097 31.9184 251.011 32.4281C250.986 32.5792 250.962 32.7262 250.938 32.8696L250.886 33.1931L251.029 33.2168C251.285 33.2622 251.528 33.3208 251.757 33.394L251.805 33.4099L251.836 33.2911L251.871 33.1545C252.151 32.0539 254.04 31.7732 255.434 32.1619C255.901 32.2921 256.197 32.751 256.123 33.2303C255.758 35.6042 255.392 37.2782 254.751 39.4358L254.69 39.6407L254.709 39.6465C255.12 39.7813 255.403 40.1857 255.364 40.6384L255.36 40.6773C254.911 44.2249 254.328 47.7919 253.612 51.3781C252.896 54.9639 252.054 58.53 251.087 62.0762C251.03 62.2829 250.906 62.4647 250.734 62.5926L249.19 63.7422C248.929 63.9362 248.588 63.9848 248.284 63.8715C246.336 63.1467 244.132 62.7821 241.668 62.7821C239.209 62.7821 237.076 63.1451 235.264 63.8641C234.955 63.9867 234.605 63.9405 234.339 63.7422L232.794 62.5926C232.622 62.4646 232.498 62.2825 232.442 62.0755C231.467 58.4905 230.625 54.9247 229.917 51.3781C229.209 47.8311 228.626 44.2644 228.169 40.678C228.111 40.2226 228.381 39.8089 228.785 39.6587L228.787 39.6577L228.691 39.443L228.603 39.2486L228.241 38.4645C227.91 37.741 227.696 37.2272 227.502 36.6582L227.444 36.4856C227.255 35.9098 227.578 35.379 228.254 34.5448L228.317 34.4675C228.783 33.9068 229.264 33.4725 229.766 33.2371L229.828 33.2093L229.577 32.1897C229.454 31.6833 229.758 31.1715 230.262 31.0376C230.846 30.8822 231.575 30.9202 232.328 31.0816C232.625 31.1454 232.91 31.2266 233.138 31.3126C233.267 31.3613 233.381 31.4122 233.481 31.4688C233.557 31.5123 233.628 31.5601 233.697 31.6202C233.85 31.7542 233.97 31.9161 234.026 32.165L234.08 32.4002L234.169 32.3379C234.683 31.9881 235.254 31.7234 235.792 31.6177L235.772 31.4067L235.643 30.0765ZM239.265 34.5939C239.173 32.5746 239.016 30.5445 238.792 28.4948C238.082 28.3698 236.562 29.6333 236.596 29.9824C236.918 33.2521 236.984 34.2956 237.009 36.0074L237.023 37.3697C236.693 35.1298 236.539 34.1795 236.263 32.907L236.18 32.5295C235.248 32.5991 233.918 33.5914 233.987 33.9355C234.284 35.4248 234.365 36.1601 234.457 37.871L234.488 38.4797C234.2 36.857 233.962 35.92 233.681 34.812C233.527 34.2053 233.36 33.5474 233.165 32.6976L233.092 32.3754C233.055 32.214 231.418 31.7215 230.508 31.9633C230.582 32.267 230.657 32.5708 230.732 32.8745C231.17 34.6463 231.607 36.4171 231.795 38.1627C231.278 36.8188 230.796 35.4465 230.359 34.0336C229.454 34.291 228.303 36.03 228.354 36.1872C228.626 37.0172 228.95 37.717 229.283 38.4348C229.456 38.8085 229.631 39.187 229.802 39.5913L229.885 39.7903L230.234 40.5567H229.119C229.573 44.1208 230.153 47.6653 230.857 51.1903C231.561 54.7153 232.397 58.2599 233.366 61.824L234.911 62.9735C236.841 62.2071 239.094 61.824 241.668 61.824C244.242 61.824 246.559 62.2071 248.618 62.9735L250.163 61.824C251.124 58.299 251.961 54.7544 252.672 51.1903C253.384 47.6262 253.963 44.0817 254.41 40.5567H253.439L253.643 39.7903L253.712 39.566C254.433 37.1943 254.805 35.4997 255.176 33.0844C254.189 32.8089 252.886 33.0498 252.8 33.3898C252.751 33.5837 252.708 33.7463 252.667 33.8983L252.403 34.849C251.998 34.3987 251.159 34.168 250.342 34.0903C250.161 35.7459 249.98 36.5532 249.633 37.9044L249.359 38.9668C249.459 36.5065 249.602 35.0885 250.003 32.6524L250.067 32.2693C249.144 32.083 247.943 32.2351 247.573 32.9011C247.345 34.3272 247.216 35.1603 247.126 36.3458L247.107 36.6055C247.102 36.4682 247.097 36.3341 247.092 36.203C247.015 34.1636 246.964 32.8268 246.796 30.7145L246.762 30.2956C245.593 30.3888 244.507 30.9283 244.307 31.6492C244.31 31.7022 244.315 31.7613 244.319 31.8245C244.337 32.0628 244.358 32.3599 244.375 32.6097L244.392 32.8679C243.587 32.85 242.717 33.1964 242.402 33.4487C242.26 34.1538 242.173 34.746 242.09 35.3169C241.961 36.1945 241.839 37.0216 241.54 38.1304C241.54 38.1304 241.355 36.8283 241.947 31.513L242.025 30.8275C242.066 30.4741 240.752 29.5799 239.819 29.4559C239.61 31.1704 239.426 32.8826 239.265 34.5939Z" fill="white"/>
<path d="M236.497 27.8183C237.257 27.2561 238.149 26.8122 239.061 26.9726C239.612 27.0697 240.057 27.4535 240.243 27.9619C240.967 28.1017 241.75 28.4552 242.362 28.9101C242.703 29.1629 243.015 29.4647 243.237 29.8037C243.309 29.9127 243.372 30.03 243.425 30.1533C243.666 29.8849 243.954 29.6556 244.27 29.4677C244.948 29.0639 245.782 28.8234 246.64 28.7549C247.488 28.6872 248.232 29.3185 248.303 30.167C248.319 30.3619 248.333 30.5513 248.348 30.7363C248.865 30.6329 249.414 30.6193 249.951 30.6855L250.295 30.7383L250.299 30.7392L250.369 30.7529L250.373 30.7539C251.145 30.9097 251.668 31.6176 251.607 32.3886C251.97 31.9187 252.555 31.6553 253.103 31.5273C253.886 31.3443 254.807 31.3768 255.592 31.5957C256.345 31.8058 256.823 32.5453 256.704 33.3183C256.349 35.6262 255.99 37.2876 255.385 39.3584C255.767 39.6694 255.996 40.1565 255.95 40.6875L255.949 40.6992L255.946 40.7383L255.944 40.75C255.492 44.3117 254.908 47.8926 254.189 51.4922C253.47 55.0912 252.625 58.6703 251.654 62.2295C251.564 62.5628 251.363 62.8562 251.086 63.0625L249.542 64.2119C249.122 64.5247 248.571 64.6036 248.08 64.4209C246.209 63.7243 244.076 63.3682 241.669 63.3681C239.266 63.3681 237.209 63.7234 235.482 64.4092C234.984 64.6066 234.419 64.5317 233.989 64.2119L232.445 63.0625C232.167 62.856 231.967 62.5622 231.876 62.2285C230.898 58.631 230.054 55.0521 229.343 51.4922C228.632 47.9317 228.046 44.351 227.587 40.751C227.522 40.2432 227.711 39.7681 228.047 39.4433L227.709 38.709L227.708 38.708C227.373 37.9754 227.15 37.4416 226.947 36.8467L226.946 36.8437L226.888 36.6709L226.887 36.667C226.736 36.2068 226.805 35.7753 226.992 35.3662C227.168 34.9829 227.461 34.5907 227.799 34.1738L227.801 34.1719L227.864 34.0937L227.866 34.0918C228.256 33.6221 228.683 33.2055 229.151 32.9092L229.008 32.3291V32.3271C228.81 31.5105 229.3 30.6856 230.112 30.4697C230.824 30.2807 231.656 30.3361 232.452 30.5068C232.772 30.5753 233.085 30.6635 233.346 30.7617C233.494 30.8174 233.638 30.8808 233.772 30.957C233.875 31.016 233.98 31.0859 234.084 31.1767C234.195 31.2733 234.298 31.3859 234.386 31.5205C234.637 31.3858 234.898 31.2701 235.161 31.1806L235.06 30.1328L235.051 29.9453C235.056 29.021 235.78 28.3491 236.497 27.8183ZM238.959 27.5508C238.296 27.434 237.574 27.7508 236.846 28.29C236.068 28.8656 235.579 29.4109 235.644 30.0752L235.793 31.6172C235.256 31.7228 234.684 31.9871 234.17 32.3369L234.081 32.3994L234.028 32.164C233.972 31.9153 233.852 31.7531 233.698 31.6191C233.63 31.559 233.558 31.5113 233.482 31.4677C233.382 31.4112 233.268 31.3602 233.139 31.3115C232.911 31.2256 232.626 31.1447 232.329 31.081C231.576 30.9196 230.847 30.8817 230.263 31.0371C229.759 31.171 229.455 31.6822 229.578 32.1885L229.829 33.208L229.768 33.2363C229.266 33.4717 228.784 33.906 228.319 34.4668L228.255 34.5439C227.579 35.378 227.257 35.9086 227.446 36.4844L227.503 36.6572C227.697 37.2262 227.911 37.7404 228.242 38.4638L228.604 39.248L228.693 39.4424L228.788 39.6572L228.785 39.6582C228.382 39.8085 228.112 40.2216 228.17 40.6767C228.627 44.263 229.21 47.83 229.918 51.3769C230.626 54.9233 231.468 58.4893 232.443 62.0742C232.499 62.2811 232.623 62.4637 232.795 62.5918L234.34 63.7412C234.607 63.9395 234.957 63.9858 235.266 63.8633C237.077 63.1443 239.21 62.7812 241.669 62.7812C244.133 62.7812 246.338 63.1452 248.285 63.8701C248.59 63.9833 248.931 63.9351 249.192 63.7412L250.736 62.5918C250.907 62.4639 251.032 62.2818 251.088 62.0752C252.055 58.5289 252.896 54.9627 253.612 51.3769C254.329 47.7909 254.912 44.2242 255.362 40.6767L255.365 40.6377C255.405 40.185 255.121 39.7803 254.71 39.6455L254.692 39.6396L254.752 39.4345C255.392 37.277 255.759 35.6033 256.124 33.2295C256.198 32.7502 255.902 32.2914 255.435 32.1611C254.042 31.7725 252.152 32.0528 251.872 33.1533L251.838 33.29L251.807 33.4092L251.758 33.3926C251.53 33.3194 251.286 33.2611 251.029 33.2158L250.887 33.1924L250.94 32.8681C250.963 32.7249 250.988 32.5777 251.013 32.4267C251.098 31.9172 250.764 31.4313 250.257 31.3291L250.187 31.3154C249.363 31.1614 248.508 31.2151 247.826 31.5029L247.818 31.5058L247.789 31.1191C247.767 30.8294 247.744 30.5299 247.718 30.2158C247.674 29.6897 247.213 29.2979 246.687 29.3398C245.117 29.465 243.712 30.2165 243.385 31.3916C243.36 31.4797 243.348 31.5708 243.35 31.6621L243.353 31.7295L243.374 32.0215L243.367 32.0224C243.206 32.0586 243.047 32.1022 242.894 32.1523L242.84 32.1709L242.897 31.6484C242.922 31.4172 242.949 31.1802 242.978 30.9375C243.104 29.8528 241.288 28.6842 239.946 28.5058L239.904 28.501C239.863 28.4973 239.822 28.4964 239.781 28.498L239.757 28.499L239.745 28.3896C239.699 27.9663 239.379 27.6246 238.959 27.5508ZM236.598 29.9814C236.563 29.6323 238.083 28.3692 238.793 28.4941C239.017 30.5437 239.174 32.5736 239.266 34.5927C239.427 32.8816 239.611 31.1695 239.821 29.4551C240.753 29.5792 242.067 30.4725 242.027 30.8261L241.948 31.5117C241.357 36.827 241.541 38.1299 241.541 38.1299C241.841 37.0212 241.962 36.1938 242.091 35.3164C242.175 34.7455 242.261 34.1523 242.403 33.4472C242.718 33.195 243.588 32.8493 244.393 32.8672L244.376 32.6084C244.359 32.3586 244.338 32.0614 244.321 31.8232C244.316 31.7602 244.312 31.7012 244.308 31.6484C244.508 30.9276 245.594 30.3882 246.763 30.2949L246.797 30.7138C246.965 32.826 247.016 34.1629 247.093 36.2021C247.098 36.3332 247.103 36.4672 247.109 36.6045L247.127 36.3447C247.217 35.1594 247.346 34.3263 247.573 32.9004C247.944 32.2344 249.145 32.0824 250.068 32.2685L250.004 32.6513C249.604 35.0875 249.461 36.5055 249.361 38.9658L249.635 37.9033C249.982 36.5522 250.162 35.7443 250.343 34.0888C251.159 34.1665 251.999 34.3974 252.404 34.8476L252.668 33.8974C252.709 33.7454 252.752 33.5825 252.801 33.3886C252.887 33.0488 254.189 32.8077 255.177 33.083C254.805 35.4983 254.434 37.1938 253.713 39.5654L253.645 39.789L253.441 40.5556H254.411C253.965 44.0806 253.385 47.6253 252.673 51.1894C251.961 54.7535 251.125 58.2983 250.163 61.8232L248.619 62.9726C246.56 62.2062 244.243 61.8232 241.669 61.8232C239.095 61.8232 236.843 62.2063 234.912 62.9726L233.367 61.8232C232.398 58.2591 231.562 54.7144 230.858 51.1894C230.154 47.6644 229.575 44.1197 229.12 40.5556H230.235L229.887 39.789L229.804 39.5908C229.633 39.1865 229.457 38.8072 229.284 38.4336C228.952 37.7158 228.628 37.0163 228.356 36.1865C228.304 36.0293 229.455 34.2897 230.361 34.0322C230.798 35.4451 231.278 36.8182 231.796 38.1621C231.608 36.4166 231.17 34.6457 230.733 32.874C230.658 32.5702 230.583 32.2656 230.509 31.9619C231.418 31.7203 233.054 32.2123 233.093 32.374L233.166 32.6963C233.361 33.5458 233.528 34.204 233.682 34.8105C233.963 35.9185 234.201 36.8559 234.489 38.4785L234.458 37.8701C234.367 36.1593 234.285 35.4237 233.988 33.9345C233.92 33.5904 235.249 32.5979 236.181 32.5283L236.264 32.9062C236.54 34.1787 236.694 35.1293 237.025 37.3691L237.011 36.0068C236.986 34.2951 236.92 33.251 236.598 29.9814ZM238.276 29.2129C238.112 29.2951 237.936 29.4055 237.766 29.5312C237.558 29.685 237.38 29.8463 237.263 29.9765C237.233 30.0103 237.212 30.0401 237.195 30.0625C237.426 32.427 237.523 33.6152 237.568 34.7773L237.598 35.998V36L237.612 37.3623L236.444 37.4541C236.132 35.3435 235.977 34.3934 235.734 33.2422C235.508 33.3315 235.265 33.4613 235.04 33.6142C234.846 33.7468 234.695 33.8759 234.606 33.9746C234.602 33.9784 234.598 33.9817 234.595 33.9853C234.8 35.0326 234.9 35.7263 234.973 36.6933L235.044 37.8388L235.075 38.4482L233.911 38.581C233.627 36.9797 233.393 36.0588 233.113 34.9551C232.96 34.3482 232.791 33.6848 232.594 32.8281L232.576 32.751C232.436 32.6997 232.236 32.6403 232.005 32.5908C231.745 32.5351 231.481 32.4986 231.242 32.4873C231.263 32.5689 231.283 32.6506 231.303 32.7324C231.739 34.4965 232.187 36.3067 232.38 38.0986L231.248 38.373C230.813 37.2434 230.406 36.0921 230.026 34.914C229.83 35.0842 229.633 35.2973 229.455 35.5166C229.273 35.741 229.122 35.9596 229.022 36.124C229.006 36.1501 228.994 36.175 228.982 36.1963C229.228 36.9063 229.511 37.5266 229.817 38.1875C229.903 38.3738 229.991 38.5636 230.079 38.7588L230.344 39.3613L230.345 39.3642L230.421 39.5469L230.77 40.3125L231.147 41.1426H229.789C230.228 44.4702 230.776 47.7808 231.434 51.0742C232.122 54.521 232.938 57.9872 233.881 61.4726L235.004 62.3086C236.946 61.5889 239.171 61.2363 241.669 61.2363C244.178 61.2363 246.464 61.5924 248.521 62.3135L249.649 61.4726C250.584 58.025 251.402 54.5591 252.098 51.0742C252.762 47.7462 253.309 44.4355 253.741 41.1426H252.676L253.077 39.6377L253.08 39.6279L253.083 39.6172L253.152 39.3935C253.806 37.2411 254.165 35.6584 254.505 33.5615C254.242 33.5406 253.973 33.5509 253.737 33.5859C253.556 33.6129 253.417 33.6528 253.329 33.6885C253.295 33.82 253.265 33.9384 253.235 34.0508L253.234 34.0547L252.684 36.0361L251.968 35.2412C251.86 35.1212 251.655 34.9927 251.338 34.8847C251.189 34.8339 251.027 34.7903 250.856 34.7558C250.691 36.0633 250.51 36.8528 250.203 38.0498L249.929 39.1123L248.774 38.9414C248.872 36.5355 249.012 35.1074 249.388 32.7842C249.163 32.7793 248.938 32.7959 248.736 32.8388C248.409 32.908 248.223 33.0212 248.132 33.123C247.918 34.4673 247.798 35.2644 247.712 36.3857L247.713 36.3867L247.694 36.6465L246.522 36.6269C246.516 36.4897 246.511 36.3556 246.506 36.2246C246.432 34.2546 246.381 32.9495 246.227 30.9697C245.936 31.0374 245.67 31.1359 245.449 31.2539C245.133 31.423 244.97 31.5986 244.903 31.7324C244.904 31.7483 244.905 31.7647 244.906 31.7812L244.962 32.5693L244.979 32.8291L245.021 33.4677L244.38 33.4541C244.06 33.4469 243.709 33.5128 243.396 33.6142C243.202 33.6771 243.044 33.7473 242.932 33.8066C242.821 34.3905 242.746 34.8988 242.672 35.4013C242.543 36.2809 242.417 37.1375 242.108 38.2822L240.959 38.2119V38.206L240.955 38.1787C240.953 38.1624 240.952 38.1402 240.949 38.1123C240.945 38.0566 240.939 37.9763 240.935 37.8662C240.926 37.6456 240.922 37.3032 240.936 36.7978C240.964 35.7873 241.067 34.1157 241.364 31.4472L241.365 31.4453L241.426 30.9092C241.421 30.9035 241.416 30.8969 241.409 30.8906C241.318 30.7968 241.167 30.6751 240.971 30.5488C240.766 30.4166 240.54 30.2976 240.322 30.207C240.147 31.6885 239.989 33.1688 239.85 34.6484L238.679 34.6201C238.597 32.8284 238.462 31.028 238.276 29.2129Z" fill="white"/>
<path d="M238.795 28.493C239.019 30.5427 239.175 32.5732 239.267 34.5926C239.428 32.8813 239.612 31.1685 239.822 29.4539C240.755 29.578 242.069 30.4725 242.028 30.826C241.342 36.7158 241.543 38.1287 241.543 38.1287C242.037 36.2985 242.047 35.236 242.405 33.4471C242.721 33.1948 243.591 32.8481 244.395 32.866C244.375 32.5393 244.333 31.9755 244.309 31.6473C244.51 30.9265 245.596 30.387 246.765 30.2938C246.973 32.7979 247.019 34.1927 247.11 36.6033C247.201 35.2744 247.332 34.4271 247.576 32.8992C247.947 32.2335 249.148 32.0812 250.07 32.2674C249.62 34.9438 249.468 36.3784 249.362 38.9647C249.898 36.8843 250.121 36.1336 250.345 34.0887C251.162 34.1664 252.001 34.3973 252.406 34.8475C252.564 34.2703 252.656 33.9699 252.803 33.3885C252.89 33.0485 254.192 32.8073 255.179 33.0828C254.796 35.5733 254.413 37.2976 253.647 39.7879L253.442 40.5555H254.414C254.407 40.6074 253.738 45.8687 252.675 51.1883C251.611 56.5201 250.173 61.7937 250.166 61.8221L248.622 62.9715C248.622 62.9715 245.533 61.8221 241.672 61.8221C237.84 61.8221 234.959 62.9541 234.915 62.9715L233.37 61.8221C233.36 61.7859 231.912 56.4578 230.86 51.1883C229.81 45.9297 229.13 40.6132 229.123 40.5555H230.237L229.888 39.7879C229.364 38.514 228.794 37.5173 228.357 36.1854C228.306 36.0272 229.457 34.2898 230.362 34.032C230.799 35.4449 231.281 36.8171 231.798 38.161C231.578 36.1161 231.016 34.0367 230.511 31.9617C231.421 31.7202 233.058 32.2125 233.094 32.3738C233.692 35.0255 234.025 35.8581 234.491 38.4783C234.384 36.3128 234.319 35.5881 233.99 33.9334C233.922 33.589 235.251 32.5979 236.182 32.5281C236.513 34.0072 236.664 34.9128 237.026 37.368C237.004 34.6626 236.997 34.0219 236.599 29.9803C236.566 29.6306 238.085 28.3685 238.795 28.493Z" fill="white"/>
<path fill-rule="evenodd" clip-rule="evenodd" d="M229.121 40.5547H232.187C232.187 40.5547 234.72 47.8354 241.67 47.8354C248.62 47.8354 251.346 40.5547 251.346 40.5547H254.412C254.412 40.5547 253.742 45.8422 252.674 51.1883C251.607 56.5345 250.165 61.8219 250.165 61.8219L248.62 62.9715C248.62 62.9715 245.531 61.8219 241.67 61.8219C237.809 61.8219 234.913 62.9715 234.913 62.9715L233.368 61.8219C233.368 61.8219 231.915 56.4758 230.859 51.1883C229.803 45.9008 229.121 40.5547 229.121 40.5547Z" fill="#DB0007"/>
<path fill-rule="evenodd" clip-rule="evenodd" d="M243.617 50.1348C242.754 50.1348 241.984 51.2433 241.48 52.9768C240.976 51.2433 240.206 50.1348 239.342 50.1348C237.825 50.1348 236.594 53.8235 236.594 58.3734H237.815C237.815 54.1485 238.499 50.7233 239.342 50.7233C240.185 50.7233 240.869 53.8853 240.869 57.7852H242.09C242.09 53.8853 242.774 50.7233 243.617 50.7233C244.46 50.7233 245.144 54.1485 245.144 58.3734H246.365C246.365 53.8235 245.135 50.1348 243.617 50.1348Z" fill="#FFBC0D"/>
<path fill-rule="evenodd" clip-rule="evenodd" d="M232.954 39.7886C232.954 39.7886 235.445 47.0693 241.767 47.0693C248.09 47.0693 250.581 39.7886 250.581 39.7886C250.581 39.7886 252.305 39.7886 253.646 39.7886C254.413 37.2978 254.796 35.5735 255.179 33.0827C254.191 32.8072 252.889 33.0481 252.803 33.3881C252.655 33.9697 252.564 34.27 252.406 34.8473C252.001 34.397 251.162 34.1663 250.345 34.0886C250.121 36.1337 249.898 36.8844 249.362 38.965C249.467 36.3786 249.62 34.9441 250.069 32.2675C249.147 32.0813 247.946 32.2334 247.575 32.8994C247.332 34.4274 247.201 35.2746 247.11 36.6038C247.019 34.1928 246.973 32.7982 246.765 30.2939C245.596 30.3871 244.51 30.9266 244.309 31.6475C244.333 31.9757 244.375 32.5395 244.395 32.8662C243.59 32.8483 242.72 33.1946 242.404 33.447C242.046 35.2359 242.037 36.2985 241.542 38.1287C241.542 38.1287 241.342 36.7158 242.028 30.8258C242.069 30.4724 240.755 29.5782 239.822 29.4541C239.613 31.1687 239.429 32.8809 239.267 34.5922C239.175 32.5728 239.019 30.5428 238.795 28.493C238.085 28.3681 236.565 29.6315 236.599 29.9807C236.997 34.0223 237.004 34.6626 237.026 37.368C236.664 34.9127 236.514 34.007 236.183 32.5278C235.251 32.5973 233.921 33.5897 233.99 33.9338C234.319 35.5885 234.384 36.3125 234.491 38.478C234.025 35.8577 233.692 35.0254 233.094 32.3737C233.058 32.2123 231.42 31.7198 230.511 31.9616C231.015 34.0367 231.578 36.1161 231.798 38.161C231.281 36.8171 230.799 35.4447 230.362 34.0318C229.457 34.2893 228.306 36.0282 228.357 36.1855C228.794 37.5176 229.364 38.5144 229.888 39.7886H232.954Z" fill="#FFBC0D"/>
<path d="M227.535 61.7528H208.21L204.32 55.0332H231.425L227.535 61.7528Z" fill="white"/>
<path d="M233.462 53.8594L228.214 62.9268H207.533L202.285 53.8594H233.462ZM204.321 55.0332L227.536 61.7529L231.426 55.0332H204.321Z" fill="white"/>
<path d="M207.075 40.4414H228.566C228.894 40.4414 229.185 40.6516 229.287 40.9629L232.826 51.6836C233.159 52.6947 232.61 53.785 231.599 54.1187C231.404 54.1831 231.2 54.2158 230.995 54.2158H204.647C203.582 54.2158 202.719 53.3526 202.719 52.2878C202.719 52.0825 202.752 51.8785 202.816 51.6836L206.354 40.9629C206.457 40.6516 206.748 40.4414 207.075 40.4414Z" fill="white"/>
<path d="M228.568 39.2676C229.403 39.2677 230.143 39.8025 230.404 40.5947L233.942 51.3154C234.479 52.9424 233.596 54.6964 231.969 55.2334C231.655 55.3369 231.327 55.3896 230.997 55.3896H204.648C202.935 55.3895 201.547 54.0012 201.547 52.2881C201.547 51.9577 201.6 51.6291 201.703 51.3154L205.241 40.5947L205.296 40.4492C205.596 39.7377 206.295 39.2677 207.077 39.2676V40.4414C206.75 40.4415 206.459 40.6518 206.356 40.9629L202.817 51.6836L202.775 51.8311C202.739 51.9804 202.721 52.134 202.721 52.2881L202.73 52.4854C202.829 53.4573 203.65 54.2157 204.648 54.2158H230.997L231.15 54.21C231.252 54.2018 231.354 54.1854 231.453 54.1611L231.601 54.1191C232.549 53.8063 233.091 52.8282 232.88 51.874L232.827 51.6836L229.289 40.9629C229.199 40.6905 228.965 40.4955 228.688 40.4512L228.568 40.4414V39.2676ZM228.568 39.2676V40.4414H207.077V39.2676H228.568Z" fill="white"/>
<path d="M227.535 61.7528H208.21L204.32 55.0332H231.425L227.535 61.7528Z" fill="#C2945C"/>
<mask id="mask1_4421_42775" style="mask-type:luminance" maskUnits="userSpaceOnUse" x="204" y="55" width="28" height="7">
<path d="M227.535 61.7528H208.21L204.32 55.0332H231.425L227.535 61.7528Z" fill="white"/>
</mask>
<g mask="url(#mask1_4421_42775)">
</g>
<path d="M207.075 40.4414H228.566C228.894 40.4414 229.185 40.6516 229.287 40.9629L232.826 51.6836C233.159 52.6947 232.61 53.785 231.599 54.1187C231.404 54.1831 231.2 54.2158 230.995 54.2158H204.647C203.582 54.2158 202.719 53.3526 202.719 52.2878C202.719 52.0825 202.752 51.8785 202.816 51.6836L206.354 40.9629C206.457 40.6516 206.748 40.4414 207.075 40.4414Z" fill="#C2945C"/>
<path fill-rule="evenodd" clip-rule="evenodd" d="M226.259 45.543C225.578 45.543 224.97 46.4257 224.572 47.806C224.174 46.4257 223.566 45.543 222.884 45.543C221.687 45.543 220.715 48.4802 220.715 52.1031H221.679C221.679 48.739 222.219 46.0116 222.884 46.0116C223.55 46.0116 224.09 48.5294 224.09 51.6347H225.054C225.054 48.5294 225.594 46.0116 226.259 46.0116C226.925 46.0116 227.465 48.739 227.465 52.1031H228.429C228.429 48.4802 227.457 45.543 226.259 45.543Z" fill="#FFBC0D"/>
<path d="M262.4 61.4407V63.3935C262.4 64.472 261.46 65.3463 260.301 65.3463H171.699C170.54 65.3463 169.6 64.472 169.6 63.3935V61.4407C168.44 61.4407 167.5 60.5664 167.5 59.4879C167.5 58.4095 168.44 57.5352 169.6 57.5352C171.919 57.5352 173.799 59.2837 173.799 61.4407H258.201C258.201 59.2837 260.081 57.5352 262.4 57.5352C263.56 57.5352 264.5 58.4095 264.5 59.4879C264.5 60.5664 263.56 61.4407 262.4 61.4407Z" fill="#DB0007"/>
<path d="M263.914 59.4873C263.914 58.7724 263.277 58.1211 262.401 58.1211C260.366 58.1211 258.789 59.6462 258.789 61.4395V62.0264H173.213V61.4395C173.213 59.6462 171.636 58.1211 169.601 58.1211C168.724 58.1211 168.088 58.7724 168.088 59.4873C168.088 60.2021 168.725 60.8525 169.601 60.8525H170.188V63.3926C170.188 64.1075 170.824 64.7578 171.7 64.7578H260.302C261.178 64.7578 261.814 64.1075 261.814 63.3926V60.8525H262.401C263.277 60.8525 263.914 60.2021 263.914 59.4873ZM265.088 59.4873C265.088 60.7287 264.165 61.7116 262.988 61.9619V63.3926C262.988 64.8347 261.745 65.9326 260.302 65.9326H171.7C170.257 65.9326 169.014 64.8347 169.014 63.3926V61.9629C167.836 61.7127 166.914 60.7288 166.914 59.4873C166.914 58.0452 168.158 56.9473 169.601 56.9473C171.997 56.9473 174.038 58.6196 174.346 60.8525H257.656C257.964 58.6196 260.005 56.9473 262.401 56.9473C263.844 56.9473 265.088 58.0452 265.088 59.4873Z" fill="white"/>
</svg>
