<svg width="27" height="18" viewBox="0 0 27 18" fill="none" xmlns="http://www.w3.org/2000/svg">
<g clip-path="url(#clip0_109_43754)">
<path d="M0 0H27V9.05263H0V0Z" fill="#A2001D"/>
<path d="M0 9.05469H27V18.1073H0V9.05469Z" fill="#0052B4"/>
<path d="M20.072 13.2382L14.2456 12.5119L8.41406 13.2382V4.49609H20.072V13.2382Z" fill="white"/>
<path d="M14.2478 12.5112C15.8582 12.5112 17.1636 11.2058 17.1636 9.59547C17.1636 7.98513 15.8582 6.67969 14.2478 6.67969C12.6375 6.67969 11.332 7.98513 11.332 9.59547C11.332 11.2058 12.6375 12.5112 14.2478 12.5112Z" fill="#0052B4"/>
<path d="M14.247 11.0525C15.0521 11.0525 15.7049 10.3998 15.7049 9.59461C15.7049 8.78944 15.0521 8.13672 14.247 8.13672C13.4418 8.13672 12.7891 8.78944 12.7891 9.59461C12.7891 10.3998 13.4418 11.0525 14.247 11.0525Z" fill="#A2001D"/>
<path d="M12.0586 5.95312H16.4323L14.2481 8.13733L12.0586 5.95312Z" fill="#6DA544"/>
<path d="M13.5156 7.41016H14.9735V11.7786H13.5156V7.41016Z" fill="#FFDA44"/>
<path d="M16.572 11.3438H11.9141L8.41406 13.2385H20.072L16.572 11.3438Z" fill="#6DA544"/>
</g>
<rect x="0.5" y="0.5" width="26" height="17" rx="0.5" stroke="black" stroke-opacity="0.2"/>
<defs>
<clipPath id="clip0_109_43754">
<rect width="27" height="18" rx="1" fill="white"/>
</clipPath>
</defs>
</svg>
