<svg width="27" height="18" viewBox="0 0 27 18" fill="none" xmlns="http://www.w3.org/2000/svg">
<g clip-path="url(#clip0_109_43909)">
<path d="M0 0H27V18H0V0Z" fill="white"/>
<path d="M0 2H27V4H0V2ZM0 6H27V8H0V6ZM0 10H27V12H0V10ZM0 14H27V16H0V14Z" fill="#0038A8"/>
<path d="M0 0H13.5V9.99998H0V0Z" fill="white"/>
<path d="M6.75083 7.29983L5.95609 8.48931L5.75609 7.07352L4.52451 7.79983L4.95609 6.43667L3.52451 6.55246L4.50346 5.51036L3.17188 4.99983L4.50872 4.48931L3.52451 3.4472L4.95082 3.56826L4.51925 2.2051L5.75083 2.93141L5.95609 1.51562L6.75083 2.7051L7.54557 1.51562L7.74557 2.93141L8.97715 2.2051L8.54557 3.56826L9.97189 3.45247L8.99294 4.49457L10.3298 5.0051L8.99294 5.51562L9.97189 6.55773L8.54557 6.44194L8.97715 7.80509L7.74557 7.07878L7.5403 8.49457L6.75083 7.29983ZM6.75083 7.27352C8.00872 7.32088 9.06662 6.3472 9.11399 5.08931C9.16136 3.83141 8.18767 2.77352 6.92977 2.72615H6.75083C5.49293 2.76826 4.50872 3.82089 4.55082 5.07352C4.5824 6.27352 5.55083 7.23667 6.75083 7.27352ZM6.75083 6.71562C5.76135 6.71562 4.96135 5.91562 4.96135 4.92615C4.96135 3.93668 5.76135 3.13668 6.75083 3.13668C7.7403 3.13668 8.5403 3.93668 8.5403 4.92615C8.5403 5.91562 7.73504 6.71562 6.75083 6.71562Z" fill="#FED443"/>
</g>
<rect x="0.5" y="0.5" width="26" height="17" rx="0.5" stroke="black" stroke-opacity="0.2"/>
<defs>
<clipPath id="clip0_109_43909">
<rect width="27" height="18" rx="1" fill="white"/>
</clipPath>
</defs>
</svg>
