<svg width="72" height="72" viewBox="0 0 72 72" fill="none" xmlns="http://www.w3.org/2000/svg">
<path d="M70.364 50.2299C70.364 51.6577 54.9789 52.8152 36.0004 52.8152C17.0218 52.8152 1.63672 51.6577 1.63672 50.2299C1.63672 48.802 17.0218 47.6445 36.0004 47.6445C54.9789 47.6445 70.364 48.802 70.364 50.2299Z" fill="#F0F0F0"/>
<path d="M13.7031 39.2267C13.7031 33.2863 18.5188 28.4707 24.4592 28.4707L42.5729 28.4707C48.9982 28.4707 54.207 33.6795 54.207 40.1048H14.5812C14.0962 40.1048 13.7031 39.7117 13.7031 39.2267Z" fill="#606060"/>
<path d="M19.7478 27.5615C20.2286 27.316 20.7719 27.1777 21.3471 27.1777C23.3115 27.1777 24.9039 28.7901 24.9039 30.779C24.9039 32.7279 23.375 34.3152 21.4654 34.3783C20.7337 35.1208 19.722 35.5801 18.6043 35.5801C16.3721 35.5801 14.5625 33.7479 14.5625 31.4878C14.5625 29.2276 16.3721 27.3954 18.6043 27.3954C19.0014 27.3954 19.3852 27.4534 19.7478 27.5615Z" fill="#DB0007"/>
<path d="M21.3485 27.1777C21.6853 27.1777 22.0111 27.2251 22.3199 27.3137L22.3199 31.7021H20.1655L19.1445 27.4314C19.3514 27.4594 19.5534 27.5031 19.7492 27.5615C20.23 27.316 20.7733 27.1777 21.3485 27.1777Z" fill="#292929" fill-opacity="0.15"/>
<path fill-rule="evenodd" clip-rule="evenodd" d="M29.8685 20.7148L32.859 33.6C32.9416 33.9559 32.7251 34.3093 32.3752 34.3897L23.5078 36.426C23.1582 36.5063 22.8075 36.2832 22.7249 35.9272L19.7344 23.0421L20.896 23.4482L21.7612 22.5767L22.9229 22.9827L23.788 22.1112L24.9497 22.5173L25.8148 21.6458L26.9765 22.0518L27.8416 21.1803L29.0033 21.5864L29.8685 20.7148Z" fill="#C2945C"/>
<path fill-rule="evenodd" clip-rule="evenodd" d="M29.3457 24.6412C29.8388 24.5274 30.3889 24.7918 30.9462 25.3531L31.7445 28.792C30.9296 26.5495 30.0671 25.1272 29.4887 25.2607C28.6035 25.4651 28.6537 28.9613 29.602 33.0688L28.3189 33.365C27.3706 29.2575 25.8837 26.093 24.9976 26.2976C24.1124 26.502 24.2271 30.276 25.2542 34.7251L23.9709 35.0214C22.8645 30.2291 23.2607 26.046 24.8546 25.6781C25.7618 25.4686 26.8405 26.4495 27.7915 28.1528C27.8992 26.2051 28.4391 24.8505 29.3457 24.6412Z" fill="#FFBC0D"/>
<path d="M14.9484 29.7637H54.3035C55.5259 29.7637 56.731 30.0526 57.8205 30.6069C60.2237 31.8296 62.1379 33.2886 63.5629 34.9841C65.3315 37.0884 66.0689 39.2262 65.775 41.3978H5.08203L7.98487 34.4111C9.15392 31.5974 11.9014 29.7637 14.9484 29.7637Z" fill="#FFBC0D"/>
<path d="M65.8376 40.3213L5.53125 40.3212L6.24739 38.5977L65.5785 38.5977C65.7384 39.1698 65.8248 39.7444 65.8376 40.3213Z" fill="#292929" fill-opacity="0.15"/>
<path d="M57.77 33.9168C57.77 35.2591 56.6829 36.3472 55.342 36.3472C54.0011 36.3472 52.9141 35.2591 52.9141 33.9168C52.9141 32.5745 54.0011 31.4863 55.342 31.4863C56.6829 31.4863 57.77 32.5745 57.77 33.9168Z" fill="white"/>
<path d="M34.0632 19.6367H34.4918L46.0199 29.9781H43.6732L33.6725 21.0069C33.247 20.6252 33.1858 20.0871 33.5358 19.805C33.6713 19.6957 33.8562 19.6367 34.0632 19.6367Z" fill="#FFBC0D"/>
<path d="M34.168 19.6367H35.3871C36.11 19.6367 36.8762 19.9323 37.4518 20.4332L48.172 29.7627H45.8034L34.168 19.6367Z" fill="#F1F1F1"/>
<path d="M28.9349 33.209H33.5853C33.9074 33.209 34.1686 33.4702 34.1686 33.7923C34.1686 34.1145 33.9074 34.3757 33.5853 34.3757H28.9349C28.6127 34.3757 28.3516 34.1145 28.3516 33.7923C28.3516 33.4702 28.6127 33.209 28.9349 33.209Z" fill="#606060"/>
<path d="M5.08444 39.6738H64.9784C66.5253 39.6738 67.7792 40.9278 67.7792 42.4746V42.6901C67.7792 44.1179 66.6217 45.2754 65.1939 45.2754H5.08444C4.60849 45.2754 4.22266 44.8896 4.22266 44.4136V40.5356C4.22266 40.0597 4.60849 39.6738 5.08444 39.6738Z" fill="#DBDBDB"/>
<path d="M65.1939 45.275H5.08444C4.60849 45.275 4.22266 44.8891 4.22266 44.4132V43.3359L67.6978 43.336C67.4108 44.451 66.3985 45.275 65.1939 45.275Z" fill="#292929" fill-opacity="0.15"/>
<path d="M62.1774 44.5203C62.1774 48.1494 59.2354 51.0914 55.6063 51.0914C51.9771 51.0914 49.0352 48.1494 49.0352 44.5203C49.0352 40.8912 51.9771 37.9492 55.6063 37.9492C59.2354 37.9492 62.1774 40.8912 62.1774 44.5203Z" fill="#606060"/>
<path d="M58.5157 44.6289C58.5157 46.1758 57.2617 47.4297 55.7149 47.4297C54.168 47.4297 52.9141 46.1758 52.9141 44.6289C52.9141 43.0821 54.168 41.8281 55.7149 41.8281C57.2617 41.8281 58.5157 43.0821 58.5157 44.6289Z" fill="#F1F1F1"/>
<path d="M57.6337 42.6895C58.1746 43.1886 58.5134 43.9035 58.5134 44.6976C58.5134 46.2064 57.2903 47.4294 55.7816 47.4294C54.9875 47.4294 54.2726 47.0906 53.7734 46.5497C54.1612 46.7446 54.5992 46.8543 55.0627 46.8543C56.6509 46.8543 57.9383 45.5669 57.9383 43.9787C57.9383 43.5314 57.8362 43.1078 57.6539 42.7303L57.6337 42.6895Z" fill="white"/>
<path d="M23.6227 44.5203C23.6227 48.1494 20.6807 51.0914 17.0516 51.0914C13.4225 51.0914 10.4805 48.1494 10.4805 44.5203C10.4805 40.8912 13.4225 37.9492 17.0516 37.9492C20.6807 37.9492 23.6227 40.8912 23.6227 44.5203Z" fill="#606060"/>
<path d="M19.961 44.6289C19.961 46.1758 18.707 47.4297 17.1602 47.4297C15.6133 47.4297 14.3594 46.1758 14.3594 44.6289C14.3594 43.0821 15.6133 41.8281 17.1602 41.8281C18.707 41.8281 19.961 43.0821 19.961 44.6289Z" fill="#F1F1F1"/>
<path d="M19.0829 42.6895C19.6238 43.1886 19.9626 43.9035 19.9626 44.6976C19.9626 46.2064 18.7396 47.4294 17.2308 47.4294C16.4367 47.4294 15.7218 47.0906 15.2227 46.5497C15.6105 46.7446 16.0484 46.8543 16.5119 46.8543C18.1001 46.8543 19.3875 45.5669 19.3875 43.9787C19.3875 43.5314 19.2854 43.1078 19.1031 42.7303L19.0829 42.6895Z" fill="white"/>
</svg>
