<svg width="27" height="18" viewBox="0 0 27 18" fill="none" xmlns="http://www.w3.org/2000/svg">
<g clip-path="url(#clip0_109_43813)">
<path d="M0 0H27V18H0V0Z" fill="#003399"/>
<path d="M13.4979 1.99609L13.7224 2.68669H14.4522L13.8644 3.11376L14.0857 3.80509L13.4979 3.37803L12.9101 3.80509L13.1346 3.11413L12.5469 2.68706H13.2734L13.4979 1.99609ZM10.4979 2.79609L10.7224 3.48669H11.4522L10.8644 3.91376L11.0857 4.60509L10.4979 4.17802L9.91011 4.60509L10.1346 3.91412L9.54687 3.48706H10.2734L10.4979 2.79609ZM8.29791 4.99609L8.52241 5.68669H9.25221L8.66444 6.11376L8.88571 6.80509L8.29791 6.37802L7.71011 6.80509L7.93464 6.11412L7.34687 5.68706H8.07341L8.29791 4.99609ZM7.49791 7.99605L7.72241 8.68669H8.45221L7.86444 9.11379L8.08571 9.80512L7.49791 9.37802L6.91011 9.80512L7.13464 9.11409L6.54688 8.68705H7.27341L7.49791 7.99605ZM8.29791 10.9961L8.52241 11.6867H9.25221L8.66444 12.1137L8.88571 12.8051L8.29791 12.378L7.71011 12.8051L7.93464 12.1141L7.34687 11.687H8.07341L8.29791 10.9961ZM10.4979 13.1961L10.7224 13.8867H11.4522L10.8644 14.3137L11.0857 15.0051L10.4979 14.578L9.91011 15.0051L10.1346 14.3141L9.54687 13.887H10.2734L10.4979 13.1961ZM16.4979 2.79609L16.7224 3.48669H17.4522L16.8644 3.91376L17.0857 4.60509L16.4979 4.17802L15.9101 4.60509L16.1346 3.91412L15.5469 3.48706H16.2734L16.4979 2.79609ZM18.6979 4.99609L18.9224 5.68669H19.6522L19.0644 6.11376L19.2857 6.80509L18.6979 6.37802L18.1101 6.80509L18.3346 6.11412L17.7469 5.68706H18.4734L18.6979 4.99609ZM19.4979 7.99609L19.7224 8.68669H20.4522L19.8644 9.11379L20.0857 9.80512L19.4979 9.37802L18.9101 9.80512L19.1346 9.11409L18.5469 8.68705H19.2734L19.4979 7.99609ZM18.6979 10.9961L18.9224 11.6867H19.6522L19.0644 12.1137L19.2857 12.8051L18.6979 12.378L18.1101 12.8051L18.3346 12.1141L17.7469 11.687H18.4734L18.6979 10.9961ZM13.4979 13.9961L13.7224 14.6867H14.4522L13.8644 15.1137L14.0857 15.8051L13.4979 15.378L12.9101 15.8051L13.1346 15.1141L12.5469 14.687H13.2734L13.4979 13.9961ZM16.4979 13.196L16.7224 13.8867H17.4522L16.8644 14.3137L17.0857 15.0051L16.4979 14.578L15.9101 15.0051L16.1346 14.3141L15.5469 13.887H16.2734L16.4979 13.196Z" fill="#FFCC00"/>
</g>
<rect x="0.5" y="0.5" width="26" height="17" rx="0.5" stroke="black" stroke-opacity="0.2"/>
<defs>
<clipPath id="clip0_109_43813">
<rect width="27" height="18" rx="1" fill="white"/>
</clipPath>
</defs>
</svg>
