<svg width="375" height="225" viewBox="0 0 375 225" fill="none" xmlns="http://www.w3.org/2000/svg">
<g clip-path="url(#clip0_102_69617)">
<path d="M184.5 4C262.096 4 325 66.904 325 144.5C325 163.443 321.249 181.51 314.453 198H54.5469C47.7506 181.51 44 163.443 44 144.5C44 66.904 106.904 4 184.5 4Z" fill="#DCEDF4"/>
<ellipse cx="184" cy="203" rx="153" ry="14" fill="#A0A09F" fill-opacity="0.15"/>
<path d="M316 97V124H264L264.005 97H316Z" fill="#FFBC0D"/>
<path d="M190.926 120H77V97H191L190.926 120Z" fill="#FFBC0D"/>
<path d="M191 99L190.97 108H77V99H191Z" fill="black" fill-opacity="0.1"/>
<path d="M316 99V108H264L264.002 99H316Z" fill="black" fill-opacity="0.1"/>
<path d="M264 124H287V203H264V124Z" fill="#F9F9F9"/>
<path d="M288 124H316V203H288V124Z" fill="#F9F9F9"/>
<path d="M191 89L190.967 98.999L73.8004 99C72.8061 99 72 98.1942 72 97.2002V90.8008C72 89.8068 72.8061 89.001 73.8004 89.001L191 89Z" fill="#FFBC0D"/>
<path d="M318.212 89.001C319.2 89.001 320 89.8068 320 90.8008V97.2002C320 98.1942 319.2 99 318.212 99L264 98.999L264.002 89L318.212 89.001Z" fill="#FFBC0D"/>
<path d="M260.5 74.5234L260.473 202.998H194.569L194.5 74.5234L260.5 74.5234Z" fill="#F1F1F1"/>
<path d="M59.8 124H244.443C245.437 124 246.243 124.806 246.243 125.8V140H58V125.8C58 124.806 58.8059 124 59.8 124Z" fill="#606060"/>
<path d="M195 140H246V203H195V140Z" fill="#D8D8D8"/>
<path d="M109 140H137V203H109V140Z" fill="#F9F9F9"/>
<path d="M138 140H166V203H138V140Z" fill="#F9F9F9"/>
<path d="M167 140H195V203H167V140Z" fill="#F9F9F9"/>
<path d="M218 154H246V203H218V154Z" fill="#F9F9F9"/>
<path d="M58 198H109V204H58V198Z" fill="#A5835B"/>
<path d="M58 192H109V198H58V192Z" fill="#C2945C"/>
<path d="M58 187H109V193H58V187Z" fill="#A5835B"/>
<path d="M58 182H109V188H58V182Z" fill="#C2945C"/>
<path d="M58 177H109V183H58V177Z" fill="#A5835B"/>
<path d="M58 171H109V177H58V171Z" fill="#C2945C"/>
<path d="M58 166H109V172H58V166Z" fill="#A5835B"/>
<path d="M58 161H109V167H58V161Z" fill="#C2945C"/>
<path d="M58 156H109V162H58V156Z" fill="#A5835B"/>
<path d="M58 150H109V156H58V150Z" fill="#C2945C"/>
<path d="M58 145H109V151H58V145Z" fill="#A5835B"/>
<path d="M58 140H109V146H58V140Z" fill="#C2945C"/>
<path d="M136 140H140V203H136V140Z" fill="#D8D8D8"/>
<path d="M286 124H290V203H286V124Z" fill="#D8D8D8"/>
<path d="M312 124H316V203H312V124Z" fill="#D8D8D8"/>
<path d="M165 140H169V203H165V140Z" fill="#D8D8D8"/>
<path d="M218 154H246V160H218V154Z" fill="#A0A09F" fill-opacity="0.15"/>
<path d="M195 140H246V143H195V140Z" fill="#292929" fill-opacity="0.1"/>
<path d="M165 140H169V146H165V140Z" fill="#292929" fill-opacity="0.1"/>
<path d="M136 140H140V146H136V140Z" fill="#292929" fill-opacity="0.1"/>
<path d="M109 140H136V145H109V140Z" fill="#A0A09F" fill-opacity="0.15"/>
<path d="M140 140H165V145H140V140Z" fill="#A0A09F" fill-opacity="0.15"/>
<path d="M169 140H195V145H169V140Z" fill="#A0A09F" fill-opacity="0.15"/>
<path fill-rule="evenodd" clip-rule="evenodd" d="M236.023 86.7959C239.143 86.7959 241.672 99.9528 241.672 116.182H246.195C246.195 98.703 241.64 84.5352 236.023 84.5352C232.826 84.5352 229.975 88.7942 228.111 95.4522C226.247 88.7942 223.396 84.5352 220.2 84.5352C214.584 84.5352 210.027 98.703 210.027 116.182H214.55C214.55 99.9528 217.08 86.7959 220.2 86.7959C223.32 86.7959 225.85 98.9404 225.85 113.921H230.372C230.372 98.9404 232.902 86.7959 236.023 86.7959Z" fill="#FFBC0D"/>
<rect x="63" y="33" width="6" height="170" fill="#F9F9F9"/>
<rect x="66" y="33" width="3" height="170" fill="#F1F1F1"/>
<path d="M66 26C68.2091 26 70 27.7909 70 30C70 31.195 69.4754 32.267 68.6445 33H63.3555C62.5246 32.267 62 31.195 62 30C62 27.7909 63.7909 26 66 26Z" fill="#FFBC0D"/>
<path opacity="0.5" d="M66 26C67.3598 26 68.5605 26.6789 69.2832 27.7158C68.6357 27.2648 67.8489 27 67 27C64.7909 27 63 28.7909 63 31C63 31.8496 63.2659 32.6366 63.7178 33.2842C62.6799 32.5616 62 31.3605 62 30C62 27.7909 63.7909 26 66 26Z" fill="#F9F9F9"/>
<g clip-path="url(#clip1_102_69617)">
<path d="M69 33H124.323V69.882H69V33Z" fill="#36B6CC"/>
<path d="M96.6616 58.8075C100.735 58.8075 104.038 55.505 104.038 51.4311C104.038 47.3572 100.735 44.0547 96.6616 44.0547C92.5877 44.0547 89.2852 47.3572 89.2852 51.4311C89.2852 55.505 92.5877 58.8075 96.6616 58.8075Z" fill="#FFD400"/>
<path d="M96.6598 60.1226L93.651 64.6196L92.8853 59.2598L88.2265 62.0098L89.8657 56.8549L84.4736 57.3079L88.1834 53.3716L83.1256 51.4305L88.1726 49.4893L84.4628 45.5531L89.8549 46.006L88.2157 40.8512L92.8745 43.5904L93.6402 38.2306L96.649 42.7276L99.6578 38.2306L100.423 43.5904L105.082 40.8512L103.443 46.006L108.835 45.5531L105.136 49.5001L110.183 51.4305L105.136 53.3716L108.846 57.3079L103.454 56.8549L105.093 62.0098L100.434 59.2706L99.6686 64.6304C99.6686 64.6196 96.6598 60.1226 96.6598 60.1226ZM96.6598 60.0363C101.416 60.0363 105.276 56.1755 105.276 51.4197C105.276 46.6639 101.416 42.8139 96.6598 42.8139C91.9039 42.8139 88.0432 46.6746 88.0432 51.4305C88.0432 56.1863 91.9039 60.0363 96.6598 60.0363ZM71.457 36.0522C71.457 35.7071 71.7159 35.4375 72.0717 35.4375H73.2904C73.6354 35.4375 73.9051 35.6963 73.9051 36.0522V37.2708C73.9158 37.6051 73.6462 37.8855 73.3011 37.8855H72.0717C71.7374 37.8855 71.457 37.6159 71.457 37.2816V36.0522ZM71.457 40.9806C71.457 40.6355 71.7159 40.3659 72.0717 40.3659H73.2904C73.6354 40.3659 73.9051 40.6247 73.9051 40.9806V42.1992C73.9158 42.5335 73.6462 42.8139 73.3011 42.8139H72.0717C71.7374 42.8139 71.457 42.5443 71.457 42.21V40.9806ZM71.457 45.8982C71.457 45.5531 71.7159 45.2835 72.0717 45.2835H73.2904C73.6354 45.2835 73.9051 45.5423 73.9051 45.8982V47.1168C73.9158 47.4511 73.6462 47.7315 73.3011 47.7315H72.0717C71.7374 47.7315 71.457 47.4619 71.457 47.1276V45.8982ZM71.457 50.8158C71.457 50.4707 71.7159 50.2011 72.0717 50.2011H73.2904C73.6354 50.2011 73.9051 50.4599 73.9051 50.8158V52.0344C73.9158 52.3687 73.6462 52.6491 73.3011 52.6491H72.0717C71.7374 52.6491 71.457 52.3795 71.457 52.0452V50.8158ZM71.457 55.7442C71.457 55.3991 71.7159 55.1295 72.0717 55.1295H73.2904C73.6354 55.1295 73.9051 55.3883 73.9051 55.7442V56.9628C73.9158 57.2971 73.6462 57.5775 73.3011 57.5775H72.0717C71.7374 57.5775 71.457 57.3079 71.457 56.9736V55.7442ZM71.457 60.6618C71.457 60.3167 71.7159 60.0471 72.0717 60.0471H73.2904C73.6354 60.0471 73.9051 60.3059 73.9051 60.6618V61.8804C73.9158 62.2147 73.6462 62.4951 73.3011 62.4951H72.0717C71.7374 62.4951 71.457 62.2255 71.457 61.8912V60.6618ZM71.457 65.5794C71.457 65.2343 71.7159 64.9647 72.0717 64.9647H73.2904C73.6354 64.9647 73.9051 65.2235 73.9051 65.5794V66.798C73.9158 67.1323 73.6462 67.4127 73.3011 67.4127H72.0717C71.7374 67.4127 71.457 67.1431 71.457 66.8088V65.5794ZM73.9158 63.1206C73.9158 62.7755 74.1747 62.5059 74.5305 62.5059H75.7492C76.0943 62.5059 76.3639 62.7647 76.3639 63.1206V64.3392C76.3746 64.6735 76.105 64.9539 75.7599 64.9539H74.5305C74.1962 64.9539 73.9158 64.6843 73.9158 64.35V63.1206ZM73.9158 58.203C73.9158 57.8579 74.1747 57.5883 74.5305 57.5883H75.7492C76.0943 57.5883 76.3639 57.8471 76.3639 58.203V59.4216C76.3746 59.7559 76.105 60.0363 75.7599 60.0363H74.5305C74.1962 60.0363 73.9158 59.7667 73.9158 59.4324V58.203ZM73.9158 53.2746C73.9158 52.9295 74.1747 52.6599 74.5305 52.6599H75.7492C76.0943 52.6599 76.3639 52.9187 76.3639 53.2746V54.4932C76.3746 54.8275 76.105 55.1079 75.7599 55.1079H74.5305C74.1962 55.1079 73.9158 54.8383 73.9158 54.504V53.2746ZM73.9158 48.357C73.9158 48.0119 74.1747 47.7423 74.5305 47.7423H75.7492C76.0943 47.7423 76.3639 48.0011 76.3639 48.357V49.5756C76.3746 49.9099 76.105 50.1903 75.7599 50.1903H74.5305C74.1962 50.1903 73.9158 49.9207 73.9158 49.5864V48.357ZM73.9158 43.4394C73.9158 43.0943 74.1747 42.8247 74.5305 42.8247H75.7492C76.0943 42.8247 76.3639 43.0835 76.3639 43.4394V44.658C76.3746 44.9923 76.105 45.2727 75.7599 45.2727H74.5305C74.1962 45.2727 73.9158 45.0031 73.9158 44.6688V43.4394ZM73.9158 38.5218C73.9158 38.1767 74.1747 37.9071 74.5305 37.9071H75.7492C76.0943 37.9071 76.3639 38.1659 76.3639 38.5218V39.7404C76.3746 40.0747 76.105 40.3551 75.7599 40.3551H74.5305C74.1962 40.3551 73.9158 40.0855 73.9158 39.7512V38.5218Z" fill="#FFD400"/>
</g>
<path d="M67.8158 205.5L68.7364 205.494C75.9374 205.404 81.6316 204.137 81.6316 196.816C81.6316 189.186 75.446 183 67.8158 183C60.1855 183 54 189.186 54 196.816C54 204.446 60.1855 205.5 67.8158 205.5Z" fill="#9CC93A"/>
<path d="M98.8158 205.5L99.7364 205.494C106.937 205.404 112.632 204.137 112.632 196.816C112.632 189.186 106.446 183 98.8158 183C91.1855 183 85 189.186 85 196.816C85 204.446 91.1855 205.5 98.8158 205.5Z" fill="#9CC93A"/>
<path d="M128.816 205.5L129.736 205.494C136.937 205.404 142.632 204.137 142.632 196.816C142.632 189.186 136.446 183 128.816 183C121.186 183 115 189.186 115 196.816C115 204.446 121.186 205.5 128.816 205.5Z" fill="#9CC93A"/>
<path d="M253.561 29.8555C255.088 29.8555 256.327 31.0943 256.327 32.6221C256.327 34.0685 255.217 35.2538 253.802 35.376C254.09 36.0127 254.252 36.7186 254.252 37.4629C254.252 40.2639 251.982 42.5342 249.181 42.5342H257.94C260.741 42.5342 263.013 44.8055 263.013 47.6064H269.929C272.729 47.6066 275 49.8769 275 52.6777C275 55.4786 272.73 57.7498 269.929 57.75H262.332C261.455 59.2653 259.817 60.2852 257.94 60.2852H215.523C213.647 60.2852 212.009 59.2653 211.132 57.75H206.071C203.27 57.7498 201 55.4786 201 52.6777C201 49.8769 203.271 47.6066 206.071 47.6064H210.452C210.452 44.8055 212.722 42.5342 215.523 42.5342H221.748C221.748 39.7334 224.018 37.4629 226.819 37.4629H235.349C235.349 34.6619 237.62 32.3916 240.421 32.3916H249.181C249.746 32.3916 250.288 32.4849 250.796 32.6553C250.796 32.6442 250.795 32.6332 250.795 32.6221C250.795 31.0943 252.033 29.8556 253.561 29.8555Z" fill="white"/>
<path d="M140.047 2C143.684 2 146.634 4.94858 146.634 8.58594C146.634 8.65081 146.631 8.71586 146.629 8.78027H148.184C150.537 8.78048 152.445 10.6884 152.445 13.042H155.738C158.092 13.042 160 14.95 160 17.3037C160 19.6574 158.092 21.5654 155.738 21.5654H153.229C152.493 22.8389 151.116 23.6963 149.539 23.6963H133.461C131.884 23.6963 130.507 22.8389 129.771 21.5654H127.262C124.908 21.5654 123 19.6574 123 17.3037C123 14.95 124.908 13.042 127.262 13.042H127.843C127.843 10.6883 129.751 8.78037 132.104 8.78027H133.466C133.464 8.71585 133.461 8.65081 133.461 8.58594C133.461 4.94867 136.41 2.00015 140.047 2Z" fill="white"/>
</g>
<defs>
<clipPath id="clip0_102_69617">
<rect width="375" height="225" fill="white"/>
</clipPath>
<clipPath id="clip1_102_69617">
<rect width="55.3231" height="36.882" fill="white" transform="translate(69 33)"/>
</clipPath>
</defs>
</svg>
