<svg width="27" height="18" viewBox="0 0 27 18" fill="none" xmlns="http://www.w3.org/2000/svg">
<g clip-path="url(#clip0_109_43755)">
<path d="M0 0H27V18H0V0Z" fill="#E6BE53"/>
<path d="M1.05078 1.05469H25.9455V16.9494H1.05078V1.05469Z" fill="#E01D24"/>
<path d="M13.0796 5.9419C13.3112 6.17348 13.6902 6.17348 13.9218 5.9419L13.6744 6.18927L14.8691 4.99453C15.127 4.75769 15.506 4.69979 15.827 4.84716L15.9375 4.89979C16.2375 5.05243 16.2902 5.35769 16.0586 5.58927L16.306 5.3419L15.106 6.5419C14.8691 6.79979 14.8112 7.17874 14.9586 7.49979L15.0112 7.61032C15.1639 7.91032 15.2796 8.42085 15.2796 8.74716V8.15243C15.2796 8.47874 15.5112 8.63137 15.8165 8.47874L15.927 8.42611C16.227 8.27348 16.2796 7.96821 16.0481 7.73664L16.2954 7.984C16.0639 7.75243 16.0639 7.37348 16.2954 7.1419L16.0481 7.38927C16.3217 7.09979 16.5533 6.77874 16.7375 6.43137L16.7902 6.32085C16.9428 6.02085 17.1217 5.52611 17.206 5.20506L17.5112 3.97874C17.5902 3.66295 17.8217 3.62085 18.0165 3.88401L19.0796 5.29979C19.2796 5.56822 19.4428 6.03664 19.4428 6.384V7.56295C19.4428 7.89453 19.327 8.39453 19.1744 8.70506L19.1217 8.81558C18.9375 9.16295 18.706 9.484 18.4323 9.77348L18.0744 10.1314C17.7902 10.4051 17.4691 10.6366 17.1165 10.8208L17.006 10.8735C16.706 11.0261 16.1902 11.1419 15.8691 11.1419C15.5428 11.1419 15.506 11.2577 15.8112 11.4103L15.9218 11.463C16.2218 11.6156 16.6481 11.9208 16.8796 12.1524L16.6323 11.9051C16.8639 12.1366 17.2428 12.1366 17.4744 11.9051L17.227 12.1524C17.4586 11.9208 17.8375 11.9208 18.0691 12.1524L17.8428 11.8945C18.0849 12.1524 18.1428 12.5314 17.9954 12.8524L17.9428 12.963C17.7902 13.263 17.3954 13.4998 17.0796 13.4998C16.6849 13.484 16.3007 13.3945 15.9428 13.2314L15.8323 13.1787C15.4902 12.9893 15.2112 12.7103 15.0217 12.3682L14.9691 12.2577C14.8165 11.9577 14.5112 11.9051 14.2796 12.1366L14.527 11.8893C14.2954 12.1366 14.2533 12.5103 14.4323 12.7998L14.9744 13.6103C15.1533 13.8787 15.0796 14.2472 14.8112 14.4261L14.0007 14.9682C13.7007 15.1472 13.327 15.1472 13.0218 14.9682L12.2112 14.4261C11.9428 14.2472 11.8691 13.884 12.0481 13.6103L12.5902 12.7998C12.7691 12.5103 12.727 12.1366 12.4954 11.8893L12.7428 12.1366C12.5112 11.9051 12.206 11.9472 12.0533 12.2577L12.0007 12.3682C11.8481 12.6682 11.5007 13.0208 11.1902 13.1787L11.0796 13.2314C10.7796 13.384 10.2639 13.4998 9.9428 13.4998C9.57965 13.484 9.25333 13.2787 9.07965 12.963L9.02701 12.8524C8.87965 12.5314 8.9428 12.1524 9.17965 11.8945L8.93228 12.1419C9.16386 11.9103 9.5428 11.9103 9.77438 12.1419L9.52701 11.8945C9.75859 12.1261 10.1375 12.1261 10.3691 11.8945L10.1218 12.1419C10.4112 11.8682 10.7323 11.6366 11.0796 11.4524L11.1902 11.3998C11.4902 11.2472 11.4533 11.1314 11.1323 11.1314C10.7375 11.1156 10.3533 11.0261 9.99543 10.863L9.88491 10.8103C9.53754 10.6261 9.21649 10.3945 8.92701 10.1208L8.56912 9.76295C8.29544 9.47874 8.06386 9.15769 7.87965 8.80506L7.82701 8.69453C7.66386 8.33664 7.56912 7.94716 7.55859 7.55243V6.36822C7.55859 6.03664 7.72175 5.54716 7.92175 5.284L8.98491 3.86822C9.18491 3.59979 9.41122 3.6419 9.49017 3.96295L9.79544 5.18927C9.9007 5.57348 10.0375 5.94716 10.2112 6.30506L10.2639 6.41558C10.4165 6.71558 10.7218 7.1419 10.9533 7.37348L10.706 7.12611C10.9375 7.35769 10.9375 7.73664 10.706 7.96821L10.9533 7.72085C10.7218 7.95243 10.7639 8.25769 11.0744 8.41032L11.1849 8.46295C11.4849 8.61558 11.7218 8.46295 11.7218 8.13664V8.73137C11.7218 8.40506 11.8375 7.90506 11.9902 7.59453L12.0428 7.484C12.1902 7.16295 12.1323 6.78927 11.8954 6.52611L10.7007 5.33137L10.9481 5.57874C10.7165 5.34716 10.7586 5.0419 11.0691 4.88927L11.1796 4.83664C11.5007 4.68927 11.8744 4.74716 12.1375 4.984L13.3323 6.17874L13.0796 5.9419ZM12.1323 3.79979C11.9007 3.56822 11.9639 3.29979 12.2796 3.19453L12.9323 2.97348C13.2481 2.86822 13.7481 2.86822 14.0639 2.97348L14.7165 3.19453C15.0323 3.29979 15.0954 3.56822 14.8639 3.79979L14.506 4.15769C14.227 4.40506 13.8691 4.55243 13.4954 4.57348C13.1691 4.57348 12.7165 4.38927 12.4849 4.15769C12.4902 4.15769 12.1323 3.79979 12.1323 3.79979Z" fill="#E6BE53"/>
<path d="M12.3086 10.5366C12.3086 10.8629 12.3981 10.8734 12.5296 10.5629C12.5296 10.5629 12.9033 9.34182 13.4981 9.34182C14.0928 9.34182 14.477 10.5839 14.477 10.5839C14.5928 10.8839 14.6875 10.8629 14.6875 10.526V9.93655C14.6875 8.95234 14.156 8.15234 13.4981 8.15234C12.8402 8.15234 12.3086 8.95234 12.3086 9.93655V10.5366Z" fill="#215F90"/>
</g>
<rect x="0.5" y="0.5" width="26" height="17" rx="0.5" stroke="black" stroke-opacity="0.2"/>
<defs>
<clipPath id="clip0_109_43755">
<rect width="27" height="18" rx="1" fill="white"/>
</clipPath>
</defs>
</svg>
