<svg width="27" height="18" viewBox="0 0 27 18" fill="none" xmlns="http://www.w3.org/2000/svg">
<g clip-path="url(#clip0_109_43699)">
<path d="M0 0H27V18H0V0Z" fill="#0052B4"/>
<path d="M13.5 0V6.19162H11.0689L13.5 7.81072V9.00264H12.3082L8.4375 6.42368V9.00264H5.0625V6.42368L1.1918 9.00264H0V7.81072L2.43105 6.19162H0V2.81629H2.43105L0 1.19719V0H1.1918L5.0625 2.57896V0H8.4375V2.57896L12.3082 0H13.5Z" fill="white"/>
<path d="M7.59375 0H5.90625V3.66012H0V5.34779H5.90625V9.00264H7.59375V5.34779H13.5V3.66012H7.59375V0Z" fill="#D80027"/>
<path d="M0 0V0.796367L3.02695 2.81629H4.21875L0 0ZM13.5 0V0.796367L10.473 2.81629H9.28125L13.5 0Z" fill="#D80027"/>
<path d="M13.5014 1.19531V2.81442H11.0703L13.5014 1.19531Z" fill="#2E52B2"/>
<path d="M0 0V0.796367L3.02695 2.81629H4.21875L0 0ZM13.5 0V0.796367L10.473 2.81629H9.28125L13.5 0Z" fill="#D80027"/>
<path d="M13.5014 1.19531V2.81442H11.0703L13.5014 1.19531Z" fill="#2E52B2"/>
<path d="M0 9.00242V8.20606L3.02695 6.19141H4.21875L0 9.00242ZM13.5 9.00242V8.20606L10.473 6.19141H9.28125L13.5 9.00242Z" fill="#D80027"/>
<path d="M23.6705 8.93828C23.6705 9.44457 23.6547 10.4994 23.5967 11.0057C23.3805 12.8463 22.3574 14.6341 20.3219 15.536C17.933 14.592 17.1156 12.8463 16.8994 11.0057C16.8414 10.4994 16.8203 9.98252 16.8203 9.47622L16.8361 6.99219H23.6494L23.6705 8.93828Z" fill="#29DBFF"/>
<path d="M23.5982 11.0078C23.5877 11.0922 23.5771 11.1819 23.5666 11.2662C23.3135 13.0119 22.359 14.7154 20.3234 15.5381C18.0453 14.6416 17.191 13.0119 16.9379 11.2662C16.9273 11.1819 16.9168 11.0975 16.9062 11.0078" fill="white"/>
<path d="M20.3248 13.2756L19.1172 11.0078H21.5324L20.3248 13.2756Z" fill="#29DBFF"/>
<path d="M20.3248 8.74609L19.1172 11.0086H21.5324L20.3248 8.74609Z" fill="white"/>
<path d="M25.0383 14.7743C25.5276 14.7743 25.9242 13.7519 25.9242 12.4907C25.9242 11.2294 25.5276 10.207 25.0383 10.207C24.549 10.207 24.1523 11.2294 24.1523 12.4907C24.1523 13.7519 24.549 14.7743 25.0383 14.7743Z" fill="#FFBE57"/>
<path d="M15.5734 14.7743C16.0627 14.7743 16.4594 13.7519 16.4594 12.4907C16.4594 11.2294 16.0627 10.207 15.5734 10.207C15.0841 10.207 14.6875 11.2294 14.6875 12.4907C14.6875 13.7519 15.0841 14.7743 15.5734 14.7743Z" fill="#FFBE57"/>
<path d="M20.3219 1.66016L18.5605 3.9807H22.1729L20.3219 1.66016ZM16.6357 14.7659C16.6357 14.7659 18.4182 16.3217 20.3219 16.3217C22.2256 16.3217 23.8604 14.7659 23.8604 14.7659L24.3086 15.5359C24.3086 15.5359 23.159 17.1919 20.3219 17.1919C17.4848 17.1919 16.1875 15.5359 16.1875 15.5359L16.6357 14.7659Z" fill="white"/>
<path d="M20.3713 6.7311C21.3703 6.7311 22.1801 6.18093 22.1801 5.50227C22.1801 4.8236 21.3703 4.27344 20.3713 4.27344C19.3723 4.27344 18.5625 4.8236 18.5625 5.50227C18.5625 6.18093 19.3723 6.7311 20.3713 6.7311Z" fill="#A5A5A5"/>
</g>
<rect x="0.5" y="0.5" width="26" height="17" rx="0.5" stroke="black" stroke-opacity="0.2"/>
<defs>
<clipPath id="clip0_109_43699">
<rect width="27" height="18" rx="1" fill="white"/>
</clipPath>
</defs>
</svg>
