<svg width="27" height="18" viewBox="0 0 27 18" fill="none" xmlns="http://www.w3.org/2000/svg">
<g clip-path="url(#clip0_109_43845)">
<path d="M0 0H27V18H0V0Z" fill="#FFDA44"/>
<path d="M0 9.00391H27V13.5026H0V9.00391Z" fill="#0052B4"/>
<path d="M0 13.5H27V17.9987H0V13.5Z" fill="#D80027"/>
<path d="M13.4996 12.1366C15.2296 12.1366 16.632 10.734 16.632 9.00382C16.632 7.27366 15.2296 5.87109 13.4996 5.87109C11.7696 5.87109 10.3672 7.27366 10.3672 9.00382C10.3672 10.734 11.7696 12.1366 13.4996 12.1366Z" fill="#FFDA44"/>
<path d="M19.4691 4.21409C19.4691 4.21409 18.0348 3.48629 17.6814 3.37026C17.3281 3.25423 15.0922 2.6741 15.0922 3.00108C15.0922 3.5443 14.3803 3.63396 14.2748 3.63396C14.1693 3.63396 14.1693 3.35444 13.4943 3.35444C12.8193 3.35444 12.7719 3.60759 12.6611 3.60759C12.5451 3.60759 11.8965 3.55485 11.8965 3.00108C11.8965 2.72684 9.63418 3.21204 9.30723 3.37026C8.98555 3.53375 7.51953 4.21409 7.51953 4.21409C7.51953 4.21409 9.93477 4.35649 10.3619 4.54108C10.7891 4.72566 12.6717 5.41128 12.6717 5.41128L12.524 6.11271H14.5174L14.317 5.41128C14.317 5.41128 16.168 4.74149 16.6268 4.54108C17.0855 4.34067 19.4691 4.21409 19.4691 4.21409Z" fill="#4C1F00"/>
<path d="M11.4805 9.05572C11.4805 10.1685 12.3875 11.0756 13.5002 11.0756C14.6129 11.0756 15.5199 10.1685 15.5199 9.05572V8.44922H11.4857V9.05572H11.4805Z" fill="#57BA17"/>
<path d="M13.5002 5.82812C12.3875 5.82812 11.4805 6.73524 11.4805 7.84805V8.45455H15.5146V7.84805C15.5199 6.73524 14.6129 5.82812 13.5002 5.82812Z" fill="#338AF3"/>
</g>
<rect x="0.5" y="0.5" width="26" height="17" rx="0.5" stroke="black" stroke-opacity="0.2"/>
<defs>
<clipPath id="clip0_109_43845">
<rect width="27" height="18" rx="1" fill="white"/>
</clipPath>
</defs>
</svg>
