<svg width="114" height="128" viewBox="0 0 114 128" fill="none" xmlns="http://www.w3.org/2000/svg">
<ellipse cx="57.0015" cy="60.6321" rx="10.1538" ry="3.36842" fill="#292929" fill-opacity="0.2"/>
<path fill-rule="evenodd" clip-rule="evenodd" d="M57 60.6316C58.5729 60.6316 79 43.7896 79 22.39C79 10.0244 69.1505 0 57 0C44.8499 0 35 10.0244 35 22.39C35 43.7896 55.4274 60.6316 57 60.6316Z" fill="#DB0007"/>
<path fill-rule="evenodd" clip-rule="evenodd" d="M62.5537 12.7374C64.7441 12.7374 66.5189 21.9275 66.5189 33.2635H69.6932C69.6932 21.0545 66.4964 11.1582 62.5537 11.1582C60.3104 11.1582 58.3092 14.1331 57.0009 18.7838C55.6926 14.1331 53.6914 11.1582 51.4481 11.1582C47.5064 11.1582 44.3086 21.0545 44.3086 33.2635H47.4829C47.4829 21.9275 49.2587 12.7374 51.4481 12.7374C53.6384 12.7374 55.4142 21.2203 55.4142 31.6843H58.5876C58.5876 21.2203 60.3634 12.7374 62.5537 12.7374Z" fill="#FFBC0D"/>
</svg>
