<svg width="375" height="225" viewBox="0 0 375 225" fill="none" xmlns="http://www.w3.org/2000/svg">
<g clip-path="url(#clip0_102_69650)">
<path d="M184.5 4C262.096 4 325 66.904 325 144.5C325 163.443 321.249 181.51 314.453 198H54.5469C47.7506 181.51 44 163.443 44 144.5C44 66.904 106.904 4 184.5 4Z" fill="#DCEDF4"/>
<ellipse cx="184" cy="203" rx="153" ry="14" fill="#A0A09F" fill-opacity="0.15"/>
<path d="M316 97V124H264L264.005 97H316Z" fill="#FFBC0D"/>
<path d="M190.926 120H77V97H191L190.926 120Z" fill="#FFBC0D"/>
<path d="M191 99L190.97 108H77V99H191Z" fill="black" fill-opacity="0.1"/>
<path d="M316 99V108H264L264.002 99H316Z" fill="black" fill-opacity="0.1"/>
<path d="M264 124H287V203H264V124Z" fill="#F9F9F9"/>
<path d="M288 124H316V203H288V124Z" fill="#F9F9F9"/>
<path d="M191 89L190.967 98.999L73.8004 99C72.8061 99 72 98.1942 72 97.2002V90.8008C72 89.8068 72.8061 89.001 73.8004 89.001L191 89Z" fill="#FFBC0D"/>
<path d="M318.212 89.001C319.2 89.001 320 89.8068 320 90.8008V97.2002C320 98.1942 319.2 99 318.212 99L264 98.999L264.002 89L318.212 89.001Z" fill="#FFBC0D"/>
<path d="M260.5 74.5234L260.473 202.998H194.569L194.5 74.5234L260.5 74.5234Z" fill="#F1F1F1"/>
<path d="M59.8 124H244.443C245.437 124 246.243 124.806 246.243 125.8V140H58V125.8C58 124.806 58.8059 124 59.8 124Z" fill="#606060"/>
<path d="M195 140H246V203H195V140Z" fill="#D8D8D8"/>
<path d="M109 140H137V203H109V140Z" fill="#F9F9F9"/>
<path d="M138 140H166V203H138V140Z" fill="#F9F9F9"/>
<path d="M167 140H195V203H167V140Z" fill="#F9F9F9"/>
<path d="M218 154H246V203H218V154Z" fill="#F9F9F9"/>
<path d="M58 198H109V204H58V198Z" fill="#A5835B"/>
<path d="M58 192H109V198H58V192Z" fill="#C2945C"/>
<path d="M58 187H109V193H58V187Z" fill="#A5835B"/>
<path d="M58 182H109V188H58V182Z" fill="#C2945C"/>
<path d="M58 177H109V183H58V177Z" fill="#A5835B"/>
<path d="M58 171H109V177H58V171Z" fill="#C2945C"/>
<path d="M58 166H109V172H58V166Z" fill="#A5835B"/>
<path d="M58 161H109V167H58V161Z" fill="#C2945C"/>
<path d="M58 156H109V162H58V156Z" fill="#A5835B"/>
<path d="M58 150H109V156H58V150Z" fill="#C2945C"/>
<path d="M58 145H109V151H58V145Z" fill="#A5835B"/>
<path d="M58 140H109V146H58V140Z" fill="#C2945C"/>
<path d="M136 140H140V203H136V140Z" fill="#D8D8D8"/>
<path d="M286 124H290V203H286V124Z" fill="#D8D8D8"/>
<path d="M312 124H316V203H312V124Z" fill="#D8D8D8"/>
<path d="M165 140H169V203H165V140Z" fill="#D8D8D8"/>
<path d="M218 154H246V160H218V154Z" fill="#A0A09F" fill-opacity="0.15"/>
<path d="M195 140H246V143H195V140Z" fill="#292929" fill-opacity="0.1"/>
<path d="M165 140H169V146H165V140Z" fill="#292929" fill-opacity="0.1"/>
<path d="M136 140H140V146H136V140Z" fill="#292929" fill-opacity="0.1"/>
<path d="M109 140H136V145H109V140Z" fill="#A0A09F" fill-opacity="0.15"/>
<path d="M140 140H165V145H140V140Z" fill="#A0A09F" fill-opacity="0.15"/>
<path d="M169 140H195V145H169V140Z" fill="#A0A09F" fill-opacity="0.15"/>
<path fill-rule="evenodd" clip-rule="evenodd" d="M236.023 86.7959C239.143 86.7959 241.672 99.9528 241.672 116.182H246.195C246.195 98.703 241.64 84.5352 236.023 84.5352C232.826 84.5352 229.975 88.7942 228.111 95.4522C226.247 88.7942 223.396 84.5352 220.2 84.5352C214.584 84.5352 210.027 98.703 210.027 116.182H214.55C214.55 99.9528 217.08 86.7959 220.2 86.7959C223.32 86.7959 225.85 98.9404 225.85 113.921H230.372C230.372 98.9404 232.902 86.7959 236.023 86.7959Z" fill="#FFBC0D"/>
<rect x="63" y="33" width="6" height="170" fill="#F9F9F9"/>
<rect x="66" y="33" width="3" height="170" fill="#F1F1F1"/>
<path d="M66 26C68.2091 26 70 27.7909 70 30C70 31.195 69.4754 32.267 68.6445 33H63.3555C62.5246 32.267 62 31.195 62 30C62 27.7909 63.7909 26 66 26Z" fill="#FFBC0D"/>
<path opacity="0.5" d="M66 26C67.3598 26 68.5605 26.6789 69.2832 27.7158C68.6357 27.2648 67.8489 27 67 27C64.7909 27 63 28.7909 63 31C63 31.8496 63.2659 32.6366 63.7178 33.2842C62.6799 32.5616 62 31.3605 62 30C62 27.7909 63.7909 26 66 26Z" fill="#F9F9F9"/>
<g clip-path="url(#clip1_102_69650)">
<path d="M69 33H124.323V69.882H69V33Z" fill="#E52D42"/>
<path d="M111.416 40.3531H106.477L102.832 49.002L99.122 46.5324C99.122 46.5324 96.4583 40.159 95.4122 39.1776C94.3661 38.1315 93.3955 39.1129 90.1387 40.0188C86.9466 40.9246 86.8172 42.0354 85.5878 42.0354C85.0701 42.0354 83.4417 40.1482 82.6005 39.6305C81.2956 38.7894 80.778 39.1776 81.1015 40.407C81.2309 40.9246 82.277 41.5825 82.9241 42.5531C83.7652 43.7932 84.2937 45.3462 84.2937 45.3462C84.2937 45.3462 85.4691 44.2354 86.1162 44.0413C87.0868 43.7825 88.1975 44.2354 89.5024 44.0413C91.1309 43.7825 92.8887 42.8658 92.8887 42.8658L93.3416 47.5461C93.3416 47.5461 87.4858 53.0137 88.0034 55.1598C88.5211 57.3059 94.0534 59.9696 95.3583 61.9215C96.6632 63.8088 94.5818 64.5205 94.5818 65.4372C94.5818 66.3538 94.3877 67.5832 95.3583 67.195C96.3288 66.8068 96.469 65.2431 97.3749 63.8088C98.022 62.8382 98.4857 62.3097 98.6151 61.9215C98.8092 60.9509 96.0808 58.4706 94.5818 56.648C93.87 55.8069 92.4357 54.6314 92.4357 54.6314L96.6632 51.4393C96.6632 51.4393 103.953 54.4265 105.571 53.4559C107.199 52.4853 107.652 42.855 107.652 42.855L112.721 41.6148L111.416 40.3531Z" fill="white"/>
<path d="M99.12 61.2994C98.473 61.2994 97.8799 60.7817 97.8799 60.0592C97.8799 59.3366 98.3975 58.819 99.12 58.819C99.7671 58.819 100.36 59.3366 100.36 60.0592C100.36 60.7817 99.7671 61.2994 99.12 61.2994ZM104.059 41.5858C103.412 41.5858 102.819 41.0682 102.819 40.3457C102.819 39.6231 103.337 39.1055 104.059 39.1055C104.706 39.1055 105.299 39.6231 105.299 40.3457C105.299 41.0682 104.706 41.5858 104.059 41.5858ZM104.059 51.4102C103.412 51.4102 102.819 50.8926 102.819 50.1701C102.819 49.523 103.337 48.9299 104.059 48.9299C104.706 48.9299 105.299 49.4475 105.299 50.1701C105.235 50.8926 104.706 51.4102 104.059 51.4102ZM89.2956 56.3494C88.6486 56.3494 88.0554 55.8318 88.0554 55.1092C88.0554 54.4622 88.5731 53.869 89.2956 53.869C90.0074 53.869 90.5358 54.3867 90.5358 55.1092C90.5358 55.8318 89.9427 56.3494 89.2956 56.3494ZM94.1701 41.5858C93.523 41.5858 92.9299 41.0682 92.9299 40.3457C92.9299 39.6231 93.4475 39.1055 94.1701 39.1055C94.8171 39.1055 95.4103 39.6231 95.4103 40.3457C95.4103 41.0682 94.8926 41.5858 94.1701 41.5858ZM96.6397 51.4102C95.9926 51.4102 95.3995 50.2995 95.3995 48.9407C95.3995 47.5819 95.9171 46.4711 96.6397 46.4711C97.2867 46.4711 97.8799 47.5819 97.8799 48.9407C97.8799 50.2995 97.3622 51.4102 96.6397 51.4102ZM84.3457 46.5358C83.6986 46.5358 83.1055 46.0181 83.1055 45.2956C83.1055 44.5838 83.6231 44.0554 84.3457 44.0554C85.0574 44.0554 85.5858 44.5731 85.5858 45.2956C85.5858 46.0074 85.0682 46.5358 84.3457 46.5358Z" fill="#F8DD4E"/>
</g>
<path d="M67.8158 205.5L68.7364 205.494C75.9374 205.404 81.6316 204.137 81.6316 196.816C81.6316 189.186 75.446 183 67.8158 183C60.1855 183 54 189.186 54 196.816C54 204.446 60.1855 205.5 67.8158 205.5Z" fill="#9CC93A"/>
<path d="M98.8158 205.5L99.7364 205.494C106.937 205.404 112.632 204.137 112.632 196.816C112.632 189.186 106.446 183 98.8158 183C91.1855 183 85 189.186 85 196.816C85 204.446 91.1855 205.5 98.8158 205.5Z" fill="#9CC93A"/>
<path d="M128.816 205.5L129.736 205.494C136.937 205.404 142.632 204.137 142.632 196.816C142.632 189.186 136.446 183 128.816 183C121.186 183 115 189.186 115 196.816C115 204.446 121.186 205.5 128.816 205.5Z" fill="#9CC93A"/>
<path d="M253.561 29.8555C255.088 29.8555 256.327 31.0943 256.327 32.6221C256.327 34.0685 255.217 35.2538 253.802 35.376C254.09 36.0127 254.252 36.7186 254.252 37.4629C254.252 40.2639 251.982 42.5342 249.181 42.5342H257.94C260.741 42.5342 263.013 44.8055 263.013 47.6064H269.929C272.729 47.6066 275 49.8769 275 52.6777C275 55.4786 272.73 57.7498 269.929 57.75H262.332C261.455 59.2653 259.817 60.2852 257.94 60.2852H215.523C213.647 60.2852 212.009 59.2653 211.132 57.75H206.071C203.27 57.7498 201 55.4786 201 52.6777C201 49.8769 203.271 47.6066 206.071 47.6064H210.452C210.452 44.8055 212.722 42.5342 215.523 42.5342H221.748C221.748 39.7334 224.018 37.4629 226.819 37.4629H235.349C235.349 34.6619 237.62 32.3916 240.421 32.3916H249.181C249.746 32.3916 250.288 32.4849 250.796 32.6553C250.796 32.6442 250.795 32.6332 250.795 32.6221C250.795 31.0943 252.033 29.8556 253.561 29.8555Z" fill="white"/>
<path d="M140.047 2C143.684 2 146.634 4.94858 146.634 8.58594C146.634 8.65081 146.631 8.71586 146.629 8.78027H148.184C150.537 8.78048 152.445 10.6884 152.445 13.042H155.738C158.092 13.042 160 14.95 160 17.3037C160 19.6574 158.092 21.5654 155.738 21.5654H153.229C152.493 22.8389 151.116 23.6963 149.539 23.6963H133.461C131.884 23.6963 130.507 22.8389 129.771 21.5654H127.262C124.908 21.5654 123 19.6574 123 17.3037C123 14.95 124.908 13.042 127.262 13.042H127.843C127.843 10.6883 129.751 8.78037 132.104 8.78027H133.466C133.464 8.71585 133.461 8.65081 133.461 8.58594C133.461 4.94867 136.41 2.00015 140.047 2Z" fill="white"/>
</g>
<defs>
<clipPath id="clip0_102_69650">
<rect width="375" height="225" fill="white"/>
</clipPath>
<clipPath id="clip1_102_69650">
<rect width="55.3231" height="36.882" fill="white" transform="translate(69 33)"/>
</clipPath>
</defs>
</svg>
