<svg width="27" height="18" viewBox="0 0 27 18" fill="none" xmlns="http://www.w3.org/2000/svg">
<g clip-path="url(#clip0_109_43763)">
<path d="M0 0H27V18.0002H0V0Z" fill="#FFDA44"/>
<path d="M20.2434 17.9999L13.5 8.80432L14.9147 17.9999H20.2434ZM7.04347 0L13.5 8.80432L12.1455 0H7.04347ZM12.0852 17.9999L13.5 8.80432L6.75654 17.9999H12.0852ZM0 0V6.72732L13.5 8.80432L1.49412 0H0ZM0 17.9999H0.960398L13.5 8.80432L0 10.8812V17.9999ZM13.5 8.80432L27 6.72732V0H25.506L13.5 8.80432ZM14.8545 0L13.5 8.80432L19.9565 0H14.8545ZM27 17.9999V10.8813L13.5 8.80432L26.0395 17.9999H27Z" fill="#D80027"/>
<path d="M13.5014 11.9363C15.2301 11.9363 16.6316 10.5348 16.6316 8.80603C16.6316 7.07724 15.2301 5.67578 13.5014 5.67578C11.7726 5.67578 10.3711 7.07724 10.3711 8.80603C10.3711 10.5348 11.7726 11.9363 13.5014 11.9363Z" fill="#D80027"/>
<path d="M13.5002 11.1527C14.7969 11.1527 15.848 10.1016 15.848 8.80487C15.848 7.5082 14.7969 6.45703 13.5002 6.45703C12.2035 6.45703 11.1523 7.5082 11.1523 8.80487C11.1523 10.1016 12.2035 11.1527 13.5002 11.1527Z" fill="#FFDA44"/>
</g>
<rect x="0.5" y="0.5" width="26" height="17" rx="0.5" stroke="black" stroke-opacity="0.2"/>
<defs>
<clipPath id="clip0_109_43763">
<rect width="27" height="18" rx="1" fill="white"/>
</clipPath>
</defs>
</svg>
