<svg width="44" height="44" viewBox="0 0 44 44" fill="none" xmlns="http://www.w3.org/2000/svg">
<path d="M26.7323 8.82337C17.5078 7.83942 12.8443 18.2528 11.6656 23.5826C30.125 19.1817 31.8058 33.1145 40.1078 29.8859C43.7976 20.0465 38.2629 10.0533 26.7323 8.82337Z" fill="#6F6F6F"/>
<path fill-rule="evenodd" clip-rule="evenodd" d="M10.6642 24.6005L10.9256 23.4189C11.5324 20.6749 13.0314 16.626 15.5853 13.3677C18.1484 10.0975 21.8515 7.54043 26.8127 8.06963C32.7902 8.70722 37.2773 11.6297 39.7752 15.7318C42.2699 19.8289 42.7373 25.0328 40.8176 30.1521L40.6986 30.4695L40.3826 30.5924C38.0792 31.4881 36.1968 31.1858 34.4261 30.3261C33.5627 29.9068 32.7276 29.3568 31.892 28.7703C31.5865 28.556 31.2843 28.3391 30.9791 28.1202C30.4312 27.7272 29.8741 27.3276 29.2731 26.9238C27.432 25.687 25.3215 24.5136 22.5663 23.905C19.8117 23.2965 16.3628 23.2419 11.8415 24.3199L10.6642 24.6005ZM11.866 22.7575C11.7906 23.0436 11.7239 23.3193 11.6656 23.5826C11.943 23.5164 12.2167 23.4544 12.4866 23.3964C22.6496 21.2134 27.5528 24.73 31.4359 27.515C34.3119 29.5777 36.6283 31.2391 40.1078 29.8859C43.7976 20.0465 38.2629 10.0533 26.7323 8.82337C17.9635 7.88802 13.3162 17.2519 11.866 22.7575Z" fill="#6F6F6F"/>
<path fill-rule="evenodd" clip-rule="evenodd" d="M26.9034 8.84216C25.9027 9.00984 19.665 10.5354 16.2782 22.8135C16.292 22.8181 16.3058 22.8227 16.3196 22.8274C14.8871 22.9128 13.3421 23.1515 11.6661 23.5825C12.8448 18.2527 17.5083 7.83933 26.7328 8.82327C26.7898 8.82935 26.8467 8.83565 26.9034 8.84216Z" fill="#6F6F6F"/>
<path d="M16.2783 22.8139C19.9678 9.43837 27.0405 8.82341 27.0405 8.82341C27.0405 8.82341 39.032 12.6669 33.9589 29.4248C23.9654 29.7323 22.7354 24.9663 16.2783 22.8139Z" fill="#6F6F6F"/>
<path fill-rule="evenodd" clip-rule="evenodd" d="M28.9404 16.9904C29.4459 17.1687 29.1038 19.4445 28.1764 22.0737L28.9092 22.3322C29.9078 19.501 29.9793 16.9453 29.0695 16.6244C28.552 16.4419 27.8465 16.9684 27.1642 17.9408C27.2425 16.7554 27.024 15.9029 26.5065 15.7203C25.5963 15.3993 24.0489 17.4344 23.0502 20.2656L23.7826 20.5239C24.71 17.8947 25.8719 15.908 26.3774 16.0863C26.8829 16.2646 26.5989 18.377 25.743 20.8034L26.4754 21.0617C27.3312 18.6353 28.4349 16.8121 28.9404 16.9904Z" fill="#6F6F6F"/>
<path d="M14.374 27.0618C14.443 28.0198 11.1042 31.6581 8.12996 32.1918C5.15568 32.7255 2.65028 31.4231 2.41147 30.0923C2.08843 28.292 4.23769 26.4 7.21198 25.8663C10.1863 25.3326 14.0509 25.2616 14.374 27.0618Z" fill="#6F6F6F"/>
<path fill-rule="evenodd" clip-rule="evenodd" d="M3.82564 27.7888C3.01082 28.5061 2.65544 29.3061 2.78449 30.0253C2.86946 30.4988 3.40387 31.0832 4.38978 31.4911C5.34866 31.8877 6.64489 32.0733 8.06301 31.8188C9.44621 31.5706 10.96 30.5836 12.1373 29.5063C12.7209 28.9723 13.2065 28.43 13.5385 27.9705C13.7048 27.7403 13.8273 27.5382 13.9046 27.374C13.9757 27.2229 13.9931 27.1362 13.9957 27.1019C13.9349 26.8133 13.7353 26.5725 13.3609 26.3762C12.9676 26.1699 12.4155 26.0339 11.7487 25.9659C10.4192 25.8303 8.74803 25.9757 7.2789 26.2393C5.84832 26.496 4.63429 27.077 3.82564 27.7888ZM3.32479 27.2199C4.25359 26.4022 5.60132 25.7703 7.14503 25.4933C8.65018 25.2232 10.3985 25.0663 11.8256 25.2118C12.5372 25.2844 13.1978 25.4348 13.7129 25.7048C14.2353 25.9788 14.6394 26.3953 14.747 26.9949L14.7505 27.0146L14.752 27.0346C14.7678 27.2541 14.6883 27.4888 14.5904 27.6969C14.4867 27.917 14.3364 28.1605 14.1529 28.4144C13.7853 28.9232 13.2633 29.5035 12.649 30.0655C11.4307 31.1803 9.78797 32.2794 8.19689 32.5649C6.64072 32.8441 5.19712 32.6453 4.10003 32.1915C3.02996 31.7488 2.19227 31.0166 2.03842 30.1592C1.84444 29.0782 2.40217 28.0321 3.32479 27.2199Z" fill="#6F6F6F"/>
<path d="M33.8048 29.6672C25.0416 24.7474 19.8144 21.8889 11.5123 23.5175L4.90143 26.5923C15.0484 23.7989 25.5028 40.7105 33.8048 29.6672Z" fill="#6F6F6F"/>
<path fill-rule="evenodd" clip-rule="evenodd" d="M11.6303 23.8806L7.29578 25.8967C9.10876 25.8979 10.909 26.3866 12.6723 27.0957C14.4339 27.8041 16.1986 28.7511 17.9195 29.6746C18.6955 30.0911 19.4627 30.5028 20.2166 30.8856C22.6735 32.1333 25.0042 33.0846 27.2114 33.0739C29.2854 33.0639 31.3009 32.2022 33.236 29.7826C24.7107 25.0002 19.6335 22.3244 11.6303 23.8806ZM11.4394 23.1456C19.8949 21.4869 25.238 24.4231 33.9904 29.3368L34.3681 29.5488L34.1078 29.895C31.9729 32.7348 29.658 33.8201 27.215 33.8319C24.8099 33.8435 22.3362 32.8121 19.8734 31.5615C19.0856 31.1614 18.3 30.7397 17.5145 30.3181C15.813 29.4047 14.1118 28.4915 12.3895 27.799C9.88635 26.7924 7.42312 26.2913 5.00206 26.9578C4.81205 27.0101 4.61366 26.908 4.54571 26.7231C4.47776 26.5381 4.56293 26.3319 4.74163 26.2487L11.3942 23.1545L11.4394 23.1456Z" fill="#6F6F6F"/>
<path fill-rule="evenodd" clip-rule="evenodd" d="M11.6303 23.8806L7.29578 25.8967C9.10876 25.8979 10.909 26.3866 12.6723 27.0957C14.4339 27.8041 16.1986 28.7511 17.9195 29.6746C18.6955 30.0911 19.4627 30.5028 20.2166 30.8856C22.6735 32.1333 25.0042 33.0846 27.2114 33.0739C29.2854 33.0639 31.3009 32.2022 33.236 29.7826C24.7107 25.0002 19.6335 22.3244 11.6303 23.8806ZM11.4394 23.1456C19.8949 21.4869 25.238 24.4231 33.9904 29.3368L34.3681 29.5488L34.1078 29.895C31.9729 32.7348 29.658 33.8201 27.215 33.8319C24.8099 33.8435 22.3362 32.8121 19.8734 31.5615C19.0856 31.1614 18.3 30.7397 17.5145 30.3181C15.813 29.4047 14.1118 28.4915 12.3895 27.799C9.88635 26.7924 7.42312 26.2913 5.00206 26.9578C4.81205 27.0101 4.61366 26.908 4.54571 26.7231C4.47776 26.5381 4.56293 26.3319 4.74163 26.2487L11.3942 23.1545L11.4394 23.1456Z" fill="#6F6F6F"/>
<path fill-rule="evenodd" clip-rule="evenodd" d="M7.31845 25.9185L11.653 23.9024C19.6562 22.3461 24.7334 25.022 33.2587 29.8044C31.3236 32.224 29.3081 33.0856 27.234 33.0957C25.0269 33.1063 22.6962 32.155 20.2393 30.9074C19.4854 30.5246 18.7183 30.1129 17.9423 29.6964L17.9422 29.6964C16.2213 28.7729 14.4566 27.8259 12.695 27.1175C10.9316 26.4084 9.13144 25.9197 7.31845 25.9185ZM13.3797 28.2325C13.0578 28.0884 12.7354 27.9507 12.4122 27.8207C9.96725 26.8376 7.5604 26.3366 5.19373 26.935C4.67251 27.1872 4.218 27.4853 3.84824 27.8108C3.03342 28.5281 2.67804 29.3281 2.8071 30.0474C2.89206 30.5209 3.42647 31.1052 4.41238 31.5131C5.37126 31.9098 6.66749 32.0953 8.08561 31.8408C9.46882 31.5926 10.9826 30.6057 12.16 29.5284C12.6448 29.0847 13.062 28.6354 13.3797 28.2325Z" fill="#292929"/>
<path d="M25.4955 8.78125C17.3386 8.78129 13.0418 17.9012 11.7539 23.1034C11.7541 23.1034 11.7542 23.1034 11.7544 23.1033C11.7544 23.1033 11.7544 23.1033 11.7544 23.1033C13.3606 22.8091 14.8554 22.6827 16.2851 22.7056C16.3463 22.7065 16.4074 22.7078 16.4684 22.7093C16.7976 22.7175 17.1235 22.7337 17.4465 22.7576C17.4509 22.7574 17.4552 22.7572 17.4595 22.7571C22.8506 23.1455 27.4222 25.5932 33.9081 29.2344C33.9088 29.2321 33.9095 29.2297 33.9102 29.2273C35.7901 30.3299 37.6513 30.8528 40.0783 29.9089C43.7638 20.0808 38.2461 10.0993 26.7426 8.85063C26.7295 8.84918 26.7164 8.84775 26.7032 8.84635C26.2916 8.80244 25.8891 8.78123 25.4955 8.78125Z" fill="#6F6F6F"/>
<path d="M33.9584 29.2344C27.007 25.3319 22.2545 22.8003 16.3354 22.7056C14.9057 22.6827 13.4108 22.8091 11.8047 23.1034C13.1547 17.6503 17.8108 7.89246 26.7536 8.84635C35.7481 9.80577 35.7149 23.3776 33.9584 29.2344Z" fill="#292929"/>
<path fill-rule="evenodd" clip-rule="evenodd" d="M28.9608 17.0134C29.4663 17.1917 29.1241 19.4675 28.1967 22.0968L28.9295 22.3553C29.9282 19.5241 29.9997 16.9684 29.0899 16.6475C28.5724 16.4649 27.8669 16.9915 27.1846 17.9639C27.2629 16.7785 27.0444 15.9259 26.5268 15.7434C25.6166 15.4223 24.0693 17.4575 23.0706 20.2887L23.803 20.547C24.7304 17.9177 25.8923 15.9311 26.3977 16.1094C26.9032 16.2877 26.6192 18.4 25.7634 20.8265L26.4957 21.0848C27.3516 18.6584 28.4553 16.8351 28.9608 17.0134Z" fill="#FFBC0D"/>
<path fill-rule="evenodd" clip-rule="evenodd" d="M17.5149 30.3182C16.3664 29.7017 15.218 29.0853 14.0632 28.5367C13.7026 29.0152 13.2151 29.5482 12.6495 30.0657C11.4311 31.1805 9.7884 32.2796 8.19732 32.5651C6.64116 32.8443 5.19756 32.6455 4.10046 32.1917C3.03039 31.749 2.1927 31.0167 2.03885 30.1594C1.84487 29.0784 2.4026 28.0322 3.32522 27.22C3.69378 26.8956 4.1283 26.6004 4.61485 26.345C4.64898 26.3054 4.69183 26.2723 4.74206 26.2489L10.9375 23.3673C11.5517 20.6243 13.0479 16.6058 15.5857 13.3679C18.1489 10.0977 21.8519 7.5406 26.8132 8.0698C32.7906 8.70739 37.2778 11.6299 39.7756 15.732C42.2704 19.8291 42.7378 25.033 40.818 30.1522L40.699 30.4697L40.383 30.5925C38.0796 31.4883 36.1972 31.186 34.4265 30.3262C34.2707 30.2506 34.1158 30.1706 33.9617 30.087C31.8675 32.784 29.6026 33.8205 27.2155 33.832C24.8104 33.8437 22.3367 32.8123 19.8738 31.5616C19.0861 31.1616 18.3004 30.7399 17.5149 30.3182ZM17.2808 30.7601L17.2785 30.7588C16.2484 30.2059 15.2287 29.6586 14.2071 29.1608C13.8647 29.5753 13.4496 30.0114 12.987 30.4346C11.7416 31.5741 10.0138 32.7471 8.28563 33.0572C6.63841 33.3528 5.0976 33.1452 3.90933 32.6537C2.78463 32.1884 1.7461 31.3588 1.54671 30.2477C1.3098 28.9274 2.00178 27.719 2.99484 26.8447C3.37885 26.5067 3.82383 26.2019 4.31502 25.9381C4.37844 25.8812 4.45094 25.8329 4.53119 25.7956L10.505 23.017C11.1626 20.2317 12.6705 16.2767 15.1922 13.0594C17.819 9.708 21.6745 7.01884 26.8662 7.57262C32.9835 8.22513 37.6163 11.2245 40.2027 15.472C42.7839 19.711 43.2553 25.0769 41.2862 30.3278L41.0886 30.8546L40.5642 31.0585C38.1104 32.0128 36.0824 31.686 34.2081 30.776C34.1705 30.7577 34.133 30.7392 34.0955 30.7205C31.9906 33.2818 29.6782 34.3201 27.2179 34.332C24.6823 34.3443 22.1143 33.2601 19.6474 32.0074C18.8546 31.6048 18.0647 31.1808 17.2808 30.7601Z" fill="white"/>
<path d="M39 40C39 41.1046 30.9411 42 21 42C11.0589 42 3 41.1046 3 40C3 38.8954 11.0589 38 21 38C30.9411 38 39 38.8954 39 40Z" fill="#A0A09F" fill-opacity="0.15"/>
</svg>
