<svg width="27" height="18" viewBox="0 0 27 18" fill="none" xmlns="http://www.w3.org/2000/svg">
<g clip-path="url(#clip0_109_43769)">
<path d="M0 0H27V18H0V0Z" fill="white"/>
<path d="M0 0H27V2H0V0ZM0 4H27V6H0V4ZM0 8H27V10H0V8ZM0 12H27V14H0V12ZM0 16H27V18H0V16Z" fill="#0D5EAF"/>
<path d="M0 0H10V9.99998H0V0Z" fill="#0D5EAF"/>
<path d="M0 4H10V6H0V4Z" fill="white"/>
<path d="M4 0H6V9.99998H4V0Z" fill="white"/>
</g>
<rect x="0.5" y="0.5" width="26" height="17" rx="0.5" stroke="black" stroke-opacity="0.2"/>
<defs>
<clipPath id="clip0_109_43769">
<rect width="27" height="18" rx="1" fill="white"/>
</clipPath>
</defs>
</svg>
