<svg width="27" height="18" viewBox="0 0 27 18" fill="none" xmlns="http://www.w3.org/2000/svg">
<g clip-path="url(#clip0_109_43731)">
<path d="M0 0H27V18H0V0Z" fill="white"/>
<path d="M0 0.0117188H27V4.78541H0V0.0117188ZM0.0263158 13.2275H27V18.0012H0.0263158V13.2275Z" fill="#D80027"/>
<path d="M15.2785 10.1842L13.4732 6.87891L11.668 10.1842H13.0206V11.0894H13.9259V10.1842H15.2785Z" fill="#6DA544"/>
<path d="M12.6989 11.2175C12.9305 10.9859 12.9305 10.6069 12.6936 10.3754L12.941 10.6227C12.6673 10.3754 12.2989 10.2754 11.9358 10.3438L10.6989 10.6543C10.3779 10.7333 10.341 10.6333 10.6042 10.4333L12.0305 9.36484C12.2989 9.16484 12.2515 9.00169 11.9094 9.00169H11.3305C10.9936 9.00169 10.9621 8.88063 11.2515 8.73326L12.5831 8.06484C12.8779 7.91748 12.8515 7.79642 12.5042 7.79642H11.9252C11.5884 7.79642 11.5358 7.63326 11.8042 7.43326L13.2305 6.36484C13.5252 6.16484 13.9094 6.16484 14.2042 6.36484L15.6305 7.43326C15.8989 7.63326 15.8515 7.79642 15.5094 7.79642H14.9305C14.5936 7.79642 14.5621 7.91748 14.8515 8.06484L16.1831 8.73326C16.4778 8.88063 16.4515 9.00169 16.1042 9.00169H15.5252C15.1884 9.00169 15.1357 9.16484 15.4042 9.36484L16.8305 10.4333C17.0989 10.6333 17.0621 10.7333 16.7357 10.6543L15.4989 10.3438C15.141 10.2754 14.7673 10.3754 14.4936 10.6227L14.741 10.3754C14.5094 10.6069 14.5042 10.9806 14.7357 11.2175L15.0936 11.5754C15.3252 11.8069 15.2568 11.9964 14.92 11.9964H12.5094C12.1831 11.9964 12.1042 11.8069 12.3357 11.5754C12.341 11.5806 12.6989 11.2175 12.6989 11.2175Z" fill="#14AF5A"/>
</g>
<rect x="0.5" y="0.5" width="26" height="17" rx="0.5" stroke="black" stroke-opacity="0.2"/>
<defs>
<clipPath id="clip0_109_43731">
<rect width="27" height="18" rx="1" fill="white"/>
</clipPath>
</defs>
</svg>
