<svg width="153" height="98" viewBox="0 0 153 98" fill="none" xmlns="http://www.w3.org/2000/svg">
<rect x="1.5" y="9" width="150" height="80" rx="40" fill="white"/>
<path d="M114.38 32.7812C111.032 32.7812 108.046 37.2429 106.089 44.2194C104.136 37.2429 101.15 32.7812 97.8021 32.7812C91.9167 32.7812 87.1484 47.6318 87.1484 65.9334H91.8812C91.8812 48.9328 94.5317 35.1509 97.8021 35.1509C101.072 35.1509 103.723 47.8739 103.723 63.5606H108.459C108.459 47.8674 111.109 35.1509 114.38 35.1509C117.65 35.1509 120.301 48.9231 120.301 65.9334H125.037C125.037 47.6318 120.265 32.7812 114.38 32.7812Z" fill="#FFBC0D"/>
<path d="M26.6914 56.9088L28.4444 41.2383H32.538L35.8116 51.0848L39.111 41.2383H43.2013L44.9575 56.9088H40.7607L39.8567 47.3431L37.0739 55.7627H34.4912L31.6728 47.2495L30.7366 56.9088H26.6914ZM50.0777 57.2123C49.1107 57.2544 48.1608 56.9473 47.4014 56.3471C47.0507 56.045 46.7742 55.6664 46.5934 55.2403C46.4126 54.8143 46.3323 54.3523 46.3586 53.8903C46.3331 53.1456 46.5696 52.4156 47.0269 51.8273C47.4968 51.2599 48.0987 50.8165 48.7799 50.536C49.5352 50.2123 50.328 49.9845 51.1399 49.858C51.9561 49.7287 52.7801 49.6542 53.6063 49.6353V49.377C53.6392 48.8319 53.504 48.2899 53.2189 47.8242C53.0965 47.6448 52.9302 47.4999 52.7357 47.4032C52.5413 47.3065 52.3253 47.2614 52.1084 47.2721C51.7289 47.2631 51.3607 47.402 51.0818 47.6595C50.78 47.9569 50.5896 48.349 50.5426 48.7701H46.8042C46.8814 48.194 47.0746 47.6396 47.372 47.1402C47.6694 46.6408 48.0649 46.2069 48.5346 45.8645C49.4837 45.1694 50.7234 44.8229 52.2537 44.825C54.0293 44.825 55.3421 45.2651 56.1923 46.1454C57.0424 47.0257 57.4675 48.345 57.4675 50.1034V56.9088H53.9163L53.8194 55.3786C53.4068 55.9617 52.8508 56.4287 52.2052 56.7345C51.5416 57.0534 50.814 57.2168 50.0777 57.2123ZM51.6435 54.7555C51.9088 54.7576 52.1712 54.7007 52.4118 54.5891C52.6524 54.4774 52.8653 54.3137 53.0349 54.1098C53.4511 53.583 53.656 52.92 53.6096 52.2503V51.3431C52.4409 51.3754 51.6015 51.5788 51.0947 51.9629C50.8623 52.1186 50.6716 52.329 50.5393 52.5755C50.407 52.822 50.3372 53.0972 50.336 53.377C50.3212 53.5648 50.3457 53.7537 50.4079 53.9316C50.4702 54.1095 50.5688 54.2724 50.6976 54.41C50.9556 54.6444 51.2952 54.7684 51.6435 54.7555ZM60.1341 56.9088V45.122H63.6853L63.8015 46.9234C64.1 46.2836 64.5851 45.7491 65.193 45.39C65.8792 44.9948 66.6613 44.797 67.4528 44.8185C68.7184 44.8185 69.7127 45.2027 70.4358 45.9743C71.159 46.7459 71.5238 47.7886 71.5238 49.0961V56.9088H67.5465V49.7063C67.5743 49.1818 67.4353 48.6619 67.1494 48.2213C67.0128 48.037 66.8322 47.8899 66.6241 47.7935C66.4159 47.697 66.187 47.6543 65.9581 47.6692C65.7108 47.6729 65.4673 47.7302 65.2443 47.8372C65.0213 47.9442 64.8243 48.0984 64.6667 48.289C64.2923 48.7023 64.105 49.3533 64.105 50.2422V56.9088H60.1341ZM79.0298 57.2123C77.3618 57.2123 76.0564 56.8658 75.1138 56.1727C74.6459 55.8209 74.2595 55.3723 73.9809 54.8575C73.7023 54.3427 73.5382 53.7738 73.4996 53.1897H77.3736C77.4511 53.8354 77.6609 54.2712 78.0032 54.5101C78.3224 54.745 78.7077 54.8727 79.104 54.8749C79.4779 54.8981 79.8487 54.7946 80.1565 54.5811C80.2709 54.496 80.3634 54.3848 80.4263 54.2568C80.4891 54.1288 80.5206 53.9877 80.5181 53.8451C80.509 53.5636 80.3937 53.296 80.1952 53.0961C79.8617 52.7977 79.4532 52.5957 79.0136 52.5118L77.0476 51.9984C76.1656 51.8021 75.3487 51.3831 74.6747 50.7813C74.3836 50.4844 74.1575 50.1302 74.0107 49.7411C73.864 49.352 73.7999 48.9367 73.8224 48.5215C73.7951 47.7732 74.0445 47.041 74.523 46.465C75.0321 45.8923 75.6871 45.4683 76.418 45.2382C77.2854 44.953 78.1943 44.8144 79.1073 44.8282C80.5729 44.8282 81.7341 45.1511 82.5907 45.7967C83.4746 46.4962 84.0532 47.511 84.2049 48.628H80.3631C80.3265 48.2319 80.1712 47.8561 79.9176 47.5497C79.7885 47.4129 79.6305 47.3065 79.4552 47.2384C79.2798 47.1702 79.0915 47.1421 78.9039 47.1559C78.7342 47.1454 78.5642 47.1686 78.4036 47.224C78.2429 47.2794 78.0948 47.366 77.9676 47.4787C77.8642 47.5759 77.782 47.6935 77.7264 47.8241C77.6709 47.9547 77.6431 48.0955 77.6448 48.2374C77.6421 48.5104 77.7423 48.7744 77.9257 48.9767C78.2127 49.2387 78.5691 49.4125 78.9523 49.4771L80.644 49.8903C81.9848 50.2325 82.9361 50.6727 83.4978 51.2107C83.7834 51.4958 84.006 51.8376 84.1511 52.2141C84.2963 52.5906 84.3608 52.9933 84.3404 53.3963C84.3646 53.9466 84.2484 54.4941 84.0027 54.9871C83.757 55.4801 83.39 55.9026 82.9361 56.2147C81.9999 56.8797 80.6978 57.2123 79.0298 57.2123Z" fill="url(#paint0_linear_465_42151)"/>
<defs>
<linearGradient id="paint0_linear_465_42151" x1="26.6914" y1="49.2272" x2="84.3406" y2="49.2272" gradientUnits="userSpaceOnUse">
<stop offset="0.000616698" stop-color="#910063"/>
<stop offset="0.0362" stop-color="#990059"/>
<stop offset="0.1727" stop-color="#B60035"/>
<stop offset="0.3012" stop-color="#CA001C"/>
<stop offset="0.4172" stop-color="#D7000C"/>
<stop offset="0.5101" stop-color="#DB0007"/>
<stop offset="1" stop-color="#E8720A"/>
</linearGradient>
</defs>
</svg>
