<svg width="375" height="225" viewBox="0 0 375 225" fill="none" xmlns="http://www.w3.org/2000/svg">
<path d="M137.99 140.396L137.468 140.416C135.468 140.496 133.468 140.644 131.469 140.859L131.373 140.871C130.168 141.038 129.174 141.895 128.823 143.056L128.805 143.116L124.643 143.116C123.291 143.116 122.137 144.096 121.915 145.433L121.368 148.724L121.357 148.795C121.262 149.557 121.678 150.266 122.335 150.577L122.368 150.591L122.385 150.857C122.577 154.179 122.79 157.512 123.023 160.842L123.165 162.838C123.454 166.834 123.771 170.823 124.117 174.808C124.808 182.777 125.616 190.765 126.542 198.773C126.635 199.577 127.271 200.21 128.073 200.297C132.399 200.766 136.726 201 141.052 201L141.81 200.998C145.888 200.972 149.959 200.738 154.031 200.297C154.833 200.21 155.469 199.577 155.562 198.773C156.484 190.805 157.293 182.816 157.988 174.808L158.159 172.806C158.778 165.468 159.298 158.147 159.72 150.842L159.738 150.591L159.766 150.578C160.445 150.258 160.868 149.514 160.737 148.724L160.189 145.433L160.173 145.345C159.916 144.053 158.783 143.116 157.461 143.116L153.298 143.116L153.281 143.056C152.921 141.864 151.883 140.994 150.635 140.859L149.944 140.788C148.33 140.626 146.716 140.509 145.102 140.436L144.968 140.43L148.47 115.457C148.603 114.509 147.944 113.633 146.999 113.499L143.575 113.017C142.629 112.884 141.755 113.544 141.622 114.492L137.99 140.396Z" fill="white" stroke="white"/>
<path fill-rule="evenodd" clip-rule="evenodd" d="M123.867 150.922C123.867 150.922 132.438 151.622 141.009 151.622C149.579 151.622 158.15 150.922 158.15 150.922C158.15 150.922 157.453 162.961 156.401 175.06C155.349 187.159 153.952 199.198 153.952 199.198C153.952 199.198 147.48 199.897 141.009 199.897C134.537 199.897 128.065 199.198 128.065 199.198C128.065 199.198 126.663 187.099 125.616 175.06C124.569 163.021 123.867 150.922 123.867 150.922Z" fill="white"/>
<mask id="mask0_17_28607" style="mask-type:luminance" maskUnits="userSpaceOnUse" x="123" y="150" width="36" height="50">
<path fill-rule="evenodd" clip-rule="evenodd" d="M123.867 150.922C123.867 150.922 132.438 151.622 141.009 151.622C149.579 151.622 158.15 150.922 158.15 150.922C158.15 150.922 157.453 162.961 156.401 175.06C155.349 187.159 153.952 199.198 153.952 199.198C153.952 199.198 147.48 199.897 141.009 199.897C134.537 199.897 128.065 199.198 128.065 199.198C128.065 199.198 126.663 187.099 125.616 175.06C124.569 163.021 123.867 150.922 123.867 150.922Z" fill="white"/>
</mask>
<g mask="url(#mask0_17_28607)">
</g>
<path fill-rule="evenodd" clip-rule="evenodd" d="M131.26 172.762C129.622 166.993 127.26 162.958 124.567 161.776C124.565 161.768 124.565 161.768 124.82 165.232C127.179 168.986 128.878 179.532 128.878 191.954H133.644C133.644 176.388 136.311 163.767 139.602 163.767C142.892 163.767 145.56 177.438 145.56 194.302H150.325C150.325 176.141 145.525 161.418 139.602 161.418C136.233 161.418 133.227 165.843 131.26 172.762Z" fill="#FFBC0D"/>
<path fill-rule="evenodd" clip-rule="evenodd" d="M158.149 150.922C158.149 150.922 157.452 162.961 156.4 175.06C155.348 187.159 153.951 199.198 153.951 199.198C153.951 199.198 147.48 199.897 141.008 199.897C146.109 199.897 148.674 183.759 148.704 151.481C153.951 151.272 158.149 150.922 158.149 150.922Z" fill="#A0A09F" fill-opacity="0.15"/>
<path d="M143.316 114.58L146.781 115.067L142.774 143.579L139.242 143.574L143.316 114.58Z" fill="#F1F1F1"/>
<path d="M145.047 114.824L146.086 114.97L142.066 143.579L141.006 143.577L145.047 114.824Z" fill="#EAEAEA"/>
<path fill-rule="evenodd" clip-rule="evenodd" d="M124.405 144.977H157.61C158.123 144.977 158.56 145.347 158.645 145.854L159.198 149.174C153.135 149.641 147.071 149.874 141.007 149.874C134.944 149.874 128.88 149.641 122.816 149.174L123.37 145.854C123.454 145.347 123.892 144.977 124.405 144.977Z" fill="#F1F1F1"/>
<path fill-rule="evenodd" clip-rule="evenodd" d="M131.499 142.688C134.669 142.348 137.839 142.178 141.009 142.178C144.178 142.178 147.348 142.348 150.518 142.688C151.108 142.752 151.593 143.18 151.73 143.757L151.853 144.277H130.164L130.287 143.757C130.424 143.18 130.91 142.752 131.499 142.688Z" fill="#F1F1F1"/>
<ellipse cx="179.615" cy="209.417" rx="91.1933" ry="8.58289" fill="#A0A09F" fill-opacity="0.15"/>
<mask id="path-11-outside-1_17_28607" maskUnits="userSpaceOnUse" x="197.02" y="140" width="52" height="66" fill="black">
<rect fill="white" x="197.02" y="140" width="52" height="66"/>
<path fill-rule="evenodd" clip-rule="evenodd" d="M213.076 146.342C212.964 145.21 213.799 144.281 215.123 143.301C216.364 142.382 217.592 141.842 218.722 142.041C219.437 142.167 219.982 142.749 220.061 143.471L220.081 143.657L220.123 143.654C220.192 143.652 220.263 143.653 220.333 143.66L220.404 143.668C222.689 143.972 225.782 145.963 225.567 147.81C225.519 148.224 225.473 148.627 225.43 149.021L225.332 149.91L225.424 149.88C225.685 149.795 225.956 149.72 226.231 149.658L226.242 149.656L226.207 149.159L226.201 149.045C226.199 148.889 226.219 148.734 226.261 148.584C226.818 146.582 229.212 145.302 231.885 145.089C232.781 145.018 233.567 145.685 233.641 146.581C233.685 147.116 233.726 147.626 233.763 148.12L233.811 148.779L233.826 148.773C234.987 148.282 236.443 148.192 237.846 148.454L237.967 148.478C238.829 148.652 239.399 149.479 239.253 150.348C239.21 150.605 239.168 150.855 239.128 151.1L239.039 151.65L239.282 151.691C239.719 151.768 240.133 151.868 240.522 151.993L240.605 152.02L240.658 151.817L240.718 151.585C241.193 149.71 244.412 149.232 246.785 149.894C247.581 150.116 248.085 150.897 247.96 151.714C247.338 155.757 246.714 158.609 245.623 162.284L245.519 162.633L245.551 162.643C246.251 162.872 246.734 163.561 246.667 164.332L246.66 164.398C245.895 170.441 244.902 176.517 243.682 182.625C242.462 188.733 241.029 194.807 239.381 200.847C239.285 201.199 239.074 201.509 238.781 201.727L236.151 203.685C235.707 204.015 235.126 204.098 234.607 203.905C231.29 202.671 227.535 202.05 223.338 202.05C219.15 202.05 215.516 202.668 212.431 203.893C211.905 204.101 211.308 204.023 210.854 203.685L208.224 201.727C207.931 201.509 207.719 201.199 207.623 200.846C205.963 194.74 204.529 188.666 203.323 182.625C202.116 176.584 201.124 170.508 200.345 164.4C200.246 163.624 200.707 162.919 201.394 162.663L201.398 162.662L201.235 162.296L201.084 161.965L200.468 160.629C199.904 159.397 199.539 158.522 199.209 157.553L199.11 157.259C198.789 156.278 199.338 155.374 200.49 153.953L200.598 153.821C201.391 152.866 202.211 152.127 203.066 151.725L203.171 151.678L202.744 149.941C202.534 149.079 203.052 148.207 203.91 147.979C204.906 147.714 206.146 147.779 207.429 148.054C207.936 148.163 208.42 148.301 208.809 148.447C209.03 148.53 209.223 148.617 209.393 148.713C209.524 148.788 209.644 148.869 209.761 148.971C210.022 149.2 210.227 149.475 210.322 149.899L210.413 150.3L210.565 150.194C211.44 149.598 212.414 149.147 213.329 148.967L213.295 148.608L213.076 146.342ZM219.245 154.037C219.088 150.597 218.822 147.139 218.439 143.648C217.231 143.435 214.641 145.587 214.7 146.182C215.248 151.751 215.36 153.528 215.403 156.444L215.427 158.765C214.864 154.949 214.602 153.331 214.132 151.163L213.99 150.52C212.403 150.639 210.138 152.329 210.255 152.915C210.76 155.452 210.9 156.704 211.056 159.618L211.109 160.655C210.617 157.891 210.213 156.295 209.734 154.408C209.472 153.375 209.188 152.254 208.855 150.807L208.73 150.258C208.668 149.983 205.879 149.144 204.329 149.556C204.455 150.073 204.583 150.591 204.711 151.108C205.456 154.126 206.201 157.142 206.522 160.115C205.641 157.826 204.821 155.489 204.076 153.082C202.534 153.521 200.573 156.483 200.661 156.75C201.124 158.164 201.676 159.356 202.242 160.579C202.537 161.215 202.836 161.86 203.127 162.549L203.269 162.888L203.862 164.193H201.964C202.738 170.264 203.724 176.301 204.923 182.305C206.122 188.309 207.547 194.347 209.198 200.418L211.829 202.376C215.117 201.07 218.954 200.418 223.338 200.418C227.723 200.418 231.669 201.07 235.176 202.376L237.807 200.418C239.445 194.414 240.87 188.376 242.082 182.305C243.294 176.235 244.281 170.197 245.042 164.193H243.388L243.736 162.888L243.853 162.505C245.081 158.466 245.714 155.579 246.347 151.465C244.665 150.996 242.446 151.407 242.3 151.986C242.216 152.316 242.143 152.593 242.072 152.852L241.623 154.471C240.933 153.704 239.504 153.311 238.113 153.179C237.804 155.999 237.496 157.374 236.906 159.675L236.438 161.485C236.609 157.294 236.853 154.879 237.535 150.729L237.644 150.077C236.072 149.76 234.027 150.019 233.396 151.153C233.008 153.582 232.789 155.001 232.635 157.02L232.603 157.463C232.594 157.229 232.585 157.001 232.577 156.777C232.446 153.304 232.36 151.027 232.073 147.429L232.015 146.715C230.024 146.874 228.174 147.793 227.833 149.021C227.839 149.111 227.846 149.212 227.854 149.319C227.884 149.725 227.92 150.231 227.949 150.657L227.978 151.097C226.607 151.066 225.125 151.656 224.588 152.086C224.347 153.287 224.199 154.296 224.056 155.268C223.837 156.763 223.63 158.172 223.12 160.06C223.12 160.06 222.806 157.842 223.814 148.789L223.947 147.621C224.017 147.019 221.778 145.496 220.189 145.285C219.832 148.205 219.519 151.122 219.245 154.037Z"/>
</mask>
<path fill-rule="evenodd" clip-rule="evenodd" d="M213.076 146.342C212.964 145.21 213.799 144.281 215.123 143.301C216.364 142.382 217.592 141.842 218.722 142.041C219.437 142.167 219.982 142.749 220.061 143.471L220.081 143.657L220.123 143.654C220.192 143.652 220.263 143.653 220.333 143.66L220.404 143.668C222.689 143.972 225.782 145.963 225.567 147.81C225.519 148.224 225.473 148.627 225.43 149.021L225.332 149.91L225.424 149.88C225.685 149.795 225.956 149.72 226.231 149.658L226.242 149.656L226.207 149.159L226.201 149.045C226.199 148.889 226.219 148.734 226.261 148.584C226.818 146.582 229.212 145.302 231.885 145.089C232.781 145.018 233.567 145.685 233.641 146.581C233.685 147.116 233.726 147.626 233.763 148.12L233.811 148.779L233.826 148.773C234.987 148.282 236.443 148.192 237.846 148.454L237.967 148.478C238.829 148.652 239.399 149.479 239.253 150.348C239.21 150.605 239.168 150.855 239.128 151.1L239.039 151.65L239.282 151.691C239.719 151.768 240.133 151.868 240.522 151.993L240.605 152.02L240.658 151.817L240.718 151.585C241.193 149.71 244.412 149.232 246.785 149.894C247.581 150.116 248.085 150.897 247.96 151.714C247.338 155.757 246.714 158.609 245.623 162.284L245.519 162.633L245.551 162.643C246.251 162.872 246.734 163.561 246.667 164.332L246.66 164.398C245.895 170.441 244.902 176.517 243.682 182.625C242.462 188.733 241.029 194.807 239.381 200.847C239.285 201.199 239.074 201.509 238.781 201.727L236.151 203.685C235.707 204.015 235.126 204.098 234.607 203.905C231.29 202.671 227.535 202.05 223.338 202.05C219.15 202.05 215.516 202.668 212.431 203.893C211.905 204.101 211.308 204.023 210.854 203.685L208.224 201.727C207.931 201.509 207.719 201.199 207.623 200.846C205.963 194.74 204.529 188.666 203.323 182.625C202.116 176.584 201.124 170.508 200.345 164.4C200.246 163.624 200.707 162.919 201.394 162.663L201.398 162.662L201.235 162.296L201.084 161.965L200.468 160.629C199.904 159.397 199.539 158.522 199.209 157.553L199.11 157.259C198.789 156.278 199.338 155.374 200.49 153.953L200.598 153.821C201.391 152.866 202.211 152.127 203.066 151.725L203.171 151.678L202.744 149.941C202.534 149.079 203.052 148.207 203.91 147.979C204.906 147.714 206.146 147.779 207.429 148.054C207.936 148.163 208.42 148.301 208.809 148.447C209.03 148.53 209.223 148.617 209.393 148.713C209.524 148.788 209.644 148.869 209.761 148.971C210.022 149.2 210.227 149.475 210.322 149.899L210.413 150.3L210.565 150.194C211.44 149.598 212.414 149.147 213.329 148.967L213.295 148.608L213.076 146.342ZM219.245 154.037C219.088 150.597 218.822 147.139 218.439 143.648C217.231 143.435 214.641 145.587 214.7 146.182C215.248 151.751 215.36 153.528 215.403 156.444L215.427 158.765C214.864 154.949 214.602 153.331 214.132 151.163L213.99 150.52C212.403 150.639 210.138 152.329 210.255 152.915C210.76 155.452 210.9 156.704 211.056 159.618L211.109 160.655C210.617 157.891 210.213 156.295 209.734 154.408C209.472 153.375 209.188 152.254 208.855 150.807L208.73 150.258C208.668 149.983 205.879 149.144 204.329 149.556C204.455 150.073 204.583 150.591 204.711 151.108C205.456 154.126 206.201 157.142 206.522 160.115C205.641 157.826 204.821 155.489 204.076 153.082C202.534 153.521 200.573 156.483 200.661 156.75C201.124 158.164 201.676 159.356 202.242 160.579C202.537 161.215 202.836 161.86 203.127 162.549L203.269 162.888L203.862 164.193H201.964C202.738 170.264 203.724 176.301 204.923 182.305C206.122 188.309 207.547 194.347 209.198 200.418L211.829 202.376C215.117 201.07 218.954 200.418 223.338 200.418C227.723 200.418 231.669 201.07 235.176 202.376L237.807 200.418C239.445 194.414 240.87 188.376 242.082 182.305C243.294 176.235 244.281 170.197 245.042 164.193H243.388L243.736 162.888L243.853 162.505C245.081 158.466 245.714 155.579 246.347 151.465C244.665 150.996 242.446 151.407 242.3 151.986C242.216 152.316 242.143 152.593 242.072 152.852L241.623 154.471C240.933 153.704 239.504 153.311 238.113 153.179C237.804 155.999 237.496 157.374 236.906 159.675L236.438 161.485C236.609 157.294 236.853 154.879 237.535 150.729L237.644 150.077C236.072 149.76 234.027 150.019 233.396 151.153C233.008 153.582 232.789 155.001 232.635 157.02L232.603 157.463C232.594 157.229 232.585 157.001 232.577 156.777C232.446 153.304 232.36 151.027 232.073 147.429L232.015 146.715C230.024 146.874 228.174 147.793 227.833 149.021C227.839 149.111 227.846 149.212 227.854 149.319C227.884 149.725 227.92 150.231 227.949 150.657L227.978 151.097C226.607 151.066 225.125 151.656 224.588 152.086C224.347 153.287 224.199 154.296 224.056 155.268C223.837 156.763 223.63 158.172 223.12 160.06C223.12 160.06 222.806 157.842 223.814 148.789L223.947 147.621C224.017 147.019 221.778 145.496 220.189 145.285C219.832 148.205 219.519 151.122 219.245 154.037Z" fill="white"/>
<path fill-rule="evenodd" clip-rule="evenodd" d="M213.076 146.342C212.964 145.21 213.799 144.281 215.123 143.301C216.364 142.382 217.592 141.842 218.722 142.041C219.437 142.167 219.982 142.749 220.061 143.471L220.081 143.657L220.123 143.654C220.192 143.652 220.263 143.653 220.333 143.66L220.404 143.668C222.689 143.972 225.782 145.963 225.567 147.81C225.519 148.224 225.473 148.627 225.43 149.021L225.332 149.91L225.424 149.88C225.685 149.795 225.956 149.72 226.231 149.658L226.242 149.656L226.207 149.159L226.201 149.045C226.199 148.889 226.219 148.734 226.261 148.584C226.818 146.582 229.212 145.302 231.885 145.089C232.781 145.018 233.567 145.685 233.641 146.581C233.685 147.116 233.726 147.626 233.763 148.12L233.811 148.779L233.826 148.773C234.987 148.282 236.443 148.192 237.846 148.454L237.967 148.478C238.829 148.652 239.399 149.479 239.253 150.348C239.21 150.605 239.168 150.855 239.128 151.1L239.039 151.65L239.282 151.691C239.719 151.768 240.133 151.868 240.522 151.993L240.605 152.02L240.658 151.817L240.718 151.585C241.193 149.71 244.412 149.232 246.785 149.894C247.581 150.116 248.085 150.897 247.96 151.714C247.338 155.757 246.714 158.609 245.623 162.284L245.519 162.633L245.551 162.643C246.251 162.872 246.734 163.561 246.667 164.332L246.66 164.398C245.895 170.441 244.902 176.517 243.682 182.625C242.462 188.733 241.029 194.807 239.381 200.847C239.285 201.199 239.074 201.509 238.781 201.727L236.151 203.685C235.707 204.015 235.126 204.098 234.607 203.905C231.29 202.671 227.535 202.05 223.338 202.05C219.15 202.05 215.516 202.668 212.431 203.893C211.905 204.101 211.308 204.023 210.854 203.685L208.224 201.727C207.931 201.509 207.719 201.199 207.623 200.846C205.963 194.74 204.529 188.666 203.323 182.625C202.116 176.584 201.124 170.508 200.345 164.4C200.246 163.624 200.707 162.919 201.394 162.663L201.398 162.662L201.235 162.296L201.084 161.965L200.468 160.629C199.904 159.397 199.539 158.522 199.209 157.553L199.11 157.259C198.789 156.278 199.338 155.374 200.49 153.953L200.598 153.821C201.391 152.866 202.211 152.127 203.066 151.725L203.171 151.678L202.744 149.941C202.534 149.079 203.052 148.207 203.91 147.979C204.906 147.714 206.146 147.779 207.429 148.054C207.936 148.163 208.42 148.301 208.809 148.447C209.03 148.53 209.223 148.617 209.393 148.713C209.524 148.788 209.644 148.869 209.761 148.971C210.022 149.2 210.227 149.475 210.322 149.899L210.413 150.3L210.565 150.194C211.44 149.598 212.414 149.147 213.329 148.967L213.295 148.608L213.076 146.342ZM219.245 154.037C219.088 150.597 218.822 147.139 218.439 143.648C217.231 143.435 214.641 145.587 214.7 146.182C215.248 151.751 215.36 153.528 215.403 156.444L215.427 158.765C214.864 154.949 214.602 153.331 214.132 151.163L213.99 150.52C212.403 150.639 210.138 152.329 210.255 152.915C210.76 155.452 210.9 156.704 211.056 159.618L211.109 160.655C210.617 157.891 210.213 156.295 209.734 154.408C209.472 153.375 209.188 152.254 208.855 150.807L208.73 150.258C208.668 149.983 205.879 149.144 204.329 149.556C204.455 150.073 204.583 150.591 204.711 151.108C205.456 154.126 206.201 157.142 206.522 160.115C205.641 157.826 204.821 155.489 204.076 153.082C202.534 153.521 200.573 156.483 200.661 156.75C201.124 158.164 201.676 159.356 202.242 160.579C202.537 161.215 202.836 161.86 203.127 162.549L203.269 162.888L203.862 164.193H201.964C202.738 170.264 203.724 176.301 204.923 182.305C206.122 188.309 207.547 194.347 209.198 200.418L211.829 202.376C215.117 201.07 218.954 200.418 223.338 200.418C227.723 200.418 231.669 201.07 235.176 202.376L237.807 200.418C239.445 194.414 240.87 188.376 242.082 182.305C243.294 176.235 244.281 170.197 245.042 164.193H243.388L243.736 162.888L243.853 162.505C245.081 158.466 245.714 155.579 246.347 151.465C244.665 150.996 242.446 151.407 242.3 151.986C242.216 152.316 242.143 152.593 242.072 152.852L241.623 154.471C240.933 153.704 239.504 153.311 238.113 153.179C237.804 155.999 237.496 157.374 236.906 159.675L236.438 161.485C236.609 157.294 236.853 154.879 237.535 150.729L237.644 150.077C236.072 149.76 234.027 150.019 233.396 151.153C233.008 153.582 232.789 155.001 232.635 157.02L232.603 157.463C232.594 157.229 232.585 157.001 232.577 156.777C232.446 153.304 232.36 151.027 232.073 147.429L232.015 146.715C230.024 146.874 228.174 147.793 227.833 149.021C227.839 149.111 227.846 149.212 227.854 149.319C227.884 149.725 227.92 150.231 227.949 150.657L227.978 151.097C226.607 151.066 225.125 151.656 224.588 152.086C224.347 153.287 224.199 154.296 224.056 155.268C223.837 156.763 223.63 158.172 223.12 160.06C223.12 160.06 222.806 157.842 223.814 148.789L223.947 147.621C224.017 147.019 221.778 145.496 220.189 145.285C219.832 148.205 219.519 151.122 219.245 154.037Z" stroke="white" stroke-width="2" mask="url(#path-11-outside-1_17_28607)"/>
<path d="M218.441 143.647C218.823 147.139 219.089 150.597 219.246 154.036C219.521 151.121 219.835 148.205 220.191 145.284C221.781 145.496 224.018 147.019 223.948 147.621C222.781 157.653 223.121 160.061 223.121 160.061C223.963 156.943 223.98 155.133 224.59 152.086C225.127 151.656 226.609 151.066 227.979 151.097C227.946 150.54 227.875 149.58 227.835 149.021C228.177 147.793 230.026 146.874 232.017 146.715C232.371 150.98 232.449 153.356 232.604 157.463C232.76 155.199 232.982 153.756 233.397 151.153C234.029 150.019 236.074 149.76 237.646 150.077C236.88 154.636 236.62 157.079 236.44 161.484C237.353 157.941 237.733 156.662 238.115 153.179C239.506 153.311 240.935 153.704 241.625 154.471C241.895 153.487 242.05 152.976 242.302 151.985C242.449 151.406 244.666 150.996 246.349 151.465C245.778 155.177 245.207 157.89 244.198 161.353L243.738 162.888L243.39 164.192H245.044C245.044 164.192 243.903 173.2 242.084 182.306C240.265 191.412 237.809 200.418 237.809 200.418L235.179 202.376C235.179 202.376 229.917 200.418 223.34 200.418C216.783 200.418 211.861 202.364 211.831 202.376L209.2 200.418C209.2 200.418 206.723 191.312 204.925 182.306C203.126 173.299 201.966 164.192 201.966 164.192H203.865L203.271 162.888H203.271C202.378 160.717 201.407 159.019 200.663 156.75C200.576 156.482 202.536 153.521 204.078 153.082C204.823 155.489 205.643 157.826 206.524 160.115C206.149 156.632 205.19 153.09 204.331 149.556C205.88 149.144 208.671 149.983 208.732 150.258C209.75 154.774 210.318 156.192 211.111 160.655C210.929 156.967 210.818 155.733 210.257 152.915C210.14 152.329 212.405 150.638 213.992 150.52C214.556 153.039 214.812 154.583 215.429 158.765C215.391 154.157 215.378 153.066 214.701 146.182C214.643 145.587 217.232 143.435 218.441 143.647Z" fill="white"/>
<path fill-rule="evenodd" clip-rule="evenodd" d="M201.965 164.193H207.186C207.186 164.193 211.501 176.595 223.339 176.595C235.178 176.595 239.821 164.193 239.821 164.193H245.043C245.043 164.193 243.902 173.2 242.083 182.306C240.265 191.412 237.808 200.418 237.808 200.418L235.178 202.376C235.178 202.376 229.916 200.418 223.339 200.418C216.763 200.418 211.83 202.376 211.83 202.376L209.199 200.418C209.199 200.418 206.723 191.312 204.924 182.306C203.126 173.3 201.965 164.193 201.965 164.193Z" fill="#DB0007"/>
<path fill-rule="evenodd" clip-rule="evenodd" d="M226.658 180.51C225.188 180.51 223.876 182.398 223.017 185.351C222.16 182.398 220.847 180.51 219.377 180.51C216.792 180.51 214.695 186.793 214.695 194.543H216.776C216.776 187.346 217.941 181.512 219.377 181.512C220.813 181.512 221.977 186.898 221.977 193.541H224.058C224.058 186.898 225.222 181.512 226.658 181.512C228.095 181.512 229.259 187.346 229.259 194.543H231.339C231.339 186.793 229.244 180.51 226.658 180.51Z" fill="#FFBC0D"/>
<path fill-rule="evenodd" clip-rule="evenodd" d="M208.493 162.887C208.493 162.887 212.735 175.289 223.505 175.289C234.274 175.289 238.517 162.887 238.517 162.887C238.517 162.887 241.454 162.887 243.738 162.887C245.044 158.645 245.696 155.708 246.349 151.465C244.667 150.996 242.448 151.406 242.302 151.985C242.05 152.976 241.895 153.487 241.625 154.471C240.935 153.704 239.506 153.311 238.115 153.179C237.733 156.662 237.353 157.941 236.44 161.485C236.62 157.079 236.88 154.636 237.646 150.077C236.074 149.76 234.029 150.018 233.397 151.153C232.982 153.756 232.76 155.199 232.605 157.463C232.449 153.356 232.371 150.981 232.017 146.715C230.026 146.874 228.176 147.793 227.835 149.021C227.875 149.58 227.946 150.54 227.98 151.096C226.609 151.066 225.127 151.656 224.59 152.086C223.98 155.133 223.964 156.943 223.122 160.06C223.122 160.06 222.781 157.653 223.949 147.621C224.019 147.019 221.78 145.496 220.191 145.285C219.834 148.205 219.521 151.121 219.247 154.036C219.09 150.597 218.824 147.139 218.441 143.648C217.232 143.435 214.643 145.587 214.702 146.181C215.379 153.066 215.391 154.156 215.429 158.764C214.812 154.582 214.556 153.04 213.992 150.52C212.405 150.638 210.14 152.329 210.257 152.915C210.819 155.733 210.928 156.966 211.111 160.655C210.317 156.192 209.75 154.774 208.732 150.257C208.67 149.983 205.881 149.144 204.331 149.556C205.19 153.09 206.148 156.632 206.524 160.115C205.642 157.826 204.823 155.488 204.078 153.082C202.536 153.52 200.575 156.482 200.663 156.75C201.407 159.019 202.378 160.717 203.271 162.887H208.493Z" fill="#FFBC0D"/>
<path d="M206.628 72.8535L205.759 74.3545L199.135 85.7998L198.846 86.2988H164.774L164.486 85.7998L157.861 74.3545L156.992 72.8535H206.628Z" fill="white" stroke="white" stroke-width="2"/>
<path d="M200.026 48C201.016 48.0002 201.894 48.6354 202.204 49.5752L208.23 67.835C208.972 70.0818 207.752 72.5046 205.505 73.2461C205.072 73.389 204.619 73.4619 204.163 73.4619H159.284C156.918 73.4619 155 71.5437 155 69.1777C155 68.7217 155.073 68.2681 155.216 67.835L161.242 49.5752C161.552 48.6353 162.431 48 163.421 48H200.026Z" fill="white" stroke="white" stroke-width="2"/>
<path d="M198.269 85.2991H165.351L158.727 73.8535H204.894L198.269 85.2991Z" fill="#C2945C"/>
<mask id="mask1_17_28607" style="mask-type:luminance" maskUnits="userSpaceOnUse" x="158" y="73" width="47" height="13">
<path d="M198.269 85.2991H165.351L158.727 73.8535H204.894L198.269 85.2991Z" fill="white"/>
</mask>
<g mask="url(#mask1_17_28607)">
</g>
<path d="M163.421 49H200.026C200.584 49 201.08 49.3581 201.254 49.8882L207.281 68.1488C207.85 69.8712 206.914 71.7282 205.192 72.2966C204.86 72.4062 204.512 72.4621 204.163 72.4621H159.284C157.47 72.4621 156 70.9918 156 69.1781C156 68.8284 156.056 68.4809 156.165 68.1488L162.192 49.8882C162.367 49.3581 162.862 49 163.421 49Z" fill="#C2945C"/>
<path fill-rule="evenodd" clip-rule="evenodd" d="M196.096 57.6914C194.935 57.6914 193.9 59.195 193.222 61.546C192.545 59.195 191.509 57.6914 190.348 57.6914C188.307 57.6914 186.652 62.6943 186.652 68.8654H188.295C188.295 63.1352 189.214 58.4897 190.348 58.4897C191.482 58.4897 192.401 62.7782 192.401 68.0676H194.043C194.043 62.7782 194.962 58.4897 196.096 58.4897C197.23 58.4897 198.149 63.1352 198.149 68.8654H199.791C199.791 62.6943 198.137 57.6914 196.096 57.6914Z" fill="#FFBC0D"/>
<path d="M201.628 111.354L200.759 112.854L194.135 124.3L193.846 124.799H159.774L159.486 124.3L152.861 112.854L151.992 111.354H201.628Z" fill="white" stroke="white" stroke-width="2"/>
<path d="M195.026 86.5C196.016 86.5002 196.894 87.1354 197.204 88.0752L203.23 106.335C203.972 108.582 202.752 111.005 200.505 111.746C200.072 111.889 199.619 111.962 199.163 111.962H154.284C151.918 111.962 150 110.044 150 107.678C150 107.222 150.073 106.768 150.216 106.335L156.242 88.0752C156.552 87.1353 157.431 86.5 158.421 86.5H195.026Z" fill="white" stroke="white" stroke-width="2"/>
<path d="M193.269 123.799H160.351L153.727 112.354H199.894L193.269 123.799Z" fill="#C2945C"/>
<mask id="mask2_17_28607" style="mask-type:luminance" maskUnits="userSpaceOnUse" x="153" y="112" width="47" height="12">
<path d="M193.269 123.799H160.351L153.727 112.354H199.894L193.269 123.799Z" fill="white"/>
</mask>
<g mask="url(#mask2_17_28607)">
</g>
<path d="M158.421 87.5H195.026C195.584 87.5 196.08 87.8581 196.254 88.3882L202.281 106.649C202.85 108.371 201.914 110.228 200.192 110.797C199.86 110.906 199.512 110.962 199.163 110.962H154.284C152.47 110.962 151 109.492 151 107.678C151 107.328 151.056 106.981 151.165 106.649L157.192 88.3882C157.367 87.8581 157.862 87.5 158.421 87.5Z" fill="#C2945C"/>
<path fill-rule="evenodd" clip-rule="evenodd" d="M191.096 96.1914C189.935 96.1914 188.9 97.695 188.222 100.046C187.545 97.695 186.509 96.1914 185.348 96.1914C183.307 96.1914 181.652 101.194 181.652 107.365H183.295C183.295 101.635 184.214 96.9897 185.348 96.9897C186.482 96.9897 187.401 101.278 187.401 106.568H189.043C189.043 101.278 189.962 96.9897 191.096 96.9897C192.23 96.9897 193.149 101.635 193.149 107.365H194.791C194.791 101.194 193.137 96.1914 191.096 96.1914Z" fill="#FFBC0D"/>
<path d="M210.628 149.854L209.759 151.354L203.135 162.8L202.846 163.299H168.774L168.486 162.8L161.861 151.354L160.992 149.854H210.628Z" fill="white" stroke="white" stroke-width="2"/>
<path d="M204.026 125C205.016 125 205.894 125.635 206.204 126.575L212.23 144.835C212.972 147.082 211.752 149.505 209.505 150.246C209.072 150.389 208.619 150.462 208.163 150.462H163.284C160.918 150.462 159 148.544 159 146.178C159 145.722 159.073 145.268 159.216 144.835L165.242 126.575C165.552 125.635 166.431 125 167.421 125H204.026Z" fill="white" stroke="white" stroke-width="2"/>
<path d="M202.269 162.299H169.351L162.727 150.854H208.894L202.269 162.299Z" fill="#C2945C"/>
<mask id="mask3_17_28607" style="mask-type:luminance" maskUnits="userSpaceOnUse" x="162" y="150" width="47" height="13">
<path d="M202.269 162.299H169.351L162.727 150.854H208.894L202.269 162.299Z" fill="white"/>
</mask>
<g mask="url(#mask3_17_28607)">
</g>
<path d="M167.421 126H204.026C204.584 126 205.08 126.358 205.254 126.888L211.281 145.149C211.85 146.871 210.914 148.728 209.192 149.297C208.86 149.406 208.512 149.462 208.163 149.462H163.284C161.47 149.462 160 147.992 160 146.178C160 145.828 160.056 145.481 160.165 145.149L166.192 126.888C166.367 126.358 166.862 126 167.421 126Z" fill="#C2945C"/>
<path fill-rule="evenodd" clip-rule="evenodd" d="M200.096 134.691C198.935 134.691 197.9 136.195 197.222 138.546C196.545 136.195 195.509 134.691 194.348 134.691C192.307 134.691 190.652 139.694 190.652 145.865H192.295C192.295 140.135 193.214 135.49 194.348 135.49C195.482 135.49 196.401 139.778 196.401 145.068H198.043C198.043 139.778 198.962 135.49 200.096 135.49C201.23 135.49 202.149 140.135 202.149 145.865H203.791C203.791 139.694 202.137 134.691 200.096 134.691Z" fill="#FFBC0D"/>
<path d="M207.628 187.854L206.759 189.354L200.135 200.8L199.846 201.299H165.774L165.486 200.8L158.861 189.354L157.992 187.854H207.628Z" fill="white" stroke="white" stroke-width="2"/>
<path d="M201.026 163C202.016 163 202.894 163.635 203.204 164.575L209.23 182.835C209.972 185.082 208.752 187.505 206.505 188.246C206.072 188.389 205.619 188.462 205.163 188.462H160.284C157.918 188.462 156 186.544 156 184.178C156 183.722 156.073 183.268 156.216 182.835L162.242 164.575C162.552 163.635 163.431 163 164.421 163H201.026Z" fill="white" stroke="white" stroke-width="2"/>
<path d="M199.269 200.299H166.351L159.727 188.854H205.894L199.269 200.299Z" fill="#C2945C"/>
<mask id="mask4_17_28607" style="mask-type:luminance" maskUnits="userSpaceOnUse" x="159" y="188" width="47" height="13">
<path d="M199.269 200.299H166.351L159.727 188.854H205.894L199.269 200.299Z" fill="white"/>
</mask>
<g mask="url(#mask4_17_28607)">
</g>
<path d="M164.421 164H201.026C201.584 164 202.08 164.358 202.254 164.888L208.281 183.149C208.85 184.871 207.914 186.728 206.192 187.297C205.86 187.406 205.512 187.462 205.163 187.462H160.284C158.47 187.462 157 185.992 157 184.178C157 183.828 157.056 183.481 157.165 183.149L163.192 164.888C163.367 164.358 163.862 164 164.421 164Z" fill="#C2945C"/>
<path fill-rule="evenodd" clip-rule="evenodd" d="M197.096 172.691C195.935 172.691 194.9 174.195 194.222 176.546C193.545 174.195 192.509 172.691 191.348 172.691C189.307 172.691 187.652 177.694 187.652 183.865H189.295C189.295 178.135 190.214 173.49 191.348 173.49C192.482 173.49 193.401 177.778 193.401 183.068H195.043C195.043 177.778 195.962 173.49 197.096 173.49C198.23 173.49 199.149 178.135 199.149 183.865H200.791C200.791 177.694 199.137 172.691 197.096 172.691Z" fill="#FFBC0D"/>
<path d="M258.652 199.766V203.092C258.652 204.929 257.051 206.418 255.076 206.418H104.16C102.185 206.418 100.584 204.929 100.584 203.092V199.766C98.6089 199.766 97.0078 198.276 97.0078 196.439C97.0078 194.602 98.6089 193.113 100.584 193.113C104.534 193.113 107.736 196.092 107.736 199.766H251.5C251.5 196.092 254.702 193.113 258.652 193.113C260.627 193.113 262.229 194.602 262.229 196.439C262.229 198.276 260.627 199.766 258.652 199.766Z" fill="#DB0007" stroke="white" stroke-width="2"/>
</svg>
