<svg width="375" height="225" viewBox="0 0 375 225" fill="none" xmlns="http://www.w3.org/2000/svg">
<path d="M89 80.7363C89 74.6612 93.9249 69.7363 100 69.7363H245C251.075 69.7363 256 74.6612 256 80.7363V168.736C256 174.811 251.075 179.736 245 179.736H100C93.9249 179.736 89 174.811 89 168.736V80.7363Z" fill="#FFBC0D"/>
<path d="M89 91.7363H256V111.736H89V91.7363Z" fill="#606060"/>
<path d="M107 132.736H198V144.736H107V132.736Z" fill="#FBE4A7"/>
<path d="M107 156.736H198V160.736H107V156.736Z" fill="#FBE4A7"/>
<path d="M213 140.736C213 136.318 216.582 132.736 221 132.736H238C242.418 132.736 246 136.318 246 140.736C246 145.155 242.418 148.736 238 148.736H221C216.582 148.736 213 145.155 213 140.736Z" fill="#FBE4A7"/>
<path d="M242.725 54.8606C244.271 52.2314 248.074 52.2314 249.62 54.8606L282.627 110.971C284.195 113.638 282.273 116.999 279.179 116.999H213.166C210.073 116.999 208.15 113.638 209.718 110.971L242.725 54.8606Z" fill="#DB0007"/>
<path d="M243.214 77H250.766L249.5 95.8588H244.522L243.214 77ZM246.969 97.5882C248.066 97.5882 248.98 97.9314 249.711 98.6176C250.443 99.3039 250.808 100.196 250.808 101.294C250.808 102.31 250.429 103.188 249.669 103.929C248.91 104.643 248.01 105 246.969 105C245.9 105 245 104.643 244.269 103.929C243.538 103.188 243.172 102.31 243.172 101.294C243.172 100.196 243.538 99.3039 244.269 98.6176C245 97.9314 245.9 97.5882 246.969 97.5882Z" fill="white"/>
<path d="M89 80.7363C89 74.6612 93.9249 69.7363 100 69.7363H245C251.075 69.7363 256 74.6612 256 80.7363V168.736C256 174.811 251.075 179.736 245 179.736H100C93.9249 179.736 89 174.811 89 168.736V80.7363Z" fill="#FFBC0D"/>
<path d="M89 91.7363H256V111.736H89V91.7363Z" fill="#606060"/>
<path d="M107 132.736H198V144.736H107V132.736Z" fill="#FBE4A7"/>
<path d="M107 156.736H198V160.736H107V156.736Z" fill="#FBE4A7"/>
<path d="M213 140.736C213 136.318 216.582 132.736 221 132.736H238C242.418 132.736 246 136.318 246 140.736C246 145.155 242.418 148.736 238 148.736H221C216.582 148.736 213 145.155 213 140.736Z" fill="#FBE4A7"/>
<path d="M242.725 54.8606C244.271 52.2314 248.074 52.2314 249.62 54.8606L282.627 110.971C284.195 113.638 282.273 116.999 279.179 116.999H213.166C210.073 116.999 208.15 113.638 209.718 110.971L242.725 54.8606Z" fill="#DB0007"/>
<path d="M243.214 77H250.766L249.5 95.8588H244.522L243.214 77ZM246.969 97.5882C248.066 97.5882 248.98 97.9314 249.711 98.6176C250.443 99.3039 250.808 100.196 250.808 101.294C250.808 102.31 250.429 103.188 249.669 103.929C248.91 104.643 248.01 105 246.969 105C245.9 105 245 104.643 244.269 103.929C243.538 103.188 243.172 102.31 243.172 101.294C243.172 100.196 243.538 99.3039 244.269 98.6176C245 97.9314 245.9 97.5882 246.969 97.5882Z" fill="white"/>
</svg>
