<svg width="27" height="18" viewBox="0 0 27 18" fill="none" xmlns="http://www.w3.org/2000/svg">
<g clip-path="url(#clip0_109_43825)">
<path d="M0.910156 0H26.0891V18H0.910156V0Z" fill="#181A93"/>
<path d="M0 0H27V6H0V0Z" fill="#FFA44A"/>
<path d="M0 12H27V18H0V12Z" fill="#1A9F0B"/>
<path d="M0 6H27V12H0V6Z" fill="white"/>
<path d="M13.4992 10.7992C14.4933 10.7992 15.2992 9.99334 15.2992 8.99923C15.2992 8.00511 14.4933 7.19922 13.4992 7.19922C12.5051 7.19922 11.6992 8.00511 11.6992 8.99923C11.6992 9.99334 12.5051 10.7992 13.4992 10.7992Z" fill="white"/>
<path d="M13.5016 11.4016C12.1805 11.4016 11.1016 10.3226 11.1016 9.00157C11.1016 7.68051 12.1805 6.60156 13.5016 6.60156C14.8226 6.60156 15.9016 7.68051 15.9016 9.00157C15.9016 10.3226 14.8226 11.4016 13.5016 11.4016ZM13.5016 10.8016C14.4595 10.8016 15.3016 9.95947 15.3016 9.00157C15.3016 8.04367 14.4647 7.20156 13.5016 7.20156C12.5384 7.20156 11.7016 8.04367 11.7016 9.00157C11.7016 9.95947 12.5437 10.8016 13.5016 10.8016Z" fill="#181A93"/>
<path d="M13.5008 10.2008C14.1635 10.2008 14.7008 9.66352 14.7008 9.00078C14.7008 8.33804 14.1635 7.80078 13.5008 7.80078C12.838 7.80078 12.3008 8.33804 12.3008 9.00078C12.3008 9.66352 12.838 10.2008 13.5008 10.2008Z" fill="#181A93"/>
</g>
<rect x="0.5" y="0.5" width="26" height="17" rx="0.5" stroke="black" stroke-opacity="0.2"/>
<defs>
<clipPath id="clip0_109_43825">
<rect width="27" height="18" rx="1" fill="white"/>
</clipPath>
</defs>
</svg>
