<svg width="72" height="72" viewBox="0 0 72 72" fill="none" xmlns="http://www.w3.org/2000/svg">
<g clip-path="url(#clip0_4322_40980)">
<path fill-rule="evenodd" clip-rule="evenodd" d="M10 37L70 37V38L10 38V37Z" fill="#D9D9D9"/>
<path d="M68.5604 60.5742C68.5604 62.0499 54.0915 63.2462 36.2431 63.2462C18.3947 63.2462 3.92578 62.0499 3.92578 60.5742C3.92578 59.0986 18.3947 57.9023 36.2431 57.9023C54.0915 57.9023 68.5604 59.0986 68.5604 60.5742Z" fill="#A0A09F" fill-opacity="0.15"/>
<path fill-rule="evenodd" clip-rule="evenodd" d="M20.6744 18.584L20.6743 38.7277H5.34766V18.584H20.6744Z" fill="white"/>
<path fill-rule="evenodd" clip-rule="evenodd" d="M27.6853 54.493C27.6853 58.4835 24.4503 61.7185 20.4598 61.7185C16.4693 61.7185 13.2344 58.4835 13.2344 54.493C13.2344 50.5025 16.4693 47.2676 20.4598 47.2676C24.4503 47.2676 27.6853 50.5025 27.6853 54.493Z" fill="white"/>
<path fill-rule="evenodd" clip-rule="evenodd" d="M53.5212 54.493C53.5212 58.4835 50.2863 61.7185 46.2958 61.7185C42.3053 61.7185 39.0703 58.4835 39.0703 54.493C39.0703 50.5025 42.3053 47.2676 46.2958 47.2676C50.2863 47.2676 53.5212 50.5025 53.5212 54.493Z" fill="white"/>
<path fill-rule="evenodd" clip-rule="evenodd" d="M28.7857 14.646C28.6559 12.7908 30.0512 11.1406 31.9058 11.1406H35.7358L35.3772 16.2651C35.3648 18.0893 33.9524 19.625 32.138 19.625C30.3239 19.625 28.9115 18.0893 28.8992 16.2651L28.7857 14.646Z" fill="white"/>
<path fill-rule="evenodd" clip-rule="evenodd" d="M28.0142 46.1231C27.9369 47.5241 28.2829 48.3021 28.7575 48.8369C29.219 49.3569 29.834 49.6966 30.5787 50.1078C30.6597 50.1526 30.7423 50.1982 30.8264 50.245C32.0607 47.4933 32.6103 45.4785 32.5961 44.0079C32.587 43.0718 32.3492 42.3911 31.9413 41.873C31.5978 41.4365 31.1003 41.0733 30.4185 40.7791C29.9708 41.3927 29.4518 42.2075 29.0087 43.0775C28.4585 44.1579 28.0623 45.2521 28.0142 46.1231ZM28.9881 53.9684H10.9814L10.9776 53.3153C10.9472 48.0496 13.3832 44.2178 16.8112 41.7142H4.95192L4.79014 41.6108C4.22304 41.2482 3.80384 40.8233 3.53294 40.3047C3.26352 39.7888 3.16744 39.2312 3.16402 38.6463L3.16016 37.9856H20.0472C19.7136 29.3216 22.3376 22.8707 26.6653 19.8282C27.9703 18.9106 29.4104 18.7909 30.7774 19.4017C32.1048 19.9948 33.3079 21.2484 34.3009 22.9696C36.9048 27.4835 40.9752 29.234 43.4037 29.2014L44.1097 29.1919L44.0365 30.4357C44.6947 30.2925 45.4178 30.2117 46.1748 30.2074L46.8316 30.2037L46.8651 36.0562L46.2082 36.06C45.7841 36.0624 45.3707 36.0407 44.9733 35.9976C45.9223 38.0612 46.9709 40.8627 47.2582 43.6522C51.0956 44.2589 53.2693 46.5892 54.468 48.7845C55.0912 49.9258 55.4545 51.0339 55.6624 51.8549C55.7666 52.2664 55.8325 52.6086 55.8726 52.8504C55.8927 52.9714 55.9063 53.0676 55.9151 53.135C55.9195 53.1687 55.9227 53.1952 55.9249 53.2141C55.9259 53.2236 55.9268 53.2311 55.9274 53.2367L55.9281 53.2436L55.9283 53.2459L55.9284 53.2468L55.9475 53.4392L55.9285 53.2475L56 53.9691H31.7512L31.7515 53.9687H28.9879L28.9881 53.9684ZM35.5344 49.7815C37.8285 48.3424 39.5229 46.3831 40.5241 44.0198C41.6335 41.4013 41.909 38.2458 41.1534 34.6883C40.905 34.6897 40.6423 34.6912 40.3936 34.6926C39.904 34.6953 39.4684 34.6978 39.3017 34.6988C38.7191 34.7021 38.3266 34.2647 38.1296 33.952C37.9106 33.6043 37.7633 33.1568 37.7608 32.7325L37.7569 32.0756L40.6694 32.0588C38.4982 31.9619 36.7899 31.5957 35.3949 30.9866C33.831 30.3037 32.7001 29.3327 31.7659 28.1697C30.8429 29.5474 30.0877 30.7522 29.326 32.3738C32.2547 33.2262 34.4873 34.2237 36.0662 35.4233C37.7967 36.7381 38.753 38.3071 38.9547 40.1665C39.1526 41.9918 38.6129 44.0078 37.5512 46.2214C37.0147 47.34 36.3369 48.5252 35.5344 49.7815Z" fill="white"/>
<path d="M20.0169 21.7715H6.00391V34.6842H20.0169V21.7715Z" fill="#C2945C"/>
<path d="M20.0169 34.6855H6.00391V38.0724H20.0169V34.6855Z" fill="#DB0007"/>
<path d="M20.0183 23.6683C20.0142 23.6683 19.992 23.668 19.9878 23.668C18.5214 23.668 17.2129 25.5913 16.3574 28.5993C15.5019 25.5913 14.193 23.668 12.7266 23.668C10.1487 23.668 8.05859 30.1772 8.05859 38.0721H10.1337C10.1337 30.7412 11.2948 24.689 12.7266 24.689C14.1587 24.689 15.3202 30.1751 15.3202 36.9419H17.3942C17.3942 30.1751 18.5557 24.689 19.9878 24.689C19.992 24.689 20.0142 24.6897 20.0183 24.6897V23.6683Z" fill="#FFBC0D"/>
<path d="M20.0169 19.2422H6.00391V21.7726H20.0169V19.2422Z" fill="#C2945C"/>
<path opacity="0.5" d="M20.0169 19.2422H6.00391V21.7726H20.0169V19.2422Z" fill="#E5AF71"/>
<path d="M14.7115 22.8781H11.3121C11.1463 22.8781 11.0117 22.7457 11.0117 22.5825V19.2422H15.0119V22.5825C15.0119 22.7457 14.8773 22.8781 14.7115 22.8781Z" fill="#FFBC0D"/>
<path fill-rule="evenodd" clip-rule="evenodd" d="M20.4592 61.061C24.0869 61.061 27.0278 58.1202 27.0278 54.4924C27.0278 54.3453 27.023 54.1994 27.0135 54.0547H13.905C13.8955 54.1994 13.8906 54.3453 13.8906 54.4924C13.8906 58.1202 16.8315 61.061 20.4592 61.061ZM13.9814 53.3978C14.5025 50.2911 17.2044 47.9238 20.4592 47.9238C23.714 47.9238 26.4159 50.2911 26.937 53.3978H13.9814Z" fill="#292929"/>
<path fill-rule="evenodd" clip-rule="evenodd" d="M20.4601 57.7776C22.2739 57.7776 23.7444 56.3071 23.7444 54.4933C23.7444 54.3449 23.7345 54.1988 23.7155 54.0557H17.2047C17.1856 54.1988 17.1758 54.3449 17.1758 54.4933C17.1758 56.3071 18.6462 57.7776 20.4601 57.7776ZM17.3626 53.3988C17.8133 52.123 19.03 51.209 20.4601 51.209C21.8902 51.209 23.1068 52.123 23.5576 53.3988H17.3626Z" fill="white"/>
<path d="M52.8637 54.4924C52.8637 58.1201 49.9229 61.061 46.2952 61.061C42.6674 61.061 39.7266 58.1201 39.7266 54.4924C39.7266 50.8647 42.6674 47.9238 46.2952 47.9238C49.9229 47.9238 52.8637 50.8647 52.8637 54.4924Z" fill="#292929"/>
<path d="M49.5803 54.4933C49.5803 56.3071 48.1099 57.7776 46.296 57.7776C44.4821 57.7776 43.0117 56.3071 43.0117 54.4933C43.0117 52.6794 44.4821 51.209 46.296 51.209C48.1099 51.209 49.5803 52.6794 49.5803 54.4933Z" fill="white"/>
<path fill-rule="evenodd" clip-rule="evenodd" d="M31.8616 11.7969C30.4247 11.7969 29.2908 13.0864 29.3968 14.5995L29.5117 16.2403C29.5117 17.7466 30.6678 18.9675 32.0938 18.9675C33.5201 18.9675 34.6762 17.7466 34.6762 16.2403L34.9872 11.7969H31.8616ZM46.2935 47.2676C42.6753 47.2676 39.6782 49.9271 39.1505 53.3979H33.0466C33.6618 52.563 34.1577 51.8762 34.6888 51.0989C40.6961 48.0246 43.5151 41.869 41.6737 34.114L39.2933 34.1276C38.8305 34.1303 38.4166 33.3892 38.4132 32.8143L41.405 32.797C41.6255 32.2779 42.2248 31.8207 43.0635 31.4909C36.4199 31.7355 33.7229 29.9812 31.7345 27.1209C30.4284 29.0479 29.4424 30.5266 28.4073 32.8844C41.4543 36.4368 40.4407 42.3304 32.2849 53.3975H30.0628C34.2592 45.2864 34.1597 41.7478 30.6472 40.2501L31.6012 38.3905C31.676 38.2448 31.5702 38.0716 31.4064 38.0716H20.7001C20.3643 29.511 22.9626 23.3168 27.0386 20.4512C29.2731 18.8801 31.8182 20.0739 33.7274 23.3835C36.4357 28.0784 40.714 29.9801 43.408 29.9439L43.3225 31.3985C44.1238 31.1233 45.1069 30.956 46.174 30.95L46.2 35.4888C45.3361 35.4937 44.5257 35.3927 43.8208 35.2136C44.9169 37.3886 46.4171 40.9213 46.6441 44.3184C54.4569 45.1899 55.2704 53.3979 55.2704 53.3979H53.4365C52.9088 49.9271 49.9117 47.2676 46.2935 47.2676ZM20.4574 38.7281H3.81641C3.82244 39.7598 4.15415 40.5131 5.13947 41.143H19.0787C14.8287 43.4431 11.5957 47.4621 11.63 53.3972H13.5076L16.4017 53.3979L23.7901 53.3972H26.6839H29.3051L30.5287 50.9191C30.4388 50.869 30.3488 50.8195 30.2588 50.77L30.2544 50.7675L30.2534 50.767C28.7023 49.9132 27.1933 49.0827 27.3539 46.1725C27.4344 44.7157 28.3285 42.8759 29.2157 41.4651L30.5444 39.0531C30.6248 38.9072 30.5193 38.7285 30.3527 38.7285H20.4574V38.7281Z" fill="#DB0007"/>
<rect x="50" y="7" width="3" height="30" fill="#A0A0A0"/>
<path d="M54 4.5L66 7V37H54V4.5Z" fill="#D9D9D9"/>
<ellipse cx="57" cy="21.5" rx="1" ry="1.5" fill="#8B8B8B"/>
</g>
<defs>
<clipPath id="clip0_4322_40980">
<rect width="72" height="72" fill="white"/>
</clipPath>
</defs>
</svg>
