<svg width="27" height="18" viewBox="0 0 27 18" fill="none" xmlns="http://www.w3.org/2000/svg">
<g clip-path="url(#clip0_109_43700)">
<path d="M0 0H27V18H0V0Z" fill="#0052B4"/>
<path d="M13.5 0V6.19162H11.0689L13.5 7.81072V9.00264H12.3082L8.4375 6.42368V9.00264H5.0625V6.42368L1.1918 9.00264H0V7.81072L2.43105 6.19162H0V2.81629H2.43105L0 1.19719V0H1.1918L5.0625 2.57896V0H8.4375V2.57896L12.3082 0H13.5Z" fill="white"/>
<path d="M7.59375 0H5.90625V3.66012H0V5.34779H5.90625V9.00264H7.59375V5.34779H13.5V3.66012H7.59375V0Z" fill="#D80027"/>
<path d="M0 0V0.796367L3.02695 2.81629H4.21875L0 0ZM13.5 0V0.796367L10.473 2.81629H9.28125L13.5 0Z" fill="#D80027"/>
<path d="M13.5014 1.19531V2.81442H11.0703L13.5014 1.19531Z" fill="#2E52B2"/>
<path d="M0 0V0.796367L3.02695 2.81629H4.21875L0 0ZM13.5 0V0.796367L10.473 2.81629H9.28125L13.5 0Z" fill="#D80027"/>
<path d="M13.5014 1.19531V2.81442H11.0703L13.5014 1.19531Z" fill="#2E52B2"/>
<path d="M0 9.00242V8.20606L3.02695 6.19141H4.21875L0 9.00242ZM13.5 9.00242V8.20606L10.473 6.19141H9.28125L13.5 9.00242Z" fill="#D80027"/>
<path d="M23.6758 7.36719C23.6705 9.70882 23.2961 12.2245 20.248 13.427C17.2 12.2245 16.8256 9.70882 16.8203 7.36719H23.6758Z" fill="#29DBFF"/>
<path d="M23.6785 7.36925C23.6785 6.4885 23.6311 5.63412 23.6521 4.88522C22.5131 4.37892 21.0102 4.27344 20.2455 4.27344C19.4809 4.27344 17.9832 4.37892 16.8389 4.88522C16.86 5.63412 16.8125 6.4885 16.8125 7.36925H23.6785Z" fill="#FFDA44"/>
<path d="M19.4855 10.7868L19.5014 11.33L18.8264 11.3406L19.0848 12.0367H18.1725C17.2232 10.9714 16.9385 9.80057 16.8594 8.44517L17.3393 7.93359L17.777 8.68777L18.3465 8.0127L18.7156 8.42407L18.7578 9.25208L19.4855 10.7868Z" fill="#BF521B"/>
<path d="M23.0227 10.1531L22.5691 11.1183H20.0906L18.5508 10.0898L19.9061 10.6436H21.2297L21.4248 10.3008L21.8045 10.3113L21.91 10.1531H23.0227Z" fill="#474747"/>
</g>
<rect x="0.5" y="0.5" width="26" height="17" rx="0.5" stroke="black" stroke-opacity="0.2"/>
<defs>
<clipPath id="clip0_109_43700">
<rect width="27" height="18" rx="1" fill="white"/>
</clipPath>
</defs>
</svg>
