<svg width="375" height="225" viewBox="0 0 375 225" fill="none" xmlns="http://www.w3.org/2000/svg">
<g clip-path="url(#clip0_102_69749)">
<path d="M184.5 4C262.096 4 325 66.904 325 144.5C325 163.443 321.249 181.51 314.453 198H54.5469C47.7506 181.51 44 163.443 44 144.5C44 66.904 106.904 4 184.5 4Z" fill="#DCEDF4"/>
<ellipse cx="184" cy="203" rx="153" ry="14" fill="#A0A09F" fill-opacity="0.15"/>
<path d="M316 97V124H264L264.005 97H316Z" fill="#FFBC0D"/>
<path d="M190.926 120H77V97H191L190.926 120Z" fill="#FFBC0D"/>
<path d="M191 99L190.97 108H77V99H191Z" fill="black" fill-opacity="0.1"/>
<path d="M316 99V108H264L264.002 99H316Z" fill="black" fill-opacity="0.1"/>
<path d="M264 124H287V203H264V124Z" fill="#F9F9F9"/>
<path d="M288 124H316V203H288V124Z" fill="#F9F9F9"/>
<path d="M191 89L190.967 98.999L73.8004 99C72.8061 99 72 98.1942 72 97.2002V90.8008C72 89.8068 72.8061 89.001 73.8004 89.001L191 89Z" fill="#FFBC0D"/>
<path d="M318.212 89.001C319.2 89.001 320 89.8068 320 90.8008V97.2002C320 98.1942 319.2 99 318.212 99L264 98.999L264.002 89L318.212 89.001Z" fill="#FFBC0D"/>
<path d="M260.5 74.5234L260.473 202.998H194.569L194.5 74.5234L260.5 74.5234Z" fill="#F1F1F1"/>
<path d="M59.8 124H244.443C245.437 124 246.243 124.806 246.243 125.8V140H58V125.8C58 124.806 58.8059 124 59.8 124Z" fill="#606060"/>
<path d="M195 140H246V203H195V140Z" fill="#D8D8D8"/>
<path d="M109 140H137V203H109V140Z" fill="#F9F9F9"/>
<path d="M138 140H166V203H138V140Z" fill="#F9F9F9"/>
<path d="M167 140H195V203H167V140Z" fill="#F9F9F9"/>
<path d="M218 154H246V203H218V154Z" fill="#F9F9F9"/>
<path d="M58 198H109V204H58V198Z" fill="#A5835B"/>
<path d="M58 192H109V198H58V192Z" fill="#C2945C"/>
<path d="M58 187H109V193H58V187Z" fill="#A5835B"/>
<path d="M58 182H109V188H58V182Z" fill="#C2945C"/>
<path d="M58 177H109V183H58V177Z" fill="#A5835B"/>
<path d="M58 171H109V177H58V171Z" fill="#C2945C"/>
<path d="M58 166H109V172H58V166Z" fill="#A5835B"/>
<path d="M58 161H109V167H58V161Z" fill="#C2945C"/>
<path d="M58 156H109V162H58V156Z" fill="#A5835B"/>
<path d="M58 150H109V156H58V150Z" fill="#C2945C"/>
<path d="M58 145H109V151H58V145Z" fill="#A5835B"/>
<path d="M58 140H109V146H58V140Z" fill="#C2945C"/>
<path d="M136 140H140V203H136V140Z" fill="#D8D8D8"/>
<path d="M286 124H290V203H286V124Z" fill="#D8D8D8"/>
<path d="M312 124H316V203H312V124Z" fill="#D8D8D8"/>
<path d="M165 140H169V203H165V140Z" fill="#D8D8D8"/>
<path d="M218 154H246V160H218V154Z" fill="#A0A09F" fill-opacity="0.15"/>
<path d="M195 140H246V143H195V140Z" fill="#292929" fill-opacity="0.1"/>
<path d="M165 140H169V146H165V140Z" fill="#292929" fill-opacity="0.1"/>
<path d="M136 140H140V146H136V140Z" fill="#292929" fill-opacity="0.1"/>
<path d="M109 140H136V145H109V140Z" fill="#A0A09F" fill-opacity="0.15"/>
<path d="M140 140H165V145H140V140Z" fill="#A0A09F" fill-opacity="0.15"/>
<path d="M169 140H195V145H169V140Z" fill="#A0A09F" fill-opacity="0.15"/>
<path fill-rule="evenodd" clip-rule="evenodd" d="M236.023 86.7959C239.143 86.7959 241.672 99.9528 241.672 116.182H246.195C246.195 98.703 241.64 84.5352 236.023 84.5352C232.826 84.5352 229.975 88.7942 228.111 95.4522C226.247 88.7942 223.396 84.5352 220.2 84.5352C214.584 84.5352 210.027 98.703 210.027 116.182H214.55C214.55 99.9528 217.08 86.7959 220.2 86.7959C223.32 86.7959 225.85 98.9404 225.85 113.921H230.372C230.372 98.9404 232.902 86.7959 236.023 86.7959Z" fill="#FFBC0D"/>
<rect x="63" y="33" width="6" height="170" fill="#F9F9F9"/>
<rect x="66" y="33" width="3" height="170" fill="#F1F1F1"/>
<path d="M66 26C68.2091 26 70 27.7909 70 30C70 31.195 69.4754 32.267 68.6445 33H63.3555C62.5246 32.267 62 31.195 62 30C62 27.7909 63.7909 26 66 26Z" fill="#FFBC0D"/>
<path opacity="0.5" d="M66 26C67.3598 26 68.5605 26.6789 69.2832 27.7158C68.6357 27.2648 67.8489 27 67 27C64.7909 27 63 28.7909 63 31C63 31.8496 63.2659 32.6366 63.7178 33.2842C62.6799 32.5616 62 31.3605 62 30C62 27.7909 63.7909 26 66 26Z" fill="#F9F9F9"/>
<path d="M83 42H110V60H83V42Z" fill="#0052B4"/>
<path d="M106.163 51.5312C106.158 53.5944 105.826 55.8155 103.142 56.8734C100.453 55.8155 100.126 53.5944 100.121 51.5312H106.163Z" fill="white"/>
<path d="M106.135 52.4062C105.988 54.2431 105.483 55.9536 103.135 56.8799C100.799 55.9536 100.267 54.1852 100.141 52.4115" fill="#29DBFF"/>
<path d="M106.042 53.2695C105.874 54.5485 105.163 56.0853 103.142 56.8801C101.121 56.0853 100.484 54.6432 100.242 53.2801" fill="white"/>
<path d="M105.854 54.1199C105.554 55.0515 104.839 56.1936 103.154 56.8988C101.47 56.2357 100.776 55.1199 100.449 54.1094" fill="#29DBFF"/>
<path d="M105.46 54.9949C105.118 55.5896 104.528 56.3317 103.144 56.8844C101.697 56.2791 101.175 55.5528 100.828 54.9844" fill="white"/>
<path d="M104.704 55.9531C104.278 56.3321 104.073 56.5426 103.146 56.8952C102.088 56.4794 101.957 56.2847 101.609 55.9742" fill="#29DBFF"/>
<path d="M103.172 54.1883C103.162 54.1778 101.704 56.0672 101.704 56.0672C101.609 55.9988 101.178 55.5672 101.004 55.2778L103.178 52.6409L105.293 55.2567C105.088 55.5988 104.693 55.9725 104.599 56.0462L103.172 54.1883ZM103.135 46.4883L101.741 48.8567H104.53L103.135 46.4883Z" fill="#5CC85C"/>
<path d="M99.1569 53.99C99.3466 52.5872 99.1338 51.4004 98.6815 51.3392C98.2293 51.2781 97.7089 52.3657 97.5192 53.7686C97.3295 55.1714 97.5424 56.3582 97.9946 56.4193C98.4469 56.4805 98.9673 55.3928 99.1569 53.99Z" fill="#F7A226"/>
<path d="M99.304 50.809C99.4309 50.4935 99.3763 50.1744 99.1821 50.0963C98.9879 50.0182 98.7276 50.2108 98.6008 50.5263C98.4739 50.8419 98.5285 51.1609 98.7227 51.239C98.9169 51.3171 99.1771 51.1246 99.304 50.809Z" fill="#DDC7AB"/>
<path d="M98.5237 56.3233C98.5713 55.9954 98.533 55.7184 98.4381 55.7046C98.3431 55.6908 98.2276 55.9455 98.18 56.2734C98.1324 56.6013 98.1707 56.8784 98.2656 56.8921C98.3605 56.9059 98.4761 56.6513 98.5237 56.3233Z" fill="#DDC7AB"/>
<path d="M98.8018 56.7563C98.8976 56.7512 98.9614 56.4882 98.9443 56.1689C98.9271 55.8496 98.8356 55.5949 98.7398 55.6001C98.6441 55.6052 98.5803 55.8682 98.5974 56.1875C98.6145 56.5068 98.706 56.7614 98.8018 56.7563Z" fill="#DDC7AB"/>
<path d="M99.8196 53.2546C99.9304 53.2109 99.9019 52.8751 99.7558 52.5047C99.6098 52.1342 99.4015 51.8693 99.2906 51.913C99.1797 51.9568 99.2083 52.2925 99.3543 52.663C99.5004 53.0334 99.7087 53.2983 99.8196 53.2546Z" fill="#DDC7AB"/>
<path d="M99.79 51.5745C100.161 51.4285 100.425 51.2202 100.382 51.1093C100.338 50.9984 100.002 51.027 99.6317 51.173C99.2613 51.3191 98.9964 51.5274 99.0401 51.6382C99.0838 51.7491 99.4196 51.7206 99.79 51.5745Z" fill="#DDC7AB"/>
<path d="M108.271 56.4303C108.724 56.3692 108.936 55.1824 108.747 53.7796C108.557 52.3767 108.037 51.2891 107.584 51.3502C107.132 51.4114 106.919 52.5982 107.109 54.001C107.299 55.4038 107.819 56.4915 108.271 56.4303Z" fill="#F7A226"/>
<path d="M107.545 51.2513C107.74 51.1733 107.794 50.8542 107.667 50.5386C107.54 50.2231 107.28 50.0306 107.086 50.1087C106.892 50.1867 106.837 50.5058 106.964 50.8213C107.091 51.1369 107.351 51.3294 107.545 51.2513Z" fill="#DDC7AB"/>
<path d="M108.001 56.9047C108.096 56.8909 108.134 56.6139 108.086 56.286C108.039 55.9581 107.923 55.7034 107.828 55.7172C107.733 55.731 107.695 56.008 107.743 56.3359C107.79 56.6639 107.906 56.9185 108.001 56.9047Z" fill="#DDC7AB"/>
<path d="M107.671 56.1983C107.688 55.879 107.624 55.616 107.528 55.6109C107.433 55.6058 107.341 55.8604 107.324 56.1797C107.307 56.499 107.371 56.762 107.466 56.7671C107.562 56.7722 107.654 56.5176 107.671 56.1983Z" fill="#DDC7AB"/>
<path d="M106.912 52.6672C107.058 52.2967 107.087 51.9609 106.976 51.9172C106.865 51.8735 106.657 52.1384 106.511 52.5089C106.365 52.8794 106.336 53.2151 106.447 53.2588C106.558 53.3026 106.766 53.0377 106.912 52.6672Z" fill="#DDC7AB"/>
<path d="M107.229 51.6446C107.273 51.5337 107.008 51.3255 106.638 51.1794C106.267 51.0333 105.931 51.0048 105.888 51.1157C105.844 51.2265 106.109 51.4348 106.479 51.5809C106.85 51.7269 107.186 51.7555 107.229 51.6446Z" fill="#DDC7AB"/>
<path d="M102.647 48.8594L101.742 50.1594L102.679 51.5331H103.842L104.09 50.1962L103.805 48.8594H102.647Z" fill="#B0C6CC"/>
<path d="M96.4737 42V48.1789H94.0474L96.4737 49.7947V50.9842H95.2842L91.4211 48.4105V50.9842H88.0526V48.4105L84.1895 50.9842H83V49.7947L85.4263 48.1789H83V44.8105H85.4263L83 43.1947V42H84.1895L88.0526 44.5737V42H91.4211V44.5737L95.2842 42H96.4737Z" fill="white"/>
<path d="M90.5789 42H88.8947V45.6526H83V47.3368H88.8947V50.9842H90.5789V47.3368H96.4737V45.6526H90.5789V42Z" fill="#D80027"/>
<path d="M96.4732 43.1953V44.8111H94.0469L96.4732 43.1953Z" fill="#2E52B2"/>
<path d="M83 50.985V50.406L86.2895 48.1797H87.4789L83.3842 50.985H83Z" fill="#D80027"/>
<path d="M83.3842 42.0039L87.4789 44.8039H86.2895L83 42.5829V42.0039H83.3842ZM96.4737 42.0039V42.5829L93.1842 44.8092H91.9947L96.0895 42.0039H96.4737ZM96.0895 50.9829L91.9947 48.1776H93.1842L96.4737 50.4039V50.9829H96.0895Z" fill="#D80027"/>
<path d="M67.8158 205.5L68.7364 205.494C75.9374 205.404 81.6316 204.137 81.6316 196.816C81.6316 189.186 75.446 183 67.8158 183C60.1855 183 54 189.186 54 196.816C54 204.446 60.1855 205.5 67.8158 205.5Z" fill="#9CC93A"/>
<path d="M98.8158 205.5L99.7364 205.494C106.937 205.404 112.632 204.137 112.632 196.816C112.632 189.186 106.446 183 98.8158 183C91.1855 183 85 189.186 85 196.816C85 204.446 91.1855 205.5 98.8158 205.5Z" fill="#9CC93A"/>
<path d="M128.816 205.5L129.736 205.494C136.937 205.404 142.632 204.137 142.632 196.816C142.632 189.186 136.446 183 128.816 183C121.186 183 115 189.186 115 196.816C115 204.446 121.186 205.5 128.816 205.5Z" fill="#9CC93A"/>
<path d="M253.561 29.8555C255.088 29.8555 256.327 31.0943 256.327 32.6221C256.327 34.0685 255.217 35.2538 253.802 35.376C254.09 36.0127 254.252 36.7186 254.252 37.4629C254.252 40.2639 251.982 42.5342 249.181 42.5342H257.94C260.741 42.5342 263.013 44.8055 263.013 47.6064H269.929C272.729 47.6066 275 49.8769 275 52.6777C275 55.4786 272.73 57.7498 269.929 57.75H262.332C261.455 59.2653 259.817 60.2852 257.94 60.2852H215.523C213.647 60.2852 212.009 59.2653 211.132 57.75H206.071C203.27 57.7498 201 55.4786 201 52.6777C201 49.8769 203.271 47.6066 206.071 47.6064H210.452C210.452 44.8055 212.722 42.5342 215.523 42.5342H221.748C221.748 39.7334 224.018 37.4629 226.819 37.4629H235.349C235.349 34.6619 237.62 32.3916 240.421 32.3916H249.181C249.746 32.3916 250.288 32.4849 250.796 32.6553C250.796 32.6442 250.795 32.6332 250.795 32.6221C250.795 31.0943 252.033 29.8556 253.561 29.8555Z" fill="white"/>
<path d="M140.047 2C143.684 2 146.634 4.94858 146.634 8.58594C146.634 8.65081 146.631 8.71586 146.629 8.78027H148.184C150.537 8.78048 152.445 10.6884 152.445 13.042H155.738C158.092 13.042 160 14.95 160 17.3037C160 19.6574 158.092 21.5654 155.738 21.5654H153.229C152.493 22.8389 151.116 23.6963 149.539 23.6963H133.461C131.884 23.6963 130.507 22.8389 129.771 21.5654H127.262C124.908 21.5654 123 19.6574 123 17.3037C123 14.95 124.908 13.042 127.262 13.042H127.843C127.843 10.6883 129.751 8.78037 132.104 8.78027H133.466C133.464 8.71585 133.461 8.65081 133.461 8.58594C133.461 4.94867 136.41 2.00015 140.047 2Z" fill="white"/>
</g>
<defs>
<clipPath id="clip0_102_69749">
<rect width="375" height="225" fill="white"/>
</clipPath>
</defs>
</svg>
