<svg width="72" height="72" viewBox="0 0 72 72" fill="none" xmlns="http://www.w3.org/2000/svg">
<path d="M51.6667 68.125C51.6667 69.7128 44.8017 71 36.3333 71C27.865 71 21 69.7128 21 68.125C21 66.5372 27.865 65.25 36.3333 65.25C44.8017 65.25 51.6667 66.5372 51.6667 68.125Z" fill="#F0F0F0"/>
<path d="M21 3.91667C21 2.85812 21.8581 2 22.9167 2H49.75C50.8085 2 51.6667 2.85812 51.6667 3.91667V42.25C51.6667 43.3085 50.8085 44.1667 49.75 44.1667H22.9167C21.8581 44.1667 21 43.3085 21 42.25V3.91667Z" fill="#606060"/>
<path d="M44.957 15.416C44.957 20.1795 41.0955 24.041 36.332 24.041C31.5686 24.041 27.707 20.1795 27.707 15.416C27.707 10.6526 31.5686 6.79102 36.332 6.79102C41.0955 6.79102 44.957 10.6526 44.957 15.416Z" fill="#A0A09F"/>
<path fill-rule="evenodd" clip-rule="evenodd" d="M38.4308 29.456C39.2576 29.456 39.9277 33.0779 39.9277 37.5461H41.1263C41.1263 32.7347 39.9189 28.834 38.4308 28.834C37.5843 28.834 36.8282 30.006 36.3346 31.8393C35.8403 30.006 35.085 28.834 34.2385 28.834C32.7496 28.834 31.543 32.7347 31.543 37.5461H32.7409C32.7409 33.0779 33.4117 29.456 34.2385 29.456C35.0653 29.456 35.736 32.7999 35.736 36.9234H36.934C36.934 32.7999 37.604 29.456 38.4308 29.456Z" fill="#A0A09F"/>
<path d="M34.418 44.166H38.2513V67.166C38.2513 67.166 37.7721 68.1243 36.3346 68.1243C34.8971 68.1243 34.418 67.166 34.418 67.166V44.166Z" fill="#C5C5C5"/>
<path d="M35.8555 44.166H34.418V67.166C34.418 67.166 34.7885 67.9071 35.8555 68.0859V44.166Z" fill="#A0A09F"/>
</svg>
