<svg width="27" height="18" viewBox="0 0 27 18" fill="none" xmlns="http://www.w3.org/2000/svg">
<g clip-path="url(#clip0_109_43685)">
<path d="M0 0H27V17.9996H0V0Z" fill="#496E2D"/>
<path d="M18.8382 5.18486C19.281 3.95066 18.7835 2.60837 17.7159 1.9398C17.9117 1.96514 18.1041 2.01148 18.2899 2.07802C19.7138 2.58891 20.454 4.15722 19.9431 5.58121C19.4322 7.00519 17.8639 7.74532 16.4399 7.23443C16.2542 7.16767 16.0762 7.08113 15.9089 6.97629C17.158 7.13892 18.3954 6.4191 18.8382 5.18486ZM16.3823 1.60156L15.9975 2.09869L15.4058 1.88638L15.7597 2.40592L15.375 2.90304L15.9784 2.72702L16.3324 3.24656L16.3514 2.61828L16.9549 2.4422L16.3632 2.22994L16.3823 1.60156Z" fill="white"/>
<path d="M17.4202 3.22141L17.0354 3.71854L16.4437 3.50623L16.7976 4.02577L16.4129 4.5229L17.0163 4.34682L17.3703 4.86641L17.3893 4.23808L17.9928 4.06195L17.4011 3.84974L17.4202 3.22141ZM14.5494 2.19141L14.1647 2.68853L13.573 2.47633L13.9269 2.99582L13.5422 3.49289L14.1456 3.31686L14.4996 3.8364L14.5186 3.20807L15.1221 3.0321L14.5304 2.81974L14.5494 2.19141ZM14.5073 4.04708L14.1225 4.5442L13.5308 4.33189L13.8847 4.85143L13.5 5.34856L14.1035 5.17253L14.4574 5.69207L14.4765 5.06374L15.0799 4.88772L14.4882 4.67541L14.5073 4.04708ZM16.273 4.68057L15.8883 5.1777L15.2966 4.96539L15.6506 5.48498L15.2658 5.98206L15.8693 5.80603L16.2232 6.32557L16.2422 5.69724L16.8456 5.52121L16.254 5.30896L16.273 4.68057Z" fill="white"/>
<path d="M4.40234 0H9.09797V17.9996H4.40234V0Z" fill="#D80027"/>
<path d="M6.19241 4.73771L5.40625 4.15209V3.3239L6.19241 2.73828H7.30427L8.09043 3.3239V4.15209L7.30427 4.73771H6.19241Z" fill="white"/>
<path d="M6.74834 2.73828H6.19241L5.40625 3.3239V3.72879H6.74834V2.73828ZM6.74834 4.73771H7.30427L8.09043 4.15209V3.72959H6.74834V4.73771Z" fill="#FF9811"/>
<path d="M6.19241 15.2611L5.40625 14.6755V13.8473L6.19241 13.2617H7.30427L8.09043 13.8473V14.6755L7.30427 15.2611H6.19241Z" fill="white"/>
<path d="M6.74834 13.2617H6.19241L5.40625 13.8473V14.2522H6.74834V13.2617ZM6.74834 15.2611H7.30427L8.09043 14.6755V14.253H6.74834V15.2611Z" fill="#FF9811"/>
<path d="M6.19254 9.99837L5.40638 9.41275V8.58467L6.19254 7.999H7.3044L8.09056 8.58467V9.41275L7.3044 9.99837H6.19254ZM8.11803 11.2869H7.77563V10.9445H7.17388L6.74842 10.519L6.32301 10.9445H5.72131V11.2869H5.37891V11.9717H5.72131V12.314H6.32301L6.74847 12.7396L7.17393 12.314H7.77563V11.9717H8.11803V11.2869ZM8.11803 6.02568H7.77563V5.68333H7.17388L6.74842 5.25781L6.32301 5.68333H5.72131V6.02568H5.37891V6.71049H5.72131V7.05284H6.32301L6.74847 7.47841L7.17393 7.05284H7.77563V6.71049H8.11803V6.02568Z" fill="#496E2D"/>
<path d="M6.35938 8.60547H7.14195V9.38805H6.35938V8.60547Z" fill="#D80027"/>
<path d="M6.75071 6.75925C6.96684 6.75925 7.14205 6.58404 7.14205 6.36791C7.14205 6.15177 6.96684 5.97656 6.75071 5.97656C6.53458 5.97656 6.35938 6.15177 6.35938 6.36791C6.35938 6.58404 6.53458 6.75925 6.75071 6.75925Z" fill="#D80027"/>
<path d="M6.75072 12.021C6.96685 12.021 7.14206 11.8458 7.14206 11.6296C7.14206 11.4135 6.96685 11.2383 6.75072 11.2383C6.53458 11.2383 6.35938 11.4135 6.35938 11.6296C6.35938 11.8458 6.53458 12.021 6.75072 12.021Z" fill="#D80027"/>
</g>
<rect x="0.5" y="0.5" width="26" height="17" rx="0.5" stroke="black" stroke-opacity="0.2"/>
<defs>
<clipPath id="clip0_109_43685">
<rect width="27" height="18" rx="1" fill="white"/>
</clipPath>
</defs>
</svg>
