<svg width="136" height="136" viewBox="0 0 136 136" fill="none" xmlns="http://www.w3.org/2000/svg">
<path d="M56.3622 27.7418L57.6102 29.0088L58.8583 27.7418C59.4916 27.0987 60.5938 27.5426 60.5938 28.4407V71.8793H27.0156V28.4407C27.0156 27.5426 28.1178 27.0987 28.7512 27.7418L29.9992 29.0088L31.2473 27.7418C31.6326 27.3506 32.2604 27.3391 32.6599 27.7073L32.6956 27.7418L33.9437 29.0088L35.1917 27.7418C35.577 27.3506 36.2048 27.3391 36.6044 27.7073L36.64 27.7418L37.8881 29.0088L39.1361 27.7418C39.5214 27.3506 40.1492 27.3391 40.5488 27.7073L40.5845 27.7418L41.8325 29.0088L43.0806 27.7418C43.4658 27.3506 44.0937 27.3391 44.4932 27.7073L44.5289 27.7418L45.7769 29.0088L47.025 27.7418C47.4103 27.3506 48.0381 27.3391 48.4376 27.7073L48.4733 27.7418L49.7214 29.0088L50.9694 27.7418C51.3547 27.3506 51.9825 27.3391 52.3821 27.7073L52.4177 27.7418L53.6658 29.0088L54.9139 27.7418C55.2991 27.3506 55.927 27.3391 56.3265 27.7073L56.3622 27.7418Z" fill="white"/>
<path fill-rule="evenodd" clip-rule="evenodd" d="M28.0039 28.5566L29.9732 30.5764L31.9424 28.5566L33.9117 30.5764L35.8809 28.5566L37.8502 30.5764L39.8195 28.5566L41.7887 30.5764L43.758 28.5566L45.7272 30.5764L47.6965 28.5566L49.6658 30.5764L51.635 28.5566L53.6043 30.5764L55.5735 28.5566L57.5428 30.5764L59.5121 28.5566V68.9517C59.5121 69.8441 58.7887 70.5675 57.8963 70.5675H29.6197C28.7273 70.5675 28.0039 69.8441 28.0039 68.9517V28.5566Z" fill="#C2945C"/>
<path d="M28.0039 62.9902H59.6069V70.891H28.0039V62.9902Z" fill="#D90007"/>
<path fill-rule="evenodd" clip-rule="evenodd" d="M59.5081 38.5481C59.2491 38.4916 58.8561 38.4551 58.5923 38.4551C55.2389 38.4551 52.2446 42.7769 50.2871 49.5332C48.3285 42.7769 45.3354 38.4551 41.9796 38.4551C36.084 38.4551 31.3008 53.155 31.3008 70.8919H36.0479C36.0479 54.4251 38.7052 40.748 41.9796 40.748C45.2575 40.748 47.9135 53.0737 47.9135 68.2762H52.6595C52.6595 53.0737 55.3179 40.748 58.5923 40.748C58.8581 40.748 59.2515 40.8437 59.5081 41.0141C59.5072 39.4727 59.5081 40.2806 59.5081 38.5481Z" fill="#FFBC0D"/>
<path d="M88.2054 40.5706C88.4779 40.1618 88.9337 39.918 89.425 39.918C89.7805 39.918 90.1237 40.0473 90.391 40.282L91.1308 40.9315L103.467 42.2529C103.977 42.3076 104.435 42.5821 104.724 43.0062C104.917 43.2905 105.136 43.6744 105.294 44.1332C105.701 44.1457 106.085 44.3238 106.381 44.6384C107.098 45.4014 107.077 46.684 107.053 47.0589C107.02 47.5925 106.624 48.033 106.097 48.1233L106.095 48.1237C106.077 48.1268 105.973 48.1443 105.788 48.1717C105.143 54.0958 103.672 68.0418 103.394 69.9351C103.116 71.8284 98.9136 71.8748 95.8991 71.9721C92.5302 72.0808 87.6891 71.7101 87.4474 70.0463C87.2057 68.3825 85.352 52.5873 84.8219 48.1576C84.6694 48.1237 84.5864 48.1003 84.5597 48.0923C84.0435 47.9394 83.702 47.4496 83.7368 46.9124C83.7404 46.8574 83.7758 46.3599 83.9132 45.8409C84.3069 44.3544 85.1883 44.1325 85.6785 44.1325H85.7245L86.1059 42.3204C86.3149 41.3276 87.191 40.6025 88.2003 40.5784L88.2054 40.5706Z" fill="white"/>
<path fill-rule="evenodd" clip-rule="evenodd" d="M84.8867 46.9866C84.8867 46.9866 84.9971 45.2848 85.678 45.2848H86.6595L87.2336 42.5573C87.3427 42.0383 87.8246 41.6841 88.3523 41.735L88.7862 41.7767L89.1644 41.2094C89.269 41.0523 89.488 41.0233 89.63 41.148L90.6444 42.0386L103.344 43.3987C103.517 43.4173 103.672 43.5104 103.77 43.6544C103.983 43.9669 104.323 44.5712 104.358 45.2848H105.248C105.693 45.2848 105.955 46.1488 105.902 46.9866C105.902 46.9866 101.937 47.6673 95.3422 47.6673C87.1767 47.6673 84.8867 46.9866 84.8867 46.9866Z" fill="#461E00"/>
<path fill-rule="evenodd" clip-rule="evenodd" d="M85.9609 47.9648C85.9609 47.9648 88.5135 69.3021 88.5911 69.8977C88.7089 70.801 91.7947 71.0118 95.2885 71.0118C98.7824 71.0118 102.135 70.6438 102.253 69.7798C102.37 68.9159 104.647 47.9844 104.647 47.9844C104.647 47.9844 101.801 48.5342 95.1474 48.5342C89.4352 48.5342 85.9609 47.9648 85.9609 47.9648Z" fill="#FFBC0D"/>
<g style="mix-blend-mode:multiply" opacity="0.5">
<path fill-rule="evenodd" clip-rule="evenodd" d="M98.3828 70.9034C98.9459 65.4474 99.6398 54.8195 100.047 48.4197C103.226 48.2587 104.646 47.9844 104.646 47.9844C104.646 47.9844 102.369 68.9158 102.251 69.7798C102.17 70.3778 100.538 70.7382 98.3828 70.9034Z" fill="#D6D6D6"/>
</g>
<path fill-rule="evenodd" clip-rule="evenodd" d="M96.4178 66.2295C96.7554 66.2043 97.0277 67.5872 97.0277 69.3397C97.1898 69.3185 97.3517 69.2939 97.5133 69.2656C97.5133 67.3777 97.0256 65.9403 96.4178 65.9854C96.0724 66.0119 95.7633 66.4777 95.5613 67.1966C95.3593 66.4777 95.0502 66.0119 94.7047 65.9854C94.0971 65.9404 93.6092 67.3776 93.6094 69.2656C93.7708 69.2939 93.9328 69.3185 94.095 69.3397C94.095 67.5872 94.3674 66.2043 94.7047 66.2295C95.0422 66.2553 95.3165 67.5702 95.3164 69.1881C95.4797 69.1916 95.6429 69.1916 95.8062 69.1881C95.8061 67.5702 96.0805 66.2554 96.4178 66.2295Z" fill="#EC9D47"/>
<path d="M128.244 120.763C128.244 124.036 101.273 126.689 68.0011 126.689C34.7296 126.689 7.75781 124.036 7.75781 120.763C7.75781 117.491 34.7296 114.838 68.0011 114.838C101.273 114.838 128.244 117.491 128.244 120.763Z" fill="#A0A09F" fill-opacity="0.15"/>
<path fill-rule="evenodd" clip-rule="evenodd" d="M17.1406 83.2363H118.863V118.287C118.863 120.436 116.881 121.753 115.011 121.753H20.9922C19.1225 121.753 17.1406 120.436 17.1406 118.287V83.2363Z" fill="white"/>
<path fill-rule="evenodd" clip-rule="evenodd" d="M15.7485 72.3711H120.254C121.395 72.3711 122.319 73.2956 122.319 74.436V81.1697C122.319 82.3102 121.395 83.2347 120.254 83.2347L120.22 83.2344C102.249 82.9417 84.6452 82.7954 67.4077 82.7954C50.1996 82.7954 32.9916 82.9412 15.7835 83.2329C14.6778 83.2517 13.7604 82.3978 13.6882 81.3063L13.6836 81.1683V74.436C13.6836 73.2956 14.6081 72.3711 15.7485 72.3711Z" fill="white"/>
<path d="M120.203 84.7166L120.197 84.7165C102.234 84.424 84.6378 84.2777 67.4086 84.2777C50.2089 84.2777 33.0092 84.4235 15.8096 84.715C13.9102 84.7472 12.335 83.2807 12.2109 81.405L12.2093 81.3806L12.2039 81.2182L12.2031 81.1692V74.437C12.2031 72.4784 13.7909 70.8906 15.7495 70.8906H120.255C122.214 70.8906 123.801 72.4784 123.801 74.437V81.1707C123.801 83.1293 122.214 84.717 120.255 84.717H120.249L120.203 84.7166Z" fill="white"/>
<path d="M18.6211 84.7168H117.381V118.286C117.381 119.382 116.319 120.27 115.01 120.27H20.9913C19.6823 120.27 18.6211 119.382 18.6211 118.286V84.7168Z" fill="#292929"/>
<path fill-rule="evenodd" clip-rule="evenodd" d="M15.7485 72.3711H120.254C121.395 72.3711 122.319 73.2956 122.319 74.436V81.1697C122.319 82.3102 121.395 83.2347 120.254 83.2347L120.22 83.2344C102.249 82.9417 84.6452 82.7954 67.4077 82.7954C50.1996 82.7954 32.9916 82.9412 15.7835 83.2329C14.6778 83.2517 13.7604 82.3978 13.6882 81.3063L13.6836 81.1683V74.436C13.6836 73.2956 14.6081 72.3711 15.7485 72.3711Z" fill="#FFBC0D"/>
<path d="M66.3422 36.3262C69.1572 36.3262 70.9543 38.3944 72.4539 43.3689L72.4891 43.4866L72.5101 43.5284L75.7596 50.4601C75.8268 50.6035 75.8556 50.7621 75.8433 50.9201C75.5742 54.3544 75.1806 57.811 74.6627 61.2898C74.1448 64.7684 73.5091 68.2243 72.7558 71.6576C72.6671 72.0622 72.3187 72.354 71.9101 72.3725L71.869 72.3734H49.063C48.6365 72.3734 48.2674 72.0752 48.176 71.6568C47.4161 68.1789 46.7805 64.7232 46.2693 61.2898C45.7581 57.8561 45.3646 54.3998 45.0888 50.921C45.0776 50.7802 45.0992 50.6391 45.1514 50.5085L45.1724 50.4601L48.4311 43.5093L48.4429 43.4862L48.4822 43.3552C49.9506 38.4905 51.9303 36.4495 54.6681 36.3299L54.7512 36.3271L54.8372 36.3262C57.0855 36.3262 59.0496 37.1871 60.5145 40.3214L60.5896 40.4844L60.6193 40.4195C62.0561 37.2975 63.9813 36.4119 66.1886 36.329L66.2592 36.327L66.3422 36.3262Z" fill="white"/>
<path fill-rule="evenodd" clip-rule="evenodd" d="M49.6507 45.1244H67.9664L67.9297 44.9544C67.418 42.6261 66.7525 41.2164 66.0242 41.2164C65.264 41.2164 64.5722 42.6348 64.0524 44.9551L64.0152 45.1244H57.1846L57.1479 44.9544C56.6362 42.6261 55.9705 41.2164 55.2424 41.2164C54.4731 41.2164 53.7738 42.6692 53.2521 45.0393L53.2335 45.1244H49.6694C50.9396 40.7683 52.9379 37.957 55.1863 37.957C57.3698 37.957 59.3177 40.4159 60.591 44.2606C61.8651 40.4159 63.8126 37.957 65.9961 37.957C68.222 37.957 70.2026 40.7124 71.4743 44.9941L71.5126 45.1244H71.5312L74.5843 51.6091C74.3331 54.8019 73.9656 58.0159 73.4818 61.2508C72.9981 64.4858 72.4045 67.6997 71.7009 70.8926H49.4811C48.7713 67.6576 48.1776 64.4437 47.7002 61.2508C47.2227 58.058 46.8552 54.844 46.5977 51.6091L49.6507 45.1244Z" fill="white"/>
<path fill-rule="evenodd" clip-rule="evenodd" d="M49.6507 45.125H71.5312L74.5843 51.6097C74.5843 51.6097 74.2074 56.399 73.4818 61.2515C72.7562 66.1039 71.7009 70.8932 71.7009 70.8932H49.4811C49.4811 70.8932 48.4163 66.0408 47.7002 61.2515C46.984 56.4622 46.5977 51.6097 46.5977 51.6097L49.6507 45.125Z" fill="#DB0007"/>
<path fill-rule="evenodd" clip-rule="evenodd" d="M60.5932 63.3843C56.4823 63.3843 52.99 60.4107 51.7309 56.2754L50.687 56.7527L50.1836 55.6532L53.0546 54.3398L53.558 55.4395L52.6755 55.8433C53.5418 58.946 56.7579 61.2497 60.5932 61.2497C64.4285 61.2497 67.6446 58.946 68.511 55.8433L67.6284 55.4395L68.1318 54.3398L71.003 55.6532L70.4994 56.7527L69.4555 56.2754C68.1964 60.4107 64.7043 63.3843 60.5932 63.3843Z" fill="#FFBC0D"/>
<path fill-rule="evenodd" clip-rule="evenodd" d="M53.2322 45.1244C53.7557 42.704 54.4625 41.2164 55.241 41.2164C55.9866 41.2164 56.6669 42.6948 57.1832 45.1244H64.0138C64.5375 42.704 65.2443 41.2164 66.0228 41.2164C66.7686 41.2164 67.4487 42.6948 67.965 45.1244H71.5112C70.2412 40.7683 68.2431 37.957 65.9947 37.957C63.8112 37.957 61.8637 40.4159 60.5896 44.2606C59.3163 40.4159 57.3684 37.957 55.1849 37.957C52.9365 37.957 50.9382 40.7683 49.668 45.1244H53.2322Z" fill="#FFBC0D"/>
<path fill-rule="evenodd" clip-rule="evenodd" d="M53.2322 45.1244C53.7557 42.704 54.4625 41.2164 55.241 41.2164C55.9866 41.2164 56.6669 42.6948 57.1832 45.1244H64.0138C64.5375 42.704 65.2443 41.2164 66.0228 41.2164C66.7686 41.2164 67.4487 42.6948 67.965 45.1244H71.5112C70.2412 40.7683 68.2431 37.957 65.9947 37.957C63.8112 37.957 61.8637 40.4159 60.5896 44.2606C59.3163 40.4159 57.3684 37.957 55.1849 37.957C52.9365 37.957 50.9382 40.7683 49.668 45.1244H53.2322Z" fill="#FFBC0D"/>
<path fill-rule="evenodd" clip-rule="evenodd" d="M63.6361 44.4183C64.1824 41.9798 64.9517 40.6875 66.0242 40.6875C67.0692 40.6875 67.8084 41.9712 68.3467 44.4208L68.4951 45.1074H63.4844L63.6361 44.4183ZM67.3931 44.0917C66.9676 42.3979 66.4623 41.5667 66.044 41.5412L66.0242 41.5405C65.5619 41.5405 65.0171 42.3994 64.5716 44.1711L64.5509 44.2539H67.4329L67.3931 44.0917Z" fill="white"/>
<path fill-rule="evenodd" clip-rule="evenodd" d="M52.8348 44.5041C53.3833 42.0119 54.1589 40.6875 55.2417 40.6875C56.2614 40.6875 56.9901 41.9103 57.525 44.2458L57.5642 44.4208L57.7126 45.1074H52.7031L52.8348 44.5041ZM56.6104 44.0917C56.185 42.3981 55.6796 41.5667 55.2614 41.5412L55.2415 41.5405C54.7799 41.5405 54.2349 42.4048 53.7889 44.1735L53.7687 44.2539H56.6503L56.6104 44.0917Z" fill="white"/>
</svg>
