<svg width="27" height="18" viewBox="0 0 27 18" fill="none" xmlns="http://www.w3.org/2000/svg">
<g clip-path="url(#clip0_109_43695)">
<path d="M0 0H27V18.0002H0V0Z" fill="white"/>
<path d="M0 0H27V5.99985H0V0Z" fill="#D80027"/>
<path d="M0 12H27V17.9999H0V12Z" fill="black"/>
<path d="M9.87748 6.84766L10.3631 8.3422H11.9346L10.6632 9.266L11.1488 10.7606L9.87748 9.8369L8.60605 10.7606L9.09168 9.266L7.82031 8.3422H9.39185L9.87748 6.84766ZM17.1221 6.84766L17.6077 8.3422H19.1793L17.9079 9.266L18.3935 10.7606L17.1221 9.8369L15.8507 10.7606L16.3364 9.266L15.065 8.3422H16.6365L17.1221 6.84766Z" fill="#6DA544"/>
</g>
<rect x="0.5" y="0.5" width="26" height="17" rx="0.5" stroke="black" stroke-opacity="0.2"/>
<defs>
<clipPath id="clip0_109_43695">
<rect width="27" height="18" rx="1" fill="white"/>
</clipPath>
</defs>
</svg>
