<svg width="27" height="18" viewBox="0 0 27 18" fill="none" xmlns="http://www.w3.org/2000/svg">
<g clip-path="url(#clip0_109_43720)">
<path d="M0 0H27V18.0002H0V0Z" fill="#0052B4"/>
<path d="M22.4292 7.82793L22.6078 8.37784H23.186L22.7182 8.71766L22.8969 9.26752L22.4292 8.9277L21.9614 9.26752L22.14 8.71766L21.6723 8.37784H22.2504L22.4292 7.82793ZM20.3623 11.7868L20.6303 12.6117H21.4976L20.7959 13.1215L21.0639 13.9462L20.3623 13.4364L19.6607 13.9462L19.9287 13.1215L19.2271 12.6117H20.0943L20.3623 11.7868ZM20.4404 5.30859L20.6638 5.99604H21.3864L20.8017 6.42076L21.0251 7.1081L20.4404 6.68327L19.8557 7.1081L20.079 6.42076L19.4943 5.99604H20.217L20.4404 5.30859ZM18.4517 7.80398L18.7197 8.6288H19.5869L18.8853 9.13853L19.1534 9.96335L18.4517 9.45362L17.75 9.96335L18.018 9.13853L17.3164 8.6288H18.1836L18.4517 7.80398Z" fill="#D80027"/>
<path d="M13.5 0V1.61177L11.1176 2.93477H13.5V6.06503H10.3827L13.5 7.79715V8.99981H12.0925L8.21739 6.84687V8.99981H5.28262V6.43834L0.6721 8.99981H0V7.38861L2.38191 6.06503H0V2.93477H3.11676L0 1.20329V0H1.40695L5.28262 2.15357V0H8.21739V2.56147L12.828 0H13.5Z" fill="white"/>
<path d="M7.59375 0H5.90625V3.65629H0V5.34379H5.90625V9.00008H7.59375V5.34379H13.5V3.65629H7.59375V0Z" fill="#D80027"/>
<path d="M8.21875 6.06641L13.5014 9.0013V8.17131L9.71256 6.06641H8.21875Z" fill="#0052B4"/>
<path d="M8.21875 6.06641L13.5014 9.0013V8.17131L9.71256 6.06641H8.21875Z" fill="white"/>
<path d="M8.21739 6.06641L13.5 9.0013V8.17131L9.71119 6.06641H8.21739ZM3.78875 6.06641L0 8.17131V9.0013L5.28261 6.06641H3.78875Z" fill="#D80027"/>
<path d="M5.28261 2.93483L0 0V0.829934L3.78881 2.93483H5.28261Z" fill="#0052B4"/>
<path d="M5.28261 2.93483L0 0V0.829934L3.78881 2.93483H5.28261Z" fill="white"/>
<path d="M5.28261 2.93483L0 0V0.829934L3.78881 2.93483H5.28261ZM9.71125 2.93483L13.5 0.829934V0L8.21739 2.93483H9.71125Z" fill="#D80027"/>
</g>
<rect x="0.5" y="0.5" width="26" height="17" rx="0.5" stroke="black" stroke-opacity="0.2"/>
<defs>
<clipPath id="clip0_109_43720">
<rect width="27" height="18" rx="1" fill="white"/>
</clipPath>
</defs>
</svg>
