<svg width="44" height="44" viewBox="0 0 44 44" fill="none" xmlns="http://www.w3.org/2000/svg">
<rect width="44" height="44" fill="#D8D8D8"/>
<path fill-rule="evenodd" clip-rule="evenodd" d="M25.2031 15.8418H37.3533L35.2774 32.8859H27.279L25.2031 15.8418ZM26.53 17.0169L28.3196 31.7109H34.2368L36.0264 17.0169H26.53Z" fill="#A0A09F"/>
<path d="M36.1172 21.1146L35.9134 22.7881C35.6839 21.5731 35.3898 20.8434 35.0691 20.8434C34.3354 20.8434 33.7408 24.3697 33.7408 28.7182H32.6778C32.6778 24.3697 32.0826 20.8434 31.3489 20.8434C30.6153 20.8434 30.02 24.6629 30.02 29.3748H28.957C28.957 24.301 30.0278 20.1875 31.3489 20.1875C32.1001 20.1875 32.7704 21.4234 33.209 23.3567C33.647 21.4234 34.318 20.1875 35.0691 20.1875C35.445 20.1875 35.8007 20.5208 36.1172 21.1146Z" fill="#A0A09F"/>
<path fill-rule="evenodd" clip-rule="evenodd" d="M12.9102 10.0156L15.0724 11.1836L16.9766 10.3607L18.9093 11.1959L20.842 10.3607L22.7748 11.1959L24.736 10.3484L26.2822 11.1836L28.7739 10.1068V15.1769H27.5989V11.8948L26.2252 12.4884L24.679 11.6532L22.7748 12.4761L20.842 11.6408L18.9093 12.4761L16.9766 11.6408L15.0154 12.4884L14.0852 11.986V21.8586H12.9102V10.0156Z" fill="#A0A09F"/>
<path fill-rule="evenodd" clip-rule="evenodd" d="M33.0185 11.0836L32.2454 16.5125L31.082 16.3469L31.8551 10.918L33.0185 11.0836Z" fill="#A0A09F"/>
<path fill-rule="evenodd" clip-rule="evenodd" d="M26.6375 32.0501H19.6797V30.875H26.6375V32.0501Z" fill="#A0A09F"/>
<path fill-rule="evenodd" clip-rule="evenodd" d="M7.56641 29.649L8.60514 29.0996L9.98585 31.71H17.782L19.1627 29.0996L20.2015 29.649L18.4898 32.8851H9.27805L7.56641 29.649Z" fill="#A0A09F"/>
<path fill-rule="evenodd" clip-rule="evenodd" d="M8.83905 22.5234H18.9224L21.3083 28.7098H6.45312L8.83905 22.5234ZM9.6453 23.6985L8.16578 27.5347H19.5956L18.1161 23.6985H9.6453Z" fill="#A0A09F"/>
</svg>
