<svg width="27" height="18" viewBox="0 0 27 18" fill="none" xmlns="http://www.w3.org/2000/svg">
<g clip-path="url(#clip0_109_43889)">
<path d="M0 0H27V18H0V0Z" fill="#008000"/>
<path d="M22.29 13.311L22.617 13.9861L23.3447 13.8173L23.0178 14.4924L23.6084 14.9565L22.8754 15.1253V15.8742L22.29 15.4048L21.7047 15.8742V15.1253L20.977 14.9565L21.5623 14.4924L21.2354 13.8173L21.9684 13.9861L22.29 13.311ZM19.8326 6.12266L20.1596 6.803L20.8873 6.63423L20.5604 7.3093L21.151 7.7734L20.418 7.9369V8.69107L19.8326 8.22169L19.2473 8.69107L19.2525 7.9369L18.5195 7.7734L19.1049 7.3093L18.7779 6.63423L19.5109 6.803L19.8326 6.12266ZM21.7838 2.01953L22.1107 2.6946L22.8385 2.52583L22.5115 3.20089L23.1021 3.67028L22.3691 3.83377V4.58267L21.7838 4.11329L21.1984 4.58267L21.2037 3.83377L20.4707 3.67028L21.0561 3.20089L20.7291 2.52583L21.4621 2.6946L21.7838 2.01953ZM24.5154 5.09951L24.8424 5.77458L25.5754 5.60581L25.2432 6.28088L25.8338 6.75026L25.1008 6.91375L25.1061 7.66265L24.5154 7.19327L23.9301 7.66265L23.9353 6.91375L23.2023 6.75026L23.793 6.28088L23.4607 5.60581L24.1937 5.77458L24.5154 5.09951ZM23.0389 8.69107L23.2973 9.47161H24.1199L23.4555 9.95682L23.7086 10.7426L23.0389 10.2574L22.3744 10.7426L22.6275 9.95682L21.9631 9.47161H22.7857L23.0389 8.69107Z" fill="#FFDA44"/>
<path d="M16.1809 13.4322C13.5863 13.4322 11.4822 11.3279 11.4822 8.73313C11.4822 6.13834 13.5863 4.03404 16.1809 4.03404C16.9877 4.03404 17.7523 4.23972 18.4168 4.59835C17.3727 3.58048 15.9436 2.95288 14.3721 2.95288C11.1816 2.95288 8.59238 5.54239 8.59238 8.73313C8.59238 11.9239 11.1816 14.5187 14.3721 14.5187C15.9436 14.5187 17.3727 13.8911 18.4115 12.8679C17.7471 13.2265 16.9877 13.4322 16.1809 13.4322ZM7.40586 3.13746C6.8416 2.16178 5.78691 1.50781 4.5793 1.50781C3.37168 1.50781 2.32227 2.16178 1.75801 3.13746H7.40586ZM7.41641 3.15856L4.5793 5.99595L1.74746 3.15856C1.47852 3.63322 1.32031 4.18171 1.32031 4.77239C1.32031 6.57608 2.78105 8.03697 4.58457 8.03697C6.38809 8.03697 7.84883 6.57608 7.84883 4.77239C7.84355 4.18171 7.68535 3.63322 7.41641 3.15856Z" fill="#FFDA44"/>
<path d="M3.76562 5.17969V7.93269C4.02402 8.00125 4.29824 8.0329 4.58301 8.0329C4.86777 8.0329 5.13672 7.99598 5.40039 7.93269V5.17969H3.76562Z" fill="#A2001D"/>
</g>
<rect x="0.5" y="0.5" width="26" height="17" rx="0.5" stroke="black" stroke-opacity="0.2"/>
<defs>
<clipPath id="clip0_109_43889">
<rect width="27" height="18" rx="1" fill="white"/>
</clipPath>
</defs>
</svg>
