<svg width="27" height="18" viewBox="0 0 27 18" fill="none" xmlns="http://www.w3.org/2000/svg">
<g clip-path="url(#clip0_109_43928)">
<path d="M0 0H27V18.0002H0V0Z" fill="#496E2D"/>
<path d="M13.5 11.259C11.0765 11.259 9.05196 9.55574 8.55526 7.28125C8.47715 7.63759 8.43767 8.0013 8.4375 8.3661C8.4375 11.1621 10.704 13.4286 13.5 13.4286C16.296 13.4286 18.5625 11.1621 18.5625 8.3661C18.5625 7.99348 18.5211 7.63088 18.4447 7.28125C17.948 9.55574 15.9235 11.259 13.5 11.259Z" fill="#FFDA44"/>
<path d="M13.4999 4.57031L13.9711 6.02061H15.4961L14.2624 6.91688L14.7337 8.36723L13.4999 7.47085L12.2663 8.36723L12.7376 6.91688L11.5039 6.02061H13.0287L13.4999 4.57031Z" fill="#FFDA44"/>
</g>
<rect x="0.5" y="0.5" width="26" height="17" rx="0.5" stroke="black" stroke-opacity="0.2"/>
<defs>
<clipPath id="clip0_109_43928">
<rect width="27" height="18" rx="1" fill="white"/>
</clipPath>
</defs>
</svg>
