<svg width="375" height="225" viewBox="0 0 375 225" fill="none" xmlns="http://www.w3.org/2000/svg">
<g clip-path="url(#clip0_17_28609)">
<ellipse cx="188.145" cy="202.618" rx="78.1452" ry="9.61787" fill="#A0A09F" fill-opacity="0.15"/>
<path d="M187.882 152.794C194.509 152.794 199.882 158.167 199.882 164.794C199.882 171.421 194.509 176.794 187.882 176.794C181.254 176.794 175.882 171.421 175.882 164.794C175.882 158.167 181.254 152.794 187.882 152.794ZM159.631 139.714C175.624 125.154 200.14 125.154 216.133 139.714C216.95 140.457 216.947 141.729 216.166 142.51L210.509 148.166C209.728 148.947 208.464 148.941 207.634 148.213C196.348 138.321 179.416 138.321 168.13 148.213C167.299 148.941 166.035 148.947 165.254 148.166L159.598 142.51C158.817 141.729 158.814 140.457 159.631 139.714ZM142.651 122.729C168.035 98.8157 207.729 98.8157 233.112 122.729C233.916 123.486 233.918 124.758 233.137 125.539L227.479 131.195C226.698 131.976 225.432 131.972 224.623 131.22C203.933 111.986 171.83 111.985 151.14 131.22C150.331 131.972 149.065 131.976 148.284 131.195L142.627 125.539C141.846 124.758 141.847 123.486 142.651 122.729ZM159.407 85.3965C161.077 89.3343 163.552 92.8472 166.623 95.7324C154.813 99.0656 143.634 105.234 134.163 114.239C133.363 115 132.094 115.006 131.313 114.226L125.656 108.568C124.875 107.787 124.879 106.515 125.677 105.751C135.594 96.2579 147.149 89.4731 159.407 85.3965ZM215.683 85.1758C228.191 89.2261 239.988 96.0842 250.087 105.751C250.885 106.515 250.888 107.787 250.107 108.568L244.45 114.226C243.669 115.006 242.4 115 241.6 114.239C231.971 105.085 220.579 98.8611 208.552 95.5684C211.599 92.6605 214.044 89.1276 215.683 85.1758Z" fill="#EAEAEA"/>
<path d="M183 38C183 36.8954 183.895 36 185 36H190C191.105 36 192 36.8954 192 38V42H183V38Z" fill="#A0A09F"/>
<path d="M209.422 45.215C210.203 44.4339 211.469 44.4339 212.25 45.215L215.786 48.7505C216.567 49.5316 216.567 50.7979 215.786 51.579L212.957 54.4074L206.593 48.0434L209.422 45.215Z" fill="#A0A09F"/>
<circle cx="187.5" cy="73.5" r="24.5" fill="white" stroke="#DB0007" stroke-width="4"/>
<path d="M186.999 74.999L169.801 68.0977C172.066 60.6676 178.88 55.2212 186.999 55.0059V74.999Z" fill="#DB0007"/>
<mask id="path-7-outside-1_17_28609" maskUnits="userSpaceOnUse" x="122.074" y="33" width="132" height="147" fill="black">
<rect fill="white" x="122.074" y="33" width="132" height="147"/>
<path fill-rule="evenodd" clip-rule="evenodd" d="M185 36C183.895 36 183 36.8954 183 38V42H192V38C192 36.8954 191.104 36 190 36H185ZM199.882 164.794C199.882 158.167 194.509 152.794 187.882 152.794C181.254 152.794 175.882 158.167 175.882 164.794C175.882 171.422 181.254 176.794 187.882 176.794C194.509 176.794 199.882 171.421 199.882 164.794ZM216.133 139.714C200.14 125.154 175.624 125.154 159.631 139.714C158.814 140.458 158.817 141.729 159.598 142.51L165.254 148.166C166.035 148.947 167.299 148.941 168.13 148.213C179.416 138.322 196.348 138.322 207.634 148.213C208.464 148.941 209.728 148.947 210.509 148.166L216.166 142.51C216.947 141.729 216.95 140.458 216.133 139.714ZM233.112 122.729C207.729 98.8159 168.035 98.8159 142.651 122.729C141.847 123.486 141.846 124.758 142.627 125.539L148.284 131.196C149.065 131.977 150.331 131.972 151.14 131.22C171.83 111.986 203.933 111.986 224.623 131.22C225.432 131.972 226.698 131.977 227.479 131.196L233.137 125.539C233.918 124.758 233.916 123.486 233.112 122.729ZM166.623 95.7327C163.552 92.8475 161.077 89.3346 159.407 85.3967C147.149 89.4734 135.594 96.2582 125.677 105.751C124.879 106.515 124.875 107.788 125.656 108.569L131.313 114.226C132.094 115.006 133.363 115 134.163 114.24C143.634 105.235 154.813 99.0659 166.623 95.7327ZM250.087 105.751C239.988 96.0844 228.191 89.2264 215.683 85.176C214.044 89.1278 211.599 92.6608 208.552 95.5686C220.579 98.8614 231.971 105.085 241.6 114.24C242.4 115.001 243.669 115.007 244.45 114.226L250.107 108.569C250.888 107.788 250.885 106.515 250.087 105.751ZM209.42 45.2157C210.201 44.4347 211.467 44.4347 212.248 45.2157L215.784 48.7513C216.565 49.5323 216.565 50.7986 215.784 51.5797L212.956 54.4081L206.592 48.0442L209.42 45.2157ZM187.5 100C202.135 100 214 88.1355 214 73.5C214 58.8645 202.135 47 187.5 47C172.864 47 161 58.8645 161 73.5C161 73.5838 161 73.6676 161.001 73.7512C161 73.834 161 73.917 161 74C161 88.3594 172.64 100 187 100C187.083 100 187.165 99.9996 187.248 99.9988C187.294 99.9993 187.34 99.9996 187.386 99.9998C187.424 99.9999 187.462 100 187.5 100Z"/>
</mask>
<path d="M183 42H180V45H183V42ZM192 42V45H195V42H192ZM187.882 152.794L187.882 149.794H187.882V152.794ZM199.882 164.794L202.882 164.794V164.794H199.882ZM175.882 164.794H172.882V164.794L175.882 164.794ZM187.882 176.794V179.794H187.882L187.882 176.794ZM159.631 139.714L157.611 137.496H157.611L159.631 139.714ZM216.133 139.714L218.152 137.496L218.152 137.496L216.133 139.714ZM159.598 142.51L157.476 144.631L157.476 144.631L159.598 142.51ZM165.254 148.166L167.375 146.045L167.375 146.045L165.254 148.166ZM168.13 148.213L170.107 150.469L168.13 148.213ZM207.634 148.213L205.656 150.469L205.656 150.469L207.634 148.213ZM210.509 148.166L208.388 146.045L208.387 146.045L210.509 148.166ZM216.166 142.51L218.287 144.632L218.287 144.631L216.166 142.51ZM142.651 122.729L140.594 120.545L140.594 120.545L142.651 122.729ZM233.112 122.729L235.17 120.545L235.169 120.545L233.112 122.729ZM142.627 125.539L140.506 127.661L140.506 127.661L142.627 125.539ZM148.284 131.196L150.406 129.074L150.405 129.074L148.284 131.196ZM151.14 131.22L153.182 133.418L153.182 133.417L151.14 131.22ZM224.623 131.22L226.666 129.023L224.623 131.22ZM227.479 131.196L225.358 129.074L225.358 129.074L227.479 131.196ZM233.137 125.539L235.258 127.661L235.258 127.661L233.137 125.539ZM159.407 85.3967L162.169 84.2256L161.088 81.6761L158.46 82.55L159.407 85.3967ZM166.623 95.7327L167.438 98.6199L172.544 97.1787L168.677 93.5461L166.623 95.7327ZM125.677 105.751L123.602 103.584H123.602L125.677 105.751ZM125.656 108.569L123.535 110.69L123.535 110.69L125.656 108.569ZM131.313 114.226L129.192 116.347L129.193 116.348L131.313 114.226ZM134.163 114.24L136.23 116.414L136.23 116.414L134.163 114.24ZM215.683 85.176L216.607 82.3219L213.972 81.4689L212.912 84.0267L215.683 85.176ZM250.087 105.751L252.161 103.584V103.584L250.087 105.751ZM208.552 95.5686L206.481 93.3982L202.642 97.0611L207.76 98.4621L208.552 95.5686ZM241.6 114.24L243.667 112.065L241.6 114.24ZM244.45 114.226L246.571 116.347L246.572 116.347L244.45 114.226ZM250.107 108.569L252.229 110.69L252.229 110.69L250.107 108.569ZM212.248 45.2157L210.127 47.337V47.3371L212.248 45.2157ZM209.42 45.2157L211.541 47.3371V47.337L209.42 45.2157ZM215.784 48.7513L217.905 46.6299L217.905 46.6299L215.784 48.7513ZM215.784 51.5797L217.905 53.701L217.905 53.701L215.784 51.5797ZM212.956 54.4081L210.834 56.5294L212.956 58.6508L215.077 56.5294L212.956 54.4081ZM206.592 48.0442L204.47 45.9228L202.349 48.0442L204.47 50.1655L206.592 48.0442ZM161.001 73.7512L164.001 73.7794L164.001 73.7513L164.001 73.7233L161.001 73.7512ZM187.248 99.9988L187.276 96.999L187.248 96.9987L187.22 96.999L187.248 99.9988ZM187.386 99.9998L187.399 96.9998H187.399L187.386 99.9998ZM183 38H186C186 38.5523 185.552 39 185 39V36V33C182.238 33 180 35.2386 180 38H183ZM183 42H186V38H183H180V42H183ZM192 42V39H183V42V45H192V42ZM192 38H189V42H192H195V38H192ZM190 36V39C189.447 39 189 38.5523 189 38H192H195C195 35.2386 192.761 33 190 33V36ZM185 36V39H190V36V33H185V36ZM187.882 152.794L187.882 155.794C192.852 155.794 196.882 159.824 196.882 164.794H199.882H202.882C202.882 156.51 196.166 149.794 187.882 149.794L187.882 152.794ZM175.882 164.794H178.882C178.882 159.824 182.911 155.794 187.882 155.794V152.794V149.794C179.598 149.794 172.882 156.51 172.882 164.794H175.882ZM187.882 176.794V173.794C182.911 173.794 178.882 169.765 178.882 164.794L175.882 164.794L172.882 164.794C172.882 173.078 179.598 179.794 187.882 179.794V176.794ZM199.882 164.794L196.882 164.794C196.882 169.765 192.852 173.794 187.882 173.794L187.882 176.794L187.882 179.794C196.166 179.794 202.882 173.078 202.882 164.794L199.882 164.794ZM159.631 139.714L161.65 141.932C176.499 128.414 199.265 128.414 214.113 141.932L216.133 139.714L218.152 137.496C201.015 121.893 174.749 121.893 157.611 137.496L159.631 139.714ZM159.598 142.51L161.719 140.389C162.083 140.753 162.167 141.462 161.65 141.932L159.631 139.714L157.611 137.496C155.461 139.453 155.55 142.705 157.476 144.631L159.598 142.51ZM165.254 148.166L167.375 146.045L161.719 140.389L159.598 142.51L157.476 144.631L163.133 150.288L165.254 148.166ZM168.13 148.213L166.153 145.957C166.414 145.728 166.951 145.62 167.375 146.045L165.254 148.166L163.133 150.288C165.119 152.274 168.184 152.155 170.107 150.469L168.13 148.213ZM207.634 148.213L209.611 145.957C197.194 135.074 178.57 135.074 166.153 145.957L168.13 148.213L170.107 150.469C180.261 141.57 195.502 141.57 205.656 150.469L207.634 148.213ZM210.509 148.166L208.387 146.045C208.812 145.62 209.349 145.728 209.611 145.957L207.634 148.213L205.656 150.469C207.58 152.155 210.643 152.274 212.63 150.288L210.509 148.166ZM216.166 142.51L214.045 140.389L208.388 146.045L210.509 148.166L212.63 150.288L218.287 144.632L216.166 142.51ZM216.133 139.714L214.113 141.932C213.596 141.462 213.681 140.753 214.045 140.389L216.166 142.51L218.287 144.631C220.213 142.705 220.303 139.453 218.152 137.496L216.133 139.714ZM142.651 122.729L144.708 124.912C168.936 102.088 206.827 102.088 231.055 124.912L233.112 122.729L235.169 120.545C208.631 95.5438 167.133 95.5438 140.594 120.545L142.651 122.729ZM142.627 125.539L144.748 123.418C145.129 123.798 145.172 124.476 144.708 124.912L142.651 122.729L140.594 120.545C138.523 122.496 138.563 125.718 140.506 127.661L142.627 125.539ZM148.284 131.196L150.405 129.074L144.748 123.418L142.627 125.539L140.506 127.661L146.163 133.317L148.284 131.196ZM151.14 131.22L149.097 129.022C149.415 128.727 149.992 128.661 150.406 129.074L148.284 131.196L146.163 133.317C148.138 135.292 151.246 135.217 153.182 133.418L151.14 131.22ZM224.623 131.22L226.666 129.023C204.824 108.718 170.938 108.718 149.097 129.023L151.14 131.22L153.182 133.417C172.721 115.253 203.042 115.253 222.58 133.417L224.623 131.22ZM227.479 131.196L225.358 129.074C225.771 128.661 226.347 128.727 226.666 129.023L224.623 131.22L222.58 133.417C224.517 135.217 227.626 135.292 229.601 133.317L227.479 131.196ZM233.137 125.539L231.016 123.418L225.358 129.074L227.479 131.196L229.601 133.317L235.258 127.661L233.137 125.539ZM233.112 122.729L231.055 124.912C230.592 124.476 230.635 123.798 231.015 123.418L233.137 125.539L235.258 127.661C237.201 125.718 237.24 122.496 235.17 120.545L233.112 122.729ZM159.407 85.3967L156.645 86.5678C158.48 90.8961 161.199 94.7532 164.569 97.9192L166.623 95.7327L168.677 93.5461C165.905 90.9417 163.673 87.773 162.169 84.2256L159.407 85.3967ZM125.677 105.751L127.751 107.918C137.341 98.7393 148.508 92.183 160.354 88.2434L159.407 85.3967L158.46 82.55C145.79 86.7638 133.848 93.777 123.602 103.584L125.677 105.751ZM125.656 108.569L127.778 106.447C128.166 106.836 128.19 107.499 127.751 107.918L125.677 105.751L123.602 103.584C121.568 105.531 121.585 108.74 123.535 110.69L125.656 108.569ZM131.313 114.226L133.435 112.105L127.778 106.447L125.656 108.569L123.535 110.69L129.192 116.347L131.313 114.226ZM134.163 114.24L132.096 112.065C132.431 111.747 133.022 111.692 133.434 112.104L131.313 114.226L129.193 116.348C131.167 118.321 134.294 118.254 136.23 116.414L134.163 114.24ZM166.623 95.7327L165.808 92.8455C153.541 96.3077 141.929 102.716 132.096 112.065L134.163 114.24L136.23 116.414C145.339 107.753 156.085 101.824 167.438 98.6199L166.623 95.7327ZM215.683 85.176L214.758 88.0301C226.846 91.9443 238.247 98.5715 248.012 107.918L250.087 105.751L252.161 103.584C241.728 93.5974 229.535 86.5084 216.607 82.3219L215.683 85.176ZM208.552 95.5686L210.623 97.739C213.968 94.5471 216.653 90.6677 218.454 86.3254L215.683 85.176L212.912 84.0267C211.434 87.588 209.23 90.7744 206.481 93.3982L208.552 95.5686ZM241.6 114.24L243.667 112.065C233.67 102.561 221.837 96.0953 209.344 92.6751L208.552 95.5686L207.76 98.4621C219.321 101.627 230.272 107.609 239.532 116.414L241.6 114.24ZM244.45 114.226L242.329 112.104C242.741 111.693 243.331 111.747 243.667 112.065L241.6 114.24L239.532 116.414C241.469 118.254 244.597 118.321 246.571 116.347L244.45 114.226ZM250.107 108.569L247.986 106.447L242.329 112.105L244.45 114.226L246.572 116.347L252.229 110.69L250.107 108.569ZM250.087 105.751L248.012 107.918C247.574 107.499 247.598 106.835 247.986 106.448L250.107 108.569L252.229 110.69C254.179 108.74 254.196 105.531 252.161 103.584L250.087 105.751ZM212.248 45.2157L214.37 43.0944C212.417 41.1418 209.251 41.1418 207.299 43.0944L209.42 45.2157L211.541 47.337C211.151 47.7276 210.518 47.7276 210.127 47.337L212.248 45.2157ZM215.784 48.7513L217.905 46.6299L214.37 43.0944L212.248 45.2157L210.127 47.3371L213.663 50.8726L215.784 48.7513ZM215.784 51.5797L217.905 53.701C219.858 51.7484 219.858 48.5826 217.905 46.6299L215.784 48.7513L213.663 50.8726C213.272 50.4821 213.272 49.8489 213.663 49.4584L215.784 51.5797ZM212.956 54.4081L215.077 56.5294L217.905 53.701L215.784 51.5797L213.663 49.4584L210.834 52.2868L212.956 54.4081ZM206.592 48.0442L204.47 50.1655L210.834 56.5294L212.956 54.4081L215.077 52.2868L208.713 45.9228L206.592 48.0442ZM209.42 45.2157L207.299 43.0944L204.47 45.9228L206.592 48.0442L208.713 50.1655L211.541 47.3371L209.42 45.2157ZM214 73.5H211C211 86.4787 200.478 97 187.5 97V100V103C203.792 103 217 89.7924 217 73.5H214ZM187.5 47V50C200.478 50 211 60.5213 211 73.5H214H217C217 57.2076 203.792 44 187.5 44V47ZM161 73.5H164C164 60.5213 174.521 50 187.5 50V47V44C171.207 44 158 57.2076 158 73.5H161ZM161.001 73.7512L164.001 73.7233C164 73.649 164 73.5745 164 73.5H161H158C158 73.5931 158 73.6861 158.001 73.7791L161.001 73.7512ZM161 74H164C164 73.9263 164 73.8528 164.001 73.7794L161.001 73.7512L158.001 73.723C158 73.8153 158 73.9076 158 74H161ZM187 100V97C174.297 97 164 86.7025 164 74H161H158C158 90.0163 170.983 103 187 103V100ZM187.248 99.9988L187.22 96.999C187.147 96.9997 187.073 97 187 97V100V103C187.092 103 187.184 103 187.277 102.999L187.248 99.9988ZM187.386 99.9998L187.399 96.9998C187.358 96.9996 187.317 96.9993 187.276 96.999L187.248 99.9988L187.22 102.999C187.271 102.999 187.323 103 187.374 103L187.386 99.9998ZM187.5 100V97C187.466 97 187.432 96.9999 187.399 96.9998L187.386 99.9998L187.373 103C187.415 103 187.457 103 187.5 103V100Z" fill="white" mask="url(#path-7-outside-1_17_28609)"/>
</g>
<defs>
<clipPath id="clip0_17_28609">
<rect width="375" height="225" fill="white"/>
</clipPath>
</defs>
</svg>
