<svg width="27" height="18" viewBox="0 0 27 18" fill="none" xmlns="http://www.w3.org/2000/svg">
<g clip-path="url(#clip0_109_43911)">
<path d="M0 0H27V18H0V0Z" fill="#0071BC"/>
<path d="M13.5024 16.9227C17.9759 16.9227 21.6024 13.2962 21.6024 8.82266C21.6024 4.34915 17.9759 0.722656 13.5024 0.722656C9.02884 0.722656 5.40234 4.34915 5.40234 8.82266C5.40234 13.2962 9.02884 16.9227 13.5024 16.9227Z" fill="white"/>
<path fill-rule="evenodd" clip-rule="evenodd" d="M13.5016 0.771875C9.05567 0.771875 5.45156 4.37599 5.45156 8.82188C5.45156 13.2678 9.05567 16.8719 13.5016 16.8719C17.9475 16.8719 21.5516 13.2678 21.5516 8.82188C21.5516 4.37599 17.9475 0.771875 13.5016 0.771875ZM5.35156 8.82188C5.35156 4.32076 9.00044 0.671875 13.5016 0.671875C18.0027 0.671875 21.6516 4.32076 21.6516 8.82188C21.6516 13.323 18.0027 16.9719 13.5016 16.9719C9.00044 16.9719 5.35156 13.323 5.35156 8.82188Z" fill="black"/>
<path d="M13.5025 14.7628C16.7831 14.7628 19.4425 12.1034 19.4425 8.82281C19.4425 5.54224 16.7831 2.88281 13.5025 2.88281C10.2219 2.88281 7.5625 5.54224 7.5625 8.82281C7.5625 12.1034 10.2219 14.7628 13.5025 14.7628Z" fill="#0071BC"/>
<path fill-rule="evenodd" clip-rule="evenodd" d="M13.5017 2.93203C10.2488 2.93203 7.61172 5.56908 7.61172 8.82203C7.61172 12.075 10.2488 14.712 13.5017 14.712C16.7547 14.712 19.3917 12.075 19.3917 8.82203C19.3917 5.56908 16.7547 2.93203 13.5017 2.93203ZM7.51172 8.82203C7.51172 5.51385 10.1935 2.83203 13.5017 2.83203C16.8099 2.83203 19.4917 5.51385 19.4917 8.82203C19.4917 12.1302 16.8099 14.812 13.5017 14.812C10.1935 14.812 7.51172 12.1302 7.51172 8.82203Z" fill="black"/>
<path d="M16.0092 16.2012C16.0344 16.5972 15.7284 16.9212 15.3324 16.9212H11.6496C11.2536 16.9212 10.9476 16.5972 10.9656 16.2012L11.5668 4.50125C11.5884 4.10525 11.9268 3.78125 12.3228 3.78125H14.5332C14.9292 3.78125 15.2712 4.10525 15.2964 4.50125L16.0092 16.2012Z" fill="#8C8A8C"/>
<path fill-rule="evenodd" clip-rule="evenodd" d="M11.6199 4.5031C11.6199 4.50313 11.6199 4.50316 11.6199 4.50319L11.0187 16.2027C11.0187 16.2028 11.0187 16.2028 11.0187 16.2029C11.002 16.5707 11.2856 16.8705 11.6527 16.8705H15.3355C15.7028 16.8705 15.9858 16.5707 15.9624 16.2037L15.9624 16.2035L15.2496 4.50364C15.2496 4.50362 15.2496 4.50359 15.2496 4.50357C15.226 4.13363 14.9056 3.83047 14.5363 3.83047H12.3259C11.9568 3.83047 11.6401 4.13332 11.6199 4.5031ZM11.52 4.49775C11.543 4.07557 11.903 3.73047 12.3259 3.73047H14.5363C14.959 3.73047 15.3226 4.07527 15.3494 4.49729L15.3494 4.49743L16.0622 16.1973C16.0622 16.1973 16.0622 16.1974 16.0622 16.1974C16.0892 16.6223 15.7602 16.9705 15.3355 16.9705H11.6527C11.2279 16.9705 10.8995 16.6223 10.9188 16.1982L10.9188 16.1979H10.9188L11.52 4.4979L11.52 4.49775Z" fill="black"/>
<path d="M13.4275 4.10547L14.5075 7.45347H17.9995L15.1915 9.46947L16.2355 12.7815L13.4275 10.7655L10.6195 12.8175L11.6995 9.46947L8.85547 7.41747H12.3475L13.4275 4.10547Z" fill="white"/>
<path fill-rule="evenodd" clip-rule="evenodd" d="M13.4294 4.05078C13.4522 4.05082 13.4724 4.06554 13.4794 4.08725L14.5476 7.39878H18.0013C18.0242 7.39878 18.0444 7.41353 18.0514 7.43529C18.0584 7.45705 18.0506 7.48084 18.032 7.49417L15.255 9.48794L16.2875 12.7636C16.2943 12.7852 16.2865 12.8088 16.2682 12.822C16.2498 12.8353 16.225 12.8354 16.2066 12.8222L13.4296 10.8284L10.6524 12.8579C10.634 12.8714 10.609 12.8714 10.5905 12.8581C10.572 12.8447 10.5642 12.821 10.5712 12.7993L11.6395 9.48769L8.82653 7.45809C8.80801 7.44473 8.80022 7.42096 8.80724 7.39923C8.81426 7.3775 8.83449 7.36278 8.85732 7.36278H12.3111L13.3793 4.0871C13.3864 4.06541 13.4066 4.05075 13.4294 4.05078ZM13.4291 4.27401L12.3994 7.43173C12.3923 7.45339 12.3721 7.46804 12.3493 7.46804H9.02022L11.7321 9.42473C11.7506 9.43809 11.7584 9.46185 11.7514 9.48357L10.7212 12.6772L13.3983 10.7209C13.4166 10.7075 13.4415 10.7074 13.46 10.7207L16.1396 12.6445L15.1431 9.48324C15.1363 9.46155 15.1442 9.43792 15.1626 9.42466L17.8378 7.50404H14.5093C14.4865 7.50404 14.4662 7.48931 14.4592 7.46757L13.4291 4.27401Z" fill="black"/>
</g>
<rect x="0.5" y="0.5" width="26" height="17" rx="0.5" stroke="black" stroke-opacity="0.2"/>
<defs>
<clipPath id="clip0_109_43911">
<rect width="27" height="18" rx="1" fill="white"/>
</clipPath>
</defs>
</svg>
