<svg width="27" height="18" viewBox="0 0 27 18" fill="none" xmlns="http://www.w3.org/2000/svg">
<g clip-path="url(#clip0_109_43681)">
<path d="M0 0H25.2V18H0V0Z" fill="white"/>
<path d="M0 0H27V18H0V0Z" fill="#073AB6"/>
<path d="M0 0H13.56V9H0V0Z" fill="white"/>
<path d="M8.51953 0H12.8395V8.4H8.51953V0Z" fill="#F44653"/>
<path d="M0 0H4.32V8.4H0V0Z" fill="#1035BB"/>
<path d="M4.32031 0H8.64032V8.4H4.32031V0ZM17.4003 7.2H23.4003L22.8003 8.4H21.0003V9H22.2003L21.6003 10.2H21.0003V12H19.8003V8.4H18.0003L17.4003 7.2ZM22.2003 10.2L23.4003 12H21.0003L22.2003 10.2ZM18.6003 10.2L19.8003 12H17.4003L18.6003 10.2ZM20.4003 13.8L19.2003 12H21.6003L20.4003 13.8ZM24.0003 9.6C23.6403 9.6 23.4003 9.36 23.4003 9C23.4003 8.64 23.6403 8.4 24.0003 8.4C24.3603 8.4 24.6003 8.64 24.6003 9C24.6003 9.36 24.3603 9.6 24.0003 9.6ZM16.8003 9.6C16.4403 9.6 16.2003 9.36 16.2003 9C16.2003 8.64 16.4403 8.4 16.8003 8.4C17.1603 8.4 17.4003 8.64 17.4003 9C17.4003 9.36 17.1603 9.6 16.8003 9.6ZM18.0003 14.4C17.6403 14.4 17.4003 14.16 17.4003 13.8C17.4003 13.44 17.6403 13.2 18.0003 13.2C18.3603 13.2 18.6003 13.44 18.6003 13.8C18.6003 14.16 18.3603 14.4 18.0003 14.4ZM22.8003 14.4C22.4403 14.4 22.2003 14.16 22.2003 13.8C22.2003 13.44 22.4403 13.2 22.8003 13.2C23.1603 13.2 23.4003 13.44 23.4003 13.8C23.4003 14.16 23.1603 14.4 22.8003 14.4ZM20.4003 15.6C20.0403 15.6 19.8003 15.36 19.8003 15C19.8003 14.64 20.0403 14.4 20.4003 14.4C20.7603 14.4 21.0003 14.64 21.0003 15C21.0003 15.36 20.7603 15.6 20.4003 15.6Z" fill="white"/>
</g>
<rect x="0.5" y="0.5" width="26" height="17" rx="0.5" stroke="black" stroke-opacity="0.2"/>
<defs>
<clipPath id="clip0_109_43681">
<rect width="27" height="18" rx="1" fill="white"/>
</clipPath>
</defs>
</svg>
