<svg width="376" height="226" viewBox="0 0 376 226" fill="none" xmlns="http://www.w3.org/2000/svg">
<ellipse cx="187.564" cy="193.855" rx="45.2968" ry="8.62796" fill="#A0A09F" fill-opacity="0.15"/>
<path d="M188.25 37.5499C220.049 37.5499 245.827 63.2524 245.827 94.9573C245.827 149.825 192.367 193.007 188.25 193.007C184.135 193.007 130.674 149.825 130.674 94.9573C130.674 63.2524 156.452 37.5499 188.25 37.5499ZM188.25 77.6032C178.572 77.6032 170.727 85.4486 170.727 95.1265C170.727 104.804 178.572 112.65 188.25 112.65C197.928 112.65 205.774 104.804 205.774 95.1265C205.774 85.4486 197.928 77.6032 188.25 77.6032Z" fill="#FFBC0D"/>
<mask id="path-3-outside-1_17_28683" maskUnits="userSpaceOnUse" x="127.67" y="34.5459" width="121.161" height="162.216" fill="black">
<rect fill="white" x="127.67" y="34.5459" width="121.161" height="162.216"/>
<path d="M188.25 37.5499C220.049 37.5499 245.827 63.2524 245.827 94.9573C245.827 149.825 192.367 193.007 188.25 193.007C184.135 193.007 130.674 149.825 130.674 94.9573C130.674 63.2524 156.452 37.5499 188.25 37.5499ZM188.25 77.6032C178.572 77.6032 170.727 85.4486 170.727 95.1265C170.727 104.804 178.572 112.65 188.25 112.65C197.928 112.65 205.774 104.804 205.774 95.1265C205.774 85.4486 197.928 77.6032 188.25 77.6032Z"/>
</mask>
<path d="M188.25 37.5499V34.5459V37.5499ZM245.827 94.9573L248.831 94.9573V94.9573H245.827ZM188.25 193.007V196.011H188.25L188.25 193.007ZM130.674 94.9573H127.67V94.9573L130.674 94.9573ZM188.25 37.5499V40.5539C218.399 40.5539 242.823 64.9198 242.823 94.9573H245.827H248.831C248.831 61.585 221.7 34.5459 188.25 34.5459V37.5499ZM245.827 94.9573L242.823 94.9573C242.823 121.437 229.899 145.303 216.221 162.701C209.403 171.372 202.464 178.351 197.002 183.144C194.268 185.543 191.933 187.369 190.193 188.576C189.319 189.183 188.638 189.603 188.161 189.858C187.92 189.987 187.779 190.047 187.721 190.069C187.6 190.114 187.831 190.003 188.25 190.003L188.25 193.007L188.25 196.011C188.927 196.011 189.511 195.814 189.834 195.693C190.221 195.548 190.613 195.36 190.99 195.158C191.748 194.754 192.638 194.193 193.619 193.512C195.591 192.143 198.108 190.167 200.965 187.66C206.684 182.642 213.882 175.397 220.944 166.414C235.024 148.504 248.831 123.345 248.831 94.9573L245.827 94.9573ZM188.25 193.007V190.003C188.67 190.003 188.901 190.115 188.78 190.069C188.722 190.048 188.581 189.987 188.34 189.858C187.863 189.603 187.182 189.183 186.307 188.576C184.568 187.369 182.233 185.543 179.499 183.144C174.037 178.351 167.098 171.372 160.28 162.701C146.602 145.303 133.678 121.437 133.678 94.9573L130.674 94.9573L127.67 94.9573C127.67 123.345 141.476 148.504 155.557 166.414C162.619 175.397 169.817 182.642 175.536 187.66C178.393 190.167 180.91 192.143 182.882 193.512C183.863 194.193 184.753 194.754 185.511 195.158C185.888 195.36 186.28 195.548 186.666 195.693C186.989 195.814 187.573 196.011 188.25 196.011V193.007ZM130.674 94.9573H133.678C133.678 64.9198 158.103 40.5539 188.25 40.5539V37.5499V34.5459C154.801 34.5459 127.67 61.585 127.67 94.9573H130.674ZM188.25 77.6032V74.5992C176.913 74.5992 167.723 83.7896 167.723 95.1265H170.727H173.731C173.731 87.1077 180.232 80.6072 188.25 80.6072V77.6032ZM170.727 95.1265H167.723C167.723 106.463 176.913 115.654 188.25 115.654V112.65V109.646C180.232 109.646 173.731 103.145 173.731 95.1265H170.727ZM188.25 112.65V115.654C199.587 115.654 208.778 106.463 208.778 95.1265H205.774H202.77C202.77 103.145 196.269 109.646 188.25 109.646V112.65ZM205.774 95.1265H208.778C208.778 83.7896 199.587 74.5992 188.25 74.5992V77.6032V80.6072C196.269 80.6072 202.77 87.1077 202.77 95.1265H205.774Z" fill="white" mask="url(#path-3-outside-1_17_28683)"/>
</svg>
