<svg width="375" height="275" viewBox="0 0 375 275" fill="none" xmlns="http://www.w3.org/2000/svg">
<rect width="375" height="225" transform="translate(0 25)" fill="#A0A09F" fill-opacity="0.15"/>
<path fill-rule="evenodd" clip-rule="evenodd" d="M199.383 115.965H244.464L236.762 179.205H207.085L199.383 115.965ZM204.306 120.325L210.946 174.845H232.901L239.541 120.325H204.306Z" fill="#A0A09F"/>
<path d="M239.883 135.528L239.127 141.737C238.275 137.229 237.184 134.522 235.994 134.522C233.272 134.522 231.066 147.605 231.066 163.74H227.122C227.122 147.605 224.913 134.522 222.191 134.522C219.469 134.522 217.261 148.693 217.261 166.176H213.316C213.316 147.351 217.289 132.088 222.191 132.088C224.978 132.088 227.465 136.674 229.093 143.847C230.718 136.674 233.207 132.088 235.994 132.088C237.389 132.088 238.709 133.324 239.883 135.528Z" fill="#A0A09F"/>
<path fill-rule="evenodd" clip-rule="evenodd" d="M153.77 94.3438L161.792 98.6774L168.857 95.6242L176.029 98.7232L183.2 95.6242L190.371 98.7232L197.648 95.5785L203.385 98.6774L212.63 94.6821V113.494H208.27V101.316L203.173 103.519L197.436 100.42L190.371 103.473L183.2 100.374L176.029 103.473L168.857 100.374L161.581 103.519L158.13 101.654V138.285H153.77V94.3438Z" fill="#A0A09F"/>
<path fill-rule="evenodd" clip-rule="evenodd" d="M228.384 98.3061L225.516 118.449L221.199 117.835L224.068 97.6914L228.384 98.3061Z" fill="#A0A09F"/>
<path fill-rule="evenodd" clip-rule="evenodd" d="M204.714 176.102H178.898V171.742H204.714V176.102Z" fill="#A0A09F"/>
<path fill-rule="evenodd" clip-rule="evenodd" d="M133.941 167.197L137.795 165.158L142.918 174.844H171.845L176.968 165.158L180.822 167.197L174.471 179.204H140.292L133.941 167.197Z" fill="#A0A09F"/>
<path fill-rule="evenodd" clip-rule="evenodd" d="M138.677 140.752H176.09L184.942 163.706H129.824L138.677 140.752ZM141.668 145.112L136.179 159.346H178.588L173.098 145.112H141.668Z" fill="#A0A09F"/>
</svg>
