<svg width="44" height="44" viewBox="0 0 44 44" fill="none" xmlns="http://www.w3.org/2000/svg">
<rect width="44" height="44" fill="#D8D8D8"/>
<path fill-rule="evenodd" clip-rule="evenodd" d="M25.1992 15.8418H37.3494L35.2735 32.8859H27.2751L25.1992 15.8418ZM26.5261 17.0169L28.3157 31.7109H34.2329L36.0225 17.0169H26.5261Z" fill="#A0A09F"/>
<path d="M36.1172 21.1146L35.9134 22.7881C35.6839 21.5731 35.3898 20.8434 35.0691 20.8434C34.3354 20.8434 33.7408 24.3697 33.7408 28.7182H32.6778C32.6778 24.3697 32.0826 20.8434 31.3489 20.8434C30.6153 20.8434 30.02 24.6629 30.02 29.3748H28.957C28.957 24.301 30.0278 20.1875 31.3489 20.1875C32.1001 20.1875 32.7704 21.4234 33.209 23.3567C33.647 21.4234 34.318 20.1875 35.0691 20.1875C35.445 20.1875 35.8007 20.5208 36.1172 21.1146Z" fill="#A0A09F"/>
<path fill-rule="evenodd" clip-rule="evenodd" d="M12.9062 10.0156L15.0685 11.1836L16.9727 10.3607L18.9054 11.1959L20.8381 10.3607L22.7709 11.1959L24.7321 10.3484L26.2783 11.1836L28.77 10.1068V15.1769H27.5949V11.8948L26.2213 12.4884L24.6751 11.6532L22.7709 12.4761L20.8381 11.6408L18.9054 12.4761L16.9727 11.6408L15.0115 12.4884L14.0813 11.986V21.8586H12.9062V10.0156Z" fill="#A0A09F"/>
<path fill-rule="evenodd" clip-rule="evenodd" d="M33.0146 11.0836L32.2415 16.5125L31.0781 16.3469L31.8512 10.918L33.0146 11.0836Z" fill="#A0A09F"/>
<path fill-rule="evenodd" clip-rule="evenodd" d="M26.6375 32.0501H19.6797V30.875H26.6375V32.0501Z" fill="#A0A09F"/>
<path fill-rule="evenodd" clip-rule="evenodd" d="M7.5625 29.651L8.60124 29.1016L9.98195 31.712H17.7781L19.1588 29.1016L20.1976 29.651L18.4859 32.8871H9.27415L7.5625 29.651Z" fill="#A0A09F"/>
<path fill-rule="evenodd" clip-rule="evenodd" d="M8.83905 22.5234H18.9224L21.3083 28.7098H6.45312L8.83905 22.5234ZM9.6453 23.6985L8.16578 27.5347H19.5956L18.1161 23.6985H9.6453Z" fill="#A0A09F"/>
</svg>
