<svg width="27" height="18" viewBox="0 0 27 18" fill="none" xmlns="http://www.w3.org/2000/svg">
<g clip-path="url(#clip0_109_43828)">
<path d="M0 0H27V17.9996H0V0Z" fill="white"/>
<path d="M0 17.9996V0L14.7877 9.21533H4.62006L14.3008 17.9996H0Z" fill="#0052B4"/>
<path d="M12.909 8.67735L0.539062 0.96875V17.4616H12.909L3.2282 8.67735H12.909Z" fill="#D80027"/>
<path d="M5.16832 12.6091L4.39898 12.2472L4.80872 11.502L3.9732 11.6618L3.86731 10.8178L3.28538 11.4386L2.70341 10.8178L2.59752 11.6618L1.76205 11.502L2.17179 12.2472L1.40234 12.6091L2.17179 12.9709L1.76205 13.7161L2.59757 13.5563L2.70341 14.4003L3.28538 13.7795L3.86731 14.4003L3.9732 13.5563L4.80867 13.7161L4.39898 12.971L5.16832 12.6091ZM4.65495 5.60749L4.09533 5.34429L4.39333 4.80229L3.78567 4.91857L3.70863 4.30469L3.28538 4.75615L2.86214 4.30469L2.78515 4.91857L2.17738 4.80229L2.47544 5.34429L1.91577 5.60749L3.28538 5.88139L4.65495 5.60749Z" fill="white"/>
<path d="M4.92756 5.60938C4.92756 6.51704 4.19176 7.25284 3.28409 7.25284C2.37643 7.25284 1.64062 6.51704 1.64062 5.60938" fill="white"/>
</g>
<rect x="0.5" y="0.5" width="26" height="17" rx="0.5" stroke="black" stroke-opacity="0.2"/>
<defs>
<clipPath id="clip0_109_43828">
<rect width="27" height="18" rx="1" fill="white"/>
</clipPath>
</defs>
</svg>
