<svg width="136" height="136" viewBox="0 0 136 136" fill="none" xmlns="http://www.w3.org/2000/svg">
<g clip-path="url(#clip0_17_28537)">
<path fill-rule="evenodd" clip-rule="evenodd" d="M60.4297 18.4805C60.4297 18.4805 63.9164 18.7649 67.4032 18.7649C70.8899 18.7649 74.3766 18.4805 74.3766 18.4805C74.3766 18.4805 74.0928 23.3782 73.6651 28.3C73.2369 33.2223 72.6687 38.1201 72.6687 38.1201C72.6687 38.1201 70.0357 38.4045 67.4032 38.4045C64.7701 38.4045 62.1371 38.1201 62.1371 38.1201C62.1371 38.1201 61.5672 33.1978 61.1412 28.3C60.7152 23.4022 60.4297 18.4805 60.4297 18.4805Z" fill="white"/>
<path d="M67.8423 12.8302L67.6341 12.8386C66.837 12.8733 66.0399 12.9372 65.2429 13.0302L65.2048 13.0352C64.7246 13.1075 64.3281 13.4772 64.1883 13.9788L64.1813 14.0047L62.5221 14.0048C61.9832 14.0048 61.5232 14.428 61.4346 15.0053L61.2165 16.4262L61.2124 16.4571C61.1746 16.786 61.3403 17.0921 61.6021 17.2263L61.6151 17.2326L61.6221 17.3473C61.6988 18.7818 61.7837 20.2212 61.8764 21.6591L61.933 22.5209C62.0481 24.2465 62.1745 25.9692 62.3123 27.6898C62.5878 31.1309 62.9101 34.5804 63.279 38.0384C63.3161 38.3856 63.5695 38.6588 63.8895 38.6963C65.6138 38.8988 67.3383 39 69.0628 39L69.3649 38.999C70.9902 38.9877 72.6133 38.8869 74.2361 38.6963C74.5561 38.6588 74.8095 38.3857 74.8466 38.0385C75.2142 34.5974 75.5364 31.1478 75.8133 27.6898L75.8815 26.8254C76.1282 23.6568 76.3356 20.4953 76.5038 17.3408L76.5109 17.2323L76.5223 17.2269C76.793 17.0889 76.9614 16.7673 76.9091 16.4262L76.691 15.0053L76.6845 14.9671C76.5819 14.4094 76.1304 14.0048 75.6035 14.0048L73.9442 14.0047L73.9373 13.9788C73.7938 13.464 73.38 13.0882 72.8827 13.0302L72.607 12.9992C71.9638 12.9296 71.3206 12.8789 70.6773 12.8472L70.6239 12.8447L72.0196 2.06091C72.0725 1.65162 71.8099 1.2732 71.4331 1.21568L70.0683 1.00738C69.6914 0.949855 69.343 1.23501 69.29 1.64429L67.8423 12.8302Z" fill="white"/>
<path fill-rule="evenodd" clip-rule="evenodd" d="M62.2109 17.377C62.2109 17.377 65.6272 17.6791 69.0435 17.6791C72.4598 17.6791 75.8761 17.377 75.8761 17.377C75.8761 17.377 75.5983 22.5757 75.1789 27.8002C74.7596 33.0246 74.2028 38.2234 74.2028 38.2234C74.2028 38.2234 71.6232 38.5255 69.0435 38.5255C66.4639 38.5255 63.8842 38.2234 63.8842 38.2234C63.8842 38.2234 63.3254 32.9989 62.9081 27.8002C62.4908 22.6014 62.2109 17.377 62.2109 17.377Z" fill="white"/>
<mask id="mask0_17_28537" style="mask-type:luminance" maskUnits="userSpaceOnUse" x="62" y="17" width="14" height="22">
<path fill-rule="evenodd" clip-rule="evenodd" d="M62.2109 17.377C62.2109 17.377 65.6272 17.6791 69.0435 17.6791C72.4598 17.6791 75.8761 17.377 75.8761 17.377C75.8761 17.377 75.5983 22.5757 75.1789 27.8002C74.7596 33.0246 74.2028 38.2234 74.2028 38.2234C74.2028 38.2234 71.6232 38.5255 69.0435 38.5255C66.4639 38.5255 63.8842 38.2234 63.8842 38.2234C63.8842 38.2234 63.3254 32.9989 62.9081 27.8002C62.4908 22.6014 62.2109 17.377 62.2109 17.377Z" fill="white"/>
</mask>
<g mask="url(#mask0_17_28537)">
</g>
<path fill-rule="evenodd" clip-rule="evenodd" d="M65.1604 26.8066C64.5074 24.3156 63.5657 22.5733 62.4922 22.0628C62.4918 22.0593 62.4918 22.0593 62.5934 23.5553C63.5336 25.1763 64.2106 29.7302 64.2106 35.0941H66.1105C66.1105 28.3724 67.1737 22.9227 68.4853 22.9227C69.7969 22.9227 70.8603 28.8261 70.8603 36.108H72.7597C72.7597 28.2659 70.8462 21.9082 68.4853 21.9082C67.1424 21.9082 65.9444 23.8189 65.1604 26.8066Z" fill="#FFBC0D"/>
<path fill-rule="evenodd" clip-rule="evenodd" d="M75.8756 17.377C75.8756 17.377 75.5977 22.5757 75.1784 27.8002C74.759 33.0246 74.2023 38.2234 74.2023 38.2234C74.2023 38.2234 71.6226 38.5255 69.043 38.5255C71.0764 38.5255 72.0989 31.5565 72.1106 17.6185C74.2023 17.528 75.8756 17.377 75.8756 17.377Z" fill="#A0A09F" fill-opacity="0.15"/>
<path d="M69.9648 1.68359L71.3457 1.89383L69.7485 14.2058L68.3406 14.2037L69.9648 1.68359Z" fill="#F1F1F1"/>
<path d="M70.6562 1.78906L71.0705 1.85213L69.4679 14.2057L69.0455 14.2051L70.6562 1.78906Z" fill="#D8D8D8"/>
<path fill-rule="evenodd" clip-rule="evenodd" d="M62.4262 14.8086H75.6616C75.8661 14.8086 76.0406 14.9688 76.0742 15.1873L76.2948 16.6213C73.8778 16.8227 71.4609 16.9234 69.0439 16.9234C66.6269 16.9234 64.2099 16.8227 61.793 16.6213L62.0136 15.1873C62.0472 14.9688 62.2217 14.8086 62.4262 14.8086Z" fill="#F1F1F1"/>
<path fill-rule="evenodd" clip-rule="evenodd" d="M65.2549 13.8201C66.5184 13.6731 67.7818 13.5996 69.0453 13.5996C70.3088 13.5996 71.5723 13.6731 72.8357 13.8201C73.0708 13.8474 73.2645 14.0324 73.3189 14.2816L73.368 14.506H64.7227L64.7717 14.2816C64.8262 14.0324 65.0198 13.8474 65.2549 13.8201Z" fill="#F1F1F1"/>
<path d="M210.289 112.709C210.289 117.84 165.677 122 110.645 122C55.6124 122 11 117.84 11 112.709C11 107.578 55.6124 103.418 110.645 103.418C165.677 103.418 210.289 107.578 210.289 112.709Z" fill="#A0A09F" fill-opacity="0.15"/>
<path d="M29.8556 80.5741H65.0451C69.6857 80.5741 74.1622 76.6997 71.4845 72.9095C70.3937 71.3656 68.6307 70.0262 65.8074 69.4077C56.8573 67.4472 34.6951 69.4077 34.6951 69.4077L29.1967 20.7195C28.9922 18.9083 27.2606 17.6757 25.4823 18.0755C21.1187 19.0564 18.1903 23.1613 18.6829 27.6066L23.9675 75.3023C24.3 78.3033 26.8363 80.5741 29.8556 80.5741Z" fill="#FFBC0D"/>
<path d="M24.3805 109.812C24.6362 107.681 28.4719 80.6602 28.4719 80.6602H37.8483C37.8483 80.6602 30.8587 107.51 30.0915 109.812C29.3243 112.113 28.3013 112.71 26.8523 112.71C25.4033 112.71 24.1247 111.943 24.3805 109.812Z" fill="#D8D8D8"/>
<path d="M70.5476 109.812C70.2918 107.681 66.4561 80.6602 66.4561 80.6602H57.0798C57.0798 80.6602 64.0694 107.51 64.8365 109.812C65.6037 112.113 66.6267 112.71 68.0757 112.71C69.5248 112.71 70.8033 111.943 70.5476 109.812Z" fill="#D8D8D8"/>
<path d="M27.6875 86.1986C28.151 82.9256 28.4729 80.6582 28.4729 80.6582H37.8492C37.8492 80.6582 37.259 82.9254 36.4028 86.1986H27.6875Z" fill="#A0A09F"/>
<path d="M67.2421 86.1987C66.7786 82.9257 66.4567 80.6582 66.4567 80.6582H57.0804C57.0804 80.6582 57.6706 82.9254 58.5268 86.1987H67.2421Z" fill="#A0A09F"/>
<path d="M48.6758 41.0871C48.6758 39.4512 50.0019 38.125 51.6378 38.125H170.333C171.969 38.125 173.295 39.4512 173.295 41.0871V50.6765C173.295 52.3124 171.969 53.6385 170.333 53.6385H51.6378C50.0019 53.6385 48.6758 52.3124 48.6758 50.6765V41.0871Z" fill="#D8D8D8"/>
<path fill-rule="evenodd" clip-rule="evenodd" d="M52.0586 42.3011C52.0586 41.9244 52.3639 41.6191 52.7405 41.6191H61.4349C61.8115 41.6191 62.1168 41.9244 62.1168 42.3011C62.1168 42.6777 61.8115 42.983 61.4349 42.983H53.4224V48.0973C53.4224 48.4739 53.1171 48.7792 52.7405 48.7792C52.3639 48.7792 52.0586 48.4739 52.0586 48.0973V42.3011Z" fill="white"/>
<path d="M114.48 56.1953H106.297V111.942C106.297 112.695 108.129 113.305 110.388 113.305C112.648 113.305 114.48 112.695 114.48 111.942L114.48 111.937V56.1953Z" fill="#A0A09F"/>
</g>
<defs>
<clipPath id="clip0_17_28537">
<rect width="136" height="136" fill="white"/>
</clipPath>
</defs>
</svg>
