<svg width="136" height="136" viewBox="0 0 136 136" fill="none" xmlns="http://www.w3.org/2000/svg">
<path d="M128 119.248C128 122.977 101.861 126 69.6174 126C37.3733 126 11.2344 122.977 11.2344 119.248C11.2344 115.519 37.3733 112.496 69.6174 112.496C101.861 112.496 128 115.519 128 119.248Z" fill="#F1F1F1"/>
<path d="M81.516 14L79.2338 15.5287L76.9515 14L74.6693 15.5287L72.387 14L70.1047 15.5287L67.8225 14L65.5402 15.5287L63.258 14L60.9757 15.5287L58.6934 14L56.4112 15.5287L54.1289 14V51.4532C54.1289 53.1418 55.4913 54.5106 57.1719 54.5106H83.0376C84.7182 54.5106 86.0806 53.1418 86.0806 51.4532V14L83.7983 15.5287L81.516 14Z" fill="#C2945C"/>
<path d="M54.1289 47.6309H86.0806V51.4526C86.0806 53.1412 84.7182 54.51 83.0376 54.51H57.1719C55.4913 54.51 54.1289 53.1412 54.1289 51.4526V47.6309Z" fill="#DB0007"/>
<path d="M86.0824 26.1199C83.1596 26.1199 80.7889 37.8535 80.7889 52.3252H76.5554C76.5554 37.8535 74.1881 26.1199 71.2619 26.1199C68.3425 26.1199 65.9717 38.8285 65.9717 54.5096H61.7383C61.7383 37.6225 66.0022 23.9355 71.2619 23.9355C74.2558 23.9355 76.928 28.0495 78.6721 34.4836C80.4197 28.0495 83.0885 23.9355 86.0824 23.9355V26.1199Z" fill="#FFBC0D"/>
<path d="M11.2344 56.5117C11.2344 55.4072 12.1298 54.5117 13.2344 54.5117H126C127.105 54.5117 128 55.4071 128 56.5117V66.0153C128 67.1198 127.105 68.0153 126 68.0153H13.2344C12.1298 68.0153 11.2344 67.1198 11.2344 66.0153V56.5117Z" fill="#D8D8D8"/>
<path d="M20.7656 68.0137H118.468V118.645C118.468 119.197 118.02 119.645 117.468 119.645H21.7656C21.2133 119.645 20.7656 119.197 20.7656 118.645V68.0137Z" fill="#FFBC0D"/>
<path d="M20.7656 68.0137H118.468V76.7513H20.7656V68.0137Z" fill="#C2945C"/>
</svg>
