<svg width="136" height="136" viewBox="0 0 136 136" fill="none" xmlns="http://www.w3.org/2000/svg">
<g clip-path="url(#clip0_17_28656)">
<path fill-rule="evenodd" clip-rule="evenodd" d="M86.3406 31.1662L30.8193 63.8707C29.8761 64.4263 29.5618 65.6414 30.1174 66.5846L53.0046 105.439C53.5602 106.383 54.7752 106.697 55.7185 106.141L111.24 73.4366C112.695 72.5795 113.707 71.1334 114.014 69.4727L119.047 42.2325C119.269 41.0331 118.574 39.8536 117.417 39.466L91.1524 30.6618C89.5512 30.125 87.7958 30.309 86.3406 31.1662ZM108.622 50.3877C111.274 48.826 112.157 45.4107 110.595 42.7594C109.033 40.1082 105.618 39.2249 102.967 40.7866C100.316 42.3483 99.4324 45.7636 100.994 48.4149C102.556 51.0662 105.971 51.9495 108.622 50.3877Z" fill="#A0A09F"/>
<path fill-rule="evenodd" clip-rule="evenodd" d="M84.3408 17.7808L15.8907 42.6946C14.7279 43.1178 14.1283 44.4036 14.5515 45.5665L31.9866 93.4689C32.4098 94.6318 33.6956 95.2314 34.8585 94.8081L103.309 69.8943C105.103 69.2414 106.525 67.8425 107.208 66.0598L118.415 36.8188C118.908 35.5314 118.379 34.0772 117.173 33.4082L89.793 18.2114C88.1238 17.2849 86.1348 17.1278 84.3408 17.7808ZM103.91 45.8768C106.684 44.8673 108.114 41.8002 107.105 39.0264C106.095 36.2526 103.028 34.8225 100.254 35.832C97.4806 36.8416 96.0504 39.9086 97.06 42.6824C98.0696 45.4562 101.137 46.8864 103.91 45.8768Z" fill="#EAEAEA"/>
<path fill-rule="evenodd" clip-rule="evenodd" d="M15.2076 40.8152L83.6577 15.9014C85.9961 15.0503 88.5887 15.2551 90.7646 16.4627L118.145 31.6595C120.221 32.812 121.133 35.317 120.283 37.5346L109.077 66.7755C108.186 69.0993 106.332 70.9226 103.994 71.7737L35.5435 96.6875C33.3426 97.4886 30.9091 96.3538 30.1081 94.153L12.6731 46.2506C11.872 44.0498 13.0068 41.6163 15.2076 40.8152ZM103.227 43.9975C104.963 43.3657 105.858 41.4463 105.226 39.7105C104.595 37.9747 102.675 37.0797 100.939 37.7115C99.2035 38.3433 98.3085 40.2626 98.9403 41.9984C99.5721 43.7343 101.491 44.6293 103.227 43.9975ZM15.8917 42.6946L84.3417 17.7808C86.1357 17.1279 88.1247 17.285 89.794 18.2114L117.174 33.4082C118.38 34.0773 118.909 35.5315 118.415 36.8189L107.209 66.0598C106.526 67.8426 105.103 69.2414 103.309 69.8944L34.8594 94.8081C33.6966 95.2314 32.4107 94.6318 31.9875 93.4689L14.5525 45.5666C14.1292 44.4037 14.7288 43.1179 15.8917 42.6946ZM107.106 39.0265C108.115 41.8003 106.685 44.8673 103.911 45.8769C101.138 46.8864 98.0705 45.4563 97.0609 42.6825C96.0514 39.9087 97.4815 36.8417 100.255 35.8321C103.029 34.8225 106.096 36.2527 107.106 39.0265Z" fill="white"/>
<path opacity="0.1" fill-rule="evenodd" clip-rule="evenodd" d="M95.2029 43.3593C93.8201 39.5592 95.7799 35.3576 99.58 33.9749C103.38 32.5921 107.582 34.5519 108.965 38.3521C110.347 42.1522 108.388 46.3538 104.587 47.7365C100.787 49.1193 96.5856 47.1595 95.2029 43.3593ZM107.106 39.0281C106.097 36.2541 103.03 34.8235 100.256 35.8329C97.4821 36.8422 96.0515 39.9093 97.0609 42.6833C98.0703 45.4573 101.137 46.8879 103.911 45.8785C106.685 44.8692 108.116 41.8021 107.106 39.0281Z" fill="#292929"/>
<path d="M70.9066 52.2027C74.5143 62.1178 69.4012 73.0801 59.4861 76.6878C49.5711 80.2955 38.6088 75.1823 35.0011 65.2673C31.3934 55.3522 36.5065 44.3899 46.4215 40.7822C56.3365 37.1745 67.2989 42.2877 70.9066 52.2027Z" fill="white"/>
<path fill-rule="evenodd" clip-rule="evenodd" d="M54.1475 48.4467C52.346 49.1022 51.5814 52.0023 51.847 56.0054C49.479 52.7673 47.0288 51.037 45.227 51.6926C42.0606 52.8447 42.2954 61.4834 45.753 70.9863L48.302 70.0588C45.0914 61.2347 43.9155 53.5619 45.6742 52.9219C47.4341 52.2815 51.2632 58.3665 54.2269 66.5117L56.7755 65.5843C53.8119 57.4391 52.8353 50.3162 54.5948 49.676C56.3543 49.0358 60.3838 55.6704 63.5944 64.4944L66.1424 63.5673C62.6847 54.0644 57.3146 47.2943 54.1475 48.4467Z" fill="#CCCCCC"/>
<path fill-rule="evenodd" clip-rule="evenodd" d="M117.629 39.547C118.658 40.0001 119.256 41.1075 119.048 42.2322L114.015 69.4724C113.708 71.1331 112.696 72.5792 111.241 73.4363L55.7195 106.141C54.7763 106.696 53.5612 106.382 53.0056 105.439L44.6455 91.2463L34.8594 94.8081C33.6966 95.2314 32.4107 94.6318 31.9875 93.4689L14.5525 45.5666C14.1292 44.4037 14.7288 43.1179 15.8917 42.6946L84.3417 17.7808C86.1357 17.1279 88.1247 17.285 89.794 18.2114L117.174 33.4082C118.38 34.0773 118.909 35.5315 118.415 36.8189L117.539 39.105L117.403 39.4605L117.418 39.4657C117.49 39.4898 117.56 39.517 117.629 39.547ZM43.7665 93.6946L51.2824 106.454C52.3986 108.349 54.8397 108.98 56.7346 107.864L112.256 75.1596C114.21 74.0084 115.569 72.0662 115.982 69.8358L121.015 42.5956C121.284 41.1397 120.809 39.7 119.838 38.6946L120.283 37.5346C121.133 35.317 120.221 32.812 118.145 31.6595L90.7646 16.4627C88.5887 15.2551 85.9961 15.0503 83.6577 15.9014L15.2076 40.8152C13.0068 41.6163 11.872 44.0498 12.6731 46.2506L30.1081 94.153C30.9091 96.3538 33.3426 97.4886 35.5435 96.6875L43.7665 93.6946Z" fill="white"/>
<path d="M111.148 122.043C111.148 124.986 91.7603 127.373 67.8438 127.373C43.9272 127.373 24.5391 124.986 24.5391 122.043C24.5391 119.099 43.9272 116.713 67.8438 116.713C91.7603 116.713 111.148 119.099 111.148 122.043Z" fill="#A0A09F" fill-opacity="0.15"/>
</g>
<defs>
<clipPath id="clip0_17_28656">
<rect width="136" height="136" fill="white"/>
</clipPath>
</defs>
</svg>
