<svg width="375" height="176" viewBox="0 0 375 176" fill="none" xmlns="http://www.w3.org/2000/svg">
<g clip-path="url(#clip0_17_28634)">
<path fill-rule="evenodd" clip-rule="evenodd" d="M206.32 25.043C206.32 25.043 196.681 69.1794 191.861 91.2476C187.643 110.561 180.987 149.188 180.987 149.188C180.238 152.617 182.92 155.395 186.972 155.395H286.182C290.234 155.395 294.13 152.617 294.879 149.188C294.879 149.188 304.678 112.469 308.687 94.1092C313.715 71.0871 323.771 25.043 323.771 25.043H300.281H276.791H253.301H229.811H206.32Z" fill="#C2945C"/>
<mask id="mask0_17_28634" style="mask-type:luminance" maskUnits="userSpaceOnUse" x="180" y="25" width="144" height="131">
<path fill-rule="evenodd" clip-rule="evenodd" d="M206.32 25.043C206.32 25.043 196.681 69.1794 191.861 91.2476C187.643 110.561 180.987 149.188 180.987 149.188C180.238 152.617 182.92 155.395 186.972 155.395H286.182C290.234 155.395 294.13 152.617 294.879 149.188C294.879 149.188 304.678 112.469 308.687 94.1092C313.715 71.0871 323.771 25.043 323.771 25.043H300.281H276.791H253.301H229.811H206.32Z" fill="white"/>
</mask>
<g mask="url(#mask0_17_28634)">
<rect width="126.276" height="27.5673" transform="matrix(1 0 -0.213371 0.976971 178.348 132.771)" fill="#DB0007"/>
<path fill-rule="evenodd" clip-rule="evenodd" d="M299.892 65.0265C310.197 65.0265 309.69 105.62 298.758 155.674H313.692C325.467 101.759 319.968 58.0566 301.414 58.0566C290.865 58.0566 278.576 71.1938 267.933 91.731C266.256 71.1938 259.71 58.0566 249.153 58.0566C230.606 58.0566 206.014 101.759 194.239 155.674H209.173C220.105 105.62 237.33 65.0265 247.63 65.0265C257.942 65.0265 258.115 102.493 248.023 148.705H262.953C273.045 102.493 289.591 65.0265 299.892 65.0265Z" fill="#FFBC0D"/>
</g>
<path d="M204.438 33.502L321.889 33.502L319.282 45.4356L201.23 48.1895L204.438 33.502Z" fill="#A5835B"/>
<path fill-rule="evenodd" clip-rule="evenodd" d="M210.208 5.88846L267.372 5.06055L328.274 5.89066C329.608 5.90884 330.483 6.93038 330.282 8.23518L326.8 30.8582C326.588 32.2373 325.256 33.4258 323.826 33.5127L323.744 33.5164L202.752 33.5176C201.338 33.5176 200.436 32.3974 200.738 31.0155L200.777 30.8582L207.178 8.23295C207.547 6.92908 208.866 5.90789 210.208 5.88846Z" fill="#C2945C"/>
<mask id="mask1_17_28634" style="mask-type:luminance" maskUnits="userSpaceOnUse" x="238" y="5" width="54" height="53">
<path fill-rule="evenodd" clip-rule="evenodd" d="M238.557 7.12963C238.493 6.28958 239.31 5.44859 240.208 5.43103C245.066 5.33609 258.762 5.07764 267.166 5.0109C275.656 4.94349 286.831 5.29288 290.577 5.4208C291.301 5.44549 291.745 6.02732 291.595 6.73954L281.202 55.8483C281.046 56.5871 280.303 57.1886 279.547 57.1886H243.398C242.791 57.1886 242.342 56.7957 242.299 56.2254L238.557 7.12963Z" fill="white"/>
</mask>
<g mask="url(#mask1_17_28634)">
<path fill-rule="evenodd" clip-rule="evenodd" d="M245.189 49.6782L247.422 5.06055L249.463 4.87952C256.34 4.28311 261.648 3.96683 265.388 3.93068L284.306 3.92718L282.016 44.6336C281.916 46.4167 280.353 48.0947 278.486 48.4657L278.236 48.5071L248.471 52.475C246.555 52.7304 245.098 51.4887 245.189 49.6782Z" fill="#F1F1F1"/>
<mask id="mask2_17_28634" style="mask-type:luminance" maskUnits="userSpaceOnUse" x="245" y="3" width="40" height="50">
<path fill-rule="evenodd" clip-rule="evenodd" d="M245.189 49.6782L247.422 5.06055L249.463 4.87952C256.34 4.28311 261.648 3.96683 265.388 3.93068L284.306 3.92718L282.016 44.6336C281.916 46.4167 280.353 48.0947 278.486 48.4657L278.236 48.5071L248.471 52.475C246.555 52.7304 245.098 51.4887 245.189 49.6782Z" fill="white"/>
</mask>
<g mask="url(#mask2_17_28634)">
<mask id="mask3_17_28634" style="mask-type:luminance" maskUnits="userSpaceOnUse" x="249" y="15" width="32" height="33">
<path fill-rule="evenodd" clip-rule="evenodd" d="M251.398 19.3613L280.948 15.4221L278.859 43.451L249.309 47.3902L251.398 19.3613Z" fill="white"/>
</mask>
<g mask="url(#mask3_17_28634)">
<path fill-rule="evenodd" clip-rule="evenodd" d="M266.173 17.3917C258.013 18.4795 250.931 25.6359 250.354 33.3758C249.777 41.1158 255.924 46.5084 264.084 45.4206C272.244 44.3328 279.327 37.1766 279.904 29.4366C280.481 21.6966 274.333 16.3039 266.173 17.3917Z" fill="#DB0007"/>
<circle cx="0.604816" cy="0.604816" r="0.604816" transform="matrix(1.01996 -0.135968 -0.0721218 0.967463 259.703 39.0527)" fill="white"/>
<circle cx="0.604816" cy="0.604816" r="0.604816" transform="matrix(1.01996 -0.135968 -0.0721218 0.967463 268.34 37.9023)" fill="white"/>
<circle cx="0.604816" cy="0.604816" r="0.604816" transform="matrix(1.01996 -0.135968 -0.0721218 0.967463 266.578 38.5645)" fill="white"/>
<circle cx="0.604816" cy="0.604816" r="0.604816" transform="matrix(1.01996 -0.135968 -0.0721218 0.967463 264.84 38.9473)" fill="white"/>
<circle cx="0.604816" cy="0.604816" r="0.604816" transform="matrix(1.01996 -0.135968 -0.0721218 0.967463 263.113 39.1777)" fill="white"/>
<circle cx="0.604816" cy="0.604816" r="0.604816" transform="matrix(1.01996 -0.135968 -0.0721218 0.967463 261.398 39.2559)" fill="white"/>
<path fill-rule="evenodd" clip-rule="evenodd" d="M258.644 36.8765C257.962 36.9674 257.371 37.565 257.323 38.2113C257.275 38.8576 257.788 39.3079 258.469 39.2171C259.151 39.1262 259.742 38.5287 259.79 37.8823C259.839 37.236 259.325 36.7857 258.644 36.8765ZM258.618 37.2239C259.096 37.1602 259.458 37.4775 259.424 37.9313C259.408 38.1512 259.302 38.3698 259.127 38.5471C258.951 38.7244 258.727 38.839 258.495 38.8699C258.017 38.9337 257.655 38.6164 257.689 38.1626C257.705 37.9428 257.811 37.7241 257.986 37.5468C258.162 37.3695 258.386 37.2548 258.618 37.2239Z" fill="white"/>
<path fill-rule="evenodd" clip-rule="evenodd" d="M272.126 36.2378C272.078 36.8842 271.487 37.4817 270.805 37.5726C270.124 37.6634 269.611 37.2131 269.659 36.5668C269.707 35.9204 270.298 35.3228 270.98 35.232C271.661 35.1412 272.175 35.5914 272.126 36.2378Z" fill="white"/>
</g>
<path fill-rule="evenodd" clip-rule="evenodd" d="M268.987 22.9932C270.263 22.823 270.918 27.7934 270.448 34.0943L272.297 33.8478C272.803 27.062 271.35 21.8092 269.052 22.1156C267.745 22.2898 266.455 24.0987 265.5 26.7856C264.93 24.302 263.887 22.8042 262.579 22.9785C260.281 23.2848 258.008 29.0343 257.502 35.8201L259.352 35.5736C259.821 29.2726 261.238 24.0263 262.514 23.8561C263.791 23.6859 264.474 28.2633 264.041 34.0795L265.89 33.8331C266.323 28.0168 267.71 23.1634 268.987 22.9932Z" fill="#FFBC0D"/>
<path opacity="0.1" d="M202.668 33.803L320.94 33.803L320.371 36.4094L202.099 36.4094L202.668 33.803Z" fill="#6F6F6F"/>
</g>
</g>
<mask id="path-22-outside-1_17_28634" maskUnits="userSpaceOnUse" x="169.694" y="0.152663" width="167.566" height="158.269" fill="black">
<rect fill="white" x="169.694" y="0.152663" width="167.566" height="158.269"/>
<path d="M328.273 4.89632C329.607 4.91466 330.48 5.94252 330.278 7.25574L326.764 30.0257C326.55 31.4136 325.216 32.6103 323.786 32.698L323.704 32.7009H321.88L308.56 93.6871C304.528 112.148 294.693 149.051 294.674 149.124C293.92 152.575 290.02 155.371 285.968 155.371H186.757C182.705 155.371 180.027 152.575 180.781 149.124C180.794 149.049 187.497 110.227 191.738 90.8068L204.428 32.7018L202.712 32.7028C201.298 32.7028 200.397 31.5749 200.701 30.184L200.74 30.0257L207.173 7.25383C207.543 5.94149 208.865 4.91301 210.207 4.89345L267.372 4.06055L328.273 4.89632Z"/>
</mask>
<path d="M328.273 4.89632C329.607 4.91466 330.48 5.94252 330.278 7.25574L326.764 30.0257C326.55 31.4136 325.216 32.6103 323.786 32.698L323.704 32.7009H321.88L308.56 93.6871C304.528 112.148 294.693 149.051 294.674 149.124C293.92 152.575 290.02 155.371 285.968 155.371H186.757C182.705 155.371 180.027 152.575 180.781 149.124C180.794 149.049 187.497 110.227 191.738 90.8068L204.428 32.7018L202.712 32.7028C201.298 32.7028 200.397 31.5749 200.701 30.184L200.74 30.0257L207.173 7.25383C207.543 5.94149 208.865 4.91301 210.207 4.89345L267.372 4.06055L328.273 4.89632Z" fill="#C2945C"/>
<path d="M328.273 4.89632L328.955 1.96569L328.955 1.96569L328.273 4.89632ZM330.278 7.25574L333.312 7.07262L333.312 7.07254L330.278 7.25574ZM326.764 30.0257L323.73 30.2088L323.73 30.2088L326.764 30.0257ZM323.786 32.698L323.254 35.627L323.296 35.6256L323.337 35.623L323.786 32.698ZM323.704 32.7009L323.064 35.6318H323.118L323.173 35.6299L323.704 32.7009ZM321.88 32.7009L322.52 29.77H319.52L318.88 32.7009H321.88ZM294.674 149.124L291.707 148.986L291.689 149.055L291.674 149.124H294.674ZM285.968 155.371L285.328 158.302H285.328L285.968 155.371ZM186.757 155.371L186.117 158.302H186.117L186.757 155.371ZM180.781 149.124H183.781L183.795 149.058L183.807 148.993L180.781 149.124ZM204.428 32.7018H207.428L208.069 29.7692L205.067 29.7709L204.428 32.7018ZM202.712 32.7028L202.072 35.6337H202.074L202.712 32.7028ZM200.701 30.184L197.721 30.0958L197.71 30.1399L197.701 30.184H200.701ZM200.74 30.0257L197.786 29.8426L197.773 29.8899L197.761 29.9374L200.74 30.0257ZM207.173 7.25383L204.219 7.0707L204.219 7.07073L207.173 7.25383ZM210.207 4.89345L210.802 1.96287L210.802 1.96287L210.207 4.89345ZM267.372 4.06055L268.054 1.12992L268.011 1.12933L267.967 1.12996L267.372 4.06055ZM328.273 4.89632L327.59 7.82694C327.346 7.82358 327.213 7.63927 327.244 7.43894L330.278 7.25574L333.312 7.07254C333.748 4.24577 331.867 2.00575 328.955 1.96569L328.273 4.89632ZM330.278 7.25574L327.244 7.43885L323.73 30.2088L326.764 30.0257L329.798 29.8425L333.312 7.07262L330.278 7.25574ZM326.764 30.0257L323.73 30.2088C323.762 30.0009 323.971 29.7892 324.234 29.773L323.786 32.698L323.337 35.623C326.462 35.4315 329.337 32.8263 329.798 29.8425L326.764 30.0257ZM323.786 32.698L324.317 29.769L324.235 29.7719L323.704 32.7009L323.173 35.6299L323.254 35.627L323.786 32.698ZM323.704 32.7009L324.344 29.77H322.52L321.88 32.7009L321.24 35.6318H323.064L323.704 32.7009ZM321.88 32.7009H318.88L305.56 93.6871H308.56H311.56L324.88 32.7009H321.88ZM308.56 93.6871H305.56C301.547 112.063 291.733 148.887 291.707 148.986L294.674 149.124L297.64 149.261C297.653 149.214 307.51 112.232 311.56 93.6871H308.56ZM294.674 149.124H291.674C291.354 150.589 289.407 152.44 286.608 152.44L285.968 155.371L285.328 158.302C290.634 158.302 296.486 154.562 297.674 149.124H294.674ZM285.968 155.371L286.608 152.44H187.398L186.757 155.371L186.117 158.302H285.328L285.968 155.371ZM186.757 155.371L187.398 152.44C184.599 152.44 183.461 150.589 183.781 149.124H180.781H177.781C176.593 154.562 180.812 158.302 186.117 158.302L186.757 155.371ZM180.781 149.124L183.807 148.993C183.824 148.893 190.514 110.147 194.738 90.8068H191.738H188.738C184.479 110.307 177.764 149.204 177.755 149.254L180.781 149.124ZM191.738 90.8068H194.738L207.428 32.7018H204.428H201.428L188.738 90.8068H191.738ZM204.428 32.7018L205.067 29.7709L203.351 29.7719L202.712 32.7028L202.074 35.6337L203.79 35.6327L204.428 32.7018ZM202.712 32.7028L203.352 29.7719C203.613 29.7719 203.747 29.9741 203.701 30.184H200.701H197.701C197.047 33.1757 198.983 35.6337 202.072 35.6337L202.712 32.7028ZM200.701 30.184L203.68 30.2723L203.72 30.1139L200.74 30.0257L197.761 29.9374L197.721 30.0958L200.701 30.184ZM200.74 30.0257L203.694 30.2088L210.127 7.43693L207.173 7.25383L204.219 7.07073L197.786 29.8426L200.74 30.0257ZM207.173 7.25383L210.127 7.43696C210.071 7.63631 209.858 7.82044 209.612 7.82404L210.207 4.89345L210.802 1.96287C207.873 2.00557 205.016 4.24666 204.219 7.0707L207.173 7.25383ZM210.207 4.89345L209.612 7.82404L266.777 6.99113L267.372 4.06055L267.967 1.12996L210.802 1.96287L210.207 4.89345ZM267.372 4.06055L266.69 6.99117L327.59 7.82694L328.273 4.89632L328.955 1.96569L268.054 1.12992L267.372 4.06055Z" fill="white" mask="url(#path-22-outside-1_17_28634)"/>
<path fill-rule="evenodd" clip-rule="evenodd" d="M206.32 25.043C206.32 25.043 196.681 69.1794 191.861 91.2476C187.643 110.561 180.987 149.188 180.987 149.188C180.238 152.617 182.92 155.395 186.972 155.395H286.182C290.234 155.395 294.13 152.617 294.879 149.188C294.879 149.188 304.678 112.469 308.687 94.1092C313.715 71.0871 323.771 25.043 323.771 25.043H300.281H276.791H253.301H229.811H206.32Z" fill="#C2945C"/>
<mask id="mask4_17_28634" style="mask-type:luminance" maskUnits="userSpaceOnUse" x="180" y="25" width="144" height="131">
<path fill-rule="evenodd" clip-rule="evenodd" d="M206.32 25.043C206.32 25.043 196.681 69.1794 191.861 91.2476C187.643 110.561 180.987 149.188 180.987 149.188C180.238 152.617 182.92 155.395 186.972 155.395H286.182C290.234 155.395 294.13 152.617 294.879 149.188C294.879 149.188 304.678 112.469 308.687 94.1092C313.715 71.0871 323.771 25.043 323.771 25.043H300.281H276.791H253.301H229.811H206.32Z" fill="white"/>
</mask>
<g mask="url(#mask4_17_28634)">
<rect width="126.276" height="27.5673" transform="matrix(1 0 -0.213371 0.976971 178.348 132.771)" fill="#DB0007"/>
<path fill-rule="evenodd" clip-rule="evenodd" d="M299.892 65.0265C310.197 65.0265 309.69 105.62 298.758 155.674H313.692C325.467 101.759 319.968 58.0566 301.414 58.0566C290.865 58.0566 278.576 71.1938 267.933 91.731C266.256 71.1938 259.71 58.0566 249.153 58.0566C230.606 58.0566 206.014 101.759 194.239 155.674H209.173C220.105 105.62 237.33 65.0265 247.63 65.0265C257.942 65.0265 258.115 102.493 248.023 148.705H262.953C273.045 102.493 289.591 65.0265 299.892 65.0265Z" fill="#FFBC0D"/>
</g>
<path d="M204.438 33.502L321.889 33.502L319.282 45.4356L201.23 48.1895L204.438 33.502Z" fill="#A5835B"/>
<path fill-rule="evenodd" clip-rule="evenodd" d="M210.208 5.88846L267.372 5.06055L328.274 5.89066C329.608 5.90884 330.483 6.93038 330.282 8.23518L326.8 30.8582C326.588 32.2373 325.256 33.4258 323.826 33.5127L323.744 33.5164L202.752 33.5176C201.338 33.5176 200.436 32.3974 200.738 31.0155L200.777 30.8582L207.178 8.23295C207.547 6.92908 208.866 5.90789 210.208 5.88846Z" fill="#C2945C"/>
<mask id="mask5_17_28634" style="mask-type:luminance" maskUnits="userSpaceOnUse" x="238" y="5" width="54" height="53">
<path fill-rule="evenodd" clip-rule="evenodd" d="M238.557 7.12963C238.493 6.28958 239.31 5.44859 240.208 5.43103C245.066 5.33609 258.762 5.07764 267.166 5.0109C275.656 4.94349 286.831 5.29288 290.577 5.4208C291.301 5.44549 291.745 6.02732 291.595 6.73954L281.202 55.8483C281.046 56.5871 280.303 57.1886 279.547 57.1886H243.398C242.791 57.1886 242.342 56.7957 242.299 56.2254L238.557 7.12963Z" fill="white"/>
</mask>
<g mask="url(#mask5_17_28634)">
<path fill-rule="evenodd" clip-rule="evenodd" d="M245.189 49.6782L247.422 5.06055L249.463 4.87952C256.34 4.28311 261.648 3.96683 265.388 3.93068L284.306 3.92718L282.016 44.6336C281.916 46.4167 280.353 48.0947 278.486 48.4657L278.236 48.5071L248.471 52.475C246.555 52.7304 245.098 51.4887 245.189 49.6782Z" fill="#F1F1F1"/>
<mask id="mask6_17_28634" style="mask-type:luminance" maskUnits="userSpaceOnUse" x="245" y="3" width="40" height="50">
<path fill-rule="evenodd" clip-rule="evenodd" d="M245.189 49.6782L247.422 5.06055L249.463 4.87952C256.34 4.28311 261.648 3.96683 265.388 3.93068L284.306 3.92718L282.016 44.6336C281.916 46.4167 280.353 48.0947 278.486 48.4657L278.236 48.5071L248.471 52.475C246.555 52.7304 245.098 51.4887 245.189 49.6782Z" fill="white"/>
</mask>
<g mask="url(#mask6_17_28634)">
<mask id="mask7_17_28634" style="mask-type:luminance" maskUnits="userSpaceOnUse" x="249" y="15" width="32" height="33">
<path fill-rule="evenodd" clip-rule="evenodd" d="M251.398 19.3613L280.948 15.4221L278.859 43.451L249.309 47.3902L251.398 19.3613Z" fill="white"/>
</mask>
<g mask="url(#mask7_17_28634)">
<path fill-rule="evenodd" clip-rule="evenodd" d="M266.173 17.3917C258.013 18.4795 250.931 25.6359 250.354 33.3758C249.777 41.1158 255.924 46.5084 264.084 45.4206C272.244 44.3328 279.327 37.1766 279.904 29.4366C280.481 21.6966 274.333 16.3039 266.173 17.3917Z" fill="#DB0007"/>
<circle cx="0.604816" cy="0.604816" r="0.604816" transform="matrix(1.01996 -0.135968 -0.0721218 0.967463 259.703 39.0527)" fill="white"/>
<circle cx="0.604816" cy="0.604816" r="0.604816" transform="matrix(1.01996 -0.135968 -0.0721218 0.967463 268.34 37.9023)" fill="white"/>
<circle cx="0.604816" cy="0.604816" r="0.604816" transform="matrix(1.01996 -0.135968 -0.0721218 0.967463 266.578 38.5645)" fill="white"/>
<circle cx="0.604816" cy="0.604816" r="0.604816" transform="matrix(1.01996 -0.135968 -0.0721218 0.967463 264.84 38.9473)" fill="white"/>
<circle cx="0.604816" cy="0.604816" r="0.604816" transform="matrix(1.01996 -0.135968 -0.0721218 0.967463 263.113 39.1777)" fill="white"/>
<circle cx="0.604816" cy="0.604816" r="0.604816" transform="matrix(1.01996 -0.135968 -0.0721218 0.967463 261.398 39.2559)" fill="white"/>
<path fill-rule="evenodd" clip-rule="evenodd" d="M258.644 36.8765C257.962 36.9674 257.371 37.565 257.323 38.2113C257.275 38.8576 257.788 39.3079 258.469 39.2171C259.151 39.1262 259.742 38.5287 259.79 37.8823C259.839 37.236 259.325 36.7857 258.644 36.8765ZM258.618 37.2239C259.096 37.1602 259.458 37.4775 259.424 37.9313C259.408 38.1512 259.302 38.3698 259.127 38.5471C258.951 38.7244 258.727 38.839 258.495 38.8699C258.017 38.9337 257.655 38.6164 257.689 38.1626C257.705 37.9428 257.811 37.7241 257.986 37.5468C258.162 37.3695 258.386 37.2548 258.618 37.2239Z" fill="white"/>
<path fill-rule="evenodd" clip-rule="evenodd" d="M272.126 36.2378C272.078 36.8842 271.487 37.4817 270.805 37.5726C270.124 37.6634 269.611 37.2131 269.659 36.5668C269.707 35.9204 270.298 35.3228 270.98 35.232C271.661 35.1412 272.175 35.5914 272.126 36.2378Z" fill="white"/>
</g>
<path fill-rule="evenodd" clip-rule="evenodd" d="M268.987 22.9932C270.263 22.823 270.918 27.7934 270.448 34.0943L272.297 33.8478C272.803 27.062 271.35 21.8092 269.052 22.1156C267.745 22.2898 266.455 24.0987 265.5 26.7856C264.93 24.302 263.887 22.8042 262.579 22.9785C260.281 23.2848 258.008 29.0343 257.502 35.8201L259.352 35.5736C259.821 29.2726 261.238 24.0263 262.514 23.8561C263.791 23.6859 264.474 28.2633 264.041 34.0795L265.89 33.8331C266.323 28.0168 267.71 23.1634 268.987 22.9932Z" fill="#FFBC0D"/>
<path opacity="0.1" d="M202.668 33.803L320.94 33.803L320.371 36.4094L202.099 36.4094L202.668 33.803Z" fill="#6F6F6F"/>
</g>
</g>
<path d="M230.628 148.443C263.937 148.443 290.938 152.579 290.938 157.681C290.938 157.781 290.927 157.88 290.906 157.979C300.731 157.356 312.009 157.001 324.001 157.001C362.108 157.001 393.001 160.583 393.001 165.001C393 169.419 362.108 173.001 324.001 173.001C289.072 173.001 260.207 169.989 255.634 166.085C248.016 166.617 239.548 166.917 230.628 166.917C197.32 166.917 170.318 162.782 170.316 157.681C170.316 152.579 197.319 148.443 230.628 148.443Z" fill="#A0A09F" fill-opacity="0.15"/>
<path fill-rule="evenodd" clip-rule="evenodd" d="M328.515 83.4004C359.294 83.4004 382.428 95.3341 382.428 115.809C382.428 117.498 381.676 119.852 380.294 120.952L382.631 122.12L382.782 121.973L384.624 122.93C384.826 123.034 384.955 123.251 384.955 123.488V125.593C384.955 125.936 384.691 126.213 384.365 126.213C384.289 126.213 384.213 126.197 384.142 126.167L383.337 125.822C383.266 125.792 383.193 125.761 383.119 125.73C382.884 126.083 382.506 126.333 382.068 126.395C382.786 126.494 383.337 127.11 383.337 127.854C383.337 128.686 382.803 129.418 382.022 129.678L381.897 129.715C383.149 130.821 383.943 132.461 383.943 134.292V137.034C383.943 139.301 382.726 140.705 380.928 141.37L380.914 141.366L380.915 144.637C381.94 144.69 382.731 145.054 382.731 146.116C382.731 146.748 382.506 147.039 382.126 147.198L382.126 151.899C382.126 157.47 377.943 162.153 372.407 162.78C358.277 164.379 343.747 165.179 328.818 165.179C326.728 165.179 324.624 165.164 322.508 165.132C322.27 165.199 322.033 165.193 321.794 165.123C308.545 164.903 294.784 164.072 280.513 162.629C274.988 162.07 270.768 157.469 270.666 151.939L270.664 151.733V147.006L274.994 147.007C274.902 146.758 274.878 146.464 274.936 146.116C275.023 145.594 275.223 145.242 275.51 145.002L275.51 141.375C273.704 140.712 272.481 139.307 272.481 137.034V134.292C272.481 132.22 273.497 130.392 275.045 129.307C274.324 129.256 273.747 128.679 273.697 127.957L273.693 127.854C273.693 127.108 274.246 126.49 274.966 126.39C274.349 126.292 273.857 125.821 273.727 125.216L273.693 125.198L273.693 120.717C272.538 119.694 271.876 117.923 271.876 116.415C271.876 95.9399 297.736 83.4004 328.515 83.4004Z" fill="white"/>
<path d="M328.517 80.3711C361.947 80.3711 385.459 93.9029 385.459 115.809C385.459 116.993 385.234 118.249 384.812 119.427L384.753 119.583L386.009 120.235C387.189 120.841 387.929 122.036 387.982 123.337L387.985 123.487V125.593C387.985 126.854 387.343 127.988 386.353 128.646L386.298 128.68C386.225 129.113 386.095 129.53 385.916 129.92L385.894 129.964L385.909 129.991C386.561 131.222 386.932 132.608 386.97 134.051L386.974 134.292V137.034C386.974 139.446 386.037 141.439 384.418 142.809L384.391 142.831L384.49 142.921C385.246 143.634 385.72 144.64 385.759 145.943L385.762 146.115C385.762 146.97 385.556 147.75 385.164 148.402L385.156 148.415V151.898C385.156 158.936 379.928 164.863 372.972 165.762L372.749 165.789C358.505 167.402 343.861 168.208 328.819 168.208C327.767 168.208 326.711 168.203 325.651 168.195L322.78 168.164C322.348 168.227 321.913 168.221 321.484 168.151L321.448 168.145L320.261 168.123C307.874 167.876 295.054 167.102 281.802 165.8L280.209 165.642C273.165 164.929 267.77 159.063 267.639 151.966L267.637 151.733V147.006C267.637 145.333 268.993 143.976 270.666 143.977H272.482V143.177L272.288 143.033C270.547 141.699 269.511 139.694 269.456 137.24L269.454 137.034V134.292C269.454 132.561 269.936 130.908 270.801 129.496L270.911 129.319L270.869 129.192C270.782 128.913 270.721 128.621 270.689 128.32L270.677 128.169L270.667 127.959L270.666 127.854C270.666 127.352 270.748 126.869 270.9 126.416L270.91 126.389L270.868 126.286C270.753 125.987 270.684 125.668 270.669 125.34L270.666 125.198L270.665 121.872L270.622 121.814C269.535 120.344 268.901 118.457 268.852 116.641L268.849 116.414C268.849 94.652 294.712 80.3711 328.517 80.3711ZM328.517 83.4004C297.738 83.4004 271.877 95.9394 271.877 116.414C271.877 117.922 272.54 119.694 273.694 120.717V125.198L273.729 125.216C273.859 125.821 274.351 126.292 274.968 126.39C274.248 126.49 273.694 127.108 273.694 127.854L273.698 127.957C273.749 128.679 274.325 129.256 275.047 129.307C273.499 130.393 272.482 132.22 272.482 134.292V137.034C272.483 139.307 273.706 140.711 275.512 141.374V145.002C275.225 145.242 275.025 145.593 274.938 146.115C274.879 146.463 274.904 146.758 274.996 147.007L270.666 147.006V151.733L270.667 151.938C270.769 157.468 274.99 162.069 280.514 162.628C294.785 164.072 308.546 164.902 321.796 165.122C322.035 165.193 322.272 165.199 322.509 165.132C324.625 165.163 326.729 165.179 328.819 165.179C343.749 165.179 358.278 164.379 372.408 162.779C377.944 162.153 382.127 157.47 382.127 151.898L382.128 147.197C382.508 147.039 382.732 146.747 382.732 146.115C382.732 145.054 381.942 144.689 380.916 144.637V141.366L380.93 141.37C382.728 140.705 383.944 139.301 383.944 137.034V134.292C383.944 132.461 383.151 130.821 381.898 129.715L382.023 129.678C382.805 129.418 383.339 128.685 383.339 127.854C383.339 127.11 382.787 126.493 382.069 126.395C382.508 126.332 382.886 126.082 383.12 125.729C383.194 125.761 383.267 125.792 383.339 125.822L384.144 126.167C384.214 126.197 384.291 126.213 384.367 126.213C384.693 126.213 384.956 125.935 384.956 125.593V123.487C384.956 123.25 384.828 123.034 384.625 122.93L382.784 121.973L382.633 122.12L380.296 120.951C381.678 119.851 382.43 117.498 382.43 115.809C382.43 95.3338 359.296 83.4004 328.517 83.4004Z" fill="white"/>
<path fill-rule="evenodd" clip-rule="evenodd" d="M280.513 162.628C297.323 164.329 313.425 165.179 328.818 165.179C343.747 165.179 358.277 164.379 372.407 162.78C377.943 162.153 382.126 157.47 382.126 151.898V147.006H270.664V151.733C270.664 157.354 274.92 162.062 280.513 162.628Z" fill="#EC9D47"/>
<path fill-rule="evenodd" clip-rule="evenodd" d="M378.076 128.261C381.316 128.261 383.942 130.961 383.942 134.293V137.034C383.942 139.301 382.726 140.705 380.927 141.37C380.629 141.287 380.286 141.253 379.921 141.253C379.909 141.253 352.684 141.494 348.999 141.942C346.869 142.064 345.433 142.182 344.69 142.298C324.269 145.48 315.647 140.672 305.862 139.675C299.459 139.023 293.436 139.433 288.744 140.59C288.693 140.602 286.761 140.882 285.687 140.946C283.766 141.061 282.013 141.283 279.75 141.216C278.451 141.177 276.735 141.775 275.752 141.458C273.814 140.835 272.48 139.408 272.48 137.034V134.293C272.48 130.961 275.107 128.261 278.347 128.261C300.944 127.04 317.951 126.423 329.367 126.41L329.726 126.41C340.47 126.41 356.587 127.027 378.076 128.261Z" fill="#73371F"/>
<path fill-rule="evenodd" clip-rule="evenodd" d="M345.166 145.662C345.914 145.547 347.36 145.43 349.504 145.31C353.214 144.868 380.624 144.63 380.636 144.63C381.794 144.63 382.733 144.959 382.733 146.116C382.733 147.399 381.805 147.277 380.537 147.49C378.847 147.775 377.037 147.926 375.11 147.943C372.539 147.966 364.821 147.795 351.957 147.43C351.263 147.411 349.925 147.473 347.943 147.618C346.996 147.912 345.902 148.178 344.654 148.389C332.445 150.456 328.591 156.227 323.956 163.762C319.483 171.032 316.374 147.989 301.526 147.357C291.627 146.935 283.539 147.202 277.261 148.156C277.11 148.161 276.96 148.151 276.811 148.126C275.569 147.919 274.731 147.356 274.938 146.116C275.205 144.51 276.546 144.52 278.172 144.416L279.569 144.327C281.764 144.44 283.829 144.44 285.763 144.327C286.844 144.264 288.789 143.987 288.84 143.975C293.564 142.833 299.628 142.428 306.075 143.072C315.926 144.056 324.606 148.804 345.166 145.662Z" fill="#FFBC0D"/>
<path d="M351.108 123.381C359.078 123.881 368.161 124.596 378.355 125.529L378.509 125.543H378.663C380.36 125.543 381.792 124.881 382.918 123.822C383.196 124.095 383.367 124.475 383.367 124.895C383.367 125.732 382.689 126.41 381.852 126.41H275.207C274.475 126.41 273.864 125.891 273.723 125.201C274.372 125.422 275.071 125.543 275.813 125.543H275.956L276.1 125.531C287.037 124.597 296.62 123.881 304.846 123.381L351.108 123.381Z" fill="#FFD90D"/>
<path d="M273.691 127.843C273.691 127.04 274.317 126.386 275.121 126.376C282.24 126.293 313.871 125.93 322.456 125.93C331.116 125.93 372.902 126.3 381.705 126.378C382.624 126.387 383.336 127.134 383.336 128.052C383.336 128.8 382.841 129.456 382.118 129.647C380.487 130.078 377.645 130.776 376.336 130.776C374.852 130.776 373.357 130.533 371.843 130.228C370.346 129.927 368.829 129.564 367.283 129.315C365.821 129.079 286.732 129.28 275.111 129.311C274.299 129.313 273.691 128.655 273.691 127.843Z" fill="#DB0007"/>
<path d="M312.184 125.809C312.392 125.943 312.497 126.19 312.45 126.433L312.052 128.479C311.988 128.808 311.67 129.022 311.342 128.958C311.277 128.946 311.214 128.922 311.156 128.889C307.298 126.676 303.344 124.958 299.293 123.736C302.354 123.53 305.251 123.349 307.984 123.195C309.315 123.988 310.715 124.859 312.184 125.809Z" fill="#EDC8A3"/>
<path d="M327.956 122.775C331.89 122.775 336.418 122.905 341.539 123.165C334.603 126.136 329.368 127.622 325.832 127.622C322.385 127.622 317.323 126.21 310.645 123.387C317.546 122.979 323.318 122.775 327.956 122.775Z" fill="#EDC8A3"/>
<path d="M309.987 123.102C309.982 124.73 309.551 126.345 308.65 127.79C305.864 132.255 302.87 137.054 294.017 131.513C290.104 129.064 288.505 126.761 288.18 124.567C296.188 123.946 303.32 123.465 309.573 123.124L309.987 123.102Z" fill="#E6E454"/>
<path d="M311.199 123.037C311.206 124.895 310.716 126.746 309.676 128.405C309.403 128.84 309.28 129.035 309.124 129.278C307.227 132.247 305.768 133.824 303.608 134.661C300.837 135.733 297.519 135.07 293.373 132.49C289.402 130.019 287.351 127.456 286.969 124.651C287.796 124.587 288.614 124.524 289.422 124.462C289.749 126.405 291.344 128.347 294.673 130.418C298.222 132.627 300.773 133.136 302.719 132.383C304.248 131.792 305.421 130.523 307.055 127.966C307.206 127.73 307.326 127.54 307.596 127.11C308.355 125.9 308.726 124.543 308.744 123.169C309.528 123.125 310.299 123.084 311.057 123.045L311.199 123.037Z" fill="#66881E"/>
<path d="M340.027 122.795C344.581 122.981 349.63 123.262 355.172 123.637C352.376 127.504 348.361 126.518 344.562 125.585C342.776 125.147 341.252 124.179 340.093 122.871L340.027 122.795Z" fill="#E6E454"/>
<path d="M338.453 122.732C339.541 122.772 340.659 122.817 341.806 122.868C342.678 123.597 343.714 124.135 344.875 124.416C345.362 124.534 345.579 124.586 345.848 124.649C348.766 125.33 350.471 125.427 351.963 124.819C352.621 124.551 353.227 124.13 353.779 123.531C354.713 123.591 355.662 123.654 356.626 123.72C355.617 125.311 354.379 126.382 352.899 126.985C350.79 127.843 348.671 127.723 345.282 126.932C345.06 126.88 344.874 126.836 344.556 126.759L344.29 126.695C341.884 126.113 339.902 124.711 338.529 122.838L338.453 122.732Z" fill="#66881E"/>
<path fill-rule="evenodd" clip-rule="evenodd" d="M347.316 123.156C353.3 123.498 359.964 123.974 367.307 124.583C366.257 125.158 365.256 125.853 364.31 126.691C360.103 130.417 357.338 135.396 356.036 133.729C354.733 132.061 354.733 128.253 353.393 126.453C352.345 125.047 350.667 123.991 347.542 123.211L347.316 123.156Z" fill="#FFBC0D"/>
<path fill-rule="evenodd" clip-rule="evenodd" d="M382.428 115.809C382.428 118.084 381.064 121.564 378.634 121.564C378.634 121.564 345.524 118.535 327.909 118.535C311.303 118.535 275.812 121.564 275.812 121.564C273.383 121.564 271.875 118.69 271.875 116.415C271.875 95.9399 297.735 83.4004 328.514 83.4004C359.294 83.4004 382.428 95.3341 382.428 115.809Z" fill="#EC9D47"/>
<path fill-rule="evenodd" clip-rule="evenodd" d="M323.637 104.385C322.786 103.925 322.508 102.885 323.015 102.062C323.523 101.239 326.39 98.9192 326.853 99.1691C327.315 99.419 326.604 102.905 326.096 103.728C325.589 104.551 324.488 104.845 323.637 104.385Z" fill="white"/>
<path fill-rule="evenodd" clip-rule="evenodd" d="M323.128 88.7922C323.698 88.1317 324.728 88.0603 325.429 88.6328C326.13 89.2052 327.881 92.0612 327.572 92.4199C327.262 92.7787 324.067 91.597 323.366 91.0246C322.665 90.4522 322.558 89.4527 323.128 88.7922Z" fill="white"/>
<path fill-rule="evenodd" clip-rule="evenodd" d="M304.828 104.661C304.258 105.322 303.228 105.393 302.527 104.82C301.825 104.248 300.075 101.392 300.384 101.033C300.693 100.675 303.888 101.856 304.589 102.429C305.291 103.001 305.397 104.001 304.828 104.661Z" fill="white"/>
<path fill-rule="evenodd" clip-rule="evenodd" d="M298.202 109.472C299.189 109.31 300.134 109.95 300.314 110.901C300.493 111.853 299.877 115.415 299.341 115.503C298.805 115.591 296.92 112.441 296.741 111.49C296.561 110.538 297.215 109.635 298.202 109.472Z" fill="white"/>
<path fill-rule="evenodd" clip-rule="evenodd" d="M276.483 115.446C277.053 114.786 278.083 114.715 278.784 115.287C279.486 115.86 281.236 118.715 280.927 119.074C280.618 119.433 277.423 118.251 276.722 117.679C276.02 117.106 275.914 116.107 276.483 115.446Z" fill="white"/>
<path fill-rule="evenodd" clip-rule="evenodd" d="M354.202 106.052C353.542 105.483 353.47 104.452 354.043 103.751C354.615 103.05 357.471 101.299 357.83 101.609C358.189 101.918 357.007 105.113 356.435 105.814C355.862 106.515 354.863 106.622 354.202 106.052Z" fill="white"/>
<path fill-rule="evenodd" clip-rule="evenodd" d="M349.089 91.3006C350.075 91.1381 351.021 91.7779 351.2 92.7295C351.38 93.6811 350.763 97.243 350.227 97.3313C349.691 97.4195 347.807 94.2694 347.627 93.3178C347.448 92.3662 348.102 91.463 349.089 91.3006Z" fill="white"/>
<path fill-rule="evenodd" clip-rule="evenodd" d="M319.516 109.717C319.976 110.568 319.682 111.669 318.859 112.176C318.036 112.684 314.55 113.395 314.3 112.933C314.05 112.471 316.37 109.603 317.193 109.095C318.016 108.588 319.056 108.866 319.516 109.717Z" fill="white"/>
<path fill-rule="evenodd" clip-rule="evenodd" d="M330.397 110.601C330.967 109.94 331.997 109.869 332.698 110.441C333.4 111.014 335.151 113.87 334.841 114.229C334.532 114.587 331.337 113.406 330.636 112.833C329.934 112.261 329.828 111.261 330.397 110.601Z" fill="white"/>
<path fill-rule="evenodd" clip-rule="evenodd" d="M340.329 99.7559C341.333 99.7559 342.146 100.531 342.146 101.487C342.146 102.443 340.874 105.814 340.329 105.814C339.784 105.814 338.512 102.443 338.512 101.487C338.512 100.531 339.325 99.7559 340.329 99.7559Z" fill="white"/>
<path fill-rule="evenodd" clip-rule="evenodd" d="M374.311 106.786C374.972 107.356 375.043 108.386 374.471 109.087C373.898 109.788 371.042 111.539 370.684 111.23C370.325 110.92 371.507 107.726 372.079 107.024C372.652 106.323 373.651 106.216 374.311 106.786Z" fill="white"/>
<path fill-rule="evenodd" clip-rule="evenodd" d="M353.99 115.895C353.139 116.355 352.038 116.061 351.531 115.238C351.023 114.414 350.312 110.929 350.774 110.679C351.237 110.429 354.105 112.748 354.612 113.572C355.119 114.395 354.841 115.435 353.99 115.895Z" fill="white"/>
<path fill-rule="evenodd" clip-rule="evenodd" d="M309.434 90.6699C310.438 90.6699 311.252 91.4448 311.252 92.4007C311.252 93.3566 309.98 96.7276 309.434 96.7276C308.889 96.7276 307.617 93.3566 307.617 92.4007C307.617 91.4448 308.431 90.6699 309.434 90.6699Z" fill="white"/>
<path fill-rule="evenodd" clip-rule="evenodd" d="M283.753 103.937C284.323 103.276 285.353 103.205 286.054 103.777C286.755 104.35 288.506 107.206 288.197 107.564C287.887 107.923 284.692 106.742 283.991 106.169C283.29 105.597 283.183 104.597 283.753 103.937Z" fill="white"/>
<rect x="112" y="59" width="67" height="3" rx="1" fill="#A0A09F" fill-opacity="0.15"/>
<rect x="86" y="72" width="67" height="3" rx="1" fill="#A0A09F" fill-opacity="0.15"/>
<rect x="100" y="85" width="67" height="3" rx="1" fill="#A0A09F" fill-opacity="0.15"/>
</g>
<defs>
<clipPath id="clip0_17_28634">
<rect width="375" height="176" fill="white"/>
</clipPath>
</defs>
</svg>
