<svg width="27" height="18" viewBox="0 0 27 18" fill="none" xmlns="http://www.w3.org/2000/svg">
<g clip-path="url(#clip0_109_43838)">
<path d="M0 0H27V17.9996H0V0Z" fill="white"/>
<path d="M0 6H27V11.9999H0V6Z" fill="#0052B4"/>
<path d="M0 12H27V17.9999H0V12Z" fill="#D80027"/>
<path d="M12.3205 5.8716V6.65402C12.3205 8.45126 9.97267 9.00186 9.97267 9.00186C9.97267 9.00186 7.62483 8.45131 7.62483 6.65402V5.8716L7.61719 3.54137L12.3128 3.52734L12.3205 5.8716Z" fill="white"/>
<path d="M12.3205 5.8716V6.65402C12.3205 8.45126 9.97267 9.00186 9.97267 9.00186C9.97267 9.00186 7.62483 8.45131 7.62483 6.65402V5.8716L7.61719 3.54137L12.3128 3.52734L12.3205 5.8716Z" fill="#0052B4"/>
<path d="M12.3207 5.86806V6.65048C12.3207 8.44772 9.97284 8.99832 9.97284 8.99832C9.97284 8.99832 7.625 8.44778 7.625 6.65048V5.86806L8.408 6.65048L9.97284 5.47656L11.5383 6.65048L12.3207 5.86806Z" fill="white"/>
</g>
<rect x="0.5" y="0.5" width="26" height="17" rx="0.5" stroke="black" stroke-opacity="0.2"/>
<defs>
<clipPath id="clip0_109_43838">
<rect width="27" height="18" rx="1" fill="white"/>
</clipPath>
</defs>
</svg>
