<svg width="375" height="176" viewBox="0 0 375 176" fill="none" xmlns="http://www.w3.org/2000/svg">
<ellipse cx="274.752" cy="167.511" rx="93.7483" ry="7.75084" fill="#A0A09F" fill-opacity="0.15"/>
<path fill-rule="evenodd" clip-rule="evenodd" d="M237.844 25.4121L237.844 93.3243H186.172V25.4121H237.844Z" fill="white"/>
<path fill-rule="evenodd" clip-rule="evenodd" d="M261.466 146.473C261.466 159.927 250.559 170.833 237.106 170.833C223.652 170.833 212.746 159.927 212.746 146.473C212.746 133.02 223.652 122.113 237.106 122.113C250.559 122.113 261.466 133.02 261.466 146.473Z" fill="white"/>
<path fill-rule="evenodd" clip-rule="evenodd" d="M348.571 146.473C348.571 159.927 337.665 170.833 324.211 170.833C310.758 170.833 299.852 159.927 299.852 146.473C299.852 133.02 310.758 122.113 324.211 122.113C337.665 122.113 348.571 133.02 348.571 146.473Z" fill="white"/>
<path fill-rule="evenodd" clip-rule="evenodd" d="M265.184 12.1323C264.747 5.87787 269.451 0.314453 275.703 0.314453H288.616L287.407 17.5909C287.365 23.7412 282.603 28.9186 276.486 28.9186C270.37 28.9186 265.609 23.7411 265.567 17.591L265.184 12.1323Z" fill="white"/>
<path fill-rule="evenodd" clip-rule="evenodd" d="M262.582 118.252C262.321 122.975 263.487 125.598 265.087 127.401C266.643 129.155 268.717 130.3 271.228 131.686C271.501 131.837 271.779 131.991 272.063 132.149C276.224 122.872 278.077 116.079 278.029 111.121C277.998 107.965 277.197 105.67 275.822 103.923C274.663 102.452 272.986 101.227 270.687 100.235C269.178 102.304 267.428 105.051 265.935 107.984C264.079 111.627 262.744 115.316 262.582 118.252ZM265.865 144.702H205.158L205.145 142.5C205.042 124.747 213.255 111.829 224.812 103.388H184.83L184.284 103.039C182.372 101.817 180.959 100.385 180.046 98.6359C179.138 96.8969 178.814 95.0167 178.802 93.0449L178.789 90.8174H235.722C234.597 61.6079 243.444 39.8593 258.034 29.6019C262.434 26.5083 267.289 26.1045 271.898 28.164C276.373 30.1636 280.429 34.3898 283.776 40.1927C292.555 55.4109 306.278 61.3126 314.466 61.2026L316.846 61.1706L316.599 65.3639C318.818 64.881 321.256 64.6087 323.808 64.5943L326.022 64.5818L326.135 84.3129L323.921 84.3254C322.491 84.3335 321.097 84.2606 319.757 84.1152C322.957 91.0724 326.492 100.517 327.461 109.922C340.398 111.967 347.726 119.824 351.768 127.225C353.869 131.072 355.093 134.808 355.794 137.576C356.146 138.964 356.368 140.117 356.503 140.933C356.571 141.34 356.617 141.665 356.647 141.892C356.661 142.005 356.672 142.095 356.679 142.159C356.683 142.191 356.686 142.216 356.688 142.235L356.69 142.258L356.691 142.266L356.691 142.269L356.756 142.917L356.692 142.271L356.933 144.704H275.181L275.182 144.703H265.864L265.865 144.702ZM287.935 130.586C295.67 125.734 301.382 119.129 304.758 111.161C308.498 102.333 309.426 91.6947 306.879 79.7009C306.041 79.7056 305.156 79.7106 304.318 79.7154C302.667 79.7247 301.198 79.7331 300.636 79.7364C298.672 79.7476 297.349 78.2727 296.685 77.2185C295.946 76.0462 295.45 74.5378 295.441 73.1074L295.428 70.8927L305.247 70.8358C297.927 70.5091 292.168 69.2745 287.465 67.221C282.192 64.9188 278.38 61.6451 275.23 57.7241C272.118 62.3691 269.572 66.431 267.004 71.8978C276.878 74.7718 284.405 78.1346 289.728 82.1789C295.562 86.6117 298.786 91.9013 299.466 98.17C300.134 104.324 298.314 111.121 294.735 118.583C292.926 122.355 290.641 126.351 287.935 130.586Z" fill="white"/>
<path d="M235.63 36.1582H188.387V79.6919H235.63V36.1582Z" fill="#C2945C"/>
<path d="M235.63 79.6914H188.387V91.1098H235.63V79.6914Z" fill="#D90007"/>
<path d="M235.63 42.5501C235.616 42.5501 235.541 42.5488 235.527 42.5488C230.583 42.5488 226.171 49.033 223.287 59.1743C220.403 49.033 215.99 42.5488 211.046 42.5488C202.355 42.5488 195.309 64.4938 195.309 91.1106H202.304C202.304 66.3956 206.219 45.991 211.046 45.991C215.874 45.991 219.79 64.487 219.79 87.3003H226.782C226.782 64.487 230.698 45.991 235.527 45.991C235.541 45.991 235.616 45.9935 235.63 45.9935V42.5501Z" fill="#FFBC0D"/>
<path d="M235.63 27.627H188.387V36.1579H235.63V27.627Z" fill="#C2945C"/>
<path opacity="0.5" d="M235.63 27.627H188.387V36.1579H235.63V27.627Z" fill="#E5AF71"/>
<path d="M217.739 39.8851H206.278C205.719 39.8851 205.266 39.4387 205.266 38.8886V27.627H218.752V38.8886C218.752 39.4387 218.298 39.8851 217.739 39.8851Z" fill="#FFBC0D"/>
<path fill-rule="evenodd" clip-rule="evenodd" d="M237.106 168.619C249.337 168.619 259.251 158.704 259.251 146.473C259.251 145.977 259.235 145.485 259.203 144.997H215.009C214.977 145.485 214.961 145.977 214.961 146.473C214.961 158.704 224.876 168.619 237.106 168.619ZM215.267 142.782C217.024 132.309 226.133 124.328 237.106 124.328C248.079 124.328 257.188 132.309 258.945 142.782H215.267Z" fill="#292929"/>
<path fill-rule="evenodd" clip-rule="evenodd" d="M237.108 157.546C243.223 157.546 248.18 152.588 248.18 146.473C248.18 145.972 248.147 145.48 248.083 144.997H226.133C226.068 145.48 226.035 145.972 226.035 146.473C226.035 152.588 230.993 157.546 237.108 157.546ZM226.665 142.782C228.185 138.481 232.287 135.4 237.108 135.4C241.929 135.4 246.03 138.481 247.55 142.782H226.665Z" fill="white"/>
<circle cx="324.208" cy="146.473" r="22.1453" fill="#292929"/>
<circle cx="324.209" cy="146.473" r="11.0726" fill="white"/>
<path fill-rule="evenodd" clip-rule="evenodd" d="M275.555 2.5293C270.711 2.5293 266.888 6.87683 267.245 11.978L267.633 17.5099C267.633 22.5882 271.53 26.7044 276.338 26.7044C281.147 26.7044 285.044 22.5882 285.044 17.5099L286.093 2.5293H275.555ZM324.21 122.114C312.011 122.114 301.907 131.08 300.128 142.783H279.55C281.624 139.968 283.296 137.652 285.087 135.032C305.34 124.667 314.844 103.914 308.636 77.7691L304.321 77.7937L301.992 77.8069L300.61 77.8149C299.05 77.8238 297.654 75.3253 297.643 73.3873L307.73 73.3288C308.473 71.5789 310.494 70.0374 313.321 68.9254C290.923 69.7502 281.83 63.8357 275.127 54.1926C270.723 60.6891 267.399 65.6746 263.909 73.6237C307.896 85.6 304.479 105.47 276.982 142.781H269.491C283.639 115.434 283.303 103.504 271.459 98.4551L274.676 92.1854C274.928 91.6942 274.571 91.1103 274.019 91.1103H237.925C236.794 62.2498 245.553 41.3672 259.295 31.7064C266.828 26.4096 275.409 30.4343 281.846 41.5923C290.976 57.4205 305.4 63.8319 314.483 63.7099L314.194 68.614C316.896 67.6863 320.21 67.1221 323.808 67.1017L323.896 82.4039C320.983 82.4204 318.251 82.0798 315.874 81.4762C319.57 88.8089 324.628 100.719 325.393 112.172C351.733 115.11 354.475 142.783 354.475 142.783H348.292C346.513 131.08 336.409 122.114 324.21 122.114ZM238.031 93.3248C238.031 93.3248 238.031 93.3248 238.031 93.3249H181.004C181.024 96.8032 182.143 99.3428 185.464 101.466H232.459C218.131 109.221 207.231 122.771 207.347 142.78H213.677L223.434 142.783L248.343 142.78H258.099H266.936L271.061 134.426C270.755 134.255 270.448 134.086 270.141 133.917L270.133 133.913C264.904 131.034 259.817 128.234 260.358 118.423C260.629 113.51 263.645 107.305 266.637 102.548L266.632 102.552L271.113 94.4191C271.384 93.9272 271.028 93.3248 270.466 93.3248H238.031Z" fill="#D90007"/>
</svg>
