<svg width="27" height="18" viewBox="0 0 27 18" fill="none" xmlns="http://www.w3.org/2000/svg">
<g clip-path="url(#clip0_109_43768)">
<path d="M0 0H27V18H0V0Z" fill="#D80027"/>
<path d="M14.4329 6.30436C14.1645 7.41489 13.6908 7.20436 13.4593 8.17278C12.0856 7.8412 11.2435 6.46225 11.5698 5.08857C11.9014 3.71489 13.2803 2.87278 14.6487 3.1991C14.1908 5.1412 14.675 5.30962 14.4329 6.30436ZM10.875 7.12541C11.8487 7.72015 11.5014 8.10962 12.3487 8.63067C11.6119 9.83594 10.0382 10.2096 8.83294 9.47278C7.62768 8.73594 7.25399 7.16225 7.99084 5.95699C9.69084 6.9991 10.0014 6.59383 10.875 7.12541ZM10.5593 10.7675C11.4277 10.0254 11.6856 10.478 12.4435 9.83067C13.3593 10.9044 13.2329 12.5149 12.1593 13.4307C11.0856 14.3465 9.47505 14.2201 8.55926 13.1465C10.0698 11.8517 9.78031 11.4307 10.5593 10.7675ZM13.9224 12.1938C13.4856 11.1359 13.9961 11.0307 13.6119 10.1096C14.9172 9.56752 16.4119 10.1886 16.9487 11.4938C17.4908 12.7991 16.8698 14.2938 15.5645 14.8307C14.8014 12.9886 14.3119 13.1359 13.9224 12.1938ZM16.3172 9.43594C15.1803 9.52541 15.2329 9.00962 14.2382 9.08857C14.1277 7.68331 15.1803 6.45173 16.5856 6.3412C17.9908 6.23068 19.2224 7.28331 19.3329 8.68857C17.3487 8.8412 17.3382 9.35699 16.3172 9.43594Z" fill="white"/>
</g>
<rect x="0.5" y="0.5" width="26" height="17" rx="0.5" stroke="black" stroke-opacity="0.2"/>
<defs>
<clipPath id="clip0_109_43768">
<rect width="27" height="18" rx="1" fill="white"/>
</clipPath>
</defs>
</svg>
