<svg width="375" height="225" viewBox="0 0 375 225" fill="none" xmlns="http://www.w3.org/2000/svg">
<ellipse cx="123" cy="179" rx="54.5" ry="5.5" fill="#A0A09F" fill-opacity="0.15"/>
<ellipse cx="135.5" cy="179.5" rx="15" ry="2" fill="#A0A09F" fill-opacity="0.15"/>
<ellipse cx="266.5" cy="146.5" rx="40" ry="6" fill="#A0A09F" fill-opacity="0.15"/>
<mask id="path-4-outside-1_4362_42150" maskUnits="userSpaceOnUse" x="226.961" y="47.5" width="82" height="103" fill="black">
<rect fill="white" x="226.961" y="47.5" width="82" height="103"/>
<path d="M259.3 50.5244C259.93 56.2852 260.371 61.9906 260.629 67.666C261.082 62.8564 261.599 58.0444 262.188 53.2256C264.809 53.5744 268.502 56.0864 268.388 57.0801C266.461 73.6339 267.022 77.6055 267.022 77.6055C268.412 72.4617 268.438 69.4752 269.445 64.4473C270.332 63.7381 272.778 62.765 275.039 62.8154C274.983 61.8973 274.865 60.3122 274.799 59.3896C275.363 57.3637 278.415 55.8479 281.7 55.5859C282.284 62.624 282.413 66.5436 282.67 73.3193C282.926 69.5837 283.294 67.2027 283.979 62.9082C285.02 61.0366 288.396 60.6095 290.988 61.1328C289.725 68.6551 289.296 72.6869 288.999 79.9561C290.506 74.1086 291.132 71.9984 291.762 66.251C294.057 66.4692 296.416 67.1173 297.555 68.3828C298 66.7606 298.255 65.9165 298.67 64.2822C298.912 63.3267 302.573 62.6495 305.349 63.4238C304.272 70.4237 303.194 75.2697 301.04 82.2695L301.041 82.2705L300.467 84.4238H303.195C303.195 84.4238 301.312 99.2843 298.312 114.31C295.319 129.293 291.28 144.113 291.258 144.195L286.917 147.427C286.852 147.403 278.195 144.195 267.384 144.195C256.563 144.195 248.44 147.408 248.394 147.427L244.053 144.195C244.029 144.107 239.958 129.126 236.999 114.31C234.031 99.4492 232.115 84.4238 232.115 84.4238H235.247L234.269 82.2705L233.991 81.6074C232.597 78.3353 231.116 75.6535 229.966 72.1436C229.822 71.7011 233.057 66.8144 235.601 66.0908C236.829 70.0618 238.182 73.9193 239.637 77.6963C239.017 71.9491 237.436 66.1045 236.019 60.2725C238.575 59.5932 243.176 60.977 243.279 61.4307C244.958 68.8832 245.896 71.2226 247.205 78.5869C246.903 72.5007 246.722 70.4659 245.796 65.8154C245.603 64.8482 249.341 62.0597 251.959 61.8643C252.889 66.0213 253.312 68.5674 254.329 75.4678C254.267 67.8643 254.247 66.0642 253.129 54.7051C253.033 53.7236 257.305 50.1738 259.3 50.5244Z"/>
</mask>
<path d="M259.3 50.5244C259.93 56.2852 260.371 61.9906 260.629 67.666C261.082 62.8564 261.599 58.0444 262.188 53.2256C264.809 53.5744 268.502 56.0864 268.388 57.0801C266.461 73.6339 267.022 77.6055 267.022 77.6055C268.412 72.4617 268.438 69.4752 269.445 64.4473C270.332 63.7381 272.778 62.765 275.039 62.8154C274.983 61.8973 274.865 60.3122 274.799 59.3896C275.363 57.3637 278.415 55.8479 281.7 55.5859C282.284 62.624 282.413 66.5436 282.67 73.3193C282.926 69.5837 283.294 67.2027 283.979 62.9082C285.02 61.0366 288.396 60.6095 290.988 61.1328C289.725 68.6551 289.296 72.6869 288.999 79.9561C290.506 74.1086 291.132 71.9984 291.762 66.251C294.057 66.4692 296.416 67.1173 297.555 68.3828C298 66.7606 298.255 65.9165 298.67 64.2822C298.912 63.3267 302.573 62.6495 305.349 63.4238C304.272 70.4237 303.194 75.2697 301.04 82.2695L301.041 82.2705L300.467 84.4238H303.195C303.195 84.4238 301.312 99.2843 298.312 114.31C295.319 129.293 291.28 144.113 291.258 144.195L286.917 147.427C286.852 147.403 278.195 144.195 267.384 144.195C256.563 144.195 248.44 147.408 248.394 147.427L244.053 144.195C244.029 144.107 239.958 129.126 236.999 114.31C234.031 99.4492 232.115 84.4238 232.115 84.4238H235.247L234.269 82.2705L233.991 81.6074C232.597 78.3353 231.116 75.6535 229.966 72.1436C229.822 71.7011 233.057 66.8144 235.601 66.0908C236.829 70.0618 238.182 73.9193 239.637 77.6963C239.017 71.9491 237.436 66.1045 236.019 60.2725C238.575 59.5932 243.176 60.977 243.279 61.4307C244.958 68.8832 245.896 71.2226 247.205 78.5869C246.903 72.5007 246.722 70.4659 245.796 65.8154C245.603 64.8482 249.341 62.0597 251.959 61.8643C252.889 66.0213 253.312 68.5674 254.329 75.4678C254.267 67.8643 254.247 66.0642 253.129 54.7051C253.033 53.7236 257.305 50.1738 259.3 50.5244Z" fill="white"/>
<path d="M259.3 50.5244L261.976 50.2315C261.846 49.0412 260.945 48.08 259.766 47.8727L259.3 50.5244ZM260.629 67.666L257.939 67.7885C258.004 69.2012 259.15 70.3234 260.564 70.3576C261.977 70.3919 263.177 69.3265 263.309 67.9186L260.629 67.666ZM262.188 53.2256L262.543 50.5567C261.83 50.4619 261.109 50.6561 260.54 51.0961C259.971 51.5361 259.602 52.1853 259.515 52.8991L262.188 53.2256ZM268.388 57.0801L271.062 57.3914L271.062 57.3881L268.388 57.0801ZM267.022 77.6055L264.357 77.9824C264.536 79.2484 265.58 80.2139 266.856 80.2928C268.133 80.3716 269.288 79.542 269.622 78.3077L267.022 77.6055ZM269.445 64.4473L267.764 62.3443C267.269 62.74 266.93 63.2974 266.805 63.9186L269.445 64.4473ZM275.039 62.8154L274.979 65.5072C275.732 65.524 276.457 65.2248 276.979 64.6823C277.501 64.1398 277.772 63.4035 277.727 62.6519L275.039 62.8154ZM274.799 59.3896L272.205 58.6677C272.122 58.9654 272.091 59.2751 272.113 59.5833L274.799 59.3896ZM281.7 55.5859L284.383 55.3632C284.261 53.8847 282.965 52.7841 281.486 52.902L281.7 55.5859ZM282.67 73.3193L279.979 73.4214C280.034 74.8517 281.198 75.9895 282.629 76.0114C284.06 76.0334 285.258 74.9317 285.356 73.5037L282.67 73.3193ZM283.979 62.9082L281.626 61.599C281.473 61.8739 281.369 62.1735 281.32 62.4842L283.979 62.9082ZM290.988 61.1328L293.644 61.5787C293.884 60.1462 292.945 58.7811 291.521 58.4936L290.988 61.1328ZM288.999 79.9561L286.309 79.8462C286.253 81.2221 287.244 82.4186 288.606 82.6196C289.968 82.8206 291.263 81.9613 291.606 80.6278L288.999 79.9561ZM291.762 66.251L292.017 63.5707C290.551 63.4313 289.246 64.4945 289.085 65.9576L291.762 66.251ZM297.555 68.3828L295.553 70.184C296.212 70.9157 297.217 71.2296 298.175 71.0027C299.133 70.7758 299.891 70.0442 300.151 69.0948L297.555 68.3828ZM298.67 64.2822L301.28 64.9445L301.28 64.9442L298.67 64.2822ZM305.349 63.4238L308.01 63.8332C308.217 62.4861 307.385 61.1966 306.072 60.8304L305.349 63.4238ZM301.04 82.2695L298.467 81.4777C298.173 82.4309 298.431 83.4682 299.136 84.1734L301.04 82.2695ZM301.041 82.2705L303.643 82.9642C303.89 82.0359 303.624 81.046 302.945 80.3667L301.041 82.2705ZM300.467 84.4238L297.865 83.7301C297.65 84.5383 297.822 85.4008 298.332 86.0641C298.841 86.7275 299.63 87.1162 300.467 87.1162V84.4238ZM303.195 84.4238L305.866 84.7623C305.964 83.9954 305.726 83.2237 305.215 82.6437C304.704 82.0637 303.968 81.7314 303.195 81.7314V84.4238ZM298.312 114.31L300.952 114.837H300.952L298.312 114.31ZM291.258 144.195L292.866 146.355C293.349 145.995 293.697 145.484 293.855 144.904L291.258 144.195ZM286.917 147.427L285.98 149.951C286.835 150.268 287.793 150.131 288.525 149.586L286.917 147.427ZM267.384 144.195V141.503H267.384L267.384 144.195ZM248.394 147.427L246.786 149.586C247.534 150.144 248.518 150.274 249.385 149.93L248.394 147.427ZM244.053 144.195L241.455 144.902C241.613 145.483 241.961 145.995 242.445 146.355L244.053 144.195ZM236.999 114.31L234.359 114.837H234.359L236.999 114.31ZM232.115 84.4238V81.7314C231.342 81.7314 230.606 82.064 230.095 82.6445C229.583 83.2249 229.347 83.9972 229.444 84.7644L232.115 84.4238ZM235.247 84.4238V87.1162C236.162 87.1162 237.015 86.6512 237.511 85.8816C238.006 85.112 238.077 84.1433 237.698 83.3099L235.247 84.4238ZM234.269 82.2705L231.785 83.3094C231.795 83.3346 231.806 83.3596 231.817 83.3844L234.269 82.2705ZM233.991 81.6074L236.475 80.5685C236.473 80.563 236.471 80.5576 236.468 80.5521L233.991 81.6074ZM229.966 72.1436L227.406 72.9782L227.407 72.9823L229.966 72.1436ZM235.601 66.0908L238.173 65.2952C237.74 63.8975 236.271 63.1009 234.864 63.5011L235.601 66.0908ZM239.637 77.6963L237.124 78.664C237.61 79.9256 238.956 80.6312 240.27 80.3131C241.584 79.995 242.459 78.7518 242.314 77.4076L239.637 77.6963ZM236.019 60.2725L235.327 57.6704C233.912 58.0465 233.056 59.4851 233.402 60.9083L236.019 60.2725ZM243.279 61.4307L245.906 60.8389L245.905 60.8335L243.279 61.4307ZM247.205 78.5869L244.554 79.0583C244.803 80.4572 246.096 81.4221 247.508 81.2622C248.92 81.1024 249.965 79.8728 249.894 78.4536L247.205 78.5869ZM245.796 65.8154L243.155 66.3409L243.155 66.3413L245.796 65.8154ZM251.959 61.8643L254.586 61.2764C254.295 59.9725 253.091 59.0798 251.759 59.1793L251.959 61.8643ZM254.329 75.4678L251.665 75.8605C251.872 77.2602 253.126 78.2614 254.537 78.1522C255.948 78.0429 257.033 76.8605 257.021 75.4458L254.329 75.4678ZM253.129 54.7051L250.449 54.9672L250.449 54.9687L253.129 54.7051ZM259.3 50.5244L256.623 50.8173C257.248 56.5215 257.683 62.1702 257.939 67.7885L260.629 67.666L263.319 67.5436C263.058 61.8111 262.613 56.0488 261.976 50.2315L259.3 50.5244ZM260.629 67.666L263.309 67.9186C263.76 63.1323 264.275 58.345 264.86 53.5521L262.188 53.2256L259.515 52.8991C258.923 57.7438 258.404 62.5805 257.948 67.4135L260.629 67.666ZM262.188 53.2256L261.832 55.8945C262.6 55.9965 263.795 56.492 264.857 57.1751C265.367 57.5032 265.723 57.797 265.908 57.987C266.004 58.0859 265.987 58.0882 265.931 57.9917C265.906 57.9487 265.631 57.4865 265.713 56.772L268.388 57.0801L271.062 57.3881C271.173 56.4252 270.807 55.6672 270.592 55.2953C270.346 54.8698 270.039 54.5102 269.764 54.2284C269.207 53.657 268.498 53.1146 267.771 52.6469C266.359 51.7384 264.397 50.8034 262.543 50.5567L262.188 53.2256ZM268.388 57.0801L265.713 56.7688C264.744 65.0954 264.395 70.3045 264.292 73.4622C264.24 75.0423 264.249 76.1187 264.274 76.8224C264.287 77.1748 264.303 77.4364 264.319 77.6232C264.326 77.7167 264.334 77.7921 264.34 77.8511C264.344 77.8806 264.347 77.9062 264.349 77.9279C264.351 77.9388 264.352 77.9488 264.353 77.9579C264.354 77.9624 264.354 77.9667 264.355 77.9708C264.355 77.9728 264.356 77.9748 264.356 77.9768C264.356 77.9777 264.356 77.9792 264.356 77.9796C264.356 77.981 264.357 77.9824 267.022 77.6055C269.688 77.2285 269.689 77.2299 269.689 77.2312C269.689 77.2316 269.689 77.233 269.689 77.2338C269.689 77.2355 269.69 77.2371 269.69 77.2387C269.69 77.2418 269.691 77.2446 269.691 77.2472C269.692 77.2523 269.692 77.2563 269.692 77.2592C269.693 77.2649 269.693 77.2662 269.693 77.2626C269.692 77.2553 269.689 77.2292 269.685 77.1818C269.678 77.0867 269.665 76.9087 269.656 76.6301C269.636 76.0719 269.625 75.1208 269.673 73.6387C269.771 70.6722 270.104 65.6186 271.062 57.3914L268.388 57.0801ZM267.022 77.6055L269.622 78.3077C270.353 75.5996 270.725 73.4571 271.039 71.3867C271.355 69.3091 271.598 67.4079 272.085 64.9759L269.445 64.4473L266.805 63.9186C266.285 66.5145 266.013 68.6205 265.715 70.5791C265.417 72.5449 265.081 74.4675 264.423 76.9033L267.022 77.6055ZM269.445 64.4473L271.127 66.5502C271.125 66.5517 271.159 66.5251 271.24 66.4758C271.319 66.4284 271.424 66.3702 271.557 66.3053C271.825 66.1746 272.166 66.0344 272.557 65.9078C273.358 65.6483 274.227 65.4904 274.979 65.5072L275.039 62.8154L275.099 60.1237C273.59 60.09 272.106 60.3935 270.897 60.7852C269.735 61.1617 268.562 61.7066 267.764 62.3443L269.445 64.4473ZM275.039 62.8154L277.727 62.6519C277.669 61.7138 277.55 60.103 277.484 59.196L274.799 59.3896L272.113 59.5833C272.181 60.5214 272.297 62.0807 272.352 62.9789L275.039 62.8154ZM274.799 59.3896L277.393 60.1116C277.391 60.118 277.549 59.708 278.498 59.2008C279.372 58.7336 280.588 58.3755 281.914 58.2698L281.7 55.5859L281.486 52.902C279.527 53.0583 277.574 53.5891 275.96 54.4517C274.421 55.2744 272.771 56.6353 272.205 58.6677L274.799 59.3896ZM281.7 55.5859L279.017 55.8087C279.596 62.7794 279.722 66.6437 279.979 73.4214L282.67 73.3193L285.36 73.2173C285.104 66.4435 284.973 62.4687 284.383 55.3632L281.7 55.5859ZM282.67 73.3193L285.356 73.5037C285.604 69.8975 285.954 67.6186 286.637 63.3322L283.979 62.9082L281.32 62.4842C280.634 66.7867 280.249 69.2698 279.984 73.1349L282.67 73.3193ZM283.979 62.9082L286.331 64.2174C286.294 64.2835 286.468 63.9666 287.46 63.7562C288.36 63.5654 289.479 63.5748 290.456 63.772L290.988 61.1328L291.521 58.4936C289.905 58.1675 288.04 58.1288 286.343 58.4886C284.739 58.8288 282.704 59.6613 281.626 61.599L283.979 62.9082ZM290.988 61.1328L288.333 60.6869C287.052 68.3138 286.61 72.4579 286.309 79.8462L288.999 79.9561L291.689 80.0659C291.981 72.9158 292.398 68.9964 293.644 61.5787L290.988 61.1328ZM288.999 79.9561L291.606 80.6278C293.112 74.7845 293.785 72.505 294.438 66.5443L291.762 66.251L289.085 65.9576C288.479 71.4917 287.899 73.4327 286.392 79.2843L288.999 79.9561ZM291.762 66.251L291.507 68.9313C292.508 69.0265 293.454 69.2105 294.223 69.4725C295.03 69.748 295.418 70.0337 295.553 70.184L297.555 68.3828L299.556 66.5816C298.552 65.4665 297.191 64.7954 295.961 64.3759C294.691 63.9429 293.311 63.6937 292.017 63.5707L291.762 66.251ZM297.555 68.3828L300.151 69.0948C300.581 67.5266 300.857 66.6106 301.28 64.9445L298.67 64.2822L296.06 63.62C295.654 65.2224 295.418 65.9945 294.958 67.6708L297.555 68.3828ZM298.67 64.2822L301.28 64.9442C301.121 65.568 300.762 65.9021 300.648 65.9982C300.517 66.1078 300.446 66.1286 300.513 66.099C300.643 66.0418 300.957 65.9415 301.455 65.8675C302.453 65.7192 303.672 65.7513 304.625 66.0172L305.349 63.4238L306.072 60.8304C304.25 60.3221 302.25 60.3056 300.664 60.5411C299.869 60.6591 299.049 60.8589 298.338 61.1732C297.984 61.3294 297.565 61.5537 297.178 61.8803C296.806 62.1933 296.279 62.7576 296.06 63.6203L298.67 64.2822ZM305.349 63.4238L302.688 63.0144C301.629 69.8922 300.58 74.6099 298.467 81.4777L301.04 82.2695L303.613 83.0613C305.808 75.9295 306.914 70.9553 308.01 63.8332L305.349 63.4238ZM301.04 82.2695L299.136 84.1734L299.137 84.1743L301.041 82.2705L302.945 80.3667L302.944 80.3657L301.04 82.2695ZM301.041 82.2705L298.44 81.5768L297.865 83.7301L300.467 84.4238L303.068 85.1176L303.643 82.9642L301.041 82.2705ZM300.467 84.4238V87.1162H303.195V84.4238V81.7314H300.467V84.4238ZM303.195 84.4238C300.524 84.0854 300.524 84.0853 300.524 84.0853C300.524 84.0854 300.524 84.0855 300.524 84.0857C300.524 84.086 300.524 84.0865 300.524 84.0873C300.524 84.0889 300.523 84.0913 300.523 84.0947C300.522 84.1013 300.521 84.1116 300.519 84.1254C300.516 84.1529 300.51 84.1945 300.503 84.2497C300.489 84.36 300.468 84.5248 300.439 84.7403C300.382 85.1714 300.298 85.8057 300.187 86.6145C299.965 88.2321 299.637 90.5469 299.217 93.3296C298.374 98.8988 297.16 106.325 295.671 113.782L298.312 114.31L300.952 114.837C302.463 107.268 303.691 99.7522 304.541 94.1348C304.966 91.3243 305.297 88.9849 305.522 87.3466C305.634 86.5274 305.72 85.8834 305.778 85.4431C305.807 85.223 305.829 85.0538 305.844 84.9391C305.851 84.8818 305.857 84.8381 305.86 84.8085C305.862 84.7937 305.864 84.7824 305.865 84.7747C305.865 84.7708 305.866 84.7678 305.866 84.7658C305.866 84.7647 305.866 84.7639 305.866 84.7634C305.866 84.7631 305.866 84.7628 305.866 84.7627C305.866 84.7625 305.866 84.7623 303.195 84.4238ZM298.312 114.31L295.671 113.782C292.698 128.671 288.679 143.418 288.66 143.487L291.258 144.195L293.855 144.904C293.881 144.808 297.941 129.915 300.952 114.837L298.312 114.31ZM291.258 144.195L289.65 142.036L285.309 145.267L286.917 147.427L288.525 149.586L292.866 146.355L291.258 144.195ZM286.917 147.427L287.854 144.903C287.67 144.834 278.663 141.503 267.384 141.503V144.195V146.888C277.726 146.888 286.034 149.971 285.98 149.951L286.917 147.427ZM267.384 144.195L267.384 141.503C256.079 141.503 247.594 144.847 247.402 144.924L248.394 147.427L249.385 149.93C249.286 149.969 257.047 146.888 267.384 146.888L267.384 144.195ZM248.394 147.427L250.001 145.267L245.66 142.036L244.053 144.195L242.445 146.355L246.786 149.586L248.394 147.427ZM244.053 144.195L246.651 143.489C246.63 143.412 242.579 128.504 239.639 113.782L236.999 114.31L234.359 114.837C237.337 129.748 241.427 144.802 241.455 144.902L244.053 144.195ZM236.999 114.31L239.639 113.782C238.167 106.408 236.953 98.9816 236.106 93.391C235.683 90.5977 235.353 88.2672 235.128 86.6364C235.016 85.821 234.93 85.1808 234.873 84.7454C234.844 84.5277 234.822 84.3612 234.807 84.2496C234.8 84.1938 234.795 84.1517 234.791 84.1238C234.789 84.1099 234.788 84.0995 234.787 84.0927C234.787 84.0893 234.786 84.0868 234.786 84.0853C234.786 84.0845 234.786 84.0839 234.786 84.0836C234.786 84.0834 234.786 84.0833 234.786 84.0832C234.786 84.0832 234.786 84.0833 232.115 84.4238C229.444 84.7644 229.444 84.7646 229.444 84.7648C229.445 84.7649 229.445 84.7652 229.445 84.7655C229.445 84.766 229.445 84.7668 229.445 84.7679C229.445 84.77 229.446 84.7729 229.446 84.7768C229.447 84.7846 229.448 84.796 229.45 84.8109C229.454 84.8408 229.46 84.8849 229.467 84.9428C229.482 85.0586 229.505 85.2294 229.534 85.4516C229.593 85.8959 229.68 86.5456 229.794 87.3711C230.021 89.0219 230.355 91.3765 230.782 94.1971C231.636 99.8343 232.864 107.351 234.359 114.837L236.999 114.31ZM232.115 84.4238V87.1162H235.247V84.4238V81.7314H232.115V84.4238ZM235.247 84.4238L237.698 83.3099L236.72 81.1566L234.269 82.2705L231.817 83.3844L232.796 85.5377L235.247 84.4238ZM234.269 82.2705L236.752 81.2316L236.475 80.5685L233.991 81.6074L231.507 82.6463L231.785 83.3094L234.269 82.2705ZM233.991 81.6074L236.468 80.5521C234.941 76.9668 233.634 74.6889 232.524 71.3048L229.966 72.1436L227.407 72.9823C228.599 76.6181 230.254 79.7038 231.514 82.6627L233.991 81.6074ZM229.966 72.1436L232.526 71.3089C232.679 71.7803 232.658 72.1697 232.644 72.3266C232.627 72.5135 232.593 72.652 232.575 72.7171C232.54 72.8468 232.507 72.9137 232.518 72.8887C232.535 72.8515 232.598 72.7261 232.729 72.5101C232.983 72.0918 233.382 71.5161 233.866 70.9183C234.353 70.3178 234.881 69.7526 235.383 69.3206C235.925 68.8539 236.252 68.7047 236.337 68.6805L235.601 66.0908L234.864 63.5011C233.677 63.8388 232.646 64.5717 231.871 65.2387C231.055 65.9403 230.306 66.76 229.684 67.5269C229.06 68.2966 228.518 69.0708 228.126 69.7157C227.935 70.0313 227.748 70.366 227.606 70.6835C227.537 70.8359 227.447 71.0539 227.379 71.3041C227.345 71.4295 227.301 71.6206 227.28 71.8521C227.262 72.0534 227.243 72.4792 227.406 72.9782L229.966 72.1436ZM235.601 66.0908L233.028 66.8865C234.276 70.9206 235.65 74.8356 237.124 78.664L239.637 77.6963L242.149 76.7286C240.714 73.003 239.382 69.203 238.173 65.2952L235.601 66.0908ZM239.637 77.6963L242.314 77.4076C241.67 71.4358 240.026 65.3603 238.635 59.6367L236.019 60.2725L233.402 60.9083C234.846 66.8488 236.364 72.4624 236.96 77.985L239.637 77.6963ZM236.019 60.2725L236.71 62.8746C236.974 62.8044 237.432 62.7582 238.077 62.7918C238.697 62.8242 239.371 62.9236 240.005 63.0594C240.642 63.196 241.175 63.3556 241.512 63.4825C241.691 63.55 241.744 63.5817 241.713 63.5638C241.703 63.5582 241.588 63.4944 241.439 63.3643C241.378 63.3112 240.845 62.867 240.654 62.0278L243.279 61.4307L245.905 60.8335C245.701 59.9377 245.12 59.4294 244.979 59.3065C244.75 59.1067 244.523 58.9673 244.372 58.8818C244.06 58.704 243.716 58.5585 243.409 58.443C242.775 58.2041 241.978 57.9752 241.133 57.7941C239.554 57.4558 237.244 57.1609 235.327 57.6704L236.019 60.2725ZM243.279 61.4307L240.653 62.0224C242.395 69.755 243.252 71.7342 244.554 79.0583L247.205 78.5869L249.856 78.1156C248.539 70.7111 247.522 68.0115 245.906 60.8389L243.279 61.4307ZM247.205 78.5869L249.894 78.4536C249.589 72.2996 249.399 70.12 248.436 65.2895L245.796 65.8154L243.155 66.3413C244.046 70.8119 244.218 72.7019 244.516 78.7202L247.205 78.5869ZM245.796 65.8154L248.437 65.29C248.591 66.0637 248.302 66.5889 248.282 66.6281C248.226 66.7337 248.206 66.7339 248.301 66.6289C248.483 66.4294 248.836 66.118 249.338 65.7761C250.412 65.0453 251.534 64.5959 252.159 64.5492L251.959 61.8643L251.759 59.1793C249.765 59.3281 247.71 60.3706 246.308 61.3248C245.573 61.8252 244.865 62.4045 244.318 63.006C244.049 63.3016 243.748 63.6799 243.515 64.1238C243.316 64.5014 242.953 65.3254 243.155 66.3409L245.796 65.8154ZM251.959 61.8643L249.332 62.4521C250.239 66.5093 250.65 68.9759 251.665 75.8605L254.329 75.4678L256.993 75.075C255.973 68.1588 255.539 65.5333 254.586 61.2764L251.959 61.8643ZM254.329 75.4678L257.021 75.4458C256.959 67.7584 256.934 65.8775 255.808 54.4414L253.129 54.7051L250.449 54.9687C251.559 66.2508 251.575 67.9703 251.637 75.4898L254.329 75.4678ZM253.129 54.7051L255.809 54.443C255.851 54.8813 255.761 55.2055 255.716 55.3409C255.666 55.4909 255.615 55.5777 255.608 55.5905C255.594 55.613 255.634 55.5449 255.775 55.3881C256.047 55.0849 256.492 54.6792 257.032 54.2792C257.573 53.879 258.117 53.5533 258.564 53.3563C258.786 53.2588 258.937 53.2138 259.018 53.1966C259.111 53.177 259.029 53.2106 258.834 53.1762L259.3 50.5244L259.766 47.8727C258.462 47.6435 257.211 48.069 256.397 48.4271C255.485 48.8278 254.593 49.3851 253.828 49.9512C253.063 50.5175 252.333 51.1614 251.769 51.7888C251.492 52.0974 251.198 52.4649 250.962 52.868C250.794 53.1549 250.35 53.9512 250.449 54.9672L253.129 54.7051Z" fill="white" mask="url(#path-4-outside-1_4362_42150)"/>
<path fill-rule="evenodd" clip-rule="evenodd" d="M232.117 84.4238H240.733C240.733 84.4238 247.852 104.886 267.386 104.886C286.919 104.886 294.581 84.4238 294.581 84.4238H303.197C303.197 84.4238 301.314 99.2843 298.314 114.31C295.313 129.335 291.26 144.195 291.26 144.195L286.919 147.426C286.919 147.426 278.238 144.195 267.386 144.195C256.534 144.195 248.395 147.426 248.395 147.426L244.054 144.195C244.054 144.195 239.968 129.17 237.001 114.31C234.033 99.4492 232.117 84.4238 232.117 84.4238Z" fill="#DB0007"/>
<path fill-rule="evenodd" clip-rule="evenodd" d="M272.857 111.348C270.43 111.348 268.266 114.463 266.849 119.335C265.434 114.463 263.268 111.348 260.841 111.348C256.577 111.348 253.117 121.715 253.117 134.502H256.551C256.551 122.628 258.472 113.002 260.841 113.002C263.212 113.002 265.133 121.888 265.133 132.849H268.566C268.566 121.888 270.487 113.002 272.857 113.002C275.226 113.002 277.148 122.628 277.148 134.502H280.58C280.58 121.715 277.122 111.348 272.857 111.348Z" fill="#FFBC0D"/>
<path fill-rule="evenodd" clip-rule="evenodd" d="M242.885 82.2705C242.885 82.2705 249.885 102.733 267.655 102.733C285.425 102.733 292.425 82.2705 292.425 82.2705C292.425 82.2705 297.271 82.2705 301.041 82.2705C303.195 75.2702 304.272 70.4239 305.349 63.4236C302.573 62.6493 298.913 63.3264 298.67 64.2819C298.255 65.9165 298 66.7605 297.555 68.3829C296.416 67.1175 294.057 66.469 291.762 66.2507C291.132 71.9984 290.506 74.1083 288.999 79.9559C289.296 72.6867 289.725 68.655 290.988 61.1326C288.395 60.6092 285.02 61.0365 283.978 62.9083C283.294 67.2028 282.927 69.5839 282.67 73.3196C282.413 66.5437 282.285 62.6241 281.7 55.5857C278.415 55.8476 275.363 57.3638 274.799 59.3898C274.866 60.3124 274.983 61.897 275.039 62.8152C272.777 62.7647 270.332 63.7382 269.445 64.4473C268.439 69.4752 268.412 72.4616 267.023 77.6054C267.023 77.6054 266.461 73.6344 268.388 57.0806C268.503 56.0872 264.81 53.5742 262.188 53.2255C261.599 58.0443 261.082 62.8564 260.629 67.666C260.37 61.9906 259.931 56.2851 259.3 50.5243C257.306 50.1732 253.033 53.7241 253.13 54.7053C254.247 66.0644 254.268 67.8639 254.33 75.4674C253.312 68.5667 252.889 66.0213 251.959 61.864C249.341 62.0595 245.603 64.8484 245.796 65.8156C246.723 70.4662 246.903 72.5009 247.205 78.5871C245.895 71.2228 244.959 68.8835 243.28 61.4309C243.178 60.9774 238.575 59.5931 236.019 60.2726C237.436 66.1047 239.017 71.9489 239.637 77.6961C238.182 73.9191 236.829 70.0621 235.601 66.0911C233.057 66.8148 229.821 71.702 229.966 72.1439C231.193 75.8879 232.796 78.6895 234.269 82.2705H242.885Z" fill="#FFBC0D"/>
<mask id="path-9-outside-2_4362_42150" maskUnits="userSpaceOnUse" x="44.5717" y="19.1235" width="204.56" height="185.405" fill="black">
<rect fill="white" x="44.5717" y="19.1235" width="204.56" height="185.405"/>
<path d="M140.337 174.374C137.677 176.237 134.34 176.854 131.189 176.067L79.515 163.153C77.2399 162.584 75.73 160.428 75.9739 158.095L81.5116 105.12C81.8493 101.89 83.5714 98.9661 86.2312 97.1035L187.725 26.0366C189.449 24.8294 191.826 25.2479 193.033 26.9718L242.767 97.9989C243.974 99.7231 243.555 102.1 241.831 103.307L140.337 174.374ZM106.245 151.722C110.357 148.842 111.358 143.173 108.478 139.06C105.598 134.947 99.9289 133.948 95.8161 136.828C91.7036 139.708 90.704 145.376 93.5836 149.489C96.4633 153.602 102.132 154.601 106.245 151.722Z"/>
</mask>
<path d="M140.337 174.374C137.677 176.237 134.34 176.854 131.189 176.067L79.515 163.153C77.2399 162.584 75.73 160.428 75.9739 158.095L81.5116 105.12C81.8493 101.89 83.5714 98.9661 86.2312 97.1035L187.725 26.0366C189.449 24.8294 191.826 25.2479 193.033 26.9718L242.767 97.9989C243.974 99.7231 243.555 102.1 241.831 103.307L140.337 174.374ZM106.245 151.722C110.357 148.842 111.358 143.173 108.478 139.06C105.598 134.947 99.9289 133.948 95.8161 136.828C91.7036 139.708 90.704 145.376 93.5836 149.489C96.4633 153.602 102.132 154.601 106.245 151.722Z" fill="#D8D8D8"/>
<path d="M140.337 174.374L142.057 176.832L142.058 176.832L140.337 174.374ZM131.189 176.067L130.462 178.977L130.462 178.977L131.189 176.067ZM79.515 163.153L80.2424 160.242L79.515 163.153ZM75.9739 158.095L78.9576 158.407L78.9576 158.407L75.9739 158.095ZM81.5116 105.12L78.5279 104.808L78.5279 104.808L81.5116 105.12ZM86.2312 97.1035L84.5105 94.6461L84.5104 94.6461L86.2312 97.1035ZM193.033 26.9718L195.491 25.2511L195.49 25.2508L193.033 26.9718ZM242.767 97.9989L240.309 99.7196L242.767 97.9989ZM241.831 103.307L240.11 100.85L241.831 103.307ZM106.245 151.722L107.965 154.179L107.965 154.179L106.245 151.722ZM108.478 139.06L110.935 137.339L110.935 137.339L108.478 139.06ZM95.8161 136.828L94.0953 134.371L94.0952 134.371L95.8161 136.828ZM93.5836 149.489L91.1261 151.21L91.1261 151.21L93.5836 149.489ZM140.337 174.374L138.616 171.917C136.668 173.281 134.224 173.733 131.917 173.156L131.189 176.067L130.462 178.977C134.455 179.975 138.685 179.193 142.057 176.832L140.337 174.374ZM131.189 176.067L131.917 173.156L80.2424 160.242L79.515 163.153L78.7877 166.063L130.462 178.977L131.189 176.067ZM79.515 163.153L80.2424 160.242C79.417 160.036 78.8691 159.253 78.9576 158.407L75.9739 158.095L72.9901 157.783C72.5909 161.602 75.0628 165.132 78.7877 166.063L79.515 163.153ZM75.9739 158.095L78.9576 158.407L84.4954 105.431L81.5116 105.12L78.5279 104.808L72.9901 157.783L75.9739 158.095ZM81.5116 105.12L84.4954 105.432C84.7427 103.067 86.0037 100.925 87.952 99.5609L86.2312 97.1035L84.5104 94.6461C81.1391 97.0069 78.956 100.713 78.5279 104.808L81.5116 105.12ZM86.2312 97.1035L87.9519 99.561L189.446 28.4941L187.725 26.0366L186.005 23.5792L84.5105 94.6461L86.2312 97.1035ZM187.725 26.0366L189.446 28.4941C189.814 28.2368 190.319 28.3263 190.576 28.6928L193.033 26.9718L195.49 25.2508C193.332 22.1695 189.085 21.4219 186.005 23.5792L187.725 26.0366ZM193.033 26.9718L190.576 28.6926L240.309 99.7196L242.767 97.9989L245.224 96.2781L195.491 25.2511L193.033 26.9718ZM242.767 97.9989L240.309 99.7196C240.566 100.087 240.477 100.593 240.11 100.85L241.831 103.307L243.552 105.765C246.633 103.607 247.382 99.3596 245.224 96.2781L242.767 97.9989ZM241.831 103.307L240.11 100.85L138.616 171.917L140.337 174.374L142.058 176.832L243.552 105.765L241.831 103.307ZM106.245 151.722L107.965 154.179C113.435 150.349 114.766 142.81 110.935 137.339L108.478 139.06L106.02 140.781C107.95 143.536 107.28 147.334 104.524 149.264L106.245 151.722ZM108.478 139.06L110.935 137.339C107.105 131.869 99.565 130.541 94.0953 134.371L95.8161 136.828L97.5368 139.285C100.293 137.356 104.091 138.025 106.021 140.781L108.478 139.06ZM95.8161 136.828L94.0952 134.371C88.6257 138.201 87.2961 145.74 91.1261 151.21L93.5836 149.489L96.0411 147.768C94.1118 145.013 94.7815 141.215 97.5369 139.285L95.8161 136.828ZM93.5836 149.489L91.1261 151.21C94.9563 156.68 102.495 158.009 107.965 154.179L106.245 151.722L104.524 149.264C101.768 151.193 97.9704 150.524 96.0411 147.768L93.5836 149.489Z" fill="white" mask="url(#path-9-outside-2_4362_42150)"/>
<path opacity="0.1" fill-rule="evenodd" clip-rule="evenodd" d="M111.232 137.131C115.177 142.766 113.807 150.532 108.172 154.477C102.537 158.421 94.7715 157.051 90.8267 151.416C86.8819 145.781 88.252 138.016 93.8869 134.071C99.5218 130.126 107.288 131.496 111.232 137.131ZM93.5818 149.488C96.4613 153.601 102.13 154.601 106.243 151.722C110.357 148.842 111.357 143.173 108.477 139.06C105.598 134.947 99.9289 133.946 95.8156 136.826C91.7023 139.706 90.7022 145.374 93.5818 149.488Z" fill="#292929"/>
<path d="M147.256 111.903C136.964 97.2013 140.539 76.9395 155.241 66.6472C169.943 56.355 190.205 59.9298 200.497 74.6317C210.789 89.3337 207.215 109.595 192.513 119.888C177.811 130.18 157.549 126.605 147.256 111.903Z" fill="white"/>
<path d="M171.7 108.846C172.916 109.06 174.076 108.248 174.29 107.031L176.281 95.7441L189.22 98.0256C189.524 98.0792 189.814 97.8762 189.868 97.5721L190.062 96.4709C190.276 95.2545 189.464 94.0946 188.248 93.8801L176.96 91.8899L179.242 78.9507C179.295 78.6466 179.092 78.3566 178.788 78.303L177.687 78.1088C176.471 77.8943 175.311 78.7065 175.096 79.9229L173.106 91.2103L160.167 88.9287C159.863 88.8751 159.573 89.0782 159.519 89.3823L159.325 90.4835C159.111 91.6998 159.923 92.8597 161.139 93.0742L172.426 95.0645L170.145 108.004C170.091 108.308 170.294 108.598 170.598 108.651L171.7 108.846Z" fill="#6F6F6F"/>
<mask id="path-14-outside-3_4362_42150" maskUnits="userSpaceOnUse" x="44.5717" y="19.1235" width="204.56" height="185.405" fill="black">
<rect fill="white" x="44.5717" y="19.1235" width="204.56" height="185.405"/>
<path d="M140.337 174.374C137.677 176.237 134.34 176.854 131.189 176.067L79.515 163.153C77.2399 162.584 75.73 160.428 75.9739 158.095L81.5116 105.12C81.8493 101.89 83.5714 98.9661 86.2312 97.1035L187.725 26.0366C189.449 24.8294 191.826 25.2479 193.033 26.9718L242.767 97.9989C243.974 99.7231 243.555 102.1 241.831 103.307L140.337 174.374Z"/>
</mask>
<path d="M140.337 174.374L142.057 176.832L142.058 176.832L140.337 174.374ZM131.189 176.067L130.462 178.977L130.462 178.977L131.189 176.067ZM79.515 163.153L80.2424 160.242L79.515 163.153ZM75.9739 158.095L78.9576 158.407L78.9576 158.407L75.9739 158.095ZM81.5116 105.12L78.5279 104.808L78.5279 104.808L81.5116 105.12ZM86.2312 97.1035L84.5105 94.6461L84.5104 94.6461L86.2312 97.1035ZM193.033 26.9718L195.491 25.2511L195.49 25.2508L193.033 26.9718ZM242.767 97.9989L240.309 99.7196L242.767 97.9989ZM241.831 103.307L240.11 100.85L241.831 103.307ZM140.337 174.374L138.616 171.917C136.668 173.281 134.224 173.733 131.917 173.156L131.189 176.067L130.462 178.977C134.455 179.975 138.685 179.193 142.057 176.832L140.337 174.374ZM131.189 176.067L131.917 173.156L80.2424 160.242L79.515 163.153L78.7877 166.063L130.462 178.977L131.189 176.067ZM79.515 163.153L80.2424 160.242C79.417 160.036 78.8691 159.253 78.9576 158.407L75.9739 158.095L72.9901 157.783C72.5909 161.602 75.0628 165.132 78.7877 166.063L79.515 163.153ZM75.9739 158.095L78.9576 158.407L84.4954 105.431L81.5116 105.12L78.5279 104.808L72.9901 157.783L75.9739 158.095ZM81.5116 105.12L84.4954 105.432C84.7427 103.067 86.0037 100.925 87.952 99.5609L86.2312 97.1035L84.5104 94.6461C81.1391 97.0069 78.956 100.713 78.5279 104.808L81.5116 105.12ZM86.2312 97.1035L87.9519 99.561L189.446 28.4941L187.725 26.0366L186.005 23.5792L84.5105 94.6461L86.2312 97.1035ZM187.725 26.0366L189.446 28.4941C189.814 28.2368 190.319 28.3263 190.576 28.6928L193.033 26.9718L195.49 25.2508C193.332 22.1695 189.085 21.4219 186.005 23.5792L187.725 26.0366ZM193.033 26.9718L190.576 28.6926L240.309 99.7196L242.767 97.9989L245.224 96.2781L195.491 25.2511L193.033 26.9718ZM242.767 97.9989L240.309 99.7196C240.566 100.087 240.477 100.593 240.11 100.85L241.831 103.307L243.552 105.765C246.633 103.607 247.382 99.3596 245.224 96.2781L242.767 97.9989ZM241.831 103.307L240.11 100.85L138.616 171.917L140.337 174.374L142.058 176.832L243.552 105.765L241.831 103.307Z" fill="white" mask="url(#path-14-outside-3_4362_42150)"/>
<ellipse cx="232.502" cy="184.579" rx="56.0022" ry="6.4618" fill="#A0A09F" fill-opacity="0.15"/>
<path d="M233.847 110.153C247.676 110.153 259.912 112.831 268.741 117.912C277.604 123.013 283.118 130.607 283.118 140.309C283.118 141.238 282.915 142.3 282.54 143.274C282.392 143.66 282.205 144.052 281.982 144.429L282.013 144.444C282.248 144.431 282.488 144.48 282.707 144.594L284.345 145.444H284.344C284.992 145.78 285.364 146.448 285.364 147.135V149.006C285.364 149.856 284.784 150.653 283.918 150.854C283.921 150.907 283.926 150.961 283.926 151.016C283.926 151.716 283.686 152.37 283.277 152.894C284.025 153.985 284.465 155.312 284.465 156.739V159.177C284.465 160.436 284.122 161.54 283.461 162.437C283.003 163.058 282.421 163.535 281.772 163.894V164.848C281.971 164.926 282.168 165.026 282.353 165.156C283.036 165.639 283.388 166.387 283.388 167.249C283.388 167.679 283.312 168.152 283.051 168.585C282.989 168.687 282.92 168.777 282.849 168.86V172.39C282.849 178.027 278.616 182.766 273.015 183.4C260.402 184.828 247.435 185.541 234.116 185.541C232.303 185.541 230.478 185.526 228.643 185.5C228.322 185.558 228.006 185.551 227.703 185.488C215.93 185.289 203.709 184.549 191.041 183.268C185.451 182.702 181.18 178.046 181.077 172.45V172.438L181.076 172.255L181.075 172.243V168.041C181.075 167.684 181.217 167.341 181.47 167.089C181.722 166.836 182.065 166.694 182.422 166.694H184.964C185.053 166.354 185.191 166.04 185.384 165.76V163.894C184.738 163.536 184.157 163.062 183.699 162.443C183.035 161.546 182.691 160.439 182.691 159.177V156.739C182.691 155.117 183.257 153.625 184.201 152.461C183.961 152.094 183.807 151.666 183.774 151.202C183.773 151.186 183.773 151.17 183.772 151.154L183.769 151.062V151.016C183.769 150.54 183.894 150.094 184.113 149.707C184.034 149.566 183.968 149.416 183.915 149.261C183.822 149.076 183.769 148.87 183.769 148.655L183.768 145.221C182.702 144.009 182.152 142.306 182.152 140.848C182.152 131.087 188.339 123.373 197.762 118.17C207.18 112.97 220.007 110.153 233.847 110.153Z" fill="white" stroke="white" stroke-width="2.69242" stroke-linejoin="round"/>
<path fill-rule="evenodd" clip-rule="evenodd" d="M182.422 172.318C182.422 177.25 186.107 181.393 191.016 181.863C200.993 182.819 218.128 184.195 234.116 184.195C249.511 184.195 264.268 182.92 273.111 181.972C277.934 181.454 281.503 177.358 281.503 172.508V168.041H182.422V172.318Z" fill="#EC9D47"/>
<path fill-rule="evenodd" clip-rule="evenodd" d="M277.905 151.378C280.785 151.378 283.12 153.778 283.12 156.739V159.177C283.12 161.192 282.039 162.439 280.44 163.031C280.175 162.957 279.87 162.927 279.546 162.927C279.535 162.927 255.334 163.141 252.058 163.539C250.165 163.647 248.888 163.753 248.228 163.855C230.075 166.684 222.411 162.41 213.713 161.524C208.021 160.944 202.667 161.309 198.496 162.337C198.451 162.348 196.734 162.597 195.779 162.654C194.071 162.756 192.513 162.954 190.501 162.893C189.346 162.859 187.821 163.391 186.947 163.109C185.224 162.555 184.039 161.286 184.039 159.177V156.739C184.039 153.778 186.374 151.378 189.254 151.378C209.341 150.292 224.459 149.744 234.607 149.733L234.926 149.732C244.477 149.732 258.803 150.281 277.905 151.378Z" fill="#73371F"/>
<path fill-rule="evenodd" clip-rule="evenodd" d="M248.651 166.846C249.316 166.744 250.601 166.64 252.507 166.533C255.805 166.14 280.17 165.929 280.181 165.929C281.211 165.929 282.045 166.221 282.045 167.249C282.045 168.39 281.22 168.282 280.094 168.471C278.59 168.724 276.982 168.858 275.269 168.874C272.983 168.894 266.123 168.742 254.688 168.418C254.071 168.401 252.882 168.456 251.12 168.585C250.277 168.846 249.305 169.083 248.196 169.27C237.343 171.108 233.917 176.238 229.797 182.936C225.821 189.399 223.057 168.915 209.858 168.353C201.059 167.978 193.869 168.215 188.289 169.063C188.155 169.067 188.021 169.059 187.889 169.037C186.785 168.853 186.039 168.352 186.223 167.249C186.461 165.823 187.653 165.831 189.098 165.738L190.34 165.659C192.292 165.76 194.127 165.76 195.846 165.659C196.807 165.603 198.536 165.357 198.582 165.347C202.781 164.331 208.171 163.971 213.902 164.544C222.659 165.419 230.375 169.639 248.651 166.846Z" fill="#FFBC0D"/>
<path d="M253.934 147.039C261.019 147.483 269.094 148.12 278.155 148.948L278.292 148.961H278.428C279.937 148.961 281.21 148.373 282.211 147.431C282.458 147.674 282.61 148.012 282.61 148.385C282.61 149.129 282.007 149.732 281.263 149.732H186.464C185.813 149.732 185.27 149.27 185.145 148.657C185.722 148.854 186.343 148.961 187.002 148.961H187.13L187.257 148.95C196.98 148.121 205.499 147.484 212.811 147.039L253.934 147.039Z" fill="#FFD90D"/>
<path d="M185.117 151.006C185.117 150.291 185.673 149.71 186.388 149.702C192.716 149.628 220.834 149.305 228.465 149.305C236.163 149.305 273.308 149.633 281.133 149.704C281.95 149.711 282.583 150.375 282.583 151.192C282.583 151.856 282.143 152.44 281.501 152.609C280.051 152.993 277.524 153.613 276.361 153.613C275.041 153.613 273.713 153.397 272.366 153.126C271.036 152.858 269.687 152.536 268.313 152.314C267.013 152.104 196.709 152.283 186.379 152.31C185.657 152.312 185.117 151.728 185.117 151.006Z" fill="#DB0007"/>
<path d="M283.726 146.638C283.906 146.73 284.02 146.923 284.02 147.134V149.005C284.02 149.31 283.786 149.556 283.496 149.556C283.428 149.556 283.361 149.543 283.298 149.515C281.734 148.841 279.122 147.74 277.559 147.316L278.114 147.37L278.246 147.383H278.379C279.862 147.383 281.11 146.768 282.089 145.787C282.283 145.885 283.528 146.536 283.726 146.638Z" fill="#FFEBB8"/>
<path d="M219.33 149.198C219.515 149.318 219.609 149.537 219.567 149.753L219.213 151.572C219.156 151.864 218.874 152.055 218.582 151.998C218.524 151.987 218.468 151.966 218.417 151.936C214.987 149.969 211.472 148.442 207.871 147.355C210.592 147.172 213.167 147.012 215.597 146.875C216.78 147.58 218.024 148.354 219.33 149.198Z" fill="#FFEBB8"/>
<path d="M233.353 146.502C236.85 146.502 240.875 146.618 245.427 146.849C239.262 149.49 234.609 150.81 231.466 150.81C228.401 150.81 223.901 149.555 217.965 147.045C224.1 146.683 229.231 146.502 233.353 146.502Z" fill="#FFEBB8"/>
<path d="M217.378 146.791C217.373 148.239 216.989 149.675 216.188 150.959C213.712 154.928 211.051 159.193 203.181 154.268C199.703 152.091 198.282 150.044 197.992 148.093C205.111 147.541 211.451 147.114 217.009 146.811L217.378 146.791Z" fill="#E6E454"/>
<path d="M218.457 146.734C218.463 148.386 218.028 150.031 217.103 151.506C216.86 151.893 216.751 152.066 216.613 152.282C214.926 154.922 213.629 156.323 211.709 157.067C209.246 158.02 206.296 157.431 202.611 155.137C199.081 152.94 197.258 150.662 196.918 148.169C197.653 148.112 198.38 148.056 199.099 148.001C199.39 149.728 200.808 151.454 203.766 153.296C206.921 155.259 209.189 155.712 210.919 155.042C212.278 154.516 213.321 153.389 214.773 151.116C214.907 150.906 215.014 150.737 215.254 150.355C215.929 149.279 216.259 148.073 216.274 146.851C216.972 146.813 217.657 146.776 218.331 146.741L218.457 146.734Z" fill="#66881E"/>
<path d="M244.082 146.52C248.13 146.685 252.618 146.934 257.544 147.268C255.059 150.705 251.49 149.829 248.113 149C246.526 148.61 245.171 147.75 244.141 146.587L244.082 146.52Z" fill="#E6E454"/>
<path d="M242.684 146.465C243.651 146.5 244.644 146.54 245.664 146.586C246.439 147.233 247.36 147.712 248.392 147.962C248.825 148.066 249.018 148.113 249.257 148.168C251.851 148.774 253.367 148.86 254.693 148.32C255.278 148.082 255.816 147.707 256.307 147.175C257.137 147.228 257.981 147.284 258.838 147.343C257.941 148.757 256.84 149.709 255.525 150.245C253.65 151.008 251.766 150.901 248.754 150.198C248.556 150.152 248.391 150.112 248.108 150.044L247.872 149.987C245.733 149.47 243.971 148.224 242.751 146.559L242.684 146.465Z" fill="#66881E"/>
<path fill-rule="evenodd" clip-rule="evenodd" d="M250.562 146.84C255.881 147.144 261.805 147.566 268.332 148.108C267.399 148.62 266.51 149.237 265.668 149.982C261.928 153.294 259.471 157.72 258.313 156.238C257.156 154.756 257.156 151.37 255.964 149.771C255.033 148.52 253.541 147.582 250.763 146.889L250.562 146.84Z" fill="#FFBC0D"/>
<path fill-rule="evenodd" clip-rule="evenodd" d="M281.773 140.309C281.773 142.331 280.561 145.424 278.401 145.424C278.401 145.424 248.968 142.732 233.31 142.732C218.549 142.732 187 145.424 187 145.424C184.84 145.424 183.5 142.87 183.5 140.847C183.5 122.647 206.488 111.5 233.848 111.5C261.209 111.5 281.773 122.108 281.773 140.309Z" fill="#EC9D47"/>
<path fill-rule="evenodd" clip-rule="evenodd" d="M229.512 130.153C228.756 129.744 228.509 128.82 228.96 128.088C229.411 127.356 231.96 125.295 232.371 125.517C232.782 125.739 232.15 128.837 231.699 129.569C231.248 130.301 230.269 130.562 229.512 130.153Z" fill="white"/>
<path fill-rule="evenodd" clip-rule="evenodd" d="M229.06 116.294C229.566 115.707 230.482 115.643 231.105 116.152C231.729 116.661 233.285 119.2 233.01 119.519C232.735 119.838 229.895 118.787 229.272 118.278C228.648 117.77 228.554 116.881 229.06 116.294Z" fill="white"/>
<path fill-rule="evenodd" clip-rule="evenodd" d="M212.791 130.399C212.285 130.986 211.369 131.05 210.745 130.541C210.122 130.032 208.566 127.493 208.841 127.174C209.116 126.855 211.956 127.906 212.579 128.415C213.202 128.924 213.297 129.812 212.791 130.399Z" fill="white"/>
<path fill-rule="evenodd" clip-rule="evenodd" d="M206.903 134.677C207.78 134.532 208.621 135.101 208.781 135.947C208.94 136.793 208.392 139.959 207.916 140.038C207.439 140.116 205.764 137.316 205.605 136.47C205.445 135.624 206.026 134.821 206.903 134.677Z" fill="white"/>
<path fill-rule="evenodd" clip-rule="evenodd" d="M187.595 139.987C188.101 139.4 189.017 139.337 189.64 139.846C190.264 140.355 191.82 142.893 191.545 143.212C191.27 143.531 188.43 142.481 187.807 141.972C187.184 141.463 187.089 140.575 187.595 139.987Z" fill="white"/>
<path fill-rule="evenodd" clip-rule="evenodd" d="M256.681 131.637C256.094 131.13 256.03 130.215 256.539 129.591C257.048 128.968 259.587 127.412 259.906 127.687C260.224 127.962 259.174 130.802 258.665 131.425C258.156 132.048 257.268 132.143 256.681 131.637Z" fill="white"/>
<path fill-rule="evenodd" clip-rule="evenodd" d="M252.138 118.522C253.015 118.378 253.855 118.947 254.015 119.793C254.175 120.639 253.627 123.805 253.15 123.883C252.674 123.962 250.999 121.161 250.839 120.316C250.679 119.47 251.261 118.667 252.138 118.522Z" fill="white"/>
<path fill-rule="evenodd" clip-rule="evenodd" d="M225.848 134.893C226.257 135.65 225.996 136.628 225.264 137.08C224.533 137.531 221.434 138.163 221.212 137.752C220.99 137.341 223.052 134.792 223.783 134.341C224.515 133.889 225.44 134.137 225.848 134.893Z" fill="white"/>
<path fill-rule="evenodd" clip-rule="evenodd" d="M235.521 135.679C236.027 135.092 236.943 135.028 237.566 135.537C238.19 136.046 239.746 138.585 239.471 138.904C239.196 139.222 236.356 138.172 235.733 137.663C235.109 137.154 235.014 136.266 235.521 135.679Z" fill="white"/>
<path fill-rule="evenodd" clip-rule="evenodd" d="M244.35 126.039C245.242 126.039 245.965 126.728 245.965 127.578C245.965 128.427 244.834 131.424 244.35 131.424C243.865 131.424 242.734 128.427 242.734 127.578C242.734 126.728 243.458 126.039 244.35 126.039Z" fill="white"/>
<path fill-rule="evenodd" clip-rule="evenodd" d="M274.557 132.288C275.144 132.795 275.208 133.711 274.699 134.334C274.19 134.957 271.651 136.514 271.333 136.238C271.014 135.963 272.064 133.123 272.573 132.5C273.082 131.877 273.97 131.782 274.557 132.288Z" fill="white"/>
<path fill-rule="evenodd" clip-rule="evenodd" d="M256.495 140.386C255.739 140.795 254.76 140.533 254.309 139.801C253.858 139.07 253.226 135.971 253.637 135.749C254.048 135.527 256.597 137.589 257.048 138.32C257.499 139.052 257.252 139.977 256.495 140.386Z" fill="white"/>
<path fill-rule="evenodd" clip-rule="evenodd" d="M216.885 117.961C217.777 117.961 218.5 118.65 218.5 119.499C218.5 120.349 217.37 123.346 216.885 123.346C216.4 123.346 215.27 120.349 215.27 119.499C215.27 118.65 215.993 117.961 216.885 117.961Z" fill="white"/>
<path fill-rule="evenodd" clip-rule="evenodd" d="M194.056 129.755C194.562 129.168 195.478 129.104 196.101 129.613C196.725 130.122 198.281 132.661 198.006 132.98C197.731 133.299 194.891 132.248 194.268 131.739C193.644 131.231 193.55 130.342 194.056 129.755Z" fill="white"/>
</svg>
