<svg width="44" height="44" viewBox="0 0 44 44" fill="none" xmlns="http://www.w3.org/2000/svg">
<path fill-rule="evenodd" clip-rule="evenodd" d="M22 11C22.4673 11 22.8462 11.3788 22.8462 11.8462V13.5385C22.8462 14.0058 22.4673 14.3846 22 14.3846C21.5327 14.3846 21.1538 14.0058 21.1538 13.5385V11.8462C21.1538 11.3788 21.5327 11 22 11ZM27.0769 22C27.0769 24.8039 24.8039 27.0769 22 27.0769C19.1961 27.0769 16.9231 24.8039 16.9231 22C16.9231 19.1961 19.1961 16.9231 22 16.9231C24.8039 16.9231 27.0769 19.1961 27.0769 22ZM22.8462 30.4615C22.8462 29.9942 22.4673 29.6154 22 29.6154C21.5327 29.6154 21.1538 29.9942 21.1538 30.4615V32.1538C21.1538 32.6212 21.5327 33 22 33C22.4673 33 22.8462 32.6212 22.8462 32.1538V30.4615ZM33 22C33 22.4673 32.6212 22.8462 32.1538 22.8462H30.4615C29.9942 22.8462 29.6154 22.4673 29.6154 22C29.6154 21.5327 29.9942 21.1538 30.4615 21.1538H32.1538C32.6212 21.1538 33 21.5327 33 22ZM13.5385 22.8462C14.0058 22.8462 14.3846 22.4673 14.3846 22C14.3846 21.5327 14.0058 21.1538 13.5385 21.1538H11.8462C11.3788 21.1538 11 21.5327 11 22C11 22.4673 11.3788 22.8462 11.8462 22.8462H13.5385ZM29.7782 29.7781C29.4477 30.1086 28.912 30.1086 28.5815 29.7781L27.3849 28.5815C27.0545 28.251 27.0545 27.7153 27.3849 27.3848C27.7153 27.0544 28.2511 27.0544 28.5815 27.3848L29.7782 28.5815C30.1086 28.9119 30.1086 29.4477 29.7782 29.7781ZM15.4185 16.6151C15.7489 16.9456 16.2847 16.9456 16.6151 16.6151C16.9456 16.2847 16.9456 15.7489 16.6151 15.4185L15.4185 14.2218C15.088 13.8914 14.5523 13.8914 14.2218 14.2218C13.8914 14.5523 13.8914 15.088 14.2218 15.4185L15.4185 16.6151ZM14.2218 29.7781C14.5523 30.1086 15.088 30.1086 15.4185 29.7781L16.6151 28.5815C16.9455 28.251 16.9455 27.7153 16.6151 27.3848C16.2847 27.0544 15.7489 27.0544 15.4185 27.3848L14.2218 28.5815C13.8914 28.9119 13.8914 29.4477 14.2218 29.7781ZM28.5815 16.615C28.2511 16.9455 27.7153 16.9455 27.3849 16.615C27.0544 16.2846 27.0544 15.7488 27.3849 15.4184L28.5815 14.2217C28.912 13.8913 29.4477 13.8913 29.7782 14.2217C30.1086 14.5522 30.1086 15.0879 29.7782 15.4184L28.5815 16.615Z" fill="white"/>
<path fill-rule="evenodd" clip-rule="evenodd" d="M14.2218 29.7781L13.5147 30.4852C12.7937 29.7643 12.7937 28.5954 13.5147 27.8744L14.7114 26.6777C15.4323 25.9568 16.6012 25.9568 17.3222 26.6777C18.0432 27.3987 18.0432 28.5676 17.3222 29.2886L16.1256 30.4852C15.4046 31.2062 14.2357 31.2062 13.5147 30.4852L14.2218 29.7781ZM14.2218 29.7781C13.8914 29.4477 13.8914 28.9119 14.2218 28.5815L15.4185 27.3848C15.7489 27.0544 16.2847 27.0544 16.6151 27.3848C16.9455 27.7153 16.9455 28.251 16.6151 28.5815L15.4185 29.7781C15.088 30.1086 14.5523 30.1086 14.2218 29.7781ZM28.5815 29.7781L27.8744 30.4852L26.6778 29.2886C25.9568 28.5676 25.9568 27.3987 26.6778 26.6777C27.3988 25.9568 28.5677 25.9568 29.2886 26.6777L30.4853 27.8744C31.2063 28.5954 31.2063 29.7643 30.4853 30.4852L29.7782 29.7781C30.1086 29.4477 30.1086 28.9119 29.7782 28.5815L28.5815 27.3848C28.2511 27.0544 27.7153 27.0544 27.3849 27.3848C27.0545 27.7153 27.0545 28.251 27.3849 28.5815L28.5815 29.7781ZM28.5815 29.7781L27.8744 30.4852C28.5954 31.2062 29.7643 31.2062 30.4853 30.4852L29.7782 29.7781C29.4477 30.1086 28.912 30.1086 28.5815 29.7781ZM22 10C23.0196 10 23.8462 10.8266 23.8462 11.8462V13.5385C23.8462 14.5581 23.0196 15.3846 22 15.3846C20.9804 15.3846 20.1538 14.5581 20.1538 13.5385V11.8462C20.1538 10.8266 20.9804 10 22 10ZM28.0769 22C28.0769 25.3562 25.3562 28.0769 22 28.0769C18.6438 28.0769 15.9231 25.3562 15.9231 22C15.9231 18.6438 18.6438 15.9231 22 15.9231C25.3562 15.9231 28.0769 18.6438 28.0769 22ZM22 28.6154C23.0196 28.6154 23.8462 29.4419 23.8462 30.4615V32.1538C23.8462 33.1734 23.0196 34 22 34C20.9804 34 20.1538 33.1734 20.1538 32.1538V30.4615C20.1538 29.4419 20.9804 28.6154 22 28.6154ZM34 22C34 23.0196 33.1734 23.8462 32.1538 23.8462H30.4615C29.4419 23.8462 28.6154 23.0196 28.6154 22C28.6154 20.9804 29.4419 20.1538 30.4615 20.1538H32.1538C33.1734 20.1538 34 20.9804 34 22ZM15.3846 22C15.3846 23.0196 14.5581 23.8462 13.5385 23.8462H11.8462C10.8266 23.8462 10 23.0196 10 22C10 20.9804 10.8266 20.1538 11.8462 20.1538H13.5385C14.5581 20.1538 15.3846 20.9804 15.3846 22ZM17.3222 17.3222C16.6013 18.0432 15.4323 18.0432 14.7114 17.3222L13.5147 16.1256C12.7938 15.4046 12.7938 14.2357 13.5147 13.5147C14.2357 12.7938 15.4046 12.7938 16.1256 13.5147L17.3222 14.7114C18.0432 15.4323 18.0432 16.6013 17.3222 17.3222ZM29.2886 17.3221C28.5676 18.0431 27.3987 18.0431 26.6778 17.3221C25.9568 16.6012 25.9568 15.4322 26.6778 14.7113L27.8744 13.5146C28.5954 12.7937 29.7643 12.7937 30.4853 13.5146C31.2062 14.2356 31.2062 15.4045 30.4853 16.1255L29.2886 17.3221ZM22.8462 11.8462C22.8462 11.3788 22.4673 11 22 11C21.5327 11 21.1538 11.3788 21.1538 11.8462V13.5385C21.1538 14.0058 21.5327 14.3846 22 14.3846C22.4673 14.3846 22.8462 14.0058 22.8462 13.5385V11.8462ZM22 27.0769C24.8039 27.0769 27.0769 24.8039 27.0769 22C27.0769 19.1961 24.8039 16.9231 22 16.9231C19.1961 16.9231 16.9231 19.1961 16.9231 22C16.9231 24.8039 19.1961 27.0769 22 27.0769ZM22 29.6154C22.4673 29.6154 22.8462 29.9942 22.8462 30.4615V32.1538C22.8462 32.6212 22.4673 33 22 33C21.5327 33 21.1538 32.6212 21.1538 32.1538V30.4615C21.1538 29.9942 21.5327 29.6154 22 29.6154ZM32.1538 22.8462C32.6212 22.8462 33 22.4673 33 22C33 21.5327 32.6212 21.1538 32.1538 21.1538H30.4615C29.9942 21.1538 29.6154 21.5327 29.6154 22C29.6154 22.4673 29.9942 22.8462 30.4615 22.8462H32.1538ZM14.3846 22C14.3846 22.4673 14.0058 22.8462 13.5385 22.8462H11.8462C11.3788 22.8462 11 22.4673 11 22C11 21.5327 11.3788 21.1538 11.8462 21.1538H13.5385C14.0058 21.1538 14.3846 21.5327 14.3846 22ZM16.6151 16.6151C16.2847 16.9456 15.7489 16.9456 15.4185 16.6151L14.2218 15.4185C13.8914 15.088 13.8914 14.5523 14.2218 14.2218C14.5523 13.8914 15.088 13.8914 15.4185 14.2218L16.6151 15.4185C16.9456 15.7489 16.9456 16.2847 16.6151 16.6151ZM27.3849 16.615C27.7153 16.9455 28.2511 16.9455 28.5815 16.615L29.7782 15.4184C30.1086 15.0879 30.1086 14.5522 29.7782 14.2217C29.4477 13.8913 28.912 13.8913 28.5815 14.2217L27.3849 15.4184C27.0544 15.7488 27.0544 16.2846 27.3849 16.615Z" fill="white"/>
<path fill-rule="evenodd" clip-rule="evenodd" d="M22 11C22.4673 11 22.8462 11.3788 22.8462 11.8462V13.5385C22.8462 14.0058 22.4673 14.3846 22 14.3846C21.5327 14.3846 21.1538 14.0058 21.1538 13.5385V11.8462C21.1538 11.3788 21.5327 11 22 11ZM22.8462 30.4615C22.8462 29.9942 22.4673 29.6154 22 29.6154C21.5327 29.6154 21.1538 29.9942 21.1538 30.4615V32.1538C21.1538 32.6212 21.5327 33 22 33C22.4673 33 22.8462 32.6212 22.8462 32.1538V30.4615ZM33 22C33 22.4673 32.6212 22.8462 32.1538 22.8462H30.4615C29.9942 22.8462 29.6154 22.4673 29.6154 22C29.6154 21.5327 29.9942 21.1538 30.4615 21.1538H32.1538C32.6212 21.1538 33 21.5327 33 22ZM13.5385 22.8462C14.0058 22.8462 14.3846 22.4673 14.3846 22C14.3846 21.5327 14.0058 21.1538 13.5385 21.1538H11.8462C11.3788 21.1538 11 21.5327 11 22C11 22.4673 11.3788 22.8462 11.8462 22.8462H13.5385ZM29.7782 29.7781C29.4477 30.1086 28.912 30.1086 28.5815 29.7781L27.3849 28.5815C27.0545 28.251 27.0545 27.7153 27.3849 27.3848C27.7153 27.0544 28.2511 27.0544 28.5815 27.3848L29.7782 28.5815C30.1086 28.9119 30.1086 29.4477 29.7782 29.7781ZM15.4185 16.6151C15.7489 16.9456 16.2847 16.9456 16.6151 16.6151C16.9456 16.2847 16.9456 15.7489 16.6151 15.4185L15.4185 14.2218C15.088 13.8914 14.5523 13.8914 14.2218 14.2218C13.8914 14.5523 13.8914 15.088 14.2218 15.4185L15.4185 16.6151ZM14.2218 29.7781C14.5523 30.1086 15.088 30.1086 15.4185 29.7781L16.6151 28.5815C16.9455 28.251 16.9455 27.7153 16.6151 27.3848C16.2847 27.0544 15.7489 27.0544 15.4185 27.3848L14.2218 28.5815C13.8914 28.9119 13.8914 29.4477 14.2218 29.7781ZM28.5815 16.615C28.2511 16.9455 27.7153 16.9455 27.3849 16.615C27.0544 16.2846 27.0544 15.7488 27.3849 15.4184L28.5815 14.2217C28.912 13.8913 29.4477 13.8913 29.7782 14.2217C30.1086 14.5522 30.1086 15.0879 29.7782 15.4184L28.5815 16.615Z" fill="#FFBC0D"/>
<path d="M22 27C24.7614 27 27 24.7614 27 22C27 19.2386 24.7614 17 22 17C19.2386 17 17 19.2386 17 22C17 24.7614 19.2386 27 22 27Z" fill="#FFBC0D"/>
</svg>
